<svg width="135" height="34" viewBox="0 0 135 34" fill="none" xmlns="http://www.w3.org/2000/svg">
<path fill-rule="evenodd" clip-rule="evenodd" d="M48.7476 8.44897C48.7476 8.44664 48.7495 8.44475 48.7519 8.44475C51.3216 8.44527 53.7645 8.91612 56.0809 9.86571C56.1982 9.91132 56.2754 10.0243 56.2754 10.1501V14.5368C56.2754 14.7592 56.0499 14.9106 55.844 14.8263C53.5096 13.8426 51.3781 13.355 49.4495 13.355C47.0559 13.355 45.2967 13.9435 44.1463 15.1122C42.9962 16.2725 42.4126 18.1559 42.4126 20.7539C42.4126 23.4865 42.9875 25.7287 44.1127 26.9479C45.2292 28.167 47.0559 28.7808 49.602 28.7808C51.6825 28.7808 53.7716 28.2763 55.8863 27.2758C56.0903 27.1783 56.3261 27.327 56.3261 27.5531V31.9397C56.3261 32.0641 56.2533 32.1769 56.14 32.228C53.8563 33.2454 51.412 33.75 48.7984 33.75C45.5759 33.75 42.8608 32.867 40.653 31.1014L40.3234 30.8324L40.0782 30.6053C37.9635 28.6295 36.9145 25.2857 36.9145 21.1322C36.9145 16.6929 38.031 13.4643 40.2727 11.4464C42.5044 9.44611 45.3283 8.45401 48.7434 8.45319C48.7457 8.45318 48.7476 8.4513 48.7476 8.44897Z" fill="#006AFF"/>
<path fill-rule="evenodd" clip-rule="evenodd" d="M5.55612 9.14285C5.74168 9.14285 5.89211 9.29327 5.89211 9.47883V32.7104C5.89211 32.896 5.74168 33.0464 5.55612 33.0464H0.335986C0.150426 33.0464 0 32.896 0 32.7104V9.47883C0 9.29327 0.150426 9.14285 0.335987 9.14285H5.55612Z" fill="#006AFF"/>
<path fill-rule="evenodd" clip-rule="evenodd" d="M22.9175 8.48446C22.9175 8.48213 22.9194 8.48025 22.9218 8.48025C26.269 8.48084 28.7543 9.18713 30.3861 10.6074C32.0185 12.0452 32.8305 14.2565 32.8305 17.2329V32.7036C32.8305 32.8892 32.6801 33.0396 32.4945 33.0396H27.6264C27.4408 33.0396 27.2904 32.8892 27.2904 32.7036V17.8887C27.2904 14.803 25.5818 13.298 22.0294 13.298C20.5492 13.298 19.1198 13.5082 17.7411 13.9286L17.4639 14.0204C17.3264 14.066 17.2336 14.1945 17.2336 14.3394V32.712C17.2336 32.8976 17.0832 33.048 16.8976 33.048H12.0295C11.8439 33.048 11.6935 32.8976 11.6935 32.712V11.2167C11.6935 11.101 11.759 10.9953 11.8627 10.9438C13.2921 10.2207 15.026 9.62374 17.0645 9.16969L17.7411 9.02676C19.5327 8.66555 21.2568 8.48898 22.9133 8.48868C22.9156 8.48868 22.9175 8.48679 22.9175 8.48446Z" fill="#006AFF"/>
<path fill-rule="evenodd" clip-rule="evenodd" d="M80.1231 11.6901C78.1522 9.5209 75.2258 8.4363 71.3686 8.4363C63.6971 8.4363 59.8147 12.6739 59.8147 21.0229C59.8147 24.9662 60.7031 28.0266 62.4875 30.1959L62.7244 30.4733C64.6785 32.6594 67.5794 33.7525 71.411 33.7525C75.2426 33.7525 77.9916 32.651 80.0213 30.4313C82.0429 28.22 83.0496 25.0839 83.0496 21.0313C83.0496 16.9787 82.0769 13.8594 80.1144 11.6985L80.1231 11.6901ZM71.3686 28.9767C69.2459 28.9767 67.7232 28.3125 66.776 26.9841C65.8034 25.6304 65.3128 23.6461 65.3128 21.0229C65.3128 18.3996 65.7862 16.4322 66.7337 15.1122C67.6557 13.8173 69.1864 13.1615 71.3774 13.1615C73.568 13.1615 75.082 13.8005 76.0462 15.0701C77.0273 16.3649 77.5263 18.3492 77.5263 21.0229C77.5263 26.3787 75.4878 28.9767 71.3686 28.9767Z" fill="#006AFF"/>
<path fill-rule="evenodd" clip-rule="evenodd" d="M103.941 0C103.756 0 103.605 0.150426 103.605 0.335987V9.05483C103.605 9.2972 103.356 9.4606 103.13 9.37414C102.474 9.1237 101.767 8.92523 101 8.77006C99.8753 8.55147 98.8771 8.44217 98.0146 8.44217C94.3097 8.44217 91.4931 9.5352 89.5817 11.7212C87.687 13.8989 86.7396 16.9089 86.7396 20.7429C86.7396 25.527 87.8477 28.8985 90.0722 30.8491C92.2884 32.783 95.105 33.7499 98.5219 33.7499C100.205 33.7499 101.837 33.548 103.428 33.1361C105.035 32.7241 106.371 32.0683 107.437 31.1855C108.536 30.269 109.095 29.1339 109.095 27.7971V0.335986C109.095 0.150426 108.944 0 108.759 0H103.941ZM103.601 27.3221C103.603 27.3205 103.605 27.3217 103.605 27.3239V27.4149C103.605 27.4174 103.605 27.42 103.605 27.4225C103.535 27.7825 103.137 28.1008 102.337 28.3857C101.389 28.7136 100.214 28.8817 98.8095 28.8817C96.3988 28.8817 94.7579 28.1839 93.8191 26.7965C92.8549 25.3756 92.3727 23.3914 92.3727 20.8354C92.3727 15.7402 94.4619 13.2515 98.7165 13.2515C99.5622 13.2515 100.433 13.3692 101.33 13.5962C102.015 13.7728 102.658 13.9998 103.25 14.2941L103.419 14.3841C103.528 14.4425 103.597 14.5565 103.597 14.6806V27.3202C103.597 27.3225 103.599 27.3236 103.601 27.3221Z" fill="#006AFF"/>
<path fill-rule="evenodd" clip-rule="evenodd" d="M5.55612 9.47925e-05C5.74168 9.47925e-05 5.89211 0.150521 5.89211 0.336081V4.71723C5.89211 4.90279 5.74168 5.05322 5.55612 5.05322H0.335986C0.150426 5.05322 0 4.90279 0 4.71723V0.336081C0 0.150521 0.150426 9.47925e-05 0.335987 9.47925e-05H5.55612Z" fill="#006AFF"/>
<path d="M124.157 8.44475C127.904 8.44477 130.669 9.65548 132.437 12.0937C134.103 14.3974 134.958 17.5675 135 21.5948V22.1162C135 22.3018 134.85 22.4522 134.664 22.4522H118.909C118.712 22.4523 118.556 22.6226 118.58 22.819C118.813 24.7141 119.435 26.1579 120.46 27.1777C121.602 28.3126 123.235 28.8845 125.374 28.8845C126.787 28.8845 128.132 28.7077 129.409 28.3546C130.695 28.0099 131.828 27.5558 132.81 27.0093L133.274 26.7488L133.606 26.5136C133.828 26.3555 134.136 26.5146 134.136 26.7875V31.4264C134.136 31.5557 134.062 31.6737 133.945 31.7295L133.276 32.0498C133.275 32.0502 133.274 32.0511 133.274 32.0521C133.274 32.0532 133.274 32.0542 133.273 32.0547L133.088 32.138C130.61 33.2143 127.777 33.7524 124.579 33.7524C120.968 33.7524 118.109 32.6509 116.037 30.4565C113.965 28.2621 112.933 25.2522 112.932 21.166C112.932 17.0797 113.905 13.9351 115.868 11.7406C117.83 9.54621 120.604 8.44475 124.157 8.44475ZM124.013 13.0774C122.423 13.0774 121.205 13.4812 120.334 14.2966C119.564 15.0113 119.023 16.1884 118.718 17.8363L118.66 18.1913C118.659 18.1954 118.66 18.1995 118.663 18.2025C118.666 18.2049 118.669 18.2064 118.672 18.2064H128.967C129.163 18.2064 129.313 18.0305 129.282 17.8363C129.02 16.2725 128.521 15.1206 127.777 14.3639C126.931 13.5064 125.687 13.0774 124.013 13.0774Z" fill="#006AFF"/>
</svg>
