<svg width="24" height="24" viewBox="0 0 24 24" fill="none" xmlns="http://www.w3.org/2000/svg">
<path d="M16.4335 19.9988C16.4335 17.7658 13.2805 15.2068 9.59151 15.2068C5.88051 15.2068 2.74951 17.7848 2.74951 20.0188" stroke="black" stroke-width="1.2" stroke-linecap="round" stroke-linejoin="round"/>
<path d="M20.4143 19.6273C20.4143 18.1808 18.7431 15.3898 16.7213 15.109" stroke="black" stroke-width="1.2" stroke-linecap="round" stroke-linejoin="round"/>
<path fill-rule="evenodd" clip-rule="evenodd" d="M9.59151 12.0198C7.16951 12.0198 5.20551 10.0568 5.20551 7.6348C5.20551 5.2128 7.16951 3.2498 9.59151 3.2498C12.0125 3.2498 13.9765 5.2128 13.9765 7.6348C13.9855 10.0478 12.0355 12.0108 9.62251 12.0198H9.59151Z" stroke="black" stroke-width="1.2" stroke-linecap="round" stroke-linejoin="round"/>
<path d="M16.4831 10.8816C18.0841 10.6566 19.3171 9.2826 19.3201 7.6196C19.3201 5.9806 18.1251 4.6206 16.5581 4.3636" stroke="black" stroke-width="1.2" stroke-linecap="round" stroke-linejoin="round"/>
</svg>
