<svg width="24" height="24" viewBox="0 0 24 24" fill="none" xmlns="http://www.w3.org/2000/svg">
<path d="M5.68348 4.64282H15.4687C17.1238 4.64282 18.1532 5.8104 18.1532 7.46349V13.6915C18.1532 15.3446 17.1238 16.5131 15.4678 16.5131H5.68348C4.02941 16.5131 3 15.3446 3 13.6915V7.46349C3 5.8104 4.03428 4.64282 5.68348 4.64282Z" stroke="black" stroke-width="1.2" stroke-linecap="round" stroke-linejoin="round"/>
<path d="M6.3103 18.2387C6.76595 18.9343 7.53598 19.3566 8.53404 19.3566H18.3106C19.9714 19.3566 20.9999 18.1871 20.9999 16.5349V10.3069C20.9999 9.33486 20.6434 8.52937 20.0133 8.03125" stroke="black" stroke-width="1.2" stroke-linecap="round" stroke-linejoin="round"/>
<path d="M5.70703 13.5654H12.2488" stroke="black" stroke-width="1.2" stroke-linecap="round" stroke-linejoin="round"/>
<path fill-rule="evenodd" clip-rule="evenodd" d="M9.55909 8.65259C9.55909 7.58911 8.69699 6.72705 7.63349 6.72705C6.56909 6.72705 5.70703 7.58911 5.70703 8.65259C5.70703 9.71609 6.56909 10.5781 7.63349 10.5781C8.69699 10.5781 9.55909 9.71609 9.55909 8.65259Z" stroke="black" stroke-width="1.2" stroke-linecap="round" stroke-linejoin="round"/>
<path d="M15.4488 7.58984H14.2676" stroke="black" stroke-width="1.2" stroke-linecap="round" stroke-linejoin="round"/>
</svg>
