<svg width="24" height="24" viewBox="0 0 24 24" fill="none" xmlns="http://www.w3.org/2000/svg">
<path fill-rule="evenodd" clip-rule="evenodd" d="M5.35701 21.1178C4.40351 21.1178 3.63 20.3453 3.63 19.3908V16.0808C3.63 15.1264 4.40351 14.3529 5.35701 14.3529C6.31149 14.3529 7.084 15.1264 7.084 16.0808V19.3908C7.084 20.3453 6.31149 21.1178 5.35701 21.1178Z" stroke="black" stroke-width="1.2" stroke-linecap="round" stroke-linejoin="round"/>
<path fill-rule="evenodd" clip-rule="evenodd" d="M12.0005 21.1182C11.046 21.1182 10.2735 20.3457 10.2735 19.3912V13.5905C10.2735 12.637 11.046 11.8635 12.0005 11.8635C12.954 11.8635 13.7275 12.637 13.7275 13.5905V19.3912C13.7275 20.3457 12.954 21.1182 12.0005 21.1182Z" stroke="black" stroke-width="1.2" stroke-linecap="round" stroke-linejoin="round"/>
<path fill-rule="evenodd" clip-rule="evenodd" d="M18.643 21.1181C17.6885 21.1181 16.916 20.3456 16.916 19.3911V9.38032C16.916 8.42682 17.6885 7.65332 18.643 7.65332C19.5965 7.65332 20.37 8.42682 20.37 9.38032V19.3911C20.37 20.3456 19.5965 21.1181 18.643 21.1181Z" stroke="black" stroke-width="1.2" stroke-linecap="round" stroke-linejoin="round"/>
<path d="M3.63098 10.6878L9.4483 6.53033L11.6306 8.82943L18.6242 3.11816" stroke="black" stroke-width="1.2" stroke-linecap="round" stroke-linejoin="round"/>
</svg>
