<svg width="24" height="24" viewBox="0 0 24 24" fill="none" xmlns="http://www.w3.org/2000/svg">
<path fill-rule="evenodd" clip-rule="evenodd" d="M18.9635 11.9437C20.2254 12.6744 20.9814 14.1864 20.563 15.8112C20.2458 17.0459 19.2048 18.0218 17.9535 18.2679C17.7677 18.3049 17.5838 18.3263 17.4048 18.3341C16.496 18.373 15.8111 17.509 16.0232 16.6246L16.931 12.8291C17.146 11.932 18.1656 11.4815 18.9635 11.9437Z" stroke="black" stroke-width="1.2" stroke-linecap="round" stroke-linejoin="round"/>
<path d="M11.5098 20.9736C13.8361 20.9736 15.4843 21.4514 17.151 18.3359" stroke="black" stroke-width="1.2" stroke-linecap="round" stroke-linejoin="round"/>
<path fill-rule="evenodd" clip-rule="evenodd" d="M5.03574 11.9437C3.77381 12.6744 3.01782 14.1864 3.4362 15.8112C3.75338 17.0459 4.79445 18.0218 6.04567 18.2679C6.23151 18.3049 6.4154 18.3263 6.59442 18.3341C7.50317 18.373 8.18813 17.509 7.97603 16.6246L7.06825 12.8291C6.85323 11.932 5.83357 11.4815 5.03574 11.9437Z" stroke="black" stroke-width="1.2" stroke-linecap="round" stroke-linejoin="round"/>
<path d="M19.3518 12.2042V10.3527C19.3518 6.2925 16.0603 3 11.9991 3C7.93801 3 4.64648 6.2925 4.64648 10.3527V12.2042" stroke="black" stroke-width="1.2" stroke-linecap="round" stroke-linejoin="round"/>
</svg>
