<svg width="24" height="24" viewBox="0 0 24 24" fill="none" xmlns="http://www.w3.org/2000/svg">
<path d="M3 8.46907V6.89189C3 4.74259 4.74259 3 6.89286 3H8.18204" stroke="black" stroke-width="1.2" stroke-linecap="round" stroke-linejoin="round"/>
<path d="M3 15.5311V17.1084C3 19.2576 4.74259 21.0002 6.89286 21.0002H8.14994" stroke="black" stroke-width="1.2" stroke-linecap="round" stroke-linejoin="round"/>
<path d="M21.0004 15.5311V17.1084C21.0004 19.2576 19.2579 21.0002 17.1076 21.0002H15.8184" stroke="black" stroke-width="1.2" stroke-linecap="round" stroke-linejoin="round"/>
<path d="M20.9995 8.46907V6.89189C20.9995 4.74259 19.257 3 17.1067 3H15.8496" stroke="black" stroke-width="1.2" stroke-linecap="round" stroke-linejoin="round"/>
<path d="M11.9995 17.6396C15.1148 17.6396 17.6397 15.1145 17.6397 11.9993C17.6397 8.88406 15.1148 6.35913 11.9995 6.35913C8.88425 6.35913 6.35931 8.88406 6.35931 11.9993C6.35931 15.1145 8.88425 17.6396 11.9995 17.6396Z" stroke="black" stroke-width="1.2" stroke-linecap="round" stroke-linejoin="round"/>
<path d="M10.3184 13.4335C10.6834 13.9444 11.3022 14.2701 12.0019 14.2701C12.7015 14.2701 13.3203 13.9444 13.6854 13.4335" stroke="black" stroke-width="1.2" stroke-linecap="round" stroke-linejoin="round"/>
</svg>
