<svg width="24" height="24" viewBox="0 0 24 24" fill="none" xmlns="http://www.w3.org/2000/svg">
<path d="M11.5605 18.0674L11.5625 18.0774" stroke="black" stroke-width="1.2" stroke-linecap="round" stroke-linejoin="round"/>
<path d="M11.5605 12.6885L11.5625 12.6985" stroke="black" stroke-width="1.2" stroke-linecap="round" stroke-linejoin="round"/>
<path d="M11.5605 15.4077L11.5625 15.4177" stroke="black" stroke-width="1.2" stroke-linecap="round" stroke-linejoin="round"/>
<path d="M15.3379 18.0674L15.3398 18.0774" stroke="black" stroke-width="1.2" stroke-linecap="round" stroke-linejoin="round"/>
<path d="M15.3379 12.6885L15.3398 12.6985" stroke="black" stroke-width="1.2" stroke-linecap="round" stroke-linejoin="round"/>
<path d="M15.3379 15.4077L15.3398 15.4177" stroke="black" stroke-width="1.2" stroke-linecap="round" stroke-linejoin="round"/>
<path d="M3.48145 21H20.5192" stroke="black" stroke-width="1.2" stroke-linecap="round" stroke-linejoin="round"/>
<path d="M19.1145 20.9995V11.0713C19.1145 9.97769 18.2281 9.09131 17.1345 9.09131H9.78273C8.68911 9.09131 7.80273 9.97769 7.80273 11.0713V20.9995" stroke="black" stroke-width="1.2" stroke-linecap="round" stroke-linejoin="round"/>
<path d="M10.5443 6.17285L10.5453 6.18285M7.72803 6.17285L7.729 6.18285" stroke="black" stroke-width="1.2" stroke-linecap="round" stroke-linejoin="round"/>
<path d="M4.88379 20.9971V4.98097C4.88379 3.88541 5.77017 3 6.86574 3H11.4776C12.5732 3 13.4596 3.88541 13.4596 4.98097V7.03129" stroke="black" stroke-width="1.2" stroke-linecap="round" stroke-linejoin="round"/>
</svg>
