<svg width="24" height="24" viewBox="0 0 24 24" fill="none" xmlns="http://www.w3.org/2000/svg">
<path d="M17.2029 10.0053L18.7773 10.857L19.1618 11.073C19.9807 11.5331 19.9807 12.7194 19.1618 13.1795L13.9461 16.1098C12.7365 16.7894 11.2635 16.7894 10.0539 16.1098L4.83821 13.1795C4.01922 12.7194 4.01922 11.5331 4.83821 11.073L5.22262 10.857L6.75494 9.97943" stroke="black" stroke-width="1.2"/>
<path d="M17.2697 14.2414L19.0088 15.1257C19.8696 15.5591 19.8972 16.7857 19.0568 17.2579L13.9454 20.1296C12.7358 20.8092 11.2628 20.8092 10.0532 20.1296L5.01621 17.2998C4.16136 16.8195 4.20847 15.5657 5.0969 15.1519L6.84885 14.3088" stroke="black" stroke-width="1.2"/>
<path d="M10.0539 3.87035L4.83821 6.80066C4.01922 7.26079 4.01922 8.44706 4.83821 8.9072L10.0539 11.8375C11.2635 12.5171 12.7365 12.5171 13.9461 11.8375L19.1618 8.9072C19.9807 8.44706 19.9807 7.26079 19.1618 6.80066L13.9461 3.87036C12.7365 3.19076 11.2635 3.19076 10.0539 3.87035Z" stroke="black" stroke-width="1.2"/>
</svg>
