<svg width="24" height="24" viewBox="0 0 24 24" fill="none" xmlns="http://www.w3.org/2000/svg">
<path d="M12.0004 21L9.93283 18.9324H7.875C5.26548 18.9324 3.63867 17.0945 3.63867 14.4859V7.44746C3.63867 4.83795 5.27424 3 7.875 3H16.1258C18.7353 3 20.3612 4.83795 20.3612 7.44746V14.4859C20.3612 17.0945 18.7353 18.9324 16.1258 18.9324H14.068L12.0004 21Z" stroke="black" stroke-width="1.2" stroke-linecap="round" stroke-linejoin="round"/>
<path d="M7.35938 18.8602V18.0468C7.35938 16.5329 8.55807 14.6443 11.9956 14.6443C15.4419 14.6443 16.6406 16.5163 16.6406 18.0293V18.8602" stroke="black" stroke-width="1.2" stroke-linecap="round" stroke-linejoin="round"/>
<path fill-rule="evenodd" clip-rule="evenodd" d="M14.961 9.51532C14.961 11.1518 13.6349 12.478 11.9983 12.478C10.3618 12.478 9.03467 11.1518 9.03467 9.51532C9.03467 7.87878 10.3618 6.55261 11.9983 6.55261C13.6349 6.55261 14.961 7.87878 14.961 9.51532Z" stroke="black" stroke-width="1.2" stroke-linecap="round" stroke-linejoin="round"/>
</svg>
