<svg width="24" height="24" viewBox="0 0 24 24" fill="none" xmlns="http://www.w3.org/2000/svg">
<path d="M20.6235 11.1943C20.6474 11.4597 20.6598 11.7289 20.6598 12C20.6598 16.877 16.7069 20.8299 11.8299 20.8299C6.95293 20.8299 3 16.877 3 12C3 7.12399 6.95293 3.1701 11.8299 3.1701C12.2022 3.1701 12.5697 3.19397 12.9305 3.23884" stroke="black" stroke-width="1.2" stroke-linecap="round" stroke-linejoin="round"/>
<path d="M15.4731 6.18738L17.2792 7.99631L21.0002 4.27344" stroke="black" stroke-width="1.2" stroke-linecap="round" stroke-linejoin="round"/>
<path d="M7.48975 19.6916C7.66253 18.3485 8.85766 16.8574 11.8236 16.8574C14.8219 16.8574 16.0084 18.3571 16.1736 19.7164" stroke="black" stroke-width="1.2" stroke-linecap="round" stroke-linejoin="round"/>
<path fill-rule="evenodd" clip-rule="evenodd" d="M14.3437 11.9656C14.3437 13.3536 13.2183 14.4791 11.8303 14.4791C10.4423 14.4791 9.31689 13.3536 9.31689 11.9656C9.31689 10.5777 10.4423 9.45319 11.8303 9.45319C13.2183 9.45319 14.3437 10.5777 14.3437 11.9656Z" stroke="black" stroke-width="1.2" stroke-linecap="round" stroke-linejoin="round"/>
</svg>
