<svg width="24" height="24" viewBox="0 0 24 24" fill="none" xmlns="http://www.w3.org/2000/svg">
<path d="M11.1272 10.0484C8.61784 9.47445 7.65102 6.26633 7.65102 6.26633C5.85464 7.47433 1.67751 14.9674 7.10056 19.2803C12.2296 23.3594 20.5073 19.7606 19.4999 12.9092C18.8565 8.53282 16.3557 7.6614 13.659 2.99988C10.9175 6.26633 11.1272 10.0484 11.1272 10.0484Z" stroke="black" stroke-width="1.2" stroke-linecap="round" stroke-linejoin="round"/>
<path d="M12.3138 16.3495C13.4492 16.0898 13.9675 14.3337 13.9675 14.3337C14.7803 14.8802 16.6703 18.2705 14.2166 20.2219C11.8959 22.0675 8.1506 20.4392 8.60638 17.3393C8.89751 15.3591 10.029 14.9649 11.2492 12.8557C12.4896 14.3337 12.3138 16.3495 12.3138 16.3495Z" stroke="black" stroke-width="1.2" stroke-linecap="round" stroke-linejoin="round"/>
</svg>
