<svg width="24" height="24" viewBox="0 0 24 24" fill="none" xmlns="http://www.w3.org/2000/svg">
<path d="M21.1013 12C21.1013 7.02908 17.2333 3 12.4613 3C7.68917 3 3.82126 7.02908 3.82126 12C3.82126 16.9699 7.68917 21 12.4613 21C17.2333 21 21.1013 16.9699 21.1013 12Z" stroke="black" stroke-width="1.2" stroke-linecap="round" stroke-linejoin="round"/>
<path d="M12.4613 3V5.25049M6.3525 5.63672L7.87968 7.22753M18.5703 18.3646L16.8901 16.6152M6.3525 18.3646L8.03287 16.6152M18.5709 5.63672L17.0437 7.22753M3.82126 12H6.19749M21.1021 12H18.9413" stroke="black" stroke-width="1.2" stroke-linecap="round" stroke-linejoin="round"/>
<path fill-rule="evenodd" clip-rule="evenodd" d="M12.4618 15.8876C10.7451 15.8876 10.307 14.1596 10.4957 13.2811C10.6844 12.4024 11.5455 9.78034 12.4618 9C13.3781 9.78034 14.2394 12.4024 14.428 13.2811C14.6168 14.1596 14.1786 15.8876 12.4618 15.8876Z" stroke="black" stroke-width="1.2" stroke-linecap="round" stroke-linejoin="round"/>
</svg>
