<svg width="24" height="24" viewBox="0 0 24 24" fill="none" xmlns="http://www.w3.org/2000/svg">
<path d="M4.17201 16.1546C3.52012 14.9189 3.15039 13.4984 3.15039 12C3.15039 7.02811 7.1785 3 12.1504 3C17.1223 3 21.1504 7.02811 21.1504 12C21.1504 13.5081 20.7807 14.9384 20.119 16.1838" stroke="black" stroke-width="1.2" stroke-linecap="round" stroke-linejoin="round"/>
<path fill-rule="evenodd" clip-rule="evenodd" d="M15.4161 10.3228C15.4161 12.1432 13.9401 13.6183 12.1207 13.6183C10.3002 13.6183 8.82422 12.1432 8.82422 10.3228C8.82422 8.50237 10.3002 7.02734 12.1207 7.02734C13.9401 7.02734 15.4161 8.50237 15.4161 10.3228Z" stroke="black" stroke-width="1.2" stroke-linecap="round" stroke-linejoin="round"/>
<path fill-rule="evenodd" clip-rule="evenodd" d="M17.2571 19.4036C15.8074 20.4057 14.0463 20.9992 12.149 20.9992C10.2322 20.9992 8.45168 20.396 7.00195 19.3744C7.20628 17.7884 8.61709 16.0273 12.1198 16.0273C15.6614 16.0273 17.0625 17.7982 17.2571 19.4036Z" stroke="black" stroke-width="1.2" stroke-linecap="round" stroke-linejoin="round"/>
</svg>
