<svg width="24" height="24" viewBox="0 0 24 24" fill="none" xmlns="http://www.w3.org/2000/svg">
<path d="M7.78216 3H16.2169C19.165 3 21 5.08119 21 8.02638V15.9736C21 18.9188 19.165 21 16.2159 21H7.78216C4.83405 21 3 18.9188 3 15.9736V8.02638C3 5.08119 4.84281 3 7.78216 3Z" stroke="black" stroke-width="1.2" stroke-linecap="round" stroke-linejoin="round"/>
<path d="M10.6035 16.5679H13.393C13.6742 16.5679 13.9019 16.3402 13.9019 16.059V13.9029H16.058C16.3392 13.9029 16.5669 13.6742 16.5669 13.394V10.6045C16.5669 10.3233 16.3392 10.0956 16.058 10.0956H13.9019V7.93855C13.9019 7.65834 13.6742 7.42969 13.393 7.42969H10.6035C10.3223 7.42969 10.0947 7.65834 10.0947 7.93855V10.0956H7.93855C7.65736 10.0956 7.42969 10.3233 7.42969 10.6045V13.394C7.42969 13.6742 7.65736 13.9029 7.93855 13.9029H10.0947V16.059C10.0947 16.3402 10.3223 16.5679 10.6035 16.5679Z" stroke="black" stroke-width="1.2" stroke-linecap="round" stroke-linejoin="round"/>
</svg>
