<svg width="24" height="24" viewBox="0 0 24 24" fill="none" xmlns="http://www.w3.org/2000/svg">
<path fill-rule="evenodd" clip-rule="evenodd" d="M11.6505 9.44488C11.6505 10.3877 10.8867 11.1515 9.9439 11.1515C9.00109 11.1515 8.2373 10.3877 8.2373 9.44488C8.2373 8.50207 9.00109 7.73828 9.9439 7.73828C10.8867 7.73828 11.6505 8.50207 11.6505 9.44488Z" stroke="black" stroke-width="1.2" stroke-linecap="round" stroke-linejoin="round"/>
<path d="M6.59375 19.1876L13.0543 13.3887C14.4067 12.2017 16.4013 12.1044 17.8608 13.1649L20.4683 15.0622" stroke="black" stroke-width="1.2" stroke-linecap="round" stroke-linejoin="round"/>
<path fill-rule="evenodd" clip-rule="evenodd" d="M12 3C16.9709 3 21 7.03005 21 12C21 16.9709 16.9709 21 12 21C7.02908 21 3 16.9709 3 12C3 7.03005 7.02908 3 12 3Z" stroke="black" stroke-width="1.2" stroke-linecap="round" stroke-linejoin="round"/>
<path d="M9.93181 16.2029H9.92208C9.47451 15.8916 8.66695 15.3856 7.76208 14.8894C6.02046 13.9456 4.72641 15.1229 3.88965 15.9013" stroke="black" stroke-width="1.2" stroke-linecap="round" stroke-linejoin="round"/>
</svg>
