<svg width="24" height="24" viewBox="0 0 24 24" fill="none" xmlns="http://www.w3.org/2000/svg">
<path d="M7.87793 3L9.39189 4.48087L7.91004 5.99483" stroke="black" stroke-width="1.2" stroke-linecap="round" stroke-linejoin="round"/>
<path d="M9.36547 4.45728H7.86805C5.80144 4.45728 4.125 6.13372 4.125 8.20032" stroke="black" stroke-width="1.2" stroke-linecap="round" stroke-linejoin="round"/>
<path d="M15.9555 21.0007L14.4415 19.5187L15.9233 18.0059" stroke="black" stroke-width="1.2" stroke-linecap="round" stroke-linejoin="round"/>
<path d="M14.4687 19.5439H15.9662C18.0327 19.5439 19.7091 17.8675 19.7091 15.801" stroke="black" stroke-width="1.2" stroke-linecap="round" stroke-linejoin="round"/>
<path d="M8.11498 12.2109C8.38742 12.2109 8.64817 12.3219 8.83693 12.5184L10.6885 14.4468C10.8675 14.6337 10.9677 14.8818 10.9677 15.1406V19.1843C10.9677 20.1875 10.1543 21.0008 9.15023 21.0008H5.63972C4.63561 21.0008 3.8222 20.1875 3.8222 19.1843V14.0275C3.8222 13.0243 4.63561 12.2109 5.63972 12.2109H8.11498Z" stroke="black" stroke-width="1.2" stroke-linecap="round" stroke-linejoin="round"/>
<path d="M17.324 3C17.5964 3 17.8571 3.11092 18.0459 3.30746L19.8975 5.23591C20.0765 5.42272 20.1767 5.67083 20.1767 5.92964V9.97334C20.1767 10.9765 19.3634 11.7899 18.3592 11.7899H14.8487C13.8446 11.7899 13.0311 10.9765 13.0311 9.97334V4.81655C13.0311 3.81341 13.8446 3 14.8487 3H17.324Z" stroke="black" stroke-width="1.2" stroke-linecap="round" stroke-linejoin="round"/>
</svg>
