<svg width="24" height="24" viewBox="0 0 24 24" fill="none" xmlns="http://www.w3.org/2000/svg">
<path d="M11.4519 2.11899L2.3402 7.99661C2.12612 8.13423 1.99997 8.36933 1.99997 8.62164V9.34798C1.99997 9.76084 2.33256 10.0934 2.7416 10.0934H20.9613C21.3741 10.0934 21.7067 9.76084 21.7067 9.34798V8.62164C21.7067 8.36933 21.5767 8.13423 21.3665 7.99661L12.2547 2.11899C12.0082 1.96034 11.6947 1.96034 11.4481 2.11899H11.4519Z" stroke="black" stroke-width="1.2" stroke-linecap="round" stroke-linejoin="round"/>
<path d="M2.00365 21H21.7085" stroke="black" stroke-width="1.2" stroke-linecap="round" stroke-linejoin="round"/>
<path d="M10.1769 6.81152H13.5295" stroke="black" stroke-width="1.2" stroke-linecap="round" stroke-linejoin="round"/>
<path d="M15.0644 11.8137V21M19.325 11.8137V21M4.37958 11.8137V21M8.64013 11.8137V21" stroke="black" stroke-width="1.2" stroke-linecap="round" stroke-linejoin="round"/>
</svg>
