<svg width="24" height="24" viewBox="0 0 24 24" fill="none" xmlns="http://www.w3.org/2000/svg">
<path d="M19.928 12.7472C19.928 8.07219 16.138 4.2832 11.464 4.2832C6.78899 4.2832 2.99902 8.07219 2.99902 12.7472C2.99902 17.4222 6.78899 21.2112 11.464 21.2112C16.138 21.2112 19.928 17.4222 19.928 12.7472Z" stroke="black" stroke-width="1.2" stroke-linecap="round" stroke-linejoin="round"/>
<path d="M16.0489 12.7471C16.0489 10.2141 13.9958 8.16211 11.4648 8.16211C8.93284 8.16211 6.87988 10.2141 6.87988 12.7471C6.87988 15.2781 8.93284 17.3311 11.4648 17.3311C13.9958 17.3311 16.0489 15.2781 16.0489 12.7471Z" stroke="black" stroke-width="1.2" stroke-linecap="round" stroke-linejoin="round"/>
<path d="M18.8875 5.46552L11.7275 12.6265M18.8875 5.46552H21.0015M18.8875 5.46552V3.35352" stroke="black" stroke-width="1.2" stroke-linecap="round" stroke-linejoin="round"/>
</svg>
