<svg width="24" height="24" viewBox="0 0 24 24" fill="none" xmlns="http://www.w3.org/2000/svg">
<path d="M19.7478 13.8359C20.8008 11.4416 18.1433 7.72344 13.707 5.44143C12.6696 4.90722 11.6244 4.49882 10.6159 4.21429" stroke="black" stroke-width="1.2" stroke-linecap="round" stroke-linejoin="round"/>
<path d="M5.98624 11.8829C6.90949 12.69 8.01469 13.4449 9.26118 14.0855C11.8645 15.4249 14.5123 15.9766 16.5272 15.752" stroke="black" stroke-width="1.2" stroke-linecap="round" stroke-linejoin="round"/>
<path d="M6.80658 3.74396C5.14007 3.85041 3.85293 4.45237 3.28776 5.54789C2.78258 6.53114 2.93936 7.75828 3.61486 9.02606" stroke="black" stroke-width="1.2" stroke-linecap="round" stroke-linejoin="round"/>
<path d="M10.6198 20.9103C14.6864 22.5787 18.5768 22.3252 19.682 20.1767C20.1872 19.1935 20.0304 17.9644 19.3549 16.6985" stroke="black" stroke-width="1.2" stroke-linecap="round" stroke-linejoin="round"/>
<path d="M16.9141 13.7856C16.0044 13.0017 14.9224 12.2681 13.7069 11.6429C9.17967 9.31446 4.515 9.36285 3.28787 11.7494C2.25429 13.7585 3.9866 16.7857 7.26348 19.0812" stroke="black" stroke-width="1.2" stroke-linecap="round" stroke-linejoin="round"/>
<path d="M18.3136 13.1816C19.3666 13.1816 20.2182 14.0352 20.2182 15.0862C20.2182 16.1372 19.3646 16.9908 18.3136 16.9908C17.2626 16.9908 16.4071 16.1372 16.4071 15.0862C16.4071 14.0352 17.2607 13.1816 18.3136 13.1816Z" stroke="black" stroke-width="1.2"/>
<path d="M8.89122 18.1909C9.94416 18.1909 10.7958 19.0444 10.7958 20.0954C10.7958 21.1464 9.94223 22 8.89122 22C7.84022 22 6.98471 21.1464 6.98471 20.0954C6.98471 19.0444 7.83829 18.1909 8.89122 18.1909Z" stroke="black" stroke-width="1.2"/>
<path d="M8.71135 2C9.76429 2 10.6159 2.85357 10.6159 3.90458C10.6159 4.95558 9.76235 5.80915 8.71135 5.80915C7.66035 5.80915 6.80484 4.95558 6.80484 3.90458C6.80484 2.85357 7.65842 2 8.71135 2Z" stroke="black" stroke-width="1.2"/>
</svg>
