<svg width="24" height="24" viewBox="0 0 24 24" fill="none" xmlns="http://www.w3.org/2000/svg">
<path fill-rule="evenodd" clip-rule="evenodd" d="M21.1143 12.0723C18.3744 12.9605 16.2267 15.1082 15.3384 17.8493C14.4501 15.1082 12.3024 12.9605 9.5625 12.0723C12.3024 11.184 14.4501 9.03627 15.3384 6.29639C16.2267 9.03627 18.3744 11.184 21.1143 12.0723Z" stroke="black" stroke-width="1.2" stroke-linecap="round" stroke-linejoin="round"/>
<path fill-rule="evenodd" clip-rule="evenodd" d="M8.9834 5.56871C8.02756 5.87858 7.27832 6.62783 6.96842 7.58409C6.65852 6.62783 5.90927 5.87858 4.95343 5.56871C5.90927 5.2588 6.65852 4.50955 6.96842 3.55371C7.27832 4.50955 8.02756 5.2588 8.9834 5.56871Z" stroke="black" stroke-width="1.2" stroke-linecap="round" stroke-linejoin="round"/>
<path fill-rule="evenodd" clip-rule="evenodd" d="M9.09278 17.4563C7.67478 17.916 6.56328 19.0275 6.10354 20.4462C5.64379 19.0275 4.53227 17.916 3.11426 17.4563C4.53227 16.9966 5.64379 15.885 6.10354 14.467C6.56328 15.885 7.67478 16.9966 9.09278 17.4563Z" stroke="black" stroke-width="1.2" stroke-linecap="round" stroke-linejoin="round"/>
</svg>
