<svg width="24" height="24" viewBox="0 0 24 24" fill="none" xmlns="http://www.w3.org/2000/svg">
<path d="M15.5371 13.621H17.3344" stroke="black" stroke-width="1.2" stroke-linecap="round" stroke-linejoin="round"/>
<path d="M6.65625 13.621H8.45355" stroke="black" stroke-width="1.2" stroke-linecap="round" stroke-linejoin="round"/>
<path d="M3.00391 9.43396C8.9651 10.2792 15.0157 10.2792 20.9769 9.43396" stroke="black" stroke-width="1.2" stroke-linecap="round" stroke-linejoin="round"/>
<path d="M3.00684 18.5743C3.00511 19.1278 3.45333 19.5775 4.00684 19.5775H5.98814C6.54043 19.5775 6.98814 19.1297 6.98814 18.5775V18.1676C6.98814 17.6154 7.43586 17.1676 7.98814 17.1676H16.0012C16.5535 17.1676 17.0012 17.6154 17.0012 18.1676V18.5775C17.0012 19.1297 17.4489 19.5775 18.0012 19.5775H19.9962C20.5484 19.5775 20.9962 19.1297 20.9962 18.5775V13.3499C20.9956 12.5393 20.7369 11.7496 20.2578 11.0957L19.092 9.53121C18.9987 9.3994 18.9235 9.25615 18.8686 9.10427L17.8193 6.18973C17.5567 5.44058 16.8736 4.86861 16.09 4.74195C13.3832 4.31518 10.6264 4.31518 7.91962 4.74195C7.13945 4.87184 6.46104 5.44314 6.20002 6.18973L5.15071 9.10427C5.09561 9.25004 5.02042 9.3873 4.92728 9.51223L3.74206 11.1441C3.27328 11.791 3.0216 12.5699 3.02315 13.3689L3.00684 18.5743Z" stroke="black" stroke-width="1.2" stroke-linecap="round" stroke-linejoin="round"/>
</svg>
