<svg width="24" height="24" viewBox="0 0 24 24" fill="none" xmlns="http://www.w3.org/2000/svg">
<path fill-rule="evenodd" clip-rule="evenodd" d="M17.5988 17.5977C15.179 20.0177 11.596 20.5405 8.66377 19.1845C8.2309 19.0102 7.87601 18.8694 7.53863 18.8694C6.5989 18.8749 5.4292 19.7861 4.82128 19.1789C4.21336 18.5709 5.12524 17.4003 5.12524 16.4549C5.12524 16.1175 4.98997 15.7689 4.81571 15.3352C3.45902 12.4035 3.9826 8.81923 6.40236 6.4C9.4913 3.30991 14.5099 3.30991 17.5988 6.3992C20.6933 9.49406 20.6878 14.5084 17.5988 17.5977Z" stroke="black" stroke-width="1.2" stroke-linecap="round" stroke-linejoin="round"/>
<path d="M15.1191 12.327H15.1268" stroke="black" stroke-width="1.2" stroke-linecap="round" stroke-linejoin="round"/>
<path d="M11.9449 12.327H11.9526" stroke="black" stroke-width="1.2" stroke-linecap="round" stroke-linejoin="round"/>
<path d="M8.77069 12.327H8.77838" stroke="black" stroke-width="1.2" stroke-linecap="round" stroke-linejoin="round"/>
</svg>
