<svg width="24" height="24" viewBox="0 0 24 24" fill="none" xmlns="http://www.w3.org/2000/svg">
<path d="M21.1349 15.5315V17.0627C21.1349 19.1503 19.4435 20.8417 17.3559 20.8417H16.1034" stroke="black" stroke-width="1.21371" stroke-linecap="round" stroke-linejoin="round"/>
<path d="M2.86378 15.5315V17.0627C2.86378 19.1503 4.55619 20.8417 6.64376 20.8417H7.86426" stroke="black" stroke-width="1.21371" stroke-linecap="round" stroke-linejoin="round"/>
<path d="M2.86378 8.46854V6.93735C2.86378 4.85075 4.55619 3.15833 6.64376 3.15833H7.89534" stroke="black" stroke-width="1.21371" stroke-linecap="round" stroke-linejoin="round"/>
<path d="M21.1362 8.67435V7.14316C21.1362 5.05656 19.4438 3.36414 17.3562 3.36414H16.1357" stroke="black" stroke-width="1.21371" stroke-linecap="round" stroke-linejoin="round"/>
<path d="M18.3992 9.73625C18.3992 7.94987 17.291 6.68909 15.5053 6.68909H8.58786C6.80835 6.68909 5.68842 7.94987 5.68842 9.73625V14.5513C5.68842 16.3315 6.80216 17.5923 8.58786 17.5923H15.4991C17.291 17.5923 18.3992 16.3315 18.3992 14.5513V9.73625Z" stroke="black" stroke-width="1.21371" stroke-linecap="round" stroke-linejoin="round"/>
<path d="M7.95448 14.9766C7.95448 14.2902 8.49589 13.4362 10.0562 13.4362C11.6166 13.4362 12.158 14.284 12.158 14.9704" stroke="black" stroke-width="1.21371" stroke-linecap="round" stroke-linejoin="round"/>
<path fill-rule="evenodd" clip-rule="evenodd" d="M11.3987 10.6439C11.3987 11.3852 10.7976 11.9864 10.0562 11.9864C9.31486 11.9864 8.71367 11.3852 8.71367 10.6439C8.71367 9.90252 9.31486 9.30133 10.0562 9.30133C10.7976 9.30133 11.3987 9.90252 11.3987 10.6439Z" stroke="black" stroke-width="1.21371" stroke-linecap="round" stroke-linejoin="round"/>
<path d="M13.5416 10.973L15.9938 11.0066M14.4608 13.5871H15.9937" stroke="black" stroke-width="1.21371" stroke-linecap="round" stroke-linejoin="round"/>
</svg>
