<svg width="24" height="24" viewBox="0 0 24 24" fill="none" xmlns="http://www.w3.org/2000/svg">
<path d="M16.3226 19.482C17.9019 18.5702 17.2859 14.5466 14.9467 10.4951C12.6075 6.4435 9.43101 3.8982 7.85174 4.80999C6.40011 5.64809 6.80326 9.11531 8.69451 12.8167C8.86081 13.1422 9.03861 13.4695 9.22767 13.797C11.5669 17.8485 14.7434 20.3938 16.3226 19.482Z" stroke="black" stroke-width="1.2"/>
<path d="M20.1382 9.11983C19.5342 8.07378 15.3406 8.6456 11.2821 10.9888C7.22358 13.332 4.83698 16.5592 5.44092 17.6053" stroke="black" stroke-width="1.2" stroke-linecap="round"/>
<path d="M16.3248 19.4802C20.459 17.0932 21.8755 11.8068 19.4886 7.67252C17.1017 3.53826 11.8153 2.12175 7.68099 4.50867C3.54673 6.89559 2.13023 12.182 4.51715 16.3163C6.90406 20.4506 12.1905 21.8671 16.3248 19.4802Z" stroke="black" stroke-width="1.2"/>
</svg>
