<svg width="24" height="24" viewBox="0 0 24 24" fill="none" xmlns="http://www.w3.org/2000/svg">
<path d="M4.46259 19.7414C4.46259 17.5349 6.2044 14.7883 11.2206 14.7883" stroke="black" stroke-width="1.2" stroke-linecap="round" stroke-linejoin="round"/>
<path fill-rule="evenodd" clip-rule="evenodd" d="M15.5385 7.31682C15.5385 9.7005 13.6054 11.6336 11.2217 11.6336C8.838 11.6336 6.90485 9.7005 6.90485 7.31682C6.90485 4.93314 8.838 3 11.2217 3C13.6054 3 15.5385 4.93314 15.5385 7.31682Z" stroke="black" stroke-width="1.2" stroke-linecap="round" stroke-linejoin="round"/>
<path d="M16.8214 19.7003L16.9271 19.4143C17.3256 18.3356 18.1748 17.4852 19.2519 17.0861L19.5375 16.9802L19.2519 16.8744C18.1748 16.4753 17.3256 15.6248 16.9271 14.5462L16.8214 14.2601L16.7157 14.5462C16.3172 15.6248 15.468 16.4753 14.3909 16.8744L14.1052 16.9802L14.3909 17.0861C15.468 17.4852 16.3172 18.3356 16.7157 19.4143L16.8214 19.7003Z" stroke="black" stroke-width="1.2" stroke-linecap="round" stroke-linejoin="round"/>
<path d="M11.2642 21C11.4438 20.4091 11.9055 19.9467 12.4955 19.7669C11.9055 19.587 11.4438 19.1246 11.2642 18.5337C11.0846 19.1246 10.6229 19.587 10.0329 19.7669C10.6229 19.9467 11.0846 20.4091 11.2642 21Z" stroke="black" stroke-width="1.2" stroke-linecap="round" stroke-linejoin="round"/>
</svg>
