<svg width="24" height="24" viewBox="0 0 24 24" fill="none" xmlns="http://www.w3.org/2000/svg">
<path d="M8.5033 18.4641C8.5033 16.5493 10.0511 15 11.9564 15C13.8616 15 15.4095 16.5493 15.4095 18.4641" stroke="black" stroke-width="1.2" stroke-linecap="round" stroke-linejoin="round"/>
<path d="M15.6358 4.27441C17.4538 4.27441 18.9272 5.70568 18.9272 7.46848V17.8059C18.9272 19.5687 17.4538 21 15.6358 21H8.29135C6.47343 21 5 19.5687 5 17.8059V7.46848C5 5.70568 6.47343 4.27441 8.29135 4.27441" stroke="black" stroke-width="1.2" stroke-linecap="round" stroke-linejoin="round"/>
<path d="M13.5613 2V5.06307C13.5613 5.37358 13.309 5.62587 12.9984 5.62587H10.8635C10.553 5.62587 10.3007 5.37358 10.3007 5.06307V2" stroke="black" stroke-width="1.2" stroke-linecap="round" stroke-linejoin="round"/>
<path d="M14.0836 9.03832C13.5887 8.30408 12.7509 7.82214 11.8031 7.82214C10.286 7.82214 9.05359 9.05611 9.05359 10.5812C9.05359 12.1062 10.286 13.3402 11.8031 13.3402C12.9859 13.3402 13.9946 12.5917 14.3827 11.5392" stroke="black" stroke-width="1.2" stroke-linecap="round" stroke-linejoin="round"/>
<path d="M15.2413 8.11652L12.0132 11.3444L10.9321 10.2649" stroke="black" stroke-width="1.2" stroke-linecap="round" stroke-linejoin="round"/>
</svg>
