<svg width="278" height="84" viewBox="0 0 278 84" fill="none" xmlns="http://www.w3.org/2000/svg">
<g clip-path="url(#clip0_316_1798)">
<path d="M260.633 0L254.74 26.9835C253.811 31.1197 253.191 35.0478 252.362 40.7338H251.845C251.018 35.0478 250.398 31.1197 249.467 26.9835L243.575 0H225.07L242.851 58.5154V83.6378H260.22V58.5154L278 0H260.633Z" fill="#FF2038"/>
<path d="M200.771 26.9835C199.842 31.1197 199.222 35.0478 198.393 40.7338H197.876C197.05 35.0478 196.429 31.1197 195.498 26.9835L189.607 0H171.103L188.884 58.5154V83.6378H206.253V58.5154L224.033 0H206.664L200.771 26.9835Z" fill="#FF2038"/>
<path d="M40.3196 0H17.1612L0 83.6378H17.5754L20.5196 64.7187H36.2379L39.182 83.6378H57.4808L40.3196 0ZM22.6431 51.0714L26.5693 25.8459C27.1896 21.9177 27.6038 18.0927 28.1191 12.7158H28.6364C29.1536 18.0927 29.5659 21.9177 30.1862 25.8459L34.1124 51.0714H22.6431Z" fill="#FF2038"/>
<path d="M100.696 39.182V39.079C106.693 37.0118 110.93 30.8085 110.93 21.9177C110.93 8.47657 103.28 0 86.9455 0H63.6841V83.6378H88.3923C105.141 83.6378 112.791 74.5409 112.791 59.4468C112.791 47.8667 108.037 41.7664 100.696 39.182ZM80.6392 12.0955H85.3957C90.9787 12.0955 93.7692 15.3002 93.7692 23.4676C93.7692 31.635 90.9787 34.8397 85.3957 34.8397H80.6392V12.0955ZM86.8425 71.5423H80.6392V46.5229H86.8425C92.5285 46.5229 95.1129 50.1419 95.1129 59.0326C95.1129 67.9234 92.5285 71.5423 86.8425 71.5423Z" fill="#FF2038"/>
<path d="M158.385 39.182V39.079C164.382 37.0118 168.619 30.8085 168.619 21.9177C168.619 8.47657 160.969 0 144.635 0H121.373V83.6378H146.081C162.83 83.6378 170.48 74.5409 170.48 59.4468C170.48 47.8667 165.726 41.7664 158.385 39.182ZM138.328 12.0955H143.085C148.668 12.0955 151.458 15.3002 151.458 23.4676C151.458 31.635 148.668 34.8397 143.085 34.8397H138.328V12.0955ZM144.531 71.5423H138.328V46.5229H144.531C150.217 46.5229 152.802 50.1419 152.802 59.0326C152.802 67.9234 150.217 71.5423 144.531 71.5423Z" fill="#FF2038"/>
</g>
<defs>
<clipPath id="clip0_316_1798">
<rect width="278" height="83.6378" fill="white"/>
</clipPath>
</defs>
</svg>
