<svg width="350" height="229" viewBox="0 0 350 229" fill="none" xmlns="http://www.w3.org/2000/svg">
<g clip-path="url(#clip0_316_1762)">
<path fill-rule="evenodd" clip-rule="evenodd" d="M195.9 45.2791C190.34 39.7191 182.87 36.6191 175 36.6191C167.13 36.6191 159.66 39.7091 154.1 45.2791C148.54 50.8391 145.44 58.3091 145.44 66.1791C145.44 74.0491 148.54 81.5191 154.1 87.0791C159.66 92.6391 167.13 95.7391 175 95.7391C182.87 95.7391 190.34 92.6391 195.9 87.0791C201.46 81.5191 204.56 74.0491 204.56 66.1791C204.56 58.3091 201.46 50.8391 195.9 45.2791ZM180.15 68.1191C181.35 68.1191 182.32 69.0891 182.32 70.2891C182.32 71.4891 181.35 72.4591 180.15 72.4591C178.95 72.4591 177.98 71.4891 177.98 70.2891C177.98 69.0891 178.95 68.1191 180.15 68.1191ZM175.56 39.1591V93.2091H175C167.81 93.2091 160.97 90.3791 155.89 85.2991C150.81 80.2191 147.98 73.3791 147.98 66.1891C147.98 58.9991 150.81 52.1591 155.89 47.0791C160.97 41.9991 167.81 39.1691 175 39.1691H175.56V39.1591Z" fill="#9A7C34"/>
<path fill-rule="evenodd" clip-rule="evenodd" d="M198.87 39.8497C205.22 46.1997 208.76 54.7397 208.76 63.7197C208.76 72.6997 205.22 81.2397 198.87 87.5897C192.52 93.9397 183.98 97.4797 175 97.4797C166.02 97.4797 157.48 93.9397 151.13 87.5897C144.78 81.2397 141.24 72.6997 141.24 63.7197C141.24 54.7397 144.78 46.1997 151.13 39.8497C157.48 33.4997 166.02 29.9597 175 29.9597C183.98 29.9597 192.52 33.4997 198.87 39.8497ZM200.66 38.0597C193.83 31.2297 184.66 27.4297 175 27.4297C165.34 27.4297 156.16 31.2297 149.33 38.0597C142.5 44.8897 138.7 54.0697 138.7 63.7197C138.7 73.3697 142.5 82.5597 149.33 89.3797C156.16 96.2097 165.34 100.01 175 100.01C184.66 100.01 193.84 96.2097 200.66 89.3797C207.49 82.5497 211.29 73.3697 211.29 63.7197C211.29 54.0697 207.49 44.8797 200.66 38.0597Z" fill="#9A7C34"/>
<path fill-rule="evenodd" clip-rule="evenodd" d="M203.64 32.6991C211.26 40.3191 215.5 50.5591 215.5 61.3391C215.5 72.1191 211.26 82.3591 203.64 89.9791C196.02 97.5991 185.78 101.839 175 101.839C164.22 101.839 153.98 97.5991 146.36 89.9791C138.74 82.3591 134.5 72.1191 134.5 61.3391C134.5 52.7691 137.19 44.5291 142.12 37.6791C141.38 37.2891 140.7 36.7591 140.14 36.0891C134.85 43.3891 131.96 52.1791 131.96 61.3291C131.96 72.7791 136.47 83.6591 144.56 91.7591C152.66 99.8591 163.54 104.359 174.99 104.359C186.44 104.359 197.32 99.8491 205.42 91.7591C213.52 83.6591 218.02 72.7791 218.02 61.3291C218.02 49.8791 213.51 38.9991 205.42 30.8991C197.32 22.7991 186.44 18.2891 174.99 18.2891C165.82 18.2891 157.03 21.1791 149.73 26.4791C150.3 26.9691 150.8 27.5591 151.2 28.2491C151.24 28.3191 151.28 28.3891 151.32 28.4591C158.17 23.5191 166.41 20.8191 175 20.8191C185.78 20.8191 196.02 25.0591 203.64 32.6791V32.6991Z" fill="#9A7C34"/>
<path fill-rule="evenodd" clip-rule="evenodd" d="M208.4 25.4601C217.29 34.3501 222.24 46.2901 222.24 58.8601C222.24 71.4301 217.29 83.3801 208.4 92.2601C199.51 101.15 187.57 106.1 175 106.1C162.43 106.1 150.48 101.15 141.6 92.2601C132.71 83.3701 127.76 71.4301 127.76 58.8601C127.76 46.2901 132.71 34.3401 141.6 25.4601C150.49 16.5701 162.43 11.6201 175 11.6201C175.81 11.6201 176.62 11.6401 177.42 11.6801C177.4 10.8201 177.53 9.97008 177.81 9.16008C176.88 9.11008 175.94 9.08008 175 9.08008C161.75 9.08008 149.17 14.2901 139.81 23.6601C130.44 33.0301 125.23 45.6101 125.23 58.8501C125.23 72.0901 130.44 84.6801 139.81 94.0501C149.18 103.41 161.76 108.63 175 108.63C188.24 108.63 200.83 103.42 210.19 94.0501C219.56 84.6801 224.77 72.1001 224.77 58.8501C224.77 45.6001 219.56 33.0201 210.19 23.6601C204.85 18.3201 198.47 14.3301 191.51 11.8901C191.46 12.7401 191.26 13.5801 190.91 14.3601C197.42 16.6901 203.4 20.4401 208.4 25.4501V25.4601Z" fill="#9A7C34"/>
<path fill-rule="evenodd" clip-rule="evenodd" d="M226.54 26.7705C227.73 28.8305 227.02 31.4605 224.96 32.6505C222.9 33.8405 220.27 33.1305 219.08 31.0805C217.89 29.0205 218.6 26.3905 220.66 25.2005C222.72 24.0105 225.35 24.7205 226.54 26.7705Z" fill="#9A7C34"/>
<path fill-rule="evenodd" clip-rule="evenodd" d="M224.78 35.6491C229.4 46.6291 230.26 58.8291 227.13 70.4891C223.41 84.3591 214.42 96.0791 201.98 103.269C189.54 110.449 174.9 112.379 161.02 108.659C147.15 104.939 135.43 95.9491 128.24 83.5091C121.06 71.0691 119.13 56.4291 122.85 42.5491C126.57 28.6791 135.56 16.9591 148 9.76909C160.44 2.58909 175.08 0.659094 188.96 4.37909C200.62 7.49909 210.75 14.3491 217.96 23.8391C218.36 23.4591 218.8 23.1191 219.3 22.8391C219.56 22.6891 219.82 22.5591 220.08 22.4491C212.53 12.4391 201.88 5.21909 189.62 1.93909C175.09 -1.95091 159.76 0.0690942 146.74 7.58909C133.72 15.1091 124.3 27.3791 120.41 41.8991C116.52 56.4291 118.54 71.7591 126.06 84.7791C133.58 97.7991 145.85 107.219 160.37 111.109C174.9 114.999 190.23 112.979 203.25 105.459C216.27 97.9391 225.69 85.6691 229.58 71.1491C232.87 58.8891 231.94 46.0491 227.05 34.5091C226.82 34.6791 226.58 34.8491 226.32 34.9891C225.82 35.2791 225.31 35.4891 224.78 35.6491Z" fill="#9A7C34"/>
<path fill-rule="evenodd" clip-rule="evenodd" d="M188.2 9.34074C189.39 11.4007 188.68 14.0307 186.62 15.2207C184.56 16.4107 181.93 15.7007 180.74 13.6407C179.55 11.5807 180.26 8.95074 182.32 7.76074C184.38 6.57074 187.01 7.28074 188.2 9.34074Z" fill="#9A7C34"/>
<path fill-rule="evenodd" clip-rule="evenodd" d="M149.04 29.5107C150.23 31.5707 149.52 34.2007 147.46 35.3907C145.4 36.5807 142.77 35.8707 141.58 33.8107C140.39 31.7507 141.1 29.1207 143.16 27.9307C145.22 26.7407 147.85 27.4507 149.04 29.5107Z" fill="#9A7C34"/>
<path fill-rule="evenodd" clip-rule="evenodd" d="M41.65 185.07C37.4 170.57 32.12 156.24 25.77 142.1H15.82C9.47 156.36 4.31 170.69 0 185.07H9.41C10.19 182.07 11.03 179.02 11.93 175.96H29.37C30.27 179.02 31.17 182.07 31.95 185.07H41.66H41.65ZM20.67 151.93C23.07 157.5 25.17 163.08 27.02 168.59H14.25C16.11 163.08 18.21 157.5 20.66 151.93H20.67ZM49.87 142.1V185.07H67.73C81.03 185.07 86.19 178.18 86.19 163.38C86.19 148.58 81.34 142.1 67.79 142.1H49.87ZM65.63 149.47C75.94 149.47 77.2 151.75 77.2 163.43C77.2 174.4 75.22 177.69 66.59 177.69H58.74V149.46H65.63V149.47ZM114.07 185.07C119.88 171.05 124.92 156.72 128.93 142.1H119.64C116.94 152.95 113.71 163.67 109.87 174.4C106.03 163.73 102.62 152.89 100.04 142.1H90.45C94.41 156.72 99.32 171.05 105.19 185.07H114.06H114.07ZM170.24 185.07C165.98 170.57 160.71 156.24 154.36 142.1H144.41C138.06 156.36 132.9 170.69 128.59 185.07H138C138.78 182.07 139.62 179.02 140.52 175.96H157.96C158.86 179.02 159.76 182.07 160.54 185.07H170.25H170.24ZM149.26 151.93C151.66 157.5 153.75 163.08 155.61 168.59H142.85C144.71 163.08 146.81 157.5 149.26 151.93ZM178.28 185.07H187.15V156.54L204.05 185.07H212.92V142.1H204.05V170.45L187.33 142.1H178.28V185.07ZM251.95 170.93C251.23 176.62 248.41 178.48 242.48 178.48C234.21 178.48 231.81 173.5 231.81 164.58C231.81 153.07 235.05 148.7 242.36 148.7C249.67 148.7 250.93 151.64 251.95 155.47H260.82C259.38 145.64 252.91 141.15 242.36 141.15C229 141.15 222.82 148.34 222.82 163.8C222.82 179.26 229.35 186.03 242.3 186.03C255.25 186.03 260.22 179.32 260.82 170.93H251.95ZM270.79 185.07H303.45V177.7H279.66V166.25H300.76V158.88H279.66V149.47H302.49V142.1H270.79V185.07ZM313.66 142.1V185.07H331.52C344.82 185.07 349.98 178.18 349.98 163.38C349.98 148.58 345.13 142.1 331.58 142.1H313.66ZM329.42 149.47C339.73 149.47 340.99 151.75 340.99 163.43C340.99 174.4 339.01 177.69 330.38 177.69H322.53V149.46H329.42V149.47Z" fill="#362B29"/>
<path fill-rule="evenodd" clip-rule="evenodd" d="M111.65 228.221H127.74V224.211H116.35V205.411H111.64V228.221H111.65ZM135.67 228.221H140.38V205.411H135.67V228.221ZM160.26 228.221C163.35 220.781 166.02 213.181 168.15 205.411H163.22C161.79 211.171 160.07 216.861 158.04 222.551C156 216.891 154.19 211.131 152.82 205.411H147.73C149.83 213.171 152.44 220.771 155.55 228.221H160.26ZM175.53 228.221H180.24V205.411H175.53V228.221ZM189.5 228.221H194.21V213.081L203.18 228.221H207.89V205.411H203.18V220.451L194.31 205.411H189.51V228.221H189.5ZM238.36 215.971H228.37V219.881H233.65C233.65 223.251 232.35 224.711 227.7 224.711C223.63 224.711 221.21 223.411 221.21 216.821C221.21 210.231 223.44 208.901 227.79 208.901C231.77 208.901 233.01 210.271 233.29 212.491H238C237.56 207.151 233.8 204.891 227.66 204.891C222.57 204.891 216.43 206.451 216.43 216.791C216.43 226.591 222 228.721 227.66 228.721C234.18 228.721 238.35 226.211 238.35 218.641V215.971H238.36Z" fill="#9A7C34"/>
<path fill-rule="evenodd" clip-rule="evenodd" d="M0 218.44H88.23V215.18H0V218.44ZM261.76 218.44H349.99V215.18H261.76V218.44Z" fill="#9A7C34"/>
</g>
<defs>
<clipPath id="clip0_316_1762">
<rect width="350" height="228.73" fill="white"/>
</clipPath>
</defs>
</svg>
