<svg width="306" height="96" viewBox="0 0 306 96" fill="none" xmlns="http://www.w3.org/2000/svg">
<path d="M88.1604 68.1312C87.7299 66.9228 87.2268 65.7537 86.7483 64.6704C86.0115 63.0041 85.2399 61.3346 84.4934 59.7209L84.4343 59.5928C77.7775 45.1773 70.6327 30.5647 63.1986 16.1612L62.8829 15.5497C62.1245 14.0789 61.3406 12.558 60.536 11.0637C59.582 9.17262 58.4243 7.3909 57.0836 5.75012C55.5742 3.94958 53.6875 2.5015 51.5566 1.50798C49.4257 0.514465 47.1021 -0.000295192 44.7501 1.26997e-07C42.3981 0.000295445 40.0748 0.515638 37.9439 1.50969C35.8133 2.50375 33.9269 3.95231 32.4181 5.75321C31.0789 7.39438 29.9219 9.17571 28.9676 11.0659C28.156 12.5736 27.3647 14.1085 26.5996 15.5929L26.3065 16.1611C18.8721 30.5656 11.7272 45.1782 5.07052 59.5925L4.97353 59.8022C4.24008 61.3898 3.48176 63.0314 2.75726 64.6698C2.2785 65.7522 1.77605 66.9204 1.34508 68.1318C0.11072 71.4322 -0.282616 74.9869 0.200432 78.4766C0.712696 82.0031 2.13905 85.3353 4.33824 88.1424C6.53742 90.9495 9.43315 93.1345 12.7386 94.4809C15.2353 95.491 17.9048 96.0073 20.5988 96.0013C21.445 96.001 22.2905 95.9518 23.1311 95.854C26.5384 95.4199 29.8245 94.3111 32.7967 92.5929C36.6956 90.4026 40.5461 87.1926 44.7525 82.6055C48.9589 87.1926 52.8094 90.4026 56.7083 92.5929C59.6804 94.3114 62.9667 95.4199 66.3738 95.854C67.2144 95.9518 68.0601 96.001 68.9064 96.0013C71.6002 96.0073 74.2693 95.491 76.7659 94.4809C80.0714 93.1345 82.9673 90.9495 85.1667 88.1424C87.366 85.3353 88.7925 82.0034 89.3049 78.4766C89.7873 74.9866 89.394 71.4319 88.1604 68.1312ZM44.7525 73.132C39.5453 66.5316 36.2039 60.4022 35.0315 55.2637C34.5512 53.3383 34.4378 51.34 34.6973 49.3726C34.9022 47.9304 35.432 46.5534 36.2468 45.345C37.2494 44.0448 38.5379 42.9918 40.0127 42.2673C41.4876 41.5431 43.1094 41.1663 44.7531 41.1663C46.3971 41.1666 48.0187 41.5434 49.4935 42.2682C50.9683 42.9927 52.2565 44.0457 53.2591 45.3459C54.0739 46.5549 54.6037 47.9319 54.8086 49.3744C55.0675 51.3427 54.9538 53.3416 54.4726 55.2676C53.299 60.4055 49.9585 66.5331 44.7525 73.132ZM83.2229 77.6077C82.8647 80.0735 81.8672 82.4033 80.3297 84.3659C78.7919 86.3289 76.7671 87.8568 74.4559 88.7982C72.1189 89.7345 69.5826 90.0663 67.083 89.7627C64.4847 89.4279 61.9805 88.5729 59.7215 87.2484C56.2511 85.2987 52.738 82.3055 48.7849 77.9147C55.078 70.1548 59.0078 63.0024 60.4628 56.6318C61.1177 53.9527 61.2596 51.1744 60.8813 48.4432C60.5381 46.0902 59.6645 43.8456 58.3265 41.8785C56.759 39.7562 54.7141 38.0309 52.3567 36.842C49.999 35.6531 47.3946 35.0336 44.7531 35.0336C42.1119 35.0336 39.5072 35.6528 37.1495 36.8414C34.7918 38.03 32.7469 39.755 31.1794 41.8773C29.8416 43.8438 28.9681 46.0878 28.6246 48.4402C28.2461 51.1705 28.3873 53.9473 29.0407 56.6255C30.4948 62.9988 34.4249 70.1529 40.7202 77.9153C36.767 82.3055 33.2539 85.2987 29.7835 87.2487C27.5244 88.5729 25.0205 89.4282 22.4222 89.7627C19.9222 90.0663 17.386 89.7345 15.0488 88.7982C12.7376 87.8568 10.7129 86.3289 9.17526 84.3662C7.63765 82.4033 6.64044 80.0735 6.28241 77.6077C5.93804 75.1012 6.23111 72.5485 7.13464 70.1847C7.47808 69.2193 7.88 68.2719 8.37791 67.1463C9.08232 65.5539 9.82984 63.9354 10.5529 62.3702L10.65 62.1599C17.2695 47.8263 24.3748 33.295 31.7686 18.9691L32.0629 18.3987C32.8156 16.9383 33.5942 15.4282 34.3796 13.9691C35.1308 12.4652 36.0401 11.0453 37.0922 9.73333C38.0243 8.60721 39.1943 7.70053 40.5182 7.07812C41.8425 6.45567 43.2879 6.13286 44.7513 6.13274C46.2147 6.13262 47.6604 6.45522 48.9844 7.07743C50.3086 7.69963 51.4786 8.60613 52.411 9.7321C53.4637 11.0431 54.3733 12.4625 55.1239 13.9663C55.9022 15.4125 56.6738 16.9089 57.4202 18.356L57.7364 18.9697C65.13 33.2942 72.235 47.8251 78.8552 62.1611L78.9149 62.2901C79.6505 63.8817 80.411 65.5266 81.1271 67.1469C81.6257 68.274 82.0283 69.2223 82.3709 70.1841C83.2739 72.5482 83.567 75.1009 83.2229 77.6077Z" fill="#FF385C"/>
<path d="M125.056 72.3605C122.659 72.3605 120.453 71.8799 118.439 70.919C116.426 69.9581 114.7 68.6125 113.165 66.8827C111.631 65.1532 110.481 63.1351 109.617 60.9249C108.754 58.6185 108.371 56.1201 108.371 53.4293C108.371 50.7386 108.85 48.1439 109.713 45.8374C110.576 43.5313 111.823 41.5132 113.357 39.6873C114.891 37.9575 116.713 36.516 118.823 35.5551C120.933 34.5942 123.138 34.1136 125.631 34.1136C128.029 34.1136 130.138 34.5942 132.056 35.6511C133.974 36.6123 135.508 38.0535 136.755 39.8793L137.043 35.1708H145.865V71.3993H137.043L136.755 66.1141C135.508 68.0359 133.878 69.5735 131.769 70.7267C129.851 71.7839 127.549 72.3605 125.056 72.3605ZM127.358 63.7117C129.083 63.7117 130.618 63.2311 132.056 62.3662C133.399 61.4052 134.454 60.156 135.317 58.6185C136.084 57.081 136.467 55.2552 136.467 53.237C136.467 51.2189 136.084 49.3931 135.317 47.8556C134.55 46.318 133.399 45.0688 132.056 44.1079C130.714 43.1467 129.083 42.7624 127.358 42.7624C125.631 42.7624 124.097 43.243 122.659 44.1079C121.316 45.0688 120.262 46.318 119.398 47.8556C118.631 49.3931 118.248 51.2189 118.248 53.237C118.248 55.2552 118.631 57.081 119.398 58.6185C120.166 60.156 121.316 61.4052 122.659 62.3662C124.097 63.2311 125.631 63.7117 127.358 63.7117ZM160.92 25.3687C160.92 26.4258 160.728 27.3868 160.249 28.1556C159.769 28.9244 159.098 29.597 158.235 30.0776C157.372 30.5579 156.413 30.7502 155.454 30.7502C154.495 30.7502 153.536 30.5579 152.673 30.0776C151.81 29.597 151.139 28.9244 150.659 28.1556C150.18 27.2907 149.988 26.4258 149.988 25.3687C149.988 24.3117 150.18 23.3507 150.659 22.5819C151.139 21.717 151.81 21.1405 152.673 20.66C153.536 20.1795 154.495 19.9873 155.454 19.9873C156.413 19.9873 157.372 20.1795 158.235 20.66C159.098 21.1405 159.769 21.8132 160.249 22.5819C160.632 23.3507 160.92 24.2156 160.92 25.3687ZM150.659 71.3033V35.0745H160.249V71.3033H150.659ZM185.852 44.5882V44.6842C185.373 44.4922 184.797 44.3959 184.318 44.2999C183.742 44.2039 183.263 44.2039 182.688 44.2039C180.003 44.2039 177.989 44.9725 176.646 46.6063C175.208 48.2399 174.537 50.5463 174.537 53.5253V71.3033H164.947V35.0745H173.769L174.057 40.5523C175.016 38.6301 176.167 37.1886 177.797 36.1317C179.331 35.0745 181.153 34.5942 183.263 34.5942C183.934 34.5942 184.605 34.6902 185.181 34.7862C185.468 34.8825 185.66 34.8825 185.852 34.9785V44.5882ZM189.688 71.3033V20.1795H199.277V39.6873C200.619 37.9575 202.154 36.612 204.072 35.5551C205.99 34.5942 208.099 34.0176 210.496 34.0176C212.894 34.0176 215.099 34.4979 217.113 35.4591C219.127 36.42 220.853 37.7652 222.387 39.495C223.921 41.2249 225.072 43.243 225.935 45.4531C226.798 47.7596 227.181 50.258 227.181 52.9487C227.181 55.6395 226.702 58.2342 225.839 60.5403C224.976 62.8468 223.73 64.8649 222.195 66.6907C220.661 68.4205 218.839 69.8618 216.729 70.823C214.62 71.7839 212.414 72.2642 209.921 72.2642C207.524 72.2642 205.414 71.7839 203.496 70.7267C201.578 69.7658 200.044 68.3242 198.798 66.4984L198.51 71.2073L189.688 71.3033ZM208.195 63.7117C209.921 63.7117 211.455 63.2311 212.894 62.3662C214.236 61.4052 215.291 60.156 216.154 58.6185C216.921 57.081 217.305 55.2552 217.305 53.237C217.305 51.2189 216.921 49.3931 216.154 47.8556C215.291 46.318 214.236 45.0688 212.894 44.1079C211.551 43.1467 209.921 42.7624 208.195 42.7624C206.469 42.7624 204.935 43.243 203.496 44.1079C202.154 45.0688 201.099 46.318 200.236 47.8556C199.469 49.3931 199.085 51.2189 199.085 53.237C199.085 55.2552 199.469 57.081 200.236 58.6185C201.003 60.156 202.154 61.4052 203.496 62.3662C204.935 63.2311 206.469 63.7117 208.195 63.7117ZM230.826 71.3033V35.0745H239.648L239.935 39.7833C240.99 38.0535 242.429 36.7083 244.251 35.6511C246.072 34.5942 248.182 34.1136 250.579 34.1136C253.264 34.1136 255.566 34.7862 257.484 36.0357C259.497 37.2849 261.032 39.1107 262.087 41.4172C263.141 43.7233 263.717 46.51 263.717 49.6814V71.3993H254.128V50.9306C254.128 48.4322 253.552 46.414 252.401 44.9725C251.251 43.5313 249.716 42.7624 247.703 42.7624C246.264 42.7624 245.018 43.0507 243.867 43.7233C242.812 44.3959 241.949 45.2608 241.278 46.5103C240.607 47.6633 240.319 49.1048 240.319 50.5463V71.3033H230.826ZM268.511 71.3033V20.1795H278.101V39.6873C279.443 37.9575 280.977 36.612 282.895 35.5551C284.813 34.5942 286.923 34.0176 289.32 34.0176C291.717 34.0176 293.923 34.4979 295.937 35.4591C297.95 36.42 299.676 37.7652 301.21 39.495C302.746 41.2249 303.895 43.243 304.759 45.4531C305.623 47.7596 306.004 50.258 306.004 52.9487C306.004 55.6395 305.527 58.2342 304.663 60.5403C303.799 62.8468 302.554 64.8649 301.018 66.6907C299.485 68.4205 297.663 69.8618 295.553 70.823C293.443 71.7839 291.238 72.2642 288.745 72.2642C286.347 72.2642 284.238 71.7839 282.32 70.7267C280.402 69.7658 278.868 68.3242 277.621 66.4984L277.333 71.2073L268.511 71.3033ZM287.115 63.7117C288.84 63.7117 290.375 63.2311 291.813 62.3662C293.156 61.4052 294.211 60.156 295.074 58.6185C295.841 57.081 296.224 55.2552 296.224 53.237C296.224 51.2189 295.841 49.3931 295.074 47.8556C294.307 46.318 293.156 45.0688 291.813 44.1079C290.471 43.1467 288.84 42.7624 287.115 42.7624C285.388 42.7624 283.854 43.243 282.416 44.1079C281.073 45.0688 280.019 46.318 279.155 47.8556C278.292 49.3931 278.005 51.2189 278.005 53.237C278.005 55.2552 278.388 57.081 279.155 58.6185C279.923 60.156 281.073 61.4052 282.416 62.3662C283.854 63.2311 285.293 63.7117 287.115 63.7117Z" fill="#FF385C"/>
</svg>
