<svg width="300" height="90" viewBox="0 0 300 90" fill="none" xmlns="http://www.w3.org/2000/svg">
<mask id="mask0_316_1645" style="mask-type:luminance" maskUnits="userSpaceOnUse" x="0" y="0" width="300" height="90">
<path d="M299.207 0H0V89.3156H299.207V0Z" fill="white"/>
</mask>
<g mask="url(#mask0_316_1645)">
<path d="M185.57 69.7749C168.204 82.4351 143.032 89.1895 121.359 89.1895C90.9707 89.1895 63.6132 78.0734 42.9162 59.5853C41.2902 58.1316 42.7474 56.1501 44.6986 57.2825C67.0345 70.1354 94.6522 77.8678 123.18 77.8678C142.42 77.8678 163.585 73.9308 183.047 65.7608C185.986 64.5259 188.445 67.6653 185.57 69.7749Z" fill="#FF9900"/>
<path d="M192.83 61.6107C190.619 58.8061 178.157 60.2855 172.563 60.9418C170.859 61.1474 170.598 59.6809 172.133 58.6259C182.059 51.7169 198.346 53.7109 200.245 56.0269C202.145 58.3557 199.751 74.5021 190.424 82.2088C188.993 83.3926 187.627 82.762 188.264 81.1923C190.359 76.0204 195.055 64.4285 192.83 61.6107Z" fill="#FF9900"/>
<path d="M172.934 9.84685V3.13092C172.934 2.11452 173.714 1.43262 174.651 1.43262H205.053C206.028 1.43262 206.809 2.12737 206.809 3.13092V8.88192C206.796 9.84685 205.976 11.1077 204.519 13.1019L188.766 35.347C194.619 35.2053 200.799 36.0672 206.106 39.0263C207.303 39.6955 207.628 40.6734 207.719 41.6381V48.8045C207.719 49.7824 206.627 50.9273 205.482 50.3356C196.128 45.4852 183.705 44.9577 173.363 50.387C172.309 50.953 171.204 49.8209 171.204 48.843V42.0372C171.204 40.9436 171.217 39.0781 172.323 37.4181L190.574 11.5323H174.69C173.714 11.5323 172.934 10.8504 172.934 9.84685Z" fill="#221F1F"/>
<path d="M62.0673 51.7513H52.8181C51.9334 51.6871 51.231 51.0308 51.166 50.1945V3.24737C51.166 2.30817 51.9594 1.56195 52.948 1.56195H61.573C62.4706 1.60053 63.1862 2.28244 63.2512 3.13159V9.26858H63.4204C65.6707 3.33745 69.8986 0.571289 75.5966 0.571289C81.3852 0.571289 85.0017 3.33745 87.6036 9.26858C89.841 3.33745 94.9273 0.571289 100.378 0.571289C104.255 0.571289 108.495 2.15377 111.084 5.70473C114.011 9.65454 113.413 15.3927 113.413 20.4232L113.4 50.0532C113.4 50.9922 112.606 51.7513 111.618 51.7513H102.381C101.458 51.6871 100.716 50.9537 100.716 50.0532V25.1707C100.716 23.1894 100.898 18.2489 100.456 16.3705C99.7666 13.2184 97.6983 12.3306 95.0183 12.3306C92.7809 12.3306 90.4396 13.8102 89.4898 16.1775C88.5401 18.5448 88.6311 22.5075 88.6311 25.1707V50.0532C88.6311 50.9922 87.8377 51.7513 86.8491 51.7513H77.6127C76.6762 51.6871 75.9478 50.9537 75.9478 50.0532L75.9346 25.1707C75.9346 19.9343 76.8061 12.2277 70.2369 12.2277C63.5892 12.2277 63.8494 19.7413 63.8494 25.1707V50.0532C63.8494 50.9922 63.056 51.7513 62.0673 51.7513Z" fill="#221F1F"/>
<path d="M232.978 0.571289C246.702 0.571289 254.13 12.2277 254.13 27.0491C254.13 41.3686 245.922 52.7293 232.978 52.7293C219.501 52.7293 212.164 41.0727 212.164 26.5473C212.164 11.9318 219.592 0.571289 232.978 0.571289ZM233.056 10.1563C226.239 10.1563 225.81 19.3425 225.81 25.0678C225.81 30.8059 225.719 43.0543 232.978 43.0543C240.146 43.0543 240.484 33.1733 240.484 27.152C240.484 23.1894 240.315 18.4548 239.105 14.6979C238.064 11.43 235.996 10.1563 233.056 10.1563Z" fill="#221F1F"/>
<path d="M271.932 51.7513H262.722C261.798 51.6871 261.056 50.9537 261.056 50.0532L261.043 3.09297C261.122 2.23097 261.889 1.56195 262.825 1.56195H271.398C272.205 1.60053 272.868 2.14092 273.05 2.87426V10.0534H273.22C275.808 3.63336 279.438 0.571289 285.825 0.571289C289.975 0.571289 294.02 2.05088 296.622 6.10358C299.042 9.8604 299.042 16.1775 299.042 20.7191V50.272C298.938 51.0954 298.171 51.7513 297.26 51.7513H287.984C287.139 51.6871 286.437 51.0697 286.346 50.272V24.7718C286.346 19.6384 286.944 12.1248 280.557 12.1248C278.306 12.1248 276.238 13.6172 275.21 15.8816C273.909 18.7507 273.74 21.6069 273.74 24.7718V50.0532C273.727 50.9922 272.921 51.7513 271.932 51.7513Z" fill="#221F1F"/>
<path d="M148.685 29.3235V27.3422C141.998 27.3422 134.934 28.7574 134.934 36.5539C134.934 40.5038 137.003 43.1799 140.554 43.1799C143.156 43.1799 145.485 41.5973 146.955 39.0244C148.776 35.8594 148.685 32.8874 148.685 29.3235ZM158.012 51.62C157.401 52.1603 156.516 52.1989 155.827 51.8388C152.757 49.3169 152.21 48.1462 150.519 45.7403C145.446 50.8608 141.855 52.392 135.273 52.392C127.494 52.392 121.432 47.6444 121.432 38.1364C121.432 30.713 125.503 25.6568 131.292 23.1865C136.314 20.9993 143.325 20.6134 148.685 20.0087V18.825C148.685 16.6507 148.854 14.0775 147.566 12.1991C146.434 10.5137 144.275 9.81897 142.376 9.81897C138.85 9.81897 135.702 11.6073 134.934 15.3127C134.778 16.1361 134.167 16.9466 133.334 16.9852L124.359 16.0331C123.604 15.8659 122.771 15.2612 122.98 14.1161C125.048 3.36033 134.869 0.118164 143.664 0.118164C148.165 0.118164 154.045 1.30181 157.596 4.67264C162.097 8.8283 161.668 14.3734 161.668 20.4075V34.6627C161.668 38.947 163.463 40.8254 165.154 43.1413C165.752 43.9647 165.882 44.9555 165.128 45.5729C163.242 47.1297 159.885 50.0246 158.038 51.6457L158.012 51.62Z" fill="#221F1F"/>
<path d="M27.4486 29.3235V27.3422C20.7621 27.3422 13.6984 28.7574 13.6984 36.5539C13.6984 40.5038 15.7668 43.1799 19.3182 43.1799C21.9199 43.1799 24.2485 41.5973 25.7185 39.0244C27.5397 35.8594 27.4486 32.8874 27.4486 29.3235ZM36.7759 51.62C36.1645 52.1603 35.2797 52.1989 34.5906 51.8388C31.5204 49.3169 30.974 48.1462 29.2829 45.7403C24.2095 50.8608 20.6191 52.392 14.0366 52.392C6.25739 52.392 0.195312 47.6444 0.195312 38.1364C0.195312 30.713 4.26703 25.6568 10.0559 23.1865C15.0773 20.9993 22.089 20.6134 27.4486 20.0087V18.825C27.4486 16.6507 27.6178 14.0775 26.3299 12.1991C25.1981 10.5137 23.0387 9.81897 21.1394 9.81897C17.614 9.81897 14.4659 11.6073 13.6984 15.3127C13.5423 16.1361 12.9309 16.9466 12.0983 16.9852L3.1223 16.0331C2.36777 15.8659 1.53521 15.2612 1.74335 14.1161C3.81173 3.36033 13.6333 0.118164 22.4273 0.118164C26.9283 0.118164 32.8082 1.30181 36.3597 4.67264C40.8607 8.8283 40.4313 14.3734 40.4313 20.4075V34.6627C40.4313 38.947 42.2266 40.8254 43.9176 43.1413C44.5161 43.9647 44.646 44.9555 43.8915 45.5729C42.0053 47.1297 38.6493 50.0246 36.8019 51.6457L36.7759 51.62Z" fill="#221F1F"/>
</g>
</svg>
