<svg width="272" height="74" viewBox="0 0 272 74" fill="none" xmlns="http://www.w3.org/2000/svg">
<path fill-rule="evenodd" clip-rule="evenodd" d="M42.9523 72.0135H62.9987L68.2585 27.4225C69.138 12.7569 62.7097 7.49827 54.2318 4.86592C40.2378 2.55212 27.0482 4.59996 14.399 9.63678L12.1402 26.6645C30.178 17.8191 47.3925 13.6727 47.2173 31.679C-29.5929 24.4517 0.343933 100.71 45.2063 62.4935L42.9523 72.0135ZM48.214 42.6968C40.8216 71.7445 6.02751 57.8768 27.6714 43.4542C34.5209 41.4474 41.3747 40.6894 48.214 42.6968Z" fill="#EC1C24"/>
<path fill-rule="evenodd" clip-rule="evenodd" d="M71.3672 73.2172H92.6641L94.0308 43.4212C94.7416 27.7752 108.769 22.4936 123.135 25.3816L125.215 6.12891L112.752 6.2776C104.521 6.3731 97.4048 5.89982 90.1103 10.6254C83.8882 14.6497 77.223 21.7489 76.3593 29.3721L71.3672 73.2172Z" fill="#EC1C24"/>
<path fill-rule="evenodd" clip-rule="evenodd" d="M121.636 73.2167H143.458L149.892 19.5066C144.225 25.0547 137.474 28.4451 128.34 27.0567L121.636 73.2167ZM132.499 0.519812L129.381 20.2869C143.513 19.6051 150.466 12.1179 152.494 0L132.499 0.519812Z" fill="#EC1C24"/>
<path fill-rule="evenodd" clip-rule="evenodd" d="M267.987 51.2032L265.864 68.874C243.059 77.0503 209.938 75.8958 208.133 46.3809C206.923 26.6622 217.885 7.93654 238.373 3.91821C269.722 -2.23502 275.934 22.8633 269.968 45.58H226.281C231.132 60.0564 245.417 61.5651 267.987 51.2032ZM227.825 32.2841H255.287C254.861 12.1598 234.498 15.5846 227.825 32.2841Z" fill="#EC1C24"/>
<path fill-rule="evenodd" clip-rule="evenodd" d="M206.356 5.33984L204.429 22.1228C174.543 16.1491 169.323 23.8769 181.387 28.9657C189.571 32.4044 197.423 31.6724 201.623 41.2903C204.607 48.1163 202.78 56.4014 197.977 62.8362C188.627 75.3941 174.983 73.5675 161.019 72.3737C156.889 72.0135 153.489 71.7397 149.386 71.1842L151.453 53.4027C178.724 61.0139 191.646 54.5034 178.427 46.4432C173.009 43.1526 166.474 42.7422 161.424 39.1506C152.488 32.7809 153.046 20.7858 163.081 12.1277C172.037 4.38422 179.458 4.2996 190.476 4.72754L206.356 5.33984Z" fill="#EC1C24"/>
</svg>
