<svg width="350" height="112" viewBox="0 0 350 112" fill="none" xmlns="http://www.w3.org/2000/svg">
<g clip-path="url(#clip0_316_6581)">
<path d="M109.321 42.2803C109.071 38.8425 109.154 35.3713 108.343 31.9835C107.743 29.4677 106.566 27.285 104.539 25.6189C104.067 25.2301 103.556 24.8858 102.956 24.4359C103.783 23.8916 104.561 23.4418 105.272 22.9086C107.627 21.137 108.993 18.7655 109.137 15.8275C109.209 14.3002 109.043 12.7396 108.793 11.2234C108.115 7.2025 105.605 4.69774 101.878 3.33706C99.4403 2.44846 96.8689 2.10412 94.292 2.08746C82.7401 2.02637 71.1882 2.04858 59.6363 2.03747C58.4811 2.03747 58.4756 2.03747 58.4756 3.17045C58.4756 16.6273 58.4756 30.0841 58.4756 43.5354C55.1155 36.7653 40.087 6.47495 38.2487 2.71504C38.0154 2.23741 37.7322 2.02637 37.2157 2.02637C32.1562 2.03192 27.0966 2.03192 22.0371 2.02637C21.5206 2.02637 21.2207 2.23741 20.993 2.71504C20.1155 4.5589 2.82657 39.3645 1.44368 42.1747C0.966054 43.1411 0.50509 44.1074 -0.00585938 45.1571C0.321814 45.1904 0.532858 45.2293 0.738349 45.2293C5.55904 45.2293 10.3797 45.2293 15.2004 45.2404C15.7669 45.2404 16.0446 45.0016 16.2723 44.5018C16.9165 43.1022 17.6496 41.7471 18.2883 40.342C18.5327 39.7977 18.8992 39.6922 19.4158 39.6977C21.2041 39.7088 34.6665 39.7088 39.6038 39.6977C40.2258 39.6977 40.5979 39.8866 40.87 40.4975C41.4754 41.8637 42.2307 43.1633 42.8139 44.5351C43.0805 45.1627 43.4637 45.246 44.0246 45.246C48.7953 45.2349 67.6005 45.246 71.6547 45.2404C72.3471 45.2404 72.6933 44.8831 72.6933 44.1685C72.6933 39.4256 72.6933 34.6882 72.6933 29.9453C72.6933 28.9734 72.721 28.9456 73.693 28.9456C76.9641 28.9456 80.2353 28.9067 83.501 28.9623C84.9227 28.9845 86.3556 29.0956 87.7552 29.3399C91.3929 29.973 92.8591 32.339 93.2867 35.288C93.7255 38.326 93.8921 41.3972 94.1309 44.4573C94.1809 45.0738 94.3642 45.2626 94.9862 45.2571C98.1852 45.2293 101.384 45.246 104.583 45.246C105.994 45.246 107.399 45.2349 108.81 45.246C109.354 45.2515 109.598 45.0627 109.526 44.4851C109.432 43.752 109.376 43.0134 109.321 42.2803ZM33.9611 27.9515C31.0287 27.9626 28.0908 27.9626 25.1584 27.9515C24.4475 27.9515 24.3475 27.7182 24.6585 27.0629C26.0303 24.1971 27.391 21.3258 28.7572 18.4545C28.9405 18.0713 29.2848 17.3659 29.5403 16.8494C29.7736 17.2215 32.9559 24.0138 34.4388 27.1739C34.7331 27.796 34.6276 27.9459 33.9611 27.9515ZM92.7425 18.1823C92.4426 18.2934 92.0871 18.2823 91.7539 18.2823C88.7715 18.2879 85.7891 18.2823 82.8067 18.2823C79.7799 18.2823 76.7475 18.2823 73.7207 18.2823C72.7377 18.2823 72.7044 18.2434 72.7044 17.2937C72.7044 16.2219 72.7155 15.15 72.7044 14.0781C72.6933 13.4783 72.9321 13.2117 73.5486 13.2117C79.6577 13.2228 85.7613 13.2006 91.8705 13.2339C93.309 13.2395 93.8199 14.0614 94.1309 15.2999C94.4086 16.4051 93.6866 17.8269 92.748 18.1768L92.7425 18.1823Z" fill="#369790"/>
<path d="M126.731 2.03876C122.721 2.03876 118.712 2.03876 114.702 2.03876C113.685 2.03876 113.663 2.05542 113.663 3.07732C113.663 16.823 113.663 30.5686 113.646 44.3142C113.646 45.0251 113.835 45.2584 114.574 45.2528C118.678 45.2195 122.782 45.2361 126.887 45.2361C127.881 45.2361 127.881 45.2362 127.881 44.2587C127.881 37.3998 127.881 10.0029 127.881 3.16618C127.881 2.0332 127.881 2.0332 126.726 2.0332L126.731 2.03876Z" fill="#369790"/>
<path d="M349.75 44.6747C348.251 41.659 330.94 6.77007 328.957 2.72135C328.724 2.24373 328.44 2.03268 327.924 2.03268C322.864 2.03824 317.805 2.03824 312.745 2.03268C312.229 2.03268 311.929 2.24373 311.701 2.72135C310.824 4.56521 293.535 39.3708 292.152 42.181C291.941 42.6142 291.73 43.0474 291.513 43.4862C291.496 29.9683 291.496 16.4448 291.513 2.92684C291.513 2.26039 291.319 2.01602 290.613 2.02158C286.626 2.04935 282.644 2.03824 278.656 2.03824C277.705 2.03824 277.229 2.50476 277.229 3.43779C277.229 10.4633 277.229 17.4944 277.229 24.52V25.503L276.984 25.6641C276.685 25.4364 276.357 25.2309 276.096 24.9698C268.559 17.5333 261.028 10.0912 253.509 2.63805C253.064 2.1993 252.603 2.02713 251.987 2.02713C247.883 2.04935 243.778 2.03824 239.674 2.03824C238.669 2.03824 238.658 2.04935 238.658 3.09346C238.658 14.5731 238.658 26.0528 238.647 37.527C238.647 38.7377 238.647 39.954 238.647 41.1647L233.815 39.8651C232.387 39.4819 231.027 38.8821 229.783 38.0823L224.112 34.4502C223.929 34.3335 223.696 34.3058 223.49 34.3835L214.066 37.8658C213.871 37.938 213.66 37.9157 213.488 37.8047L208.601 35.4943C207.134 34.8001 205.735 33.9892 204.407 33.0562L200.242 30.1404L198.937 29.2296L192.217 24.5255C191.878 24.3145 191.445 24.3256 191.117 24.5533L178.505 33.3061C178.36 33.4061 177.533 33.2617 176.466 32.6507C174.706 31.6455 172.423 30.7458 171.951 30.6014C171.185 30.3737 170.163 30.407 167.902 31.5122C165.648 32.6119 160.788 33.3894 160.76 33.3949C159.327 33.3949 157.894 33.3949 156.462 33.3949H155.995C155.734 33.3949 155.467 33.4116 155.212 33.3727C155.068 33.3505 154.862 33.2672 154.812 33.1506C154.773 33.0617 154.895 32.8562 154.995 32.7563C155.195 32.5563 155.401 32.3675 155.601 32.1676C155.962 31.8177 156.323 31.4622 156.689 31.1179C156.961 30.8624 157.234 30.6069 157.5 30.3515C163.781 24.4422 170.063 18.5274 176.361 12.6349C176.833 12.1906 177.044 11.7407 177.038 11.0854C177.005 8.44176 177.027 5.79816 177.027 3.15455C177.027 2.02713 177.027 2.02713 175.855 2.02713C161.988 2.02713 148.125 2.02713 134.258 2.02713C133.219 2.02713 133.158 2.07711 133.158 3.10457C133.158 6.298 133.158 9.49143 133.158 12.6793C133.158 13.8789 133.158 13.8845 134.335 13.8845C140.828 13.8845 147.32 13.8845 153.807 13.8845C154.14 13.8845 154.879 13.8845 155.206 13.9178C155.223 13.99 153.196 15.745 152.363 16.5059C145.782 22.5317 139.195 28.5631 132.602 34.5779C132.125 35.0167 131.919 35.4721 131.925 36.1219C131.953 38.8377 131.936 41.5535 131.936 44.2693C131.936 45.2134 131.936 45.219 132.891 45.219C136.312 45.219 244.895 45.219 247.549 45.219C248.977 45.219 250.404 45.219 251.831 45.219C252.531 45.219 252.881 44.8635 252.881 44.1526C252.881 37.0271 252.881 29.9072 252.881 22.7817C252.881 22.4429 252.925 22.0985 252.964 21.5987C253.331 21.9042 253.581 22.0819 253.792 22.2929C261.406 29.7572 269.02 37.2215 276.629 44.6969C277.018 45.0801 277.418 45.2301 277.956 45.2245C282.205 45.2079 301.099 45.2079 305.92 45.2245C306.486 45.2245 306.764 44.9857 306.992 44.4859C307.636 43.0863 308.369 41.7312 309.008 40.3261C309.252 39.7818 309.618 39.6763 310.135 39.6818C311.923 39.6929 325.386 39.6929 330.323 39.6818C330.945 39.6818 331.317 39.8707 331.589 40.4816C332.195 41.8478 332.95 43.1474 333.533 44.5192C333.8 45.1468 334.183 45.2301 334.744 45.2301C339.515 45.219 344.291 45.2301 349.062 45.2245C349.317 45.2245 349.572 45.2023 349.945 45.1801C349.85 44.9191 349.822 44.7858 349.761 44.6636L349.75 44.6747ZM324.669 27.9522C321.737 27.9633 318.799 27.9633 315.867 27.9522C315.156 27.9522 315.056 27.719 315.367 27.0636C316.738 24.1979 318.099 21.3266 319.465 18.4552C319.649 18.072 319.993 17.3667 320.248 16.8502C320.482 17.2223 323.664 24.0146 325.147 27.1747C325.441 27.7967 325.336 27.9467 324.669 27.9522Z" fill="#369790"/>
<path d="M109.321 42.2803C109.071 38.8425 109.154 35.3713 108.343 31.9835C107.743 29.4677 106.566 27.285 104.539 25.6189C104.067 25.2301 103.556 24.8858 102.956 24.4359C103.783 23.8916 104.561 23.4418 105.272 22.9086C107.627 21.137 108.993 18.7655 109.137 15.8275C109.209 14.3002 109.043 12.7396 108.793 11.2234C108.115 7.2025 105.605 4.69774 101.878 3.33706C99.4403 2.44846 96.8689 2.10412 94.292 2.08746C82.7401 2.02637 71.1882 2.04858 59.6363 2.03747C58.4811 2.03747 58.4756 2.03747 58.4756 3.17045C58.4756 16.6273 58.4756 30.0841 58.4756 43.5354C55.1155 36.7653 40.087 6.47495 38.2487 2.71504C38.0154 2.23741 37.7322 2.02637 37.2157 2.02637C32.1562 2.03192 27.0966 2.03192 22.0371 2.02637C21.5206 2.02637 21.2207 2.23741 20.993 2.71504C20.1155 4.5589 2.82657 39.3645 1.44368 42.1747C0.966054 43.1411 0.50509 44.1074 -0.00585938 45.1571C0.321814 45.1904 0.532858 45.2293 0.738349 45.2293C5.55904 45.2293 10.3797 45.2293 15.2004 45.2404C15.7669 45.2404 16.0446 45.0016 16.2723 44.5018C16.9165 43.1022 17.6496 41.7471 18.2883 40.342C18.5327 39.7977 18.8992 39.6922 19.4158 39.6977C21.2041 39.7088 34.6665 39.7088 39.6038 39.6977C40.2258 39.6977 40.5979 39.8866 40.87 40.4975C41.4754 41.8637 42.2307 43.1633 42.8139 44.5351C43.0805 45.1627 43.4637 45.246 44.0246 45.246C48.7953 45.2349 67.6005 45.246 71.6547 45.2404C72.3471 45.2404 72.6933 44.8831 72.6933 44.1685C72.6933 39.4256 72.6933 34.6882 72.6933 29.9453C72.6933 28.9734 72.721 28.9456 73.693 28.9456C76.9641 28.9456 80.2353 28.9067 83.501 28.9623C84.9227 28.9845 86.3556 29.0956 87.7552 29.3399C91.3929 29.973 92.8591 32.339 93.2867 35.288C93.7255 38.326 93.8921 41.3972 94.1309 44.4573C94.1809 45.0738 94.3642 45.2626 94.9862 45.2571C98.1852 45.2293 101.384 45.246 104.583 45.246C105.994 45.246 107.399 45.2349 108.81 45.246C109.354 45.2515 109.598 45.0627 109.526 44.4851C109.432 43.752 109.376 43.0134 109.321 42.2803ZM33.9611 27.9515C31.0287 27.9626 28.0908 27.9626 25.1584 27.9515C24.4475 27.9515 24.3475 27.7182 24.6585 27.0629C26.0303 24.1971 27.391 21.3258 28.7572 18.4545C28.9405 18.0713 29.2848 17.3659 29.5403 16.8494C29.7736 17.2215 32.9559 24.0138 34.4388 27.1739C34.7331 27.796 34.6276 27.9459 33.9611 27.9515ZM92.7425 18.1823C92.4426 18.2934 92.0871 18.2823 91.7539 18.2823C88.7715 18.2879 85.7891 18.2823 82.8067 18.2823C79.7799 18.2823 76.7475 18.2823 73.7207 18.2823C72.7377 18.2823 72.7044 18.2434 72.7044 17.2937C72.7044 16.2219 72.7155 15.15 72.7044 14.0781C72.6933 13.4783 72.9321 13.2117 73.5486 13.2117C79.6577 13.2228 85.7613 13.2006 91.8705 13.2339C93.309 13.2395 93.8199 14.0614 94.1309 15.2999C94.4086 16.4051 93.6866 17.8269 92.748 18.1768L92.7425 18.1823Z" fill="#369790"/>
<path d="M126.731 2.03778C122.721 2.03778 118.712 2.03778 114.702 2.03778C113.685 2.03778 113.663 2.05444 113.663 3.07634C113.663 16.822 113.663 30.5676 113.646 44.3132C113.646 45.0241 113.835 45.2574 114.574 45.2518C118.678 45.2185 122.782 45.2352 126.887 45.2352C127.881 45.2352 127.881 45.2352 127.881 44.2577C127.881 37.3988 127.881 10.0019 127.881 3.1652C127.881 2.03223 127.881 2.03223 126.726 2.03223L126.731 2.03778Z" fill="#369790"/>
<path d="M191.677 20.8705C192.521 20.8705 193.349 21.1093 194.071 21.5536L194.149 21.6036L194.615 21.9313C196.57 17.3827 201.074 14.1948 206.345 14.1948C213.409 14.1948 219.135 19.9208 219.135 26.9852C219.135 29.0679 218.63 31.0339 217.747 32.7667L222.268 31.095C222.74 30.9228 223.228 30.834 223.728 30.834C224.534 30.834 225.322 31.0617 226 31.5004L231.67 35.1326C231.776 35.1993 231.892 35.2604 232.003 35.327C232.859 32.7001 233.331 29.9009 233.331 26.9852C233.331 12.0844 221.251 0.00488281 206.35 0.00488281C191.45 0.00488281 179.37 12.0844 179.37 26.9852C179.37 27.4628 179.387 27.9405 179.415 28.4125L189.117 21.6758C189.878 21.1482 190.766 20.8705 191.694 20.8705H191.677Z" fill="#CA6C20"/>
<path d="M349.749 44.6737C348.25 41.658 330.939 6.76909 328.956 2.72038C328.723 2.24275 328.439 2.03171 327.923 2.03171C322.863 2.03726 317.804 2.03726 312.744 2.03171C312.228 2.03171 311.928 2.24275 311.7 2.72038C310.823 4.56424 293.534 39.3699 292.151 42.1801C291.94 42.6133 291.729 43.0465 291.512 43.4852C291.496 29.9673 291.496 16.4438 291.512 2.92587C291.512 2.25941 291.318 2.01505 290.612 2.0206C286.625 2.04837 282.643 2.03726 278.655 2.03726C277.704 2.03726 277.228 2.50378 277.228 3.43682C277.228 10.4624 277.228 17.4935 277.228 24.519V25.502L276.983 25.6631C276.684 25.4354 276.356 25.2299 276.095 24.9689C268.558 17.5323 261.027 10.0903 253.508 2.63707C253.063 2.19832 252.602 2.02615 251.986 2.02615C247.882 2.04837 243.777 2.03726 239.673 2.03726C238.668 2.03726 238.657 2.04837 238.657 3.09248C238.657 14.5722 238.657 26.0519 238.646 37.526C238.646 38.7367 238.646 39.953 238.646 41.1637L233.814 39.8641C232.386 39.4809 231.026 38.8811 229.782 38.0814L224.111 34.4492C223.928 34.3326 223.695 34.3048 223.489 34.3825L214.065 37.8648C213.87 37.937 213.659 37.9148 213.487 37.8037L208.6 35.4933C207.133 34.7991 205.734 33.9882 204.406 33.0552L200.241 30.1394L198.936 29.2286L192.216 24.5246C191.877 24.3135 191.444 24.3246 191.116 24.5523L178.504 33.3051C178.359 33.4051 177.532 33.2607 176.465 32.6498C174.705 31.6445 172.422 30.7448 171.95 30.6004C171.184 30.3727 170.162 30.406 167.901 31.5112C165.647 32.6109 160.787 33.3884 160.759 33.394C159.326 33.394 157.893 33.394 156.461 33.394H155.994C155.733 33.394 155.466 33.4106 155.211 33.3718C155.067 33.3495 154.861 33.2662 154.811 33.1496C154.772 33.0607 154.894 32.8553 154.994 32.7553C155.194 32.5553 155.4 32.3665 155.6 32.1666C155.961 31.8167 156.322 31.4613 156.688 31.1169C156.96 30.8614 157.233 30.606 157.499 30.3505C163.78 24.4413 170.062 18.5265 176.36 12.6339C176.832 12.1896 177.043 11.7397 177.037 11.0844C177.004 8.44078 177.026 5.79718 177.026 3.15357C177.026 2.02615 177.026 2.02615 175.854 2.02615C161.987 2.02615 148.124 2.02615 134.257 2.02615C133.218 2.02615 133.157 2.07614 133.157 3.10359C133.157 6.29702 133.157 9.49045 133.157 12.6783C133.157 13.8779 133.157 13.8835 134.334 13.8835C140.827 13.8835 147.319 13.8835 153.806 13.8835C154.139 13.8835 154.878 13.8835 155.205 13.9168C155.222 13.989 153.195 15.744 152.362 16.5049C145.781 22.5308 139.194 28.5622 132.602 34.5769C132.124 35.0157 131.918 35.4711 131.924 36.1209C131.952 38.8367 131.935 41.5525 131.935 44.2683C131.935 45.2124 131.935 45.218 132.89 45.218C136.311 45.218 244.894 45.218 247.548 45.218C248.976 45.218 250.403 45.218 251.83 45.218C252.53 45.218 252.88 44.8626 252.88 44.1517C252.88 37.0262 252.88 29.9062 252.88 22.7807C252.88 22.4419 252.924 22.0976 252.963 21.5977C253.33 21.9032 253.58 22.0809 253.791 22.2919C261.405 29.7562 269.019 37.2205 276.628 44.6959C277.017 45.0792 277.417 45.2291 277.955 45.2236C282.204 45.2069 301.098 45.2069 305.919 45.2236C306.485 45.2236 306.763 44.9847 306.991 44.4849C307.635 43.0853 308.368 41.7302 309.007 40.3251C309.251 39.7808 309.618 39.6753 310.134 39.6809C311.922 39.692 325.385 39.692 330.322 39.6809C330.944 39.6809 331.316 39.8697 331.588 40.4806C332.194 41.8468 332.949 43.1464 333.532 44.5182C333.799 45.1458 334.182 45.2291 334.743 45.2291C339.514 45.218 344.29 45.2291 349.061 45.2236C349.316 45.2236 349.571 45.2013 349.944 45.1791C349.849 44.9181 349.821 44.7848 349.76 44.6626L349.749 44.6737ZM324.668 27.9513C321.736 27.9624 318.798 27.9624 315.866 27.9513C315.155 27.9513 315.055 27.718 315.366 27.0626C316.737 24.1969 318.098 21.3256 319.464 18.4543C319.648 18.0711 319.992 17.3657 320.247 16.8492C320.481 17.2213 323.663 24.0136 325.146 27.1737C325.44 27.7957 325.335 27.9457 324.668 27.9513Z" fill="#369790"/>
<path d="M23.0701 89.4658V94.181H14.4284V110.765H8.73576V94.181H0.0996094V89.4658H23.0701Z" fill="#369790"/>
<path d="M48.8455 110.765H42.7919L42.4864 106.777C42.3865 105.177 41.9477 104.006 41.1757 103.278C40.4037 102.551 39.1764 102.184 37.4936 102.184H31.1067V110.765H25.4141V89.4658H41.2368C43.8527 89.4658 45.7521 89.9657 46.9295 90.9709C48.1069 91.9761 48.6956 93.5145 48.6956 95.5806C48.6956 96.6746 48.4179 97.6466 47.8569 98.4852C47.296 99.3294 46.4907 99.9625 45.4355 100.385C47.3404 101.401 48.3734 103.273 48.5401 106.011L48.8455 110.759V110.765ZM42.2698 97.3467C42.5919 96.9801 42.7586 96.508 42.7586 95.9138C42.7586 95.3195 42.6031 94.8308 42.2865 94.4865C41.9699 94.1421 41.509 93.9699 40.9036 93.9699H31.1067V97.8965H40.9925C41.5201 97.8965 41.9477 97.7132 42.2698 97.3467Z" fill="#369790"/>
<path d="M72.2713 110.765L70.6607 107.51H58.7645L57.1539 110.765H50.8281L61.5081 89.4658H67.956L78.6637 110.765H72.2769H72.2713ZM61.1026 102.767H68.2837L64.6959 95.4972L61.1082 102.767H61.1026Z" fill="#369790"/>
<path d="M99.9904 89.4658H105.683V110.765H99.9904L86.6946 97.2578V110.765H81.002V89.4658H86.6946L99.9904 103.034V89.4658Z" fill="#369790"/>
<path d="M110.759 109.354C108.915 108.21 107.999 106.477 108.021 104.166H114.013C114.097 104.716 114.33 105.172 114.713 105.538C115.096 105.905 115.752 106.182 116.674 106.377C117.596 106.571 118.867 106.666 120.495 106.666C121.933 106.666 123.049 106.582 123.844 106.421C124.632 106.26 125.182 106.021 125.488 105.705C125.793 105.388 125.954 104.983 125.976 104.472C125.976 103.922 125.71 103.5 125.171 103.195C124.632 102.889 123.944 102.672 123.099 102.539C122.255 102.406 121.117 102.278 119.678 102.162C117.368 101.956 115.469 101.695 113.986 101.373C112.503 101.051 111.22 100.44 110.137 99.5457C109.048 98.6515 108.51 97.3575 108.51 95.6525C108.51 93.4809 109.437 91.8592 111.292 90.7874C113.147 89.7155 116.024 89.1768 119.917 89.1768C127.32 89.1768 131.141 91.3483 131.386 95.6858H125.638C125.415 94.936 124.877 94.3751 124.027 94.0141C123.177 93.6531 121.778 93.4643 119.828 93.4643C117.757 93.4643 116.346 93.6253 115.585 93.953C114.824 94.2751 114.436 94.7639 114.413 95.4137C114.391 96.0246 114.824 96.43 115.707 96.6466C116.59 96.8577 117.996 97.0465 119.923 97.2075C122.316 97.413 124.316 97.6852 125.915 98.0295C127.515 98.3738 128.914 99.0514 130.097 100.051C131.28 101.051 131.88 102.511 131.88 104.416C131.88 105.938 131.491 107.188 130.708 108.16C129.925 109.132 128.664 109.865 126.92 110.353C125.177 110.842 122.855 111.081 119.956 111.081C115.674 111.081 112.614 110.509 110.77 109.359L110.759 109.354Z" fill="#369790"/>
<path d="M156.184 91.049C157.361 92.1042 157.95 93.7259 157.95 95.9196C157.95 98.1134 157.306 99.8017 156.017 100.863C154.729 101.929 152.807 102.462 150.252 102.462H140.366V110.77H134.674V89.4717H150.497C153.112 89.4717 155.012 89.9993 156.189 91.0545L156.184 91.049ZM151.53 97.3969C151.852 97.0415 152.018 96.5694 152.018 95.9807C152.018 94.6423 151.402 93.9702 150.163 93.9702H140.366V97.9246H150.163C150.752 97.9246 151.207 97.7468 151.53 97.3914V97.3969Z" fill="#369790"/>
<path d="M165.497 109.932C163.531 109.171 162.082 107.988 161.149 106.388C160.216 104.789 159.749 102.695 159.749 100.118C159.749 97.5411 160.216 95.4529 161.149 93.8479C162.082 92.2484 163.531 91.0654 165.497 90.3045C167.463 89.5437 170.04 89.166 173.228 89.166C176.416 89.166 178.993 89.5492 180.97 90.3045C182.947 91.0654 184.402 92.2484 185.335 93.8479C186.268 95.4474 186.735 97.5411 186.735 100.118C186.735 102.695 186.268 104.783 185.335 106.388C184.402 107.993 182.947 109.171 180.97 109.932C178.993 110.693 176.41 111.07 173.228 111.07C170.046 111.07 167.469 110.693 165.497 109.932ZM179.021 104.878C180.209 103.895 180.803 102.306 180.803 100.118C180.803 97.9299 180.209 96.3137 179.021 95.3418C177.832 94.3699 175.899 93.8812 173.223 93.8812C170.546 93.8812 168.641 94.3699 167.458 95.3418C166.269 96.3137 165.675 97.9077 165.675 100.118C165.675 102.329 166.264 103.922 167.441 104.894C168.618 105.866 170.546 106.355 173.223 106.355C175.899 106.355 177.832 105.861 179.021 104.878Z" fill="#369790"/>
<path d="M212.716 110.765H206.662L206.357 106.777C206.257 105.177 205.818 104.006 205.046 103.278C204.274 102.551 203.046 102.184 201.364 102.184H194.977V110.765H189.284V89.4658H205.107C207.723 89.4658 209.622 89.9657 210.8 90.9709C211.977 91.9761 212.566 93.5145 212.566 95.5806C212.566 96.6746 212.288 97.6466 211.727 98.4852C211.166 99.3294 210.361 99.9625 209.306 100.385C211.211 101.401 212.244 103.273 212.41 106.011L212.716 110.759V110.765ZM206.145 97.3467C206.468 96.9801 206.634 96.508 206.634 95.9138C206.634 95.3195 206.479 94.8308 206.162 94.4865C205.846 94.1421 205.385 93.9699 204.779 93.9699H194.982V97.8965H204.868C205.396 97.8965 205.823 97.7132 206.145 97.3467Z" fill="#369790"/>
<path d="M237.486 89.4658V94.181H228.844V110.765H223.151V94.181H214.51V89.4658H237.48H237.486Z" fill="#369790"/>
<path d="M257.385 110.765L255.774 107.51H243.878L242.267 110.765H235.941L246.621 89.4658H253.069L263.777 110.765H257.39H257.385ZM246.216 102.767H253.397L249.809 95.4972L246.221 102.767H246.216Z" fill="#369790"/>
<path d="M285.193 89.4658V94.181H276.551V110.765H270.858V94.181H262.217V89.4658H285.187H285.193Z" fill="#369790"/>
<path d="M287.536 89.4658H293.229V110.765H287.536V89.4658Z" fill="#369790"/>
<path d="M301.531 109.932C299.565 109.171 298.116 107.988 297.183 106.388C296.25 104.789 295.783 102.695 295.783 100.118C295.783 97.5411 296.25 95.4529 297.183 93.8479C298.116 92.2484 299.565 91.0654 301.531 90.3045C303.497 89.5437 306.074 89.166 309.262 89.166C312.45 89.166 315.027 89.5492 317.004 90.3045C318.981 91.0654 320.436 92.2484 321.37 93.8479C322.303 95.4474 322.769 97.5411 322.769 100.118C322.769 102.695 322.303 104.783 321.37 106.388C320.436 107.993 318.981 109.171 317.004 109.932C315.027 110.693 312.445 111.07 309.262 111.07C306.08 111.07 303.503 110.693 301.531 109.932ZM315.055 104.878C316.243 103.895 316.838 102.306 316.838 100.118C316.838 97.9299 316.243 96.3137 315.055 95.3418C313.866 94.3699 311.934 93.8812 309.257 93.8812C306.58 93.8812 304.675 94.3699 303.492 95.3418C302.303 96.3137 301.709 97.9077 301.709 100.118C301.709 102.329 302.298 103.922 303.475 104.894C304.653 105.866 306.58 106.355 309.257 106.355C311.934 106.355 313.866 105.861 315.055 104.878Z" fill="#369790"/>
<path d="M344.307 89.4658H349.999V110.765H344.307L331.011 97.2578V110.765H325.318V89.4658H331.011L344.307 103.034V89.4658Z" fill="#369790"/>
<path d="M63.874 61.614C65.1847 63.0746 65.84 65.4072 65.84 68.6118C65.84 70.7833 65.5568 72.5383 64.9847 73.8768C64.4182 75.2152 63.5296 76.2038 62.3189 76.8425C61.1137 77.4812 59.5253 77.7977 57.5704 77.7977H46.3906V59.4258H57.5704C60.4584 59.4258 62.5577 60.1589 63.8684 61.6195L63.874 61.614ZM61.2859 75.3541C62.2023 74.8487 62.8687 74.0489 63.2797 72.9659C63.6907 71.8829 63.8962 70.4278 63.8962 68.6118C63.8962 66.7957 63.6907 65.3406 63.2797 64.252C62.8687 63.169 62.2023 62.3693 61.2859 61.8639C60.3695 61.3585 59.131 61.103 57.5704 61.103H48.2789V76.1149H57.5704C59.1255 76.1149 60.364 75.8594 61.2859 75.3541Z" fill="#369790"/>
<path d="M85.1612 61.103H70.8824V67.7176H84.3726V69.4004H70.8824V76.1205H85.1612V77.7977H68.9941V59.4258H85.1612V61.1086V61.103Z" fill="#369790"/>
<path d="M105.16 64.224C105.16 65.9734 104.677 67.2563 103.705 68.0672C102.733 68.878 101.251 69.289 99.2568 69.289H90.7262V77.7919H88.8379V59.4199H100.045C103.455 59.4199 105.166 61.0194 105.166 64.224H105.16ZM102.417 66.812C102.983 66.2789 103.272 65.4624 103.272 64.3572C103.272 63.1521 103.017 62.3079 102.511 61.8247C102.006 61.3415 101.084 61.1027 99.7566 61.1027H90.7262V67.6118H99.7566C100.962 67.6118 101.85 67.3452 102.422 66.812H102.417Z" fill="#369790"/>
<path d="M123.822 77.7919L121.695 73.7765H109.121L107.022 77.7919H104.895L114.503 59.4199H116.313L125.921 77.7919H123.822ZM110.015 72.0992H120.801L115.391 61.8081L110.01 72.0992H110.015Z" fill="#369790"/>
<path d="M145.531 77.7916H143.565L143.326 74.3538C143.204 72.5543 142.699 71.2436 141.804 70.4272C140.91 69.6164 139.572 69.2054 137.789 69.2054H130.963V77.786H129.075V59.4141H140.283C142.016 59.4141 143.304 59.8084 144.143 60.597C144.981 61.3857 145.403 62.5631 145.403 64.1403C145.403 65.3122 145.148 66.2785 144.631 67.0394C144.115 67.8003 143.36 68.339 142.36 68.6556C144.143 69.4942 145.115 71.177 145.276 73.6929L145.537 77.786L145.531 77.7916ZM140.255 67.6115C141.271 67.6115 142.066 67.3282 142.643 66.7562C143.221 66.1897 143.509 65.3455 143.509 64.2236C143.509 63.1018 143.248 62.302 142.721 61.8244C142.193 61.3468 141.288 61.1024 139.988 61.1024H130.958V67.6115H140.249H140.255Z" fill="#369790"/>
<path d="M165.214 59.4199V61.1027H157.367V77.7974H155.478V61.1027H147.631V59.4199H165.22H165.214Z" fill="#369790"/>
<path d="M187.318 59.4199H189.445V77.7919H187.557V62.8299L179.632 77.7919H178.11L170.185 62.8299V77.7919H168.374V59.4199H170.396L178.848 75.326L187.329 59.4199H187.318Z" fill="#369790"/>
<path d="M209.811 61.103H195.532V67.7176H209.022V69.4004H195.532V76.1205H209.811V77.7977H193.644V59.4258H209.811V61.1086V61.103Z" fill="#369790"/>
<path d="M229.865 59.4199H231.754V77.7919H229.865L215.376 62.2524V77.7919H213.487V59.4199H215.376L229.865 75.0094V59.4199Z" fill="#369790"/>
<path d="M252.492 59.4199V61.1027H244.644V77.7974H242.756V61.1027H234.908V59.4199H252.497H252.492Z" fill="#369790"/>
<path d="M265.166 75.7203C263.361 74.1652 262.461 71.7937 262.461 68.6059C262.461 65.418 263.361 63.0521 265.166 61.4915C266.965 59.9364 269.698 59.1533 273.357 59.1533C277.017 59.1533 279.744 59.9309 281.549 61.4915C283.354 63.0521 284.254 65.418 284.254 68.6059C284.254 71.7937 283.354 74.1597 281.549 75.7203C279.744 77.2753 277.017 78.0584 273.357 78.0584C269.698 78.0584 266.971 77.2809 265.166 75.7203ZM280.155 74.5151C281.588 73.2711 282.31 71.305 282.31 68.6114C282.31 65.9178 281.599 63.924 280.172 62.6911C278.745 61.4581 276.473 60.8417 273.363 60.8417C270.253 60.8417 267.976 61.4581 266.554 62.6911C265.127 63.924 264.416 65.8956 264.416 68.6114C264.416 70.4497 264.727 71.9382 265.349 73.0711C265.971 74.2097 266.932 75.0427 268.237 75.5759C269.542 76.109 271.253 76.3756 273.369 76.3756C276.468 76.3756 278.734 75.7536 280.166 74.5096L280.155 74.5151Z" fill="#369790"/>
<path d="M303.565 61.103H289.286V67.7176H302.776V69.4004H289.286V77.7977H287.397V59.4258H303.565V61.1086V61.103Z" fill="#369790"/>
<path d="M34.6778 68.0117H0.0332031V69.2336H34.6778V68.0117Z" fill="#369790"/>
<path d="M349.955 68.0117H315.327V69.2336H349.955V68.0117Z" fill="#369790"/>
</g>
<defs>
<clipPath id="clip0_316_6581">
<rect width="350" height="111.07" fill="white"/>
</clipPath>
</defs>
</svg>
