<svg width="266" height="125" viewBox="0 0 266 125" fill="none" xmlns="http://www.w3.org/2000/svg">
<g clip-path="url(#clip0_316_1851)">
<path d="M86.8839 125H78.6166C76.169 125 73.7301 124.029 71.3173 123.311C66.8646 121.988 64.4794 117.312 65.7673 112.977C67.0539 108.645 71.6401 106.124 76.0943 107.41C78.6543 108.149 81.9996 109.033 84.535 107.906C90.8863 105.082 93.4369 97.8222 90.7326 91.5447L68.3716 39.6461C67.0727 36.6316 67.6471 33.241 69.5435 30.6765C71.4356 28.1178 74.356 27.0236 77.6187 27.0157C81.4717 27.0062 85.0745 28.9309 86.6018 32.6135L102.126 70.0584C102.547 71.0751 103.377 71.6084 104.362 71.6099C105.35 71.6106 106.179 71.0722 106.602 70.0591L122.181 32.6946C124.161 27.9468 129.632 25.8309 134.238 27.8135C138.877 29.8106 140.991 35.1794 138.986 39.8773L110.848 105.847C109.379 109.29 107.371 112.447 105.057 115.317C102.464 118.533 99.3118 120.991 95.5857 122.695C92.7588 123.987 89.8493 124.503 86.8832 125L86.8839 125Z" fill="#001437"/>
<path d="M164.336 0C169.225 0.73913 173.578 4.61739 173.579 9.87319L173.584 88.4768C173.584 94.0906 168.574 98.392 163.252 98.3703C157.931 98.3486 152.965 93.9739 152.964 88.3602L152.958 10.1109C152.958 4.73696 157.215 0.705072 162.306 0H164.337L164.336 0Z" fill="#001437"/>
<path d="M250.103 92.9066C240.492 99.153 228.319 100.725 217.207 98.4508C203.217 95.587 191.948 85.8515 188.618 71.7762C187.256 66.0197 187.216 60.0544 188.479 54.2718C191.557 40.1798 202.563 30.2559 216.472 27.1501C222.953 25.703 229.605 25.6327 236.125 26.9153C250.306 29.7044 261.689 39.5255 264.98 53.7834C266.338 59.6646 266.341 65.7711 264.982 71.653C262.95 80.4457 257.66 87.9957 250.103 92.9073L250.103 92.9066ZM243.213 72.0725C245.685 66.3588 245.657 58.7276 243.065 53.0385C240.922 48.3334 236.939 44.9182 231.924 43.6218C223.26 41.3834 214.126 44.8617 210.386 53.3494C207.907 58.9747 207.909 66.461 210.384 72.087C212.557 77.0269 216.742 80.5994 222.003 81.8791C230.648 83.9812 239.56 80.5168 243.213 72.0725Z" fill="#001437"/>
<path d="M58.7324 84.3769C60.7622 89.8189 57.9607 95.7501 52.6602 97.7189C47.3604 99.6877 41.3564 97.0262 39.3382 91.6138L20.11 40.0653C18.0874 34.6435 20.7721 28.7146 26.0886 26.6892C31.4167 24.6595 37.4584 27.337 39.4825 32.7631L58.7331 84.3762L58.7324 84.3769Z" fill="#001437"/>
<path d="M19.9895 91.7882C17.8523 97.1889 11.799 99.723 6.54129 97.6411C1.28499 95.5599 -1.3932 89.5672 0.731659 84.1962L4.53537 73.0802C6.66385 67.6998 12.6301 65.0889 17.9372 67.1396C23.2551 69.1947 25.9514 75.2244 23.8201 80.6099L19.9895 91.7889V91.7882Z" fill="#71DBD4"/>
</g>
<defs>
<clipPath id="clip0_316_1851">
<rect width="266" height="125" fill="white"/>
</clipPath>
</defs>
</svg>
