<svg width="347" height="38" viewBox="0 0 347 38" fill="none" xmlns="http://www.w3.org/2000/svg">
<path d="M89.0721 15.7197C89.0721 16.1843 89.0721 17.598 86.2221 17.598H70.7699V10.9238H86.2221C89.0721 10.9238 89.0721 12.3375 89.0721 12.8054V15.7197ZM70.7668 23.2997H86.219C87.573 23.2997 88.1967 23.5036 88.468 23.6673C88.9817 23.9982 89.2435 24.6901 89.2435 25.7161V28.0355C89.2435 29.0615 88.9817 29.7499 88.4778 30.0775C88.0705 30.325 87.3081 30.4518 86.219 30.4518H70.7668V23.2997ZM92.2262 20.4856C94.7853 19.737 96.0809 17.9991 96.0809 15.302V11.5554C96.0809 7.39113 93.7317 5.28223 89.0981 5.28223H63.3574V36.6282H87.2561C93.2666 36.6282 96.3138 34.496 96.3138 30.2981V26.3711C96.3138 23.2863 94.9402 21.3111 92.2262 20.489" fill="#EC1C2D"/>
<path d="M126.547 23.7275H114.584L120.672 12.2305L126.547 23.7275ZM124.424 5.28223H117.389L100.24 36.6282H107.867L111.318 29.9039H129.759L133.326 36.6282H141.815L124.517 5.44598L124.43 5.28223H124.424Z" fill="#EC1C2D"/>
<path d="M175.215 21.7289C175.215 22.3405 175.293 23.8211 175.442 26.1339C174.711 25.3484 173.764 24.4494 172.617 23.4468L151.733 5.35575L151.646 5.28223H146.505V36.6282H153.339V19.7036C153.339 18.6441 153.271 17.3173 153.139 15.7598C153.714 16.3848 154.341 16.9898 155.016 17.5713L176.818 36.5512L176.905 36.6282H182.047V5.28223H175.212V21.7289H175.215Z" fill="#EC1C2D"/>
<path d="M220.424 30.2147H198.267V11.4017H220.424V30.2147ZM220.275 5.28223H198.415C195.468 5.28223 193.5 5.79692 192.395 6.85639C191.284 7.92251 190.741 9.8877 190.741 12.8622V29.0483C190.741 32.0261 191.284 33.9945 192.395 35.0539C193.5 36.1133 195.468 36.6282 198.415 36.6282H220.275C223.222 36.6282 225.19 36.1133 226.295 35.0539C227.407 33.9912 227.95 32.0261 227.95 29.0483V12.8622C227.95 9.88434 227.407 7.92251 226.295 6.85639C225.19 5.79692 223.222 5.28223 220.275 5.28223Z" fill="#EC1C2D"/>
<path d="M244.251 11.1605H259.471C260.734 11.1605 261.309 11.3343 261.555 11.4746C262.04 11.7754 262.276 12.3704 262.276 13.2928V17.0092C262.276 17.935 262.04 18.5299 261.568 18.824C261.309 18.9677 260.737 19.1449 259.471 19.1449H244.251V11.1605ZM262.586 25.0237C267.226 25.0237 269.575 22.9115 269.575 18.7505V11.5515C269.575 7.38722 267.226 5.27832 262.586 5.27832H236.838V36.6243H244.251V25.0203H250.374L262.256 36.5341L262.347 36.6209H273.243L259.539 25.017H262.586V25.0237Z" fill="#EC1C2D"/>
<path d="M275.297 11.3983H288.933V36.6282H296.459V11.3983H310.149V5.28223H275.297V11.3983Z" fill="#EC1C2D"/>
<path d="M323.645 30.2113V23.2396H337.722V17.3607H323.645V11.1611H346.581V5.28223H316.119V36.6282H346.868V30.2113H323.645Z" fill="#EC1C2D"/>
<path d="M24.6027 18.4753L29.7049 4.02394V18.472C30.4548 18.4954 31.2172 18.5255 31.9799 18.5255C45.9587 18.5255 57.3007 14.6519 57.3007 9.43486C57.3007 4.21779 45.9587 0 31.9799 0C18.0011 0 6.63647 4.22782 6.63647 9.43486C6.63647 13.6995 14.2204 17.2989 24.5995 18.4753H24.6027Z" fill="#EC1C2D"/>
<path d="M24.2157 19.5551C10.7571 19.7824 0 23.9233 0 29.0001C0 33.2212 7.46438 36.804 17.7271 38.0037L24.2157 19.5518V19.5551Z" fill="#EC1C2D"/>
<path d="M29.7212 19.5459V38.0047C41.6157 37.2292 50.6666 33.6531 50.6666 29.0008C50.6666 24.3486 41.6188 20.3246 29.7212 19.5492V19.5459Z" fill="#EC1C2D"/>
</svg>
