<svg width="210" height="58" viewBox="0 0 210 58" fill="none" xmlns="http://www.w3.org/2000/svg">
<path d="M33.9309 42.0011C33.9309 41.2304 33.3525 40.8451 32.7741 40.8451C31.6174 40.8451 30.0751 41.0378 28.9183 41.0378C22.3635 41.0378 16.9654 35.6431 16.9654 29.0925V2.69732V0.385331C16.9654 0.192666 16.7726 0 16.5799 0H0.192789L0 0.192666V28.8998C0 44.8911 12.9169 57.7997 28.9183 57.7997C30.4607 57.7997 32.003 57.607 33.5453 57.4144C33.7381 57.4144 33.9309 57.2217 33.9309 57.029V42.0011Z" fill="#252C36"/>
<path d="M28.9182 0C27.3759 0 25.6408 0.192666 24.0985 0.385331C23.9057 0.385331 23.7129 0.577997 23.7129 0.770663V15.7986C23.7129 16.5692 24.2913 17.1472 24.8696 16.9546C25.448 16.9546 28.7254 16.7619 28.7254 16.7619C35.2802 16.7619 40.6783 22.1565 40.6783 28.7072V54.717C40.6783 54.9097 40.8711 54.9097 40.8711 54.9097C50.8961 50.4784 57.8365 40.4598 57.8365 28.8998C57.8365 12.9086 44.9197 0 28.9182 0Z" fill="#252C36"/>
<path d="M121.843 11.9449V4.23828L112.589 5.00894V12.1376H121.843V11.9449ZM138.808 9.44025L129.94 10.2109V39.6888C129.94 45.4687 132.639 48.9367 139.386 48.9367C142.278 48.9367 144.399 48.3587 146.52 47.5881V40.4594C144.592 41.2301 143.049 41.4227 141.314 41.4227C139.772 41.4227 139.001 40.6521 139.001 39.1108V24.4682H146.52V17.1469H138.808V9.44025ZM112.589 48.3587H121.843V17.1469H112.589V48.3587ZM95.045 41.6154C93.8883 42.0007 91.7676 42.0007 90.0325 42.0007C87.1407 42.0007 84.6344 42.0007 83.0921 41.8081V32.7528H89.8397C94.6594 32.7528 96.7801 34.1015 96.7801 37.3768C96.5873 39.1108 96.0089 40.4594 95.045 41.6154ZM82.8993 16.9542C84.4416 16.9542 86.3695 16.7615 88.4902 16.7615C93.5027 16.7615 95.6234 18.3029 95.6234 21.3855C95.6234 23.1195 94.8522 24.4682 93.3099 25.6242C91.9604 25.8168 90.4181 26.0095 88.683 26.0095C86.5623 26.0095 84.4416 26.0095 82.8993 25.8168V16.9542ZM99.8647 28.3215C102.757 26.5875 105.263 23.8902 105.263 19.8442C105.263 13.1009 100.058 9.44025 89.0685 9.44025H73.4526V48.3587H91.5748C101.214 48.3587 106.227 44.6981 106.227 37.3768C106.227 32.5601 103.528 29.8628 99.8647 28.3215ZM165.799 29.8628C161.172 29.0922 160.015 28.5142 160.015 27.1655C160.015 26.3948 160.208 25.8168 160.593 25.4315C161.75 25.0462 163.678 24.8535 165.413 24.8535C169.076 24.8535 172.353 25.4315 175.052 26.2022V18.6882C172.932 17.5322 169.462 16.5689 164.642 16.5689C156.545 16.5689 151.339 20.4222 151.339 26.9728C151.339 33.3308 155.002 35.2574 161.943 36.4134C166.955 37.3768 168.112 37.9548 168.112 39.4961C168.112 40.2668 167.919 40.6521 167.726 41.0374C166.57 41.4227 164.642 41.8081 162.136 41.8081C158.665 41.8081 154.617 41.0374 152.303 40.2668V47.3954C154.81 48.3587 158.858 48.9367 162.521 48.9367C171.197 48.9367 176.788 46.2394 176.788 39.3034C176.788 33.3308 173.125 31.2115 165.799 29.8628ZM199.151 40.8448C197.994 41.6154 196.645 42.0007 194.91 42.0007C191.247 42.0007 189.126 38.9181 189.126 33.5235C189.126 30.4408 189.704 27.7435 190.861 26.3948C192.018 25.4315 193.367 25.0462 195.102 25.0462C198.958 25.0462 200.693 28.1288 200.693 32.7528C200.886 36.0281 200.308 38.9181 199.151 40.8448ZM195.681 16.5689C185.077 16.5689 180.258 23.6975 180.258 33.5235C180.258 43.1567 185.849 48.9367 194.717 48.9367C205.32 48.9367 209.947 41.8081 209.947 32.1748C209.947 22.5415 204.549 16.5689 195.681 16.5689Z" fill="#252C36"/>
</svg>
