<svg width="291" height="41" viewBox="0 0 291 41" fill="none" xmlns="http://www.w3.org/2000/svg">
<mask id="mask0_316_1652" style="mask-type:luminance" maskUnits="userSpaceOnUse" x="0" y="0" width="291" height="41">
<path d="M290.45 0H0V40.3937H290.45V0Z" fill="white"/>
</mask>
<g mask="url(#mask0_316_1652)">
<path d="M40.3234 0.987305C42.8641 1.28843 47.3876 2.97227 48.6428 5.46116C50.8378 9.81211 49.8373 18.1514 44.0586 18.809L43.6585 20.038C52.2143 19.8783 52.9298 34.0188 46.5143 37.3742C45.9626 37.663 41.8212 39.0949 41.5423 39.0949H0V0.987305H40.3234ZM10.9146 15.7363H36.079C39.5534 15.7363 39.5534 8.97632 36.079 8.97632H10.9146V15.7363ZM10.9146 31.0997H37.2917C41.0208 31.0997 40.3902 23.7253 37.8981 23.7253H10.9146V31.0997Z" fill="black"/>
<path d="M125.393 0.553549C134.307 -0.36826 152.237 -0.878329 159.186 5.27938C165.377 10.7672 165.632 28.6318 160.078 34.4762C153.626 41.2668 132.797 40.9596 124.078 39.6321C114.855 38.2309 109.052 34.593 108.009 24.5759C106.517 10.2018 110.701 2.07147 125.393 0.559696V0.553549ZM131.463 8.54259C121.495 9.34763 118.002 11.1974 118.833 22.21C119.13 26.1676 120.027 29.1173 124.041 30.4509C129.686 32.3252 149.667 33.3947 152.353 26.6408C153.456 23.8631 153.238 14.5528 151.322 12.0209C148.235 7.95262 136.296 8.15541 131.463 8.54259Z" fill="black"/>
<path d="M225.562 14.509H215.557C215.072 14.509 213.55 11.719 212.858 11.0983C208.844 7.50327 190.617 7.57086 186.178 10.5452C181.606 13.6057 181.454 23.5735 184.189 27.8629C187.433 32.9514 207.716 32.7547 212.203 29.5408C213.168 28.8524 214.738 26.1853 214.956 26.1853H225.568C225.422 31.7407 221.766 35.981 216.782 37.8677C208.771 40.9035 185.827 41.3522 178.453 36.7493C169.861 31.3904 169.212 11.719 176.119 5.26021C182.449 -0.663971 199.949 -0.307538 208.274 0.380747C216.709 1.08132 225.531 4.63952 225.568 14.5029L225.562 14.509Z" fill="black"/>
<path d="M245.579 0.987305V17.5799L273.775 0.987305H289.845L263.77 16.6519L290.449 39.7033H275.594L254.377 21.98L245.676 26.8963C244.554 28.7154 246.967 37.5462 244.669 39.7033H235.574L234.664 38.7816V0.987305H245.579Z" fill="black"/>
<path d="M70.9385 0.987305V30.4853H101.863V39.0889H60.0239V0.987305H70.9385Z" fill="black"/>
</g>
</svg>
