<svg width="387" height="80" viewBox="0 0 387 80" fill="none" xmlns="http://www.w3.org/2000/svg">
<g clip-path="url(#clip0_316_1743)">
<path d="M10.7382 27.1769C10.7632 27.0019 11.3428 26.8268 11.2379 26.4317C10.3834 25.8016 3.33291 28.7173 1.50906 28.4472C-3.09303 27.7771 4.19236 24.3912 5.40659 23.8361C7.04555 23.0909 11.2179 22.0206 12.2223 21.1554C13.0468 20.4452 14.6058 16.4292 15.5302 14.9639C25.6838 -1.04013 48.5643 -4.98612 63.4449 6.93186C64.6041 7.8621 69.6909 12.4833 68.6865 13.9086C67.6822 15.334 64.1894 11.9431 63.0401 11.338C49.8285 4.40123 33.8736 6.04164 24.7294 18.4197C40.5793 15.8091 65.0588 16.6793 77.9557 27.417C95.4746 41.9956 72.4392 57.2995 58.2082 59.435C57.6735 56.3392 61.1713 56.1442 63.3499 54.8338C70.6853 50.4327 79.5646 43.6811 70.7103 35.1689C59.9521 24.8313 34.3133 23.626 20.2772 24.9764C17.0392 33.8636 17.6089 43.2059 22.6307 51.283C23.75 53.0834 28.462 57.3745 27.8524 58.7948C26.958 60.8753 23.2403 57.5395 22.2209 56.6943C17.8237 53.0634 10.7332 42.9109 10.7332 37.1844C10.7332 34.1987 10.3535 29.9526 10.7332 27.1819L10.7382 27.1769Z" fill="#CF2032"/>
<path d="M104.679 28.9278V45.932C116.536 41.3759 126.935 46.4571 127.684 59.6604C128.718 77.85 114.098 82.8963 98.7275 78.3901L98.6875 33.1888C99.0123 31.4634 102.875 28.8077 104.674 28.9278H104.679ZM104.679 74.9393H113.423C114.163 74.9393 117.496 72.8737 118.19 72.2086C122.662 67.8975 122.992 56.9848 119.17 52.1886C115.927 48.1126 108.786 48.1626 104.679 50.6882V74.9443V74.9393Z" fill="#CF2032"/>
<path d="M213.61 28.9279V77.9402C202.232 81.316 187.901 81.8061 184.753 67.5626C181.39 52.3288 192.328 41.206 207.613 44.9319V32.6788C207.613 31.5236 212.236 28.9029 213.61 28.9279ZM207.613 74.4393V50.1832C197.505 46.1372 190.085 52.0137 190.095 62.6863C190.1 73.6041 197.925 77.0749 207.613 74.4393Z" fill="#CF2032"/>
<path d="M387 28.9277V77.94C375.697 81.6659 360.122 81.2208 358.148 66.5571C356.089 51.2683 365.728 41.5409 381.004 44.9317V33.1788C381.004 31.7184 385.436 28.9928 387 28.9277ZM381.004 49.4329C372.044 47.7674 364.739 50.133 363.994 60.1655C363.09 72.3736 369.231 77.2248 381.004 74.4391V49.4329Z" fill="#CF2032"/>
<path d="M247.588 63.4366H224.603C225.028 75.6646 236.066 77.21 245.585 73.4391L245.52 77.6201C239.883 80.7959 230.744 80.901 225.352 76.94C217.403 71.0985 217.078 56.0848 223.349 48.928C228.81 42.6914 240.288 42.6564 245.005 49.7682C245.65 50.7384 247.588 55.2846 247.588 56.1848V63.4366ZM242.092 58.9355C242.402 44.922 225.502 46.0122 224.603 58.9355H242.092Z" fill="#CF2032"/>
<path d="M326.538 58.9341C326.788 47.2612 317.054 48.3664 308.555 49.9368L308.58 45.4557C317.169 43.6503 328.582 42.8351 331.32 53.4027C332.43 57.6788 332.634 72.1724 332.065 76.7135C331.8 78.814 329.571 78.804 327.568 79.2141C317.684 81.2296 304.247 80.1244 306.101 66.731C307.266 58.3189 320.037 57.4737 326.543 58.9341H326.538ZM326.538 62.9351C321.452 62.3999 310.733 61.3347 311.083 69.1516C311.393 76.1334 320.762 76.0834 325.694 74.8481L326.538 74.1929V62.9401V62.9351Z" fill="#CF2032"/>
<path d="M179.107 78.4151C169.823 80.6657 152.324 82.3011 153.123 68.1726C153.683 58.2751 166.18 57.4699 173.635 58.9303C174.54 47.0523 163.956 48.4877 155.652 49.933C154.732 45.1268 157.32 44.8017 161.408 44.4366C184.938 42.3411 178.152 62.7012 179.112 78.4151H179.107ZM173.635 62.9363C168.084 62.5162 158.415 61.1008 158.615 69.1978C158.8 76.7997 168.408 75.4844 173.635 74.9393V62.9363Z" fill="#CF2032"/>
<path d="M272.502 46.0017L272.567 50.4328C268.835 49.1075 257.807 46.992 257.547 53.1935C257.342 58.0447 266.836 59.5401 270.309 62.4458C275.79 67.032 274.846 75.8342 268.075 78.6849C262.748 80.9304 256.352 79.8452 251.156 77.8647L251.091 73.4336C255.653 74.7489 267.775 77.5696 268.115 70.1727C268.455 62.7609 251.77 64.1762 251.576 53.6536C251.396 43.7711 265.831 42.7909 272.507 45.9967L272.502 46.0017Z" fill="#CF2032"/>
<path d="M301.484 46.0012L301.549 50.4273C290.022 46.2513 282.831 51.4326 283.546 63.7006C284.215 75.2035 292.345 76.4888 302.019 73.9532L302.054 78.0692C291.97 82.5554 280.712 79.0395 278.194 67.5566C274.786 52.0177 285.709 39.5646 301.484 45.9962V46.0012Z" fill="#CF2032"/>
<path d="M133.161 44.9306C137.538 43.7653 139.312 44.6305 138.662 49.4317C141.975 46.0708 146.237 43.4452 151.089 44.9856L150.929 48.9616C147.696 49.8068 145.323 48.9766 142.48 51.5072C141.335 52.5225 139.157 56.2984 139.157 57.6837V79.4392H133.161V44.9306Z" fill="#CF2032"/>
<path d="M338.531 44.9308C342.978 43.7205 344.502 44.6908 344.032 49.432C345.661 46.9413 354.226 42.2752 356.285 45.411C356.734 46.0961 356.754 48.7218 356.05 49.2119C355.08 49.8921 351.053 48.8868 348.05 51.2074C347.011 52.0126 344.522 56.1036 344.522 57.1789V79.4345H338.526V44.9258L338.531 44.9308Z" fill="#CF2032"/>
<path d="M51.2126 51.9336V79.1904L50.463 79.9406H42.2183V56.1847C45.0365 54.6343 47.9097 52.0286 51.2126 51.9336Z" fill="#CF2032"/>
<path d="M40.7192 57.4347V79.9403L34.9428 79.4702C34.688 79.1051 34.7529 78.625 34.703 78.2099C34.3882 75.6592 34.3582 62.9761 34.9428 60.8855C35.2776 59.6802 39.3051 57.5147 40.7242 57.4297L40.7192 57.4347Z" fill="#CF2032"/>
</g>
<defs>
<clipPath id="clip0_316_1743">
<rect width="387" height="80" fill="white"/>
</clipPath>
</defs>
</svg>
