<svg width="379" height="86" viewBox="0 0 379 86" fill="none" xmlns="http://www.w3.org/2000/svg">
<path d="M169.98 29.3241C172.809 28.3767 175.767 27.0263 178.772 26.7005C203.02 24.094 216.922 52.8212 201.442 70.9681C186.596 88.3691 158.953 78.7834 156.223 56.761V11.1386C157.697 3.01046 169.98 4.22797 169.98 12.3561V29.3241ZM194.171 53.2285C194.171 46.4893 188.705 41.0234 181.966 41.0234C175.227 41.0234 169.761 46.4893 169.761 53.2285C169.761 59.9677 175.227 65.4336 181.966 65.4336C188.705 65.4336 194.171 59.9677 194.171 53.2285Z" fill="#614AD9"/>
<path d="M17.1654 29.0154C17.2426 29.2812 17.5684 29.3327 17.8385 29.2898C18.3572 29.2126 20.1664 28.1495 20.9637 27.8751C45.3054 19.4983 64.8927 48.2684 50.2397 68.8803C36.114 88.7549 5.88632 79.4778 3.59277 55.9593L3.61421 11.1429C4.67739 5.35114 12.3769 3.46486 15.8965 8.27488C16.128 8.59212 17.1654 10.5127 17.1654 10.7099V29.0154ZM28.8475 40.6975C18.2801 41.272 13.4529 54.3645 20.8566 61.9354C29.3491 70.6209 43.4234 62.3084 41.1727 50.6648C40.1009 45.1132 34.605 40.3846 28.8433 40.6975H28.8475Z" fill="#614AD9"/>
<path d="M342.335 74.4748C342.073 76.0309 340.448 78.0458 339.111 78.8604C333.885 82.0328 328.41 77.9172 328.342 72.2198V12.759C328.612 7.44736 333.576 3.78197 338.635 6.18698C339.968 6.82146 342.339 9.44511 342.339 10.9156V47.7324L342.96 47.9425L363.95 27.382C369.338 24.5311 374.474 28.2565 373.548 34.3098C373.124 37.092 367.366 41.6363 365.266 43.7155C362.526 46.4291 359.697 49.1685 357.163 52.0194C357.502 52.3752 357.751 52.8125 358.068 53.1855C362.582 58.5057 368.657 63.53 372.978 68.9231C375.816 72.4684 374.924 77.75 370.509 79.4048C365.523 81.2697 363.225 76.9998 360.336 73.956C354.493 67.7999 348.649 61.6437 342.849 55.449L342.339 55.7577V74.4748H342.335Z" fill="#614AD9"/>
<path d="M251.836 72.3135C250.884 72.2106 250.644 73.351 250.091 73.9598C238.641 86.6364 219.379 76.6992 214.308 62.8478C205.721 39.3979 230.821 16.9468 252.235 30.6781C268.17 40.8983 263.814 58.0678 264.397 74.277C263.9 79.7129 257.092 81.8821 253.409 78.0496C253.062 77.6894 251.845 75.636 251.845 75.2973V72.3135H251.836ZM250.52 53.2321C250.52 46.5015 245.067 41.0484 238.336 41.0484C231.606 41.0484 226.153 46.5015 226.153 53.2321C226.153 59.9627 231.606 65.4157 238.336 65.4157C245.067 65.4157 250.52 59.9627 250.52 53.2321Z" fill="#614AD9"/>
<path d="M147.897 28.5723C149.029 29.6655 149.882 31.5732 150.024 33.1294C149.179 46.3376 153.213 60.4248 143.756 71.2838C129.219 87.9817 102.039 79.039 99.6642 57.1666C98.9826 50.9162 98.9826 40.473 99.4242 34.1454C100.132 23.9423 112.817 24.7954 113.623 32.7178C114.343 39.8428 112.971 48.1768 113.618 55.3489C114.93 69.9248 134.758 69.4618 135.847 55.7605C136.421 48.5112 135.058 40.0186 135.838 32.9193C136.468 27.1619 143.722 24.5339 147.902 28.5723H147.897Z" fill="#614AD9"/>
<path d="M294.363 26.7043C308.442 25.2853 321.367 35.8185 322.383 49.9999C322.936 57.7251 321.976 66.0676 322.383 73.8571C321.517 81.8181 309.235 81.7024 308.395 74.2687C307.507 66.4192 310.418 51.7019 306.264 45.3399C300.352 36.2986 287.05 40.307 286.175 50.3986C285.549 57.6308 286.951 66.1105 286.184 73.2398C285.232 82.0539 272.941 82.1525 271.985 73.4499C272.354 65.819 271.522 57.7766 271.985 50.1928C272.705 38.3435 282.501 27.9004 294.363 26.7043Z" fill="#614AD9"/>
<path d="M75.7814 34.2565C76.09 34.5394 77.0975 32.8547 77.3204 32.6103C81.2859 28.2247 88.3466 24.8894 94.1598 27.4959C99.973 30.1024 98.3825 39.8253 91.7247 40.4384C89.4483 40.6484 87.2748 39.6539 84.7712 40.0654C80.4499 40.7813 76.1886 45.4456 75.7771 49.7883C75.1083 56.9048 76.3344 65.0287 75.7771 72.2137C74.9797 82.5925 62.2944 82.0267 61.3984 73.4141L61.4327 32.9747C63.0275 23.7405 75.4856 24.9923 75.7728 34.2522L75.7814 34.2565Z" fill="#614AD9"/>
</svg>
