<svg width="95" height="19" viewBox="0 0 95 19" fill="none" xmlns="http://www.w3.org/2000/svg">
<g clip-path="url(#clip0_3303_26246)">
<path d="M28.5097 5.13651C26.917 4.96433 25.8983 5.38043 24.8509 6.68612V5.29434H22.6699V18.2078H24.8652V10.7897C24.8652 9.74231 25.1378 8.79532 25.7405 8.04921C26.3431 7.3031 27.1466 7.13092 27.8927 7.13092C28.4379 7.13092 28.9545 7.3031 29.3993 7.61876L30.2028 5.71044C29.7149 5.46652 29.0406 5.1939 28.5097 5.13651Z" fill="#3155A4"/>
<path d="M18.4799 18.2062H20.6752V10.4151C20.6752 8.57851 20.3308 7.22977 19.4986 6.38322C18.6664 5.53667 17.4899 5.04883 15.6246 5.04883C14.2902 5.04883 12.9558 5.36449 11.4779 6.34017L12.3675 8.2485C13.5728 7.3876 14.405 7.05759 15.6963 7.08629C17.5329 7.12933 18.4799 8.04762 18.4799 10.1138C17.9203 9.95594 17.3464 9.86985 16.7581 9.86985C14.9933 9.86985 13.5584 10.3864 12.4249 11.2903C11.2914 12.1943 10.7749 13.2991 10.7749 14.6048C10.7462 15.6379 11.1479 16.6279 11.8797 17.3453C12.6115 18.0771 13.4867 18.3784 14.4911 18.4501C16.1124 18.5649 17.2603 18.1775 18.4512 17.044V18.2062H18.4799ZM18.4799 14.8057C17.5903 15.8961 16.4568 16.714 15.3089 16.714C13.7306 16.714 12.9128 15.9248 12.9128 14.5904C12.9128 13.7869 13.2141 13.1126 13.9458 12.5243C14.6776 11.936 15.8255 11.6634 16.9733 11.6634C17.4755 11.6777 17.9921 11.7351 18.4799 11.8499V14.8057Z" fill="#3155A4"/>
<path d="M38.4682 18.2062H40.6635V10.4151C40.6635 8.57851 40.3335 7.22977 39.4869 6.38322C38.6547 5.53667 37.4782 5.04883 35.6129 5.04883C34.2785 5.04883 32.9441 5.36449 31.4662 6.34017L32.3558 8.2485C33.5611 7.3876 34.3933 7.05759 35.6846 7.08629C37.5212 7.12933 38.4682 8.04762 38.4682 10.1138C37.9086 9.95594 37.3347 9.86985 36.7464 9.86985C34.9816 9.86985 33.5467 10.3864 32.4132 11.2903C31.2797 12.1943 30.7632 13.2991 30.7632 14.6048C30.7345 15.6379 31.1362 16.6279 31.868 17.3453C32.5997 18.0771 33.475 18.3784 34.4794 18.4501C36.1007 18.5649 37.2486 18.1775 38.4395 17.044L38.4682 18.2062ZM38.4682 14.8057C37.5786 15.8961 36.4451 16.714 35.2972 16.714C33.7189 16.714 32.9011 15.9248 32.9011 14.5904C32.9011 13.7869 33.2024 13.1126 33.9341 12.5243C34.6659 11.936 35.8138 11.6634 36.9616 11.6634C37.4638 11.6777 37.9803 11.7351 38.4682 11.8499V14.8057Z" fill="#3155A4"/>
<path d="M48.3688 5.06494C47.6658 5.0506 46.9627 5.19408 46.317 5.49539C45.7718 5.73931 45.2696 6.09802 44.8535 6.52847V0H42.6582V18.208H44.8535V9.15421C45.2409 8.47984 45.5996 8.03504 46.1592 7.63329C46.6327 7.27458 47.2066 7.08805 47.7949 7.08805C48.541 7.0737 49.2728 7.37502 49.7893 7.92025C50.2771 8.39375 50.5641 9.22595 50.5641 10.1873V18.2223H52.7594V10.1873C52.7594 8.63767 52.372 7.41806 51.5972 6.52847C50.808 5.56713 49.6171 5.03625 48.3688 5.06494Z" fill="#3155A4"/>
<path d="M59.8328 11.0046L58.1397 10.1867C57.2931 9.81368 56.504 9.34018 56.4896 8.56538C56.4466 7.1162 58.0105 6.91532 58.6275 6.97272C59.5314 7.05881 60.3062 7.47491 61.3824 8.10623L62.028 6.19791C60.6793 5.35136 59.431 5.07874 58.4984 5.0357C57.3075 4.9783 56.4466 5.20788 55.4852 5.99703C54.7391 6.62836 54.3087 7.57534 54.3374 8.55103C54.3374 8.93843 54.3948 9.32584 54.5382 9.68454C54.6817 10.0433 54.8826 10.3876 55.1409 10.6746C55.4135 10.9902 55.7291 11.2772 56.0879 11.5068C56.4466 11.7507 57.1496 12.0233 58.1971 12.4968C59.5601 13.1138 60.378 13.8168 60.378 14.6491C60.378 15.8113 59.4454 16.3421 58.0392 16.3421C57.2644 16.3421 56.3605 16.1413 55.0691 15.4095L54.2656 17.3752C55.4278 18.0352 56.7335 18.394 58.0823 18.4083C59.6032 18.4083 60.5215 18.1357 61.4398 17.4183C62.2433 16.7726 62.6163 15.883 62.6163 14.7495C62.6163 13.8742 62.4154 13.1568 61.9707 12.5829C61.368 11.9085 60.6506 11.3633 59.8328 11.0046Z" fill="#3155A4"/>
<path d="M73.6064 6.82929C72.5876 5.65273 71.1672 5.06445 69.3306 5.06445C67.5944 5.06445 66.1883 5.68143 65.1265 6.90103C64.0648 8.12064 63.5339 9.74199 63.5195 11.7364C63.5195 13.7882 64.0361 15.4239 65.0548 16.6435C66.0735 17.8631 67.494 18.4658 69.3306 18.4658C71.1241 18.4658 72.5303 17.8631 73.5633 16.6579C74.5964 15.4526 75.1129 13.8169 75.1273 11.7364C75.1273 9.64156 74.6251 8.00585 73.6064 6.82929ZM71.985 15.1656C71.3393 16.0122 70.4498 16.4283 69.3306 16.4283C68.1827 16.4283 67.2931 15.9978 66.6475 15.1513C66.0018 14.3047 65.6861 13.1569 65.6861 11.7221C65.6861 10.3303 66.0161 9.21111 66.6905 8.35021C67.3075 7.51801 68.2975 7.04452 69.3306 7.07321C70.4784 7.07321 71.368 7.48931 72.0137 8.30717C72.6594 9.12502 72.975 10.2729 72.9607 11.7364C72.9607 13.1856 72.645 14.3334 71.985 15.1656Z" fill="#3155A4"/>
<path d="M78.5276 1.46252C77.7241 2.39516 77.4084 3.64346 77.4084 5.27917H75.457V7.28793H77.4084V18.207H79.5893V7.28793H82.1864V5.27917H79.5893C79.5463 5.0496 79.4745 3.41389 80.1633 2.65343C80.6081 2.15124 81.2537 1.86428 81.9281 1.86428C82.3872 1.87863 82.8464 1.99341 83.2481 2.19429L83.9512 0.472493C83.2481 0.171179 82.4877 0.0133478 81.7272 -0.0153487C80.4933 -0.029697 79.3167 0.515538 78.5276 1.46252Z" fill="#3155A4"/>
<path d="M89.8206 16.442C89.0028 16.442 88.4145 16.2985 88.0558 15.8393C87.6971 15.3802 87.5105 14.6197 87.5105 13.5436V7.28776H91.0402V5.279H87.5105V1.76367L85.3009 2.63892V5.29335H83.7656V7.30211H85.3009V14.4619C85.3009 15.6098 85.5879 16.5568 86.2909 17.3172C86.994 18.0777 87.8549 18.3933 88.8736 18.4507C89.9354 18.5081 90.9828 18.3646 91.9872 18.0059L91.6572 16.0976C91.0689 16.3128 90.4519 16.4276 89.8206 16.442Z" fill="#3155A4"/>
<path d="M0 11.7508C0 15.4526 3.05618 18.4514 6.82978 18.4514C7.90591 18.4371 8.95333 18.1931 9.92901 17.7196L9.31204 15.6678C8.56593 16.1413 7.71938 16.3996 6.82978 16.3996C4.27579 16.4426 2.16659 14.4052 2.1092 11.8512C2.06615 9.28285 4.10361 7.17365 6.65761 7.13061C6.715 7.13061 6.77239 7.13061 6.81544 7.13061C7.70503 7.13061 8.56593 7.38888 9.31204 7.86237L9.90032 5.78187C8.93898 5.30837 7.89156 5.06445 6.81544 5.06445C3.05618 5.06445 0 8.0489 0 11.7508Z" fill="#3155A4"/>
<path d="M94.6984 16.815C94.2967 16.4132 93.6367 16.4132 93.2349 16.815C92.8332 17.2167 92.8332 17.8768 93.2349 18.2785C93.6367 18.6803 94.2967 18.6803 94.6984 18.2785C94.8993 18.0776 94.9997 17.8194 94.9997 17.5467C95.0141 17.2741 94.8993 17.0015 94.6984 16.815ZM94.5837 18.1637C94.2393 18.5081 93.6941 18.5081 93.3497 18.1637C93.0053 17.8194 93.0053 17.2741 93.3497 16.9298C93.6941 16.5854 94.2393 16.5854 94.5837 16.9298C94.7415 17.0876 94.8419 17.3172 94.8419 17.5467C94.8419 17.7763 94.7415 18.0059 94.5837 18.1637Z" fill="#3155A4"/>
<path d="M94.3966 17.2897C94.3966 17.1318 94.3248 16.9453 93.9805 16.9453H93.6074V18.1075H93.8226V17.6484H93.9661L94.2244 18.1075H94.4683L94.1814 17.6197C94.3105 17.5766 94.4109 17.4475 94.3966 17.2897ZM93.9518 17.4619H93.8083V17.1318H93.9518C94.1527 17.1318 94.1814 17.2036 94.1814 17.2897C94.1814 17.3327 94.1813 17.4619 93.9518 17.4619Z" fill="#3155A4"/>
</g>
<defs>
<clipPath id="clip0_3303_26246">
<rect width="95" height="18.581" fill="white"/>
</clipPath>
</defs>
</svg>
