<svg width="484" height="75" viewBox="0 0 484 75" fill="none" xmlns="http://www.w3.org/2000/svg">
<path d="M32.454 53.7641C30.0521 56.7323 26.4213 58.5805 22.3436 58.5805C15.1378 58.5805 9.27257 52.644 9.27257 45.3634C9.27257 38.0828 15.1378 32.5944 22.3436 32.5944C26.3095 32.5944 29.8845 34.3866 32.2864 37.2428L37.984 31.4183C34.0181 26.7699 28.2087 23.9697 21.6732 23.9697C9.71944 23.9697 0 33.8265 0 45.9795C0 58.1324 9.71944 67.5412 21.6732 67.5412C28.2087 67.5412 34.0739 64.6289 38.0399 59.9806L32.454 53.7641Z" fill="#034784"/>
<rect x="41.95" y="26.7139" width="8.49055" height="40.8832" fill="#034784"/>
<path d="M64.964 17.809L73.5662 12.4326V25.9857H82.1685V33.8263H73.5662V57.0121C73.5662 57.0121 75.2978 63.7887 84.1235 57.0121L82.5036 65.0768C82.5036 65.0768 79.6548 67.709 75.4096 67.485C71.1643 67.261 66.2487 66.0849 64.964 58.4123V33.9383H57.8699V25.9857H64.964V17.809V17.809Z" fill="#034784"/>
<rect x="90.5474" y="26.7139" width="8.49055" height="40.8832" fill="#034784"/>
<path fill-rule="evenodd" clip-rule="evenodd" d="M121.381 29.1781C121.381 29.1781 124.956 24.1377 132.497 24.0257C140.038 23.9137 149.869 29.0661 149.478 45.6434C149.143 62.1647 138.809 67.7651 132.162 67.5411C132.162 67.5411 125.403 68.1012 121.27 62.6127V67.5411H112.779V16.9691L121.381 11.9287V29.1781ZM121.046 54.1C121.046 54.1 125.459 59.9805 131.157 59.9805C136.854 59.9805 141.044 55.1081 141.1 45.6434C141.211 36.1786 136.016 31.9223 131.157 32.0343C131.157 32.0343 126.911 30.7462 121.046 37.2987V54.1Z" fill="#034784"/>
<path d="M104.736 18.7615C97.6973 8.17665 85.9111 0 70.4382 0C59.0988 0 48.8766 4.64837 41.6709 12.153C41.6709 12.153 38.0959 16.0173 36.3643 18.7615H46.2513C52.6192 11.6489 59.9367 7.67261 70.5499 7.67261C81.4982 7.67261 90.7708 13.4411 95.6864 18.7615H104.736Z" fill="#DF040B"/>
<path fill-rule="evenodd" clip-rule="evenodd" d="M156.796 28.6186C163.89 24.6423 170.872 24.6983 170.872 24.6983C186.904 24.9223 187.742 36.8512 187.686 36.7952V67.4857H179.307V62.5573C174.95 67.9337 167.968 67.4857 167.968 67.4857C152.607 67.5977 152.83 53.7086 152.83 53.7086C152.718 42.8997 162.94 40.0435 169.811 39.9875C176.682 39.9315 179.307 42.4517 179.307 42.4517V37.1873C179.307 37.1873 177.129 31.6428 171.04 31.5308C165.622 31.4748 160.148 34.4991 160.148 34.4991L156.796 28.6186ZM168.582 60.5411C174.112 60.9892 179.363 55.6127 179.363 55.6127H179.419V49.3962C179.419 49.3962 177.017 46.932 170.035 46.932C163.052 46.932 160.539 50.1243 160.65 53.3165C160.762 56.5088 163.052 60.0931 168.582 60.5411Z" fill="#034784"/>
<path d="M195.003 67.5412H203.55V40.043C203.55 40.043 203.27 31.4184 212.096 31.4184C220.978 31.4184 220.81 40.043 220.81 40.043V67.5412H229.245V38.2509C229.245 38.2509 228.966 23.8578 214.889 23.9698C214.889 23.9698 206.175 23.4097 203.829 28.7862V24.6978H194.948V67.5412H195.003Z" fill="#034784"/>
<path fill-rule="evenodd" clip-rule="evenodd" d="M237.68 28.6186C244.774 24.6423 251.756 24.6983 251.756 24.6983C267.732 24.9223 268.625 36.8512 268.569 36.7952V67.4857H260.191V62.5573C255.834 67.9337 248.851 67.4857 248.851 67.4857C233.49 67.5977 233.714 53.7086 233.714 53.7086C233.602 42.8997 243.824 40.0435 250.695 39.9875C257.565 39.9315 260.191 42.4517 260.191 42.4517V37.1873C260.191 37.1873 258.012 31.6428 251.924 31.5308C246.505 31.4748 241.031 34.4991 241.031 34.4991L237.68 28.6186ZM249.466 60.5411C254.996 60.9892 260.247 55.6127 260.247 55.6127H260.302V49.3962C260.302 49.3962 257.9 46.932 250.918 46.932C243.936 46.932 241.422 50.1243 241.534 53.3165C241.646 56.5088 243.936 60.0931 249.466 60.5411Z" fill="#034784"/>
<path d="M306.442 30.0745C303.258 23.4099 297.281 23.97 295.326 23.97C295.326 23.97 286.891 23.4099 284.657 28.7864V24.698H276.055V67.5414H284.378V40.0432C284.378 40.0432 284.098 31.4186 292.701 31.4186C296.89 31.4186 300.688 34.5548 301.135 39.1472V67.5414H309.067V38.2511C309.067 38.2511 309.514 31.3626 316.664 31.4186C325.266 31.4746 325.099 40.0432 325.099 40.0432V67.5414H333.254V38.2511C333.254 38.2511 332.975 23.858 319.345 23.97C319.289 23.97 309.347 22.8499 306.442 30.0745" fill="#034784"/>
<path fill-rule="evenodd" clip-rule="evenodd" d="M375.539 42.0033V48.4438V48.4998H347.051C346.158 52.9802 350.738 59.8127 357.05 59.7567C365.317 59.6447 367.719 56.5644 367.719 56.5644L372.132 61.8849C366.993 67.3173 357.05 67.1493 357.05 67.1493C341.465 67.1493 338.505 51.3 338.505 44.4115C338.505 37.5229 341.856 24.3059 358 24.1939C374.143 24.0819 375.539 42.0033 375.539 42.0033ZM367.663 41.9473C367.663 41.9473 367.272 31.3625 357.329 31.4745C347.567 31.5844 346.959 41.6289 346.94 41.9401C346.94 41.9442 346.94 41.9466 346.94 41.9473H346.94C346.94 41.9476 346.94 41.9476 346.94 41.9473H367.663Z" fill="#034784"/>
<path d="M376.377 25.1455H384.756L393.302 39.1466L401.346 25.1455H410.507L398.386 45.6431L410.507 66.4768H401.346L393.191 51.2436L384.756 66.4768H375.539L388.387 45.6431L376.377 25.1455Z" fill="#034784"/>
<path fill-rule="evenodd" clip-rule="evenodd" d="M474.747 38.4192L474.747 38.4192L474.745 38.4189C474.025 38.2717 473.289 38.1213 472.566 37.9709C472.587 37.9495 472.609 37.9363 472.627 37.925C472.656 37.9068 472.678 37.8935 472.678 37.8589C474.968 35.7308 479.381 27.3301 479.381 27.3301C480.33 25.3139 478.264 21.9537 478.264 21.9537L478.152 21.7857C474.465 16.4092 468.879 12.1529 463.126 9.57669C463.126 9.57669 459.83 9.01665 458.099 11.6489C457.261 12.937 455.529 15.9052 453.965 18.6494L453.965 18.6493C453.909 18.3133 453.853 17.9773 453.797 17.8653C452.513 15.0091 446.033 8.12058 446.033 8.12058C444.413 6.60846 440.559 7.44853 440.559 7.44853L440.335 7.50453C434.079 9.24067 428.27 13.217 424.025 17.8653C424.025 17.8653 422.405 20.8336 424.36 23.2978C425.098 24.2114 426.611 25.97 428.218 27.8383L428.22 27.8404L428.222 27.843C428.682 28.3782 429.151 28.9224 429.611 29.4583C429.387 29.4023 429.108 29.4023 428.996 29.4023C425.924 29.7943 417.433 34.0506 417.433 34.0506C415.534 35.1147 415.255 39.091 415.255 39.091V39.315C415.087 45.8676 417.21 52.5321 420.394 58.0205C420.394 58.0205 422.74 60.4287 425.7 59.2526C427.097 58.6926 430.225 57.2925 433.074 56.0044C432.515 59.5326 433.297 67.8773 433.297 67.8773C433.632 70.0615 437.152 71.7976 437.152 71.7976L437.375 71.9096C443.352 74.4298 450.39 74.9339 456.59 73.9258C456.59 73.9258 459.719 72.5817 459.663 69.4454C459.663 67.9333 459.495 64.517 459.328 61.3808C459.551 61.6048 459.774 61.8288 459.942 61.8848C462.679 63.3969 472.007 64.9651 472.007 64.9651C474.186 65.2451 476.755 62.1649 476.755 62.1649L476.867 61.9968C480.833 56.7884 483.012 50.1239 483.682 43.8514C483.677 43.841 483.668 43.8028 483.653 43.7414C483.512 43.1393 482.844 40.3065 480.107 39.5951C479.052 39.2988 476.976 38.8747 474.747 38.4193L474.747 38.4193L474.747 38.4192ZM436.425 23.4098C440.112 20.5536 444.692 18.8734 449.72 18.8734C450.837 18.8734 452.736 19.0974 453.574 19.2095L450.669 24.3059C450.669 24.3059 449.776 25.538 449.664 27.1621C449.664 26.602 449.44 25.482 447.709 24.4739C446.136 23.5205 444.468 24.2476 442.767 24.9891C441.869 25.3802 440.963 25.7753 440.056 25.93C437.431 26.378 435.699 25.93 436.425 23.4098ZM432.634 42.0669C432.427 40.2338 432.223 38.434 433.577 37.1869C434.47 36.3468 435.196 36.0668 435.755 36.0668C434.638 35.3947 433.912 34.4427 433.912 34.4427C433.912 34.4427 432.18 32.4825 430.169 30.1863C429.778 31.0264 429.052 32.6505 428.773 33.6586C427.32 38.419 427.6 43.3474 429.22 47.7157V47.6597C431.398 49.1158 432.404 47.5477 432.739 44.9155C432.854 44.0073 432.744 43.0325 432.634 42.0669ZM450.167 61.7728H450.223L450.168 61.7721C452.345 60.2602 451.228 58.8044 448.882 57.4605C448.08 57.0097 447.121 56.7578 446.17 56.508C444.404 56.044 442.665 55.5872 442.011 53.8762C441.453 52.4761 441.62 51.524 441.9 50.964C440.894 52.5881 438.995 53.2601 438.995 53.2601C438.995 53.2601 437.207 54.1002 434.917 55.1643C435.142 55.3705 435.378 55.6018 435.617 55.8352C436.092 56.2988 436.575 56.7704 436.984 57.0685C440.879 60.1923 445.549 61.7049 450.168 61.7721L450.167 61.7728ZM454.971 49.4519C455.864 49.5639 456.535 49.8999 457.093 50.2919C456.646 46.3156 459.719 39.147 459.774 39.091C460.165 38.0269 460.78 37.3549 461.506 36.9629C457.596 36.5708 451.228 30.8584 451.228 30.8584C449.993 29.8356 449.636 28.6059 449.659 27.5173L449.664 27.4981V27.3861C449.662 27.4296 449.66 27.4733 449.659 27.5173C448.741 31.2109 440.391 35.9548 440.391 35.9548C439.386 36.5708 438.492 36.7388 437.654 36.6268C440.615 39.259 442.458 47.6037 442.458 47.6037C442.737 48.8358 442.57 49.8999 442.123 50.6839C442.291 50.4039 442.458 50.2919 442.458 50.2919C445.475 47.9957 454.971 49.4519 454.971 49.4519ZM459.57 60.3704L459.57 60.3704L459.568 60.3717C459.46 60.4332 459.36 60.4898 459.272 60.5407C459.104 57.4045 458.937 54.7163 458.937 54.7163C458.937 54.7163 458.992 53.7642 458.601 52.6441C459.104 52.8121 459.774 52.9801 460.724 52.8681C462.556 52.6845 463.45 51.0795 464.354 49.4594C464.827 48.6092 465.304 47.755 465.919 47.0997C467.756 45.2016 469.427 44.4721 470.323 46.9637C469.146 51.376 466.524 55.5076 462.511 58.5246C461.769 59.1197 460.414 59.8906 459.57 60.3704ZM470.323 46.9637L470.332 46.9317V46.9877L470.323 46.9637ZM463.349 36.4588C464.634 36.2908 465.751 36.6268 465.751 36.6268C465.751 36.6268 468.265 37.0749 471.17 37.7469C471.002 36.7948 470.667 35.3387 470.388 34.4427C468.768 29.6823 465.695 25.818 461.841 23.2418L461.897 23.2978C459.272 23.3538 459.383 25.2019 460.612 27.5541C461.042 28.3772 461.712 29.1181 462.374 29.851C463.604 31.2125 464.81 32.5467 464.411 34.3307C464.187 35.3947 463.74 36.0668 463.349 36.4588Z" fill="#DF040B"/>
</svg>
