<svg width="458" height="46" viewBox="0 0 458 46" fill="none" xmlns="http://www.w3.org/2000/svg">
<g clip-path="url(#clip0_316_1840)">
<mask id="mask0_316_1840" style="mask-type:luminance" maskUnits="userSpaceOnUse" x="0" y="0" width="458" height="46">
<path d="M458 0.0742188H0V45.7271H458V0.0742188Z" fill="white"/>
</mask>
<g mask="url(#mask0_316_1840)">
<path d="M73.2554 14.5525C71.6075 13.0101 69.5956 11.8177 67.2747 11.0089C64.9589 10.2095 62.3996 9.80469 59.668 9.80469C56.9687 9.80469 54.426 10.2103 52.112 11.0098C49.792 11.8185 47.7816 13.0093 46.1347 14.5491C44.4632 16.0974 43.1535 18.0092 42.2411 20.2304C41.3202 22.45 40.853 25.0112 40.853 27.8422C40.853 30.6782 41.3202 33.2376 42.2404 35.4506C43.1535 37.6734 44.4632 39.5844 46.133 41.1294C47.7816 42.6692 49.7962 43.8381 52.1231 44.6037C54.4243 45.3483 56.9636 45.7254 59.668 45.7254C62.4088 45.7254 64.9658 45.3483 67.2688 44.6037C69.5912 43.8381 71.6051 42.67 73.2529 41.1319C74.9244 39.5836 76.2349 37.6726 77.1482 35.453C78.0674 33.2342 78.5336 30.674 78.5336 27.8422C78.5336 25.0154 78.0674 22.4552 77.1482 20.2314C76.2341 18.0101 74.9244 16.0991 73.2554 14.5525ZM71.718 34.7C71.0612 36.599 70.1353 38.1829 68.9672 39.4073C67.8143 40.6292 66.4289 41.5519 64.8511 42.1488C63.2674 42.7434 61.5243 43.0453 59.668 43.0453C57.8458 43.0453 56.1203 42.7434 54.5407 42.1488C52.9419 41.546 51.5926 40.6487 50.4161 39.4056C49.2524 38.1795 48.3272 36.5965 47.6652 34.699C47.0017 32.7856 46.665 30.4792 46.665 27.8422C46.665 25.2018 47.0017 22.8954 47.6644 20.9869C48.3257 19.0895 49.2506 17.5032 50.4161 16.2729C51.5977 15.0307 52.9452 14.1334 54.5383 13.5287C56.1227 12.9376 57.8483 12.6382 59.668 12.6382C61.5208 12.6382 63.2639 12.9376 64.8494 13.5279C66.4237 14.1258 67.8094 15.0492 68.9689 16.2729C70.1377 17.5024 71.0629 19.0887 71.718 20.9869C72.3852 22.9012 72.7233 25.2078 72.7233 27.8422C72.7233 30.4715 72.3852 32.7789 71.718 34.7Z" fill="#00528A"/>
<path d="M88.6432 38.1783C89.7992 36.1997 91.0354 34.2015 92.3188 32.2377L93.8052 29.9866L95.2916 32.2377C96.5742 34.2015 97.8104 36.1997 98.9665 38.1773L100.578 40.9566C101.413 42.3976 102.239 43.823 103.052 45.2363H109.072L108.922 45.0288C106.941 42.2909 104.978 39.4746 103.091 36.6583C101.454 34.2221 99.7329 31.6115 97.8283 28.6782L97.6159 28.3513L96.2215 26.3409L96.2877 26.2379C97.8448 23.7921 99.481 21.3819 101.15 19.0749L101.675 18.3497C103.338 16.0521 105.027 13.7184 106.744 11.3364L107.424 10.3945H101.22L101.007 10.7859C99.622 13.3321 98.2594 15.6994 96.9587 17.8241C95.9893 19.4016 94.9485 21.0335 93.8663 22.6739L93.7743 22.8124L93.6823 22.6739C92.6001 21.0335 91.5593 19.4016 90.5898 17.8241C89.2891 15.6994 87.9266 13.3321 86.5417 10.7859L86.3283 10.3945H80.1866L80.8661 11.3364C82.5838 13.7184 84.2725 16.0521 85.9352 18.3497L86.46 19.0749C88.1279 21.381 89.7632 23.7887 91.3202 26.2325L91.3597 26.2945L89.7202 28.6782C87.8157 31.6115 86.0944 34.2221 84.4574 36.6583C82.5701 39.4746 80.6079 42.2909 78.6269 45.0288L78.4763 45.2363H84.558C85.5154 43.5726 86.49 41.8917 87.4775 40.1885L88.6432 38.1783Z" fill="#00528A"/>
<path d="M37.3993 2.99376C35.6513 2.19827 33.6099 1.50777 31.331 0.942442C29.0588 0.380469 26.5068 0.0957031 23.7465 0.0957031C20.2873 0.0957031 17.0616 0.605595 14.1585 1.6111C11.2487 2.62331 8.71856 4.11939 6.63951 6.05816C4.54954 7.99775 2.90479 10.4011 1.74892 13.1992C0.588852 15.9897 0 19.2163 0 22.7896C0 26.359 0.588013 29.5821 1.74808 32.37C2.90479 35.1774 4.52685 37.5815 6.56978 39.5152C8.62698 41.4691 11.0975 42.9332 13.9116 43.8691C16.708 44.8158 19.8075 45.2953 23.1258 45.2953C24.6454 45.2953 26.1573 45.1686 27.6199 44.9183C29.0622 44.657 30.3583 44.374 31.4713 44.0765C32.6642 43.7448 33.6445 43.3861 34.4685 42.9803C35.3278 42.562 35.9444 42.1823 36.356 41.8186L36.4282 41.7548V36.9372L36.3578 36.8683L36.0099 37.1447C35.5051 37.5454 34.854 38.0276 33.8998 38.708C33.079 39.286 32.1407 39.8352 31.11 40.3409C30.108 40.8358 28.9681 41.2726 27.7231 41.6413C26.5119 41.9966 25.1745 42.1764 23.7465 42.1764C21.3609 42.1764 19.1373 41.7901 17.1372 41.0281C15.138 40.2789 13.3664 39.1036 11.8712 37.5353C10.3759 35.9537 9.19485 33.9299 8.36071 31.52C7.51313 29.0797 7.08305 26.1422 7.08305 22.7896C7.08305 19.4321 7.51313 16.4945 8.36071 14.0585C9.19401 11.6535 10.3742 9.62991 11.8686 8.04227C13.3706 6.47229 15.1439 5.29542 17.1389 4.54359C19.1433 3.78759 21.3659 3.40369 23.7465 3.40369C25.1602 3.40369 26.485 3.59103 27.6829 3.96148C28.8756 4.33864 29.9685 4.81662 30.9295 5.38194C31.8812 5.93215 32.7346 6.51765 33.4655 7.12078C34.187 7.72811 34.7483 8.2716 35.1338 8.7353L35.3009 8.93606L38.0478 3.28778L37.3993 2.99376Z" fill="#00528A"/>
<path d="M132.105 37.4513C133.078 34.7995 134.176 31.9713 135.368 29.0466L135.584 28.5199L136.151 28.5039C137.114 28.4762 138.069 28.455 139.011 28.4423C140.194 28.4201 141.438 28.4094 142.818 28.4094C144.29 28.4094 145.643 28.4201 146.952 28.4423C147.993 28.455 149.024 28.4774 150.043 28.5039L150.618 28.5199L150.83 29.0541C151.271 30.1638 151.741 31.3151 152.232 32.5171L154.076 37.0212C154.697 38.5473 155.239 39.9363 155.733 41.2691C156.212 42.5649 156.611 43.7255 156.918 44.7163L157.09 45.274H165.206L164.655 44.2545C164.1 43.2275 163.4 41.763 162.577 39.9045C161.727 37.9929 160.763 35.801 159.696 33.3669C158.701 31.0889 157.585 28.4976 156.283 25.4454C155.068 22.5991 153.86 19.7393 152.649 16.8644C151.439 13.9779 150.246 11.1211 149.079 8.30577C147.906 5.4851 146.819 2.86409 145.819 0.444857L145.665 0.0742188H143.681L143.524 0.433174C140.381 7.65158 137.203 14.8657 133.812 22.4867C130.509 29.9037 127.179 37.2378 123.913 44.2873L123.456 45.274H129.509L129.671 44.7015C130.207 42.8027 131.026 40.3632 132.105 37.4513ZM137.356 24.2666L143.203 10.6443L143.329 10.9321L149.254 24.4832L147.962 24.5193C147.523 24.5321 147.084 24.5416 146.643 24.5512C145.468 24.5628 144.301 24.5724 143.134 24.5724C141.9 24.5724 140.797 24.5512 139.762 24.5065C139.36 24.4949 138.961 24.4853 138.571 24.4779L137.276 24.4514L137.356 24.2666Z" fill="#808285"/>
<path d="M223.643 14.2418C224.58 14.2837 225.47 14.3446 226.292 14.4033C227.147 14.4747 227.914 14.5576 228.575 14.6489L229.754 14.8115L229.674 10.3438H202.503L202.421 14.8105L203.606 14.6478C204.301 14.5534 205.064 14.4715 205.875 14.4044C206.705 14.3446 207.602 14.2837 208.55 14.2418C209.455 14.1914 210.373 14.1651 211.262 14.141L211.297 14.14L213.373 14.12L213.394 14.9668C213.464 17.7861 213.501 20.6936 213.501 23.6107V31.9921C213.501 34.183 213.461 36.3045 213.38 38.296C213.302 40.3693 213.211 42.4333 213.109 44.43L213.071 45.1855H219.107L219.069 44.43C218.953 42.0555 218.869 40.1059 218.802 38.296C218.722 36.2037 218.68 34.0832 218.68 31.9921V23.6107C218.68 20.7556 218.716 17.848 218.789 14.9678L218.808 14.12L220.88 14.14C221.789 14.1651 222.72 14.1903 223.643 14.2418Z" fill="#808285"/>
<path d="M264.091 14.5535C262.436 13.0059 260.425 11.814 258.11 11.0103C255.801 10.2107 253.242 9.80469 250.503 9.80469C247.805 9.80469 245.267 10.2097 242.956 11.0092C240.649 11.8119 238.637 13.0038 236.977 14.5514C235.317 16.0886 234.006 18.0013 233.08 20.2341C232.164 22.4563 231.698 25.0154 231.698 27.8411C231.698 30.674 232.164 33.2342 233.082 35.4511C234.008 37.6829 235.317 39.5947 236.975 41.1328C238.631 42.6721 240.649 43.8419 242.969 44.6079C245.265 45.3496 247.799 45.7254 250.503 45.7254C253.245 45.7254 255.803 45.3487 258.102 44.6058C260.423 43.8388 262.438 42.6709 264.087 41.1349C265.745 39.5989 267.056 37.6862 267.987 35.449C268.901 33.2289 269.365 30.6698 269.365 27.8411C269.365 25.0175 268.901 22.4584 267.987 20.2331C267.06 17.9971 265.747 16.0865 264.091 14.5535ZM262.415 34.6422C261.768 36.5183 260.852 38.0827 259.698 39.2915C258.539 40.5149 257.211 41.4004 255.637 41.9996C254.07 42.5881 252.343 42.8862 250.503 42.8862C248.7 42.8862 246.996 42.5881 245.437 42.0005C243.856 41.4015 242.524 40.5149 241.364 39.2882C240.212 38.0827 239.297 36.5183 238.647 34.6412C237.988 32.7442 237.654 30.4568 237.654 27.8411C237.654 25.2244 237.988 22.938 238.647 21.0463C239.294 19.1713 240.21 17.6047 241.366 16.3897C242.528 15.1621 243.86 14.2755 245.435 13.6785C246.99 13.0951 248.694 12.7992 250.503 12.7992C252.35 12.7992 254.076 13.0951 255.633 13.6785C257.184 14.2671 258.553 15.1799 259.699 16.3907C260.858 17.6037 261.77 19.1713 262.415 21.0472C263.073 22.9412 263.407 25.2265 263.407 27.8411C263.407 30.4517 263.073 32.74 262.415 34.6422Z" fill="#808285"/>
<path d="M298.605 31.9594C300.028 29.293 301.498 26.566 303.097 23.6226L304.404 21.2124L304.707 23.9384C305.017 26.7044 305.284 29.4012 305.501 31.9531C305.833 35.6497 306.177 39.6393 306.58 44.5101L306.635 45.1868H312.448L312.331 44.3778C311.868 41.0988 311.537 38.5889 311.265 36.2384C310.971 33.7526 310.679 31.2449 310.383 28.7055L310.291 27.9038C309.967 25.0949 309.646 22.2124 309.341 19.3363C309.066 16.7445 308.751 13.8862 308.35 10.3438H306.454C305.683 11.7614 304.853 13.2829 303.969 14.8956C302.986 16.6941 302.026 18.4664 301.12 20.1632C300.156 21.9544 299.217 23.714 298.292 25.4506C297.355 27.2166 296.456 28.8765 295.687 30.293C294.874 31.7893 294.158 33.1198 293.542 34.2721L292.637 35.9382L291.882 34.5469C289.897 30.8913 287.914 27.1851 285.987 23.5324C283.788 19.352 281.546 14.9145 279.323 10.3438H277.25C276.97 13.0877 276.659 15.8316 276.327 18.5021C275.993 21.1967 275.611 24.053 275.159 27.2322C274.756 30.0549 274.315 33.0193 273.844 36.0443C273.355 39.19 272.926 41.9121 272.529 44.3664L272.399 45.1868H277.119V44.4609C277.119 43.2027 277.199 41.5396 277.353 39.5196C277.518 37.5395 277.712 35.4232 277.947 33.0486C278.14 31.0422 278.38 28.8303 278.699 26.0886L279.247 21.375L280.538 23.9301C282.019 26.8546 283.468 29.6823 284.84 32.3361C286.935 36.3821 288.992 40.5144 290.952 44.6171L291.113 44.9528H292.307L292.462 44.5992C294.382 40.2436 296.448 35.9898 298.605 31.9594Z" fill="#808285"/>
<path d="M348.458 14.5538C346.803 13.0072 344.79 11.8141 342.473 11.0093C340.16 10.2097 337.603 9.80469 334.874 9.80469C332.17 9.80469 329.63 10.2108 327.327 11.0103C325.014 11.812 323.001 13.003 321.341 14.5517C319.676 16.0984 318.367 18.0102 317.448 20.2337C316.53 22.4509 316.064 25.0112 316.064 27.8422C316.064 30.6795 316.53 33.2397 317.448 35.4517C318.369 37.6783 319.678 39.5901 321.341 41.1337C322.995 42.6741 325.014 43.843 327.338 44.609C329.626 45.3508 332.161 45.7275 334.874 45.7275C337.611 45.7275 340.164 45.3508 342.466 44.609C344.794 43.8399 346.809 42.6699 348.456 41.1347C350.124 39.5849 351.435 37.6731 352.351 35.4528C353.267 33.2418 353.731 30.6816 353.731 27.8422C353.731 25.01 353.267 22.4509 352.353 20.2348C351.437 18.0144 350.126 16.1036 348.458 14.5538ZM346.792 34.6385C346.13 36.5251 345.21 38.0907 344.061 39.2931C342.905 40.5156 341.576 41.4022 340 42.0014C338.433 42.5902 336.708 42.888 334.874 42.888C333.071 42.888 331.365 42.5902 329.802 42.0026C328.228 41.4043 326.896 40.5177 325.728 39.291C324.581 38.0886 323.667 36.5251 323.012 34.6448C322.354 32.7298 322.02 30.4413 322.02 27.8422C322.02 25.2379 322.354 22.9525 323.01 21.0479C323.665 19.1686 324.579 17.602 325.73 16.3911C326.899 15.1614 328.231 14.2747 329.8 13.6797C331.357 13.0953 333.063 12.7994 334.874 12.7994C336.718 12.7994 338.441 13.0953 339.998 13.6787C341.571 14.2758 342.901 15.1624 344.063 16.3911C345.216 17.601 346.134 19.1677 346.79 21.047C347.445 22.9429 347.777 25.2295 347.777 27.8422C347.777 30.4497 347.447 32.7361 346.792 34.6385Z" fill="#808285"/>
<path d="M376.959 14.2419C377.894 14.2839 378.789 14.3447 379.613 14.4035C380.455 14.4738 381.224 14.5567 381.901 14.648L383.09 14.8096L383.008 10.3438L355.836 10.3448L355.755 14.8085L356.923 14.648C357.616 14.5546 358.379 14.4728 359.192 14.4045C360.021 14.3447 360.917 14.2839 361.868 14.2419C362.774 14.1915 363.7 14.1653 364.593 14.1412L366.688 14.1202L366.709 14.967C366.784 17.7634 366.82 20.672 366.82 23.6112V31.993C366.82 34.0129 366.78 36.1335 366.7 38.295C366.614 40.3768 366.524 42.4229 366.427 44.4315L366.391 45.1868H372.423L372.386 44.4336C372.291 42.4241 372.201 40.378 372.116 38.2983C372.035 36.1587 371.993 34.037 371.993 31.993V23.6112C371.993 20.7643 372.032 17.8557 372.108 14.967L372.129 14.1202L374.297 14.1422C375.165 14.1674 376.062 14.1926 376.959 14.2419Z" fill="#808285"/>
<path d="M423.076 37.7671C424.106 35.1731 425.259 32.3071 426.507 29.2484C427.694 26.3291 428.917 23.3511 430.167 20.31L430.258 20.0898C431.694 16.6009 432.86 13.7865 433.93 11.2333L434.297 10.3542H432.818L432.823 10.3438H427.886L427.73 10.8053C427.362 11.9057 426.921 13.1802 426.419 14.5932C425.959 15.8813 425.413 17.3803 424.698 19.3104C424.219 20.5838 423.726 21.9002 423.219 23.2567L422.507 25.1585C421.616 27.4159 420.684 29.7551 419.736 32.1142C419.135 33.6057 418.557 35.024 417.994 36.3887L417.228 38.2443L416.459 36.3782C415.896 35.0126 415.318 33.5964 414.719 32.1046C413.643 29.4309 412.69 27.0455 411.813 24.8123L410.887 22.3367C410.502 21.3065 410.126 20.3007 409.755 19.3209C409.179 17.7621 408.572 16.1121 408.034 14.6036C407.526 13.1718 407.086 11.8973 406.721 10.8158L406.557 10.3438H400.155L400.523 11.2217C401.588 13.7655 402.79 16.6628 404.194 20.0804C405.477 23.1969 406.731 26.2484 407.946 29.2379C409.227 32.3806 410.349 35.1677 411.377 37.7566C412.318 40.1242 413.301 42.5997 414.103 44.6651L414.301 45.176L416.228 45.1855H420.152L420.35 44.6746C421.016 42.9648 421.856 40.8343 423.076 37.7671Z" fill="#808285"/>
<path d="M394.39 44.431C394.296 42.5068 394.21 40.4985 394.126 38.2918C394.042 36.3957 394.002 34.3351 394.002 31.9921V23.6107C394.002 21.2697 394.042 19.2142 394.126 17.3255C394.206 15.2669 394.292 13.1652 394.391 11.0205L394.422 10.3438H388.397L388.43 11.0226C388.523 12.926 388.598 14.7958 388.672 16.633L388.701 17.3276C388.783 19.4314 388.825 21.5456 388.825 23.6107V31.9921C388.825 34.0613 388.783 36.1818 388.701 38.2949C388.623 40.2792 388.537 42.3871 388.43 44.43L388.392 45.1855H394.428L394.39 44.431Z" fill="#808285"/>
<path d="M453.996 41.4971C453.015 41.5789 451.924 41.6452 450.661 41.6965C449.504 41.7427 448.29 41.7669 447.054 41.7669H444.207L444.188 40.9248C444.178 40.5437 444.17 40.1059 444.165 39.6166C444.14 38.3168 444.138 36.6537 444.138 35.0505V30.224C444.138 29.9311 444.138 29.6666 444.146 29.424L444.165 28.5725L445.941 28.5967C446.554 28.6103 447.189 28.6187 447.848 28.6271L449.117 28.646C450.227 28.6618 451.355 28.7027 452.464 28.7668C453.504 28.8244 454.483 28.9053 455.374 29.0051L456.399 29.1206L456.389 24.7677L455.388 24.8558C454.596 24.9272 453.857 24.9827 453.132 25.0259C452.346 25.0763 451.474 25.1236 450.531 25.1677C449.468 25.2243 448.455 25.2652 447.43 25.2904C446.686 25.3114 445.882 25.3262 445.048 25.3335L444.188 25.3409L444.165 23.1906C444.14 21.8804 444.138 20.53 444.138 19.5013C444.138 18.3883 444.161 17.3152 444.207 16.3105C444.235 15.7991 444.26 15.2742 444.283 14.7356L444.315 13.9009L445.151 13.9082C446.184 13.9187 447.054 13.9408 447.813 13.9744C448.848 14.0185 449.901 14.0752 450.943 14.1434C451.893 14.2064 452.806 14.2726 453.664 14.3366C454.575 14.408 455.536 14.4731 456.523 14.5319L457.483 14.5886L457.479 10.3438L438.531 10.3532L438.566 11.0462C438.671 13.1827 438.756 15.2962 438.835 17.2785C438.917 19.3793 438.959 21.5056 438.959 23.5981V31.9785C438.959 34.0647 438.917 36.1812 438.835 38.2674C438.751 40.3527 438.667 42.3957 438.566 44.4737L438.531 45.1645L457.941 45.1855L458 40.8692L456.681 41.1454C455.92 41.3061 455.015 41.4236 453.996 41.4971Z" fill="#808285"/>
<path d="M197.278 10.3262H190.938L190.997 11.0862C191.062 11.7802 191.127 12.7113 191.188 13.8504C191.255 15.0041 191.32 16.3111 191.385 17.7714C191.455 19.3094 191.503 20.8924 191.53 22.4777C191.564 24.0912 191.581 25.8108 191.581 27.734C191.581 28.9192 191.564 30.0373 191.53 31.1522C191.503 32.285 191.391 33.4219 191.196 34.5305C191.011 35.6076 190.705 36.6459 190.288 37.6168C189.881 38.5628 189.297 39.3964 188.554 40.0923C187.807 40.8009 186.843 41.3667 185.689 41.7741C184.712 42.1184 183.489 42.3211 182.054 42.3745C180.608 42.3211 179.385 42.1184 178.408 41.7741C177.254 41.3667 176.29 40.8009 175.543 40.0923C174.8 39.3964 174.216 38.5628 173.808 37.6168C173.393 36.6501 173.087 35.6118 172.9 34.5305C172.706 33.4145 172.594 32.2775 172.568 31.1512C172.533 30.0604 172.516 28.9423 172.516 27.734C172.516 25.7783 172.533 24.0587 172.568 22.4765C172.594 20.9166 172.642 19.3335 172.713 17.7714C172.774 16.3793 172.841 15.0608 172.909 13.8504C172.97 12.7197 173.034 11.7896 173.1 11.0841L173.158 10.3262H166.819L166.87 11.0789C166.98 12.3775 167.076 13.738 167.16 15.1217C167.263 16.7415 167.345 18.4422 167.404 20.1754C167.482 22.4639 167.436 24.8356 167.392 27.1283C167.365 28.513 167.338 29.9438 167.338 31.3432C167.338 36.2564 168.511 39.9254 170.825 42.2486C173.141 44.5561 176.857 45.7267 181.869 45.7267C181.897 45.7267 181.924 45.7255 181.952 45.7234C181.984 45.7225 182.016 45.7204 182.048 45.7204C182.081 45.7204 182.114 45.7225 182.145 45.7234C182.172 45.7255 182.2 45.7267 182.228 45.7267C187.24 45.7267 190.955 44.5561 193.272 42.2476C195.585 39.9254 196.759 36.2564 196.759 31.3432C196.759 29.9648 196.73 28.5582 196.701 27.1987C196.654 24.8974 196.604 22.5187 196.694 20.1743C196.753 18.4422 196.835 16.7415 196.936 15.1217C197.018 13.7727 197.114 12.4499 197.226 11.0768L197.278 10.3262Z" fill="#808285"/>
</g>
</g>
<defs>
<clipPath id="clip0_316_1840">
<rect width="458" height="45.8" fill="white"/>
</clipPath>
</defs>
</svg>
