<svg width="303" height="97" viewBox="0 0 303 97" fill="none" xmlns="http://www.w3.org/2000/svg">
<path d="M250.735 48.0441L275.303 20.2616C278.824 16.2821 278.447 10.1997 274.468 6.68126C270.49 3.16116 264.405 3.53618 260.886 7.51575L237.892 33.5199L214.9 7.51575C211.379 3.53535 205.3 3.16116 201.318 6.68126C197.339 10.2022 196.963 16.2821 200.483 20.2616L225.049 48.0441L200.481 75.8265C196.96 79.8061 197.337 85.8884 201.315 89.4069C205.294 92.927 211.377 92.5528 214.897 88.5732L237.89 62.5682L260.883 88.5732C264.405 92.5528 270.484 92.927 274.466 89.4069C278.445 85.8868 278.82 79.8069 275.299 75.8265L250.735 48.0441Z" fill="#00D258"/>
<path d="M136.611 93.6162C111.487 93.6162 91.0449 73.1769 91.0449 48.0503C91.0449 22.9236 111.487 2.48438 136.611 2.48438C161.734 2.48438 182.177 22.9236 182.177 48.0503C182.177 73.1769 161.735 93.6162 136.611 93.6162ZM136.611 21.7298C122.097 21.7298 110.29 33.5369 110.29 48.0503C110.29 62.5628 122.097 74.3707 136.611 74.3707C151.123 74.3707 162.931 62.5636 162.931 48.0503C162.931 33.5369 151.124 21.7298 136.611 21.7298Z" fill="url(#paint0_linear_316_1759)"/>
<path d="M48.0493 93.6162C22.9218 93.6162 2.4834 73.1736 2.4834 48.0503C2.4834 22.9269 22.9218 2.48438 48.0493 2.48438C56.2121 2.48438 64.225 4.67243 71.2214 8.80929C75.7953 11.5148 77.3087 17.4158 74.6049 21.9906C71.901 26.5646 65.9983 28.0788 61.4244 25.3725C57.3943 22.989 52.7682 21.7282 48.051 21.7282C33.5376 21.7282 21.7305 33.5361 21.7305 48.0494C21.7305 62.5628 33.5376 74.3699 48.051 74.3699C52.7682 74.3699 57.3951 73.109 61.4244 70.7256C65.9983 68.0201 71.8994 69.5335 74.6049 74.1083C77.3087 78.6822 75.7986 84.5833 71.2214 87.2888C64.2242 91.4256 56.2113 93.6137 48.0493 93.6137V93.6162Z" fill="#00AAF4"/>
<path d="M292.651 75.3086C293.973 75.3086 295.263 75.6497 296.521 76.331C297.78 77.0057 298.76 77.976 299.462 79.241C300.165 80.5002 300.516 81.814 300.516 83.1841C300.516 84.5402 300.168 85.844 299.473 87.0958C298.784 88.3475 297.815 89.3211 296.563 90.0165C295.318 90.7045 294.014 91.0489 292.651 91.0489C291.289 91.0489 289.981 90.7045 288.73 90.0165C287.485 89.3211 286.514 88.3475 285.819 87.0958C285.124 85.844 284.776 84.5402 284.776 83.1841C284.776 81.814 285.127 80.5002 285.83 79.241C286.539 77.976 287.523 77.0057 288.781 76.331C290.04 75.6497 291.33 75.3086 292.651 75.3086ZM292.651 76.6125C291.545 76.6125 290.467 76.8973 289.418 77.4677C288.375 78.0315 287.558 78.8411 286.966 79.8983C286.375 80.948 286.08 82.0433 286.08 83.1841C286.08 84.3175 286.369 85.4061 286.946 86.4492C287.529 87.4849 288.343 88.2954 289.386 88.879C290.429 89.4569 291.518 89.745 292.651 89.745C293.785 89.745 294.873 89.4569 295.917 88.879C296.959 88.2954 297.769 87.4849 298.346 86.4492C298.923 85.4061 299.212 84.3175 299.212 83.1841C299.212 82.0433 298.917 80.948 298.326 79.8983C297.742 78.8411 296.925 78.0315 295.874 77.4677C294.825 76.8973 293.75 76.6125 292.651 76.6125ZM289.515 87.5337V79.0638H292.426C293.42 79.0638 293.918 79.1441 294.363 79.3039C294.808 79.457 295.02 79.7277 295.285 80.1177C295.549 80.5068 295.681 80.9207 295.681 81.3587C295.681 82.3927 295.494 83.2313 294.141 83.9267L296.629 87.5337H294.96C294.013 86.1363 292.638 84.1817 292.638 84.1817H290.882V87.5337H289.515ZM290.882 83.0136H292.54C293.334 83.0136 293.877 82.7553 294.081 82.4457C294.282 82.1402 294.375 81.8115 294.373 81.4729C294.373 81.2403 294.304 81.0002 294.165 80.8056C294.026 80.6045 293.831 80.4546 293.581 80.3569C293.338 80.2601 293.104 80.2112 292.436 80.2112H290.882V83.0136Z" fill="#00D258"/>
<defs>
<linearGradient id="paint0_linear_316_1759" x1="104.406" y1="15.8354" x2="168.813" y2="80.2406" gradientUnits="userSpaceOnUse">
<stop stop-color="#00AAF4"/>
<stop offset="0.12" stop-color="#00AAF4"/>
<stop offset="0.88" stop-color="#00D258"/>
<stop offset="1" stop-color="#00D258"/>
</linearGradient>
</defs>
</svg>
