<svg width="398" height="95" viewBox="0 0 398 95" fill="none" xmlns="http://www.w3.org/2000/svg">
<g clip-path="url(#clip0_316_6259)">
<path d="M261.052 66.3551C263.258 65.9273 265.302 64.886 266.954 63.3488C268.026 62.1114 268.824 60.6563 269.292 59.0823C269.759 57.5081 269.887 55.8514 269.665 54.223V37.1825C269.887 35.5541 269.759 33.8966 269.292 32.3222C268.824 30.748 268.026 29.2928 266.954 28.0557C265.304 26.5178 263.26 25.4766 261.052 25.0491V16.8848C264.618 17.3034 267.961 18.8461 270.608 21.2928C272.439 22.8481 273.931 24.7693 274.987 26.9351C276.044 29.1009 276.645 31.4646 276.751 33.8764V57.1806C276.645 59.5924 276.044 61.9556 274.987 64.1216C273.931 66.2878 272.439 68.2089 270.608 69.764C267.961 72.2107 264.618 73.7534 261.052 74.1723V66.3551Z" fill="url(#paint0_linear_316_6259)"/>
<path d="M231.493 21.2772C234.14 18.8305 237.486 17.2879 241.053 16.8691V25.0335C238.845 25.4608 236.799 26.5022 235.147 28.0399C234.074 29.2704 233.278 30.7191 232.811 32.2871C232.343 33.8553 232.216 35.5057 232.436 37.128V54.2407C232.216 55.8686 232.343 57.5257 232.811 59.0999C233.278 60.6742 234.074 62.1294 235.147 63.3672C236.799 64.9051 238.845 65.945 241.053 66.3702V74.1749C237.486 73.756 234.14 72.2136 231.493 69.7669C229.664 68.2107 228.174 66.2896 227.117 64.1234C226.06 61.9578 225.461 59.5945 225.355 57.1834V33.7997C225.463 31.3978 226.066 29.0453 227.123 26.89C228.18 24.7346 229.667 22.8234 231.493 21.2772Z" fill="url(#paint1_linear_316_6259)"/>
<path d="M18.0359 74.0883C15.5963 74.1872 13.1642 73.7498 10.9087 72.8071C8.65327 71.8643 6.62832 70.4387 4.97324 68.6281C1.54198 64.6255 -0.230508 59.444 0.0240714 54.1587V37.0312C-0.224816 31.7308 1.54613 26.5354 4.97324 22.509C6.62133 20.6869 8.64412 19.2499 10.9005 18.2989C13.1568 17.3478 15.5923 16.9052 18.0359 17.0027C21.2337 16.9325 24.393 17.7167 27.1934 19.2751C29.714 20.6805 31.7107 22.8765 32.8816 25.5303H33.1822V0H38.1315V73.0852H33.1822V65.5763H32.8816C31.7106 68.2301 29.7138 70.4261 27.1934 71.8317C24.3914 73.3846 21.2323 74.1629 18.0359 74.0883ZM19.0268 69.7793C20.963 69.8932 22.9003 69.5797 24.7038 68.8602C26.5074 68.1407 28.1336 67.0331 29.4686 65.6142C32.0968 62.4018 33.4233 58.3053 33.1822 54.1477V37.0312C33.4335 32.841 32.1074 28.7095 29.4686 25.4629C26.6548 22.7948 22.9377 21.309 19.0754 21.309C15.2131 21.309 11.4969 22.7948 8.68301 25.4629C6.04574 28.7101 4.72076 32.8414 4.97324 37.0312V54.1512C4.7306 58.3087 6.05592 62.4052 8.68301 65.618C10.0025 67.0302 11.6116 68.1339 13.3984 68.853C15.1852 69.5718 17.1061 69.8876 19.0268 69.7793Z" fill="black"/>
<path d="M72.1821 74.0869C69.5568 74.2384 66.93 73.8305 64.4717 72.89C62.0136 71.9489 59.7784 70.4966 57.9138 68.6268C54.3554 64.6483 52.505 59.4108 52.7668 54.0594V37.0298C52.6368 34.3754 53.0288 31.7214 53.9206 29.2205C54.8127 26.7197 56.1869 24.4217 57.9632 22.4586C59.823 20.6007 62.0466 19.1549 64.4928 18.2151C66.9389 17.2754 69.5534 16.8618 72.1674 17.0012C74.7668 16.8557 77.3669 17.2673 79.7978 18.2078C82.2285 19.1482 84.4337 20.5969 86.2694 22.4586C89.7984 26.4531 91.6292 31.6866 91.3653 37.0298V46.5422H57.7148V54.052C57.4887 58.1986 58.8303 62.2771 61.4695 65.4652C62.8415 66.9073 64.5086 68.0307 66.3547 68.7574C68.2005 69.4836 70.1818 69.7964 72.1599 69.6726C75.4219 69.8038 78.6372 68.8536 81.3139 66.9681C83.7492 65.1259 85.5068 62.5186 86.3107 59.5574H91.2598C90.4312 63.7623 88.1291 67.5263 84.7753 70.1608C81.1382 72.8676 76.6994 74.2513 72.1821 74.0869ZM57.7304 42.2442H86.4353V37.0298C86.6594 32.8893 85.3344 28.8152 82.7219 25.613C81.378 24.1758 79.7369 23.0535 77.9158 22.3264C76.0945 21.5994 74.1371 21.2852 72.1821 21.4056C70.2077 21.2824 68.2309 21.5909 66.386 22.3098C64.5409 23.0287 62.8714 24.1414 61.4923 25.5715C58.8375 28.7711 57.4943 32.8721 57.7376 37.0374L57.7304 42.2442Z" fill="black"/>
<path d="M126.546 73.987C122.794 74.0602 119.062 73.3975 115.56 72.0364C112.635 70.9156 110.08 68.9895 108.186 66.4775C106.414 64.0039 105.492 61.0158 105.558 57.9655H118.027C117.99 58.8488 118.187 59.7264 118.596 60.5087C119.005 61.2909 119.612 61.95 120.355 62.4187C122.252 63.5472 124.437 64.0868 126.636 63.9709H130.894C133.323 64.1523 135.747 63.5574 137.821 62.2707C138.556 61.7367 139.149 61.0278 139.546 60.2073C139.943 59.3867 140.133 58.48 140.098 57.5679C140.098 53.7583 137.294 51.4215 131.687 50.5581L124.065 49.5542C112.651 47.8855 106.943 42.379 106.943 33.0331C106.803 30.7798 107.202 28.5253 108.106 26.46C109.011 24.3944 110.394 22.5785 112.14 21.1652C116.592 18.175 121.897 16.7493 127.234 17.1094H130.989C136.237 16.8551 141.426 18.3164 145.786 21.2751C147.548 22.4943 148.982 24.1359 149.958 26.0531C150.933 27.9702 151.421 30.102 151.376 32.2565H138.907C138.924 31.5006 138.74 30.7541 138.374 30.0941C138.008 29.4341 137.474 28.8852 136.827 28.5039C135.015 27.495 132.956 27.0264 130.891 27.1524H127.136C121.727 27.1524 119.022 29.1208 119.022 33.059C119.022 36.4621 121.429 38.5317 126.246 39.2663L133.966 40.4663C138.965 40.8639 143.735 42.7467 147.674 45.8773C149.202 47.3356 150.397 49.1123 151.175 51.0834C151.953 53.0545 152.296 55.1731 152.18 57.2914C152.299 59.6259 151.872 61.9563 150.936 64.0947C149.999 66.2335 148.579 68.1209 146.788 69.6057C142.146 72.8596 136.541 74.4149 130.902 74.014L126.546 73.987Z" fill="black"/>
<path d="M188.302 74.0885C184.11 74.1844 179.955 73.2759 176.178 71.4378C172.826 69.7716 170.024 67.1625 168.11 63.9256C166.133 60.4406 165.142 56.4759 165.241 52.4626V38.6412C165.143 34.6266 166.135 30.6611 168.11 27.1744C170.026 23.9401 172.827 21.334 176.178 19.6692C179.955 17.8311 184.11 16.9228 188.302 17.0185C194.245 16.711 200.092 18.6159 204.732 22.3723C206.778 24.1934 208.413 26.4379 209.522 28.952C210.633 31.4664 211.193 34.1925 211.166 36.9445H199.089C199.06 35.6668 198.756 34.41 198.202 33.2613C197.646 32.1125 196.852 31.0981 195.872 30.2871C193.695 28.6425 191.02 27.8098 188.302 27.9315C185.439 27.775 182.629 28.7646 180.485 30.6847C179.488 31.7201 178.718 32.9546 178.223 34.3088C177.729 35.6628 177.521 37.1058 177.613 38.5458V52.4659C177.524 53.9126 177.734 55.3624 178.228 56.7236C178.722 58.0845 179.491 59.3274 180.485 60.3736C181.539 61.3403 182.773 62.0855 184.115 62.5672C185.457 63.0489 186.88 63.2571 188.302 63.1793C191.037 63.317 193.733 62.4847 195.924 60.8272C196.892 60.0078 197.675 58.9898 198.219 57.8414C198.766 56.6928 199.062 55.4397 199.089 54.1663H211.166C211.193 56.9185 210.633 59.645 209.524 62.1593C208.413 64.6743 206.78 66.918 204.732 68.7385C200.093 72.4952 194.245 74.3992 188.302 74.0885Z" fill="black"/>
<path d="M291.218 91.1112V18.0256H303.293V27.9401H303.488C304.308 24.7292 306.174 21.8889 308.788 19.8775C311.543 17.909 314.862 16.9075 318.238 17.0262C320.678 16.9376 323.106 17.4047 325.342 18.3927C327.577 19.3805 329.565 20.8644 331.153 22.7332C334.59 27.0633 336.327 32.5161 336.034 38.0543V52.9739C336.337 58.5436 334.6 64.0313 331.153 68.3941C329.565 70.2633 327.577 71.7477 325.342 72.7363C323.106 73.7251 320.678 74.1925 318.238 74.1046C314.884 74.2064 311.588 73.2021 308.85 71.2452C306.213 69.2488 304.329 66.4071 303.504 63.1872H303.309L303.606 75.6836V91.1073L291.218 91.1112ZM313.688 63.2701C315.042 63.3532 316.398 63.147 317.668 62.6646C318.939 62.1825 320.092 61.4347 321.056 60.4717C322.932 58.2466 323.875 55.3729 323.686 52.4588V38.6374C323.877 35.7248 322.932 32.8519 321.056 30.6285C319.01 28.8052 316.371 27.8075 313.641 27.8265C310.911 27.8452 308.284 28.8788 306.263 30.7303C304.358 33.0178 303.401 35.9584 303.591 38.9399V52.1558C303.4 55.1376 304.358 58.0789 306.263 60.3664C307.223 61.3578 308.382 62.1296 309.663 62.6306C310.942 63.1316 312.316 63.3497 313.688 63.2701Z" fill="black"/>
<path d="M372.772 74.0883C368.589 74.1874 364.445 73.2585 360.697 71.3815C357.375 69.6812 354.609 67.0517 352.729 63.808C350.791 60.3463 349.817 56.4214 349.91 52.4476V38.625C349.815 34.6512 350.791 30.7258 352.729 27.2646C354.607 24.0201 357.374 21.3908 360.697 19.691C364.445 17.815 368.589 16.8876 372.772 16.9878C376.908 16.8912 381 17.8191 384.696 19.691C388 21.4024 390.744 24.0302 392.614 27.2646C394.556 30.7258 395.527 34.6512 395.435 38.625V48.5394H361.883V52.4476C361.883 60.2559 365.546 64.1611 372.868 64.1638C378.541 64.1638 381.876 62.2602 382.867 58.4529H395.041C394.612 60.7546 393.729 62.9457 392.446 64.897C391.165 66.8482 389.505 68.5202 387.567 69.8133C383.193 72.7512 378.023 74.2446 372.772 74.0883ZM361.883 38.637V40.7421L383.46 40.644V38.5382C383.67 35.385 382.72 32.2647 380.788 29.7757C379.754 28.7074 378.5 27.8807 377.115 27.3535C375.73 26.8262 374.248 26.6114 372.772 26.7238C371.269 26.6091 369.76 26.827 368.347 27.3627C366.937 27.8985 365.66 28.7384 364.605 29.8245C362.65 32.3217 361.68 35.4615 361.883 38.637Z" fill="black"/>
<path d="M258.097 39.3632L260.725 35.107L255.23 32.1836L252.917 36.6064C252.757 36.9175 252.514 37.1781 252.216 37.3599C251.919 37.5417 251.577 37.6381 251.229 37.6381C250.881 37.6381 250.539 37.5417 250.242 37.3599C249.944 37.1781 249.701 36.9175 249.538 36.6064L247.224 32.1836L241.787 35.0811L245.566 41.1931L258.097 39.3632Z" fill="url(#paint2_linear_316_6259)"/>
<path d="M264.925 42.4395L237.892 42.6742V48.1807L246.362 48.1542L241.793 55.5381L247.229 58.4358L249.546 54.0116C249.706 53.6996 249.95 53.4382 250.247 53.2554C250.545 53.0728 250.887 52.9762 251.236 52.9762C251.584 52.9762 251.926 53.0728 252.226 53.2554C252.523 53.4382 252.765 53.6996 252.925 54.0116L255.239 58.4358L260.732 55.5111L257.025 49.525L249.926 48.1394L264.944 48.0893L264.925 42.4395Z" fill="url(#paint3_linear_316_6259)"/>
</g>
<defs>
<linearGradient id="paint0_linear_316_6259" x1="242.135" y1="81.1039" x2="284.091" y2="76.1693" gradientUnits="userSpaceOnUse">
<stop stop-color="#0081B3"/>
<stop offset="0.417" stop-color="#00FFFF"/>
<stop offset="0.995" stop-color="#6FEF2D"/>
</linearGradient>
<linearGradient id="paint1_linear_316_6259" x1="222.623" y1="68.4442" x2="264.577" y2="63.5117" gradientUnits="userSpaceOnUse">
<stop stop-color="#0081B3"/>
<stop offset="0.417" stop-color="#00FFFF"/>
<stop offset="0.995" stop-color="#6FEF2D"/>
</linearGradient>
<linearGradient id="paint2_linear_316_6259" x1="227.847" y1="71.8248" x2="236.545" y2="11.6269" gradientUnits="userSpaceOnUse">
<stop stop-color="#0081B3"/>
<stop offset="0.417" stop-color="#00FFFF"/>
<stop offset="0.995" stop-color="#6FEF2D"/>
</linearGradient>
<linearGradient id="paint3_linear_316_6259" x1="232.751" y1="75.0071" x2="246.433" y2="13.7734" gradientUnits="userSpaceOnUse">
<stop stop-color="#0081B3"/>
<stop offset="0.417" stop-color="#00FFFF"/>
<stop offset="0.995" stop-color="#6FEF2D"/>
</linearGradient>
<clipPath id="clip0_316_6259">
<rect width="398" height="94.6699" fill="white"/>
</clipPath>
</defs>
</svg>
