<svg width="437" height="66" viewBox="0 0 437 66" fill="none" xmlns="http://www.w3.org/2000/svg">
<g clip-path="url(#clip0_316_6269)">
<path d="M211.101 2.9024C211.14 3.30703 211.062 3.70703 210.639 3.82727C210.666 3.24229 210.407 2.75904 211.101 2.9024Z" fill="#858585"/>
<path d="M306.547 0.196268C326.74 -1.38063 344.855 7.52816 346.141 29.5978C347.581 54.2872 330.43 67.0064 306.943 65.3278C267.684 62.5208 266.649 3.31307 306.547 0.196268ZM309.784 11.0635C294.677 12.3999 290.663 28.7909 294.406 41.3344C299.807 59.4317 324.668 58.8098 329.283 40.2731C332.825 26.0509 326.827 9.55593 309.784 11.0635Z" fill="#1E3B90"/>
<path d="M0 64.406V2.90228C8.42323 3.13581 16.9089 2.59476 25.3275 2.89303C42.1763 3.49189 61.2817 8.29657 64.4425 27.5939C66.6922 41.3236 61.4482 53.7908 48.6388 59.7493C33.7554 66.6719 15.947 63.7447 0 64.406ZM17.1101 52.8451C26.583 53.2058 39.2953 52.7457 44.8098 43.6658C48.181 38.1166 48.3706 29.4229 45.1266 23.7881C39.7254 14.4076 26.6686 14.1718 17.1101 14.4631V52.8451Z" fill="#1E3B90"/>
<path d="M437 38.2793H360.93V64.4068H437V38.2793Z" fill="#858585"/>
<path d="M437 2.90234H397.231V29.0299H437V2.90234Z" fill="#1E3B90"/>
<path d="M372.067 12.5351C372.067 17.9386 367.686 22.3202 362.282 22.3202C356.879 22.3202 352.497 17.9386 352.497 12.5351C352.497 7.13156 356.879 2.75 362.282 2.75C367.686 2.75 372.067 7.13156 372.067 12.5351ZM369.672 12.5374C369.672 8.46106 366.368 5.15928 362.294 5.15928C358.22 5.15928 354.916 8.46337 354.916 12.5374C354.916 16.6115 358.22 19.9155 362.294 19.9155C366.368 19.9155 369.672 16.6115 369.672 12.5374Z" fill="#1E3B90"/>
<path d="M363.82 7.7576C365.254 7.95876 366.618 9.18883 366.694 10.6802C366.787 12.4421 365.101 13.2004 365.087 13.6398C365.066 14.301 367.23 16.9762 366.939 17.2352C366.232 17.1149 364.719 17.4618 364.162 17.1242C363.748 16.8722 362.925 14.382 362.74 14.2687C362.433 14.0768 361.383 14.3172 360.925 14.2294V17.2375H358.384V7.7576C360.079 7.92639 362.178 7.52638 363.818 7.7576H363.82ZM363.413 12.0906C364.454 11.0987 363.568 9.69982 362.199 9.59577C360.218 9.44548 361.099 10.9808 360.927 12.3819C361.591 12.3334 362.921 12.56 363.413 12.0906Z" fill="#1E3B90"/>
<path d="M127.632 2.90234V14.4632H94.6833C94.6578 14.4632 94.3364 14.7846 94.3364 14.81V26.6021C94.3364 26.6275 94.6578 26.9489 94.6833 26.9489H122.545V38.2785H94.6833C94.6578 38.2785 94.3364 38.5999 94.3364 38.6254V52.4984C94.3364 52.5238 94.6578 52.8452 94.6833 52.8452H128.788V64.406H78.1512V2.90234H127.632Z" fill="#1E3B90"/>
<path d="M164.811 0.1973C175.609 -0.70907 186.703 1.43662 195.374 8.10492L187.121 16.0588C186.851 16.1258 183.323 14.0634 182.585 13.7304C176.98 11.1986 163.926 8.84019 159.544 14.3547C155.579 19.3467 161.526 22.4381 165.429 23.9479C177.258 28.5237 200.243 30.7804 197.66 48.5401C196.095 59.2963 182.666 64.7484 173.073 65.3404C161.003 66.0872 148.497 63.7704 138.737 56.4038L147.891 47.5436C155.061 52.3968 164.011 55.5067 172.768 54.1703C177.235 53.4882 182.03 51.2939 180.936 45.895C180.449 43.488 177.542 42.0614 175.487 41.1713C165.318 36.7666 145.623 34.533 142.36 22.0427C138.887 8.73614 153.826 1.11754 164.807 0.1973H164.811Z" fill="#1E3B90"/>
<path d="M211.101 2.90234H227.055V29.4923L227.751 29.1478L253.761 2.90234H271.449L247.201 27.2518L275.842 64.406H258.154L237.568 37.1225C236.368 38.1121 235.12 39.1803 233.989 40.2416C231.936 42.1653 229.702 45 227.517 46.6023C227.427 46.6671 227.12 46.6393 226.928 46.8128C226.475 47.222 226.317 48.1954 227.055 47.9896C227.043 48.2186 227.06 48.4521 227.055 48.6833C226.354 48.5538 226.611 49.0371 226.593 49.481C226.396 54.436 226.928 59.4973 226.361 64.406C222.019 64.5332 215.237 64.8777 211.101 64.406C211.11 63.8581 211.256 63.6037 210.639 63.7124C210.59 62.9517 210.65 62.1632 210.639 61.4002C211.339 61.5297 211.082 61.0465 211.101 60.6025C211.339 54.5631 211.304 47.6706 211.101 41.6219C211.087 41.1757 211.337 40.6948 210.639 40.8242C210.639 40.3618 210.639 39.8994 210.639 39.4369C211.339 39.5664 211.082 39.0832 211.101 38.6392C211.508 28.3501 211.446 16.5557 211.101 6.24805C211.087 5.8018 211.337 5.32087 210.639 5.45035C210.645 4.91393 210.613 4.36826 210.639 3.83184C211.062 3.7116 211.14 3.3116 211.101 2.90697V2.90234Z" fill="#1E3B90"/>
<path d="M210.639 5.44519C211.337 5.31571 211.087 5.79895 211.101 6.24289C211.446 16.5505 211.508 28.3449 211.101 38.6341C211.083 39.0803 211.339 39.5613 210.639 39.4318C210.627 28.1114 210.493 16.7609 210.639 5.44288V5.44519Z" fill="#858585"/>
<path d="M210.639 40.8221C211.337 40.6927 211.087 41.1759 211.101 41.6198C211.305 47.6685 211.339 54.5611 211.101 60.6004C211.083 61.0467 211.339 61.5276 210.639 61.3981C210.539 54.5472 210.646 47.6708 210.639 40.8198V40.8221Z" fill="#858585"/>
<path d="M227.055 48.6832C226.935 53.9156 227.145 59.1735 227.055 64.4083C226.824 64.4175 226.593 64.399 226.361 64.4083C226.928 59.4995 226.396 54.4405 226.593 49.4832C226.611 49.037 226.354 48.556 227.055 48.6855V48.6832Z" fill="#858585"/>
<path d="M227.517 46.6016C226.84 46.886 227.085 47.3923 227.055 47.9889C226.317 48.1946 226.472 47.2212 226.928 46.812C227.12 46.6386 227.43 46.6686 227.517 46.6016Z" fill="#858585"/>
<path d="M210.639 63.7121C211.256 63.6035 211.11 63.8578 211.101 64.4058C210.951 64.3896 210.791 64.4266 210.639 64.4058C210.62 64.1769 210.652 63.941 210.639 63.7121Z" fill="#858585"/>
</g>
<defs>
<clipPath id="clip0_316_6269">
<rect width="437" height="65.476" fill="white"/>
</clipPath>
</defs>
</svg>
