<svg width="95" height="15" viewBox="0 0 95 15" fill="none" xmlns="http://www.w3.org/2000/svg">
<g clip-path="url(#clip0_3303_26528)">
<path d="M45.8911 0.630532C45.8997 0.718495 45.8826 0.805452 45.7906 0.83159C45.7966 0.704421 45.7403 0.599368 45.8911 0.630532Z" fill="#858585"/>
<path d="M66.641 0.0423272C71.0306 -0.300477 74.9689 1.63622 75.2483 6.43397C75.5615 11.8012 71.8329 14.5663 66.727 14.2013C58.1926 13.5911 57.9674 0.719893 66.641 0.0423272ZM67.3448 2.40476C64.0605 2.69529 63.1879 6.25854 64.0017 8.9854C65.1758 12.9196 70.5803 12.7844 71.5836 8.75468C72.3536 5.66291 71.0497 2.07704 67.3448 2.40476Z" fill="#1E3B90"/>
<path d="M0 14.0018V0.63144C1.83114 0.682208 3.67585 0.564589 5.50598 0.62943C9.16876 0.759615 13.3221 1.80411 14.0092 5.99919C14.4983 8.9839 13.3583 11.6942 10.5737 12.9895C7.33812 14.4944 3.46675 13.8581 0 14.0018ZM3.71958 11.4886C5.77892 11.567 8.54246 11.467 9.74127 9.49308C10.4741 8.28673 10.5153 6.39678 9.81013 5.17184C8.63595 3.1326 5.79751 3.08133 3.71958 3.14467V11.4886Z" fill="#1E3B90"/>
<path d="M94.9999 8.32227H78.4629V14.0022H94.9999V8.32227Z" fill="#858585"/>
<path d="M94.999 0.630859H86.3535V6.31075H94.999V0.630859Z" fill="#1E3B90"/>
<path d="M80.8853 2.72485C80.8853 3.89953 79.9327 4.85205 78.7581 4.85205C77.5834 4.85205 76.6309 3.89953 76.6309 2.72485C76.6309 1.55017 77.5834 0.597656 78.7581 0.597656C79.9327 0.597656 80.8853 1.55017 80.8853 2.72485ZM80.3645 2.72535C80.3645 1.83919 79.6462 1.12141 78.7606 1.12141C77.8749 1.12141 77.1566 1.83969 77.1566 2.72535C77.1566 3.61102 77.8749 4.3293 78.7606 4.3293C79.6462 4.3293 80.3645 3.61102 80.3645 2.72535Z" fill="#1E3B90"/>
<path d="M79.0919 1.68601C79.4035 1.72974 79.7001 1.99715 79.7167 2.32135C79.7368 2.70437 79.3703 2.86924 79.3673 2.96474C79.3628 3.1085 79.8333 3.69006 79.7699 3.74635C79.6161 3.72022 79.2874 3.79561 79.1663 3.72223C79.0763 3.66744 78.8974 3.12609 78.8571 3.10146C78.7903 3.05974 78.5621 3.11202 78.4626 3.09291V3.74686H77.9102V1.68601C78.2786 1.7227 78.735 1.63575 79.0914 1.68601H79.0919ZM79.0034 2.62797C79.2296 2.41233 79.0371 2.10823 78.7395 2.08561C78.3088 2.05294 78.5003 2.3867 78.4631 2.6913C78.6073 2.68075 78.8963 2.73 79.0034 2.62797Z" fill="#1E3B90"/>
<path d="M27.7468 0.630859V3.14409H20.5841C20.5786 3.14409 20.5088 3.21395 20.5088 3.21948V5.78298C20.5088 5.7885 20.5786 5.85837 20.5841 5.85837H26.641V8.32134H20.5841C20.5786 8.32134 20.5088 8.3912 20.5088 8.39673V11.4126C20.5088 11.4181 20.5786 11.488 20.5841 11.488H27.9982V14.0012H16.9902V0.630859H27.7468Z" fill="#1E3B90"/>
<path d="M35.8285 0.0428914C38.1758 -0.154146 40.5875 0.312309 42.4725 1.76194L40.6785 3.49104C40.6197 3.50562 39.8527 3.05726 39.6923 2.98488C38.4739 2.43448 35.636 1.92178 34.6835 3.12059C33.8214 4.2058 35.1142 4.87784 35.9627 5.20607C38.5342 6.2008 43.531 6.69138 42.9696 10.5522C42.6293 12.8905 39.7099 14.0757 37.6244 14.2044C35.0006 14.3668 32.2818 13.8631 30.1602 12.2617L32.1501 10.3356C33.7088 11.3906 35.6546 12.0667 37.5581 11.7761C38.5292 11.6279 39.5717 11.1509 39.3339 9.97718C39.2279 9.45392 38.5961 9.14379 38.1492 8.95027C35.9386 7.99273 31.657 7.50718 30.9478 4.79189C30.1928 1.89916 33.4404 0.242944 35.8275 0.0428914H35.8285Z" fill="#1E3B90"/>
<path d="M45.8899 0.630859H49.3581V6.41128L49.5094 6.33639L55.1637 0.630859H59.0089L53.7377 5.92422L59.9639 14.0012H56.1187L51.6436 8.07001C51.3828 8.28514 51.1113 8.51737 50.8656 8.74808C50.4192 9.16628 49.9336 9.78253 49.4586 10.1309C49.439 10.1449 49.3722 10.1389 49.3305 10.1766C49.232 10.2656 49.1978 10.4772 49.3581 10.4324C49.3556 10.4822 49.3591 10.533 49.3581 10.5832C49.2058 10.5551 49.2616 10.6601 49.2576 10.7567C49.2149 11.8338 49.3305 12.9341 49.2073 14.0012C48.2634 14.0289 46.7891 14.1038 45.8899 14.0012C45.8919 13.8821 45.9235 13.8268 45.7893 13.8504C45.7788 13.6851 45.7918 13.5137 45.7893 13.3478C45.9416 13.3759 45.8858 13.2709 45.8899 13.1744C45.9416 11.8615 45.9341 10.3631 45.8899 9.04816C45.8868 8.95115 45.9411 8.8466 45.7893 8.87475C45.7893 8.77422 45.7893 8.67369 45.7893 8.57316C45.9416 8.60131 45.8858 8.49626 45.8899 8.39975C45.9783 6.16298 45.9648 3.59898 45.8899 1.35819C45.8868 1.26118 45.9411 1.15663 45.7893 1.18477C45.7908 1.06816 45.7838 0.949537 45.7893 0.832923C45.8813 0.806785 45.8984 0.719828 45.8899 0.631865V0.630859Z" fill="#1E3B90"/>
<path d="M45.79 1.18433C45.9418 1.15618 45.8876 1.26124 45.8906 1.35774C45.9655 3.59854 45.979 6.16253 45.8906 8.39931C45.8865 8.49632 45.9423 8.60087 45.79 8.57272C45.7875 6.11177 45.7584 3.64428 45.79 1.18383V1.18433Z" fill="#858585"/>
<path d="M45.7905 8.87378C45.9423 8.84564 45.888 8.95069 45.8911 9.0472C45.9353 10.3621 45.9428 11.8605 45.8911 13.1734C45.887 13.2704 45.9428 13.375 45.7905 13.3468C45.7689 11.8575 45.792 10.3626 45.7905 8.87328V8.87378Z" fill="#858585"/>
<path d="M49.3578 10.5842C49.3317 11.7217 49.3774 12.8647 49.3578 14.0027C49.3076 14.0047 49.2573 14.0007 49.207 14.0027C49.3302 12.9356 49.2146 11.8358 49.2573 10.7582C49.2613 10.6611 49.2055 10.5566 49.3578 10.5847V10.5842Z" fill="#858585"/>
<path d="M49.4597 10.1309C49.3124 10.1927 49.3657 10.3028 49.3591 10.4324C49.1988 10.4772 49.2325 10.2656 49.3315 10.1766C49.3732 10.1389 49.4406 10.1454 49.4597 10.1309Z" fill="#858585"/>
<path d="M45.7903 13.8511C45.9245 13.8274 45.8929 13.8827 45.8909 14.0019C45.8582 13.9983 45.8235 14.0064 45.7903 14.0019C45.7863 13.9521 45.7934 13.9008 45.7903 13.8511Z" fill="#858585"/>
</g>
<defs>
<clipPath id="clip0_3303_26528">
<rect width="95" height="14.2339" fill="white"/>
</clipPath>
</defs>
</svg>
