<svg width="371" height="129" viewBox="0 0 371 129" fill="none" xmlns="http://www.w3.org/2000/svg">
<path d="M128.944 0H0V128.944H128.944V0Z" fill="#004991"/>
<path d="M16.4504 34.632C21.3361 33.7662 28.077 33.2715 34.7562 33.2715C46.1354 33.2715 53.4948 35.2505 59.3081 39.7651C65.5543 44.4652 69.5742 52.0101 69.5742 62.7709C69.5742 74.3975 65.3069 82.6227 59.5555 87.5084C53.3093 92.8888 43.4761 95.3007 31.9114 95.3007C24.7993 95.3007 19.8518 94.8678 16.5123 94.4348C16.4504 94.373 16.4504 34.632 16.4504 34.632ZM30.1179 84.6017C31.2311 84.8491 33.2719 84.8491 34.818 84.8491C47.0631 84.8491 55.1027 78.17 55.1027 63.4512C55.1027 50.7114 47.9907 44.0323 36.1167 44.0323C32.9627 44.0323 31.2311 44.2797 29.8705 44.4652V84.6017H30.1179Z" fill="white"/>
<path d="M62.4622 94.8684V33.7051H78.2941L90.7866 56.0306C94.3735 62.5242 97.8986 70.0692 100.62 76.9956H100.867C100.001 68.956 99.7539 60.7308 99.7539 51.5779V33.7051H112.246V94.8684H97.8986L84.9733 71.1823C81.3863 64.6887 77.3665 56.6491 74.4598 49.5371H74.2743C74.7072 57.5767 74.7072 66.2967 74.7072 76.3154V94.8066H62.4622V94.8684Z" fill="white"/>
<path d="M180.707 91.2815C177.8 92.6421 172.482 94.1882 165.555 94.1882C151.95 94.1882 138.777 85.4682 138.777 65.4309C138.777 48.6713 149.476 35.9933 167.349 35.9933C174.461 35.9933 178.728 37.5394 180.522 38.4671L179.161 41.8066C176.254 40.4461 172.235 39.3329 167.349 39.3329C152.197 39.3329 142.797 49.166 142.797 65.4309C142.797 80.8299 151.517 90.6631 166.669 90.6631C171.369 90.6631 176.069 89.5499 179.408 88.0038L180.707 91.2815ZM213.051 83.6748C213.051 86.8288 213.051 90.1683 213.732 93.2605H209.959L209.279 87.4472H209.031C207.052 90.6012 202.538 94.1263 196.106 94.1263C188.066 94.1263 184.294 88.313 184.294 82.9945C184.294 73.5942 192.334 68.0283 208.846 68.2757V67.1625C208.846 63.1427 208.166 55.3504 198.58 55.3504C194.993 55.3504 191.468 56.2162 188.561 58.5044L187.201 55.5977C190.973 53.124 195.426 52.2582 199.013 52.2582C210.639 52.2582 212.866 60.9781 212.866 68.0902L213.051 83.6748ZM209.031 71.8626C200.312 71.6152 188.747 72.9758 188.747 82.5616C188.747 88.3749 192.519 91.0341 196.786 91.0341C203.466 91.0341 207.3 87.0143 208.599 82.9945C209.031 82.1287 209.031 81.201 209.031 80.5207V71.8626ZM224.431 65.8638C224.431 60.7308 224.431 56.9583 223.998 53.124H227.77L228.017 60.7308H228.265C231.171 55.3504 236.057 52.2582 243.231 52.2582C253.497 52.2582 260.424 60.7308 260.424 72.5429C260.424 86.8288 251.951 94.1882 242.118 94.1882C236.305 94.1882 231.171 91.5289 228.512 86.8288H228.265V110.02H224.245V65.8638H224.431ZM228.45 77.4285C228.45 78.5417 228.45 79.6549 228.883 80.5826C230.677 86.8288 235.995 90.8486 242.056 90.8486C251.209 90.8486 256.589 83.4892 256.589 72.7903C256.589 63.6374 251.456 55.5977 242.551 55.5977C236.737 55.5977 230.924 59.6176 229.192 66.2967C228.945 67.4099 228.512 68.7704 228.512 69.6362C228.45 69.6362 228.45 77.4285 228.45 77.4285ZM270.875 45.0843C269.082 45.0843 267.721 43.5382 267.721 41.7448C267.721 39.9513 269.082 38.1578 271.061 38.1578C272.854 38.1578 274.215 39.7039 274.215 41.7448C274.215 43.5382 272.854 45.0843 270.875 45.0843ZM269.082 93.2605V53.124H273.101V93.2605H269.082ZM290.232 44.2185V53.124H301.611V56.4636H290.232V82.5616C290.232 87.6946 291.778 90.7868 296.045 90.7868C298.024 90.7868 299.632 90.5394 300.746 90.1065L301.178 93.2605C299.818 93.6934 298.024 94.1263 295.613 94.1263C292.706 94.1263 290.232 93.2605 288.686 91.4671C286.893 89.4881 286.212 85.9011 286.212 81.8813V56.4636H279.533V53.124H286.212V45.7646L290.232 44.2185ZM334.017 83.6748C334.017 86.8288 334.017 90.1683 334.698 93.2605H330.925L330.245 87.4472H329.998C328.019 90.6012 323.504 94.1263 317.072 94.1263C309.033 94.1263 305.26 88.313 305.26 82.9945C305.26 73.5942 313.3 68.0283 329.812 68.2757V67.1625C329.812 63.1427 329.132 55.3504 319.546 55.3504C315.959 55.3504 312.434 56.2162 309.527 58.5044L308.167 55.5977C311.939 53.124 316.392 52.2582 319.979 52.2582C331.606 52.2582 333.832 60.9781 333.832 68.0902V83.7366C333.77 83.6748 334.017 83.6748 334.017 83.6748ZM329.998 71.8626C321.278 71.6152 309.713 72.9758 309.713 82.5616C309.713 88.3749 313.485 91.0341 317.753 91.0341C324.432 91.0341 328.266 87.0143 329.565 82.9945C329.998 82.1287 329.998 81.201 329.998 80.5207V71.8626ZM345.397 33.7051H349.417V93.2605H345.397V33.7051ZM363.641 26.3457C367.908 26.3457 371 29.6853 371 33.7051C371 37.9723 367.66 41.3119 363.393 41.3119C359.126 41.3119 355.786 37.9723 355.786 33.7051C355.848 29.6853 359.188 26.3457 363.641 26.3457ZM363.455 27.7063C360.115 27.7063 357.642 30.3655 357.642 33.7051C357.642 37.0446 360.115 39.9513 363.641 39.9513C366.98 39.9513 369.454 37.292 369.454 33.9525C369.454 30.3655 366.795 27.7063 363.455 27.7063ZM362.094 37.7249H360.734V29.9326C361.6 29.6853 362.28 29.6853 363.393 29.6853C364.754 29.6853 365.372 29.9326 365.867 30.3655C366.3 30.6129 366.733 31.2313 366.733 32.159C366.733 33.0867 366.052 33.7051 365.187 33.9525C365.867 34.1998 366.3 34.8183 366.547 35.9315C366.795 37.0447 366.98 37.4776 367.228 37.9105H365.681C365.434 37.6631 365.249 37.0447 365.001 35.9315C364.754 35.0657 364.321 34.5709 363.208 34.5709H362.094V37.7249ZM362.094 33.4577H362.96C364.073 33.4577 364.939 33.2103 364.939 32.3445C364.939 31.6643 364.506 30.984 363.146 30.984C362.466 30.984 362.28 30.984 362.033 30.984L362.094 33.4577Z" fill="black"/>
</svg>
