<svg width="79" height="20" viewBox="0 0 79 20" fill="none" xmlns="http://www.w3.org/2000/svg">
<g clip-path="url(#clip0_3303_26550)">
<path d="M54.5841 15.9802C51.2061 15.9802 49.9043 12.8707 49.9043 9.71064C49.9043 6.55061 51.2061 3.44318 54.5841 3.44318C57.9587 3.44318 59.264 6.55061 59.264 9.71064C59.264 12.8707 57.9587 15.9802 54.5841 15.9802ZM54.5841 0.26446C49.2648 0.26446 46.1934 4.25014 46.1934 9.71064C46.1934 15.1732 49.2648 19.1582 54.5841 19.1582C59.9007 19.1582 62.9714 15.1732 62.9714 9.71064C62.9714 4.25014 59.9007 0.26446 54.5841 0.26446Z" fill="#003F98"/>
<path d="M0.263672 0.794734H13.5924V3.97414H3.97114V7.92868H12.9432V11.0278H3.97114V15.4509H13.5924V18.6289H0.263672V0.794734Z" fill="#003F98"/>
<path d="M22.2443 10.0992H18.8877V3.97219V3.96873H22.2443C24.5773 3.96873 26.1289 4.98401 26.1289 7.03464C26.1289 9.08457 24.5773 10.0992 22.2443 10.0992ZM15.1816 18.627H18.8877V13.2758H22.2443C26.7871 13.2758 29.8357 11.0445 29.8357 7.03464C29.8357 3.02404 26.7871 0.793472 22.2443 0.793472H15.1816V18.627Z" fill="#003F98"/>
<path d="M68.1795 0.794734H64.373V18.6289H68.0078V11.405C68.0078 9.42772 67.9373 7.67399 67.8701 6.12305C68.2985 7.01583 69.6003 9.69832 70.2003 10.706L74.9314 18.6289H78.7378V0.794734H75.103V7.83802C75.103 9.81321 75.1757 11.751 75.2408 13.2985C74.8124 12.4057 73.514 9.72462 72.905 8.71834L68.1795 0.794734Z" fill="#003F98"/>
<path d="M34.0472 12.7282C34.0472 15.1249 36.0411 16.0564 38.1616 16.0564C39.5458 16.0564 41.7937 15.655 41.7937 13.8141C41.7937 11.87 39.0475 11.5025 36.3975 10.7973C33.6188 10.0616 30.9426 9.01935 30.9426 5.71467C30.9426 2.03074 34.4272 0.264552 37.682 0.264552C41.44 0.264552 44.8962 1.90478 44.8962 6.06694H41.1881C41.0621 3.89796 39.397 3.34153 37.5048 3.34153C36.2425 3.34153 34.6528 3.87167 34.6528 5.38732C34.6528 6.77424 35.5601 6.9881 40.0731 8.1501C41.3867 8.47814 45.5025 9.27265 45.5025 13.358C45.5025 16.6647 42.9037 19.1348 38.0066 19.1348C34.023 19.1348 30.2892 17.1686 30.3384 12.7282H34.0472Z" fill="#003F98"/>
</g>
<defs>
<clipPath id="clip0_3303_26550">
<rect width="79" height="19.4205" fill="white"/>
</clipPath>
</defs>
</svg>
