<svg width="300" height="74" viewBox="0 0 300 74" fill="none" xmlns="http://www.w3.org/2000/svg">
<path d="M207.281 60.6796C194.453 60.6796 189.51 48.8713 189.51 36.8712C189.51 24.8711 194.453 13.0707 207.281 13.0707C220.096 13.0707 225.053 24.8711 225.053 36.8712C225.053 48.8713 220.096 60.6796 207.281 60.6796ZM207.281 0.999652C187.081 0.999652 175.418 16.1351 175.418 36.8712C175.418 57.6152 187.081 72.748 207.281 72.748C227.471 72.748 239.132 57.6152 239.132 36.8712C239.132 16.1351 227.471 0.999652 207.281 0.999652Z" fill="#003F98"/>
<path d="M1 3.01357H51.6155V15.0873H15.079V30.1045H49.1503V41.8733H15.079V58.6698H51.6155V70.7383H1V3.01357Z" fill="#003F98"/>
<path d="M84.472 38.3523H71.7255V15.0853V15.0722H84.472C93.3315 15.0722 99.2238 18.9277 99.2238 26.7149C99.2238 34.4994 93.3315 38.3523 84.472 38.3523ZM57.6518 70.7363H71.7255V50.4155H84.472C101.723 50.4155 113.3 41.9424 113.3 26.7149C113.3 11.4848 101.723 3.01425 84.472 3.01425H57.6518V70.7363Z" fill="#003F98"/>
<path d="M258.905 3.01357H244.45V70.7383H258.253V43.3057C258.253 35.7971 257.985 29.1373 257.73 23.2477C259.357 26.638 264.301 36.8247 266.579 40.6513L284.545 70.7383H299V3.01357H285.197V29.7602C285.197 37.261 285.473 44.6198 285.72 50.4963C284.093 47.106 279.163 36.9245 276.85 33.1032L258.905 3.01357Z" fill="#003F98"/>
<path d="M129.289 48.3295C129.289 57.4307 136.861 60.9682 144.913 60.9682C150.17 60.9682 158.706 59.4439 158.706 52.453C158.706 45.0706 148.277 43.675 138.214 40.9969C127.662 38.2032 117.499 34.2452 117.499 21.6958C117.499 7.7062 130.732 0.999161 143.092 0.999161C157.363 0.999161 170.488 7.22787 170.488 23.0335H156.406C155.928 14.7969 149.605 12.6839 142.419 12.6839C137.626 12.6839 131.589 14.6971 131.589 20.4527C131.589 25.7195 135.034 26.5316 152.172 30.9443C157.161 32.19 172.79 35.2071 172.79 50.7211C172.79 63.2783 162.921 72.6582 144.325 72.6582C129.197 72.6582 115.018 65.1916 115.205 48.3295H129.289Z" fill="#003F98"/>
</svg>
