<svg width="346" height="68" viewBox="0 0 346 68" fill="none" xmlns="http://www.w3.org/2000/svg">
<path d="M46.5681 50.6094H0L10.7957 0.000457959H56.3086L54.3606 10.2298H29.7441L27.8255 18.6061H49.7562L47.1 29.1112H25.6551L23.0387 39.8647H49.0219" fill="#9A2A42"/>
<path d="M84.3035 11.788C79.4404 11.8763 76.1693 13.7846 74.739 17.4548C72.5759 23.0123 70.3124 31.4123 70.3124 35.5188C70.3124 36.9612 69.3121 44.1019 77.7773 44.1019C86.602 44.1019 89.2509 34.3025 90.6788 26.843C92.2727 18.5186 94.0432 11.6103 84.3035 11.788ZM63.7599 51.2818C51.2567 48.3136 52.2483 42.5872 52.2483 37.1116C52.2483 29.5478 55.0826 14.4457 61.1031 8.42369C64.8718 4.65658 71.6815 3.3161 85.1882 3.11222C96.877 2.93455 98.5955 4.32212 103.443 5.91891C111.045 8.42369 110.434 17.0971 110.434 17.0971L108.389 29.144H92.9808L124.327 67.1318H102.544L89.6165 50.7499C89.6165 50.7499 74.2086 53.7619 63.7599 51.2818Z" fill="#9A2A42"/>
<path d="M129.439 51.9893L112.083 31.7995L117.812 5.70804H136.522C136.522 5.70804 130.324 34.6334 129.53 37.7346C128.476 41.8531 132.84 43.6658 135.992 43.6658C140.584 43.6658 142.733 41.5328 143.196 40.5675C145.023 36.7591 151.754 5.70804 151.754 5.70804L170.347 5.76631C170.347 5.76631 164.774 41.4969 159.546 45.7922C154.588 49.8645 151.399 51.1021 144.846 51.9893" fill="#9A2A42"/>
<path d="M186.387 50.6953H167.76L177.748 5.70834H196.635" fill="#9A2A42"/>
<path d="M212.986 50.7471L193.984 50.6039L203.744 5.52193H244.414L241.953 14.6923H221.005L219.276 22.4489H237.13L235.618 31.5736H217.065" fill="#9A2A42"/>
<path d="M251.927 31.0567H263.601L261.689 15.7562L251.927 31.0567ZM285.241 50.583H265.487L264.558 40.8808H244.794L238.418 50.583H225.669L257.544 5.36668H279.877" fill="#9A2A42"/>
<path d="M337.691 50.583H314.667L306.746 36.9234L293.213 50.583H274.772L299.568 28.1617L284.541 5.49329H308.611L316.065 17.628L327.768 5.49329H345.96L321.753 26.7639" fill="#9A2A42"/>
</svg>
