<svg width="409" height="149" viewBox="0 0 409 149" fill="none" xmlns="http://www.w3.org/2000/svg">
<path d="M122.118 82.3789H130.351V83.7249H123.979V88.2902H129.731V89.6357H123.979V95.7924H122.118V82.3789Z" fill="#444A55"/>
<path d="M149.078 82.3789H147.22V95.7924H149.078V82.3789Z" fill="#444A55"/>
<path d="M167.426 82.3789H169.743L177.674 93.7218L177.709 93.761V82.3789H179.426V95.7924H177.06L169.172 84.5891L169.144 84.5543V95.7924H167.426V82.3789Z" fill="#444A55"/>
<path d="M201.758 82.375H204.039L209.484 95.791H207.484L205.319 90.1364H200.002L197.508 95.791H195.458L201.758 82.375ZM204.897 88.8957L202.782 83.6996L200.462 88.8957H204.897Z" fill="#444A55"/>
<path d="M225.52 82.3789H227.826L235.752 93.7218L235.797 93.761V82.3789H237.509V95.7924H235.153L227.271 84.5891L227.226 84.5543V95.7924H225.52V82.3789Z" fill="#444A55"/>
<path d="M265.875 95.607C264.83 95.8375 263.691 96.0128 262.395 96.0128C258.349 96.0128 255.194 93.8428 255.194 89.0912C255.194 84.9292 257.953 82.1543 262.395 82.1543C263.584 82.1543 264.686 82.2978 265.875 82.5129L266.042 84.065C264.852 83.7352 263.759 83.4948 262.395 83.4948C259.074 83.4948 257.045 85.6493 257.045 89.0917C257.045 91.953 258.469 94.6678 262.395 94.6678C263.759 94.6678 264.976 94.4269 266.06 94.0629L265.875 95.607Z" fill="#444A55"/>
<path d="M285.573 82.377H283.72V95.7904H285.573V82.377Z" fill="#444A55"/>
<path d="M303.926 82.377H312.594V83.7229H305.772V88.2883H311.895V89.6338H305.772V94.445H312.594V95.7904H303.926V82.377Z" fill="#444A55"/>
<path d="M330.486 82.377H335.638C337.85 82.377 339.559 83.2774 339.559 85.7722C339.559 88.9528 336.484 89.4291 335.473 89.4291L339.806 95.7904H337.625L333.159 88.4343C333.557 88.5287 334.007 88.5893 334.452 88.5893C336.203 88.5893 337.714 87.7489 337.714 86.0577C337.714 83.9424 336.279 83.7229 335.439 83.7229H332.329V95.7904H330.486V82.377Z" fill="#444A55"/>
<path d="M360.944 82.375H363.218L368.679 95.791H366.684L364.508 90.1364H359.197L356.708 95.791H354.647L360.944 82.375ZM364.088 88.8957L361.972 83.6996L359.659 88.8957H364.088Z" fill="#444A55"/>
<path d="M125.901 103.959H121.338V130.804H125.901V103.959Z" fill="#444A55"/>
<path d="M130.299 103.959H135.854L145.731 124.163H145.785V103.959H149.791V130.804H144.335L134.383 110.925H134.315V130.804H130.299V103.959Z" fill="#444A55"/>
<path d="M154.217 103.959H164.403C170.505 103.959 173.41 109.347 173.651 116.197C173.975 125.849 169.363 130.802 163.743 130.802H154.217V103.959ZM158.524 126.535H162.293C167.309 126.535 169.515 122.139 169.335 116.108C169.209 111.847 167.309 108.232 163.618 108.232H158.524V126.535Z" fill="#444A55"/>
<path d="M191.615 108.231H181.458V115.223H190.311V119.169H181.458V126.535H191.615V130.802H176.897V103.957H191.615V108.231Z" fill="#444A55"/>
<path d="M200.415 115.587C200.986 115.665 201.748 115.797 202.403 115.797C205.428 115.797 206.083 113.012 206.083 111.397C206.083 108.506 204.873 107.905 203.248 107.905H199.622V130.804H195.316V103.959H204.818C209.169 103.959 210.41 108.179 210.41 111.561C210.41 116.637 207.384 119.734 203.402 119.734C202.711 119.734 201.931 119.572 201.256 119.488L200.415 115.587Z" fill="#444A55"/>
<path d="M227.912 108.231H217.771V115.223H226.614V119.169H217.771V126.535H227.912V130.802H213.216V103.957H227.912V108.231Z" fill="#444A55"/>
<path d="M231.808 103.959H237.36L247.226 124.163H247.281V103.959H251.297V130.804H245.836L235.881 110.925H235.81V130.804H231.808V103.959Z" fill="#444A55"/>
<path d="M255.702 103.959H265.898C272.011 103.959 274.906 109.347 275.146 116.197C275.466 125.849 270.856 130.802 265.249 130.802H255.701L255.702 103.959ZM260.018 126.535H263.788C268.799 126.535 271.005 122.139 270.83 116.108C270.699 111.847 268.798 108.232 265.118 108.232H260.018V126.535Z" fill="#444A55"/>
<path d="M293.099 108.231H282.963V115.223H291.806V119.169H282.963V126.535H293.099V130.802H278.403V103.957H293.099V108.231Z" fill="#444A55"/>
<path d="M296.987 103.959H302.546L312.413 124.163H312.478V103.959H316.489V130.804H311.018L301.065 110.925H301.008V130.804H296.987V103.959Z" fill="#444A55"/>
<path d="M336.685 130.554C334.936 130.955 333.175 131.28 331.274 131.28C325.094 131.28 319.837 126.968 319.837 117.356C319.837 107.736 325.094 103.469 331.274 103.469C333.004 103.469 334.79 103.804 336.507 104.244L336.836 108.869C335.295 108.265 333.656 107.736 331.274 107.736C327.258 107.736 324.402 111.286 324.402 117.357C324.402 123.435 327.258 127.024 331.274 127.024C333.624 127.024 335.381 126.49 337.075 125.849L336.685 130.554Z" fill="#444A55"/>
<path d="M345.006 103.959H340.457V130.804H345.006V103.959Z" fill="#444A55"/>
<path d="M356.905 103.959H362.276L370.543 130.802H365.721L363.028 121.425H355.239L352.224 130.802H347.274L356.905 103.959ZM362.035 117.158L359.436 108.177L356.454 117.158H362.035Z" fill="#444A55"/>
<path d="M107.38 17.8965H23.8401V131.019H107.38V17.8965Z" fill="#ED3424"/>
<path d="M34.0784 28.6151C34.0784 28.6151 34.806 27.9292 36.9476 28.2908C38.2275 28.5054 40.5837 30.3574 42.8952 31.5589C45.0443 32.6585 46.8194 33.631 47.39 34.3338C48.0129 35.0812 48.8299 35.3167 49.7512 35.7304C51.6862 36.6005 53.5706 38.3324 54.0732 38.7208C54.992 39.442 57.1724 41.7614 57.0179 43.1436C57.0179 43.1436 55.7718 41.222 54.7561 40.5416C53.8164 39.9198 52.4684 38.9706 50.371 37.6843C49.5048 37.1553 48.6252 36.2732 46.7717 35.4264C44.9837 34.598 45.4053 34.5364 44.1776 33.3951C43.6486 32.9093 42.8137 32.95 41.9391 32.1345C38.1883 28.6256 34.0784 28.6151 34.0784 28.6151Z" fill="white"/>
<path d="M32.272 31.4517C32.272 31.4517 35.8271 31.1706 37.7433 32.7137C38.8687 33.6157 38.6675 33.1324 39.6673 33.7309C40.6935 34.3473 43.1852 36.5669 46.0207 38.3787C46.5184 38.6981 48.5443 39.52 49.8689 40.5422C50.5915 41.0801 52.8817 42.8288 52.9368 43.0265C53.2715 44.2791 56.6568 45.5565 56.0151 45.6405C55.2011 45.7453 54.0727 45.3002 52.6641 44.597C52.5072 44.5304 50.3238 43.5922 46.57 40.1483C43.1589 37.0382 42.3866 38.1587 41.3764 37.0228C37.9866 33.2526 32.272 31.4517 32.272 31.4517Z" fill="white"/>
<path d="M39.9996 43.7663C40.2092 43.815 37.3896 46.1955 35.1382 45.7927C33.6721 45.5206 31.7063 43.4316 34.2065 41.4995C36.2458 39.9167 40.5261 39.0649 42.1641 39.7781C42.8346 40.0756 43.9834 40.756 43.5334 41.9431C43.2582 42.6891 43.2955 42.2624 42.8738 42.5465C42.6881 42.6617 40.9577 42.7993 40.6646 42.5848C40.4317 42.4368 42.5649 42.2629 42.3846 41.7027C41.5179 39.1245 36.1936 41.9148 35.3687 42.7512C34.6227 43.4986 34.8114 44.2173 35.4735 44.4373C36.288 44.7055 36.9838 44.9151 37.853 44.4373C39.1096 43.7455 39.4761 43.672 39.9996 43.7663Z" fill="white"/>
<path d="M39.6748 46.792C39.345 46.5128 38.8369 46.2983 38.8369 46.2983C38.8369 46.2983 40.981 45.7708 41.5487 45.7708C42.0826 45.7708 42.3707 45.666 44.4989 45.666C45.4937 45.666 47.1561 48.3008 47.9046 49.2629C49.9071 51.8505 51.711 51.928 54.9622 52.4674C56.326 52.6819 57.2866 53.572 58.6216 54.1963C59.7709 54.7133 60.5537 55.3505 60.9932 55.801C61.4541 56.2684 59.4406 55.9649 57.5404 54.9333C56.1532 54.1963 55.6138 53.9762 53.572 53.6519C52.7004 53.5143 50.7817 54.0537 49.1949 52.9173C47.6006 51.7919 45.1034 48.9554 44.5406 47.5876C44.19 46.7537 43.0745 47.2628 41.8393 47.5156C41.4315 47.6045 40.1198 47.1481 39.6748 46.792Z" fill="white"/>
<path d="M59.2087 58.3471C59.0384 58.1782 60.9679 57.1169 58.8581 57.6508C57.0726 58.1271 55.3685 61.7463 58.6907 64.105C60.3819 65.3119 60.659 66.6092 60.9342 67.1898C61.6538 68.7399 60.9133 69.321 61.0623 69.991C61.2088 70.6664 61.8376 71.7502 61.6225 71.0851C61.2798 70.0133 62.0596 69.6964 62.2508 66.6757C62.2821 65.9113 61.6042 65.2175 59.243 62.5608C58.8164 62.0766 58.2775 60.7311 58.8869 59.6042C58.7796 59.8182 59.1541 58.2935 59.2087 58.3471Z" fill="white"/>
<path d="M71.384 62.6663C67.4782 63.8404 67.4211 67.0787 68.1432 68.9556C68.4889 69.8719 69.4261 70.1585 69.7351 70.1322C70.3787 70.0994 70.6748 69.5615 69.8289 68.6715C69.1485 67.9737 68.6459 65.6205 70.1508 64.1166C70.4359 63.8404 72.2159 62.415 71.384 62.6663Z" fill="white"/>
<path d="M89.7527 68.7345C88.9282 68.5919 86.3103 68.1797 84.8864 70.5632C83.4361 73.0068 85.1431 75.5353 86.8392 76.1115C89.1686 76.9255 91.7786 74.4516 91.0301 74.6299C87.7342 75.4151 86.0222 74.0697 86.3629 71.3589C86.658 68.9649 90.6527 68.8875 89.7527 68.7345Z" fill="white"/>
<path d="M90.9933 69.8132C90.6789 69.5043 90.2657 69.4571 90.3938 69.4347C92.7396 68.8864 93.7001 71.258 93.3152 72.2528C92.6114 74.1898 91.4204 73.8238 91.4855 73.7567C92.1396 72.8235 92.1739 72.2255 91.8153 70.9019C91.7184 70.5676 91.3549 70.1862 90.9933 69.8132Z" fill="white"/>
<path d="M72.9887 58.6619C71.6984 55.7285 66.9885 55.217 67.727 55.1683C69.5806 55.0297 71.5697 54.8042 74.1042 57.8384C75.7586 59.825 78.7689 63.2689 82.0857 64.8563C84.4051 65.9768 87.1824 64.4192 88.4127 65.6599C90.1093 67.3406 88.8239 66.5499 87.7844 66.3354C86.8134 66.1327 83.1719 66.5211 81.3342 65.8744C78.0984 64.7465 74.0277 61.0384 72.9887 58.6619Z" fill="white"/>
<path d="M75.0411 55.9914C74.2951 56.206 76.7555 54.6564 78.4363 54.2372C80.7006 53.6834 82.8318 54.6181 85.1139 53.4206C88.0353 51.8815 87.5903 50.8653 90.6503 51.3103C91.3153 51.3997 88.7446 52.0474 88.0348 53.0183C87.87 53.2488 87.3882 53.3203 86.4435 53.9541C85.7025 54.4512 82.7548 56.1831 81.4148 55.6765C80.5461 55.3472 78.4964 54.9911 75.0411 55.9914Z" fill="white"/>
<path d="M72.0645 53.7196C71.0806 54.0708 73.8868 50.6269 79.6665 50.4302C82.3574 50.3423 83.8285 46.7668 89.1717 45.0563C90.4362 44.6674 91.7767 43.2275 91.6327 43.4684C90.9885 44.6162 90.8524 44.5362 90.237 45.3582C88.9675 47.0558 86.1246 47.3965 85.3131 48.1892C84.2581 49.192 81.5175 51.4682 80.3866 51.6709C78.4362 52.3895 79.2587 52.1377 77.1012 52.5882C73.9543 53.2691 73.4914 53.213 72.0645 53.7196Z" fill="white"/>
<path d="M68.6587 52.3887C68.6587 52.3887 70.6141 47.869 77.9488 45.7433C85.7708 43.4845 88.8149 38.5511 89.404 37.7067C91.6603 34.4044 95.9614 32.4426 97.7648 32.4426C98.8903 32.4426 99.9114 32.373 99.9114 32.373C99.9114 32.373 95.2204 33.2119 88.5398 40.6987C84.3355 45.4354 85.3566 43.6871 82.6498 45.4945C80.7947 46.7307 72.9857 48.8852 68.6587 52.3887Z" fill="white"/>
<path d="M83.5587 93.5513C89.6871 91.5647 100.904 96.9808 99.459 100.326C99.1421 101.078 98.488 100.771 98.3231 100.282C97.7028 98.368 90.1375 93.6904 83.4728 94.1275C82.7789 94.2064 80.9542 94.646 83.5587 93.5513Z" fill="white"/>
<path d="M81.4227 131.77C81.2915 130.579 81.5667 128.678 81.5955 127.392C81.6611 125.233 81.5667 121.152 81.5667 120.822C81.5667 119.176 86.6188 119.851 86.1529 120.937C86.2076 120.811 86.2234 121.01 85.998 121.031C85.7576 121.07 85.2942 120.981 85.1864 120.981C84.8149 120.981 85.3409 121.031 84.286 121.101C83.7153 121.125 83.8255 121.727 83.8568 123.031C83.8752 123.782 83.6865 126.342 83.6919 126.698C83.7679 128.937 83.6711 131.023 83.6711 131.808C83.6716 132.434 81.5121 132.56 81.4227 131.77Z" fill="white"/>
<path d="M76.6088 120.252C76.6088 120.252 76.3863 119.313 77.4308 119.347C77.7869 119.352 77.7526 119.391 77.7526 119.391C77.7526 119.391 79.0226 118.742 79.0484 119.698C79.0539 120.116 78.9933 130.86 79.0484 131.954C79.0614 132.271 76.4568 132.781 76.3863 131.723C76.2944 130.355 76.6088 126.954 76.5592 126.399C76.5358 125.982 76.4494 124.493 76.6093 124.328C76.7057 124.247 76.6088 120.252 76.6088 120.252Z" fill="white"/>
<path d="M67.6774 119.733C68.4835 119.113 69.1485 118.673 71.4729 119.008C73.9309 119.349 73.5356 120.744 73.549 120.819C73.5857 121.014 73.4208 123.605 73.4313 123.88C73.4914 124.665 73.5753 124.419 73.549 125.024C73.549 125.095 73.3006 131.267 73.329 131.482C73.4521 132.576 70.7691 132.955 70.944 131.806C70.9599 131.707 70.8943 127.259 70.9599 123.594C71.0199 120.924 71.308 120.204 70.0594 120.084C69.1485 119.998 67.2741 120.063 67.6774 119.733Z" fill="white"/>
<path d="M63.0881 43.0279C61.0543 41.6615 59.4128 43.7649 58.7845 44.6142C58.3107 45.2683 57.9754 47.3573 59.075 48.2736C59.6899 48.7852 59.9204 48.5985 60.4861 48.1902C61.6746 47.3354 61.4466 50.1128 61.5728 50.5474C61.9497 51.7558 64.5046 51.7503 64.968 51.4935C65.4284 51.2517 66.6641 50.1178 66.5672 49.7448C66.4888 49.483 66.0621 50.233 65.481 50.5469C64.6774 50.9696 62.9316 49.6673 62.7116 48.6973C62.5726 48.0586 63.6488 44.2417 61.6488 45.0374C61.39 45.1317 60.573 46.5467 60.128 46.3401C59.7927 46.1578 59.9318 45.844 60.0311 45.5822C60.936 43.1431 63.4179 43.2583 63.0881 43.0279Z" fill="white"/>
<path d="M66.0359 42.4727C69.8314 42.4568 69.6298 46.301 69.6194 46.384C69.5359 46.7922 68.5903 48.5986 67.3784 48.2018C67.1191 48.1129 68.5093 47.2581 68.5903 46.1217C68.6717 44.9228 66.7476 42.8561 64.5067 43.5003C64.1774 43.5877 65.2323 42.4831 66.0359 42.4727Z" fill="white"/>
<path d="M71.7427 73.1522C73.1696 72.9531 75.1771 72.7281 73.481 72.4504C64.9761 70.9704 60.6124 74.0264 59.8058 74.7276C57.9443 76.382 58.9445 78.0682 61.1537 77.6674C64.0304 77.1573 67.3655 76.843 70.1116 76.9631C72.3918 77.0471 73.0489 77.2567 73.1825 77.2616C76.1327 77.4479 74.4177 78.4084 72.9128 78.2485C67.3005 77.6937 62.0805 78.8982 60.1877 81.1227C57.8708 83.8743 59.7978 85.5182 63.7582 83.9522C66.6692 82.793 72.8994 82.4394 76.0671 82.4394C77.0277 82.4394 79.3551 82.7801 79.1822 83.5728C79.0749 84.0675 77.3838 84.0675 76.5852 83.9522C71.5301 83.2301 68.1115 85.0494 66.8445 85.7144C64.8132 86.7534 65.1588 89.1096 67.7579 88.9944C78.8519 88.5101 84.6684 88.8951 85.6319 89.0495C86.5453 89.1851 88.4823 90.0861 89.5323 90.395C91.3724 90.9443 84.6525 85.9185 69.8831 87.6539C66.2709 88.0646 66.8992 85.8793 68.7761 85.4939C75.3807 84.1385 79.1633 85.2088 79.5219 85.2088C81.2732 85.2088 81.7416 82.5074 78.6473 81.5886C77.0267 81.1123 77.4459 81.0338 76.231 81.1227C74.2652 81.2777 68.7259 81.0234 63.6788 82.644C62.1421 83.1442 60.4485 83.5604 61.4617 81.9899C63.9351 78.1993 74.4852 79.2438 75.5188 79.2438C76.4168 79.2438 78.1968 78.393 75.9613 76.757C73.7517 75.1314 71.7412 75.273 61.1001 76.7834C60.1867 76.9035 59.7442 76.0637 61.1522 74.9064C63.4597 73.0042 70.4598 73.3564 71.7427 73.1522Z" fill="white"/>
<path d="M68.0776 91.6762C67.1404 91.5217 64.7664 91.0111 65.041 90.9456C68.4124 90.2204 72.5879 91.5868 75.2212 92.9168C77.787 94.2022 78.0855 95.2025 76.1743 96.0925C75.169 96.5584 74.3575 96.9488 73.5827 97.1137C73.0751 97.2075 70.0121 97.7733 72.496 98.5138C76.7181 99.7674 76.8021 99.8488 77.5585 100.228C80.2782 101.592 79.5481 103.613 78.0979 103.995C76.3725 104.441 75.2366 104.919 76.2677 106.255C76.8751 107.05 77.4433 108.085 76.6868 109.556C76.1917 110.506 76.0874 111.247 76.1629 110.48C76.2756 109.242 77.1393 107.975 75.1973 106.569C73.2524 105.194 73.904 103.108 76.0531 103.245C77.6842 103.355 77.8515 101.624 77.0266 101.258C75.6394 100.658 73.4039 99.6343 72.1865 99.373C70.7547 99.0641 69.3461 97.6531 70.8073 96.6582C72.1682 95.7578 73.5663 95.6371 74.65 95.2969C75.7467 94.9383 76.3725 94.5484 75.5192 93.9882C73.1769 92.4351 71.0015 92.1654 68.0776 91.6762Z" fill="white"/>
<path d="M74.3654 111.932C72.3942 113.628 69.8393 112.982 69.5041 113.443C69.297 113.723 70.3002 114.152 71.4858 113.969C73.5092 113.663 74.7737 113.903 75.7919 113.744C76.3074 113.668 76.8597 113.398 77.9593 113.692C78.3437 113.503 78.459 113.042 78.4461 112.712C78.8916 111.257 74.6346 111.702 74.3654 111.932Z" fill="white"/>
<path d="M66.2712 117.765C66.2712 117.765 66.9884 116.118 68.3602 116.058C69.4881 116.008 76.8969 115.513 77.7134 115.717C79.2973 116.118 82.9702 115.579 84.2893 115.717C85.3651 115.838 87.9334 116.529 88.3128 116.623C89.6767 116.958 88.0277 117.188 87.462 117.188C86.8183 117.188 85.5434 117.599 84.9832 117.529C84.8342 117.519 80.4491 116.984 78.6482 117.134C77.9568 117.194 77.8575 117.799 76.4703 117.644C74.6793 117.441 66.2712 117.765 66.2712 117.765Z" fill="white"/>
</svg>
