<svg width="384" height="106" viewBox="0 0 384 106" fill="none" xmlns="http://www.w3.org/2000/svg">
<g clip-path="url(#clip0_316_1815)">
<path d="M360.359 75.3211C358.402 75.3211 356.759 74.8784 355.37 74.0563C353.981 73.2341 352.844 72.0958 351.959 70.7045C351.076 69.3131 350.381 67.732 350.001 66.0245C349.623 64.2537 349.37 62.4829 349.37 60.7754C349.37 58.8781 349.56 57.1073 349.939 55.3365C350.317 53.5657 350.95 52.0479 351.77 50.7199C352.591 49.3918 353.728 48.3167 355.181 47.4945C356.57 46.6723 358.338 46.2928 360.359 46.2928C362.38 46.2928 364.085 46.6723 365.474 47.4945C366.801 48.3167 367.937 49.3918 368.758 50.7199C369.58 52.0479 370.211 53.5657 370.59 55.2733C370.969 56.9808 371.096 58.8149 371.096 60.7122C371.096 62.6094 370.906 64.3802 370.59 66.151C370.211 67.9217 369.643 69.5029 368.822 70.8309C368.001 72.2223 366.927 73.2974 365.538 74.1195C364.149 74.9417 362.443 75.3211 360.359 75.3211ZM357.327 84.6178C360.296 84.6178 363.012 84.0486 365.348 82.9735C367.748 81.8984 369.643 80.1276 371.096 77.6611H371.285V83.4794H383.158V20.6797H370.654V43.5734H370.464C369.074 41.36 367.116 39.6524 364.717 38.5141C362.317 37.3757 359.728 36.8065 357.012 36.8065C353.665 36.8065 350.76 37.4389 348.233 38.7671C345.708 40.0951 343.624 41.8027 341.982 44.0161C340.339 46.1663 339.076 48.6961 338.192 51.542C337.371 54.3879 336.929 57.3602 336.929 60.396C336.929 63.558 337.371 66.5936 338.192 69.5661C339.013 72.4752 340.276 75.0682 341.982 77.3449C343.624 79.6217 345.77 81.3924 348.36 82.7205C350.95 83.9853 353.917 84.6178 357.327 84.6178ZM300.868 83.4794V59.637C300.868 55.0203 301.625 51.6685 303.141 49.6447C304.657 47.6209 307.12 46.609 310.531 46.609C313.499 46.609 315.583 47.5577 316.782 49.3918C317.983 51.2258 318.551 54.0084 318.551 57.8029V83.4794H331.056V55.5262C331.056 52.6803 330.803 50.1507 330.297 47.8107C329.792 45.4707 328.908 43.5102 327.708 41.9291C326.509 40.2849 324.803 39.0833 322.656 38.1346C320.508 37.2492 317.793 36.7432 314.446 36.7432C311.793 36.7432 309.204 37.3757 306.741 38.5773C304.215 39.7789 302.194 41.6762 300.616 44.3323H300.362V38.0082H288.489V83.4794H300.868ZM280.595 83.4794V38.0082H268.09V83.4794H280.595ZM280.595 30.9882V20.6797H268.09V30.9882H280.595ZM219.398 83.4794L227.103 52.9333H227.293L235.377 83.4794H248.197L262.533 38.0082H249.713L241.376 68.8072H241.186L233.482 38.0082H221.356L213.778 68.8704H213.588L205.252 38.0082H192.053L206.452 83.4794H219.398ZM186.432 83.4794V38.0082H173.927V83.4794H186.432ZM186.432 30.9882V20.6797H173.927V30.9882H186.432ZM158.581 83.4794V46.3561H167.17V38.0082H158.581V35.2887C158.581 33.3914 158.96 32.0633 159.655 31.3044C160.412 30.4823 161.612 30.1028 163.317 30.1028C164.897 30.1028 166.412 30.1661 167.865 30.3558V21.0592C166.791 20.9959 165.718 20.9327 164.643 20.8694C163.507 20.8062 162.433 20.7429 161.297 20.7429C156.181 20.7429 152.392 22.0078 149.865 24.6007C147.339 27.1937 146.076 30.4823 146.076 34.5298V38.0714H138.624V46.4193H146.076V83.5426H158.581V83.4794Z" fill="#222222"/>
<path d="M41.492 59.1307H24.9455C22.8614 59.1307 21.1562 57.4232 21.1562 55.3362C21.1562 53.2491 22.8614 51.5416 24.9455 51.5416H41.492C43.5761 51.5416 45.2812 53.2491 45.2812 55.3362C45.2812 57.4232 43.5761 59.1307 41.492 59.1307ZM24.9455 41.992C22.8614 41.992 21.1562 40.2845 21.1562 38.1975C21.1562 36.1105 22.8614 34.403 24.9455 34.403H46.6075C48.6916 34.403 50.3967 36.1105 50.3967 38.1975C50.3967 40.2845 48.6916 41.992 46.6075 41.992H24.9455ZM49.6389 79.1786C47.6179 78.5462 46.4812 76.4592 47.1127 74.4353L58.7332 36.3002C59.3647 34.2765 61.4488 33.138 63.4697 33.7705C65.4907 34.403 66.6274 36.49 65.9959 38.5137L54.3755 76.6489C53.7439 78.6726 51.6598 79.811 49.6389 79.1786ZM83.3634 38.5137L71.7429 76.6489C71.1114 78.6726 69.0273 79.811 67.0064 79.1786C64.9854 78.5462 63.8487 76.4592 64.4802 74.4353L76.1006 36.3002C76.7322 34.2765 78.8162 33.138 80.8372 33.7705C82.8581 34.403 83.9949 36.5532 83.3634 38.5137Z" fill="#EFB41D"/>
<path d="M52.8602 105.931C23.6829 105.931 0 82.1519 0 52.9971C0 23.8424 23.6829 0 52.8602 0C82.0376 0 105.72 23.7791 105.72 52.9339C105.72 82.0886 82.0376 105.931 52.8602 105.931ZM52.8602 6.7037C27.409 6.7037 6.69436 27.4472 6.69436 52.9339C6.69436 78.4206 27.409 99.1638 52.8602 99.1638C78.3115 99.1638 99.0261 78.4206 99.0261 52.9339C99.0261 27.4472 78.3115 6.7037 52.8602 6.7037Z" fill="#EFB41D"/>
</g>
<defs>
<clipPath id="clip0_316_1815">
<rect width="384" height="105.931" fill="white"/>
</clipPath>
</defs>
</svg>
