<svg width="423" height="79" viewBox="0 0 423 79" fill="none" xmlns="http://www.w3.org/2000/svg">
<path d="M143.3 0C151.954 0 160.077 3.4542 166.38 9.75803L109.893 66.2452C101.124 75.0147 91.2922 79 82.0284 79C73.4112 79 65.2883 75.4722 59.0266 69.2052L115.514 12.718C124.283 3.94842 134.078 0 143.3 0ZM84.2733 0C75.0463 0 65.2567 3.94842 56.4872 12.718L0 69.1998C6.26174 75.4618 14.3847 78.9948 23.0018 78.9948C32.2656 78.9948 42.0971 75.0095 50.8669 66.24L107.354 9.75803C101.05 3.4542 92.9272 0 84.2733 0ZM252.136 30.0259H233.23V20.1207H250.349V15.8305H233.23V6.75596H251.983V2.35538H228.257V34.5474H252.136V30.0311V30.0259ZM204.303 35.3782C208.819 35.3782 212.92 33.5538 215.123 30.4044H215.428V34.542H219.981V18.7484H204.913V23.0754H215.123C215.05 27.8966 209.771 30.7409 204.724 30.7409C197.248 30.7409 193.147 25.5044 193.147 18.5171C193.147 11.5298 197.4 6.14082 204.535 6.14082C209.96 6.14082 213.189 8.72229 214.897 13.6171L219.645 11.7191C217.821 5.79909 212.658 1.50892 204.803 1.50892C194.556 1.50892 187.91 8.72229 187.91 18.5171C187.91 28.3119 194.361 35.3727 204.309 35.3727L204.303 35.3782ZM264.702 7.0609H265.117L280.87 34.542H288.955V2.35538H284.059L284.175 29.7998H283.719L268.003 2.35538H259.917V34.5474H264.776L264.702 7.06616V7.0609ZM335.116 34.542H330.106V2.35538H346.163C353.829 2.35538 357.665 6.3038 357.665 11.9189C357.665 16.0776 355.658 19.5108 351.172 20.9619L358.008 34.542H352.503L346.099 21.7032C346.015 21.7032 345.941 21.7137 345.857 21.7137H335.116V34.542ZM335.116 17.1975H345.857C350.222 17.1975 352.461 15.4888 352.461 11.9189C352.461 8.34899 350.222 6.75596 345.857 6.75596H335.116V17.1975ZM419.201 29.9524H403.522V2.35538H398.434V34.5474H419.196V29.9524H419.201ZM322.362 30.0259H303.456V20.1207H320.538V15.8305H303.456V6.75596H322.172V2.35538H298.445V34.5474H322.362V30.0311V30.0259ZM377.859 76.529H382.95V44.3738H377.859V76.529ZM393.124 34.542H387.888L384.323 24.8262H369.895L366.288 34.542H361.126L373.196 2.35013H381.094L393.129 34.542H393.124ZM382.661 20.3099L377.672 6.71915H376.61L371.567 20.3099H382.661ZM344.381 48.9689H356.036V76.529H361.084V48.9689H372.697V44.3738H344.381V48.9689ZM415.747 64.915C413.849 69.9622 410.657 72.5805 405.193 72.5805C398.207 72.5805 393.879 67.4544 393.879 60.4723C393.879 53.4904 398.091 48.133 405.193 48.133C410.699 48.133 414.078 50.9824 415.594 55.6881L420.379 54.016C418.633 47.8281 413.434 43.4643 405.347 43.4643C395.363 43.4643 388.606 50.9824 388.606 60.5461C388.606 70.1095 395.289 77.3649 405.156 77.3649C413.017 77.3649 418.29 73.2273 420.608 66.6237L415.752 64.915H415.747ZM334.434 71.8233H333.975L318.224 44.379H310.102V76.5342H314.995L314.958 49.0899H315.417L331.131 76.5342H339.216V44.379H334.36L334.434 71.8233ZM255.511 44.3738H250.502V76.529H270.165V72.0127H255.511V44.379V44.3738ZM292.641 44.3738L304.713 76.529H299.511L295.917 66.771H281.504L277.91 76.529H272.673L284.817 44.3738H292.636H292.641ZM294.265 62.2915L289.261 48.7008H288.162L283.156 62.2915H294.27H294.265ZM217.058 48.9689H228.714V76.529H233.688V48.9689H245.344V44.3738H217.063V48.9689H217.058ZM207.074 44.3738L219.145 76.529H213.909L210.328 66.771H195.954L192.347 76.529H187.111L199.298 44.3738H207.079H207.074ZM208.683 62.2915L203.693 48.7008H202.631L197.605 62.2915H208.678H208.683Z" fill="#06262D"/>
</svg>
