<svg width="450" height="106" viewBox="0 0 450 106" fill="none" xmlns="http://www.w3.org/2000/svg">
<path d="M13.638 82.0687C12.909 82.0687 10.505 82.0687 9.477 82.1457V96.2357C10.659 96.3907 12.473 96.5347 14.668 96.5347C20.852 96.5347 23.999 93.5497 23.999 89.0047C23.999 84.0867 19.833 82.0687 13.638 82.0687ZM15.032 61.5017C13.052 61.5017 11.158 61.5737 9.477 61.6457V74.7667C10.659 74.8477 11.818 74.8477 13.351 74.8477C19.833 74.8477 23.192 72.1527 23.192 67.6827C23.192 63.9557 21.003 61.5017 15.032 61.5017ZM14.369 104.437C11.38 104.437 6.206 104.293 0 104.293V54.0387C4.166 53.8267 10.57 53.6797 16.63 53.6797C27.275 53.6797 33.177 58.0757 33.177 66.1287C33.177 71.1217 30.044 75.5147 25.384 77.3707V77.5167C31.208 78.7847 34.132 83.7147 34.132 88.7747C34.133 96.0817 29.25 104.437 14.369 104.437Z" fill="#073E84"/>
<path d="M58.4852 87.0673C48.1442 87.0673 45.8512 90.1173 45.8512 93.2513C45.8512 95.7603 47.5362 97.3953 50.3702 97.3953C55.2002 97.3953 58.4852 92.7013 58.4852 88.0123V87.0673ZM59.2522 104.373C59.2522 102.095 59.3322 99.7473 59.6362 97.7113L59.5552 97.6373C57.7162 102.021 53.0502 105.068 47.3862 105.068C40.5002 105.068 36.5112 101.079 36.5112 94.8253C36.5112 85.5163 45.5412 80.5713 58.4852 80.5713V78.4573C58.4852 74.4053 56.5772 72.2823 51.0562 72.2823C47.6132 72.2823 43.0222 73.4533 39.8082 75.3353L38.9672 66.9543C42.7862 65.5453 47.6922 64.5273 52.5912 64.5273C64.8432 64.5273 68.2882 69.5513 68.2882 78.0733L68.5872 104.266L59.2522 104.373Z" fill="#073E84"/>
<path d="M371.694 87.0673C361.345 87.0673 359.046 90.1173 359.046 93.2513C359.046 95.7603 360.742 97.3953 363.566 97.3953C368.386 97.3953 371.695 92.7013 371.695 88.0123V87.0673H371.694ZM372.446 104.373C372.446 102.095 372.535 99.7473 372.839 97.7113L372.758 97.6373C370.93 102.021 366.253 105.068 360.584 105.068C353.694 105.068 349.717 101.079 349.717 94.8253C349.717 85.5163 358.741 80.5713 371.693 80.5713V78.4573C371.693 74.4053 369.768 72.2823 364.261 72.2823C360.809 72.2823 356.236 73.4533 353.005 75.3353L352.17 66.9543C355.983 65.5453 360.883 64.5273 365.791 64.5273C378.043 64.5273 381.486 69.5513 381.486 78.0733L381.79 104.266L372.446 104.373Z" fill="#073E84"/>
<path d="M127.94 105.004C117.361 105.004 110.781 99.3575 110.781 86.1295C110.781 73.9975 116.987 64.6895 130.462 64.6895C133.067 64.6895 135.819 65.0765 138.275 65.7915L137.279 74.4705C135.213 73.6815 132.831 73.0585 130.384 73.0585C124.186 73.0585 121.039 77.7705 121.039 85.1075C121.039 91.7655 123.564 96.3165 130.071 96.3165C132.688 96.3165 135.511 95.7605 137.591 94.6695L138.343 103.191C135.736 104.212 131.986 105.004 127.94 105.004Z" fill="#073E84"/>
<path d="M159.411 73.0587C155.052 73.0587 150.765 76.5167 150.765 84.4817C150.765 92.4657 153.597 96.5347 159.256 96.5347C164.082 96.5347 167.755 92.5627 167.755 84.6507C167.754 77.1336 165.158 73.0587 159.411 73.0587ZM158.412 105.068C147.629 105.068 140.654 99.3577 140.654 85.5147C140.654 73.3777 148.545 64.5977 160.102 64.5977C170.891 64.5977 177.863 70.7097 177.863 84.1037C177.863 96.3107 169.829 105.068 158.412 105.068Z" fill="#073E84"/>
<path d="M214.619 73.0587C210.249 73.0587 205.951 76.5167 205.951 84.4817C205.951 92.4657 208.786 96.5347 214.462 96.5347C219.271 96.5347 222.958 92.5627 222.958 84.6507C222.957 77.1336 220.355 73.0587 214.619 73.0587ZM213.609 105.068C202.817 105.068 195.845 99.3577 195.845 85.5147C195.845 73.3777 203.73 64.5977 215.299 64.5977C226.09 64.5977 233.054 70.7097 233.054 84.1037C233.054 96.3107 225.02 105.068 213.609 105.068Z" fill="#073E84"/>
<path d="M341.207 60.3859C337.92 60.3859 335.162 57.6429 335.162 54.2739C335.162 50.9919 337.92 48.2539 341.207 48.2539C344.585 48.2539 347.325 50.9109 347.325 54.2739C347.325 57.6429 344.584 60.3859 341.207 60.3859ZM346.111 104.293H335.693V65.5499C340.527 64.9249 340.436 65.1569 346.111 65.3059V104.293Z" fill="#073E84"/>
<path d="M95.7202 64.5273C89.5252 64.5273 85.0782 67.7433 82.7742 72.3633L82.7022 72.2833L82.9582 65.3133C79.5352 65.6263 76.4652 66.3323 73.8882 67.4253V104.294H83.7672V85.5163C83.7672 78.6933 87.6812 72.9143 92.6562 72.9143C96.2462 72.9143 97.3302 75.3353 97.3302 79.4013V104.294H107.051V76.9773C107.051 70.1703 104.294 64.5273 95.7202 64.5273Z" fill="#073E84"/>
<path d="M182.127 52.1305V104.294H191.593V49.8125C187.983 50.1595 184.781 50.9345 182.127 52.1305Z" fill="#073E84"/>
<path d="M312.735 97.4295C310.75 97.4295 309.228 97.2005 307.912 96.7585V86.3215C307.912 80.1415 310.835 74.4055 315.642 74.4055C319.886 74.4055 321.848 77.8945 321.848 84.8335C321.848 93.9985 318.047 97.4295 312.735 97.4295ZM318.348 66.4995C313.249 66.4995 309.228 69.0395 307.413 73.0535H307.33C307.697 71.1225 307.912 68.0525 307.912 65.8195V49.8125C304.303 50.1765 301.114 50.9605 298.467 52.1765V103.231C302.607 104.436 306.828 105.033 312.076 105.033C324.544 105.033 331.69 96.3845 331.69 83.8565C331.69 72.9135 327.019 66.4995 318.348 66.4995Z" fill="#073E84"/>
<path d="M281.772 64.5273C275.345 64.5273 271.13 68.5213 269.368 72.3633C268.447 68.6013 265.618 64.5273 258.872 64.5273C253.216 64.5273 248.62 67.5853 246.325 72.3633H246.238C246.535 70.2773 246.677 67.2613 246.701 65.3393C243.166 65.6873 240.033 66.4494 237.428 67.6404V104.294H247.255V85.6653C247.255 78.3953 251.452 72.9143 255.972 72.9143C259.734 72.9143 260.492 75.7953 260.492 79.6343V104.294H270.141V85.6653C270.141 78.0733 274.58 72.9143 278.864 72.9143C282.456 72.9143 283.394 75.4873 283.394 79.6343V104.294H293.187V77.5163C293.187 68.6843 289.124 64.5273 281.772 64.5273Z" fill="#073E84"/>
<path d="M449.739 52.6382C450.285 54.5032 450.11 56.1852 447.9 57.0862C445.26 58.1652 443.297 58.8682 440.043 60.1452C438.376 60.7762 436.769 61.4042 434.927 62.1132C433.14 62.7872 431.295 63.5192 429.278 64.2742C421.261 67.3442 412.152 70.7702 400.777 74.9712C398.344 75.8002 395.865 74.5292 394.97 71.9182C393.107 65.9582 390.998 60.1822 388.941 54.8142C388.066 52.3492 389.342 50.1152 391.722 49.3882C397.497 47.7662 402.662 46.4822 407.678 45.2562C412.659 44.0252 417.055 42.9862 421.255 42.0632C429.657 40.1492 435.06 38.9922 440.803 37.9882C443.581 37.5012 444.577 38.6972 445.323 40.4732C446.962 44.4432 448.393 48.4492 449.739 52.6382Z" fill="#E30520"/>
<path d="M444.34 20.0436C443.54 18.4736 442.842 17.5616 439.944 17.5066C431.902 17.3396 422.542 17.9486 408.422 20.0346C401.346 21.0706 393.708 22.5366 385.392 24.5996C381.214 25.7066 377.074 26.7516 372.873 28.1806C368.463 29.5376 364.421 30.9976 360.303 32.5906C357.867 33.5686 356.412 35.7576 356.811 37.6316C357.873 42.0016 358.966 46.3886 360.254 51.4506C360.891 53.6376 363.402 54.6326 366.047 53.6236C375.254 50.1286 384.875 47.1126 393.877 44.6796C402.917 42.3066 410.636 40.5246 417.727 38.9636C431.772 35.9106 439.133 34.9296 446.676 33.6066C448.389 33.2996 449.141 32.1886 448.383 30.3266L444.34 20.0436Z" fill="#FFD300"/>
<path d="M434.853 2.75786C433.772 0.909863 432.715 0.745865 431.313 0.531865C426.216 -0.280135 414.289 -0.165137 404.301 0.895863C399.271 1.32086 394.147 2.09186 388.536 3.13086C382.965 4.24686 377.36 5.51785 371.499 7.24785C369.531 7.86485 368.336 8.99786 369.103 11.2619C370.143 14.3239 371.069 16.9239 372.311 20.5329C373.147 22.9229 375.209 22.9429 377.395 22.2779C383.944 20.3439 390.169 18.8549 396.258 17.6639C402.374 16.4389 407.798 15.6789 412.984 14.9719C423.391 13.7209 432.314 13.4539 437.335 13.3879C438.492 13.3619 439.264 12.3209 438.406 10.9749L434.853 2.75786Z" fill="#073E84"/>
<path d="M16.3152 19.3344C15.5552 16.1874 14.1352 13.1764 10.1892 13.1764C6.45615 13.1764 3.27115 16.7054 3.27115 24.8714C3.27115 33.0354 6.45615 36.5664 10.1892 36.5664C15.1732 36.5664 16.4842 31.9294 16.2122 27.8464H10.7462V25.4254H19.0472V38.3314H16.6292V35.7004C15.1742 37.7124 12.8562 38.8854 10.1902 38.8854C4.58615 38.8854 0.431152 33.7294 0.431152 24.8714C0.431152 16.0114 4.58615 10.8574 10.1902 10.8574C15.1372 10.8574 18.1492 14.2494 19.0472 18.6764L16.3152 19.3344Z" fill="#073E84"/>
<path d="M24.4119 23.35H24.4779C25.5509 21.066 26.9399 18.957 29.7779 18.957H30.8139V21.411C27.2849 20.929 25.4479 24.734 24.4119 27.502V38.334H21.7119V19.233H24.4119V23.35Z" fill="#073E84"/>
<path d="M42.4739 19.2305H45.1739V38.3315H42.4739V36.3575C40.8849 37.6425 39.3949 38.8855 37.2149 38.8855C34.5179 38.8855 32.3369 37.3995 32.3369 32.4155V19.2305H35.0339V31.7235C35.0339 33.7325 35.3809 36.6735 37.5619 36.6735C39.2199 36.6735 41.4009 35.0435 42.4739 33.7675V19.2305Z" fill="#073E84"/>
<path d="M50.7122 32.9687C51.4722 34.5927 53.3062 36.5327 55.2082 36.5327C57.0792 36.5327 59.7422 34.6967 59.7422 29.0947C59.7422 26.2197 58.9472 21.0327 55.1742 21.0327C53.1002 21.0327 51.5452 22.4467 50.7122 24.1107V32.9687ZM50.7122 44.2487H48.0122V19.2317H50.7122V21.2057C51.9572 19.8887 53.6532 18.6777 55.4872 18.6777C58.7752 18.6777 62.5802 21.6557 62.5802 29.1617C62.5802 36.4987 58.1872 38.8837 55.5902 38.8837C53.4782 38.8837 51.9922 37.7437 50.7122 36.1517V44.2487Z" fill="#073E84"/>
<path d="M76.9749 28.7837C76.9749 25.5297 76.1799 20.9617 72.0279 20.9617C67.8729 20.9617 67.0779 25.5297 67.0779 28.7837C67.0779 32.0347 67.8719 36.6027 72.0279 36.6027C76.1799 36.6017 76.9749 32.0337 76.9749 28.7837ZM64.3789 28.7837C64.3789 21.6187 67.7699 18.6777 72.0289 18.6777C76.2839 18.6777 79.6749 21.6187 79.6749 28.7837C79.6749 35.9457 76.2839 38.8857 72.0289 38.8857C67.7699 38.8857 64.3789 35.9447 64.3789 28.7837Z" fill="#073E84"/>
</svg>
