<svg width="420" height="73" viewBox="0 0 420 73" fill="none" xmlns="http://www.w3.org/2000/svg">
<g clip-path="url(#clip0_316_1782)">
<path d="M21.0433 56.7238V71.0204C21.0433 71.6048 20.5679 72.1063 19.9573 72.1063H13.2321C10.3885 72.1063 8.11182 69.8079 8.11182 66.9861V64.7095C8.11182 64.5568 8.11182 64.4042 8.19904 64.2559C9.80403 60.806 13.8819 59.4409 16.9436 57.5306C17.6371 57.0989 18.505 56.5537 19.2638 55.9039C20.0227 55.254 21.0215 55.8166 21.0215 56.7282H21.0433V56.7238Z" fill="black"/>
<path d="M21.0433 53.5801V53.6455C20.4589 55.2941 18.3959 56.62 16.9654 57.5053C13.8427 59.4592 9.65574 60.8461 8.11182 64.4486V64.3832C9.65138 60.8025 13.8165 59.4156 16.9436 57.4617C18.3741 56.572 20.4371 55.2287 21.0215 53.6019L21.0433 53.5801Z" fill="black"/>
<path d="M8.1125 54.0116V60.5188C7.41904 60.6714 7.20098 62.6471 7.17917 63.3406V63.4932C6.93929 63.2315 6.87387 62.8434 6.78665 62.5163C6.33306 61.0203 5.42154 57.1343 6.67761 55.9437C6.91749 55.7256 7.30565 55.7038 7.50191 55.4683C7.69817 55.2284 7.89443 54.6222 8.12995 53.9941H8.10814V54.0159L8.1125 54.0116Z" fill="url(#paint0_linear_316_1782)"/>
<path d="M42.1353 72.0414H23.4774C22.8057 71.8669 21.0481 67.3311 21.0481 67.2439C20.83 67.2003 20.83 67.3093 20.721 67.4402C20.2456 68.0682 19.8749 68.8707 19.3341 69.5249C18.3135 70.7417 16.9702 71.5442 15.5571 71.976H15.4481C11.2393 73.1928 6.46801 71.0208 7.68047 65.7916C7.7677 65.399 7.89854 64.9891 8.05119 64.5747C8.05119 64.4875 8.11661 64.4003 8.16022 64.3349C9.69978 60.7324 13.8649 59.3455 16.992 57.3916C17.0792 57.3261 17.1665 57.2825 17.2755 57.2171C17.3845 57.1517 17.4717 57.0863 17.559 57.0426C17.6026 57.0426 17.6462 56.9772 17.7116 56.9554C17.7989 56.89 17.9079 56.8246 17.9951 56.7592C18.1914 56.6283 18.3876 56.4975 18.5795 56.3448C18.6231 56.3012 18.6886 56.2794 18.7322 56.2358C18.7758 56.1922 18.8412 56.1704 18.8848 56.1268C18.8848 56.1268 18.9284 56.1268 18.9503 56.0831C18.9503 56.0831 19.0157 56.0395 19.0375 56.0177H19.0811C19.1247 55.9741 19.1683 55.9305 19.2337 55.9087C19.2774 55.8651 19.321 55.8215 19.3646 55.7997C19.3646 55.7997 19.4082 55.756 19.43 55.7342C19.4518 55.7124 19.4954 55.6906 19.5172 55.6688L19.5608 55.6252L19.6481 55.538C19.6917 55.538 19.7135 55.4726 19.7571 55.4507C19.8007 55.4507 19.8225 55.3853 19.8661 55.3635C19.9098 55.3635 19.9316 55.2981 19.9752 55.2763C20.0188 55.2545 20.0406 55.2109 20.0624 55.1673L20.1278 55.1018L20.1714 55.0582C20.1714 55.0582 20.215 54.9928 20.2369 54.971L20.3023 54.9056C20.3023 54.9056 20.3459 54.862 20.3677 54.8402C20.3677 54.8402 20.3677 54.7965 20.4113 54.7747C20.4549 54.7529 20.4113 54.7311 20.4549 54.7093C20.4549 54.7093 20.4985 54.6657 20.5203 54.6221C20.5203 54.6221 20.564 54.5567 20.5858 54.5349C20.5858 54.5349 20.6294 54.4694 20.6512 54.4476V54.3604C20.6512 54.3604 20.6948 54.295 20.7166 54.2732C20.7166 54.2732 20.7602 54.2078 20.7602 54.1859C20.7602 54.1641 20.7602 54.1423 20.8038 54.1205C20.8605 53.981 20.9041 53.8458 20.939 53.7106C21.0219 53.3747 21.0437 53.0345 21.0437 52.6028V50.0645C21.1091 50.1081 22.4524 50.8451 22.7795 51.6476C23.9527 54.5131 22.8886 55.9654 21.0437 57.4831C17.8992 60.0869 12.2774 61.5392 10.607 64.5355C8.04683 69.1149 11.3876 71.2825 15.7054 69.5031C18.2873 68.4389 19.526 65.0327 21.0437 62.3635C21.4362 61.6701 21.8462 61.0202 22.3041 60.475C22.3914 60.366 22.4786 60.2788 22.5658 60.1697C22.6531 60.0825 22.7185 59.9953 22.8057 59.9299C25.2132 57.457 28.7503 56.1093 31.1141 53.8981C31.354 53.6582 31.5066 53.5274 31.6113 53.4227C31.8076 53.1828 31.8076 53.052 31.9166 52.4676C33.8269 52.7947 34.4985 52.424 37.2549 55.224C38.0138 55.9828 38.8163 56.8944 39.6188 57.7623C40.0331 58.2159 40.4431 58.652 40.8356 59.062C40.8792 59.1056 40.9228 59.171 40.9883 59.2146C40.8356 59.2146 40.0549 59.3236 39.0998 60.1043C38.0138 60.9722 36.9322 64.5311 34.045 66.4632L31.7247 67.68H31.8337C34.3066 67.7236 36.7795 67.4838 39.2088 68.0944C40.5957 68.4433 41.987 69.0931 42.3534 70.2838C42.506 70.781 42.4624 71.3916 42.1571 72.1068V72.0196L42.1353 72.0414Z" fill="url(#paint1_linear_316_1782)"/>
<path opacity="0.2" d="M38.8686 55.5817C38.8686 55.5817 38.6855 55.3157 38.6244 55.2197V55.211C38.5633 55.1194 38.4936 55.0191 38.4107 54.8926C37.9528 54.2123 36.9758 53.1568 35.6761 52.411C34.3721 51.6652 31.0051 51.2247 31.0051 51.2247C31.0051 51.2247 29.0337 50.9194 24.8556 49.925C21.7633 49.1923 20.0929 47.4173 19.4344 46.545C19.4256 46.5319 19.4169 46.5232 19.4082 46.5101C19.4082 46.5101 19.4082 46.5101 19.4082 46.5014V46.4883C19.4213 46.497 19.4605 46.5057 19.5129 46.5319C19.6045 46.5755 19.7484 46.6366 19.9359 46.7151C20.2412 46.8459 20.6599 47.016 21.1658 47.2254C23.7478 48.2677 28.6499 50.1518 32.2524 50.9107C37.3901 51.9923 38.8817 55.5817 38.8817 55.5817H38.8686Z" fill="black"/>
<path opacity="0.2" d="M40.9403 59.2409C40.8531 59.1536 34.2369 53.6845 32.5883 54.7705C31.0706 55.7474 25.0606 58.0022 22.8232 59.9561C22.736 60.0433 22.6269 60.1306 22.5615 60.2178C24.969 57.5923 28.6587 56.2272 31.1098 53.9462C31.3715 53.7063 31.5241 53.5754 31.607 53.449C31.8033 53.2309 31.7815 53.0782 31.8905 52.5156C33.779 52.8427 34.4506 52.472 37.1852 55.2502C37.9005 55.9655 38.6593 56.8116 39.3964 57.6359C39.6175 57.8771 39.6175 57.8771 39.3964 57.6359C39.8936 58.1985 40.417 58.7437 40.8924 59.2409H40.936H40.9403Z" fill="black"/>
<path opacity="0.2" d="M8.11204 54.0117V60.5189C7.41859 60.6715 7.20052 62.6472 7.17871 63.3407C7.17871 62.9089 7.17867 61.5613 7.30951 60.1961C7.44035 58.5475 8.112 54.0771 8.13381 54.0117H8.11204Z" fill="black"/>
<path opacity="0.2" d="M56.8459 51.085C56.7369 51.3859 56.6279 51.6868 56.4796 51.9878V51.9965C56.4796 51.9965 57.3213 48.0102 54.1157 44.0544C54.7743 43.675 54.9008 43.7143 55.507 43.7012C55.507 43.7012 55.5157 43.7099 55.5201 43.7099C55.5332 43.723 55.5419 43.7273 55.5506 43.7404C55.5637 43.7535 55.5637 43.7622 55.5637 43.7753C55.8428 44.3379 56.1481 44.9267 56.4054 45.5111C57.1251 47.2426 57.4042 49.2619 56.8416 51.085H56.8459Z" fill="black"/>
<path opacity="0.2" d="M55.5641 50.1953V50.8451C55.5553 50.9803 55.5423 51.1112 55.5205 51.2464C55.3591 52.3105 54.8881 53.3878 54.3516 54.2513C53.9024 54.9623 53.3005 55.7342 52.6071 56.2968L52.3018 56.5193C52.4631 56.3579 55.6644 52.8819 54.3211 49.4713C54.9535 49.1573 55.3896 49.323 55.3896 49.323C55.4332 49.4756 55.4856 49.6327 55.5205 49.7853C55.5466 49.9161 55.5641 50.0513 55.5641 50.1909V50.1953Z" fill="black"/>
<path opacity="0.2" d="M52.3756 54.2906C52.0267 54.7703 51.7214 55.2501 51.3768 55.6818C51.3681 55.6906 51.3637 55.6949 51.3594 55.7036C51.3594 55.6906 51.3594 55.6731 51.3594 55.66C51.3594 55.66 52.2535 54.4912 51.9482 53.3965C52.3712 54.2295 52.3799 54.2862 52.3799 54.2906H52.3756Z" fill="black"/>
<path d="M55.5202 5.75781V24.3721C54.9837 24.0843 54.0853 23.3821 51.9046 22.946C47.7395 22.1086 45.4934 18.7242 45.4934 18.7242C45.4803 18.7242 45.066 19.4394 44.8959 19.9454C44.1152 23.3647 44.6952 23.2425 44.5906 23.7397C44.5208 24.0538 43.4219 25.3186 42.5889 25.8288V5.76653C42.5889 4.53227 43.6094 3.51172 44.8479 3.51172H53.2653C54.4996 3.51172 55.5202 4.53227 55.5202 5.76653V5.75781Z" fill="black"/>
<path d="M21.0439 5.97553V23.2684C11.9548 19.7095 12.5392 7.51509 12.8227 3.7207H18.7891C20.0277 3.7207 21.0439 4.74126 21.0439 5.97553Z" fill="black"/>
<path d="M21.022 50.0855V53.121C21.022 53.422 20.974 53.7098 20.8693 53.9759C20.756 54.3553 20.3023 55.2973 18.4531 56.4444C18.078 56.7148 16.4556 57.8706 14.8855 58.6033C13.3634 59.4799 12.5042 59.8768 11.1435 60.8232C9.76966 61.9833 9.18087 62.4762 8.26062 64.116C8.14723 64.3646 8.12106 64.3821 8.1167 64.3821V41.4238C12.0201 45.5715 17.6637 46.0687 17.6637 46.0687C17.6637 46.0687 17.511 47.5908 18.9852 48.7815C20.4593 49.9765 20.3503 49.6498 21.022 50.0816V50.0855Z" fill="black"/>
<path d="M80.5981 13.4863V58.7879H91.5365V13.4863H80.5981ZM83.6467 30.0072V39.8377H117.958V30.0072H83.6467ZM111.032 13.4863V58.7879H121.974V13.4863H111.032Z" fill="black"/>
<path d="M131.474 13.4863V58.7879H141.967V13.4863H131.474ZM138.731 13.4863V22.4926H161.58V13.4863H138.731ZM138.731 30.5742V39.3885H160.28V30.5742H138.731ZM138.731 49.8078V58.8141H161.58V49.8078H138.731Z" fill="black"/>
<path d="M170.512 13.4863V58.7879H181.451V13.4863H170.512ZM202.625 20.5779C201.303 18.3362 199.341 16.6091 196.741 15.3574C194.142 14.1056 190.902 13.4907 187.029 13.4907H177.386V22.7324H186.244C187.709 22.7324 188.961 22.9679 190.025 23.4433C191.089 23.9144 191.892 24.5991 192.463 25.4714C193.03 26.3742 193.309 27.434 193.309 28.6857C193.309 29.9374 193.03 31.0234 192.463 31.8957C191.892 32.7985 191.089 33.457 190.025 33.9063C188.961 34.3555 187.709 34.591 186.244 34.591H177.386V43.0739H187.029C190.33 43.0739 193.17 42.6246 195.546 41.7175C195.956 41.5605 196.358 41.3904 196.741 41.2072C199.319 39.9511 201.282 38.2066 202.625 35.9866C203.973 33.7667 204.631 31.2371 204.631 28.3063C204.631 25.3754 203.968 22.8022 202.625 20.5779ZM195.551 41.7175L193.174 38.2764H181.856L184.826 43.0739L194.548 58.7922H207.353L195.551 41.7175Z" fill="black"/>
<path d="M231.384 10.6289L207.562 58.7915H219.922L224.144 50.047L225.548 47.1379L225.029 44.7566L225.051 44.7305L226.36 41.708L231.384 30.1024L236.439 41.708L237.786 44.8002L237.411 47.5915L238.602 50.047L242.845 58.7915H255.28L231.388 10.6289H231.384ZM242.776 41.7037H220.302L219.521 50.0426H243.482L242.776 41.7037Z" fill="black"/>
<path d="M270.92 13.4902V49.4105H289.115V58.7918H259.977V13.4902H270.92Z" fill="black"/>
<path d="M294.148 13.4863V58.7879H305.418V13.4863H294.148ZM331.626 24.1455C329.641 20.7873 326.828 18.1922 323.213 16.3212C319.597 14.4546 315.297 13.5343 310.333 13.5343H301.397V23.2471H309.954C311.681 23.2471 313.356 23.4608 314.965 23.8838C316.596 24.3113 318.014 25.0178 319.239 26.0078C320.469 26.9979 321.464 28.3281 322.192 29.981C322.925 31.6558 323.304 33.7144 323.304 36.1742C323.304 38.634 322.925 40.71 322.192 42.3673C321.464 44.0203 320.469 45.3418 319.239 46.3362C318.014 47.3262 316.57 48.0371 314.965 48.4645C313.356 48.8919 311.681 49.1013 309.954 49.1013H301.397V58.862H310.333C315.292 58.862 319.597 57.9418 323.213 56.0751C326.828 54.2041 329.641 51.5829 331.626 48.2028C333.61 44.8228 334.6 40.8801 334.6 36.2003C334.6 31.5206 333.61 27.5038 331.626 24.1499V24.1455Z" fill="black"/>
<path d="M352.089 22.4921V30.5737H370.403V39.3881H352.089V49.8074H371.702V58.8136H341.596V13.4902H371.702V22.4921H352.089Z" fill="url(#paint2_linear_316_1782)"/>
<path d="M419.01 13.4902L404.761 35.5631L419.978 58.7918H406.462L398.167 43.7146L389.614 58.7918H376.072L391.599 35.5631L377.682 13.4902H391.197L398.193 26.6267L405.446 13.4902H419.01Z" fill="url(#paint3_linear_316_1782)"/>
<path d="M55.5203 25.3222V28.5627C55.5203 28.5627 55.5203 28.5321 55.5072 28.5191C55.4941 28.4929 55.4723 28.4624 55.4592 28.4318C55.0711 27.7166 54.3994 27.4113 53.6623 27.1976C53.2698 27.1104 52.8555 27.1103 52.4455 27.1103C52.4586 27.1191 52.463 27.1234 52.4761 27.1321H52.4455C53.0299 27.5639 53.2698 27.9739 53.4661 28.6718C53.8586 28.5671 54.1857 28.4799 54.5957 28.4799C54.7527 28.4929 54.8835 28.5278 55.0056 28.5845C55.1975 28.6587 55.3546 28.7764 55.5247 28.9378V32.6493C55.3851 32.6406 55.2455 32.6362 55.106 32.6362C54.3689 32.6362 53.6318 32.7409 52.9907 33.0811C52.5109 33.321 52.1664 33.6655 51.8611 34.1235C52.4455 33.9272 52.9427 33.8443 53.5315 33.8182C53.4007 34.2761 53.3134 34.7297 53.2742 35.1876C53.1433 36.8319 53.7496 38.5938 54.5739 40.0026C54.8661 40.4605 55.1801 40.9141 55.529 41.3721V49.4319C55.4854 49.397 55.4505 49.3665 55.3982 49.3316C55.4418 49.4842 55.4941 49.6412 55.529 49.7939V65.8394C54.7091 64.6051 52.1053 60.6144 51.4729 56.7939C51.4293 56.4188 51.4119 56.0655 51.3683 55.7123C51.3683 55.6992 51.3683 55.6817 51.3683 55.6686C51.3421 55.3895 51.3116 55.1147 51.2723 54.8313V54.8182C51.2592 54.6961 51.2505 54.5739 51.2374 54.4518C51.0673 52.6549 50.7184 51.0281 50.243 49.5714C50.2081 49.4711 50.1776 49.3795 50.1427 49.2792C50.1427 49.2792 50.1427 49.2762 50.1427 49.2705C50.0468 48.9216 49.9552 48.5989 49.8549 48.2718C47.491 40.8313 43.5834 39.4618 42.6064 39.2219V28.192C42.6064 28.192 42.6195 28.1702 42.6283 28.1571C42.6501 28.1135 42.6719 28.0698 42.7155 28.0262H42.6283C42.6283 28.0262 42.6152 28.0262 42.6064 28.0262V26.8487C42.6064 26.8487 42.6195 26.8399 42.6283 26.8356C43.7315 26.1988 44.896 25.1259 45.729 24.3452C45.7552 24.3234 45.777 24.3016 45.8032 24.2755C45.8337 24.2493 45.8599 24.2275 45.8904 24.197C45.9122 24.1795 45.9384 24.1533 45.9645 24.1315C45.9907 24.1054 46.0125 24.0792 46.0343 24.0574C45.4281 22.9976 45.1228 21.9727 45.4281 20.7602C45.4935 20.5378 45.5676 20.311 45.6505 20.0885C45.6592 20.058 45.6636 20.0449 45.6636 20.0449C47.5303 22.8013 50.0032 23.0412 52.8642 24.0836C53.1695 24.1882 53.4704 24.3016 53.7757 24.4281C54.081 24.5589 54.382 24.6898 54.6655 24.8424C54.9446 24.9951 55.2324 25.1478 55.5116 25.3179C55.5203 25.3266 55.5247 25.3309 55.529 25.3309L55.5203 25.3222Z" fill="black"/>
<path d="M12.2818 15.6101C13.1934 18.3664 15.0164 20.8175 17.2058 22.7278C18.3572 23.7266 19.6351 24.6163 21.0046 25.4188H21.0482C22.265 26.134 23.5211 26.7839 24.7379 27.3727C26.9927 28.4587 30.0326 29.3048 32.113 30.9752C32.5666 31.3459 32.9591 31.734 33.308 32.1702C33.8706 32.9073 34.285 33.7752 34.4158 34.8393C34.1541 34.5777 33.8968 34.3208 33.6133 34.0809C33.1597 33.6884 32.68 33.3652 32.1828 33.0599C32.1174 33.0163 32.0519 32.9727 31.9647 32.9291C31.5329 32.6892 31.0968 32.4537 30.6432 32.2574C28.4974 31.2805 26.1074 30.7178 23.8962 29.9154C22.941 29.5664 21.9859 29.1783 21.0089 28.7421C18.2962 27.5253 15.627 25.9858 13.4594 23.9708C11.3136 21.9733 9.66066 19.5004 9.05443 16.4649C8.29555 12.7534 9.52982 8.47921 11.8544 5.55273C11.27 8.98077 11.1392 12.2562 12.247 15.597H12.2906V15.6188L12.2818 15.6101Z" fill="#606060"/>
<path d="M62.638 72.2112H55.7384C55.6032 72.0629 55.4549 71.9321 55.324 71.8012C55.1932 71.6704 55.1321 71.6093 55.0187 71.5221C54.8268 71.3477 54.6262 71.1514 54.4343 70.977C53.9371 70.519 53.4356 70.0654 52.9384 69.6293C51.7913 68.6087 50.6181 67.61 49.4929 66.5676C47.9708 65.1589 46.4094 63.6586 44.8916 62.1452L43.8972 61.1464C43.4394 60.6885 42.9858 60.2131 42.5497 59.7595C41.8126 58.9745 41.0755 58.1981 40.3559 57.4131C39.7758 56.7894 39.2874 56.1308 38.8207 55.5072C38.8207 55.5072 38.8207 55.5072 38.8207 55.4984L38.6288 55.2106C38.5677 55.119 38.4979 55.0187 38.4151 54.8922C37.9571 54.2118 36.9802 53.1564 35.6805 52.4106C34.3765 51.6648 31.0095 51.2243 31.0095 51.2243C31.0095 51.2243 29.0381 50.919 24.8599 49.9246C21.7677 49.1919 20.0973 47.4168 19.4388 46.5445C19.43 46.5315 19.4213 46.5227 19.4126 46.5097C19.4126 46.5097 19.4126 46.5097 19.4126 46.5009C19.4126 46.5009 19.4095 46.5009 19.4039 46.5009H19.4126C19.4431 46.514 19.478 46.5227 19.5129 46.5315C19.9054 46.6579 20.3328 46.7539 20.7733 46.8324C20.878 46.8324 20.9914 46.8324 21.1441 46.876C23.1721 47.0069 29.0948 46.4006 29.2649 46.1956C29.2649 46.1956 29.2737 46.1869 29.2737 46.1826C29.23 46.1695 28.0961 45.8424 28.0263 45.8162C22.5048 45.9296 16.9004 44.5209 13.9565 43.5745C7.49296 41.1059 5.04624 36.2255 4.64499 35.3358C4.63191 35.3097 4.62318 35.2835 4.61446 35.2617C4.60574 35.2442 4.60138 35.2268 4.59701 35.2181C4.59701 35.205 4.58829 35.2006 4.58829 35.2006V35.1875C4.84561 35.4667 5.82256 35.9028 6.2587 36.1427C6.93035 36.5134 7.62817 36.8361 8.31726 37.1371C10.3148 37.9832 15.374 38.4586 16.3509 38.5022C16.3335 38.5022 16.3073 38.4891 16.2768 38.4847C16.268 38.4847 16.2637 38.4847 16.2593 38.4847C16.0107 38.415 15.5484 38.2841 14.9247 38.066C11.0955 36.7315 1.33033 32.2262 0.135314 20.7209C-1.08587 8.95389 7.2182 2.59938 10.2537 0.68474C10.3322 0.601874 10.402 0.523378 10.4718 0.449234C10.4979 0.43615 10.5241 0.427415 10.5503 0.40997C10.7029 0.344549 10.8294 0.279129 10.9821 0.191901C11.0518 0.191901 11.1129 0.126475 11.1783 0.104669C11.2089 0.0828617 11.2481 0.0654184 11.2874 0.0523343C11.331 0.0392502 11.3746 0.0218069 11.4182 0C11.2874 0.204984 11.1085 0.510276 10.9036 0.867908C10.6986 1.22554 10.4718 1.63551 10.2406 2.06292C9.78268 2.90903 9.33346 3.82057 9.09359 4.42679C9.02817 4.62305 8.94094 4.81931 8.87552 5.01121C8.61384 5.74829 8.37396 6.53333 8.20387 7.30966C7.22692 11.3483 4.31787 18.8324 11.6973 26.1421C14.6936 28.4405 16.1023 28.7458 21.1353 31.066C28.4886 34.4505 37.8394 38.5502 42.6805 41.7209C43.2649 42.109 43.7664 42.4579 44.22 42.8287C50.8362 48.1016 49.7546 60.3832 52.4848 64.0685C53.2437 65.1109 54.0287 66.1097 54.805 67.043C54.9359 67.1956 55.2368 67.562 55.6075 67.9981C55.9128 68.347 56.2792 68.757 56.6281 69.1277C57.2954 69.8648 57.9714 70.4972 58.1676 70.4754C58.5384 70.4318 59.2754 69.9128 59.7944 69.8474C61.1421 69.6991 62.638 72.2287 62.638 72.2287V72.2112Z" fill="url(#paint4_linear_316_1782)"/>
<path d="M34.4329 34.8354C34.1712 34.5738 33.9138 34.3164 33.6304 34.0766C33.1768 33.684 32.697 33.3613 32.1998 33.056C32.1344 33.0124 32.069 32.9688 31.9818 32.9252C31.55 32.6853 31.1139 32.4498 30.6603 32.2535C28.5145 31.2766 26.1244 30.7139 23.9132 29.9114C22.9581 29.5625 22.003 29.1744 21.026 28.7382C18.3133 27.5214 15.6441 25.9819 13.4765 23.9669C11.3307 21.9694 9.67775 19.4965 9.07152 16.461C8.31264 12.7495 9.54687 8.47531 11.8715 5.54883C11.2871 8.97687 11.1562 12.2523 12.264 15.5931C13.1755 18.3495 14.9986 20.8005 17.188 22.7108C18.3394 23.7096 19.6173 24.5993 20.9867 25.4018H21.0304C22.2472 26.1171 23.5033 26.7669 24.7201 27.3557C26.9749 28.4417 30.0148 29.2878 32.0952 30.9582C32.5487 31.3289 32.9413 31.7171 33.2902 32.1532C33.8528 32.8903 34.2671 33.7582 34.398 34.8224H34.4416V34.8442L34.4329 34.8354Z" fill="url(#paint5_linear_316_1782)"/>
<path opacity="0.2" d="M28.0172 45.8169C22.4957 45.9303 16.8913 44.5216 13.9474 43.5751C7.48384 41.1066 5.03711 36.2262 4.63587 35.3365C4.62278 35.3103 4.61406 35.2842 4.60534 35.2624C4.59661 35.2449 4.59225 35.2275 4.58789 35.2188C5.20284 36.1739 6.50253 37.1639 8.20347 38.1583C11.6751 40.1733 16.7954 42.149 21.1349 43.6231C24.0396 44.6262 26.5866 45.3982 28.0215 45.8212L28.0172 45.8169Z" fill="black"/>
<path opacity="0.2" d="M20.9696 37.8346C19.1683 38.7549 17.5328 38.7505 16.2724 38.4758C16.2636 38.4758 16.2593 38.4758 16.2549 38.4758C16.0063 38.406 15.544 38.2751 14.9203 38.0571C11.091 36.7225 1.32593 32.2172 0.13092 20.7119C-1.09027 8.94493 7.21379 2.59042 10.2493 0.675781C9.82189 1.15989 9.28108 1.7574 8.72718 2.39416C7.48856 3.82033 6.18451 5.40349 5.8574 6.11004C2.53839 13.0751 -0.191821 24.8508 8.0032 31.9904C10.0443 33.7742 12.7571 35.2484 16.2942 36.3082C18.2262 36.8751 19.8181 37.4465 20.9696 37.8346Z" fill="black"/>
<path opacity="0.2" d="M34.4329 34.8354C34.1712 34.5738 33.9138 34.3164 33.6304 34.0766C33.1768 33.684 32.697 33.3613 32.1998 33.056C32.1344 33.0124 32.069 32.9688 31.9818 32.9252C31.55 32.6853 31.1139 32.4498 30.6603 32.2535C28.5145 31.2766 26.1244 30.7139 23.9132 29.9114C22.9581 29.5625 22.003 29.1744 21.026 28.7382C18.3133 27.5214 15.6441 25.9819 13.4765 23.9669C11.3307 21.9694 9.67775 19.4965 9.07152 16.461C8.31264 12.7495 9.54687 8.47531 11.8715 5.54883C11.8061 5.67967 5.14629 19.5009 18.2522 25.9426C19.2292 26.418 20.1624 26.8759 21.0304 27.2641C31.6634 32.2535 33.0285 31.3856 34.4154 34.8136L34.4373 34.8354H34.4329Z" fill="black"/>
<path d="M61.0112 30.926L60.9894 30.9434C60.6841 30.4244 58.7956 29.164 58.233 28.7104C58.0411 28.5621 57.9233 28.4051 57.8404 28.2525C57.6006 27.7902 57.7401 27.3191 57.5003 26.8568C57.4741 26.8089 57.4436 26.7608 57.4087 26.7129C57.1993 26.4119 56.8024 26.1633 56.4753 25.9453C56.4753 25.9365 56.4666 25.9322 56.4623 25.9365C56.4143 25.906 56.3663 25.8755 56.327 25.845C56.2224 25.7708 56.1221 25.7011 56.0174 25.6357C55.8604 25.531 55.7034 25.4306 55.542 25.326C55.542 25.326 55.5289 25.326 55.5202 25.3172C55.5115 25.3172 55.5071 25.3086 55.5028 25.3042C55.2236 25.1341 54.9358 24.9814 54.6566 24.8288C54.3775 24.6761 54.0722 24.5453 53.7669 24.4144C53.4616 24.2836 53.1607 24.1746 52.8554 24.0699C52.3059 23.8693 51.7738 23.6992 51.2504 23.5335C49.0654 22.84 47.1594 22.2599 45.6504 20.0312C45.6504 20.0312 45.6504 20.0313 45.6504 20.0444C45.6504 20.0531 45.6417 20.0618 45.6373 20.0792C45.5545 20.3017 45.476 20.5285 45.4149 20.7509C45.1096 21.9634 45.4149 22.9839 46.0211 24.0481C46.0037 24.0699 45.9775 24.096 45.9513 24.1222C45.9295 24.144 45.9077 24.1659 45.8816 24.1833C45.851 24.2182 45.8249 24.24 45.7943 24.2662C45.7856 24.2749 45.7813 24.2792 45.7725 24.2879C45.7725 24.2879 45.7638 24.288 45.7638 24.2967C45.7507 24.3098 45.7333 24.3185 45.7202 24.3359C45.6417 24.4101 45.5588 24.4886 45.4716 24.5671C44.6647 25.3173 43.618 26.2462 42.6194 26.8219C42.6107 26.8219 42.6063 26.8307 42.5976 26.835C42.3926 26.9484 42.1833 27.0531 41.9826 27.1359C41.8518 27.1883 41.7254 27.2406 41.6032 27.2798C41.4419 27.3278 41.2936 27.3584 41.1409 27.3802H41.1278C40.8836 27.4064 40.6437 27.402 40.382 27.3889H40.3689C40.3689 27.3889 40.3777 27.3889 40.3864 27.3976C40.7964 27.6288 41.2063 27.7727 41.6381 27.8687C41.9478 27.9385 42.2661 27.9777 42.6019 28.0169C42.6107 28.0169 42.615 28.0169 42.6238 28.0169H42.711C42.6674 28.0605 42.6456 28.1041 42.6238 28.1478C42.615 28.1608 42.6107 28.1696 42.6019 28.1827C42.349 28.5577 42.144 29.0768 41.9695 29.6699C41.7951 30.2762 41.6512 30.9696 41.5203 31.6936C41.4244 32.23 41.3416 32.7795 41.263 33.3291C40.9839 35.2219 40.744 37.0711 40.2817 38.0001C40.2817 38.0001 47.2903 41.0924 50.1383 49.2612C50.1383 49.2612 50.1383 49.2638 50.1383 49.2699C50.1732 49.3702 50.2037 49.4618 50.2386 49.5621C50.714 51.0188 51.0629 52.6456 51.233 54.4425C51.2461 54.5646 51.2548 54.6867 51.2679 54.8089V54.8219C51.3071 55.1011 51.3376 55.3802 51.3638 55.6593V55.7029C51.3638 55.7029 51.3769 55.6899 51.3856 55.6811C51.7302 55.2494 52.0355 54.7696 52.3844 54.2899C52.6897 55.0487 52.5545 55.7858 52.2753 56.5491L52.2841 56.5403L52.3015 56.5272C52.3015 56.5272 52.3015 56.5272 52.3102 56.5185C52.3102 56.5185 52.3102 56.5185 52.3189 56.5098L52.6155 56.2917C53.309 55.7291 53.9108 54.9571 54.3601 54.2462C54.9009 53.3783 55.3719 52.3054 55.5289 51.2413C55.5507 51.1104 55.5682 50.9752 55.5725 50.84V50.1902C55.5725 50.0506 55.5551 49.9154 55.5289 49.7846C55.494 49.6276 55.446 49.4749 55.3981 49.3223C55.446 49.3571 55.4809 49.3877 55.5289 49.4226C55.542 49.4357 55.5594 49.4444 55.5725 49.4575C55.6161 49.5011 55.6598 49.5403 55.7034 49.5883C56.3358 50.2381 56.5059 51.1279 56.4884 51.9958V51.9871C56.4884 51.9871 56.4884 51.9871 56.4971 51.9871C56.4971 51.9871 56.4971 51.9783 56.4971 51.974C56.6411 51.6818 56.7501 51.3852 56.8548 51.093C57.4174 49.2699 57.1339 47.2506 56.4186 45.5191C56.1613 44.9347 55.856 44.3459 55.5769 43.7833C55.5769 43.7702 55.5769 43.7615 55.5638 43.7484C55.5638 43.7397 55.5507 43.7353 55.542 43.7266C55.542 43.7266 55.5394 43.7236 55.5333 43.7179H55.5769C56.1657 43.9185 56.8112 44.0276 57.4523 44.0973C57.7314 44.1322 58.0105 44.1584 58.2809 44.1802C58.2984 44.1802 58.3202 44.1802 58.3333 44.1802C58.3638 44.1802 58.39 44.1802 58.4205 44.1889C58.3943 44.1715 58.3725 44.154 58.3464 44.1322C57.352 43.4256 56.3837 42.4705 55.5813 41.4325C55.5682 41.4151 55.5507 41.3889 55.5376 41.3714C55.1887 40.9135 54.8747 40.4599 54.5825 40.002C53.9283 38.8898 53.4137 37.5509 53.2959 36.225C53.2828 36.0985 53.2785 35.9721 53.2741 35.8456V35.8325C53.2654 35.6144 53.2741 35.4007 53.2872 35.187C53.3308 34.7291 53.418 34.2755 53.5445 33.8175C52.9601 33.8394 52.4629 33.9222 51.8741 34.1228C52.1794 33.6649 52.5239 33.3203 53.0037 33.0805C53.6448 32.7403 54.3819 32.6357 55.1189 32.6357C55.2541 32.6357 55.3981 32.6356 55.5376 32.6487H55.5813C55.8211 32.6487 56.0566 32.6487 56.2965 32.6662C56.689 32.688 57.099 32.7098 57.4654 32.8406C58.3376 33.1459 58.3987 33.7085 58.7258 34.4238V34.4674C58.9439 34.3802 59.1358 34.3148 59.3102 34.1883C60.1999 33.6039 60.8498 32.5179 61.0679 31.4973C61.1115 31.3054 61.1115 31.1048 61.0242 30.9347L61.0112 30.926ZM55.6859 29.0942C55.6249 29.0332 55.5638 28.9721 55.5202 28.9328C55.4373 28.8587 55.3588 28.7889 55.276 28.7366C55.1887 28.6712 55.0971 28.6188 54.9968 28.5796C54.8747 28.5272 54.7439 28.4923 54.5869 28.4749C54.2292 28.4749 53.9327 28.5447 53.6012 28.6319C53.5576 28.645 53.5052 28.6537 53.4573 28.6711C53.2741 28.0082 53.0473 27.607 52.5239 27.1926C52.4978 27.1752 52.4716 27.1534 52.4411 27.1316H52.4716C52.8728 27.1316 53.2784 27.1316 53.6579 27.2188C54.395 27.4369 55.0666 27.7378 55.4548 28.4531C55.4679 28.4705 55.4766 28.4967 55.4897 28.5185C55.5028 28.5403 55.5071 28.5621 55.5202 28.5839C55.5813 28.7365 55.6336 28.8892 55.6772 29.0375C55.6772 29.0506 55.6859 29.0636 55.6903 29.0767C55.6903 29.0898 55.6903 29.0942 55.699 29.1073L55.6903 29.0985L55.6859 29.0942Z" fill="url(#paint6_linear_316_1782)"/>
<path opacity="0.2" d="M58.4073 44.1806C58.0932 44.1544 57.7661 44.1239 57.439 44.0847C52.6023 43.2037 53.2739 36.2168 53.2739 36.2168C53.396 37.5427 53.9107 38.8815 54.5605 39.9937C54.8527 40.4516 55.1668 40.9053 55.5157 41.3632C55.5287 41.3807 55.5462 41.4068 55.5593 41.4243C56.3836 42.4884 57.378 43.4654 58.4029 44.1806H58.4073Z" fill="black"/>
<path opacity="0.2" d="M58.3332 44.1245C58.3332 44.1245 58.3244 44.1594 58.3201 44.1725V44.1856C58.307 44.1768 58.2852 44.1725 58.2721 44.1681C52.9948 42.1401 53.1998 36.6186 53.2565 35.8379C53.2565 35.9687 53.2696 36.0909 53.2783 36.2173C53.4004 37.5432 53.9151 38.8821 54.5649 39.9943C54.8571 40.4522 55.1712 40.9058 55.5201 41.3637C55.5332 41.3812 55.5506 41.4074 55.5637 41.4248C56.3705 42.4628 57.3344 43.418 58.3288 44.1245H58.3332Z" fill="black"/>
<path opacity="0.2" d="M56.8461 51.0834C56.7414 51.3756 56.6324 51.6721 56.4885 51.9643C56.5931 51.6285 57.7358 47.2279 54.5215 43.8042C54.7047 43.7781 55.1146 43.6341 55.5246 43.7126C55.5333 43.7214 55.542 43.7257 55.5464 43.7344C55.5595 43.7475 55.5595 43.7562 55.5595 43.7693C55.8386 44.332 56.1439 44.9207 56.4012 45.5052C57.1209 47.2366 57.4 49.2559 56.8374 51.079L56.8461 51.0834Z" fill="black"/>
<path opacity="0.2" d="M55.5636 50.1952V50.845C55.5549 50.9802 55.5418 51.111 55.52 51.2462C55.3587 52.3104 54.8876 53.3877 54.3512 54.2512C53.902 54.9621 53.3001 55.7341 52.6066 56.2967L52.3101 56.5148C52.4932 56.3534 55.834 53.2219 54.7481 49.336C55.001 49.2226 55.3935 49.3272 55.3935 49.3272C55.4372 49.4799 55.4895 49.6369 55.5244 49.7895C55.5506 49.9204 55.568 50.0556 55.568 50.1952H55.5636Z" fill="black"/>
<path opacity="0.2" d="M46.6535 23.9491C43.0944 28.1709 40.5997 27.4687 40.3685 27.3946C40.3554 27.3946 40.3511 27.3858 40.3511 27.3858H40.3642C40.6258 27.3989 40.8657 27.4033 41.11 27.3771H41.123C41.2757 27.3597 41.4283 27.3291 41.5853 27.2768C41.7075 27.2332 41.8383 27.1852 41.9648 27.1329C42.1654 27.05 42.3748 26.9453 42.5797 26.8319C42.5885 26.8319 42.5928 26.8232 42.6015 26.8189C43.5959 26.2432 44.6472 25.3142 45.4541 24.564C45.5413 24.4855 45.6198 24.4027 45.7027 24.3329C45.7158 24.3198 45.7332 24.3067 45.7463 24.2936C45.7463 24.2936 45.7463 24.2849 45.755 24.2849C45.7638 24.2762 45.7681 24.2718 45.7768 24.2631C45.8074 24.2369 45.8335 24.2151 45.8641 24.1846C45.8859 24.1628 45.9077 24.141 45.9338 24.1192C45.96 24.093 45.9818 24.0668 46.0036 24.045C45.3974 22.9852 45.0921 21.9603 45.3974 20.7478C45.4628 20.5254 45.537 20.2986 45.6198 20.0762C45.0398 21.9298 46.1345 23.4344 46.6404 23.9447L46.6535 23.9491Z" fill="black"/>
</g>
<defs>
<linearGradient id="paint0_linear_316_1782" x1="6.03213" y1="58.7437" x2="8.1125" y2="58.7437" gradientUnits="userSpaceOnUse">
<stop stop-color="#FFB701"/>
<stop offset="0.3" stop-color="#FF9900"/>
<stop offset="0.8" stop-color="#FF9900"/>
<stop offset="1" stop-color="#F0C634"/>
</linearGradient>
<linearGradient id="paint1_linear_316_1782" x1="7.48857" y1="61.1947" x2="42.4144" y2="61.1947" gradientUnits="userSpaceOnUse">
<stop stop-color="#FFBB00"/>
<stop offset="0.3" stop-color="#FF9900"/>
<stop offset="0.8" stop-color="#FF9900"/>
<stop offset="1" stop-color="#FFBB00"/>
</linearGradient>
<linearGradient id="paint2_linear_316_1782" x1="341.596" y1="36.1519" x2="371.702" y2="36.1519" gradientUnits="userSpaceOnUse">
<stop stop-color="#FFBB00"/>
<stop offset="0.3" stop-color="#FF9900"/>
<stop offset="0.8" stop-color="#FF9900"/>
<stop offset="1" stop-color="#FFBB00"/>
</linearGradient>
<linearGradient id="paint3_linear_316_1782" x1="376.072" y1="36.1388" x2="419.978" y2="36.1388" gradientUnits="userSpaceOnUse">
<stop stop-color="#FFBB00"/>
<stop offset="0.3" stop-color="#FF9900"/>
<stop offset="0.8" stop-color="#FF9900"/>
<stop offset="1" stop-color="#FFBB00"/>
</linearGradient>
<linearGradient id="paint4_linear_316_1782" x1="-0.274655" y1="36.0991" x2="62.529" y2="36.0991" gradientUnits="userSpaceOnUse">
<stop stop-color="#FFBB00"/>
<stop offset="0.3" stop-color="#FF9900"/>
<stop offset="0.8" stop-color="#FF9900"/>
<stop offset="1" stop-color="#FFBB00"/>
</linearGradient>
<linearGradient id="paint5_linear_316_1782" x1="8.87526" y1="20.1899" x2="34.4329" y2="20.1899" gradientUnits="userSpaceOnUse">
<stop stop-color="#FFBB00"/>
<stop offset="0.3" stop-color="#FF9900"/>
<stop offset="0.8" stop-color="#FF9900"/>
<stop offset="1" stop-color="#FFBB00"/>
</linearGradient>
<linearGradient id="paint6_linear_316_1782" x1="40.2687" y1="38.2923" x2="61.0286" y2="38.2923" gradientUnits="userSpaceOnUse">
<stop stop-color="#FFBB00"/>
<stop offset="0.29" stop-color="#FF9900"/>
<stop offset="0.8" stop-color="#FF9900"/>
<stop offset="1" stop-color="#FFBB00"/>
</linearGradient>
<clipPath id="clip0_316_1782">
<rect width="420" height="72.3988" fill="white"/>
</clipPath>
</defs>
</svg>
