<svg width="211" height="70" viewBox="0 0 211 70" fill="none" xmlns="http://www.w3.org/2000/svg">
<g clip-path="url(#clip0_316_1582)">
<rect width="210.35" height="69.65" fill="white"/>
<path d="M29.2251 69.6496L29.2356 28.0976C29.3249 27.5341 30.6199 26.1901 31.0486 25.5356C35.5881 18.6056 35.1576 9.39886 29.9251 2.97636H70.6109C76.3211 3.34561 81.3786 4.52161 84.9469 9.29036C91.4656 18.0019 88.9736 31.6029 78.9251 36.3121C81.8756 37.7576 84.4429 39.7019 86.1876 42.5246C86.9996 33.9041 91.3939 25.1261 100.063 22.2771C102.261 21.5544 104.545 21.2691 106.839 21.0031H135.8V2.97461H149.275V20.9996L193.295 20.9926C203.865 21.5211 209.325 27.3189 210.166 37.7279L210.35 38.1514V69.6514H177.625L172.165 69.0739C162.194 66.8269 159.495 54.4316 164.427 46.3904C167.633 41.1649 172.653 40.3231 178.406 40.0694C184.489 39.8016 190.773 40.2846 196.875 40.0764V37.0139C196.875 36.6866 196.334 35.1431 196.154 34.7599C194.765 31.8374 191.053 31.5609 188.221 31.3176L149.275 31.3264V53.2889C149.275 53.8489 149.657 55.4291 149.889 55.9996C150.885 58.4479 153.596 59.2126 156.032 59.3089C156.51 59.3281 157.383 58.8661 157.764 59.3246L162.4 69.6496H149.45L145.25 68.8621C137.484 66.5346 136.057 60.0159 135.798 52.7761C135.545 45.6431 135.989 38.4594 135.8 31.3246L109.804 31.3176C107.893 31.5521 106.047 31.6764 104.353 32.6914C101.759 34.2471 101.274 37.2956 100.973 40.0746H129.148V50.3996H100.973C101.112 52.9826 101.815 55.3696 103.864 57.0461C106.367 59.0936 109.508 59.2231 112.599 59.3264C118.102 59.5119 123.645 59.1846 129.148 59.3229V69.6496H108.322L103.915 69.0686C96.9291 67.8576 91.0001 62.8264 88.2841 56.3479C86.5131 64.0094 81.7041 68.3021 73.9131 69.2786C72.6409 69.4379 71.2339 69.3469 69.9966 69.6496H29.2216H29.2251ZM43.4001 30.2746H66.0626C71.9374 30.2746 75.0944 21.1291 70.9434 16.9939C69.8986 15.9526 67.5221 14.8746 66.0626 14.8746H43.4001V30.2746ZM43.4001 42.1746V57.7496H65.3626C71.4841 57.7496 75.0664 50.1984 71.7204 45.2669C69.9949 42.7241 67.0094 42.3251 64.1359 42.1764C57.3284 41.8246 50.2356 42.4354 43.4001 42.1746ZM196.875 50.3996H179.988C179.38 50.3996 177.814 50.9946 177.287 51.3744C175.184 52.8829 175.004 56.9376 177.328 58.3114C178.598 59.0621 180.957 59.2581 182.432 59.3316C187.173 59.5696 192.117 59.1391 196.877 59.3246V50.3996H196.875Z" fill="black"/>
<path d="M16.9751 0C21.1349 0.7035 24.9166 2.87525 27.3386 6.349C37.0284 20.2422 19.9956 37.0545 6.24411 27.2685C2.81061 24.8238 0.703609 21.1155 0.000108778 16.975C0.0876088 15.7325 -0.118891 14.3465 0.000108778 13.125C0.560109 7.3815 5.51961 1.87425 11.0636 0.476L13.1251 0H16.9751Z" fill="black"/>
<path d="M7.35002 69.6498V32.5498C10.7415 34.1091 14.7385 34.5063 18.4153 33.9026C19.9063 33.6576 21.2748 33.0118 22.7483 32.7248V69.6498H7.34827H7.35002Z" fill="black"/>
</g>
<defs>
<clipPath id="clip0_316_1582">
<rect width="210.35" height="69.65" fill="white"/>
</clipPath>
</defs>
</svg>
