<svg width="354" height="116" viewBox="0 0 354 116" fill="none" xmlns="http://www.w3.org/2000/svg">
<g clip-path="url(#clip0_316_1822)">
<path d="M354 0H0V5.71788H354V0Z" fill="black"/>
<path d="M354 110.26H0V115.978H354V110.26Z" fill="black"/>
<path d="M305.851 63.9074V32.446C305.851 32.3622 306.255 31.5236 306.354 31.3716C308.351 28.2952 313.063 29.291 313.728 32.86L313.755 81.9625C313.419 85.6941 308.812 86.9519 306.559 84.0117C301.491 73.9439 296.737 63.7188 291.816 53.5775C291.449 52.8281 291.072 51.827 290.464 51.282V82.7434C290.464 82.8168 289.872 83.8597 289.762 84.0117C287.712 86.8261 283.158 85.7832 282.587 82.3294L282.561 33.2269C282.901 29.4167 287.466 28.248 289.756 31.1777C294.824 41.2456 299.578 51.4707 304.499 61.6119C304.866 62.3614 305.243 63.3624 305.851 63.9074Z" fill="black"/>
<path d="M53.7985 75.8674C54.5532 75.0918 55.3289 73.5719 55.4494 72.487L55.4966 32.8864C56.6863 27.745 63.6096 28.8561 63.5467 34.0132C62.9911 46.4028 64.2594 59.3899 63.5467 71.7061C62.509 89.735 37.7193 90.2905 35.5443 72.8539L35.5181 33.2323C36.2256 28.222 43.0336 28.3268 43.5839 33.4577L43.7411 73.3413C45.0252 77.707 50.5963 79.1483 53.7985 75.8727V75.8674Z" fill="black"/>
<path d="M254.972 73.9964L251.985 83.9332C249.338 87.2298 244.459 85.4112 244.7 81.1922L258.201 32.1579C259.176 28.9347 263.981 28.6412 265.475 31.5814L279.206 81.1713C279.463 82.9479 278.279 84.8871 276.555 85.4217C270.276 87.3713 270.763 77.3506 268.824 73.9964H254.967H254.972ZM266.785 66.0773L261.953 48.9132L257.315 66.0773H266.785Z" fill="black"/>
<path d="M331.27 29.6423C336.49 29.1078 343.214 31.6444 345.295 36.812C346.621 40.1085 343.833 43.426 340.389 42.3045C338.44 41.6703 337.973 39.6211 336.312 38.4943C330.793 34.747 323.849 41.8223 328.938 47.8337C333.073 52.713 338.654 57.0997 342.748 62.0367C351.552 72.6548 341.982 88.1733 328.503 85.3484C325.028 84.6199 320.668 81.5802 319.163 78.3098C317.691 75.1128 320.06 72.1412 323.519 72.5762C325.929 72.8802 326.427 75.6736 328.539 76.8266C334.719 80.207 340.829 72.985 336.799 67.3877C332.392 62.152 326.558 57.5819 322.235 52.3566C315.379 44.0654 320.484 30.7377 331.265 29.6371L331.27 29.6423Z" fill="black"/>
<path d="M90.2965 60.4327C96.2921 67.1044 97.3718 76.3337 89.8772 82.4447C83.3994 87.7276 71.4867 86.2077 68.1273 78.1576C66.707 74.7457 69.5947 71.6955 73.1533 72.7437C75.2654 73.3621 75.8105 76.4595 78.7769 77.3767C84.7883 79.2372 89.3374 72.5498 85.9255 67.4713C81.5179 62.3299 75.8734 57.7965 71.5286 52.6656C63.1484 42.755 71.0517 28.3161 83.9392 29.6106C87.7913 29.9985 92.9222 33.2636 94.3582 36.948C95.6842 40.3546 92.4977 43.5883 89.1173 42.1889C87.5397 41.5338 87.4297 40.3703 86.4339 39.3483C81.1668 33.9659 72.4825 41.1407 77.7601 47.6238C81.2925 51.9685 86.4758 56.1665 90.307 60.4274L90.2965 60.4327Z" fill="black"/>
<path d="M231.268 37.8711V52.8602H243.206C243.903 52.8602 245.25 54.1914 245.602 54.8046C246.624 56.576 246.084 59.0078 244.359 60.1241C244.186 60.2342 243.096 60.7478 243.007 60.7478H231.268V81.5596C231.268 81.7064 230.943 82.6864 230.848 82.917C229.349 86.6434 223.694 85.852 223.196 81.7326L223.165 34.0137C223.217 31.4561 224.978 30.0044 227.421 29.7843C231.545 29.4122 239.25 29.4436 243.406 29.7738C246.372 30.0096 248.673 32.2423 247.535 35.2978C247.195 36.2149 245.554 37.8658 244.58 37.8658H231.262L231.268 37.8711Z" fill="black"/>
<path d="M115.238 37.8704V82.5442C115.238 82.6333 114.724 83.7182 114.614 83.8912C113.115 86.1972 109.672 86.1605 108.053 84.0065C107.89 83.7863 107.345 82.9216 107.345 82.7434V37.8704H99.7458C99.4471 37.8704 97.8591 36.9847 97.5656 36.6964C94.9608 34.1231 97.1935 29.7417 100.721 29.7784C107.492 30.1505 114.74 29.3067 121.454 29.7784C124.541 29.9932 126.952 32.0162 125.783 35.3076C125.432 36.3033 123.875 37.8756 122.827 37.8756H115.228L115.238 37.8704Z" fill="black"/>
<path d="M24.6113 29.6318C27.1375 29.2021 29.129 30.549 29.5798 33.0542C29.0033 45.9155 30.4026 59.5262 29.606 72.2984C29.0557 81.1032 21.2991 87.0412 12.62 85.3117C9.52264 84.6985 5.97452 83.0214 6.75018 79.2322C7.01223 77.9429 8.5059 76.596 9.8109 76.3759C12.6829 75.8885 13.9303 78.5299 17.6147 77.2721C20.9112 76.1453 21.5401 73.4462 21.7131 70.3226C22.3892 57.9854 21.189 45.0245 21.7026 32.6349C21.886 31.3509 23.3745 29.8415 24.6166 29.6318H24.6113Z" fill="black"/>
<path d="M186.08 82.5448C185.786 83.5982 183.538 83.855 183.318 81.7534L183.496 39.9201C183.711 39.3698 184.434 39.113 184.99 39.0501C187.023 38.809 191.169 38.9086 193.291 39.0501C199.035 39.4222 203.076 43.1747 203.454 49.0079C203.847 55.0088 202.762 60.7739 196.342 62.7287L203.406 81.6119C203.731 83.4514 201.415 84.0751 200.644 82.3928C198.16 76.6015 196.52 69.935 193.931 64.2538C193.747 63.8555 193.627 63.431 193.286 63.1218H186.379L186.085 63.4153V82.55L186.08 82.5448ZM186.08 60.3546H194.858C196.473 60.3546 199.177 57.9228 199.864 56.4815C201.027 54.0392 201.032 48.6306 199.984 46.1516C199.025 43.8928 196.163 41.8069 193.674 41.8069H186.373L186.08 42.1004V60.3441V60.3546Z" fill="black"/>
<path d="M165.315 38.9151C172.081 38.1027 177.59 43.2127 176.793 49.9944C176.29 57.9607 177.49 66.8022 176.809 74.6636C175.823 86.0417 157.821 86.3247 156.867 74.0714C157.354 65.6544 156.243 56.5509 156.867 48.2178C157.208 43.6843 160.677 39.4706 165.315 38.9098V38.9151ZM165.509 41.6718C162.522 42.1016 159.943 45.0889 159.66 48.0553C160.153 56.3884 158.921 65.6492 159.629 73.8775C160.342 82.1686 172.228 82.981 173.989 74.8051C173.517 66.1051 174.791 56.4094 174.047 47.8247C173.68 43.569 169.561 41.0901 165.509 41.6718Z" fill="black"/>
<path d="M138.917 58.9757H150.855C151.322 58.9757 151.935 59.9715 151.919 60.4589C151.909 60.7943 151.248 61.7377 151.055 61.7377H138.917V82.1512C138.917 83.1365 136.39 83.6291 136.144 81.7686L136.244 40.0296C136.5 39.3116 137.135 39.1334 137.832 39.0548C142.166 38.5674 147.396 39.406 151.825 39.0706C154.115 39.3903 153.198 41.8116 152.632 41.8116H139.215L138.922 42.1051V58.9704L138.917 58.9757Z" fill="black"/>
<path d="M212.573 83.2579C213.907 83.2579 214.989 82.1762 214.989 80.8419C214.989 79.5075 213.907 78.4258 212.573 78.4258C211.238 78.4258 210.157 79.5075 210.157 80.8419C210.157 82.1762 211.238 83.2579 212.573 83.2579Z" fill="black"/>
</g>
<defs>
<clipPath id="clip0_316_1822">
<rect width="354" height="115.982" fill="white"/>
</clipPath>
</defs>
</svg>
