<svg width="367" height="67" viewBox="0 0 367 67" fill="none" xmlns="http://www.w3.org/2000/svg">
<g clip-path="url(#clip0_316_1756)">
<path d="M257.778 17.2363H274.001C274.056 17.2363 274.761 17.941 274.761 17.9967V65.1423C274.761 65.198 274.056 65.9027 274.001 65.9027H257.778C257.723 65.9027 257.018 65.198 257.018 65.1423V17.9967C257.018 17.8599 257.611 17.4949 257.778 17.2363Z" fill="#5B108A"/>
<path d="M231.925 0C243.565 1.30791 252.619 11.4873 248.142 23.3142C246.505 27.6384 243.22 29.3468 239.783 31.9322C253.075 35.4757 254.981 54.0349 243.803 61.5629C240.721 63.6414 233.527 65.9074 229.897 65.9074H194.665V0H231.925ZM211.901 25.3471H227.87C228.559 25.3471 231.15 23.8161 231.682 23.076C233.319 20.7998 233.035 17.0586 230.921 15.2032C230.08 14.4681 226.795 13.1805 225.847 13.1805H211.906V25.3471H211.901ZM211.901 52.2149H229.391C232.295 52.2149 234.739 48.1746 234.668 45.4219C234.592 42.4006 231.996 39.0345 228.884 39.0345H211.901V52.2149Z" fill="#5B108A"/>
<path d="M306.192 1.51953V17.7416C306.562 17.8785 306.8 17.2347 306.952 17.2347H317.091C317.147 17.2347 317.851 17.9394 317.851 17.9951V29.6548C317.851 29.7105 317.147 30.4152 317.091 30.4152H306.192V47.9047C306.192 48.0517 307.444 50.1808 307.697 50.4546C309.537 52.4164 312.118 52.2694 314.576 52.239C315.357 52.2289 317.846 51.3012 317.846 52.4722V64.6388C317.846 66.3877 307.043 66.55 305.436 66.4029C295.287 65.4803 288.444 56.9485 288.444 46.8958V30.4202H282.36V18.0002C282.36 16.8849 287.435 16.9964 288.444 17.7467V7.34936C293.817 4.61694 300.215 2.72098 306.187 1.51953H306.192Z" fill="#5B108A"/>
<path d="M363.48 35.4856C363.971 37.853 360.428 40.3674 358.501 41.7311C353.173 45.5027 346.289 46.9982 340.221 44.1086C337.94 43.0238 335.583 41.7108 335.091 39.0342C334.381 33.8938 330.204 26.6192 329.56 21.4991C329.099 17.8389 330.701 15.7503 334.447 17.1242C343.222 23.7397 354.998 28.8142 363.48 35.4856Z" fill="#5B108A"/>
<path d="M335.091 39.033C343.881 48.5837 356.403 44.8324 363.48 35.4844C367.297 38.4855 367.748 42.7083 364.448 46.338L333.276 65.8958C331.081 66.3672 329.464 64.6741 329.068 62.6311C329.93 55.8736 335.993 45.5826 335.091 39.038V39.033Z" fill="#24CD7B"/>
<path d="M179.964 32.9499C177.566 31.9056 175.285 30.5368 172.755 29.7663C170.043 28.9399 166.393 28.0477 163.605 28.5141C159.944 29.1224 157.491 32.154 161.947 33.984C171.381 37.857 187.426 36.0422 186.549 51.95C185.58 69.48 158.637 68.2583 147.012 63.3714V49.177C148.873 49.8766 150.439 50.997 152.325 51.7219C156.756 53.4353 163.686 55.1285 168.339 54.0285C171.807 53.2072 172.471 50.3024 168.958 48.7766C160.892 45.2685 145.618 46.9921 144.016 34.6887C141.629 16.3729 167.868 12.2058 179.964 19.521V32.9549V32.9499Z" fill="black"/>
<path d="M118.627 1.51953V17.7416C118.997 17.8785 119.235 17.2347 119.387 17.2347H129.019C129.075 17.2347 129.779 17.9394 129.779 17.9951V30.4152H118.627V47.9047C118.627 48.0517 119.879 50.1808 120.132 50.4546C121.973 52.4164 124.553 52.2694 127.012 52.239C127.792 52.2289 130.281 51.3012 130.281 52.4722V64.6388C130.281 67.1532 116.3 66.2255 114.054 65.6577C106.587 63.7618 100.879 55.5747 100.879 47.9097V30.4202H94.7954V18.0002C94.7954 16.8849 99.8699 16.9964 100.879 17.7467V6.58894L118.622 1.51953H118.627Z" fill="black"/>
<path d="M133.324 18.242C134.465 17.0811 137.537 14.7745 137.41 12.9546C137.39 12.686 134.708 11.6721 134.45 8.75209C133.892 2.51164 142.586 -0.109246 145.43 5.8828C149.156 13.715 140.847 19.9048 133.319 18.242H133.324Z" fill="black"/>
<path d="M91.2498 43.5955H61.3403C61.9334 54.4998 72.2902 54.9764 80.604 52.2135V64.6336C80.604 66.6867 68.9697 66.5042 67.236 66.342C34.2037 63.2902 38.6192 13.2196 71.7275 16.2258C81.0147 17.0724 91.2549 26.0807 91.2549 35.7329V43.5905L91.2498 43.5955ZM76.5485 34.9775C75.4636 25.7715 62.9067 26.0604 61.8472 34.9775H76.5485Z" fill="black"/>
<path d="M17.7429 1.01367V51.2009H40.0484V65.1417C40.0484 65.1975 39.3437 65.9021 39.2879 65.9021H0V1.01367H17.7429Z" fill="black"/>
</g>
<defs>
<clipPath id="clip0_316_1756">
<rect width="366.655" height="66.5259" fill="white"/>
</clipPath>
</defs>
</svg>
