<svg width="30" height="31" viewBox="0 0 30 31" fill="none" xmlns="http://www.w3.org/2000/svg">
<g clip-path="url(#clip0_3303_26571)">
<path d="M14.6836 13.0527H24.4731C27.1763 13.0527 29.3678 15.2442 29.3678 17.9475V26.1054C29.3678 28.8086 27.1763 31.0001 24.4731 31.0001C21.7698 31.0001 19.5783 28.8086 19.5783 26.1054V17.9475C19.5783 15.2442 17.3869 13.0527 14.6836 13.0527Z" fill="url(#paint0_radial_3303_26571)"/>
<path d="M3.26367 16.3147C3.26367 13.6114 5.45514 11.4199 8.15843 11.4199H14.6847C17.388 11.4199 19.5795 13.6114 19.5795 16.3147V26.1041C19.5795 28.8074 21.7709 30.9989 24.4742 30.9989L11.4215 30.9988C6.91606 30.9988 3.26367 27.3464 3.26367 22.8409V16.3147Z" fill="url(#paint1_radial_3303_26571)"/>
<path d="M3.26367 16.3147C3.26367 13.6114 5.45514 11.4199 8.15843 11.4199H14.6847C17.388 11.4199 19.5795 13.6114 19.5795 16.3147V26.1041C19.5795 28.8074 21.7709 30.9989 24.4742 30.9989L11.4215 30.9988C6.91606 30.9988 3.26367 27.3464 3.26367 22.8409V16.3147Z" fill="url(#paint2_linear_3303_26571)" fill-opacity="0.7"/>
<path d="M3.26367 16.3147C3.26367 13.6114 5.45514 11.4199 8.15843 11.4199H14.6847C17.388 11.4199 19.5795 13.6114 19.5795 16.3147V26.1041C19.5795 28.8074 21.7709 30.9989 24.4742 30.9989L11.4215 30.9988C6.91606 30.9988 3.26367 27.3464 3.26367 22.8409V16.3147Z" fill="url(#paint3_radial_3303_26571)" fill-opacity="0.7"/>
<path d="M23.6571 11.4216C25.9098 11.4216 27.736 9.59534 27.736 7.34262C27.736 5.0899 25.9098 3.26367 23.6571 3.26367C21.4044 3.26367 19.5781 5.0899 19.5781 7.34262C19.5781 9.59534 21.4044 11.4216 23.6571 11.4216Z" fill="url(#paint4_radial_3303_26571)"/>
<path d="M23.6571 11.4216C25.9098 11.4216 27.736 9.59534 27.736 7.34262C27.736 5.0899 25.9098 3.26367 23.6571 3.26367C21.4044 3.26367 19.5781 5.0899 19.5781 7.34262C19.5781 9.59534 21.4044 11.4216 23.6571 11.4216Z" fill="url(#paint5_radial_3303_26571)" fill-opacity="0.46"/>
<path d="M23.6571 11.4216C25.9098 11.4216 27.736 9.59534 27.736 7.34262C27.736 5.0899 25.9098 3.26367 23.6571 3.26367C21.4044 3.26367 19.5781 5.0899 19.5781 7.34262C19.5781 9.59534 21.4044 11.4216 23.6571 11.4216Z" fill="url(#paint6_radial_3303_26571)" fill-opacity="0.4"/>
<path d="M11.4201 9.78947C14.1234 9.78947 16.3149 7.59802 16.3149 4.89474C16.3149 2.19145 14.1234 0 11.4201 0C8.71685 0 6.52539 2.19145 6.52539 4.89474C6.52539 7.59802 8.71685 9.78947 11.4201 9.78947Z" fill="url(#paint7_radial_3303_26571)"/>
<path d="M11.4201 9.78947C14.1234 9.78947 16.3149 7.59802 16.3149 4.89474C16.3149 2.19145 14.1234 0 11.4201 0C8.71685 0 6.52539 2.19145 6.52539 4.89474C6.52539 7.59802 8.71685 9.78947 11.4201 9.78947Z" fill="url(#paint8_radial_3303_26571)" fill-opacity="0.6"/>
<path d="M11.4201 9.78947C14.1234 9.78947 16.3149 7.59802 16.3149 4.89474C16.3149 2.19145 14.1234 0 11.4201 0C8.71685 0 6.52539 2.19145 6.52539 4.89474C6.52539 7.59802 8.71685 9.78947 11.4201 9.78947Z" fill="url(#paint9_radial_3303_26571)" fill-opacity="0.5"/>
<path d="M10.4013 15.5H2.65132C1.18703 15.5 0 16.687 0 18.1513V25.9013C0 27.3656 1.18703 28.5526 2.65132 28.5526H10.4013C11.8656 28.5526 13.0526 27.3656 13.0526 25.9013V18.1513C13.0526 16.687 11.8656 15.5 10.4013 15.5Z" fill="url(#paint10_radial_3303_26571)"/>
<path d="M10.4013 15.5H2.65132C1.18703 15.5 0 16.687 0 18.1513V25.9013C0 27.3656 1.18703 28.5526 2.65132 28.5526H10.4013C11.8656 28.5526 13.0526 27.3656 13.0526 25.9013V18.1513C13.0526 16.687 11.8656 15.5 10.4013 15.5Z" fill="url(#paint11_radial_3303_26571)" fill-opacity="0.7"/>
<path d="M9.36463 19.6648H7.36831V25.7555H5.68387V19.6648H3.6875V18.2969H9.36463V19.6648Z" fill="white"/>
</g>
<defs>
<radialGradient id="paint0_radial_3303_26571" cx="0" cy="0" r="1" gradientUnits="userSpaceOnUse" gradientTransform="translate(29.202 14.8262) scale(10.9955 27.1408)">
<stop stop-color="#A98AFF"/>
<stop offset="0.14" stop-color="#8C75FF"/>
<stop offset="0.565" stop-color="#5F50E2"/>
<stop offset="0.9" stop-color="#3C2CB8"/>
</radialGradient>
<radialGradient id="paint1_radial_3303_26571" cx="0" cy="0" r="1" gradientUnits="userSpaceOnUse" gradientTransform="translate(3.9265 10.1147) rotate(68.1539) scale(26.7187 27.0215)">
<stop stop-color="#85C2FF"/>
<stop offset="0.69" stop-color="#7588FF"/>
<stop offset="1" stop-color="#6459FE"/>
</radialGradient>
<linearGradient id="paint2_linear_3303_26571" x1="13.5375" y1="11.4199" x2="13.5375" y2="30.9989" gradientUnits="userSpaceOnUse">
<stop offset="0.801159" stop-color="#6864F6" stop-opacity="0"/>
<stop offset="1" stop-color="#5149DE"/>
</linearGradient>
<radialGradient id="paint3_radial_3303_26571" cx="0" cy="0" r="1" gradientUnits="userSpaceOnUse" gradientTransform="translate(19.1716 10.7673) rotate(113.326) scale(15.6783 12.5854)">
<stop stop-color="#BD96FF"/>
<stop offset="0.686685" stop-color="#BD96FF" stop-opacity="0"/>
</radialGradient>
<radialGradient id="paint4_radial_3303_26571" cx="0" cy="0" r="1" gradientUnits="userSpaceOnUse" gradientTransform="translate(23.6571 6.17718) rotate(-90) scale(8.1579 10.2966)">
<stop offset="0.268201" stop-color="#6868F7"/>
<stop offset="1" stop-color="#3923B1"/>
</radialGradient>
<radialGradient id="paint5_radial_3303_26571" cx="0" cy="0" r="1" gradientUnits="userSpaceOnUse" gradientTransform="translate(20.2859 5.33904) rotate(40.0516) scale(5.82987 8.43224)">
<stop offset="0.270711" stop-color="#A1D3FF"/>
<stop offset="0.813393" stop-color="#A1D3FF" stop-opacity="0"/>
</radialGradient>
<radialGradient id="paint6_radial_3303_26571" cx="0" cy="0" r="1" gradientUnits="userSpaceOnUse" gradientTransform="translate(26.9057 5.19595) rotate(-41.6581) scale(6.94461 17.0356)">
<stop stop-color="#E3ACFD"/>
<stop offset="0.816041" stop-color="#9FA2FF" stop-opacity="0"/>
</radialGradient>
<radialGradient id="paint7_radial_3303_26571" cx="0" cy="0" r="1" gradientUnits="userSpaceOnUse" gradientTransform="translate(11.4201 3.49624) rotate(-90) scale(9.78947 12.3559)">
<stop offset="0.268201" stop-color="#8282FF"/>
<stop offset="1" stop-color="#3923B1"/>
</radialGradient>
<radialGradient id="paint8_radial_3303_26571" cx="0" cy="0" r="1" gradientUnits="userSpaceOnUse" gradientTransform="translate(7.37479 2.49047) rotate(40.0516) scale(6.99584 10.1186)">
<stop offset="0.270711" stop-color="#A1D3FF"/>
<stop offset="0.813393" stop-color="#A1D3FF" stop-opacity="0"/>
</radialGradient>
<radialGradient id="paint9_radial_3303_26571" cx="0" cy="0" r="1" gradientUnits="userSpaceOnUse" gradientTransform="translate(15.3185 2.31872) rotate(-41.6581) scale(8.33353 20.4428)">
<stop stop-color="#E3ACFD"/>
<stop offset="0.816041" stop-color="#9FA2FF" stop-opacity="0"/>
</radialGradient>
<radialGradient id="paint10_radial_3303_26571" cx="0" cy="0" r="1" gradientUnits="userSpaceOnUse" gradientTransform="translate(0 15.5) rotate(45) scale(18.4592)">
<stop offset="0.046875" stop-color="#688EFF"/>
<stop offset="0.946875" stop-color="#230F94"/>
</radialGradient>
<radialGradient id="paint11_radial_3303_26571" cx="0" cy="0" r="1" gradientUnits="userSpaceOnUse" gradientTransform="translate(6.52632 23.3316) rotate(90) scale(9.13684 10.6625)">
<stop offset="0.570647" stop-color="#6965F6" stop-opacity="0"/>
<stop offset="1" stop-color="#8F8FFF"/>
</radialGradient>
<clipPath id="clip0_3303_26571">
<rect width="29.3684" height="31" fill="white"/>
</clipPath>
</defs>
</svg>
