<svg width="157" height="177" viewBox="0 0 157 177" fill="none" xmlns="http://www.w3.org/2000/svg">
<path d="M155.06 88.7609V33.3477C76.4126 64.0886 47.6584 87.5534 55.4812 161.562C55.867 165.224 58.0475 168.511 61.3872 170.06C67.5974 172.936 73.199 174.518 77.5291 174.518C99.6816 174.518 155.06 133.142 155.06 88.7609Z" fill="url(#paint0_linear_316_6262)"/>
<path d="M155.06 88.7609V33.3477C76.4126 64.0886 47.6584 87.5534 55.4812 161.562C55.867 165.224 58.0475 168.511 61.3872 170.06C67.5974 172.936 73.199 174.518 77.5291 174.518C99.6816 174.518 155.06 133.142 155.06 88.7609Z" fill="url(#paint1_radial_316_6262)"/>
<path d="M77.5309 0.00195312C92.4401 0.00195312 122.398 7.53989 140.397 12.4689C142.077 12.9302 143.655 13.376 145.107 13.7966C151.092 15.5314 155.062 21.0671 155.062 27.2986V36.4628C153.284 77.2905 140.201 89.1663 103.684 118.57C98.8868 122.815 93.9578 126.85 88.9551 130.95C81.7835 136.823 74.4588 142.822 67.1515 149.735C65.3638 151.428 64.0369 153.549 63.2959 155.897C62.5549 158.245 62.4243 160.743 62.9163 163.156C63.4084 165.568 64.5069 167.816 66.1082 169.686C67.7096 171.556 69.761 172.988 72.0689 173.846C70.6396 173.521 69.2279 173.123 67.8396 172.653C54.4849 168.176 36.457 155.982 22.3406 139.788C11.213 70.4484 33.0244 36.4628 77.5309 0.00195312Z" fill="url(#paint2_radial_316_6262)"/>
<path d="M77.5309 0.00195312C92.4401 0.00195312 122.398 7.53989 140.397 12.4689C142.077 12.9302 143.655 13.376 145.107 13.7966C151.092 15.5314 155.062 21.0671 155.062 27.2986V36.4628C153.284 77.2905 140.201 89.1663 103.684 118.57C98.8868 122.815 93.9578 126.85 88.9551 130.95C81.7835 136.823 74.4588 142.822 67.1515 149.735C65.3638 151.428 64.0369 153.549 63.2959 155.897C62.5549 158.245 62.4243 160.743 62.9163 163.156C63.4084 165.568 64.5069 167.816 66.1082 169.686C67.7096 171.556 69.761 172.988 72.0689 173.846C70.6396 173.521 69.2279 173.123 67.8396 172.653C54.4849 168.176 36.457 155.982 22.3406 139.788C11.213 70.4484 33.0244 36.4628 77.5309 0.00195312Z" fill="url(#paint3_radial_316_6262)"/>
<path d="M77.5309 0.00195312C92.4401 0.00195312 122.398 7.53989 140.397 12.4689C142.077 12.9302 143.655 13.376 145.107 13.7966C151.092 15.5314 155.062 21.0671 155.062 27.2986V36.4628C153.284 77.2905 140.201 89.1663 103.684 118.57C98.8868 122.815 93.9578 126.85 88.9551 130.95C81.7835 136.823 74.4588 142.822 67.1515 149.735C65.3638 151.428 64.0369 153.549 63.2959 155.897C62.5549 158.245 62.4243 160.743 62.9163 163.156C63.4084 165.568 64.5069 167.816 66.1082 169.686C67.7096 171.556 69.761 172.988 72.0689 173.846C70.6396 173.521 69.2279 173.123 67.8396 172.653C54.4849 168.176 36.457 155.982 22.3406 139.788C11.213 70.4484 33.0244 36.4628 77.5309 0.00195312Z" fill="url(#paint4_radial_316_6262)"/>
<path d="M77.5309 0.00195312C92.4401 0.00195312 122.398 7.53989 140.397 12.4689C142.077 12.9302 143.655 13.376 145.107 13.7966C151.092 15.5314 155.062 21.0671 155.062 27.2986V36.4628C153.284 77.2905 140.201 89.1663 103.684 118.57C98.8868 122.815 93.9578 126.85 88.9551 130.95C81.7835 136.823 74.4588 142.822 67.1515 149.735C65.3638 151.428 64.0369 153.549 63.2959 155.897C62.5549 158.245 62.4243 160.743 62.9163 163.156C63.4084 165.568 64.5069 167.816 66.1082 169.686C67.7096 171.556 69.761 172.988 72.0689 173.846C70.6396 173.521 69.2279 173.123 67.8396 172.653C54.4849 168.176 36.457 155.982 22.3406 139.788C11.213 70.4484 33.0244 36.4628 77.5309 0.00195312Z" fill="url(#paint5_radial_316_6262)"/>
<path d="M10.3736 13.6571C27.4905 8.86761 61.3618 0.00195312 77.5309 0.00195312C78.6938 0.00195312 79.9518 0.048472 81.2853 0.137632C96.0666 1.5642 107.621 14.0195 107.621 29.1749C107.621 34.6776 106.097 39.8237 103.449 44.2159C97.7897 55.4947 88.5247 64.3603 74.4258 75.9667C70.3767 79.3005 65.7326 82.9813 61.104 86.6505C56.8855 89.974 52.6935 93.3312 48.5285 96.7217C39.2093 104.362 33.5127 109.034 30.3805 114.895C27.2964 119.627 25.6578 125.156 25.6647 130.804C25.6647 139.397 29.3784 147.123 35.2901 152.461C35.4775 152.671 35.6674 152.877 35.86 153.077L36.0131 153.308C34.1155 151.684 32.2631 150.008 30.458 148.282C13.8451 132.39 0 110.951 0 88.7612V27.4479C0 21.0283 4.19054 15.388 10.3736 13.6571Z" fill="url(#paint6_radial_316_6262)"/>
<path d="M10.3736 13.6571C27.4905 8.86761 61.3618 0.00195312 77.5309 0.00195312C78.6938 0.00195312 79.9518 0.048472 81.2853 0.137632C96.0666 1.5642 107.621 14.0195 107.621 29.1749C107.621 34.6776 106.097 39.8237 103.449 44.2159C97.7897 55.4947 88.5247 64.3603 74.4258 75.9667C70.3767 79.3005 65.7326 82.9813 61.104 86.6505C56.8855 89.974 52.6935 93.3312 48.5285 96.7217C39.2093 104.362 33.5127 109.034 30.3805 114.895C27.2964 119.627 25.6578 125.156 25.6647 130.804C25.6647 139.397 29.3784 147.123 35.2901 152.461C35.4775 152.671 35.6674 152.877 35.86 153.077L36.0131 153.308C34.1155 151.684 32.2631 150.008 30.458 148.282C13.8451 132.39 0 110.951 0 88.7612V27.4479C0 21.0283 4.19054 15.388 10.3736 13.6571Z" fill="url(#paint7_linear_316_6262)"/>
<path d="M10.3736 13.6571C27.4905 8.86761 61.3618 0.00195312 77.5309 0.00195312C78.6938 0.00195312 79.9518 0.048472 81.2853 0.137632C96.0666 1.5642 107.621 14.0195 107.621 29.1749C107.621 34.6776 106.097 39.8237 103.449 44.2159C97.7897 55.4947 88.5247 64.3603 74.4258 75.9667C70.3767 79.3005 65.7326 82.9813 61.104 86.6505C56.8855 89.974 52.6935 93.3312 48.5285 96.7217C39.2093 104.362 33.5127 109.034 30.3805 114.895C27.2964 119.627 25.6578 125.156 25.6647 130.804C25.6647 139.397 29.3784 147.123 35.2901 152.461C35.4775 152.671 35.6674 152.877 35.86 153.077L36.0131 153.308C34.1155 151.684 32.2631 150.008 30.458 148.282C13.8451 132.39 0 110.951 0 88.7612V27.4479C0 21.0283 4.19054 15.388 10.3736 13.6571Z" fill="url(#paint8_radial_316_6262)"/>
<defs>
<linearGradient id="paint0_linear_316_6262" x1="147.096" y1="84.0813" x2="44.1096" y2="166.622" gradientUnits="userSpaceOnUse">
<stop stop-color="#143DE0"/>
<stop offset="0.72" stop-color="#143DE0"/>
<stop offset="0.98" stop-color="#003375"/>
<stop offset="1" stop-color="#003375"/>
</linearGradient>
<radialGradient id="paint1_radial_316_6262" cx="0" cy="0" r="1" gradientUnits="userSpaceOnUse" gradientTransform="translate(89.3789 103.934) rotate(50.288) scale(91.7568 274.314)">
<stop stop-color="#003375" stop-opacity="0.6"/>
<stop offset="0.23" stop-color="#003375" stop-opacity="0.6"/>
<stop offset="0.43" stop-color="#003375" stop-opacity="0.06"/>
<stop offset="1" stop-color="#003375" stop-opacity="0.06"/>
</radialGradient>
<radialGradient id="paint2_radial_316_6262" cx="0" cy="0" r="1" gradientUnits="userSpaceOnUse" gradientTransform="translate(160.129 -47.4206) rotate(119.584) scale(293.215 188.473)">
<stop stop-color="#23C0FE"/>
<stop offset="0.17" stop-color="#23C0FE"/>
<stop offset="0.53" stop-color="#1C91FF"/>
<stop offset="1" stop-color="#1C91FF"/>
</radialGradient>
<radialGradient id="paint3_radial_316_6262" cx="0" cy="0" r="1" gradientUnits="userSpaceOnUse" gradientTransform="translate(60.472 57.6616) rotate(43.382) scale(48.8231 86.8749)">
<stop stop-color="#1B44B1" stop-opacity="0.7"/>
<stop offset="0.14" stop-color="#1B44B1" stop-opacity="0.7"/>
<stop offset="1" stop-color="#045ED1" stop-opacity="0"/>
</radialGradient>
<radialGradient id="paint4_radial_316_6262" cx="0" cy="0" r="1" gradientUnits="userSpaceOnUse" gradientTransform="translate(133.92 94.5357) rotate(28.894) scale(110.046 161.302)">
<stop stop-color="#045ED1" stop-opacity="0"/>
<stop offset="0.73" stop-color="#045ED1" stop-opacity="0"/>
<stop offset="0.95" stop-color="#1B44B1" stop-opacity="0.7"/>
<stop offset="1" stop-color="#1B44B1" stop-opacity="0.7"/>
</radialGradient>
<radialGradient id="paint5_radial_316_6262" cx="0" cy="0" r="1" gradientUnits="userSpaceOnUse" gradientTransform="translate(93.914 48.5623) rotate(-111.097) scale(178.251 136.251)">
<stop stop-color="#11A7FF" stop-opacity="0"/>
<stop offset="0.64" stop-color="#11A7FF" stop-opacity="0"/>
<stop offset="0.8" stop-color="#6AB3FF" stop-opacity="0.5"/>
<stop offset="1" stop-color="#6AB3FF" stop-opacity="0.5"/>
</radialGradient>
<radialGradient id="paint6_radial_316_6262" cx="0" cy="0" r="1" gradientUnits="userSpaceOnUse" gradientTransform="translate(107.622 -8.27521) rotate(126.614) scale(213.974 238.94)">
<stop stop-color="#92EEFE"/>
<stop offset="0.21" stop-color="#35DDFF"/>
<stop offset="0.61" stop-color="#15BDFB"/>
<stop offset="0.8" stop-color="#08B1F9"/>
<stop offset="1" stop-color="#08B1F9"/>
</radialGradient>
<linearGradient id="paint7_linear_316_6262" x1="58.0008" y1="60.8811" x2="0" y2="60.8811" gradientUnits="userSpaceOnUse">
<stop stop-color="#22CBFD" stop-opacity="0"/>
<stop offset="0.11" stop-color="#22CBFD" stop-opacity="0"/>
<stop offset="0.97" stop-color="#92DEFF" stop-opacity="0.8"/>
<stop offset="1" stop-color="#92DEFF" stop-opacity="0.8"/>
</linearGradient>
<radialGradient id="paint8_radial_316_6262" cx="0" cy="0" r="1" gradientUnits="userSpaceOnUse" gradientTransform="translate(65.6826 24.9513) rotate(-87.723) scale(167.976 89.14)">
<stop stop-color="#92DEFF" stop-opacity="0"/>
<stop offset="0.66" stop-color="#92DEFF" stop-opacity="0"/>
<stop offset="0.85" stop-color="#92DEFF" stop-opacity="0.5"/>
<stop offset="1" stop-color="#92DEFF" stop-opacity="0.5"/>
</radialGradient>
</defs>
</svg>
