<svg width="169" height="178" viewBox="0 0 169 178" fill="none" xmlns="http://www.w3.org/2000/svg">
<g clip-path="url(#clip0_316_1694)">
<path d="M84.1313 74.7832H140.219C155.707 74.7832 168.263 87.3389 168.263 102.827V149.567C168.263 165.055 155.707 177.611 140.219 177.611C124.731 177.611 112.175 165.055 112.175 149.567V102.827C112.175 87.3389 99.6195 74.7832 84.1313 74.7832Z" fill="url(#paint0_radial_316_1694)"/>
<path d="M18.6953 93.4794C18.6953 77.9912 31.2511 65.4355 46.7393 65.4355H84.1311C99.6192 65.4355 112.175 77.9912 112.175 93.4794V149.567C112.175 165.055 124.731 177.611 140.219 177.611L65.4347 177.611C39.6213 177.611 18.6953 156.685 18.6953 130.871V93.4794Z" fill="url(#paint1_radial_316_1694)"/>
<path d="M18.6953 93.4794C18.6953 77.9912 31.2511 65.4355 46.7393 65.4355H84.1311C99.6192 65.4355 112.175 77.9912 112.175 93.4794V149.567C112.175 165.055 124.731 177.611 140.219 177.611L65.4347 177.611C39.6213 177.611 18.6953 156.685 18.6953 130.871V93.4794Z" fill="url(#paint2_linear_316_1694)" fill-opacity="0.7"/>
<path d="M18.6953 93.4794C18.6953 77.9912 31.2511 65.4355 46.7393 65.4355H84.1311C99.6192 65.4355 112.175 77.9912 112.175 93.4794V149.567C112.175 165.055 124.731 177.611 140.219 177.611L65.4347 177.611C39.6213 177.611 18.6953 156.685 18.6953 130.871V93.4794Z" fill="url(#paint3_radial_316_1694)" fill-opacity="0.7"/>
<path d="M135.545 65.4351C148.452 65.4351 158.915 54.9719 158.915 42.0652C158.915 29.1585 148.452 18.6953 135.545 18.6953C122.638 18.6953 112.175 29.1585 112.175 42.0652C112.175 54.9719 122.638 65.4351 135.545 65.4351Z" fill="url(#paint4_radial_316_1694)"/>
<path d="M135.545 65.4351C148.452 65.4351 158.915 54.9719 158.915 42.0652C158.915 29.1585 148.452 18.6953 135.545 18.6953C122.638 18.6953 112.175 29.1585 112.175 42.0652C112.175 54.9719 122.638 65.4351 135.545 65.4351Z" fill="url(#paint5_radial_316_1694)" fill-opacity="0.46"/>
<path d="M135.545 65.4351C148.452 65.4351 158.915 54.9719 158.915 42.0652C158.915 29.1585 148.452 18.6953 135.545 18.6953C122.638 18.6953 112.175 29.1585 112.175 42.0652C112.175 54.9719 122.638 65.4351 135.545 65.4351Z" fill="url(#paint6_radial_316_1694)" fill-opacity="0.4"/>
<path d="M65.435 56.0877C80.9231 56.0877 93.4788 43.532 93.4788 28.0439C93.4788 12.5557 80.9231 0 65.435 0C49.9468 0 37.3911 12.5557 37.3911 28.0439C37.3911 43.532 49.9468 56.0877 65.435 56.0877Z" fill="url(#paint7_radial_316_1694)"/>
<path d="M65.435 56.0877C80.9231 56.0877 93.4788 43.532 93.4788 28.0439C93.4788 12.5557 80.9231 0 65.435 0C49.9468 0 37.3911 12.5557 37.3911 28.0439C37.3911 43.532 49.9468 56.0877 65.435 56.0877Z" fill="url(#paint8_radial_316_1694)" fill-opacity="0.6"/>
<path d="M65.435 56.0877C80.9231 56.0877 93.4788 43.532 93.4788 28.0439C93.4788 12.5557 80.9231 0 65.435 0C49.9468 0 37.3911 12.5557 37.3911 28.0439C37.3911 43.532 49.9468 56.0877 65.435 56.0877Z" fill="url(#paint9_radial_316_1694)" fill-opacity="0.5"/>
<path d="M59.5932 88.8047H15.1904C6.80098 88.8047 0 95.6057 0 103.995V148.398C0 156.787 6.80098 163.588 15.1904 163.588H59.5932C67.9826 163.588 74.7836 156.787 74.7836 148.398V103.995C74.7836 95.6057 67.9826 88.8047 59.5932 88.8047Z" fill="url(#paint10_radial_316_1694)"/>
<path d="M59.5932 88.8047H15.1904C6.80098 88.8047 0 95.6057 0 103.995V148.398C0 156.787 6.80098 163.588 15.1904 163.588H59.5932C67.9826 163.588 74.7836 156.787 74.7836 148.398V103.995C74.7836 95.6057 67.9826 88.8047 59.5932 88.8047Z" fill="url(#paint11_radial_316_1694)" fill-opacity="0.7"/>
<path d="M53.6534 112.669H42.2158V147.565H32.5649V112.669H21.127V104.832H53.6534V112.669Z" fill="white"/>
</g>
<defs>
<radialGradient id="paint0_radial_316_1694" cx="0" cy="0" r="1" gradientUnits="userSpaceOnUse" gradientTransform="translate(167.313 84.944) scale(62.9977 155.5)">
<stop stop-color="#A98AFF"/>
<stop offset="0.14" stop-color="#8C75FF"/>
<stop offset="0.565" stop-color="#5F50E2"/>
<stop offset="0.9" stop-color="#3C2CB8"/>
</radialGradient>
<radialGradient id="paint1_radial_316_1694" cx="0" cy="0" r="1" gradientUnits="userSpaceOnUse" gradientTransform="translate(22.4929 57.9572) rotate(68.1539) scale(153.082 154.817)">
<stop stop-color="#85C2FF"/>
<stop offset="0.69" stop-color="#7588FF"/>
<stop offset="1" stop-color="#6459FE"/>
</radialGradient>
<linearGradient id="paint2_linear_316_1694" x1="77.5581" y1="65.4355" x2="77.5581" y2="177.611" gradientUnits="userSpaceOnUse">
<stop offset="0.801159" stop-color="#6864F6" stop-opacity="0"/>
<stop offset="1" stop-color="#5149DE"/>
</linearGradient>
<radialGradient id="paint3_radial_316_1694" cx="0" cy="0" r="1" gradientUnits="userSpaceOnUse" gradientTransform="translate(109.838 61.6964) rotate(113.326) scale(89.8273 72.1068)">
<stop stop-color="#BD96FF"/>
<stop offset="0.686685" stop-color="#BD96FF" stop-opacity="0"/>
</radialGradient>
<radialGradient id="paint4_radial_316_1694" cx="0" cy="0" r="1" gradientUnits="userSpaceOnUse" gradientTransform="translate(135.545 35.3879) rotate(-90) scale(46.7398 58.9931)">
<stop offset="0.268201" stop-color="#6868F7"/>
<stop offset="1" stop-color="#3923B1"/>
</radialGradient>
<radialGradient id="paint5_radial_316_1694" cx="0" cy="0" r="1" gradientUnits="userSpaceOnUse" gradientTransform="translate(116.23 30.5859) rotate(40.0516) scale(33.4016 48.3116)">
<stop offset="0.270711" stop-color="#A1D3FF"/>
<stop offset="0.813393" stop-color="#A1D3FF" stop-opacity="0"/>
</radialGradient>
<radialGradient id="paint6_radial_316_1694" cx="0" cy="0" r="1" gradientUnits="userSpaceOnUse" gradientTransform="translate(154.158 29.7661) rotate(-41.6581) scale(39.7884 97.6038)">
<stop stop-color="#E3ACFD"/>
<stop offset="0.816041" stop-color="#9FA2FF" stop-opacity="0"/>
</radialGradient>
<radialGradient id="paint7_radial_316_1694" cx="0" cy="0" r="1" gradientUnits="userSpaceOnUse" gradientTransform="translate(65.435 20.0313) rotate(-90) scale(56.0877 70.7921)">
<stop offset="0.268201" stop-color="#8282FF"/>
<stop offset="1" stop-color="#3923B1"/>
</radialGradient>
<radialGradient id="paint8_radial_316_1694" cx="0" cy="0" r="1" gradientUnits="userSpaceOnUse" gradientTransform="translate(42.2577 14.2689) rotate(40.0516) scale(40.0819 57.9737)">
<stop offset="0.270711" stop-color="#A1D3FF"/>
<stop offset="0.813393" stop-color="#A1D3FF" stop-opacity="0"/>
</radialGradient>
<radialGradient id="paint9_radial_316_1694" cx="0" cy="0" r="1" gradientUnits="userSpaceOnUse" gradientTransform="translate(87.7705 13.2848) rotate(-41.6581) scale(47.7461 117.125)">
<stop stop-color="#E3ACFD"/>
<stop offset="0.816041" stop-color="#9FA2FF" stop-opacity="0"/>
</radialGradient>
<radialGradient id="paint10_radial_316_1694" cx="0" cy="0" r="1" gradientUnits="userSpaceOnUse" gradientTransform="translate(0 88.8047) rotate(45) scale(105.76)">
<stop offset="0.046875" stop-color="#688EFF"/>
<stop offset="0.946875" stop-color="#230F94"/>
</radialGradient>
<radialGradient id="paint11_radial_316_1694" cx="0" cy="0" r="1" gradientUnits="userSpaceOnUse" gradientTransform="translate(37.3918 133.675) rotate(90) scale(52.3485 61.0898)">
<stop offset="0.570647" stop-color="#6965F6" stop-opacity="0"/>
<stop offset="1" stop-color="#8F8FFF"/>
</radialGradient>
<clipPath id="clip0_316_1694">
<rect width="168.263" height="177.611" fill="white"/>
</clipPath>
</defs>
</svg>
