<svg width="28" height="32" viewBox="0 0 28 32" fill="none" xmlns="http://www.w3.org/2000/svg">
<g clip-path="url(#clip0_3303_26447)">
<path d="M27.6541 15.8299V5.94727C13.6278 11.4297 8.49964 15.6145 9.8948 28.8136C9.96359 29.4666 10.3525 30.0528 10.9481 30.329C12.0556 30.842 13.0546 31.1241 13.8269 31.1241C17.7777 31.1241 27.6541 23.7449 27.6541 15.8299Z" fill="url(#paint0_linear_3303_26447)"/>
<path d="M27.6541 15.8299V5.94727C13.6278 11.4297 8.49964 15.6145 9.8948 28.8136C9.96359 29.4666 10.3525 30.0528 10.9481 30.329C12.0556 30.842 13.0546 31.1241 13.8269 31.1241C17.7777 31.1241 27.6541 23.7449 27.6541 15.8299Z" fill="url(#paint1_radial_3303_26447)"/>
<path d="M13.8275 0C16.4865 0 21.8293 1.34435 25.0393 2.22341C25.339 2.30568 25.6204 2.38519 25.8793 2.4602C26.9467 2.76958 27.6547 3.75684 27.6547 4.8682V6.50257C27.3377 13.784 25.0044 15.9019 18.4918 21.1459C17.6362 21.9029 16.7571 22.6226 15.8649 23.3537C14.5859 24.4011 13.2796 25.471 11.9764 26.704C11.6576 27.006 11.4209 27.3842 11.2888 27.8029C11.1566 28.2217 11.1333 28.6672 11.2211 29.0975C11.3088 29.5277 11.5048 29.9286 11.7903 30.2621C12.0759 30.5957 12.4418 30.851 12.8534 31.0039C12.5985 30.9461 12.3467 30.8751 12.0991 30.7914C9.71739 29.9928 6.50223 27.8182 3.98465 24.93C2.00011 12.5637 5.89003 6.50257 13.8275 0Z" fill="url(#paint2_radial_3303_26447)"/>
<path d="M13.8275 0C16.4865 0 21.8293 1.34435 25.0393 2.22341C25.339 2.30568 25.6204 2.38519 25.8793 2.4602C26.9467 2.76958 27.6547 3.75684 27.6547 4.8682V6.50257C27.3377 13.784 25.0044 15.9019 18.4918 21.1459C17.6362 21.9029 16.7571 22.6226 15.8649 23.3537C14.5859 24.4011 13.2796 25.471 11.9764 26.704C11.6576 27.006 11.4209 27.3842 11.2888 27.8029C11.1566 28.2217 11.1333 28.6672 11.2211 29.0975C11.3088 29.5277 11.5048 29.9286 11.7903 30.2621C12.0759 30.5957 12.4418 30.851 12.8534 31.0039C12.5985 30.9461 12.3467 30.8751 12.0991 30.7914C9.71739 29.9928 6.50223 27.8182 3.98465 24.93C2.00011 12.5637 5.89003 6.50257 13.8275 0Z" fill="url(#paint3_radial_3303_26447)"/>
<path d="M13.8275 0C16.4865 0 21.8293 1.34435 25.0393 2.22341C25.339 2.30568 25.6204 2.38519 25.8793 2.4602C26.9467 2.76958 27.6547 3.75684 27.6547 4.8682V6.50257C27.3377 13.784 25.0044 15.9019 18.4918 21.1459C17.6362 21.9029 16.7571 22.6226 15.8649 23.3537C14.5859 24.4011 13.2796 25.471 11.9764 26.704C11.6576 27.006 11.4209 27.3842 11.2888 27.8029C11.1566 28.2217 11.1333 28.6672 11.2211 29.0975C11.3088 29.5277 11.5048 29.9286 11.7903 30.2621C12.0759 30.5957 12.4418 30.851 12.8534 31.0039C12.5985 30.9461 12.3467 30.8751 12.0991 30.7914C9.71739 29.9928 6.50223 27.8182 3.98465 24.93C2.00011 12.5637 5.89003 6.50257 13.8275 0Z" fill="url(#paint4_radial_3303_26447)"/>
<path d="M13.8275 0C16.4865 0 21.8293 1.34435 25.0393 2.22341C25.339 2.30568 25.6204 2.38519 25.8793 2.4602C26.9467 2.76958 27.6547 3.75684 27.6547 4.8682V6.50257C27.3377 13.784 25.0044 15.9019 18.4918 21.1459C17.6362 21.9029 16.7571 22.6226 15.8649 23.3537C14.5859 24.4011 13.2796 25.471 11.9764 26.704C11.6576 27.006 11.4209 27.3842 11.2888 27.8029C11.1566 28.2217 11.1333 28.6672 11.2211 29.0975C11.3088 29.5277 11.5048 29.9286 11.7903 30.2621C12.0759 30.5957 12.4418 30.851 12.8534 31.0039C12.5985 30.9461 12.3467 30.8751 12.0991 30.7914C9.71739 29.9928 6.50223 27.8182 3.98465 24.93C2.00011 12.5637 5.89003 6.50257 13.8275 0Z" fill="url(#paint5_radial_3303_26447)"/>
<path d="M1.85007 2.43531C4.90276 1.58114 10.9435 0 13.8272 0C14.0346 0 14.2589 0.00829636 14.4967 0.0241976C17.1329 0.278617 19.1935 2.49995 19.1935 5.20281C19.1935 6.1842 18.9218 7.10198 18.4496 7.88528C17.4402 9.89679 15.7879 11.4779 13.2734 13.5479C12.5513 14.1424 11.723 14.7989 10.8975 15.4532C10.1452 16.046 9.39757 16.6447 8.65476 17.2494C6.99274 18.6121 5.97679 19.4451 5.41817 20.4905C4.86816 21.3345 4.5759 22.3204 4.57714 23.3278C4.57714 24.8602 5.23946 26.2381 6.29378 27.1901C6.32719 27.2276 6.36107 27.2643 6.39541 27.3L6.42272 27.3411C6.08429 27.0515 5.75392 26.7526 5.432 26.4448C2.46918 23.6106 0 19.787 0 15.8297V4.89482C0 3.74993 0.747358 2.744 1.85007 2.43531Z" fill="url(#paint6_radial_3303_26447)"/>
<path d="M1.85007 2.43531C4.90276 1.58114 10.9435 0 13.8272 0C14.0346 0 14.2589 0.00829636 14.4967 0.0241976C17.1329 0.278617 19.1935 2.49995 19.1935 5.20281C19.1935 6.1842 18.9218 7.10198 18.4496 7.88528C17.4402 9.89679 15.7879 11.4779 13.2734 13.5479C12.5513 14.1424 11.723 14.7989 10.8975 15.4532C10.1452 16.046 9.39757 16.6447 8.65476 17.2494C6.99274 18.6121 5.97679 19.4451 5.41817 20.4905C4.86816 21.3345 4.5759 22.3204 4.57714 23.3278C4.57714 24.8602 5.23946 26.2381 6.29378 27.1901C6.32719 27.2276 6.36107 27.2643 6.39541 27.3L6.42272 27.3411C6.08429 27.0515 5.75392 26.7526 5.432 26.4448C2.46918 23.6106 0 19.787 0 15.8297V4.89482C0 3.74993 0.747358 2.744 1.85007 2.43531Z" fill="url(#paint7_linear_3303_26447)"/>
<path d="M1.85007 2.43531C4.90276 1.58114 10.9435 0 13.8272 0C14.0346 0 14.2589 0.00829636 14.4967 0.0241976C17.1329 0.278617 19.1935 2.49995 19.1935 5.20281C19.1935 6.1842 18.9218 7.10198 18.4496 7.88528C17.4402 9.89679 15.7879 11.4779 13.2734 13.5479C12.5513 14.1424 11.723 14.7989 10.8975 15.4532C10.1452 16.046 9.39757 16.6447 8.65476 17.2494C6.99274 18.6121 5.97679 19.4451 5.41817 20.4905C4.86816 21.3345 4.5759 22.3204 4.57714 23.3278C4.57714 24.8602 5.23946 26.2381 6.29378 27.1901C6.32719 27.2276 6.36107 27.2643 6.39541 27.3L6.42272 27.3411C6.08429 27.0515 5.75392 26.7526 5.432 26.4448C2.46918 23.6106 0 19.787 0 15.8297V4.89482C0 3.74993 0.747358 2.744 1.85007 2.43531Z" fill="url(#paint8_radial_3303_26447)"/>
</g>
<defs>
<linearGradient id="paint0_linear_3303_26447" x1="26.2338" y1="14.9953" x2="7.86673" y2="29.7159" gradientUnits="userSpaceOnUse">
<stop stop-color="#143DE0"/>
<stop offset="0.72" stop-color="#143DE0"/>
<stop offset="0.98" stop-color="#003375"/>
<stop offset="1" stop-color="#003375"/>
</linearGradient>
<radialGradient id="paint1_radial_3303_26447" cx="0" cy="0" r="1" gradientUnits="userSpaceOnUse" gradientTransform="translate(15.9402 18.5359) rotate(50.288) scale(16.3643 48.9223)">
<stop stop-color="#003375" stop-opacity="0.6"/>
<stop offset="0.23" stop-color="#003375" stop-opacity="0.6"/>
<stop offset="0.43" stop-color="#003375" stop-opacity="0.06"/>
<stop offset="1" stop-color="#003375" stop-opacity="0.06"/>
</radialGradient>
<radialGradient id="paint2_radial_3303_26447" cx="0" cy="0" r="1" gradientUnits="userSpaceOnUse" gradientTransform="translate(28.5583 -8.45752) rotate(119.584) scale(52.2931 33.613)">
<stop stop-color="#23C0FE"/>
<stop offset="0.17" stop-color="#23C0FE"/>
<stop offset="0.53" stop-color="#1C91FF"/>
<stop offset="1" stop-color="#1C91FF"/>
</radialGradient>
<radialGradient id="paint3_radial_3303_26447" cx="0" cy="0" r="1" gradientUnits="userSpaceOnUse" gradientTransform="translate(10.7852 10.2832) rotate(43.382) scale(8.70731 15.4936)">
<stop stop-color="#1B44B1" stop-opacity="0.7"/>
<stop offset="0.14" stop-color="#1B44B1" stop-opacity="0.7"/>
<stop offset="1" stop-color="#045ED1" stop-opacity="0"/>
</radialGradient>
<radialGradient id="paint4_radial_3303_26447" cx="0" cy="0" r="1" gradientUnits="userSpaceOnUse" gradientTransform="translate(23.8841 16.8595) rotate(28.894) scale(19.6261 28.7672)">
<stop stop-color="#045ED1" stop-opacity="0"/>
<stop offset="0.73" stop-color="#045ED1" stop-opacity="0"/>
<stop offset="0.95" stop-color="#1B44B1" stop-opacity="0.7"/>
<stop offset="1" stop-color="#1B44B1" stop-opacity="0.7"/>
</radialGradient>
<radialGradient id="paint5_radial_3303_26447" cx="0" cy="0" r="1" gradientUnits="userSpaceOnUse" gradientTransform="translate(16.7493 8.66044) rotate(-111.097) scale(31.79 24.2996)">
<stop stop-color="#11A7FF" stop-opacity="0"/>
<stop offset="0.64" stop-color="#11A7FF" stop-opacity="0"/>
<stop offset="0.8" stop-color="#6AB3FF" stop-opacity="0.5"/>
<stop offset="1" stop-color="#6AB3FF" stop-opacity="0.5"/>
</radialGradient>
<radialGradient id="paint6_radial_3303_26447" cx="0" cy="0" r="1" gradientUnits="userSpaceOnUse" gradientTransform="translate(19.1937 -1.47618) rotate(126.614) scale(38.1609 42.6136)">
<stop stop-color="#92EEFE"/>
<stop offset="0.21" stop-color="#35DDFF"/>
<stop offset="0.61" stop-color="#15BDFB"/>
<stop offset="0.8" stop-color="#08B1F9"/>
<stop offset="1" stop-color="#08B1F9"/>
</radialGradient>
<linearGradient id="paint7_linear_3303_26447" x1="10.3441" y1="10.8574" x2="0" y2="10.8574" gradientUnits="userSpaceOnUse">
<stop stop-color="#22CBFD" stop-opacity="0"/>
<stop offset="0.11" stop-color="#22CBFD" stop-opacity="0"/>
<stop offset="0.97" stop-color="#92DEFF" stop-opacity="0.8"/>
<stop offset="1" stop-color="#92DEFF" stop-opacity="0.8"/>
</linearGradient>
<radialGradient id="paint8_radial_3303_26447" cx="0" cy="0" r="1" gradientUnits="userSpaceOnUse" gradientTransform="translate(11.7141 4.44956) rotate(-87.723) scale(29.9575 15.8976)">
<stop stop-color="#92DEFF" stop-opacity="0"/>
<stop offset="0.66" stop-color="#92DEFF" stop-opacity="0"/>
<stop offset="0.85" stop-color="#92DEFF" stop-opacity="0.5"/>
<stop offset="1" stop-color="#92DEFF" stop-opacity="0.5"/>
</radialGradient>
<clipPath id="clip0_3303_26447">
<rect width="28" height="31.4568" fill="white"/>
</clipPath>
</defs>
</svg>
