<svg width="355" height="71" viewBox="0 0 355 71" fill="none" xmlns="http://www.w3.org/2000/svg">
<g clip-path="url(#clip0_316_1790)">
<path d="M343.203 17.6954C343.203 20.9723 345.825 23.5938 349.102 23.5938C352.378 23.5938 355 20.9723 355 17.6954C355 14.4185 352.378 11.7969 349.102 11.7969C345.825 11.7969 343.203 14.5277 343.203 17.6954ZM324.634 12.4523H312.182L329.003 41.7262L312.182 71H324.634L341.455 41.7262C341.455 41.7262 324.634 12.4523 324.634 12.4523ZM300.603 39.1046C300.603 42.6 297.763 44.8938 293.285 44.8938C289.462 44.8938 287.058 43.1462 287.058 40.4154C287.058 38.0123 288.806 36.3738 292.848 35.5L300.603 34.6262V39.1046ZM311.089 39.3231V26.2154C311.089 19.9892 310.215 18.0231 306.829 15.5108C303.334 12.9985 299.183 11.6877 294.814 11.9062C288.806 11.9062 283.672 13.2169 278.648 16.3846L283.126 24.3585C287.386 22.1738 291.318 20.8631 294.705 20.8631C297.326 20.8631 299.183 21.9554 300.057 23.4846C300.494 24.3585 300.494 24.14 300.494 26.7615C291.646 27.4169 285.42 28.5092 281.815 30.8031C278.648 32.7692 276.682 36.3738 276.682 40.0877C276.682 47.6246 283.345 53.4138 292.192 53.4138C296.889 53.4138 299.948 52.1031 302.132 48.9354C304.317 51.7754 306.829 53.4138 309.888 53.4138H310.762L315.24 45.6585C311.745 44.7846 311.089 43.9108 311.089 39.3231ZM137.958 42.1631L133.698 42.8185C129.657 42.8185 128.565 41.5077 128.565 36.3738V21.0815H137.849V12.4523H128.565V0H117.86V12.4523H111.634V21.3H117.86V41.0708C117.86 45.5492 118.078 47.2969 119.389 48.8262C121.137 51.0108 124.523 52.3215 129.329 52.3215C132.388 52.3215 135.337 52.1031 137.74 51.2292C137.958 51.2292 137.958 42.1631 137.958 42.1631ZM151.285 32.8785C151.285 39.5415 155.982 44.02 162.208 44.02C168.215 44.02 172.912 39.5415 172.912 32.8785C172.912 26.2154 168.215 21.5185 161.989 21.5185C155.763 21.5185 151.285 25.9969 151.285 32.66V32.8785ZM183.071 32.8785C183.071 44.6754 174.223 53.5231 162.208 53.5231C149.974 53.5231 141.126 44.6754 141.126 32.8785C141.126 20.8631 149.974 12.0154 162.208 12.0154C174.223 12.0154 183.071 20.8631 183.071 32.8785ZM78.3185 32.8785C78.3185 39.5415 82.7969 44.02 89.0231 44.02C95.0308 44.02 99.6185 39.5415 99.6185 32.8785C99.6185 26.2154 95.14 21.5185 89.0231 21.5185C82.7969 21.5185 78.3185 25.9969 78.3185 32.66V32.8785ZM110.105 32.8785C110.105 44.6754 101.257 53.5231 89.0231 53.5231C76.7892 53.5231 67.9415 44.6754 67.9415 32.8785C67.9415 20.8631 76.7892 12.0154 89.0231 12.0154C100.929 12.0154 110.105 20.8631 110.105 32.8785ZM264.448 52.3215H251.995L245.66 28.4L239.871 52.3215H226.982L215.84 12.3431H226.982L233.645 39.4323L239.652 12.3431H251.231L257.894 39.4323L264.557 12.3431H275.48L264.338 52.3215H264.448ZM188.095 52.3215V12.4523H198.035L198.691 16.9308C201.968 13.6538 204.698 12.0154 207.975 12.0154C209.068 12.0154 210.16 12.0154 212.017 12.4523V22.3923H210.488C206.665 22.3923 204.262 23.0477 202.077 25.0138C199.455 27.1985 198.8 29.0554 198.8 34.5169V52.2123H188.095V52.3215ZM51.4477 52.3215V30.8031C51.4477 24.3585 49.2631 21.5185 44.3477 21.5185C41.7262 21.5185 39.2138 22.8292 37.6846 25.0138C36.5923 26.7615 36.1554 28.8369 36.1554 32.3323V52.3215H25.7785V31.8954C25.7785 28.2908 25.3415 26.1062 24.4677 24.5769C23.0477 22.6108 20.8631 21.5185 18.46 21.7369C13.3262 21.7369 10.4862 25.0138 10.4862 31.4585V52.3215H0V12.4523H9.72154L10.3769 15.7292C14.4185 12.8892 17.04 11.9062 20.7538 11.9062C25.8877 11.9062 29.6015 13.6538 33.4246 17.9138C37.9031 13.4354 41.8354 11.9062 46.7508 11.9062C52.1031 11.9062 56.4723 14.0908 59.2031 17.9138C61.3877 20.7538 61.8246 23.2662 61.8246 29.0554V52.3215C61.9338 52.3215 51.4477 52.3215 51.4477 52.3215Z" fill="#1D1D1B"/>
</g>
<defs>
<clipPath id="clip0_316_1790">
<rect width="355" height="71" fill="white"/>
</clipPath>
</defs>
</svg>
