<svg width="466" height="91" viewBox="0 0 466 91" fill="none" xmlns="http://www.w3.org/2000/svg">
<mask id="mask0_316_1774" style="mask-type:luminance" maskUnits="userSpaceOnUse" x="57" y="22" width="352" height="47">
<path d="M408.166 22.6934H57.0867V68.0836H408.166V22.6934Z" fill="white"/>
</mask>
<g mask="url(#mask0_316_1774)">
<path d="M60.6121 27.834C61.4606 27.834 62.3091 27.707 63.2232 27.5801L88.4215 54.4969V44.3397C88.4215 39.6418 88.2255 28.469 88.0298 27.5801C89.0743 27.7705 89.9228 27.834 90.6408 27.834C91.4896 27.834 92.3382 27.707 93.2522 27.5801C92.5342 41.8004 92.3381 49.8625 92.3381 58.1789V66.622C91.4896 66.4317 90.7064 66.3681 89.9881 66.3681C89.2701 66.3681 88.4868 66.4317 87.7032 66.622C79.5432 57.2265 70.9262 48.0217 62.3091 39.134C62.1134 41.6733 62.1786 47.1964 62.1786 49.0373C62.1786 59.7658 62.2439 62.8765 62.5051 66.622C61.4606 66.4317 60.6121 66.3681 59.7633 66.3681C58.9148 66.3681 58.0007 66.4317 57.0867 66.6856C57.5437 62.6226 58.2617 47.2597 58.2617 38.9436C58.2617 35.6423 58.0007 30.1195 58.0007 27.6436C58.4577 27.7705 59.698 27.834 60.6121 27.834Z" fill="black"/>
<path d="M159.184 27.836C160.882 27.836 162.514 27.709 164.342 27.582C165.451 31.1371 167.214 36.4696 170.021 43.5161L174.721 56.0223C178.246 47.5791 182.424 37.168 185.688 27.582C186.602 27.7725 187.386 27.836 188.234 27.836C189.083 27.836 189.931 27.709 190.78 27.582C183.926 43.2622 178.051 57.3556 174.852 66.6875C173.154 66.4336 172.698 66.4336 172.306 66.4336C171.914 66.4336 171.457 66.4336 169.76 66.6875C165.778 55.959 158.205 37.4219 153.962 27.582C155.79 27.7725 157.487 27.836 159.184 27.836Z" fill="black"/>
<path d="M218.202 51.7035C216.112 46.0536 214.611 41.8638 212.979 38.2453C210.825 43.2604 209.127 47.2598 207.496 51.7035H218.202ZM215.199 27.5801C215.59 27.5801 216.308 27.5166 217.418 27.3262L219.703 33.23C224.534 45.7361 230.996 61.4165 233.608 66.6854C230.866 66.4951 229.364 66.4315 228.451 66.4315C227.733 66.4315 226.753 66.4315 223.489 66.6854L221.596 60.9087C220.943 59.0675 219.899 56.0204 219.507 55.0681C218.332 55.0048 215.199 54.9413 212.131 54.9413C209.389 54.9413 206.19 55.0681 205.994 55.0681C204.493 58.8772 203.187 62.6227 202.012 66.6854C200.445 66.4951 199.727 66.4315 199.27 66.4315C198.813 66.4315 198.16 66.4951 196.333 66.6854C202.012 54.116 210.107 34.5633 212.979 27.3262C213.436 27.4532 214.611 27.5801 215.199 27.5801Z" fill="black"/>
<path d="M274.928 29.6155C274.21 31.4566 273.753 33.4246 273.557 35.3925H272.774C269.771 31.7738 266.768 30.3139 262.786 30.3139C255.605 30.3139 249.534 36.662 249.534 47.5812C249.534 57.8652 255.409 63.8326 263.308 63.8326C267.094 63.8326 271.468 62.0553 273.818 59.5793L274.536 60.0238C273.883 61.6108 273.426 63.198 273.23 64.8485C270.097 66.4355 266.245 67.3243 261.35 67.3243C248.293 67.3243 239.872 59.516 239.872 48.4065C239.872 34.3766 248.946 26.8223 262.982 26.8223C267.16 26.8223 272.186 28.0919 274.928 29.6155Z" fill="black"/>
<path d="M304.634 51.7065C302.543 46.0565 301.042 41.8667 299.411 38.2482C297.255 43.2633 295.559 47.2628 293.927 51.7065H304.634ZM301.63 27.583C302.021 27.583 302.739 27.5196 303.848 27.3291L306.135 33.2329C310.966 45.7391 317.428 61.4194 320.038 66.6884C317.298 66.498 315.797 66.4345 314.881 66.4345C314.163 66.4345 313.184 66.4345 309.922 66.6884L308.027 60.8481C307.374 59.0072 306.33 55.9598 305.939 55.0077C304.764 54.9442 301.63 54.8807 298.563 54.8807C295.82 54.8807 292.622 55.0077 292.424 55.0077C290.923 58.8166 289.618 62.5621 288.444 66.6251C286.878 66.4345 286.157 66.3712 285.7 66.3712C285.244 66.3712 284.591 66.4345 282.764 66.6251C288.444 54.0554 296.537 34.5027 299.411 27.2656C299.803 27.4561 301.042 27.583 301.63 27.583Z" fill="black"/>
<path d="M340.404 46.3076C346.475 46.3076 348.498 42.816 348.498 38.1816C348.498 36.2137 348.302 34.6903 347.78 33.7379C346.671 31.5796 345.102 30.8176 339.556 30.8176C339.36 35.7694 339.357 40.5306 339.357 46.1805C339.752 46.2441 340.208 46.3076 340.404 46.3076ZM334.986 27.834C337.139 27.834 339.491 27.5801 343.471 27.5801C347.715 27.5801 350.651 27.8975 352.089 28.6593C355.156 30.1195 357.377 32.8491 357.377 36.9757C357.377 42.4985 354.177 45.9902 348.302 47.3868C350.129 50.3071 351.371 52.4654 352.22 53.7349L360.705 66.622C357.964 66.4317 356.33 66.3681 355.417 66.3681C354.569 66.3681 352.676 66.4317 350.129 66.622L339.752 48.6563H339.227V50.6878C339.227 57.9882 339.425 63.0671 339.686 66.622C336.812 66.3681 335.899 66.3681 334.92 66.3681C334.007 66.3681 333.09 66.3681 330.154 66.622C330.415 62.3051 330.611 55.957 330.611 52.0211V42.1811C330.611 37.166 330.415 31.389 330.154 27.5801C330.807 27.7705 333.221 27.834 334.986 27.834Z" fill="black"/>
<path d="M379.511 42.0543C379.511 48.8469 379.511 55.3857 379.576 63.2575C381.86 63.4478 382.773 63.4478 384.603 63.4478C394.002 63.4478 398.963 57.2265 398.963 45.9902C398.963 37.166 394.263 30.8812 385.321 30.8812C383.491 30.8812 382.055 30.9447 379.576 31.1351L379.511 42.0543ZM372.657 27.7705C373.375 27.834 374.223 27.8975 375.202 27.8975C376.833 27.8975 381.86 27.6436 385.582 27.6436C401.576 27.6436 408.104 33.8015 408.104 46.0537C408.104 57.9882 399.616 66.7491 387.735 66.7491C382.577 66.7491 378.203 66.4952 375.267 66.4952C374.223 66.4952 373.179 66.4952 370.436 66.7491C370.892 60.7817 370.892 54.243 370.892 52.1479V42.1811C370.892 37.166 370.697 32.5317 370.436 27.5801L372.657 27.7705Z" fill="black"/>
<path d="M131.112 28.2793V32.6596C135.094 35.5163 137.575 41.2298 137.575 48.2764C137.575 58.9414 133.136 64.5281 125.368 64.5281C125.172 64.5281 125.107 64.5281 124.911 64.5281C124.715 64.5281 124.65 64.5281 124.454 64.5281C116.685 64.5281 112.246 58.9414 112.246 48.2764C112.246 41.2298 114.597 35.5163 118.709 32.6596V28.2793C109.048 30.6281 102.715 38.3095 102.715 47.8954C102.715 60.719 111.137 68.083 124.846 68.083C124.846 68.083 124.846 68.083 124.911 68.083C124.976 68.083 124.911 68.083 124.976 68.083C138.685 68.083 147.106 60.719 147.106 47.8954C147.041 38.3731 140.774 30.6916 131.112 28.2793Z" fill="black"/>
<path d="M120.928 22.6934L121.45 45.928H128.305L128.827 22.6934H120.928Z" fill="#CE1126"/>
</g>
</svg>
