<svg width="366" height="80" viewBox="0 0 366 80" fill="none" xmlns="http://www.w3.org/2000/svg">
<g clip-path="url(#clip0_316_1728)">
<path d="M25.9334 6.99693V0.0132769C44.019 0.624015 53.9381 20.3668 45.0945 35.7746C36.2509 51.1825 10.0322 50.824 2.3173 34.1947C-3.45892 21.7343 1.82599 5.81529 15.3437 1.36088C16.6715 0.922745 20.0709 0 21.339 0C21.6909 0 22.4345 0.159323 22.4345 0.491246V6.51896C20.602 7.54792 18.504 7.56784 16.4856 8.52377C2.82189 15.0295 5.72328 38.3304 21.3589 39.9635C44.8157 42.4131 47.5776 9.95768 25.9401 6.99029L25.9334 6.99693Z" fill="#00273D"/>
<path d="M336.07 17.7907H341.162C340.551 27.0182 348.977 26.9584 348.485 17.7907H353.578C353.266 20.2669 354.64 25.7237 358.053 24.635C359.394 24.2101 360.901 21.4087 360.901 20.1673V15.0889L360.423 14.6109H330.493C330.386 14.6109 329.152 15.6531 328.986 15.9651C328.514 16.8414 328.534 18.3085 328.195 19.3043C323.561 32.8135 304.652 33.4243 299.759 20.1739C293.598 3.48486 316.211 -7.62127 326.164 6.57174L322.539 9.77147C320.939 8.96822 320.109 7.44801 318.535 6.53855C313.954 3.88316 307.368 5.68882 305.051 10.515C300.563 19.8818 311.464 28.7508 319.803 22.6833C324.132 19.5366 322.479 15.8058 324.922 12.5463C325.878 11.2651 328.574 9.53249 330.174 9.53249H365.515L365.993 10.0105V20.8046C365.993 21.0635 365.343 23.3737 365.19 23.8118C362.886 30.3108 356.107 31.5124 350.922 27.3634C343.227 33.7761 334.914 26.5999 336.063 17.7907H336.07Z" fill="#E8004B"/>
<path d="M163.806 0.96875V33.5038C163.806 37.4802 169.509 40.9986 173.187 40.9721C185.496 40.8725 186.014 20.9306 173.214 20.6318C170.598 20.5721 169.343 21.6011 166.993 22.2384V16.3633C173.844 11.6699 184.142 15.5468 187.747 22.6566C194.287 35.5684 182.495 51.879 168.586 46.1965C166.674 45.4198 165.605 43.6142 163.812 43.1827V46.3559H157.126V0.96875H163.812H163.806Z" fill="#00273D"/>
<path d="M62.5556 39.3731C66.5591 40.8668 70.1975 41.8958 73.9952 39.1939C82.6728 33.0268 76.7771 17.7052 65.6628 21.051C63.432 21.7215 59.3621 25.0407 59.3621 27.4704V60.0054H52.6763V15.249H59.3621V18.4222L63.6046 15.5079C77.6269 10.4295 88.8275 23.7396 83.8015 37.2289C80.7075 45.5336 70.3834 49.9814 62.549 45.2482V39.3731H62.5556Z" fill="#00273D"/>
<path d="M214.756 45.2408C206.41 50.3524 195.229 44.7562 192.932 35.5686C189.633 22.3647 200.348 10.7209 213.7 15.5005L217.936 18.4148C218.188 18.1227 217.471 15.7063 218.414 15.2416H224.622V46.3494H218.414L217.936 45.8715V27.1444C217.936 26.4606 216.183 23.8451 215.592 23.2874C210.374 18.3551 201.457 20.559 199.605 27.6024C197.115 37.0954 206.297 44.4508 214.749 39.0471V45.2342L214.756 45.2408Z" fill="#00273D"/>
<path d="M271.11 26.9915L274.47 26.6928L284.641 15.2481H292.443L292.137 16.3766L280.054 29.7398L292.755 46.3625H284.635L273.746 33.0989C272.857 32.986 271.701 32.7603 271.104 33.5104V45.8912L270.626 46.3691H264.418V0.96875H270.626L271.104 1.44672V26.9981L271.11 26.9915Z" fill="#00273D"/>
<path d="M97.8972 28.2603H111.269C110.392 17.6786 97.0739 17.5724 94.79 27.862C92.1276 39.8909 104.444 45.0821 113.34 38.1516L116.647 42.6525C114.356 45.1352 110.572 46.4828 107.252 46.9475C93.8472 48.7997 85.1032 38.3707 88.5092 25.4124C92.0479 11.943 111.773 10.2303 117.058 23.2815C117.238 23.7329 118.273 26.9459 118.273 27.1517V32.8674L117.795 33.3453H98.3752C97.0009 31.9778 97.6515 29.9133 97.8972 28.2669V28.2603Z" fill="#00273D"/>
<path d="M129.421 46.3565H122.735V15.2487H129.421L129.58 18.4285C130.875 17.685 131.638 16.5697 133.019 15.8262C140.668 11.7369 152.021 16.6162 152.021 25.8835V45.8785L151.543 46.3565H145.495L145.016 45.8785V26.5141C145.016 26.3814 144.18 24.3234 144.007 24.0247C141.066 18.7936 132.369 20.0217 130.124 25.3259C129.978 25.6711 129.407 27.5763 129.407 27.7887V46.3565H129.421Z" fill="#00273D"/>
<path d="M259.014 46.3561H252.806L252.328 45.8781V26.5138C252.328 25.2657 250.336 22.6635 249.3 21.9133C245.755 19.3442 239.799 20.8578 237.728 24.6616C237.562 24.967 236.725 27.0183 236.725 27.1511V45.8781L236.247 46.3561H230.04V15.2483H236.725L236.885 18.4281C238.299 17.5519 239.162 16.3569 240.742 15.6068C248.968 11.6967 259.332 17.0805 259.332 26.5204V45.5661C259.332 45.6723 258.907 46.0507 259.014 46.3627V46.3561Z" fill="#00273D"/>
<path d="M171.607 67.3006C172.629 67.6193 171.666 70.4605 171.374 71.1974C168.798 77.7097 159.198 76.9861 156.967 70.4672C154.105 62.0961 164.483 56.4069 170.478 62.3815L169.529 63.3507C168.831 63.7092 168.247 62.5077 167.53 62.1558C161.356 59.1287 155.632 66.2916 159.523 71.7218C161.634 74.6693 166.813 74.9149 169.024 72.0338C172.052 68.1039 168.433 68.8806 165.386 68.8872V67.3006H171.593H171.607Z" fill="#00273D"/>
<path d="M235.69 60.0842C237.934 59.7589 240.849 60.051 242.435 61.7837L241.612 62.8193C239.454 61.3455 233.817 60.5888 233.041 63.8084C231.939 68.3624 241.665 65.7402 242.694 69.7631C244.221 75.7311 236.354 76.7733 232.264 74.7619C231.759 74.5162 230.976 74.1511 230.982 73.4939C230.982 71.7414 233.837 73.7395 234.734 73.8922C236.971 74.2706 241.831 74.1113 241.127 70.7124C240.49 67.6122 232.563 69.6569 231.454 66.0522C230.445 62.7595 232.536 60.5423 235.69 60.0842Z" fill="#00273D"/>
<path d="M319.512 59.6865L320.806 59.8259L320.966 75.2603L319.518 75.5591L319.352 74.2845C309.931 80.9495 306.419 63.4638 316.789 65.1035C317.912 65.2827 318.482 66.159 319.518 66.3515V59.6865H319.512ZM314.97 66.4245C310.363 67.3672 311.319 74.7226 316.132 74.2712C321.357 73.78 320.341 65.3226 314.97 66.4245Z" fill="#00273D"/>
<path d="M197.879 65.561C197.978 65.2158 198.609 64.9702 198.987 65.0897C199.612 65.2889 199.173 66.6232 199.944 66.351C200.415 66.185 201.032 65.342 201.929 65.1561C210.586 63.3703 210.566 76.1892 203.15 75.8506C201.816 75.7909 200.681 74.6159 199.466 74.284V79.9997H197.872V65.5544L197.879 65.561ZM202.241 66.4174C198.476 67.2738 198.35 73.6068 202.573 74.2176C208.734 75.1071 208.316 65.0366 202.241 66.4174Z" fill="#00273D"/>
<path d="M254.871 66.3515V65.0835L256.165 65.2229L256.325 75.2603L254.877 75.559L254.406 74.2911C252.766 75.7449 250.967 76.1565 248.922 75.3001C243.318 72.9567 245.323 63.6895 252.414 65.1566C253.364 65.3557 253.941 66.2519 254.871 66.3515ZM255.023 70.3014C255.023 68.1372 253.264 66.3847 251.1 66.3847C248.935 66.3847 247.176 68.1372 247.176 70.3014C247.176 72.4655 248.935 74.218 251.1 74.218C253.264 74.218 255.023 72.4655 255.023 70.3014Z" fill="#00273D"/>
<path d="M293.717 75.0805C293.618 75.4257 292.994 75.6713 292.609 75.5518L292.124 74.2838C290.033 75.6779 288.399 76.3418 285.956 75.2066C280.087 72.4715 283.486 62.3545 290.829 65.5875C291.719 65.9791 291.991 67.4197 292.449 65.0896C292.808 64.9568 293.717 65.229 293.717 65.5676V75.0871V75.0805ZM292.37 70.3008C292.37 68.13 290.604 66.3708 288.426 66.3708C286.248 66.3708 284.482 68.13 284.482 70.3008C284.482 72.4715 286.248 74.2307 288.426 74.2307C290.604 74.2307 292.37 72.4715 292.37 70.3008Z" fill="#00273D"/>
<path d="M326.356 70.7922L325.925 71.5291C326.649 73.7264 328.534 74.6226 330.798 74.2641C331.927 74.0849 333.48 72.3323 333.494 74.4102C329.855 77.3577 324.185 75.2533 324.265 70.3209C324.365 64.3662 332.524 62.7663 334.217 68.7011C334.39 69.3119 334.589 70.374 334.005 70.7922H326.363H326.356ZM332.883 69.5243C332.133 65.2358 326.695 65.1761 325.878 69.5243H332.883Z" fill="#00273D"/>
<path d="M212.638 66.4641C215.639 63.6228 221.475 65.07 222.053 69.3916C223.082 77.0989 211.589 78.0349 211.244 70.6397C211.171 69.0663 211.463 67.5727 212.645 66.4574L212.638 66.4641ZM220.492 70.3011C220.492 68.117 218.72 66.3512 216.529 66.3512C214.338 66.3512 212.565 68.1237 212.565 70.3011C212.565 72.4785 214.338 74.251 216.529 74.251C218.72 74.251 220.492 72.4785 220.492 70.3011Z" fill="#00273D"/>
<path d="M261.875 75.5588L260.58 75.4194C260.056 75.0609 260.142 66.4774 260.58 65.2227L261.842 65.1232L262.353 66.3513C263.681 64.6319 267.246 64.6386 268.727 66.0326C268.946 66.2384 269.836 67.6657 269.836 67.7852V75.5588H268.561V69.0531C268.561 67.9047 266.536 66.3247 265.215 66.3247C263.894 66.3247 261.869 67.898 261.869 69.0531V75.5588H261.875Z" fill="#00273D"/>
<path d="M184.507 65.5618C184.72 64.8116 186.101 65.0838 186.101 65.5618V71.9081C186.101 74.922 192.468 74.922 192.468 71.9081V65.5618C192.468 64.9643 194.061 64.9643 194.061 65.5618V72.2268C194.061 72.7114 193.105 74.2117 192.634 74.61C190.821 76.1302 188.013 76.1368 186.121 74.7494C185.689 74.4307 184.507 72.9105 184.507 72.5454C184.507 71.0385 184.202 66.6239 184.507 65.5618Z" fill="#00273D"/>
<path d="M307.096 75.5593H305.821V69.0536C305.821 68.8478 305.104 67.4006 304.852 67.1616C302.807 65.2099 299.135 67.0554 299.135 69.6843V75.5593H297.86V65.0838C298.969 64.8448 299.022 65.7277 299.613 66.3451C301.027 64.5992 304.387 64.6324 305.987 66.0265C306.14 66.1592 307.096 67.3674 307.096 67.4604V75.5526V75.5593Z" fill="#00273D"/>
<path d="M280.665 65.0833V66.3513C279.729 66.5438 276.582 65.8733 276.25 66.8757C276.469 69.4647 274.829 75.0477 279.158 74.2311C279.563 74.1515 280.725 73.1557 280.977 74.1382C281.435 75.8974 276.469 76.5081 275.28 74.417C274.165 72.452 274.822 69.073 274.563 66.8824C274.298 66.0857 273.063 66.4044 272.379 66.3579V65.09H274.61C274.729 64.3133 274.211 62.2554 275.121 61.95L276.197 61.9102V65.0833H280.658H280.665Z" fill="#00273D"/>
<path d="M337.663 65.5616C337.763 65.2164 338.393 64.9708 338.772 65.0903L339.409 66.3582C340.584 64.7517 342.258 65.0704 344.03 65.0903L343.718 66.5375C342.41 65.7541 339.257 67.042 339.257 68.4228V75.0878C339.257 75.6853 337.663 75.6853 337.663 75.0878V65.5683V65.5616Z" fill="#00273D"/>
<path d="M176.865 75.5593H175.59V65.5618L176.38 65.0838L177.602 65.9933C178.186 65.0307 181.652 64.5926 181.957 65.5618C182.449 67.1351 180.497 66.3119 179.899 66.3318C178.319 66.3717 176.872 68.2238 176.872 69.6909V75.5659L176.865 75.5593Z" fill="#00273D"/>
</g>
<defs>
<clipPath id="clip0_316_1728">
<rect width="366" height="80" fill="white"/>
</clipPath>
</defs>
</svg>
