<svg width="408" height="109" viewBox="0 0 408 109" fill="none" xmlns="http://www.w3.org/2000/svg">
<path d="M152.049 22.1191H129.546C128.006 22.1191 126.697 23.2335 126.457 24.7476L117.356 82.2239C117.175 83.3579 118.056 84.3805 119.211 84.3805H129.954C131.494 84.3805 132.804 83.2661 133.044 81.7487L135.498 66.2464C135.735 64.729 137.048 63.6147 138.585 63.6147H145.708C160.531 63.6147 169.086 56.4699 171.32 42.3114C172.327 36.117 171.363 31.2501 168.451 27.8415C165.253 24.0987 159.58 22.1191 152.049 22.1191ZM154.645 43.1111C153.414 51.1539 147.245 51.1539 141.28 51.1539H137.884L140.266 36.1334C140.408 35.2256 141.197 34.557 142.119 34.557H143.675C147.738 34.557 151.572 34.557 153.552 36.8643C154.734 38.2408 155.096 40.2859 154.645 43.1111Z" fill="#253B80"/>
<path d="M219.313 42.8532H208.537C207.619 42.8532 206.826 43.5218 206.685 44.4296L206.208 47.4318L205.454 46.3437C203.122 42.9712 197.92 41.8438 192.727 41.8438C180.82 41.8438 170.649 50.8272 168.669 63.4289C167.639 69.715 169.103 75.7258 172.683 79.9176C175.966 83.7719 180.665 85.3778 186.255 85.3778C195.85 85.3778 201.17 79.2327 201.17 79.2327L200.69 82.2151C200.509 83.3557 201.391 84.3782 202.539 84.3782H212.246C213.789 84.3782 215.092 83.2639 215.335 81.7464L221.159 45.0097C221.343 43.879 220.465 42.8532 219.313 42.8532ZM204.293 63.7435C203.253 69.8756 198.367 73.9921 192.135 73.9921C189.006 73.9921 186.505 72.9924 184.9 71.0981C183.307 69.2168 182.702 66.5392 183.208 63.5567C184.179 57.4771 189.148 53.2263 195.284 53.2263C198.344 53.2263 200.831 54.239 202.47 56.1497C204.112 58.0801 204.763 60.7742 204.293 63.7435Z" fill="#253B80"/>
<path d="M276.703 42.8516H265.874C264.841 42.8516 263.871 43.3628 263.285 44.2183L248.35 66.1311L242.02 45.0737C241.621 43.7561 240.401 42.8516 239.019 42.8516H228.378C227.085 42.8516 226.187 44.1101 226.598 45.3227L238.525 80.188L227.312 95.9558C226.43 97.1979 227.318 98.9054 228.842 98.9054H239.657C240.684 98.9054 241.644 98.4073 242.227 97.5682L278.243 45.7849C279.105 44.546 278.22 42.8516 276.703 42.8516Z" fill="#253B80"/>
<path d="M312.554 22.1191H290.048C288.512 22.1191 287.202 23.2335 286.962 24.7476L277.861 82.2239C277.68 83.3579 278.562 84.3805 279.71 84.3805H291.259C292.332 84.3805 293.25 83.6004 293.418 82.5385L296.001 66.2464C296.237 64.729 297.55 63.6147 299.087 63.6147H306.207C321.033 63.6147 329.585 56.4699 331.822 42.3114C332.832 36.117 331.862 31.2501 328.95 27.8415C325.755 24.0987 320.086 22.1191 312.554 22.1191ZM315.15 43.1111C313.923 51.1539 307.754 51.1539 301.785 51.1539H298.393L300.778 36.1334C300.92 35.2256 301.703 34.557 302.627 34.557H304.184C308.244 34.557 312.08 34.557 314.061 36.8643C315.242 38.2408 315.601 40.2859 315.15 43.1111Z" fill="#179BD7"/>
<path d="M379.815 42.8532H369.046C368.121 42.8532 367.335 43.5218 367.197 44.4296L366.72 47.4318L365.963 46.3437C363.63 42.9712 358.431 41.8438 353.239 41.8438C341.332 41.8438 331.165 50.8272 329.184 63.4289C328.157 69.715 329.615 75.7258 333.195 79.9176C336.485 83.7719 341.177 85.3778 346.767 85.3778C356.362 85.3778 361.682 79.2327 361.682 79.2327L361.202 82.2151C361.021 83.3557 361.903 84.3782 363.058 84.3782H372.761C374.297 84.3782 375.607 83.2639 375.847 81.7464L381.674 45.0097C381.852 43.879 380.97 42.8532 379.815 42.8532ZM364.795 63.7435C363.762 69.8756 358.869 73.9921 352.637 73.9921C349.515 73.9921 347.007 72.9924 345.402 71.0981C343.809 69.2168 343.21 66.5392 343.711 63.5567C344.688 57.4771 349.65 53.2263 355.786 53.2263C358.846 53.2263 361.334 54.239 362.972 56.1497C364.621 58.0801 365.272 60.7742 364.795 63.7435Z" fill="#179BD7"/>
<path d="M392.519 23.695L383.283 82.2233C383.102 83.3573 383.984 84.3798 385.133 84.3798H394.418C395.961 84.3798 397.271 83.2655 397.507 81.7481L406.615 24.2751C406.796 23.1411 405.914 22.1152 404.766 22.1152H394.369C393.451 22.1185 392.661 22.7871 392.519 23.695Z" fill="#179BD7"/>
<path d="M23.9077 95.5496L25.6285 84.6619L21.7953 84.5734H3.49121L16.2116 4.23382C16.2511 3.99129 16.3794 3.76515 16.567 3.60455C16.7545 3.44396 16.9947 3.35547 17.2448 3.35547H48.108C58.3541 3.35547 65.425 5.47924 69.1167 9.67107C70.8474 11.6375 71.9497 13.6925 72.4827 15.9539C73.042 18.3268 73.0519 21.1617 72.5057 24.6194L72.4662 24.8718V27.0873L74.1969 28.064C75.6546 28.8342 76.8128 29.7158 77.7011 30.7253C79.1818 32.4066 80.1393 34.5435 80.544 37.0769C80.9619 39.6825 80.8237 42.7829 80.1393 46.2931C79.3496 50.3309 78.073 53.8475 76.3488 56.7251C74.7629 59.3766 72.7426 61.5757 70.344 63.28C68.0539 64.899 65.3328 66.1281 62.2564 66.9147C59.2753 67.6881 55.8764 68.0781 52.1485 68.0781H49.7466C48.029 68.0781 46.3608 68.6943 45.0513 69.7988C43.7384 70.9262 42.8698 72.4666 42.6033 74.1512L42.4223 75.1312L39.382 94.3205L39.2439 95.0252C39.2077 95.248 39.1451 95.3595 39.053 95.4348C38.9708 95.5037 38.8523 95.5496 38.7371 95.5496H23.9077Z" fill="#253B80"/>
<path d="M75.8351 25.1289C75.7429 25.7156 75.6376 26.3153 75.5192 26.9315C71.4491 47.7464 57.5244 54.9371 39.7402 54.9371H30.6853C28.5104 54.9371 26.6777 56.5103 26.3387 58.6472L21.7027 87.9343L20.3898 96.236C20.1694 97.6388 21.2552 98.9038 22.6766 98.9038H38.7367C40.6385 98.9038 42.254 97.5273 42.5535 95.6592L42.7114 94.8464L45.7352 75.7324L45.9293 74.6836C46.2255 72.809 47.8443 71.4324 49.7461 71.4324H52.148C67.708 71.4324 79.8887 65.1398 83.4489 46.9304C84.9361 39.3235 84.1662 32.9718 80.2309 28.5047C79.0398 27.1576 77.5625 26.04 75.8351 25.1289Z" fill="#179BD7"/>
<path d="M71.5775 23.4376C70.9556 23.2573 70.314 23.0935 69.656 22.946C68.9946 22.8018 68.3168 22.674 67.6193 22.5625C65.1778 22.1692 62.5028 21.9824 59.6369 21.9824H35.4465C34.8509 21.9824 34.285 22.1168 33.7783 22.3593C32.6629 22.8935 31.8337 23.9456 31.633 25.2336L26.4869 57.6998L26.3389 58.647C26.6778 56.5101 28.5105 54.937 30.6854 54.937H39.7404C57.5245 54.937 71.4492 47.743 75.5193 26.9313C75.6411 26.3152 75.7431 25.7154 75.8352 25.1288C74.8053 24.5847 73.6899 24.1193 72.4889 23.7227C72.1928 23.6244 71.8868 23.5294 71.5775 23.4376Z" fill="#222D65"/>
<path d="M31.6331 25.2329C31.8338 23.9449 32.663 22.8928 33.7784 22.3619C34.2884 22.1194 34.8511 21.985 35.4466 21.985H59.6371C62.5029 21.985 65.178 22.1718 67.6194 22.5651C68.3169 22.6765 68.9947 22.8044 69.6561 22.9486C70.3142 23.096 70.9558 23.2599 71.5776 23.4402C71.8869 23.5319 72.1929 23.627 72.4923 23.722C73.6933 24.1186 74.8087 24.5873 75.8386 25.1281C77.0494 17.4359 75.8287 12.1986 71.6533 7.45615C67.0502 2.23521 58.7421 0 48.1111 0H17.2478C15.0762 0 13.2238 1.57317 12.8882 3.71333L0.0328664 84.8789C-0.220488 86.4848 1.02325 87.9334 2.64867 87.9334H21.7029L26.4871 57.6991L31.6331 25.2329Z" fill="#253B80"/>
</svg>
