<svg width="213" height="80" viewBox="0 0 213 80" fill="none" xmlns="http://www.w3.org/2000/svg">
<path d="M17.3537 79.9407H197.006C205.727 79.9407 212.637 73.0207 212.637 64.2855V16.8379C212.637 8.27405 205.727 1.18262 197.004 1.18262H17.386C8.6625 1.18262 1.74951 8.27405 1.74951 16.8379V64.2855C1.74951 73.0207 8.6606 79.9407 17.3822 79.9407" fill="#2151A8"/>
<path fill-rule="evenodd" clip-rule="evenodd" d="M197.007 70.0516C200.133 70.0516 202.771 67.5754 202.771 64.2858V16.8382C202.771 13.7049 199.985 10.9087 196.856 10.9087H17.3867C16.6037 10.8911 15.8251 11.0323 15.0979 11.3238C14.3708 11.6153 13.71 12.0512 13.1553 12.6051C12.6007 13.159 12.1636 13.8196 11.8704 14.5471C11.5773 15.2745 11.434 16.0539 11.4494 16.8382L11.4627 64.2858C11.4627 67.4096 14.2583 70.0516 17.3848 70.0516H197.007Z" fill="white"/>
<path d="M192.474 37.954H182.349L184.622 33.4016H194.747L197.014 29.0397H176.413L164.638 52.373H185.23L187.326 48.1768H177.201L180.253 42.1425H190.378L192.474 37.9521V37.954ZM162.626 52.373L159.482 39.2625L174.496 29.0397H163.592L151.192 37.5159L155.471 29.0397H145.004L133.222 52.373H143.689L147.611 44.5902L150.76 43.2816L152.596 52.373H162.626ZM117.852 49.3978C116.195 49.3978 115.326 49.0549 115.326 48.1768C115.326 47.4778 115.764 46.5178 116.285 45.4682L116.551 44.9406H105.81L104.851 46.8663C104.501 47.5597 104.243 48.2568 104.243 49.0549C104.243 51.413 106.158 53.2454 116.901 53.2454C126.581 53.2454 129.202 52.7235 130.771 49.6644L132.516 46.2568C133.22 44.9406 133.741 43.5482 133.741 42.3216C133.741 41.1825 133.304 39.874 130.599 39.173L122.486 36.994C121.52 36.733 121.172 36.3768 121.172 35.9368C121.172 35.5063 121.351 35.1559 121.52 34.8054L121.87 34.1063C122.658 32.5292 123.356 32.1806 125.274 32.1806C127.108 32.1806 127.813 32.6187 127.813 33.4949C127.813 34.2854 127.376 35.2454 126.929 36.1159L126.758 36.4663H137.315L138.191 34.7178C138.534 34.0168 138.8 33.2282 138.8 32.5292C138.8 30.1711 137.493 28.333 126.758 28.333C117.064 28.333 114.107 28.8606 112.533 31.9197L110.26 36.3768C109.925 37.0254 109.746 37.7437 109.739 38.474C109.739 39.613 110.437 40.9216 112.711 41.533L121.254 43.8987C122.129 44.1597 122.22 44.5902 122.22 44.9406C122.22 45.3787 121.96 46.0778 121.699 46.5978L121.254 47.4778C120.474 49.0549 119.775 49.3978 117.85 49.3978H117.852ZM93.507 29.0397H83.7319L71.9484 52.373H80.6776L85.7439 42.3216C86.1757 41.4435 86.7025 39.7921 86.7025 39.7921L88.5282 52.373H98.5658L110.357 29.0397H101.628L96.3825 39.7025C95.9508 40.573 95.424 42.1425 95.424 42.1425L93.507 29.0397ZM74.8315 37.954H64.7045L66.9714 33.4016H77.1041L79.3692 29.0397H58.7766L46.9951 52.373H67.5876L69.6834 48.1768H59.5564L62.6106 42.1425H72.7357L74.8315 37.9521V37.954ZM32.939 41.4435H36.87C38.0947 41.4435 38.6957 40.9216 39.0456 40.2244L41.9287 34.6282C42.1075 34.2854 42.1893 34.0187 42.1893 33.7578C42.1893 33.3197 41.8393 32.9692 41.0596 32.9692H37.218L32.939 41.4435ZM28.7569 29.0397H48.914C51.4471 29.0397 52.8431 30.0873 52.8431 31.6587C52.8431 32.5292 52.4874 33.3997 52.1451 34.1063L48.1266 42.0606C47.2575 43.8987 45.6828 45.3787 42.4593 45.3787H31.0258L27.4447 52.373H16.9678L28.7569 29.0397Z" fill="#231F20"/>
</svg>
