<svg width="168" height="64" viewBox="0 0 168 64" fill="none" xmlns="http://www.w3.org/2000/svg">
<g clip-path="url(#clip0_316_1830)">
<path d="M120.162 60.9601L110.841 44.0418H108.223V60.9601H97.3062V16.1426H115.629C119.162 16.1426 122.162 16.7597 124.631 17.994C127.142 19.2283 129.015 20.9307 130.249 23.1014C131.483 25.2295 132.1 27.613 132.1 30.2518C132.1 33.2311 131.249 35.8912 129.547 38.2321C127.887 40.573 125.418 42.2329 122.141 43.2118L132.483 60.9601H120.162ZM108.223 36.3169H114.991C116.991 36.3169 118.481 35.8274 119.46 34.8484C120.481 33.8695 120.992 32.4863 120.992 30.6987C120.992 28.9962 120.481 27.6555 119.46 26.6766C118.481 25.6977 116.991 25.2082 114.991 25.2082H108.223V36.3169Z" fill="black"/>
<path d="M136.819 53.168C138.21 52.063 138.845 51.5514 138.722 51.6333C142.732 48.3184 145.884 45.5969 148.175 43.4688C150.508 41.3407 152.472 39.1103 154.068 36.7776C155.664 34.4449 156.463 32.1735 156.463 29.9636C156.463 28.2857 156.074 26.9761 155.296 26.0348C154.519 25.0936 153.353 24.6229 151.797 24.6229C150.242 24.6229 149.014 25.2163 148.114 26.4032C147.255 27.5491 146.825 29.186 146.825 31.3141H136.696C136.778 27.8355 137.514 24.9299 138.906 22.5971C140.338 20.2645 142.2 18.5456 144.492 17.4406C146.825 16.3357 149.403 15.7832 152.227 15.7832C157.097 15.7832 160.76 17.0314 163.215 19.5278C165.711 22.0242 166.96 25.2777 166.96 29.2884C166.96 33.6673 165.466 37.7393 162.478 41.5044C159.491 45.2286 155.685 48.8709 151.06 52.4313H167.635V60.9644H136.819V53.168Z" fill="black"/>
<path d="M136.819 53.168C138.21 52.063 138.845 51.5514 138.722 51.6333C142.732 48.3184 145.884 45.5969 148.175 43.4688C150.508 41.3407 152.472 39.1103 154.068 36.7776C155.664 34.4449 156.463 32.1735 156.463 29.9636C156.463 28.2857 156.074 26.9761 155.296 26.0348C154.519 25.0936 153.353 24.6229 151.797 24.6229C150.242 24.6229 149.014 25.2163 148.114 26.4032C147.255 27.5491 146.825 29.186 146.825 31.3141H136.696C136.778 27.8355 137.514 24.9299 138.906 22.5971C140.338 20.2645 142.2 18.5456 144.492 17.4406C146.825 16.3357 149.403 15.7832 152.227 15.7832C157.097 15.7832 160.76 17.0314 163.215 19.5278C165.711 22.0242 166.96 25.2777 166.96 29.2884C166.96 33.6673 165.466 37.7393 162.478 41.5044C159.491 45.2286 155.685 48.8709 151.06 52.4313H167.635V60.9644H136.819V53.168Z" fill="black"/>
<path d="M11.2743 42.8436C17.501 42.8436 22.5487 37.7959 22.5487 31.5693C22.5487 25.3426 17.501 20.2949 11.2743 20.2949C5.04769 20.2949 0 25.3426 0 31.5693C0 37.7959 5.04769 42.8436 11.2743 42.8436Z" fill="black"/>
<path d="M31.3793 63.1366C37.606 63.1366 42.6537 58.0889 42.6537 51.8622C42.6537 45.6356 37.606 40.5879 31.3793 40.5879C25.1527 40.5879 20.105 45.6356 20.105 51.8622C20.105 58.0889 25.1527 63.1366 31.3793 63.1366Z" fill="black"/>
<path d="M51.6728 42.8436C57.8994 42.8436 62.9471 37.7959 62.9471 31.5693C62.9471 25.3426 57.8994 20.2949 51.6728 20.2949C45.4461 20.2949 40.3984 25.3426 40.3984 31.5693C40.3984 37.7959 45.4461 42.8436 51.6728 42.8436Z" fill="black"/>
<path d="M72.3046 22.5487C78.5313 22.5487 83.5789 17.501 83.5789 11.2743C83.5789 5.04769 78.5313 0 72.3046 0C66.078 0 61.0303 5.04769 61.0303 11.2743C61.0303 17.501 66.078 22.5487 72.3046 22.5487Z" fill="black"/>
</g>
<defs>
<clipPath id="clip0_316_1830">
<rect width="168" height="63.1373" fill="white"/>
</clipPath>
</defs>
</svg>
