<svg width="399" height="88" viewBox="0 0 399 88" fill="none" xmlns="http://www.w3.org/2000/svg">
<g clip-path="url(#clip0_316_1686)">
<path fill-rule="evenodd" clip-rule="evenodd" d="M271.711 0H287.35V87.2608H271.711V0ZM398.368 36.7634V23.2222H382.195V5.56727H366.556V69.932C366.556 75.8461 368.044 80.3531 370.978 83.3283C373.909 86.306 378.48 87.8155 384.56 87.8155H398.368V74.2745H388.264C386.067 74.2745 384.491 73.7913 383.578 72.8373C382.74 71.9642 382.195 69.7587 382.195 67.2191V36.7634H398.368ZM165.472 70.2763L181.643 23.2203H198.074L174.73 87.2616H156.215L132.87 23.2203H149.301L165.472 70.2763ZM341.063 55.3022C341.063 59.3565 340.447 62.8837 339.237 65.7855C338.036 68.6716 336.314 70.8843 334.12 72.3602C331.925 73.8361 329.227 74.5847 326.101 74.5847C321.629 74.5847 318.255 73.1151 316.074 70.2182C313.868 67.2906 312.749 62.8535 312.749 57.0309V23.222H297.11V58.7595C297.11 64.2931 297.8 68.9865 299.167 72.7078C300.534 76.4404 302.412 79.4766 304.747 81.7305C307.082 83.982 309.807 85.6081 312.848 86.5653C315.873 87.5177 319.129 88 322.523 88C327.412 88 331.46 87.1131 334.548 85.3639C337.364 83.7636 339.727 81.8928 341.575 79.7948L342.975 87.2605H356.703V23.222H341.063V55.3022ZM247.803 26.5992C242.874 23.8665 237.021 22.482 230.409 22.482C223.878 22.482 218.047 23.8665 213.077 26.5984C208.102 29.3373 204.193 33.2051 201.458 38.0944C198.727 42.9792 197.342 48.769 197.342 55.3022C197.342 61.7554 198.727 67.5048 201.458 72.3896C204.191 77.2772 208.101 81.1442 213.077 83.8827C218.047 86.6148 223.878 87.9992 230.409 87.9992C237.021 87.9992 242.873 86.6148 247.803 83.8819C252.737 81.1448 256.625 77.278 259.36 72.3896C262.091 67.502 263.477 61.7526 263.477 55.3022C263.477 48.7715 262.091 42.9817 259.36 38.0941C256.623 33.2043 252.736 29.3362 247.803 26.5992ZM239.54 72.3566C237.02 73.9973 233.948 74.8297 230.41 74.8297C226.953 74.8297 223.901 73.9976 221.339 72.3561C218.772 70.7127 216.76 68.3933 215.356 65.4613C213.945 62.5265 213.229 59.109 213.229 55.3022C213.229 51.417 213.944 47.9798 215.356 45.0849C216.759 42.1924 218.773 39.8723 221.342 38.1876C223.903 36.5046 226.954 35.6516 230.41 35.6516C233.946 35.6516 237.016 36.5046 239.537 38.1857C242.064 39.8714 244.059 42.1924 245.466 45.0857C246.875 47.9875 247.59 51.425 247.59 55.3025C247.59 59.1005 246.875 62.5191 245.466 65.4613C244.059 68.3939 242.065 70.7135 239.54 72.3566ZM16.254 21.5357H0V87.2616H16.254V21.5357ZM67.226 25.2941C67.226 11.3475 55.869 0.00094413 41.9086 0.00094413H0V14.0372H39.916C46.2338 14.0372 51.4671 19.0006 51.5829 25.1008C51.6406 28.1553 50.4941 31.0381 48.3549 33.2181C46.2148 35.3985 43.3554 36.6003 40.3034 36.6003H24.754C24.202 36.6003 23.7527 37.0488 23.7527 37.601V50.0759C23.7527 50.2882 23.8182 50.4908 23.9415 50.6616L50.3234 87.2619H69.6352L43.192 50.5615C56.5089 49.893 67.226 38.704 67.226 25.2941ZM117.206 26.2266C112.524 23.7414 106.964 22.482 100.682 22.482C94.3915 22.482 88.7675 23.8674 83.9655 26.601C79.1554 29.3373 75.3714 33.206 72.7188 38.0977C70.0689 42.9784 68.7258 48.8086 68.7258 55.4273C68.7258 61.878 70.0895 67.6255 72.7809 72.5112C75.4781 77.4081 79.3686 81.2553 84.3422 83.9457C89.3065 86.6363 95.2614 88 102.04 88C107.417 88 112.246 86.9927 116.392 85.0042C120.54 83.0107 123.925 80.2961 126.456 76.9354C128.86 73.7412 130.482 70.1286 131.276 66.1988L131.361 65.7794H115.807L115.734 66.0314C114.878 68.9626 113.216 71.2786 110.794 72.9168C108.194 74.6782 105.001 75.5717 101.301 75.5717C98.1656 75.5717 95.3337 74.8998 92.8848 73.5749C90.4478 72.2576 88.5423 70.3739 87.2226 67.974C85.8976 65.5658 85.1436 62.6681 84.9824 59.3791V58.8648H131.964L132.017 58.5778C132.18 57.6763 132.286 56.7474 132.331 55.8132C132.37 54.9029 132.393 53.9938 132.393 53.0761C132.309 46.8713 130.922 41.4136 128.271 36.853C125.61 32.2872 121.887 28.7117 117.206 26.2266ZM111.507 38.2866C114.179 40.5356 115.841 43.7313 116.451 47.7917H85.5225C85.8759 45.1572 86.7507 42.8755 88.1248 41.0039C89.5664 39.0406 91.413 37.4982 93.6144 36.4191C95.8182 35.3367 98.238 34.7872 100.805 34.7872C105.145 34.787 108.745 35.9645 111.507 38.2866Z" fill="black"/>
</g>
<defs>
<clipPath id="clip0_316_1686">
<rect width="398.75" height="88" fill="white"/>
</clipPath>
</defs>
</svg>
