<svg width="409" height="82" viewBox="0 0 409 82" fill="none" xmlns="http://www.w3.org/2000/svg">
<mask id="mask0_316_1654" style="mask-type:luminance" maskUnits="userSpaceOnUse" x="0" y="0" width="54" height="54">
<path fill-rule="evenodd" clip-rule="evenodd" d="M0 0H53.0485V53.5908H0V0Z" fill="white"/>
</mask>
<g mask="url(#mask0_316_1654)">
<path fill-rule="evenodd" clip-rule="evenodd" d="M26.4713 53.5908C41.1475 53.5908 53.0484 41.5944 53.0484 26.7981C53.0484 11.9964 41.1475 0 26.4713 0C11.7933 0 -0.109375 11.9964 -0.109375 26.7981C-0.109375 41.5944 11.7933 53.5908 26.4713 53.5908" fill="#2F79B1"/>
</g>
<path fill-rule="evenodd" clip-rule="evenodd" d="M16.04 13.3838V40.1783H27.9354C30.2209 40.1783 32.816 40.1783 34.7536 38.7333C36.6111 37.3674 38.0079 35.2964 38.0079 32.9518C38.0079 29.4781 35.7607 26.9352 32.4681 26.2725V26.1972C35.2562 25.4903 37.2722 23.4615 37.2722 20.4156C37.2722 17.8728 36.1467 15.923 34.0179 14.557C32.1931 13.3838 30.026 13.3838 27.9354 13.3838H16.04ZM22.239 18.1502H25.9977C27.0394 18.1502 28.6674 18.0308 29.5616 18.5394C30.412 19.0461 30.8764 19.9843 30.8764 20.9611C30.8764 21.8589 30.4922 22.8356 29.7546 23.3846C28.824 24.0859 27.5475 24.0051 26.4621 24.0051H22.239V18.1502ZM22.239 28.7694H26.8099C27.817 28.7694 29.0571 28.7694 29.9458 29.2816C30.84 29.7902 31.461 30.8441 31.461 31.8575C31.461 32.9518 30.9529 34.0479 30.0642 34.6317C29.0954 35.2963 27.6604 35.2192 26.5386 35.2192H22.239V28.7694V28.7694Z" fill="#FFFFFE"/>
<path fill-rule="evenodd" clip-rule="evenodd" d="M110.473 28.2521C106.372 16.5348 96.7983 12.3965 85.0796 12.3965C78.9261 12.3965 73.1642 13.7772 68.2818 17.9118C63.4978 21.951 61.0557 27.4626 61.0557 33.7674C61.0557 48.5343 72.7763 52.0778 84.6899 54.5417C88.791 55.4303 96.4122 56.5099 96.4122 62.1225C96.4122 67.737 90.4518 69.4114 85.961 69.4114C79.0244 69.4114 73.9472 66.9493 71.9932 59.8587L57.5374 63.2057C60.5677 76.401 71.9932 81.9163 84.5897 81.9163C91.3314 81.9163 98.6577 80.6366 104.03 76.401C109.202 72.3673 112.332 66.0625 112.332 59.4658C112.332 52.7663 109.009 47.1537 103.542 43.5147C98.8525 40.3642 91.5263 38.9835 86.0557 37.8011C82.2478 37.1126 76.3875 35.9321 76.3875 31.0079C76.3875 25.79 81.4665 24.705 85.6678 24.705C91.6228 24.705 95.2376 26.9706 97.1935 32.6824L110.473 28.2521ZM162.238 80.9303C161.454 78.4701 161.261 76.0062 161.261 73.4468V50.1095C161.261 44.1058 161.749 38.5905 156.67 34.4559C152.666 31.1052 146.028 29.9246 140.945 29.9246C130.496 29.9246 118.773 33.4699 117.309 45.5838L130.887 46.8598C130.887 41.9375 134.89 39.5764 139.479 39.5764C141.632 39.5764 144.074 40.2631 145.341 41.9375C146.806 43.8084 146.611 46.3659 146.611 48.5342V49.7185C140.557 50.306 132.643 50.7007 126.981 52.8672C120.434 55.3311 115.843 60.3544 115.843 67.7369C115.843 77.1867 122.682 81.9163 131.472 81.9163C138.897 81.9163 143.193 79.0613 147.294 73.1531C147.199 75.7124 147.394 78.3691 147.98 80.9303H162.238ZM146.611 58.9702C146.611 62.5173 146.711 65.4714 144.657 68.6238C142.998 71.1832 140.361 72.7585 137.433 72.7585C133.424 72.7585 131.082 70.0999 131.082 66.1599C131.082 58.8765 141.144 57.5968 146.611 57.0056V58.9702ZM183.724 52.7661C183.724 47.4528 184.701 39.872 191.637 39.872C199.546 39.872 199.546 50.3059 199.546 55.9222C199.546 61.3366 199.546 71.7723 191.442 71.7723C188.802 71.7723 186.753 70.4908 185.383 68.3262C183.823 65.8623 183.724 62.7135 183.724 59.9559V52.7661ZM169.172 80.9303H176.987C177.864 78.2737 178.453 75.4187 180.212 73.2485C183.823 79.2596 187.241 81.9163 194.371 81.9163C209.313 81.9163 214.49 69.0147 214.49 55.9223C214.49 44.1058 210.192 29.9246 196.033 29.9246C190.464 29.9246 186.362 32.2894 183.919 37.2135H183.53V13.3805H169.172V80.9303ZM263.809 80.9303C263.026 78.4701 262.833 76.0062 262.833 73.4468V50.1095C262.833 44.1058 263.319 38.5905 258.242 34.4559C254.236 31.1052 247.598 29.9246 242.515 29.9246C232.067 29.9246 220.347 33.4699 218.881 45.5838L232.459 46.8598C232.459 41.9375 236.462 39.5764 241.053 39.5764C243.202 39.5764 245.644 40.2631 246.913 41.9375C248.377 43.8084 248.182 46.3659 248.182 48.5342V49.7185C242.129 50.306 234.215 50.7007 228.553 52.8672C222.006 55.3311 217.417 60.3544 217.417 67.7369C217.417 77.1867 224.253 81.9163 233.044 81.9163C240.466 81.9163 244.764 79.0613 248.865 73.1531C248.771 75.7124 248.964 78.3691 249.552 80.9303H263.809ZM248.182 58.9702C248.182 62.5173 248.281 65.4714 246.23 68.6238C244.568 71.1832 241.932 72.7585 239.004 72.7585C234.998 72.7585 232.654 70.0999 232.654 66.1599C232.654 58.8765 242.715 57.5968 248.182 57.0056V58.9702ZM313.132 80.9303V13.3805H298.774V36.2276C295.651 31.5972 291.938 29.9246 286.372 29.9246C271.917 29.9246 268.203 44.5979 268.203 56.5098C268.203 68.128 272.11 81.9163 286.076 81.9163C292.426 81.9163 296.529 78.4701 299.262 73.1531H299.457V80.9303H313.132ZM298.774 60.0571C298.774 62.5173 298.674 65.174 297.505 67.4396C296.334 69.707 293.89 71.4769 291.255 71.4769C284.123 71.4769 283.342 62.3227 283.342 56.9083C283.342 50.8991 283.637 40.0686 291.839 40.0686C298.386 40.0686 298.774 48.3379 298.774 53.1647V60.0571ZM365.872 58.3825C365.971 51.5875 364.896 44.4969 360.795 38.787C356.694 33.0752 349.563 29.9246 342.626 29.9246C327.198 29.9246 318.504 41.8402 318.504 56.6108C318.504 71.4768 328.176 81.9163 343.019 81.9163C359.819 81.9163 365.579 67.1457 365.579 64.6855L352.298 63.6995C352.298 68.3262 347.904 71.5778 343.509 71.5778C337.254 71.5778 333.936 66.7546 333.936 60.8446L334.032 58.3825H365.872ZM333.936 49.8159C334.424 44.1059 336.866 39.3783 343.212 39.3783C349.462 39.3783 351.223 44.396 351.517 49.8159H333.936ZM372.219 80.9303H386.578V13.3805H372.219V80.9303ZM393.708 80.9303H408.065V13.3805H393.708V80.9303Z" fill="#1A1919"/>
</svg>
