<svg width="273" height="191" viewBox="0 0 273 191" fill="none" xmlns="http://www.w3.org/2000/svg">
<mask id="mask0_316_6266" style="mask-type:luminance" maskUnits="userSpaceOnUse" x="0" y="0" width="273" height="191">
<path d="M0.0599976 0.5H272.06V190.5H0.0599976V0.5Z" fill="white"/>
</mask>
<g mask="url(#mask0_316_6266)">
<path fill-rule="evenodd" clip-rule="evenodd" d="M113 21.3007C121.78 12.1607 134 6.50073 147.5 6.50073C165.5 6.50073 181.1 16.5007 189.5 31.4007C196.956 28.0675 205.033 26.3466 213.2 26.3507C245.6 26.3507 271.9 52.8507 271.9 85.5507C271.9 118.251 245.6 144.751 213.2 144.751C209.24 144.751 205.38 144.353 201.6 143.601C194.25 156.701 180.2 165.601 164.2 165.601C157.686 165.614 151.255 164.136 145.4 161.281C137.95 178.781 120.6 191.081 100.4 191.081C79.3 191.081 61.4 177.781 54.5 159.081C51.429 159.729 48.2987 160.055 45.16 160.053C20.06 160.053 -0.240005 139.453 -0.240005 114.153C-0.240005 97.1527 8.89999 82.3527 22.46 74.3527C19.5832 67.7257 18.1025 60.5772 18.11 53.3527C18.11 24.1527 41.81 0.552734 71.01 0.552734C88.11 0.552734 103.41 8.70273 113.01 21.3527" fill="#00A1E0"/>
</g>
<path fill-rule="evenodd" clip-rule="evenodd" d="M39.4 99.3004C39.229 99.7464 39.461 99.8394 39.516 99.9184C40.027 100.288 40.546 100.556 41.066 100.857C43.846 102.327 46.466 102.757 49.206 102.757C54.786 102.757 58.256 99.7874 58.256 95.0074V94.9134C58.256 90.4934 54.336 88.8834 50.676 87.7334L50.197 87.5784C47.427 86.6804 45.037 85.8984 45.037 84.0784V83.9854C45.037 82.4254 46.437 81.2754 48.597 81.2754C50.997 81.2754 53.857 82.0744 55.687 83.0854C55.687 83.0854 56.229 83.4354 56.426 82.9124C56.533 82.6294 57.466 80.1324 57.566 79.8524C57.672 79.5594 57.486 79.3384 57.295 79.2244C55.195 77.9444 52.295 77.0744 49.295 77.0744L48.738 77.0764C43.628 77.0764 40.058 80.1664 40.058 84.5864V84.6814C40.058 89.3414 43.998 90.8614 47.678 91.9114L48.27 92.0954C50.95 92.9194 53.27 93.6354 53.27 95.5154V95.6094C53.27 97.3394 51.76 98.6294 49.34 98.6294C48.399 98.6294 45.4 98.6134 42.15 96.5594C41.757 96.3304 41.533 96.1654 41.23 95.9804C41.07 95.8834 40.67 95.7084 40.496 96.2324L39.396 99.2924M121.096 99.2924C120.925 99.7384 121.157 99.8314 121.214 99.9104C121.723 100.28 122.244 100.548 122.764 100.849C125.544 102.319 128.164 102.749 130.904 102.749C136.484 102.749 139.954 99.7794 139.954 94.9994V94.9054C139.954 90.4854 136.044 88.8754 132.374 87.7254L131.895 87.5704C129.125 86.6724 126.735 85.8904 126.735 84.0704V83.9774C126.735 82.4174 128.135 81.2674 130.295 81.2674C132.695 81.2674 135.545 82.0664 137.385 83.0774C137.385 83.0774 137.927 83.4274 138.125 82.9044C138.231 82.6214 139.165 80.1244 139.255 79.8444C139.362 79.5514 139.175 79.3304 138.985 79.2164C136.885 77.9364 133.985 77.0664 130.985 77.0664L130.427 77.0684C125.317 77.0684 121.747 80.1584 121.747 84.5784V84.6734C121.747 89.3334 125.687 90.8534 129.367 91.9034L129.958 92.0874C132.648 92.9114 134.958 93.6274 134.958 95.5074V95.6014C134.958 97.3314 133.448 98.6214 131.028 98.6214C130.085 98.6214 127.078 98.6054 123.838 96.5514C123.445 96.3224 123.215 96.1644 122.917 95.9724C122.816 95.9084 122.345 95.7244 122.184 96.2244L121.084 99.2844M176.884 89.9244C176.884 92.6244 176.38 94.7544 175.394 96.2644C174.41 97.7544 172.924 98.4844 170.854 98.4844C168.784 98.4844 167.304 97.7604 166.334 96.2744C165.357 94.7744 164.864 92.6344 164.864 89.9344C164.864 87.2344 165.36 85.1144 166.334 83.6244C167.302 82.1444 168.774 81.4344 170.854 81.4344C172.934 81.4344 174.414 82.1514 175.394 83.6244C176.386 85.1144 176.884 87.2344 176.884 89.9344M181.544 84.9244C181.085 83.3744 180.374 82.0144 179.424 80.8744C178.473 79.7344 177.274 78.8144 175.844 78.1544C174.424 77.4894 172.744 77.1544 170.844 77.1544C168.944 77.1544 167.274 77.4914 165.844 78.1544C164.424 78.8184 163.214 79.7344 162.264 80.8744C161.316 82.0144 160.604 83.3744 160.144 84.9244C159.689 86.4644 159.458 88.1444 159.458 89.9344C159.458 91.7244 159.689 93.4044 160.144 94.9444C160.601 96.4944 161.314 97.8544 162.264 98.9944C163.215 100.134 164.424 101.044 165.844 101.694C167.274 102.342 168.954 102.672 170.844 102.672C172.734 102.672 174.414 102.342 175.834 101.694C177.254 101.046 178.464 100.134 179.414 98.9944C180.363 97.8544 181.074 96.4944 181.534 94.9444C181.988 93.4044 182.219 91.7244 182.219 89.9344C182.219 88.1544 181.988 86.4644 181.534 84.9244M219.834 97.7244C219.681 97.2714 219.239 97.4424 219.239 97.4424C218.562 97.7014 217.839 97.9414 217.069 98.0614C216.293 98.1834 215.429 98.2444 214.519 98.2444C212.269 98.2444 210.469 97.5734 209.189 96.2444C207.899 94.9144 207.179 92.7744 207.189 89.8744C207.196 87.2344 207.834 85.2544 208.979 83.7344C210.109 82.2344 211.849 81.4544 214.149 81.4544C216.069 81.4544 217.539 81.6774 219.079 82.1594C219.079 82.1594 219.444 82.3184 219.619 81.8374C220.028 80.7074 220.33 79.8974 220.769 78.6574C220.893 78.3024 220.589 78.1524 220.478 78.1094C219.874 77.8734 218.448 77.4864 217.368 77.3234C216.358 77.1694 215.188 77.0894 213.868 77.0894C211.908 77.0894 210.168 77.4244 208.678 78.0884C207.188 78.7514 205.928 79.6684 204.928 80.8084C203.928 81.9484 203.168 83.3084 202.658 84.8584C202.153 86.3984 201.898 88.0884 201.898 89.8784C201.898 93.7384 202.938 96.8684 204.998 99.1584C207.058 101.458 210.158 102.618 214.198 102.618C216.588 102.618 219.038 102.135 220.798 101.438C220.798 101.438 221.134 101.276 220.988 100.884L219.838 97.7244M227.988 87.3244C228.211 85.8244 228.622 84.5744 229.268 83.6044C230.235 82.1244 231.708 81.3144 233.778 81.3144C235.848 81.3144 237.218 82.1284 238.198 83.6044C238.848 84.5794 239.132 85.8744 239.238 87.3244L227.938 87.3224L227.988 87.3244ZM243.688 84.0244C243.291 82.5344 242.308 81.0244 241.668 80.3344C240.648 79.2444 239.658 78.4744 238.668 78.0544C237.239 77.4467 235.701 77.1347 234.148 77.1374C232.178 77.1374 230.388 77.4704 228.938 78.1474C227.488 78.8294 226.268 79.7574 225.308 80.9174C224.349 82.0774 223.628 83.4474 223.168 85.0174C222.708 86.5674 222.476 88.2674 222.476 90.0474C222.476 91.8674 222.717 93.5574 223.191 95.0874C223.67 96.6274 224.441 97.9774 225.481 99.0974C226.521 100.227 227.851 101.107 229.451 101.727C231.041 102.342 232.971 102.661 235.181 102.654C239.741 102.639 242.141 101.624 243.121 101.074C243.296 100.976 243.461 100.807 243.255 100.32L242.225 97.4304C242.067 96.9994 241.631 97.1554 241.631 97.1554C240.501 97.5774 238.901 98.3354 235.151 98.3254C232.701 98.3214 230.891 97.5984 229.751 96.4654C228.591 95.3054 228.011 93.6154 227.921 91.2154L243.721 91.2274C243.721 91.2274 244.137 91.2234 244.18 90.8174C244.197 90.6494 244.721 87.5774 243.709 84.0274L243.688 84.0244ZM101.688 87.3244C101.911 85.8244 102.323 84.5744 102.968 83.6044C103.936 82.1244 105.408 81.3144 107.478 81.3144C109.548 81.3144 110.918 82.1284 111.898 83.6044C112.547 84.5794 112.831 85.8744 112.938 87.3244L101.638 87.3224L101.688 87.3244ZM117.388 84.0244C116.992 82.5344 116.008 81.0244 115.368 80.3344C114.348 79.2444 113.358 78.4744 112.368 78.0544C110.939 77.4467 109.401 77.1347 107.848 77.1374C105.878 77.1374 104.088 77.4704 102.638 78.1474C101.188 78.8294 99.968 79.7574 99.008 80.9174C98.051 82.0774 97.328 83.4474 96.868 85.0174C96.409 86.5674 96.178 88.2674 96.178 90.0474C96.178 91.8674 96.417 93.5574 96.894 95.0874C97.372 96.6274 98.144 97.9774 99.174 99.0974C100.214 100.227 101.544 101.107 103.144 101.727C104.734 102.342 106.654 102.661 108.874 102.654C113.434 102.639 115.834 101.624 116.814 101.074C116.988 100.976 117.154 100.807 116.947 100.32L115.917 97.4304C115.758 96.9994 115.322 97.1554 115.322 97.1554C114.192 97.5774 112.592 98.3354 108.842 98.3254C106.402 98.3214 104.582 97.5984 103.442 96.4654C102.282 95.3054 101.702 93.6154 101.612 91.2154L117.412 91.2274C117.412 91.2274 117.828 91.2234 117.871 90.8174C117.888 90.6494 118.412 87.5774 117.399 84.0274L117.388 84.0244ZM67.588 97.6244C66.969 97.1304 66.883 97.0094 66.678 96.6884C66.365 96.2054 66.205 95.5184 66.205 94.6384C66.205 93.2584 66.665 92.2584 67.615 91.5884C67.605 91.5904 68.975 90.4084 72.195 90.4484C73.6282 90.4741 75.0581 90.596 76.475 90.8134V97.9834H76.477C76.477 97.9834 74.477 98.4144 72.217 98.5504C69.007 98.7434 67.587 97.6264 67.597 97.6294L67.588 97.6244ZM73.868 86.5244C73.228 86.4774 72.398 86.4544 71.408 86.4544C70.058 86.4544 68.748 86.6224 67.528 86.9524C66.298 87.2844 65.188 87.7984 64.238 88.4824C63.2854 89.162 62.5019 90.0516 61.948 91.0824C61.389 92.1224 61.104 93.3424 61.104 94.7224C61.104 96.1224 61.347 97.3324 61.827 98.3224C62.2973 99.3044 63.0054 100.153 63.887 100.792C64.764 101.43 65.847 101.902 67.097 102.182C68.337 102.465 69.737 102.608 71.277 102.608C72.897 102.608 74.507 102.472 76.067 102.209C77.3957 101.98 78.7193 101.723 80.037 101.437C80.563 101.316 81.147 101.157 81.147 101.157C81.537 101.058 81.507 100.641 81.507 100.641L81.498 86.2414C81.498 83.0814 80.654 80.7314 78.988 79.2814C77.328 77.8314 74.898 77.1014 71.748 77.1014C70.568 77.1014 68.658 77.2614 67.518 77.4904C67.518 77.4904 64.078 78.1584 62.658 79.2704C62.658 79.2704 62.346 79.4624 62.516 79.8974L63.636 82.8974C63.775 83.2864 64.154 83.1534 64.154 83.1534C64.154 83.1534 64.273 83.1064 64.413 83.0234C67.443 81.3734 71.283 81.4234 71.283 81.4234C72.983 81.4234 74.303 81.7684 75.183 82.4434C76.044 83.1044 76.483 84.1034 76.483 86.2034V86.8704C75.133 86.6744 73.883 86.5614 73.883 86.5614L73.868 86.5244ZM200.868 78.3944C200.891 78.3417 200.903 78.2849 200.903 78.2275C200.903 78.17 200.892 78.1131 200.87 78.0601C200.848 78.0071 200.815 77.9591 200.774 77.919C200.733 77.8788 200.684 77.8473 200.631 77.8264C200.362 77.7244 199.021 77.4414 197.991 77.3774C196.011 77.2534 194.911 77.5874 193.921 78.0314C192.943 78.4724 191.861 79.1814 191.261 80.0014L191.259 78.0814C191.259 77.8174 191.072 77.6044 190.806 77.6044H186.766C186.504 77.6044 186.314 77.8174 186.314 78.0814V101.581C186.314 101.708 186.365 101.83 186.455 101.92C186.544 102.01 186.666 102.06 186.793 102.06H190.933C191.06 102.06 191.181 102.01 191.271 101.92C191.361 101.83 191.411 101.708 191.411 101.581V89.7814C191.411 88.2014 191.585 86.6314 191.932 85.6414C192.274 84.6624 192.739 83.8814 193.312 83.3214C193.859 82.7805 194.527 82.3792 195.262 82.1514C195.951 81.9536 196.665 81.8533 197.382 81.8534C198.207 81.8534 199.112 82.0654 199.112 82.0654C199.416 82.0994 199.585 81.9134 199.688 81.6394C199.959 80.9184 200.728 78.7594 200.878 78.3294" fill="#FFFFFE"/>
<path fill-rule="evenodd" clip-rule="evenodd" d="M162.201 67.5484C161.689 67.3938 161.169 67.2702 160.642 67.1784C159.934 67.0602 159.216 67.0046 158.498 67.0124C155.645 67.0124 153.396 67.8184 151.817 69.4104C150.249 70.9904 149.182 73.3974 148.647 76.5644L148.454 77.6334H144.873C144.873 77.6334 144.436 77.6154 144.344 78.0924L143.756 81.3724C143.715 81.6864 143.85 81.8824 144.27 81.8804H147.756L144.219 101.623C143.942 103.213 143.625 104.521 143.274 105.512C142.928 106.49 142.59 107.223 142.174 107.755C141.771 108.27 141.389 108.649 140.73 108.87C140.186 109.053 139.56 109.137 138.874 109.137C138.492 109.137 137.984 109.073 137.609 108.998C137.234 108.924 137.039 108.84 136.758 108.722C136.758 108.722 136.349 108.566 136.188 108.976C136.057 109.311 135.128 111.866 135.018 112.182C134.906 112.494 135.063 112.74 135.261 112.811C135.725 112.977 136.07 113.083 136.702 113.232C137.58 113.439 138.32 113.452 139.013 113.452C140.465 113.452 141.788 113.248 142.885 112.852C143.989 112.453 144.95 111.758 145.8 110.817C146.719 109.802 147.297 108.739 147.85 107.289C148.397 105.852 148.863 104.068 149.236 101.989L152.79 81.8804H157.986C157.986 81.8804 158.424 81.8964 158.515 81.4214L159.103 78.1414C159.144 77.8274 159.01 77.6314 158.588 77.6334H153.545C153.57 77.5194 153.799 75.7454 154.378 74.0754C154.625 73.3624 155.09 72.7874 155.484 72.3924C155.852 72.0162 156.305 71.7343 156.805 71.5704C157.353 71.401 157.924 71.3186 158.498 71.3264C158.973 71.3264 159.439 71.3834 159.794 71.4574C160.283 71.5614 160.473 71.6164 160.601 71.6544C161.115 71.8114 161.184 71.6594 161.285 71.4104L162.491 68.0984C162.615 67.7424 162.313 67.5924 162.201 67.5484ZM91.727 101.665C91.727 101.929 91.539 102.144 91.275 102.144H87.092C86.827 102.144 86.639 101.929 86.639 101.665V67.9974C86.639 67.7344 86.827 67.5214 87.092 67.5214H91.275C91.539 67.5214 91.727 67.7344 91.727 67.9974V101.665Z" fill="#FFFFFE"/>
</svg>
