<svg width="420" height="149" viewBox="0 0 420 149" fill="none" xmlns="http://www.w3.org/2000/svg">
<g clip-path="url(#clip0_316_1769)">
<path d="M265.066 0.0747394C279.29 0.416962 304.182 2.00052 315.312 11.6559C324.207 19.3714 323.325 30.0316 320.71 40.5332C316.852 56.0296 306.3 70.8012 288.787 70.8276C281.781 70.8385 273.857 58.4563 272.605 52.3212C271.016 44.5419 278.491 37.8405 284.561 34.409C291.088 30.7192 299.066 28.501 306.598 29.3052C306.847 17.609 292.041 13.3001 282.804 11.3416C263.152 7.17585 240.064 7.49941 220.039 8.3223C206.873 8.86363 191.705 9.42674 178.856 12.093C174.852 12.9236 167.819 16.0379 164.206 15.6054C163.753 15.551 163.03 15.3954 162.821 14.9583C162.56 14.1199 162.969 13.8414 163.647 13.5272C166.477 12.2174 171.111 11.1005 174.219 10.2559C198.761 3.5903 226.302 0.612962 251.689 0.0747394C256.069 -0.0185939 260.688 -0.0310383 265.066 0.0747394ZM304.979 41.3467C303.335 39.8207 298.316 38.7163 296.024 38.2434C294.398 37.9074 291.419 37.2307 289.86 37.251C287.689 37.279 287.661 39.547 287.468 41.2021C287.05 44.7907 286.829 50.061 287.726 53.533C288.375 56.0436 289.159 56.1354 291.43 56.9832C294.462 58.1156 300.082 59.7163 303.252 59.7894C304.968 59.8283 305.455 59.0707 305.646 57.5043C306.121 53.6154 306.216 47.8863 305.82 43.999C305.712 42.935 305.771 42.0825 304.979 41.3467Z" fill="#B3965A"/>
<path d="M349.689 148.244L349.442 148.101C344.243 147.921 341.28 142.769 339.094 138.701C338.593 138.158 337.766 138.309 337.089 138.294C337.299 139.812 336.667 144.827 337.487 145.905C337.815 146.337 338.786 146.445 339.226 146.653C339.733 146.894 339.285 147.389 338.879 147.327L331.956 147.311C331.724 146.417 332.694 146.56 333.258 146.204C333.718 145.913 333.85 145.392 333.965 144.889C333.849 140.625 334.679 135.074 334.121 130.923C333.965 129.764 333.239 129.343 332.111 129.432L332.13 128.906C332.189 128.71 332.323 128.686 332.5 128.654C333.412 128.486 334.911 128.717 335.928 128.66C337.523 128.57 339.114 128.198 340.726 128.361C346.957 128.991 348.566 135.357 342.44 137.968C342.297 138.029 342.151 137.88 342.236 138.199C342.406 138.824 344.039 141.464 344.49 142.167C345.979 144.478 347.791 146.953 350.686 147.448L350.776 148.244H349.687H349.689ZM337.244 137.362H340.433C340.628 137.362 341.855 136.699 342.071 136.511C343.996 134.831 343.23 130.744 341.031 129.612C340.177 129.172 337.842 128.7 337.47 129.889C337.436 130.001 337.244 131.004 337.244 131.063V137.36V137.362Z" fill="#B3965A"/>
<path d="M35.8682 68.1078C34.7637 69.2045 34.2364 70.5112 32.3464 69.9698C31.8035 69.5918 33.1444 67.3378 33.4166 66.8245C36.9804 60.1154 43.954 52.4745 50.1948 48.1454C51.1453 47.4858 52.8331 46.1294 53.9842 46.4778C55.1353 46.8263 57.5915 50.4585 58.5637 51.5396C68.6857 62.794 86.0333 64.7152 100.418 64.1381C108.217 63.8254 125.829 61.1592 130.485 54.2323C134.515 48.2372 125.224 45.5865 121.055 44.5863C100.824 39.7376 78.2602 42.7896 58.2651 36.6032C47.314 33.2136 41.98 26.4936 52.9046 18.0485C63.4622 9.8865 83.0419 4.73605 96.2113 3.34072C110.823 1.79294 133.465 2.52872 146.535 9.79005C147.8 10.4932 150.887 12.2229 150.351 13.9216C150.032 14.9312 144.829 18.3129 143.657 19.0472C140.703 20.8998 135.579 23.9425 132.375 25.0283C131.325 25.3845 130.094 25.4716 129.628 24.2521C131.025 21.9421 132.532 20.9652 130.357 18.4965C123.917 11.1854 103.742 9.65783 94.4908 9.86472C87.6464 10.0187 73.3835 11.4561 68.3031 16.3389C61.6966 22.6903 75.4928 26.2681 79.5762 27.2714C97.7062 31.7265 116.396 30.9814 134.584 34.0163C141.117 35.1067 154.745 38.1945 149.88 47.8094C145.426 56.6092 127.078 65.0294 117.991 68.1763C96.4555 75.6336 78.1731 74.8029 56.5011 68.5263C52.5064 67.3689 47.6935 65.3467 43.6304 64.9096C39.5984 64.4772 38.5266 65.4665 35.8666 68.1078H35.8682Z" fill="#B3965A"/>
<path d="M418.289 114.04C418.328 114.308 417.922 114.205 417.749 114.193C415.938 114.06 413.955 113.645 412.127 113.437C284.517 98.914 155.692 98.0367 27.9252 111.242C19.4069 112.122 10.8918 113.14 2.39227 114.174L1.71094 114.116C9.51983 112.575 17.3349 110.996 25.1718 109.579C154.894 86.1351 289.148 87.728 418.289 114.04Z" fill="#B3965A"/>
<path d="M202.272 58.174C203.336 59.0731 205.039 58.216 206.005 57.5736C206.914 56.9685 208.771 54.5683 209.701 55.9605C210.151 56.6325 208.707 58.4151 208.261 59.0514C205.618 62.8205 199.786 69.0458 195.224 70.1207C188.963 71.5954 187.191 63.1254 186.824 58.6127C186.564 55.4051 186.945 52.3874 187.065 49.2063C187.091 48.5109 186.8 48.7038 186.447 49.0678C184.277 51.3063 182.292 54.4205 180.057 56.8285C175.899 61.3069 165.978 70.8954 159.539 70.3323C150.956 69.5825 151.73 56.9591 153.297 51.0714C156.679 38.3516 171.78 27.1345 185.013 28.5485C188.815 28.9545 192.561 30.5769 196.367 30.062C197.551 29.9018 199.298 29.2469 200.43 29.4647C201.038 29.5814 201.147 30.2596 201.146 30.7838C201.14 33.3069 200.752 36.1551 200.667 38.714C200.516 43.2516 200.233 48.3585 200.667 52.8587C200.802 54.2587 201.169 57.2454 202.27 58.174H202.272ZM181.468 49.7631C183.338 47.7005 187.841 42.2809 188.488 39.7531C188.813 38.4823 187.838 37.9051 186.771 37.3623C183.954 35.928 175.773 34.3585 172.762 34.9216C165.884 36.2065 164.741 49.9607 166.244 55.2356C167.143 58.3918 168.716 58.7123 171.657 57.6063C174.986 56.354 179.08 52.3967 181.466 49.7631H181.468Z" fill="#B3965A"/>
<path d="M229.446 47.9626C229.687 48.0092 229.805 47.9377 229.997 47.8148C231.14 47.079 233.361 44.3443 234.576 43.2181C238.11 39.9406 242.049 36.7797 246.198 34.3095C250.157 31.9512 259.162 27.339 261.879 33.5021C263.365 36.8699 261.769 45.2372 261.64 49.277C261.584 51.0068 261.447 56.4886 262.834 57.5806C265.113 59.3741 267.853 54.7806 269.27 55.1772C271.094 55.6875 269.069 57.9244 268.397 58.8297C265.871 62.2255 260.993 66.9186 257.194 68.7775C245.412 74.5439 248.008 53.0461 248.119 47.2688C248.201 42.9786 248.064 38.1595 242.648 41.801C237.278 45.4099 230.849 53.0477 226.567 58.0675C223.891 61.2035 221.359 64.8481 218.638 67.8659C216.846 69.8539 215.121 70.9148 215.125 67.1644C215.132 61.3124 217.258 43.3255 214.332 39.0492C212.525 36.4064 210.344 41.5101 208.843 39.2468C208.339 38.4861 209.205 37.9152 209.773 37.3941C212.129 35.235 216.41 32.4086 219.231 30.8328C220.321 30.223 222.906 28.7935 224.075 28.8308C227.312 28.935 228.618 35.3315 228.959 37.797C229.427 41.1866 229.139 44.5808 229.447 47.961L229.446 47.9626Z" fill="#B3965A"/>
<path d="M320.696 60.0296C321.709 58.9889 324.285 56.1718 325.788 56.2449C326.898 56.2993 328.516 58.166 329.395 58.8396C335.37 63.4222 344.772 65.4662 351.909 62.5387C356.678 60.5833 356.659 57.1409 351.974 55.0844C346.477 52.6718 337.702 51.8582 331.613 50.2482C323.675 48.1482 322.348 43.8269 328.927 38.4804C337.921 31.1709 358.569 24.2238 368.965 31.4167C369.606 31.86 370.611 32.5771 370.665 33.3891C370.567 34.0067 368.541 35.5264 367.96 35.9822C366.439 37.18 364.762 38.3622 363.116 39.3811C362.377 39.8384 360.786 41.0316 359.999 40.6924C358.733 40.1464 360.491 39.3236 360.033 38.3249C359.713 37.6233 357.154 36.2498 356.376 35.9138C351.439 33.7733 344.762 32.6207 340.149 36.0149C338.518 37.2142 337.834 38.076 339.439 39.7809C344.745 45.4229 359.591 44.4009 366.54 48.2975C376.332 53.7871 362.161 62.1467 357.26 64.7787C349.608 68.8869 340.87 71.9093 332.078 70.4595C328.077 69.8 322.107 66.9844 318.413 67.6207C317.297 67.812 316.501 68.9071 315.558 68.7904C314.776 68.694 314.748 68.1558 314.854 67.4838C315.064 66.1553 319.541 61.2164 320.695 60.0311L320.696 60.0296Z" fill="#B3965A"/>
<path d="M266.53 144.11C261.881 148.753 255.089 146.737 249.195 146.927V146.451C251.227 146.51 251.283 144.982 251.386 143.354C251.532 141.027 251.463 138.076 251.386 135.722C251.337 134.296 251.305 132.107 251.059 130.763C250.74 129.03 249.152 130.228 249.202 128.811C251.207 128.786 253.195 128.742 255.197 128.661C258.431 128.531 260.672 128.055 263.821 129.512C269.564 132.171 271.046 139.602 266.532 144.111L266.53 144.11ZM254.682 129.934C254.525 130.091 254.349 132.308 254.327 132.767C254.139 136.844 254.456 141.087 254.364 145.181C254.431 145.405 254.568 145.471 254.763 145.559C258.939 147.467 263.502 145.533 264.983 141.24C267.409 134.207 262.147 127.21 254.682 129.932V129.934Z" fill="#B3965A"/>
<path d="M330.151 137.965C330.151 143.408 325.736 147.821 320.29 147.821C314.844 147.821 310.43 143.408 310.43 137.965C310.43 132.522 314.844 128.109 320.29 128.109C325.736 128.109 330.151 132.522 330.151 137.965ZM318.696 129.472C309.333 130.755 314.325 150.78 323.767 145.891C329.736 142.8 326.656 128.382 318.696 129.472Z" fill="#B3965A"/>
<path d="M230.955 128.857C234.31 132.531 237.938 136.039 241.575 139.462C241.908 139.775 244.116 141.867 244.297 141.872C244.431 139.024 244.709 136.093 244.538 133.235C244.41 131.104 244.325 129.118 241.674 129.119C241.337 128.962 241.716 128.382 242.111 128.493L248.11 128.657V129.275C246.571 129.214 246.321 130.107 246.106 131.397C245.431 135.449 245.622 142.091 245.768 146.31C245.782 146.705 245.958 147.071 245.93 147.469C244.624 147.777 244.381 146.122 243.592 145.375L230.608 132.702C230.382 132.85 230.393 133.001 230.367 133.235C230.197 134.772 230.417 136.77 230.381 138.38C230.34 140.239 229.903 142.763 230.392 144.575C230.913 146.507 232.215 145.882 233.378 146.565C233.864 146.85 233.714 147.296 233.144 147.281C232.437 147.262 231.51 147.061 230.788 147.061C229.421 147.061 227.999 147.204 226.64 147.313V146.535C227.96 146.637 228.499 145.775 228.645 144.574C229.032 141.382 229.009 136.381 228.914 133.113C228.858 131.193 228.542 129.564 226.344 129.261L226.327 128.499C226.489 128.331 230.662 128.625 230.95 128.857H230.955Z" fill="#B3965A"/>
<path d="M149.644 128.343L150.111 133.007L149.515 132.98C148.283 129.869 144.967 128.852 141.862 129.504C134.156 131.118 134.283 143.608 141.563 145.983C143.46 146.602 147.383 146.753 147.63 144.129C147.717 143.202 147.75 140.169 147.292 139.48C146.737 138.643 145.388 138.979 144.513 138.916V138.137L151.825 137.982L151.807 138.742C150.998 138.801 150.814 139.17 150.735 139.926C150.617 141.074 150.612 143.603 150.735 144.745C150.81 145.434 151.139 145.78 151.357 146.375C144.945 147.878 135.512 148.558 133.202 140.657C130.88 132.711 138.096 127.695 145.367 128.343C146.278 128.424 147.958 129.163 148.674 128.846C149.007 128.7 149.173 128.222 149.646 128.34L149.644 128.343Z" fill="#B3965A"/>
<path d="M357.233 140.471L357.017 140.717C357.625 143.315 355.797 146.84 359.957 146.537L359.882 147.167L352.178 147.314L352.195 146.552C353.83 146.26 354.094 145.886 354.208 144.289C354.436 141.064 354.177 137.555 354.04 134.338C353.96 132.499 354.743 128.855 351.868 129.278L352.095 128.385C352.296 128.452 352.5 128.506 352.714 128.509C357.239 128.568 364.014 127.268 366.156 132.644C367.727 136.586 363.759 140.473 359.879 140.473H357.235L357.233 140.471ZM357.331 129.609L357.029 138.964C358.083 140.05 360.674 139.565 361.743 138.605C363.578 136.954 363.48 132.697 362.045 130.843C360.934 129.408 358.996 128.954 357.331 129.609Z" fill="#B3965A"/>
<path d="M129.111 140.781H128.49C128.465 139.751 128.36 138.541 127.215 138.246C125.347 137.76 123.091 138.039 121.184 138.146C120.87 140.657 120.949 143.247 121.346 145.743C124.169 146.264 128.657 146.901 130.578 144.192C130.934 143.69 131.018 142.702 131.754 142.803C131.858 144.384 131.077 145.823 130.648 147.294C125.756 147.02 120.87 146.843 115.976 147.314C115.57 146.201 117.13 146.725 117.633 145.714C117.919 145.14 118.034 143.315 118.071 142.576C118.242 139.207 118.329 133.892 117.895 130.612C117.86 130.346 117.685 129.783 117.516 129.592C117.076 129.097 116.17 129.401 116.043 128.657L130.509 128.5C130.52 129.754 130.595 131.109 129.939 132.24L129.265 132.232C130.002 129.936 128.217 129.578 126.384 129.436C125.382 129.359 122.478 129.443 121.593 129.776C121.47 129.821 121.377 129.856 121.352 130.001C121.203 132.333 120.755 134.722 121.192 137.037C123.419 137.08 125.922 137.424 128.028 136.634C128.422 136.156 128.255 134.892 129.108 135.033V140.786L129.111 140.781Z" fill="#B3965A"/>
<path d="M205.8 128.653V133.005C205.056 133.102 205.03 132.007 204.683 131.402C203.323 129.023 198.078 128.133 197.013 131.142C195.477 135.482 200.475 135.914 203.162 137.274C204.919 138.164 206.421 139.545 206.582 141.628C206.912 145.864 203.362 147.486 199.655 147.477C198.448 147.474 196.207 146.795 195.291 146.858C194.995 146.878 194.594 147.338 194.133 147.153L193.355 142.178L193.954 142.2C194.326 144.023 195.711 145.066 197.358 145.716C200.405 146.921 204.425 147.214 203.933 142.72C203.515 138.901 195.914 139.632 194.556 135.455C193.31 131.622 196.244 128.681 199.959 128.486C201.909 128.384 203.859 129.127 205.798 128.648L205.8 128.653Z" fill="#B3965A"/>
<path d="M87.8875 133.008C87.1797 133.148 87.3026 132.459 87.0926 132.017C86.0535 129.833 83.6688 128.918 81.3153 129.315C79.0768 129.691 78.1077 132.641 79.4206 134.4C81.2826 136.895 87.1937 136.371 88.4693 140.593C89.86 145.199 85.9197 147.464 81.9017 147.481C80.6511 147.485 78.2882 146.798 77.3813 146.862C77.0842 146.882 76.756 147.38 76.3671 147.09L75.4742 142.682C75.3855 142.175 75.9191 141.93 76.1866 142.45C76.4293 142.921 76.4308 143.413 76.8446 143.968C78.646 146.382 86.1344 148.324 86.1608 143.484C86.1873 138.645 77.8355 139.925 76.5802 135.215C75.5566 131.378 78.5386 128.637 82.2035 128.492C84.0717 128.417 85.9368 129.114 87.7942 128.665L88.0166 129.013L87.8875 133.008Z" fill="#B3965A"/>
<path d="M282.955 128.653V133.007L282.352 132.988C282.154 129.414 275.585 127.701 274.131 130.947C271.559 136.689 281.98 135.701 283.433 140.537C284.831 145.195 280.944 147.478 276.814 147.478C275.531 147.478 273.288 146.792 272.292 146.859C271.987 146.879 271.681 147.371 271.279 147.086C271.032 146.907 271.16 145.832 271.093 145.408C270.94 144.434 270.587 143.429 270.419 142.499C270.349 142.108 270.891 142.158 271.133 142.177C271.303 144.236 273.138 145.321 274.94 145.915C277.163 146.648 280.761 147.209 281.089 143.967C281.641 138.528 273.33 140.035 271.681 135.647C270.368 132.153 272.899 128.98 276.385 128.536C278.584 128.258 280.765 129.138 282.955 128.651V128.653Z" fill="#B3965A"/>
<path d="M184.176 133.008L183.473 132.856C182.747 128.23 173.987 127.634 175.034 133.36C175.625 136.594 183.084 136.13 184.56 140.475C185.094 142.045 184.825 144.311 183.654 145.546C181.801 147.502 178.368 147.53 175.873 147.292C175.263 147.234 173.952 146.831 173.511 146.862C173.216 146.882 172.813 147.343 172.354 147.158L171.576 142.183C172.53 142.021 172.359 143.116 172.911 143.879C174.463 146.024 180.938 148.057 182.075 144.669C183.604 140.116 177.651 139.607 175.048 138.01C170.8 135.402 172.163 129.746 176.829 128.698C179.298 128.143 181.488 129.116 183.921 128.667L184.179 129.042C183.834 130.345 184.083 131.692 184.175 133.008H184.176Z" fill="#B3965A"/>
<path d="M162.386 128.359C162.606 129.26 162.895 130.157 163.217 131.025C164.743 135.149 166.484 140.696 168.391 144.51C168.742 145.213 169.2 146.047 169.884 146.439C170.237 146.641 170.778 146.45 170.645 147.155C168.414 146.911 166.177 147.015 163.957 147.31C163.828 145.98 165.406 146.904 165.371 145.366C165.362 144.947 164.102 141.237 163.87 140.947C163.668 140.693 163.402 140.659 163.105 140.623C162.354 140.536 158.079 140.57 157.656 140.934C157.317 141.961 155.781 144.675 156.089 145.609C156.22 146.001 156.768 146.288 157.142 146.427C157.559 146.581 158.77 146.514 158.289 147.164C157.769 147.536 157.142 147.167 156.576 147.149C155.256 147.107 153.924 147.194 152.603 147.155C152.488 146.393 153.436 146.505 153.927 146.069C154.91 145.198 157.531 138.5 158.231 136.843C159.379 134.124 160.46 131.366 161.495 128.6C161.638 128.256 162.063 128.309 162.389 128.357L162.386 128.359ZM163.334 139.694C163.041 138.301 162.417 136.832 161.851 135.502C161.761 135.291 160.848 133.046 160.691 133.166L158.203 139.307C158.21 139.433 159.099 139.694 159.211 139.694H163.334Z" fill="#B3965A"/>
<path d="M225.7 146.703L225.711 147.156C223.48 146.926 221.239 146.982 219.022 147.312L219.028 146.542C219.758 146.56 220.456 146.171 220.431 145.376C220.42 145.014 218.972 140.962 218.793 140.778C218.398 140.371 213.576 140.724 212.669 140.808C212.377 141.951 210.616 144.809 211.235 145.846C211.776 146.753 213.495 146.095 213.266 147.312L207.666 147.156C207.52 146.47 208.211 146.571 208.594 146.296C209.418 145.702 209.994 144.255 210.445 143.326C212.784 138.501 214.601 133.349 216.547 128.359C216.875 128.312 217.3 128.258 217.442 128.603C217.967 130.316 218.58 132 219.213 133.672C220.024 135.811 223.28 145.107 224.459 146.154C224.821 146.476 225.25 146.579 225.7 146.703ZM215.908 133.319L215.564 133.517L213.266 139.537C213.438 139.691 217.362 139.758 217.863 139.7C218.095 139.674 218.261 139.685 218.4 139.454L215.909 133.318L215.908 133.319Z" fill="#B3965A"/>
<path d="M66.2528 128.357C66.4706 129.26 66.7646 130.154 67.0835 131.024C68.5582 135.048 70.1215 139.649 71.8388 143.529C72.1935 144.331 72.9168 145.966 73.6464 146.386C74.0508 146.62 74.6451 146.447 74.5097 147.153C72.2806 146.881 70.0406 147.032 67.8224 147.309C67.5891 146.125 69.3702 146.771 69.2939 145.422C69.2659 144.938 68.1179 141.628 67.8519 141.136C67.7695 140.984 67.6684 140.775 67.5097 140.701C67.0353 140.474 61.9004 140.6 61.5177 140.933C61.1615 142.135 59.2108 145.022 60.2935 146.047C61.0153 146.732 62.4542 146.207 62.2208 147.309L56.4653 147.153C56.3719 146.416 57.3395 146.458 57.8497 145.973C58.9028 144.968 61.3948 138.492 62.1384 136.733C63.2708 134.049 64.3691 131.341 65.3568 128.6C65.4999 128.256 65.9246 128.309 66.2513 128.357H66.2528ZM67.2002 139.693C66.6262 137.423 65.6679 135.256 64.6335 133.166L62.0824 139.321C61.9502 139.547 62.8773 139.693 62.9224 139.693H67.2002Z" fill="#B3965A"/>
<path d="M115.111 128.654L115.096 129.416C113.325 129.624 112.432 131.337 111.662 132.748C109.575 136.578 107.338 141.3 105.775 145.365C105.599 145.822 105.328 147.09 105.16 147.358C105.086 147.476 104.708 147.591 104.603 147.574C104.376 147.537 103.236 144.458 103.006 143.942C101.228 139.964 99.2881 135.147 97.1943 131.404C96.5814 130.309 96.0027 129.153 94.5763 129.201L94.4238 128.654H102.046L101.954 129.291L100.402 129.576C100.039 130.089 101.228 132.787 101.503 133.471C102.785 136.663 104.428 139.726 105.625 142.957C105.737 143.041 105.955 142.619 106.02 142.498C107.357 140.022 108.844 136.57 109.897 133.935C110.227 133.11 111.424 130.453 110.994 129.739L109.514 129.274L109.671 128.498C109.838 128.441 110.01 128.654 110.059 128.654H115.114H115.111Z" fill="#B3965A"/>
<path d="M307.376 133.008H306.911C307.087 129.754 302.822 128.998 300.316 129.293C293.838 130.054 293.432 140.772 297.204 144.496C299.696 146.956 304.514 147.188 306.728 144.253C307.084 143.78 307.261 143.125 307.552 142.744C307.886 142.305 308.28 142.389 308.249 142.959C308.229 143.34 307.431 146.437 307.278 146.547C300.964 148.588 292.874 147.023 291.553 139.572C290.153 131.673 297.584 126.804 304.766 128.543C305.424 128.702 306.227 129.204 306.874 129.24C307.415 129.27 308.188 128.56 308.149 129.488C308.107 130.474 307.348 131.925 307.376 133.008Z" fill="#B3965A"/>
<path d="M47.8334 128.654C47.9003 128.646 48.0465 128.441 48.2207 128.498L48.2145 129.268C46.8907 129.457 46.1238 129.45 45.9061 130.925C45.4207 134.218 45.3445 140.299 45.5716 143.664C45.6696 145.126 45.6276 145.788 47.205 145.919C49.2645 146.09 53.4863 145.956 54.8225 144.192C55.2052 143.688 55.0247 143.079 55.843 143.268C56.1167 143.527 55.115 146.773 54.7572 147.237C54.4398 147.43 51.5963 147.014 50.9492 146.994C47.4554 146.884 43.9367 147.09 40.4414 147L40.4632 146.4C42.249 146.115 42.501 145.326 42.6254 143.664C42.935 139.565 42.3967 135.068 42.6021 130.925C42.4636 129.751 41.9736 129.233 40.7541 129.272V128.652C42.9941 128.463 45.6401 128.908 47.8303 128.652L47.8334 128.654Z" fill="#B3965A"/>
<path d="M366.241 144.76C366.571 145.129 366.949 145.46 367.352 145.754C367.613 146.23 366.567 146.857 366.173 147.229C365.829 147.554 365.821 148.083 365.199 147.908C364.767 147.787 364.588 147.087 364.299 146.779C363.955 146.414 363.144 146.309 363.399 145.704C363.438 145.612 364.624 144.391 364.775 144.276C365.851 143.458 365.652 144.097 366.241 144.758V144.76Z" fill="#B3965A"/>
<path d="M375.747 39.9783C375.747 41.7377 374.319 43.1657 372.559 43.1657C370.798 43.1657 369.37 41.7392 369.37 39.9783C369.37 38.2175 370.798 36.791 372.559 36.791C374.319 36.791 375.747 38.2175 375.747 39.9783ZM371.89 37.2701C369.214 37.8239 369.234 42.279 372.023 42.6617C376.502 43.2777 376.085 36.4006 371.89 37.2701Z" fill="#B3965A"/>
<path d="M371.311 38.168L373.609 38.2706C374.469 39.0951 374.044 39.7344 373.187 40.282L373.954 41.7426C373.518 42.1486 372.815 40.5013 372.63 40.3457C371.524 39.4124 372.067 41.6135 371.932 41.7442H371.31V38.168H371.311ZM371.933 39.8775L373.335 39.6457L373.498 39.3315C373.652 38.448 372.584 38.4682 371.933 38.4775V39.8775Z" fill="#B3965A"/>
</g>
<defs>
<clipPath id="clip0_316_1769">
<rect width="420" height="148.244" fill="white"/>
</clipPath>
</defs>
</svg>
