<svg width="294" height="64" viewBox="0 0 294 64" fill="none" xmlns="http://www.w3.org/2000/svg">
<g clip-path="url(#clip0_316_1749)">
<path fill-rule="evenodd" clip-rule="evenodd" d="M165.839 45.7631H130.088L131.626 43.4561H165.384L158.023 1.88281H150.82L157.411 37.4767H154.806L148.356 1.88281H139.912L102.325 62.4929H109.686L142.533 9.24328L143.145 13.2296L112.464 62.4772H119.824L126.415 51.7426H150.349L152.185 62.4772H159.388L157.238 51.7426H160.001L161.837 62.4772H168.899L165.823 45.7475L165.839 45.7631ZM144.903 22.0653L147.587 36.7234H135.769L144.903 22.0653Z" fill="#1A4F9B"/>
<path fill-rule="evenodd" clip-rule="evenodd" d="M54.6313 62.6181L55.8555 56.6387H101.431L100.05 62.6181H54.6313Z" fill="#1A4F9B"/>
<path fill-rule="evenodd" clip-rule="evenodd" d="M56.5142 54.1752H102.074L103.298 48.1958H75.3783L77.5284 39.1404L103.455 39.2973L104.836 33.3179H78.9095L79.3646 31.0109H105.291L106.829 25.0315H80.9026L83.0527 16.133H110.674L112.055 10.1536H84.2768L84.8889 7.84659H112.667L114.048 1.86719H78.7525L68.0178 48.1958H65.4126L76.1473 1.86719H68.6299L56.5142 54.1752Z" fill="#1A4F9B"/>
<path fill-rule="evenodd" clip-rule="evenodd" d="M171.598 62.4929L185.723 1.88281H192.926L178.817 62.4929H171.598Z" fill="#1A4F9B"/>
<path fill-rule="evenodd" clip-rule="evenodd" d="M35.6415 0C20.4184 0 9.13442 7.72143 6.81171 18.5346C5.10107 26.4757 9.44829 32.0785 14.4861 34.7308C17.3267 36.1118 26.6175 38.2933 30.9647 39.7685C35.5317 41.3222 35.4375 44.1471 35.2963 46.4071C33.9937 49.9068 30.8549 50.974 25.8642 50.974C20.7166 50.7229 17.4208 47.0034 18.3468 40.1295H10.2958C9.22858 47.6626 10.9235 52.4179 18.3154 55.2585C26.2879 58.3345 34.0721 54.3796 35.7671 53.1555C36.081 53.8774 35.5788 55.3369 35.312 55.8391C27.9515 59.7156 19.1001 59.229 12.6813 54.8347C6.70185 50.7543 7.54933 42.8759 8.00445 40.1452H0.345794C-1.80428 54.6778 6.0427 63.9529 21.9878 64C23.7769 64 26.1938 64.204 29.1442 63.1682C35.9397 60.6415 44.4929 54.9132 45.3718 45.7793C45.6072 40.8671 43.3316 35.7352 37.9642 34.0402C32.5969 32.3453 23.7455 30.1167 20.5439 28.8298C17.2168 27.4801 14.643 24.2472 14.643 20.5434C14.643 12.2884 22.2075 6.84257 33.7112 5.96371C46.8313 4.95929 51.3198 12.6336 51.0844 20.308H59.2296C59.669 9.58901 52.5282 0.015694 35.6258 0.015694" fill="#1A4F9B"/>
<path fill-rule="evenodd" clip-rule="evenodd" d="M48.9031 20.3079C48.9031 18.1578 48.448 8.64723 37.0855 8.03517C28.9561 7.59574 17.4524 11.2524 17.217 20.2294C17.1542 22.4736 18.4725 25.785 21.9722 26.8993C26.2724 28.2804 36.9286 31.3407 39.0787 32.1097C41.2287 32.8787 48.087 35.8606 47.7888 45.7635C47.5534 53.2495 41.2287 59.4329 35.218 62.9954C46.2194 60.9395 53.2817 55.4153 56.0282 43.8017C58.7275 25.4398 37.2739 24.3726 32.2204 23.1328C27.0414 21.9871 25.0326 20.6845 25.4249 17.9067C25.7388 15.6938 28.3911 13.6693 32.7854 13.6693C34.7314 13.6693 36.4421 14.3128 37.7447 15.0818C39.0473 15.8351 40.1459 17.8596 40.3185 20.3235H48.8874L48.9031 20.3079Z" fill="#1A4F9B"/>
<path fill-rule="evenodd" clip-rule="evenodd" d="M237.717 19.2246C238.062 4.80189 226.982 2.03975 219.763 1.88281H195.516L181.548 62.4929H188.752L193.13 43.4718H208.542C212.23 43.4718 212.23 46.6891 211.759 48.2271C211.147 50.5341 210.535 54.9755 210.378 56.8117C210.221 58.6479 210.221 61.567 211.445 62.4929H219.622C217.582 59.9191 219.12 53.8298 220.046 48.2271C220.972 42.6244 218.209 40.5527 216.436 38.952C214.678 37.3355 212.136 36.7234 207.914 36.7234H194.637L195.171 34.4164H209.437C214.349 34.4164 217.032 36.3311 218.79 37.9476C220.548 39.564 223.467 42.6244 222.541 48.2271C221.615 53.8298 220.156 60.6567 222.463 62.4929H230.058C229.603 61.7239 229.132 60.798 229.132 59.2757C229.132 57.7533 230.058 52.9824 230.67 47.003C231.283 41.0236 228.442 38.1045 225.994 36.4095C226.606 35.9544 237.34 31.9682 237.654 19.2246H237.717ZM218.837 21.0608C218.649 25.6592 213.47 28.4213 210.551 28.4213H196.583L199.377 16.1486H212.999C214.992 16.1486 218.978 17.2158 218.822 21.0608H218.837ZM221.38 32.5645C220.375 32.0309 219.999 31.4973 219.151 31.1835C220.689 30.2575 227.893 25.9731 227.594 19.3659C227.281 12.7744 222.761 10.1535 217.629 10.1535H200.758L201.37 7.84652H216.028C219.716 7.84652 229.713 8.45858 229.917 19.1933C230.074 27.4797 222.321 31.7798 221.395 32.5488L221.38 32.5645Z" fill="#1A4F9B"/>
<path fill-rule="evenodd" clip-rule="evenodd" d="M293.618 20.308C294.058 9.57332 286.917 0 270.014 0C254.791 0 243.507 7.72143 241.185 18.5346C239.474 26.4757 243.821 32.0785 248.859 34.7308C251.7 36.1118 260.99 38.2933 265.338 39.7685C269.905 41.3222 269.81 44.1471 269.669 46.4071C268.367 49.9068 265.228 50.974 260.237 50.974C255.089 50.7229 251.794 47.0034 252.72 40.1295H244.669C243.601 47.6626 245.296 52.4179 252.688 55.2585C260.661 58.3345 268.445 54.3796 270.14 53.1555C270.454 53.8774 269.952 55.3369 269.685 55.8391C262.324 59.7156 253.473 59.229 247.054 54.8347C241.075 50.7543 241.922 42.8759 242.377 40.1452H234.75C232.6 54.6778 240.447 63.9529 256.392 64C258.165 64 260.598 64.204 263.549 63.1682C270.344 60.6415 278.897 54.9132 279.776 45.7793C280.011 40.8671 277.736 35.7352 272.369 34.0402C267.001 32.3453 258.15 30.1167 254.948 28.8298C251.621 27.4801 249.047 24.2472 249.047 20.5434C249.047 12.2884 256.596 6.84257 268.115 5.96371C281.236 4.95929 285.724 12.6336 285.489 20.308H293.634H293.618Z" fill="#1A4F9B"/>
<path fill-rule="evenodd" clip-rule="evenodd" d="M283.276 20.3079C283.276 18.1578 282.821 8.64723 271.459 8.03517C263.329 7.59574 251.825 11.2524 251.59 20.2294C251.527 22.4736 252.846 25.785 256.345 26.8993C260.645 28.2804 271.302 31.3407 273.452 32.1097C275.602 32.8787 282.46 35.8606 282.162 45.7635C281.926 53.2495 275.602 59.4329 269.591 62.9954C280.592 60.9395 287.655 55.4153 290.401 43.8017C293.101 25.4398 271.647 24.3726 266.593 23.1328C261.414 21.9871 259.406 20.6845 259.798 17.9067C260.112 15.6938 262.764 13.6693 267.158 13.6693C269.104 13.6693 270.815 14.3128 272.118 15.0818C273.42 15.8351 274.519 17.8596 274.692 20.3235H283.26L283.276 20.3079Z" fill="#1A4F9B"/>
</g>
<defs>
<clipPath id="clip0_316_1749">
<rect width="293.634" height="64" fill="white"/>
</clipPath>
</defs>
</svg>
