<svg width="382" height="120" viewBox="0 0 382 120" fill="none" xmlns="http://www.w3.org/2000/svg">
<g clip-path="url(#clip0_316_6267)">
<path d="M82.08 24.842C82.0176 24.2802 81.5183 24.0306 81.1437 24.0306C80.7692 24.0306 72.5924 23.4064 72.5924 23.4064C72.5924 23.4064 66.9124 17.7263 66.2258 17.1646C65.6016 16.5404 64.4156 16.7276 63.9163 16.8525C63.8539 16.8525 62.6679 17.227 60.733 17.8512C58.798 12.2959 55.4898 7.24006 49.5601 7.24006H48.9983C47.3754 5.11783 45.2532 4.11914 43.5055 4.11914C29.7735 4.11914 23.1571 21.2842 21.0973 30.0227C15.7294 31.708 11.9218 32.8316 11.4849 33.0188C8.48883 33.9551 8.42641 34.0175 8.0519 36.8263C7.73981 38.9485 -0.0624771 99.307 -0.0624771 99.307L60.6705 110.667L93.6274 103.551C93.6898 103.427 82.1424 25.4038 82.08 24.842ZM57.3624 18.725C55.8643 19.1619 54.0542 19.7237 52.2441 20.3479V19.2244C52.2441 15.8538 51.8071 13.1074 50.9957 10.9227C54.1166 11.2972 56.0516 14.7302 57.3624 18.725ZM47.1882 11.6093C47.9996 13.7316 48.5614 16.7276 48.5614 20.8472V21.4714C45.1908 22.5325 41.6329 23.5936 37.9503 24.7796C40.0101 16.9149 43.9424 13.045 47.1882 11.6093ZM43.1934 7.73939C43.8176 7.73939 44.4418 7.98907 44.9411 8.36358C40.5094 10.4234 35.828 15.6041 33.8931 26.0904C30.9594 27.0266 28.1506 27.8381 25.4666 28.7119C27.7137 20.7224 33.3313 7.73939 43.1934 7.73939Z" fill="#95BF47"/>
<path d="M81.1438 23.9065C80.7693 23.9065 72.5925 23.2824 72.5925 23.2824C72.5925 23.2824 66.9124 17.6023 66.2258 17.0405C65.9761 16.7909 65.6641 16.666 65.4144 16.666L60.8578 110.668L93.8147 103.552C93.8147 103.552 82.2673 25.4046 82.2049 24.8428C81.9552 24.2811 81.5183 24.0314 81.1438 23.9065Z" fill="#5E8E3E"/>
<path d="M49.5602 42.1325L45.5654 54.1793C45.5654 54.1793 41.9452 52.2443 37.6383 52.2443C31.2092 52.2443 30.8971 56.3015 30.8971 57.3002C30.8971 62.793 45.2533 64.9152 45.2533 77.8358C45.2533 88.01 38.8242 94.5639 30.1481 94.5639C19.6618 94.5639 14.4187 88.0724 14.4187 88.0724L17.2275 78.8345C17.2275 78.8345 22.7203 83.5783 27.3393 83.5783C30.3978 83.5783 31.6461 81.2064 31.6461 79.4587C31.6461 72.2806 19.9115 71.9685 19.9115 60.109C19.9115 50.1845 27.0272 40.5721 41.4458 40.5721C46.8138 40.5096 49.5602 42.1325 49.5602 42.1325Z" fill="white"/>
<path d="M132.077 64.7902C128.769 63.0424 127.084 61.482 127.084 59.4222C127.084 56.8006 129.456 55.1153 133.138 55.1153C137.445 55.1153 141.253 56.863 141.253 56.863L144.249 47.6875C144.249 47.6875 141.502 45.5653 133.388 45.5653C122.09 45.5653 114.226 52.0568 114.226 61.1699C114.226 66.3506 117.908 70.283 122.777 73.0918C126.772 75.2764 128.145 76.8993 128.145 79.2712C128.145 81.7055 126.147 83.7029 122.465 83.7029C117.034 83.7029 111.854 80.8941 111.854 80.8941L108.67 90.0696C108.67 90.0696 113.414 93.2529 121.404 93.2529C133.013 93.2529 141.44 87.5104 141.44 77.2114C141.315 71.5937 137.133 67.7238 132.077 64.7902ZM178.392 45.4405C172.649 45.4405 168.155 48.1869 164.722 52.3065L164.597 52.2441L169.591 26.2781H156.67L144.061 92.4415H156.982L161.289 69.846C162.974 61.2947 167.406 55.9892 171.526 55.9892C174.459 55.9892 175.583 57.9866 175.583 60.7954C175.583 62.5431 175.458 64.7902 175.021 66.5379L170.152 92.4415H183.073L188.129 65.7264C188.691 62.9176 189.065 59.547 189.065 57.2375C189.003 49.8098 185.195 45.4405 178.392 45.4405ZM218.277 45.4405C202.672 45.4405 192.373 59.4846 192.373 75.1516C192.373 85.1385 198.553 93.2529 210.162 93.2529C225.455 93.2529 235.754 79.5833 235.754 63.5418C235.816 54.2415 230.448 45.4405 218.277 45.4405ZM211.91 83.3908C207.478 83.3908 205.668 79.6457 205.668 74.9019C205.668 67.4741 209.476 55.4274 216.529 55.4274C221.086 55.4274 222.646 59.4222 222.646 63.2297C222.646 71.1568 218.714 83.3908 211.91 83.3908ZM268.898 45.4405C260.16 45.4405 255.228 53.1803 255.228 53.1803H255.104L255.853 46.2519H244.368C243.806 50.9333 242.745 58.1114 241.746 63.417L232.82 110.792H245.741L249.361 91.63H249.673C249.673 91.63 252.357 93.3153 257.226 93.3153C272.456 93.3153 282.38 77.7107 282.38 61.9813C282.318 53.2428 278.386 45.4405 268.898 45.4405ZM256.539 83.5156C253.169 83.5156 251.171 81.5807 251.171 81.5807L253.294 69.5339C254.792 61.4196 259.036 56.114 263.53 56.114C267.525 56.114 268.711 59.7967 268.711 63.2297C268.773 71.5937 263.78 83.5156 256.539 83.5156ZM300.794 26.9023C296.674 26.9023 293.366 30.2104 293.366 34.3925C293.366 38.2 295.8 40.8839 299.483 40.8839H299.608C303.665 40.8839 307.098 38.1375 307.161 33.3938C307.223 29.5862 304.664 26.9023 300.794 26.9023ZM282.693 92.379H295.613L304.352 46.4392H291.369M337.309 46.3768H328.32L328.757 44.2545C329.506 39.8228 332.128 35.9529 336.497 35.9529C338.807 35.9529 340.617 36.6395 340.617 36.6395L343.113 26.4653C343.113 26.4653 340.929 25.3418 336.06 25.3418C331.504 25.3418 326.885 26.6526 323.389 29.6487C318.958 33.3938 316.898 38.8241 315.899 44.317L315.525 46.4392H309.47L307.535 56.2389H313.59L306.724 92.4415H319.644L326.51 56.2389H335.436L337.309 46.3768ZM368.455 46.4392C368.455 46.4392 360.341 66.85 356.783 78.0228H356.658C356.409 74.4026 353.475 46.4392 353.475 46.4392H339.868L347.67 88.5091C347.795 89.4454 347.732 90.0071 347.358 90.6313C345.86 93.565 343.301 96.3738 340.305 98.4336C337.87 100.181 335.124 101.367 332.939 102.116L336.56 113.102C339.181 112.54 344.674 110.356 349.23 106.049C355.098 100.556 360.591 92.0045 366.208 80.3947L382 46.3768H368.455V46.4392Z" fill="black"/>
</g>
<defs>
<clipPath id="clip0_316_6267">
<rect width="382" height="119.843" fill="white"/>
</clipPath>
</defs>
</svg>
