<svg width="341" height="87" viewBox="0 0 341 87" fill="none" xmlns="http://www.w3.org/2000/svg">
<g clip-path="url(#clip0_316_1690)">
<path d="M109.039 68.0227L113.278 58.1784C117.858 61.5966 123.942 63.374 129.958 63.374C134.402 63.374 137.204 61.6649 137.204 59.0672C137.136 51.8207 110.611 57.4948 110.406 39.3104C110.338 30.0814 118.541 22.9717 130.163 22.9717C137.068 22.9717 143.972 24.6808 148.894 28.5774L144.929 38.6267C140.417 35.7555 134.812 33.7046 129.479 33.7046C125.856 33.7046 123.464 35.4137 123.464 37.6013C123.532 44.711 150.262 40.8143 150.535 58.1784C150.535 67.6125 142.537 74.2437 131.052 74.2437C122.643 74.2437 114.918 72.2611 109.039 68.0227ZM271.674 54.6236C269.554 58.3152 265.589 60.8446 261.009 60.8446C254.241 60.8446 248.772 55.3756 248.772 48.6077C248.772 41.8398 254.241 36.3708 261.009 36.3708C265.589 36.3708 269.554 38.9002 271.674 42.5918L283.364 36.0973C278.988 28.304 270.58 22.9717 261.009 22.9717C246.858 22.9717 235.373 34.4566 235.373 48.6077C235.373 62.7587 246.858 74.2437 261.009 74.2437C270.648 74.2437 278.988 68.9797 283.364 61.118L271.674 54.6236ZM156.414 1.71094H171.044V73.2866H156.414V1.71094ZM289.106 1.71094V73.2866H303.736V51.8207L321.1 73.2866H339.831L317.75 47.7873L338.191 23.9971H320.28L303.736 43.7539V1.71094H289.106ZM214.523 54.7603C212.403 58.2468 208.028 60.8446 203.106 60.8446C196.338 60.8446 190.869 55.3756 190.869 48.6077C190.869 41.8398 196.338 36.3708 203.106 36.3708C208.028 36.3708 212.403 39.1053 214.523 42.6601V54.7603ZM214.523 23.9971V29.808C212.13 25.7746 206.182 22.9717 199.961 22.9717C187.109 22.9717 176.991 34.3199 176.991 48.5393C176.991 62.7587 187.109 74.2437 199.961 74.2437C206.182 74.2437 212.13 71.4408 214.523 67.4074V73.2182H229.152V23.9971H214.523Z" fill="black"/>
<path d="M18.5948 54.6899C18.5948 59.6803 14.5615 63.7137 9.57098 63.7137C4.58051 63.7137 0.547119 59.6803 0.547119 54.6899C0.547119 49.6994 4.58051 45.666 9.57098 45.666H18.5948V54.6899ZM23.1068 54.6899C23.1068 49.6994 27.1402 45.666 32.1306 45.666C37.1211 45.666 41.1545 49.6994 41.1545 54.6899V77.2495C41.1545 82.24 37.1211 86.2734 32.1306 86.2734C27.1402 86.2734 23.1068 82.24 23.1068 77.2495V54.6899Z" fill="#E01E5A"/>
<path d="M32.1314 18.4579C27.1409 18.4579 23.1075 14.4245 23.1075 9.43402C23.1075 4.44355 27.1409 0.410156 32.1314 0.410156C37.1219 0.410156 41.1552 4.44355 41.1552 9.43402V18.4579H32.1314ZM32.1314 23.0382C37.1219 23.0382 41.1552 27.0716 41.1552 32.062C41.1552 37.0525 37.1219 41.0859 32.1314 41.0859H9.50336C4.51289 41.0859 0.479492 37.0525 0.479492 32.062C0.479492 27.0716 4.51289 23.0382 9.50336 23.0382H32.1314Z" fill="#36C5F0"/>
<path d="M68.2948 32.062C68.2948 27.0716 72.3282 23.0382 77.3186 23.0382C82.3091 23.0382 86.3425 27.0716 86.3425 32.062C86.3425 37.0525 82.3091 41.0859 77.3186 41.0859H68.2948V32.062ZM63.7828 32.062C63.7828 37.0525 59.7494 41.0859 54.759 41.0859C49.7685 41.0859 45.7351 37.0525 45.7351 32.062V9.43402C45.7351 4.44355 49.7685 0.410156 54.759 0.410156C59.7494 0.410156 63.7828 4.44355 63.7828 9.43402V32.062Z" fill="#2EB67D"/>
<path d="M54.759 68.2257C59.7494 68.2257 63.7828 72.2591 63.7828 77.2495C63.7828 82.24 59.7494 86.2734 54.759 86.2734C49.7685 86.2734 45.7351 82.24 45.7351 77.2495V68.2257H54.759ZM54.759 63.7137C49.7685 63.7137 45.7351 59.6803 45.7351 54.6899C45.7351 49.6994 49.7685 45.666 54.759 45.666H77.387C82.3775 45.666 86.4109 49.6994 86.4109 54.6899C86.4109 59.6803 82.3775 63.7137 77.387 63.7137H54.759Z" fill="#ECB22E"/>
</g>
<defs>
<clipPath id="clip0_316_1690">
<rect width="340.446" height="86.8205" fill="white"/>
</clipPath>
</defs>
</svg>
