<svg width="87" height="23" viewBox="0 0 87 23" fill="none" xmlns="http://www.w3.org/2000/svg">
<g clip-path="url(#clip0_3303_26506)">
<path d="M27.8652 17.3833L28.9484 14.8676C30.1188 15.7411 31.6737 16.1953 33.211 16.1953C34.3466 16.1953 35.0628 15.7586 35.0628 15.0947C35.0454 13.2429 28.267 14.6929 28.2146 10.0459C28.1972 7.6875 30.2935 5.87063 33.2634 5.87063C35.0279 5.87063 36.7923 6.30738 38.0502 7.30316L37.0369 9.87124C35.8839 9.1375 34.4514 8.6134 33.0887 8.6134C32.1628 8.6134 31.5514 9.05015 31.5514 9.60919C31.5688 11.4261 38.3996 10.4303 38.4695 14.8676C38.4695 17.2785 36.4255 18.973 33.4905 18.973C31.3417 18.973 29.3676 18.4664 27.8652 17.3833ZM69.4261 13.9592C68.8845 14.9026 67.8713 15.5489 66.7008 15.5489C64.9713 15.5489 63.5737 14.1514 63.5737 12.4218C63.5737 10.6923 64.9713 9.29473 66.7008 9.29473C67.8713 9.29473 68.8845 9.94112 69.4261 10.8845L72.4134 9.22485C71.2954 7.23328 69.1466 5.87063 66.7008 5.87063C63.0845 5.87063 60.1496 8.80557 60.1496 12.4218C60.1496 16.0381 63.0845 18.973 66.7008 18.973C69.164 18.973 71.2954 17.6279 72.4134 15.6188L69.4261 13.9592ZM39.9719 0.4375H43.7104V18.7285H39.9719V0.4375ZM73.8809 0.4375V18.7285H77.6195V13.2429L82.0568 18.7285H86.8436L81.2008 12.2122L86.4243 6.13268H81.8472L77.6195 11.1815V0.4375H73.8809ZM54.8213 13.9941C54.2797 14.8851 53.1616 15.5489 51.9038 15.5489C50.1743 15.5489 48.7767 14.1514 48.7767 12.4218C48.7767 10.6923 50.1743 9.29473 51.9038 9.29473C53.1616 9.29473 54.2797 9.99353 54.8213 10.902V13.9941ZM54.8213 6.13268V7.61762C54.2098 6.5869 52.6899 5.87063 51.1002 5.87063C47.8158 5.87063 45.2303 8.77063 45.2303 12.4044C45.2303 16.0381 47.8158 18.973 51.1002 18.973C52.6899 18.973 54.2098 18.2568 54.8213 17.2261V18.711H58.5598V6.13268H54.8213Z" fill="black"/>
<path d="M4.75267 13.9759C4.75267 15.2512 3.72195 16.282 2.44665 16.282C1.17135 16.282 0.140625 15.2512 0.140625 13.9759C0.140625 12.7006 1.17135 11.6699 2.44665 11.6699H4.75267V13.9759ZM5.90569 13.9759C5.90569 12.7006 6.93641 11.6699 8.21171 11.6699C9.48701 11.6699 10.5177 12.7006 10.5177 13.9759V19.741C10.5177 21.0163 9.48701 22.047 8.21171 22.047C6.93641 22.047 5.90569 21.0163 5.90569 19.741V13.9759Z" fill="#E01E5A"/>
<path d="M8.2116 4.71752C6.9363 4.71752 5.90558 3.68679 5.90558 2.41149C5.90558 1.13619 6.9363 0.105469 8.2116 0.105469C9.4869 0.105469 10.5176 1.13619 10.5176 2.41149V4.71752H8.2116ZM8.2116 5.888C9.4869 5.888 10.5176 6.91872 10.5176 8.19402C10.5176 9.46932 9.4869 10.5 8.2116 10.5H2.42907C1.15377 10.5 0.123047 9.46932 0.123047 8.19402C0.123047 6.91872 1.15377 5.888 2.42907 5.888H8.2116Z" fill="#36C5F0"/>
<path d="M17.4526 8.19402C17.4526 6.91872 18.4833 5.888 19.7586 5.888C21.0339 5.888 22.0646 6.91872 22.0646 8.19402C22.0646 9.46932 21.0339 10.5 19.7586 10.5H17.4526V8.19402ZM16.2995 8.19402C16.2995 9.46932 15.2688 10.5 13.9935 10.5C12.7182 10.5 11.6875 9.46932 11.6875 8.19402V2.41149C11.6875 1.13619 12.7182 0.105469 13.9935 0.105469C15.2688 0.105469 16.2995 1.13619 16.2995 2.41149V8.19402Z" fill="#2EB67D"/>
<path d="M13.9935 17.435C15.2688 17.435 16.2995 18.4657 16.2995 19.741C16.2995 21.0163 15.2688 22.047 13.9935 22.047C12.7182 22.047 11.6875 21.0163 11.6875 19.741V17.435H13.9935ZM13.9935 16.282C12.7182 16.282 11.6875 15.2512 11.6875 13.9759C11.6875 12.7006 12.7182 11.6699 13.9935 11.6699H19.7761C21.0514 11.6699 22.0821 12.7006 22.0821 13.9759C22.0821 15.2512 21.0514 16.282 19.7761 16.282H13.9935Z" fill="#ECB22E"/>
</g>
<defs>
<clipPath id="clip0_3303_26506">
<rect width="87" height="22.1867" fill="white"/>
</clipPath>
</defs>
</svg>
