<svg width="216" height="80" viewBox="0 0 216 80" fill="none" xmlns="http://www.w3.org/2000/svg">
<g clip-path="url(#clip0_316_1733)">
<mask id="mask0_316_1733" style="mask-type:luminance" maskUnits="userSpaceOnUse" x="0" y="0" width="216" height="80">
<path d="M216 0H0V79.8249H216V0Z" fill="white"/>
</mask>
<g mask="url(#mask0_316_1733)">
<path d="M53.1649 26.6112V0H26.5801V10.0812C26.5801 11.9109 25.099 13.3935 23.2712 13.3935H0V39.9146H23.2712C25.099 39.9146 26.5801 41.3974 26.5801 43.227V49.9057C26.5801 51.7354 25.099 53.2182 23.2712 53.2182H0V79.8294H26.5846V69.8383C26.5846 68.0087 28.066 66.5261 29.8937 66.5261H53.1649V39.9146H29.8937C28.066 39.9146 26.5846 38.432 26.5846 36.6024V29.9237C26.5846 28.0941 28.066 26.6112 29.8937 26.6112H53.1649Z" fill="#003A40"/>
<path d="M74.5992 66.5976C72.7578 66.0614 65.9147 63.7539 65.4194 54.9842H76.8141C77.1428 56.2776 77.7146 57.2646 78.6194 57.9315C79.5784 58.6391 80.8615 58.9546 82.5048 58.9546H86.7142C88.2223 58.9546 89.4425 58.6346 90.2933 57.9676C91.1578 57.296 91.5988 56.3046 91.5988 55.0744C91.5988 53.7269 91.0001 52.8255 90.1538 52.2532C89.3254 51.699 88.2763 51.4601 87.3536 51.3699L78.8581 50.5228C74.9414 50.2028 71.8979 48.9319 69.836 46.8815C67.7786 44.8355 66.6621 41.9872 66.6621 38.4361C66.6621 29.2653 74.5677 26.9985 76.3505 26.5072C78.1423 26.016 80.3798 25.7637 83.6799 25.7637C90.1853 25.7637 93.5934 26.8406 96.6096 28.9271C99.6127 31.0048 101.278 34.0783 101.548 38.1116H90.1808C89.9376 36.8497 89.4064 35.8854 88.5329 35.2275C87.5966 34.5289 86.3181 34.227 84.6972 34.227H81.6898C80.2943 34.227 79.1372 34.5604 78.3224 35.2184C77.4984 35.8809 77.0573 36.8497 77.0573 38.0214C77.0573 39.0986 77.4444 39.9864 78.2008 40.6398C78.9482 41.2798 80.0286 41.6627 81.3838 41.8115L89.9646 42.6588C93.6383 42.9561 96.6412 44.1053 98.6806 45.9395C100.927 47.9676 102.08 50.8246 102.08 54.4884C102.08 58.8733 100.693 62.0731 97.7082 64.1911C94.6963 66.3317 90.0097 67.4134 83.3196 67.4134C79.0112 67.4134 76.4585 67.1384 74.5992 66.5931V66.5976Z" fill="#003A40"/>
<path d="M126.409 56.6707H120.367C117.851 56.6707 115.807 54.6248 115.807 52.1055V37.982C115.807 37.2069 116.437 36.5805 117.212 36.5805H126.414V26.648H117.212C116.437 26.648 115.811 26.0171 115.811 25.2465V16.0215H105.862V52.1012C105.862 60.0642 112.309 66.5221 120.268 66.5221H126.414V56.6707H126.409Z" fill="#003A40"/>
<path fill-rule="evenodd" clip-rule="evenodd" d="M151.891 67.4039H148.411C137.889 67.4039 129.331 58.8325 129.331 48.3051V44.8215C129.331 34.2898 137.889 25.7227 148.411 25.7227H151.891C162.412 25.7227 170.971 34.2898 170.971 44.8215V48.3051C170.971 58.8325 162.412 67.4039 151.891 67.4039ZM148.411 35.5787C143.319 35.5787 139.177 39.7246 139.177 44.8215V48.3051C139.177 53.402 143.319 57.5482 148.411 57.5482H151.891C156.983 57.5482 161.125 53.3975 161.125 48.3051V44.8215C161.125 39.7246 156.983 35.5787 151.891 35.5787H148.411Z" fill="#003A40"/>
<path d="M185.161 37.9819V66.5265H175.216V40.4694C175.216 32.8398 181.397 26.6523 189.019 26.6523H199.266V36.5849H186.557C185.782 36.5849 185.156 37.2113 185.156 37.9864L185.161 37.9819Z" fill="#003A40"/>
<path d="M204.65 36.5803H202.516V26.6523H216V66.5265H206.05V37.9864C206.05 37.2113 205.42 36.5849 204.65 36.5849V36.5803Z" fill="#003A40"/>
<path d="M205.384 13.2363H215.996V23.8224H206.78C206.006 23.8224 205.38 23.1958 205.38 22.4206V13.2363H205.384Z" fill="#003A40"/>
</g>
</g>
<defs>
<clipPath id="clip0_316_1733">
<rect width="216" height="80" fill="white"/>
</clipPath>
</defs>
</svg>
