<svg width="173" height="145" viewBox="0 0 173 145" fill="none" xmlns="http://www.w3.org/2000/svg">
<g clip-path="url(#clip0_316_1832)">
<path d="M27.6523 140.275H25.8374V138.799H31.1601V140.275H29.3366V144.877H27.6519" fill="black"/>
<path d="M34.9591 138.756H36.5834L39.1715 144.878H37.3643L36.9307 143.784H34.5769L34.1433 144.878H32.3799L34.9591 138.756ZM36.4356 142.473L35.7586 140.754L35.072 142.473" fill="black"/>
<path d="M41.5024 138.799H43.1882V141.265L45.2889 138.799H47.2777L44.9765 141.405L47.3564 144.879H45.3414L43.8048 142.62L43.1882 143.298V144.879H41.5024" fill="black"/>
<path d="M49.584 138.799H54.4738V140.224H51.2507V141.153H54.1696V142.481H51.2507V143.445H54.5166V144.879H49.584" fill="black"/>
<path d="M56.9346 142.881H59.7834V141.439H56.9346V142.881Z" fill="black"/>
<path d="M63.1728 140.275H61.3579V138.799H66.6806V140.275H64.8571V144.877H63.1724" fill="black"/>
<path d="M68.752 138.8H70.5333L71.5921 142.317L72.7642 138.783H74.2152L75.3872 142.317L76.4464 138.8H78.1922L76.1602 144.923H74.693L73.4771 141.423L72.2526 144.923H70.785" fill="black"/>
<path d="M80.0571 141.856V141.839C80.0571 140.093 81.4646 138.678 83.3395 138.678C85.2155 138.678 86.6044 140.076 86.6044 141.821V141.839C86.6044 143.584 85.1972 145 83.3219 145C81.447 145 80.0571 143.602 80.0571 141.856ZM84.8772 141.856V141.839C84.8772 140.953 84.252 140.198 83.3219 140.198C82.3922 140.198 81.7757 140.945 81.7757 141.821V141.839C81.7757 142.716 82.4099 143.48 83.3395 143.48C84.2606 143.48 84.8772 142.733 84.8772 141.856Z" fill="black"/>
<path d="M93.4033 144.878H95.088V138.799H93.4033V144.878Z" fill="black"/>
<path d="M97.938 138.799H99.5098L102.011 142.012V138.799H103.678V144.878H102.212L99.6051 141.543V144.878H97.938" fill="black"/>
<path d="M107.983 140.275H106.168V138.799H111.491V140.275H109.668V144.877H107.983" fill="black"/>
<path d="M113.97 138.799H118.86V140.224H115.637V141.153H118.556V142.481H115.637V143.445H118.903V144.879H113.97" fill="black"/>
<path d="M121.512 138.799H124.387C125.317 138.799 125.959 139.042 126.367 139.451C126.723 139.806 126.905 140.266 126.905 140.866V140.883C126.905 141.821 126.41 142.437 125.656 142.759L127.106 144.879H125.169L123.944 143.038H123.198V144.879H121.512V138.799ZM124.317 141.717C124.882 141.717 125.221 141.438 125.221 140.996V140.979C125.221 140.492 124.865 140.249 124.309 140.249H123.198V141.716" fill="black"/>
<path d="M131.486 138.756H133.109L135.697 144.878H133.891L133.456 143.784H131.104L130.669 144.878H128.907L131.486 138.756ZM132.961 142.473L132.284 140.754L131.599 142.473" fill="black"/>
<path d="M137.439 141.856V141.839C137.439 140.068 138.794 138.678 140.635 138.678C141.877 138.678 142.676 139.199 143.214 139.937L141.946 140.919C141.599 140.493 141.2 140.206 140.617 140.206C139.766 140.206 139.168 140.936 139.168 141.821V141.839C139.168 142.751 139.766 143.463 140.617 143.463C141.251 143.463 141.625 143.167 141.99 142.725L143.257 143.628C142.684 144.418 141.912 145 140.574 145C138.836 145 137.439 143.671 137.439 141.856Z" fill="black"/>
<path d="M147.214 140.275H145.399V138.799H150.722V140.275H148.898V144.877H147.213" fill="black"/>
<path d="M153.244 144.878H154.929V138.799H153.244V144.878Z" fill="black"/>
<path d="M157.302 138.799H159.178L160.558 142.646L161.948 138.799H163.789L161.323 144.921H159.76" fill="black"/>
<path d="M166.12 138.799H171.01V140.224H167.787V141.153H170.706V142.481H167.787V143.445H171.053V144.879H166.12" fill="black"/>
<path d="M122.417 100.632L125.423 98.7483L155.288 76.3382C165.43 67.3019 171.81 56.9548 171.792 43.0422C171.76 15.2179 149.935 1.33154 124.178 1.36261C112.225 1.37711 101.741 4.58875 93.3797 10.431L93.3669 0L0 0.111853L0.0379749 31.8762L27.76 31.843L27.8798 132.142L66.3819 132.096L66.2614 31.7964L76.6358 31.7836C74.8434 36.2391 73.5792 41.1106 72.907 46.3567L105.439 52.7106C105.991 42.7456 109.36 30.3326 121.393 30.3192C129.289 30.3092 133.996 36.3199 134.005 43.8396C134.019 55.1196 124.627 63.0273 116.74 69.8045L72.975 102.759L73.0102 132.276L171.148 132.158L172.613 100.571" fill="black"/>
</g>
<defs>
<clipPath id="clip0_316_1832">
<rect width="172.613" height="145" fill="white"/>
</clipPath>
</defs>
</svg>
