<svg width="468" height="97" viewBox="0 0 468 97" fill="none" xmlns="http://www.w3.org/2000/svg">
<g clip-path="url(#clip0_316_1788)">
<path d="M23.3879 75.5172H37.9V15.1304H61.2844V1.45508H0V15.1304H23.3879V75.5172Z" fill="#F58426"/>
<path d="M68.855 64.565C75.8193 64.565 81.2504 59.2327 81.2504 50.1286C81.2504 41.11 75.8193 36.0947 68.855 36.0947C61.8878 36.0947 56.3612 41.2095 56.3612 50.2275C56.3612 59.2333 61.6871 64.565 68.855 64.565ZM94.4578 75.5221H81.3505V69.6867C79.095 73.683 73.9767 76.7546 67.2148 76.7546C52.8779 76.7546 42.6304 65.4932 42.6304 50.2275C42.6304 35.4782 52.5679 23.9121 66.8059 23.9121C75.5104 23.9121 79.612 27.488 81.0434 30.1489V25.1336H94.4578V75.5221Z" fill="#F58426"/>
<path d="M113.97 75.5179H100.347V25.1294H113.561V31.3788C116.629 26.1582 122.678 23.7969 128.103 23.7969C140.602 23.7969 146.33 32.7125 146.33 43.7685V75.5185H132.714V46.1246C132.714 40.4894 129.948 36.0911 123.391 36.0911C117.454 36.0911 113.97 40.7028 113.97 46.5416V75.5179Z" fill="#F58426"/>
<path d="M188.726 48.7898C188.726 41.0066 183.4 36.0907 176.84 36.0907C170.087 36.0907 164.757 41.006 164.757 48.7898C164.757 56.6806 169.778 61.5941 176.84 61.5941C183.808 61.5941 188.726 56.5788 188.726 48.7898ZM163.325 75.0109C164.241 80.5323 168.647 84.5315 175.101 84.5315C183.708 84.5315 188.524 80.2344 188.524 70.508V66.8107C186.474 70.0939 181.757 73.2667 174.487 73.2667C161.068 73.2667 151.036 62.9289 151.036 48.7892C151.036 35.4754 160.664 24.2129 174.487 24.2129C182.475 24.2129 187.084 27.691 188.828 31.0673V25.1296H201.94V70.0939C201.94 83.915 194.46 96.5169 175.518 96.5169C161.69 96.5169 152.468 87.9153 151.035 78.2826L163.325 75.0109Z" fill="#F58426"/>
<path d="M242.91 44.5897C242.703 39.575 239.42 34.6579 231.642 34.6579C224.576 34.6579 220.681 39.9896 220.375 44.5897H242.91ZM255.601 61.0786C253.044 69.7837 245.056 77.0643 232.663 77.0643C218.838 77.0643 206.648 67.1257 206.648 50.1255C206.648 34.0409 218.53 23.5996 231.431 23.5996C247.002 23.5996 256.324 33.5285 256.324 49.7126C256.324 51.6552 256.124 53.7008 256.124 53.9119H220.067C220.375 60.5685 226.008 65.3768 232.771 65.3768C239.112 65.3768 242.604 62.2069 244.237 57.6948L255.601 61.0786Z" fill="#F58426"/>
<path d="M310.081 25.1289H296.463V75.5175H310.081V25.1289Z" fill="#F58426"/>
<path d="M329.59 75.5179H315.964V25.1294H329.182V31.3788C332.253 26.1582 338.294 23.7969 343.724 23.7969C356.218 23.7969 361.958 32.7125 361.958 43.7685V75.5185H348.34V46.1246C348.34 40.4894 345.57 36.0911 339.013 36.0911C333.074 36.0911 329.59 40.7028 329.59 46.5416L329.59 75.5179Z" fill="#F58426"/>
<path d="M402.923 44.5897C402.711 39.575 399.442 34.6579 391.652 34.6579C384.588 34.6579 380.701 39.9896 380.387 44.5897H402.923ZM415.618 61.0786C413.062 69.7837 405.074 77.0643 392.676 77.0643C378.848 77.0643 366.665 67.1257 366.665 50.1255C366.665 34.0409 378.547 23.5996 391.451 23.5996C407.018 23.5996 416.333 33.5285 416.333 49.7126C416.333 51.6552 416.131 53.7008 416.131 53.9119H380.077C380.385 60.5685 386.017 65.3768 392.779 65.3768C399.125 65.3768 402.618 62.2069 404.247 57.6948L415.618 61.0786Z" fill="#F58426"/>
<path d="M311.564 8.29621C311.564 12.872 307.853 16.5878 303.275 16.5878C298.692 16.5878 294.982 12.872 294.982 8.29621C294.983 3.71464 298.692 0 303.276 0C307.853 0 311.564 3.71522 311.564 8.29621Z" fill="#F58426"/>
<path d="M291.75 38.297C290.215 37.9917 288.883 37.8876 287.655 37.8876C280.691 37.8876 274.651 41.2674 274.651 52.1233V75.5158H261.029V25.1324H274.239V32.9648C277.313 26.3082 284.274 24.373 288.578 24.373C289.701 24.373 290.727 24.4743 291.749 24.5766V38.297H291.75Z" fill="#F58426"/>
<path d="M467.564 3.38845C468.194 4.54223 468.152 6.05168 467.393 7.23091L441.756 47.1724C441.098 48.1955 439.804 48.6073 438.677 48.1516C437.549 47.6912 436.852 46.4848 437.147 45.3033C438.613 39.4366 440.267 29.3273 435.62 20.842C430.988 12.3469 421.587 8.27596 415.86 6.34201C414.707 5.95394 414.066 4.71399 414.289 3.51684C414.515 2.32142 415.559 1.4545 416.777 1.45508L464.238 1.45623C465.639 1.4545 466.931 2.23467 467.564 3.38845Z" fill="#F58426"/>
</g>
<defs>
<clipPath id="clip0_316_1788">
<rect width="468" height="96.5183" fill="white"/>
</clipPath>
</defs>
</svg>
