<svg width="393" height="93" viewBox="0 0 393 93" fill="none" xmlns="http://www.w3.org/2000/svg">
<g clip-path="url(#clip0_316_1816)">
<path d="M281.792 75.6232H269.388V48.2568C269.388 43.0013 256.253 43.0013 256.253 48.2568V74.5268L255.157 75.6232H243.118V48.9877C243.118 42.1461 229.252 43.0233 229.252 49.7187V75.6232H216.848V33.3017H228.521C228.28 39.4782 229.121 36.4886 231.927 34.8806C240.172 30.1514 247.548 30.9408 253.702 38.3964C259.016 29.8005 274.059 29.8809 279.49 38.1625C279.556 38.2648 279.651 38.4037 279.746 38.5791C281.105 40.8377 281.792 43.4399 281.792 46.0786V75.6305V75.6232Z" fill="#4F5C66"/>
<path d="M72.0997 3.64756C74.1464 5.69419 75.7106 9.61204 76.0176 12.4993C77.3771 25.1445 74.0513 39.4052 75.2793 52.2771C66.0475 44.8799 51.8307 45.1869 41.6853 40.2677C34.7706 36.9127 31.9565 28.273 36.2836 21.6579C38.301 18.5734 55.0323 2.50729 58.1241 1.17698C63.0799 -0.950058 68.2184 -0.241046 72.107 3.64756H72.0997Z" fill="#FBB416"/>
<path d="M72.1071 57.6353C77.2822 63.1758 77.1579 78.4159 73.8395 84.7678C69.6439 92.7862 59.6373 94.482 52.4156 89.3727C50.0327 87.6843 48.8413 85.1771 47.2478 82.8674C41.7073 74.8197 27.7975 54.2218 27.0958 45.3774C26.7522 41.0283 27.2566 36.7084 28.5869 32.5859L30.407 37.6879C36.1302 51.9778 63.8475 48.7982 72.1071 57.6426V57.6353Z" fill="#29ABE2"/>
<path d="M143.147 58.1106C143.915 67.145 158.219 69.1843 160.682 60.3034C163.906 61.3925 167.414 61.9407 170.594 63.1541C171.427 63.4757 171.815 62.6936 171.5 64.192C170.499 69.0016 164.344 74.4106 159.783 75.8432C141.817 81.4861 126.219 65.822 131.072 47.8628C136.898 26.2927 169.022 26.5778 172.144 49.1785C172.502 51.7733 173.043 56.1955 171.237 58.1106H143.14H143.147ZM159.93 49.3539C158.855 39.8736 144.602 39.6763 143.147 49.3539H159.93Z" fill="#4F5C66"/>
<path d="M211.402 75.623H201.52V71.2446C192.032 83.3344 169.088 74.4242 176.054 58.5409C180.462 48.4977 197.792 51.5604 199.737 48.6512C204.217 41.9339 187.895 38.959 186.448 47.9349L176.01 46.4146C176.251 33.5792 193.377 28.9743 203.991 33.7912C207.638 35.4431 210.13 38.9078 210.715 42.8695C211.475 47.9861 211.41 58.0658 211.41 75.623H211.402ZM200.065 57.3787C196.849 57.6857 188.897 57.8903 187.808 61.5523C185.966 67.7434 193.648 69.1907 197.843 65.7406C200.65 63.4309 200.117 60.6752 200.065 57.3787Z" fill="#4F5C66"/>
<path d="M334.332 70.5206V91.6814L327.505 91.5791H326.306L326.628 35.4428L334.339 34.7557L334.697 40.6032C338.06 34.5876 345.018 33.2865 351.48 34.0248C373.079 36.4953 372.999 80.9146 343.498 76.3097C339.916 75.7542 337.007 73.9195 334.332 70.5133V70.5206ZM345.106 40.7421C329.771 42.8545 331.408 70.3525 347.079 69.8189C362.751 69.2854 362.086 38.4031 345.106 40.7421Z" fill="#4F5C66"/>
<path d="M119.794 20.8974V33.3015H127.82V44.9746H119.794V62.1225C119.794 65.0536 125.839 64.8489 127.82 64.6735V75.623C122.184 76.9752 114.465 77.0264 110.299 72.3484C104.905 66.3035 108.369 52.6787 107.397 44.9673C105.504 44.6457 100.183 45.9541 99.4663 43.7759L99.6783 33.974C100.687 32.5706 107.156 34.5953 108.077 28.5065C108.464 25.9336 107.17 22.6882 109.21 20.8828H119.794V20.8974Z" fill="#4F5C66"/>
<path d="M321.928 75.6222H314.626L314.268 70.5203C311.929 73.0493 310.489 74.6501 307.17 75.8269C287.991 82.6393 279.073 57.3195 298.414 52.4733C301.33 51.7424 312.908 51.4281 313.778 48.8698C317.389 38.2858 296.696 37.1382 295.695 48.3216L288.546 46.8012C288.466 44.4038 289.942 41.4654 290.666 40.3543C296.009 32.197 311.022 31.0568 317.945 37.6499C317.952 37.6572 317.959 37.6645 317.974 37.6718C320.503 40.0839 321.928 43.4389 321.928 46.9401V75.6296V75.6222ZM313.902 56.647C313.31 56.0623 300.614 58.1089 299.028 58.9276C292.983 62.056 295.877 70.2352 302.566 70.3887C310.35 70.5714 315.306 64.1465 313.902 56.647Z" fill="#4F5C66"/>
<path d="M33.6885 72.699C22.7244 67.3558 11.4167 79.8695 2.66002 68.3499C0.335627 65.2946 -0.490336 61.7203 0.291771 57.9121C1.66594 51.2678 17.944 38.5056 23.1117 33.3086C23.7623 35.5672 22.2054 37.8843 22.0226 40.2452C20.9189 54.4255 26.3425 61.501 33.6885 72.7063V72.699Z" fill="#0371AC"/>
<path d="M383.956 21.6289V34.7639H392.72L392.727 41.6421L383.956 42.0587V65.7777C383.956 68.9135 389.46 70.3754 392.705 68.336V75.6235C388.224 76.3106 382.333 76.6322 378.846 73.0798C378.474 72.6997 377.633 71.5887 376.946 70.2876C376.259 68.9866 375.93 67.5759 375.93 66.1213V42.066H367.897V34.7639C377.209 35.8238 377.07 28.8141 376.654 21.6289H383.956Z" fill="#4F5C66"/>
</g>
<defs>
<clipPath id="clip0_316_1816">
<rect width="392.72" height="92.274" fill="white"/>
</clipPath>
</defs>
</svg>
