<svg width="95" height="26" viewBox="0 0 95 26" fill="none" xmlns="http://www.w3.org/2000/svg">
<g clip-path="url(#clip0_3303_26688)">
<path d="M14.4403 17.2112C14.2028 17.021 13.9178 16.8783 13.5853 16.7833C13.2528 16.6882 12.9203 16.6406 12.6353 16.6406C12.3978 16.6406 12.1603 16.6882 11.9228 16.7357C11.6853 16.7833 11.4478 16.8784 11.2578 16.9734C11.0678 17.0685 10.8778 17.2112 10.6878 17.4014C10.4978 17.5915 10.4028 17.7817 10.3078 17.9719C10.3078 17.6391 10.2128 17.4014 10.0228 17.2112C9.88032 17.021 9.64282 16.8783 9.40532 16.7833C9.16782 16.6882 8.88282 16.6406 8.59782 16.6406C8.31282 16.6406 8.02781 16.6882 7.69531 16.7357V17.9719C7.88531 17.9719 8.07531 17.9719 8.17031 18.0194C8.31281 18.067 8.36031 18.1145 8.40781 18.2096C8.45531 18.3047 8.50281 18.3998 8.50281 18.5424C8.50281 18.6851 8.50281 18.8277 8.50281 19.0179V24.7709H10.3078V20.159C10.3078 19.8261 10.3553 19.5409 10.4978 19.3032C10.5928 19.0654 10.7353 18.8752 10.9253 18.7326C11.1153 18.59 11.3528 18.4473 11.5903 18.3998C11.8278 18.3523 12.1128 18.2572 12.3503 18.2572C12.8253 18.2572 13.2528 18.3523 13.6328 18.5424L14.4403 17.2112Z" fill="#00A6CA"/>
<path d="M22.3731 23.5379C22.2306 23.4904 22.1831 23.3953 22.1356 23.3002C22.0881 23.2051 22.0406 23.0625 22.0406 22.9198C22.0406 22.7772 22.0406 22.6346 22.0406 22.4444V17.4046C21.5181 17.1669 20.9956 16.9767 20.4256 16.8816C19.9031 16.7389 19.3331 16.6914 18.7631 16.6914C18.0981 16.6914 17.5281 16.7865 16.9581 16.9767C16.4356 17.1669 15.9606 17.4521 15.5331 17.8325C15.1056 18.2128 14.8206 18.6408 14.5831 19.2113C14.3456 19.7343 14.2031 20.3524 14.2031 21.018C14.2031 21.5886 14.2506 22.1116 14.4406 22.587C14.5831 23.0625 14.8206 23.4904 15.1056 23.8707C15.3906 24.2511 15.7706 24.5364 16.2456 24.7265C16.7206 24.9167 17.2431 25.0118 17.8131 25.0118C18.3831 25.0118 18.9531 24.8692 19.4756 24.5364C19.9981 24.2511 20.3781 23.8232 20.5681 23.2526C20.5681 23.6805 20.6156 24.0134 20.7581 24.2511C20.9006 24.4888 21.0431 24.679 21.2806 24.7741C21.5181 24.9167 21.7556 24.9643 22.0406 24.9643C22.3256 24.9643 22.6106 24.9643 22.8956 24.8692V23.5379C22.6581 23.5855 22.4681 23.5855 22.3731 23.5379ZM20.2831 20.7803C20.2831 21.541 20.0931 22.1116 19.7131 22.587C19.3806 23.0625 18.8581 23.3002 18.1931 23.3002C17.4331 23.3002 16.9106 23.0625 16.5306 22.6346C16.1506 22.2066 16.0081 21.6361 16.0081 20.8754C16.0081 20.4475 16.1031 20.0671 16.2456 19.6867C16.3881 19.3539 16.5306 19.0211 16.7681 18.7834C17.0056 18.5457 17.2431 18.3555 17.5756 18.2128C17.8606 18.0702 18.2406 18.0227 18.6206 18.0227C18.8581 18.0227 19.1431 18.0227 19.4281 18.0702C19.7131 18.1178 19.9981 18.2128 20.2831 18.3079V20.7803Z" fill="#00A6CA"/>
<path d="M30.9698 17.6391C30.7323 17.3538 30.3998 17.1161 29.9723 16.9259C29.5923 16.7357 29.1173 16.6406 28.5473 16.6406C28.2623 16.6406 28.0248 16.6406 27.7398 16.6882C27.4548 16.7357 27.2173 16.8308 26.9798 16.9259C26.7423 17.021 26.5048 17.1636 26.3148 17.3538C26.1248 17.544 25.9348 17.7342 25.8398 18.0194C25.8398 17.6391 25.7448 17.3538 25.6023 17.1636C25.4598 16.9734 25.2698 16.8308 25.0323 16.7357C24.7948 16.6882 24.5098 16.6406 24.2248 16.6406C23.9398 16.6406 23.6073 16.6882 23.3223 16.7357V17.9719C23.5123 17.9719 23.7023 17.9719 23.7973 18.0194C23.9398 18.067 23.9873 18.1145 24.0348 18.2096C24.0823 18.3047 24.1298 18.3998 24.1298 18.5424C24.1298 18.6851 24.1298 18.8753 24.1298 19.113V24.7709H25.9348V20.2541C25.9348 19.9212 25.9823 19.636 26.0773 19.3982C26.1723 19.113 26.3148 18.9228 26.5048 18.7326C26.6948 18.5424 26.8848 18.3998 27.1223 18.3047C27.3598 18.2096 27.6448 18.1621 27.9298 18.1621C28.4523 18.1621 28.9273 18.3522 29.2598 18.6851C29.6398 19.0179 29.7823 19.5409 29.7823 20.159V24.8184H31.5873V20.159C31.5873 19.6835 31.5398 19.2081 31.3973 18.7802C31.4448 18.3047 31.2548 17.9719 30.9698 17.6391Z" fill="#00A6CA"/>
<path d="M39.0441 20.6351C38.7591 20.4449 38.3791 20.3498 37.9991 20.2547C37.6191 20.1596 37.1916 20.1121 36.7641 20.0646C36.1466 19.9695 35.6716 19.8744 35.3391 19.7793C35.0066 19.6366 34.8641 19.4465 34.8641 19.1137C34.8641 18.9235 34.9116 18.7808 35.0066 18.6382C35.1016 18.4956 35.1966 18.4005 35.3866 18.3054C35.5291 18.2103 35.7191 18.1152 35.9091 18.0677C36.0991 18.0201 36.3366 17.9726 36.5266 17.9726C36.7166 17.9726 36.9541 17.9726 37.1441 18.0201C37.3816 18.0677 37.5716 18.1152 37.7141 18.2103C37.9041 18.3054 37.9991 18.4005 38.1416 18.5431C38.2366 18.6857 38.3316 18.8284 38.3316 19.0186H39.8991C39.8991 18.6382 39.8516 18.2578 39.6616 17.9726C39.4716 17.6873 39.2341 17.4496 38.9491 17.2118C38.6166 17.0217 38.2841 16.8315 37.8566 16.7364C37.4291 16.6413 37.0016 16.5938 36.5266 16.5938C36.0991 16.5938 35.6716 16.6413 35.2441 16.7364C34.8166 16.8315 34.4841 16.9741 34.1516 17.2118C33.8191 17.402 33.5816 17.6873 33.3916 17.9726C33.2016 18.2578 33.1066 18.6382 33.1066 19.0661C33.1066 19.5416 33.2491 19.8744 33.4391 20.1596C33.6766 20.4449 33.9141 20.6351 34.2466 20.7777C34.5791 20.9204 34.9591 21.0155 35.3866 21.1105C35.8141 21.1581 36.1941 21.2532 36.6216 21.3007C37.1441 21.3483 37.5716 21.4909 37.9041 21.6335C38.2366 21.7762 38.3791 22.0139 38.3791 22.3943C38.3791 22.632 38.3316 22.8222 38.1891 23.0123C38.0466 23.155 37.9041 23.2976 37.7616 23.3927C37.5716 23.4878 37.3816 23.5354 37.1441 23.5829C36.9066 23.6304 36.7166 23.6304 36.4791 23.6304C36.2416 23.6304 36.0516 23.5829 35.8141 23.5829C35.6241 23.5354 35.4341 23.4403 35.2441 23.3452C35.0541 23.2501 34.9591 23.1074 34.8166 22.9648C34.7216 22.8222 34.6266 22.632 34.6266 22.4418H32.8691C32.9166 22.9173 33.0116 23.3452 33.2491 23.678C33.4866 24.0108 33.7241 24.2485 34.1041 24.4387C34.4366 24.6289 34.8166 24.7715 35.2441 24.8666C35.6716 24.9617 36.0991 25.0093 36.5266 25.0093C36.9541 25.0093 37.3816 24.9617 37.8091 24.8666C38.2366 24.7715 38.6166 24.6289 38.9016 24.3912C39.1866 24.1534 39.4716 23.9157 39.6616 23.6304C39.8516 23.2976 39.9466 22.9173 39.9466 22.4893C39.9466 22.0139 39.8516 21.6335 39.6616 21.3483C39.5666 21.0155 39.3291 20.8253 39.0441 20.6351Z" fill="#00A6CA"/>
<path d="M59.1859 17.6391C58.9484 17.3538 58.6159 17.1161 58.1884 16.9259C57.8084 16.7357 57.3334 16.6406 56.7634 16.6406C56.4784 16.6406 56.2409 16.6406 55.9559 16.6882C55.6709 16.7357 55.4334 16.8308 55.1959 16.9259C54.9584 17.021 54.7209 17.1636 54.5309 17.3538C54.3409 17.544 54.1509 17.7342 54.0559 18.0194C54.0559 17.6391 53.9609 17.3538 53.8184 17.1636C53.6759 16.9734 53.4859 16.8308 53.2484 16.7357C53.0109 16.6882 52.7259 16.6406 52.4409 16.6406C52.1559 16.6406 51.8234 16.6882 51.5859 16.7357V17.9719C51.7759 17.9719 51.9659 17.9719 52.0609 18.0194C52.2034 18.067 52.2509 18.1145 52.2984 18.2096C52.3459 18.3047 52.3934 18.3998 52.3934 18.5424C52.3934 18.6851 52.3934 18.8753 52.3934 19.113V24.7709H54.1984V20.2541C54.1984 19.9212 54.2459 19.636 54.3409 19.3982C54.4359 19.113 54.5784 18.9228 54.7684 18.7326C54.9584 18.5424 55.1484 18.3998 55.3859 18.3047C55.6234 18.2096 55.9084 18.1621 56.1934 18.1621C56.7159 18.1621 57.1909 18.3522 57.5234 18.6851C57.9034 19.0179 58.0459 19.5409 58.0459 20.159V24.8184H59.8509V20.159C59.8509 19.6835 59.8034 19.2081 59.6609 18.7802C59.6609 18.3047 59.4709 17.9719 59.1859 17.6391Z" fill="#00A6CA"/>
<path d="M62.3679 13.3125C62.0829 13.3125 61.8454 13.4076 61.6079 13.5978C61.3704 13.788 61.2754 14.0257 61.2754 14.406C61.2754 14.7864 61.4179 15.0241 61.6079 15.2143C61.8454 15.4045 62.0829 15.4996 62.3679 15.452C62.6529 15.452 62.8904 15.3569 63.0804 15.1668C63.3179 14.9766 63.4129 14.7389 63.4129 14.3585C63.4129 13.9781 63.3179 13.7404 63.0804 13.5502C62.8904 13.36 62.6529 13.3125 62.3679 13.3125Z" fill="#00A6CA"/>
<path d="M63.2699 16.832H61.4648V24.8196H63.2699V16.832Z" fill="#00A6CA"/>
<path d="M71.6784 17.6899C71.2984 17.357 70.8234 17.1193 70.3009 16.9291C69.7784 16.739 69.2559 16.6914 68.6859 16.6914C68.1634 16.6914 67.6409 16.7865 67.1659 16.9291C66.6909 17.1193 66.2159 17.357 65.8359 17.6899C65.4559 18.0227 65.1234 18.4506 64.8859 18.9736C64.6484 19.4966 64.5059 20.0671 64.5059 20.7803C64.5059 21.4935 64.6484 22.1116 64.8859 22.587C65.1234 23.11 65.4559 23.5379 65.8359 23.9183C66.2159 24.2511 66.6909 24.5364 67.1659 24.679C67.6884 24.8692 68.1634 24.9167 68.7334 24.9167C69.2559 24.9167 69.7784 24.8216 70.3009 24.679C70.8234 24.5364 71.2509 24.2511 71.6309 23.9183C72.0109 23.5854 72.3434 23.1575 72.5809 22.587C72.8184 22.064 72.9609 21.4459 72.9609 20.7803C72.9609 20.0671 72.8184 19.4966 72.5809 18.9736C72.3909 18.4506 72.0584 18.0227 71.6784 17.6899ZM70.9659 21.9214C70.8234 22.2542 70.6334 22.4919 70.4434 22.7296C70.2534 22.9674 69.9684 23.11 69.6834 23.2051C69.3984 23.3002 69.1134 23.3953 68.8284 23.3953C68.5434 23.3953 68.2109 23.3477 67.9259 23.2526C67.6409 23.1575 67.3559 22.9674 67.1659 22.7772C66.9284 22.5395 66.7384 22.3017 66.5959 21.9689C66.4534 21.6361 66.4059 21.2557 66.4059 20.8278C66.4059 20.3999 66.4534 20.0671 66.5959 19.7343C66.7384 19.4015 66.8809 19.1637 67.1184 18.9736C67.3559 18.7834 67.5934 18.5932 67.8784 18.4981C68.1634 18.403 68.4484 18.3555 68.7334 18.3079C69.0184 18.3079 69.3509 18.3555 69.6359 18.4506C69.9209 18.5457 70.2059 18.6883 70.4434 18.926C70.6809 19.1162 70.8709 19.4015 71.0134 19.7343C71.1559 20.0671 71.2509 20.4475 71.2509 20.8754C71.2034 21.2082 71.1084 21.5886 70.9659 21.9214Z" fill="#00A6CA"/>
<path d="M0 14.9304V13.2188H8.5975V14.9304H5.225V24.8198H3.325V14.9304H0Z" fill="#00A6CA"/>
<path d="M41.4199 20.9211V13.2188H43.3199V20.8735C43.3199 22.395 44.4599 23.2508 45.9324 23.2508C47.4049 23.2508 48.4974 22.395 48.4974 20.8735V13.2188H50.3974V20.9211C50.3974 23.4885 48.3549 24.9624 45.9324 24.9624C43.4624 24.9624 41.4199 23.4885 41.4199 20.9211Z" fill="#00A6CA"/>
<path d="M81.9381 22.9173V21.6335V20.0646C81.9381 19.5891 81.8906 19.1136 81.7481 18.6857C81.6056 18.2578 81.4156 17.925 81.1781 17.5922C80.9406 17.3069 80.6081 17.0692 80.1806 16.879C79.8006 16.6888 79.3256 16.5938 78.7556 16.5938C78.4706 16.5938 78.2331 16.5938 77.9481 16.6413C77.6631 16.6888 77.4256 16.7839 77.1881 16.879C76.9506 16.9741 76.7131 17.1167 76.5231 17.3069C76.3331 17.4971 76.1431 17.6873 76.0481 17.9726C76.0481 17.5922 75.9531 17.3069 75.8106 17.1167C75.6681 16.9266 75.4781 16.7839 75.2406 16.6888C75.0031 16.6413 74.7181 16.5938 74.4331 16.5938C74.1481 16.5938 73.8156 16.6413 73.5781 16.6888V17.925C73.7681 17.925 73.9581 17.925 74.0531 17.9726C74.1956 18.0201 74.2431 18.0677 74.2906 18.1627C74.3381 18.2578 74.3856 18.3529 74.3856 18.4956C74.3856 18.6382 74.3856 18.8284 74.3856 19.0661V24.724H76.1906V20.2072C76.1906 19.8744 76.2381 19.5891 76.3331 19.3514C76.4281 19.0661 76.5706 18.8759 76.7606 18.6857C76.9506 18.4956 77.1406 18.3529 77.3781 18.2578C77.6156 18.1627 77.9006 18.1152 78.1856 18.1152C78.7081 18.1152 79.1831 18.3054 79.5156 18.6382C79.8956 18.971 80.0381 19.494 80.0381 20.1121V22.8222V23.0123C80.0381 24.9617 81.2256 25.1519 82.7931 24.8666V23.7255C82.0806 23.7731 81.9381 23.5354 81.9381 22.9173Z" fill="#00A6CA"/>
<path d="M86.64 0.191406C83.5525 0.191406 80.845 1.8555 79.42 4.37539C78.8975 5.37384 78.8025 6.22965 79.23 6.94283C79.705 7.79864 80.7975 7.89373 81.3675 7.89373H82.4125L82.0325 9.08236C81.795 9.79554 81.89 10.6038 82.27 11.1268C82.65 11.6498 83.22 11.9351 83.9325 11.9351C84.4075 11.9351 84.93 11.84 85.405 11.6498C85.2625 11.4596 85.1675 11.2694 85.0725 11.0317C85.025 10.8415 84.93 10.6513 84.93 10.4136C84.645 10.5563 84.3125 10.6038 83.98 10.6038C83.79 10.6038 83.505 10.5563 83.3625 10.3185C83.22 10.1284 83.1725 9.84308 83.2675 9.51026L83.79 7.89373H85.4525L85.88 6.51492H84.265L84.9775 4.28029H83.5525L82.84 6.51492H81.32C80.845 6.51492 80.56 6.37228 80.4175 6.13455C80.275 5.84928 80.4175 5.27875 80.7975 4.61312V4.56557C82.08 2.71131 84.17 1.47513 86.5925 1.47513C90.44 1.47513 93.575 4.6131 93.575 8.46426C93.575 12.3154 90.44 15.4534 86.5925 15.4534C83.1725 15.4534 80.3225 12.9811 79.705 9.74799L78.375 10.0333C79.135 13.8844 82.5075 16.8322 86.5925 16.8322C91.2 16.8322 94.9525 13.0761 94.9525 8.46426C95 3.94747 91.2475 0.191406 86.64 0.191406Z" fill="#00A6CA"/>
<path d="M91.9595 10.8416C91.627 10.8416 91.1995 10.794 90.9145 10.6038C90.8195 10.5087 90.677 10.4137 90.6295 10.1759C90.6295 10.0808 90.6295 9.93822 90.677 9.79558L91.722 6.61005H90.297L89.3945 9.36768C89.157 10.0809 88.397 10.6514 87.732 10.6514C87.542 10.6514 87.3045 10.6038 87.2095 10.4137C87.1145 10.271 87.0195 10.0808 87.162 9.74803L88.207 6.5625H86.782L85.8795 9.32013C85.642 9.98576 85.737 10.6989 86.117 11.2219C86.497 11.6974 87.0195 11.9827 87.732 11.9827C88.397 11.9827 89.1095 11.6974 89.6795 11.2219C89.8695 11.5072 90.107 11.6974 90.4395 11.84C90.9145 11.9827 91.1995 11.9827 91.532 11.9827C91.6745 11.9827 91.8645 11.9351 91.912 11.9351C91.9595 11.8876 91.9595 11.84 92.007 11.7925C92.0545 11.6974 92.102 11.6023 92.1495 11.5072C92.197 11.4121 92.2445 11.317 92.292 11.2219C92.3395 11.1268 92.387 11.0318 92.4345 10.9367C92.482 10.8891 92.482 10.794 92.5295 10.7465C92.387 10.8416 92.197 10.8416 91.9595 10.8416Z" fill="#00A6CA"/>
<path d="M83.7891 23.8666C83.7891 22.4403 85.9266 22.4403 85.9266 23.8666C85.9266 25.293 83.7891 25.293 83.7891 23.8666ZM85.7366 23.8666C85.7366 22.6305 83.9791 22.6305 83.9791 23.8666C83.9791 25.1028 85.7366 25.1028 85.7366 23.8666ZM85.3091 24.3421L85.1191 24.3896L84.8341 24.0093H84.5966V24.3896H84.4541V23.3436H84.8816C85.0716 23.3436 85.2616 23.4863 85.2616 23.6764C85.2616 23.8191 85.1666 23.9617 85.0241 23.9617L85.3091 24.3421ZM84.6441 23.8666H84.8816C85.0241 23.8666 85.1191 23.7715 85.1191 23.6764C85.1191 23.5338 85.0241 23.4863 84.8816 23.4863H84.6441V23.8666Z" fill="#00A6CA"/>
</g>
<defs>
<clipPath id="clip0_3303_26688">
<rect width="95" height="25.175" fill="white"/>
</clipPath>
</defs>
</svg>
