<svg width="421" height="54" viewBox="0 0 421 54" fill="none" xmlns="http://www.w3.org/2000/svg">
<path fill-rule="evenodd" clip-rule="evenodd" d="M207.848 36.8932C207.829 27.4074 193.839 28.4763 193.915 21.987C193.839 19.7731 195.385 18.0935 197.255 18.0553C201.912 18.0935 203.286 23.1131 203.535 25.1171H205.882C205.958 22.6169 205.882 19.8876 205.29 17.4637C203.764 16.662 201.092 15.7268 197.828 15.6887C186.739 15.7077 186.739 23.3612 186.643 23.9338C186.739 33.8012 200.729 32.0072 200.767 39.4507C200.71 41.6456 199.221 43.516 196.645 43.5733C191.949 43.516 189.163 38.5346 188.8 35.1373H186.262C186.281 38.1147 186.682 41.0921 187.445 43.9741C189.678 45.062 192.35 45.8827 196.072 45.9399C204.413 45.8827 207.829 41.7028 207.848 36.8932ZM182.33 30.2322C182.273 20.212 174.925 15.7268 166.832 15.7077C158.969 15.7268 151.01 20.4602 150.934 31.2246C151.01 41.5883 158.415 45.8827 166.431 45.9399C174.314 45.8827 182.273 41.2829 182.33 30.2322ZM149.941 43.1725L149.75 41.6074H148.376C145.666 41.5692 145.666 40.1378 145.628 35.1373V0.19086C142.307 0.19086 139.501 0.553492 134.443 1.56505V3.1301C134.596 3.22553 135.34 3.11101 136.008 3.1301C138.203 3.11101 138.203 5.53493 138.165 10.9935V16.0895C137.02 15.9177 135.894 15.7268 134.043 15.7077C128.928 15.7268 116.254 17.7881 116.178 31.9881C116.254 41.4547 123.087 45.8636 129.92 45.9208C133.966 45.8636 136.963 43.8786 138.566 42.9816L140.131 45.9208C143.433 45.2528 146.849 44.5085 149.941 43.1725ZM111.082 30.2322C111.158 20.212 103.829 15.7268 95.7752 15.7077C87.8545 15.7268 79.8957 20.4602 79.8766 31.2246C79.8957 41.5883 87.2819 45.8827 95.1835 45.9399C103.2 45.8827 111.158 41.2829 111.082 30.2322ZM72.414 6.08842C72.4903 3.79811 70.5054 1.87043 68.1005 1.96585C65.8102 1.87043 63.8825 3.64542 63.7871 5.91665C63.7871 5.97391 63.7871 6.03116 63.7871 6.08842C63.8062 8.7032 65.6766 10.5736 68.1005 10.5927C70.5054 10.5736 72.5094 8.76046 72.414 6.08842ZM76.1548 44.9474V43.3824L74.7806 43.1915C72.643 43.0198 72.3185 42.3518 72.2231 39.069V15.7077C69.0739 15.9177 65.6766 16.4139 61.0387 18.0553V19.8303C61.6495 19.544 62.3175 19.4104 63.0046 19.4295C64.8559 19.3913 64.8559 22.1779 64.7605 24.3346V39.0499C64.8559 42.3136 64.5505 43.0007 62.203 43.1725L61.0196 43.3633V44.9284L76.1548 44.9474ZM58.0995 18.437C57.1643 17.5209 55.5992 15.7077 53.0035 15.6887C49.8353 15.7077 47.2205 18.7042 45.9417 20.0021C45.9799 18.1317 45.6745 16.8338 45.56 15.6887C41.0176 16.3948 39.7197 16.8338 34.9673 18.437V20.0021C35.4254 19.8685 36.1125 19.6204 37.124 19.6013C38.9181 19.6204 38.9181 22.426 38.899 24.5064V39.0308C38.9181 42.2945 38.6127 42.9816 36.3415 43.1534L34.9673 43.3442V44.9093H51.4576V43.3442L48.9001 42.9434C46.3616 42.6762 46.3616 41.8555 46.3425 37.4467V22.3306C47.1632 21.3381 47.9267 21.09 48.9001 21.1472C49.7208 21.09 53.328 22.5787 54.3968 22.9222C56.2863 21.5099 57.1452 20.4411 58.0995 18.437ZM36.1125 14.5244C36.1506 13.6083 35.5781 5.28681 35.3299 3.93171H0.784342C0.536224 5.28681 -0.036353 13.6274 0.00181893 14.5244H2.15853C3.81901 7.90159 4.50611 6.27928 11.587 6.27928H13.9346V35.9198C14.0109 42.2754 14.0109 42.638 10.0029 43.1915L8.43781 43.3824V44.9474H27.6765V43.3824L26.1114 43.1915C22.1034 42.6571 22.1034 42.2945 22.1797 35.9198V6.27928H24.5273C31.6082 6.27928 32.2762 7.90159 33.9557 14.5244H36.1125ZM174.295 31.5873C174.314 36.416 172.959 43.4969 167.233 43.5542C161.221 43.4969 158.969 36.3397 158.988 29.8123C158.969 24.6591 160.534 18.0744 166.26 18.0362C172.444 18.0935 174.314 24.9835 174.295 31.5873ZM138.165 41.2257C137.516 41.7219 136.199 42.2754 134.634 42.1991C129.615 42.2754 124.213 37.4276 124.232 29.0488C124.213 22.7505 127.382 18.0935 132.878 18.0553C135.856 18.0935 137.039 19.2005 138.184 20.212V41.2257H138.165ZM103.238 31.5873C103.2 36.416 101.845 43.4969 95.9661 43.5542C90.0876 43.4969 87.8545 36.3397 87.9118 29.8123C87.8354 24.6591 89.4005 18.0744 94.9736 18.0362C101.348 18.0935 103.2 24.9835 103.238 31.5873ZM421 44.9474V43.3824C418.576 43.3251 418.023 42.7144 408.041 27.083C415.026 19.9639 415.102 19.0287 418.843 18.437L420.027 18.2462V16.6811H406.285V18.2462L408.251 18.437C409.148 18.647 410.197 18.8188 410.216 19.4295C410.197 20.2693 409.568 21.1282 407.468 23.7429L405.311 26.0905C403.04 28.648 401.742 28.7625 399.414 28.8389V0.19086C396.15 0.19086 393.344 0.553492 388.229 1.56505V3.1301C388.439 3.22553 389.184 3.11101 389.985 3.1301C392.028 3.11101 392.028 5.53493 391.951 10.9935V39.069C392.047 42.3327 391.665 43.0198 389.413 43.1915L388.229 43.3824V44.9474H403.345V43.3824L401.971 43.1915C399.815 43.0198 399.509 42.3518 399.414 39.069V31.2056H400.196C402.792 31.1292 402.849 32.8088 406.094 37.6757C409.338 42.638 409.701 44.9284 416.305 44.9474H421ZM385.672 44.9474V43.3824L384.489 43.1915C382.217 43.0198 381.893 42.3518 381.95 39.069V26.9112C381.912 18.418 378.114 15.7459 372.522 15.7268C367.235 15.7459 364.257 17.9981 362.711 19.4486V15.7268C359.467 15.9368 356.184 16.433 351.527 18.0744V19.8494C352.138 19.5631 352.806 19.4295 353.493 19.4486C355.382 19.4104 355.382 22.197 355.459 24.3537V39.069C355.382 42.3327 355.077 43.0198 352.92 43.1915L351.737 43.3824V44.9474H366.643V43.3824L365.46 43.1915C363.131 43.0198 362.826 42.3518 362.902 39.069V21.7962C363.818 20.651 365.422 19.3341 367.998 19.4486C374.449 19.3532 374.449 25.308 374.468 30.2322V39.069C374.43 42.3327 374.125 43.0198 371.93 43.1915L370.556 43.3824V44.9474H385.672ZM349.561 44.3558L349.37 43.5733H348.989C344.942 43.5733 344.942 38.9735 344.866 34.5456V26.8921C344.942 19.7731 343.568 15.7268 335.838 15.7077C329.464 15.7268 325.169 19.2768 322.287 22.3878C322.86 23.8193 323.184 24.3155 324.043 25.5179H324.635C325.475 23.6284 327.269 19.3341 332.098 19.4295C336.487 19.3341 337.48 22.636 337.404 26.3005V27.8655C332.327 29.1443 321.371 31.2628 321.314 39.0499C321.39 43.077 324.673 45.8636 329.559 45.9208C333.873 45.8636 336.43 43.9359 338.186 42.7716C339.159 44.2413 340.266 45.8636 344.274 45.9208C346.985 45.8827 348.779 44.7566 349.561 44.3558ZM317.363 33.1714C317.382 25.6134 310.74 23.1322 306.961 22.5787V22.3878C310.168 21.4526 315.397 19.1623 315.397 12.5776C315.378 3.93171 305.072 3.93171 302.056 3.93171H283.6V5.49676L284.974 5.68762C287.971 6.08842 287.971 6.08842 287.914 12.9594V35.7289C287.971 42.7716 288.028 42.7716 284.974 43.1915L283.6 43.3824V44.9474H299.69C309.004 44.9474 317.401 42.3327 317.363 33.1714ZM337.785 40.8249C337.213 41.1493 336.029 42.2754 333.854 42.1991C331.124 42.2754 329.311 40.0424 329.33 37.1031C329.311 32.4652 333.224 30.5948 336.793 30.633C337.022 30.5948 337.213 30.6521 337.384 30.633V37.5039C337.461 38.5918 337.652 40.1569 337.785 40.8249ZM307.362 13.9328C307.324 20.6892 303.106 22.0061 298.335 21.987H295.968V6.68009C297.056 6.41288 298.182 6.27928 299.308 6.27928C304.022 6.27928 307.324 9.19944 307.362 13.9328ZM309.328 34.1448C309.309 39.0308 306.828 42.5617 301.083 42.5808C299.422 42.5617 297.686 42.1991 295.987 41.6074V24.3346H298.735C306.255 24.3728 309.309 29.2206 309.328 34.1448ZM273.79 27.8655C273.885 20.3266 270.641 12.9975 266.327 8.62686C263.617 5.89756 261.136 4.218 257.491 2.53843L257.09 3.34004C258.827 4.3516 260.258 5.47767 261.995 7.06181C266.709 11.757 269.82 19.6967 269.839 26.3005C269.801 27.2357 269.801 28.5335 269.648 29.6405C268.694 26.8539 267.091 24.5064 264.934 22.3878C264.342 21.7007 263.484 20.8419 262.777 20.422C262.72 21.8916 262.109 25.1362 261.403 26.9112C262.3 27.751 262.796 28.3045 263.751 29.0679C265.64 31.1674 266.938 33.7631 266.881 35.9389C266.938 37.1985 266.385 38.4964 265.316 39.4698C264.4 40.4813 262.338 41.2257 260.22 41.2257C257.872 41.2066 254.265 39.9088 252.376 38.4773C256.212 34.6983 258.502 30.5375 260.029 25.3271C260.563 23.0749 260.869 20.8419 260.812 18.647C260.869 14.5435 259.876 10.7072 258.063 7.65347C255.334 2.80564 251.097 0.0572579 245.505 0C238.996 0.0572579 232.832 3.30187 228.232 8.03519C222.945 13.2838 220.33 19.8112 220.387 26.4913C220.349 27.7319 220.407 28.8389 220.578 30.2322H221.361C221.399 28.1709 221.647 26.3005 222.143 23.9529C223.25 19.8303 226.113 15.2306 229.797 11.5852C232.335 9.02766 235.198 7.15724 237.851 6.08842C235.943 8.34057 234.645 10.879 233.729 13.7419C233.576 14.6198 233.328 15.8604 233.347 16.6811C234.587 15.975 237.698 14.868 239.626 14.5244C240.122 11.6806 241.172 8.51234 243.367 6.47014C244.359 5.34407 245.581 4.65697 247.089 4.71423C249.513 4.65697 251.364 6.41288 252.585 8.436C253.731 10.44 254.475 14.1045 254.151 16.6811C251.688 15.8795 249.093 15.4787 246.497 15.4978C244.092 15.4787 241.611 15.8413 238.844 16.6811C234.587 17.769 230.618 20.0212 227.659 22.9604C224.701 25.9187 222.353 30.1367 222.353 34.5456C222.334 39.0499 224.644 42.8289 227.659 45.9399C232.774 51.0359 240.065 53.6506 247.299 53.5934C253.005 53.6506 258.159 51.6657 262.796 48.3066L262.396 47.7149C258.712 49.6999 254.609 50.7114 250.429 50.6541C244.359 50.6732 237.813 48.8219 233.347 45.3483C234.587 45.5009 235.771 45.6345 236.878 45.5391C239.054 45.6345 242.852 45.062 244.722 43.9741C243.577 43.2106 241.096 41.0348 239.817 39.4698C237.927 40.2332 235.637 40.7867 233.538 40.844C231.648 40.7867 229.549 40.3668 228.232 38.8781C227.354 38.0002 226.858 36.7977 226.858 35.5381C226.858 32.9424 228.289 30.7857 229.988 29.0488C231.266 27.6556 232.946 26.4913 234.301 25.8997C235.675 31.1292 238.099 35.3663 241.955 39.2407C246.612 43.8023 252.776 46.4171 258.254 46.5125C262.281 46.4934 265.774 45.3101 268.656 42.3899C271.843 39.2217 273.885 33.6295 273.79 27.8655ZM253.387 23.5521C252.07 27.5983 249.646 31.2628 246.707 34.1448C243.863 31.0719 241.936 27.1021 241.019 23.1513C242.699 22.7505 244.398 22.5405 246.115 22.5596C248.577 22.5596 251.02 22.9413 253.387 23.5521Z" fill="#1879BF"/>
</svg>
