<svg width="380" height="135" viewBox="0 0 380 135" fill="none" xmlns="http://www.w3.org/2000/svg">
<g clip-path="url(#clip0_316_1700)">
<path opacity="0.95" d="M250.275 95.6855C239.525 95.6855 230.81 104.488 230.81 115.347C230.81 126.206 239.525 135.008 250.275 135.008C261.023 135.008 269.738 126.206 269.738 115.347C269.738 104.488 261.023 95.6855 250.275 95.6855Z" fill="#3AAA35"/>
<path d="M290.494 95.6855C279.744 95.6855 271.029 104.488 271.029 115.347C271.029 126.206 279.744 135.008 290.494 135.008C301.244 135.008 309.96 126.206 309.96 115.347C309.96 104.488 301.244 95.6855 290.494 95.6855Z" fill="#3AAA35"/>
<path opacity="0.55" d="M89.3918 95.6855C78.6441 95.6855 69.9297 104.488 69.9297 115.347C69.9297 126.206 78.6441 135.008 89.3918 135.008C100.142 135.008 108.857 126.206 108.857 115.347C108.857 104.488 100.142 95.6855 89.3918 95.6855Z" fill="#3AAA35"/>
<path opacity="0.65" d="M129.613 95.6855C118.863 95.6855 110.148 104.487 110.148 115.345C110.148 126.205 118.863 135.008 129.613 135.008C140.363 135.008 149.079 126.205 149.079 115.345C149.079 104.487 140.363 95.6855 129.613 95.6855Z" fill="#3AAA35"/>
<path opacity="0.85" d="M210.055 95.6855C199.304 95.6855 190.588 104.488 190.588 115.345C190.588 126.205 199.304 135.008 210.055 135.008C220.804 135.008 229.519 126.205 229.519 115.345C229.519 104.488 220.804 95.6855 210.055 95.6855Z" fill="#3AAA35"/>
<path opacity="0.75" d="M169.777 95.6875C159.025 95.6875 150.311 104.489 150.311 115.347C150.311 126.208 159.025 135.009 169.777 135.009C180.525 135.009 189.24 126.208 189.24 115.347C189.24 104.489 180.525 95.6875 169.777 95.6875Z" fill="#3AAA35"/>
<path d="M309.447 58.4291L275.636 58.3968L275.64 45.3056L293.725 45.3262H293.727C294.125 45.3262 294.506 45.1686 294.788 44.8871C295.069 44.6064 295.228 44.2246 295.228 43.8259L295.236 29.7167C295.237 28.8885 294.566 28.2164 293.738 28.215L275.663 28.193L275.669 17.1664L307.452 17.1898H307.453C308.281 17.1898 308.953 16.5192 308.954 15.691L308.973 1.58476C308.974 1.18606 308.816 0.804213 308.535 0.522783C308.254 0.240613 307.872 0.0823031 307.474 0.0815731L256.93 0.0332031H256.928C256.53 0.0332031 256.149 0.190783 255.868 0.472213C255.586 0.752913 255.427 1.13476 255.427 1.53273L255.367 74.0012C255.366 74.8301 256.038 75.5029 256.866 75.5036L309.435 75.5513H309.436C309.834 75.5513 310.216 75.3937 310.497 75.1122C310.778 74.8308 310.937 74.4497 310.937 74.051L310.947 59.9308C310.948 59.1026 310.276 58.4298 309.447 58.4291Z" fill="#147B45"/>
<path d="M133.481 0.0334606L116.468 0.0253906C116.07 0.0253906 115.687 0.183701 115.406 0.464401C115.124 0.745841 114.966 1.12768 114.966 1.52565L114.957 39.3364L98.428 0.940801C98.1913 0.390391 97.6489 0.0334606 97.0494 0.0334606H75.2022C74.3733 0.0334606 73.7012 0.705541 73.7012 1.53445L73.6975 74.0424C73.6975 74.8714 74.3689 75.5434 75.1978 75.5434L92.4475 75.5493C92.8455 75.5493 93.228 75.391 93.5095 75.1096C93.7909 74.8281 93.9492 74.4463 93.9492 74.0483L93.9536 31.185L112.991 74.6405C113.23 75.1858 113.769 75.5383 114.365 75.5391L133.479 75.5515C133.877 75.5515 134.259 75.3932 134.541 75.1125C134.822 74.8311 134.98 74.4485 134.98 74.0505L134.981 1.53446C134.981 0.705531 134.31 0.0341906 133.481 0.0334606Z" fill="#147B45"/>
<path d="M58.9634 0.0315006L39.7954 0.0253906C39.6051 0.0253906 39.4189 0.102491 39.2845 0.236471C39.1482 0.372741 39.0732 0.553281 39.0732 0.744901V47.2986C39.0732 52.4039 34.9199 56.5572 29.8149 56.5572C24.7095 56.5572 20.5559 52.4039 20.5559 47.2986V9.10607L20.555 6.38186L20.5559 0.750621C20.5559 0.354031 20.2325 0.0314906 19.8351 0.0314906L0.667104 0.0253906C0.474054 0.0253906 0.292464 0.100201 0.156194 0.236471C0.0199242 0.372741 -0.0551758 0.553291 -0.0551758 0.744901V47.2986C-0.0551758 63.7687 13.3445 77.1683 29.8149 77.1683C46.285 77.1683 59.6843 63.7687 59.6843 47.2986V6.38072L59.6833 6.38186L59.6843 0.750621C59.6843 0.354041 59.3609 0.0315006 58.9634 0.0315006Z" fill="#147B45"/>
<path d="M169.28 1.55937C169.281 0.730451 168.609 0.0583806 167.78 0.0576406L150.507 0.0253906C150.506 0.0253906 150.506 0.0253906 150.506 0.0253906C149.677 0.0253906 149.005 0.696731 149.005 1.52492L148.994 73.9684C148.994 74.3671 149.152 74.749 149.433 75.0304C149.715 75.3126 150.096 75.4709 150.495 75.4709L167.771 75.4973C168.169 75.4973 168.551 75.3397 168.832 75.0583C169.114 74.7768 169.272 74.395 169.272 73.997L169.28 1.55937Z" fill="#147B45"/>
<path d="M235.966 34.6613C239.874 31.0072 242.331 25.8203 242.331 20.0478C242.331 8.98969 233.367 0.0253906 222.309 0.0253906C222.161 0.0253906 222.019 0.0442806 221.873 0.0474506L212.487 0.0253906V0.0439406L184.83 0.0334106H184.829C184 0.0334106 183.328 0.704821 183.328 1.53367L183.293 73.9888C183.293 74.3869 183.45 74.7687 183.732 75.0508C184.013 75.3323 184.395 75.4907 184.794 75.4907L212.487 75.4963L217.435 75.4973C217.443 75.4973 217.449 75.4973 217.457 75.4973H221.946C234.558 75.4973 244.782 65.2732 244.782 52.6612C244.782 45.3401 241.324 38.8403 235.966 34.6613ZM203.127 15.1333H218.246C221.22 15.1333 223.632 17.5448 223.632 20.5196C223.632 23.4945 221.22 25.9061 218.246 25.9061H203.127V15.1333ZM218.027 57.5021C218.016 57.5021 218.006 57.5006 217.996 57.5006H203.127V41.7512H218.027C222.377 41.7512 225.903 45.2773 225.903 49.6266C225.903 53.9761 222.377 57.5021 218.027 57.5021Z" fill="#147B45"/>
<path d="M379.507 0.579953C379.226 0.298513 378.845 0.139473 378.446 0.138743L321.773 0.0332031H321.771C320.944 0.0332031 320.272 0.703813 320.27 1.53126L320.246 15.5085C320.245 16.3382 320.915 17.011 321.744 17.0125L339.533 17.0491L339.439 74.0026C339.439 74.4006 339.596 74.7824 339.878 75.0646C340.158 75.3468 340.54 75.5051 340.938 75.5058L358.864 75.5293H358.866C359.694 75.5293 360.365 74.8587 360.367 74.0305L360.456 17.0784L378.417 17.1136H378.419C379.246 17.1136 379.918 16.443 379.92 15.6156L379.945 1.64268C379.946 1.24396 379.788 0.862113 379.507 0.579953Z" fill="#147B45"/>
</g>
<defs>
<clipPath id="clip0_316_1700">
<rect width="380" height="135" fill="white"/>
</clipPath>
</defs>
</svg>
