<svg width="399" height="95" viewBox="0 0 399 95" fill="none" xmlns="http://www.w3.org/2000/svg">
<mask id="mask0_316_1666" style="mask-type:luminance" maskUnits="userSpaceOnUse" x="314" y="0" width="85" height="95">
<path d="M398.452 0H314.981V94.0983H398.452V0Z" fill="white"/>
</mask>
<g mask="url(#mask0_316_1666)">
<path d="M373.894 42.7822C375.856 42.3791 393.207 34.4451 394.755 33.5527C398.291 31.5155 399.502 27.0034 397.461 23.4763C395.418 19.9476 390.897 18.7385 387.363 20.7757C385.813 21.6681 370.253 32.6964 368.923 34.1894C367.399 35.902 367.136 38.3501 368.263 40.298C369.391 42.2474 371.646 43.2433 373.894 42.7822Z" fill="#FFC220"/>
<path d="M394.755 60.3489C393.206 59.4581 375.855 51.5224 373.894 51.121C371.646 50.6583 369.391 51.6542 368.263 53.6036C367.136 55.553 367.399 58.0027 368.923 59.7121C370.253 61.2052 385.814 72.2351 387.363 73.1258C390.898 75.1646 395.42 73.9539 397.461 70.4268C399.502 66.8981 398.289 62.3861 394.755 60.3489Z" fill="#FFC220"/>
<path d="M356.718 60.2559C354.463 60.2559 352.469 61.7081 351.746 63.8802C351.116 65.7778 349.325 84.7387 349.325 86.5234C349.325 90.5963 352.634 93.9007 356.718 93.9007C360.802 93.9007 364.111 90.5979 364.111 86.5234C364.111 84.7387 362.32 65.7763 361.688 63.8802C360.965 61.7065 358.973 60.2559 356.718 60.2559Z" fill="#FFC220"/>
<path d="M339.539 51.1209C337.579 51.5223 320.225 59.4564 318.679 60.3488C315.142 62.3876 313.932 66.8996 315.973 70.4267C318.014 73.9554 322.536 75.1645 326.071 73.1257C327.62 72.2334 343.18 61.2051 344.511 59.712C346.035 57.9994 346.298 55.5529 345.17 53.6035C344.043 51.6556 341.786 50.6582 339.539 51.1209Z" fill="#FFC220"/>
<path d="M326.07 20.7757C322.534 18.7385 318.013 19.9476 315.973 23.4763C313.93 27.005 315.143 31.517 318.677 33.5527C320.227 34.4451 337.578 42.3791 339.539 42.7822C341.786 43.2433 344.043 42.2489 345.17 40.298C346.298 38.3501 346.033 35.9004 344.511 34.1894C343.18 32.6964 327.62 21.6681 326.07 20.7757Z" fill="#FFC220"/>
<path d="M356.718 0C352.636 0 349.325 3.30223 349.325 7.37747C349.325 9.16173 351.116 28.1244 351.746 30.0221C352.469 32.1957 354.463 33.6464 356.718 33.6464C358.973 33.6464 360.965 32.1942 361.688 30.0221C362.32 28.1244 364.111 9.1633 364.111 7.37747C364.111 3.30379 360.802 0 356.718 0Z" fill="#FFC220"/>
</g>
<mask id="mask1_316_1666" style="mask-type:luminance" maskUnits="userSpaceOnUse" x="0" y="20" width="287" height="54">
<path d="M286.635 20.3877H0V73.7101H286.635V20.3877Z" fill="white"/>
</mask>
<g mask="url(#mask1_316_1666)">
<path d="M56.3891 20.3877L49.4968 54.5219L41.7637 20.3877H28.3333L20.6001 54.5219L13.712 20.3877H0L11.1813 72.5291H27.1382L34.9439 37.9088L42.7495 72.5291H58.3565L69.4653 20.3877H56.3891Z" fill="#0053E2"/>
<path d="M84.4063 65.2995C81.3116 65.2995 79.6264 63.4222 79.6264 60.8518C79.6264 57.5144 82.2975 56.1939 85.6726 55.0114C87.4317 54.3574 89.1941 53.6783 90.3847 52.6495V58.4177C90.3847 62.798 88.0633 65.2995 84.4095 65.2995M86.2364 29.9844C77.7271 29.9844 71.7518 32.8371 69.5714 34.8493V45.9733C72.1015 43.7494 77.4452 40.4826 84.4788 40.4826C88.835 40.4826 90.4524 41.6651 90.4524 44.0991C90.4524 46.1834 88.2035 47.0193 81.9431 48.3398C72.4527 50.2861 66.968 53.6956 66.968 61.8273C66.968 69.3347 71.9613 73.715 79.2028 73.715C85.2678 73.715 88.8917 70.9328 90.8761 67.194V72.5325H103.951V46.9472C103.951 35.199 97.7632 29.9844 86.2317 29.9844" fill="#0053E2"/>
<path d="M122.418 20.3877H108.847V72.5291H122.418V20.3877Z" fill="#0053E2"/>
<path d="M176.879 30.124C170.295 30.124 166.039 34.0354 163.815 39.2469C162.622 33.6637 158.656 30.124 153.112 30.124C146.835 30.124 142.743 33.7437 140.669 38.8281V31.305H127.31V72.5326H140.881V49.662C140.881 44.0318 142.781 40.834 146.857 40.834C150.159 40.834 151.287 43.0578 151.287 46.5348V72.5373H164.858V49.6651C164.858 44.0365 166.756 40.8371 170.832 40.8371C174.136 40.8371 175.262 43.061 175.262 46.5379V72.542H188.833V44.6528C188.833 35.9628 184.685 30.124 176.879 30.124Z" fill="#0053E2"/>
<path d="M209.222 65.2995C206.129 65.2995 204.442 63.4222 204.442 60.8518C204.442 57.5144 207.115 56.1939 210.49 55.0114C212.249 54.3574 214.011 53.6783 215.202 52.6495V58.4177C215.202 62.798 212.88 65.2995 209.222 65.2995ZM211.049 29.9844C202.539 29.9844 196.564 32.8371 194.383 34.8493V45.9733C196.914 43.7494 202.257 40.4826 209.291 40.4826C213.647 40.4826 215.265 41.6651 215.265 44.0991C215.265 46.1834 213.016 47.0193 206.755 48.3398C197.265 50.2861 191.78 53.6956 191.78 61.8273C191.78 69.3347 196.774 73.715 204.015 73.715C210.08 73.715 213.704 70.9328 215.688 67.194V72.5325H228.763V46.9472C228.763 35.199 222.576 29.9844 211.044 29.9844" fill="#0053E2"/>
<path d="M246.697 42.9513V31.3051H233.408V72.5327H246.979V55.0116C246.979 46.9474 252.041 44.791 256.893 44.791C258.511 44.791 260.056 44.998 260.76 45.2097V31.0259C253.124 30.6637 248.486 35.4831 246.697 42.9513Z" fill="#0053E2"/>
<path d="M286.635 41.7321V31.3044H277.989V23.3076H264.418V58.7623C264.418 68.7054 270.11 73.3632 279.183 73.3632C283.404 73.3632 285.653 72.5273 286.635 71.9031V61.5429C285.862 62.1012 284.594 62.5184 282.977 62.5184C279.956 62.5858 277.984 61.2653 277.984 56.8897V41.7321H286.631H286.635Z" fill="#0053E2"/>
</g>
</svg>
