<svg width="308" height="83" viewBox="0 0 308 83" fill="none" xmlns="http://www.w3.org/2000/svg">
<path fill-rule="evenodd" clip-rule="evenodd" d="M158.607 8.59984L161.976 44.4525L178.555 8.59984H204.299L171.007 73.7008H144.589L141.893 37.309L123.428 73.7008H97.0101L96.1267 60.7674L117.034 19.8856L117.497 44.4525L136.906 8.59984H158.607ZM232.773 8.59984L218.352 73.7008H194.09L208.512 8.59984H232.773ZM286.523 6.98242C300.137 6.98242 307.954 14.3956 307.954 24.1001C307.954 25.1783 307.55 28.1436 307.28 29.3567L297.441 73.7008H273.18L281.159 37.5027C281.36 36.503 281.536 35.4027 281.536 34.4785C281.536 30.0306 277.628 28.4132 273.719 28.4132C268.462 28.4132 264.823 31.1089 262.262 33.4002L253.366 73.7008H229.105L243.527 8.59984H267.788L266.036 16.013L267.296 14.882C271.815 10.9151 277.54 6.98242 286.523 6.98242ZM24.2612 8.59984L24.9352 44.4525L44.3441 8.59984H66.0445L69.4141 44.4525L85.9926 8.59984H111.736L78.4446 73.7008H52.0269L49.3312 37.309L30.8657 73.7008H4.44789L0 8.59984H24.2612Z" fill="#B81328"/>
</svg>
