<svg width="94" height="20" viewBox="0 0 94 20" fill="none" xmlns="http://www.w3.org/2000/svg">
<g clip-path="url(#clip0_3303_26259)">
<path d="M15.3778 17.0976L9.16101 0.938654C9.04222 0.660195 8.84405 0.422761 8.59121 0.255869C8.33838 0.0889787 8.04196 0 7.7389 0C7.43579 0 7.13943 0.0889787 6.88659 0.255869C6.6337 0.422761 6.43559 0.660195 6.3168 0.938654L0.100915 17.0976C0.030139 17.278 -0.00403452 17.4706 0.000378977 17.6643C0.00479248 17.8581 0.0477051 18.049 0.126624 18.226C0.205543 18.403 0.318896 18.5626 0.460098 18.6954C0.601299 18.8283 0.767536 18.9319 0.949149 19.0001C1.31664 19.1425 1.72554 19.1345 2.08721 18.978C2.44888 18.8214 2.73421 18.5288 2.88135 18.1636L3.95759 15.3658H11.5231L12.5993 18.1636C12.7463 18.529 13.0316 18.8218 13.3933 18.9783C13.7551 19.1349 14.1641 19.1428 14.5316 19.0001C14.7128 18.9315 14.8787 18.8277 15.0195 18.6947C15.1604 18.5617 15.2735 18.402 15.3521 18.2251C15.4309 18.0482 15.4736 17.8575 15.4781 17.664C15.4824 17.4704 15.4484 17.2779 15.3778 17.0976ZM4.92561 12.8574L7.7389 5.53289L10.557 12.8574H4.92561ZM32.1793 10.7427H23.2129V17.5076C23.2129 17.9211 23.0484 18.3176 22.7557 18.61C22.4628 18.9024 22.0657 19.0667 21.6517 19.0667C21.2377 19.0664 20.8408 18.902 20.548 18.6097C20.2553 18.3174 20.0908 17.921 20.0905 17.5076V1.59663C20.0908 1.18372 20.2549 0.787746 20.547 0.495502C20.8391 0.203259 21.2353 0.0385804 21.6488 0.0375591C22.0628 0.0375591 22.4599 0.201817 22.7528 0.494199C23.0455 0.78658 23.21 1.18314 23.21 1.59663V8.20144H32.1793V1.59663C32.1793 1.18314 32.3438 0.78658 32.6365 0.494199C32.9294 0.201817 33.3264 0.0375591 33.7405 0.0375591C34.1546 0.037559 34.5518 0.201786 34.8448 0.494141C35.1377 0.786497 35.3024 1.18305 35.3027 1.59663V17.5076C35.3024 17.9212 35.1377 18.3177 34.8448 18.6101C34.5518 18.9024 34.1546 19.0667 33.7405 19.0667C33.3264 19.0667 32.9294 18.9024 32.6365 18.61C32.3438 18.3176 32.1793 17.9211 32.1793 17.5076V10.7427ZM94 9.62058C94 15.4797 89.9966 19.0667 83.8828 19.0667H79.4873C79.0025 19.0667 78.5376 18.8744 78.1945 18.532C77.852 18.1897 77.6595 17.7254 77.6595 17.2413V1.8629C77.6595 1.37879 77.852 0.914511 78.1945 0.57219C78.5376 0.229871 79.0025 0.0375591 79.4873 0.0375591H83.8828C89.9966 0.0375591 94 3.73359 94 9.62058ZM83.8828 16.5206C88.3793 16.5206 90.7924 13.9466 90.7924 9.62058C90.7924 5.26757 88.3774 2.58358 83.8828 2.58358H80.7846V16.5206H83.8828Z" fill="black"/>
<path d="M55.556 1.56974C55.5264 1.91695 55.3675 2.24045 55.1106 2.47626C54.8537 2.71208 54.5176 2.84303 54.1686 2.84323H41.9117C41.7157 2.84761 41.5209 2.81109 41.3398 2.73601C41.1587 2.66093 40.9952 2.54894 40.86 2.4072C40.7247 2.26546 40.6205 2.09709 40.554 1.91286C40.4876 1.72862 40.4604 1.53257 40.4742 1.33723C40.5037 0.989271 40.6632 0.66512 40.9209 0.42905C41.1785 0.192984 41.5157 0.0622489 41.8653 0.0627732H54.1232C54.319 0.0589197 54.5134 0.0958666 54.6941 0.171257C54.8747 0.246646 55.0377 0.358822 55.1725 0.500624C55.3073 0.642426 55.411 0.810742 55.477 0.994821C55.5431 1.1789 55.5699 1.37471 55.556 1.56974ZM41.9117 10.8826H49.2144C49.5635 10.8822 49.8997 10.751 50.1565 10.5151C50.4134 10.2791 50.5723 9.95551 50.6018 9.60823C50.6152 9.4134 50.5879 9.21793 50.5217 9.03418C50.4554 8.8505 50.3517 8.68252 50.2169 8.54101C50.0822 8.39949 49.9194 8.28746 49.739 8.21207C49.5587 8.13674 49.3646 8.09959 49.1691 8.10313H41.8653C41.5158 8.10262 41.1788 8.23319 40.9211 8.46909C40.6635 8.70493 40.5039 9.02884 40.4742 9.37664C40.4605 9.57198 40.4879 9.76796 40.5543 9.9521C40.6208 10.1363 40.725 10.3046 40.8603 10.4463C40.9956 10.588 41.1589 10.7 41.34 10.7751C41.521 10.8503 41.7157 10.8869 41.9117 10.8826ZM51.0182 16.3104H41.8653C41.5157 16.3099 41.1785 16.4407 40.9209 16.6767C40.6632 16.9128 40.5037 17.237 40.4742 17.5849C40.4605 17.78 40.4876 17.9757 40.5538 18.1597C40.6199 18.3437 40.7237 18.512 40.8586 18.6537C40.9935 18.7955 41.1564 18.9077 41.3371 18.9831C41.5177 19.0585 41.7121 19.0956 41.9079 19.0919H51.0607C51.4107 19.0929 51.7483 18.9624 52.0064 18.7262C52.2645 18.4901 52.4242 18.1657 52.4538 17.8174C52.4676 17.6222 52.4404 17.4263 52.3741 17.2421C52.3078 17.058 52.2038 16.8896 52.0687 16.7478C51.9336 16.6061 51.7705 16.4939 51.5896 16.4187C51.4087 16.3433 51.2141 16.3065 51.0182 16.3104Z" fill="#009FDC"/>
<path d="M72.9304 17.0976L66.7141 0.938654C66.5957 0.660195 66.3974 0.422761 66.1443 0.255869C65.892 0.0889787 65.5952 0 65.2919 0C64.9893 0 64.6925 0.0889787 64.4401 0.255869C64.187 0.422761 63.9889 0.660195 63.8701 0.938654L57.6532 17.0976C57.5826 17.278 57.5486 17.4707 57.5531 17.6645C57.5577 17.8582 57.6007 18.0491 57.6797 18.2261C57.7587 18.403 57.8722 18.5626 58.0133 18.6954C58.1546 18.8283 58.3208 18.9319 58.5025 19.0001C58.8699 19.1428 59.2789 19.1349 59.6407 18.9783C60.0024 18.8218 60.2877 18.529 60.4347 18.1636L61.5109 15.3658H69.0719L70.1477 18.1636C70.2952 18.5288 70.5804 18.8214 70.9422 18.978C71.3034 19.1345 71.7122 19.1425 72.0799 19.0001C72.2614 18.932 72.4282 18.8285 72.5692 18.6957C72.7108 18.5628 72.8241 18.4033 72.9033 18.2263C72.9825 18.0493 73.0257 17.8584 73.0302 17.6646C73.0347 17.4709 73.0006 17.2781 72.9304 17.0976ZM62.4741 12.8526L65.2919 5.52806L68.1055 12.8574L62.4741 12.8526Z" fill="black"/>
</g>
<defs>
<clipPath id="clip0_3303_26259">
<rect width="94" height="19.3151" fill="white"/>
</clipPath>
</defs>
</svg>
