<svg width="385" height="96" viewBox="0 0 385 96" fill="none" xmlns="http://www.w3.org/2000/svg">
<g clip-path="url(#clip0_316_1780)">
<path d="M35.0825 50.5398H21.9374L28.9385 27.6971L35.0825 50.5398ZM15.1193 75.7129L19.6069 60.6706H37.3167L41.5154 75.6743H57.8866L41.6213 18.4715C40.6583 15.0913 38.636 13.5312 35.0825 13.5312H11.8643V18.9337H13.7903C16.2171 18.9337 17.5268 19.8968 17.5268 21.7361C17.5268 22.9591 17.2572 23.9799 16.2941 26.763L0 75.7129H15.1193Z" fill="#003781"/>
<path d="M76.8291 75.7129V18.2982C76.8291 15.3032 75.0764 13.5312 72.1778 13.5312H57.7808V18.9337H58.7438C61.1609 18.9337 62.1914 19.9642 62.1914 22.4102V75.7129H76.8291Z" fill="#003781"/>
<path d="M101.713 75.7129V18.2982C101.713 15.3032 99.9319 13.5312 97.0525 13.5312H82.7036V18.9337H83.6666C86.0934 18.9337 87.1238 19.9642 87.1238 22.4102V75.7129H101.713Z" fill="#003781"/>
<path d="M127.243 19.204C127.243 15.0341 124.151 12.4629 118.855 12.4629C113.558 12.4629 110.448 14.986 110.448 19.204C110.448 23.422 113.635 25.945 118.855 25.945C124.074 25.945 127.243 23.4412 127.243 19.204ZM126.963 75.7134V33.861C126.963 30.8757 125.192 29.1133 122.293 29.1133H108.127V34.4099H108.965C111.382 34.4099 112.412 35.527 112.412 37.9538V75.7134H126.963Z" fill="#003781"/>
<path d="M159.012 53.3333V62.3952C156.576 64.9087 153.61 66.4495 151.096 66.4495C148.583 66.4495 147.552 65.1591 147.552 61.6344C147.552 58.1098 148.284 56.6172 150.904 55.606C153.512 54.5442 156.232 53.7818 159.012 53.3333ZM139.328 42.4513C143.802 40.232 148.696 38.9911 153.687 38.8111C157.616 38.8111 159.012 40.2074 159.012 44.281V45.321C153.051 46.284 151.183 46.65 147.822 47.3915C145.94 47.8062 144.097 48.3829 142.314 49.1153C136.43 51.4747 133.646 56.0201 133.646 63.0019C133.646 71.8616 137.499 76.1374 145.386 76.1374C148.068 76.1484 150.729 75.6483 153.224 74.664C155.488 73.6336 157.593 72.2845 159.474 70.6579V71.3127C159.474 74.2017 160.957 75.6751 163.856 75.6751H177.194V70.6964H176.539C174.026 70.6964 173.101 69.5696 173.101 66.5939V44.3965C173.101 32.5611 168.989 28.4395 157.134 28.4395C153.376 28.4582 149.632 28.9008 145.973 29.7588C142.516 30.5297 139.186 31.7878 136.083 33.4953L139.328 42.4513Z" fill="#003781"/>
<path d="M198.428 75.7133V44.2036C200.865 41.4976 203.369 40.2745 206.258 40.2745C209.349 40.2745 210.11 41.4976 210.11 46.1874V75.7133H224.651V44.0303C224.651 36.6536 224.121 34.3231 221.762 31.8193C219.836 29.6525 216.822 28.5547 212.979 28.5547C207.288 28.5547 203.282 30.317 197.899 35.3535V33.4949C197.899 30.6059 196.387 29.1132 193.411 29.1132H179.592V34.4098H180.43C182.847 34.4098 183.887 35.5269 183.887 37.9537V75.7133H198.428Z" fill="#003781"/>
<path d="M267.784 65.9289H247.494L266.898 38.7239V29.0938H236.467C233.02 29.0938 231.431 30.6731 231.431 34.1303V42.6048H236.833V41.7766C236.833 39.6291 237.95 38.6083 240.271 38.6083H250.729L231.123 66.1215V75.7516H267.717L267.784 65.9289Z" fill="#003781"/>
<path d="M344.122 74.5294V21.843C344.122 17.6443 342.63 16.2287 338.556 16.2287H326.22V22.1512H326.961C329.773 22.1512 330.322 22.7868 330.322 26.1766V74.5294H344.122ZM350.208 74.5294H363.902V33.4955C363.902 29.3738 362.313 27.8907 358.298 27.8907H350.208V74.5294ZM324.275 74.5294V27.9293H316.156C312.141 27.9293 310.571 29.4123 310.571 33.534V74.5294H324.275ZM376.865 47.748C376.865 70.9662 360.166 87.8478 337.237 87.8478C314.307 87.8478 297.57 70.9662 297.57 47.748C297.57 24.5298 314.298 7.64826 337.237 7.64826C360.176 7.64826 376.865 24.6261 376.865 47.748ZM384.973 47.748C384.973 20.4467 364.548 0.00195312 337.237 0.00195312C309.926 0.00195312 289.481 20.4467 289.481 47.748C289.481 75.0494 309.906 95.4845 337.237 95.4845C364.567 95.4845 384.973 75.1168 384.973 47.748Z" fill="#003781"/>
</g>
<defs>
<clipPath id="clip0_316_1780">
<rect width="384.973" height="95.4858" fill="white"/>
</clipPath>
</defs>
</svg>
