<svg width="503" height="101" viewBox="0 0 503 101" fill="none" xmlns="http://www.w3.org/2000/svg">
<g clip-path="url(#clip0_316_1799)">
<path d="M155.789 65.5907C157.001 68.3381 158.031 69.5501 160.172 71.1864V71.6712H147.83C148.254 69.5501 147.83 66.9846 146.618 63.9949L143.385 55.8944H129.75L126.457 64.0151C125.306 67.126 124.882 69.6713 125.245 71.6914H116.539V71.2066C118.781 69.5097 119.953 68.3381 121.104 65.6109L133.447 35.1279C134.234 32.9462 134.234 31.108 133.325 29.5929V29.0879H140.8L155.789 65.5907ZM131.447 51.6724H141.668L136.558 38.9459L131.447 51.6724Z" fill="#102A54"/>
<path d="M206.998 63.6515C207.099 68.9845 207.139 69.4895 208.473 71.2066V71.6914H197.463C198.736 69.3885 198.897 67.7926 198.897 64.6413V36.4612L184.656 71.9944H183.201L168.717 36.5218V64.6413C168.717 68.035 169.546 70.0753 170.374 71.6914H162.213V71.2066C163.829 69.8531 163.849 67.53 163.849 63.6515L163.768 34.5017C163.768 31.7948 162.9 30.4211 161.688 29.5727V29.0879H174.192L185.686 57.5104L197.382 29.0879H208.21V29.5727C207.24 30.4211 206.634 31.5726 206.634 32.8654L206.998 63.6515Z" fill="#102A54"/>
<path d="M243.783 63.1671L240.976 72.0555C240.006 71.8131 239.218 71.6919 238.612 71.6919H213.906V71.2071C214.816 70.3586 215.3 69.2678 215.3 67.9143V32.8659C215.3 31.5327 214.816 30.4418 213.906 29.5732V29.0884H235.441C237.077 29.0884 238.188 28.9066 238.794 28.543H239.036V37.4313H238.794C237.582 34.4416 236.188 33.472 232.713 33.472H223.098V45.3298H232.835C233.744 45.3298 234.41 45.0874 234.956 44.542H235.198V50.9255H234.956C233.804 50.1376 232.592 49.7134 231.299 49.7134H223.078V67.0659H235.117C238.592 67.0659 241.319 65.672 243.339 62.9247L243.783 63.1671Z" fill="#102A54"/>
<path d="M324.324 36.2594C321.274 33.9565 318.001 32.7849 314.527 32.7849C310.204 32.7849 307.779 35.0877 307.779 38.0169C307.779 39.8349 308.931 41.4914 311.254 42.9459C311.921 43.3701 313.496 44.2791 316.001 45.572C319.476 47.3294 321.536 48.6829 323.92 50.9252C326.344 53.1069 327.516 55.9148 327.516 59.3287C327.516 63.0457 326.243 66.1364 323.617 68.7625C321.011 71.3886 317.536 72.6612 313.153 72.6612C308.83 72.6612 304.628 71.631 300.548 69.5503L298.729 60.8438H299.154C300.548 62.7224 302.446 64.3789 304.81 65.6516C307.173 66.9242 309.618 67.5908 311.981 67.5908C316.607 67.5908 319.395 64.7829 319.395 60.9044C319.395 58.9651 318.365 57.1268 317.456 55.9754C317.031 55.43 316.244 54.7633 315.153 54.0967C314.122 53.3695 313.335 52.8847 312.789 52.5816C312.304 52.2786 311.395 51.7938 310.103 51.1272C308.466 50.2788 307.173 49.6121 306.264 49.0667C305.416 48.5213 304.446 47.7335 303.335 46.8244C301.154 44.9457 300.224 42.6832 300.224 39.5925C300.224 36.0574 301.497 33.2697 304.062 31.2496C306.628 29.1891 309.901 28.1387 313.981 28.1387C315.557 28.1387 317.274 28.3205 319.152 28.6235C321.031 28.9265 322.506 29.2901 323.415 29.5931L324.324 36.2594Z" fill="#102A54"/>
<path d="M375.695 50.7635C377.816 52.7634 378.927 55.3895 378.927 58.7428C378.927 62.5204 377.472 65.7323 374.482 68.3584C371.553 70.9643 367.129 72.2572 361.15 72.2572C358.221 72.2572 353.595 72.0148 347.272 71.5299V71.0451C348.181 70.1967 348.666 69.1058 348.666 67.7524V32.704C348.666 31.3707 348.181 30.2799 347.272 29.4113V28.9264C353.11 28.4416 357.312 28.1992 359.857 28.1992C369.836 28.1992 374.402 32.2798 374.402 38.3602C374.402 42.259 372.402 45.4709 369.17 47.188C371.372 47.592 373.573 48.7636 375.695 50.7635ZM359.15 32.3808C358.665 32.3808 357.756 32.4414 356.342 32.502V46.3193H357.433C361.392 46.3193 364.059 45.7133 365.412 44.4407C366.746 43.168 367.412 41.4509 367.412 39.3299C367.412 34.6433 364.927 32.3808 359.15 32.3808ZM370.705 59.0458C370.705 52.9654 367.17 49.9151 360.18 49.9151C358.847 49.9151 357.554 49.9757 356.342 50.1575V67.2474C358.281 67.4292 359.877 67.5504 361.029 67.5504C367.473 67.5504 370.705 64.7021 370.705 59.0458Z" fill="#102A54"/>
<path d="M466.518 28.9264H477.285C476.254 30.3203 475.709 32.704 475.709 35.9765V64.4597C475.709 67.7524 476.254 70.1159 477.285 71.5097H466.518V71.0249C467.427 70.1765 467.911 69.0856 467.911 67.7322V32.704C467.911 31.3707 467.427 30.2597 466.518 29.4113V28.9264ZM483.123 46.5011L497.182 65.4899C499.182 68.3584 501.081 70.2371 502.839 71.2067V71.5097C497.425 73.146 491.89 71.3279 488.9 66.2777L475.689 48.1374L488.031 34.4413C489.546 32.6838 489.85 30.9061 488.94 29.1487V28.9062H499.041L483.123 46.5011Z" fill="#102A54"/>
<path d="M417.046 65.4293C418.258 68.1766 419.308 69.3887 421.429 71.0249V71.5097H409.066C409.491 69.3685 409.066 66.8232 407.854 63.8334L404.622 55.7329H390.987L387.694 63.8334C386.543 66.9444 386.118 69.4897 386.482 71.5097H377.775V71.0249C380.038 69.3281 381.189 68.1564 382.341 65.4293L394.704 34.9261C395.492 32.7444 395.492 30.9061 394.582 29.3911V28.9062H402.077L417.046 65.4293ZM392.684 51.4907H402.905L397.794 38.7642L392.684 51.4907Z" fill="#102A54"/>
<path d="M462.397 28.9069V29.3917C461.488 30.2402 461.003 31.331 461.003 32.6845V71.8336H459.427L429.772 40.482V64.4805C429.772 67.7127 430.257 70.0762 431.287 71.5508H423.49V71.066C424.399 70.2176 424.884 69.1267 424.884 67.7733V34.3207C424.884 32.1794 423.793 30.1796 422.258 29.3917V28.9069H429.873L456.175 56.6022V35.957C456.175 32.6643 455.629 30.3008 454.599 28.8867H462.397V28.9069Z" fill="#102A54"/>
<path d="M277.761 67.6705C278.993 69.3269 280.448 70.539 282.165 71.2662V71.751C280.509 72.0541 279.115 72.2359 277.882 72.1753C273.66 72.1753 270.731 70.8824 269.196 68.3169L260.086 54.8026C259.176 53.2673 257.641 52.4795 255.621 52.4795H255.197V64.6404C255.197 67.9331 255.742 70.3168 256.793 71.7308H245.985V71.246C246.894 70.3976 247.399 69.2865 247.399 67.9533V32.7837C247.399 31.4302 246.915 30.3394 245.985 29.491V29.0061C250.753 28.8243 254.975 28.7031 258.692 28.7031C268.772 28.7031 273.6 31.814 273.6 39.3893C273.6 44.2173 270.913 47.9949 265.54 50.8836L277.761 67.6705ZM255.52 48.4797C259.5 48.4797 262.126 47.6919 263.52 46.0354C264.934 44.3789 265.661 42.2983 265.661 39.6722C265.661 34.9654 263.823 33.1877 258.449 33.1877C257.035 33.1877 255.944 33.1877 255.217 33.2483V48.4797H255.52Z" fill="#102A54"/>
<path d="M283.842 29.0684H294.386V29.5532C293.477 30.4016 292.993 31.5127 292.993 32.8459V67.9549C292.993 69.2882 293.477 70.3992 294.386 71.2476V71.7325H283.842V71.2476C284.751 70.3386 285.235 69.2276 285.235 67.9549V32.8459C285.235 31.5733 284.751 30.4622 283.842 29.5532V29.0684Z" fill="#102A54"/>
<path d="M42.9671 39.1089C42.9671 39.0887 42.9671 39.0887 42.9671 39.1089H42.9065H32.8061H31.9172C33.8969 41.2704 35.7958 43.7349 38.3411 43.7349C39.4117 43.7349 40.3814 43.3713 41.149 42.7652L44.6235 49.2699V40.8058C44.6235 39.8765 43.8761 39.1291 42.9671 39.1089Z" fill="#E20F38"/>
<path d="M58.4207 39.0879H58.3601C57.4308 39.1081 56.7036 39.8757 56.7036 40.805V49.2489L60.1781 42.724C60.9458 43.3099 61.9154 43.6735 62.9659 43.6735C65.5112 43.6735 67.3898 41.2292 69.3695 39.0879H68.5413H58.4207Z" fill="#E20F38"/>
<path d="M50.6636 0C22.8067 0 0.161621 22.6653 0.161621 50.502C0.161621 78.3387 22.8269 101.004 50.6636 101.004C78.5003 101.004 101.166 78.3387 101.166 50.502C101.166 22.6653 78.5003 0 50.6636 0ZM97.0043 44.3408C92.1359 37.9371 85.7524 32.7051 78.4801 29.2306C78.5609 28.7659 78.6013 28.2811 78.6013 27.8165C78.6013 26.5237 78.3185 25.2712 77.8135 24.1602C83.4697 25.7156 88.8028 28.3215 93.5499 31.8769C95.2468 35.7958 96.4185 39.9774 97.0043 44.3408ZM89.8532 25.0288C83.9748 21.7765 77.5105 19.7362 70.7836 19.0292V19.0494C70.4604 19.009 70.117 18.9888 69.7736 18.9888C67.0667 18.9888 64.5618 20.221 62.9053 22.2613L59.3096 19.2514C65.592 15.9586 72.5815 14.1204 79.7124 13.9184C83.6717 17.0495 87.0857 20.8068 89.8532 25.0288ZM74.8642 27.8165C74.8642 29.0892 74.3996 30.281 73.5713 31.19L65.794 24.6652C66.7435 23.4531 68.1979 22.7259 69.7736 22.7259C72.5815 22.7259 74.8642 25.0086 74.8642 27.8165ZM74.8642 10.5246C68.3191 11.3327 61.9761 13.4133 56.2391 16.6455L53.5726 14.4032L63.976 5.67643C67.8343 6.82787 71.4907 8.46414 74.8642 10.5246ZM50.6636 3.75735C53.6736 3.75735 56.6027 4.04016 59.4712 4.58558L50.6636 11.9589L41.8561 4.58558C44.7044 4.04016 47.6537 3.75735 50.6636 3.75735ZM37.3311 5.67643L47.7345 14.4032L45.068 16.6455C39.331 13.3931 32.9879 11.3327 26.4429 10.5246C29.8164 8.46414 33.4727 6.82787 37.3311 5.67643ZM21.5947 13.9184C28.7256 14.1204 35.715 15.9384 41.9975 19.2514L38.3209 22.3219C36.6645 20.2412 34.1596 18.9888 31.4123 18.9888C30.9476 18.9888 30.483 19.0292 30.0386 19.0898C23.4935 19.8372 17.1909 21.8775 11.4741 25.0288C14.2214 20.8068 17.6555 17.0495 21.5947 13.9184ZM30.9274 22.7461C31.0891 22.7259 31.2507 22.7259 31.4325 22.7259C33.0485 22.7259 34.5232 23.4733 35.4726 24.7258L27.6751 31.2506C26.8267 30.3214 26.3419 29.1094 26.3419 27.8165C26.3419 25.2308 28.2609 23.1097 30.7658 22.7865C30.8062 22.7663 30.8668 22.7663 30.9274 22.7461ZM7.77732 31.8769C12.4639 28.3417 17.7565 25.7358 23.3723 24.1804C22.8673 25.2914 22.5845 26.5035 22.5845 27.7963C22.5845 28.3013 22.6249 28.7861 22.7057 29.271C15.4738 32.7455 9.15098 37.9573 4.30279 44.3408C4.88861 39.9774 6.08046 35.7958 7.77732 31.8769ZM3.91897 51.7343C8.56516 43.5529 15.6758 36.8867 24.1198 32.7657C24.3218 33.0687 24.5642 33.3717 24.8066 33.6545L24.2814 34.099C23.2511 34.9676 22.2613 35.8564 21.3321 36.7857H21.3119L21.2513 36.8463C21.2311 36.8867 21.1907 36.9069 21.1705 36.9473C13.1709 44.866 8.08034 55.1886 6.64608 66.299C5.00981 61.7337 4.06038 56.8451 3.91897 51.7343ZM19.0494 84.9242C15.4738 81.6314 12.4033 77.7933 9.99941 73.5511C9.99941 73.2885 9.97921 73.0461 9.97921 72.7835C9.97921 63.3497 12.8073 54.2998 17.9585 46.6639C18.0999 48.3809 18.5646 50.0576 19.3322 51.5727C17.3525 57.0471 16.3627 62.7841 16.3627 68.6423C16.3627 74.1773 17.2717 79.6922 19.0494 84.9242ZM28.766 91.7925C27.4933 91.1258 26.2611 90.3784 25.0692 89.6108C21.7765 83.0657 20.0998 76.0156 20.0998 68.6423C20.0998 64.0769 20.7462 59.5924 22.0391 55.2694C22.7663 55.9562 23.5542 56.5825 24.443 57.0875C24.5238 57.1279 24.5844 57.1683 24.6652 57.2087C26.4429 58.2187 27.8771 59.653 28.8872 61.3498C27.2913 66.3394 26.4833 71.531 26.4833 76.8035C26.5035 81.9345 27.2509 86.9645 28.766 91.7925ZM67.7939 93.9943C62.4811 96.0952 56.7037 97.2467 50.6434 97.2467C44.5832 97.2467 38.8058 96.0952 33.4929 93.9943C31.3315 88.5199 30.2204 82.7425 30.2204 76.8035C30.2204 74.44 30.4022 72.0967 30.7456 69.7736C31.3719 72.8643 33.2909 75.5106 35.8766 77.1065C36.1191 84.9848 38.4017 91.8935 50.0374 91.8935H51.1888C62.8043 91.8935 65.087 85.005 65.3496 77.1267C67.9555 75.5308 69.8746 72.8845 70.521 69.7736C70.8644 72.0967 71.0462 74.44 71.0462 76.8035C71.0664 82.7425 69.9756 88.5199 67.7939 93.9943ZM39.735 78.5609C40.2198 78.6417 40.7248 78.7023 41.2299 78.7023C41.3309 78.7023 41.4319 78.7023 41.5329 78.7023C44.4216 78.7023 47.1285 77.6115 49.189 75.5914C49.7344 75.0662 50.2192 74.4804 50.6434 73.8541C51.0676 74.4804 51.5525 75.046 52.0979 75.5914C54.1584 77.6115 56.8855 78.7023 59.754 78.7023C59.855 78.7023 59.956 78.7023 60.057 78.7023C60.562 78.6821 61.0468 78.6417 61.5317 78.5609C61.067 84.9242 58.845 88.1361 51.2091 88.1361H50.0576C42.4217 88.1563 40.1996 84.9242 39.735 78.5609ZM67.0263 67.1071V67.5313C67.0263 71.531 63.875 74.8642 59.9964 74.9652C58.0167 75.0056 56.1583 74.2986 54.7442 72.9249C53.4917 71.6927 52.7241 70.0968 52.5827 68.3797C54.017 67.0263 55.4108 65.7738 56.7643 64.6628C54.8048 64.1174 52.7645 63.8143 50.6636 63.8143C48.5829 63.8143 46.5427 64.1174 44.5832 64.6628C45.9164 65.794 47.3305 67.0465 48.7648 68.3999C48.6233 70.1372 47.8557 71.7331 46.6033 72.9451C45.1892 74.3188 43.3307 75.046 41.3511 74.9854C37.4725 74.8844 34.3212 71.5512 34.3212 67.5515V67.1273H34.301C34.2606 61.7337 31.3517 56.7441 26.6853 54.0574C26.6449 54.0372 26.6045 54.017 26.5641 53.9766L26.5439 53.9563C26.5035 53.9361 26.4429 53.8957 26.4025 53.8755C23.5137 52.1585 21.7159 49.0274 21.7159 45.6538C21.7159 43.4115 22.5037 41.2298 23.9582 39.5128C24.847 38.6441 25.7762 37.7957 26.7459 36.9675L50.7242 16.8475L74.6218 36.9675C75.5308 37.7351 76.4197 38.5431 77.2681 39.3714C77.3085 39.4118 77.3287 39.432 77.3691 39.4724C78.8236 41.1894 79.6316 43.3711 79.6316 45.6336C79.6316 48.9869 77.8337 52.1383 74.945 53.8553C74.9046 53.8755 74.844 53.9159 74.8036 53.9361C74.7834 53.9361 74.7834 53.9563 74.7632 53.9563C74.7228 53.9765 74.6824 53.9967 74.642 54.0169C69.9756 56.7239 67.0667 61.7135 67.0263 67.1071ZM76.2176 89.631C75.0258 90.3986 73.8138 91.1258 72.5613 91.7925C74.0562 86.9645 74.8238 81.9345 74.8238 76.8035C74.8238 71.531 74.0158 66.3192 72.3997 61.3296C73.4097 59.653 74.844 58.2187 76.6217 57.2087C76.7025 57.1683 76.7833 57.1279 76.8439 57.0875C77.7125 56.5623 78.5205 55.9562 79.2478 55.2694C80.5406 59.5924 81.187 64.0769 81.187 68.6423C81.187 76.0358 79.5104 83.0859 76.2176 89.631ZM91.3279 73.5511C88.9038 77.8135 85.8332 81.6517 82.2375 84.9646C84.0152 79.7326 84.9444 74.1976 84.9444 68.6423C84.9444 62.7841 83.9546 57.0471 81.9749 51.5727C82.7425 50.0374 83.2071 48.3809 83.3485 46.6437C88.5199 54.2796 91.3481 63.3497 91.3481 72.7835C91.3279 73.0461 91.3279 73.2885 91.3279 73.5511ZM77.0459 34.099L76.4399 33.5939C76.6823 33.3111 76.9045 33.0283 77.1065 32.7253C85.5908 36.8463 92.7217 43.5327 97.3881 51.7343C97.2467 56.8249 96.2973 61.7337 94.661 66.299C93.0449 53.8149 86.8231 42.3207 77.0459 34.099Z" fill="#E20F38"/>
</g>
<defs>
<clipPath id="clip0_316_1799">
<rect width="503" height="101.004" fill="white"/>
</clipPath>
</defs>
</svg>
