<svg width="424" height="109" viewBox="0 0 424 109" fill="none" xmlns="http://www.w3.org/2000/svg">
<g clip-path="url(#clip0_316_1814)">
<path d="M65.5915 7.30859C37.6647 7.30859 15.0303 29.9477 15.0303 57.8698C15.0303 85.7919 37.6693 108.431 65.5915 108.431C93.5136 108.431 116.153 85.7919 116.153 57.8698C116.153 29.9477 93.5183 7.30859 65.5915 7.30859ZM65.5915 77.6076C54.6931 77.6076 45.8583 68.7728 45.8583 57.8745C45.8583 46.9761 54.6931 38.1413 65.5915 38.1413C76.4898 38.1413 85.3246 46.9761 85.3246 57.8745C85.3246 68.7728 76.4898 77.6076 65.5915 77.6076Z" fill="#FFA438"/>
<path d="M212.048 21.7575C211.29 21.21 210.027 21.5703 209.488 22.291L202.802 37.1294L196.573 22.5203C195.665 21.0884 193.747 21.1117 193.148 22.7729L187.72 42.3751H191.267L195.258 28.0279C197.818 33.7696 198.773 37.3961 200.972 41.2286C201.824 42.7167 203.48 43.0161 204.669 41.4906C206.779 37.4757 208.726 31.9587 210.859 28.0326L214.383 42.3751H218.225C217.111 38.5754 213.648 22.904 212.048 21.7528V21.7575Z" fill="#FFA438"/>
<path d="M369.511 30.513C366.469 30.1012 359.445 31.1868 357.18 30.2182C354.588 29.1138 355.973 25.2346 357.616 25.2346H373.221V21.7344H356.914C356.6 21.7344 354.799 22.1976 353.811 23.185C351.883 25.1129 351.565 28.9922 353.072 31.1681C355.444 34.5841 363.638 32.9135 367.447 33.2692C372.721 33.7605 371.036 38.8798 368.135 38.8798H352.178V42.38H369.188C370.835 42.38 373.142 40.41 373.741 38.8751C375.173 35.2064 373.699 31.0792 369.506 30.513H369.511Z" fill="#FFA438"/>
<path d="M161.889 31.2395C159.185 29.6578 152.062 30.8183 148.6 30.5048C144.192 30.107 145.577 25.2404 147.916 25.2404H163.171V21.7402H147.935C146.611 21.7402 145.343 22.2035 144.271 22.9803C144.271 22.9803 144.267 22.985 144.262 22.9896C141.061 25.2592 141.454 30.575 144.819 32.5357C147.523 34.1126 154.337 32.9568 157.757 33.2703C162.544 33.7102 161.061 38.8856 158.44 38.8856H142.484V42.3859H159.142C160.532 42.3859 161.651 41.4734 162.1 41.1411C164.95 39.0541 165.029 33.0785 161.894 31.2441L161.889 31.2395Z" fill="#FFA438"/>
<path d="M332.81 21.8286C320.835 23.4477 321.766 41.2342 333.423 42.3807C340.451 43.0732 348.397 41.8098 349.337 33.4242C350.517 22.9236 341.35 20.6728 332.81 21.8286ZM345.842 32.713C345.351 38.726 339.309 39.3203 334.48 38.8804C325.603 38.0709 325.94 26.4145 333.512 25.3288C339.033 24.538 346.432 25.4879 345.842 32.713Z" fill="#FFA438"/>
<path d="M245.927 36.4329L230.826 21.9267C229.759 20.8598 228.042 20.9674 228.042 22.6099V42.3804H231.552L231.201 27.6824C235.932 31.2949 241.383 38.1502 246.1 42.0295C247.26 43.1338 249.432 42.3524 249.432 40.8035V21.7301H245.927V36.4282V36.4329Z" fill="#FFA438"/>
<path d="M271.177 35.5582C271.177 36.6064 270.316 37.1071 270.129 37.313C268.037 39.6059 260.967 39.6059 258.43 38.1319C257.424 37.5469 256.1 36.8263 256.1 34.51V21.7351H252.595V35.0154C252.595 35.8857 252.736 36.7514 253.054 37.5563C253.447 38.539 253.924 39.0724 254.256 39.4936C257.626 43.7472 269.184 43.3307 273.021 39.4936C273.863 38.6513 274.584 37.5984 274.687 35.9044V21.7305H271.182V35.5535L271.177 35.5582Z" fill="#FFA438"/>
<path d="M167.373 42.38H185.609V38.8845H170.883V25.2346H185.609V21.7344H167.373V42.38Z" fill="#FFA438"/>
<path d="M278.191 42.38H296.427V38.8845H281.383V38.3323V25.7868V25.2346H296.427V21.7344H278.191V42.38Z" fill="#FFA438"/>
<path d="M320.952 21.7402L312.201 37.4864L302.665 21.815L298.177 21.9133C302.553 28.4364 305.636 35.4603 310.414 41.6371C310.676 41.9787 311.004 42.2782 311.397 42.4607C312.038 42.7602 312.609 42.6853 313.179 41.9085L325.178 21.7402C325.178 21.6934 320.952 21.6934 320.952 21.7402Z" fill="#FFA438"/>
<path d="M224.182 21.7344H220.677V42.38H224.182V21.7344Z" fill="#FFA438"/>
<path d="M295.725 30.4844H284.153V33.2827H295.725V30.4844Z" fill="#FFA438"/>
<path d="M184.907 30.4844H173.686V33.2827H184.907V30.4844Z" fill="#FFA438"/>
<path d="M93.2796 20.9974C92.0676 22.6211 90.4298 23.8799 89.0681 25.3633C88.6563 25.8125 88.5955 26.4583 88.2632 26.8373C87.2759 27.9557 85.3573 28.7559 84.8613 30.623L85.5866 30.9692C80.2193 38.475 75.2685 46.5424 72.1473 55.3678C71.436 57.3846 70.8043 59.4529 70.2381 61.5118C69.9105 62.7004 68.6986 69.3733 68.357 69.6072C68.0154 69.8412 67.1684 69.5885 66.7847 69.3078C66.0313 68.7649 63.8928 65.2413 62.6106 64.0294C56.9626 58.6948 47.1498 55.9386 39.644 54.4038C26.5416 51.7178 13.0555 52.6771 0.00927734 49.6869L4.02422 48.9757C16.2141 48.7323 28.4321 49.3079 40.3366 51.9611C49.6486 54.0341 59.555 57.5016 66.1062 64.7313C67.2479 62.1155 67.6925 59.1768 68.6424 56.4206C71.8385 47.1413 78.0293 37.2397 84.3372 29.7385C86.4336 27.2491 89.5922 23.7629 92.0582 21.6946C92.4513 21.3624 92.6291 20.8476 93.2843 20.9974H93.2796Z" fill="#777777"/>
<path d="M51.8994 92.3771C53.57 90.8048 55.9939 89.794 58.1184 88.9611C67.393 85.3252 76.5693 84.5577 86.1856 87.3888C87.449 87.7631 92.2454 89.9437 92.9567 89.4337C93.5089 87.2718 93.3591 84.7262 93.6773 82.452C95.2496 71.3196 100.196 58.6197 109.761 52.1387C109.33 55.8822 106.204 58.4933 104.22 61.4788C98.82 69.5929 95.1841 78.774 95.7456 88.7037C95.8158 89.925 97.0652 92.2694 95.7363 92.9105C94.1967 93.6545 90.9586 91.5722 89.2553 90.9779C79.4565 87.576 70.4533 86.6682 60.3177 89.4103C57.4305 90.1918 54.7726 91.5815 51.8994 92.3817V92.3771Z" fill="#777777"/>
<path d="M125.188 0L109.507 9.71917L97.4906 18.8955C97.3315 18.2076 97.8463 18.0673 98.2206 17.7023C99.4185 16.5511 102.914 12.4987 103.462 12.087C104.009 11.6752 105.235 11.5956 106.021 11.1417C107.795 10.1216 109.755 8.12816 111.608 6.91619C115.848 4.14597 120.448 1.80626 125.188 0Z" fill="#777777"/>
<path d="M423.97 99.1335H412.22L399.946 85.4836H381.888V78.1369H404.859C405.126 78.1369 407.77 76.8266 408.167 76.5412C412.552 73.3358 412.496 64.1688 408.2 60.809C407.096 59.9433 404.438 58.8904 403.109 58.8904H375.58V99.1335H367.162V50.8418H405.561C411.069 50.8418 416.881 56.3401 418.523 61.3565C421.41 70.1819 418.701 80.8229 409.599 84.6132L423.97 99.1335Z" fill="#777777"/>
<path d="M244.771 85.4877V50.495H252.838V94.7623C252.838 95.1601 252.235 97.2939 251.987 97.7618C250.835 99.9799 247.527 100.293 245.707 98.7305L210.405 63.7939V99.1376H202.338V54.5193C202.338 54.3087 202.918 52.4229 203.082 52.1141C204.163 50.0411 207.298 49.5497 209.179 50.8459L243.718 84.9683L244.771 85.4924V85.4877Z" fill="#777777"/>
<path d="M198.482 99.1329H188.314L181.126 86.8868H158.506L162.011 80.2374H177.088L166.597 62.259L165.871 62.0391L143.948 99.1329H134.655L163.115 51.7724C164.542 49.8819 167.205 49.6012 169.147 50.8927L198.477 99.1329H198.482Z" fill="#777777"/>
<path d="M362.95 50.8418L337.349 80.762V99.1335H328.935V80.762L303.685 50.8418H314.733L333.357 72.8725L352.604 50.8418H362.95Z" fill="#777777"/>
<path d="M301.93 50.8418V58.8904H283.699V99.1335H275.281V58.8904H256.694V50.8418H301.93Z" fill="#777777"/>
</g>
<defs>
<clipPath id="clip0_316_1814">
<rect width="423.97" height="108.432" fill="white"/>
</clipPath>
</defs>
</svg>
