<svg width="384" height="89" viewBox="0 0 384 89" fill="none" xmlns="http://www.w3.org/2000/svg">
<path d="M382.286 31.8178C378.248 32.1121 369.024 33.2514 366.386 33.633C363.808 19.417 356.66 9.30549 346.23 6.92345C324.983 2.05577 303.544 30.5859 288.885 83.2036L299.834 86.2396C313.918 35.6826 332.368 15.3887 343.696 17.9779C348.876 19.1607 353.356 25.631 355.192 35.6879C328.113 41.891 322.481 53.6867 323.114 63.3186C323.626 71.195 327.841 77.6873 334.669 81.1268C341.564 84.5989 349.968 84.3154 356.07 80.4125C363.742 75.5015 364.915 68.3444 365.687 63.6074C365.687 63.6074 367.183 52.7548 367.304 48.3285C363.036 48.9553 359.109 49.7405 355.863 50.6124C355.671 53.6431 354.476 61.7813 354.476 61.7813C353.754 66.1912 353.187 68.7914 349.936 70.8735C347.237 72.6014 343.063 72.6615 339.789 71.0099C337.531 69.8706 334.767 67.4886 334.452 62.5826C334.02 55.9489 341.706 50.5635 356.07 47.0803C356.12 47.075 356.153 47.053 356.201 47.0422C366.61 44.6655 383.378 43.0957 383.378 43.0957L382.286 31.8178Z" fill="black"/>
<path fill-rule="evenodd" clip-rule="evenodd" d="M229.254 44.5129C229.254 31.5779 239.761 21.0957 252.727 21.0957C265.691 21.0957 276.198 31.5779 276.198 44.5129C276.198 57.4479 265.691 67.93 252.727 67.93C239.761 67.93 229.254 57.4479 229.254 44.5129ZM239.389 44.513C239.389 51.8607 245.361 57.8185 252.727 57.8185C260.092 57.8185 266.062 51.8607 266.062 44.513C266.062 37.165 260.092 31.2072 252.727 31.2072C245.361 31.2072 239.389 37.165 239.389 44.513Z" fill="black"/>
<path d="M122.871 0H111.638V66.3048H122.871V0Z" fill="black"/>
<path fill-rule="evenodd" clip-rule="evenodd" d="M34.7595 24.0446V21.8697H45.9927V67.134H34.7595V64.9591C31.4158 66.8288 27.5858 67.93 23.4718 67.93C10.5066 67.93 0 57.4479 0 44.5129C0 31.5779 10.5066 21.0957 23.4718 21.0957C27.5805 21.0957 31.4049 22.1968 34.7595 24.0446ZM10.1406 44.513C10.1406 51.8607 16.1124 57.8185 23.4773 57.8185C30.8423 57.8185 36.814 51.8607 36.814 44.513C36.814 37.165 30.8423 31.2072 23.4773 31.2072C16.1124 31.2072 10.1406 37.165 10.1406 44.513Z" fill="black"/>
<path fill-rule="evenodd" clip-rule="evenodd" d="M68.0985 24.0446C71.453 22.1968 75.283 21.0957 79.3861 21.0957C92.3458 21.0957 102.858 31.5668 102.858 44.5021C102.858 57.4371 92.3514 67.9189 79.3861 67.9189C75.2666 67.9189 71.4422 66.818 68.0985 64.9483V88.2781H56.8652V21.8697H68.0985V24.0446ZM66.0495 44.513C66.0495 51.8607 72.0213 57.8185 79.3862 57.8185C86.7511 57.8185 92.723 51.8607 92.723 44.513C92.723 37.165 86.7511 31.2072 79.3862 31.2072C72.0213 31.2072 66.0495 37.165 66.0495 44.513Z" fill="black"/>
<path d="M226.67 21.7441H185.638V31.1197H209.334L184.764 67.2375H225.599V57.8455H202.111L226.67 21.7441Z" fill="black"/>
<path fill-rule="evenodd" clip-rule="evenodd" d="M166.493 24.0446V21.8697H177.727V67.134H166.493V64.9591C163.15 66.8288 159.32 67.93 155.205 67.93C142.24 67.93 131.734 57.4479 131.734 44.5129C131.734 31.5779 142.24 21.0957 155.205 21.0957C159.314 21.0957 163.139 22.1968 166.493 24.0446ZM141.869 44.513C141.869 51.8607 147.841 57.8185 155.205 57.8185C162.571 57.8185 168.542 51.8607 168.542 44.513C168.542 37.165 162.571 31.2072 155.205 31.2072C147.841 31.2072 141.869 37.165 141.869 44.513Z" fill="black"/>
</svg>
