<svg width="346" height="93" viewBox="0 0 346 93" fill="none" xmlns="http://www.w3.org/2000/svg">
<g clip-path="url(#clip0_316_1834)">
<path d="M82.792 91.3433H64.4335L43.879 40.5601L43.9122 40.1192L51.8562 34.9036C48.454 34.7289 45.0269 34.7289 41.6829 35.5025L35.7354 20.5961L44.4363 0.457507L44.8772 0L82.792 91.3433Z" fill="#469183"/>
<path d="M322.85 82.3674C317.992 86.9092 311.82 90.8354 305.157 87.1837C298.169 83.3572 298.985 74.9807 300.756 68.3593C303.793 57.0132 312.918 45.4424 322.584 38.9209C324.796 37.4236 327.026 35.9512 329.621 37.7979C331.675 39.2619 330.968 40.6011 329.637 42.1816C326.859 45.4757 322.767 48.4869 319.755 51.8475C313.991 58.2859 301.63 75.8209 309.075 84.0643C310.472 85.6032 311.395 85.545 313.267 84.8545C315.688 83.9645 319.913 80.5373 321.444 78.4744C321.901 77.8588 322.367 77.3514 322.209 76.5362C322.06 75.7626 320.205 73.4834 319.522 73.0259C317.817 71.8946 315.355 72.1442 313.683 71.0711C313.325 69.8899 316.22 69.0581 317.052 68.8917C319.173 68.4592 321.377 68.4508 323.449 69.0997C324.364 69.3825 326.443 70.755 326.976 70.755C327.633 70.755 328.98 68.2346 329.338 67.6107C332.399 62.1539 337.615 51.3151 333.514 45.484C332.807 44.4775 329.255 41.8489 332.324 41.4829C336.076 41.0337 338.355 44.3028 339.27 47.5137C342.123 57.479 336.425 67.644 330.311 75.0888C331.318 77.8256 331.085 80.8035 331.434 83.665C331.576 84.8379 331.725 86.5182 332.091 87.5996C332.682 89.388 334.504 90.6274 335.627 92.0416C335.477 92.8068 332.449 91.9002 331.933 91.7504C327.699 90.4944 323.366 87.0007 322.858 82.3757L322.85 82.3674ZM302.894 76.1869L304.891 67.0118L303.743 69.5489C303.327 71.1709 302.828 73.0176 302.703 74.6896C302.678 75.0057 302.528 76.0455 302.894 76.1786V76.1869ZM301.097 76.7858L302.495 68.4092L301.755 70.1644C301.33 71.7782 301.147 73.4418 300.889 75.0888L301.097 76.7941V76.7858Z" fill="#469183"/>
<path d="M131.978 91.3436C126.605 90.8445 123.327 86.8767 120.108 83.0586C116.107 78.3171 112.613 73.1515 108.637 68.3934L103.63 68.2104C103.097 68.1938 102.623 68.0108 102.049 67.9941C101.076 67.9692 99.0962 67.8444 98.2477 68.0024C98.0231 68.044 97.8401 68.069 97.7736 68.3268C97.8984 73.1182 97.5074 78.0925 97.7403 82.8673C97.8152 84.3895 97.9732 87.3841 98.7801 88.6069C99.9946 90.4619 103.022 89.863 104.919 90.3454L104.844 91.144C104.021 91.7512 103.23 91.3187 102.448 91.3187C97.8152 91.3187 93.2817 91.2937 88.665 91.3187C88.299 91.3187 84.9717 91.8344 85.8701 90.5201C86.2943 89.8962 88.7898 90.4785 89.7797 89.2391C91.0607 87.6336 90.886 82.3682 90.9775 80.2636C91.46 68.8925 91.4766 56.5398 90.9692 45.1687C90.8694 42.9311 91.5765 38.5723 88.7482 37.8153C87.7916 37.5574 85.5956 37.6573 84.9967 37.3744C84.0484 36.9336 84.8969 36.343 85.6788 36.2681C88.116 36.0352 90.6531 36.4844 93.0654 36.4927C102.448 36.526 117.638 33.8558 122.546 44.3202C126.197 52.1061 121.223 59.5178 115.833 64.8082C115.433 65.1992 114.435 65.5818 114.602 66.2057C118.777 71.205 122.645 76.5121 126.996 81.3616C130.057 84.7805 133.725 89.0311 138.433 89.8713C139.174 90.0044 141.312 90.0626 141.661 90.2373C141.861 90.3288 142.069 90.6116 142.069 90.8362L141.761 91.3353C138.608 91.119 135.09 91.6264 131.987 91.3353L131.978 91.3436ZM100.71 38.9466C97.6821 39.2045 97.4575 39.2876 97.5573 42.3737C97.5656 42.7564 97.757 43.139 97.7653 43.5632C97.8984 50.3926 97.6155 57.2469 97.7985 64.0762C97.9483 64.5836 99.013 64.8332 99.5121 64.9579C102.515 65.6899 108.097 66.0227 110.983 64.9663C117.338 62.6454 117.729 51.6071 115.616 46.2667C113.088 39.8699 107.04 38.3976 100.71 38.9466Z" fill="#469183"/>
<path d="M27.3173 52.0555C30.5448 47.6551 32.8323 42.3647 37.3076 39.0124C40.6599 36.5003 44.8773 35.1527 49.0614 35.7017C49.1778 36.2424 48.895 36.0428 48.6621 36.1925C44.1286 39.1788 39.3539 41.8157 35.0284 45.1097C32.092 47.3473 29.1972 50.0009 27.7083 53.4447C29.7962 52.9788 29.9542 50.6331 30.994 49.2522C31.9007 48.0544 34.9119 46.0414 36.2013 47.4472C37.9231 49.3271 34.1633 52.6045 32.1752 52.8291C30.1871 53.0537 30.4616 52.1803 28.407 53.8439C24.9216 56.6805 24.1148 61.6465 21.9187 65.4064C22.1433 65.631 22.9502 64.691 23.1082 64.508C28.2074 58.8266 31.1021 51.024 40.585 51.6396C40.8845 51.6562 41.7662 51.6812 41.8743 52.0472C39.2291 53.7108 36.8085 55.7155 34.2381 57.479C29.9708 60.4071 24.8052 62.861 21.6442 67.0284C21.1534 67.669 20.4963 68.4093 20.3299 69.1995C20.5379 69.4075 22.9086 67.669 23.2164 67.4028C25.113 65.7474 25.2793 63.934 28.0077 63.0107C31.6844 61.763 32.666 64.8823 29.896 66.8954C29.0475 67.5109 27.4837 68.0849 26.4189 68.01C24.8218 67.8936 24.9133 66.7373 23.0583 68.035C20.7209 69.6654 18.4167 72.3355 17.3353 74.9807C23.2247 72.7182 28.5068 68.3594 35.0201 67.827C39.7532 67.4444 46.9818 68.5673 51.5402 70.0147C51.7648 70.0813 52.0227 70.0813 52.056 70.389C50.0013 71.2375 47.9883 72.3189 45.8006 72.8097C36.4009 74.9392 29.4218 68.8252 19.548 75.2885C17.0608 76.9189 11.7454 82.6752 9.84886 85.1374C9.62426 85.4369 9.30817 85.728 9.35808 86.1356C10.1733 86.119 10.9885 86.1938 11.8037 86.0857C15.1227 85.6365 20.2052 79.7471 23.3495 77.6759C25.1961 76.4614 27.858 75.4383 30.0623 75.2137C30.3618 75.1804 30.5864 75.014 30.5115 75.4632C27.0927 79.1898 23.5158 83.7898 18.4999 85.3953C15.1393 86.4683 10.6557 86.2271 7.71105 87.375C5.74793 88.1403 3.61013 90.328 1.66364 91.1016C0.299442 91.6506 0.0332557 90.8105 0.00830078 89.5544C1.94647 88.523 5.08247 87.4499 6.45499 85.7197C7.82751 83.9895 8.0521 81.7352 8.34324 79.6307C8.79243 76.3699 8.8673 73.0426 9.3664 69.7818C10.3563 70.572 11.421 71.5536 12.7603 71.5786L7.56964 85.1374C7.91901 84.9378 8.3682 84.813 8.66766 84.5468C9.79063 83.5486 14.3407 78.2831 14.9563 77.0686C15.9628 75.0723 15.4887 72.9095 15.3473 70.78C13.0348 71.5037 10.2398 70.2144 9.11685 68.1265C6.2803 62.8693 15.1227 64.325 15.7216 68.7004C15.9795 70.5804 15.5802 72.8097 16.1375 74.7645C17.4851 73.1008 18.6829 70.5471 19.0739 68.4342C19.9889 63.5181 17.6182 59.3839 17.718 54.5177C17.7429 53.2617 18.3585 49.2273 19.0156 48.2374C19.1737 48.0045 19.2652 48.0045 19.4232 48.2374C19.6395 48.5618 20.0721 50.1256 20.2135 50.6331C20.9288 53.087 21.4779 56.1564 21.3115 58.7101C21.1118 61.6715 19.7144 64.5829 19.523 67.5858C20.3798 67.1033 20.7458 66.1717 21.1534 65.3315C22.2348 63.0856 23.5824 59.6834 24.0482 57.2628C24.3144 55.9235 24.8384 51.8059 24.3726 50.6913C24.2894 50.4833 22.5592 49.3604 22.11 48.7448C21.195 47.4804 20.2634 43.5875 22.4261 43.263C24.5889 42.9386 25.9947 46.2992 25.9115 48.1459C25.8616 49.2772 25.246 49.926 25.113 50.7495C24.8634 52.3217 25.0714 54.7756 24.9965 56.4226C27.2508 53.6193 26.8348 49.7596 27.3173 46.3741C28.3987 38.7795 30.4949 31.3263 38.4638 28.498C36.9749 31.6008 35.2363 34.6203 33.5144 37.6066C30.9025 42.1318 27.1593 46.5571 27.2924 52.0305L27.3173 52.0555Z" fill="#469183"/>
<path d="M168.978 90.3624L168.912 91.1526C168.77 91.3522 168.521 91.319 168.313 91.3439C164.961 91.7515 160.602 91.1193 157.116 91.1277C154.945 91.1277 152.342 91.6018 150.129 91.3439C149.43 91.2607 149.064 90.7616 149.788 90.379C150.512 89.9964 151.926 90.221 152.891 89.6886C155.178 88.4408 154.346 81.9276 154.845 79.6733L154.804 39.8037C154.588 39.1465 153.481 39.6706 152.949 39.6872C149.896 39.7787 146.802 39.5292 143.757 39.6706C141.711 39.7621 138.184 39.9118 136.678 41.3675C135.738 42.2742 135.364 44.1375 134.699 44.7697C134.133 45.3187 133.742 45.1274 133.675 44.3621C133.592 43.3806 134.823 38.0818 135.189 36.8756C135.314 36.4681 135.522 35.5614 135.888 35.37C136.287 35.1621 138.799 35.9689 139.581 36.0771C143.092 36.5512 146.66 36.2684 150.146 36.2684C158.88 36.2684 168.488 36.7925 177.105 36.285C178.395 36.2102 180.15 35.6778 181.298 35.6695C181.522 35.6695 181.755 35.6695 181.897 35.8691L181.63 45.2023C180.424 47.0406 180.449 44.0876 180.175 43.1726C179.418 40.6605 176.54 40.178 174.277 39.8952C170.842 39.4626 167.365 39.7871 163.921 39.6789C163.222 39.654 162.515 39.263 161.825 39.5625L161.667 39.8037L161.633 73.0936C162.216 77.3442 161.459 81.7696 162.066 86.0202C162.74 90.77 165.127 89.6054 169.003 90.354L168.978 90.3624Z" fill="#469183"/>
<path d="M252.785 46.0512L251.903 45.8765C251.271 43.0233 250.955 40.8855 248.152 39.4547C240.915 35.7697 227.805 38.598 231.158 49.0624C234.003 57.9463 253.118 61.5814 254.981 74.9157C257.194 90.7288 239.509 94.6633 227.464 91.2528C226.35 90.9367 224.087 90.3461 223.887 89.0485C223.704 87.8507 223.813 85.3718 223.871 84.0658C223.929 82.7598 224.054 80.5139 224.287 79.2911C224.436 78.5009 225.218 78.3678 225.435 79.1248C225.626 79.7819 225.576 81.038 225.726 81.8199C227.523 90.7704 243.61 91.9266 247.861 84.7063C254.208 73.9258 238.17 66.7138 231.856 60.9409C226.291 55.8418 222.69 48.9376 227.19 41.709C232.372 33.3741 245.141 34.5802 253.326 36.4934L252.794 46.0595L252.785 46.0512Z" fill="#469183"/>
<path d="M283.122 91.326C279.553 93.5637 276.276 88.7474 275.985 85.6363C275.619 81.8598 279.994 73.7661 281.841 70.1975C284.877 64.3414 288.379 58.7016 291.432 52.8539C292.937 49.9674 296.414 43.5623 296.689 40.5594C296.814 39.1786 296.314 38.014 296.614 36.6914C299.617 35.1026 302.162 38.4382 302.811 41.0751C303.701 44.7352 301.788 49.4184 300.349 52.7873C296.398 62.0456 290.591 70.4887 285.709 79.2395C284.519 81.369 281.425 86.2851 281.641 88.556C281.791 90.1199 283.122 89.9036 283.13 91.3177L283.122 91.326ZM297.72 41.6491L296.173 46.3573L296.506 46.4654L298.053 41.7572L297.72 41.6491ZM297.105 49.6596C297.729 47.9544 298.727 46.3323 298.901 44.4773L297.304 48.1623C297.296 48.4951 296.597 49.4683 297.105 49.6596ZM279.145 84.3636L280.144 80.9781L278.779 84.1057L279.145 84.3719V84.3636Z" fill="#469183"/>
<path d="M209.663 37.2572C206.56 37.5567 205.013 37.7314 204.714 41.1835C205.171 54.8255 204.098 68.8751 204.705 82.4756C204.764 83.7899 204.88 85.9693 205.163 87.2004C205.595 89.072 206.394 89.596 208.224 89.9204C208.981 90.0535 211.951 89.8788 211.884 90.8438C211.551 91.2846 211.102 91.3013 210.611 91.3512C208.29 91.5591 205.911 91.1432 203.624 91.1349C200.03 91.11 196.47 91.4261 192.885 91.3013L192.386 90.8438C192.311 89.9288 194.698 90.1034 195.497 89.804C196.911 89.2799 197.136 87.558 197.327 86.2438C197.585 84.4137 197.676 81.9515 197.735 80.0716C198.117 68.8335 198.209 55.7655 197.735 44.5524C197.693 43.4793 197.61 42.0403 197.502 40.9922C197.127 37.407 195.405 37.7147 192.386 37.2323L192.319 36.4005C192.436 36.259 193.234 36.1675 193.476 36.1592C197.893 36.0677 202.384 36.3589 206.818 36.2923C207.85 36.2757 208.831 35.7433 209.821 36.4753L209.663 37.2406V37.2572Z" fill="#469183"/>
<path d="M307.228 17.8019C309.691 17.4192 312.344 19.1161 312.644 21.6615C313.168 26.0786 309.799 31.1444 305.19 27.318C301.747 24.4648 302.969 18.459 307.228 17.8019Z" fill="#469183"/>
<path d="M342.007 87.5508L342.981 87.5757L343.904 90.5454L344.819 87.5757L346 87.5508V91.5436H345.202V88.7486L344.295 91.3439L343.604 91.5436L342.606 88.549V91.5436H342.007V87.5508Z" fill="#469183"/>
<path d="M14.7403 64.3173C14.5407 65.9393 14.0832 64.9079 13.2514 64.4088C13.0018 64.259 12.145 64.0178 12.145 63.9097C12.536 62.7368 13.5259 61.9715 14.3411 61.123L14.7403 61.3227C14.6571 62.2793 14.8485 63.3856 14.7403 64.3173Z" fill="#469183"/>
<path d="M341.408 87.5508V88.1497H340.21V91.5436H339.412V88.1497H338.214V87.5508H341.408Z" fill="#469183"/>
</g>
<defs>
<clipPath id="clip0_316_1834">
<rect width="346" height="92.3831" fill="white"/>
</clipPath>
</defs>
</svg>
