<svg width="305" height="80" viewBox="0 0 305 80" fill="none" xmlns="http://www.w3.org/2000/svg">
<g clip-path="url(#clip0_316_1724)">
<path d="M51.8952 61.5595H40.2227L34.14 44.2492L17.3345 44.2973L11.8288 61.5595H0L20.1714 2.31983C20.6283 2.0193 29.8845 2.03132 31.0145 2.17558C31.3271 2.21164 31.6516 2.16356 31.868 2.4761L51.8952 61.5595ZM20.472 34.1756H30.702C30.7621 34.1756 31.0265 34.6083 31.1347 34.4641C29.6441 29.2229 27.8289 23.9817 25.8094 18.9089L20.472 34.1756Z" fill="black"/>
<path d="M198.914 39.946V61.5599H187.674V3.05347L199.683 1.63499C211.007 1.2984 223.401 3.5824 225.661 16.8176C228.474 33.2984 213.387 41.4126 198.926 39.946H198.914ZM198.914 12.1294V29.4156L199.346 29.8484H205.982C206.595 29.8484 209.552 28.7424 210.25 28.3457C216.549 24.8356 216.044 14.185 208.723 12.1173C207.244 11.6966 199.358 10.7469 198.914 12.1173V12.1294Z" fill="black"/>
<path d="M158.198 16.9621C190.775 13.7525 190.102 65.0342 158.414 62.4136C132.629 60.2859 133.506 19.3903 158.198 16.9621ZM155.217 50.7652C158.246 53.3497 162.778 53.7104 166.024 51.2941C175.076 44.5624 170.856 22.7562 158.27 26.8313C149.651 29.6202 148.906 45.3798 155.217 50.7652Z" fill="black"/>
<path d="M261.76 61.5601H251.097L250.809 58.9636C239.978 67.21 222.752 60.4061 226.154 45.4038C228.474 35.21 240.543 32.1326 249.655 32.1567C248.753 22.9726 236.059 26.2784 231.347 30.4256L228.341 21.2416C231.419 19.5826 234.641 18.0319 238.103 17.3588C248.561 15.3032 258.502 18.657 260.522 30.089C262.325 40.2829 260.137 51.2821 261.76 61.5601ZM249.655 41.3768C246.133 41.0522 237.946 42.4346 237.273 46.7261C235.951 55.1769 246.157 54.2633 249.09 49.0222C250.436 46.6059 249.354 44.0575 249.655 41.3768Z" fill="black"/>
<path d="M274.154 17.7549L283.819 43.9848L293.039 17.7549H305L288.243 60.5137C283.819 69.9142 278.337 77.8961 267.398 80.0118L264.381 70.371L264.633 70.0584C270.74 68.676 275.656 63.8315 277.604 57.9773L261.748 17.7549H274.142H274.154Z" fill="black"/>
<path d="M80.1448 29.5719C79.664 29.9806 77.2357 28.0813 76.5986 27.7927C74.002 26.5906 67.9073 25.064 66.3927 28.3577C64.3851 32.7334 72.1989 34.2841 74.8676 35.5824C79.5798 37.8664 83.4627 41.5087 83.8954 47.0264C85.1817 63.2548 64.2649 65.8874 53.6743 58.6387L56.6796 49.1902C60.3941 51.7146 66.561 54.2751 70.9366 52.2195C72.7518 51.366 73.0163 49.5027 72.5956 47.6635C72.0546 45.2473 66.2244 43.7927 64.1928 42.807C59.8652 40.7274 55.5135 37.1812 55.0688 32.0482C53.7585 16.8776 73.0524 12.8987 82.9698 20.7965L80.1569 29.5959L80.1448 29.5719Z" fill="black"/>
<path d="M102.047 7.38086V17.755H112.421V27.2637H102.047V49.5987C102.047 49.6949 102.684 51.3057 102.792 51.45C104.127 53.3613 109.368 51.8948 111.267 51.1855L111.712 60.9947C105.329 63.435 96.2289 63.471 92.6706 56.6671C91.9614 55.3208 90.8074 51.9068 90.8074 50.4643V27.2637H84.893L84.5203 26.8309C84.5203 26.7107 84.7487 26.6145 84.7487 26.5424V18.1878C84.7487 18.1036 84.3881 17.9714 84.4602 17.755H90.3746L90.8074 17.3223V10.5544L102.047 7.38086Z" fill="black"/>
<path d="M140.106 28.4179C136.993 27.901 134.492 27.1677 131.643 29.043C129.684 30.3293 127.701 34.0317 127.701 36.3518V61.5719H116.172L115.884 17.7673H126.547L126.691 20.6523C130.189 17.5028 135.634 15.4352 140.094 17.623V28.4299L140.106 28.4179Z" fill="black"/>
<path d="M97.3349 4.60405C97.4311 4.64012 97.4792 4.96469 97.6595 5.04883C98.2605 5.3133 99.4386 5.28925 99.7391 5.93839C97.2027 6.59955 94.7504 7.44102 92.1899 8.05409C90.5069 8.45079 91.4806 8.18632 89.8938 7.86175C79.9764 5.77009 71.1289 5.50563 61.1994 7.92186C53.5059 9.79714 45.7523 13.8001 40.487 19.7746L36.8687 9.55672L37.1692 8.96769C39.0445 7.98197 40.8236 6.79188 42.735 5.89031C58.675 -1.62284 81.0343 -1.81518 97.3229 4.60405H97.3349Z" fill="#FF0000"/>
</g>
<defs>
<clipPath id="clip0_316_1724">
<rect width="305" height="80" fill="white"/>
</clipPath>
</defs>
</svg>
