<svg width="80" height="31" viewBox="0 0 80 31" fill="none" xmlns="http://www.w3.org/2000/svg">
<g clip-path="url(#clip0_3303_26413)">
<path d="M1.2762 13.1926C5.23478 12.5427 8.33864 9.43887 8.98853 5.48029L9.30762 3.55418C9.36664 3.17998 9.0634 2.85305 8.68521 2.88062C5.67199 3.11302 2.83207 4.11349 1.26045 4.75553C0.500244 5.06671 0 5.80722 0 6.63438V12.7199C0 13.0784 0.319059 13.3502 0.673558 13.2911L1.2762 13.1926ZM10.8948 5.4802C11.5448 9.4388 14.6486 12.5426 18.6072 13.1925L19.2098 13.291C19.5643 13.3501 19.8833 13.0783 19.8833 12.7199V6.63429C19.8833 5.81106 19.3831 5.07055 18.6229 4.75544C17.0552 4.10946 14.2113 3.11293 11.1981 2.88053C10.82 2.85296 10.5128 3.17989 10.5758 3.55409L10.8948 5.4802ZM18.6105 15.1033C14.6519 15.7532 11.5481 18.8571 10.8981 22.8156L10.5042 26.5734C10.4688 26.9121 10.843 27.1524 11.1266 26.9633C11.1266 26.9633 11.1306 26.9633 11.1345 26.9594C13.616 25.2854 19.2801 20.9014 19.8394 15.4263C19.867 15.1585 19.6267 14.9379 19.3628 14.9812L18.6144 15.1033H18.6105ZM8.98679 22.8139C8.33691 18.8553 5.23306 15.7515 1.27448 15.1015L0.467006 14.9676C0.230672 14.9282 0.0179662 15.1251 0.0415995 15.3654C0.573349 20.872 6.31626 25.2836 8.81743 26.9576C9.07743 27.1309 9.42008 26.9221 9.3886 26.6109L8.99079 22.81L8.98679 22.8139ZM47.3918 10.5319H45.5072C45.3929 10.5319 45.3032 10.6217 45.3032 10.7359V16.1737C45.3032 16.8386 45.193 17.422 44.9728 17.9238C44.7525 18.4256 44.4424 18.8091 44.0386 19.0701C43.6346 19.3312 43.1574 19.4617 42.6066 19.4617C41.8152 19.4617 41.2196 19.2007 40.8239 18.6785C40.4282 18.1563 40.2284 17.4057 40.2284 16.4307V10.7359C40.2284 10.6217 40.1386 10.5319 40.0244 10.5319H38.1193C38.0051 10.5319 37.9153 10.6217 37.9153 10.7359V16.6632C37.9153 17.5811 38.0295 18.3481 38.2539 18.9641C38.4783 19.5801 38.7883 20.0777 39.1758 20.4612C39.5634 20.8447 40.0081 21.1139 40.5139 21.2771C41.0157 21.4403 41.542 21.5219 42.0927 21.5219C42.8841 21.5219 43.5408 21.3709 44.0671 21.065C44.4546 20.8406 44.781 20.5918 45.0543 20.3143C45.1685 20.1961 45.3644 20.2613 45.397 20.4205L45.5438 21.2241C45.5601 21.322 45.6458 21.3913 45.7438 21.3913H47.3837C47.4979 21.3913 47.5876 21.3016 47.5876 21.1873V10.7359C47.5876 10.6217 47.4979 10.5319 47.3837 10.5319H47.3918ZM55.5804 19.378H53.1204C52.6839 19.378 52.3739 19.2882 52.1985 19.1128C52.0231 18.9374 51.9334 18.6355 51.9334 18.2112V12.753C51.9334 12.6387 52.0231 12.549 52.1373 12.549H55.4743C55.5885 12.549 55.6783 12.4592 55.6783 12.345V10.7377C55.6783 10.6235 55.5885 10.5337 55.4743 10.5337H52.3413C52.1169 10.5337 51.9334 10.3502 51.9334 10.1258V7.43747C51.9334 7.32324 51.8436 7.2335 51.7294 7.2335H49.8447C49.7304 7.2335 49.6407 7.32324 49.6407 7.43747V18.4479C49.6407 19.4392 49.8732 20.1775 50.3423 20.6629C50.8074 21.1525 51.558 21.3932 52.5901 21.3932H55.5804C55.6946 21.3932 55.7843 21.3035 55.7843 21.1892V19.5819C55.7843 19.4677 55.6946 19.378 55.5804 19.378ZM65.1617 10.9567C64.5171 10.5895 63.7666 10.406 62.9017 10.406C62.2245 10.406 61.6004 10.5405 61.0333 10.8098C60.6254 11.0056 60.2623 11.2463 59.9522 11.5359C59.8217 11.6583 59.6137 11.5645 59.6137 11.3891V6.74669C59.6137 6.63246 59.5239 6.54272 59.4097 6.54272H57.5046C57.3904 6.54272 57.3006 6.63246 57.3006 6.74669V21.1879C57.3006 21.3021 57.3904 21.3919 57.5046 21.3919H59.4097C59.5239 21.3919 59.6137 21.3021 59.6137 21.1879V15.8968C59.6137 15.1911 59.7279 14.5792 59.9522 14.0611C60.1766 13.5471 60.4989 13.1473 60.9191 12.8617C61.3352 12.5803 61.8288 12.4375 62.3918 12.4375C62.9547 12.4375 63.4035 12.5639 63.7706 12.821C64.1377 13.0739 64.4152 13.4329 64.5987 13.8938C64.7823 14.3548 64.8761 14.9014 64.8761 15.5379V21.1879C64.8761 21.3021 64.9659 21.3919 65.0801 21.3919H66.9648C67.079 21.3919 67.1687 21.3021 67.1687 21.1879V15.3461C67.1687 14.2447 66.9974 13.3268 66.6507 12.6007C66.3039 11.8704 65.8103 11.3238 65.1657 10.9567H65.1617ZM78.8445 9.77072C78.4083 8.69782 77.7841 7.86974 76.9766 7.29044C76.1683 6.71116 75.2017 6.42152 74.0718 6.42152C72.9417 6.42152 71.9912 6.71116 71.1753 7.29044C70.3635 7.86974 69.7353 8.69782 69.2988 9.77072C68.8623 10.8477 68.642 12.1328 68.642 13.6299V14.307C68.642 15.8205 68.8623 17.1178 69.2988 18.1989C69.7353 19.2799 70.3635 20.1039 71.1753 20.6709C71.9872 21.238 72.954 21.5195 74.0718 21.5195C75.1895 21.5195 76.1728 21.238 76.9766 20.6709C77.7796 20.1039 78.4038 19.2799 78.8445 18.1989C79.2815 17.1178 79.5011 15.8205 79.5011 14.307V13.6299C79.5011 12.1328 79.2815 10.8436 78.8445 9.77072ZM70.9551 14.5682V13.7156C70.9551 11.99 71.2243 10.6682 71.7628 9.75034C72.3013 8.83246 73.0723 8.37148 74.0758 8.37148C75.01 8.37148 75.7404 8.76717 76.2702 9.56272C76.4747 9.84823 76.2989 10.2113 76.2136 10.3092L72.032 14.972C71.6608 15.3881 70.9755 15.1311 70.9632 14.5763L70.9551 14.5682ZM77.1887 14.2254C77.1887 15.9388 76.9192 17.2524 76.3804 18.1703C75.8423 19.0882 75.0712 19.5491 74.0677 19.5491C73.1457 19.5491 72.4195 19.1616 71.8934 18.3865C71.6894 18.105 71.8647 17.746 71.9504 17.644L76.1155 12.9731C76.4868 12.557 77.1721 12.8099 77.1841 13.3688V14.2295L77.1887 14.2254ZM36.6063 19.3997H36.5492C36.3208 19.3997 36.1617 19.3508 36.0597 19.2528C35.9617 19.1549 35.9128 18.9714 35.9128 18.7021V14.3534C35.9128 13.0685 35.5171 12.0894 34.7257 11.4163C33.9343 10.7432 32.8247 10.4087 31.3969 10.4087C30.4912 10.4087 29.6958 10.5515 29.0104 10.8329C28.3251 11.1144 27.7784 11.5142 27.3664 12.0323C27.0033 12.4891 26.7749 13.0154 26.677 13.611C26.6566 13.7334 26.7586 13.8476 26.881 13.8476H28.733C28.8269 13.8476 28.9044 13.7823 28.9288 13.6885C29.0389 13.2806 29.2796 12.946 29.659 12.6891C30.0833 12.3994 30.6259 12.2525 31.2908 12.2525C32.0251 12.2525 32.6003 12.4239 33.0082 12.7706C33.4162 13.1174 33.6242 13.5947 33.6242 14.2025V14.6553C33.6242 14.7696 33.5345 14.8593 33.4203 14.8593H30.9522C29.4551 14.8593 28.3128 15.1612 27.5255 15.7609C26.7423 16.3605 26.3466 17.2213 26.3466 18.3391C26.3466 19.004 26.5179 19.5752 26.8565 20.0565C27.1951 20.5379 27.6642 20.901 28.2679 21.1498C28.8676 21.3986 29.5571 21.5211 30.3362 21.5211C31.3561 21.5211 32.1842 21.2845 32.8288 20.8112C33.1103 20.6032 33.3632 20.3666 33.5835 20.1095C33.6895 19.9831 33.8976 20.0279 33.9343 20.187C33.9914 20.4563 34.1015 20.6929 34.2607 20.8846C34.5421 21.2232 35.0684 21.3946 35.8312 21.3946H36.8143C36.9286 21.3946 37.0183 21.3048 37.0183 21.1906V19.7383C37.0183 19.4609 36.9286 19.3997 36.6104 19.3997H36.6063ZM33.6201 17.0051C33.6201 17.5272 33.5019 18.0005 33.2612 18.4166C33.0205 18.8327 32.6819 19.159 32.2414 19.3916C31.8048 19.6241 31.2704 19.7424 30.6503 19.7424C30.0303 19.7424 29.5571 19.5956 29.198 19.3059C28.8391 19.0162 28.6555 18.6451 28.6555 18.1922C28.6555 17.6415 28.8432 17.2294 29.2185 16.9602C29.5938 16.6909 30.1322 16.5564 30.8421 16.5564H33.6201V17.0051Z" fill="#111111"/>
</g>
<defs>
<clipPath id="clip0_3303_26413">
<rect width="80" height="30.1887" fill="white"/>
</clipPath>
</defs>
</svg>
