<svg width="246" height="93" viewBox="0 0 246 93" fill="none" xmlns="http://www.w3.org/2000/svg">
<path d="M3.9243 40.5662C16.0969 38.5678 25.6413 29.0235 27.6397 16.8508L28.6209 10.928C28.8024 9.77737 27.8699 8.77207 26.707 8.85684C17.4414 9.57145 8.70861 12.6479 3.87587 14.6222C1.53825 15.579 0 17.8561 0 20.3996V39.1127C0 40.2151 0.981106 41.0508 2.07119 40.8691L3.9243 40.5662ZM33.5015 16.8505C35.5001 29.0232 45.0445 38.5676 57.217 40.566L59.0702 40.8688C60.1602 41.0505 61.1412 40.2148 61.1412 39.1125V20.3994C61.1412 17.8679 59.603 15.5909 57.2653 14.6219C52.4449 12.6355 43.6998 9.57117 34.4342 8.85656C33.2715 8.77179 32.3267 9.77709 32.5205 10.9277L33.5015 16.8505ZM57.2273 46.4416C45.0547 48.44 35.5103 57.9844 33.5117 70.157L32.3005 81.712C32.1917 82.7536 33.3423 83.4925 34.2144 82.9111C34.2144 82.9111 34.2265 82.9111 34.2386 82.8991C41.8692 77.7514 59.2862 64.2706 61.0061 47.4349C61.0911 46.6113 60.3522 45.9329 59.5406 46.0661L57.2393 46.4416H57.2273ZM27.6344 70.1516C25.636 57.979 16.0916 48.4347 3.91901 46.4361L1.43604 46.0244C0.709318 45.9032 0.055246 46.5087 0.127918 47.2476C1.76305 64.1803 19.4225 77.7458 27.1136 82.8935C27.9131 83.4264 28.9667 82.7844 28.87 81.8276L27.6467 70.1396L27.6344 70.1516ZM145.73 32.3844H139.935C139.583 32.3844 139.307 32.6605 139.307 33.0117V49.7332C139.307 51.7778 138.968 53.5717 138.291 55.1145C137.614 56.6576 136.66 57.8368 135.419 58.6395C134.177 59.4425 132.709 59.8438 131.015 59.8438C128.582 59.8438 126.75 59.041 125.534 57.4353C124.317 55.8296 123.702 53.5216 123.702 50.5234V33.0117C123.702 32.6605 123.426 32.3844 123.075 32.3844H117.217C116.866 32.3844 116.59 32.6605 116.59 33.0117V51.2384C116.59 54.0609 116.941 56.4193 117.631 58.3135C118.321 60.2077 119.274 61.738 120.466 62.9171C121.657 64.0963 123.025 64.9241 124.58 65.4261C126.123 65.9279 127.742 66.1787 129.435 66.1787C131.869 66.1787 133.888 65.7146 135.506 64.7738C136.698 64.0838 137.702 63.3186 138.542 62.4655C138.893 62.1019 139.495 62.3024 139.596 62.7918L140.047 65.263C140.097 65.564 140.361 65.7772 140.662 65.7772H145.705C146.056 65.7772 146.332 65.5013 146.332 65.1499V33.0117C146.332 32.6605 146.056 32.3844 145.705 32.3844H145.73ZM170.91 59.5862H163.345C162.003 59.5862 161.05 59.3102 160.51 58.7707C159.971 58.2313 159.695 57.303 159.695 55.9985V39.2144C159.695 38.863 159.971 38.5871 160.322 38.5871H170.583C170.935 38.5871 171.211 38.3111 171.211 37.9598V33.0175C171.211 32.6661 170.935 32.3902 170.583 32.3902H160.949C160.259 32.3902 159.695 31.8258 159.695 31.1358V22.8691C159.695 22.5179 159.419 22.2419 159.068 22.2419H153.272C152.921 22.2419 152.645 22.5179 152.645 22.8691V56.7261C152.645 59.7744 153.36 62.0448 154.803 63.5375C156.233 65.043 158.541 65.7831 161.715 65.7831H170.91C171.261 65.7831 171.537 65.5071 171.537 65.1558V60.2132C171.537 59.8621 171.261 59.5862 170.91 59.5862ZM200.372 33.6907C198.39 32.5617 196.082 31.9973 193.423 31.9973C191.34 31.9973 189.421 32.4111 187.677 33.2391C186.423 33.8411 185.306 34.5812 184.353 35.4719C183.952 35.8483 183.312 35.5599 183.312 35.0203V20.745C183.312 20.3938 183.036 20.1178 182.685 20.1178H176.827C176.476 20.1178 176.199 20.3938 176.199 20.745V65.1516C176.199 65.5029 176.476 65.7789 176.827 65.7789H182.685C183.036 65.7789 183.312 65.5029 183.312 65.1516V48.8817C183.312 46.7116 183.663 44.8299 184.353 43.2369C185.043 41.6563 186.034 40.4269 187.326 39.5488C188.606 38.6834 190.124 38.2443 191.855 38.2443C193.586 38.2443 194.966 38.633 196.095 39.4235C197.224 40.2011 198.077 41.3051 198.641 42.7224C199.206 44.1399 199.494 45.8208 199.494 47.7779V65.1516C199.494 65.5029 199.77 65.7789 200.121 65.7789H205.917C206.268 65.7789 206.544 65.5029 206.544 65.1516V47.1882C206.544 43.8013 206.017 40.9788 204.951 38.746C203.885 36.5005 202.367 34.8195 200.385 33.6907H200.372ZM242.447 30.0439C241.106 26.7447 239.186 24.1984 236.703 22.417C234.218 20.6357 231.245 19.7451 227.771 19.7451C224.296 19.7451 221.373 20.6357 218.864 22.417C216.368 24.1984 214.436 26.7447 213.094 30.0439C211.752 33.3556 211.074 37.3072 211.074 41.9108V43.993C211.074 48.6471 211.752 52.6362 213.094 55.9605C214.436 59.2845 216.368 61.8185 218.864 63.5621C221.361 65.3059 224.333 66.1713 227.771 66.1713C231.208 66.1713 234.231 65.3059 236.703 63.5621C239.172 61.8185 241.092 59.2845 242.447 55.9605C243.791 52.6362 244.466 48.6471 244.466 43.993V41.9108C244.466 37.3072 243.791 33.3431 242.447 30.0439ZM218.187 44.796V42.1742C218.187 36.8681 219.015 32.8037 220.671 29.9812C222.326 27.1587 224.697 25.7412 227.783 25.7412C230.656 25.7412 232.902 26.958 234.531 29.4043C235.16 30.2822 234.619 31.3988 234.357 31.6998L221.498 46.0378C220.357 47.3173 218.25 46.5271 218.212 44.8211L218.187 44.796ZM237.355 43.7421C237.355 49.0107 236.527 53.05 234.87 55.8725C233.215 58.695 230.844 60.1125 227.758 60.1125C224.923 60.1125 222.69 58.9208 221.072 56.5374C220.445 55.6718 220.984 54.568 221.248 54.2542L234.055 39.8911C235.197 38.6117 237.304 39.3893 237.341 41.1079V43.7547L237.355 43.7421ZM112.564 59.653H112.389C111.686 59.653 111.197 59.5026 110.884 59.2014C110.582 58.9004 110.432 58.336 110.432 57.5079V44.1357C110.432 40.1844 109.215 37.1737 106.781 35.1041C104.348 33.0342 100.936 32.0056 96.5455 32.0056C93.7606 32.0056 91.3145 32.4447 89.207 33.3101C87.0996 34.1758 85.4186 35.4051 84.1517 36.9983C83.0352 38.403 82.3327 40.0213 82.0317 41.8528C81.9691 42.229 82.2826 42.5804 82.659 42.5804H88.3539C88.6426 42.5804 88.881 42.3796 88.9562 42.0912C89.2948 40.8368 90.0348 39.808 91.2015 39.0178C92.5062 38.1271 94.1746 37.6755 96.2192 37.6755C98.4773 37.6755 100.246 38.2025 101.5 39.2687C102.755 40.335 103.395 41.8027 103.395 43.6716V45.064C103.395 45.4154 103.119 45.6913 102.767 45.6913H95.1781C90.5744 45.6913 87.062 46.6196 84.6409 48.4637C82.2325 50.3076 81.0157 52.9544 81.0157 56.3916C81.0157 58.4362 81.5425 60.1926 82.5836 61.6728C83.6249 63.1529 85.0675 64.2695 86.9239 65.0346C88.7679 65.7998 90.8879 66.1762 93.2839 66.1762C96.4199 66.1762 98.9665 65.4486 100.948 63.9933C101.814 63.3537 102.592 62.6261 103.269 61.8357C103.595 61.4469 104.235 61.5848 104.348 62.074C104.524 62.9021 104.862 63.6296 105.352 64.2191C106.217 65.2604 107.835 65.7872 110.181 65.7872H113.204C113.555 65.7872 113.831 65.5113 113.831 65.1599V60.6943C113.831 59.8412 113.555 59.653 112.577 59.653H112.564ZM103.382 52.2897C103.382 53.8952 103.018 55.3503 102.278 56.63C101.538 57.9094 100.497 58.9129 99.1422 59.6279C97.7999 60.343 96.1565 60.7069 94.2498 60.7069C92.3431 60.7069 90.888 60.2552 89.784 59.3645C88.6802 58.4738 88.1156 57.3325 88.1156 55.94C88.1156 54.2466 88.6928 52.9794 89.8469 52.1516C91.001 51.3236 92.6566 50.9098 94.8395 50.9098H103.382V52.2897Z" fill="black"/>
</svg>
