<svg width="269" height="90" viewBox="0 0 269 90" fill="none" xmlns="http://www.w3.org/2000/svg">
<g clip-path="url(#clip0_316_1804)">
<path d="M90.8897 88.3381H67.7428L61.0648 71.3545L28.7308 71.3923L22.298 88.3381H0L35.0316 2.87216L35.456 2.73047L55.4997 2.80604L90.8897 88.3381ZM55.4997 54.4654L45.0204 25.2683L34.7581 54.4654H55.4997Z" fill="#E31031"/>
<path d="M99.596 2.74023L119.847 61.4084L139.315 2.74023H162.387L129.336 88.3479L108.896 88.3196L76.8735 2.74023H99.596Z" fill="#E31031"/>
<path d="M238.817 0.0845192C249.692 -0.605027 261.454 2.81437 269 10.8811L255.908 24.9838C251.937 20.8276 246.315 17.7482 240.477 17.4743C235.713 17.2571 230.686 19.2785 229.714 24.4076C228.592 30.3018 233.497 32.786 238.109 34.5807C246.051 37.679 254.965 39.1147 261.577 44.9617C270.735 53.0474 271.16 67.0367 264.312 76.7564C255.512 89.2344 240.335 91.7187 226.083 88.9983C217.82 87.4208 209.661 83.6708 203.738 77.6349L217.415 63.5417C219.16 65.1192 220.791 66.7627 222.744 68.0946C228.894 72.3074 242.816 76.0669 246.872 67.3862C251.616 57.2319 236.147 53.9447 229.705 51.6305C219.216 47.8616 209.727 43.2993 208.397 30.8685C206.426 12.2697 221.81 1.16135 238.817 0.0845192Z" fill="#E31031"/>
<path d="M191.551 2.74023H171.31V88.3385H191.551V2.74023Z" fill="#E31031"/>
</g>
<defs>
<clipPath id="clip0_316_1804">
<rect width="269" height="90" fill="white"/>
</clipPath>
</defs>
</svg>
