<svg width="212" height="106" viewBox="0 0 212 106" fill="none" xmlns="http://www.w3.org/2000/svg">
<g clip-path="url(#clip0_316_1841)">
<mask id="mask0_316_1841" style="mask-type:luminance" maskUnits="userSpaceOnUse" x="0" y="0" width="212" height="106">
<path d="M212 0H0V106H212V0Z" fill="white"/>
</mask>
<g mask="url(#mask0_316_1841)">
<path d="M202.015 12.9932H202.699C203.656 12.9932 204.203 12.5829 204.203 12.0358C204.203 11.4887 203.656 11.0784 202.836 11.0784C202.015 11.0784 202.288 11.0784 202.015 11.0784V12.9932ZM202.015 17.5068H199.553V9.57385C200.784 9.43708 201.878 9.3003 203.109 9.3003C204.203 9.3003 205.298 9.3003 206.392 9.8474C206.939 10.2577 207.349 10.9416 207.212 11.6255C207.212 12.4461 206.392 13.13 205.298 13.4035C206.255 13.8139 206.802 14.6345 206.939 15.5919C206.939 16.2758 207.212 16.8229 207.486 17.5068H204.75C204.477 16.9597 204.203 16.4126 204.203 15.8655C204.203 15.1816 203.519 14.6345 202.836 14.6345H202.015V17.5068ZM196.407 13.4035C196.407 17.0964 199.279 20.1055 202.972 20.2422C206.665 20.2422 209.674 17.37 209.811 13.6771V13.4035C209.811 9.71063 206.939 6.70159 203.246 6.56482C199.553 6.56482 196.544 9.43708 196.407 13.13V13.4035ZM211.999 13.4035C211.863 18.3274 207.623 22.2939 202.699 22.0203C198.048 21.8835 194.219 18.0539 194.082 13.4035C194.356 8.47966 198.459 4.64998 203.519 4.78676C208.17 5.0603 211.863 8.75321 212.136 13.4035" fill="black"/>
<path d="M41.8531 105.179C37.066 105.179 32.4157 104.222 28.0389 102.033C25.1667 103.811 21.8841 104.769 18.4647 104.769C8.75376 104.769 0.684082 96.9726 0.684082 87.1248V25.85C0.684082 16.0022 8.89053 8.20612 18.7383 8.20612C28.4492 8.20612 36.2454 16.139 36.3821 25.85V32.1416C38.1602 31.8681 40.0751 31.7313 41.8531 31.7313C46.2299 31.7313 50.6067 32.5519 54.5731 34.1932C58.6763 35.8345 62.506 38.4332 65.5151 41.579C66.1989 42.2629 66.8828 42.9468 67.4299 43.7674C67.8402 42.9468 68.3873 42.1261 68.9344 41.3055C70.8492 38.57 73.5847 36.5184 76.5938 35.4242C83.0221 33.099 89.8609 32.0048 96.6996 32.1416C101.35 32.1416 106 32.8255 110.377 34.1932C111.471 34.6035 112.702 35.0139 113.796 35.561C113.249 34.4668 112.839 33.3726 112.565 32.1416C112.155 31.8681 111.745 31.4577 111.334 31.0474C106.137 25.9868 106.137 17.6435 111.334 12.5829C111.334 12.5829 111.334 12.5829 111.471 12.4461C115.301 8.61644 119.814 5.74418 124.875 3.69257C134.723 -0.137107 145.665 -0.137107 155.512 3.69257C160.573 5.74418 165.223 8.75322 169.053 12.5829C170.831 14.361 172.199 16.6861 172.609 19.2848C176.165 19.8319 179.448 21.4732 182.047 23.9352C184.645 26.3971 186.423 29.5429 187.244 33.099C190.39 33.7829 193.125 35.2874 195.451 37.4758C201.879 43.9042 202.016 54.299 195.587 60.7274C195.587 60.7274 195.587 60.7274 195.451 60.8642C193.262 63.0526 190.663 64.5571 187.654 65.241V71.9429C194.903 73.721 200.101 80.2861 200.101 87.8087C200.101 94.5106 195.861 100.529 189.706 102.854C185.876 104.358 181.636 105.042 177.533 105.042C174.524 105.042 171.515 104.769 168.506 103.948C165.223 103.127 162.214 101.486 159.616 99.161C158.111 97.7932 156.88 96.2887 155.786 94.5106C151.546 103.401 140.878 107.231 131.851 102.991C129.662 101.896 127.611 100.392 125.969 98.4771C125.559 98.8874 125.149 99.2977 124.738 99.7081C121.456 102.854 116.942 104.769 112.292 104.632C109.146 104.632 106 103.811 103.265 102.307C99.0247 104.222 94.5112 105.042 89.8609 105.042C82.8854 105.042 76.1834 102.854 70.7125 98.6139C69.0712 97.2461 67.7034 95.7416 66.4725 94.1003C66.1989 94.3739 65.7886 94.7842 65.5151 95.0577C62.3692 98.2035 58.6763 100.802 54.4363 102.444C50.3331 104.085 45.9563 104.905 41.5796 104.905" fill="#020202"/>
<path d="M140.194 0C134.859 0 129.662 0.957419 124.738 3.00903C119.677 5.06065 115.027 8.06968 111.061 11.8994C105.59 17.2335 105.453 25.9871 110.787 31.4581C110.787 31.4581 110.787 31.4581 110.924 31.5948C111.334 32.0052 111.608 32.2787 112.018 32.5523C112.018 33.0994 112.292 33.6465 112.428 34.0568C111.881 33.7832 111.334 33.6465 110.65 33.3729C106.137 31.8684 101.486 31.1845 96.6994 31.3213C89.7239 31.3213 82.8852 32.2787 76.32 34.7406C73.0374 35.9716 70.3019 38.0232 68.2503 40.8955C67.84 41.4426 67.5665 41.9897 67.2929 42.5368C66.8826 42.1265 66.4723 41.5794 66.0619 41.169C62.9161 37.8865 59.0864 35.2877 54.8464 33.6465C49.2387 31.3213 43.0839 30.5006 37.0658 31.4581V25.9871C37.0658 15.8658 28.7226 7.65935 18.4645 7.65935C8.34323 7.52258 0 15.729 0 25.8503V87.2619C0 97.3832 8.34323 105.59 18.6013 105.59C22.0206 105.59 25.3032 104.632 28.1755 102.991C32.4155 105.043 37.2026 106 41.9897 106C46.5032 106 50.88 105.179 55.12 103.401C59.36 101.623 63.1897 99.0245 66.3355 95.7419C66.3355 95.7419 66.609 95.4684 66.609 95.3316C67.7032 96.8361 69.071 98.0671 70.4387 99.2981C76.0465 103.675 83.0219 106 90.1342 105.863C94.7845 105.863 99.2981 105.043 103.538 103.265C106.274 104.769 109.419 105.453 112.702 105.453C117.489 105.453 122.139 103.675 125.559 100.255C125.832 99.9819 125.969 99.8452 126.243 99.5716C133.355 107.094 145.117 107.368 152.64 100.392C154.008 99.1613 155.102 97.6568 156.059 96.0155C157.017 97.3832 158.111 98.6142 159.342 99.7084C161.941 102.034 165.086 103.675 168.506 104.632C171.515 105.453 174.524 105.863 177.67 105.726C181.91 105.726 186.15 105.043 190.116 103.538C198.87 100.255 203.246 90.5445 199.964 81.791C199.28 80.0129 198.323 78.3716 197.092 77.0039C194.903 74.2684 191.894 72.3535 188.475 71.3961V65.7884C191.347 64.9677 193.946 63.4632 195.997 61.4116C202.699 54.7097 202.836 43.9045 196.134 37.2026C196.134 37.2026 196.134 37.2026 195.997 37.0658C193.809 34.8774 190.937 33.2361 187.928 32.5523C187.107 29.1329 185.192 25.9871 182.594 23.5252C179.995 21.0632 176.712 19.4219 173.156 18.7381C172.609 16.2761 171.241 13.951 169.463 12.1729C165.497 8.20645 160.846 5.19742 155.649 3.00903C150.862 1.09419 145.528 0 140.194 0ZM140.194 1.50452C145.391 1.50452 150.452 2.46194 155.375 4.37677C160.299 6.42839 164.813 9.30065 168.643 13.1303C170.557 15.0452 171.788 17.3703 172.199 19.969C179.585 20.7897 185.466 26.3974 186.834 33.6465C189.979 34.1935 192.852 35.6981 195.04 38.0232C201.195 44.0413 201.332 54.0258 195.177 60.1806C195.177 60.1806 195.177 60.1806 195.04 60.3174C192.852 62.5058 190.116 64.0103 187.107 64.5574V72.4903C194.356 73.9948 199.554 80.4232 199.554 87.809C199.554 94.2374 195.587 99.9819 189.569 102.17C183.004 104.495 175.755 104.906 168.916 103.128C165.77 102.307 162.761 100.666 160.299 98.4774C158.521 96.8361 157.017 94.9213 155.923 92.7329C152.64 101.623 142.792 106.137 133.902 102.854C130.893 101.76 128.294 99.8452 126.379 97.2465C125.832 97.9303 125.285 98.6142 124.738 99.1613C121.592 102.17 117.352 103.948 112.839 103.948C109.693 103.948 106.547 103.128 103.812 101.486C103.812 101.486 103.538 101.486 103.401 101.623C99.2981 103.401 94.7845 104.222 90.271 104.222C83.569 104.222 76.8671 102.17 71.5329 97.9303C69.7548 96.4258 68.1136 94.6477 66.8826 92.7329C66.3355 93.28 65.9252 93.8271 65.3781 94.3742C62.369 97.52 58.6761 99.9819 54.5729 101.623C50.6065 103.265 46.3665 104.085 41.9897 104.085C37.2026 104.085 32.4155 102.991 28.1755 100.939C25.3032 102.717 22.0206 103.812 18.7381 103.812C9.43742 103.812 1.77806 96.289 1.64129 86.9884V25.8503C1.64129 16.4129 9.43742 8.89032 18.8748 8.89032C28.1755 8.89032 35.6981 16.5497 35.8348 25.8503V33.0994C37.8865 32.689 39.9381 32.5523 42.1265 32.5523C46.3665 32.5523 50.6065 33.3729 54.5729 35.0142C58.6761 36.6555 62.2323 39.1174 65.3781 42.2632C66.3355 43.2206 67.1561 44.1781 67.9768 45.2723C68.3871 44.0413 69.071 42.8103 69.8916 41.7161C71.6697 39.1174 74.2684 37.2026 77.2774 36.1084C83.569 33.7832 90.4077 32.689 97.1097 32.8258C101.623 32.8258 106.274 33.5097 110.514 34.8774C112.565 35.5613 114.48 36.5187 116.395 37.6129C115.027 35.9716 114.07 33.92 113.659 31.8684C113.112 31.4581 112.702 31.0477 112.292 30.6374C107.505 25.8503 107.368 18.0542 112.292 13.1303C112.292 13.1303 112.292 13.1303 112.428 12.9935C116.258 9.30065 120.635 6.42839 125.559 4.37677C130.346 2.46194 135.406 1.50452 140.467 1.50452" fill="white"/>
<path d="M50.4696 68.114C50.4696 59.4973 44.7251 53.8895 37.8864 53.8895C31.0477 53.8895 25.44 59.4973 25.44 67.8405C25.44 76.4573 31.0477 82.065 37.8864 82.065C44.7251 82.065 50.4696 76.594 50.4696 67.9773M11.0787 25.3037C11.0787 21.3373 14.3612 18.0547 18.3277 18.0547C22.2942 18.0547 25.5767 21.3373 25.5767 25.3037V49.7863C29.1329 44.4521 35.1509 41.4431 41.5793 41.5798C53.6154 41.5798 64.9677 50.8805 64.9677 67.8405C64.9677 84.9373 53.7522 94.2379 41.5793 94.2379C35.2877 94.2379 29.4064 91.5024 25.5767 86.7153C25.5767 90.8186 22.1574 93.9644 18.0542 93.9644C14.0877 93.9644 10.9419 90.6818 10.9419 86.7153V25.3037H11.0787Z" fill="white"/>
<path d="M105.727 75.4989V72.9002C102.854 71.6692 99.5717 70.9853 96.4259 70.9853C90.1343 70.9853 86.3046 73.4473 86.3046 77.9608C86.3046 82.0641 89.5872 84.2524 94.2375 84.2524C101.076 84.2524 105.59 80.5595 105.59 75.3621M72.0801 78.6447C72.0801 67.4292 80.5601 62.2318 92.733 62.2318C96.973 62.2318 101.213 62.9157 105.316 64.2834V63.4628C105.316 57.4447 101.623 54.1621 94.2375 54.1621C90.8181 54.1621 87.3988 54.5724 84.1162 55.5299C83.4323 55.8034 82.7485 55.9402 82.0646 55.9402C78.782 55.9402 76.0465 53.4782 76.0465 50.1957C76.0465 47.7337 77.6878 45.4086 80.013 44.5879C85.2104 42.6731 90.8181 41.8524 96.4259 41.9892C104.359 41.9892 110.103 44.0408 113.796 47.7337C117.626 51.5634 119.404 57.1711 119.404 63.8731V86.9879C119.404 90.8176 116.258 93.9634 112.428 93.9634C108.188 93.9634 105.453 91.0912 105.453 87.9453C101.487 92.1853 95.742 94.5105 89.8607 94.237C80.1498 94.237 72.2169 88.766 72.2169 78.6447" fill="white"/>
<path d="M132.261 49.2393C132.261 45.2728 135.68 41.9902 139.647 41.9902C143.613 41.9902 146.759 45.2728 146.896 49.2393V86.7154C146.896 90.6818 143.476 93.9644 139.51 93.9644C135.543 93.9644 132.398 90.6818 132.261 86.7154V49.2393Z" fill="white"/>
<path d="M162.488 78.9187V54.8464H162.077C158.658 54.8464 155.922 52.1109 155.922 48.6916C155.922 45.2722 158.658 42.5367 162.077 42.5367H162.488V36.2451C162.488 32.2787 165.907 28.9961 169.873 28.9961C173.84 28.9961 176.986 32.2787 177.122 36.2451V42.5367H183.551C186.97 42.5367 189.706 45.2722 189.706 48.6916C189.706 52.1109 186.97 54.8464 183.551 54.8464H177.122V76.5935C177.122 79.8761 178.627 81.5174 181.773 81.5174C184.918 81.5174 183.277 81.5174 183.551 81.5174C186.833 81.5174 189.569 84.1161 189.569 87.5354C189.569 89.9974 188.064 92.049 185.876 92.8696C183.277 93.8271 180.405 94.3742 177.533 94.2374C168.642 94.2374 162.624 90.6813 162.624 78.9187" fill="white"/>
<path d="M159.342 24.2099C158.521 24.2099 157.837 23.9364 157.29 23.3893C147.716 13.9518 132.261 13.8151 122.687 23.2525C121.592 24.3467 119.814 24.3467 118.72 23.2525C117.626 22.1583 117.626 20.3802 118.72 19.286C130.619 7.66023 149.631 7.797 161.394 19.4228C162.488 20.517 162.488 22.2951 161.394 23.3893C160.847 23.9364 160.163 24.2099 159.342 24.2099Z" fill="#FFCB00"/>
<path d="M153.87 32.0047C153.05 32.0047 152.366 31.7311 151.819 31.184C148.673 27.9014 144.296 26.1234 139.646 26.1234C135.132 26.1234 130.756 27.9014 127.61 31.0472C126.516 32.1414 124.738 32.1414 123.643 31.0472C122.549 29.953 122.549 28.175 123.643 27.0808C127.883 22.8408 133.765 20.5156 139.783 20.5156C145.801 20.5156 151.682 22.9776 155.922 27.2176C157.016 28.3118 157.016 30.0898 155.922 31.184C155.375 31.7311 154.691 32.0047 153.87 32.0047Z" fill="#FFCB00"/>
<path d="M149.221 39.939C148.4 39.939 147.716 39.6655 147.169 39.1184C143.066 35.0152 136.364 35.0152 132.124 39.1184C131.03 40.2126 129.252 40.2126 128.158 39.1184C127.063 38.0242 127.063 36.2461 128.158 35.1519C134.586 28.8603 144.844 28.9971 151.272 35.1519C152.367 36.2461 152.367 38.0242 151.272 39.1184C150.725 39.6655 150.041 39.939 149.221 39.939Z" fill="#FFCB00"/>
</g>
</g>
<defs>
<clipPath id="clip0_316_1841">
<rect width="212" height="106" fill="white"/>
</clipPath>
</defs>
</svg>
