<svg width="465" height="80" viewBox="0 0 465 80" fill="none" xmlns="http://www.w3.org/2000/svg">
<g clip-path="url(#clip0_316_1723)">
<mask id="mask0_316_1723" style="mask-type:luminance" maskUnits="userSpaceOnUse" x="0" y="0" width="465" height="80">
<path d="M464.546 0H0V80H464.546V0Z" fill="white"/>
</mask>
<g mask="url(#mask0_316_1723)">
<path d="M104.441 0H3.28748C1.5173 0 0 1.48148 0 3.20988V76.5433C0 78.2716 1.5173 79.7531 3.28748 79.7531H104.441C106.211 79.7531 107.728 78.2716 107.728 76.5433V3.20988C107.728 1.48148 106.464 0 104.441 0Z" fill="#006FB9"/>
<path d="M32.8759 54.5698C30.6 54.5698 28.5769 52.5945 28.5769 50.3724C28.5769 48.1502 30.6 46.1749 32.8759 46.1749C35.1519 46.1749 37.1749 48.1502 37.1749 50.3724C37.1749 52.8414 35.4048 54.5698 32.8759 54.5698ZM16.6914 43.7054C16.6914 41.4833 18.7145 39.508 20.9904 39.508C23.2664 39.508 25.2894 41.4833 25.2894 43.7054C25.2894 45.928 23.2664 47.9033 20.9904 47.9033C18.7145 47.9033 16.6914 46.1749 16.6914 43.7054ZM32.8759 33.0884C35.1519 33.0884 37.1749 35.0637 37.1749 37.2858C37.1749 39.508 35.1519 41.4833 32.8759 41.4833C30.6 41.4833 28.5769 39.508 28.5769 37.2858C28.8298 34.8167 30.6 33.0884 32.8759 33.0884ZM96.3494 39.7549H41.9796C42.2325 39.0142 42.4853 38.0265 42.4853 37.0389C42.4853 31.8538 38.1866 27.6562 32.8759 27.6562C28.324 27.6562 24.7836 30.6192 23.7721 34.8167C22.7606 34.5698 22.002 34.5698 20.9904 34.5698C15.6799 34.5698 11.3809 38.7673 11.3809 43.9524C11.3809 49.1378 15.6799 53.3353 20.9904 53.3353C22.002 53.3353 22.7606 53.0884 23.7721 52.8414C24.7836 56.792 28.5769 60.0018 32.8759 60.0018C38.1866 60.0018 42.4853 55.8044 42.4853 50.6193C42.4853 49.6316 42.2325 48.8909 41.9796 47.9033H78.9006V59.0142H83.1997V53.3353H87.4988V58.7673H91.7975V47.6564H96.0965V39.7549H96.3494Z" fill="#FFDD35"/>
<path d="M180.809 55.8075C174.487 55.8075 170.188 51.1163 170.188 45.6843C170.188 40.2519 174.487 35.5607 180.556 35.5607C186.625 35.5607 190.924 40.2519 190.924 45.6843C190.924 51.1163 186.878 55.8075 180.809 55.8075ZM180.809 28.1533C170.694 28.1533 162.601 35.3138 162.349 45.4374C162.349 55.8075 170.694 62.7214 180.809 62.7214C184.602 62.7214 188.143 61.7337 191.177 59.7581V62.7214H199.016V45.4374C199.016 35.3138 190.671 28.1533 180.809 28.1533Z" fill="#006FB9"/>
<path d="M220.01 28.4002C216.975 28.4002 214.194 29.141 211.665 30.6224V28.1533H203.572V44.4497V48.6472V62.7214H211.665V48.6472V44.4497C211.665 40.005 215.458 36.3015 220.01 36.3015C224.562 36.3015 228.355 40.005 228.355 44.4497V62.7214H236.447V44.4497C236.447 35.5607 229.113 28.4002 220.01 28.4002Z" fill="#006FB9"/>
<path d="M141.869 56.2931C146.673 56.2931 149.961 53.824 149.961 49.6262C149.961 45.6756 147.179 42.7127 142.122 42.7127H133.524V56.2931H141.869ZM140.857 36.0461C145.662 36.0461 148.444 33.33 148.444 29.6263C148.444 25.6757 145.662 23.2065 140.604 23.2065H133.524V36.293H140.857V36.0461ZM141.869 16.293C150.972 16.293 156.536 21.4781 156.536 28.8855C156.536 33.8238 153.501 37.5276 149.455 39.0091C154.513 40.2436 158.053 44.688 158.053 50.12C158.053 57.5276 151.984 62.9596 143.133 62.9596H125.431V16.293H141.869Z" fill="#006FB9"/>
<path d="M302.196 55.5549C295.874 55.5549 291.828 51.1106 291.828 45.4317C291.828 39.9997 295.874 35.3081 301.943 35.3081C308.012 35.3081 312.058 39.7524 312.058 45.4317C312.311 51.1106 308.265 55.5549 302.196 55.5549ZM301.943 28.3945C292.081 28.3945 283.735 35.3081 283.735 45.4317C283.735 55.5549 291.828 62.4688 301.943 62.4688C311.805 62.4688 320.151 55.5549 320.151 45.4317C320.151 35.3081 311.805 28.3945 301.943 28.3945Z" fill="#006FB9"/>
<path d="M276.145 49.6262C273.11 53.0833 268.558 55.3054 263.753 55.3054C254.65 55.3054 247.569 48.1447 247.569 39.5029C247.569 30.614 254.902 23.7004 263.753 23.7004C268.811 23.7004 273.11 25.9226 276.145 29.3794L281.708 24.4411C277.156 19.5028 270.581 16.293 263.248 16.293C249.845 16.293 238.971 26.6633 238.971 39.5029C238.971 52.3422 249.845 62.7127 263.248 62.7127C270.581 62.7127 277.156 59.5029 281.708 54.5647L276.145 49.6262Z" fill="#006FB9"/>
<path d="M380.341 55.5549C374.016 55.5549 369.973 51.1106 369.973 45.4317C369.973 39.9997 374.016 35.3081 380.087 35.3081C386.157 35.3081 390.2 39.7524 390.2 45.4317C390.709 50.8637 386.408 55.5549 380.341 55.5549ZM380.341 28.3945C370.478 28.3945 362.132 35.3081 362.132 45.4317V76.5426H369.973V59.7527C373.006 61.4811 376.545 62.7157 380.341 62.7157C390.2 62.7157 398.549 55.8018 398.549 45.6786C398.549 35.3081 390.2 28.3945 380.341 28.3945Z" fill="#006FB9"/>
<path d="M341.138 55.5549C334.816 55.5549 330.769 51.1106 330.769 45.4317C330.769 39.9997 334.816 35.3081 340.885 35.3081C346.954 35.3081 351 39.7524 351 45.4317C351.506 50.8637 347.207 55.5549 341.138 55.5549ZM341.138 28.3945C331.275 28.3945 322.93 35.3081 322.93 45.4317V76.5426H330.769V59.7527C333.804 61.4811 337.344 62.7157 341.138 62.7157C351 62.7157 359.345 55.8018 359.345 45.6786C359.345 35.3081 351 28.3945 341.138 28.3945Z" fill="#006FB9"/>
<path d="M408.154 41.9749C408.154 39.0117 412.201 34.8143 417.512 34.8143C421.05 34.8143 425.856 37.5302 425.856 41.9749H408.154ZM417.258 28.3945C408.154 28.3945 400.568 35.3081 400.568 45.4317C400.568 55.5549 408.154 62.4688 417.258 62.4688C422.819 62.4688 428.635 60.7404 431.672 56.5426L427.121 52.0982C425.097 54.3204 422.064 55.8018 418.267 55.8018C412.201 55.8018 408.154 52.3451 408.154 47.4069H433.947C433.947 46.6662 433.947 46.1724 433.947 45.4317C433.947 35.3081 427.371 28.3945 417.258 28.3945Z" fill="#006FB9"/>
<path d="M444.82 45.4367V16.5479H436.98V45.4367C436.98 55.5603 445.074 62.4737 454.683 62.4737V55.3134C448.867 55.3134 444.82 50.869 444.82 45.4367Z" fill="#006FB9"/>
<path d="M460.244 58.7718H460.753C461.258 58.7718 461.508 58.5249 461.508 58.278C461.508 58.0311 461.258 57.7842 460.753 57.7842C460.498 57.7842 460.498 57.7842 460.244 57.7842V58.7718Z" fill="#006FB9"/>
<path d="M460.245 60.7438H459.485V57.2871C459.74 57.2871 460.245 57.2871 460.75 57.2871C461.509 57.2871 461.763 57.2871 462.017 57.534C462.268 57.7809 462.268 58.0278 462.268 58.2747C462.268 58.7686 462.017 59.0155 461.509 59.0155C461.763 59.2624 462.017 59.5093 462.268 59.7562C462.268 60.25 462.522 60.4969 462.522 60.7438H461.509C461.509 60.4969 461.258 60.25 461.258 60.0031C461.258 59.5093 461.004 59.5093 460.499 59.5093H460.245V60.7438Z" fill="#006FB9"/>
<path d="M458.225 59.009C458.225 60.4904 459.489 61.725 461.004 61.725C462.522 61.725 463.786 60.4904 463.786 59.009C463.786 57.5275 462.522 56.293 461.004 56.293C459.235 56.293 458.225 57.5275 458.225 59.009Z" fill="#006FB9"/>
<path d="M464.546 59.0108C464.546 60.9861 463.031 62.4675 460.754 62.4675C458.73 62.4675 456.961 60.9861 456.961 59.0108C456.961 57.0355 458.479 55.5537 460.754 55.5537C463.031 55.5537 464.546 57.0355 464.546 59.0108Z" fill="#006FB9"/>
</g>
</g>
<defs>
<clipPath id="clip0_316_1723">
<rect width="465" height="80" fill="white"/>
</clipPath>
</defs>
</svg>
