<svg width="345" height="103" viewBox="0 0 345 103" fill="none" xmlns="http://www.w3.org/2000/svg">
<g clip-path="url(#clip0_316_1673)">
<path d="M62.207 54.5433C63.3299 54.9221 64.6368 55.4854 66.1276 56.2332C68.7413 57.7386 70.9775 59.7976 72.8556 62.4199C75.1014 66.1687 76.2147 70.6654 76.2147 75.91C76.2147 93.9066 65.3725 102.9 43.7075 102.9H1.68441C0.56147 102.9 0 102.337 0 101.21V14.6168C0 13.4901 0.56147 12.9268 1.68441 12.9268H45.9631C53.814 12.9268 60.1547 15.0926 65.0143 19.3951C69.8643 23.7073 72.3038 29.4277 72.3038 36.5467C72.3038 40.6744 71.3648 44.3262 69.5061 47.5117C67.6281 50.707 65.1983 53.0476 62.207 54.5433ZM43.1557 89.9634C49.5062 89.9634 54.1722 88.934 57.1634 86.875C60.145 84.816 61.6455 81.2517 61.6455 76.1916C61.6455 71.1316 60.145 67.577 57.1634 65.5083C54.1722 63.4493 49.4965 62.4199 43.1557 62.4199H16.8151C15.3146 62.4199 14.5692 62.9831 14.5692 64.1098V88.293C14.5692 89.4196 15.3146 89.9829 16.8151 89.9829H43.1557V89.9634ZM16.8151 25.8634C15.6921 25.8634 15.1306 26.4267 15.1306 27.5533V47.7934C15.1306 48.92 15.6921 49.4833 16.8151 49.4833H42.5943C52.3038 49.4833 57.1634 45.5499 57.1634 37.6733C57.1634 29.7968 52.3038 25.8634 42.5943 25.8634H16.8151ZM153.01 54.5433C154.133 54.9221 155.256 55.4854 156.369 56.2332C159.351 57.7386 161.597 59.7976 163.097 62.4199C165.711 66.1687 167.018 70.6654 167.018 75.91C167.018 93.9066 156.176 102.9 134.511 102.9H92.478C91.355 102.9 90.7936 102.337 90.7936 101.21V14.6168C90.7936 13.4901 91.355 12.9268 92.478 12.9268H136.757C144.23 12.9268 150.484 15.0926 155.537 19.3951C160.58 23.7073 163.107 29.4277 163.107 36.5467C163.107 40.6744 162.168 44.3262 160.309 47.5117C158.422 50.707 155.992 53.0476 153.01 54.5433ZM107.047 25.8634C105.924 25.8634 105.363 26.4267 105.363 27.5533V47.7934C105.363 48.92 105.924 49.4833 107.047 49.4833H133.388C143.097 49.4833 147.957 45.5499 147.957 37.6733C147.957 29.7968 143.097 25.8634 133.388 25.8634H107.047ZM133.949 89.9634C140.3 89.9634 144.966 88.934 147.957 86.875C150.939 84.816 152.439 81.2517 152.439 76.1916C152.439 71.1316 150.939 67.577 147.957 65.5083C144.966 63.4493 140.29 62.4199 133.949 62.4199H107.047C105.924 62.4199 105.363 62.9831 105.363 64.1098V88.293C105.363 89.4196 105.924 89.9829 107.047 89.9829H133.949V89.9634ZM247.163 14.0534C247.531 13.3056 247.908 12.9268 248.286 12.9268H262.855C263.223 12.9268 263.6 13.1211 263.978 13.4901C264.346 13.8689 264.346 14.2477 263.978 14.6168L217.463 102.337C217.086 102.715 216.621 102.9 216.059 102.9C215.498 102.9 215.024 102.715 214.656 102.337L168.141 14.6168C167.763 14.2477 167.667 13.8689 167.86 13.4901C168.044 13.1211 168.509 12.9268 169.264 12.9268H183.272C184.017 12.9268 184.578 13.3056 184.956 14.0534L214.656 70.2867C214.656 70.6654 215.024 70.85 215.779 70.85C216.524 70.85 217.086 70.6654 217.463 70.2867L247.163 14.0534ZM263.978 88.8465C263.6 89.6041 263.039 89.9732 262.294 89.9732H247.724C247.347 89.9732 247.066 89.7886 246.882 89.4099C246.689 89.0408 246.601 88.662 246.601 88.2832L293.126 0.563303C293.494 0.194243 294.055 0 294.81 0C295.556 0 296.117 0.194243 296.495 0.563303L343 88.2832C343 88.662 342.903 89.0408 342.719 89.4099C342.526 89.7886 342.245 89.9732 341.877 89.9732H327.308C326.553 89.9732 325.991 89.6041 325.623 88.8465L296.475 32.6133C296.098 31.8655 295.536 31.4867 294.791 31.4867C294.036 31.4867 293.474 31.8655 293.107 32.6133L263.978 88.8465Z" fill="#004580"/>
</g>
<defs>
<clipPath id="clip0_316_1673">
<rect width="344.12" height="102.9" fill="white"/>
</clipPath>
</defs>
</svg>
