<svg width="397" height="173" viewBox="0 0 397 173" fill="none" xmlns="http://www.w3.org/2000/svg">
<path fill-rule="evenodd" clip-rule="evenodd" d="M4.4314 76.5923C6.53222 73.6089 8.6841 70.7239 12.7909 70.4358C18.7323 70.0127 23.5175 73.2004 24.8086 79.2877C29.5464 101.656 43.8035 115.618 64.0458 124.444C64.6293 124.7 65.1983 124.984 65.8293 125.283C65.1947 126.261 64.4689 125.969 63.9035 125.819C48.782 121.829 34.1164 116.774 21.4714 107.171C14.1696 101.627 8.4069 94.8797 5.39427 86.0533C5.22285 85.55 5.14626 84.9117 4.4314 84.8023V76.596V76.5923Z" fill="#D93C20"/>
<path fill-rule="evenodd" clip-rule="evenodd" d="M251.278 167.533C252.704 163.222 253.295 158.725 253.936 154.275C254.279 151.897 255.224 151.387 257.226 151.97C257.646 152.091 257.981 152.404 258.463 152.171C260.505 151.179 262.577 151.007 263.872 153.148C265.206 155.348 264.707 157.722 263.569 159.936C262.566 161.887 260.899 163.426 258.802 163.295C255.264 163.076 255.322 165.166 255.381 167.537H251.278V167.533ZM256.748 158.488C256.77 159.505 256.428 160.782 257.846 160.596C259.849 160.337 260.509 158.645 260.801 156.909C260.965 155.938 261.06 154.487 259.63 154.578C257.252 154.731 257.314 156.985 256.748 158.484V158.488Z" fill="#423D3A"/>
<path fill-rule="evenodd" clip-rule="evenodd" d="M175.375 167.533C175.524 166.088 176.37 164.743 175.925 162.89C173.223 163.929 170.823 163.692 169.977 160.431C169.09 157.014 171.275 153.035 174.565 151.937C175.517 151.62 176.556 151.441 177.559 151.426C181.652 151.368 181.973 151.824 181.126 155.92C180.328 159.786 179.569 163.659 178.792 167.529H175.375V167.533ZM177.53 156.109C177.665 155.358 178.106 154.293 176.804 154.366C174.561 154.497 173.898 156.295 173.533 158.126C173.321 159.177 173.657 160.592 174.875 160.359C176.994 159.954 177.333 157.97 177.534 156.109H177.53Z" fill="#423D3A"/>
<path fill-rule="evenodd" clip-rule="evenodd" d="M61.5948 95.3253C59.6436 80.6414 61.9195 66.5813 68.3933 53.3271C81.0493 27.4207 102.433 12.89 130.09 6.84287C139.843 4.70922 149.651 3.89953 159.432 6.81004C160.625 7.16383 161.818 7.55044 162.948 8.0647C166.701 9.77161 169.357 12.4742 169.776 16.7306C170.21 21.1219 167.267 23.6713 164.032 25.7028C158.758 29.0182 152.659 29.4631 146.667 30.0759C125.896 32.1986 106.226 37.6184 88.8763 49.7127C76.089 58.6266 66.3727 69.893 62.9261 85.5798C62.2258 88.7748 62.0252 92.0792 61.5912 95.3326L61.5948 95.3253Z" fill="#F3CB0F"/>
<path fill-rule="evenodd" clip-rule="evenodd" d="M163.769 76.9975C166.917 77.4826 169.689 78.0917 172.132 79.6455C175.214 81.6077 175.976 84.3066 174.288 87.5491C172.519 90.9519 169.459 92.8886 166.092 94.4168C158.262 97.9729 149.899 98.8008 141.47 98.8847C126.673 99.0343 111.869 98.8373 97.0717 98.9978C93.8621 99.0343 93.8694 98.075 94.8505 95.5876C96.7216 90.8498 98.5744 86.0792 100.008 81.1955C103.119 70.6076 110.154 64.0352 120.593 61.4493C136.907 57.4045 153.44 57.7947 169.973 60.1837C170.961 60.3259 171.946 60.7198 172.862 61.1466C177.446 63.2766 178.157 67.3396 174.576 71.0051C172.548 73.0804 169.937 74.1928 167.3 75.2797C166.209 75.7283 164.823 75.5788 163.773 76.9939L163.769 76.9975ZM116.818 91.4917C123.551 91.4917 130.269 91.6887 136.965 91.4188C141.24 91.2474 145.635 91.4917 149.756 89.8869C152.171 88.9496 154.695 87.6621 154.213 84.6787C153.787 82.049 151.026 82.2788 148.947 81.9979C142.378 81.1117 135.773 81.5894 129.186 81.5384C119.542 81.4618 119.542 81.5201 116.679 90.6966C116.65 90.7915 116.712 90.9118 116.822 91.4881L116.818 91.4917ZM122.686 74.3861C130.616 74.3861 138.213 74.4481 145.81 74.3423C147.593 74.3168 149.392 73.8062 151.146 73.3795C153.382 72.8397 155.552 71.5923 155.369 69.1851C155.172 66.6175 152.393 66.5482 150.489 66.4679C145.27 66.2527 140.007 66.0558 134.814 66.4898C129.711 66.9129 125.09 68.762 122.686 74.3861Z" fill="#322B28"/>
<path fill-rule="evenodd" clip-rule="evenodd" d="M62.4702 117.026C49.7158 108.237 41.3307 96.2043 36.7169 81.5715C31.4795 64.9582 30.9433 48.283 37.2567 31.7609C39.4779 25.9508 42.7896 20.8119 47.4435 16.6066C50.1461 14.1666 53.3047 12.6493 56.9154 12.3502C64.4726 11.7193 68.955 17.2011 66.9855 24.5321C66.1211 27.7453 64.4762 30.6193 62.948 33.5335C55.2486 48.2137 50.0878 63.6781 49.7924 80.3497C49.5516 93.9649 53.2208 106.431 63.0611 116.49C62.8641 116.669 62.6672 116.848 62.4739 117.03L62.4702 117.026Z" fill="#1E60A3"/>
<path fill-rule="evenodd" clip-rule="evenodd" d="M263.354 89.7769C263.386 90.4188 263.412 90.5356 263.397 90.645C262.438 97.0605 258.288 98.7638 252.306 99.2853C240.478 100.321 228.738 100.956 217.03 98.4574C214.466 97.9103 212.019 96.9912 209.779 95.6162C205.114 92.7567 203.867 88.6791 206.026 83.6204C208.379 78.113 212.901 74.8414 218.135 72.7333C231.925 67.1749 246.197 66.595 260.604 69.7936C264.459 70.6507 268.733 72.1352 268.949 77.0042C269.167 81.8624 265.097 83.686 261.308 84.9771C249.99 88.825 238.425 89.3356 226.702 87.0014C225.874 86.8372 224.755 85.5862 224.073 86.8409C223.482 87.9278 224.251 89.0438 225.116 89.8608C227.786 92.3811 231.21 92.7093 234.61 92.9938C244.322 93.8144 253.816 92.3665 263.361 89.7696L263.354 89.7769ZM240.89 74.4803C240.321 74.4803 239.752 74.4803 239.187 74.4803C235.372 74.5059 231.754 75.3192 228.504 77.3726C227.549 77.9744 226.608 78.9154 226.79 80.119C226.969 81.3189 228.227 81.4065 229.23 81.5232C232.491 81.8989 235.777 82.632 239.015 82.4678C242.108 82.311 245.416 82.6465 248.28 80.812C249.399 80.0971 250.369 79.2145 250.307 77.8869C250.234 76.3514 249.016 75.6475 247.638 75.1806C245.435 74.4366 243.17 74.4585 240.897 74.4767L240.89 74.4803Z" fill="#332C29"/>
<path fill-rule="evenodd" clip-rule="evenodd" d="M352.091 100.379C344.129 99.9887 336.167 99.9304 328.297 98.5006C326.25 98.1286 325.74 97.5633 326.502 95.488C328.654 89.6342 328.552 89.6451 334.449 91.1587C344.355 93.7045 354.385 94.4376 364.543 93.0516C365.105 92.975 365.714 92.9896 366.213 92.7635C367.195 92.3149 368.767 92.3003 368.777 90.8998C368.788 89.357 367.165 89.4007 366.177 89.3059C361.428 88.8391 356.665 88.4743 351.898 88.2008C347.459 87.9455 343.042 87.5589 338.812 86.1255C336.083 85.2027 333.235 84.0466 332.943 80.6802C332.662 77.4633 334.876 75.4062 337.353 73.8744C343.433 70.1104 350.359 69.1913 357.256 68.6369C368.256 67.7506 379.256 67.7981 390.216 69.6326C393.061 70.1068 392.846 71.0769 392.036 73.134C390.15 77.9265 390.227 77.9082 385.117 76.7448C376.057 74.6768 366.899 74.1187 357.679 75.3479C355.87 75.5886 352.912 75.5083 352.956 77.6858C352.992 79.4911 355.888 79.1228 357.606 79.3015C364.729 80.0419 371.863 80.6765 378.99 81.3987C381.379 81.643 383.673 82.3178 385.774 83.5141C389.177 85.4544 389.756 88.2227 387.473 91.4833C385.62 94.1349 382.801 95.3713 379.953 96.5311C370.988 100.186 361.483 99.9121 352.091 100.383V100.379Z" fill="#332C29"/>
<path fill-rule="evenodd" clip-rule="evenodd" d="M289.807 100.384C281.641 100.008 273.683 99.9278 265.819 98.4908C263.981 98.1552 263.31 97.7723 264.094 95.6532C266.315 89.6425 266.191 89.6206 272.191 91.1817C281.98 93.7274 291.901 94.3985 301.938 93.0892C303.7 92.8594 306.402 92.7865 306.311 90.8206C306.223 88.8693 303.437 89.1246 301.745 88.9714C295.409 88.3952 289.052 88.0304 282.71 87.5271C280.095 87.3192 277.567 86.67 275.152 85.6196C269.547 83.1796 268.894 78.8248 273.599 74.8675C276.447 72.4713 279.898 71.2494 283.461 70.4871C298.415 67.2812 313.434 67.4016 328.494 69.7504C330.474 70.0604 330.489 70.8117 329.898 72.453C327.932 77.9239 328.001 77.9166 322.479 76.6765C313.299 74.6158 304.031 74.1162 294.709 75.4328C293.13 75.6553 290.507 75.6517 290.537 77.5373C290.569 79.5104 293.155 79.0728 294.702 79.2406C301.818 80.0065 308.952 80.6557 316.078 81.3195C318.019 81.5019 319.875 81.9869 321.67 82.7054C327.407 84.9923 328.122 89.2669 323.387 93.2971C320.652 95.624 317.315 96.7802 313.926 97.7905C305.968 100.158 297.751 99.9606 289.807 100.387V100.384Z" fill="#332C29"/>
<path fill-rule="evenodd" clip-rule="evenodd" d="M176.52 98.9395C179.675 90.3612 182.658 82.3263 185.558 74.2586C185.984 73.0659 186.645 72.6939 187.804 72.7012C192.805 72.7267 197.809 72.7377 202.809 72.6939C204.308 72.6793 204.844 72.9456 204.21 74.6197C201.369 82.1294 198.633 89.6792 195.909 97.2326C195.456 98.4873 194.778 98.9833 193.421 98.9687C187.969 98.9031 182.52 98.9432 176.52 98.9432V98.9395Z" fill="#352F2B"/>
<path fill-rule="evenodd" clip-rule="evenodd" d="M196.251 69.0937C193.972 69.225 191.061 68.8603 188.279 67.7041C187.082 67.2081 185.915 66.5078 185.762 65.162C185.609 63.7797 186.623 62.8387 187.793 62.2697C194.669 58.9179 201.781 58.4109 208.94 61.0734C211.895 62.1749 211.935 64.7827 209.123 66.4057C205.384 68.5649 201.219 69.112 196.248 69.0937H196.251Z" fill="#332C29"/>
<path fill-rule="evenodd" clip-rule="evenodd" d="M89.4016 128.555C90.7803 122.61 92.086 116.902 93.4428 111.208C93.6142 110.49 93.7528 109.458 94.785 109.498C98.1733 109.636 101.631 108.845 104.935 110.037C108.28 111.245 109.046 114.845 106.493 117.361C105.606 118.233 104.425 118.605 106.27 119.841C107.685 120.786 107.93 122.456 107.222 124.141C106.099 126.822 103.976 128.332 101.222 128.5C97.3818 128.733 93.5157 128.558 89.4016 128.558V128.555ZM96.1892 126.436C97.9763 126.22 99.8109 126.18 101.54 125.743C103.148 125.334 104.363 124.233 104.239 122.332C104.122 120.545 102.747 120.261 101.335 120.148C99.6504 120.009 97.9471 119.746 96.2767 119.867C92.8009 120.115 93.9899 123.335 93.5011 125.152C92.9723 127.118 95.2263 125.954 96.1855 126.439L96.1892 126.436ZM95.3284 117.427C98.042 117.737 100.632 117.875 103.123 116.872C104.392 116.362 105.158 115.392 104.932 113.951C104.724 112.609 103.728 112.255 102.495 112.047C97.1557 111.15 96.5575 111.54 95.3284 117.43V117.427Z" fill="#3B3531"/>
<path fill-rule="evenodd" clip-rule="evenodd" d="M324.106 117.602C327.312 117.602 330.496 117.529 333.676 117.657C334.413 117.686 336.022 116.723 335.894 118.641C335.795 120.126 334.49 119.834 333.509 119.841C330.777 119.86 328.041 119.809 325.31 119.863C323.566 119.9 321.239 124.451 322.22 125.863C322.673 126.512 323.457 126.315 324.121 126.319C327.195 126.333 330.27 126.301 333.344 126.348C334.001 126.359 335.121 125.918 335 127.304C334.92 128.234 334.388 128.602 333.388 128.595C328.833 128.544 324.277 128.525 319.726 128.595C318.073 128.62 318.176 127.778 318.449 126.665C319.722 121.486 321.035 116.318 322.22 111.121C322.501 109.903 322.939 109.407 324.219 109.428C328.319 109.49 332.418 109.443 336.518 109.461C337.24 109.461 338.203 109.191 338.119 110.523C338.053 111.551 337.433 111.905 336.543 111.916C334.493 111.945 332.444 111.934 330.394 111.934C326.751 111.934 324.657 113.821 324.11 117.595L324.106 117.602Z" fill="#3B3531"/>
<path fill-rule="evenodd" clip-rule="evenodd" d="M383.487 109.268C386.386 109.286 389.206 109.523 390.847 112.452C391.336 113.327 392.127 114.334 390.789 115.023C389.709 115.581 388.805 115.45 388.068 114.035C386.518 111.048 383.812 111.142 381.021 111.97C379.997 112.277 379.128 112.791 379.059 114.024C378.99 115.238 379.705 115.88 380.722 116.314C382.805 117.197 384.942 117.974 386.955 119.002C390.938 121.037 391.194 125.338 387.317 127.519C383.531 129.645 379.482 129.488 375.612 127.519C374.865 127.136 374.099 126.315 373.858 125.534C373.545 124.524 372.297 123.167 374 122.296C375.784 121.384 376.116 122.482 376.605 124.061C377.203 125.998 379.176 126.406 381.072 126.494C383.06 126.589 385.011 126.413 386.299 124.674C387.24 123.397 386.667 122.215 385.416 121.552C383.822 120.709 382.119 120.075 380.46 119.36C377.98 118.295 375.426 117.058 375.853 113.849C376.313 110.409 379.096 109.523 382.123 109.275C382.575 109.239 383.031 109.271 383.483 109.271L383.487 109.268Z" fill="#3B3531"/>
<path fill-rule="evenodd" clip-rule="evenodd" d="M356.435 109.283C359.368 109.265 362.172 109.623 363.744 112.566C364.197 113.412 364.904 114.477 363.412 115.093C362.336 115.535 361.538 115.429 361.075 114.069C360.433 112.19 358.667 111.723 356.953 111.552C354.991 111.359 352.686 111.472 351.997 113.583C351.183 116.071 353.729 116.312 355.279 117.037C356.92 117.807 358.682 118.336 360.25 119.222C363.631 121.133 363.741 125.014 360.579 127.293C357.602 129.438 351.212 129.5 348.269 127.41C347.211 126.659 346.442 125.722 346.289 124.376C346.176 123.373 345.807 122.377 347.408 122.082C348.659 121.852 348.78 122.348 349.184 123.358C350.476 126.579 355.764 127.731 358.405 125.437C360.068 123.993 359.973 122.424 358 121.348C356.417 120.484 354.685 119.886 353.014 119.189C350.468 118.128 348.181 116.735 348.842 113.492C349.465 110.429 351.953 109.55 354.728 109.294C355.29 109.243 355.863 109.287 356.432 109.287L356.435 109.283Z" fill="#3B3531"/>
<path fill-rule="evenodd" clip-rule="evenodd" d="M251.278 156.186C251.03 157.572 250.647 159.578 250.322 161.591C250.081 163.087 249.122 163.32 247.846 163.185C246.066 162.999 246.77 161.891 246.956 160.935C247.24 159.487 247.521 158.035 247.751 156.58C247.871 155.807 248.064 154.88 247.007 154.611C246.062 154.37 245.449 155.074 245.209 155.825C244.651 157.543 244.005 159.294 243.852 161.07C243.684 162.974 242.743 163.462 241.186 163.16C239.293 162.795 240.438 161.329 240.453 160.402C240.474 159.173 240.905 157.955 241.091 156.722C241.204 155.978 241.532 155.004 240.558 154.658C239.409 154.253 238.844 155.3 238.574 156.08C238.027 157.678 237.662 159.348 237.367 161.015C237.09 162.583 236.473 163.517 234.697 163.189C232.669 162.813 233.796 161.54 233.939 160.574C234.103 159.454 234.099 158.221 234.595 157.255C235.547 155.398 233.501 151.317 237.717 151.985C239.949 152.338 242.353 149.986 244.337 152.488C245.22 153.6 245.632 152.276 246.219 152.036C249.677 150.617 251.438 151.813 251.278 156.186Z" fill="#45413E"/>
<path fill-rule="evenodd" clip-rule="evenodd" d="M238.056 115.873C238.483 114.064 238.884 112.412 239.264 110.756C239.57 109.425 240.536 109.264 241.616 109.501C242.842 109.771 242.335 110.701 242.167 111.409C240.963 116.479 239.672 121.53 238.541 126.618C238.126 128.496 237.159 129.361 235.627 128.146C234.46 127.223 234.114 128.303 233.479 128.515C229.179 129.944 225.98 127.683 225.958 123.117C225.929 116.253 231.579 112.7 238.056 115.87V115.873ZM228.756 122.982C228.763 125.13 230.021 126.618 231.885 126.676C234.504 126.76 236.977 123.522 236.962 120.133C236.955 117.923 235.955 116.749 233.716 116.738C231.163 116.723 228.745 119.783 228.756 122.985V122.982Z" fill="#3D3733"/>
<path fill-rule="evenodd" clip-rule="evenodd" d="M118.164 118.798C120.454 114.348 126.439 112.886 129.963 115.577C130.955 116.336 131.458 117.346 131.359 118.528C131.1 121.672 129.405 124.564 129.766 127.85C129.879 128.882 128.58 128.762 128.278 128.532C126.279 127.008 124.524 128.489 122.683 128.82C119.601 129.375 116.96 127.901 116.588 125.418C116.223 122.992 118.003 120.928 121.096 120.454C122.887 120.18 124.736 120.286 126.538 120.067C127.223 119.983 128.172 119.896 128.216 118.754C128.259 117.642 127.745 117.073 126.695 116.865C124.966 116.518 123.098 116.343 121.968 117.835C120.874 119.283 119.71 119.013 118.16 118.801L118.164 118.798ZM127.523 121.982C125.553 122.15 123.872 122.226 122.208 122.46C120.79 122.66 119.385 123.247 119.648 124.976C119.911 126.712 121.468 126.825 122.872 126.687C125.465 126.431 126.87 124.852 127.523 121.982Z" fill="#413A36"/>
<path fill-rule="evenodd" clip-rule="evenodd" d="M87.2059 163.19C86.5239 163.19 85.8382 163.139 85.1634 163.201C83.2049 163.372 82.2311 163.066 82.8949 160.615C83.8395 157.124 84.5033 153.528 84.9191 149.932C85.1707 147.766 86.119 147.353 87.9864 147.51C89.5657 147.645 91.1668 147.492 92.7534 147.558C93.5193 147.591 94.7776 147.054 94.6208 148.663C94.515 149.728 94.2706 150.702 92.8263 150.621C91.8087 150.563 90.7839 150.621 89.759 150.632C88.373 150.647 88.074 151.654 88.0667 152.711C88.0594 153.929 89.1061 153.616 89.8283 153.678C90.3936 153.725 90.9662 153.656 91.5316 153.703C92.2464 153.762 93.3369 153.452 93.1108 154.779C92.9686 155.611 92.9212 156.665 91.5863 156.618C90.565 156.577 89.5401 156.661 88.5189 156.61C86.6515 156.519 87.1038 158.051 86.8922 158.999C86.5932 160.338 87.8113 159.802 88.4095 160.097C89.7298 160.746 92.3923 158.572 92.4105 161.337C92.4288 164.448 89.5073 162.752 87.8806 163.186C87.6691 163.241 87.4284 163.194 87.2023 163.194L87.2059 163.19Z" fill="#443F3C"/>
<path fill-rule="evenodd" clip-rule="evenodd" d="M110.213 151.901C112.631 151.591 115.023 150.785 116.242 153.644C117.259 156.029 116.056 160.202 113.652 161.905C111.394 163.503 108.907 164.126 106.285 162.729C104.826 161.956 104.745 160.519 104.986 159.14C105.632 155.453 106.394 151.788 107.083 148.111C107.419 146.32 108.75 146.459 109.99 146.645C111.515 146.871 110.763 147.907 110.618 148.742C110.446 149.72 110.362 150.719 110.216 151.901H110.213ZM109.815 160.672C111.861 160.049 112.54 158.415 112.788 156.547C112.908 155.643 112.74 154.465 111.555 154.567C109.184 154.771 109.177 156.934 108.67 158.601C108.364 159.615 108.728 160.344 109.819 160.672H109.815Z" fill="#443F3C"/>
<path fill-rule="evenodd" clip-rule="evenodd" d="M263.339 124.155C261.72 127.704 258.926 129.035 255.581 128.919C252.693 128.82 250.322 127.518 249.83 124.21C249.228 120.187 251.46 116.179 255.027 114.898C260.086 113.082 264.386 115.624 264.327 120.278C264.309 121.952 263.733 122.452 262.143 122.39C259.652 122.295 257.15 122.456 254.659 122.343C252.142 122.226 252.335 123.466 253.2 125.023C254.349 127.099 257.27 127.325 259.294 125.209C260.472 123.98 261.464 123.364 263.335 124.152L263.339 124.155ZM253.273 120.344H255.308C256.665 120.344 258.025 120.395 259.378 120.322C260.082 120.282 261.085 120.789 261.421 119.778C261.793 118.662 261.06 117.794 260.257 117.163C258.178 115.522 255.414 116.678 253.276 120.344H253.273Z" fill="#3D3733"/>
<path fill-rule="evenodd" clip-rule="evenodd" d="M201.383 120.79C201.274 125.484 197.488 129.12 192.797 129.033C189.044 128.963 186.356 126.454 186.356 123.008C186.353 118.065 190.409 114.079 195.256 114.258C199.198 114.404 201.478 116.829 201.383 120.79ZM193.173 126.695C195.952 126.637 198.629 123.551 198.586 120.338C198.553 117.894 197.163 116.526 194.782 116.479C191.897 116.424 189.551 119.448 189.526 122.891C189.508 125.389 190.606 126.72 193.173 126.691V126.695Z" fill="#413A36"/>
<path fill-rule="evenodd" clip-rule="evenodd" d="M155.005 119.328C154.509 121.429 153.786 124.278 153.174 127.148C152.893 128.457 152.123 128.731 150.974 128.57C149.359 128.348 150.136 127.221 150.289 126.502C150.734 124.405 151.354 122.341 151.835 120.251C152.08 119.19 152.729 117.917 151.587 117.107C150.504 116.337 149.129 116.633 147.987 117.144C145.956 118.055 145.095 119.904 144.599 121.958C144.172 123.716 143.607 125.452 143.348 127.235C143.126 128.789 142.123 128.636 141.127 128.559C139.351 128.421 140.423 127.173 140.551 126.572C141.262 123.143 142.126 119.744 142.929 116.334C143.147 115.411 143.695 114.116 144.574 114.787C146.802 116.498 148.447 114.547 150.34 114.317C153.407 113.945 155.158 115.513 155.012 119.328H155.005Z" fill="#3D3733"/>
<path fill-rule="evenodd" clip-rule="evenodd" d="M125.863 151.324C128.449 151.368 129.977 151.988 128.938 155.121C128.307 157.032 128.259 159.136 127.953 161.153C127.833 161.93 127.533 163.323 126.961 163.035C124.236 161.66 121.337 164.757 118.835 162.627C117.029 161.088 117.285 158.969 117.857 156.937C118.755 153.738 120.921 152.01 124.207 151.634C124.765 151.572 125.312 151.426 125.863 151.32V151.324ZM123.893 154.406C122.241 155.197 121.249 156.649 121.297 158.794C121.315 159.64 121.556 160.573 122.551 160.267C124.988 159.512 124.685 157.109 125.217 155.248C125.433 154.497 124.834 154.344 123.893 154.406Z" fill="#45413E"/>
<path fill-rule="evenodd" clip-rule="evenodd" d="M366.848 156.245C366.618 157.55 366.25 159.556 365.922 161.566C365.645 163.288 364.419 163.379 363.117 163.16C361.381 162.872 362.278 161.654 362.417 160.771C362.628 159.429 362.964 158.108 363.172 156.766C363.285 156.022 363.606 155.067 362.603 154.698C361.483 154.286 360.951 155.22 360.517 155.989C359.725 157.39 359.452 158.958 359.28 160.548C359.109 162.12 358.744 163.488 356.636 163.204C353.937 162.835 355.833 161.198 355.786 160.136C355.75 159.359 355.95 158.557 356.107 157.78C357.362 151.54 357.829 151.171 364.051 151.452C366.243 151.551 366.987 152.623 366.852 156.241L366.848 156.245Z" fill="#45413E"/>
<path fill-rule="evenodd" clip-rule="evenodd" d="M130.189 161.917C130.765 158.573 131.239 155.786 131.735 153.007C131.79 152.693 132.045 152.135 132.114 152.15C134.908 152.711 137.768 150.764 140.397 152.007C142.553 153.029 141.875 155.275 141.477 157.176C141.156 158.722 140.777 160.265 140.576 161.83C140.346 163.62 139.041 163.208 138.001 163.146C136.506 163.055 137.046 161.862 137.137 161.071C137.305 159.616 137.633 158.179 137.866 156.727C137.987 155.965 138.26 155.013 137.323 154.67C136.236 154.272 135.532 155.192 135.266 155.994C134.631 157.912 134.128 159.886 133.767 161.873C133.489 163.394 132.45 163.146 131.462 163.183C130.05 163.237 130.141 162.296 130.185 161.913L130.189 161.917Z" fill="#45413E"/>
<path fill-rule="evenodd" clip-rule="evenodd" d="M343.017 153.623C342.525 156.303 342.018 158.984 341.547 161.669C341.445 162.241 341.285 163.168 340.792 162.985C338.228 162.026 335.777 163.868 333.301 163.171C332.05 162.817 331.521 161.588 331.627 160.45C331.871 157.861 332.283 155.275 332.801 152.725C333.097 151.278 334.453 151.847 335.383 151.825C336.696 151.792 336.339 152.718 336.204 153.495C335.912 155.173 335.609 156.851 335.383 158.539C335.296 159.181 335.161 160.005 336.04 160.25C336.773 160.45 337.349 159.976 337.743 159.407C339.034 157.558 339.133 155.337 339.461 153.225C339.735 151.456 340.927 151.847 342.003 151.799C343.59 151.726 343.145 152.751 343.021 153.626L343.017 153.623Z" fill="#443F3C"/>
<path fill-rule="evenodd" clip-rule="evenodd" d="M167.664 123.157C167.697 124.54 167.683 125.987 169.349 126.494C170.881 126.961 172.275 126.618 173.35 125.375C173.792 124.864 174.12 124.251 174.569 123.748C175.371 122.851 176.411 123.365 177.06 123.774C177.826 124.255 176.969 124.977 176.68 125.491C175.196 128.125 171.797 129.456 168.788 128.73C166.133 128.088 164.717 126.396 164.48 123.733C164.156 120.035 166.49 116.085 169.612 114.914C173.135 113.594 177.023 114.521 178.026 117.03C178.256 117.606 179.073 118.569 177.91 119.043C177.231 119.32 176.013 119.663 175.71 118.912C174.656 116.311 172.639 116.275 170.703 117.132C168.244 118.222 167.759 120.677 167.661 123.157H167.664Z" fill="#413A36"/>
<path fill-rule="evenodd" clip-rule="evenodd" d="M199.034 159.196C200.347 160.906 201.649 160.764 203.01 160.283C203.721 160.031 204.388 159.943 204.611 160.866C204.801 161.654 204.819 162.321 203.852 162.836C201.886 163.883 197.863 163.441 196.507 161.866C194.84 159.929 195.172 156.023 197.203 153.652C199.001 151.555 202.605 150.803 204.611 152.116C205.778 152.882 206.212 154.002 206.084 155.348C205.953 156.727 205.202 157.722 203.889 158.105C202.415 158.532 200.887 158.787 199.038 159.192L199.034 159.196Z" fill="#45413E"/>
<path fill-rule="evenodd" clip-rule="evenodd" d="M194.424 153.147C193.906 156.142 193.476 158.709 192.998 161.273C192.896 161.817 192.568 162.798 192.429 162.78C189.694 162.481 186.845 163.994 184.321 162.904C182.198 161.985 182.881 159.599 183.205 157.706C183.475 156.145 183.938 154.617 184.128 153.052C184.358 151.156 185.744 151.849 186.71 151.831C188.315 151.798 187.658 153.049 187.571 153.796C187.403 155.255 187.049 156.692 186.82 158.144C186.699 158.91 186.455 159.866 187.429 160.194C188.537 160.573 189.201 159.588 189.453 158.83C190.095 156.908 190.532 154.909 190.948 152.917C191.324 151.108 192.692 151.867 193.658 151.842C195.019 151.809 194.413 152.892 194.424 153.147Z" fill="#443F3C"/>
<path fill-rule="evenodd" clip-rule="evenodd" d="M164.55 156.58C164.444 160.625 161.442 163.587 157.616 163.419C154.687 163.291 152.784 161.242 152.871 158.313C152.988 154.414 156.186 151.274 159.896 151.423C162.828 151.54 164.626 153.535 164.55 156.58ZM158.995 154.37C157.069 155.027 156.766 156.697 156.69 158.426C156.642 159.509 157.076 160.782 158.291 160.53C160.421 160.093 160.807 158.105 160.942 156.281C161.023 155.172 160.337 154.377 158.995 154.37Z" fill="#423D3A"/>
<path fill-rule="evenodd" clip-rule="evenodd" d="M221.213 159.767C221.615 157.688 222.118 155.361 222.494 153.009C222.789 151.16 224.171 151.812 225.138 151.845C226.724 151.896 225.98 153.169 225.907 153.906C225.765 155.372 225.411 156.813 225.182 158.272C225.061 159.045 224.839 159.993 225.904 160.234C226.79 160.434 227.337 159.72 227.76 159.027C228.745 157.422 228.847 155.547 229.084 153.782C229.336 151.915 230.277 151.59 231.801 151.798C233.847 152.079 232.604 153.508 232.629 154.417C232.651 155.186 232.421 155.999 232.144 156.733C231.371 158.804 232.414 161.944 230.28 162.878C228.683 163.578 226.323 162.918 224.233 163.323C222.202 163.713 221.334 161.988 221.213 159.767Z" fill="#443F3C"/>
<path fill-rule="evenodd" clip-rule="evenodd" d="M295.73 158.605C295.96 157.303 296.354 155.297 296.657 153.28C296.938 151.402 298.327 151.738 299.516 151.829C301.198 151.96 300.278 153.113 300.165 153.853C299.925 155.425 299.585 156.979 299.286 158.54C299.144 159.276 299.297 159.969 299.998 160.276C300.745 160.6 301.285 159.999 301.672 159.484C302.89 157.872 303.116 155.914 303.276 153.999C303.444 152.011 304.542 151.479 306.249 151.814C308.353 152.23 306.854 153.539 306.763 154.418C306.595 155.994 306.285 157.559 305.968 159.116C305.501 161.417 305.83 164.762 301.69 162.504C301.438 162.366 300.898 162.792 300.479 162.916C296.857 163.992 295.584 163.033 295.727 158.602L295.73 158.605Z" fill="#423D3A"/>
<path fill-rule="evenodd" clip-rule="evenodd" d="M275.226 158.966C276.261 160.903 277.651 160.75 279.124 160.363C279.712 160.21 280.463 159.619 280.704 160.746C280.897 161.651 281.039 162.563 279.777 162.92C277.268 163.628 274.777 163.927 272.756 161.891C271.111 160.232 271.465 156.173 273.252 153.951C275.04 151.734 278.475 150.815 280.598 151.985C281.838 152.671 282.254 153.747 282.221 155.122C282.188 156.537 281.554 157.449 280.303 158.069C278.774 158.828 277.06 158.653 275.229 158.966H275.226Z" fill="#423D3A"/>
<path fill-rule="evenodd" clip-rule="evenodd" d="M379.986 156.285C380.048 160.417 377.301 163.412 373.435 163.434C370.444 163.448 368.504 161.574 368.449 158.616C368.376 154.666 371.316 151.485 375.084 151.434C378.038 151.394 379.935 153.276 379.982 156.285H379.986ZM372.228 157.729C372.228 159.148 372.195 160.662 373.701 160.541C375.788 160.374 376.152 158.444 376.378 156.737C376.539 155.526 376.254 154.202 374.701 154.414C372.782 154.673 372.399 156.343 372.224 157.733L372.228 157.729Z" fill="#423D3A"/>
<path fill-rule="evenodd" clip-rule="evenodd" d="M347.616 159.202C348.798 160.887 350.111 160.705 351.486 160.377C352.139 160.22 353.065 159.454 353.167 160.957C353.218 161.733 353.35 162.397 352.343 162.89C350.29 163.893 346.387 163.407 345.059 161.781C343.418 159.771 343.936 155.61 346.183 153.381C348.254 151.324 350.731 150.777 353.28 152.251C355.527 153.553 355.1 156.678 352.722 158.053C351.209 158.929 349.429 158.411 347.62 159.199L347.616 159.202Z" fill="#423D3A"/>
<path fill-rule="evenodd" clip-rule="evenodd" d="M324.219 163.379C324.015 163.361 323.395 163.444 322.903 163.233C322.199 162.93 320.831 163.109 321.272 161.668C321.56 160.735 321.827 159.615 323.337 160.392C324.117 160.793 325.281 161.128 325.773 160.18C326.375 159.024 325.073 158.776 324.372 158.309C322.348 156.952 321.695 155.249 323.238 153.156C324.376 151.613 328.508 150.912 329.851 151.853C330.529 152.331 330.146 152.787 330.077 153.312C329.891 154.662 329.059 154.541 328.107 154.275C327.429 154.086 326.725 154.016 326.444 154.862C326.203 155.599 326.863 155.818 327.334 156.077C329.19 157.091 330.441 158.426 329.646 160.72C329.063 162.409 327.111 163.382 324.216 163.375L324.219 163.379Z" fill="#443F3C"/>
<path fill-rule="evenodd" clip-rule="evenodd" d="M385.533 154.72C385.708 155.781 386.449 155.956 387.003 156.281C388.352 157.069 389.49 158.076 389.253 159.75C389.016 161.435 387.962 162.602 386.241 163.065C384.439 163.546 382.641 163.689 380.974 162.711C380.172 162.241 380.708 161.555 380.938 160.931C381.248 160.085 381.725 160.016 382.502 160.33C383.425 160.702 384.705 161.208 385.168 160.067C385.701 158.761 384.063 158.619 383.345 158.039C381.302 156.383 381.317 154.629 383.013 152.823C384.319 151.43 388.465 150.952 389.37 151.996C389.815 152.513 389.479 153.064 389.392 153.604C389.279 154.308 388.816 154.592 388.196 154.417C387.287 154.158 386.43 154.005 385.533 154.72Z" fill="#423D3A"/>
<path fill-rule="evenodd" clip-rule="evenodd" d="M310.961 163.4C310.418 163.371 309.915 163.466 309.521 163.302C308.704 162.959 307.241 163.247 307.573 161.606C307.869 160.132 308.634 159.862 310.006 160.53C310.626 160.833 311.691 161.062 312.099 160.121C312.548 159.093 311.527 158.838 310.885 158.422C308.926 157.153 307.799 155.544 309.451 153.352C311.133 151.12 313.544 151.262 315.962 151.806C316.724 151.977 316.626 152.499 316.483 153.115C316.243 154.14 315.874 154.807 314.649 154.351C313.872 154.063 313.004 153.932 312.628 154.877C312.355 155.566 313.106 155.785 313.573 156.058C315.356 157.094 316.855 158.323 315.907 160.672C315.006 162.912 313.026 163.36 310.961 163.4Z" fill="#443F3C"/>
<path fill-rule="evenodd" clip-rule="evenodd" d="M218.613 151.391C219.134 152.029 220.878 150.927 220.659 152.802C220.52 153.98 220.086 154.604 218.722 154.531C216.388 154.403 215.184 155.687 214.98 157.978C214.823 159.739 215.739 160.545 217.373 160.458C218.248 160.41 219.131 159.757 219.182 161.38C219.226 162.737 218.525 163.233 217.395 163.343C215.432 163.532 213.488 163.474 212.11 161.756C210.665 159.958 210.851 157.948 211.61 155.957C212.817 152.791 215.451 151.719 218.616 151.391H218.613Z" fill="#45413E"/>
<path fill-rule="evenodd" clip-rule="evenodd" d="M288.049 160.424C288.038 157.732 289.198 155.668 288.002 153.243C287.67 152.572 289.439 149.413 291.937 148.964C293.093 148.756 293.998 148.964 293.294 150.252C292.05 152.531 295.683 151.021 295.256 153.14C294.848 155.168 292.211 153.691 292.302 155.686C292.375 157.368 290.365 159.264 293.031 160.738C293.575 161.037 293.487 162.897 292.371 163.236C290.857 163.696 289.121 163.758 288.242 161.945C287.962 161.369 288.067 160.606 288.049 160.428V160.424Z" fill="#443F3C"/>
<path fill-rule="evenodd" clip-rule="evenodd" d="M148.082 163.367C146.127 163.378 144.475 162.769 143.673 160.854C142.6 158.294 143.257 155.945 144.942 153.892C146.408 152.101 148.505 151.503 150.712 151.484C151.438 151.477 152.769 151.244 152.772 152.601C152.776 153.651 152.375 154.636 150.96 154.501C149.297 154.344 148.115 155.088 147.386 156.543C146.346 158.615 147.156 160.282 149.315 160.46C150.19 160.533 151.419 159.596 151.401 161.507C151.387 163.137 150.241 163.221 149.103 163.367C148.768 163.411 148.425 163.375 148.082 163.375V163.367Z" fill="#443F3C"/>
<path fill-rule="evenodd" clip-rule="evenodd" d="M308.948 109.469C310.309 109.338 310.513 109.944 310.239 111.103C308.97 116.479 307.744 121.87 306.53 127.257C306.173 128.851 304.951 128.752 303.871 128.519C302.416 128.202 303.251 127.024 303.404 126.334C304.52 121.381 305.717 116.447 306.953 111.526C307.208 110.513 307.27 109.101 308.944 109.473L308.948 109.469Z" fill="#3D3733"/>
<path fill-rule="evenodd" clip-rule="evenodd" d="M265.538 161.446C266.417 157 267.362 152.569 268.135 148.105C268.42 146.456 269.426 146.529 270.594 146.587C272.352 146.671 271.815 147.948 271.648 148.834C270.856 153.065 269.882 157.263 269.171 161.501C268.909 163.073 268.099 163.201 266.844 163.219C265.447 163.237 265.403 162.475 265.535 161.446H265.538Z" fill="#45413E"/>
<path fill-rule="evenodd" clip-rule="evenodd" d="M94.4346 161.54C95.2699 157.05 96.0941 152.819 96.8236 148.574C97.1227 146.827 98.1184 146.269 99.6976 146.604C101.733 147.038 100.438 148.395 100.285 149.3C99.6101 153.326 98.7712 157.327 98.1184 161.354C97.8448 163.046 96.8564 163.276 95.4595 163.192C93.9714 163.105 94.2231 162.222 94.4383 161.54H94.4346Z" fill="#45413E"/>
<path fill-rule="evenodd" clip-rule="evenodd" d="M279.96 110.602C278.592 116.325 277.22 121.924 275.926 127.54C275.608 128.919 274.627 128.543 273.803 128.551C272.362 128.565 272.964 127.591 273.117 126.92C274.321 121.635 275.55 116.354 276.772 111.073C277.031 109.957 277.571 109.304 278.887 109.424C279.814 109.512 280.047 109.917 279.96 110.602Z" fill="#3D3733"/>
<path fill-rule="evenodd" clip-rule="evenodd" d="M359.371 150.712C359.663 149.013 359.889 147.729 361.166 147.495C362.709 147.211 364.321 148.042 365.947 147.24C366.327 147.054 366.308 148.134 366.155 148.644C365.82 149.764 364.795 150.668 363.901 150.202C362.369 149.403 361.148 150.377 359.371 150.712Z" fill="#45413E"/>
<path fill-rule="evenodd" clip-rule="evenodd" d="M63.0611 116.486C63.5972 116.949 64.1334 117.412 65.0379 118.189C63.4732 118.306 62.9444 117.715 62.4702 117.022C62.6672 116.844 62.8641 116.665 63.0574 116.482L63.0611 116.486Z" fill="#1E60A3"/>
</svg>
