<svg width="398" height="81" viewBox="0 0 398 81" fill="none" xmlns="http://www.w3.org/2000/svg">
<path d="M18.0553 40.1495L9.07144 49.1667L0 40.1495L9.06754 31.0524L18.0553 40.1495ZM40.0188 18.1143L55.4924 33.6386L64.5631 24.5445L40.0188 0L15.4737 24.6253L24.5443 33.7193L40.018 18.1143H40.0188ZM70.97 31.0524L61.9822 40.1495L71.0497 49.2467L80.1141 40.1495L70.97 31.0524ZM40.0188 62.1847L24.5451 46.5797L15.4744 55.6769L40.0196 80.2982L64.5647 55.673L55.494 46.5789L40.0203 62.1839L40.0188 62.1847ZM40.0188 49.1698L49.0863 40.0695L40.0188 31.0563L30.9512 40.1503L40.0188 49.1675V49.1706V49.1698ZM135.377 50.1069V49.9532C135.377 44.0712 132.249 41.0905 127.17 39.1293C130.295 37.4065 132.952 34.5788 132.952 29.6409V29.4872C132.952 22.5849 127.403 18.1151 118.492 18.1151H98.0929V62.1079H118.963C128.888 62.1847 135.378 58.1062 135.378 50.11V50.1069H135.377ZM123.338 31.29C123.338 34.5819 120.679 35.9142 116.381 35.9142H107.474V26.5826H117.008C121.073 26.5826 123.338 28.2286 123.338 31.1331V31.2907V31.29ZM125.762 48.8554C125.762 52.1473 123.184 53.6396 118.959 53.6396H107.474V43.9904H118.649C123.575 43.9904 125.763 45.7971 125.763 48.7746V48.8546L125.762 48.8554ZM155.619 62.1847V18.1143H145.928V62.1079H155.619V62.1847ZM207.52 62.1847V18.1143H197.982V45.249L177.425 18.1143H168.514V62.1079H178.052V34.1906L199.312 62.1847H207.519H207.52ZM260.979 62.1847L242.146 17.8799H233.239L214.401 62.1847H224.329L228.314 52.3049H246.839L250.825 62.1847H260.979H260.979ZM243.394 43.7559H231.749L237.611 29.4864L243.394 43.7559ZM307.021 62.1847V18.1143H297.483V45.249L276.926 18.1143H268.015V62.1079H277.553V34.1906L298.813 62.1847H307.02H307.021ZM356.807 55.048L350.634 48.8546C347.193 51.9897 344.144 54.027 339.065 54.027C331.562 54.027 326.326 47.7536 326.326 40.2256V39.9911C326.326 32.4631 331.638 26.2697 339.065 26.2697C343.441 26.2697 346.882 28.1501 350.321 31.2084L356.494 24.0717C352.432 20.0732 347.506 17.2494 339.222 17.2494C325.779 17.2494 316.322 27.5212 316.322 39.9911V40.1487C316.322 52.7723 325.933 62.8097 338.832 62.8097C347.273 62.8897 352.275 59.909 356.807 55.0472V55.048ZM398 62.1847V53.5596H374.159V44.3048H394.872V35.6797H374.159V26.7394H397.687V18.1143H364.624V62.1079H398V62.1847Z" fill="#F0B90B"/>
</svg>
