<svg width="369" height="120" viewBox="0 0 369 120" fill="none" xmlns="http://www.w3.org/2000/svg">
<mask id="mask0_316_1857" style="mask-type:luminance" maskUnits="userSpaceOnUse" x="2" y="2" width="365" height="115">
<path d="M366.62 2.38086H2.38086V116.652H366.62V2.38086Z" fill="white"/>
</mask>
<g mask="url(#mask0_316_1857)">
<path d="M26.5841 47.2164C21.426 47.2164 17.4583 49.597 14.6809 53.168V31.7422H2.38086V90.4648H15.0776V84.9099C17.8551 88.8777 22.2196 91.2583 26.9809 91.2583C38.0905 91.2583 45.2325 82.5293 45.2325 69.8325C45.2325 55.9454 37.6938 47.2164 26.5841 47.2164ZM23.8067 80.1486C18.6486 80.1486 15.0776 75.7841 15.0776 69.039C15.0776 62.6906 18.6486 57.9293 23.8067 57.9293C28.9647 57.9293 32.5357 62.6906 32.5357 69.039C32.5357 75.3873 28.9647 80.1486 23.8067 80.1486Z" fill="#0046E1"/>
<path d="M58.3257 28.1699C54.358 28.1699 51.5806 31.3441 51.5806 35.3119C51.5806 39.6764 54.358 42.4538 58.3257 42.4538C62.2935 42.4538 65.0709 39.2796 65.0709 35.3119C65.0709 31.3441 62.2935 28.1699 58.3257 28.1699Z" fill="#0046E1"/>
<path d="M51.9775 90.4649H64.6743V47.6133H51.9775V90.4649Z" fill="#0046E1"/>
<path d="M97.6066 78.5611C95.6228 79.3546 94.0357 80.1482 92.8453 80.1482C90.4647 80.1482 89.2744 78.9579 89.2744 75.3869V58.7224H99.1937V49.5966H88.8776V37.6934H76.1808V49.5966H70.626V58.7224H76.1808V77.3708C76.1808 86.0998 81.7357 90.8611 89.2744 90.8611C93.2421 90.8611 96.8131 89.6708 99.5905 88.0837L97.6066 78.5611Z" fill="#0046E1"/>
<path d="M304.723 45.2305C297.978 45.2305 293.216 48.8014 290.439 55.1498C288.455 48.8014 283.694 45.2305 276.949 45.2305C270.997 45.2305 266.236 48.0079 263.458 53.166V46.024H250.365V90.4627H263.458V68.6401C263.458 62.6885 266.633 58.324 271.394 58.324C275.758 58.324 278.139 61.4982 278.139 66.6563V90.4627H291.233V68.6401C291.233 62.6885 294.407 58.324 299.168 58.324C303.533 58.324 306.31 61.4982 306.31 66.6563V90.4627H319.403V62.6885C319.007 51.9756 313.452 45.2305 304.723 45.2305Z" fill="#0046E1"/>
<path d="M345.988 45.2305C333.291 45.2305 324.958 54.3563 324.958 67.8466C324.958 81.3369 333.291 90.4627 346.384 90.4627C353.923 90.4627 359.875 87.6853 363.842 82.5272L357.097 75.3853C354.32 78.1627 350.749 79.7498 347.575 79.7498C342.813 79.7498 339.242 76.9724 338.052 71.4176H366.62C367.413 55.5466 360.271 45.2305 345.988 45.2305ZM353.923 64.2756H337.655C338.449 59.1176 341.623 55.1498 345.988 55.1498C350.749 55.1498 353.923 58.7208 353.923 64.2756Z" fill="#0046E1"/>
<path d="M193.229 5.158C184.897 2.38058 175.771 1.58703 167.042 3.17413C158.313 4.36445 149.981 7.93542 142.839 12.6967C142.046 11.9032 141.252 11.5064 140.062 11.5064C138.871 11.1096 137.284 11.1096 136.094 11.1096C134.904 11.1096 133.317 11.5064 132.126 12.2999C130.936 13.0935 129.746 13.887 128.952 14.6806C128.159 15.8709 127.365 17.0612 126.968 18.2515C126.571 19.8386 126.175 21.4257 126.571 23.0128C126.968 24.5999 127.365 26.187 128.555 27.3774C123.794 34.5193 120.62 42.8515 119.033 51.1838C117.842 59.9128 118.636 68.6419 121.017 76.9741C123.794 85.3064 128.159 92.8451 134.11 99.1935C140.062 105.542 147.6 110.303 155.536 113.477C156.329 113.874 156.726 113.874 157.52 114.271C164.662 116.652 172.2 117.445 179.739 117.048C187.278 116.652 194.42 114.271 201.165 111.097C203.546 109.906 205.529 108.716 207.513 107.129L212.671 112.287C213.068 112.684 213.862 112.684 213.862 111.89L219.417 96.0193C223.781 90.4645 227.352 84.1161 229.733 77.3709C239.652 47.2161 223.384 15.0774 193.229 5.158ZM225.368 75.7838C223.384 81.3386 220.607 86.4967 217.036 91.258L199.975 97.2096C199.181 97.6064 199.181 98.0032 199.578 98.3999L204.339 103.161C202.752 104.352 201.165 105.145 199.181 105.939C193.229 109.113 186.484 111.097 179.739 111.493C172.994 111.89 166.249 111.097 159.504 109.113C131.729 99.987 117.049 70.6257 126.175 43.2483C127.762 38.8838 129.746 34.5193 132.523 30.5515C132.92 30.9483 133.317 30.9483 134.11 31.3451C135.3 31.7419 136.888 31.7419 138.078 31.7419C139.268 31.7419 140.855 31.3451 142.046 30.5515C142.839 29.758 144.029 28.9644 144.823 27.7741C145.617 26.5838 146.41 25.3935 146.807 24.2032C147.204 23.0128 147.204 21.4257 147.204 20.2354C147.204 19.0451 146.807 17.458 146.013 16.2677C152.759 11.9032 160.297 9.12574 168.233 7.93542C176.168 6.74509 184.104 7.53864 191.642 9.91929C192.436 10.3161 192.833 10.3161 193.626 10.7128C206.323 15.4741 216.639 24.5999 222.591 36.8999C228.542 48.8032 229.336 62.6903 225.368 75.7838Z" fill="#0046E1"/>
<path d="M183.707 66.2599C187.675 62.2921 190.452 58.7212 191.643 56.3405C193.23 53.9599 194.023 51.1825 194.023 48.0083C194.023 42.8502 192.039 38.4857 188.468 35.7083C184.897 32.5341 180.533 31.3438 175.772 31.3438C171.01 31.3438 167.043 32.5341 163.868 34.5179C160.694 36.5018 157.917 39.676 155.536 43.6437L165.455 49.5954C168.63 44.4373 171.804 42.0567 175.375 42.0567C177.359 42.0567 178.946 42.8502 180.136 44.0405C180.93 44.8341 181.326 45.2308 181.326 46.0244C181.723 46.8179 181.723 47.6115 181.723 48.405C181.723 50.3889 180.93 51.976 179.739 53.9599C178.152 55.9438 176.168 58.7212 172.597 61.8954L156.33 78.5599V87.6857H195.214V76.576H173.391L183.707 66.2599Z" fill="#0046E1"/>
</g>
</svg>
