<svg width="309" height="65" viewBox="0 0 309 65" fill="none" xmlns="http://www.w3.org/2000/svg">
<g clip-path="url(#clip0_316_1754)">
<path d="M63.3605 39.951C59.0644 57.1826 41.6116 67.6696 24.3779 63.3725C7.15129 59.0764 -3.33567 41.6226 0.962439 24.392C5.25653 7.1583 22.7093 -3.32965 39.938 0.966454C57.1706 5.26255 67.6566 22.7183 63.3605 39.951Z" fill="#F7931A"/>
<path d="M46.343 27.5862C46.9833 23.3062 43.7245 21.0053 39.2686 19.4704L40.714 13.6726L37.1849 12.7931L35.7777 18.4381C34.8499 18.2069 33.897 17.9888 32.9501 17.7727L34.3674 12.0905L30.8402 11.2109L29.3938 17.0067C28.6259 16.8318 27.872 16.659 27.1402 16.477L27.1442 16.4589L22.2772 15.2437L21.3384 19.0131C21.3384 19.0131 23.9569 19.6132 23.9016 19.6503C25.3309 20.0072 25.5892 20.953 25.546 21.7029L23.8995 28.3079C23.9981 28.333 24.1257 28.3692 24.2665 28.4255C24.1489 28.3964 24.0232 28.3642 23.8935 28.333L21.5856 37.5856C21.4107 38.0199 20.9675 38.6712 19.9683 38.4239C20.0035 38.4752 17.4031 37.7836 17.4031 37.7836L15.6511 41.8234L20.2437 42.9683C21.0981 43.1824 21.9354 43.4065 22.7597 43.6176L21.2992 49.4818L24.8243 50.3613L26.2708 44.5595C27.2337 44.8208 28.1685 45.0621 29.0832 45.2893L27.6418 51.064L31.171 51.9435L32.6315 46.0904C38.6494 47.2292 43.1747 46.7699 45.0795 41.3269C46.6144 36.9443 45.0031 34.4163 41.8368 32.7678C44.1427 32.2361 45.8796 30.7193 46.343 27.5862ZM38.2795 38.8934C37.1889 43.2759 29.81 40.9067 27.4176 40.3126L29.3556 32.5437C31.7479 33.1407 39.4194 34.3228 38.2795 38.8934ZM39.3711 27.5228C38.376 31.5094 32.2344 29.4839 30.2422 28.9874L31.9992 21.9412C33.9915 22.4377 40.4075 23.3645 39.3711 27.5228Z" fill="white"/>
<path d="M94.2594 19.4657C96.8679 19.4657 99.1215 19.9331 101.015 20.8508C102.918 21.7776 104.488 23.026 105.748 24.5961C106.99 26.1742 107.915 28.0187 108.512 30.1326C109.105 32.2525 109.402 34.5312 109.402 36.9708C109.402 40.7181 108.716 44.2583 107.33 47.5954C105.944 50.9376 104.063 53.8365 101.671 56.3092C99.2803 58.7789 96.4578 60.726 93.203 62.1644C89.9533 63.6038 86.4201 64.3235 82.6266 64.3235C82.1361 64.3235 81.2736 64.3094 80.0554 64.2843C78.8371 64.2592 77.4369 64.1335 75.8689 63.9214C74.2907 63.7013 72.6222 63.3756 70.8601 62.9394C69.099 62.5112 67.4264 61.9111 65.8513 61.1491L79.9358 1.96874L92.5506 0.0136719L87.5077 21.0147C88.5873 20.5282 89.6748 20.1512 90.7604 19.8768C91.847 19.6064 93.013 19.4657 94.2594 19.4657ZM83.678 54.316C85.5778 54.316 87.368 53.8486 89.0496 52.9309C90.7363 52.0121 92.1918 50.7718 93.4111 49.2268C94.6304 47.6748 95.5953 45.9269 96.2989 43.9738C97.0026 42.0208 97.3584 39.9833 97.3584 37.8634C97.3584 35.259 96.9231 33.2275 96.0557 31.759C95.1882 30.2965 93.583 29.5607 91.252 29.5607C90.488 29.5607 89.504 29.7064 88.2837 29.9667C87.0594 30.2432 85.9638 30.8171 84.9817 31.6806L79.6121 53.9833C79.9358 54.0406 80.2222 54.0949 80.4665 54.1461C80.7057 54.2014 80.9701 54.2406 81.2334 54.2678C81.5119 54.2989 81.8305 54.315 82.2155 54.315C82.6005 54.315 83.0819 54.316 83.678 54.316Z" fill="#4D4D4D"/>
<path d="M122.485 63.1917H110.436L120.611 20.3745H132.742L122.485 63.1917ZM128.348 15.1577C126.666 15.1577 125.141 14.6571 123.788 13.6539C122.424 12.6568 121.749 11.1219 121.749 9.05327C121.749 7.91541 121.98 6.84791 122.438 5.84073C122.904 4.83556 123.512 3.97012 124.274 3.23433C125.035 2.50458 125.916 1.92157 126.917 1.48231C127.925 1.05009 128.996 0.833984 130.138 0.833984C131.819 0.833984 133.335 1.33456 134.693 2.33772C136.046 3.34591 136.727 4.8808 136.727 6.93838C136.727 8.08026 136.497 9.15177 136.034 10.1569C135.575 11.1621 134.967 12.0275 134.205 12.7633C133.45 13.4941 132.56 14.0751 131.561 14.5103C130.553 14.9496 129.486 15.1577 128.348 15.1577Z" fill="#4D4D4D"/>
<path d="M143.301 9.70506L155.921 7.75L152.822 20.3709H166.338L163.897 30.3H150.463L146.885 45.2771C146.555 46.5255 146.368 47.6915 146.316 48.775C146.256 49.8636 146.394 50.7985 146.72 51.5855C147.043 52.3746 147.625 52.9827 148.47 53.4129C149.31 53.8502 150.513 54.0703 152.091 54.0703C153.391 54.0703 154.658 53.9466 155.882 53.7014C157.099 53.4601 158.332 53.1244 159.581 52.6852L160.48 61.9689C158.851 62.566 157.088 63.0796 155.188 63.5119C153.286 63.9501 151.033 64.1612 148.43 64.1612C144.686 64.1612 141.784 63.6053 139.717 62.4986C137.652 61.3839 136.193 59.8611 135.319 57.9332C134.458 56.0123 134.073 53.7979 134.18 51.3031C134.292 48.8022 134.669 46.1737 135.319 43.4054L143.301 9.70506Z" fill="#4D4D4D"/>
<path d="M165.807 46.0919C165.807 42.4039 166.404 38.926 167.597 35.6703C168.788 32.4115 170.504 29.5618 172.731 27.1163C174.949 24.6827 177.652 22.7548 180.833 21.3395C184 19.9323 187.545 19.2227 191.452 19.2227C193.898 19.2227 196.082 19.4539 198.004 19.9172C199.934 20.3846 201.68 20.9888 203.259 21.7467L199.103 31.1953C198.018 30.755 196.891 30.367 195.726 30.0152C194.56 29.6563 193.137 29.4834 191.453 29.4834C187.431 29.4834 184.252 30.8696 181.886 33.6328C179.529 36.398 178.342 40.1202 178.342 44.7892C178.342 47.5564 178.939 49.7939 180.137 51.5057C181.329 53.2175 183.531 54.0689 186.729 54.0689C188.307 54.0689 189.83 53.9041 191.288 53.5824C192.758 53.2567 194.055 52.8466 195.198 52.3621L196.098 62.048C194.574 62.639 192.893 63.1727 191.05 63.6401C189.202 64.0915 187.003 64.3257 184.453 64.3257C181.087 64.3257 178.237 63.8332 175.906 62.8632C173.574 61.8781 171.647 60.5704 170.129 58.9138C168.604 57.2533 167.508 55.3143 166.83 53.0889C166.153 50.8655 165.807 48.5294 165.807 46.0919Z" fill="#4D4D4D"/>
<path d="M219.332 64.3257C216.457 64.3257 213.959 63.8874 211.84 63.02C209.727 62.1525 207.977 60.9352 206.593 59.3571C205.207 57.787 204.169 55.9265 203.459 53.7824C202.748 51.6394 202.406 49.2662 202.406 46.6658C202.406 43.4041 202.93 40.1433 203.988 36.8916C205.042 33.6328 206.605 30.7047 208.673 28.1024C210.726 25.4959 213.258 23.365 216.239 21.7034C219.218 20.0529 222.643 19.2227 226.491 19.2227C229.315 19.2227 231.799 19.6619 233.947 20.5294C236.085 21.3948 237.847 22.6221 239.239 24.1922C240.616 25.7703 241.662 27.6229 242.366 29.7699C243.074 31.9089 243.424 34.2882 243.424 36.8905C243.424 40.1423 242.908 43.403 241.882 46.6648C240.856 49.9105 239.333 52.8456 237.323 55.4541C235.317 58.0564 232.808 60.1864 229.794 61.8409C226.785 63.4954 223.295 64.3257 219.332 64.3257ZM225.354 29.4845C223.568 29.4845 221.989 30.0031 220.637 31.0274C219.28 32.0637 218.14 33.3664 217.221 34.9375C216.293 36.5156 215.604 38.2365 215.139 40.1071C214.677 41.9817 214.451 43.7539 214.451 45.4375C214.451 48.1545 214.889 50.2704 215.751 51.7932C216.624 53.308 218.193 54.0699 220.474 54.0699C222.266 54.0699 223.838 53.5553 225.198 52.52C226.546 51.4917 227.687 50.1879 228.613 48.6138C229.536 47.0438 230.23 45.3179 230.696 43.4443C231.151 41.5757 231.383 39.7935 231.383 38.1128C231.383 35.4029 230.947 33.282 230.078 31.7612C229.209 30.2464 227.633 29.4845 225.354 29.4845Z" fill="#4D4D4D"/>
<path d="M256.554 63.1917H244.495L254.67 20.3745H266.808L256.554 63.1917ZM262.408 15.1577C260.728 15.1577 259.204 14.6571 257.853 13.6539C256.496 12.6568 255.814 11.1219 255.814 9.05327C255.814 7.91541 256.049 6.84791 256.508 5.84073C256.967 4.83556 257.579 3.97012 258.341 3.23433C259.098 2.50458 259.988 1.92157 260.987 1.48231C261.988 1.05009 263.06 0.833984 264.197 0.833984C265.882 0.833984 267.404 1.33456 268.759 2.33772C270.115 3.34591 270.799 4.8808 270.799 6.93838C270.799 8.08026 270.556 9.15177 270.101 10.1569C269.645 11.1621 269.033 12.0275 268.274 12.7633C267.51 13.4941 266.632 14.0751 265.631 14.5103C264.622 14.9496 263.552 15.1577 262.408 15.1577Z" fill="#4D4D4D"/>
<path d="M275.492 22.3208C276.407 22.0534 277.428 21.7318 278.539 21.382C279.654 21.0322 280.899 20.7065 282.29 20.413C283.666 20.1105 285.219 19.8652 286.927 19.6752C288.635 19.4812 290.581 19.3867 292.743 19.3867C299.098 19.3867 303.478 21.2373 305.897 24.9272C308.313 28.6172 308.731 33.6672 307.163 40.0681L301.621 63.187H289.492L294.864 40.5546C295.192 39.1414 295.449 37.7753 295.639 36.4404C295.831 35.1176 295.82 33.9517 295.596 32.9425C295.382 31.9453 294.877 31.1291 294.094 30.4969C293.299 29.8747 292.098 29.5621 290.468 29.5621C288.897 29.5621 287.299 29.731 285.668 30.0566L277.77 63.186H265.637L275.492 22.3208Z" fill="#4D4D4D"/>
</g>
<defs>
<clipPath id="clip0_316_1754">
<rect width="308.085" height="64.3319" fill="white"/>
</clipPath>
</defs>
</svg>
