<svg width="423" height="115" viewBox="0 0 423 115" fill="none" xmlns="http://www.w3.org/2000/svg">
<g clip-path="url(#clip0_316_1783)">
<path d="M0 0H14.9977V21.4303C17.0351 20.6895 18.612 19.2628 20.6594 18.3517C46.3498 6.92819 73.0764 29.9955 65.963 57.0324C60.1861 78.9934 33.3845 87.7087 15.0077 74.7634V79.7493H0.00500592V0H0ZM53.1428 48.1469C53.1428 37.8097 44.7379 29.4298 34.3656 29.4298C23.9934 29.4298 15.5884 37.8097 15.5884 48.1469C15.5884 58.4841 23.9934 66.864 34.3656 66.864C44.7379 66.864 53.1428 58.4841 53.1428 48.1469Z" fill="#004EF2"/>
<path d="M423 0V79.7493H408.498V74.7684C405.344 76.2201 402.641 78.1824 399.262 79.2687C380.65 85.2408 360.636 73.9674 356.727 54.8448C351.53 29.4498 376.27 8.48002 400.623 17.5658C403.382 18.592 405.724 20.4792 408.493 21.4353V0H422.995H423ZM407.647 48.1469C407.647 37.8097 399.242 29.4298 388.87 29.4298C378.497 29.4298 370.092 37.8097 370.092 48.1469C370.092 58.4841 378.497 66.864 388.87 66.864C399.242 66.864 407.647 58.4841 407.647 48.1469Z" fill="#004EF2"/>
<path d="M256.999 80.2489V74.7674C254.235 75.7436 251.878 77.5707 249.129 78.632C220.095 89.8853 193.028 58.9988 208.241 31.8868C217.973 14.5463 241.07 10.3513 256.994 21.925V15.9429H271.501V80.2389H256.999V80.2489ZM255.747 48.146C255.747 37.7637 247.302 29.3437 236.885 29.3437C226.468 29.3437 218.023 37.7637 218.023 48.146C218.023 58.5282 226.468 66.9482 236.885 66.9482C247.302 66.9482 255.747 58.5282 255.747 48.146Z" fill="#004EF2"/>
<path d="M334.501 54.8297V15.9487H348.502V80.2447H336.503C336.418 80.2447 336.353 79.3186 335.787 78.7379C323.272 65.9378 311.488 52.4268 298.994 39.6317C298.513 39.1411 298.343 38.6956 297.502 38.8758V80.2447H284.001V15.4531H295.249L334.501 54.8297Z" fill="#004EF2"/>
<path d="M161.501 15.9492V25.1701L125.999 66.7893H161.501V80.2502L103.502 79.7496V70.0281L138.999 28.9095H103.502V15.9492H161.501Z" fill="#004EF2"/>
<path d="M186 0.5V54.5789C186 54.7892 187.316 58.008 187.577 58.4885C190.014 62.9588 195.035 65.4267 199.996 65.7922V80.2493C188.102 79.7487 177.209 72.7754 173.109 61.447C172.759 60.4759 171.498 56.2659 171.498 55.5801V0.5H186Z" fill="#004EF2"/>
<path d="M92.0036 15.9492H77.5015V80.2452H92.0036V15.9492Z" fill="#004EF2"/>
<path d="M106.176 98.7715H77.4619V114.365H106.176V98.7715Z" fill="#01EABB"/>
</g>
<defs>
<clipPath id="clip0_316_1783">
<rect width="423" height="114.365" fill="white"/>
</clipPath>
</defs>
</svg>
