<svg width="443" height="75" viewBox="0 0 443 75" fill="none" xmlns="http://www.w3.org/2000/svg">
<g clip-path="url(#clip0_316_1748)">
<path d="M69.1797 37.3638L61.9673 44.5762L71.0182 53.6271L78.2306 46.4146L69.1797 37.3638Z" fill="#00C1DE"/>
<path d="M120 73.3008C129.2 73.3008 138.4 69.8008 145.4 62.8008C159.4 48.8008 159.4 26.0008 145.4 12.0008C138.4 5.00078 129.2 1.50078 120 1.50078C110.8 1.50078 101.6 5.00078 94.6001 12.1008L84.0001 1.40078H65.9001L94.6001 30.1008L103.7 21.0008C108.1 16.6008 113.8 14.2008 120 14.2008C126.2 14.2008 132 16.6008 136.3 21.0008C145.3 30.0008 145.3 44.7008 136.3 53.7008C131.9 58.1008 126.1 60.5008 120 60.5008C113.8 60.5008 108 58.1008 103.7 53.7008L61.9001 11.9008C54.9001 4.90078 45.7001 1.30078 36.5001 1.30078C27.3001 1.30078 18.1001 4.80078 11.1001 11.8008C-2.8999 25.8008 -2.8999 48.6008 11.1001 62.6008C18.1001 69.6008 27.3001 73.1008 36.5001 73.1008C45.7001 73.1008 54.9001 69.6008 61.9001 62.6008L71.0001 53.5008L61.9001 44.4008L52.8001 53.5008C48.4001 57.9008 42.6001 60.3008 36.5001 60.3008C30.3001 60.3008 24.5001 57.9008 20.2001 53.5008C11.2001 44.5008 11.2001 29.8008 20.2001 20.8008C24.6001 16.4008 30.4001 14.0008 36.5001 14.0008C42.7001 14.0008 48.4001 16.4008 52.8001 20.8008L94.5001 62.5008C101.6 69.7008 110.8 73.3008 120 73.3008Z" fill="#00C1DE"/>
<path d="M292 24.4992C299.1 24.4992 304.8 30.2992 304.8 37.3992C304.8 44.4992 299.1 50.1992 292 50.1992C284.9 50.1992 279.1 44.4992 279.1 37.3992C279.1 30.1992 284.9 24.4992 292 24.4992ZM292 14.1992C279.2 14.1992 268.9 24.5992 268.9 37.2992C268.9 49.9992 279.2 60.3992 292 60.3992C304.8 60.3992 315.1 50.0992 315.1 37.2992C315.1 24.5992 304.7 14.1992 292 14.1992Z" fill="#003A5D"/>
<path d="M442.1 50.0992V60.3992H406.2V14.1992H416.5V50.0992H442.1Z" fill="#003A5D"/>
<path d="M311 60.3992H324.8L336.6 45.8992L348.2 60.3992H361.8L343.3 37.3992L361.8 14.1992H348.2L336.6 28.7992L324.7 14.1992H311L329.7 37.1992L311 60.3992Z" fill="#003A5D"/>
<path d="M220.7 45.5992C220.7 54.7992 213.4 60.3992 206.4 60.3992H180.3V14.1992H205.1C211.8 14.1992 218.8 18.9992 218.8 27.9992C218.8 31.0992 218.1 33.6992 217 35.7992C219.1 38.2992 220.7 41.5992 220.7 45.5992ZM190.6 32.1992H204.5C206.6 32.0992 208.6 30.3992 208.6 27.7992C208.6 25.1992 206.6 23.1992 204.5 23.1992H190.6V32.1992ZM210.5 45.9992C210.5 43.0992 208.3 41.1992 205.9 41.1992H190.5V50.7992H206C208.5 50.7992 210.5 48.6992 210.5 45.9992Z" fill="#003A5D"/>
<path d="M401.1 24.4992V14.1992H365.1V60.3992H401.1V50.0992H375.4V41.7992H394V32.7992H375.4V24.4992H401.1Z" fill="#003A5D"/>
<path d="M255.3 44.3992C261 41.9992 265.1 36.3992 265.1 29.8992C265.1 21.1992 257.9 14.1992 249.1 14.1992H226.6V60.3992H236.9V45.6992H243.5L256.3 60.4992H269.6L255.3 44.3992ZM249 35.3992H236.8V23.7992H249C252.2 23.7992 254.8 26.3992 254.8 29.5992C254.8 32.7992 252.2 35.3992 249 35.3992Z" fill="#003A5D"/>
</g>
<defs>
<clipPath id="clip0_316_1748">
<rect width="442.7" height="74.6" fill="white"/>
</clipPath>
</defs>
</svg>
