<svg width="311" height="53" viewBox="0 0 311 53" fill="none" xmlns="http://www.w3.org/2000/svg">
<path d="M283.968 35.9187C284.629 41.9988 288.798 43.6344 293.628 43.6344C296.805 43.6344 299.518 43.9979 301.817 40.7266C302.512 39.7353 304.795 38.5457 306.68 39.7187C308.798 41.0405 308.632 43.4692 307.342 45.237C304.216 49.5162 299.369 50.6067 293.628 50.6067C284.695 50.6067 276.49 44.4275 276.49 34.0352C276.49 23.5769 282.313 15.3655 293.893 15.3655C304.497 15.3655 310.171 22.4534 310.171 33.11V33.5065C310.171 34.597 309.427 35.9187 308.351 35.9187H283.968ZM303.24 29.69C302.181 24.3204 298.872 22.3377 293.893 22.3377C288.798 22.3377 285.026 24.3864 283.968 29.69H303.24ZM264.017 40.264C264.017 42.5275 265.638 43.5683 268.153 43.5683C268.533 43.5683 268.947 43.6509 269.394 43.5683C270.982 43.2875 272.52 44.6257 272.867 46.2118C273.248 47.8145 272.305 49.3675 270.734 49.8466C269.658 50.1771 268.401 50.6232 266.796 50.6067C261.387 50.5571 256.54 46.6579 256.54 41.2553V5.40281C256.591 4.43025 256.999 3.51044 257.685 2.81876C258.371 2.12707 259.289 1.71188 260.262 1.65234C261.236 1.70759 262.155 2.11872 262.844 2.80735C263.534 3.49599 263.945 4.41397 264.001 5.38629V40.264H264.017ZM234.174 50.6067C232.029 50.6925 229.893 50.2841 227.931 49.4132C225.968 48.5422 224.233 47.232 222.859 45.584V46.1788C222.859 48.0788 221.007 49.6153 219.104 49.6153C217.218 49.6153 215.366 48.0788 215.366 46.1788V5.40281C215.417 4.42757 215.827 3.50557 216.517 2.8135C217.207 2.12143 218.128 1.70796 219.104 1.65234C220.083 1.70402 221.009 2.11575 221.702 2.80821C222.395 3.50067 222.808 4.42488 222.859 5.40281V20.8177C224.248 19.1913 225.987 17.9003 227.947 17.0419C229.907 16.1834 232.036 15.7797 234.174 15.8612C242.777 15.8612 250.287 22.883 250.287 33.2091C250.287 43.5849 242.793 50.6067 234.174 50.6067ZM233.48 23.4612C228.451 23.4612 222.859 26.0056 222.859 33.4239C222.859 40.8422 228.451 43.3866 233.48 43.3866C239.071 43.3866 243.438 39.5866 243.438 33.4239C243.499 32.1008 243.284 30.7795 242.805 29.5443C242.326 28.309 241.595 27.187 240.658 26.2496C239.721 25.3123 238.599 24.5802 237.363 24.1001C236.127 23.62 234.805 23.4024 233.48 23.4612ZM206.631 46.4927C206.573 47.4655 206.16 48.3835 205.472 49.0741C204.784 49.7648 203.866 50.1805 202.893 50.2432C201.919 50.1805 201.001 49.7648 200.313 49.0741C199.625 48.3835 199.212 47.4655 199.154 46.4927V30.7308C199.154 25.8899 195.912 23.1969 191.677 23.1969C186.3 23.1969 184.183 26.6169 184.183 33.9691V46.4927C184.124 47.4655 183.712 48.3835 183.024 49.0741C182.335 49.7648 181.418 50.1805 180.444 50.2432C179.471 50.1805 178.553 49.7648 177.865 49.0741C177.176 48.3835 176.764 47.4655 176.706 46.4927V30.7308C176.706 25.8899 174.092 22.8499 169.857 22.8499C164.563 22.8499 161.735 26.6169 161.735 33.9691V46.4927C161.676 47.4655 161.264 48.3835 160.576 49.0741C159.887 49.7648 158.97 50.1805 157.996 50.2432C157.022 50.1805 156.105 49.7648 155.417 49.0741C154.728 48.3835 154.316 47.4655 154.257 46.4927V20.3386C154.32 19.3687 154.734 18.4547 155.422 17.7675C156.11 17.0803 157.025 16.6669 157.996 16.6046C158.967 16.6669 159.882 17.0803 160.57 17.7675C161.258 18.4547 161.672 19.3687 161.735 20.3386C164.117 17.4307 166.946 15.9272 171.66 15.9272C176.342 15.9272 179.551 17.8933 181.668 21.7099C184.315 18.0255 188.153 16.0264 193.579 16.0264C200.395 16.0264 206.648 21.5942 206.648 29.3265V46.5092L206.631 46.4927ZM138.029 46.8231C135.267 49.698 133.497 50.6232 127.508 50.6232C119.568 50.6232 114.34 45.4849 114.34 37.2074V20.3386C114.396 19.3663 114.807 18.4483 115.497 17.7596C116.186 17.071 117.105 16.6599 118.079 16.6046C119.052 16.6599 119.972 17.071 120.661 17.7596C121.351 18.4483 121.762 19.3663 121.817 20.3386V35.8196C121.817 41.1892 124.332 44.0144 129.096 44.0144C133.066 44.0144 136.309 43.3536 138.029 38.5292C137.996 38.5292 138.029 35.3074 138.029 32.5813V20.3221C138.085 19.3471 138.499 18.4269 139.192 17.7379C139.885 17.0488 140.808 16.6394 141.784 16.5881C142.758 16.6434 143.677 17.0545 144.366 17.7431C145.056 18.4318 145.468 19.3497 145.523 20.3221V46.7901C145.523 48.6901 143.687 50.2267 141.784 50.2267C139.882 50.2267 138.029 48.6901 138.029 46.7901V46.8231ZM91.9913 50.6232C89.8417 50.7096 87.7012 50.2999 85.7359 49.4259C83.7706 48.552 82.0336 47.2373 80.6596 45.584V46.1788C80.6596 48.0788 78.8234 49.6153 76.921 49.6153C75.0186 49.6153 73.1824 48.0788 73.1824 46.1788V5.40281C73.2338 4.42757 73.6437 3.50557 74.3336 2.8135C75.0234 2.12143 75.9448 1.70796 76.921 1.65234C77.8972 1.70796 78.8185 2.12143 79.5084 2.8135C80.1983 3.50557 80.6082 4.42757 80.6596 5.40281V20.8177C82.0498 19.1891 83.792 17.8968 85.7548 17.0382C87.7177 16.1796 89.8501 15.7772 91.9913 15.8612C100.593 15.8612 108.104 22.883 108.104 33.2091C108.104 43.5849 100.593 50.6067 91.9913 50.6067V50.6232ZM91.2965 23.4612C86.251 23.4612 80.6596 26.0056 80.6596 33.4239C80.6596 40.8422 86.251 43.3866 91.2965 43.3866C96.8878 43.3866 101.239 39.5866 101.239 33.4239C101.299 32.1022 101.084 30.7824 100.607 29.5483C100.129 28.3143 99.3993 27.193 98.4642 26.2559C97.529 25.3188 96.4088 24.5864 95.1748 24.1053C93.9408 23.6241 92.62 23.4048 91.2965 23.4612ZM56.0608 24.7499C56.706 25.8734 56.706 27.2612 56.0608 28.3847L43.7366 49.6649C43.418 50.2162 42.9599 50.6742 42.4083 50.9932C41.8567 51.3121 41.2309 51.4808 40.5936 51.4823H15.9452C15.3078 51.4808 14.682 51.3121 14.1304 50.9932C13.5788 50.6742 13.1208 50.2162 12.8021 49.6649L0.494418 28.3847C0.174997 27.8322 0.00683594 27.2054 0.00683594 26.5673C0.00683594 25.9293 0.174997 25.3025 0.494418 24.7499L12.8021 3.46975C13.1208 2.91846 13.5788 2.46043 14.1304 2.14148C14.682 1.82254 15.3078 1.65387 15.9452 1.65234H40.5936C41.8839 1.65234 43.0749 2.34626 43.7366 3.46975L56.0608 24.7499ZM40.7094 29.69C42.4132 29.69 43.8028 28.2856 43.8028 26.5673C43.8028 24.8491 42.4132 23.4612 40.7094 23.4612H15.8459C15.0189 23.4612 14.2257 23.7893 13.641 24.3734C13.0562 24.9575 12.7276 25.7496 12.7276 26.5756C12.7276 27.4016 13.0562 28.1937 13.641 28.7778C14.2257 29.3618 15.0189 29.69 15.8459 29.69H40.6928H40.7094ZM32.0411 40.264C33.7284 40.264 35.1014 38.8761 35.1014 37.1578C35.1014 35.4396 33.7284 34.0352 32.0411 34.0352H24.4811C22.7938 34.0352 21.4207 35.4396 21.4207 37.1578C21.4207 38.8761 22.7938 40.264 24.4811 40.264H32.0245H32.0411ZM21.4207 12.8872C19.7169 12.8872 18.3273 14.2751 18.3273 15.9933C18.3273 17.7116 19.7169 19.116 21.4207 19.116H35.118C36.8219 19.116 38.2114 17.7116 38.2114 15.9933C38.2114 14.2751 36.8219 12.8872 35.118 12.8872H21.4207Z" fill="#FFC629"/>
</svg>
