<svg width="326" height="134" viewBox="0 0 326 134" fill="none" xmlns="http://www.w3.org/2000/svg">
<path fill-rule="evenodd" clip-rule="evenodd" d="M189.996 32.8025C195.13 30.4654 200.772 29.448 206.406 29.8428C212.038 30.237 217.482 32.0321 222.233 35.0618C226.987 38.0914 230.895 42.2591 233.603 47.1814C236.311 52.1043 237.73 57.6239 237.73 63.2331V102.276H222.754V63.2331C222.754 51.8872 214.36 42.8101 204.035 42.8101C201.32 42.8366 198.646 43.4745 196.214 44.6752C193.783 45.8759 191.656 47.6084 189.996 49.7424V32.8025Z" fill="#89CC53"/>
<path fill-rule="evenodd" clip-rule="evenodd" d="M310.728 133.884V96.6919C305.15 100.848 298.515 103.374 291.569 103.988C284.622 104.602 277.644 103.277 271.413 100.164V82.6569C273.561 85.2884 276.272 87.4129 279.348 88.8769C282.423 90.341 285.788 91.1074 289.198 91.121C302.117 91.121 312.601 80.2855 312.601 66.9425C312.601 53.5996 302.117 42.7748 289.198 42.7748C285.788 42.7889 282.423 43.5553 279.348 45.0194C276.272 46.4829 273.561 48.6073 271.413 51.2394V33.7321C277.864 30.5079 285.113 29.2046 292.291 29.9794C299.469 30.7549 306.27 33.5747 311.871 38.1006L312.601 31.6217H325.703V65.0927H325.647C325.647 65.7057 325.703 66.3295 325.703 66.9425V133.884H310.728Z" fill="#238647"/>
<path fill-rule="evenodd" clip-rule="evenodd" d="M298.564 102.705C292.988 104.3 287.117 104.586 281.411 103.54C275.705 102.494 270.323 100.146 265.687 96.6804C261.052 93.2142 257.29 88.7256 254.7 83.5687C252.11 78.4117 250.761 72.7275 250.761 66.9643C250.761 61.2011 252.11 55.5163 254.7 50.3594C257.29 45.2024 261.052 40.7138 265.687 37.2482C270.323 33.7826 275.705 31.4343 281.411 30.3887C287.117 29.3431 292.988 29.629 298.564 31.2239V44.8392C295.626 43.5026 292.43 42.8135 289.198 42.8197C276.279 42.8197 265.805 53.6552 265.805 66.9868C265.805 80.3185 276.279 91.1653 289.198 91.1653C292.43 91.1664 295.624 90.4773 298.564 89.1457V102.705Z" fill="#2F9B47"/>
<path fill-rule="evenodd" clip-rule="evenodd" d="M271.413 100.164C265.224 97.0622 260.023 92.3147 256.388 86.4505C252.754 80.5858 250.832 73.8345 250.832 66.9485C250.832 60.0619 252.754 53.3106 256.388 47.4459C260.023 41.5817 265.224 36.8342 271.413 33.7324V51.2391C267.791 55.6838 265.814 61.2293 265.814 66.9485C265.814 72.6671 267.791 78.2126 271.413 82.6573V100.164Z" fill="#62B64F"/>
<path fill-rule="evenodd" clip-rule="evenodd" d="M217.135 48.6289C215.48 46.8028 213.46 45.3399 211.205 44.3315C208.95 43.3237 206.508 42.7936 204.035 42.7738C193.696 42.7738 185.313 51.9417 185.313 63.1974V102.274H170.339V63.2312C170.335 57.7038 171.712 52.2615 174.343 47.3905C176.973 42.5195 180.777 38.3721 185.416 35.3176C190.054 32.2637 195.381 30.3981 200.922 29.8871C206.464 29.3768 212.045 30.2374 217.17 32.3923L217.135 48.6289Z" fill="#3DB8AD"/>
<path fill-rule="evenodd" clip-rule="evenodd" d="M189.996 49.7069C186.931 53.5543 185.279 58.3254 185.313 63.2314V102.274H170.339V63.2314C170.339 56.8225 172.193 50.5483 175.677 45.1539C179.161 39.7596 184.131 35.4723 189.996 32.8008V49.7069Z" fill="#3394D7"/>
<path fill-rule="evenodd" clip-rule="evenodd" d="M108.568 85.2658C110.223 87.0914 112.243 88.5549 114.498 89.5627C116.753 90.5705 119.195 91.1012 121.669 91.1204C131.949 91.1204 140.391 81.9525 140.391 70.6974V31.6211H155.364V70.663C155.368 76.191 153.991 81.6333 151.361 86.5043C148.73 91.3747 144.926 95.5227 140.287 98.5772C135.649 101.631 130.322 103.497 124.782 104.007C119.239 104.518 113.658 103.657 108.533 101.502L108.568 85.2658Z" fill="#2872BC"/>
<path fill-rule="evenodd" clip-rule="evenodd" d="M135.707 101.094C130.574 103.431 124.931 104.449 119.297 104.054C113.665 103.659 108.222 101.865 103.47 98.8349C98.7181 95.8052 94.8081 91.6375 92.1005 86.7146C89.3924 81.7923 87.9736 76.2728 87.9741 70.663V31.6211H102.949V70.663C102.949 82.0094 111.343 91.0865 121.669 91.0865C124.384 91.0594 127.058 90.4222 129.489 89.2215C131.92 88.0208 134.047 86.2883 135.707 84.1542V101.094Z" fill="#1D5C84"/>
<path fill-rule="evenodd" clip-rule="evenodd" d="M108.568 101.502C102.471 98.9341 97.2706 94.6407 93.616 89.1566C89.9591 83.6726 88.0089 77.2411 88.0078 70.6635V31.6211H102.949V70.6635C102.906 76.0596 104.911 81.274 108.568 85.2664V101.502Z" fill="#993233"/>
<path fill-rule="evenodd" clip-rule="evenodd" d="M27.1387 31.1903C32.7145 29.5959 38.5861 29.31 44.292 30.3551C49.9978 31.4006 55.3806 33.749 60.0163 37.2152C64.6513 40.6807 68.4126 45.1694 71.0033 50.3263C73.5933 55.4832 74.9417 61.168 74.9417 66.9307C74.9417 72.6944 73.5933 78.3787 71.0033 83.5356C68.4126 88.6925 64.6513 93.1812 60.0163 96.6467C55.3806 100.113 49.9978 102.461 44.292 103.507C38.5861 104.552 32.7145 104.266 27.1387 102.672V89.0563C30.0796 90.3873 33.2737 91.0764 36.5053 91.0759C49.4125 91.0759 59.8976 80.2398 59.8976 66.8968C59.8976 53.5539 49.4125 42.7296 36.5053 42.7296C33.2732 42.7234 30.0779 43.4126 27.1387 44.7492V31.1903Z" fill="#E13030"/>
<path fill-rule="evenodd" clip-rule="evenodd" d="M54.2896 100.164C47.84 103.388 40.5893 104.692 33.4113 103.916C26.2333 103.141 19.4339 100.322 13.8326 95.7957L13.1013 102.275H0V0H14.9743V37.2039C20.553 33.0486 27.1888 30.5214 34.1346 29.9084C41.0804 29.2948 48.0602 30.619 54.2896 33.7321V51.2394C52.1384 48.6062 49.4245 46.4806 46.3451 45.0165C43.2651 43.553 39.8966 42.7872 36.4828 42.7753C23.5643 42.7753 13.0786 53.6109 13.0786 66.9425C13.0786 80.2742 23.5643 91.121 36.4828 91.121C39.8927 91.1058 43.2571 90.3388 46.3326 88.8747C49.4081 87.4112 52.1179 85.2873 54.2668 82.6569L54.2896 100.164Z" fill="#F28825"/>
<path fill-rule="evenodd" clip-rule="evenodd" d="M27.1394 102.705C22.2778 101.322 17.7506 98.9714 13.8326 95.7957L13.1013 102.275H0V0H14.9749V37.2039C18.6243 34.476 22.7479 32.4378 27.1394 31.1909V44.8062C22.9488 46.8139 19.4141 49.9547 16.9404 53.8686C14.4662 57.7825 13.1541 62.3095 13.1541 66.9312C13.1541 71.5524 14.4662 76.0799 16.9404 79.9933C19.4141 83.9073 22.9488 87.0486 27.1394 89.0563V102.705Z" fill="#F5C836"/>
</svg>
