<svg width="329" height="70" viewBox="0 0 329 70" fill="none" xmlns="http://www.w3.org/2000/svg">
<g clip-path="url(#clip0_316_1803)">
<path d="M56.4302 28.2807C55.3602 14.2907 33.9902 13.2907 28.6602 24.6007C25.5402 31.2207 25.7602 43.9507 31.5302 49.1807C36.8502 54.0007 48.8202 53.8707 53.4602 48.0607C54.9802 46.1507 55.2202 43.6707 56.8102 41.9407L84.5902 41.9007L101 2.59074L130.91 2.28074L151.52 51.3107V2.30074H188.36L198.77 39.5007L209.76 2.30074H246.6V67.2507H222.83V21.2007L208.8 67.2907L189.02 67.1907L175.29 21.2007V67.2607H131.31L129 59.9307L103.15 59.5407L100.11 67.2507H74.2602L77.8202 57.8007C65.9902 71.0107 38.6102 71.1807 22.7002 66.8107C1.45021 60.9807 -4.64979 37.0807 3.44021 18.4407C13.5402 -4.84926 64.3202 -5.27927 78.4102 12.6507C80.5502 15.3707 84.3602 23.6607 84.2602 26.9507C84.2402 27.6707 84.0402 27.8607 83.4802 28.2907H56.4402L56.4302 28.2807ZM108.73 43.6407H123.59L116.45 22.3807" fill="black"/>
<path d="M316.12 4.08008V42.4601H328.01V57.8101H316.12V67.2601H293.54V57.8101H247.19V41.5701L283.74 4.08008H316.13H316.12ZM293.54 42.4601V19.4301L270.36 42.4601H293.54Z" fill="#EF521F"/>
</g>
<defs>
<clipPath id="clip0_316_1803">
<rect width="328.01" height="69.38" fill="white"/>
</clipPath>
</defs>
</svg>
