<svg width="245" height="100" viewBox="0 0 245 100" fill="none" xmlns="http://www.w3.org/2000/svg">
<g clip-path="url(#clip0_316_1725)">
<path d="M6.02632 97.465C4.16887 96.42 2.63436 94.8833 1.59078 93.0232C0.515338 91.0615 -0.0328149 88.8538 1.8627e-05 86.6162C-0.0333802 84.3694 0.497658 82.1503 1.54433 80.1627C2.54586 78.2965 4.05052 76.7494 5.88699 75.6976C7.80839 74.6216 9.97918 74.0721 12.1804 74.1046C15.5799 74.0399 18.8238 75.5293 20.9934 78.1511C21.2873 78.4664 21.4494 78.8825 21.4463 79.3139C21.4266 80.0049 21.0479 80.6354 20.4477 80.9767C20.1455 81.189 19.7833 81.2991 19.4142 81.2906C18.7413 81.2902 18.1017 80.9975 17.6609 80.4883C16.9831 79.7269 16.1468 79.1235 15.2109 78.7208C14.2506 78.3241 13.2189 78.1301 12.1804 78.1511C10.0591 78.0744 8.00891 78.9228 6.56045 80.4767C5.06877 82.1629 4.2938 84.366 4.40073 86.6162C4.37341 88.1285 4.7247 89.6236 5.42253 90.965C6.06763 92.2043 7.04467 93.2391 8.24409 93.9534C9.50562 94.686 10.9429 95.0599 12.401 95.0348C14.184 95.1196 15.9385 94.5628 17.3474 93.465C17.8189 93.0728 18.4069 92.8479 19.0194 92.8255C19.4408 92.8288 19.8492 92.9719 20.1806 93.2325C20.7014 93.6142 21.0182 94.2144 21.0398 94.8604C21.0183 95.3049 20.8221 95.7229 20.4941 96.0232C18.2855 98.0581 15.3655 99.1401 12.3661 99.0348C10.1518 99.0787 7.96507 98.5372 6.02632 97.465Z" fill="#760CE1"/>
<path d="M43.4498 75.7442C45.3041 76.818 46.8392 78.3673 47.8969 80.2326C48.9969 82.1738 49.5619 84.3729 49.5341 86.6047V96.6396C49.5439 97.2544 49.3101 97.8481 48.8839 98.2907C48.4498 98.7225 47.8583 98.9578 47.2467 98.9419C46.623 98.9685 46.0168 98.7321 45.5754 98.29C45.134 97.848 44.8978 97.2409 44.9244 96.6163V94.9884C43.8924 96.2691 42.587 97.3021 41.1043 98.0117C39.5868 98.7276 37.9281 99.0932 36.2507 99.0814C34.2026 99.097 32.1912 98.5371 30.445 97.4652C28.6759 96.3943 27.2341 94.8579 26.2765 93.0233C25.2547 91.0571 24.736 88.8676 24.7671 86.6512C24.7334 84.4069 25.29 82.1933 26.381 80.2326C27.4375 78.3515 28.9873 76.7954 30.863 75.7326C32.7796 74.6408 34.9516 74.079 37.1564 74.1047C39.3633 74.074 41.5376 74.6405 43.4498 75.7442ZM41.2436 93.9303C42.4574 93.2052 43.4525 92.1645 44.1232 90.9187C44.8217 89.5937 45.1771 88.1144 45.1566 86.6163C45.176 85.1109 44.8209 83.6244 44.1232 82.2907C43.0935 80.4002 41.3413 79.0095 39.2682 78.4373C37.195 77.8651 34.9787 78.1605 33.1273 79.2559C31.893 79.9841 30.878 81.0326 30.1896 82.2907C29.4792 83.6205 29.1158 85.1084 29.1329 86.6163C29.1146 88.117 29.4783 89.5977 30.1896 90.9187C30.8658 92.1604 31.8597 93.1998 33.0692 93.9303C35.5801 95.3988 38.6863 95.3988 41.1972 93.9303H41.2436Z" fill="#760CE1"/>
<path d="M86.2839 76.6281C87.9836 78.6079 88.8458 81.1732 88.6875 83.7792V96.6513C88.7035 97.2629 88.4782 97.8561 88.0605 98.3025C87.6224 98.7426 87.0201 98.9788 86.4001 98.9537C85.7764 98.9803 85.1701 98.7438 84.7287 98.3018C84.2873 97.8597 84.0512 97.2526 84.0778 96.6281V83.7792C84.1885 82.2648 83.6958 80.7682 82.7077 79.6165C81.7404 78.6518 80.4138 78.1372 79.0501 78.1978C77.5958 78.1543 76.1939 78.7438 75.2067 79.8141C74.1777 80.945 73.6354 82.4366 73.6972 83.9653V96.6513C73.7354 97.2517 73.5398 97.8435 73.1515 98.3025C72.486 98.965 71.4878 99.1613 70.6215 98.8001C69.7553 98.4388 69.1913 97.591 69.192 96.6513V83.7792C69.3027 82.2648 68.8101 80.7682 67.8219 79.6165C66.8511 78.65 65.5201 78.1354 64.1527 78.1978C62.6878 78.1518 61.2743 78.7409 60.2745 79.8141C59.2455 80.945 58.7031 82.4366 58.765 83.9653V96.6513C58.7594 97.2745 58.5042 97.8694 58.0567 98.3025C57.1247 99.1724 55.6795 99.1724 54.7475 98.3025C54.3213 97.8598 54.0875 97.2662 54.0972 96.6513V76.6281C54.0595 76.0005 54.2921 75.3868 54.736 74.9422C55.18 74.4976 55.7928 74.2648 56.4195 74.3025C57.019 74.2863 57.6015 74.503 58.0451 74.9071C58.4685 75.3346 58.7099 75.9098 58.7185 76.5118C59.528 75.7265 60.4878 75.1134 61.5401 74.7095C62.6493 74.2725 63.8316 74.0518 65.0235 74.0583C66.4471 74.0328 67.8562 74.3477 69.134 74.9769C70.3397 75.5884 71.3705 76.4967 72.1297 77.6164C73.0279 76.4976 74.1724 75.6022 75.4738 75.0002C76.8841 74.3587 78.4185 74.0371 79.9674 74.0583C82.3443 73.9636 84.6464 74.9002 86.2839 76.6281Z" fill="#760CE1"/>
<path d="M111.469 75.7439C113.319 76.8194 114.85 78.3685 115.905 80.2323C117.005 82.1735 117.57 84.3726 117.542 86.6044V96.6393C117.702 97.5531 117.304 98.4746 116.53 98.984C115.756 99.4935 114.753 99.4935 113.979 98.984C113.205 98.4746 112.807 97.5531 112.967 96.6393V94.9881C111.933 96.2663 110.628 97.2988 109.147 98.0114C107.625 98.7264 105.963 99.0919 104.282 99.0811C102.234 99.0955 100.223 98.5356 98.4761 97.4649C96.6984 96.3973 95.2483 94.8607 94.2844 93.023C93.2625 91.0568 92.7438 88.8673 92.7749 86.6509C92.7409 84.4051 93.3018 82.1904 94.4005 80.2323C95.4523 78.3516 96.9984 76.7954 98.8709 75.7323C100.794 74.6341 102.974 74.0682 105.187 74.0928C107.392 74.0648 109.563 74.6354 111.469 75.7439ZM109.263 93.93C110.474 93.2086 111.462 92.1664 112.119 90.9184C112.818 89.5934 113.173 88.1141 113.153 86.616C113.172 85.1106 112.817 83.6241 112.119 82.2904C110.766 79.7016 108.07 78.0994 105.153 78.1509C102.237 78.1076 99.5449 79.7074 98.1858 82.2904C97.4702 83.6182 97.1064 85.1074 97.1292 86.616C97.1051 88.1174 97.4691 89.5994 98.1858 90.9184C98.8543 92.162 99.845 93.2024 101.054 93.93C103.565 95.3985 106.671 95.3985 109.182 93.93H109.263Z" fill="#760CE1"/>
<path d="M137.908 74.7329C138.669 75.0202 139.194 75.7233 139.255 76.5353C139.279 76.6855 139.279 76.8385 139.255 76.9888C139.099 77.8503 138.329 78.4623 137.455 78.419C137.229 78.4115 137.003 78.3843 136.782 78.3376C135.821 78.1526 134.846 78.0476 133.867 78.0236C132.015 77.9306 130.183 78.4494 128.654 79.5004C127.365 80.4225 126.621 81.9269 126.668 83.512V96.6516C126.709 97.2613 126.509 97.8629 126.111 98.326C125.649 98.7361 125.043 98.9453 124.427 98.9074C123.822 98.9455 123.226 98.7452 122.767 98.3492C122.342 97.8907 122.127 97.2754 122.175 96.6516V76.5353C122.112 75.9199 122.329 75.3091 122.766 74.8717C123.203 74.4343 123.813 74.2169 124.427 74.2795C125.046 74.1924 125.67 74.4023 126.111 74.8461C126.552 75.2899 126.758 75.9158 126.668 76.5353V77.3841C127.583 76.3257 128.721 75.4838 130.001 74.919C131.327 74.312 132.769 74.0024 134.227 74.012C135.494 73.9586 136.755 74.2056 137.908 74.7329Z" fill="#760CE1"/>
<path d="M157.346 75.7438C159.203 76.8173 160.742 78.3664 161.805 80.2322C162.905 82.1734 163.47 84.3725 163.442 86.6043V96.6391C163.586 97.5468 163.184 98.4547 162.414 98.9556C161.645 99.4565 160.653 99.4565 159.883 98.9556C159.113 98.4547 158.711 97.5468 158.855 96.6391V94.988C157.823 96.2687 156.518 97.3017 155.035 98.0112C153.518 98.7272 151.859 99.0927 150.182 99.081C148.133 99.0966 146.122 98.5366 144.376 97.4647C142.598 96.3972 141.148 94.8605 140.184 93.0229C139.162 91.0566 138.644 88.8672 138.675 86.6508C138.637 84.406 139.193 82.1912 140.289 80.2322C141.344 78.354 142.889 76.7985 144.759 75.7322C146.682 74.635 148.862 74.0692 151.076 74.0926C153.276 74.0668 155.443 74.6373 157.346 75.7438ZM155.151 93.9298C156.356 93.2015 157.343 92.1611 158.008 90.9182C158.706 89.5933 159.061 88.114 159.041 86.6159C159.06 85.1105 158.705 83.6239 158.008 82.2903C156.646 79.6998 153.964 78.0778 151.041 78.0778C148.118 78.0778 145.435 79.6998 144.074 82.2903C143.364 83.62 143 85.1079 143.017 86.6159C142.999 88.1166 143.363 89.5972 144.074 90.9182C144.747 92.1624 145.742 93.2025 146.954 93.9298C149.464 95.3984 152.571 95.3984 155.082 93.9298H155.151Z" fill="#760CE1"/>
<path d="M171.302 98.2557C169.718 97.685 168.306 96.7161 167.204 95.4418C166.943 95.1823 166.82 94.8145 166.872 94.45C166.925 94.0856 167.147 93.7676 167.471 93.5929C167.692 93.431 167.963 93.3527 168.237 93.372C168.639 93.3628 169.022 93.5437 169.27 93.8604C170.768 95.6976 173.183 96.6046 176.504 96.6046C178.345 96.7459 180.185 96.3068 181.764 95.3487C182.833 94.6173 183.469 93.4011 183.459 92.1046C183.459 89.779 181.137 88.2208 176.574 87.558C174.216 87.3625 171.949 86.5616 169.99 85.2325C168.61 84.2646 167.784 82.6872 167.772 80.9999C167.681 79.0049 168.581 77.0937 170.176 75.8952C172.006 74.6068 174.212 73.9645 176.446 74.0697C179.81 73.8729 183.042 75.4017 185.027 78.1278C185.208 78.3368 185.304 78.6069 185.294 78.8836C185.278 79.3403 184.996 79.7452 184.574 79.9185C184.364 80.0229 184.135 80.086 183.901 80.1046C183.44 80.1205 183.003 79.9016 182.74 79.5232C181.194 77.5634 178.798 76.4721 176.307 76.5929C174.764 76.4989 173.233 76.9067 171.941 77.7557C170.944 78.4032 170.338 79.5079 170.327 80.6976C170.311 81.8641 170.9 82.9557 171.883 83.5813C173.477 84.4867 175.247 85.038 177.073 85.1976C180.239 85.6549 182.523 86.5038 183.924 87.7441C185.263 88.8612 186.031 90.5218 186.014 92.2673C186.03 93.6049 185.559 94.9026 184.69 95.9185C183.752 97.0095 182.554 97.8454 181.207 98.3487C179.671 98.9295 178.041 99.2174 176.4 99.1976C174.658 99.1945 172.931 98.8754 171.302 98.2557Z" fill="#760CE1"/>
<path d="M194.688 97.5346C192.795 96.4684 191.229 94.9043 190.16 93.0113C187.989 89.0248 187.989 84.2072 190.16 80.2206C191.229 78.3245 192.795 76.7566 194.688 75.6858C198.669 73.5123 203.48 73.5123 207.46 75.6858C209.351 76.7568 210.913 78.325 211.977 80.2206C214.148 84.2072 214.148 89.0248 211.977 93.0113C210.912 94.9035 209.35 96.4677 207.46 97.5346C203.48 99.7081 198.669 99.7081 194.688 97.5346ZM206.148 95.3486C207.614 94.4854 208.818 93.2394 209.632 91.7439C211.335 88.538 211.335 84.694 209.632 81.4881C208.816 79.9885 207.613 78.7357 206.148 77.8602C203.021 76.0925 199.197 76.0925 196.07 77.8602C194.585 78.7284 193.361 79.9817 192.528 81.4881C190.779 84.6822 190.779 88.5498 192.528 91.7439C193.359 93.2459 194.584 94.4923 196.07 95.3486C199.207 97.0781 203.011 97.0781 206.148 95.3486Z" fill="#760CE1"/>
<path d="M224.39 68.3605C223.331 70.1285 222.825 72.1739 222.938 74.2325V75.186H228.872C229.513 75.186 230.033 75.7066 230.033 76.3488C230.033 76.991 229.513 77.5116 228.872 77.5116H222.938V97.5581C222.948 97.9189 222.81 98.2679 222.555 98.5233C222.285 98.7843 221.92 98.923 221.545 98.907C221.181 98.9189 220.828 98.7801 220.569 98.5233C220.318 98.2667 220.183 97.9174 220.198 97.5581V77.6163H216.715C216.386 77.6342 216.065 77.5116 215.832 77.2791C215.607 77.0411 215.486 76.723 215.495 76.3953C215.481 76.0703 215.603 75.754 215.832 75.5232C216.065 75.2907 216.386 75.1681 216.715 75.186H220.198V74.2325C220.051 71.5008 220.842 68.801 222.439 66.5814C224.111 64.6182 226.614 63.5655 229.185 63.7442C229.537 63.7338 229.88 63.8539 230.149 64.0814C230.398 64.3066 230.538 64.6289 230.532 64.9651C230.544 65.2992 230.403 65.6205 230.149 65.8372C229.882 66.0687 229.538 66.1893 229.185 66.1744C227.315 66.0149 225.498 66.8435 224.39 68.3605Z" fill="#760CE1"/>
<path d="M244.419 96.5119C244.68 96.7823 244.818 97.148 244.802 97.5236C244.812 97.8843 244.674 98.2333 244.419 98.4887C244.149 98.7497 243.784 98.8884 243.409 98.8724H242.376C240.83 98.8926 239.309 98.4906 237.975 97.7096C236.701 96.9847 235.655 95.9173 234.956 94.6282C234.222 93.269 233.85 91.7431 233.876 90.198V77.6166H230.393C229.751 77.6166 229.231 77.096 229.231 76.4538C229.231 75.8116 229.751 75.291 230.393 75.291H233.876V67.8491C233.86 67.4736 233.998 67.1079 234.259 66.8375C234.514 66.5825 234.863 66.4437 235.223 66.4538C235.6 66.4257 235.971 66.5636 236.239 66.8316C236.507 67.0997 236.644 67.4711 236.616 67.8491V75.1863H242.55C242.878 75.1685 243.199 75.291 243.432 75.5236C243.661 75.7543 243.783 76.0706 243.769 76.3956C243.778 76.7233 243.657 77.0414 243.432 77.2794C243.199 77.5119 242.878 77.6345 242.55 77.6166H236.616V90.2677C236.557 91.8487 237.144 93.3855 238.242 94.5236C239.347 95.6278 240.862 96.2218 242.422 96.1631H243.409C243.779 96.1377 244.143 96.2635 244.419 96.5119Z" fill="#760CE1"/>
<path d="M110.192 10.0116H120.329C120.623 10.072 120.922 10.1031 121.223 10.1047H144.155C146.675 10.0733 148.71 8.03518 148.742 5.51163V4.65116C148.742 2.10493 146.697 0.0318279 144.155 0H105.919C90.5603 0.0440722 78.0974 12.4573 77.9702 27.8372C77.983 43.1463 90.376 55.5517 105.663 55.5581H113.524H130.837C137.612 55.5195 143.763 51.5876 146.65 45.4496C149.538 39.3116 148.649 32.0585 144.364 26.8023C144.132 26.5698 143.969 26.3372 143.737 26.093C140.431 22.4578 135.747 20.3888 130.837 20.3954H110.9C108.112 20.3763 105.857 18.1176 105.838 15.3256V15C105.873 12.4935 107.716 10.3817 110.192 10.0116ZM110.9 30.314H130.825C135.035 30.3074 138.462 33.7029 138.5 37.9186C138.484 42.1912 135.09 45.6824 130.825 45.814H105.663C97.7307 45.7647 90.7786 40.4876 88.588 32.8524C86.3973 25.2171 89.4918 17.0493 96.1885 12.7907C96.0815 13.5184 96.0272 14.2529 96.0259 14.9884V15.3023C96.0321 18.3237 96.9643 21.2704 98.6965 23.7442C99.2425 24.5849 99.8771 25.3646 100.589 26.0698C103.342 28.7769 107.042 30.2999 110.9 30.314Z" fill="#760CE1"/>
</g>
<defs>
<clipPath id="clip0_316_1725">
<rect width="245" height="100" fill="white"/>
</clipPath>
</defs>
</svg>
