<svg width="530" height="104" viewBox="0 0 530 104" fill="none" xmlns="http://www.w3.org/2000/svg">
<g clip-path="url(#clip0_316_1860)">
<path d="M158.96 28.6393C150.08 27.6793 144.4 29.9993 138.56 37.2793V29.5193H126.4V101.519H138.64V60.1593C138.64 54.3193 140.16 49.0393 143.52 44.8793C146.88 40.7193 151.36 39.7593 155.52 39.7593C158.56 39.7593 161.44 40.7193 163.92 42.4793L168.4 31.8393C165.68 30.4793 161.92 28.9593 158.96 28.6393Z" fill="#3155A4"/>
<path d="M103.04 101.52H115.28V58.0802C115.28 47.8402 113.36 40.3202 108.72 35.6002C104.08 30.8802 97.5198 28.1602 87.1198 28.1602C79.6798 28.1602 72.2398 29.9202 63.9998 35.3602L68.9598 46.0002C75.6798 41.2002 80.3198 39.3602 87.5198 39.5202C97.7598 39.7602 103.04 44.8802 103.04 56.4002C99.9198 55.5202 96.7198 55.0402 93.4398 55.0402C83.5998 55.0402 75.5998 57.9202 69.2798 62.9602C62.9598 68.0002 60.0798 74.1602 60.0798 81.4402C59.9198 87.2002 62.1598 92.7202 66.2398 96.7202C70.3198 100.8 75.1998 102.48 80.7998 102.88C89.8398 103.52 96.2398 101.36 102.88 95.0402V101.52H103.04ZM103.04 82.5602C98.0798 88.6402 91.7598 93.2002 85.3598 93.2002C76.5598 93.2002 71.9998 88.8002 71.9998 81.3602C71.9998 76.8802 73.6798 73.1202 77.7598 69.8402C81.8398 66.5602 88.2398 65.0402 94.6398 65.0402C97.4398 65.1202 100.32 65.4402 103.04 66.0802V82.5602Z" fill="#3155A4"/>
<path d="M214.48 101.52H226.72V58.0802C226.72 47.8402 224.88 40.3202 220.16 35.6002C215.52 30.8802 208.96 28.1602 198.56 28.1602C191.12 28.1602 183.68 29.9202 175.44 35.3602L180.4 46.0002C187.12 41.2002 191.76 39.3602 198.96 39.5202C209.2 39.7602 214.48 44.8802 214.48 56.4002C211.36 55.5202 208.16 55.0402 204.88 55.0402C195.04 55.0402 187.04 57.9202 180.72 62.9602C174.4 68.0002 171.52 74.1602 171.52 81.4402C171.36 87.2002 173.6 92.7202 177.68 96.7202C181.76 100.8 186.64 102.48 192.24 102.88C201.28 103.52 207.68 101.36 214.32 95.0402L214.48 101.52ZM214.48 82.5602C209.52 88.6402 203.2 93.2002 196.8 93.2002C188 93.2002 183.44 88.8002 183.44 81.3602C183.44 76.8802 185.12 73.1202 189.2 69.8402C193.28 66.5602 199.68 65.0402 206.08 65.0402C208.88 65.1202 211.76 65.4402 214.48 66.0802V82.5602Z" fill="#3155A4"/>
<path d="M269.68 28.24C265.76 28.16 261.84 28.96 258.24 30.64C255.2 32 252.4 34 250.08 36.4V0H237.84V101.52H250.08V51.04C252.24 47.28 254.24 44.8 257.36 42.56C260 40.56 263.2 39.52 266.48 39.52C270.64 39.44 274.72 41.12 277.6 44.16C280.32 46.8 281.92 51.44 281.92 56.8V101.6H294.16V56.8C294.16 48.16 292 41.36 287.68 36.4C283.28 31.04 276.64 28.08 269.68 28.24Z" fill="#3155A4"/>
<path d="M333.601 61.3598L324.161 56.7998C319.441 54.7198 315.041 52.0798 314.961 47.7598C314.721 39.6798 323.441 38.5598 326.881 38.8798C331.921 39.3598 336.241 41.6798 342.241 45.1998L345.841 34.5598C338.321 29.8398 331.361 28.3198 326.161 28.0798C319.521 27.7598 314.721 29.0398 309.361 33.4398C305.201 36.9598 302.801 42.2398 302.961 47.6798C302.961 49.8398 303.281 51.9998 304.081 53.9998C304.881 55.9998 306.001 57.9198 307.441 59.5198C308.961 61.2798 310.721 62.8798 312.721 64.1598C314.721 65.5198 318.641 67.0398 324.481 69.6798C332.081 73.1198 336.641 77.0398 336.641 81.6798C336.641 88.1598 331.441 91.1198 323.601 91.1198C319.281 91.1198 314.241 89.9998 307.041 85.9198L302.561 96.8798C309.041 100.56 316.321 102.56 323.841 102.64C332.321 102.64 337.441 101.12 342.561 97.1198C347.041 93.5198 349.121 88.5598 349.121 82.2398C349.121 77.3598 348.001 73.3598 345.521 70.1598C342.161 66.3998 338.161 63.3598 333.601 61.3598Z" fill="#3155A4"/>
<path d="M410.4 38.0802C404.72 31.5202 396.8 28.2402 386.56 28.2402C376.88 28.2402 369.04 31.6802 363.12 38.4802C357.2 45.2802 354.24 54.3202 354.16 65.4402C354.16 76.8802 357.04 86.0002 362.72 92.8002C368.4 99.6002 376.32 102.96 386.56 102.96C396.56 102.96 404.4 99.6002 410.16 92.8802C415.92 86.1602 418.8 77.0402 418.88 65.4402C418.88 53.7602 416.08 44.6402 410.4 38.0802ZM401.36 84.5602C397.76 89.2802 392.8 91.6002 386.56 91.6002C380.16 91.6002 375.2 89.2002 371.6 84.4802C368 79.7602 366.24 73.3602 366.24 65.3602C366.24 57.6002 368.08 51.3602 371.84 46.5602C375.28 41.9202 380.8 39.2802 386.56 39.4402C392.96 39.4402 397.92 41.7602 401.52 46.3202C405.12 50.8802 406.88 57.2802 406.8 65.4402C406.8 73.5202 405.04 79.9202 401.36 84.5602Z" fill="#3155A4"/>
<path d="M437.84 8.15951C433.36 13.3595 431.6 20.3195 431.6 29.4395H420.72V40.6395H431.6V101.52H443.76V40.6395H458.24V29.4395H443.76C443.52 28.1595 443.12 19.0395 446.96 14.7995C449.44 11.9995 453.04 10.3995 456.8 10.3995C459.36 10.4795 461.92 11.1195 464.16 12.2395L468.08 2.63951C464.16 0.959509 459.92 0.0795091 455.68 -0.0804909C448.8 -0.160491 442.24 2.87951 437.84 8.15951Z" fill="#3155A4"/>
<path d="M500.8 91.6798C496.24 91.6798 492.96 90.8798 490.96 88.3198C488.96 85.7598 487.92 81.5198 487.92 75.5198V40.6398H507.6V29.4398H487.92V9.83984L475.6 14.7198V29.5198H467.04V40.7198H475.6V80.6398C475.6 87.0398 477.2 92.3198 481.12 96.5598C485.04 100.8 489.84 102.56 495.52 102.88C501.44 103.2 507.28 102.4 512.88 100.4L511.04 89.7598C507.76 90.9598 504.32 91.5998 500.8 91.6798Z" fill="#3155A4"/>
<path d="M0 65.5202C0 86.1602 17.04 102.88 38.08 102.88C44.08 102.8 49.92 101.44 55.36 98.8002L51.92 87.3602C47.76 90.0002 43.04 91.4402 38.08 91.4402C23.84 91.6802 12.08 80.3202 11.76 66.0802C11.52 51.7602 22.88 40.0002 37.12 39.7602C37.44 39.7602 37.76 39.7602 38 39.7602C42.96 39.7602 47.76 41.2002 51.92 43.8402L55.2 32.2402C49.84 29.6002 44 28.2402 38 28.2402C17.04 28.2402 0 44.8802 0 65.5202Z" fill="#3155A4"/>
<path d="M528 93.7601C525.76 91.5201 522.08 91.5201 519.84 93.7601C517.6 96.0001 517.6 99.6801 519.84 101.92C522.08 104.16 525.76 104.16 528 101.92C529.12 100.8 529.68 99.3601 529.68 97.8401C529.76 96.3201 529.12 94.8001 528 93.7601ZM527.36 101.28C525.44 103.2 522.4 103.2 520.48 101.28C518.56 99.3601 518.56 96.3201 520.48 94.4001C522.4 92.4801 525.44 92.4801 527.36 94.4001C528.24 95.2801 528.8 96.5601 528.8 97.8401C528.8 99.1201 528.24 100.4 527.36 101.28Z" fill="#3155A4"/>
<path d="M526.32 96.4005C526.32 95.5205 525.92 94.4805 524 94.4805H521.92V100.96H523.12V98.4005H523.92L525.36 100.96H526.72L525.12 98.2405C525.84 98.0005 526.4 97.2805 526.32 96.4005ZM523.84 97.3605H523.04V95.5205H523.84C524.96 95.5205 525.12 95.9205 525.12 96.4005C525.12 96.6405 525.12 97.3605 523.84 97.3605Z" fill="#3155A4"/>
</g>
<defs>
<clipPath id="clip0_316_1860">
<rect width="529.68" height="103.6" fill="white"/>
</clipPath>
</defs>
</svg>
