<svg width="385" height="100" viewBox="0 0 385 100" fill="none" xmlns="http://www.w3.org/2000/svg">
<g clip-path="url(#clip0_316_1735)">
<path d="M73.4677 0H26.834C12.014 0 0 12.009 0 26.8229V73.1769C0 87.9908 12.014 99.9998 26.834 99.9998H73.4677C88.2877 99.9998 100.302 87.9908 100.302 73.1769V26.8229C100.302 12.009 88.2877 0 73.4677 0Z" fill="#FFF212"/>
<path d="M303.514 57.1413C304.11 62.666 309.947 66.2756 315.083 66.2756C320.508 66.2756 324.394 64.7173 326.491 61.305L333.841 65.4717C330.503 71.6161 322.881 74.4932 314.956 74.4932C311.948 74.4932 309.179 73.9672 306.647 72.9024C304.116 71.8375 301.848 70.2594 299.83 68.1798C297.925 66.2006 296.446 63.9082 295.394 61.303C294.341 58.7101 293.815 56.0293 293.815 53.2986C293.815 50.4803 294.304 47.8373 295.269 45.3569C296.233 42.8766 297.662 40.647 299.542 38.6681C301.597 36.4886 303.928 34.8098 306.522 33.645C309.116 32.4676 311.785 31.8789 314.554 31.8789C318.05 31.8789 321.321 32.6682 324.354 34.2589C327.386 35.8497 329.968 38.092 332.098 40.9731C333.402 42.7143 334.354 44.6557 334.981 46.8103C335.607 48.9522 335.92 51.4199 335.92 54.2134C335.92 54.4262 335.907 54.7645 335.883 55.2154C335.858 55.679 335.845 56.9161 335.845 57.1416H303.514L303.514 57.1413ZM326.91 49.7412C326.053 46.6024 324.606 44.2081 322.583 42.5731C320.56 40.9233 318.001 40.1058 314.919 40.1058C312.253 40.1058 309.854 40.9963 307.737 42.7627C305.62 44.5292 304.2 46.8504 303.463 49.7412H326.91Z" fill="#373435"/>
<path d="M258.316 17.2365V38.1286C259.739 36.2997 261.917 34.4509 263.761 33.5694C265.611 32.6848 267.717 32.2542 270.092 32.2542C275.34 32.2542 279.374 33.8074 282.18 36.9013C284.987 39.9953 286.383 44.4549 286.383 50.2668V73.4403H277.505V55.6279C277.505 50.1038 277.842 45.7704 275.638 43.3156C274.066 41.5645 271.124 40.3814 267.912 40.3814C264.649 40.3814 261.583 42.3627 260.16 44.5797C258.737 46.7967 258.377 48.2162 258.377 56.1741V73.4729L249.258 73.4403V16.748L258.315 17.2365H258.316Z" fill="#373435"/>
<path d="M216.932 60.7445C217.971 63.6807 221.27 66.5539 224.896 66.5997C229.343 66.6558 232.744 65.2091 232.795 62.6654C232.853 59.7806 230.191 57.8359 225.891 57.0473C221.506 56.2431 217.138 54.2665 215.878 53.4474C214.034 52.2198 212.671 50.8545 211.803 49.3514C210.92 47.8482 210.486 46.1197 210.486 44.1905C210.486 40.7835 211.958 37.9024 214.902 35.5599C217.861 33.2051 221.425 32.0273 225.64 32.0273C230.086 32.0273 233.591 33.0633 236.176 35.1465C238.045 36.6536 239.783 38.341 240.698 40.5716L233.265 44.9466C232.191 41.3403 228.235 39.9989 225.398 39.9989C222.309 39.9989 219.785 41.4612 219.865 44.14C219.931 46.3169 222.501 47.6713 226.996 49.1807C230.315 50.2947 235.369 50.7805 238.93 54.4109C240.596 56.109 241.35 58.4206 241.35 61.477C241.35 65.235 240.128 68.647 236.983 71.1021C233.838 73.5572 229.513 74.4919 224.741 74.4919C219.922 74.4919 216.048 73.2016 213.089 70.6087C211.327 69.0568 210.042 67.1814 209.235 64.9777L216.931 60.7452L216.932 60.7445Z" fill="#373435"/>
<path d="M192.306 73.4405V68.4802C188.979 72.9069 184.226 74.1265 179.475 74.3426C173.399 74.6189 168.306 72.301 164.229 68.2299C160.153 64.1588 158.108 59.0982 158.108 53.0604C158.108 50.2169 158.619 47.5237 159.641 44.981C160.664 42.4382 162.121 40.196 164.025 38.2669C166.069 36.1375 168.331 34.5716 170.823 33.5569C173.328 32.5422 176.13 31.8791 179.245 32.0289C184.209 32.2673 188.947 33.7727 192.19 37.9411V33.0811H201.583V73.4408H192.306V73.4405ZM167.08 53.1431C167.08 56.7414 168.326 59.7553 170.83 62.1851C173.32 64.6146 176.364 65.8229 179.961 65.8229C183.227 65.8229 186.091 64.6014 188.581 62.1718C191.058 59.7287 192.303 56.8739 192.303 53.6079C192.303 50.1292 191.058 47.1419 188.553 44.6456C186.063 42.1361 183.143 40.8883 179.795 40.8883C176.281 40.8883 173.293 42.07 170.802 44.4467C168.325 46.8234 167.08 49.7178 167.08 53.1434V53.1431Z" fill="#373435"/>
<path d="M146.364 47.1164C144.394 43.4411 140.581 40.7799 135.413 40.7799C128.757 40.7799 123.164 46.1472 123.164 53.2219C123.164 60.804 129.785 65.9101 135.573 65.9101C140.765 65.9101 144.421 62.9954 146.606 59.1534L154.003 63.3959C152.677 66.1405 150.858 68.4299 148.543 70.27C144.997 73.0884 140.686 74.4912 135.623 74.4912C132.64 74.4912 129.884 73.9653 127.34 72.9004C124.796 71.8356 122.49 70.2574 120.435 68.1779C118.53 66.2238 117.039 63.9314 115.961 61.3011C114.883 58.6829 114.344 56.0024 114.344 53.2966C114.344 50.4531 114.833 47.8101 115.81 45.3301C116.788 42.8624 118.229 40.645 120.146 38.6661C122.252 36.4365 124.62 34.7454 127.264 33.6055C129.908 32.453 132.74 31.877 135.773 31.877C140.711 31.877 144.996 33.2798 148.618 36.0981C151.003 37.9456 152.85 40.2171 154.162 42.9082L146.364 47.1161V47.1164Z" fill="#373435"/>
<path d="M375.723 73.4405V68.4802C372.396 72.9069 367.643 74.1265 362.892 74.3426C356.816 74.6189 351.723 72.301 347.646 68.2299C343.57 64.1588 341.525 59.0982 341.525 53.0604C341.525 50.2169 342.036 47.5237 343.058 44.981C344.081 42.4382 345.538 40.196 347.442 38.2669C349.486 36.1375 351.748 34.5716 354.24 33.5569C356.745 32.5422 359.547 31.8791 362.662 32.0289C367.626 32.2673 372.364 33.7727 375.607 37.9411V33.0811H385V73.4408H375.723V73.4405ZM350.497 53.1431C350.497 56.7414 351.743 59.7553 354.247 62.1851C356.737 64.6146 359.781 65.8229 363.378 65.8229C366.644 65.8229 369.508 64.6014 371.998 62.1718C374.475 59.7287 375.72 56.8739 375.72 53.6079C375.72 50.1292 374.475 47.1419 371.97 44.6456C369.48 42.1361 366.56 40.8883 363.212 40.8883C359.698 40.8883 356.71 42.07 354.219 44.4467C351.742 46.8234 350.497 49.7178 350.497 53.1434V53.1431Z" fill="#373435"/>
<path fill-rule="evenodd" clip-rule="evenodd" d="M80.0609 50.5204C79.7593 66.5834 66.6404 79.5125 50.4987 79.5125C34.168 79.5125 20.9292 66.2792 20.9292 49.9553C20.9292 33.7476 33.9807 20.5889 50.1509 20.4023V35.2029C42.1585 35.3875 35.7359 41.9217 35.7359 49.9549C35.7359 58.1048 42.3455 64.7117 50.4987 64.7117C58.4626 64.7117 64.9523 58.4079 65.2496 50.5201H80.0609V50.5204Z" fill="#373435"/>
</g>
<defs>
<clipPath id="clip0_316_1735">
<rect width="385" height="100" fill="white"/>
</clipPath>
</defs>
</svg>
