<svg width="95" height="22" viewBox="0 0 95 22" fill="none" xmlns="http://www.w3.org/2000/svg">
<g clip-path="url(#clip0_3303_26625)">
<path fill-rule="evenodd" clip-rule="evenodd" d="M15.5347 13.9918C14.4648 16.0886 12.3252 17.4152 9.9716 17.4152C6.54818 17.4152 3.76665 14.6337 3.76665 11.2103C3.76665 7.78685 6.54818 5.00531 9.9716 5.00531C12.368 5.00531 14.5504 6.37468 15.5775 8.55712L14.7216 10.1404C14.2081 7.95802 12.2824 6.33189 9.92881 6.33189C7.23286 6.33189 5.05043 8.51432 5.05043 11.2103C5.05043 13.9062 7.23286 16.0886 9.92881 16.0886C11.8973 16.0886 13.5662 14.9332 14.3793 13.2643L19.8567 2.99405L30.127 20.3679H31.4964L20.3275 1.4963L19.7712 0.597656L19.2576 1.5391L17.4175 5.00531C15.6203 2.7373 12.8815 1.45351 9.9716 1.45351C4.57971 1.45351 0.214844 5.81838 0.214844 11.2103C0.214844 16.6022 4.57971 20.967 9.9716 20.967C13.7374 20.967 17.1608 18.7846 18.7869 15.404L19.8995 13.2643L24.1788 20.3679H25.5482L19.8139 10.8251L17.7599 14.8049L17.7171 14.8904C16.3049 17.8859 13.2666 19.8116 9.9716 19.8116C5.2216 19.8116 1.41304 15.9603 1.41304 11.2531C1.41304 6.54585 5.26439 2.6945 10.0144 2.6945C12.7531 2.6945 15.3207 3.97829 16.904 6.20351L16.2621 7.40171C14.9356 5.26207 12.582 3.93549 9.9716 3.93549C5.90629 3.93549 2.56845 7.27333 2.56845 11.3386C2.56845 15.404 5.90629 18.7418 9.9716 18.7418C12.7531 18.7418 15.3207 17.2013 16.5617 14.6765L19.8995 8.0436L27.2599 20.3251H28.6293L19.8139 5.60441L15.5775 13.9062L15.5347 13.9918Z" fill="#111111"/>
<mask id="mask0_3303_26625" style="mask-type:luminance" maskUnits="userSpaceOnUse" x="6" y="7" width="8" height="8">
<path d="M6.24805 11.2542C6.24805 13.3083 7.91697 14.9772 9.97102 14.9772C12.0251 14.9772 13.694 13.3083 13.694 11.2542C13.694 9.20017 12.0251 7.53125 9.97102 7.53125C7.91697 7.53125 6.24805 9.20017 6.24805 11.2542Z" fill="white"/>
</mask>
<g mask="url(#mask0_3303_26625)">
<path d="M13.694 7.53125H6.24805V14.9772H13.694V7.53125Z" fill="url(#paint0_radial_3303_26625)"/>
</g>
<path d="M34.9184 20.3273V14.6359H33.1211V13.4805H37.9567V14.6359H36.1594V20.3273H34.9184Z" fill="#111111"/>
<path d="M38.7266 20.3273V13.4805H43.2626V14.6359H39.9676V16.1336H43.0058V17.289H39.9676V19.1719H43.3482V20.3273H38.7266Z" fill="#111111"/>
<path d="M48.3132 17.802L49.5114 18.2299C49.3402 19.0002 49.0407 19.5137 48.6127 19.8989C48.1848 20.284 47.6713 20.4552 46.9866 20.4552C46.1735 20.4552 45.5317 20.1556 44.9753 19.5137C44.419 18.8718 44.2051 18.0588 44.2051 16.9462C44.2051 15.7908 44.4618 14.9349 44.9753 14.293C45.4889 13.6511 46.1735 13.3516 47.0294 13.3516C47.7569 13.3516 48.3988 13.6083 48.8267 14.079C49.1262 14.3786 49.2974 14.8065 49.4258 15.3628L48.2276 15.7052C48.142 15.3628 48.0136 15.0633 47.7569 14.8493C47.5429 14.6353 47.2434 14.5498 46.9438 14.5498C46.4731 14.5498 46.1308 14.7209 45.8312 15.1061C45.5317 15.4484 45.4033 16.0475 45.4033 16.8606C45.4033 17.7164 45.5317 18.3583 45.8312 18.7007C46.1308 19.043 46.4731 19.257 46.901 19.257C47.2434 19.257 47.5001 19.1286 47.7569 18.9146C48.0136 18.7007 48.1848 18.2727 48.3132 17.802Z" fill="#111111"/>
<path d="M50.5391 20.3273V13.4805H51.7801V16.1764H54.1764V13.4805H55.4174V20.3273H54.1764V17.3318H51.7801V20.3273H50.5391Z" fill="#111111"/>
<path d="M56.7012 20.3273V13.4805H57.8994L60.3814 18.0165V13.4805H61.494V20.3273H60.2958L57.8138 15.8341V20.3273H56.7012Z" fill="#111111"/>
<path d="M62.5625 16.9034C62.5625 16.2187 62.6481 15.6196 62.8193 15.1489C62.9476 14.8065 63.1616 14.507 63.3756 14.2074C63.6323 13.9079 63.8891 13.7367 64.1458 13.6083C64.531 13.4371 64.9589 13.3516 65.4724 13.3516C66.3711 13.3516 67.0985 13.6511 67.6121 14.293C68.1256 14.9349 68.4251 15.7908 68.4251 16.9034C68.4251 18.016 68.1684 18.8718 67.6121 19.5137C67.0985 20.1556 66.3711 20.4552 65.4724 20.4552C64.5738 20.4552 63.8463 20.1556 63.3328 19.5137C62.8193 18.8718 62.5625 18.016 62.5625 16.9034ZM63.8463 16.8606C63.8463 17.6308 64.0175 18.2299 64.317 18.6151C64.6166 19.0002 65.0445 19.2142 65.5152 19.2142C65.9859 19.2142 66.4139 19.0002 66.7134 18.6151C67.0129 18.2299 67.1841 17.6308 67.1841 16.8178C67.1841 16.0047 67.0129 15.4484 66.7134 15.0633C66.4139 14.6781 65.9859 14.507 65.4724 14.507C64.9589 14.507 64.5738 14.7209 64.2314 15.1061C63.9747 15.4912 63.8035 16.0903 63.8463 16.8606Z" fill="#111111"/>
<path d="M69.4531 20.3275V13.5234H70.6941V19.1721H73.7324V20.3275H69.4531Z" fill="#111111"/>
<path d="M74.373 16.9034C74.373 16.2187 74.4586 15.6196 74.6298 15.1489C74.7582 14.8065 74.9721 14.507 75.1861 14.2074C75.4429 13.9079 75.6996 13.7367 75.9564 13.6083C76.3415 13.4371 76.7694 13.3516 77.283 13.3516C78.1816 13.3516 78.9091 13.6511 79.4226 14.293C79.9361 14.9349 80.2357 15.7908 80.2357 16.9034C80.2357 18.016 79.9789 18.8718 79.4226 19.5137C78.9091 20.1556 78.1816 20.4552 77.283 20.4552C76.3843 20.4552 75.6568 20.1556 75.1433 19.5137C74.6298 18.8718 74.373 18.016 74.373 16.9034ZM75.614 16.8606C75.614 17.6308 75.7852 18.2299 76.0848 18.6151C76.3843 19.0002 76.8122 19.2142 77.283 19.2142C77.7537 19.2142 78.1816 19.0002 78.4812 18.6151C78.7807 18.2299 78.9519 17.6308 78.9519 16.8178C78.9519 16.0047 78.7807 15.4484 78.4812 15.0633C78.1816 14.6781 77.7537 14.507 77.2402 14.507C76.7266 14.507 76.3415 14.7209 75.9992 15.1061C75.6568 15.4912 75.614 16.0903 75.614 16.8606Z" fill="#111111"/>
<path d="M84.0441 17.8022V16.6468H86.6973V19.3855C86.4405 19.6851 86.0554 19.899 85.5847 20.113C85.114 20.327 84.6005 20.4553 84.0869 20.4553C83.445 20.4553 82.8887 20.327 82.418 20.0274C81.9473 19.7279 81.605 19.2999 81.3482 18.7436C81.0914 18.1873 81.0059 17.5882 81.0059 16.9035C81.0059 16.1761 81.1342 15.5342 81.391 15.0207C81.6477 14.4644 82.0329 14.0364 82.5464 13.7369C82.9315 13.5229 83.445 13.3945 84.0014 13.3945C84.7716 13.3945 85.3279 13.5657 85.7559 13.908C86.1838 14.2504 86.4405 14.7639 86.5689 15.4058L85.3279 15.6625C85.2423 15.3202 85.0712 15.0635 84.8572 14.8495C84.6432 14.6355 84.3437 14.5499 83.9586 14.5499C83.445 14.5499 83.0171 14.7211 82.6748 15.1062C82.3752 15.4914 82.2041 16.0477 82.2041 16.818C82.2041 17.631 82.3752 18.2301 82.6748 18.658C82.9743 19.086 83.4023 19.2571 83.9158 19.2571C84.1725 19.2571 84.4293 19.2144 84.686 19.086C84.9428 18.9576 85.1568 18.8292 85.3707 18.658V17.8022H84.0441Z" fill="#111111"/>
<path d="M89.4362 20.3273V17.4174L87.2109 13.4805H88.6231L90.0781 16.1764L91.4474 13.4805H92.9024L90.6344 17.4174V20.3273H89.4362Z" fill="#111111"/>
<path d="M39.0276 6.80581L40.9533 7.40491C40.6537 8.47473 40.183 9.245 39.4983 9.75852C38.8136 10.272 37.9578 10.5288 36.8879 10.5288C35.6042 10.5288 34.5343 10.1009 33.6785 9.20221C32.8654 8.30356 32.4375 7.10536 32.4375 5.56482C32.4375 3.9387 32.8654 2.69771 33.6785 1.79906C34.4916 0.900408 35.6042 0.429688 36.9735 0.429688C38.1717 0.429688 39.156 0.77203 39.8834 1.49951C40.3114 1.92744 40.6537 2.52653 40.8677 3.2968L38.8992 3.76753C38.7708 3.25401 38.5569 2.86888 38.1717 2.56933C37.7866 2.26978 37.4443 2.1414 36.8879 2.1414C36.1605 2.1414 35.5614 2.39816 35.1334 2.91167C34.7055 3.42518 34.4488 4.28104 34.4488 5.43644C34.4488 6.67743 34.6627 7.53329 35.1334 8.0896C35.6042 8.6459 36.1605 8.85987 36.8452 8.85987C37.3587 8.85987 37.8294 8.6887 38.2145 8.34635C38.5997 8.0468 38.8564 7.53329 39.0276 6.80581Z" fill="#111111"/>
<path d="M51.4363 10.3974H49.2966L48.4408 8.17216H44.5466L43.7336 10.3974H41.6367L45.4453 0.640625H47.5421L51.4363 10.3974ZM47.7989 6.50324L46.4723 2.86585L45.1457 6.50324H47.7989Z" fill="#111111"/>
<path d="M51.9941 7.23019L53.9198 7.05902C54.0482 7.70091 54.2622 8.17163 54.6045 8.47118C54.9468 8.77073 55.4176 8.9419 56.0167 8.9419C56.6586 8.9419 57.1293 8.81352 57.4716 8.55676C57.814 8.30001 57.9423 7.95766 57.9423 7.61532C57.9423 7.40136 57.8568 7.18739 57.7284 7.01622C57.6 6.84505 57.3432 6.71667 57.0009 6.5883C56.7869 6.50271 56.2306 6.37433 55.4176 6.16037C54.3477 5.90361 53.6203 5.56127 53.1923 5.21893C52.5932 4.70541 52.2937 4.02073 52.2937 3.25046C52.2937 2.73694 52.4221 2.30902 52.7216 1.8383C53.0212 1.41037 53.4063 1.06803 53.9198 0.854061C54.4333 0.640097 55.0752 0.511719 55.8455 0.511719C57.0865 0.511719 57.9851 0.768475 58.627 1.32478C59.2261 1.88109 59.5685 2.56577 59.6113 3.46442L57.6428 3.55001C57.5572 3.03649 57.386 2.69415 57.0865 2.48019C56.8297 2.26622 56.4018 2.13784 55.8455 2.13784C55.2892 2.13784 54.8185 2.26622 54.4761 2.48019C54.2622 2.60857 54.1766 2.82253 54.1766 3.07929C54.1766 3.29325 54.2622 3.50721 54.4761 3.67839C54.7329 3.89235 55.332 4.10631 56.2734 4.32028C57.2149 4.53424 57.9423 4.791 58.4131 5.00496C58.8838 5.26172 59.2261 5.56127 59.4829 5.9892C59.7396 6.41712 59.868 6.93064 59.868 7.52974C59.868 8.08604 59.6968 8.59956 59.3973 9.11307C59.0977 9.58379 58.627 9.96893 58.0707 10.1829C57.5144 10.3969 56.7869 10.5252 55.9311 10.5252C54.6901 10.5252 53.7486 10.2257 53.1068 9.66938C52.5077 9.11307 52.0797 8.30001 51.9941 7.23019Z" fill="#111111"/>
<path d="M63.7615 10.3974V2.26675H60.8516V0.640625H68.6398V2.26675H65.7299V10.3974H63.7615Z" fill="#111111"/>
<path d="M69.9238 10.3976V0.683594H71.9351V8.72864H76.8135V10.3976H69.9238Z" fill="#111111"/>
<path d="M78.2246 10.3974V0.640625H85.4566V2.26675H80.1931V4.44918H85.0715V6.07531H80.1931V8.72846H85.6278V10.3974H78.2246Z" fill="#111111"/>
<path d="M86.8262 7.23019L88.7518 7.05902C88.8802 7.70091 89.0942 8.17163 89.4365 8.47118C89.7789 8.77073 90.2496 8.9419 90.8487 8.9419C91.4906 8.9419 91.9613 8.81352 92.3037 8.55676C92.646 8.30001 92.7744 7.95766 92.7744 7.61532C92.7744 7.40136 92.6888 7.18739 92.5604 7.01622C92.432 6.84505 92.1753 6.71667 91.8329 6.5883C91.619 6.50271 91.0627 6.37433 90.2496 6.16037C89.1798 5.90361 88.4523 5.56127 88.0244 5.21893C87.4253 4.70541 87.1257 4.02073 87.1257 3.25046C87.1257 2.73694 87.2541 2.30902 87.5537 1.8383C87.8532 1.41037 88.2383 1.06803 88.7946 0.854061C89.3509 0.640097 89.95 0.511719 90.7203 0.511719C91.9613 0.511719 92.86 0.768475 93.5019 1.32478C94.1009 1.88109 94.4433 2.56577 94.4861 3.46442L92.5176 3.55001C92.432 3.03649 92.2609 2.69415 91.9613 2.48019C91.7046 2.26622 91.2766 2.13784 90.7203 2.13784C90.164 2.13784 89.6933 2.26622 89.3937 2.48019C89.1798 2.60857 89.0942 2.82253 89.0942 3.07929C89.0942 3.29325 89.1798 3.50721 89.3937 3.67839C89.6505 3.89235 90.2496 4.10631 91.191 4.32028C92.1325 4.53424 92.86 4.791 93.3307 5.00496C93.8014 5.26172 94.1437 5.56127 94.4005 5.9892C94.6573 6.41712 94.7856 6.93064 94.7856 7.52974C94.7856 8.08604 94.6145 8.59956 94.3149 9.11307C94.0154 9.58379 93.5446 9.96893 92.9883 10.1829C92.432 10.3969 91.7046 10.5252 90.8487 10.5252C89.6077 10.5252 88.6663 10.2257 88.0244 9.66938C87.3397 9.11307 86.9546 8.30001 86.8262 7.23019Z" fill="#111111"/>
</g>
<defs>
<radialGradient id="paint0_radial_3303_26625" cx="0" cy="0" r="1" gradientUnits="userSpaceOnUse" gradientTransform="translate(8.91373 10.2595) scale(4.18)">
<stop stop-color="white"/>
<stop offset="0.13" stop-color="#F9CACB"/>
<stop offset="0.29" stop-color="#F39394"/>
<stop offset="0.44" stop-color="#EE6769"/>
<stop offset="0.57" stop-color="#EA4849"/>
<stop offset="0.68" stop-color="#E83436"/>
<stop offset="0.75" stop-color="#E82E30"/>
<stop offset="1" stop-color="#D83928"/>
</radialGradient>
<clipPath id="clip0_3303_26625">
<rect width="95" height="21.3964" fill="white"/>
</clipPath>
</defs>
</svg>
