<svg width="267" height="80" viewBox="0 0 267 80" fill="none" xmlns="http://www.w3.org/2000/svg">
<g clip-path="url(#clip0_316_1719)">
<path d="M11.064 74.2115V74.1763C11.064 70.9781 13.4596 68.3613 16.868 68.3613C18.9378 68.3613 20.1972 69.0838 21.2717 70.1146L20.0035 71.5772C19.1051 70.7402 18.1363 70.1763 16.8504 70.1763C14.7102 70.1763 13.1425 71.9472 13.1425 74.1499V74.1851C13.1425 76.3877 14.7014 78.1675 16.8504 78.1675C18.2332 78.1675 19.1139 77.6212 20.0827 76.7226L21.351 78.0089C20.1796 79.2336 18.8937 80.0001 16.7888 80.0001C13.5124 80.0001 11.0728 77.445 11.0728 74.2115" fill="#0271EB"/>
<path d="M28.397 74.2115V74.1763C28.397 71.0133 30.8366 68.3613 34.2979 68.3613C37.7592 68.3613 40.1636 70.9781 40.1636 74.1499V74.1851C40.1636 77.3481 37.724 80.0001 34.2627 80.0001C30.8014 80.0001 28.397 77.3833 28.397 74.2115ZM38.0851 74.2115V74.1763C38.0851 71.9913 36.4909 70.1763 34.2627 70.1763C32.0344 70.1763 30.4667 71.956 30.4667 74.1499V74.1851C30.4667 76.3701 32.0608 78.1675 34.2891 78.1675C36.5174 78.1675 38.0851 76.3966 38.0851 74.2115Z" fill="#0271EB"/>
<path d="M53.8063 77.0393L50.2833 71.7705V79.8058H48.3369V68.5547H50.4419L53.868 73.8763L57.294 68.5547H59.399V79.8058H57.4173V71.7353L53.868 77.0393H53.8063Z" fill="#0271EB"/>
<path d="M73.526 77.0393L70.0031 71.7705V79.8058H68.0566V68.5547H70.1616L73.5877 73.8763L77.0137 68.5547H79.1187V79.8058H77.1371V71.7353L73.5877 77.0393H73.526Z" fill="#0271EB"/>
<path d="M87.6089 75.0305V68.5547H89.5818V74.9512C89.5818 77.0393 90.6563 78.1494 92.4266 78.1494C94.1968 78.1494 95.2537 77.1009 95.2537 75.0305V68.5547H97.2266V74.9335C97.2266 78.2904 95.333 79.982 92.3913 79.982C89.4497 79.982 87.6001 78.2904 87.6001 75.0305" fill="#0271EB"/>
<path d="M105.717 79.8058V68.5547H107.549L113.573 76.3344V68.5547H115.519V79.8058H113.864L107.663 71.797V79.8058H105.717Z" fill="#0271EB"/>
<path d="M126.291 68.5547H124.318V79.8058H126.291V68.5547Z" fill="#0271EB"/>
<path d="M134.587 74.2115V74.1763C134.587 70.9781 136.983 68.3613 140.391 68.3613C142.461 68.3613 143.721 69.0838 144.795 70.1146L143.527 71.5772C142.629 70.7402 141.66 70.1763 140.374 70.1763C138.234 70.1763 136.666 71.9472 136.666 74.1499V74.1851C136.666 76.3877 138.225 78.1675 140.374 78.1675C141.757 78.1675 142.637 77.6212 143.606 76.7226L144.874 78.0089C143.703 79.2336 142.417 80.0001 140.312 80.0001C137.036 80.0001 134.596 77.445 134.596 74.2115" fill="#0271EB"/>
<path d="M156.712 68.4756H158.544L163.494 79.806H161.406L160.261 77.0923H154.942L153.788 79.806H151.762L156.712 68.4756ZM159.539 75.339L157.593 70.8368L155.664 75.339H159.539Z" fill="#0271EB"/>
<path d="M168.963 70.3873V68.5547H178.087V70.3873H174.52V79.8058H172.53V70.3873H168.963Z" fill="#0271EB"/>
<path d="M188.04 68.5547H186.067V79.8058H188.04V68.5547Z" fill="#0271EB"/>
<path d="M196.336 74.2115V74.1763C196.336 71.0133 198.776 68.3613 202.237 68.3613C205.699 68.3613 208.103 70.9781 208.103 74.1499V74.1851C208.103 77.3481 205.663 80.0001 202.202 80.0001C198.741 80.0001 196.336 77.3833 196.336 74.2115ZM206.025 74.2115V74.1763C206.025 71.9913 204.43 70.1763 202.202 70.1763C199.974 70.1763 198.406 71.956 198.406 74.1499V74.1851C198.406 76.3701 200 78.1675 202.229 78.1675C204.457 78.1675 206.025 76.3966 206.025 74.2115Z" fill="#0271EB"/>
<path d="M216.276 79.8058V68.5547H218.108L224.141 76.3344V68.5547H226.079V79.8058H224.423L218.223 71.797V79.8058H216.276Z" fill="#0271EB"/>
<path d="M233.988 78.1674L235.177 76.7577C236.251 77.6916 237.343 78.2203 238.726 78.2203C239.95 78.2203 240.717 77.6388 240.717 76.8106V76.7753C240.717 75.9736 240.267 75.533 238.18 75.0573C235.784 74.4758 234.437 73.7709 234.437 71.7004V71.6652C234.437 69.7357 236.04 68.4053 238.277 68.4053C239.915 68.4053 241.219 68.9075 242.355 69.815L241.298 71.3128C240.285 70.5551 239.272 70.1586 238.242 70.1586C237.088 70.1586 236.41 70.7489 236.41 71.4978V71.533C236.41 72.3965 236.921 72.7841 239.096 73.3039C241.474 73.8854 242.698 74.7313 242.698 76.5991V76.6343C242.698 78.7401 241.043 79.9912 238.682 79.9912C236.965 79.9912 235.344 79.4009 233.988 78.1938" fill="#0271EB"/>
<path d="M45.8179 48.4051C41.8722 51.6826 37.9881 53.1452 33.2145 53.1452C22.5752 53.1452 14.2346 43.2774 14.2346 30.6782C14.2346 18.0791 22.399 8.36987 33.2145 8.36987C37.7856 8.36987 41.5199 9.71789 45.3335 12.7487L46.6018 13.7619L52.0888 8.26415L50.5739 6.98661C47.4649 4.36106 42.2861 0.87207 33.285 0.87207C18.0834 0.87207 6.625 13.7531 6.625 30.828C6.625 47.9029 17.9954 60.6254 33.0736 60.6254C42.2597 60.6254 47.6146 56.7223 50.8469 53.7884L52.2649 52.5108L47.095 47.3478L45.8179 48.4051Z" fill="#002139"/>
<path d="M74.8119 15.5154C69.8269 15.5154 65.6082 17.1806 62.3582 20.3348V0H54.9248V59.6564H62.3582V34.9515C62.3582 27.8238 67.3696 22.6432 74.2658 22.6432C81.162 22.6432 85.0109 27.0044 85.0109 34.326V59.6564H92.4443V33.6299C92.4443 22.7929 85.3543 15.5154 74.8031 15.5154" fill="#002139"/>
<path d="M115.035 15.833C108.791 15.833 104.043 17.648 100.23 19.4189L98.6445 20.159L101.472 26.9255L103.224 26.0356C107.205 24.0004 110.887 23.0489 114.806 23.0489C119.791 23.0489 125.692 24.7669 125.991 32.7141C123.015 32.0445 119.509 31.5158 114.727 31.5158C103.11 31.5158 95.6147 37.2867 95.6147 46.2207V46.3792C95.6147 55.6215 104.422 60.6171 112.71 60.6171C118.875 60.6171 123.164 58.3352 126.018 55.8859V59.6832H133.381V33.1898C133.381 22.3352 126.529 15.8506 115.044 15.8506M103.286 45.974C103.286 41.3308 107.478 38.5643 114.498 38.5643C119.271 38.5643 123.103 39.2603 126.097 39.9651V43.0224C126.097 48.9343 120.443 53.3837 112.948 53.3837C108.148 53.3837 103.286 50.8903 103.286 46.1238V45.974Z" fill="#002139"/>
<path d="M145.113 23.181V16.4497H137.67V59.6656H145.113V41.6303C145.113 29.225 152.81 23.6656 160.438 23.6656H162.639V15.8506H160.896C154.898 15.8506 149.138 18.3792 145.113 23.1898" fill="#002139"/>
<path d="M183.601 53.1546C179.391 53.1546 177.506 51.3485 177.506 47.2956V23.6656H191.386V15.8507H177.506V3.81543H170.064V15.8507H165.043V23.6656H170.064V47.6833C170.064 55.5071 175.005 60.3617 182.967 60.3617C185.6 60.3617 187.828 59.8771 190.162 58.8022L191.219 58.3176V50.7758L188.656 51.9212C186.639 52.8286 185.265 53.1634 183.583 53.1634" fill="#002139"/>
<path d="M211.503 15.5156C199.956 15.5156 190.911 25.3835 190.911 37.9738V38.1324C190.911 50.9341 200.027 60.5905 212.119 60.5905C221.2 60.5905 226.352 56.2998 229.822 52.5641L231.09 51.1984L225.727 46.4672L224.52 47.7623C220.936 51.6037 217.043 53.3923 212.278 53.3923C206.588 53.3923 200.238 49.6302 198.82 41.4363H231.293L231.372 39.8416L231.46 38.2205V38.0707C231.46 24.802 223.252 15.5333 211.494 15.5333M211.344 22.6522C218.963 22.6522 222.53 28.4055 223.49 34.3791H198.882C200.177 27.4892 205.153 22.6522 211.344 22.6522Z" fill="#002139"/>
<path d="M258.631 15.8237C252.598 15.5858 246.864 18.3612 242.848 23.1717V16.4405H235.415V59.6563H242.848V41.6211C242.848 29.2158 250.546 23.6563 258.173 23.6563H260.375V15.8942L258.631 15.8237Z" fill="#002139"/>
</g>
<defs>
<clipPath id="clip0_316_1719">
<rect width="267" height="80" fill="white"/>
</clipPath>
</defs>
</svg>
