<svg width="533" height="100" viewBox="0 0 533 100" fill="none" xmlns="http://www.w3.org/2000/svg">
<g clip-path="url(#clip0_316_1859)">
<path d="M469.076 0.0390626C468.148 0.0388106 467.258 0.406939 466.601 1.06254C465.945 1.71815 465.575 2.60758 465.574 3.53537V28.0361H530.307L500.828 0.0466509L469.076 0.0390626ZM532.678 35.448C532.678 34.9889 532.588 34.5342 532.412 34.11C532.236 33.6858 531.979 33.3005 531.654 32.9762C531.329 32.6519 530.943 32.395 530.518 32.2201C530.094 32.0453 529.639 31.956 529.18 31.9574H504.681V96.6875L532.666 67.2013L532.678 35.448ZM497.258 99.0371C498.184 99.0345 499.071 98.6649 499.725 98.0091C500.379 97.3533 500.746 96.465 500.746 95.5388V71.0409H436.017L465.491 99.0304L497.258 99.0371ZM433.652 63.6319C433.652 64.0912 433.743 64.546 433.918 64.9703C434.094 65.3947 434.351 65.7803 434.676 66.1051C435.001 66.43 435.386 66.6877 435.81 66.8635C436.235 67.0394 436.689 67.13 437.149 67.1301H461.649V2.39523L433.656 31.8739L433.652 63.6319Z" fill="#0659A5"/>
<path d="M136.949 11.8522V41.7444H95.2987V11.8522L80.1344 11.8465V87.2183H95.2987V54.838H136.949V87.2183H152.141V11.8522H136.949ZM338.745 11.8522V87.205L405.298 87.2012L396.865 73.9406H353.962V54.838H395.505V42.0593H353.962V24.8073H396.794L405.057 11.8522H338.745ZM23.7542 11.8427C7.97151 11.8427 0 21.4286 0 35.3882V63.5266C0 79.6764 10.267 87.2202 23.6727 87.2202L71.2551 87.2107L62.4404 73.437H26.6093C19.0011 73.437 15.6869 70.6872 15.6869 62.1674V36.6422C15.6869 28.4051 18.4747 25.1915 26.8123 25.1915H62.8141L71.2826 11.8436L23.7542 11.8427ZM272.18 11.8209C263.062 11.8209 253.73 17.2949 253.73 31.3845V35.0041C253.73 49.6827 262.719 55.2924 271.704 55.3332H303.267C306.544 55.3332 309.208 55.8757 309.208 61.419L309.204 67.8254C309.123 72.792 306.633 73.9406 303.154 73.9406H261.635L253.13 87.2003H304.125C316.429 87.2003 324.778 81.085 324.778 66.9461V61.7519C324.778 48.0854 317.022 41.6363 304.992 41.6363H274.857C271.513 41.6363 269.188 40.719 269.188 35.7705L269.185 30.5611C269.185 26.3468 270.786 24.8073 274.678 24.8073L314.216 24.7921L322.482 11.8066L272.18 11.8209ZM196.217 11.8636L160.477 87.2107H177.372L184.332 71.6499H223.166L230.105 87.2107H247.067L211.245 11.8626L196.217 11.8636ZM203.707 27.5031L217.441 58.8247H190.06L203.707 27.5031Z" fill="#010101"/>
</g>
<defs>
<clipPath id="clip0_316_1859">
<rect width="532.678" height="99.0782" fill="white"/>
</clipPath>
</defs>
</svg>
