<svg width="441" height="108" viewBox="0 0 441 108" fill="none" xmlns="http://www.w3.org/2000/svg">
<g clip-path="url(#clip0_316_1763)">
<path fill-rule="evenodd" clip-rule="evenodd" d="M222.971 47.9728C226.122 48.0178 229.059 48.2786 231.955 47.4861C236.181 46.3309 238.795 43.6907 239.654 39.3262C240.499 35.0327 238.623 31.9861 234.365 31.0113C231.652 30.3898 228.894 30.6847 226.151 30.7423C226.066 30.7442 225.983 30.8417 225.744 30.9917C224.82 36.5133 223.781 42.1392 222.971 47.9728ZM218.567 74.319C218.838 74.4449 218.973 74.562 219.109 74.5627C222.973 74.5848 226.862 74.9874 230.688 74.2626C235.541 73.3436 239.57 70.3495 239.971 64.2811C240.163 61.389 239.099 59.0349 236.447 57.7164C235.156 57.0745 233.68 56.5859 232.255 56.4789C229.164 56.2479 226.051 56.2852 222.947 56.258C221.567 56.246 221.504 56.3333 221.278 57.6733C220.472 62.4378 219.675 67.203 218.884 71.97C218.753 72.7574 218.669 73.5531 218.567 74.319ZM241.55 49.4357C242.172 49.5813 242.796 49.7192 243.416 49.8737C249.637 51.4213 253.842 57.0435 253.415 63.3253C253.181 66.7896 251.834 69.8558 249.694 72.5498C245.353 78.0131 239.682 81.2806 232.825 82.463C231.378 82.713 229.888 82.8061 228.417 82.8124C221.017 82.8459 213.618 82.8276 206.219 82.8219C205.767 82.8219 205.316 82.7738 204.773 82.7434C204.732 82.4548 204.636 82.2085 204.673 81.9851C205.426 77.4687 206.202 72.9568 206.958 68.4411C207.723 63.8747 208.466 59.3052 209.227 54.7388C210.096 49.5199 210.977 44.3034 211.848 39.0844C212.61 34.5181 213.364 29.9505 214.124 25.3835C214.191 24.9828 214.277 24.5846 214.351 24.1852C214.701 22.3331 214.7 22.3312 216.502 22.3312C222.728 22.3306 228.954 22.3122 235.179 22.3394C237.943 22.3515 240.684 22.6578 243.321 23.5256C244.525 23.9219 245.72 24.4074 246.829 25.0157C251.862 27.7761 253.905 32.7052 252.395 38.2445C251.531 41.4151 249.783 44.0053 247.136 45.9175C245.78 46.8961 244.255 47.6393 242.8 48.4792C242.379 48.7223 241.938 48.9324 241.506 49.1572L241.55 49.4357Z" fill="#268445"/>
<path fill-rule="evenodd" clip-rule="evenodd" d="M167.197 25.4427C165.945 28.445 164.811 31.1643 163.635 33.9855C163.201 33.8368 162.825 33.7393 162.475 33.5823C157.249 31.2371 151.731 30.3977 146.073 30.7611C141.767 31.0383 138.052 32.9449 134.851 35.8231C123.522 46.0129 125.761 65.0968 139.123 72.3014C142.448 74.0934 145.984 74.7175 149.75 74.5118C154.433 74.2548 158.934 73.3212 163.251 71.4906C163.433 71.4133 163.634 71.3798 163.986 71.2804C165.205 74.0301 166.416 76.7608 167.656 79.5567C167.229 79.8245 166.909 80.0701 166.553 80.241C163.178 81.8658 159.614 82.8387 155.916 83.404C152.068 83.992 148.202 84.1313 144.33 83.9813C131.586 83.4888 119.035 75.8006 115.314 61.2527C113.025 52.3048 113.972 43.617 118.889 35.6395C123.627 27.9532 130.663 23.4058 139.459 21.8107C147.305 20.3871 155.106 21.0612 162.708 23.5292C164.195 24.0116 165.597 24.7528 167.197 25.4427Z" fill="#268445"/>
<path fill-rule="evenodd" clip-rule="evenodd" d="M428.191 60.9431C428.198 57.9098 427.756 55.7343 426.603 53.7473C424.994 50.9748 422.514 49.6405 419.361 49.8045C415.24 50.019 412.115 52.0655 410.01 55.571C407.574 59.629 406.587 64.0473 407.219 68.7611C407.909 73.9035 411.924 76.8013 417.04 75.9328C419.224 75.5619 421.069 74.5238 422.651 73.0198C426.314 69.5353 427.971 65.1715 428.191 60.9431ZM414.279 83.918C409.967 83.8338 405.945 82.8761 402.3 80.6081C398.035 77.954 395.414 74.1415 394.796 69.1137C393.888 61.728 396.255 55.3488 401.497 50.2393C409.062 42.8638 418.192 40.4198 428.408 43.1923C434.767 44.9172 439.092 49.0879 440.495 55.721C441.56 60.7589 440.556 65.5804 438.124 70.0613C434.313 77.0824 428.24 81.167 420.606 83.0229C418.547 83.5243 416.391 83.6306 414.279 83.918Z" fill="#268445"/>
<path fill-rule="evenodd" clip-rule="evenodd" d="M341.562 82.7324H329.944C330.276 80.6258 330.577 78.6319 330.906 76.6425C331.684 71.9267 332.481 67.2135 333.259 62.4971C333.606 60.3899 333.935 58.2802 334.245 56.1673C334.311 55.7204 334.312 55.2507 334.261 54.8013C334.011 52.5884 332.772 51.2774 330.581 50.9553C326.816 50.4014 323.561 51.7313 320.547 53.8126C320.225 54.0341 320.009 54.555 319.938 54.9703C318.893 61.0957 317.878 67.2262 316.862 73.3566C316.42 76.0196 315.997 78.6857 315.551 81.3474C315.477 81.7912 315.329 82.2222 315.199 82.7217H303.591C305.797 69.4739 307.981 56.3546 310.177 43.1708H321.149V46.8187C321.893 46.4414 322.382 46.2167 322.849 45.9521C325.979 44.1772 329.271 42.8391 332.853 42.3429C335.135 42.0276 337.429 41.9776 339.695 42.5182C343.87 43.5132 346.478 46.6585 346.54 50.961C346.563 52.5282 346.373 54.1158 346.12 55.6678C344.76 64.015 343.351 72.3533 341.954 80.6948C341.846 81.3411 341.707 81.9823 341.562 82.7324Z" fill="#268445"/>
<path fill-rule="evenodd" clip-rule="evenodd" d="M283.375 64.3657C280.685 64.3069 278.255 64.4468 275.877 64.9342C274.403 65.2367 272.919 65.7045 271.572 66.3666C269.544 67.3636 268.323 69.072 268.003 71.3716C267.74 73.2643 268.563 74.8303 270.34 75.5291C271.632 76.0374 272.995 76.2089 274.385 76.0266C276.708 75.7215 278.721 74.6442 280.724 73.5193C281.572 73.044 282.192 72.5262 282.23 71.4482C282.257 70.6969 282.504 69.955 282.625 69.2049C282.874 67.6611 283.105 66.114 283.375 64.3657ZM293.205 82.7223C292.679 82.7609 292.233 82.8211 291.786 82.8223C288.725 82.8299 285.664 82.8331 282.602 82.8223C280.97 82.8166 280.935 82.7654 280.872 81.0715C280.856 80.6271 280.814 80.1847 280.767 79.4751C280.119 79.8454 279.643 80.091 279.195 80.3784C276.768 81.9355 274.184 83.1445 271.311 83.5319C268.36 83.9301 265.423 83.8934 262.595 82.7116C258.278 80.9082 256.488 76.5874 257.181 72.6496C258.343 66.0438 262.601 62.2585 268.56 60.0336C270.911 59.1563 273.378 58.7537 275.9 58.6967C278.347 58.6423 280.794 58.5353 283.239 58.4328C284.356 58.3859 284.397 58.3707 284.566 57.2111C284.719 56.1578 284.86 55.0881 284.847 54.0278C284.826 52.3542 284.005 51.0616 282.458 50.4268C281.489 50.0299 280.409 49.7862 279.363 49.7115C275.548 49.4406 271.854 50.1027 268.265 51.3927C267.834 51.5471 267.403 51.6984 266.969 51.8383C266.877 51.8681 266.767 51.8427 266.432 51.8427C265.977 50.0704 265.503 48.2278 265.005 46.2896C265.375 46.0756 265.697 45.8401 266.055 45.6888C272.158 43.1183 278.493 41.8004 285.138 42.196C287.24 42.3207 289.276 42.7645 291.203 43.6354C295.512 45.5825 297.605 49.4323 296.841 54.0797C295.635 61.4217 294.347 68.7504 293.212 76.1026C292.936 77.8926 293.112 79.753 293.095 81.5811C293.092 81.9248 293.16 82.2685 293.205 82.7223Z" fill="#268445"/>
<path fill-rule="evenodd" clip-rule="evenodd" d="M189.629 82.7168H177.458V22.4356H189.538C189.875 23.6206 189.97 80.6824 189.629 82.7168Z" fill="#268445"/>
<path fill-rule="evenodd" clip-rule="evenodd" d="M385.708 74.489C386.176 76.5849 386.626 78.6028 387.086 80.6625C384.855 81.9133 382.566 82.5615 380.229 83.0628C376.709 83.8167 373.125 83.9433 369.572 83.6407C362.654 83.0527 356.521 79.5795 354.236 72.4711C352.968 68.525 353.09 64.51 354.259 60.5766C356.737 52.2332 362.463 46.932 370.366 43.7519C374.85 41.9485 379.532 41.8871 384.234 42.3473C386.201 42.5391 388.144 43.0277 390.082 43.4487C390.815 43.6082 391.506 43.9576 392.309 44.2551C392.185 44.6653 392.121 45.0039 391.982 45.3084C391.22 46.9782 390.456 48.6467 389.663 50.3014C389.157 51.3566 389.1 51.4047 388.04 51.0204C385.708 50.1767 383.277 49.9393 380.838 49.7855C378.606 49.6443 376.495 50.1716 374.504 51.1996C368.51 54.2936 364.986 61.3609 366.138 68.0054C366.958 72.7306 370.688 75.9987 375.503 76.0899C378.523 76.1475 381.511 75.8234 384.401 74.8587C384.781 74.7315 385.173 74.6391 385.708 74.489Z" fill="#268445"/>
<path fill-rule="evenodd" clip-rule="evenodd" d="M92.7175 82.5223C92.1288 82.8274 91.8148 82.9717 91.5186 83.1465C84.4848 87.2824 76.8732 89.7801 68.8672 91.1803C63.1665 92.1773 57.4215 92.5691 51.6462 92.3342C40.1303 91.8658 29.1176 89.4054 18.9575 83.7611C14.2804 81.1633 10.0868 77.9408 6.64086 73.8156C3.27211 69.7829 0.970571 65.257 0.227445 59.9874C-0.49859 54.8368 0.536342 50.0482 3.00625 45.5313C5.24323 41.4422 8.33853 38.0804 11.9187 35.1395C12.0276 35.0503 12.1751 35.0085 12.5821 34.8085C12.2624 35.3503 12.0959 35.6826 11.8845 35.9839C8.25435 41.1592 6.68454 46.884 7.27511 53.1885C7.48147 55.39 8.04673 57.5048 8.89366 59.5386C10.7325 63.9549 13.5891 67.6193 17.156 70.7817C24.6943 77.4641 33.6289 81.2779 43.3382 83.3623C58.3318 86.5804 73.1392 85.7987 87.6738 80.7943C89.2626 80.2474 90.7913 79.5302 92.3617 78.927C92.3617 78.927 93.4821 78.5257 93.5625 77.7256L92.7175 82.5223Z" fill="#253A74"/>
<path fill-rule="evenodd" clip-rule="evenodd" d="M61.0798 12.5909C62.3857 13.6511 64.9227 15.2646 66.1887 16.3692C77.7685 26.4786 85.8233 38.9282 90.5023 53.5318C93.533 62.9886 94.6775 72.6353 92.6386 82.501C91.6739 87.1693 89.9193 91.4717 87.0063 95.2665C85.665 97.0141 84.1136 98.5574 82.307 99.8328C77.1349 103.486 71.3886 104.977 65.0936 104.408C64.7265 104.375 64.3555 104.395 63.7263 104.388C64.103 104.642 64.2125 104.749 64.3441 104.799C68.6769 106.438 73.1344 107.447 77.7938 107.349C82.9413 107.241 87.6089 105.752 91.7132 102.557C95.9124 99.2866 98.69 95.0367 100.508 90.107C102.368 85.0634 103.073 79.8222 102.996 74.4729C102.827 62.8506 99.4742 52.0766 94.1432 41.8583C91.4695 36.7336 88.2678 31.9476 84.5636 27.5015C79.3611 21.2571 73.4028 15.9014 66.3127 11.8642C66.0133 11.694 65.0449 10.8958 64.4872 10.5375L61.0798 12.5909Z" fill="#ED1D27"/>
<path fill-rule="evenodd" clip-rule="evenodd" d="M16.9575 70.6005C16.9885 69.9384 17.0208 69.5941 17.0183 69.2504C16.9651 61.0912 18.6191 53.2523 21.4207 45.6235C23.4159 40.1906 25.9567 35.0229 29.0551 30.1432C35.2331 20.4136 42.8821 12.1183 52.8592 6.15558C57.4515 3.41096 62.342 1.39742 67.6388 0.484025C72.8166 -0.409751 77.8869 -0.133132 82.8191 1.86584C87.6399 3.81987 91.2644 7.11519 93.9349 11.517C96.3523 15.5016 97.7094 19.8654 98.4589 24.4375C98.4817 24.5761 98.4437 24.7249 98.4133 25.1781C98.1044 24.6299 97.9006 24.3185 97.7455 23.9843C95.087 18.2494 90.9207 14.0211 85.1687 11.372C83.1609 10.4466 81.0474 9.87627 78.8629 9.58953C74.1206 8.96667 69.5175 9.60156 64.9929 11.103C55.4323 14.2762 47.6535 20.0952 40.9831 27.4524C30.6826 38.8126 23.9368 52.0173 20.9808 67.1026C20.658 68.7509 20.5117 70.434 20.2471 72.095C20.2471 72.095 20.0326 73.2654 20.6845 73.7363L16.9575 70.6005Z" fill="#FAD411"/>
</g>
<defs>
<clipPath id="clip0_316_1763">
<rect width="440.918" height="107.356" fill="white"/>
</clipPath>
</defs>
</svg>
