<svg width="382" height="97" viewBox="0 0 382 97" fill="none" xmlns="http://www.w3.org/2000/svg">
<g clip-path="url(#clip0_316_1784)">
<path d="M201.299 9.67188L177.219 33.8007L183.553 40.1352L207.634 16.0063L201.299 9.67188Z" fill="#D92F27"/>
<path d="M166.678 4.69141H157.732V30.561H166.678V4.69141Z" fill="#D92F27"/>
<path d="M160.972 38.6367C155.314 38.6367 150.431 40.6676 146.369 44.7777C142.259 48.8879 140.228 53.9167 140.228 59.6709C140.228 65.4251 142.259 70.4539 146.369 74.4674C150.382 78.6258 155.314 80.7051 160.972 80.7051C166.629 80.7051 171.61 78.5775 175.768 74.4674C179.782 70.4056 181.813 65.4251 181.813 59.6709C181.813 53.9167 179.782 48.8879 175.768 44.7777C171.61 40.6192 166.629 38.6367 160.972 38.6367ZM168.757 67.456C166.629 69.6803 164.067 70.6957 160.972 70.6957C157.974 70.6957 155.411 69.6319 153.283 67.456C151.156 65.2317 149.995 62.6689 149.995 59.6709C149.995 56.5279 151.156 53.9167 153.283 51.7891C155.411 49.5648 157.974 48.501 160.972 48.5977C164.018 48.501 166.629 49.5648 168.854 51.7891C170.884 53.9167 171.948 56.5279 172.045 59.6709C171.9 62.6689 170.884 65.2317 168.757 67.456Z" fill="#D92F27"/>
<path d="M29.5444 38.2489C32.6391 38.2489 35.3953 39.1193 38.1031 40.86C40.5209 42.5041 42.4067 44.7767 43.7606 47.4846H54.2052C52.6578 41.9238 49.7082 37.2818 45.1629 33.7519C40.5692 30.077 35.2986 28.2879 29.496 28.3846C22.2912 28.2879 16.3436 30.8023 11.3631 35.9762C6.28591 41.0534 3.77148 47.1461 3.77148 54.3509C3.77148 61.459 6.23756 67.6967 11.3631 72.8223C16.3436 77.8028 22.2912 80.3172 29.496 80.3172C35.2502 80.3172 40.5209 78.5765 45.1629 74.9983C49.6598 71.3233 52.6578 66.8264 54.2052 61.2656H43.7606C42.4067 63.9734 40.4725 66.1494 38.1031 67.8901C35.3953 69.5342 32.6391 70.4046 29.5444 70.4046C25.1441 70.4046 21.3725 68.7605 18.3262 65.7142C15.1831 62.5228 13.6358 58.7995 13.7325 54.3509C13.6358 49.9507 15.1831 46.179 18.3262 43.036C21.4209 39.8929 25.1441 38.2489 29.5444 38.2489Z" fill="#D92F27"/>
<path d="M104.542 41.1028C101.109 39.2653 97.2405 38.3949 92.937 38.4916C86.2157 38.3949 81.5253 40.2324 78.8175 43.7623C77.0767 45.9866 76.2064 48.8395 75.9162 52.5144H85.8773C86.0707 50.7737 86.6509 49.6131 87.3279 48.8395C88.3917 47.4856 90.0841 46.8086 92.5985 46.9053C94.7261 46.8086 96.3218 47.1954 97.4823 47.8724C98.6428 48.4526 99.1264 49.6131 99.2231 51.2572C99.2231 52.6111 98.4494 53.6749 96.9021 54.3519L89.2137 55.6091C85.6838 56.0926 82.7826 56.963 80.5583 58.2202C76.835 60.4445 74.9975 63.9744 75.0942 69.1C74.9975 72.6299 76.158 75.5311 78.4307 77.6587C80.4615 79.3995 83.2178 80.3666 86.6026 80.4633C92.0666 80.3666 96.3702 79.0126 99.4648 76.3048V80.4633H109.474V51.0638C109.523 46.2283 107.782 42.8435 104.542 41.1028ZM99.078 64.0711C99.078 67.5043 98.1109 69.922 96.3218 71.2759C94.3876 72.6299 92.4051 73.3068 90.0841 73.3068C88.6335 73.3068 87.4729 72.92 86.5542 72.1463C85.5871 71.2759 85.1036 70.0187 85.1036 68.2296C85.1036 66.1987 85.8772 64.7481 87.5213 63.6843C88.4884 63.104 90.1324 62.6205 92.2117 62.3304L97.1922 61.0731L99.1264 60.0094V64.0711H99.078Z" fill="#D92F27"/>
<path d="M69.2918 28.3359H59.3308V80.4137H69.2918V28.3359Z" fill="#D92F27"/>
<path d="M136.698 38.9258L132.829 39.9896C130.17 41.0534 127.752 42.8909 125.721 45.6471V40.5699L116.196 40.4732V80.4623H126.06V61.3139C126.06 58.0258 126.447 55.7532 127.317 54.3026C127.994 52.7552 129.251 51.5463 130.75 50.4825C132.491 49.322 134.28 48.7418 136.214 48.7418L139.261 48.9352L139.164 38.7324L136.698 38.9258Z" fill="#D92F27"/>
<path d="M214.355 52.804V50.1445H187.954V59.0901H214.355V52.804Z" fill="#D92F27"/>
<path d="M312.418 78.7219H280.939C277.845 78.7219 275.765 75.4822 277.022 72.6776L283.502 58.4614C284.179 56.9141 285.726 55.947 287.419 55.947H314.062C314.981 55.947 315.851 55.4151 316.238 54.5447L316.77 53.3842C317.205 52.4655 316.528 51.45 315.513 51.45H288.869C287.854 51.45 287.177 50.3862 287.612 49.5158L289.74 44.8738C290.417 43.3748 291.964 42.3594 293.608 42.3594H329.584C330.599 42.3594 331.276 43.4232 330.841 44.2936L316.238 76.1591C315.609 77.7065 314.11 78.7219 312.418 78.7219ZM290.562 69.6313H307.824C308.743 69.6313 309.613 69.0994 310 68.229L310.58 66.9718C311.016 66.053 310.339 65.0376 309.323 65.0376H291.432C290.9 65.0376 290.417 65.3761 290.175 65.8596L289.304 67.6971C288.918 68.5675 289.546 69.6313 290.562 69.6313Z" fill="#231F20" stroke="black" stroke-width="0.483544"/>
<path d="M278.183 42.3594C280.165 42.3594 281.471 44.4386 280.649 46.2277L275.475 57.3492C272.429 64.0222 265.756 68.3257 258.406 68.3257H240.321C239.886 68.3257 239.451 68.5675 239.258 69.0027L235.921 76.2558C235.244 77.8032 233.697 78.7703 232.004 78.7703H225.331C225.138 78.7703 224.993 78.5285 225.041 78.3351L240.225 45.0189C240.95 43.4232 242.594 42.3594 244.335 42.3594H278.183ZM244.19 59.2351H259.808C262.709 59.2351 265.369 57.5427 266.578 54.8832L267.255 53.4325C267.69 52.5138 267.013 51.4984 265.998 51.4984H248.155C247.623 51.4984 247.139 51.8368 246.898 52.3204L243.9 58.8966C243.851 58.9933 243.996 59.2351 244.19 59.2351Z" fill="#231F20" stroke="black" stroke-width="0.483544"/>
<path d="M377.019 42.3594H366.816C365.946 42.3594 365.124 42.6011 364.399 43.133L351.488 51.9819L346.363 44.2936C345.589 43.0847 344.235 42.4077 342.833 42.4077L336.788 42.3594C335.676 42.3594 334.999 43.5682 335.628 44.487L345.927 59.912L337.514 78.3351C337.417 78.5285 337.562 78.7703 337.804 78.7703H344.573C346.266 78.7703 347.765 77.8032 348.49 76.2558L355.937 60.1055L377.89 44.9222C378.905 44.1001 378.373 42.3594 377.019 42.3594Z" fill="#231F20" stroke="black" stroke-width="0.483544"/>
<path d="M420.103 -37.2324H-37.7166V122.676H420.103V-37.2324Z" stroke="black" stroke-width="0.483544"/>
</g>
<defs>
<clipPath id="clip0_316_1784">
<rect width="382" height="96.7089" fill="white"/>
</clipPath>
</defs>
</svg>
