<svg width="143" height="143" viewBox="0 0 143 143" fill="none" xmlns="http://www.w3.org/2000/svg">
<path d="M142.925 24.0527C142.862 10.7586 132.067 0 118.76 0C115.453 0 112.212 0.628182 109.434 1.86707L21.3764 39.261C8.82681 44.5688 0 57.0049 0 71.4647V118.761C0 132.105 10.8184 142.927 24.1683 142.927C27.5537 142.927 30.7737 142.226 33.7014 140.968L121.384 103.74C134.021 98.4679 142.927 85.99 142.927 71.4647L142.925 24.0527Z" fill="#FC4C02"/>
<path d="M61.9137 90.4508C60.8883 90.4508 60.0557 89.5288 60.0557 88.3919V44.8968C60.0557 43.7592 60.8883 42.8359 61.9137 42.8359C62.9409 42.8359 63.7734 43.7592 63.7734 44.8968V88.3919C63.7734 89.5288 62.9409 90.4508 61.9137 90.4508" fill="white"/>
<path d="M78.0722 88.5085V54.5004C78.0722 53.3492 77.2389 52.416 76.209 52.416C75.1847 52.416 74.3545 53.3492 74.3545 54.5004V88.5085C74.3545 89.6597 75.1847 90.5937 76.209 90.5937C77.2389 90.5937 78.0722 89.6597 78.0722 88.5085" fill="white"/>
<path d="M78.0722 44.7486V44.6416C78.0722 43.6449 77.2389 42.8359 76.209 42.8359C75.1847 42.8359 74.3545 43.6449 74.3545 44.6416V44.7486C74.3545 45.7459 75.1847 46.5536 76.209 46.5536C77.2389 46.5536 78.0722 45.7459 78.0722 44.7486" fill="white"/>
<path d="M49.0012 85.8659C49.8228 85.0517 49.8228 83.7308 49.0012 82.9181C48.1797 82.1025 46.849 82.1025 46.032 82.9181C39.9685 88.9259 30.1096 88.9259 24.0483 82.9181C17.9868 76.9012 17.9868 67.1173 24.0483 61.1047C26.9831 58.1927 30.888 56.5882 35.0373 56.5882C39.1922 56.5882 43.0926 58.1927 46.0274 61.1047C46.849 61.9208 48.1797 61.9208 49.0012 61.1047C49.8228 60.2887 49.8228 58.97 49.0012 58.1547C45.2726 54.4535 40.314 52.416 35.0373 52.416C29.7632 52.416 24.8056 54.4535 21.0746 58.1547C13.3749 65.7934 13.3749 78.2229 21.0746 85.8659C24.925 89.686 29.979 91.5946 35.0396 91.5946C40.0946 91.5946 45.1507 89.686 49.0012 85.8659" fill="white"/>
<path d="M92.8245 98.9506V71.9648C92.8245 63.4807 99.7401 56.5773 108.244 56.5773C116.746 56.5773 123.664 63.4807 123.664 71.9648C123.664 80.4505 116.746 87.3514 108.244 87.3514C103.341 87.3514 100.024 85.4822 99.9982 85.4716C99.0056 84.8902 97.726 85.2195 97.1438 86.2118C96.5641 87.205 96.8969 88.4785 97.8886 89.0625C98.0598 89.1624 102.152 91.514 108.244 91.514C119.046 91.514 127.833 82.7443 127.833 71.9648C127.833 61.1852 119.046 52.416 108.244 52.416C97.4404 52.416 88.6533 61.1852 88.6533 71.9648V98.9506C88.6533 100.098 89.5889 101.032 90.7387 101.032C91.8898 101.032 92.8245 100.098 92.8245 98.9506" fill="white"/>
<path fill-rule="evenodd" clip-rule="evenodd" d="M136.555 118.762C139.873 118.762 142.561 116.074 142.561 112.756C142.561 109.439 139.873 106.751 136.555 106.751C133.237 106.751 130.55 109.439 130.55 112.756C130.55 116.074 133.237 118.762 136.555 118.762ZM136.556 107.63C139.343 107.63 141.615 109.936 141.615 112.756C141.615 115.577 139.343 117.883 136.556 117.883C133.768 117.883 131.512 115.577 131.512 112.756C131.512 109.936 133.768 107.63 136.556 107.63ZM139.077 116.041H138.015L136.506 113.354H135.51V116.041H134.598V109.455H136.837C137.982 109.455 138.911 110.318 138.911 111.429C138.911 112.391 138.314 112.989 137.501 113.237L139.077 116.041ZM136.738 110.268C137.468 110.268 137.982 110.765 137.982 111.429C137.982 112.093 137.468 112.574 136.738 112.574H135.51V110.268H136.738Z" fill="#FC4C02"/>
</svg>
