<svg width="423" height="122" viewBox="0 0 423 122" fill="none" xmlns="http://www.w3.org/2000/svg">
<g clip-path="url(#clip0_316_1752)">
<path d="M71.2448 26.8457L57.2435 41.0006C56.9938 41.2253 56.7473 41.4553 56.5051 41.6928C46.8429 51.1584 46.035 67.1255 54.6482 77.6756C55.4784 78.6909 56.3903 79.638 57.3749 80.5076C56.1978 77.8314 55.5788 75.0606 55.3595 72.3339L55.3584 72.3231C55.2403 71.0439 55.2215 69.7575 55.3019 68.4754C55.3171 68.1583 55.3345 67.8413 55.3595 67.5274L55.3812 67.5317C55.6625 64.8394 56.3639 62.6028 57.0404 60.3403C59.6162 53.8035 62.8238 49.3227 66.4811 46.3036L73.9661 38.865L86.0617 26.8457H71.2448ZM60.6521 57.7146C60.3774 58.0962 60.1059 58.4176 59.8594 58.8776C57.0252 64.2719 56.782 73.4979 59.3154 79.5242C60.133 81.2331 61.0593 83.0431 62.1897 84.4575C62.8738 85.3066 65.5472 88.1741 66.3812 88.8749L71.866 94.4089H86.8924C80.5215 88.0602 74.3896 81.4685 67.782 75.3616C65.6732 73.1292 63.4634 71.3999 62.0268 67.837C61.1244 66.2302 60.1417 61.4603 60.6521 57.7146Z" fill="#00DCFB"/>
<path d="M105.446 46.2663H116.49C125.117 46.2663 129.43 53.6662 129.43 60.949C129.43 68.2328 125.117 75.5747 116.489 75.5747H105.445L105.446 46.2663ZM116.49 79.3321C127.935 79.3321 133.629 70.1406 133.629 60.949C133.629 51.7585 127.935 42.5669 116.489 42.5669H103.951C102.512 42.5669 101.305 43.6653 101.305 44.9949V76.8461C101.305 78.1767 102.512 79.3321 103.951 79.3321H116.49ZM149.801 62.9728H169.7C172.116 62.9728 172.001 59.2734 169.7 59.2734H149.801V46.2663H172.52C174.936 46.2663 175.05 42.5669 172.578 42.5669H148.306C146.696 42.5669 145.66 43.7223 145.66 45.0518V76.7903C145.66 78.1767 146.696 79.3332 148.306 79.3332H172.521C175.281 79.3332 174.936 75.5177 172.521 75.5177H149.801V62.9728ZM217.129 72.7426C218.624 70.6038 215.116 68.465 213.792 70.4297C212.585 71.9903 210.86 73.3778 209.076 74.3032C206.89 75.4016 204.533 75.9799 202.405 75.9799C194.467 75.9799 187.738 69.2732 187.738 60.4868C187.738 52.1046 192.741 47.0756 199.816 45.9772C204.877 45.399 209.422 46.0353 213.333 50.1968C214.943 51.9315 218.049 49.5616 216.323 47.5958C211.78 42.798 205.913 41.1213 199.184 42.0467C190.326 43.4332 183.597 50.9492 183.597 60.4288C183.597 71.8753 192.455 79.9684 202.289 79.9684C205.05 79.9684 208.156 79.1591 210.917 77.8876C213.39 76.6731 215.575 74.9395 217.128 72.7426H217.129Z" fill="black"/>
<path d="M239.956 42.4844C237.47 42.4844 235.78 42.4887 234.538 42.5102H232.467C231.202 42.5102 230.339 43.3195 230.339 44.534V77.7148C230.339 80.3158 234.538 80.3158 234.538 77.6568V65.2301H245.136L250.395 71.9808C253.288 75.6942 255.881 78.9562 256.158 79.2324C257.321 80.391 259.82 79.3721 259.82 77.7384C259.82 77.1946 258.458 75.2406 254.948 70.7577L250.076 64.5315L251.86 63.9565C255.329 62.8387 257.843 60.8245 258.998 58.2407C261.448 52.7593 259.231 46.6191 253.906 44.1385C250.831 42.7058 249.017 42.4897 239.956 42.4844ZM234.538 46.4622L240.356 46.4718C243.555 46.4772 247.107 46.6008 248.248 46.747C252.829 47.336 255.51 49.866 255.51 53.6009C255.51 58.0021 252.718 60.6547 247.451 61.2534C246.115 61.406 242.664 61.5307 239.78 61.5328L234.538 61.5339V46.4622Z" fill="black"/>
<path d="M284.514 77.4263C284.514 78.8719 285.492 79.5651 286.643 79.5651C287.62 79.5651 288.771 78.8719 288.771 77.4263V64.4773L303.207 44.9968C304.76 42.5678 301.194 40.7191 299.756 42.9149L286.584 60.8359L273.586 42.973C272.033 40.6611 268.237 42.7999 269.963 45.1118L284.513 64.4773L284.514 77.4263Z" fill="black"/>
<path d="M322.732 42.4883C320.874 42.4883 319.54 42.4926 318.513 42.5076H316.5C315.35 42.5076 314.372 43.3169 314.372 44.5315V77.8283C314.372 80.3713 318.513 80.4293 318.513 77.7703V68.5862L318.545 66.4291L325.211 66.3152C331.247 66.212 332.047 66.14 333.666 65.5575C337.74 64.0915 340.3 61.6668 341.509 58.1318C342.271 55.261 342.287 52.6396 341.271 49.8968C340.785 48.6124 340.038 47.5344 338.943 46.4542C335.643 43.1955 332.756 42.4883 322.731 42.4883H322.732ZM318.513 46.3898L324.621 46.552C331.442 46.7348 332.92 47.0207 334.955 48.5555C336.686 49.8602 337.532 51.5047 337.705 53.9036C338.015 58.1834 335.349 61.3787 330.642 62.3665C329.804 62.5427 326.732 62.6867 323.816 62.6867H318.513V46.3898Z" fill="black"/>
<path d="M349.761 42.5079C347.059 42.5079 347.059 46.4964 349.761 46.4964H362.531V77.8866C362.531 79.3311 363.624 80.0254 364.601 80.0254C365.578 80.0254 366.787 79.3311 366.787 77.8866C366.787 67.4805 366.729 56.9014 366.729 46.4964H379.556C382.374 46.4964 382.374 42.5079 379.556 42.5079H349.761ZM404.028 79.9674C413.806 79.9674 422.434 72.3364 422.434 60.3128C422.434 50.8321 415.589 43.4322 406.732 42.0457C404.718 41.8146 402.762 41.7555 400.635 42.0457C391.49 43.4902 385.392 51.2373 385.392 60.3128C385.392 72.5675 393.676 79.9674 404.028 79.9674ZM401.209 45.9182C402.869 45.6869 404.553 45.6869 406.213 45.9182C413.288 47.0746 418.177 53.029 418.177 60.4858C418.177 70.1976 411.792 75.9789 404.028 75.9789C395.918 75.9789 389.706 69.9665 389.706 60.4858C389.706 52.6238 394.25 47.0166 401.209 45.9182Z" fill="black"/>
<path d="M15.6454 94.4089L29.6467 80.254C29.8965 80.0283 30.143 79.7983 30.3851 79.5608C40.0484 70.0962 40.8563 54.1281 32.2431 43.578C31.4129 42.5627 30.501 41.6156 29.5164 40.7459C30.6924 43.4221 31.3125 46.1929 31.5318 48.9197V48.9304C31.6589 50.3309 31.6643 51.598 31.5883 52.7782C31.574 53.0944 31.5552 53.4104 31.5318 53.7261L31.5101 53.7218C31.2278 56.4152 30.5274 58.6508 29.8509 60.9143C27.2752 67.4511 24.0664 71.9308 20.4102 74.951L12.9242 82.3896L0.830698 94.4089H15.6454ZM26.2403 63.5389C26.515 63.1574 26.7865 62.836 27.033 62.376C29.8672 56.9827 30.1104 47.7567 27.5759 41.7293C26.7594 40.0204 25.8331 38.2116 24.7027 36.7961C24.0186 35.947 21.3452 33.0795 20.5112 32.3787L15.0253 26.8457H0C6.37086 33.1934 12.5028 39.7851 19.1093 45.8931C21.2181 48.1243 23.429 49.8537 24.8645 53.4166C25.768 55.0234 26.7507 59.7933 26.2403 63.5389Z" fill="#00DCFB"/>
</g>
<defs>
<clipPath id="clip0_316_1752">
<rect width="422.434" height="121.254" fill="white"/>
</clipPath>
</defs>
</svg>
