<svg width="285" height="103" viewBox="0 0 285 103" fill="none" xmlns="http://www.w3.org/2000/svg">
<path fill-rule="evenodd" clip-rule="evenodd" d="M90.4825 88.8472H104.574C116.35 88.8472 122.836 77.3312 125.262 66.2845C129.619 46.4333 120.22 44.8423 114.043 44.8423H100.144L90.4825 88.8472ZM88.5037 33.2334H119.101C142.458 33.2334 143.051 52.5194 140.254 65.2528C137.089 79.6721 126.638 100.456 103.763 100.456H73.7451L88.5037 33.2334Z" fill="url(#paint0_linear_316_6590)"/>
<path fill-rule="evenodd" clip-rule="evenodd" d="M202.208 100.456H188.694L201.028 44.2801H200.836L175.567 100.456H161.378L161.07 44.2801H160.874L148.542 100.456H135.028L149.789 33.2334H170.927L171.839 86.2256H172.031L196.021 33.2334H216.967L202.208 100.456Z" fill="url(#paint1_linear_316_6590)"/>
<path fill-rule="evenodd" clip-rule="evenodd" d="M261.836 33.2334H276.893L238.584 100.456H224.781L216.183 33.2334H231.723L235.405 84.1663H235.598L261.836 33.2334Z" fill="url(#paint2_linear_316_6590)"/>
<path d="M96.3077 88.8472H110.4C122.176 88.8472 128.661 77.3312 131.087 66.2845C135.445 46.4333 126.046 44.8423 119.869 44.8423H105.97L96.3077 88.8472ZM94.33 33.2334H124.927C148.286 33.2334 148.877 52.5194 146.08 65.2528C142.915 79.6721 132.464 100.456 109.589 100.456H79.5703L94.33 33.2334ZM208.033 100.456H194.519L206.853 44.2801H206.659L181.392 100.456H167.203L166.893 44.2801H166.698L154.365 100.456H140.854L155.612 33.2334H176.75L177.663 86.2256H177.856L201.845 33.2334H222.79L208.033 100.456Z" fill="#04357B"/>
<path d="M267.663 33.2334H282.721L244.412 100.456H230.609L222.011 33.2334H237.551L241.23 84.1663H241.426L267.663 33.2334Z" fill="#04357B"/>
<path fill-rule="evenodd" clip-rule="evenodd" d="M57.021 28.2626C30.8817 57.5187 71.096 100.429 71.096 100.429H8.55066C8.55066 100.429 -11.1725 55.6321 16.1374 26.3122C40.0745 0.610525 118.474 -15.2978 236.513 30.5926C236.513 30.5926 93.5114 -12.5804 57.021 28.2626Z" fill="url(#paint3_linear_316_6590)"/>
<path d="M62.8431 28.2626C36.7049 57.5187 76.9182 100.429 76.9182 100.429H16.5977C16.5977 100.429 -5.35026 55.6321 21.9596 26.3122C45.8978 0.610525 118.472 -15.2978 236.511 30.5926C236.511 30.5926 99.3346 -12.5804 62.8431 28.2626Z" fill="#04357B"/>
<path fill-rule="evenodd" clip-rule="evenodd" d="M41.0375 100.256C24.0849 70.8151 22.0796 39.0633 46.508 21.1611C65.3834 7.26288 96.3136 3.76592 121.843 6.05025C91.4958 4.67787 65.0276 10.387 50.6786 22.2285C28.6741 38.7212 29.1392 67.5176 49.0881 100.326L41.0375 100.256Z" fill="url(#paint4_linear_316_6590)"/>
<path d="M29.0193 81.371H47.6995V87.0326H29.0193V81.371ZM40.8108 60.8396L22.1543 59.9068L22.4549 54.2511L41.1114 55.1819L40.8108 60.8396ZM45.8556 41.1472L27.5069 37.7476L28.2729 33.8516L46.6216 37.2522L45.8556 41.1472ZM51.4739 25.867L38.7219 23.504L39.3694 20.2123L52.1204 22.5753L51.4739 25.867ZM66.5208 17.391L53.7677 15.028L54.2949 12.3495L67.0479 14.7125L66.5208 17.391ZM79.2759 11.6724L66.5249 9.30947L66.8101 7.85536L79.5621 10.2173L79.2759 11.6724ZM99.4119 10.5878L76.3087 6.30836L76.4518 5.57232L99.5571 9.85376L99.4119 10.5878ZM109.324 8.899L86.2202 4.61856L86.3253 4.07227L109.433 8.35271L109.324 8.899Z" fill="#04357B"/>
<defs>
<linearGradient id="paint0_linear_316_6590" x1="107.58" y1="-4.45568" x2="107.58" y2="80.647" gradientUnits="userSpaceOnUse">
<stop stop-color="white"/>
<stop offset="1" stop-color="#FFC426"/>
</linearGradient>
<linearGradient id="paint1_linear_316_6590" x1="175.998" y1="-4.45468" x2="175.998" y2="80.648" gradientUnits="userSpaceOnUse">
<stop stop-color="white"/>
<stop offset="1" stop-color="#FFC426"/>
</linearGradient>
<linearGradient id="paint2_linear_316_6590" x1="246.537" y1="-4.45468" x2="246.537" y2="80.648" gradientUnits="userSpaceOnUse">
<stop stop-color="white"/>
<stop offset="1" stop-color="#FFC426"/>
</linearGradient>
<linearGradient id="paint3_linear_316_6590" x1="119.09" y1="-4.46389" x2="119.09" y2="80.642" gradientUnits="userSpaceOnUse">
<stop stop-color="white"/>
<stop offset="0.52" stop-color="#FFD460"/>
<stop offset="1" stop-color="#FFC426"/>
</linearGradient>
<linearGradient id="paint4_linear_316_6590" x1="28.2275" y1="52.8655" x2="121.843" y2="52.8655" gradientUnits="userSpaceOnUse">
<stop stop-color="#FFC426"/>
<stop offset="0.2" stop-color="#FFDC7C"/>
<stop offset="0.42" stop-color="#FFF4D5"/>
<stop offset="1" stop-color="white"/>
</linearGradient>
</defs>
</svg>
