<svg width="95" height="23" viewBox="0 0 95 23" fill="none" xmlns="http://www.w3.org/2000/svg">
<g clip-path="url(#clip0_3303_26416)">
<path d="M62.3105 15.8375C62.8372 15.7354 63.3251 15.4869 63.7194 15.12C63.9753 14.8246 64.1658 14.4773 64.2774 14.1016C64.389 13.7258 64.4195 13.3304 64.3664 12.9417V8.87422C64.4195 8.48555 64.389 8.08992 64.2774 7.71412C64.1658 7.33836 63.9753 6.99101 63.7194 6.69573C63.3256 6.32864 62.8377 6.08012 62.3105 5.97806V4.0293C63.1619 4.12921 63.9597 4.49744 64.5915 5.08146C65.0287 5.4527 65.3847 5.91128 65.6369 6.42825C65.8892 6.94522 66.0326 7.5094 66.058 8.08508V13.6476C66.0326 14.2233 65.8892 14.7874 65.6369 15.3044C65.3847 15.8215 65.0287 16.28 64.5915 16.6512C63.9597 17.2352 63.1619 17.6035 62.3105 17.7035V15.8375Z" fill="url(#paint0_linear_3303_26416)"/>
<path d="M55.2561 5.07951C55.8879 4.49552 56.6867 4.1273 57.538 4.02734V5.97611C57.0109 6.07812 56.5225 6.32669 56.1282 6.69373C55.8723 6.98745 55.6823 7.33323 55.5707 7.70751C55.4591 8.08184 55.4286 8.47576 55.4812 8.86301V12.9477C55.4286 13.3363 55.4591 13.7318 55.5707 14.1076C55.6823 14.4833 55.8723 14.8307 56.1282 15.1261C56.5225 15.4932 57.0109 15.7414 57.538 15.8429V17.7058C56.6867 17.6059 55.8879 17.2377 55.2561 16.6537C54.8194 16.2822 54.4639 15.8237 54.2116 15.3066C53.9593 14.7897 53.8164 14.2256 53.791 13.6501V8.06856C53.8168 7.49524 53.9607 6.93372 54.213 6.41925C54.4652 5.90477 54.8203 5.44859 55.2561 5.07951Z" fill="url(#paint1_linear_3303_26416)"/>
<path d="M4.30505 17.6844C3.72274 17.708 3.14221 17.6036 2.60384 17.3786C2.06548 17.1535 1.58214 16.8132 1.18708 16.3811C0.368061 15.4257 -0.0550207 14.1889 0.00574568 12.9273V8.8391C-0.0536621 7.57394 0.369052 6.33382 1.18708 5.37276C1.58047 4.93783 2.06329 4.59483 2.60187 4.36782C3.14045 4.1408 3.72178 4.03516 4.30505 4.05843C5.06834 4.04167 5.82244 4.22886 6.4909 4.60085C7.09253 4.93631 7.56915 5.46047 7.84861 6.09393H7.92037V0H9.10174V17.4449H7.92037V15.6526H7.84861C7.5691 16.2861 7.09249 16.8102 6.4909 17.1457C5.82207 17.5164 5.06802 17.7022 4.30505 17.6844ZM4.54158 16.6559C5.00373 16.6831 5.46614 16.6082 5.89664 16.4365C6.32714 16.2647 6.7153 16.0004 7.03396 15.6617C7.66129 14.8949 7.97792 13.9171 7.92037 12.9247V8.8391C7.98037 7.83893 7.66382 6.85277 7.03396 6.07783C6.36232 5.44096 5.47509 5.08633 4.55318 5.08633C3.63128 5.08633 2.74424 5.44096 2.07258 6.07783C1.44308 6.85291 1.12682 7.83902 1.18708 8.8391V12.9255C1.12916 13.9179 1.44551 14.8957 2.07258 15.6626C2.38752 15.9997 2.77162 16.2631 3.19811 16.4348C3.62462 16.6063 4.08311 16.6817 4.54158 16.6559Z" fill="#111111"/>
<path d="M17.23 17.6836C16.6033 17.7197 15.9763 17.6224 15.3896 17.3979C14.8028 17.1733 14.2693 16.8266 13.8242 16.3803C12.9748 15.4306 12.5332 14.1805 12.5957 12.9031V8.8383C12.5646 8.2047 12.6582 7.5712 12.8711 6.97427C13.084 6.37733 13.412 5.82882 13.836 5.36023C14.2799 4.91678 14.8107 4.57166 15.3946 4.34735C15.9785 4.12305 16.6025 4.02433 17.2265 4.0576C17.8469 4.02286 18.4676 4.1211 19.0478 4.34559C19.628 4.57008 20.1544 4.91586 20.5925 5.36023C21.4349 6.31369 21.8719 7.5629 21.8089 8.8383V11.1088H13.7767V12.9014C13.7228 13.8911 14.043 14.8647 14.6729 15.6256C15.0004 15.9698 15.3984 16.238 15.839 16.4115C16.2796 16.5848 16.7525 16.6595 17.2247 16.6299C18.0033 16.6612 18.7708 16.4344 19.4097 15.9844C19.991 15.5447 20.4105 14.9223 20.6024 14.2155H21.7837C21.5859 15.2192 21.0364 16.1176 20.2359 16.7464C19.3677 17.3925 18.3082 17.7228 17.23 17.6836ZM13.7805 10.0829H20.6321V8.8383C20.6856 7.84997 20.3693 6.87751 19.7458 6.11318C19.425 5.77012 19.0333 5.50223 18.5986 5.32869C18.1638 5.15515 17.6966 5.08017 17.23 5.1089C16.7587 5.07948 16.2868 5.15313 15.8465 5.32472C15.4061 5.49632 15.0076 5.76191 14.6784 6.10326C14.0447 6.867 13.7241 7.84587 13.7822 8.84009L13.7805 10.0829Z" fill="#111111"/>
<path d="M30.2059 17.6597C29.3102 17.6772 28.4196 17.519 27.5836 17.1941C26.8853 16.9266 26.2756 16.4668 25.8235 15.8672C25.4005 15.2768 25.1803 14.5635 25.1961 13.8355H28.1723C28.1636 14.0463 28.2106 14.2558 28.3083 14.4425C28.4059 14.6292 28.5507 14.7865 28.7281 14.8984C29.181 15.1678 29.7023 15.2966 30.2273 15.2689H31.2437C31.8234 15.3122 32.402 15.1702 32.8972 14.8631C33.0725 14.7356 33.214 14.5664 33.3087 14.3706C33.4035 14.1747 33.4488 13.9583 33.4405 13.7406C33.4405 12.8312 32.7714 12.2734 31.4329 12.0674L29.6136 11.8277C26.8891 11.4294 25.5267 10.1151 25.5267 7.88427C25.4933 7.34641 25.5886 6.80827 25.8044 6.31529C26.0203 5.82226 26.3504 5.38881 26.7672 5.05147C27.8298 4.33773 29.0961 3.99743 30.37 4.08336H31.2662C32.519 4.02268 33.7577 4.37146 34.7982 5.07771C35.2188 5.3687 35.5611 5.76055 35.794 6.21817C36.0269 6.67578 36.1433 7.18463 36.1327 7.69888H33.1563C33.1603 7.51847 33.1165 7.34027 33.0291 7.18274C32.9418 7.02521 32.8143 6.89419 32.6598 6.80316C32.2273 6.56234 31.7359 6.4505 31.2429 6.48057H30.3466C29.0555 6.48057 28.41 6.95041 28.41 7.89044C28.41 8.70274 28.9845 9.19674 30.1341 9.37208L31.9769 9.65851C33.1702 9.75341 34.3088 10.2028 35.2489 10.9501C35.6137 11.2982 35.8988 11.7223 36.0845 12.1927C36.2702 12.6632 36.3522 13.1689 36.3246 13.6746C36.3528 14.2318 36.251 14.788 36.0274 15.2985C35.8039 15.809 35.4649 16.2595 35.0375 16.6139C33.9296 17.3906 32.5917 17.7618 31.2456 17.6661L30.2059 17.6597Z" fill="#111111"/>
<path d="M44.9475 17.6846C43.9468 17.7075 42.9551 17.4906 42.0536 17.0519C41.2535 16.6542 40.5846 16.0314 40.1276 15.2588C39.656 14.4269 39.4193 13.4806 39.443 12.5226V9.22357C39.4195 8.26531 39.6562 7.31877 40.1276 6.48651C40.585 5.71452 41.2537 5.09245 42.0536 4.69506C42.9551 4.25633 43.9468 4.03953 44.9475 4.06237C46.366 3.98897 47.7615 4.44366 48.8692 5.34028C49.3576 5.77497 49.7478 6.31071 50.0125 6.91082C50.2776 7.51098 50.4114 8.16169 50.4049 8.81857H47.5222C47.5153 8.5136 47.4429 8.21362 47.3105 7.93941C47.1777 7.6652 46.9882 7.42309 46.7543 7.22949C46.2346 6.83695 45.5961 6.63818 44.9475 6.66724C44.264 6.62988 43.5934 6.86609 43.0815 7.3244C42.8437 7.57154 42.6598 7.86622 42.5417 8.18945C42.4237 8.51264 42.374 8.85708 42.3961 9.20079V12.5234C42.3748 12.8688 42.4248 13.2148 42.5429 13.5397C42.6608 13.8645 42.8442 14.1612 43.0815 14.4109C43.3331 14.6417 43.6277 14.8196 43.948 14.9345C44.2684 15.0495 44.6081 15.0992 44.9475 15.0806C45.6004 15.1135 46.2438 14.9149 46.7668 14.5192C46.9978 14.3236 47.1846 14.0806 47.3147 13.8065C47.4452 13.5324 47.5157 13.2333 47.5222 12.9293H50.4049C50.4114 13.5862 50.2776 14.237 50.0129 14.8372C49.7478 15.4375 49.3581 15.973 48.8692 16.4076C47.762 17.3043 46.366 17.7588 44.9475 17.6846Z" fill="#111111"/>
<path d="M69.5117 21.7467V4.30163H72.394V6.66814H72.4406C72.6361 5.90173 73.0816 5.22377 73.7056 4.74365C74.3632 4.27378 75.1555 4.03473 75.9611 4.06308C76.5436 4.04193 77.1232 4.15341 77.6568 4.38924C78.1904 4.62504 78.6649 4.97921 79.044 5.4253C79.8644 6.45886 80.279 7.76041 80.2089 9.08234V12.6435C80.2813 13.973 79.8667 15.2829 79.044 16.3242C78.6649 16.7704 78.1904 17.1247 77.6568 17.3607C77.1232 17.5967 76.5436 17.7083 75.9611 17.6873C75.1605 17.7116 74.3738 17.4719 73.7203 17.0048C73.0908 16.5283 72.6412 15.85 72.4443 15.0814H72.3977L72.4687 18.0642V21.7457L69.5117 21.7467ZM74.8751 15.1012C75.1983 15.121 75.5221 15.0718 75.8251 14.9567C76.1285 14.8416 76.4038 14.6631 76.634 14.4332C77.0817 13.9021 77.3068 13.2162 77.2616 12.5206V9.22152C77.3072 8.52631 77.0817 7.84056 76.634 7.30985C76.1456 6.87465 75.5156 6.6365 74.864 6.64102C74.2124 6.64549 73.5852 6.89222 73.1028 7.33415C72.6481 7.88017 72.4198 8.58207 72.465 9.29374V12.4483C72.4194 13.16 72.6481 13.8621 73.1028 14.4081C73.332 14.6447 73.6087 14.829 73.9145 14.9485C74.2198 15.0681 74.5476 15.1202 74.8751 15.1012Z" fill="#111111"/>
<path d="M88.978 17.684C87.9796 17.7077 86.9904 17.4859 86.0957 17.0379C85.303 16.632 84.6426 16.0044 84.1939 15.2301C83.7313 14.4039 83.4989 13.467 83.521 12.5185V9.21914C83.4984 8.27061 83.7313 7.33367 84.1939 6.50749C84.6421 5.73305 85.3025 5.10545 86.0957 4.69972C86.9904 4.25194 87.9796 4.03056 88.978 4.05449C89.9654 4.03142 90.9421 4.25291 91.8243 4.69972C92.6129 5.10822 93.2678 5.73545 93.7142 6.50749C94.1776 7.33367 94.4096 8.27061 94.3875 9.21914V11.5857H86.3789V12.5185C86.3789 14.3823 87.2532 15.3144 89.0011 15.3151C90.355 15.3151 91.151 14.8607 91.3876 13.9519H94.2934C94.191 14.5013 93.9803 15.0243 93.674 15.4901C93.3683 15.9558 92.9722 16.3549 92.5096 16.6636C91.4655 17.3648 90.2314 17.7213 88.978 17.684ZM86.3789 9.222V9.72448L91.5292 9.70106V9.19843C91.5794 8.44576 91.3525 7.70098 90.8914 7.10686C90.6447 6.85189 90.3454 6.65455 90.0147 6.5287C89.684 6.40285 89.3303 6.35157 88.978 6.37841C88.6192 6.35101 88.259 6.40303 87.9219 6.53092C87.5853 6.6588 87.2805 6.85926 87.0287 7.11853C86.562 7.71459 86.3305 8.46403 86.3789 9.222Z" fill="#111111"/>
<path d="M61.606 9.39538L62.2332 8.37943L60.9217 7.68164L60.3697 8.73734C60.3314 8.81159 60.2733 8.8738 60.2023 8.91719C60.1312 8.96059 60.0496 8.9836 59.9666 8.9836C59.8836 8.9836 59.802 8.96059 59.7309 8.91719C59.6599 8.8738 59.6018 8.81159 59.5631 8.73734L59.0106 7.68164L57.7129 8.37325L58.6149 9.83215L61.606 9.39538Z" fill="url(#paint2_linear_3303_26416)"/>
<path d="M63.2358 10.1289L56.7832 10.1849V11.4993L58.805 11.493L57.7143 13.2555L59.012 13.9471L59.565 12.8911C59.6032 12.8166 59.6613 12.7542 59.7324 12.7106C59.8034 12.667 59.885 12.644 59.9685 12.644C60.0515 12.644 60.1331 12.667 60.2046 12.7106C60.2756 12.7542 60.3333 12.8166 60.3715 12.8911L60.924 13.9471L62.2351 13.249L61.3501 11.8202L59.6558 11.4894L63.2404 11.4775L63.2358 10.1289Z" fill="url(#paint3_linear_3303_26416)"/>
</g>
<defs>
<linearGradient id="paint0_linear_3303_26416" x1="57.7953" y1="19.358" x2="67.8099" y2="18.1801" gradientUnits="userSpaceOnUse">
<stop stop-color="#0081B3"/>
<stop offset="0.417" stop-color="#00FFFF"/>
<stop offset="0.995" stop-color="#6FEF2D"/>
</linearGradient>
<linearGradient id="paint1_linear_3303_26416" x1="53.1389" y1="16.338" x2="63.1531" y2="15.1606" gradientUnits="userSpaceOnUse">
<stop stop-color="#0081B3"/>
<stop offset="0.417" stop-color="#00FFFF"/>
<stop offset="0.995" stop-color="#6FEF2D"/>
</linearGradient>
<linearGradient id="paint2_linear_3303_26416" x1="54.3856" y1="17.1437" x2="56.4618" y2="2.77488" gradientUnits="userSpaceOnUse">
<stop stop-color="#0081B3"/>
<stop offset="0.417" stop-color="#00FFFF"/>
<stop offset="0.995" stop-color="#6FEF2D"/>
</linearGradient>
<linearGradient id="paint3_linear_3303_26416" x1="55.556" y1="17.9026" x2="58.822" y2="3.28652" gradientUnits="userSpaceOnUse">
<stop stop-color="#0081B3"/>
<stop offset="0.417" stop-color="#00FFFF"/>
<stop offset="0.995" stop-color="#6FEF2D"/>
</linearGradient>
<clipPath id="clip0_3303_26416">
<rect width="95" height="22.5971" fill="white"/>
</clipPath>
</defs>
</svg>
