<svg width="291" height="96" viewBox="0 0 291 96" fill="none" xmlns="http://www.w3.org/2000/svg">
<path d="M137.779 19.3965H155.302C172.935 19.3965 186.954 30.2453 186.954 48.5459C186.954 68.4903 174.907 78.6816 155.302 78.6816H137.779V19.3965ZM146.212 71.2299H155.083C169.65 71.2299 177.754 64.2165 177.754 48.8747C177.754 35.067 168.335 26.8482 156.069 26.8482H146.102V71.2299H146.212Z" fill="#646464"/>
<path d="M206.668 25.6422H197.688V16.6562H206.668V25.6422ZM198.126 35.3952H206.121V78.7906H198.126V35.3952Z" fill="#646464"/>
<path d="M221.016 19.3965H238.539C256.172 19.3965 270.191 30.2453 270.191 48.5459C270.191 68.4903 258.144 78.6816 238.539 78.6816H221.016V19.3965ZM229.558 71.2299H238.43C252.996 71.2299 261.101 64.2165 261.101 48.8747C261.101 35.067 251.682 26.8482 239.415 26.8482H229.449V71.2299H229.558Z" fill="#646464"/>
<path d="M289.905 25.6422H280.924V16.6562H289.905V25.6422ZM281.471 35.3952H289.467V78.7906H281.471V35.3952Z" fill="#646464"/>
<path fill-rule="evenodd" clip-rule="evenodd" d="M58.9228 73.8597C78.6368 73.2022 94.1889 57.5317 94.408 38.1352V21.3688H116.093V39.8886C115.655 70.0243 89.4795 93.6945 58.9228 94.352C27.8186 94.1328 1.42378 70.2434 1.09521 39.8886V6.6845C1.09521 3.28738 3.28566 1.0957 6.57132 1.0957H94.408V21.3688H25.5186C23.7663 21.3688 22.671 22.4646 22.671 24.218V37.8065C22.8901 57.4221 38.7708 73.6406 58.9228 73.8597Z" fill="#FC9153"/>
</svg>
