<svg width="489" height="65" viewBox="0 0 489 65" fill="none" xmlns="http://www.w3.org/2000/svg">
<g clip-path="url(#clip0_316_8256)">
<path d="M88.6569 25.9505V17.2451L76.9229 18.1986V64.0882H88.6569V39.1743C88.6569 34.7802 90.2459 31.1322 93.0572 28.5621C95.8684 25.9919 99.902 24.4996 104.913 24.4996C108.295 24.4996 110.984 25.6603 112.818 27.6915C114.651 29.7228 115.71 32.7075 115.71 36.3554V64.0882H127.444V33.2049C127.444 28.3134 125.733 24.2509 122.474 21.4734C119.174 18.696 114.447 17.2866 108.703 17.2866C104.384 17.2866 100.228 18.1571 96.6018 19.8153C93.3831 21.3076 90.6533 23.4218 88.6569 25.9505Z" fill="#01000F"/>
<path fill-rule="evenodd" clip-rule="evenodd" d="M192.797 64.0466V0L181.063 0.953444V24.4165C176.092 19.8151 169.614 17.2864 162.647 17.2864C155.639 17.2864 149.649 19.4005 145.412 23.5045C141.093 27.6499 138.853 33.5778 138.853 40.5835C138.853 47.9209 141.175 54.0561 145.412 58.3259C149.609 62.5957 155.639 65 162.85 65C170.592 65 177.559 62.1397 182.081 57.0408V64.088L192.797 64.0466ZM155.272 28.7277C157.839 25.7015 161.424 23.8361 165.621 23.8361C170.103 23.8361 173.973 25.7015 176.744 28.7277C179.514 31.7538 181.225 36.0236 181.225 41.0395C181.225 46.2213 179.596 50.5325 176.866 53.6001C174.136 56.6263 170.266 58.4088 165.662 58.4088C161.384 58.4088 157.757 56.6263 155.191 53.5587C152.624 50.4911 151.076 46.0969 151.076 40.8323C151.116 35.9407 152.746 31.7538 155.272 28.7277Z" fill="#01000F"/>
<path fill-rule="evenodd" clip-rule="evenodd" d="M293.962 17.2861C286.669 17.2861 278.52 18.281 270.738 19.9392L270.005 20.105L271.961 25.2039L272.449 25.121C279.58 24.1675 286.017 23.8359 292.047 23.8359C296.814 23.8359 300.033 24.3748 302.029 25.4526C303.007 25.9915 303.699 26.6548 304.107 27.4009C304.555 28.1886 304.759 29.142 304.759 30.2613V33.5776C304.759 33.5776 289.521 34.4896 284.469 34.8627C279.05 35.4016 274.609 37.0597 271.553 39.7128C268.457 42.3659 266.786 46.0138 266.786 50.325C266.786 55.0923 268.66 58.8231 272.327 61.3518C275.79 63.7562 280.843 64.9583 286.832 64.9583C292.617 64.9583 299.91 63.5074 305.696 56.6261V64.0463H316.452V29.7638C316.452 27.5253 316.045 25.6184 315.148 24.0431C314.252 22.4264 312.867 21.1414 311.033 20.1879C307.489 18.1981 301.825 17.2861 293.962 17.2861ZM304.8 48.0036V38.9252C304.8 38.9252 292.332 39.7542 288.217 40.0859C285.324 40.3761 283.002 41.4124 281.454 43.0291C279.905 44.6458 279.009 46.8429 279.009 49.5374C279.009 52.2319 280.068 54.2632 282.106 55.6312C284.061 56.9162 286.913 57.621 290.621 57.621C295.184 57.621 298.158 56.3359 300.807 54.4704C303.374 52.605 304.8 50.2007 304.8 48.0036Z" fill="#01000F"/>
<path d="M337.68 18.1982H324.153L347.621 64.0879H356.748L380.705 18.1982H372.841L354.996 52.3979L337.68 18.1982Z" fill="#01000F"/>
<path fill-rule="evenodd" clip-rule="evenodd" d="M411.792 17.2861C403.684 17.2861 396.635 19.4003 391.542 23.4628C386.205 27.7326 383.394 33.8678 383.394 41.1222C383.394 48.3767 386.205 54.4704 391.542 58.7402C396.676 62.8442 403.684 64.9998 411.792 64.9998C419.859 64.9998 426.867 62.8442 431.919 58.7402C437.215 54.4704 439.986 48.3352 439.986 41.1222C439.986 33.8678 437.175 27.7326 431.919 23.4628C426.826 19.4003 419.859 17.2861 411.792 17.2861ZM400.261 28.4787C403.113 25.3697 407.065 23.2555 411.71 23.2555C421.04 23.2555 427.6 30.5929 427.6 40.9564C427.641 46.1796 425.889 50.5323 423.077 53.6414C420.266 56.7919 416.314 58.9475 411.71 58.9475C407.065 58.9475 403.113 56.7919 400.261 53.6414C397.409 50.4908 395.657 46.1382 395.657 40.9564C395.657 35.8576 397.45 31.5463 400.261 28.4787Z" fill="#01000F"/>
<path d="M462.639 28.189V17.2451L450.905 18.1986V64.0882H462.639V44.8121C462.639 39.5474 464.188 35.0704 467.08 31.9199C470.095 28.6035 472.173 26.7381 475.922 25.5774C478.774 24.7069 480.852 24.6654 483.255 24.6654C483.826 24.6654 484.437 24.6654 485.089 24.6654H485.456L489 17.7426L488.145 17.6182C486.759 17.4109 484.03 17.2866 481.992 17.2866C474.088 17.2866 466.795 21.432 462.639 28.189Z" fill="#01000F"/>
<path fill-rule="evenodd" clip-rule="evenodd" d="M13.5675 36.7695C15.6861 25.3282 27.135 17.2861 39.2765 17.2861C57.6109 17.2861 64.2113 30.7173 64.2113 37.9717C64.2113 39.4641 63.9261 40.6248 63.1112 41.4124C62.2964 42.2 61.1556 42.4488 59.7703 42.4488H24.8126C25.4238 47.672 27.7461 51.6516 31.0871 54.3461C34.591 57.2064 39.2765 58.6573 44.3286 58.6573C50.4808 58.6573 55.9404 57.2479 61.4408 54.9264L62.0112 54.6777L64.0891 59.7766L63.5187 60.0253C55.4515 63.7147 48.1992 64.9583 39.9283 64.9583C32.8798 64.9583 26.1979 62.9271 21.268 58.8646C16.7047 55.0923 13.6897 49.5789 13.2415 42.4073H0L2.97425 36.7695H13.5675ZM24.8534 36.7695H47.4251C49.666 36.7695 51.0512 36.4379 51.8661 35.9405C52.5995 35.4845 52.9254 34.7798 52.9254 33.8678C52.9254 28.9762 47.7918 23.0482 39.3172 23.0482C34.7947 23.0482 31.3723 24.7893 28.9277 27.4838C26.7275 29.9711 25.3423 33.3289 24.8534 36.7695Z" fill="#01000F"/>
<path fill-rule="evenodd" clip-rule="evenodd" d="M231.177 17.2861C217.691 17.2861 205.142 27.1937 205.142 40.6248C205.142 48.7083 208.279 54.8435 213.209 58.906C218.139 62.9685 224.821 64.9998 231.869 64.9998C240.14 64.9998 247.392 63.7147 255.459 60.0667L256.03 59.818L253.952 54.7192L253.382 54.9679C247.881 57.2893 242.422 58.6988 236.269 58.6988C231.217 58.6988 226.573 57.2064 223.028 54.3875C219.687 51.693 217.324 47.7134 216.753 42.4902H251.67C253.056 42.4902 254.237 42.2415 255.011 41.4539C255.826 40.6662 256.111 39.5055 256.111 38.0132C256.152 30.7173 249.511 17.2861 231.177 17.2861ZM239.366 36.7695H216.794C217.283 33.2874 218.628 29.9711 220.909 27.4838C223.313 24.8308 226.776 23.0482 231.299 23.0482C239.733 23.0482 244.907 28.9762 244.907 33.8678C244.907 34.7798 244.622 35.4845 243.848 35.9405C243.033 36.4794 241.648 36.811 239.366 36.7695Z" fill="#01000F"/>
</g>
<defs>
<clipPath id="clip0_316_8256">
<rect width="489" height="65" fill="white"/>
</clipPath>
</defs>
</svg>
