<svg width="268" height="58" viewBox="0 0 268 58" fill="none" xmlns="http://www.w3.org/2000/svg">
<path d="M219.061 53.6126H207.733L199.38 35.7874H192.37V53.8036H182.002V1.09914L202.268 1.0918C217.33 1.85073 224.136 20.856 213.209 31.1946C212.708 31.6696 210.041 33.4568 210.034 33.7677L219.061 53.6126ZM192.37 25.248H202.834C203.076 25.248 204.442 24.6555 204.758 24.4866C209.192 22.1168 209.39 15.6732 205.294 12.8259C204.819 12.4954 202.934 11.641 202.45 11.641H192.368V25.248H192.37Z" fill="#5D57F8"/>
<path d="M137.071 1.09961V38.1871C137.071 38.6743 137.96 40.6769 138.261 41.2155C141.578 47.1646 150.23 47.5685 154.047 41.9059C154.551 41.1592 155.697 38.809 155.697 37.9937V1.09961H166.449V38.9534C166.449 41.9108 164.033 46.7729 162.217 49.1036C153.484 60.3162 136.085 59.124 128.973 46.8439C128.037 45.2281 126.316 41.1176 126.316 39.3353V1.09961H137.069H137.071Z" fill="#5D57F8"/>
<path d="M106.349 34.0652H100.013V23.5233H116.91C116.526 31.4897 118.357 39.5515 114.186 46.7737C103.994 64.4177 77.6709 57.5946 76.579 36.8536C76.2534 30.6573 75.9278 19.1068 78.2266 13.5641C83.7399 0.26556 100.831 -3.03459 111.062 7.04213L103.759 14.8959C98.0642 8.76075 88.1124 12.46 87.1723 20.5757C87.5175 25.9568 86.619 32.1042 87.1723 37.3947C88.0169 45.4663 98.2503 49.1778 103.847 42.9692C104.633 42.0976 106.349 39.0815 106.349 37.992V34.0627V34.0652Z" fill="#5D57F8"/>
<path d="M265.721 1.09961V11.639H245.271L244.982 11.9279V22.1809H265.721V32.7228H244.982V42.9758L245.271 43.2646H265.721V53.8065H234.614V1.09961H265.721Z" fill="#5D57F8"/>
<path d="M61.2264 1.09961H48.7456V53.8065H61.2264V1.09961Z" fill="#5D57F8"/>
<path d="M33.9612 23.1406V33.6801H12.8408V54.7638H2.2793V23.1406H33.9612Z" fill="#5D57F8"/>
<path d="M33.9612 2.24805H2.2793V12.599H33.9612V2.24805Z" fill="#5D57F8"/>
</svg>
