<svg width="341" height="72" viewBox="0 0 341 72" fill="none" xmlns="http://www.w3.org/2000/svg">
<g clip-path="url(#clip0_316_1831)">
<path d="M97.7865 37.123H91.0508V71.0229H97.7865V37.123Z" fill="#0169B4"/>
<path d="M52.8905 26.6543H49.52V71.0185H56.261V50.5638H81.9769V45.1552H56.261V32.0629H81.9769V26.6543H56.261H52.8905Z" fill="#0169B4"/>
<path d="M94.4213 33.4049C96.8935 33.4049 98.8977 31.8063 98.8977 29.8343C98.8977 27.8623 96.8935 26.2637 94.4213 26.2637C91.949 26.2637 89.9448 27.8623 89.9448 29.8343C89.9448 31.8063 91.949 33.4049 94.4213 33.4049Z" fill="#0169B4"/>
<path d="M204.979 41.3408C193.73 32.746 177.309 41.1512 177.362 54.5278C177.199 59.3466 179.242 64.2707 184.019 67.9256C195.268 76.5204 211.694 68.1152 211.636 54.7385C211.799 49.9197 209.756 44.9956 204.979 41.346V41.3408ZM194.494 65.3029C188.553 65.3029 183.729 60.6053 183.545 54.749C183.603 48.7822 188.485 43.9582 194.504 43.9582C200.524 43.9582 205.269 48.6558 205.453 54.512C205.395 60.4789 200.513 65.3029 194.494 65.3029Z" fill="#0169B4"/>
<path d="M159.672 65.34C153.732 65.34 148.908 60.6424 148.724 54.7861C148.781 48.8193 153.663 43.9953 159.683 43.9953C162.827 43.9953 165.65 45.3171 167.646 47.4237L172.522 43.516C171.827 42.7682 171.037 42.052 170.158 41.3779C158.909 32.7831 142.488 41.1883 142.541 54.565C142.378 59.3837 144.421 64.3078 149.198 67.9627C157.229 74.0981 167.888 71.5649 173.318 64.7502L168.725 60.5897C166.75 63.4547 163.433 65.34 159.672 65.34Z" fill="#0169B4"/>
<path d="M135.752 48.9203C135.747 48.8676 135.737 48.8097 135.731 48.757C133.203 33.5898 108.509 34.0216 106.871 48.7254C106.871 48.7991 106.861 48.8729 106.861 48.9519V71.0234H113.597L113.576 49.963C113.576 48.9677 113.728 47.9723 114.118 47.056C114.229 46.7926 114.355 46.5451 114.492 46.3187C117.473 41.4683 127.105 42.0792 128.822 47.6037C129.032 48.2883 129.175 49.0414 129.269 49.8472C129.269 49.9209 129.28 49.9946 129.28 50.0684V56.4512V71.0181H136.016V57.3044C136.074 55.4822 136.095 53.6811 136.016 51.9379L135.747 48.915L135.752 48.9203Z" fill="#0169B4"/>
<path d="M298.911 37.5391L298.932 58.5994C298.932 59.5948 298.779 60.5901 298.389 61.5065C298.279 61.7698 298.152 62.0173 298.015 62.2438C295.035 67.0942 285.402 66.4832 283.685 60.9588C283.475 60.2742 283.333 59.5211 283.238 58.7153C283.238 58.6416 283.227 58.5678 283.227 58.4941V52.1112V37.5443H276.492V51.2581C276.434 53.0802 276.413 54.8813 276.492 56.6245L276.76 59.6474C276.765 59.7001 276.776 59.758 276.781 59.8107C279.309 74.978 304.003 74.5461 305.641 59.8423C305.641 59.7686 305.652 59.6948 305.652 59.6158V37.5443H298.916L298.911 37.5391Z" fill="#0169B4"/>
<path d="M340.947 51.9373L340.679 48.9144C340.673 48.8618 340.663 48.8038 340.658 48.7512C338.13 33.5839 313.435 34.0157 311.798 48.7196C311.798 48.7933 311.787 48.867 311.787 48.946V71.0175H318.523L318.502 49.9572C318.502 48.9618 318.654 47.9665 319.044 47.0501C319.155 46.7868 319.281 46.5393 319.418 46.3128C322.399 41.4624 332.031 42.0733 333.748 47.5978C333.959 48.2824 334.101 49.0355 334.196 49.8413C334.196 49.915 334.206 49.9888 334.206 50.0625V56.4454V71.0123H340.942V57.2985C341 55.4764 341.021 53.6753 340.942 51.9321L340.947 51.9373Z" fill="#0169B4"/>
<path d="M269.64 48.92C269.635 48.8673 269.624 48.8094 269.619 48.7568C267.555 36.3649 250.692 34.39 243.698 42.1053C236.293 34.2109 219.42 36.6598 218.072 48.7304C218.072 48.8041 218.061 48.8779 218.061 48.9569V71.0284H224.797L224.776 49.968C224.776 48.9727 224.928 47.9773 225.318 47.061C225.429 46.7976 225.555 46.5501 225.692 46.3237C228.673 41.4733 238.305 42.0842 240.022 47.6087C240.233 48.2933 240.375 49.0464 240.47 49.8522C240.47 49.9259 240.48 49.9996 240.48 50.0734V56.4562V71.0231H247.479L247.458 49.9628C247.458 48.9674 247.611 47.9721 248.001 47.0557C248.111 46.7924 248.238 46.5449 248.374 46.3184C251.355 41.468 260.988 42.0789 262.704 47.6034C262.915 48.288 263.057 49.0411 263.152 49.8469C263.152 49.9206 263.163 49.9944 263.163 50.0681V56.451V71.0179H269.898V57.3041C269.956 55.482 269.977 53.6808 269.898 51.9377L269.63 48.9147L269.64 48.92Z" fill="#0169B4"/>
<path d="M299.996 27.0898H291.591L286.545 35.2896H291.043L299.996 27.0898Z" fill="#0169B4"/>
<path d="M1.52752 24.5566C1.52752 24.5566 -3.70202 43.0733 8.42652 42.6994C8.42652 42.6994 -4.29713 54.5278 3.14431 63.902C3.14431 63.902 6.86239 68.8893 12.1446 70.6746C12.1446 70.6746 7.4575 59.7363 12.1446 48.9506L14.7725 37.0275C14.7725 37.0275 8.20006 37.4909 3.58669 31.0185L1.52225 24.5566H1.52752Z" fill="#EA8414"/>
<path d="M1.66987 39.1084C1.66987 39.1084 4.94031 30.3924 17.5376 24.552C33.1261 17.3212 38.5874 15.4253 33.7634 0C33.7634 0 28.3548 8.86863 13.0348 15.0725C-6.4088 22.9457 1.66987 39.1084 1.66987 39.1084Z" fill="#E45191"/>
<path d="M1.65899 61.4588C1.65899 61.4588 4.93996 53.0852 17.5372 47.2395C33.1258 40.0087 38.587 38.1128 33.763 22.6875C33.763 22.6875 28.3544 31.5561 13.0344 37.76C-6.40915 45.6385 1.65899 61.4588 1.65899 61.4588Z" fill="#F9CB45"/>
</g>
<defs>
<clipPath id="clip0_316_1831">
<rect width="341" height="71.4441" fill="white"/>
</clipPath>
</defs>
</svg>
