<svg width="450" height="147" viewBox="0 0 450 147" fill="none" xmlns="http://www.w3.org/2000/svg">
<g clip-path="url(#clip0_316_1765)">
<mask id="mask0_316_1765" style="mask-type:luminance" maskUnits="userSpaceOnUse" x="0" y="0" width="450" height="147">
<path d="M449.045 0H0V146.75H449.045V0Z" fill="white"/>
</mask>
<g mask="url(#mask0_316_1765)">
<path d="M101.155 47.2658C105.16 43.0258 108.962 39.6658 113.828 37.6598C117.977 36.0026 122.502 35.5183 126.908 36.2598C135.178 37.4898 139.802 42.7158 140.102 51.1748C140.353 58.2748 140.191 65.3928 140.281 72.5018C140.333 76.6418 140.474 80.7828 140.662 84.9198C140.847 89.0028 142.128 90.2728 146.22 90.6608C146.808 90.7329 147.4 90.7723 147.993 90.7788C149.34 90.7558 149.593 91.5238 149.607 92.6868C149.621 93.9098 149.024 94.1608 147.968 94.1588C139.475 94.1401 130.981 94.1401 122.488 94.1588C121.464 94.1588 120.765 93.9858 120.782 92.7328C120.798 91.6208 120.96 90.7428 122.35 90.7828C122.745 90.7938 123.141 90.7888 123.535 90.7668C128.935 90.4718 130.113 89.1278 130.298 83.6668C130.652 73.2098 130.441 62.7588 130.373 52.3018C130.301 41.1728 121.382 38.9918 114.104 41.3308C108.575 43.1068 104.867 47.1928 101.621 51.7738C101.216 52.4544 101.048 53.2504 101.144 54.0368C101.207 64.1018 100.927 74.1698 101.476 84.2298C101.744 89.1518 102.913 90.3078 107.927 90.7628C108.921 90.8528 110.482 90.1288 110.535 92.1778C110.567 93.4158 110.448 94.1878 108.846 94.1778C100.452 94.1108 92.057 94.1368 83.663 94.1588C82.605 94.1588 82 93.9248 82.047 92.6908C82.088 91.6138 82.094 90.6988 83.565 90.7688C84.355 90.7834 85.145 90.7372 85.928 90.6308C89.444 90.2528 90.835 88.8438 91.016 85.3468C91.6452 73.1279 91.6602 60.8851 91.061 48.6648C90.838 44.1168 89.506 42.8248 84.911 42.5158C84.517 42.4898 84.122 42.4788 83.728 42.4618C82.747 42.4198 82.003 42.1818 82.05 40.9368C82.089 39.9188 81.983 39.0788 83.45 38.8788C88.0363 38.2459 92.5785 37.3268 97.05 36.1268C98.671 35.6938 99.778 36.1328 100.178 38.1268C100.805 41.1314 101.134 44.1906 101.159 47.2598" fill="#0280B0"/>
<path d="M304.089 85.653C309.346 73.793 314.344 62.544 319.308 51.28C319.787 50.1978 320.15 49.0683 320.393 47.91C321.115 44.402 320.029 42.775 316.512 41.901C316.039 41.7607 315.557 41.6478 315.071 41.563C313.771 41.399 313.957 40.448 313.941 39.563C313.92 38.433 314.654 38.323 315.509 38.324C320.842 38.324 326.174 38.324 331.504 38.324C332.24 38.324 332.923 38.417 332.904 39.389C332.889 40.233 333.241 41.326 332.011 41.589C327.049 42.634 325.221 46.734 323.401 50.64C316.62 65.1954 309.936 79.7967 303.351 94.444C302.535 96.258 301.5 96.577 299.757 96.572C297.957 96.567 297.744 95.266 297.247 94.147C291.131 80.369 285.019 66.5894 278.911 52.808C277.83 50.381 276.603 48.016 275.37 45.66C274.915 44.6118 274.195 43.7005 273.279 43.0164C272.364 42.3324 271.286 41.8993 270.152 41.76C268.835 41.615 268.018 41.148 268.192 39.533C268.368 37.896 269.5 38.34 270.37 38.333C277.38 38.3017 284.39 38.2977 291.4 38.321C292.435 38.321 293.615 38.021 293.669 39.787C293.719 41.393 292.844 41.517 291.633 41.525C290.944 41.5717 290.261 41.6791 289.591 41.846C286.67 42.394 285.77 43.633 286.83 46.403C288.341 50.354 290.14 54.196 291.852 58.069C295.831 67.069 299.831 76.055 304.089 85.651" fill="#0280B0"/>
<path d="M191.26 85.6807C196.616 73.5167 201.781 62.1357 206.632 50.6217C209.086 44.7977 208.412 43.7087 202.44 41.6797C201.151 41.2417 201.1 40.5127 201.133 39.4717C201.17 38.3007 201.968 38.3247 202.775 38.3237C208.009 38.3237 213.242 38.3237 218.475 38.3237C219.275 38.3237 220.132 38.2957 220.111 39.4737C220.096 40.3267 220.389 41.3327 219.121 41.6017C214.443 42.5917 212.527 46.4017 210.77 50.1427C205.489 61.3787 200.383 72.6967 195.212 83.9847C193.571 87.5687 191.873 91.1287 190.339 94.7587C190.132 95.3533 189.726 95.8583 189.19 96.1888C188.654 96.5193 188.02 96.6553 187.396 96.5737C186.775 96.6426 186.149 96.4867 185.632 96.1341C185.116 95.7815 184.743 95.2556 184.581 94.6517C178.114 79.949 171.604 65.2664 165.051 50.6037C164.331 48.9857 163.451 47.4387 162.632 45.8657C161.48 43.6537 159.885 42.0297 157.232 41.7707C155.97 41.6477 155.365 41.0467 155.45 39.6347C155.55 38.0347 156.624 38.3347 157.55 38.3287C164.561 38.312 171.573 38.312 178.584 38.3287C179.614 38.3287 180.825 38.0127 180.893 39.7727C180.954 41.3527 180.109 41.5177 178.864 41.5257C177.977 41.578 177.097 41.7119 176.235 41.9257C173.93 42.3727 172.947 43.7027 173.835 45.9727C174.978 48.9077 176.209 51.8097 177.483 54.6897C181.938 64.7627 186.427 74.8197 191.261 85.6897" fill="#0280B0"/>
<path d="M404.812 48.9254C407.634 43.2644 411.524 39.3384 416.912 37.0524C422.612 34.6354 428.046 36.1024 430.745 40.6374C431.539 41.8961 431.926 43.3688 431.854 44.8554C431.863 45.8505 431.547 46.8213 430.953 47.6201C430.36 48.4189 429.521 49.0019 428.566 49.2804C426.485 50.0024 424.872 49.1344 423.626 47.5804C423.004 46.6956 422.498 45.7348 422.12 44.7214C420.401 40.8214 418.004 40.1214 414.42 42.5734C408.13 46.8734 405.242 52.9624 405.185 60.4574C405.126 68.3574 405.141 76.2574 405.185 84.1574C405.209 88.8384 406.885 90.5184 411.577 90.7724C412.168 90.8154 412.762 90.8174 413.353 90.7784C414.699 90.6644 415.295 91.1114 415.29 92.5964C415.285 94.0344 414.59 94.1724 413.46 94.1684C404.771 94.145 396.081 94.143 387.391 94.1624C386.338 94.1624 385.472 94.1624 385.473 92.6624C385.473 91.2474 385.999 90.8574 387.373 90.7494C394.088 90.2264 395.04 89.2084 395.073 82.3774C395.128 72.0094 395.129 61.6427 395.078 51.2774C395.053 45.0494 393.787 43.7194 387.539 43.2054C386.384 43.1104 385.439 43.2054 385.461 41.5444C385.481 40.0254 386.287 39.8014 387.484 39.6444C391.684 39.0641 395.813 38.0514 399.805 36.6224C402.079 35.8164 402.846 36.6154 403.168 38.6224C403.698 41.9154 404.218 45.2084 404.813 48.9404" fill="#0280B0"/>
<path d="M249.221 61.4552C249.221 68.7652 249.158 76.0752 249.241 83.3842C249.307 89.1742 250.667 90.4932 256.371 90.7842C257.133 90.8232 258.149 90.4692 258.555 91.2482C258.828 91.9802 258.879 92.7766 258.7 93.5372C258.578 94.3102 257.787 94.1372 257.241 94.1372C248.252 94.1522 239.262 94.1312 230.273 94.1662C229.028 94.1712 228.513 93.8072 228.537 92.4862C228.561 91.1652 229.175 90.8772 230.348 90.7612C238.7 89.9352 239.148 89.4612 239.16 81.1032C239.169 71.5222 239.106 61.9412 239.06 52.3602C239.047 51.5729 238.98 50.7874 238.86 50.0092C237.96 43.6432 237.5 43.2222 231.049 42.9832C229.727 42.9352 228.383 43.1082 228.549 41.0772C228.622 40.1772 228.793 39.6332 229.833 39.4942C235.714 38.8551 241.532 37.7268 247.226 36.1212C249.118 35.5372 249.215 36.8962 249.208 38.3392C249.17 46.0442 249.19 53.7492 249.19 61.4542H249.227" fill="#0280B0"/>
<path d="M361.992 61.1309C361.992 68.5309 361.934 75.9409 362.011 83.3449C362.07 89.0299 363.556 90.4949 369.184 90.7689C370.457 90.8309 371.827 90.5339 371.795 92.5929C371.759 94.8489 370.137 94.1169 369.04 94.1229C360.647 94.1715 352.253 94.1752 343.86 94.1339C342.819 94.1339 341.378 94.7129 341.309 92.6829C341.241 90.6939 342.473 90.7549 343.832 90.7709C344.819 90.7854 345.805 90.7423 346.787 90.6419C350.032 90.2979 351.756 88.7299 351.777 85.5419C351.855 73.5949 351.907 61.6419 351.728 49.7019C351.652 44.6379 349.85 43.1699 344.784 42.9849C344.192 42.9639 343.599 42.9559 343.007 42.9729C341.937 43.0029 341.369 42.5819 341.327 41.4289C341.285 40.2759 341.509 39.6159 342.855 39.4469C348.641 38.8605 354.362 37.7479 359.946 36.1229C361.858 35.5229 361.913 36.8979 361.906 38.3229C361.87 45.9229 361.889 53.5289 361.889 61.1329H361.989" fill="#0280B0"/>
<path d="M249.937 7.74697C249.975 8.6837 249.82 9.61826 249.479 10.4918C249.139 11.3654 248.621 12.1591 247.959 12.8229C247.297 13.4867 246.505 14.0063 245.633 14.349C244.76 14.6916 243.826 14.85 242.889 14.814C241.93 14.8044 240.983 14.6058 240.101 14.2295C239.219 13.8533 238.421 13.3067 237.75 12.6211C237.08 11.9355 236.552 11.1244 236.196 10.2343C235.84 9.34423 235.663 8.3926 235.675 7.43397C235.732 5.5497 236.518 3.76114 237.868 2.44485C239.217 1.12856 241.025 0.387243 242.91 0.376973C247.118 0.367973 249.983 3.37697 249.938 7.74697" fill="#0280B1"/>
<path d="M348.742 7.48805C348.693 6.55204 348.84 5.61613 349.172 4.73973C349.504 3.86332 350.015 3.06557 350.672 2.3971C351.329 1.72864 352.118 1.20405 352.989 0.856647C353.859 0.509242 354.792 0.346603 355.729 0.379054C356.687 0.37983 357.636 0.569884 358.52 0.938302C359.404 1.30672 360.207 1.84624 360.882 2.52587C361.558 3.2055 362.092 4.01185 362.455 4.89859C362.818 5.78534 363.001 6.73501 362.996 7.69305C362.956 9.57829 362.185 11.3741 360.845 12.7006C359.504 14.027 357.701 14.78 355.815 14.8001C351.581 14.8061 348.715 11.8451 348.742 7.48305" fill="#0280B0"/>
<path d="M158.461 133.858C158.096 134.477 157.812 135.178 157.5 135.791C156.987 136.799 156.478 137.809 155.973 138.823C154.994 140.793 154.041 142.776 153.146 144.786C153.02 145.13 152.825 145.445 152.574 145.712C152.446 145.843 152.281 145.932 152.101 145.968C151.921 146.003 151.735 145.984 151.566 145.912C151.343 145.759 151.171 145.543 151.073 145.291L145.052 133.409C144.791 136.093 144.53 138.778 144.34 141.467C144.225 142.564 144.235 143.671 144.368 144.767C144.37 144.843 144.39 144.918 144.424 144.986C144.459 145.054 144.508 145.114 144.568 145.161C144.676 145.196 144.786 145.225 144.898 145.248C145.167 145.362 145.139 145.793 144.912 145.978C144.664 146.138 144.369 146.208 144.075 146.178H142.275C142.034 146.199 141.791 146.153 141.575 146.045C141.523 146.016 141.477 145.976 141.441 145.929C141.404 145.882 141.377 145.828 141.362 145.77C141.346 145.713 141.342 145.652 141.351 145.593C141.359 145.534 141.379 145.477 141.409 145.426C141.494 145.326 141.633 145.281 141.737 145.197C141.883 145.052 141.979 144.864 142.01 144.661C143.39 139.339 142.923 133.287 144.634 128.077C144.668 127.972 144.909 127.916 145.004 127.893C146.404 130.193 147.486 132.767 148.704 135.172L150.623 138.956L151.582 140.849C151.703 141.088 152.596 142.456 152.498 142.655L159.698 128.077L159.916 127.635C159.893 127.682 160.216 127.685 160.303 127.869C160.689 129.021 160.925 130.217 161.003 131.43C161.221 132.841 161.359 134.264 161.416 135.691C161.592 138.557 161.458 142.624 162.461 145.324C162.655 145.847 163.571 146.017 163.921 146.146C163.945 146.152 163.967 146.165 163.984 146.183C164.001 146.201 164.013 146.223 164.019 146.247C164.024 146.271 164.023 146.296 164.016 146.32C164.008 146.343 163.995 146.364 163.976 146.381C163.824 146.462 163.656 146.508 163.484 146.518C163.134 146.579 162.779 146.608 162.423 146.605C161.779 146.623 161.134 146.608 160.491 146.56C160.381 146.559 160.273 146.525 160.182 146.463C160.091 146.402 160.02 146.314 159.979 146.212C159.837 145.806 160.087 145.341 160.087 144.928C160.092 144.189 160.022 143.452 159.879 142.728C159.63 141.323 159.466 139.904 159.332 138.484C159.246 137.578 159.175 136.67 159.112 135.761C159.175 134.904 159.107 134.043 158.912 133.207C158.746 133.412 158.596 133.629 158.464 133.857" fill="#828587"/>
<path d="M267.137 128.047C265.158 128.921 265.246 130.407 265.183 131.733C265.03 134.969 265.574 138.233 264.735 141.441C263.851 144.818 261.243 146.734 257.503 146.708C253.477 146.679 251.087 144.803 250.333 141.078C249.702 137.953 250.155 134.79 250.033 131.647C249.978 130.284 249.833 128.838 247.572 128.047H253.281C252.232 132.727 252.222 137.581 253.252 142.266C253.852 144.803 256.116 145.566 258.652 145.294C261.025 145.038 262.652 143.672 262.826 141.412C263.126 137.592 262.976 133.738 263.044 129.899C263.062 128.886 262.218 128.692 261.356 128.084C263.214 128.084 265.056 128.047 267.139 128.047" fill="#828587"/>
<path d="M21.698 64.5123C21.929 70.4503 21.31 77.7613 21.991 85.0533C22.371 89.1253 23.675 90.4153 27.685 90.7063C28.8663 90.7987 30.0521 90.8204 31.236 90.7713C32.589 90.7083 32.89 91.3713 32.881 92.5773C32.874 93.6853 32.559 94.1663 31.37 94.1623C22.2853 94.1303 13.2 94.1303 4.114 94.1623C2.933 94.1623 2.547 93.7113 2.614 92.5883C2.666 91.6623 2.584 90.7763 3.925 90.7803C4.91249 90.7806 5.89894 90.7162 6.878 90.5873C9.69 90.2213 11.478 88.7213 11.503 85.7753C11.608 71.6563 11.627 57.5363 11.729 43.4173C11.741 41.7763 11.003 41.4173 9.565 41.4683C7.395 41.5453 5.22 41.4613 3.048 41.4973C1.98 41.5153 1.44 41.2103 1.414 40.0053C1.386 38.7053 1.864 38.2563 3.136 38.3053C5.108 38.3753 7.095 38.2053 9.058 38.3533C11.113 38.5143 11.803 37.8013 11.758 35.7103C11.629 30.0893 11.603 24.4313 12.751 18.9103C16.215 2.20032 36.877 -5.67768 49.993 4.60032C51.2693 5.53906 52.3025 6.76968 53.006 8.18932C54.036 10.3963 53.847 12.4683 51.927 14.0893C51.1061 14.8265 50.0485 15.2456 48.9455 15.2709C47.8425 15.2962 46.7668 14.9261 45.913 14.2273C44.3547 13.0057 43.0946 11.4457 42.228 9.66532C40.028 5.89232 37.218 2.92432 32.342 3.56532C29.9666 3.87961 27.7535 4.94348 26.0244 6.60222C24.2954 8.26096 23.1406 10.4281 22.728 12.7883C21.578 19.1043 21.692 25.5453 21.693 31.9553C21.693 38.3183 21.693 38.3183 27.963 38.3183C30.0363 38.3183 32.11 38.3183 34.184 38.3183C35.356 38.3183 36.594 38.0593 36.534 39.9943C36.48 41.7503 35.334 41.4753 34.292 41.4803C31.133 41.4963 27.963 41.6293 24.815 41.4353C22.427 41.2883 21.549 41.9103 21.63 44.4843C21.83 50.7003 21.693 56.9253 21.693 64.5083" fill="#0280B0"/>
<path d="M64.6121 58.245C64.6121 66.632 64.5731 75.02 64.6261 83.408C64.6611 89.135 66.0571 90.539 71.7391 90.852C72.9651 90.92 74.3511 90.48 74.3071 92.63C74.2611 94.977 72.6071 94.105 71.5761 94.113C63.2821 94.1763 54.9874 94.1763 46.6921 94.113C45.6621 94.105 44.0161 94.978 43.9821 92.628C43.9451 90.189 45.6121 90.909 46.8301 90.876C52.8301 90.713 54.4171 89.366 54.4351 83.639C54.4711 72.089 54.4044 60.5393 54.2351 48.99C54.1451 43.129 52.9771 42.104 47.0801 41.718C45.5081 41.618 43.9331 41.51 42.3591 41.504C41.2591 41.504 40.4651 41.45 40.5271 39.97C40.5761 38.806 40.8091 38.161 42.1141 38.031C49.0994 37.5162 56.0276 36.4017 62.8221 34.7C64.7521 34.166 64.3661 35.626 64.3681 36.619C64.3891 43.827 64.3801 51.036 64.3801 58.245H64.6121Z" fill="#97005E"/>
<path d="M54.3541 8.51953C58.4681 9.41953 60.4071 11.5435 60.5611 15.1275C60.6931 18.1845 58.2751 21.6275 55.4841 22.3665C53.8984 22.7825 52.2186 22.6496 50.718 21.9896C49.2174 21.3297 47.9842 20.1814 47.2191 18.7315C46.8051 17.9405 45.8821 16.9405 47.9651 16.9485C54.2151 16.9715 55.9291 14.7485 54.3541 8.51953Z" fill="#97005E"/>
<path d="M350.794 127.99H356.206C354.422 129.359 354.744 131.09 354.795 132.72C354.887 135.666 354.425 138.634 355.205 141.556C355.409 142.69 356.021 143.71 356.925 144.424C357.83 145.137 358.965 145.495 360.115 145.428C362.654 145.428 364.515 144.197 365.057 141.608C365.878 137.708 365.311 133.748 365.402 129.815C365.423 128.877 364.328 128.807 364.027 128.015H368.96C367.247 129.001 367.29 130.335 367.301 131.695C367.32 134.359 367.39 137.029 367.237 139.686C366.982 144.103 364.052 146.762 359.712 146.708C355.054 146.651 352.496 144.067 352.412 139.277C352.361 136.515 352.369 133.751 352.353 130.989C352.345 129.762 352.311 128.553 350.799 127.994" fill="#828587"/>
<path d="M319.077 128.012H323.917C322.146 129.138 322.257 130.632 322.254 132.098C322.248 134.666 322.326 137.238 322.194 139.798C321.965 144.216 319.04 146.798 314.575 146.683C310.204 146.571 307.549 144.062 307.37 139.697C307.258 136.936 307.324 134.167 307.353 131.397C307.367 130.077 307.345 128.814 305.142 128.01H311.456C310.884 128.296 310.415 128.754 310.116 129.319C309.817 129.885 309.702 130.53 309.788 131.164C309.851 134.027 309.682 136.9 309.846 139.755C310.064 143.555 312.032 145.428 315.359 145.317C318.515 145.212 320.217 143.355 320.359 139.587C320.471 136.629 320.359 133.663 320.397 130.702C320.469 130.172 320.382 129.632 320.147 129.151C319.912 128.67 319.539 128.27 319.076 128.002" fill="#828587"/>
<path d="M294.036 146.297C291.927 146.308 289.817 146.29 287.708 146.242C287.5 146.242 287.734 145.56 287.786 145.491C287.86 145.396 287.956 145.319 288.065 145.269C288.174 145.219 288.294 145.195 288.415 145.201C288.489 145.209 288.564 145.201 288.636 145.18C288.708 145.158 288.774 145.122 288.831 145.074C288.889 145.026 288.936 144.966 288.97 144.9C289.003 144.833 289.024 144.76 289.029 144.686C289.271 143.323 289.39 141.94 289.386 140.556C289.479 135.998 289.295 131.44 288.834 126.905C288.841 126.747 288.811 126.591 288.747 126.447C288.683 126.303 288.587 126.176 288.465 126.076C288.116 125.972 287.751 125.932 287.388 125.959C287.164 125.947 287.042 125.799 287.115 125.535C287.188 125.271 287.539 125.12 287.952 125.022C288.419 124.928 288.892 124.869 289.367 124.846C290.793 124.726 292.251 124.827 293.68 124.829L298.071 124.834C298.357 124.834 298.695 124.862 298.845 125.106C298.915 125.249 298.941 125.409 298.921 125.567C298.894 126.223 298.789 126.874 298.61 127.506C298.538 127.208 298.401 126.93 298.209 126.692C298.017 126.454 297.775 126.262 297.499 126.129C296.946 125.867 296.346 125.716 295.735 125.684C294.274 125.547 292.8 125.651 291.373 125.992C291.224 126.016 291.082 126.075 290.958 126.162C290.85 126.286 290.773 126.433 290.731 126.592C290.69 126.751 290.686 126.918 290.719 127.079C290.842 129.234 290.966 131.389 291.089 133.545C291.085 133.741 291.128 133.936 291.214 134.113C291.321 134.246 291.455 134.354 291.607 134.431C291.759 134.508 291.926 134.552 292.096 134.56C293.691 134.835 295.32 134.858 296.923 134.627C297.075 134.613 297.219 134.552 297.334 134.45C297.448 134.349 297.528 134.214 297.56 134.065C297.647 133.827 297.882 132.955 298.22 133.65C298.281 133.811 298.301 133.985 298.279 134.156C298.243 134.844 298.207 135.532 298.172 136.221C298.177 136.282 298.169 136.344 298.148 136.402C298.127 136.46 298.095 136.513 298.052 136.558C297.793 136.758 297.587 136.347 297.486 136.17C297.286 135.826 297.286 135.663 296.834 135.642C295.307 135.57 293.778 135.554 292.249 135.592C292.083 135.566 291.914 135.581 291.755 135.636C291.597 135.691 291.454 135.783 291.339 135.906C291.225 136.028 291.142 136.177 291.098 136.338C291.053 136.5 291.049 136.67 291.086 136.834C290.973 138.192 290.915 139.552 290.91 140.916C290.91 141.613 290.922 142.31 290.945 143.006C290.959 143.399 290.814 144.488 291.153 144.759C291.253 144.829 291.368 144.876 291.489 144.895C292.208 145.055 293.226 144.934 293.835 145.404C293.971 145.503 294.067 145.648 294.104 145.813C294.141 145.978 294.116 146.15 294.035 146.298" fill="#828587"/>
<path d="M334.693 146.259C336.052 145.016 335.862 143.703 335.862 142.437C335.862 139.183 335.862 135.93 335.862 132.676C335.862 129.204 334.825 128.402 331.453 129.369C330.733 129.661 330.046 130.03 329.405 130.469C329.005 128.581 329.555 127.784 331.666 127.883C335.404 128.059 339.166 128.088 342.899 127.917C345.081 127.817 345.499 128.601 344.868 130.562C344.239 130.152 343.576 129.794 342.887 129.494C339.687 128.394 338.594 129.181 338.587 132.507C338.581 135.958 338.609 139.407 338.575 142.859C338.561 144.243 338.604 145.541 341.005 146.259H334.693Z" fill="#828587"/>
<path d="M197.409 142.644C197.724 143.5 198.299 144.235 199.054 144.747C199.809 145.26 200.704 145.522 201.616 145.499C202.311 145.596 203.018 145.472 203.638 145.145C204.259 144.818 204.76 144.305 205.073 143.677C205.392 143.05 205.477 142.33 205.312 141.646C205.147 140.963 204.743 140.36 204.173 139.948C202.615 138.585 200.92 137.371 199.428 135.943C197.268 133.874 196.982 131.191 198.551 129.343C200 127.633 204.62 126.837 206.298 128.078C207.031 128.62 207.08 129.094 207.04 130.268C207.031 130.542 206.993 130.814 206.924 131.079C206.873 131.205 206.508 131.003 206.448 131.137C206.236 130.494 205.84 129.927 205.309 129.507C204.778 129.087 204.136 128.832 203.461 128.773C202.735 128.579 201.964 128.643 201.279 128.953C200.594 129.263 200.038 129.8 199.704 130.473C198.992 131.865 199.864 132.973 200.876 133.821C202.085 134.832 203.435 135.67 204.676 136.645C207.582 138.927 208.327 141.932 206.637 144.371C205.186 146.471 200.27 147.485 197.947 146.154C196.766 145.476 196.815 144.243 197.047 143.235C197.116 142.935 197.137 142.799 197.406 142.648" fill="#828587"/>
<path d="M242.505 129.635C242.441 129.659 242.37 129.659 242.305 129.635C242.232 129.602 242.166 129.554 242.112 129.494C241.76 129.225 241.356 129.033 240.925 128.93C240.495 128.827 240.048 128.814 239.612 128.894C238.738 128.815 237.858 128.958 237.055 129.311C236.145 129.943 236.204 131.469 236.204 132.434C236.204 135.887 236.191 139.339 236.21 142.792C236.113 143.621 236.232 144.46 236.556 145.229C236.827 145.68 237.566 145.642 238.015 145.682C238.215 145.699 238.69 145.654 238.847 145.782C239.004 145.91 239.223 146.431 238.842 146.439C236.242 146.495 233.595 146.245 230.999 146.192C230.934 146.198 230.869 146.184 230.811 146.153C230.754 146.122 230.708 146.074 230.678 146.016C230.648 145.958 230.636 145.892 230.644 145.827C230.652 145.762 230.679 145.701 230.722 145.652C230.935 145.321 231.513 145.492 231.822 145.476C232.042 145.464 233.071 145.552 233.211 145.338C233.632 144.601 233.824 143.755 233.76 142.909C233.74 139.26 233.666 135.603 233.87 131.964C233.952 131.54 233.94 131.103 233.836 130.684C233.731 130.265 233.536 129.874 233.265 129.538C232.44 128.966 231.426 128.732 230.434 128.885C229.213 128.938 227.954 128.838 227.185 129.736C227.059 129.476 227.037 129.178 227.126 128.903C227.214 128.628 227.406 128.398 227.66 128.261C228.182 128.007 228.763 127.898 229.342 127.947C230.507 127.947 231.673 127.947 232.842 127.955L240.842 127.993C241.284 127.964 241.727 128.029 242.142 128.185C242.348 128.267 242.523 128.411 242.643 128.596C242.763 128.782 242.823 129.001 242.813 129.222C242.801 129.312 242.766 129.397 242.711 129.469C242.657 129.542 242.585 129.599 242.502 129.636" fill="#828587"/>
<path d="M113.264 142.743C113.23 142.7 113.185 142.666 113.135 142.644C113.084 142.623 113.029 142.614 112.974 142.619C112.754 142.643 112.63 142.877 112.524 143.071C112.231 143.547 111.845 143.959 111.39 144.283C110.935 144.606 110.419 144.835 109.874 144.955C108.783 145.19 107.666 145.276 106.552 145.211L102.496 145.157C102.053 145.151 102.007 144.794 102.204 144.457C103.713 141.877 105.657 139.486 107.339 137.012C109.115 134.4 110.863 131.77 112.583 129.122C112.681 128.994 112.743 128.84 112.76 128.679C112.778 128.518 112.751 128.355 112.683 128.208C112.5 127.875 112.178 127.997 111.862 127.979C111.493 127.959 111.123 127.94 110.752 127.924C109.226 127.924 107.701 127.83 106.174 127.845C105.033 127.856 103.893 127.889 102.754 127.945C101.862 127.989 100.589 127.883 99.8459 128.48C99.58 128.822 99.386 129.214 99.2759 129.632C99.1657 130.051 99.1416 130.487 99.2049 130.915C99.206 130.988 99.224 131.06 99.2575 131.125C99.291 131.19 99.339 131.246 99.3978 131.289C99.4566 131.332 99.5246 131.361 99.5965 131.373C99.6683 131.386 99.7421 131.381 99.8119 131.36C100.185 131.302 100.26 130.644 100.344 130.277C100.379 130.012 100.491 129.763 100.665 129.559C100.894 129.375 101.168 129.255 101.459 129.21C104.025 128.553 107.059 129.136 109.848 129.124L98.3779 146.311L111.232 146.324C111.572 146.351 111.914 146.299 112.232 146.173C112.551 145.993 112.807 145.717 112.963 145.385C113.308 144.751 113.48 144.037 113.463 143.314C113.463 143.109 113.396 142.909 113.274 142.743" fill="#828587"/>
<path d="M180.967 127.583C175.193 127.256 170.56 131.242 170.358 136.711C170.148 142.361 173.922 146.391 179.718 146.711C181.051 146.805 182.389 146.625 183.649 146.181C184.91 145.738 186.066 145.041 187.047 144.133C188.027 143.225 188.812 142.126 189.351 140.904C189.89 139.681 190.174 138.361 190.183 137.025C190.374 131.739 186.631 127.906 180.967 127.585M180.567 145.328C176.067 145.256 173.007 141.619 173.126 136.494C173.24 131.562 175.844 128.615 180.058 128.644C184.411 128.675 187.579 132.478 187.505 137.586C187.435 142.521 184.857 145.397 180.567 145.328Z" fill="#828587"/>
<path d="M407.823 127.549C406.54 127.517 405.263 127.743 404.068 128.212C402.873 128.681 401.784 129.385 400.865 130.282C399.947 131.179 399.217 132.251 398.719 133.435C398.221 134.618 397.966 135.889 397.967 137.173C397.967 142.79 401.967 146.605 407.816 146.578C413.754 146.551 417.681 142.685 417.706 136.845C417.73 131.166 413.854 127.519 407.824 127.545M408.193 145.322C403.657 145.247 400.669 141.693 400.771 136.494C400.871 131.569 403.471 128.605 407.677 128.632C411.962 128.658 415.236 132.578 415.153 137.583C415.072 142.483 412.453 145.392 408.193 145.322Z" fill="#828587"/>
<path d="M67.0129 140.178C65.7129 138.778 65.4129 137.811 66.8129 136.045C69.7939 132.292 67.8289 128.312 63.0209 128.001C61.5909 127.908 60.1569 127.919 58.7209 127.939C57.9899 127.949 57.2579 127.964 56.5209 127.97C55.9579 127.97 55.2259 128.044 55.7939 128.785C55.9389 128.974 56.2299 128.965 56.3239 129.229C57.7679 133.282 57.6239 144.02 55.9579 146.203H62.3769C59.4289 146.203 59.4919 142.503 59.5219 140.503C59.5339 139.696 59.6219 138.794 60.6109 138.668C61.7669 138.521 62.9569 138.421 63.7939 139.629C64.6889 140.922 65.7679 142.087 66.6519 143.387C67.5243 144.654 68.7682 145.618 70.2119 146.147C71.6556 146.676 73.2279 146.744 74.7119 146.341C71.3029 145.369 69.0419 142.367 67.0049 140.179M62.0049 137.248C61.1629 137.248 60.0959 137.141 59.7049 136.306C59.441 135.514 59.339 134.677 59.4049 133.844C59.3959 133.555 59.3829 133.258 59.3709 132.958C59.2926 131.982 59.36 130.999 59.5709 130.041C59.8069 129.175 60.7849 129.053 61.5889 129.055C62.1681 129.03 62.7458 129.132 63.2816 129.354C63.8174 129.575 64.2984 129.911 64.691 130.338C65.0835 130.764 65.3782 131.271 65.5544 131.824C65.7305 132.376 65.784 132.96 65.7109 133.535C65.5879 135.728 64.8109 137.249 62.0029 137.249" fill="#828587"/>
<path d="M387.621 140.309C386.24 138.864 385.853 137.817 387.365 135.929C390.285 132.28 388.397 128.381 383.719 128.016C381.243 127.822 378.74 127.982 375.954 127.982C378.402 129.871 378.709 143.016 376.636 146.262H382.699C379.519 145.226 380.246 143.081 380.23 141.278C380.222 140.407 379.609 139.089 380.935 138.737C382.261 138.385 383.625 138.412 384.554 139.908C385.382 141.239 386.484 142.397 387.418 143.666C389.092 145.941 391.261 146.815 394.53 146.044C390.993 145.167 389.62 142.403 387.622 140.31M382.715 137.567C378.697 137.658 380.737 134.687 380.074 132.949C380.939 131.769 378.683 129.149 381.998 129.064C384.616 128.999 386.285 130.726 386.232 133.572C386.189 135.842 385.564 137.503 382.716 137.572" fill="#828587"/>
<path d="M46.068 136.774C45.122 136.174 44.646 135.874 45.518 134.609C47.894 131.157 46.418 128.319 42.165 127.994C40.281 127.849 38.382 127.894 36.493 127.878C36.2135 127.847 35.9311 127.897 35.679 128.021C35.432 128.186 35.535 128.25 35.525 128.511C35.508 128.991 35.957 128.758 36.086 129.093C36.724 130.754 36.693 133.756 36.792 136.842C36.833 138.085 36.956 139.228 36.892 140.417C36.9241 141.96 36.8208 143.502 36.583 145.026C36.539 145.189 36.066 145.126 36.017 145.276C35.9661 145.576 35.9597 145.882 35.998 146.183C37.113 146.315 38.298 146.251 39.421 146.283C40.574 146.318 41.728 146.341 42.881 146.308C45.457 146.232 47.486 145.188 48.311 142.594C48.7103 141.517 48.7026 140.331 48.2892 139.259C47.8758 138.187 47.0852 137.303 46.066 136.773M39.091 131.126C39.072 130.532 38.727 128.982 39.679 128.962C40.971 128.936 42.464 128.892 43.473 129.845C43.8129 130.206 44.0782 130.63 44.2538 131.093C44.4294 131.556 44.5116 132.05 44.496 132.545C44.526 134.25 43.865 135.681 41.577 135.769C41.0022 135.836 40.4217 135.706 39.931 135.399C39.706 135.22 39.5518 134.967 39.496 134.685C39.3288 133.917 39.2158 133.139 39.158 132.355C39.126 131.946 39.104 131.535 39.092 131.124M45.063 144.458C44.509 144.936 43.8108 145.215 43.08 145.249C42.1858 145.275 41.2911 145.227 40.405 145.105C40.1724 145.104 39.9467 145.026 39.764 144.882C39.1 144.267 39.422 143.182 39.447 142.399C39.468 141.708 39.462 141.019 39.447 140.33C39.432 139.692 39.41 139.055 39.395 138.418C39.385 138.21 39.3981 138.001 39.434 137.795C39.4708 137.541 39.6049 137.311 39.808 137.153C40.0194 137.017 40.2586 136.93 40.508 136.898C40.7589 136.861 41.0122 136.842 41.266 136.841C42.3342 136.829 43.3733 137.189 44.205 137.86C44.8003 138.366 45.2738 138.999 45.5903 139.713C45.9068 140.427 46.0581 141.203 46.033 141.984C46.0493 142.905 45.7006 143.795 45.063 144.46" fill="#828587"/>
<path d="M29.8561 146.085C29.7241 146.011 29.5741 145.969 29.4461 145.891C29.1911 145.735 28.9461 145.571 28.7021 145.391C28.2269 145.048 27.8154 144.625 27.4861 144.14C26.9885 143.257 26.5791 142.327 26.2641 141.364C24.0521 135.784 21.9051 130.177 19.7331 124.58H19.0141C16.8911 130.387 14.7431 136.18 12.6621 142.006C12.0501 143.719 11.3761 145.326 9.08911 146.248H14.9311C14.7591 146.248 14.3911 145.581 14.3131 145.438C14.1768 145.192 14.0806 144.926 14.0281 144.65C13.9498 144.12 13.9939 143.579 14.1571 143.069C14.4227 141.995 14.7605 140.939 15.1681 139.91C15.3846 139.394 15.6547 138.903 15.9741 138.444C16.1266 138.263 16.323 138.124 16.5445 138.041C16.7659 137.957 17.0051 137.932 17.2391 137.967C18.6521 137.967 20.0591 137.924 21.4731 137.937C21.6429 137.931 21.8127 137.948 21.9781 137.987C22.6491 138.177 22.6611 139.037 22.8491 139.579C23.0871 140.264 23.3341 140.948 23.5651 141.636C24.046 142.915 24.3635 144.249 24.5101 145.607C24.5287 145.955 24.5988 146.297 24.7181 146.624C24.8431 146.839 24.7181 146.624 24.9601 146.692C25.1481 146.684 25.3281 146.664 25.5211 146.664C25.7531 146.664 25.9701 146.687 26.1951 146.697C26.3739 146.667 26.5548 146.652 26.7361 146.651C27.6661 146.686 28.5361 146.637 29.4631 146.639C29.5904 146.641 29.7176 146.631 29.8431 146.609C29.9841 146.583 30.1201 146.565 30.1081 146.395C30.0925 146.327 30.0618 146.264 30.0184 146.209C29.9749 146.155 29.9198 146.111 29.8571 146.081M16.5181 136.712C16.8821 134.086 17.9421 131.772 18.9611 128.86C19.9611 131.76 20.7871 134.132 21.6811 136.712H16.5181Z" fill="#828587"/>
<path d="M441.898 34.4552C440.054 34.4984 438.297 35.2468 436.989 36.5464C435.68 37.846 434.92 39.5978 434.864 41.4412C434.83 42.3811 434.988 43.3181 435.328 44.195C435.668 45.0719 436.183 45.8703 436.842 46.5416C437.5 47.2129 438.289 47.7429 439.159 48.0995C440.03 48.456 440.963 48.6315 441.904 48.6152C442.843 48.6584 443.78 48.5074 444.658 48.1715C445.536 47.8356 446.335 47.3222 447.005 46.6634C447.675 46.0045 448.202 45.2144 448.553 44.3425C448.904 43.4706 449.071 42.5357 449.044 41.5962C449.049 40.6565 448.868 39.7251 448.511 38.8559C448.154 37.9867 447.627 37.1971 446.963 36.5329C446.298 35.8686 445.508 35.3429 444.639 34.9863C443.769 34.6296 442.838 34.4491 441.898 34.4552ZM445.448 45.9892C444.498 46.8947 443.234 47.3963 441.922 47.3885C440.61 47.3807 439.352 46.864 438.413 45.9472C435.861 43.2662 435.68 40.8402 437.813 37.8382C440.421 35.4272 443.896 35.3102 446.064 37.5622C448.488 40.0802 448.255 43.2912 445.451 45.9892" fill="#1685B4"/>
<path d="M438.978 45.5265C440.073 45.5605 440.585 45.0265 440.578 43.9355C440.572 43.2245 440.634 42.5245 441.632 42.5645C442.399 42.5965 442.996 42.9095 443.078 43.7205C443.191 44.8445 443.599 45.5885 444.868 45.5275C445.276 44.0885 444.253 42.6545 444.65 41.3175C445.562 38.2395 443.968 37.6995 441.492 37.8175C440.522 37.8635 439.55 37.8885 438.579 37.9235C438.7 40.4595 438.079 43.0345 438.979 45.5295M440.615 39.9295C440.727 39.1675 441.307 39.0295 441.934 39.1865C442.508 39.3265 443.064 39.5675 443.034 40.3425C442.918 40.6659 442.687 40.9358 442.386 41.1015C442.085 41.2672 441.734 41.3173 441.398 41.2425C440.628 41.1575 440.529 40.5425 440.618 39.9345" fill="#2188B6"/>
<path d="M93.9849 146.137C93.8739 146.074 93.7479 146.037 93.6389 145.974C93.4249 145.842 93.2139 145.704 93.0129 145.553C92.6127 145.264 92.2658 144.908 91.9879 144.499C91.569 143.756 91.2243 142.973 90.9589 142.161C89.0949 137.461 87.2869 132.738 85.4589 128.025H84.8539C83.0659 132.916 81.2539 137.8 79.5029 142.703C79.323 143.496 78.9558 144.234 78.4322 144.855C77.9085 145.477 77.2435 145.964 76.4929 146.275H81.4129C81.2679 146.275 80.9589 145.714 80.8929 145.593C80.7786 145.386 80.6976 145.163 80.6529 144.93C80.5868 144.484 80.6238 144.029 80.7609 143.599C80.985 142.694 81.2693 141.805 81.6119 140.938C81.7947 140.504 82.0226 140.091 82.2919 139.704C82.4205 139.552 82.5859 139.436 82.7723 139.366C82.9588 139.296 83.16 139.275 83.3569 139.304C84.5479 139.304 85.7329 139.268 86.9239 139.279C87.0668 139.275 87.2097 139.289 87.3489 139.321C87.9139 139.482 87.9249 140.206 88.0829 140.662C88.2829 141.24 88.4909 141.815 88.6829 142.395C89.089 143.472 89.3577 144.596 89.4829 145.739C89.4984 146.032 89.5571 146.321 89.6569 146.597C89.7569 146.778 89.6569 146.597 89.8569 146.654C90.0159 146.648 90.1669 146.631 90.3289 146.631C90.5289 146.631 90.7069 146.65 90.8969 146.659C91.0473 146.634 91.1994 146.621 91.3519 146.62C92.1349 146.649 92.8689 146.608 93.6519 146.61C93.7592 146.612 93.8663 146.603 93.9719 146.584C94.0909 146.562 94.2059 146.547 94.1959 146.404C94.1829 146.347 94.1572 146.294 94.1207 146.248C94.0842 146.202 94.0377 146.165 93.9849 146.139M82.7459 138.239C83.2123 135.973 83.9016 133.758 84.8039 131.626C85.6489 134.066 86.3409 136.067 87.0939 138.239H82.7459Z" fill="#828587"/>
<path d="M134.581 146.137C134.469 146.074 134.344 146.037 134.235 145.974C134.02 145.842 133.81 145.704 133.609 145.553C133.209 145.264 132.863 144.908 132.585 144.499C132.166 143.756 131.821 142.973 131.555 142.161C129.691 137.461 127.884 132.738 126.055 128.025H125.45C123.663 132.916 121.85 137.8 120.099 142.703C119.919 143.496 119.552 144.234 119.028 144.855C118.505 145.477 117.84 145.964 117.089 146.275H122.01C121.865 146.275 121.555 145.714 121.489 145.593C121.375 145.386 121.293 145.163 121.249 144.93C121.183 144.484 121.22 144.029 121.357 143.599C121.582 142.694 121.866 141.805 122.209 140.938C122.392 140.504 122.62 140.091 122.889 139.704C123.018 139.552 123.183 139.436 123.369 139.366C123.556 139.296 123.757 139.274 123.954 139.304C125.144 139.304 126.33 139.268 127.52 139.279C127.663 139.274 127.807 139.289 127.946 139.321C128.511 139.482 128.522 140.206 128.68 140.662C128.88 141.24 129.088 141.815 129.28 142.395C129.685 143.472 129.952 144.596 130.075 145.739C130.092 146.032 130.151 146.321 130.251 146.597C130.351 146.778 130.251 146.597 130.451 146.654C130.61 146.648 130.762 146.631 130.924 146.631C131.124 146.631 131.302 146.65 131.491 146.659C131.642 146.634 131.794 146.621 131.947 146.62C132.73 146.649 133.464 146.608 134.247 146.61C134.354 146.612 134.462 146.603 134.567 146.584C134.686 146.562 134.801 146.547 134.791 146.404C134.778 146.347 134.752 146.294 134.716 146.248C134.679 146.202 134.633 146.165 134.58 146.139M123.341 138.239C123.807 135.973 124.497 133.757 125.399 131.626L127.689 138.239H123.341Z" fill="#828587"/>
<path d="M430.362 110.23H0V112.258H430.362V110.23Z" fill="#88868A"/>
</g>
</g>
<defs>
<clipPath id="clip0_316_1765">
<rect width="449.045" height="146.75" fill="white"/>
</clipPath>
</defs>
</svg>
