<svg width="460" height="79" viewBox="0 0 460 79" fill="none" xmlns="http://www.w3.org/2000/svg">
<g clip-path="url(#clip0_316_8253)">
<mask id="mask0_316_8253" style="mask-type:luminance" maskUnits="userSpaceOnUse" x="0" y="0" width="460" height="79">
<path d="M460 0H0V79H460V0Z" fill="white"/>
</mask>
<g mask="url(#mask0_316_8253)">
<path d="M452.366 40.509C448.375 40.509 445.162 37.3215 445.162 33.3543C445.162 29.3906 448.375 26.2031 452.366 26.2031C456.354 26.2031 459.567 29.3906 459.567 33.3543C459.491 37.3215 456.278 40.509 452.366 40.509ZM452.366 26.976C448.839 26.976 446.023 29.9333 446.023 33.3509C446.023 36.851 448.918 39.7293 452.366 39.7293C455.808 39.7293 458.706 36.7788 458.706 33.3509C458.706 29.9333 455.808 26.976 452.366 26.976ZM454.244 37.088L452.29 33.897H450.952V37.088H450.091V29.3906H452.598C453.937 29.3906 455.03 30.3214 455.03 31.6473C455.03 32.8151 454.245 33.5158 453.228 33.8249L455.265 37.0914L454.244 37.088ZM452.522 30.2493H450.952V33.0452H452.522C453.459 33.0452 454.172 32.4991 454.172 31.6438C454.168 30.871 453.456 30.2493 452.522 30.2493Z" fill="black"/>
<path d="M349.32 26.4375C349.081 26.4375 348.998 26.5165 346.812 26.5921C344.54 26.6676 340.386 26.7466 331.767 26.7466H327.779H325.348H321.357C312.817 26.7466 308.598 26.6676 306.318 26.5921C304.126 26.5165 304.053 26.4375 303.814 26.4375C302.794 26.4375 302.794 27.0626 302.794 29.0067V36.5461C302.794 36.9342 302.794 37.9475 303.655 37.9475C304.596 37.9475 304.752 37.6349 306.242 34.602C307.18 32.5033 309.137 29.467 320.423 29.3158C321.588 29.3914 322.062 29.625 322.062 31.4145V69.678C322.062 72.8655 322.062 75.1187 317.915 75.3522C316.189 75.5068 315.013 75.5789 315.013 76.7468C315.013 77.9936 316.11 77.9936 316.732 77.9936C318.306 77.9936 325.033 77.6845 326.448 77.6845C329.19 77.6845 333.493 77.9936 336.239 77.9936C336.855 77.9936 337.961 77.9936 337.961 76.7468C337.961 75.5068 336.786 75.4244 335.06 75.3522C330.906 75.1187 330.906 72.862 330.906 69.5165V32.0362C330.906 29.8551 331.148 29.467 333.569 29.3158C343.907 29.625 345.781 32.5033 346.726 34.5264C348.213 37.5593 348.372 37.8685 349.313 37.8685C350.177 37.8685 350.177 36.8586 350.177 36.4739V28.9243C350.333 27.0626 350.333 26.4375 349.32 26.4375Z" fill="black"/>
<path d="M259.813 64.9306C259.032 64.9306 258.876 65.2398 257.385 68.1181C253.709 75.1148 248.618 75.1148 244.938 75.1148C237.962 75.1148 236.239 74.1839 236.239 68.3448V54.1901C236.239 51.7067 236.865 51.7067 240.86 51.7067C247.67 51.7067 249.942 51.7789 251.741 58.1607C252.132 59.7166 252.678 60.1048 253.304 60.1048C254.331 60.1048 254.331 58.9369 254.331 58.4732C254.331 57.8412 254.086 54.9698 254.086 54.3412C254.086 52.562 254.643 44.0849 254.643 42.9171C254.643 41.9863 254.255 41.7493 253.705 41.7493C253.311 41.7493 252.837 41.9039 252.45 42.9961C250.959 47.3514 250.181 49.1409 241.019 49.1409C236.243 49.1409 236.243 48.5158 236.243 45.8676V33.9764C236.243 29.8546 236.55 29.3085 240.701 29.3085C252.446 29.3085 254.484 32.4239 255.428 34.5981C256.915 37.631 257.071 37.9401 258.008 37.9401C258.869 37.9401 258.869 36.9303 258.869 36.5387V29.0028C258.869 27.1377 258.869 26.4336 257.849 26.4336C257.614 26.4336 257.538 26.5126 255.345 26.5882C253.076 26.6637 248.846 26.7427 240.31 26.7427H236.315C229.27 26.7427 225.742 26.6637 223.861 26.5882C222.062 26.5126 221.983 26.4336 221.824 26.4336C221.277 26.4336 220.181 26.4336 220.181 27.6014C220.181 28.8448 221.357 28.9238 223.159 29.0028C227.305 29.2364 227.305 31.4896 227.305 34.8385V69.6019C227.305 72.944 227.305 75.1972 223.159 75.4308C221.429 75.5853 220.181 75.6643 220.181 76.8322C220.181 78.0721 221.277 78.0721 221.903 78.0721C222.453 78.0721 223.159 78 224.49 77.9175C225.822 77.8351 227.855 77.7561 231.304 77.7561H232.321C232.791 77.7561 236.713 77.8351 241.403 77.9175C246.179 77.9897 251.973 78.0721 256.199 78.0721C258.634 78.0721 259.412 77.1413 259.488 75.5819C259.727 72.549 260.668 67.2629 260.668 66.1775C260.757 65.6279 260.519 64.9306 259.813 64.9306Z" fill="black"/>
<path d="M395.05 64.9306C394.262 64.9306 394.109 65.2398 392.619 68.1181C388.939 75.1148 383.844 75.1148 380.164 75.1148C373.192 75.1148 371.473 74.1839 371.473 68.3448V54.1901C371.473 51.7067 372.102 51.7067 376.09 51.7067C382.903 51.7067 385.179 51.7789 386.974 58.1607C387.362 59.7166 387.915 60.1048 388.538 60.1048C389.558 60.1048 389.558 58.9369 389.558 58.4732C389.558 57.8412 389.323 54.9698 389.323 54.3412C389.323 52.562 389.869 44.0849 389.869 42.9171C389.869 41.9863 389.485 41.7493 388.935 41.7493C388.541 41.7493 388.078 41.9039 387.69 42.9961C386.196 47.3514 385.414 49.1409 376.249 49.1409C371.476 49.1409 371.476 48.5158 371.476 45.8676V33.9764C371.476 29.8546 371.787 29.3085 375.938 29.3085C387.687 29.3085 389.714 32.4239 390.658 34.5981C392.152 37.631 392.301 37.9401 393.241 37.9401C394.103 37.9401 394.103 36.9303 394.103 36.5387V29.0028C394.103 27.1377 394.103 26.4336 393.086 26.4336C392.851 26.4336 392.771 26.5126 390.575 26.5882C388.309 26.6637 384.076 26.7427 375.543 26.7427H371.549C364.5 26.7427 360.979 26.6637 359.091 26.5882C357.292 26.5126 357.213 26.4336 357.064 26.4336C356.511 26.4336 355.407 26.4336 355.407 27.6014C355.407 28.8448 356.587 28.9238 358.385 29.0028C362.532 29.2364 362.532 31.4896 362.532 34.8385V69.6019C362.532 72.944 362.532 75.1972 358.385 75.4308C356.663 75.5853 355.407 75.6643 355.407 76.8322C355.407 78.0721 356.507 78.0721 357.13 78.0721C357.683 78.0721 358.385 78 359.72 77.9175C361.045 77.8385 363.082 77.7561 366.53 77.7561H367.557C368.024 77.7561 371.929 77.8351 376.636 77.9175C381.413 77.9897 387.213 78.0721 391.439 78.0721C393.864 78.0721 394.646 77.1413 394.725 75.5819C394.957 72.549 395.901 67.2629 395.901 66.1775C395.984 65.6279 395.756 64.9306 395.05 64.9306Z" fill="black"/>
<path d="M285.889 46.2627C279.155 43.4702 274.223 41.3647 274.223 35.4534C274.223 32.1903 276.889 27.4469 283.464 27.5225C290.51 27.598 292 32.1903 293.02 35.4534C293.878 38.0226 294.196 38.5653 295.058 38.5653C296.23 38.5653 296.23 37.8646 296.23 36.0751C296.23 28.6869 296.23 27.914 295.206 27.3679C294.037 26.7428 289.029 25.4238 284.173 25.4238C273.445 25.4238 267.492 32.1114 267.492 39.8843C267.492 48.7529 274.143 52.0983 281.036 55.0523C287.141 57.8482 292.865 61.0357 292.865 67.572C292.865 74.342 286.203 76.6673 282.686 76.6673C276.658 76.6673 270.864 71.6148 269.294 64.3021C269.142 63.5224 268.979 62.6706 268.277 62.6706C267.254 62.6706 267.184 63.8384 267.184 64.1407C267.105 67.1805 267.496 70.7561 267.658 71.8415C267.886 73.9333 268.201 75.6507 269.145 76.2758C270.626 77.3612 274.859 78.9927 281.434 78.9927C292.713 78.9927 299.606 71.2232 299.606 61.8909C299.516 52.4075 290.665 48.2892 285.889 46.2627Z" fill="black"/>
<path d="M86.6839 25.4238C70.4767 25.4238 58.1777 37.0128 58.1777 52.0984C58.1777 68.1182 71.8013 78.9996 86.4487 78.9996C100.698 78.9996 114.561 67.5686 114.561 51.3187C114.637 36.8514 102.345 25.4238 86.6839 25.4238ZM87.1508 76.7463C76.0313 76.7463 68.0453 63.9209 68.0453 50.3878C68.0453 38.4863 75.4848 27.7595 85.7432 27.7595C98.8964 27.7595 104.769 41.7597 104.769 51.7102C104.769 63.7594 98.6612 76.7463 87.1508 76.7463Z" fill="black"/>
<path d="M52.9311 6.37109C52.7755 6.37109 52.6959 6.52566 49.4829 6.60466C46.3528 6.68022 40.0892 6.83479 27.638 6.83479H25.0579C13.2328 6.83479 8.84722 6.67679 5.79323 6.60466C2.81534 6.45009 2.6597 6.37109 2.42797 6.37109C1.56677 6.37109 0 6.37109 0 8.00605C0 9.63757 1.80196 9.79557 4.30947 10.0291C10.2583 10.4173 10.2583 13.6047 10.2583 18.5027V50.5424V67.7301C10.2583 71.6938 10.2583 74.4176 5.16722 74.7267C3.05398 74.9603 1.64286 75.0358 1.64286 76.4372C1.64286 77.9142 2.97444 77.9142 3.75609 77.9142C5.71714 77.9142 14.1701 77.5329 15.8925 77.5329C19.2612 77.5329 24.7432 77.9142 28.1084 77.9142C28.8935 77.9142 30.2217 77.9142 30.2217 76.4372C30.2217 74.8813 28.814 74.7988 26.6212 74.7267C21.5301 74.4176 21.5301 71.6938 21.5301 67.5755V50.6145V49.299C21.5301 45.9501 21.5301 44.5556 23.4877 44.085C24.7397 43.7759 30.3012 43.7759 33.8221 43.7759C36.8 43.7759 44.4747 43.7759 46.1176 50.2298C46.3528 50.855 47.1379 53.8844 47.4457 54.7431C47.6809 55.3545 48.1513 56.6804 49.3272 56.6082C50.7349 56.5292 50.7349 55.2068 50.7349 54.3481L50.2645 48.7529C50.0293 46.0291 50.0293 44.0094 50.0293 42.9241C50.0293 41.1311 50.4236 33.0422 50.4236 31.4107C50.4236 30.2428 50.0293 29.4666 49.0159 29.3841C47.9161 29.3086 47.3696 30.315 47.1379 31.3248C45.6472 37.4696 43.9214 40.1144 34.2164 40.1144C32.4179 40.1144 25.2896 40.1144 23.4877 39.8877C21.9244 39.6541 21.6131 39.4996 21.6131 33.1246V16.4797C21.6131 10.881 23.6502 10.6508 27.7176 10.6508C46.3562 10.6508 47.923 13.2166 51.4439 21.1475C51.9143 22.1574 52.3812 23.5587 53.7162 23.5587C55.0478 23.5587 55.0478 21.6937 55.0478 21.3021V8.54875C54.9683 6.99622 54.8161 6.37109 52.9311 6.37109Z" fill="black"/>
<path d="M162.951 75.5033C160.603 75.1941 159.503 73.0886 157.78 70.2103L149.715 56.0693C147.837 52.6414 146.823 52.0987 145.723 51.4735C148.542 50.9308 157.078 48.9112 157.078 39.2629C157.078 36.388 155.823 26.3584 141.182 26.3584C138.675 26.3584 127.714 26.6675 125.442 26.6675C124.425 26.6675 120.354 26.3584 119.566 26.3584C116.826 26.3584 116.512 26.3584 116.512 27.5228C116.512 28.6906 117.688 28.7662 119.49 28.8486C123.557 29.0787 123.557 31.3354 123.557 34.6843V69.6023C123.557 73.0165 123.557 75.1976 119.49 75.5136C117.764 75.5857 116.512 75.6681 116.512 76.836C116.512 78.0759 117.612 78.0038 118.238 78.0038C119.725 78.0038 126.459 77.6947 127.866 77.6947C128.181 77.6947 136.247 78.0038 137.81 78.0038C138.436 78.0038 139.536 78.0759 139.536 76.9115C139.536 75.6716 138.36 75.5891 136.558 75.517C132.411 75.2766 132.411 73.0199 132.411 69.6057V54.8259C132.411 53.4314 132.567 52.9608 133.978 52.9608C137.737 52.9608 138.132 53.2699 139.93 56.8524L149.95 75.5891C150.887 77.2997 151.202 78.0794 152.689 78.0794C153.474 78.0794 162.557 78.0794 163.574 78.0794C164.12 78.0794 164.981 77.9248 164.981 77.0661C165.144 76.1284 164.67 75.8124 162.951 75.5033ZM136.638 50.7763C132.491 50.7763 132.491 50.6148 132.491 47.7434V33.9012C132.491 30.7103 132.567 28.6906 136.406 28.6906C146.661 28.6906 147.837 37.4768 147.837 40.4341C147.837 50.7763 139.615 50.7763 136.638 50.7763Z" fill="black"/>
<path d="M214.944 75.5033C212.599 75.1941 211.499 73.0886 209.773 70.2103L201.708 56.0693C199.83 52.6414 198.816 52.0987 197.72 51.4735C200.535 50.9308 209.071 48.9112 209.071 39.2629C209.071 36.388 207.819 26.3584 193.179 26.3584C190.668 26.3584 179.711 26.6675 177.435 26.6675C176.418 26.6675 172.347 26.3584 171.562 26.3584C168.82 26.3584 168.505 26.3584 168.505 27.5228C168.505 28.6906 169.681 28.7662 171.483 28.8486C175.554 29.0787 175.554 31.3354 175.554 34.6843V69.6023C175.554 73.0165 175.554 75.1976 171.483 75.5136C169.757 75.5857 168.505 75.6681 168.505 76.836C168.505 78.0759 169.605 78.0038 170.234 78.0038C171.721 78.0038 178.452 77.6947 179.86 77.6947C180.174 77.6947 188.243 78.0038 189.807 78.0038C190.44 78.0038 191.529 78.0759 191.529 76.9115C191.529 75.6716 190.353 75.5891 188.555 75.517C184.404 75.2766 184.404 73.0199 184.404 69.6057V54.8259C184.404 53.4314 184.563 52.9608 185.968 52.9608C189.731 52.9608 190.121 53.2699 191.92 56.8524L201.943 75.5891C202.88 77.2997 203.192 78.0794 204.682 78.0794C205.464 78.0794 214.55 78.0794 215.563 78.0794C216.113 78.0794 216.974 77.9248 216.974 77.0661C217.061 76.1284 216.67 75.8124 214.944 75.5033ZM188.634 50.7763C184.48 50.7763 184.48 50.6148 184.48 47.7434V33.9012C184.48 30.7103 184.56 28.6906 188.396 28.6906C198.65 28.6906 199.833 37.4768 199.833 40.4341C199.754 50.7763 191.612 50.7763 188.634 50.7763Z" fill="black"/>
<path d="M447.041 75.5029C444.692 75.1938 443.596 73.0882 441.874 70.2099L433.884 56.141C432.003 52.72 430.986 52.1773 429.896 51.5522C432.708 51.0026 441.251 48.9829 441.251 39.3415C441.251 36.4666 439.996 26.4336 425.348 26.4336C422.841 26.4336 411.88 26.7462 409.611 26.7462C408.591 26.7462 404.517 26.4336 403.739 26.4336C400.996 26.4336 400.685 26.4336 400.685 27.6014C400.685 28.7658 401.857 28.8448 403.656 28.9238C407.726 29.1539 407.726 31.414 407.726 34.7561V69.6741C407.726 73.0882 407.726 75.2693 403.656 75.5785C401.933 75.6643 400.685 75.7399 400.685 76.9077C400.685 78.1477 401.774 78.0756 402.407 78.0756C403.894 78.0756 410.628 77.7596 412.032 77.7596C412.351 77.7596 420.416 78.0756 421.979 78.0756C422.609 78.0756 423.702 78.1477 423.702 76.9902C423.702 75.7433 422.533 75.6678 420.727 75.5819C416.584 75.3552 416.584 73.0917 416.584 69.6775V54.9045C416.584 53.4962 416.733 53.0325 418.144 53.0325C421.907 53.0325 422.298 53.3486 424.1 56.9242L434.119 75.6678C435.057 77.3783 435.371 78.1511 436.859 78.1511C437.651 78.1511 446.73 78.1511 447.743 78.1511C448.289 78.1511 449.151 77.9966 449.151 77.1379C449.237 76.128 448.839 75.812 447.041 75.5029ZM420.731 50.7759C416.587 50.7759 416.587 50.6145 416.587 47.743V33.9008C416.587 30.7099 416.664 28.6902 420.496 28.6902C430.761 28.6902 431.933 37.4764 431.933 40.4338C431.93 50.7759 423.705 50.7759 420.731 50.7759Z" fill="black"/>
</g>
</g>
<defs>
<clipPath id="clip0_316_8253">
<rect width="460" height="79" fill="white"/>
</clipPath>
</defs>
</svg>
