<svg width="395" height="100" viewBox="0 0 395 100" fill="none" xmlns="http://www.w3.org/2000/svg">
<path d="M148.276 53.2781V48.4173H160.682V56.138H155.913C155.967 56.4893 156.104 56.8101 156.115 57.1766C156.36 65.0196 156.474 74.1761 156.115 81.9808C155.829 88.2086 153.79 92.8441 148.46 96.2577C139.032 102.287 123.151 99.7134 119.849 87.8879L120.276 87.632C121.834 88.2582 128.845 86.9791 129.723 87.8344C129.902 88.0062 130.017 88.6095 130.261 88.9188C135.317 95.4062 147.711 91.4008 147.711 83.1149V79.6822C147.711 79.6363 148.074 79.4263 147.803 79.3958H147.52C145.875 82.3932 142.797 84.1497 139.509 84.837C124.961 87.884 113.59 72.3661 119.318 58.9445C124.06 47.8369 140.132 43.0105 148.28 53.2743L148.276 53.2781ZM127.745 60.9797C123.419 68.9792 129.597 78.067 138.635 77.2995C146.581 76.6236 150.781 67.3564 146.745 60.6246C142.514 53.5683 131.64 53.7783 127.745 60.9836V60.9797Z" fill="#1F463D"/>
<path d="M212.78 53.284V48.4232L225.66 48.1368C226.114 48.4117 225.759 48.5453 225.759 48.6141V56.1439H221.845C221.788 56.1439 221.574 55.8804 221.368 55.953V76.7364H225.946V84.5526H212.776V79.7873C212.456 79.9439 212.402 80.4021 212.112 80.7457C206.144 87.8441 195.074 86.5535 188.728 80.8374C181.084 73.9566 180.45 62.177 186.827 54.3378C193.245 46.4452 206.426 43.9595 212.776 53.284H212.78ZM210.993 72.6622C216.492 64.0632 209.252 53.4672 199.267 55.8919C191.5 57.7782 188.553 67.8549 193.883 73.7848C198.431 78.8404 207.289 78.4509 210.993 72.6622Z" fill="#1F463D"/>
<path d="M15.1665 36.6877C15.0939 36.6877 14.9641 37.039 14.6892 36.5885L16.7091 29.6314L5.34178 24.1024C4.63538 26.0841 3.76861 28.0277 3.18821 30.059C0.236606 40.4107 1.71051 51.2358 6.87296 60.6061L5.33796 61.2819C5.3456 61.0948 5.31508 60.9039 5.22344 60.7359C-11.2681 30.6089 13.6124 -4.55457 47.3898 0.485693C60.5632 2.45216 72.2703 11.4101 77.9253 23.3616C83.588 35.3322 82.9465 49.758 76.5087 61.2743L74.989 60.6099C81.3428 49.4411 81.8926 35.7751 76.5125 24.1024L65.1452 29.6276L67.1652 36.5846C66.9055 37.0199 66.7604 36.6839 66.6879 36.6839H58.1958C56.8174 30.6547 52.3002 25.8703 46.4657 23.9038C36.6945 20.6047 25.9954 26.7409 23.6547 36.6839C20.8253 36.7106 17.9921 36.6496 15.1626 36.6839L15.1665 36.6877ZM40.0737 1.60448C33.403 1.96341 26.6636 3.60149 21.0086 7.22513L27.2898 18.0006C31.2304 15.805 35.484 14.2624 40.0737 14.377V1.60448ZM41.7882 1.60448V14.377C46.1755 14.27 50.5056 15.6447 54.2743 17.8059L60.6739 7.03421C55.0342 3.55567 48.3826 1.94813 41.7882 1.60066V1.60448ZM75.7603 22.7659C73.6908 18.6192 70.6934 14.9993 67.3675 11.8034L61.8309 7.70625L55.7253 18.6535C59.1199 21.1126 62.3769 24.2322 64.141 28.0811L75.7603 22.7659ZM19.5729 25.1715C21.379 22.6476 23.4104 20.662 25.9305 18.8368L19.5538 8.08808C13.9637 11.6506 9.23652 16.7329 6.28491 22.6667L17.7439 28.3026C18.015 27.138 18.8856 26.1337 19.5729 25.1753V25.1715Z" fill="#C6A74F"/>
<path d="M173.465 48.3193L179.571 48.1284V55.8492L179.284 56.1356H173.943C173.885 56.1356 173.671 55.8721 173.465 55.9446V76.7281H180.144V84.5443H168.406C168.085 84.5443 166.833 83.8532 166.52 83.5706C165.741 82.8757 165.164 81.6805 165.069 80.6343C165.011 67.102 165.225 53.5391 164.866 40.0335C164.84 39.0331 164.756 37.5248 164.866 36.5855C164.901 36.3067 164.889 36.0967 165.164 35.9287H173.179L173.465 36.2151V48.3232V48.3193Z" fill="#1F463D"/>
<path d="M57.9179 44.8887C58.0744 45.0376 58.1699 45.0376 58.1279 45.282C58.0629 45.6867 57.5284 47.1033 57.3413 47.5501C56.2149 50.2268 54.1949 52.9264 51.8925 54.6904C41.4683 62.6709 26.9355 57.2908 23.667 44.8887H32.9227C36.4051 51.2005 45.5577 51.3417 48.9523 44.8887H57.9217H57.9179Z" fill="#C6A74F"/>
<path d="M58.3945 59.1914C59.1735 59.222 59.7806 59.7603 60.5366 60.0085C64.8743 61.4252 69.3571 60.3255 73.71 61.9101C74.3095 62.1277 77.1733 63.4069 77.074 64.0178L74.6455 67.2596L77.0969 72.4412L73.5115 70.4938C68.5858 68.9092 62.9613 70.4633 58.3945 67.6758V59.1914Z" fill="#C6A74F"/>
<path d="M23.4671 67.6759C22.188 68.7068 20.3743 69.0772 18.782 69.3025C14.9064 69.86 10.7138 69.3216 7.08251 71.1315C6.73122 71.3072 4.90602 72.6665 4.76855 72.5367L7.41089 67.2597L4.77238 64.0522C5.65824 63.0175 6.95649 62.4294 8.2051 61.9598C12.6382 60.2873 17.1249 61.3908 21.642 59.9398C22.1957 59.7604 22.818 59.2907 23.3717 59.1914C23.9253 59.0922 23.4671 59.4435 23.4671 59.4778V67.6759Z" fill="#C6A74F"/>
<path d="M8.39258 40.1227V38.4082H73.3738L73.6296 38.7099V39.821L73.3738 40.1227H8.39258Z" fill="#C6A74F"/>
<path d="M76.5221 89.5078L76.7131 91.0313H5.34375V89.5078H76.5221Z" fill="#C6A74F"/>
<path d="M71.561 41.6484H10.3027V43.3629H71.561V41.6484Z" fill="#C6A74F"/>
<path d="M73.6606 86.2588L73.6186 87.4769L73.3742 87.7823H8.20215L8.39307 86.2588H73.6606Z" fill="#C6A74F"/>
<path d="M43.5074 59.9521V77.8756H38.5473V60.2385C38.5473 60.1965 38.2609 60.0209 38.3564 59.956C40.067 60.0972 41.8121 60.3416 43.5074 59.956V59.9521Z" fill="#C6A74F"/>
<path d="M19.6534 44.8887V58.8067C18.0039 58.9938 16.3582 59.2801 14.6934 59.1885V44.8887H19.6534Z" fill="#C6A74F"/>
<path d="M67.1749 44.8887V58.9021C67.1749 58.9441 67.4613 59.1198 67.3658 59.1847L62.2148 58.8067V45.1751L62.5012 44.8887H67.1749Z" fill="#C6A74F"/>
<path d="M22.1369 79.5908H12.2129V84.5471H22.1369V79.5908Z" fill="#C6A74F"/>
<path d="M69.6505 79.5908V84.5509H59.7266V79.8772L60.0129 79.5908H69.6505Z" fill="#C6A74F"/>
<path d="M45.9869 84.5471H35.872C35.8223 84.4058 36.0629 84.318 36.0629 84.2607V79.5908H45.7005L45.9716 79.9001C45.6547 81.4313 45.7578 83.0197 45.9869 84.5471Z" fill="#C6A74F"/>
<path d="M67.1749 77.6838H62.2148V70.8184C63.0587 70.91 63.9522 71.12 64.7922 71.1964C65.3039 71.246 67.2818 70.9978 67.3238 71.4828C67.3047 71.5706 67.1749 71.6317 67.1749 71.6737V77.68V77.6838Z" fill="#C6A74F"/>
<path d="M19.6534 70.8184V77.6838H14.9797L14.6934 77.3974V71.4866C15.2699 70.952 16.2933 71.2651 17.076 71.2002C17.897 71.1315 18.8363 70.9596 19.6534 70.8222V70.8184Z" fill="#C6A74F"/>
<path d="M318.352 57.2764L320.559 57.452C322.235 59.8309 324.072 62.0952 325.767 64.4587C325.988 64.7642 325.862 65.2033 326.267 65.0926C326.538 65.062 326.175 64.8482 326.175 64.8062V57.2764H328.276V68.9071C327.577 68.8384 326.718 69.1362 326.16 68.636L320.452 60.9V68.9071H318.352V57.2764Z" fill="#1F463D"/>
<path d="M330.95 51.0811C330.61 52.6543 326.578 53.6204 325.173 53.418C317.673 52.3336 318.41 40.699 327.021 41.4703C328.353 41.5887 330.369 42.7685 330.759 44.1202L328.972 44.8534C327.651 43.4749 326.394 42.8984 324.52 43.704C320.022 45.6399 322.435 53.04 327.62 51.1842C329.021 50.684 328.51 50.1189 328.85 48.8856H325.222V46.9802H330.946V51.0811H330.95Z" fill="#1F463D"/>
<path d="M340.97 72.911C344.704 73.438 345.124 79.3526 341.256 79.9674C341.505 80.5401 344.212 84.2669 343.925 84.5418L341.638 84.4463L339.256 80.3454C338.9 80.0247 337.178 80.0285 337.106 80.4371L337.163 84.3662L334.956 84.5456V72.9148C336.823 73.1019 339.16 72.659 340.966 72.9148L340.97 72.911ZM337.247 74.8164V77.9627C337.247 78.0086 337.091 78.0773 337.098 78.1537L337.343 78.44H340.206C341.283 78.44 342.226 76.6416 341.531 75.5915C341.444 75.4617 340.649 74.8202 340.588 74.8202H337.247V74.8164Z" fill="#1F463D"/>
<path d="M381.329 66.9046C378.725 69.8714 373.322 69.8104 371.249 66.2974C368.354 61.3985 372.795 55.6633 378.317 57.3281C379.42 57.6603 380.692 58.7141 381.138 59.7527L379.336 60.5317C376.698 57.015 371.837 59.978 372.666 63.9759C373.318 67.1108 376.656 68.0463 379.145 66.2402L379.225 64.5219H375.598V62.6165H381.035L381.322 62.9029V66.9084L381.329 66.9046Z" fill="#1F463D"/>
<path d="M279.426 51.2693C275.603 55.3893 268.685 53.3999 268.623 47.4241C268.57 42.4602 274.29 39.6347 278.185 42.5939C279.796 43.8196 279.449 44.2511 277.608 44.7055C276.615 43.8425 275.558 43.201 274.168 43.3538C269.574 43.8616 269.555 51.4487 274.744 51.4449C276.589 51.4449 277.677 50.9332 277.322 48.8866H273.885V46.9812H279.418V51.2693H279.426Z" fill="#1F463D"/>
<path d="M314.632 41.6443C314.83 41.6863 315.846 42.3163 316.067 42.4996C317.896 44.0041 317.778 47.2497 315.628 48.3608C315.285 48.5403 314.803 48.4258 314.54 48.7961L317.396 52.9887C317.404 53.3629 315.201 53.3744 314.956 53.2331C314.574 53.0116 312.852 49.2353 312.44 48.9794C312.027 48.7236 311.042 48.968 310.527 48.8878V53.2713H308.427V41.6405C310.221 41.8925 312.963 41.3007 314.628 41.6405L314.632 41.6443ZM310.527 46.9824H314.059C315.346 46.9824 315.529 43.5497 313.677 43.5497H310.527V46.9824Z" fill="#1F463D"/>
<path d="M336.441 57.1363C345.162 56.0404 345.628 68.9618 337.521 69.0992C329.873 69.2291 329.541 58.003 336.441 57.1363ZM336.624 59.0378C332.962 59.6602 332.477 65.8613 336.254 66.9419C342.451 68.7174 342.756 57.9916 336.624 59.0378Z" fill="#1F463D"/>
<path d="M298.264 41.4977C305.943 40.3674 307.951 51.1696 301.139 53.1399C292.563 55.6219 290.616 42.6241 298.264 41.4977ZM298.455 43.4031C294.621 44.1935 294.518 51.3071 299.226 51.5095C304.824 51.7462 304.121 42.2346 298.455 43.4031Z" fill="#1F463D"/>
<path d="M365.975 67.4944C363.902 69.6136 359.476 69.4723 357.479 67.292C354.902 64.4779 355.585 59.1665 359.247 57.6239C365.826 54.8556 370.569 62.8016 365.971 67.4944H365.975ZM364.471 60.0142C363.501 58.9718 361.794 58.7809 360.492 59.2429C357.216 60.4075 357.269 65.8831 360.679 66.9484C364.902 68.2695 367.132 62.8704 364.471 60.0142Z" fill="#1F463D"/>
<path d="M329.887 83.2861C327.031 85.8712 321.91 84.7409 320.551 81.102C319.085 77.1805 321.387 72.9956 325.702 72.7207C331.456 72.3541 334.106 79.4716 329.887 83.2861ZM325.171 74.668C321.41 75.3057 321.154 82.0222 325.4 82.7324C331.197 83.7023 331.315 73.6218 325.171 74.668Z" fill="#1F463D"/>
<path d="M309 72.9131V77.6784C310.886 77.3691 313.036 77.3691 314.915 77.6784V72.9131H317.015V84.2575C316.511 84.7997 315.598 84.456 314.915 84.5439V79.6831L314.628 79.4387C314.552 79.4349 314.483 79.5876 314.437 79.5876H309.286C309.229 79.5876 309.141 79.3471 309 79.3967V84.2575C308.435 84.8188 307.438 84.4446 306.709 84.54C306.613 84.4713 306.9 84.2957 306.9 84.2575V72.9131H309Z" fill="#1F463D"/>
<path d="M306.713 57.2764V62.0417H312.628V57.2764H314.728V68.6208C314.442 69.0637 312.727 69.0217 312.517 68.72C312.403 68.5826 312.628 68.4795 312.628 68.4337V63.7638C310.696 64.0654 308.645 64.0654 306.713 63.7638V68.911H304.613V57.2802H306.713V57.2764Z" fill="#1F463D"/>
<path d="M345.802 41.6698L350.224 53.2662L347.96 53.2395L347.055 50.9638H341.946L341.067 53.1708L338.772 53.2624L343.064 41.8226L345.802 41.666V41.6698ZM346.405 49.0737C345.917 47.6227 345.386 45.7402 344.691 44.4C344.599 44.2205 344.592 43.9456 344.309 43.9265C344.053 45.7135 343.122 47.3554 342.591 49.0737H346.409H346.405Z" fill="#1F463D"/>
<path d="M277.16 84.5129L276.469 82.4357L271.142 82.2371L270.264 84.4442C269.844 84.5931 267.794 84.6733 267.782 84.2494L272.383 72.9318C273.109 72.9967 274.789 72.6034 275.186 73.2258L279.604 84.2494C279.577 84.7 277.553 84.5244 277.152 84.5091L277.16 84.5129ZM275.606 80.3432L273.888 75.1961C273.613 75.2152 273.594 75.4901 273.502 75.6657C272.792 77.048 272.475 78.9037 271.792 80.3432H275.61H275.606Z" fill="#1F463D"/>
<path d="M290.681 41.6435V43.5488H284.766V46.4088H290.681C290.287 47.0923 290.814 47.8865 290.394 48.3142H284.766V51.3651H290.681V53.2704H282.952L282.666 52.984V41.6396H290.681V41.6435Z" fill="#1F463D"/>
<path d="M288.203 57.2764V59.1856H282.475V62.0455H288.203V63.9509H282.475V67.0018H288.203V68.9071H280.379V57.2764H288.203Z" fill="#1F463D"/>
<path d="M292.016 72.9107V81.0133C292.016 81.1928 291.604 82.1359 291.478 82.3841C289.866 85.5381 283.841 85.519 282.436 82.197C282.352 81.9947 281.901 80.536 281.901 80.4444V73.2009L282.218 72.9451C282.39 72.8916 282.573 72.9222 282.749 72.9069C283.223 72.8649 283.895 72.8115 284.189 73.2009V80.8262C284.189 81.4677 285.04 82.3574 285.67 82.5865C288.011 83.438 289.672 82.2543 289.912 79.8716C290.119 77.8364 289.897 75.2552 289.744 73.2162C289.87 72.6778 291.543 72.9947 292.012 72.9146L292.016 72.9107Z" fill="#1F463D"/>
<path d="M301.749 59.9389L299.973 60.4849C296.407 56.4451 291.271 61.3288 293.956 65.5366C295.315 67.6634 298.664 67.7131 299.954 65.487L301.749 66.2354C300.695 68.8701 297.686 69.4657 295.136 68.7402C290.378 67.3923 289.561 60.6453 293.673 58.0679C296.449 56.3305 300.378 56.7734 301.749 59.9389Z" fill="#1F463D"/>
<path d="M367.4 79.6778L363.012 73.1904C362.963 72.8009 363.028 72.9422 363.291 72.9078C363.887 72.8276 364.597 72.9727 365.212 72.8925L365.46 72.9383L368.45 77.6693C368.832 77.6693 370.863 73.5378 371.489 73.0834C372.031 72.6902 373.204 72.9994 373.887 72.9078C373.96 72.9727 373.124 74.4046 373.005 74.5955C372.551 75.3172 369.5 79.3647 369.5 79.674V84.5348H367.4V79.674V79.6778Z" fill="#1F463D"/>
<path d="M387.817 64.0425C387.592 63.1567 384.362 59.2505 383.659 57.9026C383.548 57.6888 383.358 57.5666 383.43 57.2764L385.828 57.452L388.867 62.0379L391.731 57.4673L394.114 57.2764C394.129 57.4253 394.118 57.5704 394.083 57.7193C393.828 58.7655 389.918 63.5309 389.918 64.0464V68.9071H387.817C387.596 67.5898 388.119 65.2186 387.817 64.0464V64.0425Z" fill="#1F463D"/>
<path d="M361.291 72.9131C361.219 73.5393 361.528 74.3679 361.005 74.8185H357.855V84.5439H355.563V75.2958C355.563 75.2385 355.827 75.0247 355.754 74.8185H352.127V72.9131H361.287H361.291Z" fill="#1F463D"/>
<path d="M277.514 57.2764V59.1817H273.886C273.814 59.3879 274.077 59.6018 274.077 59.659V68.6208L273.76 68.8766C273.588 68.9301 273.405 68.8995 273.23 68.9148C272.756 68.9568 272.084 69.0102 271.79 68.6208V59.1817H268.354V57.2764H277.514Z" fill="#1F463D"/>
<path d="M304.043 72.9131V74.8185H300.416L300.584 84.2422C300.454 84.7806 298.785 84.4637 298.315 84.54C298.243 84.3339 298.506 84.1238 298.506 84.0666V74.8185H294.879V72.9131H304.039H304.043Z" fill="#1F463D"/>
<path d="M348.317 57.2764V67.0018H353.468V68.9071H346.503L346.217 68.6208V57.2764H348.317Z" fill="#1F463D"/>
<path d="M336.292 41.6396H334.191V53.2704H336.292V41.6396Z" fill="#1F463D"/>
<path d="M349.272 72.9131H347.172V84.5439H349.272V72.9131Z" fill="#1F463D"/>
<path d="M98.3408 35.9287H97.959V99.2183H98.3408V35.9287Z" fill="#C6A74F"/>
<path d="M248.917 35.9287H248.535V99.2183H248.917V35.9287Z" fill="#C6A74F"/>
</svg>
