<svg width="675" height="147" viewBox="0 0 675 147" fill="none" xmlns="http://www.w3.org/2000/svg">
<path d="M205.674 80.8695C198.524 80.8695 193.137 79.2885 189.624 76.0738C186.11 72.8533 184.295 68.5261 184.295 62.9693V46.9371C184.295 41.3217 185.993 36.9301 189.448 33.6569C192.903 30.3778 198.179 28.7441 205.322 28.7441C212.466 28.7441 217.098 29.9738 220.318 32.4331C223.539 34.8924 225.295 38.9853 225.588 44.6593L216.038 45.3034C215.745 42.1414 214.867 39.8637 213.52 38.4584C212.115 37.053 209.421 36.3504 205.375 36.3504C200.866 36.3504 197.757 37.2873 196.176 39.161C194.595 41.0348 193.775 43.8395 193.775 47.5285V62.2725C193.775 65.9029 194.654 68.6491 196.41 70.4643C198.167 72.2795 201.446 73.2164 206.195 73.2164C210.469 73.2164 213.286 72.2795 214.691 70.3472C216.096 68.4149 216.74 65.5516 216.682 61.5699H204.907V53.9636H226.232V62.6238C226.232 68.1807 224.593 72.5723 221.255 75.904C217.976 79.1831 212.759 80.8753 205.674 80.8753V80.8695Z" fill="black"/>
<path d="M260.276 80.8699C253.009 80.8699 247.739 79.2889 244.46 76.1328C241.24 72.9709 239.6 68.2924 239.6 62.0329V29.3828H249.15V61.3302C249.15 65.3646 249.911 68.2924 251.434 70.1075C252.956 71.9227 255.884 72.8596 260.282 72.8596C264.679 72.8596 267.665 71.9227 269.129 70.1075C270.652 68.2924 271.413 65.3119 271.413 61.3302V29.3828H280.963V61.9743C280.963 68.2338 279.323 72.9767 276.103 76.0743C272.882 79.2948 267.607 80.8699 260.287 80.8699H260.276Z" fill="black"/>
<path d="M297.247 79.9917V29.6172H306.797V79.9917H297.247Z" fill="black"/>
<path d="M531.706 79.9917V29.6172H541.256V79.9917H531.706Z" fill="black"/>
<path d="M323.081 80.2258V29.3828H342.885C349.683 29.3828 354.953 31.0809 358.759 34.4127C362.565 37.8088 364.444 42.2531 364.444 47.8685V61.9685C364.444 67.5253 362.512 71.9169 358.7 75.2486C354.894 78.5277 349.56 80.2199 342.826 80.2199H323.081V80.2258ZM332.573 72.561H342.123C346.808 72.561 350.093 71.5656 351.966 69.6332C353.899 67.7009 354.836 64.8962 354.836 61.3244V48.5126C354.836 44.9408 353.899 42.0775 351.966 40.0866C350.034 38.0372 346.755 37.0418 342.123 37.0418H332.573V72.5551V72.561Z" fill="black"/>
<path d="M378.386 80.2258V29.3828H414.005V36.9891H387.936V49.0396H410.843V56.6458H387.936V72.5024H414.005V80.1087H378.386V80.2258Z" fill="black"/>
<path d="M427.308 80.2258V29.3828H447.17C452.622 29.3828 456.779 30.6125 459.765 33.0718C462.752 35.531 464.215 38.9799 464.215 43.4886V50.0994C464.215 54.4852 462.752 57.8228 459.765 60.2235C456.779 62.6243 452.616 63.7954 447.17 63.7954H436.859V80.2375H427.308V80.2258ZM436.859 56.1188H446.058C449.103 56.1188 451.328 55.5919 452.622 54.4793C453.968 53.4253 454.612 51.6101 454.612 49.0396V44.1269C454.612 41.609 453.968 39.7411 452.622 38.6286C451.275 37.516 449.108 36.9305 446.058 36.9305H436.859V56.1188Z" fill="black"/>
<path d="M496.965 80.8695C490.167 80.8695 485.072 79.347 481.559 76.2495C478.046 73.2047 476.289 68.7604 476.289 62.9693V46.9371C476.289 41.0289 478.046 36.5787 481.559 33.4227C485.072 30.3193 490.231 28.7441 497.023 28.7441C503.816 28.7441 508.916 30.3251 512.429 33.4227C515.884 36.526 517.641 41.0289 517.641 46.9371V62.9108C517.641 68.7018 515.884 73.152 512.371 76.1909C508.857 79.2943 503.757 80.8695 496.965 80.8695ZM496.965 73.2046C501.005 73.2046 503.88 72.3849 505.578 70.6868C507.276 68.9887 508.096 66.184 508.096 62.2608V47.5753C508.096 43.5409 507.276 40.6132 505.578 38.9151C503.88 37.217 501.011 36.3972 496.965 36.3972C492.919 36.3972 490.05 37.2755 488.352 38.9151C486.653 40.6132 485.834 43.4765 485.834 47.5753V62.3194C485.834 66.2367 486.653 69.0473 488.352 70.7454C489.991 72.3849 492.86 73.2046 496.965 73.2046Z" fill="black"/>
<path d="M586.08 80.2258L566.452 39.9109V80.2258H558.014V29.3828H571.195L590.998 70.1661V29.3828H599.377V80.1672L586.08 80.2258Z" fill="black"/>
<path d="M626.031 80.2258V37.0477H610.157V29.4414H651.461V37.0477H635.587V80.2258H626.037H626.031Z" fill="black"/>
<path d="M196.416 130.254C194.191 130.254 192.141 129.903 190.262 129.141C188.388 128.38 186.807 127.209 185.577 125.511L187.802 122.525C188.973 123.872 190.262 124.867 191.726 125.511C193.189 126.097 194.946 126.448 196.995 126.448C198.694 126.448 200.04 126.155 200.919 125.511C201.855 124.867 202.324 123.989 202.324 122.759C202.324 121.646 201.855 120.885 200.86 120.358C199.865 119.89 197.874 119.363 194.823 118.894C191.72 118.426 189.495 117.665 188.201 116.611C186.912 115.557 186.268 113.917 186.268 111.815C186.268 109.532 187.088 107.664 188.786 106.258C190.484 104.794 192.885 104.092 196.053 104.092C198.161 104.092 200.152 104.443 201.914 105.146C203.671 105.848 205.076 106.961 206.071 108.425L204.022 111.294C202.968 110.181 201.738 109.303 200.392 108.776C199.045 108.249 197.581 107.956 196 107.956C194.536 107.956 193.306 108.249 192.487 108.776C191.608 109.303 191.199 110.181 191.199 111.353C191.199 112.524 191.726 113.226 192.721 113.695C193.716 114.163 195.824 114.69 198.934 115.217C201.978 115.744 204.086 116.505 205.38 117.618C206.61 118.672 207.254 120.311 207.254 122.414C207.254 124.931 206.317 126.916 204.385 128.322C202.453 129.551 199.818 130.254 196.416 130.254Z" fill="#7C7C7C"/>
<path d="M228.228 129.961V104.098H246.333V107.956H233.094V114.099H244.752V117.958H233.094V126.032H246.333V129.891L228.228 129.95V129.961Z" fill="#7C7C7C"/>
<path d="M278.38 130.312C274.691 130.312 271.933 129.493 270.118 127.912C268.303 126.331 267.425 124.106 267.425 121.184V113.05C267.425 110.123 268.362 107.845 270.177 106.205C271.992 104.624 274.744 103.805 278.497 103.805C282.011 103.805 284.652 104.507 286.408 105.971C288.165 107.435 289.16 109.719 289.277 112.875L284.417 113.226C284.242 111.118 283.715 109.654 282.836 108.899C281.899 108.138 280.436 107.728 278.445 107.728C276.22 107.728 274.639 108.138 273.702 109.016C272.765 109.894 272.296 111.358 272.296 113.402V120.891C272.296 122.94 272.765 124.346 273.702 125.16C274.639 125.979 276.22 126.448 278.445 126.448C280.553 126.448 282.017 126.038 282.953 125.218C283.832 124.398 284.359 122.993 284.417 121.067L289.277 121.418C289.219 124.463 288.282 126.682 286.525 128.146C284.71 129.551 282.017 130.312 278.38 130.312Z" fill="#7C7C7C"/>
<path d="M320.27 130.313C316.581 130.313 313.882 129.493 312.243 127.912C310.603 126.331 309.783 123.936 309.783 120.715V104.156H314.643V120.423C314.643 122.472 315.053 123.936 315.814 124.867C316.576 125.798 318.098 126.272 320.323 126.272C322.548 126.272 324.071 125.804 324.832 124.867C325.593 123.93 326.003 122.408 326.003 120.423V104.156H330.863V120.715C330.863 123.877 330.043 126.272 328.404 127.912C326.647 129.493 323.953 130.313 320.259 130.313H320.27Z" fill="#7C7C7C"/>
<path d="M357.002 129.961H352.142V104.098H364.62C367.313 104.098 369.304 104.683 370.715 105.913C372.12 107.084 372.823 108.841 372.823 111.118V113.285C372.823 115.217 372.355 116.798 371.359 117.963C370.364 119.129 368.9 119.896 366.968 120.247L373.415 129.961H367.905L361.575 120.481H356.949V129.961H357.008H357.002ZM357.002 116.617H363.8C365.322 116.617 366.435 116.382 367.079 115.855C367.723 115.328 368.016 114.509 368.016 113.279V111.288C368.016 110.117 367.723 109.239 367.079 108.77C366.435 108.302 365.381 108.068 363.8 108.068H357.002V116.611V116.617Z" fill="#7C7C7C"/>
<path d="M397.486 104.098V129.961H392.626V104.098H397.486Z" fill="#7C7C7C"/>
<path d="M425.142 129.961V108.021H417.055V104.162H438.088V108.021H430.002V129.961H425.142Z" fill="#7C7C7C"/>
<path d="M467.435 129.961H462.575V120.247L453.259 104.098H458.471L465.152 116.207L471.774 104.098H476.752L467.435 120.247V129.961Z" fill="#7C7C7C"/>
<path d="M665.854 46.9962C664.671 46.9962 663.57 46.7796 662.54 46.3463C661.509 45.913 660.619 45.2981 659.864 44.5135C659.103 43.7289 658.505 42.8096 658.072 41.7556C657.639 40.7016 657.416 39.5598 657.416 38.3243C657.416 37.0888 657.633 35.947 658.072 34.893C658.505 33.839 659.109 32.9197 659.864 32.1351C660.625 31.3504 661.515 30.7415 662.54 30.3023C663.565 29.869 664.671 29.6465 665.854 29.6465C667.037 29.6465 668.138 29.8631 669.168 30.3023C670.193 30.7356 671.089 31.3504 671.844 32.1351C672.605 32.9197 673.203 33.839 673.636 34.893C674.069 35.947 674.292 37.0888 674.292 38.3243C674.292 39.5598 674.075 40.7074 673.636 41.7556C673.197 42.8096 672.605 43.7289 671.844 44.5135C671.083 45.2981 670.193 45.913 669.168 46.3463C668.144 46.7796 667.037 46.9962 665.854 46.9962ZM665.854 45.1869C666.779 45.1869 667.64 45.0229 668.425 44.7009C669.209 44.3788 669.894 43.928 670.468 43.3541C671.042 42.7803 671.493 42.1128 671.821 41.3516C672.143 40.5962 672.307 39.7647 672.307 38.8688V37.7739C672.307 36.9014 672.143 36.0816 671.821 35.3087C671.499 34.5358 671.048 33.8624 670.468 33.2886C669.894 32.7147 669.209 32.2639 668.425 31.9418C667.64 31.6198 666.779 31.4558 665.854 31.4558C664.929 31.4558 664.068 31.6198 663.284 31.9418C662.493 32.2639 661.814 32.7147 661.24 33.2886C660.666 33.8624 660.215 34.5358 659.893 35.3087C659.571 36.0816 659.407 36.9014 659.407 37.7739V38.8688C659.407 39.7647 659.571 40.5962 659.893 41.3516C660.215 42.1069 660.666 42.7744 661.24 43.3541C661.814 43.928 662.499 44.3788 663.284 44.7009C664.068 45.0229 664.929 45.1869 665.854 45.1869ZM664.589 42.7861H662.44V33.9795H666.446C667.429 33.9795 668.173 34.2372 668.682 34.7583C669.186 35.2794 669.444 35.947 669.444 36.7609C669.444 37.4635 669.297 38.0315 668.999 38.4648C668.706 38.8981 668.313 39.2143 667.839 39.4134L669.824 42.7861H667.464L665.819 39.753H664.595V42.7861H664.589ZM666.194 38.1486C666.896 38.1486 667.248 37.8383 667.248 37.2234V36.5911C667.248 35.9762 666.896 35.6659 666.194 35.6659H664.589V38.1486H666.194Z" fill="black"/>
<path d="M124.089 66.9173C124.341 68.9843 124.487 71.0864 124.487 73.2237C124.487 101.98 101.06 125.378 72.2625 125.378C43.4653 125.378 20.0376 101.98 20.0376 73.2237C20.0376 44.4675 43.4653 21.0691 72.2625 21.0691C81.7191 21.0691 90.5842 23.6045 98.2432 28.0137L117.115 17.5265C104.831 7.63666 89.2316 1.69922 72.2625 1.69922C32.7733 1.69922 0.644348 33.7871 0.644348 73.2237C0.644348 112.66 32.7733 144.748 72.2625 144.748C111.752 144.748 143.881 112.66 143.881 73.2237C143.881 64.136 142.159 55.4524 139.05 47.4479L124.089 66.9173Z" fill="url(#paint0_linear_316_6253)"/>
<path d="M149.619 13.5098L121.905 49.8663L91.6085 90.7433L44.9756 99.5499L149.619 13.5098Z" fill="#0758FB"/>
<path d="M149.619 13.5098L44.9756 99.5499L61.1601 57.4433L149.619 13.5098Z" fill="url(#paint1_linear_316_6253)"/>
<defs>
<linearGradient id="paint0_linear_316_6253" x1="10.2707" y1="109.012" x2="133.516" y2="37.8626" gradientUnits="userSpaceOnUse">
<stop stop-color="#0758FB"/>
<stop offset="1" stop-color="#58C8F8"/>
</linearGradient>
<linearGradient id="paint1_linear_316_6253" x1="38.3883" y1="91.6977" x2="142.159" y2="4.62118" gradientUnits="userSpaceOnUse">
<stop stop-color="#2F8DF8"/>
<stop offset="0.05" stop-color="#3393F8"/>
<stop offset="0.24" stop-color="#43AAF8"/>
<stop offset="0.46" stop-color="#4FBBF8"/>
<stop offset="0.69" stop-color="#55C4F8"/>
<stop offset="0.99" stop-color="#58C8F8"/>
</linearGradient>
</defs>
</svg>
