<svg width="158" height="158" viewBox="0 0 158 158" fill="none" xmlns="http://www.w3.org/2000/svg">
<path fill-rule="evenodd" clip-rule="evenodd" d="M0 0H157.084V157.68H0V0ZM27.2068 93.1996H20.2007V83.3494H11.7812V110.66H20.2007V100.8H27.2068V110.66H35.9094V83.3494H27.2068V93.1996ZM61.713 105.025C62.5506 103.333 62.8336 101.357 62.8336 99.675V95.4491H56.9379V99.391L50.4868 92.3485C49.9318 91.5071 49.3662 90.9396 49.3662 90.0986C49.3662 88.9737 50.2144 88.4061 51.335 88.4061C52.4555 88.4061 53.2936 89.2577 53.2936 90.3822V91.7911H59.7442V90.0986C59.7442 85.8727 56.0999 83.0557 51.0524 83.0557C45.7218 83.0557 42.0775 85.8727 42.0775 90.0986C42.0775 91.2236 42.36 93.1996 44.3186 94.8815C41.7949 96.0064 39.2706 98.5399 39.2706 102.482C39.2706 107.833 43.4806 111.501 51.0524 111.501C53.5761 111.501 56.0999 110.65 57.7856 109.525L58.9062 110.933H66.478L61.713 105.025ZM51.335 105.593C49.3763 105.593 46.8526 104.458 46.8526 101.924C46.8526 100.526 47.6906 99.391 48.8112 98.8341C48.8112 98.8341 53.3033 103.901 54.1413 104.742C53.5761 105.309 52.4555 105.593 51.335 105.593ZM77.4212 103.617H79.945L84.1549 110.66H93.9776L88.6475 101.924C91.4436 100.243 93.4124 97.1416 93.4124 93.1996C93.4124 87.2918 89.7681 83.0658 82.7518 83.0658H69.0119V110.376H77.4212V103.617ZM77.4212 90.0986H81.6312C83.5893 90.0986 84.7201 91.5071 84.7201 93.4832C84.7201 95.4491 83.5893 96.8576 81.6312 96.8576H77.4212V90.0986ZM30.2962 131.495C32.5374 130.36 33.9406 128.11 33.9406 125.293C33.9406 121.077 30.8614 118.26 25.8139 118.26H11.7812V145.57H26.0862C32.2645 145.57 35.6263 142.469 35.6263 137.686C35.6263 134.585 33.6682 132.336 30.2962 131.495ZM19.9181 124.736H23.8451C24.9657 124.736 25.8139 125.577 25.8139 126.702C25.8139 128.11 24.9657 128.961 23.8451 128.961H19.9181V124.736ZM25.5313 139.369H19.9181V134.869H25.5313C26.9344 134.869 27.7725 135.994 27.7725 137.119C27.7725 138.244 26.9344 139.369 25.5313 139.369ZM47.6906 118.25H39.2706V145.57H58.6338V138.527H47.6906V118.25ZM74.0594 117.683C65.6399 117.683 61.1576 122.76 61.1576 130.076V133.45C61.1576 140.777 65.6399 145.844 74.0594 145.844C82.4687 145.844 86.9613 140.777 86.9613 133.45V130.076C86.9613 122.76 82.4687 117.683 74.0594 117.683ZM78.5418 134.302C78.5418 137.393 76.8657 139.085 74.0594 139.085C71.2531 139.085 69.5669 137.393 69.5669 134.302V129.792C69.5669 126.702 71.2531 125.009 74.0594 125.009C76.8657 125.009 78.5418 126.702 78.5418 129.792V134.302ZM102.67 125.009C105.759 125.009 106.879 126.985 106.879 128.951H115.006C114.734 122.76 110.524 117.693 102.952 117.693C94.25 117.693 90.0506 122.76 90.0506 130.076V133.745C90.0506 141.061 94.25 146.128 102.952 146.128C110.524 146.128 115.006 141.061 115.006 134.869H106.879C106.597 136.835 105.759 138.811 102.67 138.811C99.8631 138.811 98.4599 136.835 98.4599 134.018V129.803C98.4599 126.702 99.8631 125.009 102.67 125.009ZM143.899 118.25H134.369L128.756 127.827H128.191V118.25H119.781V145.57H128.191V134.302H128.756L134.369 145.57H144.464L136.61 130.644L143.899 118.25ZM147.544 117.683C146.14 117.683 145.302 118.818 145.302 119.942C145.302 121.067 146.14 122.192 147.544 122.192C148.947 122.192 149.785 121.067 149.785 119.942C150.067 118.818 148.947 117.683 147.544 117.683ZM147.544 121.624C146.423 121.624 145.868 120.784 145.868 119.942C145.868 118.814 146.426 118.25 147.544 118.25C148.664 118.25 149.229 119.091 149.229 119.942C149.512 121.067 148.664 121.624 147.544 121.624ZM147.826 119.091H146.988V121.067H147.544V120.5L147.826 121.067H148.664L148.392 120.5C148.392 120.226 148.664 119.942 148.664 119.659C148.664 119.091 148.392 119.091 147.826 119.091Z" fill="#02AD4E"/>
</svg>
