<svg width="557" height="48" viewBox="0 0 557 48" fill="none" xmlns="http://www.w3.org/2000/svg">
<g clip-path="url(#clip0_316_6261)">
<path d="M550.611 30.87C550.611 32.894 551.807 34.274 554.245 34.274C555.165 34.274 556.039 34.09 556.729 33.952V37.77C556.039 37.954 555.257 38.138 554.061 38.138C549.139 38.138 546.747 35.24 546.747 30.962V18.68H543.021V15H546.747V10.124H550.611V15H556.729V18.68H550.611V30.87ZM539.62 24.522V38H535.664V24.108C535.664 19.968 534.008 18.128 530.236 18.128C526.556 18.128 524.026 20.566 524.026 25.212V38H520.07V15H524.026V18.772C525.498 16.058 528.212 14.54 531.294 14.54C536.584 14.54 539.62 18.174 539.62 24.522ZM505.239 18.128C501.053 18.128 498.937 20.842 498.523 24.844H511.357C511.127 20.566 509.195 18.128 505.239 18.128ZM514.071 37.08C512.185 38.092 509.287 38.46 506.941 38.46C498.339 38.46 494.567 33.492 494.567 26.454C494.567 19.508 498.431 14.54 505.423 14.54C512.507 14.54 515.359 19.462 515.359 26.454V28.248H498.569C499.121 32.158 501.651 34.688 507.079 34.688C509.747 34.688 512.001 34.182 514.071 33.446V37.08ZM474.843 25.212V38H470.887V24.108C470.887 19.968 469.231 18.128 465.459 18.128C461.779 18.128 459.249 20.566 459.249 25.212V38H455.293V15H459.249V18.772C460.721 16.058 463.435 14.54 466.517 14.54C470.427 14.54 473.095 16.518 474.245 20.152C475.533 16.61 478.615 14.54 482.433 14.54C487.585 14.54 490.437 18.036 490.437 24.522V38H486.481V25.212C486.481 20.474 484.825 18.128 481.053 18.128C477.373 18.128 474.843 20.566 474.843 25.212ZM440.462 18.128C436.276 18.128 434.16 20.842 433.746 24.844H446.58C446.35 20.566 444.418 18.128 440.462 18.128ZM449.294 37.08C447.408 38.092 444.51 38.46 442.164 38.46C433.562 38.46 429.79 33.492 429.79 26.454C429.79 19.508 433.654 14.54 440.646 14.54C447.73 14.54 450.582 19.462 450.582 26.454V28.248H433.792C434.344 32.158 436.874 34.688 442.302 34.688C444.97 34.688 447.224 34.182 449.294 33.446V37.08ZM421.336 36.16V33.86C419.864 36.896 417.104 38.46 413.562 38.46C407.49 38.46 404.454 33.262 404.454 26.5C404.454 20.014 407.628 14.54 414.022 14.54C417.38 14.54 419.956 16.058 421.336 19.048V15H425.2V35.93C425.2 42.692 422.026 47.246 413.792 47.246C409.928 47.246 407.812 46.74 405.604 46.004V42.14C408.134 42.968 410.756 43.52 413.608 43.52C419.358 43.52 421.336 40.438 421.336 36.16ZM408.318 26.5C408.318 32.02 410.526 34.78 414.62 34.78C418.162 34.78 421.336 32.526 421.336 27.42V25.58C421.336 20.474 418.438 18.22 415.08 18.22C410.618 18.22 408.318 21.164 408.318 26.5ZM382.894 26.5C382.894 32.02 385.102 34.78 389.196 34.78C392.738 34.78 395.912 32.526 395.912 27.42V25.58C395.912 20.474 393.014 18.22 389.656 18.22C385.194 18.22 382.894 21.164 382.894 26.5ZM395.912 38V33.86C394.44 36.896 391.68 38.46 388.138 38.46C382.02 38.46 378.938 33.262 378.938 26.5C378.938 20.014 382.158 14.54 388.598 14.54C391.956 14.54 394.532 16.058 395.912 19.048V15H399.868V38H395.912ZM374.802 24.522V38H370.846V24.108C370.846 19.968 369.19 18.128 365.418 18.128C361.738 18.128 359.208 20.566 359.208 25.212V38H355.252V15H359.208V18.772C360.68 16.058 363.394 14.54 366.476 14.54C371.766 14.54 374.802 18.174 374.802 24.522ZM332.312 26.5C332.312 32.02 334.52 34.78 338.614 34.78C342.156 34.78 345.33 32.526 345.33 27.42V25.58C345.33 20.474 342.432 18.22 339.074 18.22C334.612 18.22 332.312 21.164 332.312 26.5ZM345.33 38V33.86C343.858 36.896 341.098 38.46 337.556 38.46C331.438 38.46 328.356 33.262 328.356 26.5C328.356 20.014 331.576 14.54 338.016 14.54C341.374 14.54 343.95 16.058 345.33 19.048V15H349.286V38H345.33ZM298.162 21.4858L294.022 10.2618V37.9998H289.882V7.77783H297.058L303.912 25.1198L306.718 33.4458L309.524 25.1198L316.424 7.77783H323.094V37.9998H318.954V10.5838L315.412 21.4858L308.742 37.9998H304.74L298.162 21.4858ZM265.895 18.128C261.709 18.128 259.593 20.842 259.179 24.844H272.013C271.783 20.566 269.851 18.128 265.895 18.128ZM274.727 37.08C272.841 38.092 269.943 38.46 267.597 38.46C258.995 38.46 255.223 33.492 255.223 26.454C255.223 19.508 259.087 14.54 266.079 14.54C273.163 14.54 276.015 19.462 276.015 26.454V28.248H259.225C259.777 32.158 262.307 34.688 267.735 34.688C270.403 34.688 272.657 34.182 274.727 33.446V37.08ZM252.087 33.86V37.402C250.707 38.138 248.591 38.46 246.475 38.46C238.287 38.46 234.469 33.492 234.469 26.454C234.469 19.508 238.287 14.54 246.475 14.54C248.545 14.54 250.155 14.816 251.949 15.644V19.324C250.477 18.634 248.913 18.22 246.751 18.22C240.771 18.22 238.333 21.992 238.333 26.454C238.333 30.916 240.817 34.688 246.843 34.688C249.189 34.688 250.661 34.366 252.087 33.86ZM225.186 8.92797C225.186 7.17997 226.336 6.16797 227.946 6.16797C229.556 6.16797 230.706 7.17997 230.706 8.92797C230.706 10.676 229.556 11.688 227.946 11.688C226.336 11.688 225.186 10.676 225.186 8.92797ZM225.922 38V15H229.878V38H225.922ZM213.571 38H208.281L199.357 15H203.497L210.949 34.642L218.355 15H222.495L213.571 38ZM190.389 24.4301V38.0001H186.525V15.0001H190.389V19.0481C191.723 16.3341 194.023 14.4021 198.531 14.6781V18.5421C193.471 18.0361 190.389 19.5541 190.389 24.4301ZM171.694 18.128C167.508 18.128 165.392 20.842 164.978 24.844H177.812C177.582 20.566 175.65 18.128 171.694 18.128ZM180.526 37.08C178.64 38.092 175.742 38.46 173.396 38.46C164.794 38.46 161.022 33.492 161.022 26.454C161.022 19.508 164.886 14.54 171.878 14.54C178.962 14.54 181.814 19.462 181.814 26.454V28.248H165.024C165.576 32.158 168.106 34.688 173.534 34.688C176.202 34.688 178.456 34.182 180.526 33.446V37.08ZM157.536 29.6739C157.536 34.9179 154.408 38.4599 146.91 38.4599C141.068 38.4599 138.354 37.3099 136.008 36.1139V31.8819C138.814 33.3539 143.138 34.4119 147.14 34.4119C151.694 34.4119 153.396 32.6179 153.396 29.9499C153.396 27.2819 151.74 25.8559 145.99 24.4759C139.182 22.8199 136.146 20.4739 136.146 15.5059C136.146 10.8139 139.734 7.31787 146.772 7.31787C151.142 7.31787 153.948 8.37587 156.018 9.52587V13.6659C152.982 11.9179 149.716 11.3659 146.588 11.3659C142.632 11.3659 140.286 12.7459 140.286 15.5059C140.286 17.9899 142.218 19.2319 147.554 20.5659C153.948 22.1759 157.536 24.2459 157.536 29.6739ZM106.535 26.5C106.535 32.02 108.743 34.78 112.837 34.78C116.379 34.78 119.553 32.526 119.553 27.42V25.58C119.553 20.474 116.655 18.22 113.297 18.22C108.835 18.22 106.535 21.164 106.535 26.5ZM119.553 38V33.86C118.081 36.896 115.321 38.46 111.779 38.46C105.661 38.46 102.579 33.262 102.579 26.5C102.579 20.014 105.799 14.54 112.239 14.54C115.597 14.54 118.173 16.058 119.553 19.048V15H123.509V38H119.553ZM92.8638 24.4301V38.0001H88.9998V15.0001H92.8638V19.0481C94.1978 16.3341 96.4978 14.4021 101.006 14.6781V18.5421C95.9458 18.0361 92.8638 19.5541 92.8638 24.4301ZM78.3359 8.92797C78.3359 7.17997 79.4859 6.16797 81.0959 6.16797C82.7059 6.16797 83.8559 7.17997 83.8559 8.92797C83.8559 10.676 82.7059 11.688 81.0959 11.688C79.4859 11.688 78.3359 10.676 78.3359 8.92797ZM79.0719 38V15H83.0279V38H79.0719ZM69.43 29.0758V7.77783H73.57V28.7998C73.57 34.3658 71.132 38.1838 65.428 38.1838C63.266 38.1838 61.61 37.8158 60.46 37.4018V33.3998C61.702 33.9058 63.22 34.1818 64.738 34.1818C68.234 34.1818 69.43 32.0658 69.43 29.0758Z" fill="#101214"/>
<path d="M0 12C0 5.37258 5.37258 0 12 0H36C42.6274 0 48 5.37258 48 12V36C48 42.6274 42.6274 48 36 48H12C5.37258 48 0 42.6274 0 36V12Z" fill="#FFC716"/>
<path d="M27.4014 20.4062H36.328C37.6686 20.4062 38.1264 21.6814 37.3089 22.695L23.3468 39.927C18.8344 36.3302 19.2595 30.6407 22.562 26.488L27.4014 20.4062ZM20.502 27.2728H11.5754C10.2348 27.2728 9.77703 25.9976 10.5945 24.9839L24.5566 7.75195C29.069 11.3488 28.5785 16.9729 25.3087 21.1582L20.502 27.2728Z" fill="#101214"/>
</g>
<defs>
<clipPath id="clip0_316_6261">
<rect width="557" height="48" fill="white"/>
</clipPath>
</defs>
</svg>
