<svg width="413" height="145" viewBox="0 0 413 145" fill="none" xmlns="http://www.w3.org/2000/svg">
<path d="M205.747 80.177H232.164C232.164 68.9321 226.019 64.6295 219.653 64.6295C211.193 64.6295 206.667 72.1714 205.747 80.177ZM220.697 116.385C204.357 116.385 194.385 102.45 194.385 88.6463C194.385 76.0042 203.308 60.4629 221.049 60.4629C230.879 60.4629 242.822 67.3001 242.822 84.4673H205.271V87.719C205.271 99.4337 211.539 109.646 223.815 109.646C231.929 109.646 240.173 103.032 242.371 97.5977C242.025 107.099 233.084 116.385 220.697 116.385Z" fill="#003D88"/>
<path d="M323.847 109.876C318.407 109.876 315.029 106.389 315.029 100.238C315.029 94.3343 319.216 91.5462 324.644 89.4691C330.096 87.7196 333.344 86.9098 337.055 85.0614V103.836C333.807 107.205 329.522 109.876 323.847 109.876ZM346.695 109.381V107.557H346.676V107.205V76.1162C346.676 62.4294 335.197 60.4512 328.478 60.4512C319.086 60.4512 314.455 63.4865 310.163 66.2498L310.41 80.6413C313.183 72.2772 317.234 64.8589 327.076 64.8589C334.388 64.8589 337.055 70.0764 337.055 74.954C337.055 75.5351 337.055 79.3555 336.586 79.8191C332.992 83.6457 319.086 85.2839 312.948 89.1044C306.921 92.7084 305.186 97.8147 305.186 102.235C305.186 107.205 308.774 116.385 319.086 116.385C326.885 116.385 332.9 112.231 336.58 108.522C336.58 108.509 336.586 108.497 336.605 108.485V109.381C336.605 111.928 335.339 114.296 333.492 115.334C333.492 115.334 337.84 114.574 341.495 114.574C345.157 114.574 349.936 115.334 349.936 115.334C348.09 114.296 346.695 111.928 346.695 109.381Z" fill="#003D88"/>
<path d="M262.521 109.382V107.558V80.7165V78.3921V72.816V68.3217C262.521 64.0314 263.676 61.3609 265.405 60.4212C265.405 60.4212 261.145 60.0441 257.489 63.3514C253.852 60.0441 249.554 60.4212 249.554 60.4212C249.566 60.4336 249.585 60.4397 249.597 60.4521H249.554C251.289 61.3856 252.444 64.0747 252.444 68.3526V72.816V80.7597V107.558V109.382C252.444 111.929 251.178 114.297 249.319 115.335C249.319 115.335 253.66 114.6 257.347 114.6C260.984 114.6 265.77 115.335 265.77 115.335C263.911 114.297 262.521 111.929 262.521 109.382Z" fill="#003D88"/>
<path d="M261.174 43.1147C259.81 44.2955 258.612 45.538 257.957 46.8115C254.857 36.8895 236.474 31.3011 245.638 20.4023C226.798 38.4783 254.771 42.9849 257.957 58.8106C258.235 54.7553 260.464 51.8127 263.218 49.1174C263.552 46.7806 262.619 44.9013 261.174 43.1147Z" fill="#917D49"/>
<path d="M274.236 27.6066C271.846 17.7093 253.79 9.22152 258.854 4.15234C246.331 11.7623 261.972 21.4061 269.117 29.3128C271.432 32.4346 270.228 35.0619 267.857 37.4791C262.762 27.8167 246.318 20.7199 253.031 13.2336C240.458 24.2374 252.728 31.0622 260.342 38.7958C261.274 39.754 262.133 40.7122 262.88 41.7013C264.17 43.4323 265.09 45.2127 265.337 47.1229C265.486 48.3098 265.362 49.5338 264.948 50.8073C264.677 51.611 264.3 52.4579 263.757 53.3172C267.548 49.7193 269.147 46.4367 269.302 43.4075C273.044 39.5871 275.86 35.0372 274.236 27.6066Z" fill="#917D49"/>
<path d="M92.3139 109.381V107.557H92.2706V80.7588V72.8397V68.9142C92.2706 64.0614 92.5238 61.2425 95.3026 60.4512C94.4875 60.4512 90.0908 60.7912 87.238 61.3352C84.3913 60.7912 80.2417 60.4512 79.4328 60.4512C82.193 61.2425 82.4215 64.0614 82.4215 68.9142V78.762V80.7588V103.607C79.0808 106.859 75.8265 109.523 70.1455 109.523C63.5383 109.523 58.2154 104.417 58.2154 94.5754V80.7588V75.0776V68.9142C58.2154 64.0614 58.4562 61.2425 61.2411 60.4512C60.3952 60.4512 55.9986 60.7912 53.158 61.3352C50.3175 60.7912 45.9271 60.4512 45.1182 60.4512C47.8907 61.2425 48.1192 64.0614 48.1192 68.9142V80.7588H48.1316V94.5754C48.1316 111.854 58.907 116.385 65.7489 116.385C73.727 116.385 78.8708 112.348 82.3535 108.608V109.381C82.3535 111.928 80.9456 114.296 79.1055 115.334C79.1055 115.334 83.4404 114.599 87.096 114.599C90.7701 114.599 95.5434 115.334 95.5434 115.334C93.7032 114.296 92.3139 111.928 92.3139 109.381Z" fill="#003D88"/>
<path d="M186.272 109.381V107.557V76.3449C186.272 65.44 176.997 60.4512 169.124 60.4512C161.702 60.4512 154.397 65.9098 150.803 70.6637C148.487 64.0491 141.54 60.4512 135.044 60.4512C127.159 60.4512 120.909 66.2498 118.112 68.4568L118.013 68.568C118.013 63.944 118.316 61.2177 121.021 60.4512C120.187 60.4512 115.803 60.7912 112.956 61.3352C110.116 60.7912 105.978 60.4512 105.151 60.4512C107.923 61.2425 108.17 64.0614 108.17 68.9142V74.4841V80.7588V107.557V109.381C108.17 111.928 106.756 114.296 104.922 115.334C104.922 115.334 109.263 114.599 112.931 114.599C116.593 114.599 121.366 115.334 121.366 115.334C119.514 114.296 118.112 111.928 118.112 109.381V107.557V72.9881C120.335 70.3175 124.491 67.0596 129.826 67.0596C139.101 67.0596 141.88 72.747 141.88 79.3679V107.557V109.381C141.88 111.928 140.614 114.296 138.755 115.334C138.755 115.334 143.109 114.599 146.77 114.599C150.426 114.599 155.199 115.334 155.199 115.334C153.353 114.296 151.97 111.928 151.97 109.381V107.557V76.11C151.97 75.5351 151.97 74.954 151.748 74.3729C154.631 70.3175 159.627 67.0596 164.264 67.0596C173.163 67.0596 176.417 72.9881 176.417 79.8315V107.557V109.381C176.417 111.928 174.922 114.296 173.039 115.334C173.039 115.334 177.411 114.599 181.06 114.599C184.741 114.599 189.52 115.334 189.52 115.334C187.661 114.296 186.272 111.928 186.272 109.381Z" fill="#003D88"/>
<path d="M299.596 60.4551C295.558 60.4551 289.531 66.5072 287.085 70.6614C287.085 70.6614 287.011 70.7727 286.857 70.9458V68.8934C286.857 64.0777 287.086 61.2464 289.87 60.4551C289.049 60.4551 284.671 60.8074 281.824 61.3267C278.965 60.8074 274.828 60.4551 273.994 60.4551C276.773 61.2464 277.02 64.0777 277.02 68.8934V80.7565V107.561V109.397C277.02 111.932 275.748 114.293 273.883 115.32C273.883 115.32 278.237 114.572 281.905 114.572C285.554 114.572 290.346 115.32 290.346 115.32C288.487 114.293 287.085 111.932 287.085 109.397V107.561V74.9579C289.29 72.1636 292.779 68.6894 297.175 68.6894C300.189 68.6894 302.27 70.0803 304.011 72.2811V61.37C302.622 60.8198 302.4 60.4551 299.596 60.4551Z" fill="#003D88"/>
<path d="M405.657 109.382V108.535V107.558V76.5744C405.657 65.9106 397.321 60.452 388.286 60.452C380.617 60.452 373.324 66.4917 370.768 68.6987V56.7428V44.8921C370.768 40.0516 371.009 37.2389 373.8 36.4414C372.966 36.4414 368.582 36.769 365.735 37.3192C362.889 36.769 358.523 36.4414 357.683 36.4414C360.474 37.2389 360.696 40.0516 360.696 44.8921V48.3416V56.7428V107.558V109.382C360.696 111.929 359.406 114.297 357.56 115.335C357.56 115.335 361.907 114.599 365.587 114.599C369.237 114.599 374.035 115.335 374.035 115.335C372.176 114.297 370.768 111.929 370.768 109.382V107.558V73.3227C372.979 70.3183 378.203 67.3016 383.421 67.3016C392.912 67.3016 395.808 73.57 395.808 80.4134V107.558V108.535V109.382C395.808 111.929 394.301 114.297 392.448 115.335C392.448 115.335 396.802 114.599 400.47 114.599C404.119 114.599 408.917 115.335 408.917 115.335C407.052 114.297 405.657 111.929 405.657 109.382Z" fill="#003D88"/>
<path d="M30.0181 37.3196C27.1652 36.7694 22.1943 36.4355 21.3607 36.4355C24.1518 37.233 24.3741 40.0458 24.3741 44.8924V56.7555V102.452C24.3741 132.731 7.68304 138.295 4.08301 140.397C32.1423 136.1 35.5015 107.435 35.5015 101.414V56.7555V44.8924C35.5015 40.0458 35.73 37.233 38.5149 36.4355C37.6875 36.4355 32.8586 36.7694 30.0181 37.3196Z" fill="#003D88"/>
</svg>
