<svg width="191" height="160" viewBox="0 0 191 160" fill="none" xmlns="http://www.w3.org/2000/svg">
<g clip-path="url(#clip0_316_6268)">
<path fill-rule="evenodd" clip-rule="evenodd" d="M37.8274 30.1478C38.7548 24.9635 40.1031 19.6111 42.1932 14.7664C43.0599 12.7535 44.4401 10.4724 45.6991 8.68825C47.183 6.5859 49.6794 3.49317 52.4971 3.48246C53.4778 3.47886 54.4018 3.76849 55.1649 4.39776C57.6366 6.43573 57.1766 11.0552 56.6594 13.8833C55.5431 20.0116 54.7513 26.2364 54.3946 32.4575C54.0878 37.86 54.0915 43.3983 54.7121 48.7792C55.3468 54.2853 57.2336 64.3144 63.1152 66.7385C65.0981 67.5539 67.5307 67.1997 69.535 66.6493C71.1791 66.1987 72.8521 65.5443 74.4249 64.8865C76.483 64.0285 78.5195 63.0773 80.5024 62.055C84.6753 59.9023 90.596 55.6154 95.4183 58.147C98.3108 59.6665 98.086 62.8806 97.0374 65.5302C96.2386 67.5573 94.762 69.488 93.3674 71.1434C91.7411 73.0707 89.9754 74.8942 88.2526 76.7353C87.3362 77.7185 86.4231 78.7092 85.5458 79.7281C83.7159 81.8482 81.5119 84.9981 82.5317 87.9621C84.04 92.3538 89.749 94.5528 93.2246 96.9757C96.217 99.0567 101.257 102.75 100.989 106.876C100.943 107.591 100.743 108.271 100.404 108.9C99.0989 111.345 96.4062 112.128 93.8167 112.275C90.7707 112.447 87.5679 111.842 84.572 111.328C81.6365 110.824 77.8488 110.119 74.9136 110.745C74.3785 110.859 73.8115 111.052 73.3975 111.424C72.1958 112.511 72.3777 115.357 72.5096 116.78C72.7701 119.548 72.9448 122.869 72.3671 125.604C71.9638 127.517 71.0686 129.49 69.1 130.195C66.5319 131.114 63.7821 129.258 61.9131 127.671C59.2917 125.443 56.8914 122.519 54.8261 119.773C45.9452 107.967 40.8593 92.8285 38.2698 78.398C35.4944 62.9314 35.0551 45.6928 37.8274 30.1478ZM125.16 111.066H107.431V39.7405C113.202 41.9073 119.129 43.5843 125.16 44.8214V111.066ZM149.999 49.7016V91.3659C153.094 90.8906 156.101 90.1896 158.894 89.1957C175.258 83.3749 177.594 63.0522 162.328 54.3032C158.648 52.1937 154.414 50.7136 149.999 49.7016ZM131.181 29.6115C148.237 29.6401 161.687 32.9509 171.459 38.5535C200.346 55.1113 196.376 95.8604 165.036 107.009C156.051 110.205 144.749 111.56 131.181 110.941V29.6115ZM68.843 159.685C48.1386 148.876 31.0045 136.434 20.597 120.745C9.03039 103.318 3.48425 72.3126 3.13115 29.6187C12.1262 27.545 23.8106 23.6013 35.1562 18.7995C33.7099 23.4816 32.7402 28.308 32.0567 33.1582C26.2965 35.3716 20.6291 37.3095 15.3933 38.8791C16.0531 62.6984 18.9279 96.3395 30.6692 114.038C39.6322 127.549 54.4979 137.946 68.8467 145.927C82.265 138.462 95.454 129.519 104.823 117.127C122.372 117.127 145.726 118.646 162.075 114.238C153.437 122.898 138.382 124.553 126.808 124.671C122.642 124.653 118.473 124.657 114.307 124.657C103.761 138.526 87.7961 149.792 68.8395 159.689L68.843 159.685ZM61.6849 5.21652C64.1591 3.60339 66.5854 1.91004 68.843 0C80.6699 10.0183 105.868 21.2022 125.16 27.0766V39.5047C123.263 39.0435 121.422 38.5607 119.636 38.0638C103.004 32.8329 82.8101 24.2055 68.8395 15.0239C66.4001 16.6256 63.7715 18.2131 61.0035 19.7684C61.6676 15.3759 62.8966 10.9023 61.9952 6.45361C61.9213 6.0774 61.6849 5.58988 61.6849 5.21652ZM67.7552 34.3346C73.7579 31.0989 81.2408 33.3514 84.4721 39.3654C87.7034 45.3825 85.4565 52.8838 79.4538 56.1233C73.4511 59.3625 65.9683 57.1099 62.7369 51.0925C59.5056 45.0751 61.7562 37.5741 67.7552 34.3346Z" fill="black"/>
</g>
<defs>
<clipPath id="clip0_316_6268">
<rect width="191" height="159.689" fill="white"/>
</clipPath>
</defs>
</svg>
