<svg width="301" height="73" viewBox="0 0 301 73" fill="none" xmlns="http://www.w3.org/2000/svg">
<g clip-path="url(#clip0_316_1683)">
<path d="M272.151 59.4586C265.175 59.4586 259.739 53.7375 259.739 46.7904C259.739 39.8436 265.175 34.1222 272.151 34.1222C279.127 34.1222 284.563 39.8436 284.563 46.7904C284.563 53.7375 279.127 59.4586 272.151 59.4586ZM268.663 72.842C274.613 72.842 282.204 70.5945 286.41 61.8084L286.82 62.0127C284.974 66.8143 284.974 69.675 284.974 70.3902V71.514H299.951V22.0672H284.974V23.1909C284.974 23.9061 284.974 26.7666 286.82 31.5683L286.41 31.7726C282.204 22.9866 274.613 20.739 268.663 20.739C254.404 20.739 244.351 31.9769 244.351 46.7904C244.351 61.6041 254.404 72.842 268.663 72.842ZM218.295 20.739C211.525 20.739 206.191 23.0888 201.882 31.7726L201.472 31.5683C203.318 26.7666 203.318 23.9061 203.318 23.1909V22.0672H188.341V71.514H203.729V45.4623C203.729 38.6175 207.729 34.3268 214.192 34.3268C220.655 34.3268 223.835 38.0047 223.835 45.3604V71.514H239.222V40.0479C239.222 28.8099 230.4 20.739 218.295 20.739ZM166.081 31.7726L165.67 31.5683C167.517 26.7666 167.517 23.9061 167.517 23.1909V22.0672H152.54V71.514H167.927L168.03 47.7099C168.03 40.763 171.723 36.5743 177.775 36.5743C179.417 36.5743 180.75 36.7786 182.289 37.1872V22.0672C175.518 20.6369 169.466 23.1909 166.081 31.7726ZM117.149 59.4586C110.174 59.4586 104.737 53.7375 104.737 46.7904C104.737 39.8436 110.174 34.1222 117.149 34.1222C124.125 34.1222 129.562 39.8436 129.562 46.7904C129.562 53.7375 124.125 59.4586 117.149 59.4586ZM113.661 72.842C119.611 72.842 127.202 70.5945 131.408 61.8084L131.818 62.0127C129.972 66.8143 129.972 69.675 129.972 70.3902V71.514H144.949V22.0672H129.972V23.1909C129.972 23.9061 129.972 26.7666 131.818 31.5683L131.408 31.7726C127.202 22.9866 119.611 20.739 113.661 20.739C99.4024 20.739 89.3494 31.9769 89.3494 46.7904C89.3494 61.6041 99.4024 72.842 113.661 72.842ZM67.9096 71.514H83.297V0H67.9096V71.514ZM56.6254 0H40.9304C40.9304 12.7703 33.0315 24.2125 21.0294 32.3856L16.3106 35.6548V0H0V71.514H16.3106V36.0634L43.2898 71.514H63.1908L37.2373 37.5957C49.0342 29.1164 56.7279 15.9374 56.6254 0Z" fill="#FFA8CD"/>
</g>
<defs>
<clipPath id="clip0_316_1683">
<rect width="301" height="72.7692" fill="white"/>
</clipPath>
</defs>
</svg>
