<svg width="301" height="67" viewBox="0 0 301 67" fill="none" xmlns="http://www.w3.org/2000/svg">
<path fill-rule="evenodd" clip-rule="evenodd" d="M116.454 9.81445H73.6144L71.1602 19.1187H85.7812L76.1703 53.9836H89.8703L99.3789 19.1187H113.897L116.454 9.81445Z" fill="#06673D"/>
<path fill-rule="evenodd" clip-rule="evenodd" d="M197.429 9.81564H184.649L178.31 34.4559L145.388 8.38477L133.732 53.9848H146.513L152.749 29.3445L185.773 55.4156L197.429 9.81564Z" fill="#06673D"/>
<path fill-rule="evenodd" clip-rule="evenodd" d="M205.71 9.81445H219.411L207.346 53.9836H193.646L205.71 9.81445Z" fill="#06673D"/>
<path fill-rule="evenodd" clip-rule="evenodd" d="M248.039 53.9836L230.658 31.8988L259.49 9.81445H242.722L214.095 31.7969L213.788 32.0012H213.89L214.913 33.3305L231.272 53.9836H248.039Z" fill="#06673D"/>
<path fill-rule="evenodd" clip-rule="evenodd" d="M282.699 15.1312L279.427 7.76953L278.2 8.99686L268.794 18.1981H268.896L232.6 53.9832H247.937L273.701 28.5246L277.893 37.3176L269.407 37.6242L260.002 46.9281L282.188 46.6215L285.562 53.9832H301L282.699 15.1312Z" fill="#06673D"/>
<path fill-rule="evenodd" clip-rule="evenodd" d="M120.134 22.084H133.835L125.042 53.984H111.444L120.134 22.084Z" fill="#06673D"/>
<path fill-rule="evenodd" clip-rule="evenodd" d="M123.508 9.81445H137.209L134.652 19.0164H120.952L123.508 9.81445Z" fill="#06673D"/>
<path fill-rule="evenodd" clip-rule="evenodd" d="M0 33.3309L0.101965 31.593L0.204303 29.9567L0.409359 28.3207L0.715628 26.6852L1.12423 25.0496L1.53359 23.4133L2.04492 21.8797L2.65858 20.3461L3.37421 18.9148L4.08984 17.4832L4.9078 16.052L5.7254 14.7227L6.6457 13.3934L7.66835 12.1668L8.69062 10.9399L9.81486 9.81486L10.9398 8.69062L12.1668 7.66836L13.3934 6.6457L14.7227 5.7254L16.052 4.90781L17.4832 4.08984L18.9148 3.37422L20.3461 2.65859L21.8797 2.04492L23.4133 1.5336L25.0496 1.12424L26.6852 0.715631L28.3207 0.409365L29.9566 0.204303L31.593 0.101962L33.3309 0L35.0688 0.101962L36.8074 0.204303L38.443 0.409365L40.0785 0.715631L41.7148 1.12424L43.2484 1.5336L44.782 2.04492L46.3156 2.65859L47.7469 3.37422L49.1781 4.08984L50.6098 4.90781L51.9391 5.7254L53.2676 6.6457L54.4949 7.66836L55.7219 8.69062L56.9488 9.81486L57.9711 10.9399L59.0953 12.1668L60.016 13.3934L60.9359 14.7227L61.8563 16.052L62.6742 17.4832L63.3902 18.9148L64.0031 20.3461L64.6168 21.8797L65.1281 23.4133L65.6394 25.0496L65.9461 26.6852L66.2524 28.3207L66.4574 29.9567L66.6617 31.593V33.3309V35.0688L66.4574 36.8074L66.2524 38.443L65.9461 40.0785L65.6394 41.7148L65.1281 43.2484L64.6168 44.782L64.0031 46.3156L63.3902 47.7469L62.6742 49.2805L61.8563 50.6098L60.9359 51.939L60.016 53.2683L59.0953 54.4949L57.9711 55.7219L56.9488 56.9488L55.7219 57.9711L54.4949 59.0953L53.2676 60.016L51.9391 60.9363L50.6098 61.8563L49.1781 62.6738L47.7469 63.3902L46.3156 64.0031L44.782 64.6168L43.2484 65.1281L41.7148 65.6394L40.0785 65.9461L38.443 66.2527L36.8074 66.4574L35.0688 66.6617H33.3309H31.593L29.9566 66.4574L28.3207 66.2527L26.6852 65.9461L25.0496 65.6394L23.4133 65.1281L21.8797 64.6168L20.3461 64.0031L18.9148 63.3902L17.4832 62.6738L16.052 61.8563L14.7227 60.9363L13.3934 60.016L12.1668 59.0953L10.9398 57.9711L9.81486 56.9488L8.69062 55.7219L7.66835 54.4949L6.6457 53.2683L5.7254 51.939L4.9078 50.6098L4.08984 49.2805L3.37421 47.7469L2.65858 46.3156L2.04492 44.782L1.53359 43.2484L1.12423 41.7148L0.715628 40.0785L0.409359 38.443L0.204303 36.8074L0.101965 35.0688L0 33.3309Z" fill="#06673D"/>
<path fill-rule="evenodd" clip-rule="evenodd" d="M6.8501 33.3305L6.95281 32.0012L7.05478 30.6726L7.15712 29.3433L7.36142 28.0141L7.66844 26.6848L8.07705 25.4578L8.48641 24.2309L8.99773 23.0043L9.50868 21.8793L10.02 20.7547L10.7356 19.6301L11.3489 18.5051L12.8825 16.4605L14.6208 14.6203L16.461 12.882L18.5056 11.3481L19.6306 10.7352L20.7552 10.0195L21.8798 9.5082L23.0048 8.99725L24.2317 8.48592L25.4583 8.07657L26.6852 7.66796L28.0145 7.46328L29.3438 7.15663L30.6731 7.05429L32.0017 6.95233L33.331 6.84961L34.7626 6.95233L36.0915 7.05429L37.4208 7.15663L38.6474 7.46328L39.9767 7.66796L41.2036 8.07657L42.4306 8.48592L43.6571 8.99725L44.7821 9.5082L46.0091 10.0195L47.0313 10.7352L48.1556 11.3481L50.2005 12.882L52.0411 14.6203L53.779 16.4605L55.3126 18.5051L56.0286 19.6301L56.6419 20.7547L57.2556 21.8793L57.7669 23.0043L58.1755 24.2309L58.6868 25.4578L58.9938 26.6848L59.3005 28.0141L59.5048 29.3433L59.7091 30.6726L59.8118 32.0012V33.3305V34.7621L59.7091 36.091L59.5048 37.4203L59.3005 38.6469L58.9938 39.9762L58.6868 41.2031L58.1755 42.4301L57.7669 43.6566L57.2556 44.884L56.6419 46.0086L56.0286 47.1332L55.3126 48.1558L53.779 50.2004L52.0411 52.0406L50.2005 53.7789L48.1556 55.3125L47.0313 56.0281L46.0091 56.6414L44.7821 57.2551L43.6571 57.7664L42.4306 58.175L41.2036 58.6863L39.9767 58.993L38.6474 59.3L37.4208 59.5043L36.0915 59.7086L34.7626 59.8113H33.331H32.0017L30.6731 59.7086L29.3438 59.5043L28.0145 59.3L26.6852 58.993L25.4583 58.6863L24.2317 58.175L23.0048 57.7664L21.8798 57.2551L20.7552 56.6414L19.6306 56.0281L18.5056 55.3125L16.461 53.7789L14.6208 52.0406L12.8825 50.2004L11.3489 48.1558L10.7356 47.1332L10.02 46.0086L9.50868 44.884L8.99773 43.6566L8.48641 42.4301L8.07705 41.2031L7.66844 39.9762L7.36142 38.6469L7.15712 37.4203L7.05478 36.091L6.95281 34.7621L6.8501 33.3305Z" fill="#F9E629"/>
<path fill-rule="evenodd" clip-rule="evenodd" d="M12.5757 33.3312L12.7804 31.1844L13.087 29.1395L13.598 27.1969L14.2116 25.2543L15.1319 23.5164L16.1538 21.7777L17.3811 20.1422L18.7104 18.7109L20.1417 17.3816L21.7773 16.1543L23.5159 15.1324L25.2538 14.2117L27.1964 13.5984L29.139 13.0875L31.1839 12.7809L33.3308 12.5762L35.4776 12.7809L37.5226 13.0875L39.5675 13.5984L41.4077 14.2117L43.2483 15.1324L44.9862 16.1543L46.5198 17.3816L48.0534 18.7109L49.3827 20.1422L50.5073 21.7777L51.5296 23.5164L52.4503 25.2543L53.1655 27.1969L53.6769 29.1395L53.9839 31.1844L54.0858 33.3312L53.9839 35.4781L53.6769 37.523L53.1655 39.568L52.4503 41.4082L51.5296 43.2488L50.5073 44.9867L49.3827 46.5203L48.0534 48.0539L46.5198 49.3832L44.9862 50.5078L43.2483 51.5301L41.4077 52.4508L39.5675 53.166L37.5226 53.6773L35.4776 53.9844L33.3308 54.0863L31.1839 53.9844L29.139 53.6773L27.1964 53.166L25.2538 52.4508L23.5159 51.5301L21.7773 50.5078L20.1417 49.3832L18.7104 48.0539L17.3811 46.5203L16.1538 44.9867L15.1319 43.2488L14.2116 41.4082L13.598 39.568L13.087 37.523L12.7804 35.4781L12.5757 33.3312Z" fill="#EC2029"/>
<path fill-rule="evenodd" clip-rule="evenodd" d="M18.8125 33.3309L18.9148 31.8992L19.1191 30.468L19.4262 29.0367L19.9375 27.7074L20.5504 26.3781L21.266 25.2539L22.0844 24.1289L23.1066 23.1066L24.1289 22.084L25.2539 21.266L26.3781 20.5504L27.7074 19.9375L29.0367 19.4262L30.468 19.1191L31.8992 18.9148L33.3309 18.8125L34.8645 18.9148L36.2957 19.1191L37.7273 19.4262L39.0563 19.9375L40.2836 20.5504L41.5102 21.266L42.6348 22.084L43.657 23.1066L44.577 24.1289L45.3957 25.2539L46.1109 26.3781L46.7246 27.7074L47.2356 29.0367L47.6445 30.468L47.8492 31.8992L47.9512 33.3309L47.8492 34.8645L47.6445 36.2957L47.2356 37.7273L46.7246 39.0562L46.1109 40.2836L45.3957 41.5102L44.577 42.6348L43.657 43.657L42.6348 44.5777L41.5102 45.3957L40.2836 46.1113L39.0563 46.7242L37.7273 47.2356L36.2957 47.6449L34.8645 47.8492L33.3309 47.9512L31.8992 47.8492L30.468 47.6449L29.0367 47.2356L27.7074 46.7242L26.3781 46.1113L25.2539 45.3957L24.1289 44.5777L23.1066 43.657L22.0844 42.6348L21.266 41.5102L20.5504 40.2836L19.9375 39.0562L19.4262 37.7273L19.1191 36.2957L18.9148 34.8645L18.8125 33.3309Z" fill="#F9E629"/>
<path fill-rule="evenodd" clip-rule="evenodd" d="M24.0269 33.3313L24.1288 32.4106L24.2315 31.4906L24.4358 30.5707L24.8444 29.7527L25.1515 28.9348L25.6624 28.1172L26.1737 27.4012L26.7874 26.7879L27.4007 26.1742L28.1167 25.6629L28.9343 25.1519L29.7523 24.8449L30.5702 24.4363L31.4902 24.2316L32.4105 24.1293L33.3308 24.0273L34.353 24.1293L35.2733 24.2316L36.0913 24.4363L37.0112 24.8449L37.8292 25.1519L38.5448 25.6629L39.2608 26.1742L39.8741 26.7879L40.4878 27.4012L41.1011 28.1172L41.5101 28.9348L41.919 29.7527L42.2257 30.5707L42.4304 31.4906L42.6347 32.4106V33.3313V34.3535L42.4304 35.2738L42.2257 36.0918L41.919 37.0117L41.5101 37.8297L41.1011 38.5453L40.4878 39.2613L39.8741 39.8746L39.2608 40.4883L38.5448 41.1016L37.8292 41.5106L37.0112 41.9195L36.0913 42.2262L35.2733 42.4309L34.353 42.6352H33.3308H32.4105L31.4902 42.4309L30.5702 42.2262L29.7523 41.9195L28.9343 41.5106L28.1167 41.1016L27.4007 40.4883L26.7874 39.8746L26.1737 39.2613L25.6624 38.5453L25.1515 37.8297L24.8444 37.0117L24.4358 36.0918L24.2315 35.2738L24.1288 34.3535L24.0269 33.3313Z" fill="#06673D"/>
<path fill-rule="evenodd" clip-rule="evenodd" d="M33.3308 33.2285L56.8461 9.81445H73.6144L33.3308 33.2285Z" fill="#231F20"/>
</svg>
