<svg width="78" height="19" viewBox="0 0 78 19" fill="none" xmlns="http://www.w3.org/2000/svg">
<g clip-path="url(#clip0_3303_26608)">
<path d="M17.9785 10.5119H23.8322V7.0909H17.9496V3.42344H24.9548L25.5707 0.00195312H13.7402V18.3922H25.7882V14.806H17.9785V10.5114V10.5119Z" fill="#047766"/>
<path d="M75.3192 14.4092C74.8949 13.782 74.4666 13.1784 74.0467 12.6139C73.6205 12.0411 73.2652 11.5688 72.981 11.1969C72.8537 10.9901 72.7096 10.8039 72.5464 10.6349C73.6038 10.4345 74.5735 9.89699 75.3133 9.08658C76.1992 8.08752 76.6612 6.80036 76.6069 5.47546C76.6426 3.87276 75.9233 2.31758 74.6759 1.31068C74.0384 0.806988 73.2819 0.453716 72.4876 0.288595C71.5557 0.0984848 70.6008 0 69.6478 0H63.2051V18.3883H67.3326V10.9421C67.5644 10.9651 67.7883 11.0401 67.9848 11.1597C68.2376 11.3311 68.4674 11.5296 68.6556 11.7427C68.9584 12.119 69.2597 12.5306 69.5478 12.9672C69.905 13.5003 70.4253 14.294 71.1358 15.3916L72.9791 18.3843H78.0008L75.3197 14.4052V14.4097L75.3192 14.4092ZM67.3316 3.32301H68.8697C69.2812 3.32301 69.6928 3.34408 70.1299 3.38768C70.5037 3.41904 70.8761 3.51949 71.2333 3.6802C71.5449 3.8267 71.8061 4.05405 71.9835 4.3299C72.1986 4.69347 72.301 5.10749 72.2804 5.52544L72.2721 5.77435H72.2868C72.2721 6.13987 72.1696 6.49118 71.9942 6.79644C71.8041 7.08699 71.5386 7.31679 71.2274 7.45496C70.8575 7.61812 70.4729 7.70975 70.0716 7.73082C69.635 7.76413 69.1749 7.78079 68.707 7.78079H67.3321V3.31909V3.3235L67.3316 3.32301Z" fill="#047766"/>
<path d="M4.2422 0.00195312H0V18.3922H10.8167L11.6276 14.8707H4.24416V0.00195312H4.2422Z" fill="#047766"/>
<path d="M52.5066 10.5119H58.4583V7.0909H52.4733V3.42344H59.6058L60.2345 0.00195312H48.1973V18.3922H60.4584V14.8041H52.511V10.5095L52.5066 10.5114V10.5119Z" fill="#047766"/>
<path d="M37.8434 9.456C37.67 9.88865 37.5196 10.3169 37.3858 10.7706C37.254 11.2096 37.1286 11.6609 37.0012 12.1543C36.9487 12.3635 36.8988 12.5556 36.8571 12.733C36.813 12.5551 36.765 12.3527 36.7047 12.1249C36.5979 11.7069 36.473 11.2557 36.3201 10.7412C36.1633 10.2145 36.0276 9.7882 35.9002 9.43738L32.5478 0.00390625H27.9043L34.9741 18.3941H38.6666L45.8726 0.00390625H41.4609L37.8434 9.456Z" fill="#047766"/>
</g>
<defs>
<clipPath id="clip0_3303_26608">
<rect width="78" height="18.3946" fill="white"/>
</clipPath>
</defs>
</svg>
