<svg width="370" height="85" viewBox="0 0 370 85" fill="none" xmlns="http://www.w3.org/2000/svg">
<g clip-path="url(#clip0_316_1688)">
<path fill-rule="evenodd" clip-rule="evenodd" d="M43.8742 46.0454H26.0851C24.1083 46.0454 23.4691 44.834 23.4691 43.1802C23.4691 41.8403 23.4588 1.05469 23.4588 1.05469H17.2061V48.9259C17.2061 50.9346 18.9484 52.2617 20.2319 52.2617H43.8742V46.0454Z" fill="#E10198"/>
<path fill-rule="evenodd" clip-rule="evenodd" d="M43.8739 54.6336V60.8628H12.2907C10.1283 60.8628 8.63086 59.2502 8.63086 57.1644C8.65148 54.7159 8.63086 1.05273 8.63086 1.05273H14.8578V50.7629C14.8578 52.9439 15.8089 54.6336 18.4764 54.6336H43.8739Z" fill="#E10198"/>
<path fill-rule="evenodd" clip-rule="evenodd" d="M-0.000488281 1.05273H6.26254V58.9159C6.26254 61.012 7.31153 63.2264 10.376 63.2264H43.8742V69.4402H7.4404C3.28309 69.4402 -0.000488281 66.0041 -0.000488281 61.9045V1.05273Z" fill="#E10198"/>
<path fill-rule="evenodd" clip-rule="evenodd" d="M25.8022 1.05273H32.0627V35.0304C32.0627 36.265 32.6246 37.4455 34.4055 37.4455H43.8748V43.6798H28.9827C26.6914 43.6798 25.8022 42.2292 25.8022 40.5729V1.05273Z" fill="#E10198"/>
<path fill-rule="evenodd" clip-rule="evenodd" d="M34.4342 24.4488H52.2207C54.2001 24.4488 54.8393 25.6627 54.8393 27.3165C54.8393 28.6513 54.847 69.4369 54.847 69.4369H61.0998V21.5682C61.0998 19.5621 59.3575 18.2324 58.0739 18.2324H34.4316L34.4342 24.4488Z" fill="#E10198"/>
<path fill-rule="evenodd" clip-rule="evenodd" d="M34.4302 15.862V9.63281H66.0159C68.1758 9.63281 69.6758 11.2454 69.6758 13.3312C69.6526 15.7771 69.6758 69.4403 69.6758 69.4403H63.4489V19.7328C63.4489 17.5492 62.4952 15.862 59.8328 15.862H34.4302Z" fill="#E10198"/>
<path fill-rule="evenodd" clip-rule="evenodd" d="M78.3049 69.4402H72.0444V11.577C72.0444 9.4835 70.9928 7.26908 67.9283 7.26908H34.4302V1.05273H70.8691C75.0239 1.05273 78.3049 4.49397 78.3049 8.59105V69.4402Z" fill="#E10198"/>
<path fill-rule="evenodd" clip-rule="evenodd" d="M52.5062 69.4415H46.2431V35.469C46.2431 34.2319 45.6787 33.0514 43.9029 33.0514H34.4336V26.8145H49.3205C51.6118 26.8145 52.5062 28.2702 52.5062 29.9239V69.4415Z" fill="#E10198"/>
<path fill-rule="evenodd" clip-rule="evenodd" d="M221.962 39.8755C221.962 37.7408 223.578 36.0253 225.707 36.0253H231.303V29.7344H224.671C219.627 29.7344 215.643 33.8134 215.643 38.8364V69.4372H221.967L221.962 39.8755Z" fill="#E10198"/>
<path fill-rule="evenodd" clip-rule="evenodd" d="M123.665 69.4325H129.984V29.6191H123.665V69.4325Z" fill="#E10198"/>
<path fill-rule="evenodd" clip-rule="evenodd" d="M251.524 33.9933C259.679 33.9933 266.303 40.616 266.303 48.7459C266.303 56.8783 259.679 63.501 251.524 63.501C243.374 63.501 236.751 56.8783 236.751 48.7459C236.751 40.616 243.374 33.9933 251.524 33.9933ZM287.427 33.9933C295.582 33.9933 302.213 40.616 302.213 48.7459C302.213 56.8783 295.582 63.501 287.427 63.501C279.277 63.501 272.643 56.8783 272.643 48.7459C272.643 40.616 279.277 33.9933 287.427 33.9933ZM323.335 33.9933C331.485 33.9933 338.111 40.616 338.111 48.7459C338.111 56.8783 331.485 63.501 323.335 63.501C315.178 63.501 308.554 56.8783 308.554 48.7459C308.554 40.616 315.178 33.9933 323.335 33.9933ZM230.428 84.7014H236.805V63.8122C240.601 67.5107 245.792 69.792 251.524 69.792C259.112 69.792 265.764 65.7926 269.475 59.7949C273.189 65.7926 279.844 69.792 287.427 69.792C295.007 69.792 301.675 65.7926 305.378 59.7949C309.092 65.7926 315.739 69.792 323.335 69.792C334.982 69.792 344.42 60.371 344.42 48.7459C344.42 37.1208 334.982 27.6973 323.335 27.6973C315.739 27.6973 309.092 31.6992 305.378 37.7021C301.675 31.6992 295.007 27.6973 287.427 27.6973C279.844 27.6973 273.189 31.7018 269.475 37.7021C265.764 31.7018 259.112 27.6973 251.524 27.6973C239.877 27.6973 230.428 37.1208 230.428 48.7459V84.7014Z" fill="#E10198"/>
<path fill-rule="evenodd" clip-rule="evenodd" d="M191.439 33.7736C197.805 33.7736 203.584 37.8115 205.697 44.1153H177.158C179.269 37.8115 185.071 33.7736 191.439 33.7736ZM191.439 69.5722C201.138 69.5722 209.424 63.0524 211.705 53.6777H205.592C203.486 59.6858 197.823 63.7237 191.439 63.7237C183.679 63.7237 177.228 57.8906 176.47 49.9716H212.303V48.7448C212.303 37.2612 202.94 27.9199 191.439 27.9199C179.929 27.9199 170.562 37.2612 170.562 48.7448C170.562 60.2259 179.929 69.5722 191.439 69.5722Z" fill="#E10198"/>
<path fill-rule="evenodd" clip-rule="evenodd" d="M156.636 69.4345L172.464 29.6211H165.249L152.512 61.6647L139.775 29.6211H132.568L148.391 69.4345H156.636Z" fill="#E10198"/>
<path fill-rule="evenodd" clip-rule="evenodd" d="M347.549 69.4327H353.876V15.9727H347.549V69.4327Z" fill="#E10198"/>
<path fill-rule="evenodd" clip-rule="evenodd" d="M101.927 15.9785V59.4183C101.947 61.5787 103.197 63.2659 105.669 63.2659H121.203V69.4308L99.7979 69.4282C97.0968 69.4282 95.5298 67.7822 95.5298 65.4006V15.9785H101.927Z" fill="#E10198"/>
<path fill-rule="evenodd" clip-rule="evenodd" d="M365.266 19.883C365.828 19.883 366.193 19.6696 366.193 19.2066C366.193 18.7977 365.861 18.5405 365.395 18.5405H364.224V19.883H365.266ZM363.5 17.9335H365.472C366.585 17.9335 366.954 18.6228 366.954 19.0986C366.954 19.8264 366.443 20.346 365.691 20.3871V20.418C366.072 20.5466 366.351 20.9324 366.719 21.5265L367.266 22.3958H366.392L365.99 21.6988C365.423 20.6983 365.211 20.5003 364.665 20.5003H364.224V22.3958H363.5V17.9335ZM365.322 16.6347C363.407 16.6347 361.863 18.1778 361.863 20.0965C361.863 22.01 363.407 23.5686 365.322 23.5686C367.24 23.5686 368.804 22.01 368.804 20.0965C368.804 18.1778 367.24 16.6347 365.322 16.6347ZM365.322 24.2604C363.026 24.2604 361.165 22.3958 361.165 20.0965C361.165 17.7946 363.026 15.9531 365.322 15.9531C367.629 15.9531 369.495 17.7946 369.495 20.0965C369.495 22.3958 367.629 24.2604 365.322 24.2604Z" fill="#E10198"/>
<path fill-rule="evenodd" clip-rule="evenodd" d="M123.657 22.362H129.985V15.9785H123.657V22.362Z" fill="#E10198"/>
</g>
<defs>
<clipPath id="clip0_316_1688">
<rect width="369.621" height="85" fill="white"/>
</clipPath>
</defs>
</svg>
