<svg width="258" height="201" viewBox="0 0 258 201" fill="none" xmlns="http://www.w3.org/2000/svg">
<g clip-path="url(#clip0_316_1692)">
<path d="M46.7612 199.93V186.632C46.7612 181.546 43.6627 178.215 38.3436 178.215C35.6841 178.215 32.7922 179.093 30.804 181.985C29.2548 179.558 27.0342 178.215 23.7033 178.215C21.4827 178.215 19.2622 178.886 17.5064 181.313V178.654H12.8586V199.93H17.5064V188.182C17.5064 184.412 19.4946 182.63 22.593 182.63C25.6915 182.63 27.2407 184.618 27.2407 188.182V199.93H31.8885V188.182C31.8885 184.412 34.109 182.63 36.9751 182.63C40.0736 182.63 41.6229 184.618 41.6229 188.182V199.93H46.7612ZM115.702 178.654H108.163V172.225H103.515V178.654H99.3062V182.863H103.515V192.623C103.515 197.503 105.503 200.369 110.822 200.369C112.81 200.369 115.031 199.698 116.58 198.82L115.238 194.818C113.895 195.695 112.346 195.928 111.235 195.928C109.015 195.928 108.137 194.585 108.137 192.39V182.863H115.677V178.654H115.702ZM155.156 178.189C152.497 178.189 150.715 179.532 149.605 181.288V178.628H144.957V199.904H149.605V187.923C149.605 184.386 151.154 182.372 154.046 182.372C154.924 182.372 156.034 182.604 156.938 182.811L158.281 178.37C157.351 178.189 156.034 178.189 155.156 178.189ZM95.5364 180.41C93.3158 178.86 90.2173 178.189 86.8865 178.189C81.5674 178.189 78.03 180.849 78.03 185.057C78.03 188.595 80.6895 190.609 85.3372 191.254L87.5578 191.487C89.985 191.926 91.3276 192.597 91.3276 193.707C91.3276 195.257 89.546 196.367 86.4475 196.367C83.349 196.367 80.8961 195.257 79.3468 194.146L77.1263 197.684C79.5534 199.465 82.8843 200.343 86.2151 200.343C92.4121 200.343 95.9753 197.451 95.9753 193.475C95.9753 189.705 93.0834 187.717 88.6681 187.046L86.4475 186.813C84.4593 186.581 82.9101 186.142 82.9101 184.825C82.9101 183.276 84.4593 182.398 86.9123 182.398C89.5718 182.398 92.2313 183.508 93.574 184.179L95.5364 180.41ZM219.192 178.189C216.532 178.189 214.75 179.532 213.64 181.288V178.628H208.992V199.904H213.64V187.923C213.64 184.386 215.189 182.372 218.081 182.372C218.959 182.372 220.069 182.604 220.973 182.811L222.316 178.421C221.412 178.189 220.095 178.189 219.192 178.189ZM159.804 189.292C159.804 195.721 164.245 200.369 171.113 200.369C174.212 200.369 176.433 199.698 178.653 197.942L176.433 194.172C174.651 195.515 172.895 196.16 170.881 196.16C167.111 196.16 164.452 193.501 164.452 189.292C164.452 185.29 167.111 182.63 170.881 182.424C172.869 182.424 174.651 183.095 176.433 184.412L178.653 180.642C176.433 178.86 174.212 178.215 171.113 178.215C164.245 178.189 159.804 182.863 159.804 189.292ZM202.795 189.292V178.654H198.148V181.313C196.598 179.325 194.378 178.215 191.486 178.215C185.496 178.215 180.848 182.863 180.848 189.292C180.848 195.721 185.496 200.369 191.486 200.369C194.584 200.369 196.805 199.259 198.148 197.271V199.93H202.795V189.292ZM185.728 189.292C185.728 185.522 188.155 182.424 192.157 182.424C195.927 182.424 198.587 185.316 198.587 189.292C198.587 193.062 195.927 196.16 192.157 196.16C188.181 195.928 185.728 193.036 185.728 189.292ZM130.11 178.189C123.913 178.189 119.472 182.63 119.472 189.266C119.472 195.928 123.913 200.343 130.343 200.343C133.441 200.343 136.54 199.465 138.993 197.451L136.772 194.12C134.99 195.463 132.77 196.341 130.575 196.341C127.683 196.341 124.817 194.998 124.146 191.254H139.87C139.87 190.583 139.87 190.144 139.87 189.473C140.077 182.63 136.075 178.189 130.11 178.189ZM130.11 182.191C133.002 182.191 134.99 183.973 135.429 187.278H124.352C124.791 184.412 126.779 182.191 130.11 182.191ZM245.58 189.292V170.236H240.933V181.313C239.383 179.325 237.163 178.215 234.271 178.215C228.28 178.215 223.633 182.863 223.633 189.292C223.633 195.721 228.28 200.369 234.271 200.369C237.369 200.369 239.59 199.259 240.933 197.271V199.93H245.58V189.292ZM228.513 189.292C228.513 185.522 230.94 182.424 234.942 182.424C238.712 182.424 241.371 185.316 241.371 189.292C241.371 193.062 238.712 196.16 234.942 196.16C230.94 195.928 228.513 193.036 228.513 189.292ZM72.9175 189.292V178.654H68.2698V181.313C66.7205 179.325 64.5 178.215 61.608 178.215C55.6177 178.215 50.9699 182.863 50.9699 189.292C50.9699 195.721 55.6177 200.369 61.608 200.369C64.7065 200.369 66.9271 199.259 68.2698 197.271V199.93H72.9175V189.292ZM55.6435 189.292C55.6435 185.522 58.0706 182.424 62.0728 182.424C65.8426 182.424 68.5022 185.316 68.5022 189.292C68.5022 193.062 65.8426 196.16 62.0728 196.16C58.0706 195.928 55.6435 193.036 55.6435 189.292Z" fill="black"/>
<path d="M163.806 17.0684H93.9873V142.505H163.806V17.0684Z" fill="#FF5A00"/>
<path d="M98.6349 79.7858C98.6349 54.3008 110.616 31.6819 129 17.0675C115.47 6.42934 98.4025 0 79.7858 0C35.6841 0 0 35.6841 0 79.7858C0 123.888 35.6841 159.572 79.7858 159.572C98.4025 159.572 115.47 153.142 129 142.504C110.59 128.096 98.6349 105.271 98.6349 79.7858Z" fill="#EB001B"/>
<path d="M258 79.7858C258 123.888 222.316 159.572 178.214 159.572C159.597 159.572 142.53 153.142 129 142.504C147.617 127.864 159.365 105.271 159.365 79.7858C159.365 54.3008 147.384 31.6819 129 17.0675C142.504 6.42934 159.572 0 178.188 0C222.316 0 258 35.9165 258 79.7858Z" fill="#F79E1B"/>
</g>
<defs>
<clipPath id="clip0_316_1692">
<rect width="258" height="200.368" fill="white"/>
</clipPath>
</defs>
</svg>
