<svg width="385" height="95" viewBox="0 0 385 95" fill="none" xmlns="http://www.w3.org/2000/svg">
<g clip-path="url(#clip0_316_1695)">
<path d="M134.166 45.6661C134.166 21.4929 104.133 1.78906 67.0893 1.78906C30.0457 1.78906 0.00632142 21.4929 0.00632142 45.6661C0.00632142 46.2919 0 48.0176 0 48.2326C0 73.8723 26.2466 94.6445 67.0766 94.6445C107.907 94.6445 134.166 73.8786 134.166 48.2389V45.6661Z" fill="#002E6D"/>
<path d="M131.593 45.6408C131.593 68.4295 102.717 86.9007 67.0957 86.9007C31.4744 86.9007 2.60449 68.4295 2.60449 45.6408C2.60449 22.8521 31.4744 4.38086 67.0957 4.38086C102.717 4.38086 131.593 22.8521 131.593 45.6471V45.6408Z" fill="#FFE800"/>
<path d="M45.6851 32.624C45.6535 32.6873 45.0087 33.3573 45.4259 33.8883C46.4437 35.1905 49.5854 35.9365 52.7651 35.2222C54.6615 34.7986 57.0826 32.8643 59.4342 30.9994C61.9818 28.9766 64.5103 26.9474 67.0515 26.1446C69.7381 25.2912 71.4639 25.6578 72.6017 25.9992C73.8534 26.3722 75.32 27.1939 77.6652 28.9513C82.0776 32.27 99.8281 47.7575 102.888 50.4378C105.359 49.3189 116.327 44.5968 131.246 41.3097C129.95 33.3573 125.114 26.0877 117.781 20.1266C107.559 24.4188 95.0681 26.6629 82.8488 20.6955C82.7856 20.6702 76.1734 17.5411 69.6496 17.6928C59.9589 17.9141 55.7615 22.1115 51.3112 26.5555L45.6851 32.6177V32.624Z" fill="white"/>
<path d="M102.161 52.1248C101.952 51.9415 81.2936 33.8622 76.6158 30.3475C73.9102 28.3183 72.3994 27.8 70.819 27.5977C69.9972 27.4902 68.8594 27.6419 68.0629 27.8632C65.8883 28.4574 63.0374 30.3601 60.5151 32.364C57.898 34.4501 55.4327 36.4097 53.138 36.9218C50.2175 37.5792 46.6396 36.8017 45.015 35.7017C44.3512 35.2593 43.8898 34.7472 43.6685 34.2225C43.068 32.8255 44.1805 31.7129 44.3575 31.5233L50.0595 25.3599C50.7232 24.6961 51.387 24.0387 52.0697 23.3876C50.2301 23.6278 48.5297 24.0956 46.8735 24.5571C44.8064 25.1386 42.8214 25.6886 40.8112 25.6886C39.9705 25.6886 35.4759 24.949 34.6225 24.7214C29.4643 23.3118 24.9381 21.9337 18.1742 18.7793C10.0701 24.8099 4.65267 32.3577 3.08496 40.6641C4.2481 40.9738 6.12557 41.5301 6.91574 41.7071C25.2542 45.7844 30.9688 49.9882 32.0055 50.8605C33.1244 49.6152 34.7427 48.825 36.5506 48.825C38.5798 48.825 40.4066 49.8491 41.5192 51.4231C42.5686 50.595 44.0162 49.887 45.8936 49.887C46.7407 49.887 47.6257 50.0451 48.517 50.3485C50.5841 51.0565 51.6525 52.4346 52.2087 53.6799C52.9041 53.3638 53.7575 53.1362 54.7626 53.1362C55.7487 53.1362 56.7791 53.3638 57.8095 53.8126C61.1915 55.2602 61.7162 58.5853 61.4127 61.0886C61.653 61.057 61.8932 61.0507 62.1397 61.0507C66.1475 61.0507 69.4093 64.3125 69.4093 68.3203C69.4093 69.5593 69.0933 70.7288 68.5433 71.7528C69.6306 72.366 72.412 73.7567 74.8584 73.447C76.8054 73.2004 77.5513 72.5367 77.8168 72.1574C78.0002 71.8982 78.1898 71.6011 78.0128 71.3862L72.8419 65.64C72.8419 65.64 71.9885 64.8372 72.273 64.5211C72.5637 64.1987 73.0884 64.6602 73.4614 64.9699C76.0974 67.1698 79.3087 70.4885 79.3087 70.4885C79.3593 70.5202 79.5742 70.9437 80.7626 71.1586C81.7867 71.3419 83.5946 71.2345 84.8526 70.2104C85.1686 69.9512 85.4847 69.6225 85.7502 69.2875C85.7313 69.3001 85.7123 69.3254 85.6933 69.3317C87.0145 67.6376 85.5479 65.9245 85.5479 65.9245L79.5047 59.1416C79.5047 59.1416 78.6449 58.3451 78.9357 58.0227C79.2012 57.7446 79.7575 58.1618 80.1305 58.4778C82.0459 60.0772 84.7451 62.7891 87.3369 65.3303C87.8426 65.7032 90.1183 67.1066 93.1336 65.128C94.9669 63.9269 95.3335 62.454 95.2766 61.3414C95.1502 59.8686 93.9997 58.8192 93.9997 58.8192L85.7439 50.5255C85.7439 50.5255 84.8715 49.7796 85.1813 49.4003C85.4278 49.0842 85.9968 49.5393 86.3697 49.8491C88.9994 52.049 96.1174 58.5727 96.1174 58.5727C96.2185 58.6422 98.6775 60.3932 101.718 58.4589C102.805 57.7635 103.501 56.7142 103.558 55.5005C103.665 53.3891 102.173 52.1375 102.173 52.1375L102.161 52.1248Z" fill="white"/>
<path d="M62.1334 62.6451C60.8565 62.6325 59.4531 63.391 59.2698 63.2772C59.1686 63.2077 59.3456 62.6957 59.4657 62.3986C59.5859 62.1015 61.2737 57.0317 57.1647 55.2743C54.023 53.9215 52.1013 55.445 51.4375 56.1277C51.2669 56.311 51.1847 56.2921 51.1657 56.0645C51.1025 55.1542 50.6916 52.6825 47.9797 51.8544C44.1047 50.666 41.6077 53.3716 40.9756 54.3514C40.6911 52.1389 38.8263 50.4258 36.5379 50.4258C34.0536 50.4258 32.0371 52.436 32.0308 54.9266C32.0308 57.411 34.0473 59.4275 36.5316 59.4275C37.739 59.4275 38.8389 58.9471 39.6418 58.1695C39.667 58.1948 39.6797 58.2327 39.667 58.3212C39.4774 59.4338 39.1297 63.4795 43.3651 65.1231C45.0655 65.7805 46.5068 65.2938 47.7079 64.453C48.0682 64.2002 48.1251 64.3076 48.0745 64.6427C47.9228 65.6857 48.1125 67.9108 51.2353 69.1751C53.6121 70.1423 55.0155 69.1498 55.9384 68.3028C56.3366 67.9361 56.4504 67.9993 56.4694 68.5619C56.5832 71.5709 59.0865 73.9604 62.1207 73.9668C65.2498 73.9668 67.7847 71.4382 67.7847 68.3154C67.7847 65.1863 65.2498 62.683 62.1271 62.6514L62.1334 62.6451Z" fill="white"/>
<path d="M102.963 49.9646C96.5977 44.4081 81.8941 31.6262 77.9116 28.6361C75.6359 26.923 74.0808 26.0191 72.7217 25.6145C72.1085 25.4312 71.2614 25.2162 70.1741 25.2162C69.1627 25.2162 68.0754 25.3996 66.9376 25.7599C64.3648 26.5753 61.7983 28.6108 59.3203 30.5831L59.1938 30.6843C56.8802 32.5175 54.497 34.4202 52.6891 34.8248C51.8989 35.0018 51.0898 35.0966 50.2806 35.0966C48.2578 35.0966 46.4372 34.5087 45.7545 33.6427C45.6407 33.4973 45.7166 33.2634 45.9757 32.9284L46.0073 32.8841L51.6018 26.8535C55.9889 22.4664 60.1294 18.3322 69.6621 18.111C69.8201 18.111 69.9782 18.1046 70.1362 18.1046C76.0657 18.1046 82.0015 20.766 82.6653 21.0694C88.2281 23.7813 93.9743 25.1593 99.7458 25.1657C105.764 25.1657 111.971 23.6801 118.495 20.6711C117.768 20.058 117.003 19.4637 116.226 18.8759C110.492 21.3602 105.03 22.6181 99.7584 22.6181C94.3726 22.6181 88.993 21.3222 83.7715 18.7747C83.4997 18.642 76.9444 15.5571 70.1299 15.5508C69.9529 15.5508 69.7696 15.5508 69.5926 15.5508C61.5833 15.7404 57.0762 18.5851 54.0419 21.0757C51.0898 21.1452 48.5486 21.8596 46.2792 22.4917C44.2563 23.0543 42.5116 23.5411 40.8111 23.5411C40.1095 23.5411 38.8515 23.4778 38.7377 23.4715C36.7781 23.4146 26.923 20.9935 19.0781 18.0225C18.2753 18.5914 17.504 19.173 16.7581 19.7735C24.9507 23.1302 34.9259 25.7283 38.074 25.9369C38.9463 25.9938 39.8819 26.0949 40.8175 26.0949C42.8972 26.0949 44.977 25.507 46.9872 24.9507C48.1756 24.6157 49.4841 24.2554 50.8622 23.9899C50.4956 24.3502 50.1289 24.7168 49.7623 25.0898L44.073 31.2406C43.6242 31.6894 42.657 32.8968 43.2955 34.3823C43.5483 34.9828 44.0667 35.5518 44.7873 36.0448C46.1464 36.9551 48.5675 37.5746 50.8243 37.5746C51.6777 37.5746 52.4868 37.4924 53.2327 37.3218C55.6159 36.7844 58.1192 34.7932 60.7679 32.6882C62.8792 31.013 65.8756 28.8827 68.1766 28.2568C68.815 28.0798 69.6052 27.9724 70.2374 27.9724C70.427 27.9724 70.604 27.9787 70.7747 28.004C72.2918 28.2 73.7584 28.712 76.3755 30.6779C81.0407 34.1863 101.705 52.2593 101.908 52.4363C101.92 52.4489 103.242 53.5868 103.147 55.4706C103.096 56.5263 102.515 57.4618 101.497 58.1066C100.612 58.6629 99.7015 58.9474 98.7849 58.9474C97.4068 58.9474 96.4523 58.2963 96.3954 58.252C96.3196 58.1888 89.2396 51.6967 86.6351 49.5221C86.2179 49.1808 85.8197 48.871 85.4088 48.871C85.1939 48.871 84.9979 48.9595 84.8715 49.1239C84.4606 49.6296 84.922 50.3249 85.4594 50.7864L93.7278 59.0991C93.7278 59.0991 94.7582 60.0663 94.872 61.3369C94.9352 62.7149 94.2777 63.8654 92.9123 64.7631C91.9388 65.4015 90.9463 65.7303 89.9792 65.7303C88.7086 65.7303 87.8172 65.1487 87.6213 65.0159L86.4329 63.8465C84.2646 61.7098 82.0268 59.51 80.3896 58.1382C79.9913 57.8032 79.5615 57.4998 79.1569 57.4998C78.9546 57.4998 78.7776 57.5756 78.6385 57.721C78.4489 57.9296 78.3225 58.3026 78.7902 58.9221C78.9799 59.1749 79.2075 59.3899 79.2075 59.3899L85.2444 66.1664C85.295 66.2296 86.4897 67.6456 85.3772 69.0616L85.1686 69.3335C84.9852 69.5357 84.7893 69.7191 84.606 69.8708C83.5756 70.7179 82.2038 70.8064 81.6602 70.8064C81.3694 70.8064 81.0849 70.7811 80.8447 70.7368C80.2505 70.6294 79.8522 70.465 79.6563 70.2311L79.5804 70.1552C79.2517 69.8139 76.2111 66.7101 73.6952 64.605C73.3665 64.3269 72.9493 63.9729 72.5194 63.9729C72.3108 63.9729 72.1211 64.0551 71.9758 64.2194C71.4764 64.7631 72.2286 65.5785 72.5447 65.882L77.6903 71.5586C77.6903 71.6092 77.6208 71.7293 77.4944 71.9063C77.311 72.1591 76.6852 72.785 74.8204 73.0189C74.5991 73.0441 74.3652 73.0568 74.1377 73.0568C72.2096 73.0568 70.1615 72.1212 69.0995 71.5586C69.5799 70.5408 69.8328 69.422 69.8328 68.2967C69.8328 64.0614 66.3939 60.6162 62.1586 60.6099C62.0701 60.6099 61.9753 60.6099 61.8804 60.6162C62.0195 58.6819 61.7477 55.0218 57.9864 53.4098C56.9055 52.942 55.8245 52.7018 54.7752 52.7018C53.9534 52.7018 53.1632 52.8409 52.4236 53.1253C51.6461 51.6145 50.3502 50.5083 48.6687 49.933C47.7394 49.6106 46.8102 49.4463 45.9125 49.4463C44.3511 49.4463 42.9098 49.9077 41.6203 50.818C40.3876 49.2882 38.5291 48.3779 36.5695 48.3779C34.8564 48.3779 33.2065 49.067 31.9864 50.2744C30.3871 49.0543 24.0278 45.0149 7.02312 41.1525C6.20134 40.9692 4.31123 40.4256 3.14809 40.0842C2.95845 41.0072 2.81306 41.9364 2.71191 42.8783C2.71191 42.8783 5.84734 43.6305 6.46684 43.7696C23.8381 47.6257 29.578 51.6398 30.5515 52.3984C30.2228 53.1885 30.0521 54.0419 30.0521 54.9016C30.0521 58.4859 32.9662 61.4127 36.5631 61.419C36.9677 61.419 37.366 61.3874 37.7579 61.3116C38.2952 63.9539 40.0273 65.9515 42.6696 66.9819C43.4408 67.279 44.2247 67.4307 44.9896 67.4307C45.4827 67.4307 45.9821 67.3675 46.4751 67.2474C46.9619 68.4864 48.0618 70.0288 50.5145 71.0276C51.3742 71.3753 52.2339 71.5586 53.0684 71.5586C53.7511 71.5586 54.4212 71.4385 55.0596 71.2046C56.2354 74.0682 59.0358 75.971 62.1523 75.971C64.2194 75.971 66.2043 75.1302 67.6519 73.6383C68.8909 74.3274 71.508 75.5727 74.1503 75.579C74.4917 75.579 74.8141 75.5537 75.1365 75.5158C77.7599 75.1808 78.9862 74.1567 79.5425 73.3602C79.6436 73.2211 79.7321 73.0757 79.8143 72.9177C80.4338 73.0947 81.1165 73.2401 81.8941 73.2401C83.329 73.2401 84.7008 72.7533 86.0978 71.7419C87.4632 70.7558 88.4367 69.3398 88.5758 68.1387C88.5758 68.1261 88.5821 68.1071 88.5821 68.0881C89.0436 68.183 89.5114 68.2335 89.9855 68.2335C91.4584 68.2335 92.9123 67.7721 94.2967 66.8618C96.9707 65.1044 97.4385 62.8161 97.3942 61.3179C97.862 61.419 98.3424 61.4696 98.8165 61.4696C100.201 61.4696 101.566 61.0524 102.862 60.2243C104.518 59.1623 105.517 57.5377 105.669 55.6476C105.776 54.3643 105.454 53.0684 104.778 51.9559C109.26 50.0215 119.513 46.2855 131.58 43.5673C131.511 42.6318 131.372 41.7088 131.207 40.7859C116.605 44.0288 105.707 48.7383 102.982 49.9583L102.963 49.9646ZM62.1333 73.5625C59.295 73.5625 56.994 71.3563 56.8865 68.5496C56.8802 68.3094 56.8549 67.6646 56.3113 67.6646C56.09 67.6646 55.8941 67.7974 55.6728 67.9996C55.047 68.5812 54.2568 69.1628 53.0937 69.1628C52.569 69.1628 51.9937 69.0427 51.3932 68.7961C48.3968 67.5824 48.3589 65.528 48.479 64.6999C48.5106 64.4786 48.5233 64.251 48.3716 64.0677L48.1882 63.9034H47.9986C47.8469 63.9034 47.6888 63.9666 47.4802 64.1183C46.6142 64.7251 45.7861 65.0222 44.939 65.0222C44.4776 65.0222 43.9971 64.9274 43.5167 64.7441C39.5721 63.208 39.8882 59.4847 40.0778 58.3658C40.1095 58.1382 40.0526 57.9612 39.9072 57.8474L39.629 57.6199L39.3698 57.8727C38.5986 58.6123 37.5935 59.0169 36.5379 59.0169C34.2811 59.0169 32.4416 57.1774 32.4416 54.9206C32.4416 52.6575 34.2811 50.8307 36.5442 50.8307C38.586 50.8307 40.3244 52.3668 40.5836 54.4023L40.7226 55.5022L41.3232 54.5729C41.3927 54.4655 43.0426 51.9622 46.0895 51.9622C46.6648 51.9622 47.2653 52.057 47.8658 52.2403C50.2869 52.9799 50.6978 55.1798 50.7674 56.0964C50.8116 56.6337 51.1909 56.6527 51.2668 56.6527C51.4754 56.6527 51.6334 56.5199 51.7409 56.4061C52.196 55.932 53.1948 55.1355 54.7562 55.1355C55.4705 55.1355 56.2291 55.3062 57.0129 55.6413C60.869 57.2975 59.118 62.1902 59.099 62.2408C58.7703 63.05 58.7577 63.4103 59.0674 63.6189L59.2191 63.6884H59.3266C59.5036 63.6884 59.7185 63.6126 60.0725 63.4925C60.5972 63.3091 61.3874 63.0373 62.127 63.0373C65.0285 63.0689 67.3864 65.4331 67.3864 68.2967C67.3864 71.192 65.0222 73.5498 62.127 73.5498L62.1333 73.5625Z" fill="#002E6D"/>
<path d="M161.158 21.4742V41.2034H153.276V23.0483C153.276 14.2299 157.713 9.85547 166.525 9.85547C170.495 9.85547 173.529 10.7341 175.748 12.4852C177.967 10.791 181.001 9.97558 184.971 9.97558C193.79 9.97558 198.164 14.3563 198.107 23.1684V41.3235H194.08C191.514 41.1465 190.231 39.9202 190.231 37.4674V21.588C190.054 18.3767 188.303 16.8027 184.857 16.8027C181.412 16.8027 179.661 18.3767 179.604 21.588V41.2034H171.785V21.4742C171.608 18.263 169.857 16.6889 166.412 16.6889C162.966 16.6889 161.215 18.263 161.158 21.4742Z" fill="#002E6D"/>
<path d="M236.188 25.3872C236.421 15.4057 241.352 9.85547 251.688 9.85547H254.033V17.909L250.423 17.9848C246.099 17.9848 244.07 20.7726 244.07 25.2671V41.3235H236.188V25.3872Z" fill="#002E6D"/>
<path d="M297.499 19.5398H290.267C290.545 13.566 293.548 9.58984 302.366 9.58984C311.185 9.58984 315.212 12.3902 315.389 18.1111V28.6173C315.389 37.1386 310.249 40.9378 301.905 41.5194C294.49 42.1009 289.351 38.6621 289.351 31.8286C289.528 24.4136 294.894 22.4287 302.72 21.6701C306.045 21.2592 307.74 20.2667 307.74 18.5789C307.563 16.8279 305.932 15.9934 302.72 15.9492C299.086 15.8986 297.91 18.0795 297.505 19.5334L297.499 19.5398ZM307.853 28.2697V25.7411C306.045 26.4997 303.94 26.8094 301.665 27.2772C298.574 27.8588 296.993 29.319 296.993 31.5947C297.17 34.0474 298.453 35.2106 300.906 35.2106C305.224 35.2106 307.853 32.6441 307.853 28.2633V28.2697Z" fill="#002E6D"/>
<path d="M348.69 0.000462049V27.84C348.69 37.1199 343.847 41.7345 334.214 41.6776C324.637 41.5006 319.851 36.3044 319.851 26.0321C319.851 15.7598 323.935 10.1527 332.172 9.86188C336.028 9.86188 339.005 11.4359 340.99 14.6472V4.79842L341.009 3.92607C343.576 0.0952836 348.696 -0.00585938 348.696 -0.00585938L348.69 0.000462049ZM327.848 25.6781C327.791 31.9236 329.89 35.078 334.327 35.078C338.765 35.078 340.984 31.9236 340.984 25.6781C340.807 19.7233 338.651 16.8028 334.447 16.8028C330.244 16.8028 328.082 19.7233 327.854 25.6781H327.848Z" fill="#002E6D"/>
<path d="M210.421 46.0254H212.45V86.925H204.688V51.0256C204.688 49.8625 207.103 46.0254 210.421 46.0254Z" fill="#002E6D"/>
<path d="M252.724 55.1093C248.874 55.1093 245.954 56.6833 243.969 59.8946V46.0254H243.09C239.222 46.0696 237.186 48.1367 236.206 49.8309V49.5654V73.0937C236.206 82.3736 241.055 86.9882 250.682 86.9313C260.259 86.7543 265.045 81.5581 265.045 71.2858C265.045 61.0135 260.961 55.4064 252.724 55.1156V55.1093ZM250.448 80.3254C246.011 80.3254 243.912 77.171 243.969 70.9255C244.203 64.9707 246.365 62.0502 250.569 62.0502C254.772 62.0502 256.934 64.9707 257.105 70.9255C257.105 77.171 254.886 80.3254 250.448 80.3254Z" fill="#002E6D"/>
<path d="M211.957 33.4461C213.196 34.6472 214.985 35.2477 217.312 35.2477C218.98 35.2477 220.415 34.8305 221.616 33.9961C222.817 33.1617 223.557 32.2767 223.829 31.3474H231.105C229.942 34.957 228.153 37.5361 225.751 39.0912C223.342 40.6462 220.434 41.4175 217.021 41.4175C214.657 41.4175 212.52 41.0382 210.617 40.2796C208.714 39.521 207.109 38.4464 205.788 37.0494C204.466 35.6523 203.449 33.9835 202.734 32.0428C202.014 30.1021 201.66 27.9718 201.66 25.6392C201.66 23.3066 202.026 21.2964 202.766 19.3557C203.499 17.415 204.549 15.7398 205.908 14.3238C207.267 12.9078 208.885 11.7889 210.769 10.9798C212.653 10.1643 214.732 9.75977 217.027 9.75977C219.587 9.75977 221.819 10.2528 223.721 11.2453C225.624 12.2314 227.186 13.5653 228.406 15.2341C229.626 16.903 230.511 18.8057 231.054 20.936C231.598 23.0727 231.788 25.3041 231.636 27.6304H209.928C210.042 30.3044 210.725 32.2514 211.964 33.4525L211.957 33.4461ZM221.3 17.6173C220.308 16.53 218.803 15.9864 216.787 15.9864C215.466 15.9864 214.372 16.2076 213.5 16.6564C212.627 17.1053 211.926 17.6552 211.407 18.3127C210.883 18.9701 210.516 19.6718 210.301 20.405C210.086 21.1447 209.96 21.8021 209.922 22.3837H223.367C222.982 20.2913 222.293 18.6983 221.3 17.611V17.6173Z" fill="#002E6D"/>
<path d="M271.505 15.8914C270.171 15.8914 269.052 16.1948 268.155 16.8017C267.251 17.4085 266.518 18.1924 265.949 19.1532C265.38 20.1141 264.975 21.1698 264.741 22.3266C264.507 23.4834 264.387 24.6276 264.387 25.7654C264.387 26.9033 264.507 27.9779 264.741 29.1158C264.975 30.2537 265.361 31.284 265.885 32.2007C266.416 33.1236 267.131 33.8758 268.028 34.4637C268.932 35.0516 270.026 35.3487 271.322 35.3487C273.319 35.3487 274.856 34.7924 275.936 33.6735C277.011 32.5547 277.688 31.0565 277.966 29.179H286.019C285.469 33.2184 283.901 36.2906 281.316 38.4083C278.731 40.526 275.418 41.5816 271.379 41.5816C269.103 41.5816 267.017 41.2024 265.121 40.4375C263.218 39.6726 261.599 38.6043 260.272 37.2325C258.938 35.8608 257.901 34.2235 257.156 32.3208C256.41 30.418 256.037 28.3319 256.037 26.0626C256.037 23.7932 256.378 21.5238 257.067 19.5072C257.75 17.4907 258.761 15.746 260.095 14.2731C261.429 12.8002 263.053 11.656 264.975 10.8342C266.897 10.0125 269.09 9.60156 271.562 9.60156C273.364 9.60156 275.096 9.83546 276.765 10.3096C278.427 10.7773 279.919 11.498 281.234 12.4525C282.549 13.4134 283.617 14.6081 284.439 16.0368C285.261 17.4654 285.735 19.1659 285.848 21.1192H277.675C277.125 17.6298 275.07 15.8851 271.505 15.8851V15.8914Z" fill="#002E6D"/>
<path d="M354.664 19.0331C355.409 17.0545 356.465 15.3667 357.837 13.976C359.209 12.5853 360.852 11.5043 362.774 10.7457C364.696 9.98085 366.851 9.60156 369.241 9.60156C371.63 9.60156 373.799 9.98085 375.739 10.7457C377.68 11.5106 379.336 12.5853 380.708 13.976C382.08 15.3667 383.135 17.0545 383.881 19.0331C384.627 21.0117 385 23.2179 385 25.6453C385 28.0728 384.627 30.2726 383.881 32.2323C383.135 34.1919 382.08 35.8671 380.708 37.2578C379.336 38.6485 377.68 39.7168 375.739 40.4628C373.799 41.2087 371.63 41.5816 369.241 41.5816C366.851 41.5816 364.696 41.2087 362.774 40.4628C360.852 39.7168 359.209 38.6485 357.837 37.2578C356.465 35.8671 355.409 34.1919 354.664 32.2323C353.918 30.2726 353.545 28.0791 353.545 25.6453C353.545 23.2116 353.918 21.0117 354.664 19.0331ZM362.249 29.2043C362.483 30.3611 362.888 31.3978 363.457 32.3208C364.026 33.2437 364.778 33.977 365.72 34.5269C366.662 35.0769 367.837 35.3487 369.247 35.3487C370.657 35.3487 371.845 35.0769 372.806 34.5269C373.767 33.977 374.532 33.2437 375.101 32.3208C375.67 31.3978 376.074 30.3611 376.308 29.2043C376.542 28.0475 376.662 26.8654 376.662 25.6453C376.662 24.4253 376.542 23.2369 376.308 22.0611C376.074 20.8853 375.67 19.8486 375.101 18.9446C374.532 18.0407 373.767 17.3074 372.806 16.7385C371.845 16.1695 370.663 15.8851 369.247 15.8851C367.831 15.8851 366.662 16.1695 365.72 16.7385C364.778 17.3074 364.026 18.0407 363.457 18.9446C362.888 19.8486 362.483 20.8853 362.249 22.0611C362.015 23.2369 361.895 24.4316 361.895 25.6453C361.895 26.8591 362.015 28.0475 362.249 29.2043Z" fill="#002E6D"/>
<path d="M269.609 70.9009C269.843 60.9194 274.773 55.3691 285.109 55.3691H287.454V63.4226L283.844 63.4985C279.521 63.4985 277.491 66.2862 277.491 70.7808V86.8372H269.609V70.9009Z" fill="#002E6D"/>
<path d="M299.737 78.9613C300.976 80.1624 302.765 80.7629 305.091 80.7629C306.76 80.7629 308.195 80.3457 309.396 79.5113C310.597 78.6768 311.336 77.7918 311.608 76.8626H318.884C317.721 80.4721 315.932 83.0513 313.53 84.6063C311.121 86.1614 308.214 86.9326 304.8 86.9326C302.436 86.9326 300.299 86.5533 298.396 85.8011C296.494 85.0425 294.888 83.9679 293.567 82.5708C292.246 81.1738 291.228 79.5049 290.514 77.5643C289.793 75.6236 289.439 73.4933 289.439 71.1607C289.439 68.8281 289.806 66.8178 290.545 64.8772C291.285 62.9365 292.328 61.2613 293.687 59.8453C295.046 58.4293 296.664 57.3167 298.548 56.5013C300.432 55.6858 302.512 55.2812 304.806 55.2812C307.367 55.2812 309.598 55.7743 311.501 56.7668C313.403 57.7529 314.965 59.0867 316.185 60.7556C317.405 62.4245 318.29 64.3272 318.834 66.4575C319.377 68.5942 319.567 70.8256 319.415 73.1519H297.707C297.821 75.8259 298.504 77.7666 299.743 78.974L299.737 78.9613ZM309.08 63.1325C308.087 62.0452 306.583 61.5015 304.566 61.5015C303.245 61.5015 302.151 61.7228 301.279 62.1716C300.407 62.6204 299.705 63.1704 299.187 63.8278C298.662 64.4852 298.295 65.1869 298.08 65.9265C297.865 66.6661 297.739 67.3236 297.701 67.9051H311.147C310.761 65.8127 310.072 64.2197 309.08 63.1325Z" fill="#002E6D"/>
<path d="M228.551 46.0254H220.782V53.0991H228.551V46.0254Z" fill="#002E6D"/>
<path d="M228.551 56.6523H220.782V86.9256H228.551V56.6523Z" fill="#002E6D"/>
</g>
<defs>
<clipPath id="clip0_316_1695">
<rect width="385" height="94.6444" fill="white"/>
</clipPath>
</defs>
</svg>
