<svg width="374" height="63" viewBox="0 0 374 63" fill="none" xmlns="http://www.w3.org/2000/svg">
<path d="M373.088 16.6033C372.968 16.698 372.792 16.7661 372.738 16.8904C371.259 20.2474 369.797 23.6104 368.324 26.9704C367.15 29.6499 365.962 32.3219 364.788 35.0013C363.644 37.6142 362.51 40.2315 361.371 42.8473C359.93 46.1585 358.478 49.4638 357.047 52.7794C355.656 56.0033 354.29 59.2391 352.891 62.4585C352.802 62.6612 352.522 62.9083 352.329 62.9098C349.313 62.9379 346.298 62.929 343.184 62.929C343.262 62.6316 343.292 62.3934 343.384 62.1848C345.024 58.4386 346.672 54.6969 348.317 50.9522C349.079 49.2152 349.847 47.4812 350.586 45.7339C350.673 45.5282 350.677 45.2072 350.583 45.0089C349.205 42.0705 347.795 39.147 346.408 36.2116C345.451 34.1846 344.525 32.1429 343.574 30.113C342.316 27.4306 341.043 24.7556 339.785 22.0746C338.836 20.0536 337.898 18.0266 336.878 15.8384C338.311 15.8384 339.605 15.8369 340.899 15.8384C342.154 15.8414 343.41 15.8443 344.665 15.8532C345.411 15.8591 346.318 15.6106 346.86 15.9597C347.395 16.3045 347.576 17.2514 347.885 17.9482C348.593 19.5461 349.279 21.1544 349.982 22.7537C351.398 25.9673 352.813 29.1808 354.243 32.387C354.625 33.2422 355.054 34.0751 355.57 35.1434C355.869 34.5545 356.086 34.1935 356.245 33.8073C357.372 31.0569 358.487 28.3005 359.602 25.5456C360.84 22.4874 362.08 19.4307 363.308 16.3681C363.49 15.9139 363.66 15.7689 364.232 15.8044C365.616 15.8902 367.011 15.7186 368.404 15.7126C369.456 15.7082 370.509 15.8088 371.562 15.8473C372.07 15.8665 372.579 15.8517 373.088 15.8532V16.6033Z" fill="url(#paint0_linear_316_1757)"/>
<path d="M106.29 35.7426C106.807 34.4362 107.329 33.1312 107.844 31.8248C111.099 23.5675 114.355 15.3102 117.609 7.05146C118.327 5.23015 119.019 3.39701 119.763 1.58902C119.868 1.33306 120.206 1.00904 120.437 1.00608C124.351 0.975013 128.263 0.988329 132.176 0.995726C132.246 0.995726 132.316 1.02236 132.446 1.04751V49.5969C132.236 49.6191 132.05 49.6546 131.864 49.6546C129.304 49.6576 126.744 49.6384 124.183 49.6679C123.573 49.6753 123.42 49.4771 123.421 48.8557C123.437 38.3125 123.43 27.7679 123.426 17.2233C123.426 17.0294 123.4 16.8341 123.37 16.4125C123.143 16.7128 122.99 16.846 122.922 17.0146C120.216 23.8057 117.515 30.6012 114.815 37.3952C113.251 41.3323 111.696 45.2708 110.11 49.1989C110.027 49.4031 109.695 49.6236 109.477 49.6265C107.23 49.6576 104.984 49.6606 102.738 49.6265C102.506 49.6236 102.157 49.3809 102.069 49.1605C99.0419 41.6474 96.0436 34.121 93.0325 26.6005C91.7428 23.3811 90.4345 20.169 89.1349 16.9525C89.072 16.7957 89.0033 16.6403 88.796 16.5086V49.5629C88.5229 49.6058 88.3413 49.6591 88.1612 49.6591C85.649 49.6591 83.1369 49.6413 80.6247 49.6605C80.0871 49.665 79.9284 49.4889 79.9298 48.9297C79.9484 33.3383 79.9499 17.747 79.9542 2.15568C79.9542 1.78876 79.9542 1.42331 79.9542 1.02828C80.2287 1.00608 80.4174 0.979451 80.6061 0.979451C84.2049 0.979451 87.8037 0.994247 91.4025 0.973533C91.913 0.970574 92.1589 1.13036 92.3576 1.62897C96.2638 11.3806 100.187 21.1248 104.112 30.869C104.767 32.4965 105.44 34.1166 106.105 35.7396C106.167 35.7396 106.228 35.7426 106.29 35.7426Z" fill="url(#paint1_linear_316_1757)"/>
<path d="M272.679 31.4845C272.679 31.9786 272.679 32.4462 272.679 32.9137C272.679 38.2104 272.668 43.5072 272.695 48.8039C272.699 49.5407 272.462 49.7316 271.777 49.7212C269.265 49.6857 266.753 49.7049 264.24 49.7183C263.69 49.7212 263.405 49.665 263.407 48.9075C263.443 33.7408 263.44 18.5755 263.444 3.40885C263.444 2.83479 263.468 2.25629 263.415 1.68667C263.358 1.0771 263.596 0.918791 264.152 0.92027C269.321 0.939504 274.489 0.949861 279.658 0.930627C281.585 0.923229 283.497 0.976492 285.384 1.4529C289.445 2.47822 292.693 4.66053 294.752 8.5014C296.53 11.8156 296.907 15.3664 296.339 19.0771C295.892 22.0081 294.701 24.5943 292.749 26.7041C291.687 27.8522 290.333 28.7888 288.967 29.5478C286.158 31.1116 283.058 31.4504 279.908 31.4253C277.662 31.4075 275.416 31.4223 273.17 31.4253C273.031 31.4253 272.895 31.4593 272.679 31.4845ZM272.769 16.1728C272.769 18.2205 272.781 20.2681 272.755 22.3158C272.748 22.878 272.944 23.0733 273.468 23.063C274.555 23.0393 275.642 23.0807 276.727 23.0452C278.526 22.986 280.347 23.0497 282.114 22.7671C284.705 22.3528 286.385 20.7164 287.029 18.034C287.733 15.1001 286.765 12.1159 284.576 10.6275C283.297 9.75753 281.847 9.3255 280.329 9.28555C278.085 9.22637 275.838 9.28407 273.593 9.24709C272.959 9.23673 272.746 9.4483 272.756 10.1052C272.788 12.1277 272.769 14.1488 272.769 16.1728Z" fill="url(#paint2_linear_316_1757)"/>
<path d="M323.505 19.4411V15.9316C323.64 15.8976 323.727 15.8562 323.816 15.8547C326.471 15.8266 329.127 15.794 331.783 15.8044C331.928 15.8044 332.199 16.1757 332.2 16.374C332.22 20.7697 332.207 25.1669 332.209 29.5626C332.21 34.9836 332.209 40.4046 332.233 45.8256C332.237 46.9175 332.313 48.0138 332.432 49.0983C332.482 49.5525 332.359 49.7123 331.968 49.7138C329.409 49.7212 326.848 49.7331 324.289 49.6931C324.126 49.6901 323.864 49.2818 323.827 49.0332C323.678 48.0375 323.598 47.0314 323.494 46.0298L323.172 45.759C323.084 45.9869 323.032 46.2414 322.901 46.4396C321.858 48.002 320.467 49.048 318.757 49.7937C316.339 50.8486 313.916 50.7746 311.422 50.3485C307.377 49.6576 304.193 47.5522 301.768 44.1685C300.244 42.041 299.335 39.6426 298.869 37.0505C298.687 36.037 298.39 35.0324 298.327 34.013C298.257 32.8797 298.334 31.7256 298.455 30.5938C298.773 27.651 299.526 24.8429 301.058 22.2995C302.266 20.2918 303.784 18.5534 305.706 17.3076C307.841 15.9227 310.197 15.1504 312.763 14.9033C314.576 14.7288 316.312 14.9048 318.015 15.359C320.301 15.9671 322.131 17.3401 323.505 19.4411ZM307.436 32.5971C307.433 34.6773 307.783 36.6776 308.796 38.5182C310.012 40.7286 311.835 42.1741 314.248 42.4996C316.911 42.8606 319.328 42.1697 321.165 39.9119C322.19 38.6528 322.863 37.2206 323.199 35.6538C323.548 34.0278 323.603 32.3648 323.375 30.6885C323.147 29.0077 322.685 27.4128 321.695 26.0768C320.37 24.2865 318.628 23.1074 316.377 22.9564C313.626 22.7715 311.232 23.5261 309.443 25.846C307.916 27.8256 307.447 30.1307 307.436 32.5971Z" fill="url(#paint3_linear_316_1757)"/>
<path d="M226.487 19.2251V15.8532C226.85 15.8532 227.109 15.8547 227.369 15.8532C229.802 15.831 232.237 15.8103 234.671 15.7837C235.108 15.7792 235.153 16.0529 235.15 16.411C235.133 18.8833 235.117 21.3556 235.116 23.8279C235.111 30.6959 235.097 37.5654 235.126 44.4334C235.133 45.9469 235.289 47.4605 235.404 48.9726C235.447 49.5333 235.263 49.7123 234.717 49.7064C232.326 49.6798 229.935 49.6827 227.546 49.699C227.064 49.702 226.841 49.5437 226.806 49.0332C226.737 48.0405 226.628 47.0507 226.521 45.8877C226.274 46.086 226.076 46.1837 225.963 46.3464C224.654 48.2313 222.919 49.4756 220.772 50.1384C218.863 50.7273 216.916 50.8205 214.988 50.427C213.497 50.1222 212.001 49.6931 210.602 49.0865C207.975 47.9473 205.942 46.0105 204.378 43.5516C202.558 40.6901 201.674 37.5269 201.462 34.124C201.242 30.5731 201.736 27.1687 203.22 23.9403C204.669 20.7889 206.853 18.3788 209.837 16.6995C212.908 14.9714 216.168 14.6607 219.544 15.0883C221.561 15.3428 223.365 16.1683 224.855 17.6301C225.369 18.1346 225.812 18.7146 226.287 19.2606C226.352 19.2487 226.421 19.2369 226.487 19.2251ZM210.38 32.5231C210.323 34.5767 210.709 36.5504 211.651 38.348C212.705 40.3617 214.232 41.9108 216.502 42.2999C217.735 42.5114 219.079 42.6772 220.267 42.3901C223.12 41.7021 224.931 39.687 225.84 36.8241C226.61 34.4021 226.671 31.9491 226.142 29.456C225.446 26.1818 223.104 23.3811 219.712 22.9727C216.717 22.6102 214.142 23.4506 212.26 25.9969C210.845 27.9129 210.409 30.1662 210.38 32.5231Z" fill="url(#paint4_linear_316_1757)"/>
<path d="M148.692 35.2011C148.825 37.6245 149.805 39.4784 151.523 40.8973C153.161 42.2496 155.08 42.8961 157.169 42.8029C160.317 42.6638 162.789 41.3485 164.07 38.1912C164.235 37.7858 164.424 37.6674 164.83 37.7947C167.076 38.5004 169.325 39.1884 171.686 39.9178C171.581 40.2685 171.498 40.591 171.388 40.9032C170.123 44.4896 167.788 47.1232 164.551 48.8764C162.775 49.8381 160.842 50.39 158.835 50.5764C154.914 50.9389 151.189 50.282 147.788 48.1426C144.019 45.7723 141.623 42.3206 140.543 37.9219C139.436 33.4108 139.615 28.9426 141.505 24.6771C143.88 19.3212 147.917 15.9612 153.55 15.0587C158.35 14.2893 162.911 15.1771 166.798 18.4735C169.09 20.4161 170.489 22.9683 171.33 25.877C172.156 28.737 172.282 31.6561 172.087 34.6122C172.052 35.1478 171.804 35.2085 171.392 35.207C169.532 35.1981 167.674 35.204 165.813 35.204C160.38 35.204 154.945 35.204 149.512 35.2025C149.275 35.2025 149.039 35.2011 148.692 35.2011ZM163.358 28.8169C163.338 28.4692 163.351 28.1718 163.3 27.8863C162.749 24.831 160.676 22.8248 157.685 22.4253C154.283 21.9711 151.487 22.9283 149.675 26.1271C149.218 26.9349 148.917 27.8138 148.937 28.8169H163.358Z" fill="url(#paint5_linear_316_1757)"/>
<path d="M190.088 15.8576H196.528V23.9537H190.08C190.064 24.2865 190.041 24.5292 190.041 24.7718C190.04 29.1424 190.023 33.5129 190.057 37.8835C190.063 38.638 190.198 39.4192 190.426 40.1368C190.833 41.4255 191.904 41.8501 193.087 41.9241C194.208 41.9951 195.336 41.9389 196.545 41.9389C196.551 41.9966 196.588 42.2111 196.59 42.4256C196.595 44.4985 196.587 46.5713 196.6 48.6426C196.603 49.1176 196.514 49.3706 195.985 49.5289C193.174 50.3678 190.31 50.4181 187.578 49.5304C183.87 48.326 181.797 45.4942 181.335 41.4847C181.208 40.3735 181.212 39.2432 181.208 38.1217C181.194 33.7008 181.201 29.28 181.201 24.8591C181.201 24.5898 181.201 24.3191 181.201 23.967H175.33V15.7777C176.318 15.7777 177.256 15.9227 178.135 15.7511C180.773 15.2333 181.923 13.3809 182.026 10.6157C182.084 9.04735 182.036 7.4746 182.036 5.8486C182.256 5.82196 182.438 5.78202 182.621 5.78054C184.818 5.77314 187.014 5.79089 189.212 5.75834C189.851 5.74947 190.078 5.90778 190.066 6.63275C190.017 9.42907 190.043 12.2269 190.044 15.0247C190.044 15.2688 190.07 15.5174 190.088 15.8576Z" fill="url(#paint6_linear_316_1757)"/>
<path d="M253.323 49.7641C252.895 49.7331 252.619 49.6975 252.342 49.6975C249.951 49.6946 247.56 49.6901 245.171 49.7035C244.594 49.7064 244.323 49.5363 244.449 48.866C244.536 48.4074 244.498 47.9206 244.498 47.4472C244.499 31.9624 244.499 16.4761 244.499 0.991288V0H253.323V49.7641Z" fill="url(#paint7_linear_316_1757)"/>
<path d="M8.13554 25.337C8.13554 32.3308 8.1384 39.3245 8.13411 46.3168C8.13411 48.36 6.82871 49.9565 4.80984 50.421C3.05977 50.8235 1.0938 49.8011 0.353167 48.0419C0.151566 47.5626 0.0328933 47.0033 0.0328933 46.4796C0.0157357 32.3692 0.0357529 18.2574 7.99984e-06 4.14565C-0.00428139 2.30955 1.71719 0.563702 3.1427 0.279632C5.44324 -0.180503 7.47784 1.14664 8.03832 3.47247C8.11839 3.80536 8.13125 4.16193 8.13125 4.50814C8.13697 11.4516 8.13554 18.3936 8.13554 25.337Z" fill="url(#paint8_linear_316_1757)"/>
<path d="M55.9593 25.3296C55.9593 18.3625 55.9593 11.3954 55.9608 4.42824C55.9608 2.04324 57.6737 0.253 59.9513 0.241164C62.279 0.229328 64.0763 2.01513 64.0777 4.38978C64.0849 18.3492 64.0849 32.3071 64.0791 46.2665C64.0791 48.6367 62.2662 50.4891 59.9885 50.4906C57.7166 50.4906 55.9593 48.6367 55.9579 46.2295C55.9579 39.2624 55.9593 32.2967 55.9593 25.3296Z" fill="url(#paint9_linear_316_1757)"/>
<path d="M26.7987 25.4495C26.7987 29.422 26.8044 33.3931 26.7987 37.3656C26.7944 40.0243 24.9442 41.9108 22.4735 41.7968C20.2059 41.6918 18.6002 39.7935 18.5974 37.1703C18.5888 30.7743 18.5888 24.3798 18.5974 17.9837C18.6002 16.2113 18.6016 14.4373 18.6774 12.6678C18.7618 10.6852 20.5676 8.67303 23.2399 8.93786C25.2016 9.13168 26.7772 10.9308 26.7901 13.233C26.813 17.3046 26.7972 21.3763 26.7987 25.4495Z" fill="url(#paint10_linear_316_1757)"/>
<path d="M45.4031 25.2305C45.4031 26.9778 45.406 28.7237 45.4031 30.471C45.3989 32.7939 43.7074 34.6181 41.4884 34.6995C39.2879 34.7794 37.3348 32.964 37.2976 30.6545C37.2404 27.0873 37.2447 23.5172 37.2948 19.9486C37.3277 17.6568 39.2708 15.8547 41.4941 15.9139C43.6817 15.973 45.3989 17.8254 45.4046 20.1379C45.4089 21.835 45.4031 23.5335 45.4031 25.2305Z" fill="url(#paint11_linear_316_1757)"/>
<defs>
<linearGradient id="paint0_linear_316_1757" x1="0" y1="31.4652" x2="373.088" y2="31.4652" gradientUnits="userSpaceOnUse">
<stop stop-color="#5407D8"/>
<stop offset="0.271302" stop-color="#F94E6C"/>
<stop offset="1" stop-color="#FEC111"/>
</linearGradient>
<linearGradient id="paint1_linear_316_1757" x1="0" y1="31.4652" x2="373.088" y2="31.4652" gradientUnits="userSpaceOnUse">
<stop stop-color="#5407D8"/>
<stop offset="0.271302" stop-color="#F94E6C"/>
<stop offset="1" stop-color="#FEC111"/>
</linearGradient>
<linearGradient id="paint2_linear_316_1757" x1="0" y1="31.4652" x2="373.088" y2="31.4652" gradientUnits="userSpaceOnUse">
<stop stop-color="#5407D8"/>
<stop offset="0.271302" stop-color="#F94E6C"/>
<stop offset="1" stop-color="#FEC111"/>
</linearGradient>
<linearGradient id="paint3_linear_316_1757" x1="0" y1="31.4652" x2="373.088" y2="31.4652" gradientUnits="userSpaceOnUse">
<stop stop-color="#5407D8"/>
<stop offset="0.271302" stop-color="#F94E6C"/>
<stop offset="1" stop-color="#FEC111"/>
</linearGradient>
<linearGradient id="paint4_linear_316_1757" x1="0" y1="31.4652" x2="373.088" y2="31.4652" gradientUnits="userSpaceOnUse">
<stop stop-color="#5407D8"/>
<stop offset="0.271302" stop-color="#F94E6C"/>
<stop offset="1" stop-color="#FEC111"/>
</linearGradient>
<linearGradient id="paint5_linear_316_1757" x1="0" y1="31.4652" x2="373.088" y2="31.4652" gradientUnits="userSpaceOnUse">
<stop stop-color="#5407D8"/>
<stop offset="0.271302" stop-color="#F94E6C"/>
<stop offset="1" stop-color="#FEC111"/>
</linearGradient>
<linearGradient id="paint6_linear_316_1757" x1="0" y1="31.4652" x2="373.088" y2="31.4652" gradientUnits="userSpaceOnUse">
<stop stop-color="#5407D8"/>
<stop offset="0.271302" stop-color="#F94E6C"/>
<stop offset="1" stop-color="#FEC111"/>
</linearGradient>
<linearGradient id="paint7_linear_316_1757" x1="0" y1="31.4652" x2="373.088" y2="31.4652" gradientUnits="userSpaceOnUse">
<stop stop-color="#5407D8"/>
<stop offset="0.271302" stop-color="#F94E6C"/>
<stop offset="1" stop-color="#FEC111"/>
</linearGradient>
<linearGradient id="paint8_linear_316_1757" x1="0" y1="31.4652" x2="373.088" y2="31.4652" gradientUnits="userSpaceOnUse">
<stop stop-color="#5407D8"/>
<stop offset="0.271302" stop-color="#F94E6C"/>
<stop offset="1" stop-color="#FEC111"/>
</linearGradient>
<linearGradient id="paint9_linear_316_1757" x1="0" y1="31.4652" x2="373.088" y2="31.4652" gradientUnits="userSpaceOnUse">
<stop stop-color="#5407D8"/>
<stop offset="0.271302" stop-color="#F94E6C"/>
<stop offset="1" stop-color="#FEC111"/>
</linearGradient>
<linearGradient id="paint10_linear_316_1757" x1="0" y1="31.4652" x2="373.088" y2="31.4652" gradientUnits="userSpaceOnUse">
<stop stop-color="#5407D8"/>
<stop offset="0.271302" stop-color="#F94E6C"/>
<stop offset="1" stop-color="#FEC111"/>
</linearGradient>
<linearGradient id="paint11_linear_316_1757" x1="0" y1="31.4652" x2="373.088" y2="31.4652" gradientUnits="userSpaceOnUse">
<stop stop-color="#5407D8"/>
<stop offset="0.271302" stop-color="#F94E6C"/>
<stop offset="1" stop-color="#FEC111"/>
</linearGradient>
</defs>
</svg>
