<svg width="392" height="79" viewBox="0 0 392 79" fill="none" xmlns="http://www.w3.org/2000/svg">
<g clip-path="url(#clip0_316_1693)">
<path d="M12.8434 52.0847C12.8434 56.625 13.8399 60.1108 15.1424 62.2197C16.8502 64.9819 19.3974 66.1521 21.9942 66.1521C25.3435 66.1521 28.4076 65.3209 34.3124 57.1543C39.0429 50.6085 44.6169 41.4205 48.3673 35.6604L54.7187 25.9018C59.1308 19.1245 64.2375 11.5905 70.0927 6.48371C74.8728 2.31561 80.0292 0 85.2186 0C93.9311 0 102.23 5.04886 108.582 14.5181C115.532 24.8887 118.907 37.9512 118.907 51.4314C118.907 59.4451 117.327 65.3333 114.639 69.9852C112.043 74.4841 106.981 78.9789 98.4673 78.9789V66.1521C105.757 66.1521 107.577 59.4533 107.577 51.787C107.577 40.8623 105.03 28.7384 99.4183 20.0755C95.4363 13.9309 90.2758 10.1763 84.5984 10.1763C78.4579 10.1763 73.5165 14.8075 67.9632 23.0651C65.0108 27.4524 61.9798 32.799 58.5767 38.832L54.8304 45.4687C47.3046 58.8124 45.3984 61.8517 41.6355 66.8674C35.0402 75.6502 29.4083 78.9789 21.9942 78.9789C13.199 78.9789 7.63738 75.1706 4.19291 69.4311C1.3811 64.7544 0 58.6181 0 51.6257L12.8434 52.0847Z" fill="#0081FB"/>
<path d="M10.1267 15.4236C16.015 6.34726 24.5124 0 34.2587 0C39.903 0 45.5142 1.67055 51.3735 6.45477C57.7828 11.6856 64.6139 20.2988 73.1362 34.4943L76.1919 39.5887C83.5688 51.878 87.7659 58.2004 90.2221 61.1818C93.3812 65.0108 95.5935 66.1521 98.4673 66.1521C105.757 66.1521 107.577 59.4533 107.577 51.787L118.907 51.4314C118.907 59.4451 117.327 65.3333 114.639 69.9852C112.043 74.4841 106.981 78.9789 98.4673 78.9789C93.1745 78.9789 88.4854 77.8294 83.3 72.9376C79.3139 69.183 74.6537 62.5132 71.0686 56.5175L60.4044 38.7038C55.0537 29.7639 50.1454 23.0982 47.3047 20.0797C44.2489 16.8337 40.3206 12.9137 34.0519 12.9137C28.9783 12.9137 24.6696 16.4739 21.0638 21.9197L10.1267 15.4236Z" fill="url(#paint0_linear_316_1693)"/>
<path d="M34.0519 12.9137C28.9782 12.9137 24.6695 16.4739 21.0638 21.9197C15.9653 29.615 12.8434 41.0773 12.8434 52.0847C12.8434 56.625 13.8399 60.1108 15.1424 62.2197L4.19291 69.4311C1.3811 64.7544 0 58.6181 0 51.6257C0 38.9105 3.48996 25.6578 10.1267 15.4236C16.0149 6.34726 24.5124 0 34.2586 0L34.0519 12.9137Z" fill="url(#paint1_linear_316_1693)"/>
<path d="M143.874 2.49805H158.731L183.992 48.1983L209.257 2.49805H223.792V77.59H211.672V20.0388L189.516 59.8921H178.145L155.994 20.0388V77.59H143.874V2.49805ZM261.768 30.4963C253.076 30.4963 247.841 37.0379 246.588 45.1384H276.087C275.479 36.7939 270.666 30.4963 261.768 30.4963ZM234.572 49.7531C234.572 32.7085 245.587 20.3034 261.978 20.3034C278.101 20.3034 287.727 32.5514 287.727 50.6628V53.9915H246.588C248.048 62.8032 253.895 68.7411 263.322 68.7411C270.844 68.7411 275.546 66.4461 280.003 62.2491L286.441 70.1346C280.375 75.7127 272.659 78.9298 262.892 78.9298C245.149 78.9298 234.572 65.9913 234.572 49.7531ZM302.423 31.5714H291.267V21.6473H302.423V5.23543H314.117V21.6473H331.066V31.5714H314.117V56.7247C314.117 65.3132 316.863 68.3648 323.611 68.3648C326.692 68.3648 328.457 68.1002 331.066 67.666V77.4825C327.816 78.4005 324.715 78.8223 321.357 78.8223C308.733 78.8223 302.423 71.9251 302.423 58.1182V31.5714ZM380.306 41.2225C377.958 35.2929 372.718 30.9263 365.019 30.9263C355.012 30.9263 348.607 38.0261 348.607 49.5918C348.607 60.868 354.504 68.311 364.539 68.311C372.429 68.311 378.061 63.7212 380.306 58.0107V41.2225ZM392 77.59H380.521V69.7583C377.312 74.3688 371.474 78.9298 362.017 78.9298C346.808 78.9298 336.645 66.198 336.645 49.5918C336.645 32.8284 347.052 20.3034 362.662 20.3034C370.378 20.3034 376.432 23.3882 380.521 28.834V21.6473H392V77.59Z" fill="#192830"/>
</g>
<defs>
<linearGradient id="paint0_linear_316_1693" x1="25.2237" y1="48.3797" x2="107.097" y2="52.5148" gradientUnits="userSpaceOnUse">
<stop stop-color="#0064E1"/>
<stop offset="0.4" stop-color="#0064E1"/>
<stop offset="0.83" stop-color="#0073EE"/>
<stop offset="1" stop-color="#0082FB"/>
</linearGradient>
<linearGradient id="paint1_linear_316_1693" x1="18.6076" y1="57.4768" x2="18.6076" y2="27.2911" gradientUnits="userSpaceOnUse">
<stop stop-color="#0082FB"/>
<stop offset="1" stop-color="#0064E0"/>
</linearGradient>
<clipPath id="clip0_316_1693">
<rect width="392" height="78.9789" fill="white"/>
</clipPath>
</defs>
</svg>
