<svg width="270" height="54" viewBox="0 0 270 54" fill="none" xmlns="http://www.w3.org/2000/svg">
<g clip-path="url(#clip0_316_1817)">
<path d="M49.6761 18.5215V52.1386H35.2229V23.1251C35.2229 14.5603 29.977 11.9908 25.0522 11.9908C22.3757 11.9908 19.485 12.6332 16.7014 15.6309L16.0591 15.2026C18.2003 4.49655 25.0522 0 33.1888 0C41.3254 0 49.6761 4.38949 49.6761 18.5215Z" fill="black"/>
<path d="M93.571 37.8987L94.1063 38.3269C92.1792 49.14 85.6485 53.5295 77.619 53.5295C69.3753 53.5295 60.7034 49.1401 60.7034 35.008V1.49805H75.2636V30.5115C75.2636 39.0763 80.5096 41.6458 85.4344 41.6458C87.8968 41.6458 90.8945 40.8964 93.571 37.8987Z" fill="black"/>
<path d="M171.083 18.5215V52.1386H156.63V23.1251C156.63 14.5603 151.384 11.9908 146.459 11.9908C143.89 11.9908 140.999 12.6332 138.215 15.6309L137.68 15.2026C139.714 4.49655 146.566 0 154.703 0C162.732 0 171.083 4.38949 171.083 18.5215Z" fill="black"/>
<path d="M14.5603 1.49805H0V52.2448H14.5603V1.49805Z" fill="black"/>
<path d="M110.38 1.49805H95.8193V52.2448H110.38V1.49805Z" fill="black"/>
<path d="M136.074 1.49805H121.514V52.2448H136.074V1.49805Z" fill="black"/>
<path d="M206.092 18.5215V52.1386H191.532V23.1251C191.532 14.5603 186.286 11.9908 181.361 11.9908C178.791 11.9908 175.794 12.6332 173.117 15.6309L172.582 15.2026C174.509 4.49655 181.468 0 189.497 0C197.741 0 206.092 4.38949 206.092 18.5215Z" fill="black"/>
<path d="M230.288 26.7655C230.288 35.7586 235.641 42.2893 243.349 42.2893C247.31 42.2893 250.522 40.5764 253.199 37.7928L253.734 38.221C252.128 49.4624 244.848 53.6378 237.139 53.6378C224.292 53.6378 215.299 41.9681 215.299 26.8726C215.299 11.777 224.292 0.107422 237.139 0.107422C244.741 0.107422 252.128 4.17573 253.734 15.5242L253.199 15.9524C250.415 13.0618 247.203 11.5629 243.349 11.5629C235.641 11.4559 230.288 17.8795 230.288 26.7655Z" fill="black"/>
<path d="M269.9 1.49805H255.447V52.1377H269.9V1.49805Z" fill="black"/>
</g>
<defs>
<clipPath id="clip0_316_1817">
<rect width="269.9" height="53.5303" fill="white"/>
</clipPath>
</defs>
</svg>
