<svg width="277" height="102" viewBox="0 0 277 102" fill="none" xmlns="http://www.w3.org/2000/svg">
<g clip-path="url(#clip0_316_1689)">
<path d="M254.413 35.6563V25.088H268.731C268.748 25.4628 268.777 25.8288 268.777 26.194C268.78 37.6324 268.779 49.0708 268.779 60.5101C268.779 66.6806 268.766 72.851 268.792 79.0215C268.796 80.0925 268.887 81.1776 269.081 82.2294C269.521 84.6223 270.898 85.8035 273.326 85.9494C274.251 86.0053 275.181 85.9738 276.109 85.9869C276.392 85.9913 276.676 86.0123 277.009 86.028V99.5387C276.778 99.5623 276.557 99.6042 276.336 99.6051C274.219 99.6094 272.102 99.6173 269.986 99.6051C268.002 99.5928 266.055 99.3098 264.166 98.6956C259.597 97.2096 256.846 94.0767 255.851 89.3722C255.77 88.987 255.692 88.6017 255.589 88.1011C255.39 88.3431 255.259 88.4855 255.148 88.6428C250.429 95.3077 243.98 99.1892 235.988 100.466C224.278 102.337 214.045 99.1447 205.398 91.0452C199.469 85.4925 195.857 78.5751 194.321 70.6093C192.748 62.4479 193.305 54.4122 196.53 46.7129C201.14 35.7069 209.102 28.2654 220.605 24.9709C228.52 22.7047 236.337 23.2708 243.841 26.7985C247.963 28.7362 251.368 31.5808 253.954 35.3723C254.033 35.4876 254.123 35.5969 254.207 35.7087C254.275 35.6921 254.344 35.6755 254.412 35.658L254.413 35.6563ZM254.512 62.0041C254.533 59.6138 254.183 56.9685 253.409 54.3895C251.74 48.8306 248.615 44.3419 243.621 41.3025C239.31 38.679 234.593 37.7451 229.603 38.2536C221.584 39.0704 215.598 43.0507 211.86 50.2031C208.709 56.2302 208.256 62.6453 209.86 69.2054C211.078 74.1842 213.613 78.3942 217.617 81.6205C222.686 85.7039 228.535 87.1384 234.91 86.325C242.649 85.3378 248.262 81.2029 251.817 74.2742C253.737 70.5333 254.529 66.5041 254.512 62.0041Z" fill="#132777"/>
<path d="M76.8136 62.3667C76.7928 69.4876 75.2224 76.2163 71.6075 82.3824C66.6668 90.8086 59.4736 96.4522 50.1637 99.2391C39.9881 102.285 30.0004 101.583 20.5095 96.7361C9.87634 91.3057 3.38349 82.5344 0.937037 70.8365C-0.784703 62.6008 -0.17483 54.4813 3.1077 46.7034C7.61519 36.0233 15.4905 28.8709 26.5195 25.5135C38.2333 21.9473 49.4964 23.2901 59.8738 29.955C68.4981 35.493 73.7069 43.5234 75.9106 53.529C76.5509 56.4347 76.8397 59.3859 76.8145 62.3658L76.8136 62.3667ZM38.3716 86.4727C39.038 86.4727 39.7053 86.4893 40.3709 86.4666C40.7746 86.4535 41.1782 86.388 41.5793 86.3321C48.9369 85.3134 54.5485 81.6075 58.1416 75.0946C61.7965 68.4699 62.2646 61.4205 60.1209 54.221C58.4069 48.4629 54.9704 43.9654 49.7121 41.0012C45.0445 38.3707 40.009 37.5809 34.7472 38.4249C26.9528 39.675 21.3395 43.9523 17.9665 51.0829C15.3643 56.5833 14.9319 62.3763 16.1847 68.3004C17.2061 73.1263 19.436 77.3101 23.0656 80.6727C27.3791 84.6687 32.5452 86.485 38.3716 86.471V86.4727Z" fill="#132777"/>
<path d="M119.272 59.0843C130.138 72.5706 140.959 86 151.878 99.5517C151.472 99.5762 151.225 99.6033 150.978 99.6033C145.209 99.6059 139.439 99.598 133.669 99.6164C133.126 99.6181 132.775 99.4644 132.427 99.0284C124.3 88.8594 116.157 78.7034 108.016 68.5449C107.871 68.3632 107.718 68.1876 107.582 67.9997C107.399 67.7473 107.178 67.6215 106.849 67.6258C105.458 67.6424 104.066 67.6346 102.674 67.6407C102.593 67.6407 102.512 67.6835 102.346 67.7298V99.4294C101.655 99.6391 88.7531 99.709 87.2976 99.5308V0.146682C87.9197 -0.0166866 101.165 -0.0629889 102.308 0.108242V53.7115C102.66 53.7342 102.913 53.7622 103.166 53.7639C104.152 53.7692 105.14 53.7325 106.124 53.7788C106.685 53.805 107.015 53.6084 107.336 53.1507C109.577 49.9654 111.847 46.802 114.108 43.6307C118.359 37.6682 122.615 31.7092 126.85 25.7344C127.205 25.2338 127.561 25.0119 128.191 25.0154C133.265 25.0425 138.339 25.0303 143.414 25.0303C143.644 25.0303 143.874 25.0303 144.085 25.0303C144.116 25.0993 144.132 25.1246 144.139 25.1526C144.145 25.1788 144.156 25.2172 144.143 25.2338C135.872 36.494 127.598 47.7534 119.273 59.0835L119.272 59.0843Z" fill="#132777"/>
<path d="M189.781 38.6405H170.837C170.806 38.9209 170.765 39.1149 170.765 39.3079C170.766 52.7522 170.765 66.1956 170.79 79.6399C170.792 80.5625 170.931 81.4964 171.109 82.4049C171.489 84.34 172.728 85.4478 174.637 85.7675C175.49 85.9099 176.365 85.9693 177.231 85.9737C181.173 85.9947 185.116 85.9825 189.059 85.9842C189.288 85.9842 189.517 86.0043 189.735 86.0148C189.923 86.6586 189.966 98.5016 189.781 99.5648C189.513 99.5779 189.231 99.6032 188.95 99.6032C183.296 99.6058 177.643 99.6032 171.99 99.6058C169.916 99.6058 167.883 99.3097 165.921 98.6405C160.772 96.8845 157.661 93.2598 156.337 88.0171C155.835 86.0288 155.683 83.9984 155.682 81.9594C155.675 54.9546 155.677 27.9508 155.679 0.945995C155.679 0.662939 155.704 0.379883 155.72 0.0566406H170.733C170.795 2.82342 170.753 5.57623 170.761 8.32729C170.769 11.0915 170.763 13.8565 170.763 16.6207C170.763 19.3848 170.763 22.1402 170.763 25.0293C173.974 25.0293 177.121 25.0302 180.268 25.0302C183.425 25.0302 186.582 25.0302 189.722 25.0302C189.925 25.6881 189.976 37.4471 189.783 38.6396L189.781 38.6405Z" fill="#132777"/>
</g>
<defs>
<clipPath id="clip0_316_1689">
<rect width="277" height="101.068" fill="white"/>
</clipPath>
</defs>
</svg>
