<svg width="77" height="26" viewBox="0 0 77 26" fill="none" xmlns="http://www.w3.org/2000/svg">
<g clip-path="url(#clip0_3303_26409)">
<path d="M69.7793 16.6889C67.6288 16.6889 66.1129 15.0109 66.1129 12.804C66.1129 10.5972 67.6288 8.91911 69.7793 8.91911C71.9297 8.91911 73.4033 10.5972 73.4033 12.804C73.4033 15.0109 71.9086 16.6889 69.7793 16.6889ZM69.4338 19.0015C71.1683 19.0015 72.6418 18.3247 73.5725 16.9075C73.7488 18.2824 74.7429 18.783 75.9979 18.783H76.9991V16.6043H76.569C75.8569 16.6043 75.6807 16.2588 75.6807 15.448V6.83212H73.3822V8.60183C72.5995 7.36092 71.126 6.61355 69.4338 6.61355C66.4161 6.61355 63.6452 9.14473 63.6452 12.804C63.6452 16.4633 66.4232 18.9945 69.4338 18.9945V19.0015ZM57.5958 16.0121C57.5958 17.9721 58.8085 18.783 60.2609 18.783H63.06V16.6043H61.0224C60.1763 16.6043 60 16.28 60 15.448V9.01077H63.06V6.83212H60V2.82031H57.5958V16.0121ZM46.6461 18.783H49.0504V13.6571H49.8542L53.9506 18.783H56.9894L51.7649 12.2823L55.7767 6.83212H53.0693L49.7907 11.4362H49.0504V2.82031H46.6461V18.783ZM38.8411 6.61355C35.4779 6.61355 32.707 9.14473 32.707 12.804C32.707 16.4633 35.485 18.9945 38.8411 18.9945C42.1972 18.9945 44.9751 16.4633 44.9751 12.804C44.9751 9.14473 42.1972 6.61355 38.8411 6.61355ZM38.8411 16.6889C36.6906 16.6889 35.1748 15.0109 35.1748 12.804C35.1748 10.5972 36.6906 8.91911 38.8411 8.91911C40.9915 8.91911 42.5074 10.5972 42.5074 12.804C42.5074 15.0109 40.9915 16.6889 38.8411 16.6889Z" fill="black"/>
<path fill-rule="evenodd" clip-rule="evenodd" d="M13.961 0.182125L13.4393 6.61231C13.1925 6.5841 12.9457 6.57 12.6919 6.57C12.3746 6.57 12.0644 6.59115 11.7612 6.64051L11.4651 3.52413C11.458 3.42542 11.5356 3.34081 11.6343 3.34081H12.1631L11.9093 0.189176C11.9022 0.090467 11.9798 0.00585938 12.0715 0.00585938H13.7989C13.8976 0.00585938 13.9751 0.090467 13.961 0.189176V0.182125ZM9.60373 0.499404C9.57553 0.407746 9.47682 0.351341 9.38516 0.386594L7.76352 0.978847C7.67186 1.0141 7.62955 1.11986 7.67186 1.20447L8.99033 4.08113L8.48973 4.26444C8.39807 4.2997 8.35577 4.40546 8.39807 4.49006L9.74474 7.31737C10.2312 7.04945 10.76 6.84498 11.317 6.71806L9.61078 0.499404H9.60373ZM5.62717 2.29027L9.35696 7.55004C8.88457 7.86027 8.45448 8.2269 8.08784 8.64994L5.85279 6.45014C5.78229 6.37963 5.78934 6.26682 5.85984 6.20337L6.26878 5.86494L4.04783 3.61579C3.97732 3.54528 3.98437 3.43247 4.06193 3.36901L5.3804 2.26206C5.45796 2.19861 5.56372 2.21271 5.62012 2.29027H5.62717ZM2.49669 5.33614C2.41913 5.27974 2.30632 5.30794 2.25697 5.39255L1.39679 6.88728C1.34744 6.97189 1.38269 7.07765 1.4673 7.11995L4.32986 8.47367L4.06193 8.93196C4.01258 9.01657 4.04783 9.12938 4.13949 9.16464L6.98795 10.469C7.19241 9.94021 7.46739 9.44666 7.80582 9.00247L2.49669 5.33614ZM0.38855 9.39731C0.402651 9.2986 0.50136 9.24219 0.593018 9.26335L6.83283 10.892C6.67067 11.4208 6.57901 11.9778 6.56491 12.556L3.44148 12.3022C3.34277 12.2951 3.27226 12.2035 3.29341 12.1048L3.38507 11.583L0.233436 11.2869C0.134727 11.2798 0.071271 11.1882 0.0853723 11.0895L0.381499 9.39026L0.38855 9.39731ZM0.155879 13.6136C0.0571698 13.6206 -0.00628597 13.7123 0.0078153 13.811L0.310993 15.5102C0.325094 15.6089 0.423803 15.6653 0.515461 15.6442L3.57544 14.8474L3.6671 15.3692C3.6812 15.4679 3.77991 15.5243 3.87156 15.5032L6.88924 14.6712C6.71297 14.1494 6.60016 13.5924 6.57196 13.0213L0.148828 13.6136H0.155879ZM1.15707 18.0837C1.10771 17.9991 1.14297 17.8933 1.22758 17.851L7.0514 15.0872C7.26997 15.6089 7.5661 16.0954 7.91863 16.5326L5.3663 18.3516C5.28874 18.408 5.17593 18.3869 5.12658 18.3023L4.85865 17.8369L2.25697 19.6348C2.17941 19.6912 2.0666 19.663 2.01725 19.5784L1.15002 18.0837H1.15707ZM8.21476 16.871L3.6812 21.4609C3.61069 21.5315 3.61774 21.6443 3.6953 21.7077L5.02082 22.8147C5.09837 22.8781 5.20413 22.864 5.26054 22.7865L7.09371 20.2059L7.50264 20.5514C7.5802 20.6149 7.69301 20.6008 7.74941 20.5162L9.52617 17.9356C9.04673 17.6395 8.60254 17.2799 8.22181 16.871H8.21476ZM7.31933 24.2389C7.22767 24.2036 7.18536 24.0979 7.22767 24.0133L9.91396 18.1471C10.4075 18.401 10.9434 18.5913 11.5004 18.6971L10.7107 21.7289C10.6895 21.8205 10.5838 21.8769 10.4921 21.8417L9.99152 21.6584L9.15249 24.7113C9.12429 24.8029 9.02558 24.8594 8.93392 24.8241L7.31227 24.2318L7.31933 24.2389ZM11.9445 18.7747L11.4228 25.2048C11.4157 25.3035 11.4933 25.3882 11.585 25.3882H13.3124C13.4111 25.3882 13.4886 25.3035 13.4745 25.2048L13.2207 22.0532H13.7495C13.8482 22.0532 13.9258 21.9686 13.9187 21.8699L13.6226 18.7535C13.3194 18.8029 13.0092 18.824 12.6919 18.824C12.4381 18.824 12.1913 18.8099 11.9445 18.7747ZM18.1632 1.36663C18.2055 1.27497 18.1632 1.17627 18.0715 1.14101L16.4499 0.548758C16.3582 0.513505 16.2595 0.56991 16.2313 0.661569L15.3923 3.71449L14.8917 3.53118C14.8001 3.49592 14.7013 3.55233 14.6731 3.64399L13.8835 6.67576C14.4475 6.78857 14.9763 6.97894 15.4699 7.22571L18.1632 1.36663ZM21.7026 3.92601L17.1691 8.51598C16.7883 8.10704 16.3512 7.74746 15.8647 7.45133L17.6415 4.8708C17.6979 4.79324 17.8107 4.77209 17.8882 4.83555L18.2972 5.18103L20.1303 2.60049C20.1867 2.52294 20.2995 2.50884 20.3701 2.57229L21.6956 3.67924C21.7731 3.7427 21.7731 3.85551 21.7097 3.92601H21.7026ZM24.1562 7.53594C24.2479 7.49363 24.2761 7.38788 24.2268 7.30327L23.3595 5.80853C23.3102 5.72393 23.1974 5.70277 23.1198 5.75213L20.5181 7.55004L20.2502 7.09175C20.2008 7.00714 20.088 6.97894 20.0105 7.04239L17.4581 8.86146C17.8107 9.2986 18.0997 9.78509 18.3254 10.3068L24.1492 7.54299L24.1562 7.53594ZM25.0728 9.87675L25.369 11.576C25.3831 11.6747 25.3196 11.7593 25.2209 11.7734L18.7978 12.3727C18.7696 11.7945 18.6567 11.2446 18.4805 10.7228L21.4982 9.89085C21.5898 9.86265 21.6885 9.9261 21.7026 10.0248L21.7943 10.5466L24.8543 9.74984C24.9459 9.72869 25.0446 9.78509 25.0587 9.8838L25.0728 9.87675ZM24.7838 16.1166C24.8754 16.1377 24.9741 16.0813 24.9882 15.9826L25.2843 14.2834C25.2984 14.1847 25.235 14.1001 25.1363 14.086L21.9846 13.7899L22.0763 13.2681C22.0904 13.1694 22.027 13.0848 21.9282 13.0707L18.8048 12.8169C18.7907 13.395 18.6991 13.952 18.5369 14.4808L24.7767 16.1095L24.7838 16.1166ZM23.1198 19.9944C23.0704 20.079 22.9576 20.1002 22.8801 20.0508L17.571 16.3845C17.9094 15.9403 18.1844 15.4468 18.3888 14.918L21.2373 16.2223C21.3289 16.2646 21.3642 16.3704 21.3148 16.455L21.0469 16.9133L23.9095 18.267C23.9941 18.3093 24.0293 18.4151 23.98 18.4997L23.1198 19.9944ZM16.0198 17.8299L19.7496 23.0896C19.806 23.1672 19.9188 23.1813 19.9893 23.1178L21.3078 22.0109C21.3853 21.9474 21.3853 21.8346 21.3219 21.7641L19.1009 19.515L19.5099 19.1765C19.5874 19.1131 19.5874 19.0003 19.5169 18.9298L17.2819 16.73C16.9082 17.153 16.4852 17.5267 16.0128 17.8299H16.0198ZM15.9846 24.9933C15.8929 25.0286 15.7942 24.9722 15.766 24.8805L14.0597 18.6618C14.6167 18.5349 15.1455 18.3305 15.632 18.0625L16.9787 20.8898C17.021 20.9815 16.9787 21.0873 16.887 21.1155L16.3864 21.2988L17.7049 24.1754C17.7472 24.2671 17.7049 24.3658 17.6133 24.4011L15.9916 24.9933H15.9846Z" fill="black"/>
</g>
<defs>
<clipPath id="clip0_3303_26409">
<rect width="77" height="25.3823" fill="white"/>
</clipPath>
</defs>
</svg>
