<svg width="70" height="31" viewBox="0 0 70 31" fill="none" xmlns="http://www.w3.org/2000/svg">
<g clip-path="url(#clip0_3303_26226)">
<mask id="mask0_3303_26226" style="mask-type:luminance" maskUnits="userSpaceOnUse" x="0" y="0" width="70" height="31">
<path d="M0 31H69.1574V-0.000515606H0V31Z" fill="white"/>
</mask>
<g mask="url(#mask0_3303_26226)">
<path d="M23.5122 15.564C25.003 15.564 25.8741 14.6733 25.8741 13.5123V13.4737C25.8741 12.138 24.9454 11.4213 23.4546 11.4213H21.1509V15.564H23.5122ZM18.1699 8.73091H23.7065C26.9389 8.73091 28.8944 10.6465 28.8944 13.4154V13.4541C28.8944 16.5902 26.4552 18.2158 23.4153 18.2158H21.1509V22.2812H18.1699V8.73091Z" fill="#393536"/>
<path d="M36.192 11.4796H32.0684V8.73092H43.2961V11.4796H39.173V22.2812H36.192V11.4796Z" fill="#393536"/>
<path d="M48.0391 8.7309H51.0194V22.2812H48.0391V8.7309Z" fill="#393536"/>
<path d="M55.5684 8.72976H58.8589L62.4014 18.2736L65.944 8.72976H69.1573L63.6789 22.377H61.0461L55.5684 8.72976Z" fill="#393536"/>
<path d="M7.02288 19.6092C4.75783 19.6092 2.91491 17.7663 2.91491 15.5006C2.91491 13.2349 4.75783 11.3926 7.02288 11.3926C9.28923 11.3926 11.1308 13.2349 11.1308 15.5006C11.1308 17.7663 9.28923 19.6092 7.02288 19.6092ZM7.02288 8.47835C3.15051 8.47835 0 11.6282 0 15.5006C0 19.3723 3.15051 22.5215 7.02288 22.5215C10.8952 22.5215 14.0458 19.3723 14.0458 15.5006C14.0458 11.6282 10.8952 8.47835 7.02288 8.47835Z" fill="#393536"/>
<path d="M7.02226 25.2474C3.58314 25.2474 0.716007 27.7323 0.117188 31H3.11521C3.6512 29.3534 5.19897 28.1597 7.02226 28.1597C8.84555 28.1597 10.394 29.3534 10.9293 31H13.9286C13.3292 27.7323 10.4614 25.2474 7.02226 25.2474Z" fill="#186DBF"/>
<path d="M7.02292 5.75391C10.462 5.75391 13.3298 3.26897 13.9286 0.000658598H10.93C10.394 1.64725 8.84621 2.84162 7.02292 2.84162C5.20028 2.84162 3.6512 1.64725 3.11587 0.000658598H0.117188C0.716007 3.26897 3.5838 5.75391 7.02292 5.75391Z" fill="#66A6D8"/>
</g>
</g>
<defs>
<clipPath id="clip0_3303_26226">
<rect width="69.1574" height="31" fill="white"/>
</clipPath>
</defs>
</svg>
