<svg width="345" height="155" viewBox="0 0 345 155" fill="none" xmlns="http://www.w3.org/2000/svg">
<g clip-path="url(#clip0_316_6255)">
<mask id="mask0_316_6255" style="mask-type:luminance" maskUnits="userSpaceOnUse" x="0" y="0" width="345" height="155">
<path d="M0 154.65H345V0.000668473H0V154.65Z" fill="white"/>
</mask>
<g mask="url(#mask0_316_6255)">
<path d="M117.292 77.6426C124.729 77.6426 129.074 73.1992 129.074 67.4074V67.2148C129.074 60.5514 124.442 56.9764 117.004 56.9764H105.512V77.6426H117.292ZM90.6413 43.5549H118.261C134.386 43.5549 144.141 53.1109 144.141 66.9243V67.1169C144.141 82.7617 131.973 90.8715 116.809 90.8715H105.512V111.152H90.6413V43.5549Z" fill="#393536"/>
<path d="M180.546 57.267H159.975V43.5549H215.985V57.267H195.417V111.152H180.546V57.267Z" fill="#393536"/>
<path d="M239.648 43.5529H254.516V111.15H239.648V43.5529Z" fill="#393536"/>
<path d="M277.213 43.5541H293.628L311.3 91.1645L328.973 43.5541H345.003L317.673 111.635H304.539L277.213 43.5541Z" fill="#393536"/>
<path d="M35.0334 97.8233C23.7339 97.8233 14.5403 88.6296 14.5403 77.3269C14.5403 66.0242 23.7339 56.8338 35.0334 56.8338C46.3393 56.8338 55.5264 66.0242 55.5264 77.3269C55.5264 88.6296 46.3393 97.8233 35.0334 97.8233ZM35.0334 42.2957C15.7156 42.2957 -0.001091 58.0092 -0.001091 77.3269C-0.001091 96.6414 15.7156 112.352 35.0334 112.352C54.3511 112.352 70.0678 96.6414 70.0678 77.3269C70.0678 58.0092 54.3511 42.2957 35.0334 42.2957Z" fill="#393536"/>
<path d="M35.0306 125.951C17.8741 125.951 3.57108 138.347 0.583794 154.648H15.5398C18.2137 146.434 25.9349 140.479 35.0306 140.479C44.1263 140.479 51.8508 146.434 54.5214 154.648H69.4839C66.4933 138.347 52.187 125.951 35.0306 125.951Z" fill="#186DBF"/>
<path d="M35.0333 28.7012C52.1898 28.7012 66.4961 16.3048 69.4834 0.00041595H54.5241C51.8503 8.21462 44.129 14.1729 35.0333 14.1729C25.9409 14.1729 18.2131 8.21462 15.5425 0.00041595H0.583286C3.57057 16.3048 17.8769 28.7012 35.0333 28.7012Z" fill="#66A6D8"/>
</g>
</g>
<defs>
<clipPath id="clip0_316_6255">
<rect width="345" height="154.647" fill="white"/>
</clipPath>
</defs>
</svg>
