<svg width="279" height="51" viewBox="0 0 279 51" fill="none" xmlns="http://www.w3.org/2000/svg">
<path d="M88.8737 17.0292C88.8737 15.5343 88.437 14.3472 87.5633 13.4679C86.6898 12.5885 85.2483 12.1488 83.1518 12.1488H79.7012V22.0855H83.1518C85.3794 22.0855 86.908 21.6018 87.7381 20.6346C88.4807 19.7112 88.8737 18.5241 88.8737 17.0292ZM99.5314 16.8973C99.5314 20.5027 98.7014 23.4925 96.9979 25.8227C94.8141 28.8566 91.1887 30.3954 86.122 30.3954H79.6575V43.6296H69.3491V3.75098H85.7287C90.4023 3.75098 93.9403 5.11399 96.3427 7.88394C98.4832 10.2582 99.5314 13.248 99.5314 16.8973Z" fill="#6E6A79"/>
<path d="M122.761 28.8126L118.48 16.1059L114.156 28.8126H122.761ZM139.14 43.6296H128.133L125.6 36.6828H111.36L108.652 43.6296H97.7764L113.02 3.75098H124.246L139.14 43.6296Z" fill="#6E6A79"/>
<path d="M173.291 3.75098L158.484 24.4597V43.6296H148.175V24.4597L133.849 3.75098H146.166L153.635 14.611L160.843 3.75098H173.291Z" fill="#6E6A79"/>
<path d="M191.056 31.3628C191.056 32.9896 190.968 34.3086 190.75 35.3198C190.357 37.5182 189.178 39.4966 187.256 41.2995C184.766 43.5856 181.708 44.7288 178.127 44.7288C173.89 44.7288 170.439 42.7502 167.818 38.8372L174.545 31.9341C174.851 34.5284 175.986 35.8034 177.908 35.8034C179.874 35.8034 180.835 34.2646 180.791 31.1868L180.747 28.9883V3.75098H191.056V31.3628Z" fill="#8CC541"/>
<path d="M229.992 23.8438C229.992 21.0299 229.118 18.6117 227.328 16.5452C225.056 13.9511 222.173 12.6321 218.723 12.6321C216.364 12.6321 214.224 13.2916 212.302 14.6546C210.38 15.9736 209.026 17.7763 208.196 20.0186C207.716 21.2937 207.497 22.5688 207.497 23.8879C207.497 26.5699 208.371 28.9881 210.162 31.0985C212.389 33.7365 215.228 35.0558 218.723 35.0558C222.217 35.0558 225.056 33.7365 227.328 31.1425C229.118 29.0321 229.992 26.6139 229.992 23.8438ZM240.693 23.8438C240.693 29.2519 238.902 34.0003 235.321 38.0893C231.259 42.7499 225.711 45.0801 218.766 45.0801C211.821 45.0801 206.318 42.7499 202.212 38.0893C198.63 34.0003 196.839 29.2519 196.839 23.8438C196.839 21.3817 197.32 18.8315 198.281 16.2374C199.242 13.6433 200.552 11.401 202.168 9.55436C206.23 4.89377 211.778 2.56348 218.723 2.56348C225.667 2.56348 231.215 4.89377 235.277 9.55436C238.902 13.6433 240.693 18.3919 240.693 23.8438Z" fill="#8CC541"/>
<path d="M278.069 3.75098L263.262 24.4597V43.6296H252.954V24.4597L238.627 3.75098H250.944L258.413 14.611L265.621 3.75098H278.069Z" fill="#8CC541"/>
<path fill-rule="evenodd" clip-rule="evenodd" d="M50.8862 0.0126379C46.4308 -0.031318 17.8649 -0.207204 11.1382 4.62924C5.15414 8.93809 1.61614 15.4013 0.786234 22.2163C0.436804 23.6233 0.218418 25.0301 0.0873742 26.4812C0.0437034 26.9648 0 27.4047 0 27.8882V28.7236V41.2542C17.1659 13.5107 42.7617 2.82657 50.8862 0.0126379Z" fill="#6E6A79"/>
<path fill-rule="evenodd" clip-rule="evenodd" d="M2.375 50.4444H16.1776C16.1776 50.4444 33.0812 51.1041 40.3758 45.8278C46.3598 41.519 49.8978 35.0557 50.7279 28.2407C51.0772 26.834 51.2957 25.4269 51.4265 23.9759C51.4702 23.4923 51.5139 23.0526 51.5139 22.5689V21.7336L51.5576 0.321289C20.8512 17.073 7.74753 37.9138 2.375 50.4444Z" fill="#8CC541"/>
</svg>
