<svg width="580" height="91" viewBox="0 0 580 91" fill="none" xmlns="http://www.w3.org/2000/svg">
<g clip-path="url(#clip0_316_1847)">
<path d="M82.6376 81.6593H83.3576C83.8561 81.6593 84.1884 81.9178 84.1884 82.5824C84.1884 83.044 83.9853 83.6163 83.3576 83.6163H82.6376V81.6408M82.6376 84.6133H83.0438C84.2807 84.6133 84.1515 85.3333 84.1515 86.1641C84.1515 86.6441 84.1515 87.1057 84.3546 87.5303H85.9239C85.7762 87.2349 85.7393 85.9241 85.7393 85.4625C85.7393 84.1886 84.7054 84.1148 84.3546 84.0963V84.0594C85.4069 83.8932 85.7762 83.2286 85.7762 82.3239C85.7762 81.1239 85.0746 80.4777 83.9853 80.4777H81.0314V87.5303H82.6376V84.6133ZM83.413 77.9668C80.0344 77.9668 77.3389 80.6623 77.3389 84.0409C77.3389 87.4196 80.0528 90.1335 83.413 90.1335C86.7732 90.1335 89.4687 87.4196 89.4687 84.0409C89.4687 80.6623 86.7732 77.9668 83.413 77.9668ZM83.413 88.9889C80.6806 88.9889 78.4651 86.7549 78.4651 84.0409C78.4651 81.327 80.6621 79.1115 83.413 79.1115C86.1639 79.1115 88.324 81.3085 88.324 84.0409C88.324 86.7734 86.1085 88.9889 83.413 88.9889Z" fill="#F58025"/>
<path d="M67.1663 51.2886H57.8981C58.3597 49.9962 58.1751 48.5562 57.2889 47.0422L42.1682 20.8441C39.9527 17.0223 37.7556 13.9761 35.5771 11.7236C35.614 11.7421 35.6694 11.779 35.7063 11.7975C41.762 15.1207 53.8549 21.9334 77.0252 35.5586L78.3545 36.334C82.6378 38.8265 85.1856 42.6666 84.4286 45.4914C83.4317 49.1654 77.1544 51.2886 67.1847 51.2886M36.9802 77.4129L35.6694 78.1514C31.3861 80.6069 26.7705 80.9023 24.7027 78.8345C22.0072 76.139 23.318 69.6218 28.3029 60.9998L32.937 52.9687C33.8232 54.021 35.1524 54.5564 36.9248 54.5564H67.1663C71.5788 54.5564 75.3082 54.1687 78.3545 53.4118C78.3176 53.4302 78.2807 53.4672 78.2253 53.4856C72.3173 57.0673 60.3536 64.1384 36.9618 77.4129H36.9802ZM20.7702 21.8041V20.2902C20.7887 15.3423 22.8565 11.2067 25.6812 10.4497C29.3737 9.47122 34.3401 13.8653 39.3249 22.4872L43.959 30.5184C42.6113 30.7584 41.4666 31.6446 40.5804 33.177L25.4597 59.3751C23.2626 63.1969 21.7303 66.6309 20.8625 69.6402C20.8625 69.5849 20.8625 69.5479 20.8625 69.4925C20.7148 62.5691 20.5671 48.6854 20.7702 21.8041ZM44.9375 0C20.124 0 0 20.124 0 44.9375C0 69.751 20.124 89.8751 44.9375 89.8751C69.751 89.8751 89.8751 69.751 89.8751 44.9375C89.8751 20.124 69.751 0 44.9375 0Z" fill="#F58025"/>
<path d="M136.53 12.1855H106.399V15.1211L106.99 15.1949C117.476 16.4688 118.547 17.8535 118.547 23.1891V78.9457H130.492V49.9597H135.311C146.665 49.9597 170.279 49.9597 170.279 31.128C170.279 12.2963 148.327 12.204 136.548 12.204L136.53 12.1855ZM135.053 44.8086H130.474V23.1707C130.474 18.0935 130.474 17.3181 140.167 17.3181C151.06 17.3181 157.06 22.2106 157.06 31.1095C157.06 43.1839 145.927 44.8086 135.034 44.8086H135.053Z" fill="#0069AA"/>
<path d="M237.814 12.1855H230.798V64.2126C228.952 61.6279 193.449 12.1855 193.449 12.1855H168.1V15.1026L168.691 15.1765C178.938 16.5058 180.248 16.9673 180.248 24.3338V78.9272H187.947V22.9676C189.812 25.5523 228.214 78.9272 228.214 78.9272H238.497V12.1855H237.833H237.814Z" fill="#0069AA"/>
<path d="M247.655 43.3691C247.655 61.5915 258.769 79.9801 283.62 79.9801C295.417 79.9801 301.233 78.6877 306.624 77.2292L307.123 77.0999V71.635L306.199 71.8751C300.458 73.4074 294.827 74.2567 290.322 74.2567C270.475 74.2567 260.819 63.327 260.819 40.8397C260.819 25.8113 267.964 16.8386 279.927 16.8386C287.959 16.8386 292.666 19.9957 293.922 26.199L294.033 26.7344H307.178L307.086 25.9775C306.643 22.4881 303.412 11.1152 280.647 11.1152C257.883 11.1152 247.618 21.9711 247.618 43.3506L247.655 43.3691Z" fill="#0069AA"/>
<path d="M365.408 43.3327C371.279 41.468 376.818 36.8155 376.818 28.5259C376.818 12.2051 357.414 12.2051 351.044 12.2051H316.538V15.1037L319.234 15.6206C326.286 16.9684 330.163 17.7069 330.163 23.9656V78.9652H350.306C358.632 78.9652 380.732 78.9652 380.732 60.6874C380.732 51.6039 375.415 45.6774 365.427 43.3512L365.408 43.3327ZM341.241 23.9656C341.241 17.9838 341.241 17.3561 348.7 17.3561C359.334 17.3561 364.503 21.2701 364.503 29.3013C364.503 39.9172 353.961 41.1357 346.023 41.1357H341.241V23.9656ZM349.844 73.7772C344.109 73.7772 341.241 71.3464 341.241 66.4846V46.2867H346.023C352.724 46.2867 368.399 46.2867 368.399 60.6505C368.399 69.3463 362.159 73.7588 349.844 73.7588V73.7772Z" fill="#0069AA"/>
<path d="M418.303 12.1855H397.976V15.0657L398.511 15.1765C404.198 16.3581 406.579 17.1704 406.579 19.072C406.579 20.4198 405.767 22.2476 405.047 23.8538L404.973 24.0384L381.434 78.9457H389.945C389.945 78.9457 398.437 58.0277 398.77 57.2154H426.039C426.371 57.9908 435.418 78.9457 435.418 78.9457H447.732L418.303 12.1855ZM400.893 52.0644C401.613 50.4028 411.509 27.3801 412.598 24.8692C413.669 27.3986 423.509 50.4028 424.211 52.0644H400.893Z" fill="#0069AA"/>
<path fill-rule="evenodd" clip-rule="evenodd" d="M526.124 78.8175H537.201V47.5422C539.177 49.5176 568.384 78.8175 568.384 78.8175L579.923 78.7252L544.069 43.2035L579.665 12.2051H567.72C567.72 12.2051 539.121 36.8709 537.201 38.514C537.201 36.0955 537.201 12.2235 537.201 12.2235H515.212V14.9744L516.302 15.1406C525.33 16.4145 526.161 16.7284 526.161 23.5041L526.105 78.836L526.124 78.8175Z" fill="#0069AA"/>
<path d="M510.782 11.8359H503.766V63.9738C501.92 61.3891 466.416 11.8359 466.416 11.8359H441.086V14.8638L441.677 14.9376C451.923 16.2669 453.234 16.7285 453.234 24.095V78.7991H460.933V22.7288C462.798 25.3135 501.2 78.7991 501.2 78.7991H511.483V11.8359H510.8H510.782Z" fill="#0069AA"/>
</g>
<defs>
<clipPath id="clip0_316_1847">
<rect width="579.923" height="90.1335" fill="white"/>
</clipPath>
</defs>
</svg>
