<svg width="324" height="96" viewBox="0 0 324 96" fill="none" xmlns="http://www.w3.org/2000/svg">
<g clip-path="url(#clip0_316_1844)">
<path d="M21.6672 37.5968L20.9567 3.25213H0V93.2109H21.6672V57.82C22.2 30.4489 32.8559 21.5577 61.4496 19.8143V1.85742C35.8751 1.85742 26.4623 11.446 22.3775 37.5968H21.6672Z" fill="#0898A0"/>
<path d="M71.2493 93.2107H92.9165V3.25195H71.2493V93.2107Z" fill="#0898A0"/>
<path d="M149.034 96.0003C174.963 96.0003 190.237 85.5401 190.237 67.9318C190.237 54.5077 181.534 46.8369 163.597 43.0014L139.443 37.9457C131.807 36.2022 127.544 32.3668 127.544 27.4853C127.544 20.3375 134.826 15.979 146.903 15.979C160.222 15.979 168.037 22.2552 168.037 32.5411H188.816C188.816 12.3179 173.009 0.462891 146.192 0.462891C121.683 0.462891 106.232 11.2719 106.232 28.0084C106.232 41.6068 116.355 50.1493 133.05 53.4617L156.137 58.3433C165.55 60.4352 168.747 63.3992 168.747 68.8035C168.747 76.1259 161.288 80.4843 149.211 80.4843C134.471 80.4843 126.123 74.5568 125.413 63.9219H104.101C104.811 84.4937 120.795 96.0003 149.034 96.0003Z" fill="#0898A0"/>
<path d="M288.506 45.2679C288.506 20.5118 271.279 0.462891 243.218 0.462891C214.98 0.462891 196.332 18.5941 196.332 47.8829C196.332 79.6126 215.335 96.0003 244.284 96.0003C264.708 96.0003 284.954 83.971 287.796 61.8301H268.082C265.773 71.9417 257.071 79.4384 244.284 79.4384C228.655 79.4384 217.644 69.6752 217.111 52.2416H288.506V45.2679ZM242.33 17.025C256.716 17.025 266.128 25.7419 267.194 40.212H217.111C218.176 24.8703 228.832 17.025 242.33 17.025Z" fill="#0898A0"/>
<path d="M323.992 13.809C323.992 21.4355 317.694 27.618 309.926 27.618C302.156 27.618 295.858 21.4355 295.858 13.809C295.858 6.1825 302.156 0 309.926 0C317.694 0 323.992 6.1825 323.992 13.809Z" fill="#0898A0"/>
</g>
<defs>
<clipPath id="clip0_316_1844">
<rect width="324" height="96" fill="white"/>
</clipPath>
</defs>
</svg>
