<svg width="494" height="87" viewBox="0 0 494 87" fill="none" xmlns="http://www.w3.org/2000/svg">
<g clip-path="url(#clip0_316_1846)">
<path d="M65.3275 40.041C65.1201 36.8964 64.2905 33.7518 62.6314 31.0265L48.529 6.07952C47.492 4.19277 46.6625 2.09639 46.2477 0L45.6255 1.04819C42.0999 7.12771 42.0999 14.8843 45.6255 20.9639L57.0319 40.8795C60.5575 46.959 60.5575 54.7157 57.0319 60.7952L56.4097 61.8434C55.995 59.747 55.1654 57.6506 54.1285 55.7639L43.759 37.5253L37.1226 25.7855C36.0856 23.8988 35.2561 21.8024 34.8413 19.706L34.2191 20.7542C30.6935 26.8337 30.6935 34.3807 34.2191 40.6699L45.6255 60.5855C49.1511 66.6651 49.1511 74.4217 45.6255 80.5012L45.0034 81.5494C44.5886 79.453 43.759 77.3566 42.7221 75.4699L28.4123 50.5229C26.5458 47.1687 25.7162 43.3952 25.7162 39.6217C10.5768 43.6048 0 52.2 0 62.053C0 75.8892 20.3241 87 45.4181 87C70.5122 87 90.8363 75.8892 90.8363 62.053C91.0437 52.6193 80.6742 44.0241 65.3275 40.041ZM108.257 82.5976C108.464 79.0337 108.879 76.7277 109.916 73.7928C114.686 76.0988 120.908 77.147 125.47 77.147C133.351 77.147 137.914 74.6313 137.914 69.3904C137.914 64.1494 134.595 62.053 126.715 58.4892L122.359 56.812C114.271 53.2482 108.879 48.6361 108.879 39.6217C108.879 29.7687 115.723 23.4795 129.411 23.4795C135.01 23.4795 140.195 24.3181 144.965 25.9952C144.757 29.3494 144.135 32.0747 143.306 34.5904C138.743 32.9133 133.144 32.0747 129.203 32.0747C121.737 32.0747 118.419 35.0096 118.419 39.6217C118.419 44.2337 121.737 46.7494 127.751 49.2651L132.314 51.1518C143.098 55.7639 147.661 60.7952 147.661 69.1807C147.661 79.0337 140.195 85.9518 125.678 85.9518C118.834 85.9518 113.027 84.9036 108.257 82.5976ZM193.494 41.2988V84.4843H184.783L184.369 79.2434C181.88 83.0169 178.354 85.5325 172.34 85.5325C161.141 85.5325 153.468 77.147 153.468 62.6819C153.468 48.2169 161.556 38.7831 177.317 38.7831C183.539 38.9928 188.724 39.6217 193.494 41.2988ZM184.161 74.6313V47.588C182.295 47.1687 180.013 47.1687 177.317 47.1687C167.57 47.1687 163.008 53.2482 163.008 62.8916C163.008 71.6964 166.533 77.9855 174.829 77.9855C178.769 77.7759 181.673 76.5181 184.161 74.6313ZM241.608 55.5542V84.4843H232.275V57.2313C232.275 50.3132 229.994 47.1687 220.662 47.1687C218.38 47.1687 215.892 47.3783 213.196 47.7976V84.4843H203.863V41.2988C209.877 39.8313 216.514 38.7831 220.869 38.7831C236.631 38.9928 241.608 45.0723 241.608 55.5542ZM267.739 77.5663C270.435 77.5663 273.131 77.147 274.998 76.3084C274.79 78.8241 274.375 81.759 273.961 84.2747C271.472 85.3229 268.568 85.7422 266.08 85.7422C256.955 85.7422 251.148 81.5494 251.148 71.0675V25.5759C254.051 24.5277 257.577 24.1084 260.48 24.1084V40.4602H275.412C275.205 43.3952 274.997 46.1205 274.583 48.6361H260.48V69.8096C260.48 75.2602 263.176 77.5663 267.739 77.5663ZM318.134 41.2988V84.4843H309.424L309.009 79.2434C306.521 83.0169 302.995 85.5325 296.981 85.5325C285.782 85.5325 278.108 77.147 278.108 62.6819C278.108 48.2169 286.196 38.7831 301.958 38.7831C308.18 38.9928 313.157 39.6217 318.134 41.2988ZM308.594 74.6313V47.588C306.728 47.1687 304.447 47.1687 301.751 47.1687C292.003 47.1687 287.441 53.2482 287.441 62.8916C287.441 71.6964 290.966 77.9855 299.262 77.9855C303.202 77.7759 306.313 76.5181 308.594 74.6313ZM366.249 55.5542V84.4843H356.709V57.2313C356.709 50.3132 354.427 47.1687 345.095 47.1687C342.814 47.1687 340.325 47.3783 337.629 47.7976V84.4843H328.296V41.2988C334.311 39.8313 340.947 38.7831 345.302 38.7831C361.064 38.9928 366.249 45.0723 366.249 55.5542ZM413.741 24.1084V84.4843H405.03L404.615 79.0337C402.127 83.0169 398.601 85.5325 392.38 85.5325C381.181 85.5325 373.507 77.147 373.507 62.6819C373.507 48.2169 381.595 38.7831 397.357 38.7831C399.846 38.7831 402.127 38.9928 404.408 39.412V25.1566C407.312 24.3181 410.63 24.1084 413.741 24.1084ZM404.408 74.6313V48.0072C401.919 47.5879 399.431 47.1687 396.942 47.1687C387.61 47.1687 383.254 53.0386 383.254 62.8916C383.254 71.6964 386.78 77.9855 395.076 77.9855C398.809 77.7759 401.919 76.5181 404.408 74.6313ZM461.025 66.0361H430.954C432.198 73.7928 436.553 77.3566 445.056 77.3566C450.241 77.3566 455.426 76.3084 459.988 74.0024C459.573 76.5181 459.159 79.8723 458.537 82.5976C454.181 84.4843 449.826 85.3229 444.641 85.3229C428.88 85.3229 421.414 76.5181 421.414 61.8434C421.414 49.0554 427.221 38.7831 442.153 38.7831C455.633 38.7831 461.44 47.5879 461.44 58.4892C461.44 61.4241 461.44 63.5205 461.025 66.0361ZM430.954 58.0699H452.107C452.107 50.9422 448.375 46.7494 441.945 46.7494C435.102 46.959 431.576 50.7325 430.954 58.0699ZM494 39.412C494 42.347 493.585 45.7012 493.17 47.588C490.889 47.3783 488.815 47.1687 486.119 47.1687C483.838 47.1687 481.557 47.3783 479.275 47.588V84.4843H469.943V41.2988C473.883 39.8313 480.727 38.7831 485.912 38.7831C488.608 38.9928 491.926 38.9928 494 39.412Z" fill="#EA1D25"/>
</g>
<defs>
<clipPath id="clip0_316_1846">
<rect width="494" height="87" fill="white"/>
</clipPath>
</defs>
</svg>
