<svg width="381" height="53" viewBox="0 0 381 53" fill="none" xmlns="http://www.w3.org/2000/svg">
<g clip-path="url(#clip0_316_1667)">
<path d="M94.1284 16.1348C83.8758 16.1205 75.5572 24.3732 75.5501 34.5606C75.5429 44.7551 83.8542 53.0149 94.1068 53.022C104.359 53.022 112.671 44.7622 112.671 34.5748C112.671 24.3946 104.374 16.1419 94.1284 16.1348ZM94.1284 42.699C89.6132 42.6705 85.9752 39.0082 85.9968 34.5177C86.0184 30.0344 89.6923 26.4078 94.2075 26.415C98.7227 26.4292 102.382 30.0701 102.382 34.5606C102.382 36.7237 101.512 38.8083 99.9593 40.336C98.4135 41.8638 96.3141 42.7133 94.1284 42.699Z" fill="#EC111A"/>
<path d="M136.318 17.0055H131.256V6.13281H120.155V17.0055H115.094V26.993H120.155V52.1223H131.256V26.993H136.318V17.0055Z" fill="#EC111A"/>
<path d="M141.394 17.0049H152.48V52.1074H141.394V17.0049Z" fill="#EC111A"/>
<path d="M146.944 2.55058e-05C144.442 -0.0071135 142.178 1.48494 141.214 3.7837C140.251 6.07532 140.776 8.72389 142.544 10.4872C144.313 12.2506 146.98 12.7789 149.288 11.8294C151.603 10.8799 153.113 8.63823 153.113 6.14671C153.113 2.76282 150.36 0.00716451 146.944 2.55058e-05Z" fill="#EC111A"/>
<path d="M305.939 26.4715C309.577 26.4858 312.525 29.4128 312.532 33.0323V52.1648H323.618V31.6687C323.618 22.3523 318.197 16.2842 309.627 16.2842C306.104 16.2842 302.394 17.8119 299.339 22.7307V17.1409H288.238V52.1648H299.245V33.0323C299.245 31.2761 299.957 29.5984 301.215 28.3634C302.473 27.1355 304.17 26.4501 305.939 26.4715Z" fill="#EC111A"/>
<path d="M364.018 52.1217L350.408 34.5741L363.062 17.005H350.106L339.925 31.2259V0.87793H328.845V52.1217H339.925V37.651L351.098 52.1217H364.018Z" fill="#EC111A"/>
<path d="M37.437 42.6629C38.2854 40.6141 38.6953 38.4081 38.6377 36.195C38.7168 32.9396 37.588 29.7628 35.467 27.2712C33.1016 24.6869 29.0538 22.5381 23.4458 20.9032C22.3601 20.6248 21.3032 20.2465 20.2823 19.7824C19.3979 19.3541 18.607 18.7687 17.9384 18.0548C17.241 17.2695 16.8743 16.2486 16.9246 15.1992C16.9462 13.6714 17.809 12.2722 19.175 11.5654C21.9719 10.3447 25.1569 10.3447 27.9466 11.5654C29.1904 12.0152 30.3839 12.572 31.5271 13.2288L36.2364 3.91241C34.1298 2.62025 31.865 1.62793 29.4852 0.94972C27.0335 0.321488 24.517 0.000232757 21.9862 0.000232757C19.5777 -0.0426013 17.1835 0.350044 14.9187 1.15675C12.9056 1.9349 11.0722 3.12712 9.54076 4.64059C8.00215 6.16834 6.77989 7.98878 5.96025 9.98771C5.14781 12.0437 4.74518 14.2426 4.75956 16.4485C4.88898 19.9752 6.39164 23.3091 8.93682 25.7649C11.367 27.8781 14.2141 29.4629 17.2985 30.4053C18.7652 30.9621 20.3901 31.4618 21.4254 31.8545C22.4895 32.2543 23.5105 32.7611 24.4595 33.3822C25.1425 33.8677 25.6962 34.5031 26.0772 35.2455C26.4079 35.9523 26.5302 36.7304 26.4295 37.5014C26.3217 38.6722 25.7537 39.7574 24.855 40.5212C23.3811 41.585 21.5692 42.0775 19.7574 41.9134C17.6149 41.8562 15.5083 41.3565 13.567 40.4427C11.8702 39.636 10.2238 38.7294 8.63485 37.7228L3.01245 47.3176C7.44854 50.9371 12.9918 52.9431 18.7221 53.0002C21.562 53.0002 24.3876 52.5576 27.0838 51.6795C29.4061 50.9085 31.5558 49.7163 33.4252 48.16C35.1363 46.6251 36.5024 44.7547 37.437 42.6629Z" fill="#EC111A"/>
<path d="M371.84 39.8497C369.331 39.8354 367.066 41.3203 366.096 43.612C365.125 45.9036 365.643 48.5522 367.404 50.3226C369.166 52.0931 371.826 52.6285 374.148 51.6862C376.463 50.7367 377.98 48.5022 377.988 46.0107C377.995 42.6268 375.248 39.8711 371.84 39.8497ZM371.84 50.8938C369.834 50.9009 368.023 49.7087 367.253 47.874C366.477 46.0321 366.901 43.9189 368.31 42.5054C369.726 41.0919 371.855 40.6707 373.71 41.4346C375.557 42.1913 376.765 43.9832 376.765 45.975C376.772 47.2814 376.255 48.5307 375.327 49.4517C374.407 50.3726 373.149 50.8938 371.84 50.8938Z" fill="#EC111A"/>
<path d="M371.819 47.0032H370.826V49.3305H369.626V42.627H372.192C373.436 42.627 374.443 43.6264 374.443 44.8615C374.421 45.7039 373.918 46.4606 373.149 46.8176L374.572 49.3305H373.113L371.819 47.0032ZM370.826 45.8823H372.25C372.818 45.8823 373.278 45.4254 373.278 44.8615C373.278 44.2903 372.818 43.8334 372.25 43.8334H370.826V45.8823Z" fill="#EC111A"/>
<path d="M67.7922 39.6645C64.9666 43.1626 59.8259 43.7266 56.3029 40.9281C52.7799 38.1225 52.2048 33.011 55.0232 29.5129C57.8487 26.0076 62.9894 25.4436 66.5124 28.2421C66.9797 28.6133 67.4111 29.0345 67.7922 29.4914L75.1185 22.1882C71.6171 18.3474 66.6346 16.1629 61.4149 16.1701C51.1982 16.1344 42.3835 23.3805 42.3835 34.5601C42.3835 45.7327 51.2917 53.0002 61.5083 53.0002C66.7353 53.0002 71.7178 50.8085 75.2336 46.9677L67.7922 39.6645Z" fill="#EC111A"/>
<path d="M195.842 52.1655V17.0058H185.043V20.7324L184.029 19.8614C181.513 17.4627 178.148 16.1206 174.661 16.1349C165.113 16.1349 157.053 24.5732 157.053 34.5607C157.053 44.541 165.135 53.0007 174.661 53.0007C178.148 53.0079 181.513 51.6729 184.029 49.2742L185.043 48.3961V52.1226L195.842 52.1655ZM176.458 42.8491C171.843 42.8205 168.125 39.0797 168.154 34.4964C168.176 29.9132 171.929 26.2152 176.545 26.2294C181.16 26.2509 184.885 29.9774 184.878 34.5607C184.87 36.7666 183.979 38.8869 182.397 40.4432C180.823 41.9995 178.68 42.8633 176.458 42.8491Z" fill="#EC111A"/>
<path d="M282.932 52.1654V17.0058H272.133V20.7323L271.119 19.8614C268.595 17.4627 265.238 16.1277 261.743 16.1348C252.203 16.1348 244.143 24.5731 244.143 34.5606C244.143 44.5409 252.224 53.0006 261.743 53.0006C265.238 53.0078 268.595 51.6728 271.119 49.2741L272.133 48.396V52.1225L282.932 52.1654ZM263.62 42.849C258.997 42.8561 255.244 39.1438 255.237 34.5534C255.229 29.9631 258.975 26.2365 263.598 26.2293C268.214 26.2293 271.96 29.9488 271.96 34.5392C271.96 39.1224 268.229 42.8347 263.62 42.849Z" fill="#EC111A"/>
<path d="M212.4 52.1646V48.438L213.392 49.309C215.916 51.7077 219.273 53.0427 222.768 53.0355C232.308 53.0355 240.368 44.5972 240.368 34.5955C240.368 24.5937 232.308 16.1697 222.768 16.1697C219.273 16.1625 215.916 17.4975 213.392 19.8962L212.4 20.7743V0.87793H201.579V52.1646H212.4ZM212.623 34.5955C212.601 31.2259 214.622 28.1846 217.749 26.8782C220.869 25.5718 224.472 26.2714 226.88 28.6415C229.282 31.0117 230.008 34.5955 228.714 37.7081C227.427 40.8135 224.371 42.8482 220.985 42.8482C216.376 42.8482 212.637 39.1359 212.623 34.5598V34.5955Z" fill="#EC111A"/>
</g>
<defs>
<clipPath id="clip0_316_1667">
<rect width="381" height="53" fill="white"/>
</clipPath>
</defs>
</svg>
