<svg width="93" height="14" viewBox="0 0 93 14" fill="none" xmlns="http://www.w3.org/2000/svg">
<g clip-path="url(#clip0_3303_26429)">
<path fill-rule="evenodd" clip-rule="evenodd" d="M22.6251 4.21094C21.6258 4.21094 20.7694 4.56781 20.0556 5.1388V4.35368H17.6289V13.5609H20.127V7.70825C20.4839 7.20864 21.3403 6.56627 22.4109 6.56627C22.7678 6.56627 23.1247 6.63765 23.4102 6.70902V4.35368C23.1247 4.28231 22.8392 4.21094 22.6251 4.21094Z" fill="#293E40"/>
<path fill-rule="evenodd" clip-rule="evenodd" d="M1.14198 10.7051C1.78434 11.276 2.78358 11.6329 3.64006 11.6329C4.28243 11.6329 4.85342 11.276 4.85342 10.8478C4.85342 9.42033 0.356869 9.91995 0.356869 6.99362C0.356869 5.20928 2.06984 4.13867 3.85418 4.13867C5.06754 4.13867 6.35226 4.56691 6.99463 5.06653L5.85265 6.85087C5.35303 6.56538 4.78204 6.20851 4.0683 6.20851C3.35457 6.20851 2.85495 6.49401 2.85495 6.99362C2.85495 8.20698 7.3515 7.70736 7.3515 10.9192C7.3515 12.7035 5.63853 13.7741 3.71144 13.7741C2.42671 13.7741 1.07061 13.3459 0 12.5608L1.14198 10.7051Z" fill="#293E40"/>
<path fill-rule="evenodd" clip-rule="evenodd" d="M16.5593 8.84934C16.5593 6.27988 14.775 4.13867 12.2055 4.13867C9.49333 4.13867 7.70898 6.42263 7.70898 8.92071C7.70898 11.847 9.77882 13.7028 12.491 13.7028C13.9185 13.7028 15.346 13.1318 16.2738 12.0612L14.8464 10.6337C14.4181 11.1333 13.5616 11.7043 12.5624 11.7043C11.2777 11.7043 10.2071 10.7764 10.0643 9.4917H16.4166C16.5593 9.34896 16.5593 9.13483 16.5593 8.84934ZM10.2784 7.77873C10.4212 6.92225 11.2777 6.13714 12.2769 6.13714C13.2761 6.13714 13.9899 6.92225 14.1326 7.77873H10.2784Z" fill="#293E40"/>
<path fill-rule="evenodd" clip-rule="evenodd" d="M34.2601 4.35352L30.049 13.5607H28.3361L24.125 4.35352H26.6231L29.1925 9.99204L31.6906 4.35352H34.2601Z" fill="#293E40"/>
<path fill-rule="evenodd" clip-rule="evenodd" d="M36.33 0C37.2578 0 37.9716 0.713738 37.9716 1.57022C37.9716 2.49808 37.2578 3.14045 36.33 3.14045C35.4021 3.14045 34.7598 2.42671 34.7598 1.57022C34.7598 0.642364 35.4021 0 36.33 0Z" fill="#293E40"/>
<path d="M37.6133 4.35352H35.1152V13.5607H37.6133V4.35352Z" fill="#293E40"/>
<path fill-rule="evenodd" clip-rule="evenodd" d="M47.75 11.6329C46.6794 13.0604 45.3233 13.7028 43.6103 13.7028C40.7554 13.7028 38.6855 11.5615 38.6855 8.92071C38.6855 6.20851 40.8268 4.13867 43.6103 4.13867C45.2519 4.13867 46.608 4.92378 47.4645 5.99439L45.8229 7.49324C45.3233 6.85087 44.6096 6.42263 43.7531 6.42263C42.3256 6.42263 41.255 7.56461 41.255 8.92071C41.255 10.3482 42.2542 11.4188 43.7531 11.4188C44.7523 11.4188 45.5374 10.8478 45.9657 10.2054L47.75 11.6329Z" fill="#293E40"/>
<path fill-rule="evenodd" clip-rule="evenodd" d="M56.6703 12.0612C55.7425 13.1318 54.315 13.7028 52.8875 13.7028C50.1753 13.7028 48.1055 11.847 48.1055 8.92071C48.1055 6.35126 49.8184 4.13867 52.602 4.13867C55.1001 4.13867 56.9558 6.27988 56.9558 8.84934C56.9558 9.13483 56.9558 9.34896 56.8844 9.56308H50.4608C50.6035 10.8478 51.6742 11.7757 52.9589 11.7757C53.9581 11.7757 54.8146 11.2047 55.2428 10.7051L56.6703 12.0612ZM54.3864 7.77873C54.315 6.99362 53.6012 6.13714 52.5306 6.13714C51.5314 6.13714 50.6749 6.92225 50.5322 7.77873H54.3864Z" fill="#293E40"/>
<path fill-rule="evenodd" clip-rule="evenodd" d="M57.8848 13.5609V4.35368H60.2401V5.1388C60.9538 4.56781 61.8103 4.21094 62.8096 4.21094C64.0943 4.21094 65.2363 4.78193 66.0214 5.70979C66.5924 6.42352 67.0206 7.35138 67.0206 8.9216V13.6323H64.5225V8.70748C64.5225 7.77962 64.3084 7.28001 63.9515 6.99451C63.5947 6.63765 63.1664 6.42352 62.5241 6.42352C61.5248 6.42352 60.6683 7.06589 60.2401 7.5655V13.5609H57.8848Z" fill="#293E40"/>
<path fill-rule="evenodd" clip-rule="evenodd" d="M73.3726 4.14062C70.3749 4.14062 68.0195 6.49596 68.0195 9.49366C68.0195 11.0639 68.6619 12.4914 69.6611 13.4906C70.018 13.8475 70.6604 13.8475 71.0886 13.562C71.6596 13.0623 72.5161 12.7768 73.3726 12.7768C74.3004 12.7768 75.0142 13.0623 75.6565 13.562C76.0848 13.9188 76.6558 13.8475 77.084 13.4192C78.0832 12.42 78.7256 11.0639 78.7256 9.49366C78.6542 6.56733 76.2989 4.14062 73.3726 4.14062ZM73.3012 12.2772C71.6596 12.2772 70.589 11.0639 70.589 9.56503C70.589 8.06618 71.6596 6.85283 73.3012 6.85283C74.9428 6.85283 76.0134 8.06618 76.0134 9.56503C76.0134 11.0639 74.9428 12.2772 73.3012 12.2772Z" fill="#81B5A1"/>
<path fill-rule="evenodd" clip-rule="evenodd" d="M78.082 4.35352H80.5087L82.5072 9.63517L84.5057 4.35352H86.5755L88.5026 9.63517L90.5011 4.35352H92.9992L89.3591 13.5607H87.5034L85.5049 8.35045L83.5778 13.5607H81.7221L78.082 4.35352Z" fill="#293E40"/>
</g>
<defs>
<clipPath id="clip0_3303_26429">
<rect width="93" height="13.7924" fill="white"/>
</clipPath>
</defs>
</svg>
