<svg width="67" height="31" viewBox="0 0 67 31" fill="none" xmlns="http://www.w3.org/2000/svg">
<g clip-path="url(#clip0_3303_26218)">
<path d="M6.91367 1.56055C3.1223 1.56055 0 4.68285 0 8.47422C0 12.2656 3.1223 15.3879 6.91367 15.3879C10.705 15.3879 13.8273 12.2656 13.8273 8.47422C13.8273 4.68285 10.7496 1.56055 6.91367 1.56055ZM6.91367 12.3994C4.77266 12.3994 2.98849 10.6598 2.98849 8.47422C2.98849 6.2886 4.72806 4.54904 6.91367 4.54904C9.09928 4.54904 10.8388 6.2886 10.8388 8.47422C10.8388 10.6598 9.09928 12.3994 6.91367 12.3994Z" fill="url(#paint0_linear_3303_26218)"/>
<path d="M61.0183 29.8401H56.7363V8.47461H61.0183V29.8401Z" fill="#253746"/>
<path d="M41.1261 17.0386V8.47461H36.8887V29.8401H41.1261V21.3207H45.3635L49.6009 17.0386H41.1261Z" fill="#253746"/>
<path d="M16.9934 14.8976C16.9934 14.0055 17.1718 13.1581 17.484 12.3998C17.8409 11.6415 18.2869 10.9278 18.8668 10.348C19.4466 9.76813 20.1157 9.32209 20.9186 8.96526C21.6768 8.60842 22.5243 8.47461 23.4164 8.47461H36.1286L31.8912 12.7566H23.4164C23.1042 12.7566 22.8366 12.8012 22.5689 12.935C22.3013 13.0242 22.0783 13.2027 21.8999 13.3811C21.6768 13.6041 21.543 13.8271 21.4538 14.0501C21.3646 14.3178 21.2754 14.5854 21.2754 14.8976C21.2754 15.2099 21.32 15.4775 21.4538 15.7451C21.543 16.0127 21.7215 16.2358 21.8999 16.4142C22.1229 16.6372 22.3459 16.771 22.5689 16.8602C22.8366 16.9494 23.1042 17.0386 23.4164 17.0386H27.6984C28.5905 17.0386 29.438 17.2171 30.1963 17.5293C30.9992 17.8415 31.6682 18.3322 32.2481 18.912C32.8279 19.4919 33.274 20.1609 33.6308 20.9638C33.943 21.7667 34.1215 22.5696 34.1215 23.4617C34.1215 24.3537 33.943 25.2012 33.6308 25.9595C33.3186 26.7178 32.8279 27.4314 32.2481 28.0113C31.6682 28.5912 30.9992 29.0372 30.1963 29.394C29.3934 29.7509 28.5459 29.8847 27.6984 29.8847H13.8711L18.1977 25.6027H27.6984C28.0107 25.6027 28.2783 25.5581 28.5459 25.4242C28.8135 25.335 29.0366 25.1566 29.215 24.9782C29.438 24.7552 29.5718 24.5322 29.661 24.3091C29.7502 24.0861 29.8394 23.7739 29.8394 23.4617C29.8394 23.1494 29.7948 22.8818 29.661 22.6142C29.5718 22.3466 29.3934 22.1235 29.215 21.9451C28.992 21.7221 28.7689 21.5883 28.5459 21.4991C28.2783 21.4099 28.0107 21.3207 27.6984 21.3207H23.4164C22.5243 21.3207 21.6768 21.1422 20.9186 20.83C20.1603 20.4732 19.4466 20.0271 18.8668 19.4473C18.2869 18.8674 17.8409 18.1984 17.484 17.3955C17.1718 16.6372 16.9934 15.7897 16.9934 14.8976Z" fill="#253746"/>
<path d="M53.9715 29.8401H49.6895V8.47461H53.9715V29.8401Z" fill="#253746"/>
<path d="M63.7852 28.1891C63.7852 27.8769 63.8298 27.6092 64.0082 27.3416C64.142 27.074 64.3204 26.8956 64.588 26.7172C64.8111 26.5833 65.0787 26.4941 65.3909 26.4941C65.7031 26.4941 65.9262 26.5833 66.1938 26.7172C66.4614 26.851 66.6398 27.074 66.7736 27.3416C66.9075 27.6092 66.9967 27.8769 66.9967 28.1891C66.9967 28.5013 66.9521 28.769 66.7736 29.0366C66.6398 29.3042 66.4614 29.4826 66.1938 29.661C65.9708 29.8395 65.7031 29.8841 65.3909 29.8841C65.0787 29.8841 64.8111 29.7949 64.588 29.661C64.365 29.4826 64.142 29.3042 64.0082 29.0366C63.8744 28.769 63.7852 28.4567 63.7852 28.1891ZM64.0528 28.1891C64.0528 28.4567 64.0974 28.6798 64.2312 28.9028C64.365 29.1258 64.4988 29.3042 64.7218 29.3934C64.9449 29.5272 65.1679 29.5718 65.3909 29.5718C65.6139 29.5718 65.837 29.5272 66.06 29.3934C66.283 29.2596 66.4168 29.0812 66.5506 28.9028C66.6844 28.6798 66.729 28.4567 66.729 28.1891C66.729 27.9215 66.6844 27.6985 66.5506 27.4754C66.4168 27.2524 66.283 27.074 66.06 26.9848C65.837 26.8956 65.6139 26.8064 65.3909 26.8064C65.1679 26.8064 64.9449 26.851 64.7218 26.9848C64.4988 27.1186 64.365 27.2524 64.2312 27.4754C64.0974 27.6985 64.0528 27.9215 64.0528 28.1891ZM65.0341 28.3675V29.1258H64.7218V27.2078H65.3463C65.5693 27.2078 65.7477 27.2524 65.8816 27.3416C66.0154 27.4308 66.06 27.5646 66.06 27.7877C66.06 27.9661 65.9708 28.0999 65.7924 28.2337C65.9708 28.3229 66.06 28.4567 66.06 28.6798V28.8136C66.06 28.9474 66.06 29.0366 66.1046 29.0812V29.1258H65.7924C65.7924 29.0812 65.7477 28.992 65.7477 28.8582C65.7477 28.7244 65.7477 28.6351 65.7477 28.6351C65.7477 28.5013 65.6139 28.4121 65.4801 28.4121L65.0341 28.3675ZM65.0341 28.0553H65.3909C65.4801 28.0553 65.6139 28.0553 65.6585 27.9661C65.7031 27.9215 65.7477 27.8323 65.7477 27.7431C65.7477 27.6539 65.7477 27.5646 65.6585 27.52C65.6139 27.4754 65.4801 27.4754 65.3463 27.4754H65.0341V28.0553Z" fill="#253746"/>
</g>
<defs>
<linearGradient id="paint0_linear_3303_26218" x1="11.0335" y1="14.3507" x2="1.91995" y2="1.33476" gradientUnits="userSpaceOnUse">
<stop stop-color="#B1E001"/>
<stop offset="0.5" stop-color="#FF6D15"/>
<stop offset="1" stop-color="#FF00C0"/>
</linearGradient>
<clipPath id="clip0_3303_26218">
<rect width="66.9065" height="31" fill="white"/>
</clipPath>
</defs>
</svg>
