<svg width="89" height="28" viewBox="0 0 89 28" fill="none" xmlns="http://www.w3.org/2000/svg">
<g clip-path="url(#clip0_3303_26521)">
<path d="M19.1242 5.78904C19.1097 5.65816 18.9934 5.59999 18.9061 5.59999C18.8188 5.59999 16.9138 5.45456 16.9138 5.45456C16.9138 5.45456 15.5904 4.1312 15.4304 4.00032C15.285 3.85489 15.0087 3.89852 14.8924 3.9276C14.8778 3.9276 14.6015 4.01486 14.1507 4.16028C13.6999 2.866 12.9291 1.68806 11.5476 1.68806H11.4167C11.0386 1.19362 10.5442 0.960938 10.137 0.960938C6.93763 0.960938 5.39613 4.96012 4.91623 6.99607C3.66558 7.38871 2.77849 7.65048 2.67669 7.69411C1.97865 7.91224 1.96411 7.92679 1.87685 8.5812C1.80414 9.07564 -0.0136719 23.1382 -0.0136719 23.1382L14.1362 25.785L21.8146 24.1271C21.8291 24.098 19.1388 5.91992 19.1242 5.78904ZM13.3654 4.36388C13.0164 4.46567 12.5947 4.59656 12.1729 4.74198V4.48022C12.1729 3.69492 12.0711 3.05505 11.8821 2.54607C12.6092 2.63332 13.06 3.43316 13.3654 4.36388ZM10.995 2.70604C11.184 3.20048 11.3149 3.89852 11.3149 4.85832V5.00375C10.5296 5.25097 9.70071 5.49819 8.8427 5.7745C9.3226 3.94214 10.2388 3.04051 10.995 2.70604ZM10.0643 1.8044C10.2097 1.8044 10.3551 1.86257 10.4715 1.94982C9.43894 2.42973 8.34826 3.63675 7.89744 6.07989C7.21394 6.29803 6.55953 6.48708 5.9342 6.69067C6.45773 4.82924 7.76656 1.8044 10.0643 1.8044Z" fill="#95BF47"/>
<path d="M18.906 5.56974C18.8187 5.56974 16.9137 5.42432 16.9137 5.42432C16.9137 5.42432 15.5903 4.10095 15.4303 3.97007C15.3722 3.9119 15.2995 3.88281 15.2413 3.88281L14.1797 25.7838L21.8581 24.126C21.8581 24.126 19.1678 5.91876 19.1532 5.78788C19.095 5.657 18.9932 5.59883 18.906 5.56974Z" fill="#5E8E3E"/>
<path d="M11.5468 9.8171L10.6161 12.6238C10.6161 12.6238 9.77261 12.173 8.76918 12.173C7.2713 12.173 7.19859 13.1182 7.19859 13.3509C7.19859 14.6307 10.5434 15.1251 10.5434 18.1354C10.5434 20.5058 9.04549 22.0328 7.02408 22.0328C4.58094 22.0328 3.35938 20.5204 3.35938 20.5204L4.01379 18.3681C4.01379 18.3681 5.29353 19.4733 6.36967 19.4733C7.08225 19.4733 7.3731 18.9207 7.3731 18.5135C7.3731 16.8411 4.63911 16.7684 4.63911 14.0053C4.63911 11.6931 6.29696 9.45353 9.65627 9.45353C10.9069 9.43899 11.5468 9.8171 11.5468 9.8171Z" fill="white"/>
<path d="M30.7718 15.0951C30.001 14.688 29.6084 14.3244 29.6084 13.8445C29.6084 13.2337 30.161 12.8411 31.019 12.8411C32.0224 12.8411 32.9095 13.2483 32.9095 13.2483L33.6076 11.1105C33.6076 11.1105 32.9677 10.6161 31.0772 10.6161C28.445 10.6161 26.6126 12.1285 26.6126 14.2517C26.6126 15.4587 27.4706 16.3749 28.605 17.0293C29.5357 17.5383 29.8556 17.9164 29.8556 18.469C29.8556 19.0362 29.3903 19.5015 28.5322 19.5015C27.2671 19.5015 26.06 18.8471 26.06 18.8471L25.3184 20.9849C25.3184 20.9849 26.4236 21.7265 28.285 21.7265C30.9899 21.7265 32.9532 20.3886 32.9532 17.9891C32.9241 16.6803 31.9497 15.7786 30.7718 15.0951ZM41.5623 10.587C40.2244 10.587 39.1773 11.2268 38.3775 12.1866L38.3484 12.1721L39.5118 6.12243H36.5015L33.5639 21.5375H36.5742L37.5777 16.2731C37.9703 14.2808 39.0028 13.0447 39.9626 13.0447C40.6461 13.0447 40.9079 13.51 40.9079 14.1644C40.9079 14.5716 40.8788 15.0951 40.777 15.5023L39.6427 21.5375H42.653L43.8309 15.3133C43.9618 14.6589 44.0491 13.8736 44.0491 13.3355C44.0345 11.6049 43.1474 10.587 41.5623 10.587ZM50.855 10.587C47.2193 10.587 44.8198 13.859 44.8198 17.5092C44.8198 19.836 46.2595 21.7265 48.9644 21.7265C52.5273 21.7265 54.9269 18.5417 54.9269 14.8043C54.9414 12.6375 53.6907 10.587 50.855 10.587ZM49.3716 19.4288C48.3391 19.4288 47.9174 18.5563 47.9174 17.451C47.9174 15.7205 48.8045 12.9138 50.4478 12.9138C51.5094 12.9138 51.8729 13.8445 51.8729 14.7316C51.8729 16.5785 50.9568 19.4288 49.3716 19.4288ZM62.6489 10.587C60.613 10.587 59.4641 12.3902 59.4641 12.3902H59.435L59.6095 10.776H56.9337C56.8028 11.8667 56.5556 13.5391 56.3229 14.7752L54.2434 25.813H57.2537L58.0971 21.3484H58.1698C58.1698 21.3484 58.7952 21.7411 59.9295 21.7411C63.4778 21.7411 65.7901 18.1054 65.7901 14.4407C65.7755 12.4048 64.8594 10.587 62.6489 10.587ZM59.7695 19.4579C58.9842 19.4579 58.5188 19.0071 58.5188 19.0071L59.0133 16.2004C59.3623 14.3099 60.3512 13.0737 61.3983 13.0737C62.329 13.0737 62.6053 13.9317 62.6053 14.7316C62.6198 16.6803 61.4564 19.4579 59.7695 19.4579ZM70.0801 6.26786C69.1203 6.26786 68.3496 7.03861 68.3496 8.01296C68.3496 8.90005 68.9167 9.52537 69.7747 9.52537H69.8038C70.7491 9.52537 71.5489 8.88551 71.5635 7.78028C71.578 6.89318 70.9818 6.26786 70.0801 6.26786ZM65.8628 21.5229H68.8731L70.909 10.8197H67.8842M78.5875 10.8051H76.4934L76.5952 10.3107C76.7697 9.27815 77.3804 8.37652 78.3984 8.37652C78.9365 8.37652 79.3582 8.53648 79.3582 8.53648L79.9399 6.16606C79.9399 6.16606 79.4309 5.9043 78.2966 5.9043C77.235 5.9043 76.1589 6.20969 75.3445 6.90773C74.312 7.78028 73.8321 9.04547 73.5994 10.3252L73.5121 10.8197H72.1015L71.6507 13.1028H73.0613L71.4617 21.5375H74.4719L76.0716 13.1028H78.1512L78.5875 10.8051ZM85.8442 10.8197C85.8442 10.8197 83.9536 15.575 83.1247 18.1782H83.0956C83.0375 17.3347 82.354 10.8197 82.354 10.8197H79.1837L81.0015 20.6213C81.0306 20.8394 81.0161 20.9703 80.9288 21.1157C80.5798 21.7992 79.9836 22.4536 79.2855 22.9335C78.7184 23.3407 78.0785 23.617 77.5695 23.7916L78.413 26.351C79.0237 26.2201 80.3035 25.7112 81.3651 24.7077C82.7321 23.428 84.0118 21.4357 85.3206 18.7308L88.9999 10.8051H85.8442V10.8197Z" fill="black"/>
</g>
<defs>
<clipPath id="clip0_3303_26521">
<rect width="89" height="27.9216" fill="white"/>
</clipPath>
</defs>
</svg>
