<svg width="171" height="69" viewBox="0 0 171 69" fill="none" xmlns="http://www.w3.org/2000/svg">
<path d="M56.8086 11.8214C77.2654 13.3203 88.7799 7.56293 92.7311 0H113.618C107.337 18.0597 87.7522 29.3747 56.8086 27.8266V11.8214Z" fill="#F4811E"/>
<path fill-rule="evenodd" clip-rule="evenodd" d="M128.674 27.9934L121.173 38.5214L138.502 63.8535V27.9934H128.674ZM76.8085 30.1294L76.8071 62.5705L93.1678 38.2965L85.4937 28.2541C91.9047 26.487 97.7259 23.7531 102.8 19.784L107.742 26.0389L117.122 11.8804H170.428V27.95H158.441V67.1856H117.122L106.548 51.4041L95.5566 67.1856H56.6908V56.3953C53.8972 64.026 45.0783 68.6726 27.5923 68.6726C1.65484 68.6726 0.397295 59.5129 0 49.0225H20.5122C20.5783 52.1535 21.1079 54.4242 22.3652 55.9112C23.6883 57.3996 25.4752 58.1819 28.1218 58.1819C32.2896 58.1819 36.7892 57.0082 36.7892 52.4668C36.7892 51.4491 36.459 50.5887 35.9295 49.884C33.2167 46.284 10.3881 43.6219 3.96982 36.9669C1.38933 34.3048 0.595702 30.3136 0.595702 27.103C0.595702 14.7345 10.1899 9.17676 29.313 9.17676C49.6258 9.17676 54.4345 16.2798 54.7 27.944H34.9468C34.8145 24.8129 33.8756 22.3666 32.4981 21.232C31.1675 20.1348 30.0138 19.6266 27.9884 19.6656C23.7545 19.7496 21.5054 21.5453 21.5054 24.4426C21.5054 25.3028 21.7695 26.3984 22.3652 27.0252C25.4752 30.5474 47.5749 33.0533 53.9275 39.7849C54.9354 40.8505 55.9633 42.2416 56.6908 44.1721V31.1529C63.2531 31.3958 70.0826 31.18 76.8085 30.1294Z" fill="black"/>
</svg>
