<svg width="496" height="86" viewBox="0 0 496 86" fill="none" xmlns="http://www.w3.org/2000/svg">
<g clip-path="url(#clip0_316_1843)">
<path d="M44.9808 85.3436L39.5523 85.5497L33.2855 85.3023C29.4787 85.1512 25.878 85.0962 22.0849 84.5739C13.2207 83.3646 -2.52884 80.0525 0.329712 67.725C1.08558 64.4816 2.9134 61.8292 4.85117 59.0943C9.78492 52.1541 14.9935 45.6399 20.9168 39.4968C27.7471 31.2372 38.824 27.0181 48.609 32.4741C54.6559 35.8411 57.4045 39.4693 61.9672 44.6367C66.5299 49.8041 70.1993 54.6279 73.9649 60.0151C75.6416 62.4202 77.0983 64.8664 77.8542 67.67C79.8194 75.0225 74.281 79.5715 68.1104 81.8528C60.7853 84.5602 52.993 85.0275 44.9671 85.3436H44.9808Z" fill="#BE206B"/>
<path d="M138.901 85.3447L133.472 85.5509L127.206 85.3035C123.399 85.1523 119.798 85.0974 116.005 84.5751C107.141 83.3657 86.8559 79.2016 89.7008 66.8604C90.4566 63.617 92.8479 60.5111 94.7994 57.7762C99.7332 50.836 105.011 46.397 110.934 40.2538C117.764 31.9943 132.593 26.016 145.195 32.6127C151.325 35.8148 154.224 38.7696 158.787 43.937C163.35 49.1044 168.407 55.2475 172.173 60.6485C173.849 63.0535 174.743 65.7747 175.499 68.5782C177.464 75.9308 168.201 79.5727 162.03 81.854C154.705 84.5614 146.913 85.0287 138.887 85.3447H138.901Z" fill="#448BC6"/>
<path d="M295.104 78.1559C296.038 79.9974 294.953 82.7735 293.661 84.1341C292.369 85.4947 290.472 85.8382 288.576 85.4809C287.202 85.2198 285.594 83.873 284.645 82.3063L272.854 63.066L266.505 69.1954L266.45 79.324C266.436 82.2376 264.251 85.0274 261.42 85.5084C259.606 85.8245 257.778 85.3435 256.541 84.1478C255.441 83.0896 254.686 81.1519 254.686 79.2141V26.9356C254.686 24.5718 255.661 21.9881 257.42 20.8337C259.289 19.5968 261.708 19.583 263.509 20.6825C264.952 21.562 266.422 23.6098 266.422 25.7674L266.532 55.7822L278.612 43.276C280.248 41.5856 281.649 39.7578 283.628 38.3835C286.061 36.6931 289.593 37.3803 291.16 39.909C292.341 41.8055 291.805 44.1556 290.349 45.8597C287.49 49.1855 284.192 52.0441 280.77 55.0951L289.304 68.5357C291.338 71.7379 293.4 74.7064 295.131 78.1284L295.104 78.1559Z" fill="#BE206B"/>
<path d="M387.842 84.6436C385.561 82.7333 384.283 79.9984 382.799 77.5934L373.893 63.1357L371.213 65.6095C369.99 66.7364 368.519 67.9733 367.489 69.2239C367.076 74.6249 369.44 83.1868 363.448 85.2758C361.181 86.0729 358.597 85.5644 357.113 83.5991C355.835 81.895 355.711 79.6136 355.711 77.3735V28.5308C355.697 26.0158 355.958 23.5833 357.525 21.6592C359.092 19.7352 361.799 19.5566 363.998 20.4224C365.895 21.1645 367.448 23.3359 367.461 25.8921L367.599 55.7832L375.116 48.0734C378.153 44.9674 380.833 41.6141 384.145 38.8106C385.946 37.2988 388.626 37.0652 390.467 38.2333C391.731 39.0442 392.597 40.2123 392.817 41.4217C393.477 44.9125 388.914 48.6643 386.427 50.9182L381.768 55.1235L395.195 76.1916C396.706 78.5554 396.981 81.3727 395.181 83.6129C393.655 85.5094 390.22 86.6638 387.842 84.6573V84.6436Z" fill="#BE206B"/>
<path d="M446.608 82.6787C445.632 84.6852 443.886 85.551 441.962 85.6334C440.038 85.7159 438.362 84.8364 437.125 83.0498C434.747 79.5865 432.658 76.0133 430.46 72.4126L424.77 63.1086L418.407 69.0319L418.338 79.6277C418.324 81.9091 416.895 83.8056 415.274 84.7951C413.295 86.0045 410.821 85.9083 408.897 84.479C407.412 83.3796 406.588 81.4143 406.588 79.4078L406.615 29.2045C406.615 26.7445 406.615 24.4357 407.811 22.388C409.158 20.0792 411.989 19.4745 414.463 20.2441C416.565 20.9037 418.352 23.2675 418.352 25.9612L418.421 55.9347L426.295 47.6202L434.665 39.0033C437.249 36.8869 441.124 36.9006 442.938 39.8004C445.439 43.7996 441.097 47.4003 438.059 50.2176L432.713 55.1651L446.333 76.673C447.528 78.5695 447.638 80.5623 446.621 82.6787H446.608Z" fill="#BE206B"/>
<path d="M454.799 81.7305C451.335 78.5696 449.879 73.6084 451.033 69.0869C452.352 63.9195 456.654 60.6212 461.698 59.5493L468.72 58.0513C473.269 57.0755 477.543 56.031 482.134 54.7942C482.257 52.238 481.914 49.8054 480.306 47.6753C479.509 46.6308 477.75 46.2185 476.458 45.8887C474.231 45.3115 472.225 45.4901 470.04 45.8612C464.144 46.8644 463.416 50.6025 460.158 54.3681C457.698 55.5088 454.318 54.6155 453.191 52.0868C452.201 49.8604 453.026 47.3867 454.235 45.3252C459.54 36.3235 475.743 36.3648 484.635 38.8797C491.946 40.9412 493.953 47.8264 493.953 54.643L493.925 69.9527C493.925 77.1541 499.106 81.758 493.114 84.9464C488.442 87.4339 485.446 82.5414 483.151 79.0644C480.375 80.9059 477.667 82.8575 474.534 84.0394C468.171 86.4444 460.021 86.4994 454.799 81.7305ZM481.584 70.3375C481.818 69.5679 482.889 62.2979 482.285 62.023L467.332 65.5962C464.845 66.1871 463.017 68.2761 462.673 70.1726C462.192 72.9075 463.141 74.8865 465.202 76.4532C469.614 79.8065 479.481 77.2091 481.57 70.3375H481.584Z" fill="#BE206B"/>
<path d="M345.445 62.8199C345.445 72.5912 339.742 81.5791 330.177 84.4514C321.986 86.9114 312.407 85.7158 305.81 79.8338C298.362 73.1821 296.932 61.5006 299.983 52.2515C303.79 40.6799 315.389 36.0897 326.988 37.9587C338.313 39.7866 345.431 48.9944 345.445 60.4424V62.8336V62.8199ZM323.429 76.7416C333.874 75.6009 335.275 62.0228 332.472 53.8732C330.974 49.5166 327.236 46.5619 323.003 46.2733C318.55 45.9709 314.331 48.0324 312.352 52.2515C309.768 57.735 309.713 64.4416 311.94 69.98C313.877 74.7901 318.165 77.3188 323.429 76.7416Z" fill="#BE206B"/>
<path d="M235.198 83.4613C226.733 86.8971 213.347 86.7734 206.338 79.7919C204.235 77.703 202.806 74.707 203.425 71.8347C203.878 69.7595 205.885 68.344 207.575 68.1653C213.429 67.5606 212.275 75.298 219.792 77.4419C223.242 78.4314 226.54 78.3077 229.687 76.5211C231.213 75.6553 232.464 73.9099 232.312 72.2608C231.873 67.4232 226.623 66.7086 222.143 65.458L217.085 64.0424C213.993 63.1766 211.066 61.9535 208.413 60.1119C203.163 56.4838 202.298 49.0488 206.393 43.7714C212.041 36.4876 224.19 36.4876 232.354 39.0851C235.776 40.1708 238.813 42.1772 240.627 45.2145C241.754 47.0973 241.974 49.7359 240.476 51.3713C238.029 54.0237 233.879 53.4603 231.735 50.6842C230.223 48.7327 228.629 46.6162 226.238 45.723C221.881 44.115 214.584 45.5168 214.666 49.9008C214.694 51.6599 216.274 53.2541 217.923 53.8863C221.002 55.082 224.094 55.8928 227.351 56.6487C235.473 58.5452 245.561 62.4207 243.664 72.783C242.785 77.6205 240.05 81.4686 235.198 83.4338V83.4613Z" fill="#BE206B"/>
<path d="M47.3173 21.9057C45.5582 22.1394 39.7449 26.9082 32.4336 21.2186C28.723 22.2081 24.6963 22.1943 20.8345 21.356C23.3082 17.989 26.7302 14.6219 27.8847 10.5128C29.4788 4.86438 33.1482 0.384147 39.1814 0.0268284C44.6786 -0.303005 50.1621 3.28393 51.5089 8.97355C52.5946 13.55 54.2988 18.0302 57.4184 21.2461C53.9827 22.6479 50.6294 21.466 47.331 21.9195L47.3173 21.9057Z" fill="#BE206B"/>
<path d="M133.061 24.6416C139.778 24.6416 145.223 19.1962 145.223 12.479C145.223 5.76178 139.778 0.316406 133.061 0.316406C126.343 0.316406 120.898 5.76178 120.898 12.479C120.898 19.1962 126.343 24.6416 133.061 24.6416Z" fill="#448BC6"/>
</g>
<defs>
<clipPath id="clip0_316_1843">
<rect width="496" height="85.6878" fill="white"/>
</clipPath>
</defs>
</svg>
