<svg width="541" height="196" viewBox="0 0 541 196" fill="none" xmlns="http://www.w3.org/2000/svg">
<path d="M235.714 89.1538C234.866 92.5305 233.252 95.4902 230.615 97.8177C228.315 99.8625 225.611 101.141 222.651 101.907C220.041 102.567 217.391 102.62 214.727 102.54C212.426 102.472 210.207 102.042 208.068 101.262C204.449 99.9298 201.435 97.7638 199.31 94.5082C197.655 92.0059 196.605 89.248 195.973 86.3286C195.327 83.3151 195.179 80.2612 195.368 77.2073C195.637 73.1041 196.632 69.2161 198.704 65.6376C201.22 61.3056 204.906 58.5208 209.763 57.4176C211.256 57.0679 212.763 56.8391 214.296 56.6643C217.727 56.3279 221.131 56.6912 224.386 57.7674C230.36 59.7181 234.194 63.781 235.754 69.9426C235.875 70.3462 236.01 70.7767 236.131 71.1937C236.709 71.409 237.261 71.3417 237.786 71.3417C241.997 71.3417 246.194 71.3417 250.365 71.3417C251.952 71.3417 253.553 71.3417 255.1 71.3417C255.49 71.3283 255.907 71.4359 256.297 71.0323C256.297 70.9112 256.338 70.7229 256.297 70.5345C256.028 69.1758 255.84 67.7901 255.517 66.4717C253.513 58.467 248.925 52.4534 241.674 48.4981C239.319 47.2066 236.817 46.3322 234.261 45.5519C229.216 44.0451 224.01 43.4801 218.776 43.2918C213.489 43.09 208.229 43.4128 203.009 44.3815C199.484 45.0541 196.081 46.0362 192.852 47.543C185.211 51.1888 179.937 57.0006 177.327 65.0994C176.358 68.0053 175.766 71.0054 175.484 74.0727C175.013 79.2791 175.121 84.4182 176.13 89.5574C176.775 92.8131 177.811 95.9611 179.358 98.8805C182.439 104.706 187.121 108.89 193.081 111.661C197.749 113.8 202.7 114.903 207.772 115.495C211.404 115.885 215.063 115.872 218.709 115.832C222.422 115.764 226.108 115.334 229.741 114.594C233.642 113.8 237.382 112.643 240.907 110.76C244.041 109.132 246.907 107.141 249.275 104.477C252.759 100.616 254.952 96.0956 256.015 91.0103C256.244 89.9206 256.607 88.8309 256.418 87.6201C256.109 87.5528 255.84 87.4587 255.557 87.4587C250.876 87.2434 237.328 87.378 236.091 87.6336C235.943 88.1179 235.835 88.6291 235.7 89.1538H235.714Z" fill="black"/>
<path d="M44.3286 58.143C49.0238 58.1565 53.7055 58.1565 58.4007 58.1565C61.2662 58.1565 64.1317 58.143 66.9838 58.1565C67.4681 58.1565 67.9794 58.0085 68.4368 58.3986C68.6386 58.9502 68.5444 59.5287 68.5444 60.1206C68.5579 76.8968 68.5579 93.6999 68.5579 110.476C68.5579 110.974 68.5444 111.485 68.5579 111.969C68.5579 112.238 68.652 112.507 68.7327 112.83C69.1902 112.857 69.5803 112.911 69.957 112.911C73.0378 112.925 76.0782 112.925 79.1321 112.911C79.724 112.911 80.3294 112.871 80.9079 112.83C82.1322 112.709 83.3429 112.4 84.4596 111.862C86.3968 110.893 87.6076 109.346 87.9305 107.18C88.0112 106.44 88.0516 105.714 88.065 104.96V73.4124C88.065 68.9325 88.065 64.4391 88.065 59.9457C88.065 59.3942 87.944 58.856 88.2265 58.3045C88.7646 58.0623 89.37 58.1565 89.9619 58.1565C96.8769 58.143 103.778 58.1565 110.68 58.143C111.272 58.143 111.877 58.2775 112.483 57.9278C112.523 57.7394 112.617 57.5107 112.617 57.2551C112.617 53.7035 112.617 50.1518 112.617 46.5867C112.617 46.3176 112.483 46.0486 112.375 45.6988C111.743 45.6719 111.164 45.6719 110.586 45.6719H44.5035C44.1134 45.6719 43.7232 45.6719 43.3062 45.6719C43.0909 45.6988 42.8622 45.793 42.6604 45.8333C42.4317 46.9903 42.4048 56.3403 42.5931 57.9278C43.1851 58.2775 43.7367 58.143 44.2748 58.143H44.3286Z" fill="black"/>
<path d="M119.734 112.939H169.673C169.942 112.939 170.251 112.953 170.547 112.926C170.83 112.899 171.112 112.845 171.408 112.805C171.462 112.536 171.529 112.347 171.529 112.159C171.529 108.5 171.543 104.854 171.529 101.208C171.529 100.979 171.408 100.764 171.354 100.562C169.726 100.32 129.219 100.226 119.156 100.414C118.819 100.428 118.483 100.495 118.12 100.535C118.053 100.764 117.958 100.952 117.958 101.127C117.945 104.84 117.945 108.54 117.958 112.24C117.958 112.415 118.053 112.616 118.106 112.778C118.645 113.033 119.196 112.953 119.734 112.953V112.939Z" fill="black"/>
<path d="M119.842 58.1443C130.712 58.1578 141.555 58.1577 152.412 58.1577C155.479 58.1577 158.533 58.1443 161.614 58.1577C162.959 58.1577 164.251 57.9559 165.569 57.6465C167.56 57.1488 168.946 55.9245 169.928 54.1621C170.143 53.7182 170.359 53.2608 170.52 52.7899C171.233 50.7719 171.556 48.6867 171.529 46.5342C171.529 46.3055 171.462 46.0768 171.394 45.8481C170.776 45.5521 170.197 45.6597 169.605 45.6597C153.017 45.6597 136.43 45.6597 119.855 45.6597C119.452 45.6597 119.061 45.6597 118.685 45.6597C118.496 45.6866 118.308 45.7673 118.133 45.8211C118.079 46.0095 117.985 46.1306 117.985 46.2786C117.985 49.9782 117.972 53.6913 117.985 57.3775C117.985 57.5658 118.066 57.7542 118.093 57.9156C118.671 58.2654 119.304 58.1308 119.869 58.1308L119.842 58.1443Z" fill="black"/>
<path d="M119.882 85.5753C135.528 85.5888 151.161 85.5888 166.82 85.5888C167.156 85.5888 167.506 85.5888 167.843 85.5753C168.139 85.5619 168.408 85.4677 168.757 85.387C168.771 84.0148 168.771 82.6829 168.771 81.351C168.771 79.9788 168.798 78.6066 168.771 77.2074C168.757 75.9025 168.919 74.5571 168.636 73.1984C168.192 73.1984 167.802 73.1446 167.426 73.1446C152.708 72.9697 119.559 73.0638 118.079 73.2656C118.039 73.4405 117.945 73.6289 117.945 73.8038C117.931 77.5034 117.931 81.203 117.945 84.9027C117.945 85.091 118.039 85.2794 118.093 85.4946C118.685 85.6964 119.276 85.6022 119.868 85.6022L119.882 85.5753Z" fill="black"/>
<path d="M175.336 131.062H188.883C194.063 131.062 196.39 133.35 196.39 137.17C196.39 140.13 194.816 141.596 192.839 142.323V142.39C195.637 143.036 197.44 144.879 197.44 148.39C197.44 151.902 195.018 155.426 189.731 155.426H175.336V131.062ZM188.816 141.139C191.48 141.139 192.771 139.673 192.771 137.722C192.771 135.502 191.574 134.211 188.614 134.211H178.955V141.139H188.816ZM188.749 152.292C192.771 152.292 193.834 150.247 193.834 148.162C193.834 146.251 192.744 144.274 189.058 144.274H178.968V152.292H188.762H188.749Z" fill="black"/>
<path d="M202.687 147.516C202.956 151.202 206.238 153.179 209.279 153.179C211.229 153.179 213.88 152.534 215.037 150.004H218.656C216.947 154.31 212.951 156.045 209.44 156.045C202.485 156.045 199.068 151.646 199.068 146.493C199.068 141.341 202.485 136.941 209.44 136.941C214.149 136.941 219.14 139.672 219.14 147.072V147.516H202.687ZM215.521 144.852C215.01 141.61 212.48 139.807 209.279 139.807C206.077 139.807 203.305 141.65 202.794 144.852H215.521Z" fill="black"/>
<path d="M233.158 147.408C233.225 151.78 237.315 152.897 241.001 152.897C244.687 152.897 247.579 151.43 247.579 148.767C247.579 146.547 245.844 145.619 243.032 145.148L237.503 144.219C234.611 143.735 230.279 142.592 230.279 137.843C230.279 133.403 233.79 130.443 240.032 130.443C244.916 130.443 250.055 132.219 250.405 138.085H246.786C246.476 136.174 245.387 133.578 239.548 133.578C236.884 133.578 233.884 134.708 233.884 137.587C233.884 139.08 234.88 140.278 237.88 140.789L243.853 141.811C245.763 142.148 251.185 143.076 251.185 148.054C251.185 154.269 245.629 156.031 240.718 156.031C235.229 156.031 229.525 154.121 229.525 147.408H233.144H233.158Z" fill="black"/>
<path d="M279.517 144.058C279.517 140.789 277.432 139.794 275.226 139.794C272.118 139.794 269.36 141.26 269.36 144.61V155.426H265.943V144.072C265.943 140.803 263.858 139.807 261.652 139.807C258.544 139.807 255.772 141.61 255.772 145.135V155.44H252.369V137.574H255.772V140.265H255.84C257.441 137.776 260.279 136.955 262.835 136.955C265.149 136.955 267.477 137.91 268.916 140.265C270.544 138.22 272.737 136.955 276.141 136.955C277.943 136.955 282.934 137.816 282.934 143.265V155.44H279.517V144.085V144.058Z" fill="black"/>
<path d="M285.585 143.143C286.029 138.677 289.096 136.941 294.451 136.941C298.11 136.941 302.671 137.856 302.671 142.027V151.646C302.671 152.709 303.155 153.179 304.204 153.179C304.581 153.179 305.052 153.112 305.388 153.045V155.426C304.581 155.561 303.545 155.628 302.738 155.628C301.029 155.628 299.899 155.157 299.657 153.139C298.298 154.982 294.948 156.032 292.056 156.032C286.123 156.032 284.791 152.964 284.791 150.65C284.791 147.368 286.742 145.699 292.473 145.081L296.361 144.677C298.271 144.475 299.455 144.125 299.455 142.524C299.455 140.063 297.074 139.592 294.303 139.592C291.37 139.592 288.881 140.372 288.773 143.143H285.571H285.585ZM299.469 146.076C298.957 146.655 298.043 146.897 296.132 147.125L292.285 147.61C289.621 147.96 288.222 148.673 288.222 150.543C288.222 152.211 289.89 153.381 292.392 153.381C296.24 153.381 299.482 151.336 299.482 148.363V146.076H299.469Z" fill="black"/>
<path d="M306.249 137.547H309.666V140.816H309.734C311.335 137.977 313.622 136.928 315.868 136.928C316.716 136.928 317.16 136.955 317.819 137.13V140.816C316.972 140.614 316.312 140.479 315.398 140.479C312.021 140.479 309.666 142.457 309.666 146.345V155.412H306.249V137.547Z" fill="black"/>
<path d="M320.174 132.059H323.577V137.561H328.703V140.225H323.577V151.243C323.577 152.669 324.6 153.194 326.335 153.194C327.115 153.194 327.909 153.086 328.689 152.951V155.817C327.532 156.019 326.268 156.059 324.869 156.059C321.519 156.059 320.16 154.431 320.16 151.835V140.238H316.474V137.574H320.16V132.072L320.174 132.059Z" fill="black"/>
<path d="M358.556 152.655C356.712 154.915 353.295 156.031 349.892 156.031C342.56 156.031 340.273 152.009 340.273 148.767C340.273 145.726 342.089 143.063 346.623 141.502C344.47 139.592 343.959 137.923 343.959 136.551C343.959 133.282 346.246 131.049 350.268 131.049C354.291 131.049 356.443 133.443 356.443 136.336C356.443 138.246 355.313 140.56 351.735 142L358.179 147.973C358.865 146.843 359.161 145.847 359.309 144.179H362.511C362.443 146.063 361.959 148.067 360.493 150.112L366.224 155.399H361.475L358.542 152.641L358.556 152.655ZM348.56 143.412C344.766 145.013 343.892 146.722 343.892 148.659C343.892 150.596 345.291 153.166 350.067 153.166C352.461 153.166 354.883 152.587 356.309 150.677L348.573 143.412H348.56ZM349.717 140.21C352.286 139.148 353.228 137.789 353.228 136.565C353.228 135.166 352.004 133.941 350.295 133.941C348.102 133.941 347.147 135.166 347.147 136.403C347.147 137.641 348.008 138.65 349.703 140.224L349.717 140.21Z" fill="black"/>
<path d="M378.103 147.408C378.17 151.78 382.26 152.897 385.946 152.897C389.632 152.897 392.538 151.43 392.538 148.767C392.538 146.547 390.789 145.619 388.005 145.148L382.475 144.219C379.569 143.735 375.237 142.592 375.237 137.843C375.237 133.403 378.749 130.443 384.991 130.443C389.861 130.443 395.027 132.219 395.363 138.085H391.745C391.435 136.174 390.345 133.578 384.52 133.578C381.856 133.578 378.856 134.708 378.856 137.587C378.856 139.08 379.852 140.278 382.852 140.789L388.825 141.811C390.736 142.148 396.157 143.076 396.157 148.054C396.157 154.269 390.601 156.031 385.691 156.031C380.202 156.031 374.497 154.121 374.497 147.408H378.116H378.103Z" fill="black"/>
<path d="M400.139 147.516C400.409 151.202 403.678 153.179 406.718 153.179C408.669 153.179 411.333 152.534 412.49 150.004H416.108C414.4 154.31 410.404 156.045 406.893 156.045C399.938 156.045 396.521 151.646 396.521 146.493C396.521 141.341 399.938 136.941 406.893 136.941C411.602 136.941 416.593 139.672 416.593 147.072V147.516H400.153H400.139ZM412.96 144.852C412.436 141.61 409.92 139.807 406.705 139.807C403.489 139.807 400.731 141.65 400.22 144.852H412.947H412.96Z" fill="black"/>
<path d="M436.84 148.874C435.4 154.215 432.158 156.031 427.53 156.031C420.427 156.031 417.803 151.229 417.803 146.587C417.803 141.3 421.046 136.928 427.503 136.928C432.279 136.928 436.059 139.08 436.786 143.506H433.167C432.75 141.192 430.907 139.793 427.745 139.793C423.373 139.793 421.436 142.659 421.436 146.48C421.436 150.3 423.373 153.166 427.745 153.166C430.813 153.166 432.481 151.834 433.234 148.874H436.853H436.84Z" fill="black"/>
<path d="M456.589 155.426H453.172V152.736H453.105C451.504 155.224 448.665 156.045 446.109 156.045C441.804 156.045 438.602 154.202 438.602 149.736V137.56H442.006V149.049C442.006 151.673 443.647 153.18 447.293 153.18C450.4 153.18 453.158 151.363 453.158 147.852V137.547H456.576V155.413L456.589 155.426Z" fill="black"/>
<path d="M459.28 137.547H462.697V140.816H462.751C464.365 137.977 466.639 136.928 468.899 136.928C469.76 136.928 470.19 136.955 470.849 137.13V140.816C469.988 140.614 469.343 140.479 468.428 140.479C465.051 140.479 462.697 142.457 462.697 146.345V155.412H459.28V137.547Z" fill="black"/>
<path d="M474.536 147.516C474.805 151.202 478.074 153.179 481.114 153.179C483.065 153.179 485.729 152.534 486.886 150.004H490.505C488.796 154.31 484.8 156.045 481.289 156.045C474.334 156.045 470.917 151.646 470.917 146.493C470.917 141.341 474.334 136.941 481.289 136.941C485.998 136.941 490.975 139.672 490.975 147.072V147.516H474.536ZM487.356 144.852C486.845 141.61 484.316 139.807 481.114 139.807C477.912 139.807 475.141 141.65 474.63 144.852H487.356Z" fill="black"/>
<path d="M406.059 73.629C405.386 73.2792 404.687 72.9698 403.987 72.6738C406.247 84.5127 407.216 97.0914 406.382 110.343C407.041 109.939 407.7 109.549 408.332 109.078C409.019 96.6475 408.131 84.8086 406.059 73.629Z" fill="black"/>
<path d="M410.821 76.8049C410.149 76.1861 409.422 75.6479 408.669 75.1367C410.418 85.267 411.211 95.9219 410.754 107.048C411.467 106.348 412.113 105.608 412.691 104.815C412.96 95.1013 412.274 85.7648 410.821 76.8049Z" fill="black"/>
<path d="M396.009 98.0605C395.471 98.7467 394.838 99.3521 394.139 99.8902C394.179 104.801 393.991 109.819 393.52 114.931C394.004 114.85 394.489 114.783 394.973 114.689C395.121 114.662 395.269 114.608 395.43 114.581C395.942 108.944 396.143 103.442 396.022 98.0605H396.009Z" fill="black"/>
<path d="M401.484 71.7593C400.879 71.5575 400.287 71.3288 399.655 71.1673C399.587 71.1539 399.534 71.1404 399.466 71.127C402.103 84.0555 403.193 97.9123 402.049 112.617C402.722 112.348 403.354 111.998 404 111.675C405.022 97.576 403.973 84.2573 401.471 71.7727L401.484 71.7593Z" fill="black"/>
<path d="M397.018 70.5353C396.372 70.4008 395.713 70.2932 395.054 70.1855C397.96 83.7598 399.117 98.4104 397.772 114.003C398.417 113.828 399.063 113.626 399.695 113.424C400.973 98.1952 399.843 83.854 397.018 70.5353Z" fill="black"/>
<path d="M416.027 85.24C415.529 83.3566 414.709 81.6346 413.619 80.0605C414.534 86.7199 415.032 93.581 415.032 100.631C415.18 100.281 415.368 99.9579 415.503 99.5946C416.189 97.7112 416.592 95.8008 416.781 93.8905C416.66 91.2805 416.485 88.6841 416.229 86.1279C416.162 85.832 416.108 85.536 416.027 85.24Z" fill="black"/>
<path d="M381.614 102.959C381.574 107.129 381.345 111.381 380.928 115.713C381.547 115.74 382.166 115.753 382.798 115.766C383.229 111.421 383.457 107.17 383.498 102.986C382.865 102.986 382.246 102.986 381.614 102.959Z" fill="black"/>
<path d="M370.946 99.9583C370.206 99.4337 369.573 98.8552 369.049 98.2363C369.183 103.322 369.022 108.568 368.578 113.936C369.183 114.098 369.802 114.259 370.407 114.394C370.838 109.47 371.013 104.654 370.959 99.9583H370.946Z" fill="black"/>
<path d="M375.143 101.936C374.498 101.748 373.865 101.519 373.246 101.25C373.26 105.676 373.071 110.21 372.654 114.851C373.273 114.959 373.879 115.066 374.498 115.161C374.915 110.667 375.13 106.255 375.143 101.95V101.936Z" fill="black"/>
<path d="M354.533 55.8574C354.089 56.3821 353.645 56.9068 353.241 57.4584C358.622 73.0775 361.636 90.7685 360.466 110.464C361.058 110.827 361.663 111.191 362.282 111.513C363.681 90.7416 360.385 72.1493 354.533 55.8574Z" fill="black"/>
<path d="M391.852 101.316C391.247 101.612 390.614 101.855 389.969 102.056C389.942 106.442 389.713 110.935 389.282 115.496C389.915 115.442 390.547 115.402 391.166 115.321C391.623 110.559 391.839 105.891 391.839 101.316H391.852Z" fill="black"/>
<path d="M377.47 102.486C377.47 102.486 377.457 102.486 377.444 102.486C377.417 106.724 377.201 111.043 376.784 115.455C377.403 115.522 378.022 115.563 378.641 115.603C379.071 111.244 379.287 106.953 379.327 102.769C378.708 102.688 378.089 102.607 377.47 102.5V102.486Z" fill="black"/>
<path d="M357.695 52.7363C357.21 53.1399 356.753 53.5704 356.309 54.0009C362.592 71.0462 366.13 90.6072 364.515 112.536C365.107 112.778 365.713 113.007 366.332 113.222C368.148 90.4995 364.367 70.2793 357.708 52.7498L357.695 52.7363Z" fill="black"/>
<path d="M393.17 84.299C393.305 84.3797 393.439 84.4335 393.56 84.5142C394.206 84.9313 394.731 85.4022 395.215 85.8999C394.637 80.3976 393.749 75.0432 392.619 69.8502C391.973 69.7695 391.341 69.7157 390.695 69.6484C391.744 74.3974 392.578 79.2809 393.17 84.299Z" fill="black"/>
<path d="M369.964 85.1332C369.493 81.2856 368.874 77.5321 368.121 73.8594C367.556 74.2092 367.004 74.5858 366.466 75.0029C367.246 78.9581 367.865 83.0076 368.309 87.1781C368.753 86.4247 369.318 85.752 369.977 85.1466L369.964 85.1332Z" fill="black"/>
<path d="M386.417 69.4199C387.372 73.6711 388.152 78.03 388.744 82.5099C389.094 82.6041 389.457 82.6713 389.807 82.779C390.117 82.8731 390.399 83.0077 390.709 83.1153C390.117 78.4605 389.31 73.9133 388.314 69.4872C387.682 69.4603 387.049 69.4334 386.417 69.4199Z" fill="black"/>
<path d="M412.664 64.8591C411.642 60.6079 410.471 56.4509 409.153 52.4015C408.346 51.675 407.498 51.0158 406.61 50.4238C408.198 55.1055 409.597 59.9218 410.781 64.8726C411.413 64.8726 412.045 64.8726 412.664 64.8726V64.8591Z" fill="black"/>
<path d="M408.413 64.8707C407.068 59.3146 405.44 53.9198 403.597 48.7134C402.87 48.3636 402.13 48.0677 401.39 47.7852C403.381 53.2741 405.117 58.9782 406.543 64.8707C407.175 64.8707 407.794 64.8707 408.426 64.8707H408.413Z" fill="black"/>
<path d="M382.219 69.5529C383.121 73.5485 383.874 77.6383 384.453 81.8357C385.098 81.8895 385.744 81.9703 386.363 82.051C385.771 77.746 385.004 73.5351 384.076 69.4453C383.457 69.4722 382.838 69.5126 382.219 69.5529Z" fill="black"/>
<path d="M404.175 64.8727C402.641 58.6439 400.771 52.6438 398.619 46.8723C398.242 46.7647 397.879 46.6302 397.502 46.536C397.193 46.4553 396.87 46.4149 396.547 46.3477C398.78 52.2805 400.718 58.4556 402.292 64.8727C402.924 64.8727 403.543 64.8727 404.175 64.8727Z" fill="black"/>
<path d="M415.086 64.7641C415.14 64.4277 415.18 64.2798 415.167 64.1318C414.844 61.6833 414.144 59.4097 413.041 57.3379C413.741 59.7864 414.4 62.2618 414.992 64.7775C415.032 64.7775 415.046 64.7775 415.086 64.7775V64.7641Z" fill="black"/>
<path d="M370.219 72.6611C370.973 76.2262 371.592 79.8855 372.076 83.6255C372.278 83.5179 372.466 83.3968 372.681 83.3026C373.071 83.1143 373.462 82.9529 373.865 82.8049C373.354 79.0783 372.708 75.4325 371.928 71.8809C371.349 72.123 370.784 72.3786 370.219 72.6611Z" fill="black"/>
<path d="M351.64 59.9082C351.223 60.6212 350.82 61.3208 350.47 62.0607C354.694 75.6619 357.075 90.8103 356.456 107.452C356.779 107.748 357.102 108.057 357.452 108.34C357.708 108.555 357.99 108.73 358.259 108.932C359.147 90.8372 356.456 74.4646 351.654 59.9082H351.64Z" fill="black"/>
<path d="M374.094 71.0876C374.887 74.7065 375.56 78.4062 376.085 82.2C376.515 82.1058 376.959 82.0385 377.403 81.9713C377.578 81.9444 377.753 81.9309 377.941 81.904C377.39 78.0429 376.704 74.276 375.87 70.5898C375.278 70.7378 374.686 70.9127 374.094 71.1011V71.0876Z" fill="black"/>
<path d="M379.004 69.918C378.695 69.9718 378.399 70.0256 378.103 70.0928C378.95 73.8732 379.677 77.7477 380.228 81.703C380.538 81.6761 380.834 81.6626 381.076 81.6357C381.426 81.6357 381.762 81.6626 382.112 81.6761C381.547 77.6266 380.807 73.6579 379.919 69.7969C379.623 69.8372 379.314 69.8641 379.018 69.918H379.004Z" fill="black"/>
<path d="M372.991 59.7738C371.645 55.3881 370.112 51.1503 368.43 47.0605C367.878 47.222 367.327 47.4103 366.775 47.5987C368.484 51.8364 370.058 56.2222 371.417 60.7559C371.914 60.3927 372.426 60.0698 372.991 59.7738Z" fill="black"/>
<path d="M369.52 62.4503C368.107 57.6072 366.479 52.9524 364.663 48.459C364.138 48.6877 363.614 48.9433 363.103 49.2124C365.026 54.0421 366.735 59.0601 368.174 64.2934C368.591 63.6342 369.035 63.0154 369.533 62.4638L369.52 62.4503Z" fill="black"/>
<path d="M349.111 65.5447C348.734 66.6344 348.411 67.751 348.142 68.8542C350.833 79.2804 352.407 90.5542 352.367 102.689C352.932 103.55 353.551 104.357 354.21 105.138C354.506 90.7695 352.555 77.5584 349.111 65.5312V65.5447Z" fill="black"/>
<path d="M376.717 58.388C376.717 58.388 376.771 58.388 376.812 58.3746C375.48 54.1503 373.986 50.047 372.359 46.0918C371.793 46.2129 371.228 46.3609 370.663 46.4954C372.291 50.4776 373.771 54.6077 375.103 58.8589C375.628 58.684 376.166 58.5226 376.731 58.388H376.717Z" fill="black"/>
<path d="M366.641 67.4944C365.107 61.5212 363.237 55.7901 361.085 50.3281C360.587 50.6375 360.076 50.947 359.591 51.2833C362.04 57.6198 364.112 64.3195 365.699 71.3555C365.914 69.9564 366.251 68.5707 366.641 67.4944Z" fill="black"/>
<path d="M394.933 61.9522C393.345 56.1538 391.462 50.5707 389.336 45.1894C388.69 45.1356 388.058 45.1087 387.412 45.0684C389.282 49.8039 390.977 54.7009 392.444 59.7862C393.385 60.3647 394.246 61.0642 394.933 61.9522Z" fill="black"/>
<path d="M389.686 58.5496C388.287 53.8813 386.673 49.3745 384.924 45.0022C384.305 45.0022 383.673 44.9753 383.054 45.0022C384.762 49.24 386.309 53.6123 387.682 58.1325C388.354 58.2536 389.027 58.3881 389.686 58.563V58.5496Z" fill="black"/>
<path d="M399.938 64.8731C398.296 58.2541 396.251 51.8907 393.897 45.8099C393.238 45.6888 392.565 45.6215 391.906 45.5273C394.301 51.7024 396.373 58.1599 398.041 64.8865C398.673 64.8865 399.305 64.8865 399.924 64.8865L399.938 64.8731Z" fill="black"/>
<path d="M385.193 57.8496C383.834 53.4638 382.3 49.2126 380.619 45.1094C380.013 45.1363 379.408 45.1766 378.802 45.2305C380.444 49.2799 381.95 53.4638 383.282 57.7689C383.915 57.7689 384.547 57.8092 385.179 57.863L385.193 57.8496Z" fill="black"/>
<path d="M380.914 57.7954C379.583 53.5576 378.076 49.4275 376.448 45.4453C376.313 45.4588 376.165 45.4722 376.031 45.4857C375.573 45.5395 375.143 45.6337 374.686 45.7009C376.3 49.6562 377.78 53.7325 379.098 57.9434C379.704 57.8626 380.309 57.8223 380.914 57.7954Z" fill="black"/>
<path d="M386.645 102.796C386.363 102.836 386.08 102.836 385.784 102.863C385.744 107.074 385.515 111.366 385.085 115.738C385.704 115.725 386.336 115.711 386.955 115.684C387.385 111.245 387.628 106.886 387.654 102.621C387.318 102.688 386.968 102.756 386.619 102.796H386.645Z" fill="black"/>
<path d="M349.999 98.128C349.744 89.8812 348.748 82.0514 347.147 74.6387C347.039 75.7284 346.959 76.8315 346.905 77.9347C346.797 80.2352 346.851 82.5357 347.013 84.8362C347.241 86.5448 347.443 88.2533 347.605 90.0023C348.089 92.7871 348.869 95.4912 349.986 98.1145L349.999 98.128Z" fill="black"/>
<path d="M490.007 82.6163C490.155 79.4009 489.953 76.1722 489.509 72.9568C489.065 69.7953 488.285 66.7145 487.074 63.7817C486.886 63.3243 486.657 62.9207 486.455 62.4902C488.016 70.024 489.146 77.8135 489.738 85.8047C489.845 84.7553 489.926 83.6925 489.98 82.6163H490.007Z" fill="black"/>
<path d="M424.045 59.5176C423.575 60.2979 423.184 61.1185 422.781 61.9526C426.198 75.648 428.028 90.2985 427.489 105.797C428.068 106.416 428.66 106.994 429.292 107.559C430.099 90.5138 428.028 74.4237 424.045 59.5176Z" fill="black"/>
<path d="M445.436 60.2034C444.293 55.589 442.974 51.0687 441.508 46.6426C441.05 46.7637 440.58 46.8847 440.122 47.0327C440.015 47.0731 439.907 47.1134 439.786 47.1538C441.306 51.7952 442.665 56.5576 443.835 61.4277C444.333 60.9703 444.871 60.5667 445.423 60.2034H445.436Z" fill="black"/>
<path d="M449.257 58.4822C448.154 54.1502 446.889 49.899 445.503 45.7285C444.911 45.8361 444.32 45.9572 443.741 46.0917C445.14 50.3295 446.405 54.6615 447.521 59.0741C448.073 58.832 448.665 58.6571 449.27 58.4822H449.257Z" fill="black"/>
<path d="M480.159 53.6113C483.832 67.8179 486.078 83.0201 486.065 98.9352C486.67 97.7244 487.222 96.4868 487.679 95.1818C487.76 94.9531 487.814 94.7109 487.895 94.4688C487.558 81.2846 485.661 68.531 482.648 56.3423C481.868 55.3737 481.033 54.4589 480.146 53.6113H480.159Z" fill="black"/>
<path d="M430.49 52.2793C429.978 52.6829 429.454 53.073 428.969 53.517C434.297 71.3425 437.068 90.89 435.508 111.783C435.79 111.931 436.059 112.079 436.342 112.213C436.665 112.361 436.988 112.469 437.31 112.604C439.073 90.9439 436.14 70.6833 430.49 52.2793Z" fill="black"/>
<path d="M427.153 55.4141C426.669 55.9522 426.171 56.5038 425.727 57.0823C430.22 73.1992 432.561 90.7019 431.472 109.335C432.05 109.752 432.655 110.155 433.288 110.545C434.62 90.8364 432.063 72.3517 427.153 55.4141Z" fill="black"/>
<path d="M421.288 65.5174C420.871 66.7147 420.494 67.9255 420.198 69.1497C422.216 78.9975 423.373 89.343 423.4 100.106C423.978 101.155 424.584 102.15 425.256 103.092C425.485 89.9215 424.005 77.3562 421.288 65.5039V65.5174Z" fill="black"/>
<path d="M438.723 70.1184C438.804 69.8359 438.911 69.5668 438.992 69.2843C437.674 62.5711 435.979 56.0598 433.974 49.7637C433.436 50.0731 432.925 50.4229 432.414 50.7727C434.728 58.1585 436.598 65.8403 437.916 73.7911C438.118 72.54 438.36 71.3157 438.71 70.1184H438.723Z" fill="black"/>
<path d="M460.988 101.841C460.921 106.334 460.666 110.881 460.208 115.469C460.84 115.401 461.473 115.321 462.105 115.213C462.589 110.397 462.845 105.634 462.899 100.926C462.293 101.276 461.661 101.572 460.988 101.827V101.841Z" fill="black"/>
<path d="M419.108 76.24C418.812 80.5181 418.906 84.7828 419.633 89.0071C419.956 90.8771 420.4 92.7202 420.978 94.5095C420.723 88.2134 420.09 82.0787 419.122 76.1055C419.122 76.1458 419.122 76.1996 419.108 76.24Z" fill="black"/>
<path d="M471.953 48.2295C471.307 47.947 470.621 47.7048 469.935 47.4492C475.572 66.3106 478.787 87.1631 477.401 109.294C478.074 108.796 478.72 108.258 479.365 107.706C480.496 86.7192 477.469 66.7277 471.953 48.2295Z" fill="black"/>
<path d="M467.19 46.5755C466.544 46.4006 465.898 46.1988 465.239 46.0508C471.414 65.975 474.885 88.2132 473.029 111.931C473.701 111.608 474.374 111.272 475.006 110.895C476.674 88.0787 473.352 66.419 467.19 46.5755Z" fill="black"/>
<path d="M477.038 51.0693C476.325 50.5715 475.598 50.1141 474.831 49.6836C479.688 66.8499 482.513 85.5633 481.746 105.326C482.446 104.532 483.105 103.712 483.71 102.851C484.154 84.7292 481.571 67.3477 477.024 51.0693H477.038Z" fill="black"/>
<path d="M441.992 63.4606C440.768 58.1465 439.302 52.9805 437.661 47.9355C437.109 48.1643 436.557 48.4064 436.019 48.6755C437.795 54.1778 439.329 59.8416 440.58 65.6534C440.997 64.9001 441.468 64.1736 441.992 63.4606Z" fill="black"/>
<path d="M470.862 88.1328C470.795 88.4557 470.755 88.792 470.674 89.1149C470.338 90.6082 469.854 92.0342 469.235 93.4199C469.477 100.052 469.315 106.806 468.697 113.68C468.885 113.627 469.06 113.573 469.248 113.519C469.719 113.358 470.176 113.156 470.634 112.967C471.36 104.519 471.401 96.2317 470.849 88.1328H470.862Z" fill="black"/>
<path d="M462.225 59.4776C461.042 54.5672 459.669 49.7644 458.136 45.0692C457.503 45.0289 456.871 45.0154 456.225 45.002C457.678 49.455 458.983 54.0022 460.127 58.6435C460.853 58.8722 461.566 59.1413 462.225 59.4776Z" fill="black"/>
<path d="M467.513 64.091C466.181 57.7546 464.513 51.5795 462.602 45.5659C461.943 45.4583 461.284 45.3776 460.625 45.2969C462.306 50.5302 463.8 55.898 465.037 61.3869C465.939 62.1807 466.786 63.0551 467.513 64.091Z" fill="black"/>
<path d="M452.607 102.904C452.526 107.115 452.284 111.366 451.84 115.685C452.459 115.712 453.078 115.779 453.71 115.779C454.154 111.461 454.396 107.196 454.49 102.985C453.858 102.985 453.226 102.958 452.607 102.904Z" fill="black"/>
<path d="M458.284 102.635C457.786 102.729 457.289 102.783 456.777 102.837C456.697 107.088 456.441 111.38 456.011 115.725C456.643 115.712 457.262 115.712 457.894 115.671C458.351 111.245 458.594 106.86 458.674 102.541C458.54 102.568 458.419 102.608 458.284 102.635Z" fill="black"/>
<path d="M441.979 97.2681C441.912 97.1739 441.831 97.1066 441.764 97.0124C441.064 96.0707 440.486 95.0886 439.988 94.0527C440.23 100.403 440.095 106.887 439.53 113.506C440.136 113.721 440.741 113.869 441.36 114.044C441.871 108.354 442.073 102.757 441.979 97.2681Z" fill="black"/>
<path d="M446.189 100.994C445.517 100.604 444.884 100.174 444.293 99.6758C444.293 104.586 444.077 109.577 443.606 114.636C444.212 114.77 444.831 114.905 445.449 115.012C445.907 110.277 446.163 105.595 446.203 100.994H446.189Z" fill="black"/>
<path d="M457.638 58.0242C456.522 53.5847 455.244 49.2393 453.831 44.9746C453.212 45.0015 452.593 45.0419 451.975 45.0688C453.347 49.2258 454.598 53.477 455.688 57.7955C456.333 57.8359 456.979 57.9166 457.625 58.0108L457.638 58.0242Z" fill="black"/>
<path d="M453.347 57.7953C452.244 53.5172 450.992 49.3198 449.634 45.2031C449.015 45.2435 448.409 45.3242 447.804 45.3915C449.163 49.5082 450.414 53.7056 451.504 57.9837C452.122 57.8895 452.741 57.8357 453.347 57.7953Z" fill="black"/>
<path d="M467.056 97.2539C466.491 97.9938 465.858 98.6665 465.186 99.2719C465.186 104.384 464.957 109.564 464.446 114.81C465.091 114.676 465.724 114.541 466.356 114.38C466.908 108.595 467.123 102.877 467.056 97.2539Z" fill="black"/>
<path d="M448.571 102.097C448.571 102.097 448.49 102.056 448.45 102.043C448.396 106.415 448.14 110.855 447.696 115.348C448.261 115.415 448.826 115.51 449.391 115.563C449.445 115.563 449.499 115.563 449.539 115.563C449.983 111.164 450.225 106.832 450.306 102.541C449.728 102.406 449.136 102.285 448.557 102.097H448.571Z" fill="black"/>
<path d="M312.451 102.715C312.236 102.742 312.021 102.782 311.805 102.809C311.402 102.849 310.985 102.849 310.581 102.876C310.595 107.033 310.42 111.311 310.016 115.711C310.635 115.697 311.267 115.697 311.886 115.67C312.303 111.217 312.478 106.912 312.465 102.715H312.451Z" fill="black"/>
<path d="M316.622 101.734C316.003 101.95 315.384 102.125 314.752 102.286C314.778 106.564 314.604 110.963 314.2 115.51C314.832 115.457 315.451 115.403 316.083 115.349C316.514 110.667 316.675 106.134 316.635 101.748L316.622 101.734Z" fill="black"/>
<path d="M335.496 79.7366C334.824 79.333 334.138 78.9698 333.425 78.6738C335.214 88.118 336.008 98.2617 335.51 109.132C335.725 108.97 335.967 108.849 336.183 108.688C336.626 108.352 337.057 107.988 337.461 107.612C337.824 97.7236 337.084 88.4409 335.496 79.7366Z" fill="black"/>
<path d="M320.241 68.8145C319.891 69.5409 319.434 70.1732 318.895 70.6979C320.591 76.9806 321.842 83.6399 322.528 90.6894C323.147 92.2365 323.254 93.9316 322.905 95.4787C323.254 101.506 323.187 107.815 322.635 114.367C323.093 114.273 323.55 114.192 323.994 114.098C324.183 114.058 324.357 113.99 324.532 113.95C325.905 97.1604 324.061 82.1331 320.227 68.8279L320.241 68.8145Z" fill="black"/>
<path d="M274.769 65.5171C274.742 65.7592 274.796 66.0014 274.809 66.3242C275.253 66.3646 275.63 66.4453 276.033 66.4453C276.248 66.4453 276.464 66.4453 276.679 66.4453C276.235 65.2614 275.778 64.1045 275.307 62.9609C275.092 63.795 274.89 64.6426 274.769 65.5305V65.5171Z" fill="black"/>
<path d="M320.765 99.1914C320.214 99.743 319.595 100.227 318.909 100.631C319.003 105.286 318.841 110.115 318.397 115.08C319.03 114.999 319.662 114.891 320.294 114.797C320.765 109.416 320.913 104.209 320.752 99.1914H320.765Z" fill="black"/>
<path d="M285.275 66.4466C283.728 62.1012 281.939 58.0115 279.975 54.1504C279.571 54.5943 279.208 55.0652 278.858 55.5361C280.54 58.9935 282.087 62.6259 283.446 66.4466H285.275Z" fill="black"/>
<path d="M289.553 66.4459C287.683 61.0915 285.464 56.1003 282.988 51.459C282.544 51.7684 282.114 52.0913 281.697 52.4411C283.957 56.7999 285.988 61.4682 287.724 66.4459C288.343 66.4459 288.948 66.4459 289.567 66.4459H289.553Z" fill="black"/>
<path d="M292.567 66.4454C292.904 66.4454 293.24 66.3512 293.59 66.284C293.63 66.1898 293.657 66.1091 293.684 66.0149C291.599 60.0417 289.083 54.5124 286.285 49.3867C285.827 49.6289 285.37 49.9114 284.926 50.1805C287.603 55.1985 289.998 60.6067 291.989 66.432C292.177 66.432 292.366 66.432 292.554 66.432L292.567 66.4454Z" fill="black"/>
<path d="M306.397 102.918C306.411 107.075 306.236 111.353 305.832 115.766C306.465 115.766 307.084 115.766 307.702 115.766C308.106 111.38 308.294 107.115 308.281 102.999C307.649 102.999 307.016 102.945 306.397 102.918Z" fill="black"/>
<path d="M298.931 59.181C299.173 59.0465 299.442 58.9388 299.697 58.8043C297.922 54.4724 295.957 50.4229 293.859 46.6426C293.267 46.7771 292.688 46.9385 292.11 47.1C294.303 51.0687 296.321 55.2796 298.11 59.7326C298.379 59.5442 298.635 59.3424 298.917 59.1675L298.931 59.181Z" fill="black"/>
<path d="M296.347 61.2399C294.464 56.4102 292.338 51.9168 290.051 47.7598C289.5 47.9616 288.935 48.1634 288.396 48.3921C290.872 52.9124 293.119 57.7555 295.056 62.935C295.432 62.3162 295.863 61.7511 296.361 61.2399H296.347Z" fill="black"/>
<path d="M281.213 109.63C281.334 109.711 281.428 109.819 281.536 109.899C282.02 110.236 282.518 110.505 283.015 110.801C283.379 104.115 283.19 97.7916 282.558 91.8184C281.926 91.8184 281.307 91.8184 280.675 91.8184C281.267 97.4418 281.468 103.375 281.199 109.63H281.213Z" fill="black"/>
<path d="M280.97 66.4456C279.881 63.4455 278.67 60.5665 277.378 57.8086C277.029 58.4274 276.692 59.0328 276.423 59.6786C277.392 61.8715 278.307 64.1182 279.154 66.4456C279.76 66.4456 280.378 66.4456 280.984 66.4456H280.97Z" fill="black"/>
<path d="M277.15 105.702C277.715 106.442 278.32 107.128 278.993 107.774C279.154 102.177 278.939 96.8633 278.401 91.8184C277.769 91.8184 277.136 91.8184 276.504 91.8184C276.975 96.2445 277.217 100.872 277.15 105.702Z" fill="black"/>
<path d="M338.16 81.6738C339.358 89.0462 339.949 96.8222 339.815 105.002C340.259 104.396 340.676 103.764 341.039 103.091C341.295 102.607 341.497 102.096 341.712 101.585C341.672 95.5576 341.214 89.7458 340.42 84.1627C339.788 83.2748 339.035 82.4407 338.16 81.6738Z" fill="black"/>
<path d="M302.509 57.7295C302.805 57.6622 303.101 57.6218 303.397 57.568C301.675 53.4648 299.765 49.5768 297.706 45.8906C297.155 45.9848 296.617 46.1059 296.065 46.2C298.11 49.9131 300.02 53.8415 301.729 57.9851C301.984 57.9043 302.24 57.7967 302.509 57.7295Z" fill="black"/>
<path d="M334.689 75.6488C332.416 65.088 328.891 55.442 324.64 46.6974C323.953 46.5225 323.267 46.3745 322.581 46.2266C327.034 55.3209 330.694 65.4109 332.994 76.5232C333.586 76.2542 334.151 75.9582 334.689 75.6353V75.6488Z" fill="black"/>
<path d="M338.2 72.5534C336.142 63.9433 333.29 55.9521 329.9 48.5663C329.16 48.2165 328.407 47.8802 327.626 47.5977C331.42 55.7099 334.568 64.5756 336.721 74.1947C337.272 73.6969 337.756 73.1319 338.2 72.5534Z" fill="black"/>
<path d="M331.191 111.622C331.837 111.326 332.496 111.017 333.115 110.667C333.801 98.8416 332.913 87.8772 330.882 77.7469C330.72 77.6931 330.572 77.6393 330.384 77.572C330.559 77.5048 330.68 77.4644 330.815 77.4106C328.433 65.7332 324.545 55.1724 319.769 45.7417C319.11 45.6341 318.451 45.5534 317.792 45.4727C326.886 63.4058 332.859 85.4287 331.178 111.622H331.191Z" fill="black"/>
<path d="M307.581 57.2039C305.846 53.0468 303.922 49.0916 301.85 45.3516C301.783 45.3516 301.715 45.3516 301.648 45.3516C301.15 45.3919 300.653 45.4861 300.155 45.5534C302.186 49.253 304.07 53.1544 305.765 57.2577C306.37 57.2173 306.976 57.1904 307.581 57.1904V57.2039Z" fill="black"/>
<path d="M310.662 57.3379C311.133 57.3783 311.604 57.4859 312.061 57.5532C310.285 53.1809 308.308 49.0238 306.169 45.082C305.577 45.1089 304.985 45.1493 304.379 45.1897C306.451 49.0104 308.375 53.0463 310.097 57.2976C310.285 57.311 310.46 57.311 310.649 57.3379H310.662Z" fill="black"/>
<path d="M326.9 113.289C327.559 113.088 328.191 112.845 328.824 112.603C330.761 85.7372 324.505 63.3107 315.061 45.1892C314.429 45.1354 313.796 45.0816 313.164 45.0547C322.689 63.3242 328.958 86.0063 326.886 113.276L326.9 113.289Z" fill="black"/>
<path d="M315.303 58.3733C315.908 58.602 316.487 58.8576 317.025 59.167C315.128 54.1893 312.949 49.4807 310.581 45.0411C309.962 45.0411 309.357 45.0277 308.738 45.0411C310.958 49.1982 312.989 53.5974 314.805 58.2387C314.967 58.2926 315.142 58.3195 315.303 58.3867V58.3733Z" fill="black"/>
<path d="M340.461 67.0922C340.542 66.5944 340.569 66.1101 340.609 65.6258C339.331 61.2804 337.851 57.083 336.21 53.0605C335.968 52.8048 335.752 52.5492 335.497 52.3071C334.797 51.6479 334.071 51.0694 333.304 50.5312C335.873 56.491 338.093 62.8275 339.829 69.5406C340.098 68.7738 340.326 67.9801 340.461 67.1056V67.0922Z" fill="black"/>
<path d="M290.953 91.8184H289.083C289.769 98.6257 289.904 105.85 289.325 113.545C289.93 113.734 290.536 113.909 291.141 114.057C291.76 106.173 291.652 98.7737 290.939 91.8184H290.953Z" fill="black"/>
<path d="M299.913 101.842C299.28 101.64 298.648 101.398 298.029 101.115C298.123 105.662 297.962 110.385 297.545 115.268C298.164 115.349 298.783 115.389 299.402 115.456C299.819 110.761 299.993 106.227 299.926 101.842H299.913Z" fill="black"/>
<path d="M304.11 102.756C303.478 102.676 302.845 102.568 302.213 102.434C302.253 106.685 302.079 111.084 301.675 115.618C302.294 115.658 302.926 115.658 303.545 115.685C303.962 111.232 304.137 106.914 304.11 102.756Z" fill="black"/>
<path d="M302.725 85.1454C302.079 80.8942 301.218 76.8179 300.182 72.9434H298.325C298.325 73.0241 298.312 73.0779 298.298 73.1586C299.321 77.0062 300.182 80.9884 300.828 85.1589C301.46 85.1589 302.079 85.1589 302.711 85.1589L302.725 85.1454Z" fill="black"/>
<path d="M319.85 87.4198C319.178 82.052 318.155 76.9263 316.877 72.0293C316.689 72.1235 316.514 72.2311 316.299 72.2984C315.922 72.4329 315.545 72.5136 315.155 72.6078C316.285 77.0204 317.186 81.608 317.819 86.3839C318.518 86.6664 319.191 86.9893 319.837 87.4063L319.85 87.4198Z" fill="black"/>
<path d="M314.63 85.4683C314.886 85.5221 315.142 85.5759 315.397 85.6432C314.765 81.244 313.904 77.0062 312.854 72.9434C312.733 72.9434 312.626 72.9703 312.505 72.9703C312.007 72.9703 311.509 72.9703 311.011 72.9703C312.034 76.939 312.854 81.0557 313.487 85.3338C313.877 85.3741 314.254 85.401 314.644 85.4818L314.63 85.4683Z" fill="black"/>
<path d="M306.935 85.1454C306.29 80.9077 305.455 76.8313 304.433 72.9434C303.787 72.9434 303.155 72.9434 302.509 72.9434C303.545 76.8582 304.406 80.9211 305.052 85.1454C305.684 85.1454 306.303 85.1454 306.935 85.1454Z" fill="black"/>
<path d="M310.473 85.1454C310.689 85.1454 310.904 85.1589 311.119 85.1589C310.487 80.9346 309.626 76.8582 308.603 72.9434C307.984 72.9434 307.366 72.9434 306.747 72.9434C307.769 76.8582 308.603 80.9211 309.236 85.1454C309.639 85.1454 310.056 85.1454 310.46 85.1454H310.473Z" fill="black"/>
<path d="M286.755 91.8184H284.885C285.545 98.1414 285.706 104.868 285.262 111.985C285.719 112.2 286.177 112.442 286.661 112.63C286.809 112.684 286.944 112.725 287.092 112.778C287.603 105.366 287.441 98.3835 286.755 91.8184Z" fill="black"/>
<path d="M295.675 99.7556C294.935 99.2175 294.276 98.6121 293.725 97.9395C293.98 103.253 293.886 108.796 293.415 114.608C294.02 114.729 294.639 114.823 295.258 114.917C295.716 109.671 295.837 104.612 295.689 99.7556H295.675Z" fill="black"/>
<path d="M272.724 92.102C272.724 92.3038 272.643 92.546 272.67 92.7881C272.872 95.5729 273.356 98.3039 274.419 100.914C274.54 101.196 274.688 101.465 274.822 101.748C274.755 98.3308 274.54 95.0079 274.19 91.8195C273.692 91.8195 273.195 91.6715 272.71 92.102H272.724Z" fill="black"/>
<path d="M298.218 83.8537C298.218 84.2169 298.177 84.5936 298.46 84.9434C298.379 84.4591 298.298 83.9882 298.218 83.5039C298.218 83.6115 298.218 83.7326 298.218 83.8402V83.8537Z" fill="black"/>
</svg>
