<svg width="302" height="76" viewBox="0 0 302 76" fill="none" xmlns="http://www.w3.org/2000/svg">
<g clip-path="url(#clip0_316_1820)">
<path d="M169.003 75.7608C168.836 75.5168 168.86 75.2379 168.848 74.9591C168.391 61.9115 169.084 48.5153 169.003 35.4523C171.524 13.896 199.858 6.73904 211.279 26.1032C223.141 46.211 200.315 70.4743 179.936 57.8411C177.771 56.5011 176.698 54.952 174.905 53.5771C174.758 53.4648 174.719 53.2906 174.464 53.3564V75.7608H169.003ZM189.343 20.5302C180.587 21.3474 174.088 30.3517 174.468 38.8332C175.095 52.8568 190.977 60.8 202.139 51.7259C215.508 40.8587 206.968 18.8843 189.347 20.5263L189.343 20.5302Z" fill="#1D4F90"/>
<path d="M164.87 59.9898H159.115V53.2084C158.395 53.4253 158.035 54.2386 157.493 54.7576C147.83 63.9943 133.121 63.0106 124.647 52.7669C117.951 44.6766 117.525 32.8954 123.656 24.3597C136.331 6.715 163.17 14.8712 164.878 35.8813L164.87 59.9859V59.9898ZM153.748 50.6523C166.133 38.3561 155.49 16.6721 138.032 20.8818C126.707 23.6122 121.646 37.1865 127.614 47.0041C133.307 56.3725 145.777 58.5684 153.751 50.6485L153.748 50.6523Z" fill="#1D4F90"/>
<path d="M263.326 59.9913H257.571V53.2099C257.323 53.1557 257.273 53.2874 257.13 53.4345C253.288 57.3771 249.578 60.1152 243.892 60.851C220.93 63.8254 208.727 35.4413 225.833 20.2676C239.679 7.98293 261.669 17.3126 263.334 35.298L263.326 59.9913ZM240.12 20.3838C225.543 20.9879 218.378 38.3382 227.754 49.2984C235.728 58.6203 249.43 57.1796 255.379 46.5254C261.8 35.0231 253.667 19.8183 240.12 20.3799V20.3838Z" fill="#1D4F90"/>
<path d="M88.6684 37.9348C88.6684 50.6106 78.3783 60.8852 65.687 60.8852C52.9957 60.8852 42.7056 50.6106 42.7056 37.9348C42.7056 25.259 52.9957 14.9844 65.687 14.9844C78.3783 14.9844 88.6684 25.259 88.6684 37.9348ZM65.0557 20.3831C56.1172 20.7936 49.1151 28.0513 48.6968 36.9163C47.9068 53.6702 68.3554 62.4925 79.0212 48.771C87.859 37.4004 79.8383 19.7054 65.0557 20.3831Z" fill="#1D4F90"/>
<path d="M295.947 15.918H302L276.83 75.4667H270.855L277.346 58.7516L260.522 15.918H266.645L280.967 50.9943L295.947 15.918Z" fill="#1D4F90"/>
<path d="M34.2359 0.294922V15.7708H44.5687V21.2237H34.2359V47.8301C34.2359 49.1159 35.208 51.8075 36.0058 52.8416C38.0971 55.5448 41.3194 56.1451 44.5687 56.3039V61.021C37.981 60.9823 31.1493 59.224 29.1122 52.2103C28.7636 51.0097 28.6203 49.8092 28.4731 48.5737L28.4809 0.294922H34.2359Z" fill="#1D4F90"/>
<path d="M116.305 0H110.395V60.2846H116.305V0Z" fill="#1D4F90"/>
<path d="M5.82475 14.0078L24.151 37.8064L4.51573 61.8955L0 58.1465L16.5022 37.6863L1.19671 17.6367L5.82475 14.0078Z" fill="#3FB4E5"/>
<path d="M84.4238 60.2853L102.529 38.1017L85.7522 15.4766H92.762L109.787 37.7841C108.575 39.3642 107.382 40.9869 106.119 42.5206C105.248 43.574 104.175 44.5771 103.323 45.6227C99.3962 50.456 95.7364 55.514 91.7319 60.2853H84.4238Z" fill="#1D4F90"/>
</g>
<defs>
<clipPath id="clip0_316_1820">
<rect width="302" height="75.7605" fill="white"/>
</clipPath>
</defs>
</svg>
