<svg width="345" height="98" viewBox="0 0 345 98" fill="none" xmlns="http://www.w3.org/2000/svg">
<g clip-path="url(#clip0_316_1755)">
<path d="M170.152 36.0116V26.9922H133.281V36.0116H146.821V71.4543H156.611V36.0116H170.152Z" fill="black"/>
<path d="M197.198 46.8729V36.7737C194.316 36.6468 192.028 37.282 190.332 38.6793C188.637 40.0766 187.302 41.9399 186.327 44.2685V37.4088H176.665V71.4542H186.327V58.8776C186.327 54.7702 187.239 51.7425 189.061 49.7945C190.926 47.847 193.469 46.8729 196.689 46.8729H197.198Z" fill="black"/>
<path d="M234.195 71.4535V37.4082H224.532V56.3997C224.532 58.6864 223.981 60.4225 222.879 61.6084C221.819 62.7515 220.357 63.3231 218.492 63.3231C216.628 63.3231 215.186 62.7515 214.169 61.6084C213.152 60.4225 212.644 58.6864 212.644 56.3997V37.4082H202.981V59.4485C202.981 63.3867 203.977 66.4777 205.969 68.7221C208.003 70.9665 210.864 72.0887 214.551 72.0887C215.78 72.0887 216.882 71.9405 217.857 71.644C218.831 71.3476 219.721 70.9452 220.526 70.4373C221.332 69.929 222.052 69.3573 222.688 68.7221C223.366 68.0446 223.981 67.3458 224.532 66.626V71.4535H234.195Z" fill="black"/>
<path d="M281.685 59.2588V59.1319C281.685 56.1677 280.943 53.8601 279.46 52.2086C277.977 50.5148 275.942 49.1808 273.357 48.2068C274.162 47.7835 274.904 47.2751 275.582 46.6826C276.302 46.0897 276.917 45.4121 277.425 44.65C277.976 43.8453 278.4 42.9563 278.697 41.9823C279.036 41.0084 279.205 39.8861 279.205 38.6157V38.4888C279.205 34.974 277.892 32.1794 275.264 30.1045C272.679 28.0296 269.098 26.9922 264.52 26.9922H243.86V71.4543H265.029C267.53 71.4543 269.797 71.2001 271.831 70.6918C273.908 70.1838 275.667 69.4218 277.108 68.4055C278.591 67.3892 279.714 66.1188 280.477 64.5942C281.282 63.07 281.685 61.2913 281.685 59.2588ZM269.479 40.2673C269.479 41.9187 268.843 43.1254 267.572 43.8875C266.3 44.6077 264.584 44.9675 262.423 44.9675H253.395V35.5669H263.058C265.135 35.5669 266.724 35.9694 267.826 36.7738C268.928 37.5359 269.479 38.658 269.479 40.1403V40.2673ZM271.958 58.052C271.958 59.7035 271.344 60.9316 270.115 61.736C268.886 62.4981 267.19 62.8795 265.029 62.8795H253.395V53.0976H264.711C267.254 53.0976 269.098 53.5423 270.242 54.4316C271.386 55.2783 271.958 56.4429 271.958 57.9251V58.052Z" fill="black"/>
<path d="M299.083 33.6608V25.0859H288.912V33.6608H299.083ZM298.829 71.4536V37.4082H289.166V71.4536H298.829Z" fill="black"/>
<path d="M327.039 70.0565V62.3075C325.556 63.1122 323.966 63.5142 322.271 63.5142C320.195 63.5142 319.156 62.4134 319.156 60.2116V45.6662H327.166V37.4089H319.156V28.707H309.494V37.4089H305.425V45.6662H309.494V61.7995C309.494 63.7897 309.727 65.4412 310.193 66.7539C310.701 68.024 311.38 69.0615 312.227 69.8659C313.117 70.6707 314.155 71.2209 315.342 71.5174C316.571 71.8561 317.927 72.0258 319.411 72.0258C321.021 72.0258 322.441 71.8352 323.67 71.4542C324.899 71.1154 326.022 70.6494 327.039 70.0565Z" fill="black"/>
<path d="M344.206 71.454V61.291H333.908V71.454H344.206Z" fill="black"/>
<path fill-rule="evenodd" clip-rule="evenodd" d="M81.1022 97.7856H33.5773L41.7746 83.9558L89.39 84.0294L81.1022 97.7856ZM39.0292 37.0923L15.2669 77.8783L23.1447 91.8686L47.0169 51.042L39.0292 37.0923ZM23.7624 10.5846L0 51.3705L7.87781 65.3611L31.7499 24.5344L23.7624 10.5846ZM49.1093 71.4299H96.6341L104.922 57.6737L57.3066 57.5997L49.1093 71.4299ZM81.1883 4.91814L104.951 45.7038L98.3393 45.655L101.588 51.5187L97.4451 51.461L94.1727 45.6241L88.7659 45.5838L65.0226 4.68356L71.2724 4.77435L68.7115 0.206024L73.1449 0.185348L75.723 4.83806L81.1883 4.91814ZM68.2492 45.5085L71.4768 51.3333L67.3336 51.2755L64.0829 45.4775L57.9667 45.4321L34.2234 4.5317L41.1853 4.63277L38.5997 0.0206759L43.0334 0L45.6356 4.69637L50.3891 4.76553L74.1513 45.5514L68.2492 45.5085Z" fill="#00B83D"/>
</g>
<defs>
<clipPath id="clip0_316_1755">
<rect width="344.205" height="97.7856" fill="white"/>
</clipPath>
</defs>
</svg>
