<svg width="106" height="38" viewBox="0 0 106 38" fill="none" xmlns="http://www.w3.org/2000/svg">
<g clip-path="url(#clip0_13985_31488)">
<path d="M0.46875 4.56989H24.5157V11.7966H17.1078V33.7235H7.87659V11.7839H0.46875V4.56989Z" fill="#003E6B"/>
<path d="M62.8833 5.29681L68.3408 14.5471L73.7179 5.29681H83.9561L72.6899 21.3955V33.1028H63.8733V21.3955L52.6875 5.29681H62.8833Z" fill="#003E6B"/>
<path d="M104.826 1.51522e-10C104.656 -3.6927e-06 104.493 0.0674902 104.372 0.18775C104.252 0.30801 104.184 0.471273 104.183 0.641907V6.62736C103.912 6.47433 103.624 6.31704 103.307 6.164C100.671 4.93875 97.7918 4.33254 94.8879 4.39132C89.8704 4.39132 85.1575 6.00671 83.3467 10.1005C82.83 11.2226 82.5602 12.4434 82.5556 13.6798C82.5556 19.5463 87.5774 21.1191 90.1454 21.7908C91.2919 22.0629 96.4321 22.9683 97.4178 23.3212C98.9578 23.8356 98.9578 24.8601 98.9578 25.0556C98.9578 27.0621 95.4844 27.1386 94.7694 27.1386C93.4401 27.1384 92.1192 26.926 90.8561 26.5095C88.4447 25.723 87.7762 24.6985 86.9851 23.4827L80.2161 27.8103C81.4853 29.3449 83.5329 31.8232 87.9666 33.0815C90.0753 33.6685 92.2557 33.9547 94.4437 33.9318C95.8525 33.9318 100.667 33.9318 104.174 31.1856V37.3538C104.199 37.5051 104.276 37.6426 104.392 37.7418C104.509 37.841 104.656 37.8955 104.809 37.8955C104.961 37.8955 105.109 37.841 105.225 37.7418C105.341 37.6426 105.419 37.5051 105.443 37.3538V0.641907C105.442 0.475601 105.378 0.316068 105.263 0.196507C105.148 0.0769459 104.991 0.00656204 104.826 1.51522e-10V1.51522e-10ZM95.2433 15.0147C92.8318 14.5895 91.4103 14.2325 91.4103 12.8891C91.4103 11.4778 93.0687 11.0824 94.5748 11.0824C96.3529 11.0602 98.1162 11.4091 99.7531 12.1069C100.597 12.5244 101.324 13.1469 101.868 13.9179L104.166 12.0049V17.6078C101.826 16.1624 98.5389 15.5843 95.2433 15.0147Z" fill="#003E6B"/>
<path d="M41.362 15.0148C38.9463 14.5897 37.5248 14.2326 37.5248 12.8893C37.5248 11.4779 39.1874 11.0826 40.6851 11.0826C42.4645 11.0599 44.2293 11.4087 45.8676 12.1071C46.7108 12.5258 47.4376 13.148 47.9829 13.918L53.5335 9.29713C52.379 7.99024 50.9823 6.92176 49.4213 6.15137C46.7835 4.92704 43.9032 4.32089 40.9981 4.37868C36.8902 4.37868 32.9938 5.45845 30.7177 8.09409V0.642025C30.693 0.490781 30.6157 0.353269 30.4994 0.254044C30.3832 0.15482 30.2356 0.100342 30.0831 0.100342C29.9306 0.100342 29.783 0.15482 29.6668 0.254044C29.5505 0.353269 29.4731 0.490781 29.4485 0.642025V37.354C29.4731 37.5052 29.5505 37.6427 29.6668 37.7419C29.783 37.8412 29.9306 37.8956 30.0831 37.8956C30.2356 37.8956 30.3832 37.8412 30.4994 37.7419C30.6157 37.6427 30.693 37.5052 30.7177 37.354V31.6916C31.7857 32.291 32.9221 32.7577 34.1022 33.0817C36.2124 33.6684 38.3941 33.9546 40.5835 33.9319C42.1277 33.9319 47.7417 33.9319 51.2574 30.3483C52.065 29.5232 52.7016 28.5452 53.13 27.471C53.5585 26.3969 53.7704 25.2479 53.7535 24.0907C53.7366 17.1828 47.5641 16.0988 41.362 15.0148ZM40.8839 27.1515C39.5545 27.1512 38.2336 26.9389 36.9706 26.5223C34.5591 25.7359 33.8864 24.7114 33.0995 23.4956L30.7219 25.0132V18.998C32.4142 20.6984 34.7537 21.3956 36.2598 21.7909C37.4063 22.063 42.5423 22.9685 43.5323 23.3213C45.0764 23.8357 45.0765 24.8602 45.0765 25.0557C45.0722 27.0622 41.5946 27.1515 40.8839 27.1515Z" fill="#003E6B"/>
</g>
<defs>
<clipPath id="clip0_13985_31488">
<rect width="105" height="38" fill="white" transform="translate(0.46875)"/>
</clipPath>
</defs>
</svg>
