<svg width="173" height="178" viewBox="0 0 173 178" fill="none" xmlns="http://www.w3.org/2000/svg">
<ellipse cx="86.3893" cy="91.2266" rx="84.3073" ry="83.9102" fill="white"/>
<path d="M139.013 55.4243C138.041 55.7766 137.077 56.0459 136.105 56.2531C141.504 65.0378 144.619 75.4247 144.619 86.4953C144.619 118.609 118.606 144.625 86.4924 144.625C54.3793 144.625 28.3655 118.609 28.3655 86.4953C28.3655 74.9412 31.7517 64.1469 37.5664 55.0721C36.6644 54.789 35.7693 54.4506 34.7978 54.0293C28.8512 63.4424 25.4512 74.5752 25.4512 86.4815C25.4512 120.184 52.7834 147.518 86.4855 147.518C120.188 147.518 147.52 120.184 147.52 86.4815C147.52 75.1346 144.404 64.4853 139.006 55.4174L139.013 55.4243Z" fill="#BC1330"/>
<path d="M52.7279 39.1621C62.2133 32.3733 73.9054 28.3677 86.4994 28.3677C100.62 28.3677 113.485 33.354 123.588 41.7174C124.698 41.3652 125.808 41.0958 126.974 40.8196C116.177 31.2683 102.056 25.5293 86.5619 25.5293C72.6494 25.5293 59.8472 30.1633 49.543 37.9812C50.0218 38.1883 50.5144 38.3334 50.9932 38.5336C51.5552 38.7408 52.1797 38.9549 52.7348 39.1621H52.7279Z" fill="#BC1330"/>
<path d="M86.5 0C38.7467 0 0 38.7575 0 86.5C0 134.242 38.7536 173 86.5 173C134.246 173 173 134.242 173 86.5C173 38.7575 134.246 0 86.5 0ZM86.5 167.675C41.6541 167.675 5.32905 131.349 5.32905 86.5C5.32905 41.6512 41.6541 5.32467 86.5 5.32467C131.346 5.32467 167.671 41.6512 167.671 86.5C167.671 131.349 131.346 167.675 86.5 167.675Z" fill="#C2C5C9"/>
<path d="M65.6005 69.1276C64.3515 68.506 63.3245 67.7463 62.1449 66.7104C58.4049 63.3195 57.5791 59.7973 58.6894 55.7089C59.3069 53.2917 60.3477 52.0417 60.0077 49.4795C59.7996 48.0292 58.7587 46.8482 57.7318 45.8814C55.2407 43.5333 52.3333 42.0001 47.9757 40.5567C45.2765 39.6589 37.4633 37.2417 34.0633 34.1201C33.307 36.3992 34.9653 39.4448 36.9707 39.8661C35.2429 40.0733 33.7233 40.978 33.0225 41.9448C34.3408 43.4642 36.9707 45.0664 39.1772 45.1355C38.1364 45.8261 36.9568 47.2142 36.5474 48.043C38.414 49.0858 41.4671 49.9146 43.743 49.7005C42.7716 50.4602 41.9459 51.4961 41.3977 52.4008C42.9867 53.0914 46.0328 54.1273 48.9402 54.3414C47.8994 54.8939 46.3104 56.6895 45.5541 57.8014C47.2125 58.5611 50.7443 58.9824 52.8885 59.1827C51.2995 60.0114 49.7035 61.6689 48.8015 63.133C50.3905 63.8927 53.3672 64.7214 55.8583 64.6524C54.6787 65.8333 53.853 67.2077 53.3672 68.6027C55.2338 68.9549 57.1767 69.024 59.3832 68.6718C58.0024 70.3983 57.4473 72.6912 57.2322 74.3487C59.0987 74.2796 61.5204 73.8721 63.2482 72.8293C62.9012 74.2105 62.9706 76.1443 63.5951 77.4634C64.2821 77.3252 65.1147 76.9868 66.0862 76.4965C65.8086 74.0448 65.7392 71.3514 65.5935 69.1414L65.6005 69.1276Z" fill="#025188"/>
<path d="M140.193 38.3312C136.737 41.4528 131.27 42.2815 125.455 44.2153C121.097 45.6656 118.398 46.4943 114.519 49.609C113.409 50.5068 112.368 51.8259 112.438 54.0359C112.576 56.5221 112.986 57.634 113.055 61.094C113.124 63.5802 112.222 65.5899 111.189 66.7709C110.078 68.0209 108.628 69.119 107.379 69.7474C107.31 71.8953 107.24 73.9671 107.102 76.4603C108.004 76.9368 109.183 77.4271 109.87 77.5722C110.488 76.2531 110.557 74.3262 110.148 72.9381C111.876 73.9809 114.297 74.3884 116.094 74.4575C115.886 72.8 115.338 70.5071 113.943 68.7806C116.219 69.0637 118.162 69.0637 119.959 68.7115C119.481 67.3303 118.71 65.9421 117.538 64.7612C119.959 64.8302 123.005 64.0015 124.594 63.2418C123.692 61.7225 122.034 60.1202 120.507 59.2915C122.728 59.0843 126.322 58.6699 127.981 57.9102C127.224 56.7983 125.559 54.9337 124.525 54.4502C127.432 54.2431 130.472 53.2002 132.068 52.5096C131.519 51.6118 130.687 50.638 129.722 49.8093C132.422 49.6021 135.051 49.1187 136.918 48.1518C136.502 47.3231 135.26 45.9349 134.288 45.2443C140.047 43.5039 140.117 40.5964 140.186 38.3174L140.193 38.3312Z" fill="#025188"/>
<path d="M115.629 44.4936C107.393 38.7477 97.3592 35.4258 86.4999 35.4258C76.605 35.4258 67.4041 38.1952 59.584 43.0433C61.5893 44.6317 62.8314 46.2892 63.1089 48.0296C63.3865 49.5489 63.5253 51.3445 62.6926 54.0449C61.7905 56.8833 61.2424 59.7908 63.3102 62.7605C65.3918 65.668 68.0841 66.9802 70.2976 67.3945C73.205 66.918 76.4524 66.4277 79.7137 66.2136C80.13 64.8323 81.372 63.6583 82.621 62.6845C84.4182 61.3033 84.0019 60.0532 83.5925 59.0864C83.2455 58.3267 82.621 57.7051 81.6565 57.2148C80.8239 56.7935 77.8471 56.4551 77.9165 58.3958C77.4377 57.7051 77.0144 56.7383 77.2989 55.5573C77.7153 53.8998 80.4145 53.4786 81.1084 53.4786C80.5602 53.0573 80.9002 52.2976 82.0798 51.9592C83.53 51.5379 84.9178 51.4827 86.2293 51.5379C88.9979 51.607 89.4142 52.2976 90.795 53.5476C92.4534 55.067 94.6739 55.5573 95.569 54.6595C94.9514 56.1098 92.9391 56.8764 91.6901 56.6002C92.3077 58.6099 92.5228 60.2673 92.731 62.3461C92.8004 63.313 93.0085 64.9014 93.2791 66.1514C96.9498 66.4346 100.614 66.9802 103.861 67.6017C105.179 67.1804 106.56 66.4208 107.809 64.9705C108.989 63.5892 110.085 61.9248 109.606 57.567C109.468 56.317 108.85 53.2092 108.989 51.752C109.266 48.437 111.757 46.2823 115.636 44.4867L115.629 44.4936Z" fill="#025188"/>
<path d="M81.6504 53.6307C82.1292 54.0519 82.4831 54.0519 82.6218 54.0519C82.6218 54.121 82.83 54.2591 82.83 54.3351C82.9688 54.4042 82.9688 54.5423 83.0382 54.6182C83.2463 54.5492 83.8708 54.266 84.419 54.0658C84.9672 53.8586 85.7374 53.6445 85.7374 53.6445C83.3782 53.0782 83.0382 53.8448 81.6504 53.6376V53.6307Z" fill="#025188"/>
<path d="M85.0503 94.0472L84.0095 93.5707L83.3225 91.8442L81.8029 91.2226L80.1445 89.7033L79.1731 90.8152L77.6535 91.1674L76.8971 92.4174L75.7106 93.6398L74.0522 94.4685L72.942 96.4092L72.3244 97.2379L71.2142 98.0667L70.5966 97.4451L69.9791 98.0667L69.2227 99.6551C68.8064 98.5432 68.5358 97.6454 68.3901 95.8498C68.1819 92.5348 67.9113 88.3013 67.7031 84.0195C73.2403 82.8385 80.2278 82.0098 85.9038 82.0098V95.021C85.6124 94.8207 85.3348 94.6826 85.0642 94.0611L85.0503 94.0472Z" fill="#027BAC"/>
<path d="M85.8761 100.347H69.4795C69.6877 100.823 70.0277 101.314 70.3122 101.797C71.4918 103.454 73.1502 104.704 75.3012 105.326C78.2086 106.224 80.0752 106.776 81.3866 107.198L82.9756 107.674C84.294 108.095 85.196 108.641 85.883 109.332C85.883 109.339 85.883 100.347 85.883 100.347H85.8761Z" fill="#619532"/>
<path d="M103.175 93.9771C103.591 93.6248 104.146 93.2174 104.833 92.9342C104.902 91.4149 105.041 89.7436 105.11 88.0861C104.902 88.2242 104.764 88.3692 104.493 88.5626C103.737 89.1842 102.765 90.0129 101.037 90.0129C99.4483 90.0129 98.4075 89.3914 97.5124 88.832C96.8254 88.4107 96.2634 88.0723 95.5071 88.0723C94.605 88.0723 93.8487 88.5488 93.016 89.0391C92.1139 89.5916 91.1494 90.151 89.9698 90.151C88.7208 90.151 87.8188 89.7988 87.1318 89.3914V94.0254C87.2706 94.0945 87.4788 94.2326 87.6106 94.3086C88.367 94.7851 88.9915 95.1373 89.956 95.1373C90.5735 95.1373 91.2049 94.7851 91.8919 94.3086C92.8633 93.7561 93.9736 93.0585 95.4168 93.0585C96.8601 93.0585 97.7622 93.611 98.5324 94.1014C99.3026 94.5917 99.9132 94.9301 100.878 94.9301C101.988 94.937 102.536 94.5227 103.168 93.9702L103.175 93.9771Z" fill="#025188"/>
<path d="M89.9562 104.487C88.7072 104.487 87.8051 104.135 87.1182 103.727V109.335C87.7357 108.714 88.7072 108.085 90.0256 107.678L91.6146 107.201C92.9329 106.78 94.7995 106.158 97.6999 105.33C98.5326 105.047 99.2889 104.708 100.045 104.287C99.0044 104.08 98.2481 103.596 97.5542 103.244C96.8673 102.823 96.3052 102.484 95.5489 102.484C94.6468 102.484 93.8905 102.961 93.0578 103.451C92.1697 103.859 91.1982 104.48 89.9492 104.48L89.9562 104.487Z" fill="#025188"/>
<path d="M103.175 86.9111C103.723 86.4898 104.354 85.9442 105.256 85.7301C105.256 85.1086 105.326 84.5492 105.326 83.9345C99.7884 82.7535 92.801 81.9939 87.125 81.9248V86.842C87.2638 86.9111 87.4719 87.0492 87.6038 87.1252C88.3601 87.6017 88.9846 87.9539 89.9491 87.9539C90.5667 87.9539 91.1981 87.6017 91.8851 87.1252C92.8565 86.5727 93.9667 85.8751 95.41 85.8751C96.8533 85.8751 97.7554 86.4276 98.5256 86.918C99.2958 87.4083 99.9064 87.7467 100.871 87.7467C101.981 87.8848 102.529 87.4774 103.161 86.918L103.175 86.9111Z" fill="#027BAC"/>
<path d="M87.1173 96.393V101.172C87.2561 101.241 87.4642 101.379 87.5961 101.455C88.3524 101.932 88.9769 102.284 89.9414 102.284C90.559 102.284 91.1904 101.932 91.8774 101.455C92.8488 100.903 93.959 100.205 95.4023 100.205C96.8456 100.205 97.7476 100.758 98.5179 101.248C99.2742 101.725 99.8987 102.077 100.863 102.077C101.62 102.077 102.112 101.794 102.66 101.386C103.701 99.7978 104.319 97.9262 104.458 95.6403V95.3571C104.411 95.4031 104.365 95.4492 104.319 95.4952C103.562 96.1168 102.591 96.9455 100.863 96.9455C99.2742 96.9455 98.2334 96.324 97.3382 95.7646C96.6513 95.3433 96.0893 95.0049 95.3329 95.0049C94.4309 95.0049 93.6745 95.4814 92.8419 95.9717C91.9398 96.5242 90.9753 97.0836 89.7957 97.0836C88.7687 97.2218 87.8667 96.8143 87.1104 96.393H87.1173Z" fill="#027BAC"/>
<path d="M86.5074 67.0518C80.4081 67.0518 72.7337 67.9496 66.9189 69.2686C67.0577 73.074 67.2589 77.9152 67.5365 82.6943C73.0043 81.5824 80.2902 80.6846 86.5143 80.6846C92.7385 80.6846 100.003 81.5133 105.471 82.6943C105.742 77.929 105.95 73.0809 106.089 69.2686C100.274 67.9496 92.5164 67.0518 86.5004 67.0518H86.5074ZM100.822 70.788L101.239 69.8211L101.377 70.933L102.418 71.0021L101.447 71.4096L101.648 72.4524L100.961 71.6927L100.059 72.2452L100.552 71.2853L99.7814 70.5877L100.822 70.7949V70.788ZM95.9789 70.1734L96.3189 69.2065L96.5271 70.2493L97.5679 70.3184L96.5965 70.7949L96.8741 71.8377L96.1038 71.0781L95.2712 71.6306L95.7638 70.7328L94.9312 70.0421L95.972 70.1803L95.9789 70.1734ZM91.1356 69.7521L91.4826 68.7852L91.6838 69.828H92.7246L91.8226 70.3874L92.1001 71.3474L91.3438 70.6568L90.5111 71.2853L90.9205 70.3184L90.0878 69.6899L91.1287 69.759L91.1356 69.7521ZM86.2159 69.614L86.4935 68.6471L86.7711 69.614H87.8119L86.9723 70.1734L87.3192 71.1402L86.4866 70.5118L85.7302 71.1402L86.0702 70.1734L85.1682 69.614H86.209H86.2159ZM81.3796 69.8211L81.5808 68.7783L81.9277 69.7452L82.9686 69.6761L82.1359 70.3046L82.5453 71.2714L81.7126 70.643L80.88 71.3336L81.2269 70.3736L80.3248 69.8142H81.3657L81.3796 69.8211ZM76.5362 70.2424L76.675 69.1996L77.015 70.1664L78.0558 70.0283L77.2995 70.6499L77.7922 71.6167L76.8901 71.0643L76.1199 71.8239L76.3974 70.7811L75.4954 70.3046L76.5362 70.2355V70.2424ZM71.6859 70.933L71.7553 69.8211L72.248 70.788L73.2194 70.5808L72.4492 71.2783L73.0113 72.2383L72.1092 71.6858L71.3529 72.4455L71.6235 71.4027L70.6521 70.9952L71.6929 70.9261L71.6859 70.933ZM69.75 76.3958L69.9582 75.353L69.0561 74.9455L70.0969 74.8074L70.1663 73.7646L70.5757 74.7314L71.6166 74.4483L70.8602 75.208L71.4223 76.1058L70.4508 75.5533L69.75 76.382V76.3958ZM73.6982 79.994L72.7962 79.4415L72.1092 80.2011L72.3174 79.1583L71.3459 78.737L72.3729 78.668L72.5117 77.5699L72.928 78.5368L73.9688 78.3296L73.1362 79.0202L73.6843 79.987L73.6982 79.994ZM74.3852 75.6361L74.5933 74.5933L73.6219 74.172L74.7321 74.0339L74.8709 73.0049L75.2109 73.9718L76.2517 73.8336L75.4954 74.5243L75.9881 75.4221L75.0791 74.8696L74.3921 75.6292L74.3852 75.6361ZM78.264 79.4484L77.4313 78.889L76.675 79.5796L76.9456 78.6127L75.9881 78.1362L77.015 78.0671L77.2232 77.0243L77.5701 77.9912L78.6109 77.853L77.7783 78.4815L78.2571 79.4484H78.264ZM79.7142 74.3861L78.9579 75.1458L79.2354 74.103L78.3334 73.6265L79.3742 73.5574L79.513 72.5146L79.9224 73.5574L80.8938 73.4193L80.1375 74.0408L80.5469 75.0077L79.7142 74.3861ZM82.8992 79.0962L81.9971 78.4746L81.2408 79.1652L81.5808 78.1983L80.6787 77.6459H81.7196L81.9277 76.603L82.2747 77.6459L83.3016 77.5077L82.469 78.1293L82.8853 79.0962H82.8992ZM84.28 74.1099L83.5237 74.8074L83.8706 73.8405L82.9686 73.2811H84.0094L84.2106 72.2383L84.5576 73.2811L85.5984 73.2121L84.6963 73.8405L85.1057 74.8074L84.2731 74.1099H84.28ZM87.4649 79.0271L86.7086 78.3365L85.8759 79.0271L86.2159 78.0602L85.3833 77.4387L86.4241 77.5077L86.7017 76.4649L86.9098 77.5077L88.0062 77.4387L87.1041 78.0602L87.4511 79.0271H87.4649ZM88.9152 74.1099L88.0825 74.8074L88.4988 73.8405L87.6662 73.2121L88.707 73.2811L88.9776 72.3143L89.2552 73.2811H90.296L89.394 73.8405L89.734 74.8834L88.9013 74.1168L88.9152 74.1099ZM92.1071 79.2343L91.3507 78.4746L90.4487 79.0962L90.9274 78.1293L90.0254 77.5077L91.0662 77.6459L91.4132 76.679L91.6144 77.6459L92.6552 77.708L91.7532 78.1983L92.1001 79.2412L92.1071 79.2343ZM93.5503 74.3861L92.6483 75.0077L93.1409 74.0408L92.3083 73.4193L93.3352 73.5574L93.6822 72.5905L93.8903 73.6334H94.9312L94.0291 74.1099L94.2997 75.1527L93.5434 74.393L93.5503 74.3861ZM96.6728 79.6417L95.9859 78.8821L95.0838 79.4415L95.5626 78.5437L94.7299 77.8461L95.7708 78.0533L96.1108 77.0105L96.3189 78.0533L97.3598 78.1224L96.3883 78.5989L96.6659 79.6417H96.6728ZM98.1924 74.9455L97.2904 75.498L97.783 74.5312L96.9504 73.8405L97.9773 74.0408L98.3937 73.0809L98.5324 74.1099L99.5733 74.1789L98.6018 74.6693L98.8725 75.7121L98.1855 74.9524L98.1924 74.9455ZM101.308 80.2771L100.552 79.5174L99.6496 80.0699L100.198 79.1031L99.4414 78.4124L100.413 78.6127L100.892 77.6528L100.961 78.6818L102.002 78.8199L101.03 79.2412L101.308 80.284V80.2771ZM103.445 76.3958L102.758 75.6361L101.856 76.1127L102.418 75.2149L101.648 74.5243L102.619 74.7314L103.112 73.7646L103.181 74.8074L104.222 74.9455L103.251 75.353L103.452 76.3958H103.445Z" fill="#025188"/>
<path d="M150.581 55.4277C152.927 54.3849 155.695 54.8752 156.396 56.4705C157.083 58.0589 155.563 60.4209 153.211 61.4568C150.789 62.4996 148.097 62.0093 147.396 60.414C146.709 58.8117 148.229 56.4636 150.581 55.4277ZM154.176 63.5908C157.222 62.2717 158.533 58.8808 157.291 55.9733C156.042 53.0658 152.656 51.8227 149.603 53.1348C146.557 54.4539 145.176 57.8449 146.487 60.7524C147.736 63.6599 151.192 64.9099 154.176 63.5908Z" fill="#025188"/>
<path d="M150.018 71.4786L148.839 66.9136L149.526 66.7064L149.873 67.9564L159.49 65.5392L159.143 64.2892L159.83 64.082L161.558 70.9261L162.037 70.7879L162.245 71.6857L159.615 72.3764L159.407 71.4786L160.586 71.1954L159.684 67.7354L155.736 68.7023L156.423 71.4026L157.533 71.1194L157.811 72.0172L154.494 72.846L154.216 71.9482L155.396 71.665L154.709 68.9647L150.282 70.0766L150.56 71.1885L150.012 71.4786H150.018Z" fill="#025188"/>
<path d="M15.4325 59.3135L15.0162 60.6948L21.2404 62.5664C23.1069 63.1189 24.0784 64.0857 24.3559 65.757C24.4947 66.5858 24.4253 67.4145 24.1478 68.3123C23.3151 71.0126 21.3792 72.2626 19.1032 71.6273L12.4558 69.6176L12.1088 70.8676L11.4219 70.6604L12.8027 66.0264L13.4897 66.2335L13.1427 67.4836L19.2975 69.3551C20.9559 69.8317 21.7886 69.7764 22.4824 69.072C22.8294 68.7198 23.0306 68.3123 23.1694 67.822C23.7869 65.8123 22.9612 64.362 20.8934 63.7335L14.7387 61.9379L14.3223 63.3191L13.6354 63.1119L14.815 59.3066L15.4464 59.3274L15.4325 59.3135Z" fill="#025188"/>
<path d="M26.3615 61.9399C26.084 62.4924 25.4595 62.7687 24.8419 62.5615C24.2937 62.2783 24.0093 61.6637 24.2244 61.0421C24.5019 60.4206 25.1264 60.1443 25.744 60.4206C26.2921 60.6899 26.5766 61.3805 26.3615 61.9399Z" fill="#025188"/>
<path d="M28.5127 57.0193L28.0339 57.848L25.3347 56.3287L25.8135 55.4999L26.9237 56.1215C27.8258 55.7693 28.3046 55.3618 28.7209 54.6021C29.2691 53.7043 29.0678 52.6615 28.3046 52.254C27.6176 51.9018 26.9237 52.0469 25.189 52.9447C23.4612 53.9115 23.1837 53.9875 22.4898 54.1256C21.8722 54.2637 21.1089 54.1256 20.4844 53.7043C18.8261 52.8065 18.4028 50.935 19.4436 49.1393C19.7906 48.5868 20.1306 48.1725 20.6926 47.689L20.2763 47.4059L20.7551 46.5771L23.3155 48.0274L22.8367 48.9252L21.7959 48.3728C21.0396 48.794 20.6857 49.0634 20.3457 49.6228C19.9293 50.3825 20.1375 51.2803 20.8244 51.7015C21.442 52.0538 22.0041 51.9087 23.7318 51.0109C24.5645 50.5896 25.1127 50.3203 25.3208 50.1822C25.7372 49.975 26.2923 49.83 26.8405 49.83C27.458 49.83 28.0201 49.9681 28.6376 50.2512C30.3654 51.2181 30.8581 53.1587 29.8866 54.8853C29.4078 55.7831 28.8458 56.2665 28.0894 56.7569L28.5197 57.0193H28.5127Z" fill="#025188"/>
<path d="M33.0085 49.2027C33.0085 49.8243 32.5297 50.3146 31.8983 50.3146C31.2669 50.3146 30.7881 49.8381 30.7881 49.2027C30.7881 48.5673 31.2669 48.0908 31.8983 48.0908C32.5297 48.0908 33.0085 48.5673 33.0085 49.2027Z" fill="#025188"/>
<path d="M59.6467 27.0506L52.3817 30.7869L52.0348 30.1653L53.2144 29.5438L48.6486 20.7453L47.469 21.3668L47.1221 20.7453L53.4156 17.4994L53.2768 17.0228L54.1095 16.6016L55.3585 19.0187L54.5258 19.44L53.9777 18.3281L50.7927 19.9856L52.6593 23.5837L55.081 22.3337L54.5328 21.2909L55.3655 20.8696L56.8851 23.9152L56.0524 24.3365L55.5042 23.2246L53.0826 24.4746L55.0185 28.2799L58.3353 26.5534L57.7871 25.4415L58.6198 25.0202L59.6606 27.0299L59.6467 27.0506Z" fill="#025188"/>
<path d="M66.7101 24.4963L61.9362 26.0847L61.728 25.3941L62.977 24.9728L59.8615 15.5666L58.6125 15.9879L58.4043 15.2973L63.3933 13.6398C65.3987 12.9492 67.1334 13.7779 67.751 15.6495C68.3685 17.4451 67.2722 19.4548 65.3293 20.0764C65.0517 20.1454 64.8505 20.2145 64.4272 20.2835L64.1497 19.4548C64.3579 19.4548 64.4966 19.3857 64.6285 19.3857C65.7387 19.0335 66.0787 18.0045 65.5999 16.5473C65.1211 15.0279 64.2191 14.3995 63.0395 14.8207L62.068 15.173L65.1142 24.3789L66.495 23.9024L66.7171 24.5032L66.7101 24.4963Z" fill="#025188"/>
<path d="M72.3167 18.2623L73.2882 13.6973L75.6335 17.6476L72.3167 18.2692V18.2623ZM80.6781 20.6863L79.9911 20.8245L73.9057 10.7207L72.8649 10.9279L70.3738 22.551L69.333 22.7582L69.4718 23.4488L72.9967 22.8273L72.858 22.1366L71.4771 22.3438L72.0947 19.3672L76.2441 18.6766L77.7637 21.2319L76.5841 21.4391L76.7229 22.1297L80.8724 21.4391L80.6711 20.6725L80.6781 20.6863Z" fill="#025188"/>
<path d="M85.5991 11.0013H86.7093C87.9583 11.0013 88.6453 11.8301 88.6453 13.1491C88.6453 14.4682 87.8126 15.4282 86.6399 15.4282H85.5991V11.0013ZM92.5866 20.6907H91.8996C91.5527 20.6907 91.3514 20.5526 90.9282 19.931L88.5065 16.1948C90.0955 15.7182 90.9282 14.6754 90.9282 13.1491C90.9282 12.2513 90.6506 11.4917 90.0955 10.9323C89.4779 10.3107 88.6453 10.1035 87.1881 10.1035H82.1436V10.7941H83.4619V20.6907H82.1436V21.3813H86.9938V20.6907H85.6754V16.3329H86.1542L88.7147 20.4214C89.2628 21.3192 89.471 21.4642 90.5118 21.4642H92.7323L92.5935 20.7045L92.5866 20.6907Z" fill="#025188"/>
<path d="M100.406 22.8366L94.9381 21.9388L95.0769 21.2482L96.7353 21.5313L98.3243 12.0491L95.3475 11.5726L95.1394 12.9538L94.2373 12.8157L94.7161 9.9082L95.6875 10.0463L95.6181 10.5229L103.646 11.9041L103.716 11.4276L104.618 11.5657L104.139 14.4732L103.237 14.3351L103.445 12.9538L100.538 12.4773L98.9488 21.9595L100.607 22.2427L100.406 22.8504V22.8366Z" fill="#025188"/>
<path d="M116.532 28.231L111.758 26.3594L112.036 25.6688L113.417 26.2213L116.116 19.3082L109.538 25.7447L108.566 16.6079L105.937 23.3966L107.317 23.9491L107.04 24.6398L103.3 23.1895L103.577 22.4988L104.896 23.0513L108.497 13.7763L107.116 13.2238L107.394 12.5332L110.232 13.6451L111.134 22.5679L117.358 16.4145L120.543 17.6645L120.265 18.3551L118.947 17.8026L115.346 27.0776L116.664 27.6301L116.525 28.2379L116.532 28.231Z" fill="#025188"/>
<path d="M124.906 33.7679L117.988 29.341L118.405 28.7195L119.515 29.4101L124.844 21.0329L123.734 20.3423L124.15 19.7207L130.097 23.526L130.374 23.1047L131.131 23.5813L129.68 25.8603L128.924 25.3838L129.611 24.3409L126.565 22.4003L124.344 25.8603L126.69 27.3106L127.307 26.3437L128.064 26.8203L126.266 29.6587L125.51 29.1822L126.128 28.1393L123.782 26.689L121.506 30.2872L124.691 32.2969L125.378 31.185L126.135 31.6615L124.886 33.7472L124.906 33.7679Z" fill="#025188"/>
<path d="M48.4407 26.7038C46.5741 24.1485 43.0422 23.6582 40.4124 25.5919L36.0479 28.7826L36.4642 29.3351L37.505 28.5754L43.3892 36.5313C43.6667 36.6695 43.9374 36.7385 44.2218 36.8835L47.1292 34.7357C48.5101 33.7689 49.2109 32.657 49.4746 31.1376C49.7452 29.5492 49.4052 27.9608 48.4337 26.7107L48.4407 26.7038ZM46.2202 34.1763L45.11 35.0051L39.5034 27.3875L40.683 26.4897C42.3414 25.3088 44.9712 26.0132 46.4978 28.0782C48.0868 30.295 48.0174 32.9332 46.2202 34.1763Z" fill="#025188"/>
<path d="M139.576 31.3421L139.097 31.8946L140.138 32.7924L135.287 38.1171L136.536 28.5037L133.976 26.2246L133.497 26.7771L134.399 27.6058L134.191 28.6487L128.106 35.3615L127.065 34.3946L126.586 34.9471L129.493 37.5784L129.972 37.0259L128.931 36.1281L133.976 30.5893L132.866 39.3049C133.906 39.0218 135.017 38.7524 136.252 38.4071C136.321 38.4071 136.46 38.3381 136.529 38.3381L140.88 33.5728L141.921 34.5397L142.4 33.9872L139.569 31.349L139.576 31.3421Z" fill="#025188"/>
<path d="M151.198 43.9382L150.782 44.2213L145.793 37.7157L146.209 37.4325L145.661 36.6729L143.315 38.4685L143.864 39.2281L144.974 38.3303L146.771 40.6784L139.083 46.5625L138.666 46.086C138.458 46.2241 138.25 46.2932 137.979 46.4382L140.817 50.1745L141.366 49.7532L140.325 48.4341L148.013 42.55L149.81 44.8981L148.7 45.7959L149.248 46.5556L151.594 44.76L151.191 43.9382H151.198Z" fill="#025188"/>
<path d="M100.823 162.285L99.9206 162.492L99.2336 159.446L100.136 159.239L100.413 160.489C101.315 160.911 101.933 161.042 102.759 160.842C103.799 160.634 104.417 159.799 104.209 158.97C104.07 158.21 103.452 157.789 101.648 157.098C99.7818 156.408 99.4973 156.27 98.9491 155.848C98.4009 155.427 98.0471 154.806 97.9083 154.122C97.4919 152.25 98.5952 150.731 100.677 150.317C101.294 150.178 101.856 150.178 102.543 150.317L102.405 149.84L103.307 149.633L103.924 152.54L103.022 152.747L102.745 151.567C101.912 151.283 101.426 151.214 100.809 151.359C99.9067 151.567 99.4279 152.326 99.5597 153.086C99.6985 153.777 100.177 154.129 102.051 154.743C102.953 155.096 103.501 155.296 103.709 155.365C104.126 155.572 104.611 155.841 104.958 156.263C105.375 156.739 105.645 157.23 105.791 157.92C106.207 159.861 105.104 161.518 103.161 161.94C102.19 162.147 101.433 162.078 100.531 161.802L100.823 162.292V162.285Z" fill="#025188"/>
<path d="M118.329 156.744L110.717 159.721L110.439 159.03L111.688 158.554L108.087 149.279L106.838 149.755L106.561 149.064L113.208 146.433L113 145.957L113.902 145.604L114.873 148.16L114.041 148.512L113.562 147.331L110.245 148.65L111.695 152.455L114.256 151.413L113.839 150.301L114.672 149.948L115.921 153.139L115.088 153.491L114.672 152.379L112.112 153.422L113.631 157.373L117.087 155.991L116.608 154.81L117.51 154.458L118.35 156.73L118.329 156.744Z" fill="#025188"/>
<path d="M129.813 149.748C128.842 150.998 128.155 151.62 127.045 152.304C123.929 154.175 120.467 153.416 118.669 150.508C116.942 147.601 117.837 144.071 120.751 142.276C121.723 141.723 122.479 141.447 123.52 141.309L123.173 140.687L124.005 140.211L125.594 142.842L124.762 143.319L124.214 142.352C123.034 142.283 122.416 142.421 121.653 142.828C119.572 144.078 119.232 146.634 120.682 149.127C122.132 151.544 124.831 152.442 126.837 151.206C127.593 150.784 128.016 150.308 128.426 149.41L127.739 148.298L128.571 147.822L129.82 149.762L129.813 149.748Z" fill="#025188"/>
<path d="M135.01 131.963L133.97 132.93L138.327 137.709C139.646 139.159 139.986 140.478 139.368 141.998C139.021 142.757 138.535 143.448 137.918 144.077C135.836 145.948 133.491 146.017 131.902 144.284L127.197 139.166L126.226 140.064L125.747 139.512L129.272 136.266L129.751 136.818L128.779 137.716L133.137 142.495C134.317 143.814 135.073 144.153 136.044 143.876C136.461 143.738 136.946 143.524 137.293 143.186C138.813 141.804 138.882 140.064 137.502 138.552L133.213 133.842L132.172 134.808L131.694 134.256L134.67 131.556L135.004 131.956L135.01 131.963Z" fill="#025188"/>
<path d="M154.384 121.927L152.108 126.147L151.49 125.795L152.108 124.614L143.392 119.904L142.775 121.085L142.157 120.732L144.433 116.513L145.051 116.865L144.433 117.977L153.148 122.687L153.766 121.575L154.384 121.927Z" fill="#025188"/>
<path d="M158.741 111.621L156.805 116.807L156.119 116.524L156.667 114.936L147.674 111.545L146.633 114.314L147.951 114.791L147.605 115.688L144.836 114.646L145.183 113.748L145.662 113.886L148.569 106.268L148.09 106.13L148.437 105.232L151.206 106.275L150.859 107.173L149.54 106.697L148.5 109.466L157.492 112.857L158.041 111.338L158.741 111.621Z" fill="#025188"/>
<path d="M161.78 98.882L160.878 103.592L160.191 103.454L160.469 102.204L155.834 101.306L150.088 103.654L149.88 104.697L149.193 104.559L150.095 99.8489L150.782 99.987L150.505 101.237L154.654 99.5796L151.407 96.603L151.129 98.0533L150.442 97.9152L151.199 93.9648L151.886 94.103L151.677 95.353L155.764 99.0892L160.878 100.056L161.156 98.737L161.787 98.889L161.78 98.882Z" fill="#025188"/>
<path d="M150.228 128.157L149.811 128.71C149.603 128.993 149.332 129.062 148.632 128.993L144.135 128.71C144.683 127.121 144.343 125.871 143.094 124.974C142.338 124.421 141.575 124.214 140.818 124.352C139.916 124.49 139.299 125.043 138.397 126.224L135.351 130.312L135.899 130.733L136.655 129.69L144.607 135.637L143.851 136.68L144.399 137.101L147.306 133.22L146.758 132.798L146.002 133.841L142.546 131.286L142.824 130.934L147.598 131.286C148.708 131.355 148.847 131.286 149.464 130.457L150.783 128.731L150.221 128.171L150.228 128.157ZM138.258 128.019L138.876 127.121C139.632 126.155 140.673 126.009 141.783 126.838C142.893 127.667 143.164 128.848 142.47 129.815L141.852 130.644L138.251 128.012L138.258 128.019Z" fill="#025188"/>
<path d="M13.6352 109.544L12.4556 104.834L13.1425 104.696L13.4201 105.946L17.8471 104.834L16.5287 99.3646L12.1017 100.477L12.3793 101.727L11.6923 101.865L10.5127 97.1546L11.1996 97.0165L11.4772 98.2665L21.0945 95.9184L20.8169 94.6684L21.5039 94.5303L22.6835 99.2403L21.9965 99.3784L21.719 98.1284L17.5001 99.1712L18.8185 104.641L23.0374 103.598L22.7598 102.348L23.4468 102.141L24.6264 106.851L23.9394 106.989L23.6619 105.739L14.0446 108.087L14.3915 109.337L13.6352 109.544Z" fill="#025188"/>
<path d="M20.2064 112.172C22.5517 111.06 25.3203 111.55 26.0211 113.069C26.7081 114.658 25.2648 117.02 22.9056 118.118C20.5602 119.23 17.7916 118.739 17.0908 117.151C16.3345 115.632 17.7778 113.27 20.2064 112.172ZM23.877 120.335C26.8538 118.953 28.1653 115.556 26.8538 112.717C25.5354 109.81 22.1493 108.629 19.0961 110.017C16.1194 111.398 14.7385 114.796 16.05 117.634C17.4378 120.473 20.9003 121.709 23.877 120.335Z" fill="#025188"/>
<path d="M28.3038 136.74L25.3271 132.589L25.8752 132.168L26.7079 133.349L32.7239 128.991L23.7311 130.787L27.8806 122.624L21.9964 126.913L22.8291 128.094L22.2809 128.515L19.9355 125.269L20.4837 124.848L21.3164 126.029L29.3447 120.214L28.512 119.033L29.0602 118.611L30.8573 121.098L26.7703 129.123L35.3537 127.327L37.3591 130.096L36.8109 130.518L35.9782 129.337L27.9499 135.152L28.7826 136.333L28.3108 136.74H28.3038Z" fill="#025188"/>
<path d="M37.2279 145.522L31.2119 139.984L31.6907 139.431L32.6621 140.329L39.379 133.064L38.4075 132.166L38.8863 131.613L44.146 136.461L44.4929 136.109L45.1799 136.731L43.3133 138.74L42.6264 138.119L43.459 137.221L40.8292 134.804L38.0606 137.781L40.0659 139.652L40.8223 138.823L41.5092 139.445L39.2333 141.931L38.5463 141.31L39.379 140.412L37.3736 138.54L34.4662 141.662L37.2349 144.217L38.0675 143.25L38.7545 143.872L37.2349 145.522H37.2279Z" fill="#025188"/>
<path d="M47.5382 152.58L40.752 148.015L41.1683 147.394L42.2785 148.153L47.8157 139.921L46.7055 139.162L47.1218 138.54L51.1394 141.24L50.7231 141.862L49.6129 141.171L44.2838 149.196L47.33 151.275L48.017 150.232L48.7733 150.785L47.5243 152.58H47.5382Z" fill="#025188"/>
<path d="M54.3877 151.136L57.7739 147.945L57.4963 152.51L54.3877 151.129V151.136ZM59.9249 157.855L59.238 157.572L59.9249 145.811L58.9535 145.39L50.3701 153.553L49.3986 153.131L49.1211 153.822L52.3685 155.272L52.646 154.582L51.397 154.029L53.5481 151.951L57.3575 153.677L57.1494 156.654L56.0392 156.177L55.7616 156.799L59.571 158.525L59.9319 157.848L59.9249 157.855Z" fill="#025188"/>
<path d="M71.8252 161.924L70.6456 161.641L66.7668 152.028L65.039 159.362L66.3574 159.714L66.2186 160.405L62.4092 159.507L62.548 158.816L63.9288 159.169L66.0105 150.384L65.6635 149.417L64.4839 149.134L64.6227 148.443L67.9395 149.272L71.5407 158.264L73.1991 151.206L71.8807 150.854L72.0195 150.163L75.829 151.061L75.6902 151.751L74.3093 151.399L71.8322 161.91L71.8252 161.924Z" fill="#025188"/>
<path d="M83.0384 151.418L77.6399 151.211V151.902L78.9583 151.971L78.6114 161.867L77.293 161.798V162.489L82.622 162.696C84.2804 162.765 85.5294 162.344 86.709 161.315C87.958 160.203 88.5756 158.759 88.645 157.164C88.7768 154.118 86.2857 151.556 83.0384 151.418ZM86.2164 157.219C86.147 159.92 84.4192 161.929 82.2681 161.853L80.8873 161.784L81.2342 152.302L82.6845 152.371C84.6204 152.454 86.2857 154.657 86.2094 157.219H86.2164Z" fill="#025188"/>
<path d="M139.583 91.6962L139.652 92.739L142.282 89.1409L138.264 91.0124L139.236 91.2956L137.369 92.815C137.508 91.7721 137.577 90.6671 137.647 89.569L139.923 87.0138L140.131 88.0566L142.282 84.1753L138.403 86.5234L139.444 86.6615L137.647 88.6022C137.647 87.9116 137.716 87.2209 137.716 86.5925C137.716 81.475 136.96 76.5578 135.565 71.9237C133.289 72.1309 130.93 71.3712 129.82 71.1641C132.796 72.8906 133.837 74.7622 134.247 76.91C131.901 77.4625 128.709 76.6269 126.982 75.3216C128.709 76.7719 129.75 79.1269 129.82 81.551C127.398 81.6891 125.115 80.5081 123.457 78.8506C124.497 80.0316 125.878 83.0703 125.538 85.1491C123.533 84.9419 121.111 83.6297 119.793 81.9584C120.903 84.3756 121.382 86.3162 121.243 88.4641C119.238 88.0428 117.642 87.4972 115.845 85.7637C116.747 87.9806 117.024 90.1215 116.886 91.9172C114.54 91.0884 113.007 90.1906 111.695 87.9668C112.382 89.9075 112.875 92.4627 112.382 93.9821C110.377 93.3605 109.065 92.1865 108.094 90.1768C109.135 92.3246 108.996 94.8108 108.642 96.123C107.809 95.9849 106.706 95.3633 106.151 94.7418C106.151 95.1631 106.082 95.5015 106.082 95.8537C106.012 97.304 105.665 98.6921 105.249 99.9421C105.388 100.149 105.797 100.564 105.797 100.633C106.838 101.745 108.288 102.85 109.398 103.188C108.92 103.257 108.219 103.665 107.601 103.741C108.358 104.569 109.877 104.783 110.786 105.75C110.03 105.819 109.884 106.372 108.989 106.227C110.647 107.546 112.236 107.608 113.076 107.677C113.423 107.746 114.526 107.815 115.297 107.746C116.115 107.636 116.927 107.919 117.434 108.133L126.697 89.4033L125.656 89.6105L128.564 86.2195L127.662 90.5774L127.183 89.6795L117.947 108.416C118.155 108.603 118.266 108.886 118.308 109.169L118.53 108.996L133.483 97.1659L132.512 96.8827L136.529 95.1631L133.83 98.6921L133.761 97.6424L118.877 109.335C119.293 109.404 119.633 109.618 119.779 109.756C119.987 110.177 119.918 110.384 119.71 111.075C119.501 111.766 119.3 111.973 118.877 112.042C118.738 112.042 118.537 112.111 118.259 111.973C118.398 112.042 118.468 112.111 118.537 112.325C118.606 112.463 118.738 112.815 118.19 113.437C117.697 113.989 117.219 114.197 116.872 113.989C116.594 113.92 116.525 113.782 116.455 113.637C116.525 113.768 116.594 113.976 116.594 114.114C116.733 114.666 116.317 114.873 115.761 115.081C114.79 115.419 114.242 115.288 114.034 114.942C113.555 114.183 113.825 113.147 114.172 113.002C114.103 113.285 114.103 113.63 114.172 113.969C114.242 114.307 114.381 114.797 114.929 114.728C115.206 114.728 115.761 114.59 116.108 114.376C116.386 114.169 116.386 113.824 116.247 113.478C116.178 113.347 116.108 113.14 115.9 112.926C116.178 112.988 116.379 113.195 116.657 113.402C116.934 113.609 117.343 113.609 117.559 113.402C117.829 113.064 118.037 112.85 118.107 112.643C118.384 112.083 117.697 111.676 117.274 111.462C117.961 111.462 118.107 111.745 118.655 111.669C119.272 111.531 119.411 110.626 119.411 110.35C119.411 110.074 119.21 109.873 118.863 109.797C118.662 109.749 118.475 109.735 118.301 109.728C118.294 109.797 118.273 109.866 118.252 109.928C118.183 110.212 118.044 110.481 117.635 110.757C117.357 110.826 117.219 110.826 117.496 110.688C117.774 110.481 117.975 109.438 117.427 109.031C117.01 108.748 116.455 108.478 115.768 108.478C115.012 108.547 113.832 108.616 113.277 108.547C112.799 108.478 112.445 109.169 112.375 109.445C112.167 110.136 111.959 110.964 110.994 110.557C109.815 109.866 108.087 109.935 106.075 109.107C106.352 109.728 106.214 110.219 106.554 110.902C104.826 110.481 104.333 109.583 102.675 108.962C102.952 109.583 102.883 110.074 103.223 110.619C101.842 110.336 100.524 109.1 98.5183 108.609C98.4489 108.609 98.3795 108.678 98.3101 108.678C97.6232 108.886 96.9293 109.1 96.3742 109.3C97.755 110.888 98.9346 112.829 99.4204 115.115C99.4204 115.115 98.4489 115.115 96.9987 114.639C97.415 115.889 97.6857 117.27 97.6857 118.727C97.6857 118.727 96.5754 118.52 95.0558 117.615C95.1946 118.996 95.1252 120.454 94.8477 121.904C94.8477 121.904 93.5987 121.351 92.079 119.825C91.9403 121.275 91.5309 122.733 90.8994 124.114C90.8994 124.114 89.7198 123.354 88.5541 121.483C88.0753 122.933 87.3745 124.321 86.403 125.633C86.403 125.633 85.154 124.314 84.252 121.614C83.0724 123.34 82.0316 124.1 82.0316 124.1C81.414 122.65 81.0601 121.192 80.8519 119.811C79.3323 121.331 78.0833 121.89 78.0833 121.89C77.8058 120.44 77.7364 118.982 77.8752 117.601C76.3556 118.499 75.2453 118.713 75.2453 118.713C75.2453 117.263 75.5229 115.875 75.9323 114.625C74.4821 115.101 73.5106 115.101 73.5106 115.101C74.0588 112.753 75.5923 110.253 76.6956 109.155C76.2168 109.017 75.6547 108.803 75.0372 108.678C74.9678 108.678 74.8984 108.609 74.829 108.609C72.8931 109.162 71.5816 110.405 70.1244 110.619C70.4714 110.067 70.402 109.576 70.6726 108.962C69.0142 109.514 68.5216 110.412 66.7938 110.902C67.0713 110.212 67.002 109.721 67.2726 109.107C65.6142 109.866 63.3937 110.488 62.4223 110.695C61.3121 110.902 61.2427 109.314 60.9027 108.969C60.7639 108.83 59.8619 108.761 59.5218 108.83C58.9737 108.899 57.9328 108.899 57.1765 108.83C56.4202 108.83 55.8581 109.038 55.4487 109.383C54.9006 109.804 55.1712 110.971 55.3793 111.109C55.6569 111.317 55.4487 111.317 55.2406 111.179C54.7618 110.895 54.6924 110.626 54.5536 110.35C54.4148 109.928 54.4148 109.031 55.0324 108.692C55.4487 108.485 56.4826 107.933 57.5235 108.071C58.2104 108.209 59.39 108.071 59.7439 108.002C60.0978 107.933 62.6513 107.525 64.3097 106.206C63.4076 106.275 63.2688 105.785 62.5125 105.73C63.4839 104.763 65.0036 104.549 65.6974 103.72C65.0105 103.651 64.4484 103.098 63.9697 103.029C65.4199 102.2 66.4607 101.71 67.4946 100.612C67.4946 100.612 67.9109 100.136 68.0428 99.9905C67.564 98.7405 67.2864 97.3592 67.1407 95.902C67.1407 95.5498 67.0713 95.2114 67.0713 94.7901C66.7244 95.2114 65.9611 95.6189 64.726 96.0402C64.1778 94.6589 64.4484 92.0898 65.1423 90.0939C64.1015 92.1036 62.9219 93.4089 60.9235 94.0443C60.4447 92.5249 60.7153 89.9558 61.4023 88.029C60.0839 90.2459 58.7031 91.3439 56.3577 92.1796C56.1496 90.384 56.3577 88.029 57.1904 85.8121C55.3932 87.5386 53.8736 88.0911 51.7919 88.5124C51.6532 86.3646 52.2083 84.4239 53.2422 82.0068C51.9238 83.5952 49.2246 84.7071 47.2262 84.9143C47.3649 83.0427 48.6764 80.5565 49.4466 79.0302C47.5107 80.4114 45.4984 81.3783 43.2918 81.5164C43.5694 79.4377 44.5408 77.1586 46.1298 75.2871C44.1939 76.6683 41.2795 77.4349 39.1424 77.1586C39.6905 74.8796 41.0783 72.5936 43.0212 71.4127C41.911 71.6199 39.9057 72.1033 37.5534 71.8892C36.1725 76.4542 35.4023 81.3023 35.4023 86.3508C34.2227 85.453 33.4664 85.2389 32.6337 84.4101C32.7725 85.522 32.9113 86.0676 33.05 87.4558C33.2582 89.8729 34.1603 91.2611 35.6799 92.0898C35.7493 92.7804 35.8187 93.471 35.9574 94.1686C34.8472 93.478 33.3276 92.9876 31.3223 92.9876C32.5713 96.9379 34.2297 97.2073 36.5819 97.6217C36.6513 97.9739 36.7207 98.3123 36.8595 98.7336C35.6105 98.3813 34.1603 98.3813 32.4325 98.8717C33.6121 100.667 35.2011 101.779 37.8309 102.187V102.256C36.2419 102.118 34.5141 102.325 33.1264 103.084C35.0623 104.742 37.0052 105.433 38.8718 105.232C38.9411 105.439 39.0799 105.709 39.1493 105.923C37.6991 106.344 36.4501 107.035 35.6938 107.794C37.2134 108.271 38.8093 108.554 40.1901 108.416C40.1901 108.462 40.2133 108.508 40.2595 108.554C39.4269 109.176 38.7399 110.212 38.2542 111.8C39.3644 111.517 40.4746 111.448 41.571 111.109C41.7791 111.531 42.0498 111.938 42.2579 112.359C41.7098 113.471 41.5016 114.846 41.8416 116.448C42.7437 116.241 43.5694 115.895 44.1869 115.405C44.3951 115.757 44.6033 116.027 44.8739 116.372C44.6657 118.168 45.0821 119.97 46.1229 121.151C46.5392 120.675 46.8792 120.184 47.1637 119.77C49.4397 116.241 48.0658 113.685 48.1352 111.393C48.1352 111.324 48.2045 111.324 48.2045 111.254C48.4127 113.955 50.765 116.648 47.9964 119.97C47.927 120.039 47.927 120.108 47.8576 120.177C57.0585 130.764 70.971 137.684 86.4724 137.684C108.476 137.684 127.224 123.775 134.42 104.265L136.765 103.223L136.557 104.265L139.874 101.358L135.516 102.256L136.418 102.732L134.621 103.492C134.739 103.181 134.85 102.87 134.961 102.553L133.185 104.113L133.324 103.071L120.452 109.507C120.452 109.438 120.383 109.438 120.383 109.369L120.175 109.162C120.237 109.024 120.445 108.879 120.653 108.741L133.039 102.511L132.151 102.104L135.322 101.455C135.391 101.213 135.461 100.978 135.53 100.723L138.091 99.3413L138.021 100.384L141.067 97.1935L136.849 98.5126L137.82 98.9338L135.815 100.046C135.926 99.6452 136.037 99.2377 136.127 98.8233L133.948 101.199L134.018 100.156L125.781 105.55C124.74 106.026 123.776 106.51 122.943 106.931C123.491 106.524 124.123 106.033 124.754 105.564L133.678 99.6797L132.706 99.3275L136.287 98.1603C136.377 97.7736 136.474 97.3799 136.578 96.9932L138.514 95.7432L138.445 96.786L141.491 93.5194L137.272 94.8385L138.243 95.2598L136.793 96.2266C136.932 95.3979 137.071 94.5001 137.209 93.5954L139.555 91.6547L139.583 91.6962ZM116.948 110.785C116.879 111.261 116.67 112.235 115.699 112.373C115.838 111.966 115.838 111.123 115.56 110.647C115.907 110.377 116.601 110.446 116.948 110.785ZM115.9 112.995C115.623 113.202 115.283 113.278 114.929 113.278C114.744 113.232 114.651 113.163 114.651 113.071C114.721 112.594 114.929 111.835 115.068 111.621C115.137 111.973 115.206 112.242 115.414 112.518C115.553 112.725 115.761 112.871 115.893 112.995H115.9ZM114.45 110.094C114.589 110.364 114.797 110.647 115.352 110.716C114.943 110.999 114.519 110.923 114.242 110.785C114.034 110.716 114.034 110.516 114.034 110.094C114.034 109.618 114.311 109.811 114.45 110.094ZM57.0169 110.992C56.7394 111.469 56.7394 112.311 56.8781 112.719C55.9206 112.58 55.7055 111.607 55.6361 111.13C55.9136 110.778 56.6075 110.709 57.0169 110.992ZM57.1557 112.864C57.3639 112.58 57.4332 112.242 57.5026 111.966C57.572 112.173 57.7733 112.933 57.919 113.416C57.9884 113.554 57.9884 113.623 57.6414 113.623C57.2945 113.692 56.9545 113.554 56.67 113.34C56.8018 113.209 57.01 113.071 57.1488 112.864H57.1557ZM45.0404 94.5898C47.9478 100.674 44.631 101.717 43.9996 103.982C43.6596 101.834 44.069 98.2363 44.3465 96.4338C43.3751 97.6838 43.0975 99.4104 43.2363 101.068V101.42C43.3057 102.187 43.4445 102.877 43.6526 103.568C43.3751 103.16 43.1045 102.601 42.8963 102.049C42.8269 102.118 42.6881 102.187 42.6188 102.187C42.2024 102.325 41.7167 101.986 41.6473 101.565C41.5085 101.144 41.8485 100.667 42.2649 100.598H42.5424C42.2649 98.6023 42.8824 96.3786 45.0335 94.5829L45.0404 94.5898ZM42.4869 105.875C41.9249 106.013 41.4461 105.674 41.3073 105.115C41.1685 104.555 41.5155 104.072 42.0636 103.934C42.6257 103.796 43.1045 104.141 43.2433 104.694C43.382 105.246 43.042 105.805 42.4869 105.875ZM43.042 89.6726C44.3535 95.5567 41.4461 96.0401 39.9265 98.257C38.1987 95.2114 39.7252 91.1229 43.042 89.6726ZM40.3428 100.55C39.7808 100.688 39.302 100.343 39.1632 99.7902C39.0244 99.2308 39.3714 98.7474 39.9195 98.6092C40.4816 98.4711 40.9604 98.8164 41.0991 99.3689C41.2379 99.9214 40.8979 100.412 40.3428 100.55ZM39.7183 83.5192C40.6897 86.6408 39.9959 89.8177 38.046 91.6133C38.1154 90.7845 37.9142 89.8867 37.5673 88.982C37.9073 87.4627 38.6081 85.453 39.1563 84.5552C38.3999 85.2458 37.5673 86.9171 37.2203 88.2914C37.0121 87.9392 36.8109 87.6008 36.5334 87.3245C37.1648 85.3839 38.6844 83.9336 39.7183 83.5192ZM33.9799 86.5649C36.5403 88.2914 37.0954 90.0318 37.6505 92.3108H37.713C38.2056 92.2417 38.6844 92.518 38.7538 93.0014C38.8232 93.4849 38.5526 93.9683 38.0738 94.0443C37.5811 94.1133 37.1023 93.8371 37.033 93.3536C36.9636 92.9324 37.1648 92.5249 37.5811 92.3868C36.7485 90.5912 35.3052 88.2293 33.9799 86.5718V86.5649ZM32.939 94.0443C35.4995 94.3136 37.0191 95.8399 38.053 97.2902C38.393 97.2902 38.6705 97.4904 38.7399 97.8427C38.8093 98.1949 38.5387 98.5402 38.2681 98.6023C37.8587 98.6714 37.5117 98.4711 37.4354 98.0498C37.366 97.7114 37.5673 97.3592 37.9142 97.2902C36.3876 95.978 34.306 94.7349 32.9251 94.0443H32.939ZM35.0762 99.5071C36.3183 99.5761 37.8448 99.5761 40.1208 101.586C40.1901 101.448 40.3289 101.303 40.5371 101.303C40.9465 101.234 41.2934 101.503 41.3698 101.855C41.4391 102.276 41.1685 102.615 40.8216 102.622C40.4122 102.691 40.0652 102.491 39.9889 102.069C39.9889 101.931 39.9889 101.786 40.0583 101.648C38.386 100.467 35.7631 99.7764 35.0693 99.5001L35.0762 99.5071ZM36.8109 103.036C38.962 102.753 40.0722 103.036 41.6612 103.934C40.211 103.375 38.8232 103.174 36.8109 103.036ZM37.3799 107.339C39.1771 106.296 41.3142 106.02 43.3265 106.296C43.4584 106.089 43.6665 105.944 43.8747 105.875C44.2841 105.805 44.631 106.006 44.7074 106.427C44.7767 106.848 44.5686 107.187 44.0967 107.27C43.6873 107.339 43.3404 107.069 43.2641 106.717V106.434C41.5224 106.434 39.3852 106.855 37.3799 107.332V107.339ZM39.5171 110.032C41.0367 108.306 43.4653 107.884 44.9155 107.953H44.9849C44.8461 107.463 45.1931 106.986 45.6719 106.91C46.2339 106.772 46.7127 107.118 46.7821 107.601C46.8445 108.078 46.5739 108.568 46.0257 108.713C45.5331 108.782 45.1237 108.506 44.9849 108.022H44.9155C43.4653 108.23 41.0367 109.134 39.5171 110.032ZM42.6257 114.804C42.8339 113.354 43.8053 111.558 45.2555 110.377C46.2964 109.549 46.8445 109.196 46.0119 110.094C44.7004 111.413 43.2433 113.554 42.6257 114.804ZM45.7412 118.81C45.1931 117.429 45.6719 115.212 46.2894 113.692C46.7057 112.65 47.7396 111.137 48.0866 110.992C46.907 112.788 45.6649 117.498 45.7412 118.81ZM48.4405 109.196C48.0241 109.265 47.6078 108.996 47.5384 108.575C47.469 108.154 47.7396 107.746 48.156 107.677C48.5723 107.539 48.9886 107.808 49.058 108.23C49.1274 108.651 48.9192 109.058 48.4405 109.196ZM50.307 111.413C49.745 111.551 49.1968 111.144 49.058 110.585C48.9192 110.025 49.3356 109.473 49.8907 109.335C50.4527 109.196 51.0009 109.618 51.1397 110.163C51.2785 110.709 50.9315 111.275 50.307 111.413ZM50.647 108.223C50.085 108.361 49.5368 107.953 49.398 107.394C49.2593 106.835 49.6756 106.282 50.2307 106.144C50.7927 106.006 51.3409 106.427 51.4797 106.973C51.6185 107.532 51.2785 108.085 50.647 108.223ZM49.5507 105.806C49.7589 103.934 50.7303 101.448 52.3887 99.2999C50.0989 100.819 49.3425 103.029 49.2731 105.246C49.065 104.77 48.9956 104.286 48.9262 103.865C48.6486 104.417 48.2948 104.908 47.816 105.453C47.3996 102.684 48.0866 99.7073 48.4335 98.257C47.2539 99.438 46.8445 102.345 47.3233 104.625C47.5315 104.763 47.6703 104.963 47.7396 105.246C47.8784 105.805 47.5315 106.289 46.9833 106.427C46.4213 106.565 45.9425 106.227 45.8037 105.667C45.6649 105.108 46.0119 104.625 46.56 104.486H46.907C45.7274 101.855 46.6988 98.188 49.6062 96.0402C49.398 97.6976 49.6062 99.2308 49.6062 100.674C50.5776 99.2239 52.243 98.188 53.7626 97.7045C53.5614 103.789 50.7927 104.279 49.5437 105.799L49.5507 105.806ZM52.0417 108.713C51.903 108.292 52.243 107.815 52.6593 107.746C53.0756 107.608 53.5614 107.946 53.6307 108.368C53.7001 108.844 53.4226 109.266 53.0132 109.335C52.5969 109.473 52.1111 109.134 52.0417 108.713ZM58.1271 115.35C57.8496 115.771 57.3708 115.909 56.3994 115.488C55.8512 115.281 55.4279 115.081 55.5806 114.376C55.5806 114.245 55.65 114.038 55.7193 113.9C55.5806 113.969 55.5112 114.107 55.303 114.252C54.8867 114.459 54.4634 114.252 53.9846 113.699C53.4226 113.071 53.5683 112.801 53.6377 112.587C53.7071 112.373 53.7765 112.304 53.9152 112.235C53.6446 112.373 53.4365 112.304 53.2977 112.304C52.8189 112.235 52.6801 112.021 52.465 111.337C52.2568 110.64 52.1875 110.44 52.465 110.018C52.6732 109.735 53.7834 109.528 54.3316 109.666C54.3316 109.866 54.401 110.004 54.401 110.143C54.1928 110.074 53.7834 110.074 53.4989 110.143C53.1589 110.205 52.8813 110.412 52.8813 110.619C52.8813 110.971 53.0201 111.869 53.5683 111.938C54.1165 112.007 54.2552 111.731 54.9491 111.731C54.6022 112.014 53.9083 112.359 54.1165 112.912C54.1859 113.119 54.3871 113.388 54.6646 113.672C54.9422 113.955 55.2822 113.879 55.5667 113.672C55.8442 113.471 56.0455 113.264 56.3994 113.195C56.1912 113.326 56.1218 113.603 56.0524 113.748C55.9136 114.1 55.9136 114.507 56.1218 114.645C56.4687 114.853 57.0239 115.067 57.3014 115.067C57.8496 115.136 57.9884 114.659 58.0577 114.376C58.1271 114.024 58.1271 113.685 58.0577 113.409C58.4047 113.616 58.6753 114.59 58.1271 115.35ZM58.2659 111.206C58.0577 111.275 57.579 111.344 57.1557 111.068C57.7039 110.999 57.912 110.716 58.0577 110.446C58.1271 110.163 58.4741 109.97 58.4741 110.446C58.4741 110.868 58.4741 111.068 58.2659 111.206ZM64.6219 122.56C64.0737 118.893 62.1309 115.847 59.0847 113.423C59.2374 112.864 59.3761 112.442 59.5774 112.242C63.7268 115.364 66.086 119.715 66.7036 123.244C66.1554 122.822 65.184 122.484 64.6219 122.553V122.56ZM105.187 115.84L106.019 116.123L112.313 113.002L112.382 112.933H112.452L112.313 113.002C111.14 113.761 106.227 116.807 106.227 116.807L105.54 116.669L103.535 118.05L101.384 119.369L101.252 118.679L100.073 118.257L105.187 115.84ZM101.8 121.786L101.662 120.889L100.413 120.605L104.701 117.905L105.18 117.622L106.012 117.829L112.729 113.402C112.528 113.685 111.827 114.369 111.21 115.06L105.811 118.865L105.263 118.796L101.807 121.773L101.8 121.786ZM106.706 121.041L105.665 121.11H105.388L109.475 117.021L109.544 116.952L110.377 116.883L113.284 113.692C113.284 113.976 113.284 114.169 113.354 114.452L110.925 117.442L110.307 117.581L106.921 122.007L106.713 121.041H106.706ZM112.445 121.027L109.954 126.144L109.475 124.894L108.226 125.315L110.856 120.267L111.688 119.984L113.909 115.419C114.041 115.557 114.179 115.626 114.388 115.702L112.167 120.198L112.445 121.027ZM133.691 86.7651L137.216 84.0648L135.419 88.1533L135.142 87.1864L124.56 100.536C124.012 101.165 123.387 101.786 122.839 102.408C123.595 101.296 124.359 100.06 125.115 98.9477L134.732 86.8342L133.691 86.7651ZM121.993 101.51L127.807 92.7252L126.766 92.7942L130.014 89.7555L128.564 93.9752L128.217 93.0083L120.119 105.322L120.05 105.391C120.667 104.21 121.299 102.891 121.986 101.51H121.993ZM118.745 108.085C118.877 107.801 119.016 107.532 119.161 107.242L134.309 90.7707L133.268 90.6326L137.008 88.2154L134.927 92.1658L134.718 91.1229L120.258 106.904C119.64 107.394 119.085 107.801 118.738 108.085H118.745ZM134.94 95.2114L134.802 94.1686L126.017 102.332C125.115 103.029 124.22 103.789 123.318 104.48C124.005 103.72 124.837 102.822 125.663 101.924L134.448 93.7611L133.407 93.5539L137.286 91.4752L134.94 95.2114Z" fill="#025188"/>
<path d="M39.9263 98.1209C40.6826 95.2825 41.1059 93.2728 42.0773 91.1318C40.5508 92.0296 39.5099 96.4565 39.9263 98.1209Z" fill="#025188"/>
<path d="M118.33 109.157L118.198 109.268H118.128V109.748H118.33C118.351 109.574 118.358 109.366 118.33 109.157Z" fill="#025188"/>
<path d="M136.536 101.243L135.35 101.492C135.239 101.872 135.121 102.231 135.003 102.59L136.543 101.243H136.536Z" fill="#025188"/>
<path d="M136.95 97.9873L136.308 98.1958C136.259 98.4182 136.21 98.6407 136.154 98.8631L136.95 97.9873Z" fill="#025188"/>
<path d="M117.44 108.124V108.145C117.503 108.215 117.573 108.214 117.643 108.284C117.783 108.354 117.852 108.423 117.922 108.493L117.964 108.409C117.915 108.36 117.852 108.319 117.797 108.277C117.706 108.228 117.594 108.18 117.447 108.117L117.44 108.124Z" fill="#025188"/>
</svg>
