<svg width="89" height="28" viewBox="0 0 89 28" fill="none" xmlns="http://www.w3.org/2000/svg">
<g clip-path="url(#clip0_3303_26652)">
<path d="M9.96834 16.2623C11.6609 16.2623 13.0329 17.6333 13.0331 19.325C13.0331 21.0168 11.6611 22.3884 9.96834 22.3884C8.27597 22.3882 6.90435 21.0167 6.90435 19.325C6.90448 17.6334 8.27611 16.2624 9.96834 16.2623ZM3.06472 9.19015C4.75719 9.19022 6.12938 10.5618 6.12944 12.2535C6.12944 13.9455 4.75722 15.3169 3.06472 15.3169C1.3722 15.3169 0 13.9455 0 12.2535C6.22315e-05 10.5618 1.37224 9.19015 3.06472 9.19015ZM16.8727 0C18.5653 0 19.9374 1.37156 19.9374 3.06339C19.9374 3.98071 19.5334 4.80318 18.8944 5.36461C18.3506 5.9741 17.5006 6.77758 17.5005 7.65846C17.5005 8.53935 18.3506 9.34282 18.8944 9.95233C19.5334 10.5137 19.9374 11.3363 19.9374 12.2535C19.9374 13.9453 18.5653 15.3169 16.8727 15.3169C15.1803 15.3168 13.8079 13.9453 13.8079 12.2535C13.808 11.3383 14.2104 10.5176 14.8469 9.95637C14.8462 9.95575 14.8456 9.95493 14.8449 9.95432C15.3897 9.34467 16.255 8.54031 16.255 7.65846C16.2549 6.77667 15.3897 5.97235 14.8449 5.3626C14.8455 5.36216 14.8463 5.36179 14.8469 5.36126C14.2103 4.79996 13.808 3.97873 13.8079 3.06339C13.8079 1.37161 15.1803 8.52209e-05 16.8727 0ZM3.06472 0C4.75726 9.67635e-05 6.1294 1.37166 6.12944 3.06339C6.12944 4.75515 4.75729 6.12668 3.06472 6.12677C1.3722 6.12677 0 4.75522 0 3.06339C4.33362e-05 1.37159 1.37222 0 3.06472 0ZM38.652 12.1085C42.4929 12.1085 43.2174 15.3436 43.326 16.5792C43.3677 17.0538 43.3186 17.9037 43.3186 17.9037C43.3153 17.9631 43.2664 18.0099 43.2077 18.0099L36.0854 18.0093C36.0854 20.0698 37.8609 20.5383 38.652 20.5385C40.4741 20.5385 40.9273 19.2856 40.9759 19.1759C40.9939 19.1357 41.0335 19.1104 41.0769 19.1104H43.0171C43.0687 19.1105 43.1048 19.1417 43.0926 19.2107C43.0224 19.5583 42.2876 22.3884 38.652 22.3884C36.0307 22.3883 33.9594 20.6451 33.9593 17.2531C33.9593 15.4086 34.798 12.1086 38.652 12.1085ZM64.1158 12.1131C65.4027 12.1583 66.4538 12.5832 67.2461 13.3781C68.0545 14.1618 68.6039 15.3327 68.6635 16.9569C68.6635 16.9673 68.6649 16.978 68.6649 16.9883C68.6676 17.0754 68.6697 17.1635 68.6697 17.2531C68.6697 17.3427 68.6676 17.4309 68.6649 17.5179C68.6649 17.5281 68.6635 17.5383 68.6635 17.5486C68.6039 19.1772 68.0516 20.3485 67.2394 21.1301C66.4482 21.9178 65.3994 22.3387 64.1165 22.3837C64.0393 22.3868 63.9618 22.3884 63.8845 22.3884C63.8075 22.3884 63.7301 22.3868 63.6532 22.3837C62.2759 22.3365 61.172 21.8631 60.3705 20.9744C60.3385 20.939 60.3083 20.9024 60.2776 20.8661C60.2714 20.8589 60.2649 20.8518 60.2589 20.8447C60.2428 20.8255 60.2264 20.8065 60.2107 20.7872C59.6167 20.0699 59.2122 19.093 59.1196 17.8214C59.1193 17.8175 59.1193 17.8133 59.1189 17.8094C59.1129 17.7244 59.1081 17.6382 59.1049 17.5506C59.1046 17.5389 59.1039 17.5269 59.1036 17.5152C59.1009 17.4291 59.0989 17.3418 59.0989 17.2531C59.0989 17.1652 59.1007 17.0785 59.1036 16.9931C59.1039 16.9789 59.1043 16.9644 59.1049 16.9503C59.1078 16.868 59.1127 16.7868 59.1183 16.7069C59.1193 16.692 59.1205 16.677 59.1216 16.6621C59.1278 16.5806 59.1349 16.4998 59.1437 16.4207C59.1445 16.413 59.1455 16.405 59.1464 16.3974C59.1555 16.317 59.166 16.2379 59.1778 16.16C59.1786 16.1545 59.1789 16.1486 59.1798 16.1433C59.1921 16.0633 59.2057 15.9847 59.2206 15.9073C59.2225 15.8969 59.2246 15.8862 59.2266 15.8758C59.2418 15.7994 59.2584 15.7239 59.2761 15.6499C59.2782 15.6405 59.2805 15.6311 59.2828 15.6218C59.3013 15.5459 59.3212 15.4711 59.3423 15.3978C59.3438 15.3926 59.3455 15.3871 59.3469 15.3818C59.3915 15.2293 59.4415 15.0822 59.4967 14.9412C59.5 14.9328 59.5027 14.9241 59.506 14.9158C59.5309 14.8535 59.5574 14.7927 59.5843 14.7326C59.5921 14.7147 59.6002 14.6962 59.6084 14.6784C59.6316 14.6281 59.6553 14.5786 59.6799 14.53C59.6949 14.5 59.7103 14.47 59.726 14.4405C59.7284 14.4356 59.7315 14.4305 59.7341 14.4257C59.9101 14.0955 60.1219 13.7919 60.3705 13.5171C61.1724 12.6312 62.2767 12.1601 63.6545 12.1131C63.731 12.11 63.8079 12.1085 63.8845 12.1085C63.9616 12.1085 64.0387 12.11 64.1158 12.1131ZM84.1646 12.1085C88.0053 12.1085 88.7296 15.3437 88.8384 16.5792C88.8802 17.0538 88.8302 17.9037 88.8302 17.9037C88.8268 17.9629 88.7782 18.0098 88.72 18.0099L81.5979 18.0093C81.5979 20.07 83.3731 20.5385 84.1646 20.5385C85.9877 20.5384 86.4402 19.2828 86.4882 19.1753C86.506 19.1353 86.545 19.1104 86.5888 19.1104H88.529C88.5803 19.1104 88.6173 19.1416 88.605 19.2107C88.5345 19.5583 87.7999 22.3877 84.1646 22.3878C81.5425 22.3878 79.4708 20.6451 79.4708 17.2531C79.4708 15.4086 80.3102 12.1085 84.1646 12.1085ZM26.5496 12.2208C26.5924 12.2208 26.6302 12.2494 26.6425 12.291L29.0968 20.3519C29.1585 20.537 29.4167 20.5364 29.4779 20.3513L31.9182 12.2917C31.9305 12.2498 31.9682 12.2208 32.0111 12.2208H34.0582C34.109 12.2208 34.1449 12.2711 34.1292 12.3197L31.0096 22.2373C30.9943 22.283 30.9522 22.3142 30.9046 22.3142H27.6634C27.616 22.3142 27.5738 22.2833 27.5584 22.238L24.4376 12.3197C24.4219 12.2711 24.4572 12.2209 24.5078 12.2208H26.5496ZM46.1514 12.2208C46.2125 12.2208 46.2622 12.2711 46.2623 12.3331V13.3513C46.2623 13.6014 46.4531 13.6151 46.5846 13.4429C46.9291 12.9919 47.5485 12.2209 48.7481 12.2208H49.636C49.6971 12.2209 49.7468 12.2711 49.747 12.3331V13.9577C49.7468 14.0197 49.6971 14.0699 49.636 14.07H48.7494C47.2772 14.0701 46.376 14.8067 46.376 16.3285V22.2012C46.376 22.2633 46.3263 22.3142 46.265 22.3142H44.4712C44.41 22.3142 44.3603 22.2633 44.3603 22.2012V12.3331C44.3604 12.2711 44.4101 12.2208 44.4712 12.2208H46.1514ZM52.3958 12.2208C52.4569 12.2208 52.5066 12.2711 52.5068 12.3331V22.2012C52.5068 22.2633 52.4571 22.3142 52.3958 22.3142H50.6114C50.5502 22.3142 50.5004 22.2633 50.5004 22.2012V12.3331C50.5006 12.2711 50.5502 12.2208 50.6114 12.2208H52.3958ZM59.1196 8.51026C59.1807 8.51039 59.2298 8.56051 59.2299 8.62253V10.2472C59.2298 10.309 59.1806 10.3593 59.1196 10.3595H57.7758C57.5299 10.3595 57.3445 10.4317 57.2089 10.5801C57.0708 10.7311 57.0036 10.9369 57.0036 11.2086V12.2208H59.0046C59.0658 12.2208 59.1155 12.2711 59.1156 12.3331V13.81C59.1156 13.872 59.0659 13.9223 59.0046 13.9223L57.0036 13.9243V22.1083C57.0035 22.1093 57.0029 22.1104 57.0029 22.1116V22.2012C57.0029 22.2632 56.9538 22.3141 56.8926 22.3142H55.0982C55.0371 22.314 54.9878 22.2632 54.9878 22.2012V13.9249L53.3545 13.9223C53.2933 13.9223 53.2436 13.872 53.2436 13.81V12.3331C53.2437 12.2711 53.2934 12.2208 53.3545 12.2208H54.9878V10.8823C54.9878 9.30845 55.8795 8.51026 57.638 8.51026H59.1196ZM74.545 12.1098C77.1966 12.1126 78.496 14.0947 78.496 16.5203V22.2012C78.496 22.2634 78.4467 22.3142 78.385 22.3142H76.5914C76.5304 22.3142 76.4804 22.2634 76.4804 22.2012V16.2703C76.4804 15.4705 76.032 13.9577 74.0884 13.9577C72.396 13.9578 71.7148 15.2035 71.7148 16.3405V22.2012C71.7148 22.2633 71.6655 22.314 71.6046 22.3142H69.8102C69.7486 22.3142 69.6993 22.2634 69.6993 22.2012V12.3331C69.6993 12.271 69.7486 12.2208 69.8102 12.2208H71.4903C71.5512 12.2209 71.6005 12.2711 71.6005 12.3331V13.3273C71.6005 13.6095 71.8312 13.6342 71.9531 13.465C72.3077 12.9714 73.2929 12.1086 74.545 12.1098ZM63.7214 13.9617C63.6881 13.9634 63.6551 13.9658 63.6224 13.9684C63.6047 13.9699 63.5864 13.9708 63.5689 13.9725C62.8693 14.0402 62.2977 14.3398 61.8668 14.865C61.464 15.356 61.2217 15.9746 61.1433 16.7089C61.1427 16.7148 61.142 16.721 61.1414 16.7269C61.1369 16.7697 61.1334 16.8131 61.13 16.8567C61.1289 16.8722 61.1278 16.8879 61.1266 16.9034C61.124 16.9433 61.1217 16.9839 61.12 17.0245C61.1192 17.0421 61.1186 17.0596 61.1179 17.0773C61.1161 17.1352 61.1153 17.1938 61.1153 17.2531C61.1153 17.3133 61.116 17.3727 61.1179 17.4316C61.1181 17.4374 61.1185 17.4433 61.1186 17.449C61.1507 18.337 61.4019 19.0722 61.8668 19.6359C62.2988 20.1599 62.8725 20.458 63.575 20.5244C63.5765 20.5246 63.5781 20.525 63.5796 20.5251C63.6269 20.5295 63.6746 20.5329 63.7227 20.5351C63.7757 20.5376 63.8293 20.5385 63.8839 20.5385C63.9392 20.5385 63.9939 20.5376 64.0476 20.5351C64.0815 20.5335 64.1146 20.5304 64.1479 20.5278C64.1655 20.5264 64.1833 20.5254 64.2008 20.5238C64.9052 20.4567 65.478 20.1604 65.9063 19.6406C66.3355 19.1195 66.5815 18.447 66.6397 17.6382C66.6404 17.6279 66.6411 17.6178 66.6417 17.6074C66.6446 17.5644 66.6466 17.5203 66.6484 17.4764C66.649 17.4611 66.6499 17.4458 66.6504 17.4302C66.6522 17.3718 66.6531 17.3129 66.6531 17.2531C66.6531 17.1946 66.6522 17.1366 66.6504 17.0793C66.6494 17.0478 66.648 17.0163 66.6464 16.985C66.6451 16.96 66.644 16.9342 66.6424 16.9095C66.64 16.8738 66.6366 16.8385 66.6337 16.8031C66.632 16.7827 66.6309 16.762 66.629 16.7417C66.6258 16.7095 66.6214 16.6779 66.6176 16.646C66.6148 16.6213 66.6121 16.5962 66.6089 16.5718C66.6057 16.5485 66.6024 16.5248 66.5989 16.5016C66.5936 16.466 66.5877 16.4304 66.5815 16.3953C66.5799 16.3862 66.5784 16.377 66.5769 16.3679C66.4681 15.7774 66.2439 15.2723 65.9063 14.8603C65.5391 14.4124 65.0653 14.1294 64.4943 14.0152C64.4888 14.0142 64.483 14.0137 64.4776 14.0126C64.4374 14.0048 64.3969 13.998 64.3558 13.9918C64.3382 13.9894 64.3202 13.9868 64.3024 13.9844C64.2708 13.9804 64.2389 13.9762 64.2068 13.9731C64.1775 13.9703 64.1476 13.9685 64.1179 13.9664C64.0951 13.9648 64.0727 13.9629 64.0497 13.9617C63.9953 13.9591 63.9398 13.9577 63.8839 13.9577C63.8287 13.9577 63.7747 13.9592 63.7214 13.9617ZM38.652 13.9577C36.8105 13.9578 36.0854 15.6025 36.0854 16.3559H41.1725C41.1724 15.6021 40.6687 13.9577 38.652 13.9577ZM84.1646 13.9577C82.3229 13.9577 81.5979 15.6025 81.5979 16.3559H86.684C86.684 15.6021 86.1808 13.9578 84.1646 13.9577ZM51.504 8.50423C52.2237 8.5043 52.8076 9.09629 52.8077 9.82663C52.8077 10.5571 52.2238 11.1497 51.504 11.1497C50.784 11.1497 50.2002 10.5571 50.2002 9.82663C50.2003 9.09622 50.7841 8.50423 51.504 8.50423Z" fill="black"/>
</g>
<defs>
<clipPath id="clip0_3303_26652">
<rect width="89" height="27.3846" fill="white"/>
</clipPath>
</defs>
</svg>
