<svg width="416" height="141" viewBox="0 0 416 141" fill="none" xmlns="http://www.w3.org/2000/svg">
<g clip-path="url(#clip0_316_6584)">
<path d="M0 16.3193H415.957ZM102.373 47.5592C104.14 46.0937 91.9631 35.2421 90.4545 34.1645C61.8979 13.8193 18.6857 28.6472 11.0455 63.4647C6.05616 86.213 20.7655 98.0344 42.3177 90.4265C68.7514 81.0944 72.6632 47.2683 102.362 47.5592H102.373ZM129.313 113.304H182.655C185.478 113.304 191.653 108.175 193.355 105.685C199.508 96.7413 207.246 65.2212 205.716 54.6714C202.644 33.4749 160.844 43.3996 146.178 41.0505L141.156 60.5013H171.868C172.288 60.5013 174.088 62.6134 174.336 63.4216C175.262 66.4497 170.855 89.6506 169.088 92.2045C167.169 94.9524 163.075 94.7369 162.687 91.2347C162.137 86.3423 168.021 75.0706 167.029 69.1329H139.012L129.313 113.315V113.304ZM203.129 113.304H237.074C239.057 109.468 235.867 109.522 235.123 107.162C234.014 103.638 242.139 70.092 244.132 64.8333C245.587 60.997 248.206 56.9021 252.042 61.2125C251.158 75.4801 243.809 91.2993 242.602 105.351C242.365 108.099 241.632 111.44 244.089 113.304H276.956C277.872 110.384 275.232 108.455 274.833 106.224C274.284 103.164 282.204 68.8743 283.961 64.8117C286.105 59.8763 291.676 57.1715 291.719 64.0574C291.795 75.5232 281.924 94.5861 281.536 106.591C281.461 109.08 282.107 111.558 283.961 113.304H317.905C319.576 108.455 316.03 108.121 315.405 106.612C312.636 99.931 326.009 61.5789 327.324 51.0722C327.593 48.9062 328.272 44.9945 327.108 43.2165C317.959 39.9513 300.276 38.9276 292.538 45.4148C290.836 46.848 291.719 49.445 288.831 48.6476C289.219 46.0721 286.019 41.988 283.745 41.3306C280.868 40.4901 260.447 40.738 257.613 41.697C255.426 42.4298 251.298 46.0075 251.083 48.6476L248.96 48.0118C248.766 43.7014 248.497 41.8371 244.035 41.2121C238.162 40.3931 221.977 40.3716 216.028 41.0612C214.401 41.2444 213.302 41.1905 212.3 42.7531C214.121 45.9536 215.242 48.4644 214.347 52.3115L200.478 108.606C200.026 110.104 201.955 112.97 203.14 113.315L203.129 113.304ZM366.387 65.8893V48.1088C366.387 46.2769 362.335 41.1043 360.46 41.1043H332.442C331.494 41.1043 330.524 43.529 330.772 44.8005C330.869 45.3286 335.233 47.5053 336.117 53.583L341.645 113.239L370.514 113.121L403.565 52.9688C404.944 50.0808 408.101 45.6087 405.181 42.6884C401.679 39.1754 379.879 42.0526 373.909 41.1043C376.193 48.6799 372.454 55.9753 369.049 62.635C368.413 63.885 368.047 65.6199 366.365 65.8786L366.387 65.8893ZM105.595 50.8028C79.7969 47.1497 74.452 71.5037 61.3914 86.8596C52.1024 97.7758 41.7358 106.289 26.4876 104.575C23.9445 104.295 21.6061 102.011 19.397 103.045C32.1882 121.99 54.3654 105.535 64.0423 91.6657C73.3959 78.2387 79.7969 52.4085 99.6896 51.7727C102.276 51.6865 106.446 54.7253 105.606 50.792L105.595 50.8028ZM49.57 120.858C49.764 122.356 51.0356 122.712 52.3179 122.949C87.0492 129.22 117.998 98.4331 110.52 63.6695C107.427 49.3049 95.3253 55.3934 88.8812 63.7018C75.3787 81.0944 76.9844 115.308 49.5808 120.847L49.57 120.858Z" fill="white"/>
<path d="M203.121 113.31C201.935 112.976 200.006 110.099 200.459 108.601L214.328 52.3069C215.222 48.4598 214.102 45.949 212.28 42.7485C213.283 41.1751 214.382 41.2398 216.009 41.0566C221.957 40.3669 238.143 40.3885 244.016 41.2075C248.477 41.8325 248.747 43.6968 248.941 48.0072L251.064 48.643C251.279 46.0028 255.417 42.436 257.594 41.6924C260.428 40.7333 280.849 40.4963 283.726 41.326C285.989 41.9834 289.2 46.0675 288.812 48.643C291.7 49.4404 290.817 46.8326 292.519 45.4102C300.256 38.9229 317.94 39.9575 327.089 43.2118C328.263 44.9899 327.585 48.9016 327.304 51.0676C325.99 61.5743 312.617 99.9372 315.386 106.608C316.011 108.116 319.556 108.45 317.886 113.3H283.941C282.088 111.554 281.441 109.075 281.517 106.586C281.905 94.5814 291.776 75.5185 291.7 64.0528C291.657 57.1669 286.075 59.8717 283.941 64.8071C282.174 68.8697 274.264 103.159 274.814 106.22C275.213 108.45 277.853 110.379 276.937 113.3H244.07C241.613 111.435 242.346 108.095 242.583 105.347C243.8 91.2947 251.139 75.4754 252.023 61.2079C248.186 56.8975 245.568 60.9924 244.113 64.8287C242.119 70.0766 233.994 103.633 235.104 107.157C235.848 109.517 239.037 109.463 237.055 113.3H203.11L203.121 113.31Z" fill="#23408A"/>
<path d="M129.31 113.311L139.008 69.1293H167.026C168.028 75.067 162.134 86.328 162.683 91.2311C163.082 94.7441 167.177 94.9596 169.084 92.201C170.862 89.647 175.259 66.4569 174.332 63.418C174.084 62.6098 172.285 60.4977 171.864 60.4977H141.152L146.174 41.0469C160.84 43.3853 202.641 33.4713 205.712 54.6678C207.242 65.2284 199.494 96.7485 193.352 105.682C191.649 108.16 185.475 113.301 182.651 113.301H129.31V113.311Z" fill="#23408A"/>
<path d="M366.378 65.8947C368.048 65.6361 368.415 63.8904 369.061 62.6511C372.467 55.9915 376.206 48.6961 373.921 41.1205C379.891 42.0688 401.691 39.1808 405.194 42.7046C408.114 45.6357 404.956 50.097 403.577 52.985L370.527 113.137L341.658 113.256L336.13 53.5992C335.235 47.5215 330.882 45.3447 330.785 44.8167C330.537 43.5451 331.496 41.1205 332.455 41.1205H360.473C362.348 41.1205 366.4 46.293 366.4 48.125V65.9055L366.378 65.8947Z" fill="#23408A"/>
<path d="M102.379 47.545C72.6802 47.2541 68.7685 81.0802 42.3348 90.4123C20.7826 98.0202 6.07324 86.1989 11.0626 63.4505C18.692 28.633 61.9042 13.8051 90.45 34.1611C91.9587 35.2387 104.146 46.0903 102.368 47.5558L102.379 47.545Z" fill="#23408A"/>
<path d="M49.5684 120.84C76.972 115.301 75.3663 81.0872 88.8688 63.6946C95.3129 55.3862 107.414 49.2977 110.507 63.6623C117.986 98.4151 87.0368 129.202 52.3055 122.942C51.0232 122.704 49.7516 122.349 49.5576 120.851L49.5684 120.84Z" fill="#23408A"/>
<path d="M105.596 50.7892C106.437 54.7225 102.267 51.6836 99.6803 51.7698C79.7877 52.4056 73.3974 78.2359 64.033 91.6629C54.3669 105.543 32.1789 121.998 19.3877 103.042C21.5968 102.008 23.9352 104.293 26.4784 104.573C41.7265 106.286 52.0931 97.7622 61.3821 86.8568C74.4427 71.5009 79.7877 47.1469 105.586 50.8L105.596 50.7892Z" fill="#23408A"/>
</g>
<defs>
<clipPath id="clip0_316_6584">
<rect width="415.957" height="140.089" fill="white"/>
</clipPath>
</defs>
</svg>
