<svg width="78" height="31" viewBox="0 0 78 31" fill="none" xmlns="http://www.w3.org/2000/svg">
<g clip-path="url(#clip0_3303_26463)">
<path d="M39.6214 0.0164681C42.3909 -0.0788629 45.1785 0.337697 47.7906 1.2646C51.7202 2.64407 55.2323 5.17209 57.8021 8.44672C58.9326 9.88334 59.8794 11.4625 60.6215 13.1332C60.7531 13.4112 60.8544 13.7237 60.784 14.0335C60.6977 14.5535 60.2419 14.9834 59.7176 15.0353C59.1731 15.1149 58.6104 14.7752 58.4162 14.2621C56.9406 10.7896 54.4222 7.77336 51.2807 5.68545C49.3386 4.38768 47.1605 3.44265 44.8851 2.91357C41.9507 2.2272 38.8612 2.2272 35.9263 2.91148C31.7356 3.87648 27.8986 6.2802 25.1924 9.62019C24.045 11.0275 23.0975 12.5962 22.3833 14.2652C22.2287 14.653 21.8736 14.957 21.4592 15.0251C21.0596 15.1022 20.6246 14.9642 20.346 14.6666C20.0174 14.3375 19.91 13.8114 20.0794 13.3795C22.0451 8.73201 25.6849 4.82786 30.1599 2.50398C33.0745 0.978452 36.335 0.12752 39.6214 0.0164681Z" fill="#F49813"/>
<path d="M35.9615 14.3267C35.9449 14.0853 36.1733 13.9047 36.3996 13.899C36.6936 13.8911 36.9885 13.8935 37.2832 13.8977C37.4879 13.9047 37.7269 14.0411 37.7261 14.2711C37.7366 16.9716 37.7197 19.6729 37.7351 22.3749C38.8293 21.1582 39.9329 19.9482 41.0309 18.7351C41.2472 18.5219 41.4181 18.1988 41.7545 18.171C42.2077 18.1522 42.6621 18.1634 43.1158 18.164C43.2907 18.1483 43.4858 18.3086 43.4244 18.4952C43.3527 18.6393 43.2211 18.7382 43.1137 18.8525C41.9264 20.0389 40.7345 21.2212 39.5532 22.4127C40.6943 23.7153 41.8196 25.0312 42.9555 26.3387C43.1016 26.5247 43.2846 26.6826 43.4071 26.8877C43.497 27.048 43.3481 27.2432 43.1763 27.2507C42.7991 27.2719 42.421 27.2507 42.0428 27.2598C41.8462 27.2553 41.6336 27.284 41.4551 27.1827C41.2669 27.0747 41.1526 26.8817 41.0179 26.7192C39.9222 25.3395 38.8338 23.9543 37.7342 22.577C37.723 23.9352 37.7309 25.2929 37.7299 26.6502C37.7258 26.807 37.7578 26.9957 37.6214 27.1101C37.4041 27.3197 37.0808 27.2462 36.8098 27.2598C36.5692 27.2516 36.2879 27.3043 36.0925 27.1267C35.9836 27.042 35.9551 26.8974 35.9594 26.7688C35.9624 22.6209 35.9581 18.4735 35.9615 14.3267Z" fill="#3069B5"/>
<path d="M30.9694 18.1412C31.5187 17.9645 32.138 17.9309 32.6761 18.1639C32.8649 18.2525 33.0842 18.4416 32.9989 18.6745C32.9127 18.967 32.8392 19.2628 32.7364 19.5502C32.6604 19.7565 32.4211 19.8331 32.2197 19.7929C31.7665 19.7151 31.3215 19.5654 30.8568 19.5805C30.5326 19.5729 30.2334 19.7469 30.0116 19.9723C29.6538 20.3222 29.4686 20.8117 29.3854 21.2972C29.3195 21.6481 29.3383 22.0066 29.3353 22.3611C29.3353 23.851 29.3358 25.3418 29.3349 26.8316C29.3561 27.0766 29.1026 27.243 28.8814 27.2515C28.5777 27.2557 28.2746 27.2597 27.9712 27.2491C27.7519 27.2376 27.5051 27.0776 27.5335 26.8307C27.5323 24.0718 27.5305 21.3139 27.5341 18.555C27.5154 18.2806 27.8193 18.1315 28.0578 18.1572C28.3569 18.1769 28.7653 18.0644 28.9598 18.3654C29.1074 18.7144 29.1776 19.0914 29.3162 19.4435C29.7333 18.8711 30.2863 18.3665 30.9694 18.1412Z" fill="#3069B5"/>
<path d="M0 18.3522C0.0843993 18.2554 0.183017 18.1507 0.323683 18.1607C0.735698 18.1568 1.14892 18.1477 1.56063 18.1668C1.76967 18.1728 1.91366 18.3565 1.94422 18.551C2.34927 20.1981 2.74707 21.8477 3.15031 23.4955C3.26859 24.0043 3.41259 24.508 3.48973 25.0255C3.56928 25.4905 3.58502 25.9624 3.66064 26.4283C3.76471 25.7634 3.85788 25.0942 4.03726 24.4447C4.56453 22.4781 5.0915 20.5119 5.61938 18.5458C5.66052 18.3216 5.87137 18.1623 6.09552 18.1623C6.55413 18.1507 7.01363 18.1586 7.47224 18.1586C7.71818 18.1471 7.9814 18.2908 8.04064 18.5428C8.43451 19.9764 8.82358 21.4127 9.2159 22.8475C9.45395 23.7768 9.76581 24.6904 9.90048 25.6439C9.93766 25.9064 9.97398 26.1696 10.0281 26.4304C10.176 24.9324 10.5615 23.4749 10.8785 22.008C11.1402 20.841 11.396 19.6727 11.6607 18.5056C11.6998 18.2712 11.9478 18.1532 12.1663 18.1598C12.5371 18.1577 12.9086 18.1471 13.2789 18.1659C13.4988 18.1723 13.6252 18.4154 13.5478 18.6115C12.8036 21.3574 12.0622 24.105 11.3177 26.8509C11.2778 27.0711 11.086 27.2429 10.8612 27.2466C10.2865 27.2653 9.71052 27.2511 9.13574 27.2541C8.92975 27.2668 8.7119 27.1564 8.67558 26.9395C8.16106 25.0513 7.65677 23.1597 7.14704 21.2699C6.96252 20.6125 6.88779 19.931 6.81035 19.2549C6.71567 19.8569 6.66878 20.4689 6.50845 21.0603C5.98662 23.006 5.46177 24.9526 4.93873 26.8987C4.87975 27.2139 4.51946 27.2768 4.25144 27.2562C3.71691 27.2466 3.18238 27.2686 2.64845 27.2466C2.45818 27.2472 2.31146 27.0989 2.27728 26.9192C1.52706 24.1843 0.779259 21.4481 0.0284357 18.7137C0.00242006 18.5942 0.00574765 18.4724 0 18.3522Z" fill="#3069B5"/>
<path d="M67.4087 18.1654C67.799 18.1588 68.1907 18.1572 68.581 18.1654C68.8184 18.1687 69.0417 18.3311 69.1164 18.558C69.7904 20.3192 70.4596 22.0837 71.1326 23.8459C71.2732 24.2034 71.3716 24.5764 71.4346 24.9552C71.7128 23.91 72.0834 22.8929 72.4086 21.8614C72.7707 20.7461 73.1331 19.6305 73.4967 18.5148C73.5506 18.3206 73.7357 18.1881 73.9323 18.1718C74.2509 18.1481 74.5715 18.1687 74.8906 18.1602C75.0773 18.1624 75.2997 18.1406 75.4419 18.2903C75.5341 18.3684 75.5144 18.4981 75.476 18.5995C74.3991 21.6714 73.3252 24.7449 72.2498 27.8178C72.0628 28.3296 71.9191 28.8654 71.6182 29.3258C71.1864 30.027 70.4867 30.5319 69.7178 30.8051C69.4492 30.8882 69.1718 31.0728 68.8828 30.9693C68.6778 30.917 68.5991 30.7037 68.4896 30.547C68.411 30.4048 68.2658 30.2732 68.296 30.0963C68.3102 29.9208 68.4509 29.778 68.6167 29.7312C68.9409 29.6192 69.2707 29.4958 69.5333 29.2668C70.1716 28.7268 70.5664 27.9282 70.7167 27.1154C70.6148 26.7545 70.4263 26.4226 70.2895 26.0732C69.2625 23.6864 68.2355 21.2988 67.2061 18.9129C67.144 18.7568 67.0527 18.6079 67.0352 18.4386C67.0376 18.2525 67.2508 18.1708 67.4087 18.1654Z" fill="#3069B5"/>
<path d="M19.5253 19.319C18.965 19.4231 18.4541 19.7719 18.1697 20.2686C17.6945 21.0742 17.6398 22.0462 17.6612 22.9597C17.6951 23.7868 17.8279 24.6689 18.3555 25.3374C18.7491 25.8402 19.3958 26.0928 20.0245 26.0831C20.6291 26.1025 21.2626 25.8977 21.6725 25.4378C22.1961 24.8652 22.3643 24.0705 22.4363 23.3212C22.4681 22.5852 22.4829 21.8359 22.292 21.1172C22.1402 20.51 21.8195 19.9029 21.2647 19.5758C20.7483 19.2591 20.1103 19.2295 19.5253 19.319ZM19.7618 18.0092C20.7756 17.9468 21.8377 18.1574 22.6744 18.7579C23.4228 19.2903 23.931 20.1107 24.1684 20.9904C24.4507 22.0407 24.4495 23.1615 24.1935 24.2172C23.9525 25.1904 23.3886 26.1079 22.538 26.6609C21.6289 27.2641 20.4869 27.4208 19.42 27.2922C18.511 27.1803 17.6252 26.7816 16.9924 26.1118C16.2485 25.3326 15.8791 24.259 15.8023 23.1978C15.7088 22.021 15.8891 20.7753 16.5437 19.7704C17.0281 19.0141 17.798 18.4584 18.6567 18.2049C19.0149 18.093 19.3886 18.0409 19.7618 18.0092Z" fill="#3069B5"/>
<path d="M49.6638 19.2725C49.1081 19.3082 48.5717 19.628 48.3237 20.1352C47.8391 21.0734 47.8291 22.1651 47.8533 23.1967C47.892 23.8706 47.9652 24.5664 48.2792 25.175C48.4916 25.5849 48.8773 25.9086 49.3335 26.0078C50.0314 26.1757 50.8527 26.0336 51.3488 25.4821C51.8268 24.9379 51.9841 24.1979 52.0576 23.4976C52.108 22.6993 52.1111 21.8847 51.913 21.1033C51.7768 20.5808 51.5464 20.059 51.1325 19.696C50.7356 19.3467 50.1826 19.212 49.6638 19.2725ZM52.0552 14.2116C52.0425 13.9998 52.2587 13.8646 52.4469 13.8483C52.7479 13.8319 53.0498 13.8398 53.3514 13.8431C53.5813 13.841 53.8384 14.0119 53.8052 14.2672C53.8052 18.434 53.806 22.6001 53.8046 26.7662C53.8203 26.9813 53.6085 27.1483 53.4098 27.1613C53.1699 27.174 52.9294 27.174 52.6904 27.1574C52.5219 27.1468 52.3586 27.0388 52.3011 26.8776C52.211 26.6068 52.164 26.3255 52.0953 26.0502C51.7627 26.5015 51.3336 26.9008 50.8007 27.099C50.0404 27.3788 49.1943 27.3834 48.413 27.1928C47.628 27.004 46.9443 26.4646 46.5655 25.7546C45.9711 24.6708 45.9006 23.3957 45.9379 22.1866C45.959 21.1535 46.1562 20.0636 46.8293 19.2438C47.3369 18.5489 48.1688 18.1502 49.0089 18.0459C49.7909 17.9315 50.6388 18.0631 51.2862 18.5368C51.5923 18.7522 51.8373 19.0411 52.0561 19.343C52.05 17.6329 52.0515 15.9222 52.0552 14.2116Z" fill="#3069B5"/>
<path d="M60.4693 19.3242C60.1904 19.381 59.9202 19.4929 59.6948 19.6675C59.2441 20.0184 59.0202 20.576 58.9008 21.1174C58.7268 21.9766 58.7292 22.8638 58.8191 23.7326C58.9032 24.3709 59.0635 25.0521 59.5315 25.5241C59.9127 25.9243 60.4875 26.071 61.0253 26.0447C61.6037 26.0655 62.2057 25.8502 62.5787 25.3958C63.0451 24.8316 63.1767 24.0811 63.2448 23.3741C63.2881 22.5428 63.2886 21.6916 63.0551 20.8845C62.9075 20.3817 62.6376 19.8817 62.1824 19.5952C61.6808 19.2661 61.0464 19.2358 60.4693 19.3242ZM59.6948 18.1831C60.4974 17.9607 61.3565 17.9477 62.1673 18.1332C62.9205 18.3078 63.6259 18.7306 64.0888 19.3568C64.5783 19.9987 64.8254 20.7947 64.9282 21.5878C65.0175 22.1995 64.9918 22.819 64.9926 23.4352C64.9926 24.5473 64.9926 25.6596 64.9896 26.7713C65.0018 26.9068 64.9161 27.0269 64.8057 27.0974C64.6191 27.2123 64.3877 27.1615 64.1795 27.1745C63.946 27.1727 63.639 27.1933 63.5119 26.9504C63.3879 26.6648 63.3622 26.3463 63.2826 26.0459C62.9695 26.4264 62.6452 26.8191 62.192 27.039C61.5017 27.3802 60.6946 27.3603 59.9559 27.216C59.052 27.0375 58.2195 26.503 57.7083 25.7328C57.0994 24.8358 56.8785 23.7287 56.887 22.6587C56.8794 21.6156 57.0836 20.5372 57.6635 19.6548C58.1273 18.9333 58.8714 18.4109 59.6948 18.1831Z" fill="#3069B5"/>
<path d="M75.8596 25.015C75.4007 25.1835 75.1118 25.7129 75.2289 26.1908C75.3484 26.752 76.0012 27.1349 76.5458 26.9274C77.0479 26.7741 77.3646 26.2014 77.2088 25.6965C77.072 25.1284 76.3981 24.7926 75.8596 25.015ZM75.9232 24.7751C76.1954 24.7321 76.4912 24.7291 76.7438 24.8552C77.174 25.0507 77.4833 25.5126 77.4366 25.993C77.4724 26.5659 76.9904 27.0781 76.4404 27.1703C75.8212 27.3019 75.1548 26.8533 75.0287 26.2356C74.8659 25.6139 75.2979 24.9142 75.9232 24.7751Z" fill="#3069B5"/>
<path d="M76.0509 25.4729C76.0499 25.603 76.0493 25.7331 76.0509 25.8641C76.1649 25.8571 76.2823 25.8641 76.3948 25.8329C76.5006 25.789 76.4901 25.6544 76.4614 25.5643C76.3519 25.4572 76.1891 25.485 76.0509 25.4729ZM75.7066 25.2612C76.0358 25.2799 76.4048 25.187 76.7012 25.3707C76.9402 25.5501 76.8244 25.9403 76.5545 26.0235C76.6323 26.2292 76.7406 26.4204 76.8394 26.6164C76.7148 26.6188 76.5923 26.6209 76.4698 26.623C76.3812 26.4415 76.2943 26.2579 76.2097 26.0749C76.1558 26.0734 76.1029 26.0728 76.0509 26.0719C76.0499 26.2549 76.0499 26.4379 76.0499 26.6209C75.9335 26.6194 75.8195 26.6179 75.7051 26.617C75.706 26.1647 75.7045 25.7125 75.7066 25.2612Z" fill="#3069B5"/>
</g>
<defs>
<clipPath id="clip0_3303_26463">
<rect width="77.4419" height="31" fill="white"/>
</clipPath>
</defs>
</svg>
