<svg width="394" height="101" viewBox="0 0 394 101" fill="none" xmlns="http://www.w3.org/2000/svg">
<g clip-path="url(#clip0_316_1750)">
<path d="M142.338 29.6863V29.5781H139.813C138.983 29.5781 138.298 30.1192 138.01 30.9128C129.605 56.0906 125.998 67.0203 124.23 72.6835H124.122C122.643 67.6335 118.531 55.8021 109.91 30.9128C109.657 30.1192 108.936 29.6142 108.106 29.6142H105.148C103.814 29.6142 102.876 30.9488 103.381 32.1753L120.587 79.7535C120.731 80.1863 120.731 80.6553 120.587 81.052C119.613 83.7574 118.567 86.3546 115.573 94.5788C115.14 95.8053 116.006 97.1399 117.305 97.1399H120.118C120.948 97.176 121.705 96.707 121.922 95.9135C125.312 85.8856 126.214 83.6131 127.152 80.9438L144.178 32.2113C144.611 30.9849 143.673 29.6863 142.374 29.6863H142.338Z" fill="black"/>
<path d="M187.391 44.1519V44.0437C187.427 33.1862 181.042 28.3887 169.644 28.3887C158.245 28.3887 153.412 34.5208 152.077 40.0397C151.788 41.2662 152.654 42.4205 153.953 42.4205H156.622C157.452 42.4205 158.209 41.8794 158.426 41.0497C159.472 37.4787 161.492 33.8715 169.5 33.8715C179.672 33.8715 181.078 39.7872 181.078 44.4405V47.1097C181.078 48.1558 180.249 49.0215 179.167 49.0215H172.277C157.776 49.0215 149.408 53.9633 149.408 64.7126C149.408 72.0712 154.277 79.4658 165.64 79.4658C173.359 79.4658 177.543 76.508 179.744 73.5501C180.249 72.9008 181.223 73.1894 181.259 73.983C181.367 75.0651 181.439 76.003 181.547 76.7605C181.692 77.6983 182.485 78.3476 183.423 78.3476H185.948C187.066 78.3476 187.968 77.3737 187.824 76.2194C187.643 74.2355 187.427 71.4219 187.427 68.464V44.1158L187.391 44.1519ZM181.151 55.6226C181.151 65.398 179.383 74.0551 166.506 74.0551C160.049 74.0551 156.117 70.0872 156.117 64.424C156.117 56.7047 162.105 53.9633 172.385 53.9633H181.151V55.6587V55.6226Z" fill="black"/>
<path d="M204.669 7.07031H207.266C208.312 7.07031 209.178 7.93603 209.178 8.9821V76.3996C209.178 77.4457 208.312 78.3114 207.266 78.3114H204.669C203.623 78.3114 202.757 77.4457 202.757 76.3996V8.9821C202.757 7.93603 203.623 7.07031 204.669 7.07031Z" fill="black"/>
<path d="M261.988 31.527C261.988 30.4809 261.158 29.6152 260.076 29.6152H257.407C256.36 29.6152 255.495 30.4449 255.495 31.527V54.8292C255.495 67.9592 251.707 73.5502 241.715 73.5502C232.806 73.5502 230.678 67.0934 230.678 60.312V31.527C230.678 30.4809 229.848 29.6152 228.766 29.6152H226.205C225.159 29.6152 224.293 30.4449 224.293 31.527V61.7909C224.293 76.1474 232.77 79.5381 240.273 79.5381C247.775 79.5381 252.068 76.8327 254.557 72.3599C254.809 71.9631 255.387 72.1074 255.387 72.5402L255.639 76.5442C255.675 77.5181 256.541 78.3117 257.551 78.3117H260.148C261.194 78.3117 262.06 77.482 262.06 76.3999C262.06 73.2256 261.952 67.887 261.952 64.0995V31.4909L261.988 31.527Z" fill="black"/>
<path d="M295.858 29.5441H288.463C287.417 29.5441 286.551 28.7145 286.551 27.6323V16.6305C286.551 15.5845 285.722 14.7188 284.64 14.7188H284.676L282.006 14.7548C280.96 14.7548 280.095 15.5845 280.095 16.6666V27.6684C280.095 28.7145 279.265 29.5802 278.183 29.5802H273.277C272.231 29.5802 271.365 30.4098 271.365 31.492V33.2595C271.365 34.3055 272.195 35.1712 273.277 35.1712H278.183C279.229 35.1712 280.095 36.0009 280.095 37.083V67.5634C280.095 75.4991 283.521 78.962 290.339 78.962C291.962 78.962 293.838 78.8537 295.461 78.5291C296.291 78.3487 296.94 77.5552 296.94 76.6534V75.1384C296.94 74.0202 295.966 73.1184 294.812 73.2627C293.874 73.3709 293.008 73.3709 292.251 73.3709C287.742 73.3709 286.551 70.5573 286.551 65.4352V37.083C286.551 36.037 287.381 35.1712 288.463 35.1712H295.858C296.904 35.1712 297.77 34.3416 297.77 33.2595V31.492C297.77 30.4459 296.94 29.5802 295.858 29.5802V29.5441Z" fill="black"/>
<path d="M324.607 28.3516H324.499C310.034 28.3876 303 40.2191 303 54.3951C303 66.8398 308.952 79.5009 323.957 79.5009C334.779 79.5009 340.154 73.7294 342.642 68.1023C343.22 66.8037 342.282 65.3969 340.911 65.3969H338.35C337.629 65.3969 336.979 65.7937 336.691 66.443C334.959 70.0141 331.929 73.8016 324.246 73.8016C315.986 73.8016 310.431 67.2366 309.745 57.0644C309.637 55.9101 310.539 54.9723 311.657 54.9723H342.895C343.941 54.9723 344.771 54.1426 344.807 53.0966V50.9323C344.807 41.193 339.901 28.4237 324.571 28.4237L324.607 28.3516ZM336.077 49.9944H312.018C310.828 49.9583 309.962 48.8762 310.142 47.7219C311.513 39.5337 315.733 33.9787 324.354 33.9787C332.975 33.9787 337.232 39.9666 337.989 47.8662C338.097 49.0205 337.196 49.9944 336.077 49.9944Z" fill="black"/>
<path d="M390.978 63.7749H388.381C387.587 63.7749 386.902 64.2799 386.613 65.0013C384.305 70.8449 380.409 73.8388 374.205 73.8388H374.241C364.862 73.8027 359.74 65.2899 359.74 53.9274C359.74 42.5649 365.151 34.1242 374.637 34.1242C381.707 34.1242 385.17 38.2363 386.757 43.0699C387.01 43.8634 387.731 44.3684 388.525 44.3684H391.266C392.529 44.3684 393.431 43.1781 393.106 41.9517C391.519 35.7113 386.325 28.4609 374.746 28.4609C360.389 28.4609 352.995 40.6531 352.995 54.252C352.995 70.1956 361.471 79.5381 374.132 79.5381C384.521 79.5381 390.112 73.6584 392.781 66.2999C393.214 65.0734 392.276 63.7749 390.978 63.7749Z" fill="black"/>
<path d="M57.0645 101H36.107C33.8345 101 32.0309 99.1604 32.0309 96.8879V57.1732C32.0309 56.5239 32.1752 55.8386 32.5359 55.2614L41.8424 37.5864L25.7545 8.11607H11.0374C11.0374 8.11607 11.0013 8.11607 11.0374 8.15214L24.6002 32.2118C25.7184 34.2318 24.9609 36.9011 22.7966 37.875C20.8849 38.7768 18.5763 37.875 17.5302 35.9993L0.540576 6.02393C-0.433352 4.32857 -0.108709 2.16429 1.55058 0.901786C2.272 0.2525 3.20986 0 4.21986 0H28.1352C29.6141 0 30.9849 0.793571 31.6702 2.12821L46.3152 29.0014H46.3513L60.3109 2.525C60.9963 1.19036 62.367 0.360714 63.9181 0.360714H88.9516C89.9256 0.360714 90.8634 0.649286 91.657 1.2625C93.2802 2.59714 93.5327 4.83357 92.5588 6.49286L60.6356 59.3375C59.9141 60.5639 58.5795 61.3214 57.1006 61.2493C55.6577 61.2493 54.3591 60.4196 53.6738 59.1571L46.5316 46.1354H46.4956L40.147 58.1471V92.8118H53.0245V81.0164C53.0245 78.8882 54.5395 76.9764 56.6677 76.76C59.0124 76.5796 61.0324 78.4554 61.0324 80.7639V96.8157C61.0324 99.0882 59.2288 100.928 56.9563 100.928L57.1006 101.036L57.0645 101ZM50.9684 37.5504L57.317 49.1654L81.9538 8.40464H66.2988L50.9324 37.4782L50.9684 37.5504Z" fill="url(#paint0_linear_316_1750)"/>
</g>
<defs>
<linearGradient id="paint0_linear_316_1750" x1="-0.000495197" y1="50.5" x2="93.1359" y2="50.5" gradientUnits="userSpaceOnUse">
<stop stop-color="#8D00F4"/>
<stop offset="0.44" stop-color="#4745DA"/>
<stop offset="1" stop-color="#04CFFE"/>
</linearGradient>
<clipPath id="clip0_316_1750">
<rect width="393.142" height="101" fill="white"/>
</clipPath>
</defs>
</svg>
