<svg width="75" height="17" viewBox="0 0 75 17" fill="none" xmlns="http://www.w3.org/2000/svg">
<g clip-path="url(#clip0_3303_26568)">
<path d="M15.8396 16.5517H2.52068C1.6155 16.5517 0.774986 16.0991 0.387055 15.3233C-0.0655307 14.4181 0.0637796 13.3836 0.774986 12.6724L10.0853 3.49138H3.42585C1.6155 3.49138 0.128435 2.06897 0.128435 0.258621H12.3483C13.2534 0.258621 14.094 0.711207 14.4819 1.48707C14.9345 2.39224 14.8052 3.42672 14.0939 4.13793L4.84826 13.319H12.5422C14.3526 13.319 15.8396 14.806 15.8396 16.6164V16.5517ZM68.4043 0C66.5293 0 64.7836 0.840517 63.6198 2.13362C62.456 0.840517 60.7103 0 58.8353 0C55.2793 0 52.4345 2.97414 52.4345 6.46552V16.5517C54.2448 16.5517 55.7319 15.0647 55.7319 13.2543V6.40086C55.7319 4.71983 57.025 3.29741 58.7707 3.23276C60.581 3.1681 62.0034 4.59052 62.0034 6.33621V13.2543C62.0034 15.0647 63.4905 16.5517 65.3008 16.5517V6.40086C65.3008 4.71983 66.5939 3.29741 68.3396 3.23276C70.15 3.1681 71.5724 4.59052 71.5724 6.33621V13.2543C71.5724 15.0647 73.0595 16.5517 74.8698 16.5517V6.46552C74.8698 3.03879 71.9603 0 68.4689 0H68.4043ZM32.456 8.40517C32.456 13.0603 28.6414 16.8103 23.9862 16.8103C19.331 16.8103 15.5164 13.0603 15.5164 8.40517C15.5164 3.75 19.2664 0 23.9862 0C28.706 0 32.456 3.75 32.456 8.40517ZM29.1586 8.40517C29.1586 5.56034 26.831 3.23276 23.9862 3.23276C21.1414 3.23276 18.8138 5.56034 18.8138 8.40517C18.8138 11.25 21.1414 13.5776 23.9862 13.5776C26.831 13.5776 29.1586 11.25 29.1586 8.40517ZM50.7534 8.40517C50.7534 13.0603 46.9388 16.8103 42.2836 16.8103C37.6284 16.8103 33.8138 13.0603 33.8138 8.40517C33.8138 3.75 37.5638 0 42.2836 0C47.0034 0 50.7534 3.75 50.7534 8.40517ZM47.456 8.40517C47.456 5.56034 45.1284 3.23276 42.2836 3.23276C39.4388 3.23276 37.1112 5.56034 37.1112 8.40517C37.1112 11.25 39.4388 13.5776 42.2836 13.5776C45.1284 13.5776 47.456 11.25 47.456 8.40517Z" fill="#0B5CFF"/>
</g>
<defs>
<clipPath id="clip0_3303_26568">
<rect width="75" height="16.8103" fill="white"/>
</clipPath>
</defs>
</svg>
