<svg width="356" height="180" viewBox="0 0 356 180" fill="none" xmlns="http://www.w3.org/2000/svg">
<mask id="mask0_316_1701" style="mask-type:luminance" maskUnits="userSpaceOnUse" x="0" y="0" width="355" height="180">
<path d="M354.857 0H0V180H354.857V0Z" fill="white"/>
</mask>
<g mask="url(#mask0_316_1701)">
<path d="M136.287 70.1997C137.187 55.4654 128.573 47.0567 118.93 48.0341C109.287 49.011 106.073 54.9767 104.016 61.5597C103.425 63.411 97.9985 63.0767 93.1902 61.868C88.8446 60.788 84.8585 59.2967 85.8359 56.7254C101.676 15.7367 151.536 34.6625 146.367 71.8197C144.593 84.5223 132.918 107.82 117.285 126.514C122.653 126.485 127.962 125.388 132.902 123.287C137.842 121.185 142.315 118.122 146.058 114.274C148.013 112.114 149.813 111.445 151.202 112.088C152.59 112.731 151.742 114.531 151.202 115.714C140.658 134.537 111.678 146.571 83.5728 145.157C82.3128 145.157 80.6928 144.591 80.8472 142.585C81.0015 140.58 83.5728 138.857 86.5559 136.8C116.565 116.305 135.258 86.9397 136.287 70.1997Z" fill="#EB1118"/>
<path d="M351.463 138.522C334.877 107.665 344.263 66.1366 345.677 53.2536C346.423 46.671 331.92 40.3965 331.2 40.3965C330.48 40.3965 329.863 40.9622 329.631 42.2479C329.4 43.5337 331.226 70.9449 330.043 77.6823C307.929 77.271 288.463 94.8592 281.751 112.962C280.603 117.177 278.317 120.993 275.143 123.994C271.585 127.275 267.31 129.681 262.658 131.02C258.007 132.36 253.107 132.595 248.349 131.708C246.496 131.276 244.84 130.241 243.639 128.765C242.439 127.29 241.761 125.458 241.714 123.557C267.429 117.488 285.583 106.611 283.423 89.9992C282.189 80.3823 271.157 73.851 254.623 80.511C241.714 85.6792 228.626 102.574 226.646 114.017C216.694 115.945 202.911 111.985 183.24 105.865C214.843 101.725 248.323 81.8479 248.297 67.2936C248.297 45.8992 213.146 44.5879 182.7 51.531C174.533 53.2275 166.709 56.2875 159.557 60.5823C157.68 61.6623 154.029 68.2966 156.626 68.811C159.866 69.351 176.169 62.4079 182.34 60.7879C178.11 64.6966 175.13 69.7695 173.777 75.3679C172.439 82.2214 171.452 89.1393 170.82 96.0936C168.2 96.2425 165.609 96.7177 163.106 97.5079C161.254 99.6679 159.249 104.862 160.534 105.711C162.918 107.207 165.401 108.539 167.966 109.697C167.786 111.831 161.537 141.737 163.003 142.637C165.452 142.403 167.827 141.666 169.977 140.471C172.128 139.276 174.008 137.65 175.5 135.694C179.074 130.551 179.331 118.542 180.154 113.759C194.319 121.542 210.282 125.462 226.44 125.125C227.127 128.848 228.908 132.282 231.555 134.989C234.203 137.696 237.596 139.552 241.303 140.322C247.973 141.72 254.865 141.676 261.517 140.195C268.169 138.714 274.427 135.829 279.874 131.734C281.674 136.877 286.251 141.711 296.254 141.711C314.691 141.711 325.851 129.522 330.017 114.994C330.583 127.414 337.5 137.828 348.249 141.042C350.769 141.762 352.491 140.451 351.463 138.522ZM271.466 92.2366C273.06 96.0166 269.126 105.891 242.717 112.294C247.397 89.9992 267.763 83.391 271.466 92.1079V92.2366ZM184.037 60.6336C208.826 55.7479 228.986 57.2392 227.751 70.9192C227.083 78.6336 204.3 93.2136 182.211 95.4249C182.237 90.3079 183.78 65.5966 183.909 60.5049L184.037 60.6336ZM297.514 129.265C292.86 128.879 291.189 121.242 297.746 109.439C306.283 94.1392 319.32 86.0392 329.4 85.8336C326.571 107.794 316.286 130.679 297.386 129.137L297.514 129.265Z" fill="#EB1118"/>
<path d="M87.8928 163.183C74.9769 163.171 62.2946 159.741 51.1337 153.241C39.9723 146.741 30.7302 137.403 24.3457 126.176C17.9613 114.948 14.662 102.231 14.7828 89.3152C14.9037 76.4002 18.4405 63.7466 25.034 52.6406C31.6275 41.5346 41.0428 32.3713 52.3235 26.0815C63.6045 19.7917 76.3489 16.5994 89.2631 16.8289C102.177 17.0584 114.8 20.7015 125.85 27.3882C136.9 34.0748 145.984 43.5669 152.178 54.9001C152.667 55.8001 154.056 57.3175 155.598 57.0344C158.17 56.5718 157.81 54.1544 157.065 52.6888C148.364 35.4176 133.9 21.7303 116.176 13.9943C98.4516 6.25835 78.581 4.96015 60.0009 10.3243C41.4205 15.6885 25.2993 27.3776 14.4254 43.3699C3.55141 59.3623 -1.39137 78.652 0.451898 97.903C2.29517 117.154 10.8086 135.156 24.5196 148.794C38.2307 162.433 56.2772 170.85 75.5376 172.591C94.7981 174.332 114.061 169.286 129.996 158.328C145.93 147.369 157.533 131.186 162.798 112.577C162.798 112.577 163.93 109.492 160.973 109.62C158.658 109.62 157.578 112.577 157.578 112.577C152.802 127.294 143.484 140.119 130.965 149.211C118.445 158.303 103.366 163.194 87.8928 163.183Z" fill="#EB1118"/>
<path d="M66.4965 145.184C43.7139 146.907 32.7596 131.144 26.6139 116.178C25.791 114.224 30.3681 112.784 32.631 117.104C46.7483 144.104 77.0652 137.675 78.6083 117.644C79.9709 99.6436 60.6083 92.3923 35.5624 91.9292C35.2954 91.9373 35.0353 91.8433 34.8348 91.6664C34.6344 91.49 34.5084 91.2439 34.4824 90.9779C35.0589 87.3095 36.2868 83.7739 38.1081 80.5379C38.2825 80.2949 38.5096 80.0951 38.7723 79.9525C39.0351 79.8098 39.3267 79.7288 39.6253 79.7149C59.5539 77.1436 70.4826 69.9692 69.1965 56.1349C67.9626 43.7151 48.2139 40.7065 37.2339 55.3123C35.2281 57.8836 30.4453 57.8836 31.5768 55.6466C38.2368 42.1722 48.5483 34.0208 61.8426 33.5579C67.5621 33.3197 73.1453 35.3456 77.3816 39.1965C81.6174 43.0474 84.1649 48.4129 84.4709 54.1292C84.569 59.9797 82.9242 65.7271 79.7463 70.6406C76.5689 75.5537 72.0014 79.4107 66.6252 81.721C87.1965 85.4236 98.0996 102.575 93.6509 119.701C89.3826 136.029 76.4996 144.412 66.4965 145.184Z" fill="#EB1118"/>
</g>
</svg>
