<svg width="94" height="22" viewBox="0 0 94 22" fill="none" xmlns="http://www.w3.org/2000/svg">
<g clip-path="url(#clip0_3303_26739)">
<path d="M70.5418 15.834C67.8077 15.834 65.9628 13.8112 65.9628 10.8708C65.9628 7.93038 67.8077 5.90769 70.5418 5.90769C73.2763 5.90769 75.1212 7.93038 75.1212 10.8708C75.1212 13.8112 73.2669 15.834 70.5418 15.834ZM70.5418 3.02344C66.1689 3.02344 62.6289 6.53508 62.6289 10.8708C62.6289 15.2065 66.1689 18.7182 70.5418 18.7182C74.915 18.7182 78.4923 15.2065 78.4923 10.8708C78.4923 6.53508 74.9059 3.02344 70.5418 3.02344Z" fill="#191919"/>
<path d="M44.191 3.33984H40.8574V17.4614C40.8574 17.9671 41.2695 18.3885 41.7843 18.3885H50.2872V15.6447H44.191V3.33984Z" fill="#191919"/>
<path d="M55.7086 3.33984H52.375V17.4614C52.375 17.9671 52.787 18.3885 53.3022 18.3885H62.657V15.6447H55.7086V3.33984Z" fill="#191919"/>
<path d="M28.0095 13.416L30.5754 7.60064L33.1506 13.416H28.0095ZM31.5213 3.33984H29.6389C29.2737 3.33984 28.946 3.55523 28.7962 3.88298L22.2598 18.3885H25.8089L26.839 16.0661H34.3212L35.3511 18.3885H38.9003L32.3638 3.88298C32.2141 3.55523 31.8863 3.33984 31.5213 3.33984Z" fill="#191919"/>
<path d="M90.1232 3.33984L85.9747 10.1665L81.8265 3.33984H77.959L84.0458 12.8822C84.2329 13.1818 84.336 13.5189 84.336 13.8748V18.3885H87.6228V13.8748C87.6228 13.5189 87.7259 13.1818 87.9133 12.8822L94.0001 3.33984H90.1232Z" fill="#191919"/>
<path d="M1.62941 1.35584C2.12572 1.06555 2.72504 1.06555 3.23072 1.35584L3.98923 1.79597C3.53976 2.03008 3.22135 2.44212 3.09962 2.94779L0.908347 12.4995L0.833432 12.6306V2.73241C0.82407 2.16118 1.12373 1.64614 1.62941 1.35584ZM0.861526 14.4754C0.842798 14.4379 0.795976 14.3349 0.861526 14.2225L2.71568 11.0106L6.79855 3.93105L6.89221 3.77188C6.95776 3.65948 7.07015 3.64075 7.11696 3.64075C7.16377 3.64075 7.27616 3.65012 7.34171 3.77188L8.16578 5.19526L13.2881 14.0633L13.3817 14.2225C13.4099 14.2694 13.4192 14.3068 13.4192 14.3536C13.4192 14.4098 13.4005 14.4567 13.3817 14.4847C13.363 14.5222 13.2975 14.6158 13.157 14.6158H11.5089H1.27356H1.08627C0.955172 14.6065 0.889619 14.5128 0.861526 14.4754ZM14.0935 13.8105L10.2259 7.11496L15.4232 11.947C15.6667 12.1717 15.7697 12.5089 15.6948 12.8366C15.6199 13.1644 15.3857 13.4172 15.0674 13.5202L14.0935 13.8105ZM16.5469 12.6868C16.5657 12.1811 16.369 11.6942 15.9944 11.3383L8.82127 4.67083L8.74636 4.53039L17.3054 9.48416C17.8018 9.77447 18.1014 10.2895 18.1014 10.8701C18.1014 11.4507 17.8018 11.9657 17.3054 12.256L16.5469 12.6868ZM6.1805 3.35048L2.31301 10.0554L3.89561 3.13509C3.9705 2.80733 4.20462 2.55449 4.523 2.46084C4.84141 2.35784 5.17852 2.44212 5.42198 2.66686L6.1805 3.35048ZM1.07691 15.4306C1.08627 15.4306 1.08627 15.4306 1.07691 15.4306H8.81191L2.02271 17.5188C1.70432 17.6218 1.36721 17.5375 1.11437 17.3128C0.870891 17.0881 0.767883 16.7509 0.842798 16.4232L1.07691 15.4306ZM0.82407 18.1182C1.25483 18.3897 1.76988 18.4646 2.26619 18.3054L11.6306 15.4306H11.7898L3.22135 20.375C2.72504 20.6653 2.12572 20.6653 1.62004 20.375C1.12373 20.0847 0.82407 19.5696 0.82407 18.989V18.1182ZM3.64275 0.634784C2.88424 0.194655 1.97589 0.194655 1.21738 0.634784C0.449492 1.07491 0 1.86152 0 2.73241V14.3349V14.3443V14.3536V18.989C0 19.8693 0.449492 20.6465 1.21738 21.0867C1.97589 21.5268 2.88424 21.5268 3.64275 21.0867L13.6814 15.2901C13.6908 15.2807 13.7002 15.2807 13.7095 15.2714L17.7175 12.9583C18.476 12.5182 18.9255 11.7316 18.9255 10.8607C18.9255 9.98048 18.476 9.19386 17.7175 8.76309L7.66946 2.95716C7.66009 2.95716 7.66009 2.94779 7.65072 2.94779L3.64275 0.634784Z" fill="#191919"/>
</g>
<defs>
<clipPath id="clip0_3303_26739">
<rect width="94" height="21.62" fill="white"/>
</clipPath>
</defs>
</svg>
