<svg width="73" height="24" viewBox="0 0 73 24" fill="none" xmlns="http://www.w3.org/2000/svg">
<g clip-path="url(#clip0_3303_26614)">
<path d="M36.6227 18.2319V18.9394H29.6123V18.2324C30.7283 18.2324 30.8714 17.942 30.8714 16.5188V2.37883C30.8714 0.955654 30.5279 0.781358 29.3262 0.781358V0.0605469H35.3637V8.33821C35.9646 7.08926 37.4525 5.84038 39.2265 5.84038C41.8876 5.84038 43.2897 7.72825 43.2897 10.0518V16.5183C43.2897 17.9415 43.4327 18.2319 44.5487 18.2319V18.9394H37.5383V18.2319C38.6543 18.2319 38.7973 17.9415 38.7973 16.5183V10.6037C38.7973 8.6577 37.9961 7.90254 36.9374 7.90254C36.3079 7.90254 35.7357 8.28008 35.3637 9.06434V16.5183C35.3637 17.9415 35.5067 18.2319 36.6227 18.2319Z" fill="#473BCE"/>
<path fill-rule="evenodd" clip-rule="evenodd" d="M51.7688 18.9242L45.8752 18.9368V2.38109C45.8752 0.957987 45.5318 0.783692 44.3301 0.783692V0.0605469H50.3676V7.96059C50.9398 7.08926 52.2274 5.84038 54.0587 5.84038C57.0917 5.84038 59.1806 8.25106 59.1806 11.7654C59.1806 16.2382 56.7296 18.9242 51.7688 18.9242ZM51.5979 18.2275C53.0286 18.2275 54.5738 17.2477 54.5738 12.6367C54.5738 9.61618 53.6868 7.67019 51.9699 7.67019C51.3961 7.67019 50.6456 8.08931 50.3676 9.00965V18.2291L51.5979 18.2275Z" fill="#473BCE"/>
<path d="M25.8946 16.7005C25.8946 17.7751 25.122 18.385 23.9488 18.385C21.9746 18.385 20.7432 16.7876 20.4284 14.4641H19.7022V18.9395H20.4291C20.4291 18.5525 20.6239 18.3531 20.9386 18.3531C21.0637 18.3531 21.2255 18.4382 21.4481 18.5553C21.9388 18.8136 22.7249 19.2273 24.0633 19.2273C26.8961 19.2273 29.128 17.5137 29.128 14.7836C29.128 13.0118 28.0979 11.7919 26.4955 10.8916L24.4353 9.78791C23.6342 9.35225 23.0046 8.9456 23.0046 8.13239C23.0046 7.29009 23.6342 6.68013 24.607 6.68013C26.381 6.68013 27.4539 8.01112 27.5974 9.9186H28.2981V6.04114H27.5889C27.5889 6.39199 27.36 6.53763 27.0167 6.53763C26.8572 6.53763 26.6692 6.45274 26.4242 6.34204C25.9658 6.13507 25.3078 5.83789 24.2636 5.83789C21.8029 5.83789 19.5996 7.43528 19.5996 9.96213C19.5996 11.6177 20.4294 12.7795 21.8315 13.5056L24.0347 14.6673C25.1507 15.2773 25.8946 15.6839 25.8946 16.7005Z" fill="#473BCE"/>
<path fill-rule="evenodd" clip-rule="evenodd" d="M5.54989 18.2706V18.9386H0.0273438V18.2706C1.45803 18.2706 2.03029 17.9511 2.5453 16.5569L7.92469 1.30859H10.4713L16.3944 16.5569C16.9666 17.9801 17.2527 18.2706 18.4831 18.2706V18.9386H9.80103V18.2706C11.8606 18.2706 12.0344 18.0823 11.4156 16.5569L9.84187 12.3745H5.0634L3.6613 16.4698C3.25189 17.8552 3.34144 18.2706 5.54989 18.2706ZM7.32392 5.7524L5.37815 11.4742H9.49853L7.32392 5.7524Z" fill="#473BCE"/>
<path d="M65.4843 18.2461L60.7344 8.32901C60.1335 7.05111 59.9618 6.8187 59.0176 6.8187V6.10547H66.4572V6.8187C64.9316 6.8187 65.1336 7.2847 65.5481 8.24099L65.5505 8.24668C65.5664 8.28307 65.5825 8.32019 65.5987 8.35804L67.8306 13.4537L69.8622 8.75688C70.4857 7.25385 70.6413 6.81089 68.4601 6.81089V6.10554H72.9522V6.81089C71.7294 6.81089 71.6949 6.89024 71.1276 8.19271C71.0581 8.35206 70.9808 8.52971 70.8923 8.72778L66.8577 17.549C65.5351 20.4031 65.2042 21.142 64.2386 22.819C63.8898 23.4019 63.2557 23.9152 62.3843 23.9152C61.2238 23.9152 60.2832 22.9604 60.2832 21.7825C60.2832 20.6047 61.2238 19.6498 62.3843 19.6498C63.1261 19.6498 63.7781 20.0401 64.152 20.6293L65.4843 18.2461Z" fill="#473BCE"/>
</g>
<defs>
<clipPath id="clip0_3303_26614">
<rect width="73" height="23.9201" fill="white"/>
</clipPath>
</defs>
</svg>
