<svg width="382" height="114" viewBox="0 0 382 114" fill="none" xmlns="http://www.w3.org/2000/svg">
<g clip-path="url(#clip0_316_1809)">
<path d="M79.4743 0.492188V80.0391H26.6128C23.1118 80.0391 19.6453 79.3484 16.4117 78.0064C13.1782 76.6645 10.2412 74.6977 7.769 72.2188C5.29683 69.7398 3.33807 66.7975 2.00495 63.5603C0.671821 60.3231 -0.00947251 56.8547 9.94785e-05 53.3537V0.492188H79.4743Z" fill="#FFDD00"/>
<path d="M66.2497 40.1638V13.7148H39.728V25.666H54.2804V40.1638H66.2497Z" fill="#1B2D54"/>
<path d="M221.505 113.199H222.852V110.961H221.505V113.199ZM216.667 111.38C215.906 111.982 214.963 112.309 213.993 112.307C212.538 112.307 211.701 111.58 211.701 110.488C211.701 109.397 212.465 108.56 214.593 108.56H216.667V111.38ZM212.137 105.922V104.667C212.844 104.526 213.563 104.453 214.284 104.449C216.103 104.449 216.667 105.14 216.667 106.541V107.632H214.429C212.392 107.632 210.355 108.269 210.355 110.579C210.369 110.974 210.466 111.362 210.638 111.718C210.811 112.074 211.055 112.39 211.356 112.647C211.657 112.903 212.008 113.094 212.387 113.208C212.765 113.322 213.164 113.356 213.556 113.308C214.687 113.316 215.781 112.908 216.63 112.162V113.108H219.286V111.98H217.976V106.523C217.976 104.067 216.758 103.376 214.538 103.376C213.316 103.387 212.098 103.514 210.9 103.758V105.977L212.137 105.922ZM200.623 103.685V106.104H201.732V104.74H206.462L200.477 112.198V113.253H208.336V110.779H207.208V112.144H202.169L208.117 104.685V103.685H200.623ZM194.947 113.29H198.858V112.162H197.549V106.705C197.549 104.667 196.584 103.558 194.656 103.558C193.975 103.565 193.302 103.708 192.677 103.98C192.052 104.252 191.488 104.646 191.018 105.14V103.685H188.344V104.813H189.672V112.089H188.344V113.217H192.255V112.089H191V105.831C191.842 105.077 192.91 104.623 194.038 104.54C195.62 104.54 196.148 105.522 196.148 106.85V112.071H194.893L194.947 113.29ZM184.288 111.471C183.525 112.071 182.584 112.397 181.614 112.398C180.158 112.398 179.322 111.671 179.322 110.579C179.322 109.488 180.068 108.651 182.214 108.651H184.288V111.471ZM179.74 106.013V104.758C180.453 104.617 181.178 104.544 181.905 104.54C183.724 104.54 184.288 105.231 184.288 106.632V107.723H182.05C180.013 107.723 177.976 108.36 177.976 110.67C177.99 111.065 178.087 111.453 178.259 111.809C178.432 112.165 178.676 112.481 178.977 112.738C179.278 112.994 179.629 113.185 180.008 113.299C180.386 113.413 180.785 113.447 181.177 113.399C182.308 113.407 183.402 112.999 184.251 112.253V113.199H186.907V112.071H185.597V106.614C185.597 104.158 184.379 103.467 182.159 103.467C180.937 103.477 179.719 103.605 178.521 103.849V106.068L179.74 106.013ZM173.428 102.048H174.774V99.7559H173.428V102.048ZM172.1 104.722H173.428V111.998H172.1V113.126H176.102V111.998H174.774V103.685H172.1V104.722ZM165.206 113.199H169.426V112.071H167.862V104.576H170.336V103.685H167.862V102.521C167.862 101.338 168.262 100.938 169.481 100.938C169.828 100.938 170.175 100.968 170.518 101.029L170.663 99.9741C170.175 99.8979 169.683 99.8554 169.19 99.8468C167.225 99.8468 166.516 100.574 166.516 102.375V103.685H165.006V104.576H166.516V112.071H165.206V113.199ZM159.749 113.199H163.66V112.071H162.259V106.614C162.259 104.576 161.295 103.467 159.367 103.467C158.685 103.474 158.012 103.617 157.387 103.889C156.762 104.161 156.198 104.556 155.729 105.049V103.685H153.091V104.813H154.419V112.089H153.091V113.217H157.02V112.089H155.765V105.831C156.609 105.08 157.676 104.627 158.803 104.54C160.385 104.54 160.913 105.522 160.913 106.85V112.071H159.658L159.749 113.199ZM146.906 113.399C150.035 113.399 151.199 111.361 151.199 108.396C151.199 105.431 150.035 103.412 146.906 103.412C143.778 103.412 142.504 105.504 142.504 108.396C142.504 111.289 143.668 113.399 146.815 113.399M146.815 104.54C149.035 104.54 149.689 106.359 149.689 108.396C149.689 110.434 149.035 112.271 146.815 112.271C144.596 112.271 143.923 110.543 143.923 108.396C143.923 106.25 144.578 104.54 146.815 104.54ZM140.267 106.013V103.831C139.224 103.546 138.146 103.405 137.065 103.412C133.664 103.412 132.463 105.449 132.463 108.396C132.463 111.343 133.664 113.399 137.065 113.399C138.146 113.405 139.224 113.265 140.267 112.98L140.03 111.889C139.065 112.156 138.067 112.285 137.065 112.271C134.773 112.271 133.9 110.616 133.9 108.396C133.9 106.177 134.773 104.54 137.065 104.54C137.769 104.529 138.471 104.602 139.157 104.758V106.013H140.267ZM122.531 113.199H126.442V112.071H125.132V106.614C125.132 104.576 124.168 103.467 122.24 103.467C121.559 103.474 120.885 103.617 120.261 103.889C119.636 104.161 119.072 104.556 118.602 105.049V103.685H115.964V104.813H117.292V112.089H115.964V113.217H119.875V112.089H118.638V105.831C119.482 105.08 120.55 104.627 121.676 104.54C123.259 104.54 123.786 105.522 123.786 106.85V112.071H122.531V113.199ZM104.341 100.138V101.266H105.668V112.071H104.341V113.199H113.891V110.634H112.781V112.071H107.178V106.977H113.017V105.868H107.178V101.266H112.781V102.721H113.909V100.138H104.341Z" fill="#1B2D54"/>
<path d="M121.567 33.8705C124.573 34.019 127.532 33.0758 129.898 31.2147C130.935 30.3539 131.762 29.2669 132.314 28.0372C132.865 26.8074 133.128 25.4675 133.081 24.1204C133.079 22.5974 132.688 21.1001 131.947 19.7698C131.205 18.4395 130.137 17.32 128.843 16.5168C129.918 15.7481 130.791 14.7317 131.39 13.5538C131.988 12.3759 132.294 11.0711 132.281 9.74992C132.281 3.80163 127.752 0.527344 120.767 0.527344H105.778V33.8705H121.567ZM112.872 19.8456H120.148C124.004 19.8456 125.951 21.0826 125.951 23.4837C125.951 26.2851 123.895 27.3401 119.948 27.3401H112.872V19.8456ZM119.329 7.1123C123.477 7.1123 125.132 8.02182 125.132 10.5321C125.132 13.0424 123.313 13.9701 119.675 13.9701H112.872V7.03953L119.329 7.1123Z" fill="#1B2D54"/>
<path d="M148.161 21.028L152.309 10.1137L156.438 21.028H148.161ZM156.565 2.83753C156.301 2.16294 155.841 1.58267 155.245 1.17108C154.649 0.75949 153.943 0.535337 153.218 0.527344H148.925L135.883 33.8705H143.159L145.833 27.2855H158.73L161.386 33.8523H168.662L156.565 2.83753Z" fill="#1B2D54"/>
<path d="M202.951 33.871V0.52784H195.911V23.1204L183.487 2.27413C183.173 1.72954 182.723 1.27571 182.181 0.956903C181.639 0.638098 181.024 0.465202 180.395 0.455078H173.919V33.871H181.013V11.3694L193.438 32.1247C193.752 32.6693 194.202 33.1231 194.744 33.4419C195.286 33.7607 195.901 33.9336 196.53 33.9437L202.951 33.871Z" fill="#1B2D54"/>
<path d="M235.93 23.1194C234.923 24.5928 233.563 25.7907 231.975 26.6041C230.386 27.4175 228.619 27.8204 226.835 27.7762C225.494 27.8132 224.16 27.5811 222.91 27.0937C221.66 26.6063 220.521 25.8735 219.559 24.9385C218.56 23.9088 217.782 22.6849 217.276 21.3425C216.769 20.0001 216.543 18.568 216.612 17.1347C216.541 15.7232 216.766 14.3124 217.274 12.9934C217.782 11.6743 218.56 10.4763 219.559 9.47655C220.461 8.56628 221.535 7.84489 222.719 7.35453C223.902 6.86417 225.172 6.61468 226.453 6.62065C228.902 6.60384 231.285 7.41111 233.22 8.91265C233.912 9.42538 234.767 9.6677 235.624 9.594C236.482 9.52029 237.283 9.13565 237.877 8.51246L240.114 6.27503C238.552 4.26093 236.538 2.64318 234.234 1.55285C231.93 0.462526 229.401 -0.0696948 226.853 -0.000684707C224.561 -0.0750644 222.277 0.308083 220.134 1.12638C217.992 1.94467 216.034 3.1817 214.375 4.76522C212.706 6.3763 211.399 8.32356 210.54 10.478C209.68 12.6324 209.289 14.9449 209.391 17.2621C209.299 19.5672 209.696 21.8657 210.555 24.0068C211.414 26.148 212.715 28.0834 214.375 29.6862C217.838 32.8645 222.41 34.5563 227.108 34.3975C229.699 34.4779 232.274 33.9524 234.627 32.863C236.979 31.7735 239.045 30.1501 240.66 28.1218L235.93 23.1194Z" fill="#1B2D54"/>
<path d="M268.655 24.6836C267.764 25.7007 266.656 26.5037 265.412 27.0328C264.168 27.5619 262.82 27.8035 261.47 27.7396C260.107 27.7991 258.747 27.5558 257.489 27.0275C256.231 26.4991 255.106 25.6986 254.194 24.6836C252.374 22.6118 251.405 19.9277 251.483 17.171C251.419 14.4329 252.386 11.7708 254.194 9.71287C255.111 8.70481 256.238 7.9091 257.494 7.38128C258.751 6.85346 260.108 6.60624 261.47 6.65687C262.807 6.61891 264.136 6.87636 265.362 7.41088C266.589 7.94539 267.682 8.74382 268.564 9.74925C270.413 11.7736 271.416 14.4298 271.365 17.171C271.444 19.9277 270.475 22.6118 268.655 24.6836ZM273.548 4.89239C271.938 3.29017 270.02 2.0306 267.91 1.18963C265.799 0.348663 263.541 -0.0562995 261.27 -0.000844585C259.006 -0.0430464 256.756 0.372692 254.657 1.22141C252.558 2.07013 250.651 3.33433 249.053 4.93812C247.454 6.5419 246.196 8.45219 245.354 10.5543C244.512 12.6564 244.103 14.907 244.153 17.171C244.088 19.4415 244.486 21.7015 245.321 23.8135C246.157 25.9255 247.414 27.8455 249.015 29.4568C250.616 31.068 252.528 32.3369 254.635 33.1862C256.742 34.0355 258.999 34.4476 261.27 34.3973C263.537 34.4513 265.793 34.0492 267.902 33.2149C270.011 32.3806 271.931 31.1311 273.548 29.5405C275.193 27.9373 276.487 26.01 277.348 23.8808C278.209 21.7516 278.619 19.4667 278.551 17.171C278.619 14.8886 278.21 12.6172 277.348 10.5026C276.487 8.38803 275.192 6.47703 273.548 4.89239Z" fill="#1B2D54"/>
<path d="M361.445 66.8692L365.574 55.9549L369.721 66.8692H361.445ZM369.849 48.6787C369.581 48.0075 369.12 47.4311 368.524 47.0229C367.928 46.6147 367.224 46.3933 366.502 46.3867H362.191L349.148 79.7481H356.424L359.044 73.1813H371.941L374.724 79.7117H382L369.849 48.6787Z" fill="#1B2D54"/>
<path d="M178.358 68.9601C177.347 70.4299 175.986 71.6252 174.399 72.4381C172.811 73.2511 171.046 73.6562 169.262 73.6169C167.92 73.6546 166.583 73.4211 165.333 72.9304C164.083 72.4397 162.945 71.7018 161.986 70.761C160.984 69.7332 160.205 68.5096 159.698 67.1668C159.191 65.8239 158.967 64.3908 159.039 62.9573C158.968 61.5457 159.194 60.1349 159.701 58.8159C160.209 57.4968 160.987 56.2988 161.986 55.2991C162.888 54.3888 163.962 53.6674 165.146 53.177C166.329 52.6867 167.599 52.4372 168.88 52.4432C171.304 52.4229 173.666 53.2101 175.593 54.6806C176.292 55.198 177.154 55.4476 178.021 55.3842C178.889 55.3208 179.705 54.9486 180.322 54.335L182.505 52.0975C180.94 50.082 178.922 48.4635 176.615 47.3732C174.308 46.2829 171.777 45.7514 169.226 45.8218C166.933 45.7464 164.649 46.1291 162.506 46.9474C160.364 47.7658 158.406 49.0034 156.747 50.5877C155.073 52.1993 153.761 54.1488 152.898 56.3066C152.036 58.4644 151.643 60.7812 151.745 63.1028C151.656 65.4093 152.055 67.7086 152.917 69.8498C153.78 71.991 155.085 73.9256 156.747 75.5269C160.21 78.7052 164.783 80.397 169.481 80.2382C172.075 80.32 174.652 79.7953 177.008 78.7058C179.364 77.6164 181.433 75.9922 183.051 73.9625L178.358 68.9601Z" fill="#1B2D54"/>
<path d="M145.342 46.3496H138.302V79.7109H145.342V46.3496Z" fill="#1B2D54"/>
<path d="M233.42 46.3496H226.38V79.7109H233.42V46.3496Z" fill="#1B2D54"/>
<path d="M217.703 79.7109V46.3496H214.247C213.282 46.3496 212.357 46.7329 211.675 47.4152C210.992 48.0975 210.609 49.0228 210.609 49.9877V59.4649H196.621V46.3496H189.526V79.7109H196.621V65.9044H210.609V79.7109H217.703Z" fill="#1B2D54"/>
<path d="M118.056 62.6292H112.872V52.8609H118.056C122.968 52.8609 125.332 54.298 125.332 57.6814C125.332 61.0649 122.895 62.6292 118.056 62.6292ZM128.77 49.3866C126.087 47.2525 122.717 46.1722 119.293 46.3488H105.778V79.7101H112.872V69.1232H119.293C122.722 69.2838 126.086 68.1473 128.716 65.9399C129.912 64.8963 130.86 63.5983 131.489 62.141C132.119 60.6837 132.414 59.104 132.354 57.5177C132.415 55.971 132.119 54.431 131.488 53.0175C130.857 51.604 129.908 50.3553 128.716 49.3684" fill="#1B2D54"/>
<path d="M271.147 79.7114V46.3501H264.108V68.9609L251.683 48.0964C251.369 47.5518 250.919 47.098 250.377 46.7792C249.835 46.4604 249.22 46.2875 248.591 46.2773H242.115V79.7114H249.21V57.2098L261.634 77.9652C261.948 78.5097 262.398 78.9636 262.94 79.2824C263.482 79.6012 264.097 79.7741 264.726 79.7842L271.147 79.7114Z" fill="#1B2D54"/>
<path d="M304.145 68.9601C303.138 70.4335 301.778 71.6314 300.189 72.4448C298.601 73.2582 296.834 73.6611 295.049 73.6169C293.707 73.6546 292.371 73.4211 291.12 72.9304C289.87 72.4397 288.732 71.7018 287.773 70.761C286.771 69.7332 285.992 68.5096 285.485 67.1668C284.978 65.8239 284.754 64.3908 284.826 62.9573C284.755 61.5457 284.981 60.1349 285.488 58.8159C285.996 57.4968 286.774 56.2988 287.773 55.2991C288.677 54.3866 289.754 53.6639 290.941 53.1735C292.128 52.6831 293.401 52.4348 294.686 52.4432C297.135 52.4263 299.518 53.2336 301.453 54.7352C302.145 55.253 303.004 55.4983 303.866 55.4245C304.728 55.3508 305.533 54.963 306.127 54.335L308.31 52.1157C306.748 50.0958 304.732 48.473 302.424 47.3793C300.117 46.2857 297.584 45.7521 295.031 45.8218C292.739 45.7464 290.454 46.1291 288.312 46.9474C286.169 47.7658 284.211 49.0034 282.553 50.5877C280.878 52.1993 279.566 54.1488 278.704 56.3066C277.841 58.4644 277.448 60.7812 277.55 63.1028C277.461 65.4093 277.861 67.7086 278.723 69.8498C279.585 71.991 280.89 73.9256 282.553 75.5269C286.016 78.7052 290.588 80.397 295.286 80.2382C297.88 80.32 300.458 79.7953 302.813 78.7058C305.169 77.6164 307.238 75.9922 308.856 73.9625L304.145 68.9601Z" fill="#1B2D54"/>
<path d="M343.491 79.7109V46.3496H340.053C339.088 46.3496 338.162 46.7329 337.48 47.4152C336.798 48.0975 336.415 49.0228 336.415 49.9877V59.4649H322.426V46.3496H315.332V79.7109H322.426V65.9044H336.524V79.7109H343.491Z" fill="#1B2D54"/>
</g>
<defs>
<clipPath id="clip0_316_1809">
<rect width="382" height="113.399" fill="white"/>
</clipPath>
</defs>
</svg>
