<svg width="414" height="120" viewBox="0 0 414 120" fill="none" xmlns="http://www.w3.org/2000/svg">
<g clip-path="url(#clip0_316_1861)">
<path fill-rule="evenodd" clip-rule="evenodd" d="M342.068 85.0464L365.023 84.7641C386.472 84.2938 402.936 64.8196 402.936 42.5232C402.936 20.1327 386.661 0.470389 365.023 0L293.241 0L342.068 85.0464Z" fill="#D6001C"/>
<path fill-rule="evenodd" clip-rule="evenodd" d="M342.067 33.9629L375.37 34.2451C396.82 34.7155 413.284 54.1896 413.284 76.4861C413.284 98.8766 397.008 118.539 375.37 119.009L293.334 119.103L342.067 33.9629Z" fill="url(#paint0_linear_316_1861)"/>
<path d="M11.8538 117.784V119.383H0V101.979H11.4775V103.578H1.78748V109.787H10.4426V111.386H1.78748V117.878H11.8538V117.784Z" fill="#D6001C"/>
<path d="M33.3996 101.979V119.383H31.9884L21.2636 105.271V119.383H19.4761V101.979H20.9813L31.8003 116.09V101.979H33.3996Z" fill="#D6001C"/>
<path d="M45.6286 103.578H39.7017V101.979H53.2489V103.578H47.322V119.383H45.5345V103.578H45.6286Z" fill="#D6001C"/>
<path d="M71.3118 117.784V119.383H59.458V101.979H70.9355V103.578H61.2455V109.787H69.9007V111.386H61.2455V117.878H71.3118V117.784Z" fill="#D6001C"/>
<path d="M90.4086 119.381L86.5515 113.83C86.0811 113.924 85.7048 113.924 85.2344 113.924H80.7186V119.475H78.9312V102.07H85.2344C87.3982 102.07 89.0916 102.635 90.2205 103.67C91.4435 104.704 92.008 106.21 92.008 107.997C92.008 109.314 91.6317 110.537 90.9731 111.478C90.3146 112.419 89.3738 113.077 88.1508 113.454L92.2902 119.381H90.4086ZM88.9975 111.196C89.8442 110.443 90.3146 109.408 90.3146 107.997C90.3146 106.586 89.8442 105.551 88.9975 104.799C88.1508 104.046 86.8337 103.67 85.2344 103.67H80.8127V112.419H85.2344C86.8337 112.325 88.0567 111.948 88.9975 111.196Z" fill="#D6001C"/>
<path d="M111.013 103.582C112.236 104.617 112.8 106.122 112.8 107.91C112.8 109.791 112.236 111.202 111.013 112.237C109.79 113.272 108.097 113.837 106.027 113.837H101.511V119.293H99.7236V101.889H106.027C108.097 101.983 109.79 102.547 111.013 103.582ZM109.696 111.202C110.543 110.45 111.013 109.415 111.013 108.004C111.013 106.593 110.543 105.558 109.696 104.805C108.849 104.052 107.532 103.676 105.933 103.676H101.511V112.331H105.933C107.532 112.331 108.849 111.955 109.696 111.202Z" fill="#D6001C"/>
<path d="M131.52 119.381L127.663 113.83C127.192 113.924 126.816 113.924 126.346 113.924H121.83V119.475H120.042V102.07H126.346C128.509 102.07 130.203 102.635 131.332 103.67C132.555 104.704 133.119 106.21 133.119 107.997C133.119 109.314 132.743 110.537 132.084 111.478C131.426 112.419 130.485 113.077 129.262 113.454L133.402 119.381H131.52ZM130.109 111.196C130.956 110.443 131.426 109.408 131.426 107.997C131.426 106.586 130.956 105.551 130.109 104.799C129.262 104.046 127.945 103.67 126.346 103.67H121.924V112.419H126.346C127.945 112.325 129.168 111.948 130.109 111.196Z" fill="#D6001C"/>
<path d="M140.739 101.979H142.527V119.383H140.739V101.979Z" fill="#D6001C"/>
<path d="M152.5 118.917C151.371 118.54 150.431 117.976 149.866 117.317L150.525 115.906C151.089 116.565 151.936 117.035 152.971 117.412C154.006 117.788 155.04 117.976 156.075 117.976C157.581 117.976 158.71 117.694 159.462 117.129C160.215 116.565 160.591 115.812 160.591 114.871C160.591 114.213 160.403 113.648 160.027 113.178C159.65 112.802 159.086 112.425 158.521 112.237C157.957 112.049 157.11 111.767 156.075 111.485C154.852 111.202 153.817 110.826 153.065 110.544C152.312 110.262 151.654 109.791 151.183 109.133C150.619 108.474 150.337 107.627 150.337 106.593C150.337 105.746 150.525 104.899 150.995 104.241C151.466 103.488 152.124 102.924 153.065 102.547C154.006 102.077 155.135 101.889 156.546 101.889C157.487 101.889 158.427 101.983 159.368 102.265C160.309 102.547 161.061 102.924 161.72 103.394L161.156 104.899C160.497 104.429 159.744 104.052 158.898 103.864C158.145 103.582 157.298 103.488 156.546 103.488C155.04 103.488 154.006 103.77 153.253 104.335C152.5 104.899 152.124 105.652 152.124 106.593C152.124 107.251 152.312 107.816 152.689 108.286C153.065 108.662 153.629 109.039 154.194 109.227C154.852 109.415 155.605 109.697 156.64 109.979C157.863 110.262 158.898 110.638 159.65 110.92C160.403 111.202 161.061 111.673 161.532 112.331C162.096 112.99 162.284 113.837 162.284 114.871C162.284 115.718 162.096 116.565 161.626 117.223C161.156 117.976 160.497 118.54 159.556 118.917C158.615 119.387 157.487 119.575 156.075 119.575C154.852 119.575 153.629 119.293 152.5 118.917Z" fill="#D6001C"/>
<path d="M181.476 117.784V119.383H169.622V101.979H181.1V103.578H171.41V109.787H180.065V111.386H171.41V117.878H181.476V117.784Z" fill="#D6001C"/>
<path d="M190.037 118.917C188.908 118.54 188.061 117.976 187.403 117.317L188.061 115.906C188.626 116.565 189.473 117.035 190.507 117.412C191.542 117.788 192.577 117.976 193.612 117.976C195.117 117.976 196.246 117.694 196.999 117.129C197.751 116.565 198.128 115.812 198.128 114.871C198.128 114.213 197.94 113.648 197.563 113.178C197.187 112.802 196.622 112.425 196.058 112.237C195.494 112.049 194.647 111.767 193.612 111.485C192.389 111.202 191.354 110.826 190.601 110.544C189.849 110.262 189.19 109.791 188.72 109.133C188.155 108.474 187.873 107.627 187.873 106.593C187.873 105.746 188.061 104.899 188.532 104.241C189.002 103.488 189.661 102.924 190.601 102.547C191.542 102.077 192.671 101.889 194.082 101.889C195.023 101.889 195.964 101.983 196.905 102.265C197.845 102.547 198.598 102.924 199.257 103.394L198.692 104.899C198.034 104.429 197.281 104.052 196.434 103.864C195.682 103.582 194.835 103.488 194.082 103.488C192.577 103.488 191.542 103.77 190.79 104.335C190.037 104.899 189.661 105.652 189.661 106.593C189.661 107.251 189.849 107.816 190.225 108.286C190.601 108.662 191.166 109.039 191.73 109.227C192.389 109.415 193.142 109.697 194.176 109.979C195.399 110.262 196.434 110.638 197.187 110.92C197.94 111.202 198.598 111.673 199.068 112.331C199.633 112.99 199.821 113.837 199.821 114.871C199.821 115.718 199.633 116.565 199.163 117.223C198.692 117.976 198.034 118.54 197.093 118.917C196.152 119.387 195.023 119.575 193.612 119.575C192.389 119.575 191.26 119.293 190.037 118.917Z" fill="#D6001C"/>
<path d="M16.2738 70.6494C15.0508 70.6494 13.7337 70.6494 12.3226 70.5553C10.9114 70.4612 9.50023 70.3671 8.08906 70.273C6.6779 70.179 5.26673 69.9908 3.94964 69.8026C2.53847 69.6145 1.31546 69.4263 0.186523 69.05V9.21651C1.31546 8.93428 2.63255 8.65204 3.94964 8.46389C5.3608 8.27573 6.6779 8.18165 8.08906 7.9935C9.50023 7.89942 10.9114 7.80534 12.2285 7.71126C13.6397 7.61719 14.8627 7.61719 16.0857 7.61719C19.5666 7.61719 22.7652 7.89942 25.7757 8.46389C28.7862 9.02835 31.4204 9.87506 33.5842 11.1921C35.748 12.5092 37.5354 14.1086 38.7584 16.2723C39.9815 18.3421 40.64 20.8822 40.64 23.8927C40.64 27.2795 39.8874 30.1018 38.2881 32.2656C36.7828 34.4294 34.7131 36.0287 32.0789 37.1576C35.5598 38.1925 38.3821 39.8859 40.4518 42.2378C42.5216 44.5898 43.5564 47.7884 43.5564 52.0219C43.5564 58.2311 41.3926 62.8409 36.971 65.9455C32.7375 69.05 25.7757 70.6494 16.2738 70.6494ZM8.46537 34.3353H17.2146C19.2843 34.3353 21.26 34.1471 23.0474 33.8649C24.929 33.5827 26.4342 33.0182 27.8454 32.2656C29.1625 31.513 30.2914 30.4781 31.0441 29.2551C31.7967 28.0321 32.173 26.4328 32.173 24.5512C32.173 22.7637 31.7967 21.2585 30.95 20.0355C30.1033 18.8125 29.0684 17.8717 27.6573 17.1191C26.2461 16.3664 24.6468 15.802 22.6711 15.4256C20.6955 15.0493 18.8139 14.8612 16.6501 14.8612C14.4864 14.8612 12.887 14.8612 11.664 14.9553C10.5351 15.0493 9.40615 15.1434 8.46537 15.2375V34.3353ZM8.46537 41.2971V63.029C9.12392 63.1231 9.87654 63.1231 10.7232 63.2172C11.4759 63.3113 12.3226 63.3113 13.3574 63.3113C14.3923 63.3113 15.5212 63.3113 16.8383 63.3113C19.2843 63.3113 21.6363 63.1231 23.8001 62.8409C25.9639 62.5587 27.9395 61.9001 29.6329 61.1475C31.3263 60.3008 32.6434 59.1718 33.5842 57.6666C34.619 56.1614 35.0894 54.2798 35.0894 52.0219C35.0894 50.0463 34.7131 48.2588 33.9605 46.9417C33.2078 45.5306 32.173 44.4016 30.7618 43.5549C29.3507 42.7082 27.6573 42.1438 25.7757 41.7675C23.8001 41.3911 21.6363 41.203 19.2843 41.203L8.46537 41.2971Z" fill="#D6001C"/>
<path d="M48.7326 78.7465C49.3912 79.0287 50.1438 79.3109 51.1786 79.5932C52.2135 79.8754 53.1543 79.9695 54.1891 79.9695C57.3878 79.9695 59.8338 79.2169 61.6213 77.8057C63.4088 76.3005 65.0081 73.9485 66.4193 70.7499C62.8443 63.5999 59.4575 56.0737 56.3529 48.0771C53.2484 40.0805 50.6142 31.9898 48.5445 23.805H57.1055C57.7641 26.4392 58.5167 29.3556 59.3634 32.4602C60.2101 35.5647 61.245 38.7634 62.3739 41.962C63.4088 45.1607 64.5377 48.4534 65.8548 51.7461C67.0778 55.0389 68.3949 58.1434 69.8061 61.1539C71.9698 54.9448 73.8514 48.7356 75.4507 42.6206C77.05 36.5055 78.5553 30.2023 79.9665 23.7109H88.2453C86.1756 32.4602 83.9177 40.8331 81.3776 48.9238C78.8375 57.0145 76.1093 64.5407 73.1929 71.5025C72.0639 74.1367 70.8409 76.4886 69.6179 78.3702C68.3949 80.3458 66.9837 81.8511 65.5725 83.1681C64.0673 84.3912 62.3739 85.3319 60.5864 85.8964C58.7049 86.4609 56.6352 86.7431 54.2832 86.7431C53.6247 86.7431 52.9661 86.7431 52.3076 86.649C51.649 86.5549 50.9905 86.4609 50.3319 86.2727C49.6734 86.0846 49.1089 85.9905 48.5445 85.8023C47.98 85.6142 47.6037 85.5201 47.4155 85.3319L48.7326 78.7465Z" fill="#D6001C"/>
<path d="M102.92 25.776C103.861 25.1175 105.366 24.4589 107.342 23.7063C109.317 22.9537 111.575 22.6714 114.209 22.6714C117.408 22.6714 120.23 23.2359 122.77 24.4589C125.31 25.6819 127.38 27.2813 129.074 29.445C130.767 31.6088 132.084 34.1489 133.025 37.0653C133.872 40.0758 134.342 43.2745 134.342 46.8494C134.342 50.6126 133.777 53.9994 132.743 57.0098C131.708 60.0203 130.203 62.5604 128.227 64.6302C126.251 66.6999 123.899 68.2992 121.171 69.4281C118.443 70.5571 115.338 71.1215 111.857 71.1215C108.094 71.1215 104.802 70.8393 101.979 70.2748C99.1568 69.7104 96.8049 69.24 94.9233 68.6755V2.35062L102.92 0.939453V25.776ZM102.92 62.8427C103.767 63.1249 104.896 63.3131 106.307 63.5012C107.812 63.6894 109.599 63.7835 111.763 63.7835C116.091 63.7835 119.478 62.2782 122.112 59.3618C124.652 56.4454 125.969 52.2119 125.969 46.8494C125.969 44.4975 125.781 42.2396 125.31 40.1699C124.84 38.1002 124.087 36.3127 123.053 34.8075C122.018 33.3022 120.701 32.0792 119.101 31.2325C117.502 30.3858 115.526 29.9154 113.174 29.9154C110.917 29.9154 109.035 30.2917 107.153 31.0444C105.272 31.797 103.955 32.6437 102.92 33.4904V62.8427Z" fill="#D6001C"/>
<path d="M182.418 46.9462C182.418 50.6153 181.948 54.0021 180.913 56.9185C179.878 59.929 178.467 62.4691 176.585 64.5388C174.704 66.7026 172.54 68.3019 169.906 69.5249C167.366 70.6539 164.543 71.2183 161.439 71.2183C158.428 71.2183 155.606 70.6539 152.972 69.5249C150.432 68.396 148.174 66.7026 146.292 64.5388C144.411 62.375 143 59.8349 141.965 56.9185C140.93 53.908 140.459 50.6153 140.459 46.9462C140.459 43.2772 140.93 39.9845 141.965 36.974C143 33.9635 144.411 31.4234 146.292 29.2596C148.174 27.0958 150.338 25.4965 152.972 24.2735C155.512 23.1445 158.334 22.5801 161.439 22.5801C164.449 22.5801 167.272 23.1445 169.906 24.2735C172.446 25.4024 174.704 27.0958 176.585 29.2596C178.467 31.4234 179.878 33.9635 180.913 36.974C181.948 39.9845 182.418 43.2772 182.418 46.9462ZM174.139 46.9462C174.139 41.6779 173.01 37.5385 170.753 34.528C168.495 31.4234 165.39 29.9182 161.533 29.9182C157.676 29.9182 154.571 31.4234 152.313 34.528C150.055 37.6325 148.926 41.772 148.926 46.9462C148.926 52.1205 150.055 56.354 152.313 59.3645C154.571 62.4691 157.676 63.9743 161.533 63.9743C165.39 63.9743 168.495 62.4691 170.753 59.3645C173.01 56.2599 174.139 52.1205 174.139 46.9462Z" fill="#D6001C"/>
<path d="M208.476 22.7637C209.134 22.7637 209.981 22.7637 210.828 22.8577C211.674 22.9518 212.615 23.0459 213.462 23.2341C214.308 23.4222 215.155 23.5163 215.814 23.7045C216.566 23.8926 217.037 23.9867 217.413 24.0808L216.002 31.3248C215.343 31.0425 214.309 30.7603 212.897 30.4781C211.392 30.1958 209.511 30.0077 207.253 30.0077C205.747 30.0077 204.242 30.1958 202.831 30.4781C201.326 30.7603 200.385 31.0425 199.915 31.1366V70.0848H191.918V25.6801C193.8 24.9275 196.151 24.2689 198.974 23.7045C201.796 23.0459 204.995 22.7637 208.476 22.7637Z" fill="#D6001C"/>
<path d="M251.002 65.4805C250.344 65.9509 249.027 66.6095 247.051 67.268C245.075 68.0207 242.723 68.397 240.089 68.397C237.455 68.397 234.821 67.9266 232.469 67.0799C230.117 66.2332 228.047 64.822 226.26 62.9404C224.472 61.0589 223.061 58.7069 222.026 55.9787C220.991 53.1564 220.521 49.8636 220.521 46.0064C220.521 42.6196 220.991 39.5151 222.026 36.6927C222.967 33.8704 224.378 31.4244 226.26 29.3547C228.141 27.2849 230.399 25.6856 233.127 24.5567C235.856 23.4277 238.866 22.8633 242.253 22.8633C246.016 22.8633 249.215 23.1455 252.037 23.71C254.859 24.2745 257.117 24.8389 258.999 25.3093V66.7036C258.999 73.8535 257.211 79.0278 253.636 82.2264C250.061 85.4251 244.699 87.0244 237.455 87.0244C234.633 87.0244 231.998 86.7421 229.458 86.2718C226.918 85.8014 224.755 85.2369 222.967 84.5784L224.472 77.3344C226.072 77.9929 228.047 78.5574 230.399 79.0278C232.751 79.4982 235.103 79.7804 237.643 79.7804C242.441 79.7804 245.828 78.8396 247.898 76.864C249.967 74.8883 251.002 71.7838 251.002 67.5503V65.4805ZM250.908 31.0481C250.061 30.7658 249.027 30.5777 247.709 30.3895C246.392 30.2014 244.511 30.1073 242.253 30.1073C237.925 30.1073 234.633 31.5184 232.281 34.4349C229.929 37.3513 228.8 41.2085 228.8 46.0064C228.8 48.6406 229.176 50.9926 229.835 52.8741C230.493 54.7557 231.34 56.355 232.469 57.578C233.598 58.801 234.915 59.7418 236.326 60.3063C237.831 60.8707 239.337 61.153 240.842 61.153C243.006 61.153 244.887 60.8707 246.675 60.2122C248.462 59.5536 249.873 58.8951 250.908 58.0484V31.0481Z" fill="#D6001C"/>
<path fill-rule="evenodd" clip-rule="evenodd" d="M273.579 23.4268C276.496 23.4268 278.942 25.8728 278.942 28.9774C278.942 32.0819 276.496 34.528 273.579 34.528C270.663 34.528 268.217 32.0819 268.217 28.9774C268.217 25.8728 270.569 23.4268 273.579 23.4268ZM273.579 22.5801C275.273 22.5801 276.778 23.3327 277.907 24.4616C279.036 25.5906 279.694 27.1899 279.694 28.9774C279.694 30.7649 279.036 32.2701 277.907 33.4931C276.778 34.622 275.273 35.3747 273.579 35.3747C271.886 35.3747 270.381 34.622 269.252 33.4931C268.123 32.3642 267.464 30.7649 267.464 28.9774C267.464 27.1899 268.123 25.6846 269.252 24.4616C270.287 23.3327 271.886 22.5801 273.579 22.5801Z" fill="#D6001C"/>
<path d="M271.132 32.4556V25.5879H274.049C274.613 25.5879 275.084 25.682 275.366 25.776C275.648 25.8701 275.93 26.1524 276.118 26.4346C276.307 26.7168 276.401 27.0931 276.401 27.4694C276.401 27.9398 276.213 28.3161 275.93 28.6925C275.648 29.0688 275.178 29.2569 274.519 29.351C274.707 29.4451 274.895 29.5392 275.084 29.7273C275.366 30.0095 275.554 30.2918 275.836 30.6681L276.965 32.5496H275.836L274.989 31.1385C274.707 30.7622 274.519 30.3859 274.331 30.1977C274.143 30.0095 274.049 29.8214 273.861 29.7273C273.766 29.6332 273.578 29.5392 273.484 29.5392C273.39 29.5392 273.202 29.5392 273.014 29.5392H271.979V32.5496L271.132 32.4556ZM271.979 28.5984H273.861C274.237 28.5984 274.613 28.5984 274.801 28.5043C274.99 28.4102 275.178 28.3161 275.272 28.128C275.366 27.9398 275.46 27.7517 275.46 27.5635C275.46 27.2813 275.366 26.9991 275.084 26.8109C274.895 26.6227 274.519 26.5287 274.049 26.5287H271.979V28.5984Z" fill="#D6001C"/>
</g>
<defs>
<linearGradient id="paint0_linear_316_1861" x1="353.255" y1="119.061" x2="353.255" y2="33.9707" gradientUnits="userSpaceOnUse">
<stop stop-color="#D3051B"/>
<stop offset="0.461538" stop-color="#CB1217"/>
<stop offset="1" stop-color="#A02920"/>
</linearGradient>
<clipPath id="clip0_316_1861">
<rect width="413.284" height="119.573" fill="white"/>
</clipPath>
</defs>
</svg>
