<svg width="350" height="117" viewBox="0 0 350 117" fill="none" xmlns="http://www.w3.org/2000/svg">
<g clip-path="url(#clip0_316_1787)">
<path fill-rule="evenodd" clip-rule="evenodd" d="M145.833 58.3341V1.05078H160.417V30.7716C165.754 27.1258 172.2 24.9966 179.171 24.9966C197.575 24.9966 212.508 39.9299 212.508 58.3341C212.508 76.7383 197.575 91.6716 179.171 91.6716C160.767 91.6716 145.833 76.7383 145.833 58.3341ZM179.171 77.0883C168.817 77.0883 160.417 68.6883 160.417 58.3341C160.417 47.9799 168.817 39.5799 179.171 39.5799C189.525 39.5799 197.925 47.9799 197.925 58.3341C197.925 68.6883 189.525 77.0883 179.171 77.0883Z" fill="#7145D6"/>
<path fill-rule="evenodd" clip-rule="evenodd" d="M123.958 85.8961V90.6211H138.542V58.3336C138.542 39.9294 123.608 24.9961 105.204 24.9961C86.8 24.9961 71.8667 39.9294 71.8667 58.3336C71.8667 76.7378 86.8 91.6711 105.204 91.6711C112.146 91.6711 118.621 89.5419 123.958 85.8961ZM86.45 58.3336C86.45 47.9794 94.85 39.5794 105.204 39.5794C115.558 39.5794 123.958 47.9794 123.958 58.3336C123.958 68.6878 115.558 77.0878 105.204 77.0878C94.85 77.0878 86.45 68.6878 86.45 58.3336Z" fill="#7145D6"/>
<path d="M33.3375 39.5794C22.9833 39.5794 14.5833 47.9794 14.5833 58.3336C14.5833 68.6878 22.9833 77.0878 33.3375 77.0878C41.0958 77.0878 47.775 72.3628 50.6042 65.6253H65.8583C62.5333 80.5294 49.2333 91.6711 33.3375 91.6711C14.9333 91.6711 0 76.7378 0 58.3336C0 39.9294 14.9333 24.9961 33.3375 24.9961C49.2333 24.9961 62.5333 36.1378 65.8583 51.0419H50.6042C47.775 44.3044 41.0958 39.5794 33.3375 39.5794Z" fill="#7145D6"/>
<path d="M220.821 26.0469V90.6219H235.404V26.0469H220.821Z" fill="#7145D6"/>
<path d="M288.283 2.15833C285.192 0.758333 281.75 0 278.133 0C264.337 0 253.137 11.2 253.137 24.9958V26.0458H243.775V40.6292H253.137V90.6208H267.721V40.6292H286.475L307.008 86.7708L302.954 95.9C300.621 101.15 294.467 103.512 289.187 101.179L283.267 114.508C295.867 120.137 310.654 114.45 316.283 101.85L350 26.0458H334.046L314.971 68.8333L299.775 34.7083C297.354 29.2833 292.046 26.0458 286.446 26.0458H267.692V24.9958C267.692 19.25 272.358 14.5833 278.104 14.5833C279.621 14.5833 281.05 14.9042 282.333 15.4875L288.283 2.15833Z" fill="#7145D6"/>
<path d="M236.454 8.34167C236.454 12.95 232.721 16.6833 228.112 16.6833C223.504 16.6833 219.771 12.95 219.771 8.34167C219.771 3.73333 223.504 0 228.112 0C232.721 0 236.454 3.73333 236.454 8.34167Z" fill="#7145D6"/>
</g>
<defs>
<clipPath id="clip0_316_1787">
<rect width="350" height="116.667" fill="white"/>
</clipPath>
</defs>
</svg>
