<svg width="395" height="124" viewBox="0 0 395 124" fill="none" xmlns="http://www.w3.org/2000/svg">
<g clip-path="url(#clip0_316_1708)">
<path d="M0.0216632 99.5381C0.809688 85.3181 6.57471 76.8809 15.324 66.3541C17.8915 63.2672 20.8243 60.4745 23.1252 57.1723C15.0159 52.1993 3.55296 49.3987 1.01114 38.9036C9.87296 44.1571 20.1212 47.3289 30.4959 47.5561C39.7962 37.926 51.4349 30.2037 63.0854 23.6605C74.4199 17.2951 86.661 11.4906 99.4313 8.70387C100.743 7.79734 98.0389 1.35687 97.5827 -0.00390625L121.235 6.47409C126.908 5.53597 130.212 10.5169 134.529 13.3096C139.37 16.4399 145.334 19.6197 150.505 22.2188C153.112 23.5282 152.679 22.916 155.344 23.1056C156.515 23.1885 158.642 23.6349 159.28 24.6974C160.137 26.1253 160.775 31.9575 160.579 33.6679C160.415 35.1017 158.284 37.7719 156.963 38.3466C154.733 39.3144 152.397 38.3249 150.209 38.1156C146.178 37.7285 144.6 37.9793 140.687 36.577C137.379 35.3901 132.088 36.5514 128.48 36.342C127.553 36.2887 126.416 35.8937 125.525 35.9194C123.732 35.9727 120.609 38.5461 118.816 39.3006C113.466 41.5521 107.859 39.7153 103.099 37.0076C95.2779 41.8957 88.1521 47.8385 80.0092 52.2348C67.2586 59.1197 55.7542 61.8412 41.1905 61.62C40.5645 61.6102 39.9759 61.2033 39.3775 61.5667C27.0772 70.3061 19.5366 89.5999 24.5018 104.179C28.4636 115.804 41.3703 108.672 48.0734 104.037C54.7568 99.4156 61.6733 93.5933 68.0486 88.4623C71.6095 85.5946 75.2652 82.7703 78.7155 79.7762C87.0086 72.5793 94.5432 63.9979 103.324 57.3817C114.068 49.2881 121.223 48.8576 134.381 50.5818C137.373 50.9748 139.51 51.1308 142.508 51.3421C144.254 51.4666 145.996 51.8359 147.744 51.9327C147.943 52.1183 147.197 53.2223 147.037 53.4949C143.158 60.0855 137.95 66.7531 134.353 73.3989C131.565 78.5517 134.075 80.2739 138.556 77.0092C149.9 68.7498 158.377 54.6384 166.625 43.4599C169.139 40.053 171.77 36.7311 174.201 33.261L174.706 32.9766L186.517 31.5566L192.967 30.3044C185.443 39.9424 178.844 50.2026 172.078 60.3699C169.966 63.5437 163.71 71.3351 163.194 74.5938C163.001 75.8183 163.109 77.7854 164.681 77.9671C166.722 78.2041 172.39 73.8433 174.102 72.4687C181.542 66.4963 187.202 58.7484 192.983 51.2572C198.132 49.7088 203.617 49.4145 208.963 48.9721L194.573 74.3746C193.534 77.3628 194.107 78.3878 197.05 76.8512C199.825 75.4016 203.591 71.9809 206.095 69.9012C218.52 59.5759 229.825 47.5264 247.169 46.5923C263.959 45.6877 260.151 54.6977 252.314 63.5891C243.342 73.7683 233.299 79.083 220.945 84.3582C218.753 85.2944 216.264 85.9639 214.191 86.8882C211.039 88.2924 212.415 94.6914 215.777 94.9896C217.289 95.1239 220.276 93.7197 221.735 93.0482C237.269 85.9046 257.937 67.7504 267.859 53.8543C268.402 53.094 269.19 51.3816 269.781 50.8385C270.269 50.3902 274.841 49.5666 275.842 49.3968C279.589 48.7628 283.407 48.5218 287.165 47.9827C287.309 48.1663 285.31 51.5791 285.028 52.065C281.876 57.514 277.412 63.5239 274.815 69.1073C274.604 69.5595 274.039 70.6576 274.519 71.0033C274.999 71.3489 277.663 69.5852 278.262 69.1981C288.324 62.6767 297.733 54.354 307.839 47.8227C311.327 45.5672 317.839 45.3184 314.544 51.1703C309.613 58.3099 298.758 66.9209 297.099 75.5932C296.951 76.3693 296.522 77.8111 297.725 77.7795C299.523 77.7301 304.043 73.6735 305.534 72.3779C312.107 66.6642 318.467 60.0795 324.307 53.6272C324.959 52.0196 323.523 51.9504 322.316 51.8339C322.294 51.5693 323.965 48.3836 324.192 48.1802C324.733 47.6943 328.652 48.0893 329.62 48.0893L336.684 38.552L354.313 35.3466L348.98 45.0202C352.089 45.7647 355.368 44.4652 358.458 45.3164L355.763 50.1255L343.934 50.7398L343.237 51.0301L330.51 71.0882C329.995 72.0954 328.652 75.2535 329.132 76.2291C329.789 77.5662 333.238 75.1448 334.032 74.6116C340.369 70.3594 346.413 64.6615 352.753 60.1526C362.138 53.4791 377.849 43.2348 389.77 46.9873C392.334 47.795 394.283 49.2467 394.994 51.9346V53.7121C393.337 59.9492 388.392 65.3251 383.74 69.6129C377.804 75.0856 360.343 88.1285 352.437 88.091C351.536 88.087 350.043 87.2575 349.259 87.8599C347.896 90.0936 350.468 93.0917 352.838 93.22C354.593 93.3148 359.381 91.2747 361.218 90.538C364.109 89.3787 367.164 88.0021 369.985 86.665C374.162 84.6861 378.444 82.6479 382.07 79.7703C383.693 80.0823 383.954 83.0468 383.423 84.3029C381.852 88.006 369.633 95.0291 365.772 97.0654C358.889 100.697 344.086 107.521 336.498 105.396C330.352 103.674 331.851 93.5894 332.882 88.8632C333.115 87.7987 334.365 84.4036 334.36 83.8131C334.358 83.5702 334.265 83.4872 334.075 83.3648C333.455 83.2759 330.546 85.166 329.841 85.6262C320.201 91.9146 312.072 101.106 300.895 105.066C297.715 106.194 294.075 106.964 295.956 102.102L307.503 79.2844L307.207 78.9902C298.731 84.1094 290.596 90.1232 282.923 96.3781C279.634 99.0581 274.608 104.347 270.875 105.661C260.412 109.344 266.331 99.7336 268.835 95.5229C272.479 89.3945 276.911 83.7183 281.08 77.9474C282.441 74.4279 278.546 76.0691 276.917 77.1396C268.716 82.5274 259.851 89.9692 252.032 96.0976C248.332 98.9969 244.454 103.01 240.233 105.036C238.671 105.787 235.775 107.185 235.805 104.367C235.835 101.588 239.532 95.1871 241.066 92.6374L246.875 83.9316C240.962 88.3141 235.151 92.906 229.009 96.9725C221.638 101.853 213.574 105.896 204.523 106.455C201.987 106.613 196.886 106.8 195.489 104.215C193.463 100.468 194.528 91.5452 194.749 87.1983C194.767 86.8605 194.928 85.3655 194.449 85.5136C193.674 85.7526 190.574 88.3773 189.711 89.0706C185.235 92.6631 181.105 96.7138 176.666 100.318C173.887 102.574 170.075 104.638 166.654 105.712C164.948 106.249 160.913 107.452 160.787 104.557C160.704 102.672 163.955 95.8152 164.885 93.6723C166.795 89.272 168.971 84.9882 170.843 80.5741C163.485 85.5156 155.474 90.1548 148.633 95.7875C144.489 99.2003 140.804 103.435 135.542 105.212C130.235 107.006 128.391 105.064 130.585 99.86C132.244 95.9238 135.598 92.6019 136.885 88.1877C138.416 82.9421 135.378 84.2733 132.548 86.4181C125.628 91.6618 118.423 98.4775 111.108 103.095C109.105 104.359 104.535 106.743 102.226 106.652C99.0284 106.526 99.4432 103.324 100.196 101.071C102.386 94.5117 108.109 88.0376 110.778 81.8322C111.058 81.1804 111.629 80.0784 111.212 79.478C110.519 78.9902 108.183 80.902 107.553 81.372C102.449 85.1857 97.5946 89.6729 92.5287 93.6032C87.9467 97.1602 76.8511 106.05 71.7102 107.347C65.6272 108.884 69.3935 101.071 70.065 98.3945C70.2507 97.6539 70.7997 95.8685 70.3356 95.2721C69.6582 94.6006 68.9492 95.3076 68.3606 95.7026C54.818 104.77 44.1037 119.452 26.7967 122.867L22.1298 123.631H20.1548L14.9783 122.784C7.01711 120.803 1.75176 114.967 0.462088 106.885C0.272488 105.69 0.306063 104.454 0.0098132 103.289C0.0591882 102.046 -0.0593118 100.776 0.0098132 99.5361L0.0216632 99.5381ZM111.781 15.3853C111.025 15.7526 110.43 15.407 109.735 15.3932C99.5696 15.2115 87.1863 22.5131 78.6385 27.7626C68.7398 33.8417 59.3072 40.7127 50.1867 47.8898C54.5929 49.5804 59.7792 48.8734 64.2882 47.7773C80.6945 43.7897 95.3924 32.1767 110.959 25.912C112.684 25.5822 114.661 28.2899 116.199 28.8745C118.221 29.6428 124.05 27.2708 126.566 26.9094C128.764 26.5934 130.802 26.6092 132.971 27.1109C133.804 27.3044 135.779 28.2208 136.332 28.1971C136.986 28.1695 142.68 26.0246 142.911 25.675C143.079 25.4203 143.022 25.3492 142.81 25.1714C140.128 24.5888 137.792 22.916 135.238 21.8811C134.288 21.4959 133.324 21.1187 132.339 20.8304C131.353 20.542 128.48 20.2023 128.102 19.5367C127.871 19.1299 127.893 18.4446 127.694 17.9706C127.188 16.7717 126.341 15.326 124.998 14.9389C123.117 14.3958 119.699 14.8619 117.663 14.5716C115.304 11.5143 111.753 10.4063 108.147 9.47214C108.062 10.7697 112.575 14.4472 111.779 15.3813L111.781 15.3853ZM353.134 80.1831C353.337 80.3944 355.178 79.085 355.48 78.8796C360.402 75.5161 373.869 63.7767 376.147 58.6654C377.768 55.0275 375.365 55.3474 372.69 56.1967C366.359 58.2092 359.983 66.8617 356.724 72.4213C356.201 73.316 352.693 79.7249 353.132 80.1831H353.134ZM103.508 76.4306C103.946 76.869 108.605 73.9282 109.336 73.474C113.738 70.7366 123.633 63.9446 126.181 59.7082C128.827 55.3099 123.748 56.3784 121.176 57.2711C114.55 59.572 107.699 67.8768 104.458 73.9302C104.25 74.3173 103.229 76.156 103.506 76.4325L103.508 76.4306ZM239.53 56.728C238.823 56.0189 235.975 56.8939 235.098 57.2375C229.122 59.5897 223.278 67.4226 220.064 72.8143C219.478 73.7979 215.777 80.424 216.274 80.9711C217.412 80.6472 218.453 79.7683 219.413 79.0751C225.024 75.0145 233.117 67.8531 237.286 62.3863C238.045 61.3909 240.699 57.8991 239.53 56.726V56.728Z" fill="#FF0000"/>
<path d="M200.079 37.3248C201.548 33.5822 203.809 27.4913 207.647 25.6388C212.322 23.3813 222.287 23.8869 219.133 31.3998C218.049 33.9812 215.016 35.4486 212.474 36.1951C208.538 37.3485 204.149 37.3841 200.079 37.3268V37.3248Z" fill="#FF0000"/>
<path d="M391.921 107.644C391.921 112.289 388.157 116.053 383.512 116.053C378.866 116.053 375.102 112.289 375.102 107.644C375.102 102.999 378.866 99.2344 383.512 99.2344C388.157 99.2344 391.921 102.999 391.921 107.644ZM391.05 107.642C391.05 103.481 387.677 100.109 383.518 100.109C379.358 100.109 375.985 103.483 375.985 107.642C375.985 111.801 379.358 115.175 383.518 115.175C387.677 115.175 391.05 111.801 391.05 107.642Z" fill="#FF0000"/>
<path d="M385.223 102.303C387.23 102.636 388.168 104.801 387.066 106.515C386.527 107.353 385.92 107.195 385.322 107.831C385.622 107.87 385.918 107.914 386.124 108.17C386.302 108.392 388.279 112.794 388.085 112.968L385.946 112.936C384.992 111.036 385.016 108.121 382.162 108.427V112.97H379.99V102.305C381.579 102.49 383.706 102.054 385.223 102.305V102.303ZM382.162 107.043C386.554 107.6 386.582 103.097 382.162 103.685V107.043Z" fill="#FF0000"/>
</g>
<defs>
<clipPath id="clip0_316_1708">
<rect width="395" height="123.633" fill="white"/>
</clipPath>
</defs>
</svg>
