<svg width="358" height="106" viewBox="0 0 358 106" fill="none" xmlns="http://www.w3.org/2000/svg">
<g clip-path="url(#clip0_316_1852)">
<path d="M28.5285 105.214C-10.7944 94.9762 -4.87687 50.9718 18.666 28.1466C38.7516 8.65374 73.1751 10.1995 77.7564 40.3722C81.0439 40.5328 83.6103 39.3685 87.0039 39.6094C90.9277 39.8904 95 42.9619 97.8633 42.9619C100.408 42.9619 102.084 41.1551 104.375 40.6131C112.71 38.6458 121.703 40.3923 130.081 40.4525C135.341 40.4927 140.028 38.7261 145.734 41.2154C151.079 8.59352 208.854 7.26857 215.578 40.312C223.722 39.1677 230.573 41.6169 237.848 44.5679C240.711 26.8417 254.794 4.73912 276.789 13.1907C298.147 -11.5818 339.74 0.583597 340.885 32.6634C349.814 35.8353 354.82 43.1225 357.747 51.3131V60.5677C355.435 67.5738 352.02 73.8573 345.148 77.7518C341.33 79.9199 336.707 80.1408 334.225 81.5661C333.016 82.2687 331.128 86.1231 329.559 87.5083C325.105 91.4229 320.587 91.2021 315.942 93.2296C313.503 94.2936 311.509 96.6223 308.243 97.7867C300.48 100.537 297.235 98.4692 290.236 98.4491C286.97 98.4491 283.619 99.754 279.44 99.3324C270.935 98.4491 271.274 98.9912 263.363 99.3726C258.973 99.5733 256.322 97.8067 253.522 97.7666C249.937 97.7264 246.268 99.7339 240.987 99.3124C237.063 98.9912 230.149 95.2371 229.512 95.2773C228.176 95.3576 223.637 98.2283 220.732 98.7904C215.45 99.8142 211.484 99.5131 206.351 98.2685C204.548 97.8268 202.406 96 200.879 96.1405C200.01 96.2208 192.12 100.457 189.362 101.26C179.415 104.11 170.167 104.271 160.241 101.26C157.505 100.416 151.991 96.9435 150.612 96.8231C148.215 96.6022 142.298 99.2923 138.162 99.3927C120.006 99.8343 101.723 98.4893 83.5679 98.4291C80.4501 98.4291 77.5019 99.5934 73.7054 99.3726C70.6936 99.212 67.1727 97.5458 64.8397 97.6863C62.5066 97.8268 55.2953 102.083 51.7956 103.107C48.8899 103.95 45.4327 103.709 42.8663 105.234H28.5497L28.5285 105.214ZM328.774 85.5409C330.301 84.1357 331.447 81.1044 333.207 80.0404C335.222 78.8158 339.612 78.3742 342.539 77.0291C356.326 70.7055 359.952 52.8187 350.535 41.657C347.99 38.6458 339.718 34.2293 339.358 33.6471C338.764 32.7036 337.873 24.8543 336.685 21.843C327.332 -1.7451 291.954 -5.8404 278.083 15.941C261.815 7.60984 248.771 19.2132 243.193 33.1854C241.772 36.7587 241.029 43.0422 239.651 45.6319C238.124 48.4825 229.046 42.7411 225.546 42.2392C221.644 41.6771 217.677 42.3195 213.775 41.9581C209.087 8.57344 148.237 10.9423 147.494 44.5679C144.673 43.1024 141.174 41.5366 137.886 41.4161C129.805 41.1351 119.54 41.1551 111.289 41.1953C105.987 41.2154 100.769 45.2504 98.7965 45.3307C96.4634 45.4311 93.3668 43.0823 91.161 42.46C85.2435 40.7737 81.8075 41.7373 75.9536 42.8816C74.4053 14.6361 43.0996 10.0188 22.7595 26.9019C-15.3545 58.5602 0.55283 121.997 58.6464 98.6298C60.4917 97.887 62.9732 95.458 64.9033 95.2974C66.3243 95.197 70.4603 97.4655 73.6629 97.6662C86.4736 98.4692 101.872 96.7829 114.852 96.7227C121.809 96.6825 130.505 97.7867 137.229 97.6863C141.534 97.6261 149.021 94.2936 150.506 94.4341C151.715 94.5546 157.738 98.4893 160.453 99.3525C170.973 102.705 181.536 102.283 191.823 98.4893C194.092 97.6461 200.243 93.7516 200.752 93.7114C201.791 93.6512 204.951 95.8595 206.585 96.3413C212.163 97.9874 216.32 98.1681 221.962 96.542C223.977 95.9598 228.94 92.8081 229.364 92.8081C230.043 92.8081 237.212 97.3249 241.899 97.606C246.586 97.887 249.959 95.8795 253.522 95.9197C257.085 95.9598 259.482 98.0276 264.233 97.6261C267.054 97.3852 270.15 95.458 272.292 95.458C274.435 95.458 277.51 97.3651 280.331 97.6261C284.764 98.0276 288.051 96.2409 291.084 96.3212C294.287 96.4015 297.087 98.0677 301.816 97.6261C308.37 97.0037 310.534 93.3902 315.009 91.5233C319.993 89.4556 323.959 89.9574 328.774 85.5208V85.5409Z" fill="#05AFFA"/>
<path d="M328.773 85.5412C323.958 89.9778 319.992 89.4759 315.007 91.5437C310.532 93.3906 308.369 97.0041 301.815 97.6465C297.085 98.1082 294.286 96.4219 291.083 96.3416C288.05 96.2613 284.762 98.048 280.329 97.6465C277.509 97.3855 274.391 95.4784 272.291 95.4784C270.191 95.4784 267.073 97.4056 264.231 97.6465C259.459 98.048 256.935 95.9602 253.52 95.9401C250.106 95.92 246.691 97.9476 241.897 97.6264C237.104 97.3052 230.041 92.8285 229.362 92.8285C228.938 92.8285 223.975 95.9802 221.96 96.5624C216.318 98.1885 212.14 98.0078 206.583 96.3617C204.95 95.8799 201.79 93.6716 200.75 93.7318C200.241 93.7519 194.091 97.6665 191.821 98.5097C181.534 102.304 170.993 102.705 160.452 99.3729C157.737 98.5097 151.713 94.575 150.504 94.4545C149.041 94.314 141.554 97.6465 137.227 97.7067C130.504 97.8071 121.808 96.7029 114.851 96.7431C101.87 96.8033 86.4721 98.5097 73.6614 97.6866C70.4587 97.4859 66.3228 95.2174 64.9017 95.3178C62.9717 95.4583 60.4901 97.9074 58.6449 98.6502C0.551274 121.997 -15.3561 58.5605 22.7367 26.9223C43.0769 10.0392 74.3825 14.6364 75.9308 42.902C81.7847 41.7577 85.2207 40.7941 91.1382 42.4804C93.3441 43.1027 96.4407 45.4716 98.7738 45.3511C100.746 45.2508 105.985 41.2358 111.266 41.2157C119.517 41.1755 129.782 41.1555 137.863 41.4365C141.151 41.557 144.651 43.1228 147.471 44.5883C148.235 10.9627 209.065 8.59384 213.752 41.9785C217.655 42.3399 221.621 41.6975 225.523 42.2596C229.023 42.7615 238.101 48.5029 239.628 45.6523C241.028 43.0626 241.749 36.759 243.17 33.2058C248.748 19.2336 261.792 7.63024 278.06 15.9614C291.931 -5.82 327.309 -1.7247 336.663 21.8634C337.85 24.8546 338.741 32.7039 339.335 33.6675C339.696 34.2296 347.967 38.6662 350.513 41.6774C359.951 52.8391 356.303 70.7259 342.517 77.0495C339.611 78.3946 335.22 78.8362 333.184 80.0608C331.403 81.1248 330.257 84.1561 328.751 85.5613L328.773 85.5412ZM324.297 13.713C316.386 6.26514 302.494 4.43832 292.419 8.79459C285.929 11.585 281.751 17.467 277.657 22.6664C265.143 10.0593 251.739 22.8471 246.988 35.0727C245.058 40.0313 244.612 51.3736 237.252 52.016C236.34 52.0963 230.571 48.4427 228.62 47.7802C221.642 45.4314 215.3 45.8329 208.322 47.9408C213.497 14.9375 152.116 14.9576 151.968 44.1466C151.968 46.6962 154.004 50.41 153.75 52.5581C153.622 53.622 150.123 59.504 149.295 55.9306C148.108 50.8316 146.326 46.8768 139.9 46.2344C134.024 45.6322 124.565 46.9371 118.414 46.917C111.097 46.917 106.049 43.966 100.534 51.1528C93.5349 46.8568 85.1995 44.3273 77.1186 47.7802C75.6763 48.4025 70.3951 52.7789 69.6739 52.1365C79.685 23.369 48.146 12.127 26.7241 30.6562C-1.10309 54.7864 0.911841 107.724 49.1005 96.3817C53.6818 95.2977 64.7321 88.693 65.6441 88.6529C66.3016 88.6127 70.5648 91.4433 73.6826 91.7444C78.7517 92.2463 81.3181 90.4195 84.5844 90.2589C86.6842 90.1585 90.4807 92.166 95.1681 91.7444C97.3103 91.5437 99.2828 90.3191 100.683 90.2589C102.698 90.1585 105.943 92.2262 110.397 91.7645C112.433 91.5637 114.363 90.1183 115.593 90.2388C116.675 90.3392 118.138 91.5637 120.196 91.7645C124.65 92.2262 127.895 90.1585 129.91 90.2589C131.246 90.3191 132.9 91.5437 134.618 91.6842C141.49 92.2061 145.711 91.1221 151.416 87.629C165.076 99.7744 186.922 98.0279 200.75 86.9465C209.892 94.3542 220.688 93.0292 229.532 85.9829C235.513 90.4998 238.08 92.6277 246.309 91.6842C248.494 91.4232 250.381 90.038 252.651 90.038C256.235 90.038 259.141 92.3266 264.295 91.7645C267.201 91.4433 269.555 89.2752 271.421 89.2752C273.288 89.2752 275.663 91.4031 278.548 91.7645C283.469 92.3667 286.968 90.4395 290.192 90.4195C292.122 90.4195 295.113 92.1861 297.488 92.2864C304.699 92.5675 307.096 88.432 312.208 86.3442C318.231 83.875 321.222 85.3405 325.952 79.0771C326.949 77.7722 327.309 74.9818 328.179 74.4398C329.409 73.6569 333.163 74.1989 335.411 73.6569C355.009 68.9995 353.1 39.971 332.824 36.8795C333.248 28.6086 330.639 19.6552 324.34 13.713H324.297Z" fill="white"/>
<path d="M324.297 13.7097C330.596 19.6519 333.205 28.6054 332.781 36.8763C353.058 39.9478 354.966 68.9963 335.369 73.6536C333.12 74.1756 329.387 73.6537 328.136 74.4366C327.266 74.9786 326.906 77.769 325.909 79.0739C321.179 85.3373 318.189 83.8919 312.165 86.341C307.054 88.4288 304.657 92.5643 297.446 92.2832C295.07 92.1829 292.079 90.4163 290.149 90.4163C286.925 90.4163 283.426 92.3435 278.505 91.7613C275.621 91.42 273.203 89.272 271.379 89.272C269.555 89.272 267.158 91.4401 264.252 91.7613C259.077 92.3234 256.171 90.0348 252.608 90.0348C250.339 90.0348 248.451 91.42 246.266 91.681C238.037 92.6245 235.471 90.4966 229.489 85.9797C220.666 93.026 209.849 94.371 200.708 86.9433C186.9 98.0247 165.054 99.7712 151.374 87.6258C145.668 91.1189 141.448 92.2029 134.576 91.681C132.858 91.5605 131.224 90.336 129.867 90.2557C127.852 90.1553 124.607 92.223 120.153 91.7613C118.096 91.5605 116.632 90.3159 115.55 90.2356C114.32 90.1352 112.39 91.5605 110.354 91.7613C105.9 92.223 102.655 90.1553 100.64 90.2557C99.2401 90.3159 97.2464 91.5405 95.1254 91.7412C90.4381 92.1628 86.6415 90.1553 84.5418 90.2557C81.2755 90.4163 78.7303 92.2431 73.6399 91.7412C70.5221 91.42 66.2589 88.6095 65.6014 88.6497C64.6682 88.6898 53.6179 95.3146 49.0578 96.3785C0.911617 107.721 -1.10331 54.7832 26.7239 30.6731C48.1458 12.1238 79.6847 23.3859 69.6737 52.1533C70.3948 52.8158 75.6761 48.4194 77.1183 47.7971C85.1993 44.3442 93.5559 46.8736 100.534 51.1697C106.048 43.9828 111.096 46.9138 118.414 46.9338C124.565 46.9338 134.024 45.6491 139.899 46.2513C146.326 46.8937 148.107 50.8485 149.295 55.9475C150.122 59.5409 153.622 53.659 153.749 52.5749C154.004 50.4269 151.946 46.6929 151.968 44.1635C152.116 14.9745 213.497 14.9343 208.322 47.9577C215.279 45.8498 221.642 45.4483 228.62 47.7971C230.571 48.4595 236.34 52.1132 237.252 52.0329C244.612 51.4106 245.079 40.0481 246.987 35.0896C251.738 22.8639 265.122 10.0762 277.657 22.6833C281.75 17.4838 285.929 11.6019 292.419 8.81145C302.515 4.45518 316.407 6.282 324.297 13.7298V13.7097ZM326.185 31.5564C326.185 21.1174 317.192 12.6658 306.099 12.6658C295.006 12.6658 286.013 21.1174 286.013 31.5564C286.013 41.9954 295.006 50.447 306.099 50.447C317.192 50.447 326.185 41.9954 326.185 31.5564ZM301.221 55.6464C300.394 55.1847 298.082 55.7869 296.618 55.3653C295.261 54.9839 294.667 53.1772 292.843 52.9764C282.832 51.9526 278.738 65.443 274.56 70.3011C273.33 71.7465 265.482 77.5281 263.743 76.2233C258.971 72.5897 268.303 57.1721 270.064 52.595C272.163 47.1747 280.16 22.2215 267.137 24.49C257.486 26.1763 252.226 46.6729 252.12 54.6426C245.736 54.5623 241.749 59.5209 238.291 63.9374C228.302 47.2952 202.002 50.9288 203.932 71.8469C205.671 90.6973 228.174 85.8994 228.917 68.5345C228.98 67.2899 226.796 60.4443 229.32 61.428C229.723 61.5886 235.364 66.8884 235.577 67.33C237.358 70.9435 232.989 76.2032 238.228 81.6636C243.467 87.124 251.039 82.1052 255.705 78.2508C260.413 88.73 267.943 82.1253 274.942 78.2308C279.99 87.144 286.332 84.2934 293.691 79.8769C299.8 91.1189 306.99 78.6322 310.914 77.5683C314.18 76.685 317.913 78.5319 320.522 74.818C323.131 71.1041 321.094 65.3828 316.025 64.7805C305.887 63.576 309.684 76.2634 299.567 76.5445C297.955 72.8908 304.211 57.3126 301.221 55.6062V55.6464ZM53.3634 38.0406C59.493 43.8423 47.6792 54.8434 51.7515 57.674C55.3571 60.1833 61.9534 49.1019 62.4412 45.7695C64.8803 29.1876 48.1246 25.0722 35.3987 33.7847C20.2761 44.1434 5.8535 74.7176 25.0059 87.0637C38.3469 95.6558 57.8174 85.3774 67.4467 75.7615C69.398 86.6221 78.497 85.5581 86.1749 79.9773C91.647 88.5493 98.2645 82.1253 103.673 77.4478C107.491 94.9733 116.696 74.1355 118.902 67.3501C120.492 67.1494 119.771 69.2372 119.686 70.1807C119.262 74.4165 116.526 82.6874 122.083 84.2131C127.195 84.6146 130.27 72.8306 131.437 69.0163L133.239 80.3587C136.909 89.6936 148.723 79.355 153.346 75.7615C160.558 94.7926 202.829 90.336 199.202 68.7955C196.932 55.2449 169.275 52.595 169.89 43.3806C170.505 34.1662 193.899 34.8487 193.115 43.2601C192.903 45.5286 190.548 47.5963 189.976 49.6038C187.536 58.216 196.869 54.2411 199.562 48.5198C208.725 29.1273 171.099 22.5427 162.551 38.1009C152.286 56.7505 190.527 59.1595 190.506 71.1041C190.506 81.4227 165.309 84.2733 162.912 74.296C162.17 71.2246 163.548 69.0966 163.527 66.2058C163.188 65.182 161.597 64.3389 160.494 64.2987C156.507 64.1582 145.902 76.2032 140.366 76.5846C137.99 69.3777 142.338 61.9299 141.278 54.4218C134.576 49.4834 130.312 60.6049 127.386 64.8207C126.346 61.7492 130.673 55.5862 126.94 53.4181C121.001 49.9652 115.763 64.0177 114.851 63.9775C113.832 58.6777 118.986 50.8886 108.997 53.4181C105.921 61.4681 105.136 68.8156 97.4161 74.5169C86.6627 82.4666 96.5041 61.1269 94.5952 56.9312C93.9801 54.9839 91.3925 55.9475 90.0139 55.3453C85.9416 53.5385 87.0869 51.7719 81.0846 54.1006C73.1309 57.1721 73.1521 63.6362 69.4404 67.1293C68.5496 67.9524 50.3092 79.0337 48.4852 79.8367C39.5346 83.7714 27.2754 84.4339 25.8331 72.8306C24.3908 61.2272 35.7169 31.175 53.3422 38.0808L53.3634 38.0406ZM343.556 55.6263C343.556 49.4834 338.274 44.5048 331.742 44.5048C325.209 44.5048 319.928 49.4834 319.928 55.6263C319.928 61.7693 325.209 66.7479 331.742 66.7479C338.274 66.7479 343.556 61.7693 343.556 55.6263Z" fill="#05AFFA"/>
<path d="M53.3636 38.0426C35.7382 31.1368 24.3486 60.6872 25.8545 72.7924C27.3604 84.8976 39.556 83.7333 48.5065 79.7986C50.3306 78.9956 68.571 67.9342 69.4618 67.0911C73.1735 63.598 73.1523 57.1339 81.106 54.0624C87.1083 51.7538 85.963 53.5204 90.0353 55.3071C91.4139 55.9093 94.0015 54.9457 94.6166 56.893C96.5255 61.0887 86.6841 82.4284 97.4375 74.4787C105.158 68.7774 105.921 61.45 109.018 53.3799C119.008 50.8504 113.854 58.6395 114.872 63.9393C115.763 63.9795 121.023 49.9069 126.962 53.3799C130.694 55.548 126.346 61.711 127.407 64.7825C130.355 60.5868 134.618 49.4452 141.299 54.3836C142.36 61.8917 138.012 69.3395 140.387 76.5464C145.923 76.165 156.528 64.12 160.515 64.2605C161.618 64.3007 163.209 65.1438 163.548 66.1676C163.548 69.0584 162.191 71.1864 162.933 74.2579C165.33 84.2351 190.527 81.4046 190.527 71.0659C190.527 59.1213 152.307 56.7123 162.573 38.0627C171.12 22.5046 208.746 29.1092 199.584 48.4816C196.89 54.203 187.558 58.1778 189.997 49.5656C190.57 47.5581 192.924 45.4904 193.136 43.2219C193.921 34.8105 170.526 34.5696 169.911 43.3424C169.275 52.5568 196.933 55.2067 199.223 68.7573C202.85 90.2978 160.558 94.7544 153.368 75.7233C148.744 79.3168 136.93 89.6353 133.261 80.3205L131.458 68.9781C130.291 72.7924 127.216 84.5764 122.104 84.1749C116.548 82.6291 119.284 74.3582 119.708 70.1425C119.793 69.199 120.535 67.1112 118.923 67.3119C116.738 74.0973 107.512 94.9351 103.694 77.4096C98.2859 82.0871 91.6896 88.5111 86.1963 79.9391C78.5184 85.5199 69.4194 86.5839 67.4681 75.7233C57.8388 85.3393 38.3683 95.6176 25.0273 87.0256C5.87488 74.6794 20.2763 44.1052 35.4201 33.7465C48.146 25.034 64.9229 29.1695 62.4626 45.7313C61.9747 49.0437 55.3785 60.1451 51.7728 57.6358C47.7006 54.8052 59.5144 43.8242 53.3848 38.0024L53.3636 38.0426ZM85.7721 59.7437C79.8758 59.6634 73.4704 76.0847 78.2002 77.4096C83.4815 78.8952 85.56 62.9556 85.7721 59.7437Z" fill="white"/>
<path d="M301.221 55.6487C304.212 57.335 297.955 72.9333 299.567 76.587C309.684 76.3059 305.887 63.6185 316.026 64.823C321.095 65.4253 323.258 70.966 320.522 74.8605C317.786 78.7551 314.18 76.7275 310.914 77.6108C306.969 78.6748 299.8 91.1614 293.692 79.9194C286.311 84.3359 279.969 87.1665 274.942 78.2733C267.943 82.1678 260.435 88.7925 255.705 78.2933C251.039 82.1477 243.721 87.4074 238.228 81.7061C232.735 76.0048 237.337 70.986 235.577 67.3725C235.365 66.9309 229.723 61.6311 229.32 61.4705C226.796 60.4868 228.981 67.3324 228.917 68.577C228.153 85.9419 205.671 90.7398 203.932 71.8894C202.002 50.9512 228.302 47.3377 238.292 63.9799C241.749 59.5634 245.736 54.6048 252.12 54.6851C252.227 46.7154 257.487 26.2188 267.137 24.5325C280.16 22.244 272.164 47.2172 270.064 52.6375C268.304 57.2146 258.971 72.6121 263.743 76.2658C265.461 77.5706 273.309 71.789 274.56 70.3436C278.739 65.4855 282.832 51.9951 292.843 53.0189C294.667 53.1996 295.261 55.0264 296.619 55.4078C298.082 55.8093 300.394 55.2071 301.221 55.6889V55.6487ZM261.983 58.0577C263.637 49.305 269.597 41.0342 267.349 31.9603C262.45 35.634 261.432 45.8923 261.05 51.714C260.965 53.0591 260.371 57.4756 261.962 58.0577H261.983ZM217.93 59.8444C212.182 60.6474 208.619 76.7074 215.979 77.4502C221.854 78.0524 224.717 58.9009 217.93 59.8444ZM252.163 59.744C246.436 60.8482 239.501 80.1001 248.578 76.1654C255.323 73.2344 251.357 65.084 252.163 59.744ZM293.31 59.744C287.032 59.0013 280.945 75.1817 284.487 77.3096C287.138 78.8956 289.004 75.7037 289.895 73.7965C291.74 69.7615 292.101 64.1003 293.31 59.7641V59.744Z" fill="white"/>
<path d="M326.185 31.5585C326.185 41.9975 317.192 50.4491 306.1 50.4491C295.007 50.4491 286.014 41.9975 286.014 31.5585C286.014 21.1195 295.007 12.668 306.1 12.668C317.192 12.668 326.185 21.1195 326.185 31.5585ZM304.636 16.9239C303.109 17.3655 302.473 18.7908 304.042 19.7544C307.075 20.437 310.278 20.5374 312.972 22.304C315.029 23.6691 317.871 29.4306 318.825 29.4105C322.961 29.3101 318.635 21.5612 316.535 19.7946C313.799 17.486 308.199 15.9 304.657 16.9439L304.636 16.9239Z" fill="white"/>
<path d="M331.763 66.7489C338.288 66.7489 343.577 61.7697 343.577 55.6274C343.577 49.4851 338.288 44.5059 331.763 44.5059C325.238 44.5059 319.949 49.4851 319.949 55.6274C319.949 61.7697 325.238 66.7489 331.763 66.7489Z" fill="white"/>
<path d="M85.772 59.7444C85.5599 62.9765 83.4814 78.896 78.2002 77.4104C73.4704 76.0855 79.8757 59.6641 85.772 59.7444Z" fill="#05AFFA"/>
<path d="M217.931 59.8443C224.718 58.9008 221.855 78.0523 215.98 77.4501C208.62 76.7073 212.183 60.6272 217.931 59.8443Z" fill="#05AFFA"/>
<path d="M293.31 59.7421C292.101 64.0984 291.74 69.7394 289.895 73.7745C289.025 75.6816 287.138 78.8736 284.487 77.2876C280.945 75.1798 287.032 58.9793 293.31 59.722V59.7421Z" fill="#05AFFA"/>
<path d="M252.163 59.7441C251.357 65.0841 255.323 73.2345 248.579 76.1655C239.501 80.1002 246.436 60.8683 252.163 59.7441Z" fill="#05AFFA"/>
<path d="M261.983 58.0584C260.392 57.4762 260.965 53.0597 261.071 51.7147C261.453 45.9131 262.45 35.6347 267.37 31.9609C269.619 41.0348 263.659 49.3057 262.004 58.0584H261.983Z" fill="#05AFFA"/>
<path d="M304.636 16.925C308.178 15.8811 313.778 17.4871 316.514 19.7757C318.613 21.5423 322.94 29.2912 318.804 29.3916C317.85 29.4116 315.008 23.6501 312.95 22.285C310.278 20.5184 307.075 20.4181 304.021 19.7355C302.473 18.792 303.109 17.3667 304.615 16.9049L304.636 16.925Z" fill="#05AFFA"/>
</g>
<defs>
<clipPath id="clip0_316_1852">
<rect width="357.724" height="105.213" fill="white"/>
</clipPath>
</defs>
</svg>
