<svg width="290" height="93" viewBox="0 0 290 93" fill="none" xmlns="http://www.w3.org/2000/svg">
<path fill-rule="evenodd" clip-rule="evenodd" d="M265.534 26.7768C265.721 26.7741 288.718 26.4767 289.315 46.8777C289.315 46.8777 290.001 65.0721 265.899 65.2156C265.742 65.2191 255.671 65.4321 247.73 62.542C247.318 79.4968 267.973 78.5057 268.153 78.4943C275.789 78.4943 283.012 75.6281 289.038 70.232V85.2742C283.288 89.6198 275.053 92.1036 266.406 92.1036C246.076 92.1033 232.922 79.4954 232.922 59.9645C232.922 40.4332 246.353 26.7768 265.534 26.7768ZM264.796 39.0953C257.345 39.0957 252.1 42.583 249.57 49.2208L248.974 51.0338L250.584 51.4179C252.24 51.8477 255.921 52.5127 261.9 52.5127C267.971 52.5127 274.456 51.9888 274.457 46.0212C274.457 41.7711 270.914 39.0953 264.796 39.0953Z" fill="#1EC677"/>
<path d="M30.956 26.7725C35.1417 26.7725 38.684 27.5372 42.134 28.3012C45.3996 29.0176 48.529 29.6879 51.9789 29.6879C52.99 29.6878 53.9558 29.5913 54.9673 29.4959V43.9196C53.7715 44.1105 52.5754 44.2038 51.3797 44.2038C47.5618 44.2038 44.3397 43.2021 41.2581 42.2947C38.2687 41.4351 35.4619 40.5737 32.1967 40.5737C22.2166 40.5744 15.2273 48.0241 15.2264 58.7194C15.2264 69.9887 22.9059 77.8209 33.8523 77.8216C40.7058 77.8216 48.4356 74.7174 55.0133 69.321V84.4594C50.5515 87.9453 43.0527 92.0992 32.4733 92.0992C13.3389 92.0989 5.18685e-05 78.6822 0 59.438C0 49.7438 3.22004 41.4344 9.24571 35.465C14.9033 29.8304 22.6307 26.7725 30.956 26.7725Z" fill="#1EC677"/>
<path d="M78.2263 32.0892C85.7248 27.9345 116.91 15.7121 116.957 52.7661V91.1126H102.007V52.7661C102.015 52.5953 102.819 33.1013 78.2263 45.5101V91.1126H63.3228V0H78.2263V32.0892Z" fill="#1EC677"/>
<path d="M140.85 91.1087H125.808V27.8369H140.85V91.1087Z" fill="#1EC677"/>
<path fill-rule="evenodd" clip-rule="evenodd" d="M206.357 26.777C206.357 26.777 227.056 25.1547 227.103 50.3195V91.0554H212.061V52.6128C212.061 41.3439 204.749 41.1046 203.368 41.4389C203.368 41.4389 200.748 41.5835 198.356 44.162C198.441 44.2786 203.142 50.7286 203.507 58.8201C203.507 58.8201 204.563 79.9773 188.234 79.9773C171.906 79.9766 172.965 58.8201 172.965 58.8201C173.332 50.6982 178.066 44.2312 178.117 44.162C175.724 41.5835 173.1 41.4389 173.1 41.4389C171.67 41.1053 164.407 41.3477 164.407 52.6128V91.0554H149.365V50.3195C149.366 25.2319 169.985 26.7674 170.112 26.777C175.493 26.777 182.024 28.7856 188.234 35.7576C194.443 28.7862 200.929 26.7773 206.357 26.777ZM188.188 48.2185C188.142 48.3139 183.775 53.3307 183.867 60.3028C183.913 64.3133 184.97 68.5143 188.188 68.5154C191.407 68.5154 192.513 64.3137 192.513 60.3028C192.605 53.3307 188.28 48.3139 188.188 48.2185Z" fill="#1EC677"/>
<path d="M133.395 0.426758C138.317 0.426827 142.41 4.72586 142.41 9.78771C142.41 15.0403 138.362 19.2907 133.395 19.2908C128.336 19.2908 124.242 14.9926 124.241 9.78771C124.241 4.63032 128.381 0.426758 133.395 0.426758Z" fill="#1EC677"/>
</svg>
