<svg width="170" height="113" viewBox="0 0 170 113" fill="none" xmlns="http://www.w3.org/2000/svg">
<path d="M51.6896 90.4557L51.378 90.7654C46.4835 95.8838 40.8198 98.5875 34.9855 98.5875C22.8013 98.5875 13.9619 89.2067 13.9619 76.2669C13.9619 63.3476 22.8013 53.9515 34.9855 53.9515C40.8198 53.9515 46.4835 56.67 51.378 61.8077L51.6896 62.1133L59.5256 52.3869L59.316 52.1271C52.7995 44.2245 44.979 40.3822 35.3658 40.3822C25.728 40.3822 16.9034 43.7155 10.553 49.7178C3.63795 56.225 0 65.4019 0 76.2669C0 87.1318 3.63795 96.3281 10.553 102.836C16.9034 108.873 25.728 112.182 35.3658 112.182C44.979 112.182 52.7995 108.333 59.316 100.427L59.5256 100.187L51.6896 90.4557ZM67.4395 110.856H81.28V41.5043H67.4395V110.856ZM135.504 95.7791C131.808 98.0879 128.375 99.2529 125.287 99.2529C120.812 99.2529 118.785 96.8236 118.785 91.4261V54.6263H132.894V41.5719H118.785V19.9912L105.223 27.4477V41.5719H93.5157V54.6263H105.223V93.7701C105.223 104.431 111.378 111.727 120.573 111.917C126.811 112.042 130.571 110.133 132.85 108.734L132.996 108.638L136.322 95.2643L135.504 95.7791ZM146.961 110.856H160.821V41.5043H146.961V110.856Z" fill="#004685"/>
<path d="M168.892 29.3475C156.245 10.9655 135.246 0 113.881 0C92.5216 0 71.5175 10.9655 58.8946 29.3475L58.2417 30.292H74.1669L74.3422 30.0975C85.1781 18.6124 99.3301 12.5448 113.881 12.5448C128.431 12.5448 142.574 18.6124 153.435 30.0975L153.61 30.292H169.525L168.892 29.3475Z" fill="#EE1C25"/>
</svg>
