<svg width="352" height="186" viewBox="0 0 352 186" fill="none" xmlns="http://www.w3.org/2000/svg">
<g clip-path="url(#clip0_316_1771)">
<path d="M53.0274 58.0533C52.7492 58.0533 52.4795 58.0618 52.2098 58.0702C67.0366 58.4825 78.9301 70.2127 78.9301 84.644C78.9301 99.0753 66.6067 111.235 51.409 111.235C44.8343 111.235 38.8075 109.005 34.0703 105.294C39.1278 109.484 45.7531 112.034 53.019 112.034C68.8573 112.034 81.6948 99.9505 81.6948 85.0395C81.6948 70.1285 68.8573 58.0449 53.019 58.0449L53.0274 58.0533Z" fill="#B31012"/>
<path d="M298.129 0.664062C297.708 0.664062 297.286 0.680892 296.865 0.697722C310.773 1.32041 321.866 12.7729 321.866 26.8087C321.866 40.8446 310.141 52.9534 295.676 52.9534C291.858 52.9534 288.234 52.1288 284.955 50.6646C288.883 52.6252 293.367 53.736 298.121 53.736C313.689 53.736 326.316 41.8543 326.316 27.2042C326.316 12.5541 313.698 0.664062 298.129 0.664062Z" fill="#B31012"/>
<path d="M132.843 81.9096C132.691 81.8339 132.539 81.775 132.388 81.6992C137.934 87.8168 138.507 99.3282 133.155 109.998C127.389 121.501 116.726 128.098 108.112 126.037C108.736 126.499 109.393 126.92 110.101 127.274C119.07 131.75 131.435 125.229 137.706 112.699C143.986 100.17 141.803 86.3862 132.834 81.9012L132.843 81.9096Z" fill="#B31012"/>
<path d="M176.809 76.8084C176.464 76.8084 176.118 76.8505 175.781 76.8925C182.743 78.7354 188.205 88.7153 188.45 100.866C188.694 113.278 183.409 123.645 176.303 125.454C176.792 125.521 177.281 125.555 177.778 125.547C185.887 125.387 192.243 114.347 191.973 100.883C191.703 87.4278 184.918 76.6485 176.809 76.8084Z" fill="#B31012"/>
<path d="M238.333 54.8555C237.667 54.8555 237.018 54.8975 236.369 54.9564C247.782 56.0756 256.734 66.8718 256.734 80.024C256.734 93.1763 247.782 103.964 236.369 105.092C237.018 105.159 237.676 105.193 238.333 105.193C250.665 105.193 260.67 93.9252 260.67 80.024C260.67 66.1228 250.673 54.8555 238.333 54.8555Z" fill="#B31012"/>
<path d="M52.2099 58.0793C51.9486 58.0793 51.6789 58.0625 51.4176 58.0625C36.2199 58.0625 23.8965 69.9694 23.8965 84.6532C23.8965 92.9922 27.8666 100.431 34.0789 105.303C38.8076 109.014 44.8428 111.244 51.4176 111.244C66.6153 111.244 78.9386 99.3369 78.9386 84.6532C78.9386 69.9694 67.0451 58.4832 52.2183 58.0793H52.2099Z" fill="#E0040B"/>
<path d="M296.865 0.689909C296.469 0.67308 296.073 0.65625 295.677 0.65625C281.212 0.65625 269.487 12.3612 269.487 26.8009C269.487 37.4288 275.843 46.5588 284.955 50.6484C288.225 52.1125 291.85 52.9372 295.677 52.9372C310.141 52.9372 321.866 41.2323 321.866 26.7925C321.866 12.3528 310.782 1.30419 296.865 0.681494V0.689909Z" fill="#E0040B"/>
<path d="M128.518 78.7455C119.55 74.2689 107.083 80.9923 100.677 93.7743C94.271 106.556 96.3529 120.55 105.322 125.027C106.223 125.473 107.159 125.809 108.12 126.037C116.735 128.09 127.397 121.493 133.163 109.998C138.507 99.328 137.942 87.8166 132.396 81.6991C131.3 80.4874 130.01 79.486 128.527 78.7455H128.518Z" fill="#E0040B"/>
<path d="M175.781 76.8931C174.963 76.6743 174.137 76.5649 173.286 76.5818C165.177 76.7416 158.83 87.8744 159.1 101.447C159.369 115.02 166.163 125.892 174.264 125.732C174.955 125.716 175.638 125.615 176.303 125.446C183.409 123.637 188.694 113.27 188.45 100.858C188.205 88.7074 182.735 78.7275 175.781 76.8847V76.8931Z" fill="#E0040B"/>
<path d="M236.37 54.9564C235.72 54.8891 235.063 54.8555 234.406 54.8555C222.074 54.8555 212.068 66.1228 212.068 80.024C212.068 93.9252 222.065 105.193 234.406 105.193C235.071 105.193 235.72 105.151 236.37 105.092C247.783 103.972 256.734 93.1763 256.734 80.024C256.734 66.8718 247.783 56.084 236.37 54.9564Z" fill="#E0040B"/>
<path d="M259.271 163.113L264.329 178.444L269.985 163.096L272.134 163.23L277.166 178.242L281.929 163.113H285.671L278.397 184.806L275.447 184.705L270.802 170.778L265.745 184.705L263.107 184.915L255.529 163.113H259.271Z" fill="black"/>
<path d="M326.131 178.241V163.111H329.773V184.897C328.854 184.779 327.682 185.191 326.932 184.602L314.196 169.565V184.897H310.554V163.111C311.481 163.229 312.872 162.808 313.606 163.397L326.131 178.241Z" fill="black"/>
<path d="M296.351 162.766C305.184 162.076 310.495 168.968 308.388 177.391C305.715 188.078 288.04 188.019 285.764 176.844C284.255 169.439 288.824 163.364 296.351 162.775V162.766ZM296.966 165.787C285.857 166.116 286.598 184.283 299.073 182.028C303.878 181.161 305.488 176.945 305.1 172.485C304.712 168.026 301.214 165.661 296.966 165.787Z" fill="black"/>
<path d="M347.372 181.473V176.23H342.113V173.201H351.014V183.29C344.523 186.564 334.771 186.168 332.048 178.3C327.935 166.419 342.037 158.012 351.216 165.636L348.451 167.723C341.48 162.439 332.655 168.851 335.546 177.232C337.299 182.323 342.829 182.971 347.372 181.473Z" fill="black"/>
<path d="M210.821 179.454V163.113H213.855V184.899L211.428 184.798L197.671 168.557V184.899H194.637V163.113C195.488 163.214 196.592 162.843 197.283 163.399L210.821 179.454Z" fill="black"/>
<path d="M30.9348 162.767C39.1448 161.993 44.826 167.95 43.4942 176.096C42.6007 181.599 38.3946 184.94 32.8988 185.293C17.0689 186.32 15.9478 164.172 30.9348 162.758V162.767ZM30.5218 165.384C24.6551 166.091 22.1432 172.461 23.9976 177.627C26.7118 185.184 39.4229 184.216 40.426 175.86C41.252 168.977 37.7034 164.517 30.5218 165.384Z" fill="black"/>
<path d="M89.6013 162.767C98.4351 161.976 103.906 168.843 101.765 177.316C100.332 182.996 94.9538 185.706 89.34 185.294C75.491 184.292 75.2213 164.055 89.6013 162.759V162.767ZM88.986 165.384C79.1577 166.714 79.2419 183.838 91.7592 182.677C96.176 182.264 98.8397 179.008 99.1431 174.708C99.5983 168.313 95.3163 164.526 88.986 165.384Z" fill="black"/>
<path d="M179.827 162.767C188.703 162.035 194.249 169.095 191.855 177.586C188.711 188.735 170.26 187.624 169.147 175.717C168.481 168.615 172.671 163.356 179.827 162.767ZM179.212 165.384C169.822 166.52 169.687 181.801 179.363 182.676C184.143 183.106 188.222 181.002 189.124 176.071C190.38 169.171 186.292 164.534 179.22 165.384H179.212Z" fill="black"/>
<path d="M54.7473 163.113C56.9641 163.39 59.7795 165.216 60.2178 167.539C60.9511 171.418 58.9787 174.17 55.253 175.112L61.5243 184.899H58.1863L52.4208 175.819H48.9818V184.899H45.9473V163.113C48.712 163.365 52.0584 162.776 54.7473 163.113ZM48.9818 173.202H53.5335C53.9296 173.202 55.5649 172.487 55.9611 172.192C57.6385 170.938 57.866 167.833 56.1381 166.571C55.9611 166.445 54.4438 165.738 54.3511 165.738H48.9902V173.202H48.9818Z" fill="black"/>
<path d="M112.605 163.113C114.847 163.399 117.595 165.216 118.075 167.539C118.868 171.334 116.769 174.237 113.11 175.112L119.382 184.899H116.044L110.278 175.819H106.839V184.899H103.805V163.113C106.569 163.365 109.916 162.776 112.605 163.113ZM106.839 173.202H111.391C111.787 173.202 113.422 172.487 113.818 172.192C115.496 170.938 115.723 167.833 113.995 166.571C113.818 166.445 112.301 165.738 112.209 165.738H106.848V173.202H106.839Z" fill="black"/>
<path d="M242.177 163.111V166.141H233.074V172.393H241.57V175.414H233.074V181.876H242.784V184.897H229.432V163.111H242.177Z" fill="black"/>
<path d="M120.595 184.898L129.674 163.23L132.034 163.096L141.432 184.898H138.195L135.565 178.537C135.195 178.318 127.844 178.326 126.951 178.427C126.664 178.461 126.42 178.444 126.268 178.756L123.824 184.89H120.587L120.595 184.898ZM134.554 176.021L131.014 167.547L127.474 176.021H134.554Z" fill="black"/>
<path d="M66.5818 176.625V184.897H63.5474V163.111H71.9428C72.4064 163.111 74.5052 163.827 75.011 164.087C79.6217 166.469 78.7704 173.167 74.4799 175.523C73.8983 175.843 71.9006 176.625 71.3359 176.625H66.5818ZM66.5818 174.008H71.3359C71.8753 174.008 73.578 173.041 73.9742 172.603C75.0784 171.4 75.2891 168.682 74.3535 167.361C73.8815 166.696 72.3052 165.737 71.5382 165.737H66.5818V174.008Z" fill="black"/>
<path d="M146.557 180.387C149.389 183.214 154.86 183.484 157.953 180.892L160.238 182.575C154.127 187.699 143.261 185.36 141.483 177.071C139.392 167.336 148.546 160.183 157.658 163.566C158.35 163.818 160.229 164.693 160.651 165.223C160.887 165.518 160.887 165.35 160.634 165.619C160.17 166.115 159.201 166.595 158.695 167.108C155.973 165.249 153.14 164.735 149.988 165.888C144.138 168.026 142.208 176.045 146.557 180.378V180.387Z" fill="black"/>
<path d="M11.7164 162.766C14.7677 162.489 18.1141 163.431 20.4489 165.434L18.2995 167.117C16.9003 166.444 15.8972 165.543 14.262 165.358C10.3256 164.895 5.89186 166.856 4.51791 170.727C1.39071 179.545 10.1233 186.025 17.6926 180.9L19.842 182.583C13.0903 188.145 1.56772 184.838 0.834385 175.523C0.294922 168.657 4.89722 163.398 11.7164 162.775V162.766Z" fill="black"/>
<path d="M166.72 163.111H163.685V184.897H166.72V163.111Z" fill="black"/>
<path d="M184.926 156.254C183.637 157.861 182.221 159.822 180.779 161.303C179.81 162.296 178.95 162.296 177.534 162.111C177.256 162.077 177.18 162.22 177.239 161.808L181.791 156.254H184.926Z" fill="black"/>
<path d="M246.164 181.313C249.62 180.522 250.269 184.948 247.142 185.117C244.209 185.277 243.956 181.818 246.164 181.313Z" fill="black"/>
</g>
<defs>
<clipPath id="clip0_316_1771">
<rect width="352" height="186" fill="white"/>
</clipPath>
</defs>
</svg>
