<svg width="520" height="40" viewBox="0 0 520 40" fill="none" xmlns="http://www.w3.org/2000/svg">
<mask id="mask0_316_1738" style="mask-type:luminance" maskUnits="userSpaceOnUse" x="0" y="0" width="518" height="40">
<path d="M517.692 0H0.769043V40H517.692V0Z" fill="white"/>
</mask>
<g mask="url(#mask0_316_1738)">
<path d="M50.2583 39.3222V0.730469H53.7721V39.3222H50.2583Z" fill="black"/>
<path d="M89.2532 39.9949C82.6772 39.9949 77.7452 38.346 74.4569 35.0485C71.1689 31.7509 69.5249 26.7423 69.5249 20.0226C69.5249 15.6785 70.2754 12.0226 71.7763 9.0548C73.2089 6.15957 75.5711 3.79917 78.504 2.33176C81.4852 0.814196 85.1683 0.0554108 89.5535 0.0554108C92.0529 0.021211 94.5455 0.31491 96.9646 0.928602C98.9655 1.42938 100.847 2.30729 102.502 3.51283C104.01 4.64637 105.208 6.12516 105.99 7.81818C106.834 9.7292 107.247 11.7947 107.202 13.875H103.165C103.219 12.1766 102.865 10.4893 102.13 8.9488C101.472 7.66092 100.489 6.55781 99.2726 5.74375C97.96 4.89513 96.4904 4.30369 94.9461 4.00243C93.1735 3.63492 91.3655 3.45553 89.5535 3.46741C87.3347 3.44215 85.1249 3.73984 82.9963 4.35067C81.1277 4.89033 79.4178 5.85572 78.0074 7.1671C76.5594 8.55738 75.4701 10.263 74.8295 12.1437C74.0483 14.5047 73.6791 16.977 73.7375 19.4573V20.6384C73.7375 24.4643 74.3517 27.5498 75.58 29.8952C76.6963 32.1263 78.5581 33.9208 80.8591 34.9829C83.4261 36.0909 86.2138 36.6288 89.0203 36.5577C92.4708 36.5577 95.2308 36.0983 97.3009 35.1798C99.2714 34.3423 100.861 32.8331 101.773 30.9349C102.694 29.0237 103.154 26.6043 103.154 23.6769V22.7229H88.2129V19.3463H107.191V39.3186H103.972L103.454 34.0288C102.536 35.4518 101.279 36.6377 99.7901 37.4863C98.2424 38.3792 96.5581 39.0251 94.8012 39.3992C92.98 39.7965 91.1194 39.9961 89.2532 39.9949Z" fill="black"/>
<path d="M126.172 39.3222V0.730469H130.829V39.3222H126.172Z" fill="black"/>
<path d="M159.653 39.3222V5.22763H145.985V0.730469H178.688V5.22763H164.963V39.3222H159.653Z" fill="black"/>
<path d="M185.998 39.3222L201.57 0.730469H209.302L224.937 39.3222H218.473L214.783 30.0907H195.748L192.125 39.3173L185.998 39.3222ZM197.709 25.1444H212.821L208.205 13.3841C208.05 13.0459 207.869 12.5866 207.656 12.0062L206.937 10.0378C206.668 9.30588 206.419 8.56895 206.161 7.81692C205.902 7.06486 205.643 6.37338 205.436 5.73237H205.09L204.168 8.32163L203.133 11.1633C202.805 12.0819 202.526 12.8222 202.295 13.3841L197.709 25.1444Z" fill="black"/>
<path d="M238.726 39.3222V0.730469H245.36V33.6945H265.146V39.3222H238.726Z" fill="black"/>
<path d="M279.453 39.3238V0.731938H286.838V16.4644H305.469V0.716797H312.855V39.3085H305.469V22.6525H286.838V39.3085L279.453 39.3238Z" fill="black"/>
<path d="M348.046 39.9936C343.907 39.9936 340.32 39.2717 337.286 37.828C334.292 36.4093 331.855 34.0797 330.335 31.1908C328.723 28.2097 327.914 24.4864 327.914 20.0212C327.914 15.4887 328.723 11.7487 330.335 8.80104C331.874 5.94396 334.307 3.64374 337.286 2.23952C340.304 0.795991 343.892 0.0742188 348.046 0.0742188C352.277 0.0742188 355.898 0.795991 358.914 2.23952C361.883 3.64931 364.307 5.94876 365.84 8.80104C367.455 11.7419 368.261 15.482 368.261 20.0212C368.261 24.4898 367.455 28.213 365.84 31.1908C364.326 34.0748 361.898 36.4034 358.914 37.828C355.901 39.2717 352.28 39.9936 348.046 39.9936ZM348.046 33.432C349.775 33.4625 351.495 33.1871 353.123 32.6194C354.532 32.108 355.797 31.2776 356.812 30.1966C357.855 29.06 358.631 27.7169 359.092 26.2597C359.64 24.502 359.904 22.6712 359.874 20.8338V19.3196C359.901 17.4708 359.64 15.6287 359.092 13.8585C358.637 12.3921 357.858 11.0401 356.812 9.8963C355.797 8.81534 354.532 7.98504 353.123 7.47359C349.83 6.39002 346.264 6.39002 342.969 7.47359C341.566 7.98033 340.307 8.81165 339.304 9.8963C338.28 11.0437 337.52 12.3959 337.086 13.8585C336.557 15.632 336.304 17.4729 336.335 19.3196V20.8338C336.301 22.6691 336.554 24.4986 337.086 26.2597C337.523 27.7133 338.283 29.0565 339.304 30.1966C340.307 31.2813 341.566 32.1126 342.969 32.6194C344.6 33.1813 346.32 33.4499 348.046 33.4117V33.432Z" fill="black"/>
<path d="M400.766 39.9937C397.074 39.9937 393.911 39.4316 391.28 38.3079C388.751 37.2756 386.628 35.4823 385.218 33.1897C383.815 30.9051 383.114 28.055 383.114 24.6396V0.669922H392.237V24.3923C392.237 27.0573 392.969 29.1301 394.431 30.6106C395.895 32.0913 397.991 32.8316 400.72 32.8316C403.48 32.8316 405.606 32.0913 407.095 30.6106C408.585 29.1301 409.326 27.0573 409.317 24.3923V0.669922H418.486V24.6396C418.486 28.0516 417.775 30.9017 416.348 33.1897C414.923 35.4771 412.797 37.2679 410.268 38.3079C407.628 39.435 404.461 39.9968 400.766 39.9937Z" fill="black"/>
<path d="M451.468 39.9946C449.105 40.0091 446.748 39.7925 444.428 39.3485C442.388 38.9719 440.428 38.2583 438.631 37.2386C437 36.3057 435.64 34.9796 434.683 33.3876C433.668 31.59 433.169 29.5585 433.24 27.5075V27.0028C433.234 26.8511 433.255 26.6997 433.295 26.5536H443.28C443.277 26.6937 443.268 26.8336 443.249 26.9725C443.231 27.1131 443.219 27.2547 443.219 27.3964C443.166 28.4425 443.505 29.4712 444.169 30.2936C444.883 31.0706 445.818 31.6196 446.855 31.8685C448.172 32.2159 449.529 32.3857 450.892 32.3731C451.683 32.3749 452.471 32.3362 453.259 32.2571C453.923 32.194 454.582 32.062 455.218 31.8632C455.766 31.6971 456.289 31.4611 456.772 31.1617C457.182 30.9122 457.52 30.5648 457.754 30.1523C457.972 29.7243 458.08 29.2517 458.071 28.7744C458.077 28.3651 457.988 27.96 457.806 27.59C457.628 27.2199 457.363 26.8948 457.037 26.6394C456.231 26.0054 455.311 25.5274 454.323 25.2312C453.188 24.8577 451.911 24.501 450.489 24.1611C449.065 23.823 447.585 23.4696 446.049 23.0911C444.535 22.7255 443.049 22.2566 441.603 21.688C440.228 21.1512 438.938 20.431 437.769 19.5479C436.628 18.6799 435.702 17.5745 435.055 16.3126C433.846 13.9752 433.585 11.2796 434.323 8.76257C435.062 6.24553 436.745 4.09177 439.037 2.73023C440.702 1.75036 442.523 1.05556 444.428 0.675966C446.572 0.233055 448.757 0.0164554 450.951 0.0299104C453.095 0.0159234 455.234 0.241144 457.326 0.701196C459.194 1.11009 460.975 1.82337 462.6 2.81099C464.148 3.72386 465.422 5.01876 466.292 6.56509C467.163 8.11143 467.603 9.85451 467.563 11.6186V12.2898H457.64V11.8962C457.655 11.0823 457.403 10.2854 456.923 9.6198C456.366 8.90891 455.615 8.36356 454.76 8.04506C453.618 7.62085 452.403 7.42017 451.182 7.45454C449.963 7.42916 448.745 7.56153 447.56 7.8482C446.726 8.03599 445.951 8.42269 445.308 8.97374C445.062 9.19485 444.865 9.46408 444.732 9.76405C444.597 10.064 444.529 10.388 444.532 10.7151C444.529 11.1074 444.622 11.4949 444.8 11.8459C444.982 12.1968 445.243 12.5012 445.566 12.734C446.391 13.336 447.32 13.7922 448.305 14.0816C449.462 14.4552 450.751 14.8017 452.172 15.1214C453.594 15.4444 455.065 15.7776 456.585 16.1309C458.083 16.484 459.557 16.9342 460.994 17.4785C462.375 18.0005 463.674 18.7017 464.862 19.563C466 20.3917 466.938 21.4572 467.603 22.6823C468.323 24.0776 468.677 25.6237 468.64 27.1845C468.64 30.2566 467.898 32.7316 466.418 34.6091C464.849 36.5457 462.717 37.9771 460.302 38.7177C457.449 39.6159 454.465 40.0472 451.468 39.9946Z" fill="black"/>
<path d="M483.425 39.3232V0.615234H517.289V9.50356H495.428V15.414H514.985V23.9641H495.428V30.4348H517.68V39.3232H483.425Z" fill="black"/>
<path d="M18.9189 39.2777H0.769043V0.736328H18.9189C23.0697 0.740337 27.0494 2.35023 29.9845 5.2127C32.9195 8.07516 34.5703 11.9564 34.5743 16.0045V24.0348C34.5635 28.0785 32.9097 31.9534 29.9753 34.8103C27.041 37.6672 23.0653 39.2737 18.9189 39.2777ZM3.91049 36.2189H18.9189C22.2335 36.2149 25.4115 34.9309 27.7577 32.6475C30.1038 30.364 31.4272 27.2673 31.438 24.0348V16.0045C31.434 12.7676 30.1137 9.66433 27.7668 7.3755C25.4199 5.08664 22.238 3.79901 18.9189 3.79501H3.91049V36.2189Z" fill="black"/>
</g>
</svg>
