<svg width="336" height="81" viewBox="0 0 336 81" fill="none" xmlns="http://www.w3.org/2000/svg">
<mask id="mask0_316_1864" style="mask-type:luminance" maskUnits="userSpaceOnUse" x="0" y="0" width="336" height="81">
<path d="M335.917 0H0V81H335.917V0Z" fill="white"/>
</mask>
<g mask="url(#mask0_316_1864)">
<path d="M233.917 61.5007C231.75 65.084 228.333 66.9173 224.583 66.9173C218.5 66.9173 212.083 62.1673 212.083 53.084C212.083 44.1673 218.417 39.5007 224.583 39.5007C228.25 39.334 231.833 41.1673 233.917 44.584L234.083 44.4173L244 35.9173C239.25 29.834 231.917 26.7506 224.417 26.7506C211.417 26.7506 197.917 35.6673 197.917 53.2507C197.917 71.0007 211.333 79.7507 224.25 79.6673C231.917 79.5007 239.25 76.4173 244 70.5007L233.917 61.5007ZM324.5 59.2507V2.08398H310.333V59.2507C310.333 77.2507 319.5 81.084 334.833 78.2507L334.333 67.4173C327.583 68.584 324.5 67.0007 324.5 59.2507ZM296.75 63.834V46.2507C296.75 31.7507 286.083 26.7506 273.417 26.7506C266.833 26.7506 258.75 28.334 252.667 31.9173L257.5 41.584C260.667 39.7507 265.667 38.2507 271.5 38.2507C276.5 38.2507 283 39.6673 283 45.7507V48.584C279.333 46.1673 274.333 45.334 269.917 45.334C259 45.334 250.167 51.1673 250.667 63.4173C250.917 73.084 259.333 79.1673 268.667 79.1673C275 79.1673 282.833 76.7507 285.75 70.5007C285.75 79.4173 293.917 79.834 301.417 78.2507L301.167 70.1673C296.583 70.5007 296.75 68.084 296.75 63.834ZM282.75 60.334C282.25 65.6673 276.25 68.0007 271.5 68.0007C268.167 68.0007 265 66.1673 264.75 62.584C264.25 57.6673 267.917 55.084 272.417 54.834C276 54.834 279.833 55.7507 282.583 57.834V60.4173H282.75V60.334ZM164 26.6673C151 26.834 138 35.584 138 53.084C138 70.6673 151.25 79.5007 164.333 79.5007C177.333 79.5007 190.333 70.6673 190.333 53.084C190.5 35.334 177.25 26.584 164 26.6673ZM164.083 66.6673C158.083 66.6673 152.25 62.1673 152.25 53.084C152.25 44.0007 158.25 39.5007 164.333 39.5007C170.333 39.5007 176.167 44.0007 176.167 53.084C176.25 62.2507 170.25 66.7507 164.083 66.6673ZM123.083 59.2507V2.08398H108.917V59.2507C108.917 77.2507 118.083 81.084 133.417 78.2507L132.917 67.4173C126.167 68.584 123.083 67.0007 123.083 59.2507ZM49.8333 61.584V2.25065H35.4167V30.084C18.25 21.4173 0.5 33.4173 0.5 53.2507C0.5 67.334 8.41667 79.9173 23.3333 79.5007C29.8333 79.334 35.4167 76.0007 38.25 69.834V71.1673C38.5 79.834 47.4167 80.0007 54.5833 78.2507L54.4167 68.834C50 69.2507 49.8333 66.5007 49.8333 61.584ZM35.9167 55.1673C35.9167 61.2507 32 66.584 25.75 66.584C18.0833 66.584 14.9167 60.4173 14.9167 53.1673C14.9167 40.584 25.75 36.2507 36.0833 42.334V55.1673H35.9167Z" fill="#010202"/>
<path d="M87.3335 42.168H73.0835V56.668H87.3335V42.168Z" fill="#472682"/>
</g>
</svg>
