<svg width="278" height="81" viewBox="0 0 278 81" fill="none" xmlns="http://www.w3.org/2000/svg">
<g clip-path="url(#clip0_316_1705)">
<path fill-rule="evenodd" clip-rule="evenodd" d="M0.217724 5.91801L0.219702 11.4122L12.4464 24.826C19.171 32.2037 24.6652 38.2615 24.6555 38.2875C24.6459 38.3138 21.6063 41.769 17.9008 45.9659C14.1954 50.1628 8.71686 56.3688 5.72636 59.7568L0.28905 65.9168V71.5375V77.1584H29.9837H59.6786V64.1857V51.2127H53.0147H46.3508V57.2031V63.1933H33.6453C26.6573 63.1933 20.9399 63.1783 20.9399 63.1601C20.9399 63.1416 25.7854 57.4467 31.7076 50.5048L42.4755 37.8827L42.0797 37.4735C41.773 37.1563 21.1929 14.7561 20.5502 14.0398L20.4017 13.8745H32.9004H45.3987V19.0934V24.3123L52.0444 24.2935L58.6898 24.2748L58.7131 20.6733C58.7257 18.6924 58.7137 13.3259 58.6859 8.74778L58.6354 0.423828H29.4256H0.21582L0.217724 5.91801ZM211.118 3.41083C211.017 3.42566 210.689 3.47424 210.39 3.51881C208.938 3.7343 207.6 4.42102 206.409 5.5619C205.117 6.80037 204.426 8.0288 204.083 9.70006C203.951 10.3436 203.933 10.627 203.964 11.5959C204.008 13.0121 204.164 13.6837 204.707 14.7932C205.706 16.8365 207.483 18.3019 209.727 18.9331C210.371 19.1145 210.527 19.1289 211.85 19.1291C213.115 19.1293 213.353 19.1096 213.927 18.9573C215.388 18.57 216.346 18.0233 217.423 16.9615C218.574 15.8276 219.185 14.7772 219.562 13.2864C219.697 12.7533 219.72 12.4621 219.716 11.3019C219.712 10.0757 219.693 9.87227 219.521 9.23045C218.809 6.5742 216.755 4.44667 214.184 3.70357C213.265 3.4378 211.851 3.30283 211.118 3.41083ZM123.022 18.8725V26.443H120.313H117.603V32.3965V38.3502H120.313H123.022V57.7543V77.1584H130.089H137.156V57.7549V38.3514L141.568 38.3323L145.98 38.3135L145.999 32.3783L146.017 26.443H141.587H137.156V18.8725V11.3019H130.089H123.022V18.8725ZM168.718 25.7526C163.951 26.1769 159.887 27.6904 156.307 30.3752C150.481 34.7434 146.938 41.3368 146.303 48.9917C146.181 50.4654 146.256 53.4959 146.449 54.9298C147.481 62.5879 151.328 69.3508 157.117 73.6843C158.274 74.5506 159.319 75.1864 160.772 75.908C162.881 76.9552 164.955 77.617 167.261 77.979C168.168 78.1213 168.601 78.1443 170.366 78.1443C171.941 78.1443 172.59 78.1156 173.169 78.0205C177.496 77.3091 180.953 75.5942 184.138 72.5795L184.803 71.9506L185.266 74.4627C185.52 75.8444 185.744 77.0161 185.762 77.0667C185.789 77.139 187.055 77.1584 191.756 77.1584H197.717V51.7639V26.3695H192.267H186.817L186.742 26.6084C186.701 26.7398 186.381 27.9388 186.032 29.2728C185.683 30.6069 185.375 31.7219 185.349 31.7509C185.323 31.7799 185.022 31.5485 184.68 31.2364C183.097 29.7929 181.675 28.8016 179.938 27.9309C177.833 26.8751 175.927 26.2819 173.478 25.9205C172.525 25.7799 169.579 25.676 168.718 25.7526ZM93.3283 25.8622C90.4804 26.0549 87.8615 26.8383 85.4749 28.2113C83.2973 29.464 81.6849 30.6709 80.0991 32.2345C79.46 32.865 79.3126 32.9783 79.2797 32.8653C79.2576 32.7893 78.9721 31.3712 78.6451 29.7138C78.3181 28.0564 78.0338 26.6424 78.0132 26.5717C77.9782 26.4505 77.627 26.443 71.9641 26.443H65.9522L66.0009 32.5191C66.0275 35.8608 66.0496 47.2716 66.0496 57.8766V77.1584H73.187H80.3245L80.349 63.5424C80.3762 48.4877 80.3493 49.3575 80.8494 47.3171C81.886 43.0882 84.5453 40.4125 88.5174 39.6021C89.5083 39.3998 91.0529 39.3077 92.1927 39.3827C94.7018 39.5477 96.562 40.3393 97.9535 41.8342C99.4586 43.4514 100.249 45.6568 100.465 48.841C100.51 49.5058 100.539 55.2045 100.54 63.5424L100.541 77.1584H107.682H114.824L114.801 60.4554C114.776 42.2551 114.804 43.5145 114.378 41.2902C113.794 38.2396 112.546 35.329 110.868 33.1014C109.763 31.634 108.24 30.2039 106.656 29.1467C105.676 28.4928 103.671 27.474 102.559 27.0654C100.807 26.4213 98.5601 25.9932 96.2204 25.8578C94.8038 25.7759 94.5999 25.7762 93.3283 25.8622ZM253.335 25.8601C251.468 25.9811 249.443 26.4272 247.806 27.0778C245.344 28.0568 242.367 30.0207 240.33 32.0091C239.686 32.6381 239.301 32.9651 239.279 32.9014C239.261 32.8461 238.978 31.4448 238.651 29.7873C238.324 28.1299 238.038 26.6994 238.017 26.6084L237.977 26.443H231.981H225.984V48.5914C225.984 60.7732 226.005 72.184 226.032 73.9492L226.081 77.1584H233.207H240.333L240.356 63.4321C240.382 48.3833 240.355 49.3118 240.814 47.4029C241.596 44.1428 243.358 41.7637 245.96 40.452C247.609 39.6207 249.924 39.2228 252.178 39.383C254.103 39.5199 255.366 39.9034 256.63 40.7342C257.413 41.2486 257.893 41.6958 258.428 42.409C259.49 43.8241 260.163 45.7722 260.398 48.1152C260.449 48.6153 260.475 53.7245 260.475 63.0175V77.1584H267.652H274.828V61.1827C274.828 51.0743 274.801 44.859 274.754 44.2594C274.125 36.2159 270.323 30.4801 263.66 27.5216C261.508 26.5657 259.08 26.0221 256.228 25.8576C254.821 25.7765 254.622 25.7766 253.335 25.8601ZM204.894 51.7639V77.1584H211.85H218.807V51.7639V26.3695H211.85H204.894V51.7639ZM174.34 38.1951C177.711 38.9454 180.596 41.1051 182.448 44.2639C183.449 45.9701 184.076 47.8856 184.322 49.9913C184.446 51.0426 184.371 53.3156 184.179 54.3382C183.347 58.7758 180.659 62.4262 176.902 64.2222C176.022 64.6431 175.272 64.8977 174.251 65.1225C173.62 65.2618 173.295 65.2848 171.977 65.2839C170.55 65.283 170.375 65.2678 169.566 65.0768C167.198 64.5181 165.266 63.4139 163.551 61.6383C162.082 60.1188 161.044 58.4027 160.376 56.3921C158.668 51.2533 159.869 45.528 163.439 41.7858C165.351 39.7815 167.501 38.5936 170.073 38.1204C171.087 37.9338 173.343 37.9733 174.34 38.1951Z" fill="#BE02FF"/>
</g>
<defs>
<clipPath id="clip0_316_1705">
<rect width="278" height="80.7097" fill="white"/>
</clipPath>
</defs>
</svg>
