<svg width="220" height="63" viewBox="0 0 220 63" fill="none" xmlns="http://www.w3.org/2000/svg">
<g clip-path="url(#clip0_316_1802)">
<path d="M35.98 0L31.91 7.19C27.9 6.61 23.93 5.58 19.9 5.13C16.33 4.73 12.7 4.68 9.11 4.69V26.99H31.28L26.81 34.13C22.31 33.07 17.8 31.81 13.14 31.53C11.81 31.45 10.38 31.7 9.1 31.38V57.35C13.57 57.39 18.09 57.23 22.51 56.6C28.02 55.82 33.26 53.92 38.61 52.51L33.1 61.9H0C0.68 59.66 1.58 57.46 1.77 55.09V6.08C1.51 3.97 0.83 1.94 0 0H35.98Z" fill="#1D1D1B"/>
<path d="M152.27 19.2209C151.46 21.1609 150.83 23.1909 150.65 25.3009C151.05 33.7709 150.14 42.7109 150.65 51.1309C150.79 53.4709 151.09 54.9809 153.25 56.1609C159.86 59.7709 170.69 58.2209 171.95 49.6609C171.56 41.7709 172.45 33.4209 171.95 25.5909C171.81 23.3709 171.06 21.2809 170.33 19.2109H180.17C179.52 21.1709 178.64 23.0609 178.4 25.1509C178.91 35.3809 177.74 46.2509 178.4 56.4109C178.54 58.4909 179.42 60.0309 180.17 61.9009H171.95V55.7409C171.14 56.5009 170.25 57.2509 169.53 58.0909C169.05 58.6409 167.97 60.3809 167.54 60.6509C166.95 61.0109 164.8 61.5209 164.03 61.6909C156.68 63.2609 145.35 61.7209 144.35 52.5909C143.39 43.8209 144.92 33.9609 144.2 25.1609C144.04 23.1809 143.14 20.9209 142.15 19.2209H152.28H152.27Z" fill="#1D1D1B"/>
<path d="M53.8898 19.2207C53.1398 20.8107 53.0898 21.9907 53.8598 23.5707L62.6198 35.8007L70.6998 23.3307C71.3998 21.8207 71.4798 20.8107 70.9198 19.2207H82.2298L78.9198 22.5907C74.2898 28.1407 70.2598 34.1707 65.9698 39.9807L80.4698 59.4907L81.3598 60.3607L83.9898 61.9107H72.6798C73.0098 60.7507 73.0098 59.6907 72.3598 58.6407C68.8398 54.2107 65.8098 48.5707 62.1698 44.3207C62.0498 44.1807 61.9598 43.9807 61.7398 44.0107L51.9498 59.0207C51.3898 59.9107 51.3298 60.8807 51.3898 61.9107H40.8198C42.5898 60.5307 44.2398 59.1807 45.6598 57.4307C50.0598 52.0107 53.7398 45.5907 58.1198 40.1007L58.2898 39.6807C54.6798 34.8607 51.3098 29.7207 47.5698 25.0207C45.8998 22.9207 44.1498 21.0107 42.1398 19.2207H53.8898Z" fill="#1D1D1B"/>
<path d="M218.65 26.5492C216.57 25.5792 214.56 24.3292 212.34 23.6892C208.28 22.5192 200.29 22.6392 198.79 27.6092C197.61 31.5192 200.25 33.7892 203.19 35.6192C209.81 39.7392 221.57 42.6492 219.64 52.8492C218.48 58.9892 211.47 62.0392 205.81 62.3592C200.98 62.6292 196.55 62.0992 192.07 60.2992V52.8192C194.9 54.9392 197.59 57.1492 201.17 57.8792C205.22 58.6992 211.18 57.7292 212.74 53.2992C215.51 45.3992 202.41 42.6892 197.9 39.7392C193.72 36.9992 191.38 32.9692 192.26 27.8492C194.11 17.0692 210.96 17.1992 218.65 20.7692V26.5592V26.5492Z" fill="#1D1D1B"/>
<path d="M123.05 19.2196H134.21V23.1796H123.05V54.2096C123.05 54.7796 123.65 56.2596 124.07 56.7096C125.78 58.5496 131.31 58.1696 133.47 57.2896C133.78 57.1596 135.43 56.0996 135.53 56.1896C134.22 57.8196 133.39 59.7496 132.49 61.6196C128.03 62.3096 121.46 62.6896 118.21 58.8996C117.48 58.0496 116.59 56.1996 116.59 55.0896V23.1796H111.16C114.35 20.0796 117.9 17.2696 120.3 13.4596L123.06 9.09961V19.2196H123.05Z" fill="#1D1D1B"/>
<path d="M101.03 19.2207C100.28 21.2907 99.54 23.3907 99.26 25.6007C99.74 35.5607 98.64 46.0907 99.26 55.9807C99.4 58.1407 100.17 59.9707 101.03 61.9107H91.04C91.96 60.1507 92.68 58.2807 92.81 56.2707C93.45 46.2407 92.31 35.5507 92.81 25.4507C92.61 23.2807 91.99 21.1707 91.04 19.2207H101.03Z" fill="#1D1D1B"/>
<path d="M95.4102 3.5596C97.4802 3.3096 100.06 4.3596 100.52 6.5896C101.36 10.6996 96.4802 12.5596 93.4302 10.5896C90.0602 8.3996 91.7602 3.9996 95.4102 3.5596Z" fill="#1D1D1B"/>
</g>
<defs>
<clipPath id="clip0_316_1802">
<rect width="219.85" height="62.42" fill="white"/>
</clipPath>
</defs>
</svg>
