<svg width="338" height="62" viewBox="0 0 338 62" fill="none" xmlns="http://www.w3.org/2000/svg">
<mask id="mask0_316_1658" style="mask-type:luminance" maskUnits="userSpaceOnUse" x="0" y="0" width="338" height="62">
<path d="M337.909 0H0V61.1112H337.909V0Z" fill="white"/>
</mask>
<g mask="url(#mask0_316_1658)">
<path d="M80.2491 50.3173H86.8282C87.1024 50.3173 87.3421 50.074 87.3421 49.7964V34.2737H99.1303C99.3358 34.2737 99.5412 34.1349 99.6097 33.9264L101.7 28.0924C101.803 27.8146 101.666 27.5368 101.392 27.4326C101.323 27.3979 101.289 27.3979 101.22 27.3979H87.3421V17.6746H105.058C105.264 17.6746 105.47 17.5357 105.538 17.3273L107.662 11.4934C107.765 11.2156 107.628 10.9378 107.354 10.8336C107.286 10.7988 107.251 10.7988 107.183 10.7988H80.2491C79.9749 10.7988 79.7349 11.0419 79.7349 11.3197V49.7964C79.7349 50.1089 79.9749 50.3173 80.2491 50.3173Z" fill="#0078FF"/>
<path d="M122.39 11.1461L108.58 49.6228C108.478 49.9004 108.615 50.1782 108.889 50.2825C108.958 50.3173 108.992 50.3173 109.06 50.3173H115.914C116.119 50.3173 116.325 50.1782 116.394 49.9701L118.621 43.3373H132.499L134.692 49.9701C134.76 50.1782 134.966 50.3173 135.172 50.3173H141.991C142.265 50.3173 142.505 50.074 142.505 49.7964C142.505 49.7267 142.505 49.6922 142.471 49.6228L128.627 11.1461C128.558 10.9377 128.353 10.7988 128.147 10.7988H122.904C122.664 10.7988 122.493 10.9377 122.39 11.1461ZM120.78 36.8434L125.714 22.4668L130.477 36.8434H120.78Z" fill="#0078FF"/>
<path d="M173.647 35.0031L158.329 11.0419C158.227 10.903 158.055 10.7988 157.884 10.7988H151.887C151.613 10.7988 151.373 11.0419 151.373 11.3197V49.7964C151.373 50.074 151.613 50.3173 151.887 50.3173H158.466C158.741 50.3173 158.98 50.074 158.98 49.7964V26.0436L174.298 50.074C174.401 50.2131 174.572 50.3173 174.743 50.3173H180.74C181.014 50.3173 181.254 50.074 181.254 49.7964V11.3197C181.254 11.0419 181.014 10.7988 180.74 10.7988H174.161C173.887 10.7988 173.647 11.0419 173.647 11.3197V35.0031Z" fill="#0078FF"/>
<path d="M254.689 36.4961C254.689 41.0452 252.016 43.7886 247.904 43.7886C243.792 43.7886 241.154 41.0801 241.154 36.4961V11.3197C241.154 11.0419 240.914 10.7988 240.64 10.7988H234.06C233.786 10.7988 233.546 11.0419 233.546 11.3197V36.774C233.546 45.1779 239.92 50.6646 247.904 50.6646C255.888 50.6646 262.262 45.1779 262.262 36.774V11.3197C262.262 11.0419 262.022 10.7988 261.748 10.7988H255.237C254.963 10.7988 254.723 11.0419 254.723 11.3197L254.689 36.4961Z" fill="#0078FF"/>
<path d="M300.401 17.3273L302.491 11.4934C302.594 11.2156 302.458 10.9378 302.183 10.8336C302.114 10.7988 302.08 10.7988 302.012 10.7988H275.112C274.838 10.7988 274.598 11.0419 274.598 11.3197V49.7964C274.598 50.074 274.838 50.3173 275.112 50.3173H302.012C302.285 50.3173 302.524 50.074 302.524 49.7964C302.524 49.7267 302.524 49.6922 302.491 49.6228L300.401 43.7886C300.333 43.5804 300.127 43.4413 299.921 43.4413H282.205V33.8222H296.46C296.734 33.8222 296.974 33.5792 296.974 33.3013V27.4674C296.974 27.1896 296.734 26.9465 296.46 26.9465H282.205V17.6746H299.921C300.127 17.6746 300.333 17.5357 300.401 17.3273Z" fill="#0078FF"/>
<path d="M335.349 43.4413H319.243V11.3197C319.243 11.0419 319.004 10.7988 318.728 10.7988C318.728 10.7988 318.728 10.7988 318.695 10.7988H312.116C311.84 10.7988 311.601 11.0419 311.601 11.3197V49.7964C311.601 50.074 311.84 50.3173 312.116 50.3173H337.404C337.679 50.3173 337.919 50.074 337.919 49.7964C337.919 49.7267 337.919 49.6922 337.885 49.6228L335.795 43.7886C335.761 43.5804 335.555 43.4413 335.349 43.4413Z" fill="#0078FF"/>
<path d="M218.575 14.584C216.005 11.9795 212.339 10.7988 208.261 10.7988H192.772C192.498 10.7988 192.258 11.0419 192.258 11.3197C192.258 11.3545 192.258 11.3892 192.258 11.4239L193.389 17.2579C193.457 17.501 193.629 17.6746 193.869 17.6746H207.473C210.111 17.6746 211.859 18.508 213.161 20.1055C214.6 21.8765 214.806 24.3768 214.806 30.3843C214.806 36.3919 214.6 39.2049 213.161 40.9758C211.859 42.5731 210.077 43.4067 207.473 43.4067H201.819V22.8835C201.819 22.6057 201.579 22.3626 201.305 22.3626H194.725C194.451 22.3626 194.211 22.6057 194.211 22.8835V49.831C194.211 50.1089 194.451 50.3519 194.725 50.3519H208.295C212.339 50.3519 216.04 49.1713 218.61 46.567C222.996 42.1219 222.55 36.3573 222.55 30.4192C222.516 24.4462 222.962 18.9942 218.575 14.584Z" fill="#0078FF"/>
<path d="M24.9481 10.1053C26.1132 7.57032 27.4496 5.17417 28.9916 2.95171C29.6084 2.04884 30.2596 1.21542 30.9105 0.416715C31.0133 0.243082 30.9106 0 30.7051 0C30.5336 0 30.3624 0 30.1909 0C23.3033 0 16.6555 1.18069 10.4874 3.33371C7.30058 4.44496 4.21655 5.83399 1.2696 7.46611C0.447189 7.91756 -0.0325469 8.78571 0.00171972 9.72329C0.0702531 13.1959 0.447189 16.5644 1.09827 19.8633C1.6808 22.954 2.50322 25.9751 3.53122 28.8921C4.76486 32.3993 6.30686 35.7678 8.15728 38.9278C11.5154 44.7966 15.7988 50.0403 20.8361 54.4506C21.6928 55.2148 22.5837 55.9436 23.4746 56.6381C23.6802 56.7772 23.9544 56.5687 23.8516 56.3603C23.4746 55.423 23.132 54.4506 22.8235 53.4781C21.2816 48.7903 20.3221 43.7548 20.0137 38.546C20.0137 38.303 19.9109 38.0945 19.8081 37.9209C18.5402 36.1496 17.4094 34.3442 16.3814 32.3993C17.3066 31.8784 18.3003 31.4272 19.2941 31.0451C19.7395 30.8715 20.0137 30.4548 20.0479 29.9687C20.2878 26.496 20.8018 23.0582 21.6242 19.7939C21.6585 19.6203 21.5214 19.4466 21.3501 19.4813C18.2318 20.2106 15.2163 21.2871 12.4407 22.7109C11.6525 20.0022 11.07 17.2242 10.7273 14.3766C14.9079 12.5709 19.3969 11.3554 24.0572 10.7651C24.3998 10.7651 24.7425 10.4873 24.9481 10.1053Z" fill="#0078FF"/>
<path d="M59.0923 7.464C56.1456 5.83185 53.0959 4.47751 49.8744 3.33158C45.5913 1.83836 41.1362 0.83129 36.4762 0.345124C36.0992 0.3104 35.7565 0.449303 35.4826 0.692384C32.981 3.29685 30.7535 6.45691 28.9374 10.0685C28.8689 10.2421 28.9717 10.4157 29.143 10.4157C29.4857 10.4157 29.7941 10.4157 30.1368 10.4157C37.0589 10.4157 43.6719 11.8395 49.7035 14.4092C49.3604 17.2568 48.778 20.0696 47.9898 22.7435C46.9962 26.1119 45.6595 29.3413 44.015 32.3974C40.588 38.7871 35.825 44.378 30.1368 48.7186C28.1493 47.1904 26.2989 45.5586 24.5855 43.7528C24.4142 43.5792 24.14 43.718 24.1743 43.961C24.6198 46.6004 25.2023 49.1701 25.9562 51.601C27.0185 55.004 28.3891 58.1295 30.0341 60.9768C30.1026 61.081 30.2395 61.1504 30.3765 61.081C33.632 59.1364 36.7162 56.914 39.5601 54.4137C44.5632 50.0034 48.881 44.7598 52.2392 38.8913C54.0553 35.6965 55.5971 32.3625 56.865 28.8552C57.8932 25.9383 58.7156 22.9171 59.298 19.8265C59.9147 16.5275 60.2919 13.1243 60.3947 9.68645C60.3947 8.74885 59.9147 7.8807 59.0923 7.464Z" fill="#0078FF"/>
</g>
</svg>
