<svg width="257" height="80" viewBox="0 0 257 80" fill="none" xmlns="http://www.w3.org/2000/svg">
<g clip-path="url(#clip0_316_1739)">
<path d="M102.479 79.8756H92.8412L92.854 44.0955C91.977 25.3682 64.2178 24.4956 61.4422 42.5846C60.5491 54.954 61.2719 67.4581 61.0374 79.8724H51.3999V22.4555H61.0374V29.8335C69.4991 18.5098 88.8769 18.2949 97.6503 29.3619C100.754 33.2722 101.868 37.9364 102.472 42.8316V79.8788L102.479 79.8756Z" fill="#23223F"/>
<path d="M178.293 79.8752C165.309 78.7974 157.566 70.0239 156.757 57.2728L156.77 22.4551H166.407V57.5808C166.407 58.1422 167.069 60.4678 167.287 61.1928C172.122 77.2865 198.211 73.575 198.211 56.2977V22.4551H207.848V78.9128H198.211V70.8933L195.002 74.5855C191.6 77.5623 186.318 79.5031 181.827 79.8752C180.815 79.9586 179.305 79.9586 178.293 79.8752Z" fill="#23223F"/>
<path d="M127.536 79.8751C126.341 79.7661 124.141 79.2175 122.901 78.8903C114.856 76.7635 108.043 71.0183 107.619 62.2321H117.577C118.403 70.8451 128.876 73.0906 135.889 71.0536C141.98 69.2861 145.237 61.722 139.002 58.001C130.097 52.6856 111.429 53.9751 108.984 40.4991C105.013 18.596 143.419 14.5445 150.037 33.1884C150.724 35.126 150.862 37.1533 151.309 39.1357H141.832C141.109 38.2183 141.234 36.8838 140.772 35.7034C137.28 26.7984 118.185 27.4913 118.345 37.3169C118.416 41.5673 121.93 43.524 125.442 44.9162C133.441 48.0888 146.837 48.9004 150.589 57.9785C155.334 69.4529 145.06 78.7877 134.282 79.8751C132.557 80.0484 129.274 80.0355 127.536 79.8751Z" fill="#23223F"/>
<path d="M232.906 79.8757C231.711 79.7666 229.511 79.2181 228.271 78.8909C220.278 76.7801 213.39 70.9611 212.989 62.2326H222.948C223.773 70.8457 234.243 73.0911 241.259 71.0542C247.35 69.2867 250.607 61.7226 244.372 58.0015C235.402 52.6477 216.558 53.9853 214.309 40.2237C210.756 18.4939 248.837 14.6702 255.407 33.189C256.094 35.1265 256.232 37.1571 256.679 39.1363H247.202C246.457 37.882 246.543 36.5251 245.814 35.0688C241.728 26.8728 223.558 27.7004 223.715 37.3207C223.78 41.292 226.835 43.2423 230.118 44.6505C239.701 48.7598 254.038 48.4101 257 60.9527V66.406C256.235 74.8202 247.555 79.8083 239.653 79.8789C237.468 79.7345 235.059 80.0778 232.906 79.8789V79.8757Z" fill="#23223F"/>
<path d="M28.27 0V8.02278C24.6752 8.17996 20.2709 8.5232 18.2438 11.9652C17.8936 12.5618 17.0262 15.003 17.0262 15.5612V22.458H35.0162V31.7607H17.0262V79.8781H7.38875L6.74625 79.6568V32.6204C4.7545 32.367 2.65995 32.2932 0.4626 32.3991L0 31.7575V22.4548C0.0674625 22.2046 0.170262 21.8389 0.369437 21.8132C1.1051 21.717 6.39287 21.6753 6.92294 21.8132L7.38554 22.4548C7.13496 22.3874 6.76231 22.2816 6.74304 22.0859C6.66915 21.332 6.66272 16.2188 6.74304 15.0607C6.76231 14.7785 7.37911 10.9676 7.96379 9.48234C10.8743 2.0883 17.0744 0.134729 24.415 0H28.27Z" fill="#23223F"/>
<path d="M36.6226 79.8744L37.1044 33.6816H46.2601V79.8744H36.6226Z" fill="url(#paint0_linear_316_1739)"/>
<path d="M46.2601 22.4551H36.6226V31.7578H46.2601V22.4551Z" fill="#FE5F54"/>
</g>
<defs>
<linearGradient id="paint0_linear_316_1739" x1="41.4413" y1="34.0024" x2="41.4413" y2="79.2328" gradientUnits="userSpaceOnUse">
<stop stop-color="#FC5E54"/>
<stop offset="0.5" stop-color="#7A3A47"/>
<stop offset="1" stop-color="#23223F"/>
</linearGradient>
<clipPath id="clip0_316_1739">
<rect width="257" height="80" fill="white"/>
</clipPath>
</defs>
</svg>
