<svg width="328" height="70" viewBox="0 0 328 70" fill="none" xmlns="http://www.w3.org/2000/svg">
<g clip-path="url(#clip0_316_1813)">
<path fill-rule="evenodd" clip-rule="evenodd" d="M102.706 63.0129V39.3623H120.734V35.0622V30.2659H102.706V14.7194H126.357V5.62305H92.6177V63.0129H97.4139H102.706ZM135.619 17.531C138.926 17.531 141.407 15.0502 141.407 11.7424C141.407 8.43465 138.926 5.95382 135.619 5.95382C132.476 5.95382 129.83 8.43465 129.83 11.7424C129.83 15.0502 132.476 17.531 135.619 17.531ZM157.781 42.6701V63.0129H148.188V24.1466H157.781V30.2659C159.765 25.4697 165.885 23.3196 169.854 23.3196C179.777 23.3196 185.401 29.9352 185.401 41.1816V63.0129H175.808V42.0085C175.808 35.8891 172.004 32.7468 167.704 32.7468C163.239 32.7468 157.781 35.2276 157.781 42.6701ZM239.317 63.8398C243.287 63.8398 249.406 61.6898 251.391 56.8935V63.0129H260.983V24.1466H251.391V44.4893C251.391 52.0972 245.933 54.4127 241.467 54.4127C237.167 54.4127 233.363 51.2703 233.363 44.9855V24.1466H223.771V45.9778C223.771 57.2243 229.394 63.8398 239.317 63.8398ZM300.511 57.7204C297.865 61.8551 292.407 63.8398 287.611 63.8398C277.357 63.8398 268.426 55.9012 268.426 43.497C268.426 31.0929 277.191 23.3196 287.445 23.3196C292.407 23.3196 297.699 25.3043 300.511 29.2736V24.1466H310.104V63.0129H300.511V57.7204ZM288.438 54.7434C282.484 54.7434 277.522 49.9472 277.522 43.497C277.522 37.0469 282.484 32.416 288.438 32.416C294.061 32.416 299.684 36.7161 299.684 43.497C299.684 50.2779 294.392 54.7434 288.438 54.7434ZM327.8 6.11921V63.1782H318.208V8.60004L327.8 6.11921ZM140.58 63.0129V23.9812H130.988V62.8475H140.58V63.0129ZM216.163 63.3436C214.674 63.6744 212.69 63.8398 211.201 63.8398C202.27 63.8398 196.151 58.382 196.151 47.9625V32.9121H188.378V24.1466H196.151V14.3886L205.413 11.9078V24.1466H215.998V32.9121H205.413V47.7971C205.413 52.9242 208.555 55.0742 213.021 55.0742C214.013 55.0742 215.171 54.9088 215.998 54.7434V63.3436H216.163Z" fill="#282828"/>
<path d="M45.1515 48.6242C58.5787 48.6242 69.4636 37.7393 69.4636 24.3121C69.4636 10.8849 58.5787 0 45.1515 0C31.7243 0 20.8394 10.8849 20.8394 24.3121C20.8394 37.7393 31.7243 48.6242 45.1515 48.6242Z" fill="#A0C8FF"/>
<path d="M45.1511 24.3125H0V69.4636C24.9737 69.4636 45.1511 49.2862 45.1511 24.3125Z" fill="#005AD6"/>
<path d="M38.701 47.6323C42.8357 40.8513 45.1511 32.7473 45.1511 24.3125H21.0044C21.0044 35.3935 28.4469 44.8207 38.701 47.6323Z" fill="#003F96"/>
</g>
<defs>
<clipPath id="clip0_316_1813">
<rect width="327.8" height="69.4632" fill="white"/>
</clipPath>
</defs>
</svg>
