<svg width="319" height="84" viewBox="0 0 319 84" fill="none" xmlns="http://www.w3.org/2000/svg">
<g clip-path="url(#clip0_316_1770)">
<path d="M201.505 30.781C166.406 27.5994 163.881 79.5161 196.834 82.8998C198.021 83.026 199.864 83.0513 201.051 82.8998C210.596 81.7382 219.737 74.2386 222.944 65.2743L210.798 63.5572C208.828 65.5268 206.48 67.7995 203.374 68.8095C199.46 70.0973 191.506 70.2993 190.142 65.2491L224.459 53.9365C222.11 42.4219 213.904 31.8668 201.556 30.7558L201.505 30.781ZM186.733 53.482C187.844 43.0532 199.031 41.0583 206.934 45.9318C198.399 49.3155 188.046 52.3457 186.733 53.482Z" fill="#142C5A"/>
<path d="M294.935 30.7816C261.705 28.004 259.104 78.8349 289.43 82.9004C291.047 83.1276 294.557 83.1276 296.173 82.9004C326.802 78.8097 324.959 33.2815 294.961 30.7816H294.935ZM297.233 69.2647C276.123 73.5574 275.871 45.1496 291.779 43.6093C308.571 41.968 309.404 66.8153 297.233 69.2647Z" fill="#142C5A"/>
<path d="M31.0086 13.1813L29.1905 0.707135C15.5801 -1.56548 3.73719 5.45438 0.707031 19.0396V82.0417H15.0245V43.4071H29.342V29.9734H15.0245C13.3074 19.4436 20.9081 12.954 31.0339 13.1813H31.0086Z" fill="#142C5A"/>
<path d="M109.238 41.8155C101.309 33.5583 89.5669 31.9675 79.0118 36.6895V29.9727H64.6943V82.0661H79.0118V55.4007C79.0118 53.9109 79.2896 52.4211 79.9461 51.0575C81.1834 48.5576 83.9106 45.3255 89.9457 45.3255C94.8444 45.3255 97.5716 47.3708 99.0361 49.4162C100.248 51.0828 100.778 53.1281 100.778 55.1735L100.879 82.0661H115.197C114.97 62.7741 114.212 53.2039 112.924 48.4061C112.268 45.9567 111.031 43.6841 109.263 41.8408L109.238 41.8155Z" fill="#142C5A"/>
<path d="M146.357 60.6783L132.014 29.9727H117.697L139.11 82.1166L152.948 81.9651L170.725 29.9727H156.407C153.175 39.4924 150.448 51.6888 146.357 60.6783Z" fill="#142C5A"/>
<path d="M233.272 47.2713C232.009 49.9732 230.494 54.165 230.494 60.6293V82.0424H245.645V56.4123C246.074 48.4329 256.932 44.0897 262.488 45.0745V29.9489C251.074 29.2419 238.044 37.0193 233.272 47.2461V47.2713Z" fill="#142C5A"/>
<path d="M38.584 82.0661H52.9015V29.9727L38.584 37.1188V82.0661Z" fill="#142C5A"/>
</g>
<defs>
<clipPath id="clip0_316_1770">
<rect width="319" height="83.3294" fill="white"/>
</clipPath>
</defs>
</svg>
