<svg width="224" height="113" viewBox="0 0 224 113" fill="none" xmlns="http://www.w3.org/2000/svg">
<g clip-path="url(#clip0_316_1671)">
<path d="M223.265 96.8838H209.011V111.138H223.265V96.8838Z" fill="#FF6600"/>
<path d="M180.093 33.418L188.587 97.1267L197.063 33.418H210.29L197.922 111.147H179.113L166.875 33.418H180.102H180.093Z" fill="#FF6600"/>
<path d="M7.33701 33.4179H0V43.742H7.33701V111.138H20.2281V43.742H29.2827V33.4179H20.2281V17.6144C20.2281 15.3088 20.7042 13.5445 21.815 12.3404C22.9351 11.1455 24.6434 10.5761 26.9584 10.5761H29.2827V0H24.6154C18.8839 0 13.3672 1.2135 10.7441 3.70584C8.12112 6.19818 7.33701 10.0721 7.33701 15.5795V33.4086V33.4179Z" fill="#FF6600"/>
<path d="M33.3057 111.138H46.2248V33.4082H33.3057V111.138Z" fill="#FF6600"/>
<path d="M105.892 76.6748H132.832V52.7221C132.804 38.3935 125.915 32.5127 112.856 32.5127C99.7966 32.5127 92.917 38.3748 92.917 52.8155V92.1796C92.9543 105.313 100.907 112.109 112.846 112.109C124.785 112.109 132.794 106.518 132.822 92.1796V85.9534H120.342L120.361 93.3277C120.361 98.5924 118.391 102.224 113.108 102.224C107.824 102.224 105.892 98.5551 105.892 93.3184V76.6654V76.6748ZM105.892 50.1458C105.892 45.7585 107.031 41.2219 113.08 41.2219C119.129 41.2219 120.342 45.6932 120.342 50.1458V66.2107H105.901V50.1551L105.892 50.1458Z" fill="#FF6600"/>
<path d="M75.2838 66.9573C65.4824 58.4441 64.717 57.212 64.717 50.8644C64.717 45.4597 65.1837 42.1739 70.0377 42.1739C74.8917 42.1739 75.5172 45.4224 75.5172 50.9298V58.1081H87.9695V46.4025C87.9322 37.2079 80.8566 32.5312 69.7484 32.5312C58.6402 32.5312 51.6952 36.1718 51.6299 50.8644C51.6205 53.3661 51.6299 53.3661 51.6299 52.3953C51.6485 57.0159 51.6672 64.3436 63.0928 74.1356L66.3692 76.936C74.7891 84.0397 75.7038 84.8891 75.6665 93.3369C75.6665 98.5363 75.3398 102.485 69.879 102.485C64.4183 102.485 64.0729 98.5083 64.0729 96.0533V86.1119H50.9951V96.3707C50.9951 109 59.2096 112.128 69.8604 112.128C80.5112 112.128 88.7443 108.972 88.7443 92.7302V91.3767C88.7163 80.0258 86.6627 76.9827 75.2745 66.948" fill="#FF6600"/>
<path d="M150.129 41.4183V33.4186H138.349V111.139H151.053V56.9698C151.053 52.7879 152.416 50.0249 154.787 48.4006C157.037 46.8511 159.8 46.3284 163.328 46.2723V32.5225C156.588 32.6625 153.676 33.9973 150.26 41.1383L150.129 41.4183Z" fill="#FF6600"/>
</g>
<defs>
<clipPath id="clip0_316_1671">
<rect width="223.265" height="112.127" fill="white"/>
</clipPath>
</defs>
</svg>
