<svg width="183" height="130" viewBox="0 0 183 130" fill="none" xmlns="http://www.w3.org/2000/svg">
<g clip-path="url(#clip0_316_1727)">
<path d="M108.767 82.2243C107.529 81.4297 108.037 78.7695 108.594 78.7695H182.457C183.193 78.7695 182.958 81.409 182.993 82.0343C182.878 82.4558 182.242 82.1414 181.938 82.2243C157.862 82.5491 132.853 82.5491 108.767 82.2243Z" fill="#F3313F"/>
<path d="M181.938 82.2246C181.672 82.2972 181.267 82.7636 180.769 82.5943H109.936C109.365 82.7048 109.161 82.4768 108.764 82.2246H181.935H181.938Z" fill="#F02E3B"/>
<path d="M0.736478 82.5698C-0.459872 82.2865 0.197083 79.7092 0.0449463 78.7695H74.2497C74.2013 79.9165 74.4849 81.1706 73.904 82.2243L0.73302 82.5698H0.736478Z" fill="#00933A"/>
<path d="M126.37 62.1861H112.564V25.5654L94.7915 55.28C94.1103 55.8915 88.0663 55.8604 87.3471 55.1211C81.4622 45.6411 76.0233 35.8088 69.7649 26.5984V62.1826H55.9585V0H68.2124L91.3373 37.9957L114.116 0H125.852C125.89 0 126.37 0.480215 126.37 0.518217V62.1861Z" fill="black"/>
<path d="M182.63 0V11.7463H150.186V27.6383H178.314C178.377 27.6383 179.179 28.4398 179.179 28.502V39.2118C179.179 39.2498 178.698 39.73 178.66 39.73H150.186V62.1861H135.692V0H182.633H182.63Z" fill="black"/>
<path d="M46.9861 0V11.7463H14.5429V27.6383H42.6709C43.1101 27.6383 43.4904 28.7196 43.5526 29.1756C43.9572 32.1813 43.4731 36.6863 43.1896 39.73H14.5429V62.1861H0.0449219V0H46.9861Z" fill="black"/>
<path d="M110.32 119.881C110.991 120.022 112.011 121.152 112.156 121.864C112.502 123.546 111.181 124.399 111.188 124.548C111.198 124.786 112.111 124.969 112.332 125.488C113.252 127.616 111.956 129.899 109.629 129.899H103.415C103.377 129.899 102.896 129.419 102.896 129.381V120.399C102.896 120.361 103.377 119.881 103.415 119.881C105.196 119.881 108.837 119.563 110.317 119.881H110.32ZM109.093 122.323C108.851 121.933 105.459 121.421 106.008 123.159C106.333 124.178 109.971 123.743 109.093 122.323ZM106.005 127.481C110.718 128.082 110.707 125.146 106.005 125.75V127.481Z" fill="black"/>
<path d="M49.0576 119.881H55.7897C55.9072 119.881 57.4459 120.593 57.6741 120.758C60.1463 122.538 60.0461 127.212 57.5185 128.867C57.1589 129.102 55.0186 129.9 54.7524 129.9H49.5763C49.5382 129.9 49.0576 129.42 49.0576 129.382V119.881ZM52.1626 127.136C57.9576 128.3 57.7778 121.263 52.1626 122.299V127.136Z" fill="black"/>
<path d="M114.753 121.035C115.475 120.31 117.232 119.619 118.262 119.532C127.031 118.789 126.488 131.963 117.028 129.752C113.29 128.877 112.104 123.688 114.753 121.035ZM120.759 126.704C121.934 125.44 121.388 122.448 119.303 122.268C113.726 121.792 117.401 130.315 120.759 126.704Z" fill="black"/>
<path d="M92.544 119.536V126.964C92.544 129.976 85.895 131.165 83.9137 128.346C83.5403 127.814 82.8799 126.1 82.8799 125.582V120.054C82.8799 119.301 86.3306 119.301 86.3306 120.054V126.618C86.3306 127.461 89.4356 127.461 89.4356 126.618V120.054C89.4356 119.336 91.9666 119.536 92.5406 119.536H92.544Z" fill="black"/>
<path d="M68.7318 119.881C69.3991 123.515 66.2734 122.03 63.898 122.299V123.332C66.3011 123.47 68.6039 122.375 68.0437 125.754H63.898V127.481H68.7283V129.9H60.7896V119.881H68.7283H68.7318Z" fill="black"/>
<path d="M82.1918 119.881C82.9041 123.609 79.4014 121.978 77.0122 122.299C76.5627 125.022 79.7092 123.774 81.5037 124.023V126.445C78.0011 126.455 76.4417 125.529 77.0157 129.9C76.4417 129.9 73.9072 130.097 73.9072 129.382V120.399C73.9072 120.361 74.3878 119.881 74.4259 119.881H82.1918Z" fill="black"/>
<path d="M102.554 119.881C103.674 123.325 99.4492 122.044 99.4492 122.299V129.382C99.4492 130.121 96.3443 130.121 96.3443 129.382V122.299C96.3443 122.044 92.1155 123.325 93.2393 119.881H102.558H102.554Z" fill="black"/>
<path d="M128.788 119.881V127.136C131.533 127.291 133.908 126.055 133.276 129.9H126.201C126.163 129.9 125.683 129.42 125.683 129.382V119.881H128.788Z" fill="black"/>
<path d="M94.8987 79.5253C95.1718 79.9917 93.9513 83.899 93.5951 84.1374C93.0799 84.4829 89.3284 84.4518 88.9169 83.9543C88.6126 83.5881 87.5339 79.9226 87.7724 79.5183C87.8796 79.3352 91.1229 77.1518 91.3373 77.1553C91.5517 77.1587 94.788 79.3387 94.8987 79.5253Z" fill="black"/>
<path d="M83.5714 74.2778C83.727 74.454 84.5776 78.6688 84.5326 78.9003C84.4427 79.3563 81.3689 82.4518 80.8156 81.8783C80.7188 79.4669 81.2548 76.6616 82.783 74.7166C82.949 74.5058 83.0839 73.7216 83.5714 74.2778Z" fill="black"/>
<path d="M95.3069 70.8265C95.8359 71.3966 91.7731 73.5904 91.3375 73.5766C91.092 73.5696 87.4856 71.5624 87.375 71.3379C87.0604 70.7022 87.866 70.8231 88.1357 70.7333C90.843 69.8419 92.6134 70.1114 95.3069 70.8265Z" fill="black"/>
<path d="M99.4454 86.3734C99.971 88.3564 93.3461 91.4623 92.5439 90.8577C92.9934 90.2185 94.2797 87.0125 94.6842 86.7879C94.8917 86.6705 99.2725 86.2075 99.4454 86.3734Z" fill="black"/>
<path d="M101.516 81.8749C101.074 82.3965 98.2765 79.111 98.1313 78.503C97.986 77.895 98.8643 74.2812 99.2758 74.2812C101.281 76.3265 101.779 79.0765 101.516 81.8714V81.8749Z" fill="black"/>
<path d="M90.131 90.8575C89.2458 91.5311 82.8249 88.2491 82.8837 86.3732C86.9879 85.7582 88.3537 87.6065 90.131 90.8575Z" fill="black"/>
<path d="M45.7794 101.915C46.5262 102.078 48.1133 103.774 48.2965 104.579C48.9466 107.446 46.827 107.847 46.6784 108.7C46.6472 108.88 48.3138 112.052 48.7391 111.029L52.5495 101.953C52.6705 101.85 55.3813 101.819 55.7305 101.901C56.263 102.029 59.4717 110.753 60.1044 111.931C59.2366 111.824 58.0195 112.138 57.2277 111.879C56.0659 111.495 57.2588 109.53 53.7009 109.841C51.3877 110.044 52.2867 111.533 51.2494 111.879C50.9901 111.965 46.1286 112.003 45.7759 111.938C44.9219 111.775 42.9303 107.422 42.2111 109.744C41.5506 111.875 43.4766 112.183 39.3931 111.934V101.915C41.2429 102.185 44.0747 101.546 45.7794 101.915ZM42.1523 106.752C43.0858 106.742 44.6107 107.021 45.1051 106.061C46.1251 104.081 41.0942 103.052 42.1523 106.752ZM54.5756 105.37C53.9498 104.696 53.2686 107.471 53.1995 107.788C53.6628 107.878 55.2499 107.813 55.2603 107.274C55.2603 107.173 54.6448 105.446 54.5756 105.37Z" fill="black"/>
<path d="M102.554 101.916C106.52 100.89 106.306 105.291 108.764 107.098C108.975 106.321 111.288 102.168 111.599 101.988C112.132 101.677 113.581 102.047 114.293 101.916V111.935H111.53V107.443C110.296 108.048 109.933 110.791 108.584 110.915C106.907 111.071 106.665 108.138 105.324 107.443V111.935H102.558V101.916H102.554Z" fill="black"/>
<path d="M87.3682 101.916C90.8708 101.028 91.545 104.738 93.9239 106.407V101.916H97.0323V111.416C97.0323 112.093 94.9093 112.045 94.2731 111.755C93.3395 111.33 91.6764 108.044 90.4766 107.443C90.3729 110.559 91.5035 112.549 87.3682 111.934V101.916Z" fill="black"/>
<path d="M160.885 101.916C164.622 101.042 165.255 104.717 167.783 106.407V101.916H170.549V111.934C167.015 112.743 166.389 108.687 163.99 107.098V111.934C163.416 111.934 160.885 112.135 160.885 111.416V101.916Z" fill="black"/>
<path d="M18.3394 111.935V101.916H25.0714C25.3031 101.916 27.2809 103.163 27.6093 103.519C29.6286 105.699 28.9094 109.675 26.3992 111.189C26.1709 111.327 24.8155 111.931 24.7257 111.931H18.3394V111.935ZM21.4443 104.334V109.171C27.2601 110.266 27.0492 103.471 21.4443 104.334Z" fill="black"/>
<path d="M38.013 101.916C38.7253 105.644 35.2227 104.013 32.8335 104.334V105.367C35.1605 105.526 38.0441 104.455 37.3249 107.789C30.0224 107.316 32.3943 110.366 38.0165 109.513V111.935H30.2506C30.2125 111.935 29.7319 111.455 29.7319 111.417V102.434C29.7319 102.396 30.2125 101.916 30.2506 101.916H38.0165H38.013Z" fill="black"/>
<path d="M16.9598 101.916C17.6271 105.55 14.5014 104.064 12.126 104.334V105.367C14.529 105.505 16.8318 104.41 16.2717 107.789H12.126L12.1225 109.316C12.2055 109.879 16.2406 109.167 16.9771 109.668C17.5925 110.086 17.0773 111.931 16.9598 111.931H9.021V101.912H16.9598V101.916Z" fill="black"/>
<path d="M123.954 101.916C124.621 105.55 121.496 104.065 119.12 104.334V105.367C121.523 105.506 123.826 104.41 123.266 107.789H119.12V109.517H123.951V111.935H116.012V101.916H123.951H123.954Z" fill="black"/>
<path d="M182.627 111.931C181.928 111.786 179.996 112.17 179.567 111.89C178.868 111.434 180.262 109.544 176.569 109.841C174.156 110.035 174.705 111.807 174.117 111.949C173.36 112.132 172.095 111.797 171.241 111.931C171.676 110.663 174.978 102.258 175.435 101.971C175.864 101.702 178.18 101.826 178.664 102.255C179.055 102.6 183.007 111.572 182.627 111.931ZM177.796 107.786C177.959 107.627 177.354 105.429 176.766 105.371L176.071 107.786H177.793H177.796Z" fill="black"/>
<path d="M149.149 110.553C148.219 111.413 146.67 112.007 145.405 112.08C137.687 112.508 137.466 101.726 144.834 101.543C146.117 101.512 149.789 102.472 148.977 103.985C147.621 106.511 146.892 104.531 145.858 104.334C141.301 103.453 141.805 109.972 145.432 109.458C146.798 109.264 148.645 107.274 149.146 110.553C150.678 109.133 152.005 103.229 153.112 102.258C153.62 101.812 155.512 101.743 156.165 101.902C156.698 102.033 160.041 110.705 160.536 111.931C159.692 111.81 158.395 112.152 157.648 111.89C156.998 111.662 157.102 110.57 156.604 110.173C156.065 109.741 153.838 109.699 153.174 109.917C152.317 110.197 152.604 111.71 151.397 111.935C148.9 112.398 149.371 111.997 149.153 110.553H149.149ZM155.705 107.786L154.844 105.371L153.98 107.786H155.702H155.705Z" fill="black"/>
<path d="M128.027 101.988C128.279 102.136 128.967 104.064 129.648 104.327C131.031 101.825 131.754 101.622 134.652 101.919C134.876 102.085 131.567 106.009 131.55 106.569C131.519 107.502 135.219 111.43 134.648 111.931C131.325 112.297 131.657 111.827 130.105 109.744C128.836 108.041 128.819 111.108 127.743 111.758C126.955 112.235 125.247 111.789 124.296 111.931L127.66 106.925C127.522 106.082 124.182 102.34 124.642 101.915C125.468 102.078 127.429 101.639 128.023 101.984L128.027 101.988Z" fill="black"/>
<path d="M63.6448 108.739C63.9318 109.043 65.3114 109.544 65.7747 109.52C67.2961 109.434 67.8459 107.105 69.7407 110.083C69.2393 111.589 67.1025 112.028 65.671 112.077C57.8913 112.336 58.3166 101.55 65.4497 101.55C66.4974 101.55 70.3423 102.541 69.6127 103.989C68.3542 106.49 66.7429 103.813 64.5715 104.493C62.9187 105.011 62.7113 107.751 63.6414 108.739H63.6448Z" fill="black"/>
<path d="M7.9837 101.916V104.334H3.15336V106.065L7.29563 106.062V108.484C6.64213 108.591 3.29858 108.335 3.1499 108.48C2.5621 109.064 4.75079 113.006 0.0449219 111.935V101.916H7.9837Z" fill="black"/>
<path d="M73.9077 101.916V111.417C73.9077 112.135 71.3767 111.935 70.8027 111.935V101.916H73.9077Z" fill="black"/>
<path d="M138.452 101.916V111.417C138.452 112.135 135.921 111.935 135.347 111.935V101.916H138.452Z" fill="black"/>
<path d="M79.6955 101.656C87.7726 100.665 88.6232 111.972 80.6429 112.086C73.3645 112.193 73.1087 102.465 79.6955 101.656ZM79.6782 104.399C77.5241 105.042 77.5172 109.015 80.0309 109.461C84.1109 110.186 83.8966 103.142 79.6782 104.399Z" fill="black"/>
<path d="M83.572 98.8097C83.0326 100.544 80.8543 101.598 79.0874 101.221C80.1627 99.1448 81.1343 98.4262 83.572 98.8097Z" fill="black"/>
</g>
<defs>
<clipPath id="clip0_316_1727">
<rect width="183" height="130" fill="white"/>
</clipPath>
</defs>
</svg>
