<svg width="555" height="58" viewBox="0 0 555 58" fill="none" xmlns="http://www.w3.org/2000/svg">
<g clip-path="url(#clip0_316_1766)">
<path d="M0.462247 21.4639C0.228383 11.9896 11.2828 0.564453 20.6887 0.564453H73.9641V38.69C73.9641 46.5217 63.6056 56.0188 55.8767 56.9086L0.456543 57.0455V21.4639H0.462247ZM64.2787 9.5996H21.2591C18.1047 9.5996 12.241 14.1799 11.2942 17.2373C10.7466 19.0112 13.1251 17.5111 13.2792 17.5111H54.5933L54.0286 48.0104C57.9815 47.4058 61.8944 44.24 63.2805 40.521C63.4744 40.0077 64.2844 36.7165 64.2844 36.4313V9.5996H64.2787ZM44.9079 26.5462H14.42C12.7772 26.5462 9.81112 30.8527 10.7181 32.7579H35.7872V46.5958C35.7872 46.7726 35 47.3944 35.2168 48.0047C38.2684 48.5979 44.9022 47.8507 44.9022 43.7723V26.5462H44.9079ZM25.5314 41.793H11.5737C9.95372 43.2818 10.9747 45.9855 10.7181 48.0047H24.6758C26.2957 46.5159 25.2747 43.8122 25.5314 41.793Z" fill="#A9D550"/>
<path d="M413.004 12.4238H377.389C367.281 12.4238 366.848 24.003 366.848 24.003V46.3113H377.103V37.2762H388.785L399.041 46.3113H412.434L402.749 36.7172C408.413 36.7172 413.004 32.1255 413.004 26.4614V12.4238ZM396.822 29.3704H377.109V27.3911C377.109 24.117 379.762 21.4647 383.036 21.4647H402.749V23.444C402.749 26.7181 400.096 29.3704 396.822 29.3704Z" fill="#0B4E44"/>
<path d="M163.711 12.4238C153.66 13.7814 153.17 22.8736 153.17 22.8736V46.3113H189.065C189.065 46.3113 198.751 46.1117 198.751 36.4263V12.4238H163.705H163.711ZM183.367 37.2762H162.855V27.163C162.855 24.0144 165.411 21.459 168.559 21.459H189.071V31.5722C189.071 34.7208 186.516 37.2762 183.367 37.2762Z" fill="#0B4E44"/>
<path d="M473.975 36.7116V11.8592H483.66V46.3114H474.83C470.056 46.3114 462.761 39.883 459.749 36.4093C455.79 31.8461 453.007 24.9955 447.194 22.5884V46.3114H436.938V12.7091C440.988 10.7184 448.278 12.3669 452.288 14.4374C461.945 19.4284 465.059 31.0589 473.975 36.7116Z" fill="#0B4E44"/>
<path d="M145.76 12.4237V21.4588H112.426C110.19 21.4588 110.201 27.7389 110.429 29.3646H136.069V37.2703H110.429V46.026L109.574 46.8759H101.029C100.214 46.3796 100.242 45.7522 100.145 44.9251C99.6375 40.6186 99.6489 26.6666 100.436 22.5597C100.904 20.1127 102.546 17.4261 104.435 15.789C105.404 14.9448 109.768 12.418 110.72 12.418H145.766L145.76 12.4237Z" fill="#0B4E44"/>
<path d="M259.156 12.4238V21.4647H277.956V46.317H288.218V21.4647H307.018V12.4238H259.156Z" fill="#0B4E44"/>
<path d="M538.932 12.4238V20.6148L538.076 21.4647H519.561V46.317H509.87V21.4647H491.069V12.4238H538.932Z" fill="#0B4E44"/>
<path d="M429.529 11.8594H419.844V46.3116H429.529V11.8594Z" fill="#0B4E44"/>
<path d="M546.598 16.6388C546.598 14.4485 548.378 12.6289 550.574 12.6289C552.77 12.6289 554.55 14.4086 554.55 16.6388C554.55 18.8691 552.77 20.6487 550.574 20.6487C548.383 20.6145 546.598 18.8349 546.598 16.6388ZM553.586 16.6388C553.586 14.7565 552.251 13.4218 550.574 13.4218C548.897 13.4218 547.562 14.7565 547.562 16.6388C547.562 18.5211 548.897 19.8559 550.574 19.8559C552.251 19.8559 553.586 18.4869 553.586 16.6388ZM549.028 14.3401H550.705C551.8 14.3401 552.382 14.7166 552.382 15.6748C552.382 16.462 551.937 16.8385 551.218 16.9069L552.416 18.8919H551.561L550.397 16.9411H549.884V18.8919H549.062V14.3344H549.028V14.3401ZM549.884 16.2966H550.637C551.116 16.2966 551.561 16.2281 551.561 15.6121C551.561 15.0987 551.081 14.9961 550.637 14.9961H549.884V16.2966Z" fill="#0B4E44"/>
<path d="M216.707 12.4238C206.656 13.7814 206.166 22.8736 206.166 22.8736V46.3113H242.061C242.061 46.3113 251.746 46.1117 251.746 36.4263V12.4238H216.701H216.707ZM242.061 31.5779C242.061 34.7265 239.505 37.2819 236.357 37.2819H215.845V27.1687C215.845 24.0201 218.401 21.4647 221.549 21.4647H242.061V31.5779Z" fill="#0B4E44"/>
<path d="M324.969 12.4238C321.678 12.4238 314.428 14.7568 314.428 22.3089V46.3113H324.113V37.2762H350.038C359.005 37.2762 360.008 30.4257 360.008 27.3911V12.4238H324.963H324.969ZM350.038 23.444C350.038 26.7181 347.386 29.3704 344.111 29.3704H324.398V27.3911C324.398 24.117 327.051 21.4647 330.325 21.4647H350.038V23.444Z" fill="#0B4E44"/>
</g>
<defs>
<clipPath id="clip0_316_1766">
<rect width="555" height="57.6105" fill="white"/>
</clipPath>
</defs>
</svg>
