<svg width="312" height="52" viewBox="0 0 312 52" fill="none" xmlns="http://www.w3.org/2000/svg">
<rect width="312" height="52" fill="white"/>
<path d="M24.1705 0.00279503C25.7552 -0.0217763 27.3259 0.116037 28.8837 0.401276C29.1993 0.458968 29.2392 0.525204 29.1013 0.81258C27.6157 3.90108 26.1279 6.9896 24.6434 10.0792C24.5389 10.296 24.3795 10.389 24.1371 10.3964C20.6843 10.5118 17.6603 11.7084 15.0996 14.0042C12.8168 16.05 11.3495 18.5872 10.7861 21.5839C9.94472 26.059 11.0532 30.0514 14.0568 33.4935C16.0336 35.7594 18.5728 37.1119 21.4955 37.787C25.4503 38.7004 29.069 37.9046 32.3989 35.6622C32.7092 35.4538 33.0076 35.2274 33.3103 35.0084C33.5775 34.8139 33.6389 34.8235 33.8048 35.1098C34.6084 36.4965 35.4089 37.8853 36.2147 39.2699C37.0313 40.6724 37.8533 42.0712 38.6731 43.4716C38.88 43.8264 38.867 43.8872 38.533 44.1188C35.6448 46.12 32.4689 47.4468 29.0065 48.0876C27.2246 48.418 25.4244 48.5716 23.6114 48.4916C20.707 48.3624 17.9006 47.7704 15.2062 46.6744C11.0791 44.996 7.65328 42.4084 4.96004 38.8789C2.9584 36.2551 1.60638 33.3258 0.809184 30.1358C0.22744 27.81 -0.0731276 25.4544 0.015211 23.0571C0.136946 19.7517 0.956772 16.6205 2.48116 13.6805C4.179 10.405 6.41224 7.54404 9.30692 5.21724C11.7621 3.24407 14.5362 1.87235 17.5655 1.0006C19.7234 0.379911 21.9222 0.0305713 24.1705 0.00279503Z" fill="black"/>
<path d="M42.5076 38.8112C42.4284 38.7173 42.3772 38.6684 42.3412 38.6104C40.4432 35.5758 38.5449 32.5411 36.65 29.5054C36.4814 29.2347 36.2368 29.1178 35.9009 29.1188C32.1089 29.1218 28.3168 29.1208 24.5248 29.1208C24.4509 29.1208 24.378 29.1208 24.2617 29.1208C24.2987 29.0198 24.3139 28.9359 24.3563 28.867C25.9544 26.3179 27.5548 23.7699 29.154 21.2219C29.4682 20.7222 29.7834 20.2236 30.0922 19.72C30.2259 19.5022 30.4194 19.4063 30.688 19.4063C33.7298 19.4113 36.7717 19.4133 39.8125 19.4153C40.5768 19.4153 41.34 19.4133 42.1044 19.4063C42.374 19.4043 42.5632 19.5022 42.6988 19.719C44.6068 22.7627 46.5172 25.8053 48.4316 28.845C48.5684 29.0628 48.5304 29.2496 48.4024 29.4545C46.5116 32.4572 44.6244 35.4618 42.736 38.4655C42.6696 38.5704 42.598 38.6744 42.5076 38.8112Z" fill="black"/>
<path d="M35.7936 5.05124C35.216 4.43984 34.6545 3.84439 34.092 3.24992C33.9801 3.13143 34.0008 3.01294 34.0732 2.8805C34.7589 1.62684 35.7428 0.76452 37.0502 0.325391C38.8374 -0.275049 40.5296 -0.0500082 42.0908 1.04632C43.104 1.75729 43.6136 2.79984 43.66 4.08236C43.7024 5.28624 43.3672 6.35568 42.5536 7.221C42.04 7.76768 41.4468 8.2088 40.8052 8.57624C40.0036 9.03528 39.1958 9.48236 38.4056 9.96032C37.8827 10.277 37.5111 10.75 37.3155 11.3633C37.2092 11.6959 37.2656 11.7796 37.5948 11.7796C39.4432 11.7776 41.2904 11.7756 43.1388 11.7726C43.1736 11.7726 43.2092 11.7716 43.244 11.7726C43.5488 11.7776 43.6036 11.8363 43.6036 12.152C43.6036 12.839 43.6036 13.5261 43.6036 14.2132C43.6036 14.506 43.5584 14.5538 43.2744 14.5538C40.2748 14.5538 37.2741 14.5538 34.2745 14.5538C33.997 14.5538 33.9566 14.5129 33.9613 14.2242C33.9773 13.2005 34.0619 12.1868 34.3498 11.202C34.7589 9.80596 35.5707 8.73256 36.6702 7.87224C37.4509 7.26184 38.3116 6.80876 39.1694 6.34276C39.5353 6.1436 39.8862 5.89764 40.208 5.6258C40.6152 5.28228 40.8428 4.81524 40.8088 4.24768C40.7656 3.53372 40.288 2.997 39.5588 2.85362C38.2156 2.58974 36.9694 3.08264 36.1237 4.47372C36.0137 4.65492 35.913 4.84312 35.7964 5.04824L35.7936 5.05124Z" fill="black"/>
<path d="M83.0524 5.4242C83.636 3.68151 86.1008 3.68152 86.6844 5.4242L89.9876 15.2866C90.2468 16.0614 90.9692 16.5862 91.7864 16.5936L102.187 16.6872C104.024 16.7038 104.786 19.0481 103.309 20.1417L94.95 26.3307C94.2936 26.8168 94.0176 27.6661 94.2628 28.4454L97.3876 38.3657C97.94 40.1188 95.9456 41.5676 94.4492 40.5008L85.98 34.4632C85.3148 33.9889 84.422 33.9889 83.7564 34.4632L75.2876 40.5008C73.7908 41.5676 71.7968 40.1188 72.3488 38.3657L75.4736 28.4454C75.7192 27.6661 75.4432 26.8168 74.7868 26.3307L66.4276 20.1417C64.9504 19.0481 65.7124 16.7038 67.55 16.6872L77.9504 16.5936C78.7676 16.5862 79.49 16.0614 79.7492 15.2866L83.0524 5.4242Z" fill="black"/>
<path d="M135.021 5.4242C135.605 3.68151 138.07 3.68152 138.653 5.4242L141.956 15.2866C142.216 16.0614 142.938 16.5862 143.755 16.5936L154.156 16.6872C155.993 16.7038 156.755 19.0481 155.278 20.1417L146.919 26.3307C146.262 26.8168 145.986 27.6661 146.232 28.4454L149.356 38.3657C149.909 40.1188 147.914 41.5676 146.418 40.5008L137.949 34.4632C137.284 33.9889 136.391 33.9889 135.725 34.4632L127.256 40.5008C125.76 41.5676 123.766 40.1188 124.318 38.3657L127.442 28.4454C127.688 27.6661 127.412 26.8168 126.755 26.3307L118.396 20.1417C116.919 19.0481 117.681 16.7038 119.519 16.6872L129.919 16.5936C130.736 16.5862 131.458 16.0614 131.718 15.2866L135.021 5.4242Z" fill="black"/>
<path d="M187.009 5.4242C187.593 3.68151 190.058 3.68152 190.642 5.4242L193.944 15.2866C194.204 16.0614 194.926 16.5862 195.743 16.5936L206.144 16.6872C207.982 16.7038 208.743 19.0481 207.266 20.1417L198.907 26.3307C198.25 26.8168 197.974 27.6661 198.22 28.4454L201.345 38.3657C201.897 40.1188 199.903 41.5676 198.406 40.5008L189.937 34.4632C189.272 33.9889 188.379 33.9889 187.714 34.4632L179.244 40.5008C177.748 41.5676 175.754 40.1188 176.306 38.3657L179.431 28.4454C179.676 27.6661 179.4 26.8168 178.744 26.3307L170.385 20.1417C168.908 19.0481 169.669 16.7038 171.507 16.6872L181.908 16.5936C182.724 16.5862 183.447 16.0614 183.706 15.2866L187.009 5.4242Z" fill="black"/>
<path d="M238.974 5.4242C239.558 3.68151 242.023 3.68152 242.606 5.4242L245.909 15.2866C246.169 16.0614 246.891 16.5862 247.708 16.5936L258.108 16.6872C259.946 16.7038 260.708 19.0481 259.231 20.1417L250.872 26.3307C250.215 26.8168 249.939 27.6661 250.185 28.4454L253.31 38.3657C253.862 40.1188 251.868 41.5676 250.371 40.5008L241.902 34.4632C241.237 33.9889 240.344 33.9889 239.678 34.4632L231.209 40.5008C229.713 41.5676 227.719 40.1188 228.271 38.3657L231.396 28.4454C231.641 27.6661 231.365 26.8168 230.708 26.3307L222.35 20.1417C220.872 19.0481 221.634 16.7038 223.472 16.6872L233.872 16.5936C234.689 16.5862 235.412 16.0614 235.671 15.2866L238.974 5.4242Z" fill="black"/>
<path d="M290.962 5.4242C291.546 3.68151 294.011 3.68152 294.595 5.4242L297.898 15.2866C298.157 16.0614 298.88 16.5862 299.696 16.5936L310.097 16.6872C311.935 16.7038 312.696 19.0481 311.219 20.1417L302.86 26.3307C302.204 26.8168 301.928 27.6661 302.173 28.4454L305.298 38.3657C305.85 40.1188 303.856 41.5676 302.36 40.5008L293.89 34.4632C293.225 33.9889 292.332 33.9889 291.667 34.4632L283.198 40.5008C281.701 41.5676 279.707 40.1188 280.259 38.3657L283.384 28.4454C283.629 27.6661 283.354 26.8168 282.697 26.3307L274.338 20.1417C272.861 19.0481 273.622 16.7038 275.46 16.6872L285.86 16.5936C286.678 16.5862 287.4 16.0614 287.66 15.2866L290.962 5.4242Z" fill="black"/>
</svg>
