<svg width="313" height="63" viewBox="0 0 313 63" fill="none" xmlns="http://www.w3.org/2000/svg">
<path fill-rule="evenodd" clip-rule="evenodd" d="M72.0753 31.2514C72.0753 29.582 71.9923 27.9151 71.8225 26.26L69.0501 26.247H33.7043V37.7011H56.5086C56.19 39.3835 55.6082 40.9995 54.7867 42.5087C53.1136 45.3354 50.5202 47.5144 47.4332 48.673C44.6029 49.8459 41.0894 50.4857 36.89 50.6812L36.0396 50.7073C32.1614 50.7321 28.3109 50.0427 24.6815 48.673C21.5919 47.5405 18.9893 45.3888 17.307 42.5738C15.7628 39.8762 14.9901 36.1242 14.9901 31.3257C14.9901 26.5181 15.7589 22.7661 17.2991 20.0423C18.9775 17.2156 21.5722 15.0366 24.6592 13.8781C27.4842 12.7052 31.003 12.0666 35.205 11.8828L36.0541 11.845C39.9323 11.8333 43.7802 12.5227 47.4069 13.8794C49.5369 14.6991 51.4588 15.9763 53.0359 17.6183H69.8479C69.4437 16.5119 68.9672 15.4172 68.4169 14.3733C65.9631 9.76118 62.0112 6.21509 56.56 3.73896C51.1087 1.26543 44.7675 0.0130323 37.5337 0H36.0409C28.8454 0.117291 22.5871 1.27716 17.2675 3.49265C11.6595 5.82673 7.3838 9.25292 4.43633 13.7621C1.48755 18.283 0.00921493 24.1345 0 31.3283C0 37.9357 1.219 43.5539 3.65701 48.1686C6.09897 52.7807 10.0482 56.3398 15.5101 58.816C20.9613 61.3182 27.3052 62.5549 34.5389 62.5549H36.0409C43.2312 62.4246 49.4868 61.2647 54.8078 59.0753C60.4026 56.7412 64.6809 53.3281 67.6376 48.8046C70.5956 44.2837 72.0753 38.4322 72.0753 31.2514ZM291.133 7.54439V28.8535H312.781V33.115H291.131V54.5401H286.819V33.1163H265.169V28.8548H286.816V7.54439H291.129H291.133ZM154.195 39.201C154.922 41.2354 155.282 43.3701 155.256 45.5217C155.345 48.7537 154.569 51.9336 153.005 54.7616C151.359 57.4475 148.857 59.5066 145.901 60.5883C142.646 61.9046 138.598 62.5562 133.755 62.5562H85.5542V1.5625H131.409C137.345 1.58987 142.093 2.82794 145.661 5.29104C149.228 7.75284 151.012 11.5856 151.012 16.7712C151.042 18.9632 150.672 21.1266 149.918 23.1831C149.185 25.061 147.962 26.7031 146.374 27.9529C144.864 29.2053 143.04 30.025 141.098 30.313C142.925 30.4837 144.715 30.9386 146.395 31.6827C148.124 32.3982 149.731 33.3886 151.154 34.6019C152.543 35.8517 153.588 37.4417 154.195 39.201ZM99.8451 25.0206L99.8109 10.9601V10.9588H127.098C128.83 10.8936 130.557 11.1269 132.211 11.6899C133.409 12.146 134.441 12.9931 135.153 14.1009C135.879 15.2073 136.264 16.5366 136.251 17.8932C136.251 20.3042 135.627 22.104 134.385 23.2743C133.141 24.4485 131.053 25.0206 128.168 25.0206H99.8451ZM139.407 44.569C139.407 42.1463 138.618 40.3739 137.022 39.2388C135.409 38.1063 132.953 37.5329 129.645 37.5329H99.8109V51.5947H129.351C131.218 51.6482 133.079 51.4266 134.889 50.9431C136.161 50.5795 137.306 49.8354 138.188 48.7928C139.061 47.5808 139.496 46.0808 139.407 44.569ZM186.847 0.951358L207.815 47.4127L229.232 0.951358H247.847V61.9424H233.82V21.2439L214.786 61.9424H200.339L181.838 21.2439V61.9411H167.889V0.951358H186.845H186.847Z" fill="black"/>
</svg>
