<svg width="406" height="67" viewBox="0 0 406 67" fill="none" xmlns="http://www.w3.org/2000/svg">
<g clip-path="url(#clip0_316_1839)">
<path d="M44.3902 42.0309L39.9504 47.9187C17.1513 64.958 -8.62371 39.223 2.79984 14.416C11.9675 -5.49522 45.3182 -5.14323 50.062 17.7359C48.51 17.4479 44.6462 20.8237 43.5582 19.9998C43.2382 19.7598 42.7823 17.4319 42.4383 16.6559C34.2546 -2.09536 6.2237 5.96833 7.52765 28.4874C8.8236 50.8946 36.9585 53.6704 41.9663 32.3193H23.343V25.8395H50.47V52.5665H44.3982V42.0389L44.3902 42.0309Z" fill="#0040EC"/>
<path d="M184.889 17.7112L178.425 20.5751C174.529 0.6879 147.794 2.74382 144.114 22.1031C141.082 38.0464 155.786 53.6698 171.009 44.5422C175.393 41.9103 176.905 37.7184 178.617 33.1586L184.729 35.9585C179.473 58.7896 147.546 58.7256 138.666 38.2624C132.483 24.023 138.618 5.8797 154.122 1.34388C167.641 -2.61597 181.769 3.40779 184.889 17.7192V17.7112Z" fill="#0040EC"/>
<path d="M269.125 52.557V27.654C269.125 27.334 267.845 24.9021 267.51 24.5181C265.454 22.1822 260.542 22.4302 258.43 24.6541C257.838 25.2861 256.566 27.726 256.566 28.462V52.557H250.086V29.27C250.086 29.062 249.51 26.7181 249.374 26.3421C247.67 21.6862 240.263 21.8062 238.135 26.2301C237.975 26.5741 237.127 29.11 237.127 29.27V52.557H230.647V17.3344H237.127C237.327 17.3344 236.975 20.9103 237.127 21.3823C241.575 15.0705 251.942 15.0065 255.142 22.5902C259.918 14.5425 273.181 14.4225 275.485 24.5261C276.525 29.094 276.589 46.2453 276.013 51.1651C275.965 51.5731 275.829 52.565 275.381 52.565H269.101L269.125 52.557Z" fill="#0040EC"/>
<path d="M341.003 17.3359L350.522 39.6071C352.938 37.5431 360.01 17.3359 361.25 17.3359H367.929L346.066 66.734H338.779L346.874 48.3427L333.923 17.3359H341.011H341.003Z" fill="#0040EC"/>
<path d="M322.987 0.728516H329.267L329.875 51.5505C329.859 53.3024 322.987 52.6865 322.987 51.9585V0.728516Z" fill="#0141EC"/>
<path d="M203.848 17.0393C183.433 19.5112 184.929 54.5098 208.184 53.3579C231.455 52.2139 230.863 13.7674 203.848 17.0393ZM205.536 47.1101C193.144 45.1982 193.536 24.967 204.64 23.0951C222.799 20.0312 221.831 49.63 205.536 47.1101Z" fill="#0040EC"/>
<path d="M315.644 25.686C310.964 15.1824 297.372 13.8864 289.981 22.1821C289.365 21.1582 290.309 18.1343 289.405 17.5023C288.805 17.0943 282.901 17.1023 282.901 17.9343V66.7324H289.781V48.1011C296.916 55.9328 309.94 54.6048 315.068 45.2452C318.075 39.7414 318.179 31.3818 315.644 25.686ZM296.26 46.2772C286.029 42.0933 287.933 24.934 297.772 23.0941C316.58 19.5822 314.172 53.5969 296.26 46.2772Z" fill="#0040EC"/>
<path d="M110.3 17.0319C91.0125 19.6398 91.2525 52.2865 113.036 53.3585C137.851 54.5905 138.363 13.2321 110.3 17.0319ZM110.716 46.7748C99.8602 43.4629 100.716 24.9356 111.508 23.0957C130.315 19.8798 127.891 52.0226 110.716 46.7748Z" fill="#0040EC"/>
<path d="M56.1896 36.9191C57.6216 53.8465 78.9887 59.0943 88.6204 45.5668C89.0684 44.9348 90.8283 42.2229 90.3803 41.6069C89.8283 40.831 85.3565 40.239 84.2605 39.687C79.3967 51.5506 63.7014 48.5827 63.0214 35.9592H90.9563C92.8842 9.8962 53.9577 10.6162 56.1896 36.9191ZM63.8293 31.0954C65.2453 20.2958 82.5726 19.9758 83.6686 31.0954H63.8293Z" fill="#0040EC"/>
<path d="M379.681 8.01562H399.112V11.2555H383.321V20.3671C383.321 22.4551 387.121 28.5508 389.505 28.2068C392.001 27.8468 395.705 21.5751 395.473 18.9512H387.369V15.3033H398.712C399.232 20.4711 397.816 25.4309 394.065 29.0868C393.409 29.7188 390.193 32.1587 389.505 32.2627C388.097 32.4707 383.665 28.2868 382.745 27.0229C381.505 25.3269 379.681 20.7511 379.681 18.7432V8.01562Z" fill="#0040EC"/>
<path d="M372.385 0.728516V19.1518C372.385 26.8155 378.241 34.4472 384.569 38.151C388.985 40.7349 389.409 40.6949 393.856 38.191C399 35.3032 406 27.3515 406 21.1757V0.728516H372.385ZM403.16 18.3438C403.16 25.3435 397.568 33.2232 391.289 36.0231C388.321 37.3511 386.193 35.5351 383.761 33.6952C379.777 30.6713 375.625 24.3116 375.625 19.1518V4.57636C375.625 4.46437 376.105 4.17638 376.233 3.96839H402.552C402.6 3.96839 403.16 4.52837 403.16 4.57636V18.3438Z" fill="#0040EC"/>
<path d="M383.321 11.2555V20.3671C383.321 22.4551 387.121 28.5508 389.505 28.2068C392.001 27.8468 395.705 21.5751 395.473 18.9512H387.369V15.3033H398.712C399.232 20.4711 397.816 25.4309 394.065 29.0868C393.409 29.7188 390.193 32.1587 389.505 32.2627C388.097 32.4707 383.665 28.2868 382.745 27.0229C381.505 25.3269 379.681 20.7511 379.681 18.7432V8.01562H399.112V11.2555H383.321Z" fill="#FEFEFE"/>
<path d="M383.321 11.2555V20.3671C383.321 22.4551 387.121 28.5508 389.505 28.2068C392.001 27.8468 395.705 21.5751 395.473 18.9512H387.369V15.3033H398.712C399.232 20.4711 397.816 25.4309 394.065 29.0868C393.409 29.7188 390.193 32.1587 389.505 32.2627C388.097 32.4707 383.665 28.2868 382.745 27.0229C381.505 25.3269 379.681 20.7511 379.681 18.7432V8.01562H399.112V11.2555H383.321Z" fill="#0141EC"/>
</g>
<defs>
<clipPath id="clip0_316_1839">
<rect width="406" height="66.7334" fill="white"/>
</clipPath>
</defs>
</svg>
