<svg width="547" height="107" viewBox="0 0 547 107" fill="none" xmlns="http://www.w3.org/2000/svg">
<g clip-path="url(#clip0_316_1696)">
<mask id="mask0_316_1696" style="mask-type:luminance" maskUnits="userSpaceOnUse" x="0" y="0" width="547" height="107">
<path d="M0 0H546.132V106.131H0V0Z" fill="white"/>
</mask>
<g mask="url(#mask0_316_1696)">
<path d="M76.2827 67.4094V64.8345V61.2786V44.5413V40.9853L79.0226 35.2836L92.7215 24.4319C94.5479 22.8992 97.2878 24.1867 97.2878 26.5777V78.445C97.2878 80.836 94.4871 82.1235 92.6606 80.5908L76.2827 67.4094Z" fill="#00AC47"/>
<path d="M30.9553 16.582L8.84473 38.6926H30.9553V16.582Z" fill="#EA4335"/>
<path d="M30.9563 38.6914H8.8457V67.4352H30.9563V38.6914Z" fill="#2684FC"/>
<path d="M8.8457 67.4355V82.1759C8.8457 86.2296 12.1623 89.5461 16.2159 89.5461H30.9563V67.4355H8.8457Z" fill="#0066DA"/>
<path d="M79.0466 23.8677C79.0466 19.8606 75.8005 16.582 71.833 16.582H57.4059H30.9561V38.6926H58.0415V53.0645L79.0466 52.403V23.8677Z" fill="#FFBA00"/>
<path d="M58.0415 67.4363H30.9561V89.5469H57.4059H71.833C75.8005 89.5469 79.0466 86.2731 79.0466 82.2719V53.0645H58.0415V67.4363Z" fill="#00AC47"/>
<path d="M79.0461 35.375V69.6464L58.041 53.0635L79.0461 35.375Z" fill="#00832D"/>
<path d="M389.256 79.8219H382.747V29.1621H389.256L406.874 60.0108H407.157L424.775 29.1621H431.284V79.8219H424.775V49.7515L425.058 41.261H424.775L408.926 69.0673H405.105L389.256 41.261H388.973L389.256 49.7515V79.8219Z" fill="#5F6368"/>
<path d="M455.911 80.9531C450.817 80.9531 446.619 79.2078 443.317 75.7173C440.015 72.2268 438.364 67.8164 438.364 62.4863C438.364 57.2033 439.968 52.8166 443.176 49.3261C446.383 45.7884 450.486 44.0195 455.487 44.0195C460.628 44.0195 464.708 45.6941 467.727 49.0431C470.793 52.3449 472.326 56.991 472.326 62.9816L472.255 63.6891H445.015C445.109 67.0853 446.241 69.8212 448.411 71.8966C450.581 73.972 453.175 75.0097 456.194 75.0097C460.345 75.0097 463.6 72.9343 465.958 68.7834L471.76 71.6136C470.203 74.538 468.033 76.8258 465.251 78.4767C462.515 80.1276 459.401 80.9531 455.911 80.9531ZM445.51 58.3118H465.392C465.203 55.9062 464.213 53.9251 462.421 52.3685C460.675 50.7647 458.317 49.9629 455.345 49.9629C452.892 49.9629 450.769 50.7176 448.977 52.227C447.232 53.7364 446.076 55.7647 445.51 58.3118Z" fill="#5F6368"/>
<path d="M494.19 80.9531C489.096 80.9531 484.899 79.2078 481.596 75.7173C478.294 72.2268 476.644 67.8164 476.644 62.4863C476.644 57.2033 478.248 52.8166 481.455 49.3261C484.662 45.7884 488.766 44.0195 493.766 44.0195C498.908 44.0195 502.987 45.6941 506.006 49.0431C509.072 52.3449 510.605 56.991 510.605 62.9816L510.535 63.6891H483.294C483.388 67.0853 484.52 69.8212 486.691 71.8966C488.861 73.972 491.454 75.0097 494.474 75.0097C498.625 75.0097 501.879 72.9343 504.238 68.7834L510.039 71.6136C508.483 74.538 506.313 76.8258 503.53 78.4767C500.794 80.1276 497.681 80.9531 494.19 80.9531ZM483.79 58.3118H503.672C503.482 55.9062 502.492 53.9251 500.7 52.3685C498.954 50.7647 496.596 49.9629 493.624 49.9629C491.171 49.9629 489.049 50.7176 487.257 52.227C485.511 53.7364 484.356 55.7647 483.79 58.3118Z" fill="#5F6368"/>
<path d="M529.248 80.3876C526.418 80.3876 524.06 79.515 522.173 77.7697C520.333 76.0244 519.39 73.5952 519.343 70.482V51.0955H513.258V45.1522H519.343V34.5391H525.852V45.1522H534.342V51.0955H525.852V68.3594C525.852 70.6708 526.3 72.2509 527.196 73.0999C528.093 73.9018 529.107 74.3028 530.239 74.3028C530.757 74.3028 531.253 74.2556 531.725 74.1613C532.243 74.0197 532.715 73.8547 533.14 73.666L535.192 79.4678C533.493 80.081 531.512 80.3876 529.248 80.3876Z" fill="#5F6368"/>
<path d="M168.128 58.3568V50.623H194.013C194.278 51.9859 194.434 53.6082 194.434 55.3644C194.434 61.165 192.845 68.3457 187.737 73.4562C182.766 78.6353 176.416 81.3966 167.994 81.3966C152.391 81.3966 139.275 68.6906 139.275 53.0851C139.275 37.4794 152.391 24.7734 167.994 24.7734C176.622 24.7734 182.766 28.1577 187.392 32.5769L181.938 38.0326C178.623 34.9249 174.137 32.5085 167.994 32.5085C156.603 32.5085 147.697 41.692 147.697 53.0865C147.697 64.481 156.603 73.6644 167.994 73.6644C175.381 73.6644 179.592 70.6949 182.283 68.0021C184.477 65.8082 185.921 62.6605 186.483 58.3582L168.128 58.3568Z" fill="#5F6368"/>
<path d="M233.88 63.1656C233.88 73.662 225.665 81.3957 215.586 81.3957C205.507 81.3957 197.292 73.662 197.292 63.1656C197.292 52.6008 205.507 44.9355 215.586 44.9355C225.666 44.9355 233.88 52.5994 233.88 63.1656ZM225.873 63.1656C225.873 56.6052 221.11 52.1175 215.587 52.1175C210.065 52.1175 205.3 56.6052 205.3 63.1656C205.3 69.6562 210.063 74.2137 215.587 74.2137C221.11 74.2137 225.873 69.6562 225.873 63.1656Z" fill="#5F6368"/>
<path d="M273.789 63.1656C273.789 73.662 265.574 81.3957 255.495 81.3957C245.416 81.3957 237.201 73.662 237.201 63.1656C237.201 52.6008 245.416 44.9355 255.495 44.9355C265.575 44.9355 273.789 52.5994 273.789 63.1656ZM265.782 63.1656C265.782 56.6052 261.019 52.1175 255.496 52.1175C249.974 52.1175 245.209 56.6052 245.209 63.1656C245.209 69.6562 249.973 74.2137 255.496 74.2137C261.019 74.2137 265.782 69.6562 265.782 63.1656Z" fill="#5F6368"/>
<path d="M312.042 46.0404V78.7712C312.042 92.237 304.103 97.7611 294.714 97.7611C285.877 97.7611 280.563 91.8222 278.56 86.9895L285.532 84.0886C286.775 87.0579 289.812 90.5791 294.714 90.5791C300.72 90.5791 304.448 86.8498 304.448 79.8759V77.2515H304.172C302.376 79.4611 298.925 81.3942 294.576 81.3942C285.463 81.3942 277.109 73.4538 277.109 63.2341C277.109 52.9443 285.463 44.9355 294.576 44.9355C298.925 44.9355 302.376 46.8686 304.172 49.0098H304.448V46.0404H312.042ZM305 63.2355C305 56.8132 300.719 52.1175 295.265 52.1175C289.743 52.1175 285.117 56.8132 285.117 63.2355C285.117 69.5878 289.742 74.2151 295.265 74.2151C300.72 74.2151 305 69.5878 305 63.2355Z" fill="#5F6368"/>
<path d="M325.605 26.8887V80.2944H317.598V26.8887H325.605Z" fill="#5F6368"/>
<path d="M356.529 69.1744L362.742 73.317C360.739 76.2865 355.908 81.3957 347.554 81.3957C337.199 81.3957 329.467 73.3855 329.467 63.1656C329.467 52.3242 337.267 44.9355 346.656 44.9355C356.114 44.9355 360.739 52.4625 362.259 56.5368L363.087 58.6081L338.717 68.6896C340.582 72.349 343.482 74.2137 347.554 74.2137C351.627 74.2166 354.458 72.2136 356.529 69.1744ZM337.406 62.6154L353.697 55.8482C352.799 53.5702 350.107 51.9821 346.931 51.9821C342.86 51.9806 337.199 55.5716 337.406 62.6154Z" fill="#5F6368"/>
</g>
</g>
<defs>
<clipPath id="clip0_316_1696">
<rect width="546.132" height="106.131" fill="white"/>
</clipPath>
</defs>
</svg>
