<svg width="97" height="19" viewBox="0 0 97 19" fill="none" xmlns="http://www.w3.org/2000/svg">
<g clip-path="url(#clip0_3303_26585)">
<mask id="mask0_3303_26585" style="mask-type:luminance" maskUnits="userSpaceOnUse" x="0" y="0" width="97" height="19">
<path d="M0 0H97V18.8502H0V0Z" fill="white"/>
</mask>
<g mask="url(#mask0_3303_26585)">
<path d="M13.5469 11.974V11.5167V10.8851V7.91233V7.28075L14.0335 6.26805L16.4666 4.34065C16.791 4.06842 17.2776 4.2971 17.2776 4.72178V13.9341C17.2776 14.3587 16.7802 14.5874 16.4558 14.3152L13.5469 11.974Z" fill="#00AC47"/>
<path d="M5.4967 2.94531L1.57031 6.8717H5.4967V2.94531Z" fill="#EA4335"/>
<path d="M5.4967 6.87305H1.57031V11.9774H5.4967V6.87305Z" fill="#2684FC"/>
<path d="M1.57031 11.9785V14.5961C1.57031 15.3159 2.15927 15.9049 2.87912 15.9049H5.4967V11.9785H1.57031Z" fill="#0066DA"/>
<path d="M14.036 4.2391C14.036 3.52752 13.4596 2.94531 12.755 2.94531H10.193H5.49609V6.8717H10.3059V9.42385L14.036 9.30637V4.2391Z" fill="#FFBA00"/>
<path d="M10.3059 11.9779H5.49609V15.9043H10.193H12.755C13.4596 15.9043 14.036 15.323 14.036 14.6124V9.42578H10.3059V11.9779Z" fill="#00AC47"/>
<path d="M14.0387 6.2832V12.3691L10.3086 9.42431L14.0387 6.2832Z" fill="#00832D"/>
<path d="M69.1366 14.1775H67.9805V5.17969H69.1366L72.2657 10.6588H72.316L75.4452 5.17969H76.6013V14.1775H75.4452V8.83663L75.4954 7.32861H75.4452L72.6302 12.2674H71.9516L69.1366 7.32861H69.0864L69.1366 8.83663V14.1775Z" fill="#5F6368"/>
<path d="M80.9734 14.377C80.0688 14.377 79.3233 14.0671 78.7369 13.4472C78.1505 12.8274 77.8574 12.0442 77.8574 11.0977C77.8574 10.1595 78.1423 9.38053 78.7118 8.76069C79.2813 8.13247 80.0101 7.81836 80.898 7.81836C81.8111 7.81836 82.5355 8.11572 83.0717 8.71043C83.6161 9.29678 83.8884 10.1218 83.8884 11.1856L83.8758 11.3113H79.0385C79.0552 11.9144 79.2562 12.4002 79.6416 12.7687C80.0269 13.1373 80.4875 13.3216 81.0237 13.3216C81.7608 13.3216 82.3388 12.953 82.7576 12.2159L83.7878 12.7185C83.5114 13.2378 83.126 13.6441 82.6319 13.9372C82.146 14.2304 81.5932 14.377 80.9734 14.377ZM79.1264 10.3564H82.657C82.6235 9.92919 82.4476 9.57738 82.1293 9.30096C81.8193 9.01616 81.4006 8.87377 80.8729 8.87377C80.4373 8.87377 80.0603 9.0078 79.7421 9.27583C79.4321 9.54387 79.2269 9.90406 79.1264 10.3564Z" fill="#5F6368"/>
<path d="M87.7722 14.377C86.8676 14.377 86.1222 14.0671 85.5358 13.4472C84.9494 12.8274 84.6562 12.0442 84.6562 11.0977C84.6562 10.1595 84.9411 9.38053 85.5106 8.76069C86.0802 8.13247 86.8089 7.81836 87.6968 7.81836C88.6099 7.81836 89.3343 8.11572 89.8705 8.71043C90.4149 9.29678 90.6872 10.1218 90.6872 11.1856L90.6746 11.3113H85.8373C85.854 11.9144 86.055 12.4002 86.4404 12.7687C86.8258 13.1373 87.2863 13.3216 87.8225 13.3216C88.5597 13.3216 89.1376 12.953 89.5564 12.2159L90.5867 12.7185C90.3102 13.2378 89.9249 13.6441 89.4307 13.9372C88.9448 14.2304 88.392 14.377 87.7722 14.377ZM85.9253 10.3564H89.4559C89.4223 9.92919 89.2464 9.57738 88.9282 9.30096C88.6182 9.01616 88.1994 8.87377 87.6717 8.87377C87.2361 8.87377 86.8591 9.0078 86.5409 9.27583C86.2309 9.54387 86.0258 9.90406 85.9253 10.3564Z" fill="#5F6368"/>
<path d="M93.9997 14.2765C93.4971 14.2765 93.0784 14.1216 92.7433 13.8116C92.4166 13.5017 92.2491 13.0703 92.2407 12.5175V9.07485H91.1602V8.01943H92.2407V6.13477H93.3966V8.01943H94.9044V9.07485H93.3966V12.1406C93.3966 12.551 93.4761 12.8316 93.6354 12.9824C93.7946 13.1248 93.9746 13.196 94.1756 13.196C94.2677 13.196 94.3556 13.1876 94.4395 13.1709C94.5316 13.1457 94.6154 13.1164 94.6908 13.0829L95.0551 14.1132C94.7536 14.2221 94.4018 14.2765 93.9997 14.2765Z" fill="#5F6368"/>
<path d="M29.8608 10.3652V8.99161H34.4585C34.5054 9.23368 34.5331 9.52181 34.5331 9.83375C34.5331 10.864 34.251 12.1394 33.3438 13.0471C32.4608 13.9669 31.3329 14.4574 29.8371 14.4574C27.0659 14.4574 24.7363 12.2006 24.7363 9.4289C24.7363 6.65713 27.0659 4.40039 29.8371 4.40039C31.3696 4.40039 32.4608 5.00148 33.2825 5.78639L32.3137 6.75539C31.725 6.20341 30.9282 5.77424 29.8371 5.77424C27.814 5.77424 26.2322 7.40535 26.2322 9.42915C26.2322 11.453 27.814 13.0841 29.8371 13.0841C31.1491 13.0841 31.897 12.5566 32.375 12.0784C32.7647 11.6887 33.0212 11.1296 33.1209 10.3655L29.8608 10.3652Z" fill="#5F6368"/>
<path d="M41.5384 11.2197C41.5384 13.0836 40.0796 14.457 38.2897 14.457C36.4999 14.457 35.041 13.0836 35.041 11.2197C35.041 9.34362 36.4999 7.98242 38.2897 7.98242C40.0797 7.98242 41.5384 9.34337 41.5384 11.2197ZM40.1165 11.2197C40.1165 10.0547 39.2707 9.25779 38.2899 9.25779C37.3093 9.25779 36.4632 10.0547 36.4632 11.2197C36.4632 12.3723 37.3089 13.1816 38.2899 13.1816C39.2707 13.1816 40.1165 12.3723 40.1165 11.2197Z" fill="#5F6368"/>
<path d="M48.6263 11.2197C48.6263 13.0836 47.1674 14.457 45.3776 14.457C43.5878 14.457 42.1289 13.0836 42.1289 11.2197C42.1289 9.34362 43.5878 7.98242 45.3776 7.98242C47.1676 7.98242 48.6263 9.34337 48.6263 11.2197ZM47.2043 11.2197C47.2043 10.0547 46.3586 9.25779 45.3778 9.25779C44.3972 9.25779 43.551 10.0547 43.551 11.2197C43.551 12.3723 44.397 13.1816 45.3778 13.1816C46.3586 13.1816 47.2043 12.3723 47.2043 11.2197Z" fill="#5F6368"/>
<path d="M55.4213 8.17671V13.9901C55.4213 16.3818 54.0112 17.363 52.3436 17.363C50.7741 17.363 49.8302 16.3081 49.4744 15.4498L50.7128 14.9345C50.9335 15.4619 51.4729 16.0874 52.3436 16.0874C53.4104 16.0874 54.0725 15.425 54.0725 14.1863V13.7202H54.0234C53.7045 14.1127 53.0915 14.456 52.319 14.456C50.7005 14.456 49.2168 13.0457 49.2168 11.2305C49.2168 9.40293 50.7005 7.98047 52.319 7.98047C53.0915 7.98047 53.7045 8.3238 54.0234 8.7041H54.0725V8.17671H55.4213ZM54.1705 11.2308C54.1705 10.0901 53.4102 9.25608 52.4416 9.25608C51.4608 9.25608 50.639 10.0901 50.639 11.2308C50.639 12.359 51.4606 13.1809 52.4416 13.1809C53.4104 13.1809 54.1705 12.359 54.1705 11.2308Z" fill="#5F6368"/>
<path d="M57.8304 4.77539V14.2609H56.4082V4.77539H57.8304Z" fill="#5F6368"/>
<path d="M63.3233 12.2848L64.4266 13.0204C64.0709 13.5478 63.213 14.455 61.7296 14.455C59.8906 14.455 58.5176 13.0326 58.5176 11.2178C58.5176 9.29255 59.9028 7.98047 61.57 7.98047C63.2497 7.98047 64.0709 9.31711 64.3408 10.0406L64.4878 10.4084L60.1602 12.1987C60.4914 12.8485 61.0063 13.1797 61.7296 13.1797C62.4528 13.1802 62.9556 12.8245 63.3233 12.2848ZM59.9273 11.12L62.8203 9.91834C62.6609 9.5138 62.1829 9.23179 61.6188 9.23179C60.896 9.23153 59.8906 9.86922 59.9273 11.12Z" fill="#5F6368"/>
</g>
</g>
<defs>
<clipPath id="clip0_3303_26585">
<rect width="97" height="18.8502" fill="white"/>
</clipPath>
</defs>
</svg>
