<svg width="95" height="22" viewBox="0 0 95 22" fill="none" xmlns="http://www.w3.org/2000/svg">
<g clip-path="url(#clip0_3303_26476)">
<path d="M8.03598 7.7508C8.03598 8.68148 7.64224 9.50476 6.99793 10.1491C6.28203 10.865 5.24397 11.0439 5.24397 11.6525C5.24397 12.4757 6.56839 12.2252 7.83911 13.4959C8.68029 14.3371 9.19932 15.4467 9.19932 16.7354C9.19932 19.2768 7.15901 21.2992 4.59966 21.2992C2.04032 21.2992 0 19.2786 0 16.7371C0 15.4485 0.519028 14.3389 1.36021 13.4977C2.63093 12.227 3.95535 12.4775 3.95535 11.6543C3.95535 11.0457 2.91729 10.8668 2.20139 10.1509C1.55708 9.50655 1.16334 8.68327 1.16334 7.7168C1.16334 5.85546 2.68463 4.35207 4.54597 4.35207C4.90392 4.35207 5.22607 4.40576 5.49454 4.40576C5.97777 4.40576 6.22834 4.19099 6.22834 3.85094C6.22834 3.65406 6.13885 3.4035 6.13885 3.13504C6.13885 2.52652 6.65788 2.02539 7.28429 2.02539C7.9107 2.02539 8.41183 2.54442 8.41183 3.17083C8.41183 3.83304 7.8928 4.1373 7.49906 4.28048C7.1769 4.38786 6.92634 4.53104 6.92634 4.8532C6.92634 5.46171 8.03598 6.05233 8.03598 7.75259V7.7508ZM7.67803 16.7371C7.67803 14.9653 6.37152 13.5335 4.59966 13.5335C2.82781 13.5335 1.52129 14.9653 1.52129 16.7371C1.52129 18.509 2.82781 19.9408 4.59966 19.9408C6.37152 19.9408 7.67803 18.4911 7.67803 16.7371ZM6.62208 7.71501C6.62208 6.58747 5.70931 5.6568 4.59966 5.6568C3.49002 5.6568 2.57724 6.58747 2.57724 7.71501C2.57724 8.84255 3.49002 9.77322 4.59966 9.77322C5.70931 9.77322 6.62208 8.84255 6.62208 7.71501Z" fill="#23A47F"/>
<path d="M14.4781 4.5283C15.0508 4.5283 15.4804 4.95784 15.4804 5.49477C15.4804 6.03169 15.0687 6.46123 14.496 6.46123C13.9233 6.46123 13.5832 6.08539 12.9926 6.08539C12.402 6.08539 11.9725 6.49703 11.9725 7.19503V12.8327C11.9725 13.2623 11.6324 13.6023 11.2029 13.6023C10.7733 13.6023 10.4512 13.2623 10.4512 12.8327V5.2442C10.4512 4.81466 10.7912 4.47461 11.2029 4.47461C11.9725 4.47461 11.8293 5.20841 12.5989 5.20841C13.3685 5.20841 13.6011 4.5283 14.4781 4.5283Z" fill="#23A47F"/>
<path d="M16.1426 9.03812C16.1426 6.33559 18.0039 4.38477 20.5633 4.38477C22.9078 4.38477 24.7692 6.10293 24.7692 8.4475C24.7692 9.00232 24.4112 9.37817 23.8922 9.37817H18.0755C17.8249 9.37817 17.7355 9.46766 17.7355 9.66453C17.7355 10.112 18.0934 10.9353 18.6303 11.4722C19.1673 12.0091 19.9011 12.3313 20.9391 12.3313C21.7087 12.3313 22.3888 12.0449 22.9078 11.6691C23.0689 11.5438 23.2479 11.4722 23.4269 11.4722C23.8027 11.4722 24.107 11.8122 24.107 12.1702C24.107 12.385 24.0354 12.5639 23.8564 12.725C23.1047 13.3514 22.0488 13.6915 20.9033 13.6915C18.1292 13.6915 16.1426 11.687 16.1426 9.03812ZM22.4783 6.46088C21.9772 5.95975 21.3329 5.70918 20.5633 5.70918C19.7937 5.70918 19.0778 6.01344 18.5587 6.53247C18.1471 6.94411 17.8607 7.48104 17.8607 7.83899C17.8607 8.01796 17.9681 8.08955 18.2008 8.08955H22.8541C23.0689 8.08955 23.1763 8.01796 23.1763 7.83899C23.1763 7.40945 22.8362 6.81883 22.4783 6.46088Z" fill="#23A47F"/>
<path d="M26.3086 9.03812C26.3086 6.33559 28.1699 4.38477 30.7293 4.38477C33.0739 4.38477 34.9352 6.10293 34.9352 8.4475C34.9352 9.00232 34.5772 9.37817 34.0582 9.37817H28.2415C27.991 9.37817 27.9015 9.46766 27.9015 9.66453C27.9015 10.112 28.2594 10.9353 28.7963 11.4722C29.3333 12.0091 30.0671 12.3313 31.1051 12.3313C31.8747 12.3313 32.5548 12.0449 33.0739 11.6691C33.2349 11.5438 33.4139 11.4722 33.5929 11.4722C33.9687 11.4722 34.273 11.8122 34.273 12.1702C34.273 12.385 34.2014 12.5639 34.0224 12.725C33.2707 13.3514 32.2148 13.6915 31.0693 13.6915C28.2952 13.6915 26.3086 11.687 26.3086 9.03812ZM32.6443 6.46088C32.1432 5.95975 31.4989 5.70918 30.7293 5.70918C29.9597 5.70918 29.2438 6.01344 28.7248 6.53247C28.3131 6.94411 28.0268 7.48104 28.0268 7.83899C28.0268 8.01796 28.1341 8.08955 28.3668 8.08955H33.0202C33.2349 8.08955 33.3423 8.01796 33.3423 7.83899C33.3423 7.40945 33.0023 6.81883 32.6443 6.46088Z" fill="#23A47F"/>
<path d="M43.9023 13.602C43.4727 13.602 43.1327 13.2619 43.1327 12.8324V7.96427C43.1327 6.69354 42.1304 5.72708 40.8418 5.72708C39.5532 5.72708 38.533 6.71144 38.533 7.96427V12.8324C38.533 13.2619 38.193 13.602 37.7634 13.602C37.3339 13.602 37.0117 13.2619 37.0117 12.8324V5.22595C37.0117 4.81431 37.3518 4.47425 37.7455 4.47425C38.4972 4.47425 38.4614 5.15436 38.8552 5.15436C39.2489 5.15436 39.7858 4.38477 41.1818 4.38477C43.1327 4.38477 44.654 6.01344 44.654 7.96427V12.8324C44.654 13.2619 44.3139 13.602 43.9023 13.602Z" fill="#23A47F"/>
<path d="M54.1757 13.6021C53.7462 13.6021 53.4061 13.2621 53.4061 12.8325V7.96439C53.4061 6.69367 52.4038 5.7272 51.1152 5.7272C49.8266 5.7272 48.8064 6.71157 48.8064 7.96439V12.8325C48.8064 13.2621 48.4664 13.6021 48.0368 13.6021C47.6073 13.6021 47.2852 13.2621 47.2852 12.8325V0.769593C47.2852 0.340053 47.6252 0 48.0368 0C48.4485 0 48.8064 0.340053 48.8064 0.769593V4.72494C48.8064 4.93971 48.8959 5.065 49.1286 5.065C49.5223 5.065 50.0593 4.38489 51.4553 4.38489C53.4061 4.38489 54.9274 6.01357 54.9274 7.96439V12.8325C54.9274 13.2621 54.5873 13.6021 54.1757 13.6021Z" fill="#23A47F"/>
<path d="M57.0195 9.03812C57.0195 6.44298 59.0956 4.38477 61.7087 4.38477C64.3217 4.38477 66.3978 6.44298 66.3978 9.03812C66.3978 11.6333 64.3217 13.6915 61.7087 13.6915C59.0956 13.6915 57.0195 11.6333 57.0195 9.03812ZM64.8783 9.03812C64.8783 7.23047 63.536 5.74498 61.7105 5.74498C59.8849 5.74498 58.5605 7.23047 58.5605 9.03812C58.5605 10.8458 59.9028 12.3313 61.7105 12.3313C63.5181 12.3313 64.8783 10.8458 64.8783 9.03812Z" fill="#23A47F"/>
<path d="M69.2439 4.47461C69.6734 4.47461 70.0135 4.81466 70.0135 5.2442V10.1123C70.0135 11.383 71.0157 12.3495 72.3044 12.3495C73.593 12.3495 74.6131 11.3652 74.6131 10.1123V5.2442C74.6131 4.81466 74.9532 4.47461 75.3827 4.47461C75.8123 4.47461 76.1344 4.81466 76.1344 5.2442V12.8506C76.1344 13.2623 75.7944 13.6023 75.4006 13.6023C74.6489 13.6023 74.6847 12.9222 74.291 12.9222C73.8972 12.9222 73.3603 13.6918 71.9643 13.6918C70.0135 13.6918 68.4922 12.0632 68.4922 10.1123V5.2442C68.4922 4.81466 68.8322 4.47461 69.2439 4.47461Z" fill="#23A47F"/>
<path d="M78.8364 13.0293C78.4963 12.8145 78.2637 12.5997 78.2637 12.1881C78.2637 11.7764 78.5679 11.4901 78.9438 11.4901C79.3912 11.4901 79.5881 11.7585 79.9639 11.9554C80.4293 12.2239 80.9662 12.3671 81.6284 12.3671C82.8454 12.3671 83.454 11.8122 83.454 11.1321C83.454 10.1657 82.5591 9.98669 81.342 9.66453C79.8387 9.27079 78.389 8.82335 78.389 7.08729C78.389 5.5481 79.5702 4.38477 81.6642 4.38477C82.4875 4.38477 83.2571 4.59954 83.8656 4.97538C84.0804 5.10067 84.2951 5.36913 84.2951 5.67339C84.2951 6.06713 83.973 6.40718 83.5613 6.40718C83.2929 6.40718 83.0781 6.22821 82.8096 6.04923C82.5412 5.87026 82.1474 5.70918 81.6105 5.70918C80.4114 5.70918 79.8923 6.22821 79.8923 6.92621C79.8923 7.83899 80.7693 8.05376 82.0222 8.35801C83.4897 8.71596 84.9394 9.1813 84.9394 10.9532C84.9394 12.4923 83.794 13.6915 81.5926 13.6915C80.5188 13.6915 79.5523 13.4767 78.8364 13.0293Z" fill="#23A47F"/>
<path d="M86.3711 9.03812C86.3711 6.33559 88.2324 4.38477 90.7918 4.38477C93.1364 4.38477 94.9977 6.10293 94.9977 8.4475C94.9977 9.00232 94.6397 9.37817 94.1207 9.37817H88.304C88.0535 9.37817 87.964 9.46766 87.964 9.66453C87.964 10.112 88.3219 10.9353 88.8588 11.4722C89.3958 12.0091 90.1296 12.3313 91.1676 12.3313C91.9372 12.3313 92.6173 12.0449 93.1364 11.6691C93.2974 11.5438 93.4764 11.4722 93.6554 11.4722C94.0312 11.4722 94.3355 11.8122 94.3355 12.1702C94.3355 12.385 94.2639 12.5639 94.0849 12.725C93.3332 13.3514 92.2773 13.6915 91.1318 13.6915C88.3577 13.6915 86.3711 11.687 86.3711 9.03812ZM92.7086 6.46088C92.2075 5.95975 91.5632 5.70918 90.7936 5.70918C90.024 5.70918 89.3081 6.01344 88.789 6.53247C88.3774 6.94411 88.091 7.48104 88.091 7.83899C88.091 8.01796 88.1984 8.08955 88.4311 8.08955H93.0844C93.2992 8.08955 93.4066 8.01796 93.4066 7.83899C93.4066 7.40945 93.0666 6.81883 92.7086 6.46088Z" fill="#23A47F"/>
</g>
<defs>
<clipPath id="clip0_3303_26476">
<rect width="95" height="21.2998" fill="white"/>
</clipPath>
</defs>
</svg>
