<svg width="94" height="21" viewBox="0 0 94 21" fill="none" xmlns="http://www.w3.org/2000/svg">
<g clip-path="url(#clip0_3303_26191)">
<path d="M28.6412 11.2609C27.6456 11.2609 26.8954 11.0407 26.4061 10.5931C25.9168 10.1446 25.6641 9.54197 25.6641 8.76813V6.53549C25.6641 5.75349 25.9005 5.14192 26.3816 4.6861C26.8627 4.22946 27.5974 4.00195 28.5923 4.00195C29.5871 4.00195 30.2321 4.17319 30.6806 4.51567C31.1291 4.85815 31.3737 5.42814 31.4145 6.21828L30.0845 6.30798C30.0437 5.86765 29.9214 5.55045 29.7339 5.35475C29.5382 5.15904 29.1631 5.06119 28.5996 5.06119C27.9717 5.06119 27.5387 5.19166 27.3186 5.4526C27.0984 5.71353 26.9842 6.10412 26.9842 6.61784V8.67109C26.9842 9.17665 27.1066 9.55909 27.3512 9.81187C27.5958 10.0647 28.0525 10.1951 28.7138 10.1951C29.309 10.1951 29.7012 10.0647 29.8969 9.79556C30.0926 9.52647 30.1823 9.12773 30.1742 8.57324H28.5344V7.514H31.5042V8.72001C31.5042 9.49386 31.2758 10.1054 30.811 10.5694C30.3544 11.026 29.6279 11.2617 28.6412 11.2617V11.2609Z" fill="#111111"/>
<path d="M36.2445 11.2618C35.2326 11.2618 34.4987 11.0417 34.042 10.6022C33.5936 10.1618 33.3652 9.51031 33.3652 8.63862V4.0918H34.6952V8.54077C34.6952 9.1026 34.8012 9.51031 35.0132 9.76309C35.2252 10.0159 35.6329 10.1463 36.2453 10.1463C36.8577 10.1463 37.2736 10.0159 37.4774 9.76309C37.6894 9.51031 37.7954 9.09526 37.7954 8.54077V4.0918H39.1254V8.63046C39.1254 9.50216 38.8971 10.1627 38.4486 10.594C38.0001 11.0425 37.2654 11.2618 36.2461 11.2618H36.2445Z" fill="#111111"/>
<path d="M41.3945 11.1401V4.125H42.7245V11.1401H41.3945Z" fill="#111111"/>
<path d="M74.0449 11.1401V4.125H75.3749V11.1401H74.0449Z" fill="#111111"/>
<path d="M44.9922 11.1722V4.0918H47.75C48.6967 4.0918 49.4306 4.32827 49.9606 4.79225C50.4906 5.2652 50.7524 5.88411 50.7524 6.6661V8.62965C50.7524 9.40349 50.4833 10.0151 49.9524 10.479C49.4224 10.9357 48.6795 11.1713 47.7418 11.1713H44.9922V11.1722ZM46.314 10.1048H47.644C48.2963 10.1048 48.7538 9.96613 49.0147 9.69704C49.2838 9.42795 49.4142 9.03736 49.4142 8.53995V6.7558C49.4142 6.25839 49.2838 5.85964 49.0147 5.5824C48.7456 5.297 48.289 5.15838 47.644 5.15838H46.314V10.1039V10.1048Z" fill="#111111"/>
<path d="M52.6934 11.1722V4.0918H57.6536V5.15104H54.0233V6.82919H57.2133V7.88843H54.0233V10.0966H57.6536V11.1558H52.6934V11.1722Z" fill="#111111"/>
<path d="M59.5059 11.1722V4.0918H62.2718C63.0309 4.0918 63.6099 4.26304 64.0258 4.60552C64.4416 4.948 64.6455 5.42828 64.6455 6.05616V6.97678C64.6455 7.58753 64.4416 8.05233 64.0258 8.38665C63.6099 8.72098 63.0301 8.88406 62.2718 8.88406H60.8358V11.1738H59.5059V11.1722ZM60.8358 7.81504H62.1169C62.5409 7.81504 62.8507 7.74165 63.0309 7.58672C63.2185 7.43994 63.3082 7.18716 63.3082 6.82919V6.14504C63.3082 5.79441 63.2185 5.53429 63.0309 5.37936C62.8434 5.22443 62.5417 5.14288 62.1169 5.14288H60.8358V7.81504Z" fill="#111111"/>
<path d="M69.2054 11.2609C68.2587 11.2609 67.5493 11.0489 67.0601 10.6175C66.5708 10.1935 66.3262 9.57458 66.3262 8.76812V6.53549C66.3262 5.71272 66.5708 5.09299 67.0601 4.65348C67.5493 4.2213 68.2677 4.00195 69.2136 4.00195C70.1595 4.00195 70.8697 4.22212 71.359 4.65348C71.8401 5.08566 72.0847 5.71272 72.0847 6.53549V8.75997C72.0847 9.56643 71.8401 10.1862 71.3508 10.6094C70.8616 11.0415 70.1513 11.2609 69.2054 11.2609ZM69.2054 10.1935C69.7681 10.1935 70.1685 10.0793 70.4049 9.84286C70.6414 9.60638 70.7556 9.21579 70.7556 8.66946V6.62437C70.7556 6.06254 70.6414 5.65482 70.4049 5.41835C70.1685 5.18188 69.7689 5.06772 69.2054 5.06772C68.642 5.06772 68.2424 5.19003 68.006 5.41835C67.7695 5.65482 67.6553 6.05357 67.6553 6.62437V8.67761C67.6553 9.22313 67.7695 9.61454 68.006 9.85101C68.2343 10.0793 68.6338 10.1935 69.2054 10.1935Z" fill="#111111"/>
<path d="M81.6154 11.1722L78.8821 5.55794V11.1722H77.707V4.0918H79.5426L82.3003 9.77125V4.0918H83.4672V11.164L81.6154 11.1722Z" fill="#111111"/>
<path d="M87.1794 11.1718V5.15885H84.9688V4.09961H90.7208V5.15885H88.5101V11.1718H87.1802H87.1794Z" fill="#111111"/>
<path d="M27.3531 18.1375C27.0432 18.1375 26.7578 18.0885 26.4961 17.9825C26.2352 17.8765 26.015 17.7134 25.8438 17.477L26.1536 17.0611C26.3167 17.2487 26.4961 17.3873 26.6999 17.477C26.9038 17.5585 27.1484 17.6074 27.4338 17.6074C27.6703 17.6074 27.8579 17.5667 27.9802 17.477C28.1106 17.3873 28.1759 17.265 28.1759 17.0937C28.1759 16.9388 28.1106 16.8328 27.972 16.7594C27.8334 16.6942 27.5561 16.6208 27.1313 16.5555C26.6991 16.4903 26.3893 16.3843 26.2091 16.2375C26.0297 16.0907 25.94 15.8624 25.94 15.5697C25.94 15.2517 26.0541 14.9916 26.2906 14.7958C26.5271 14.592 26.8614 14.4941 27.3026 14.4941C27.5961 14.4941 27.8733 14.5431 28.1188 14.6409C28.3634 14.7388 28.5591 14.8937 28.6977 15.0976L28.4123 15.4971C28.2656 15.3422 28.0943 15.2199 27.9068 15.1465C27.7192 15.0731 27.5154 15.0323 27.2952 15.0323C27.0914 15.0323 26.9201 15.0731 26.806 15.1465C26.6836 15.2199 26.6266 15.3422 26.6266 15.5053C26.6266 15.6684 26.6999 15.7662 26.8386 15.8314C26.9772 15.8967 27.2707 15.9701 27.7037 16.0435C28.1278 16.1168 28.4213 16.2228 28.6015 16.3778C28.7728 16.5246 28.8625 16.7529 28.8625 17.0456C28.8625 17.3962 28.732 17.6727 28.4629 17.8684C28.1938 18.0396 27.8269 18.1375 27.3531 18.1375Z" fill="#7C7C7C"/>
<path d="M31.7832 18.0978V14.4961H34.3045V15.0335H32.4608V15.8888H34.0843V16.4262H32.4608V17.5507H34.3045V18.0881L31.7832 18.0962V18.0978Z" fill="#7C7C7C"/>
<path d="M38.7679 18.1465C38.2541 18.1465 37.8701 18.0324 37.6173 17.8122C37.3645 17.592 37.2422 17.2822 37.2422 16.8753V15.7426C37.2422 15.3349 37.3727 15.0177 37.6254 14.7894C37.8782 14.5692 38.2615 14.4551 38.7842 14.4551C39.2734 14.4551 39.6412 14.5529 39.8858 14.7568C40.1304 14.9606 40.2691 15.2787 40.2854 15.7182L39.6086 15.7671C39.5841 15.4735 39.5107 15.2697 39.3884 15.1645C39.2579 15.0585 39.0541 15.0014 38.7768 15.0014C38.467 15.0014 38.2468 15.0585 38.1163 15.1808C37.9859 15.3031 37.9206 15.507 37.9206 15.7916V16.8345C37.9206 17.1199 37.9859 17.3156 38.1163 17.4289C38.2468 17.5431 38.467 17.6083 38.7768 17.6083C39.0704 17.6083 39.2742 17.5513 39.4047 17.4371C39.527 17.3229 39.6004 17.1272 39.6086 16.859L40.2854 16.9079C40.2772 17.3319 40.1467 17.641 39.9021 17.8448C39.6493 18.0405 39.2742 18.1465 38.7679 18.1465Z" fill="#7C7C7C"/>
<path d="M44.6011 18.1464C44.0873 18.1464 43.7114 18.0323 43.4831 17.8121C43.2548 17.5919 43.1406 17.2584 43.1406 16.8099V14.5039H43.8174V16.7692C43.8174 17.0546 43.8745 17.2584 43.9805 17.3881C44.0865 17.5177 44.2985 17.5838 44.6084 17.5838C44.9183 17.5838 45.1303 17.5185 45.2363 17.3881C45.3423 17.2576 45.3994 17.0456 45.3994 16.7692V14.5039H46.0762V16.8099C46.0762 17.2503 45.962 17.5838 45.7337 17.8121C45.4891 18.0323 45.114 18.1464 44.5994 18.1464H44.6011Z" fill="#7C7C7C"/>
<path d="M49.7159 18.0978H49.0391V14.4961H50.7767C51.1518 14.4961 51.4291 14.5776 51.6256 14.7489C51.8213 14.912 51.9192 15.1566 51.9192 15.4738V15.7755C51.9192 16.0446 51.8539 16.2648 51.7153 16.427C51.5767 16.5893 51.3728 16.6961 51.1037 16.745L52.0015 18.0978H51.2342L50.3527 16.7777H49.7085V18.0978H49.7167H49.7159ZM49.7159 16.2395H50.6626C50.8746 16.2395 51.0295 16.2069 51.1192 16.1335C51.2089 16.0601 51.2497 15.9459 51.2497 15.7747V15.4974C51.2497 15.3344 51.2089 15.212 51.1192 15.1468C51.0295 15.0816 50.8827 15.049 50.6626 15.049H49.7159V16.2387V16.2395Z" fill="#7C7C7C"/>
<path d="M55.3545 14.4961V18.0978H54.6777V14.4961H55.3545Z" fill="#7C7C7C"/>
<path d="M59.2062 18.0967V15.0413H58.0801V14.5039H61.0091V15.0413H59.883V18.0967H59.2062Z" fill="#7C7C7C"/>
<path d="M65.0952 18.0978H64.4184V16.745L63.1211 14.4961H63.8468L64.7772 16.1824L65.6995 14.4961H66.3926L65.0952 16.745V18.0978Z" fill="#7C7C7C"/>
<path d="M92.7258 6.54502C92.5611 6.54502 92.4078 6.51485 92.2643 6.4545C92.1208 6.39416 91.9968 6.30854 91.8916 6.19928C91.7856 6.09001 91.7025 5.96199 91.6421 5.81521C91.5818 5.66843 91.5508 5.50942 91.5508 5.33737C91.5508 5.16531 91.581 5.00631 91.6421 4.85953C91.7025 4.71275 91.7864 4.58473 91.8916 4.47546C91.9976 4.3662 92.1216 4.28139 92.2643 4.22023C92.407 4.15989 92.5611 4.12891 92.7258 4.12891C92.8905 4.12891 93.0438 4.15908 93.1873 4.22023C93.33 4.28058 93.4548 4.3662 93.56 4.47546C93.666 4.58473 93.7492 4.71275 93.8095 4.85953C93.8699 5.00631 93.9008 5.16531 93.9008 5.33737C93.9008 5.50942 93.8707 5.66925 93.8095 5.81521C93.7484 5.96199 93.666 6.09001 93.56 6.19928C93.454 6.30854 93.33 6.39416 93.1873 6.4545C93.0446 6.51485 92.8905 6.54502 92.7258 6.54502ZM92.7258 6.29305C92.8547 6.29305 92.9745 6.27022 93.0838 6.22537C93.1931 6.18052 93.2885 6.11773 93.3684 6.03782C93.4483 5.95791 93.5111 5.86495 93.5567 5.75895C93.6016 5.65376 93.6244 5.53796 93.6244 5.4132V5.26072C93.6244 5.13922 93.6016 5.02506 93.5567 4.91742C93.5119 4.80979 93.4491 4.71601 93.3684 4.6361C93.2885 4.55619 93.1931 4.4934 93.0838 4.44855C92.9745 4.40371 92.8547 4.38087 92.7258 4.38087C92.597 4.38087 92.4771 4.40371 92.3678 4.44855C92.2578 4.4934 92.1632 4.55619 92.0833 4.6361C92.0033 4.71601 91.9406 4.80979 91.8957 4.91742C91.8509 5.02506 91.828 5.13922 91.828 5.26072V5.4132C91.828 5.53796 91.8509 5.65376 91.8957 5.75895C91.9406 5.86414 92.0033 5.95709 92.0833 6.03782C92.1632 6.11773 92.2586 6.18052 92.3678 6.22537C92.4771 6.27022 92.597 6.29305 92.7258 6.29305ZM92.5497 5.95872H92.2504V4.73232H92.8082C92.9452 4.73232 93.0487 4.7682 93.1197 4.84077C93.1898 4.91335 93.2257 5.00631 93.2257 5.11965C93.2257 5.2175 93.2053 5.2966 93.1637 5.35694C93.1229 5.41728 93.0683 5.46131 93.0022 5.48904L93.2787 5.95872H92.9501L92.7209 5.53633H92.5505V5.95872H92.5497ZM92.7731 5.31291C92.871 5.31291 92.9199 5.26969 92.9199 5.18407V5.096C92.9199 5.01038 92.871 4.96717 92.7731 4.96717H92.5497V5.31291H92.7731Z" fill="#111111"/>
<path d="M17.2807 9.31856C17.3157 9.6064 17.3361 9.89914 17.3361 10.1968C17.3361 14.2013 14.0736 17.4598 10.0633 17.4598C6.05306 17.4598 2.79054 14.2013 2.79054 10.1968C2.79054 6.19221 6.05306 2.93376 10.0633 2.93376C11.3802 2.93376 12.6148 3.28684 13.6814 3.90086L16.3095 2.44043C14.5987 1.06317 12.4264 0.236328 10.0633 0.236328C4.56409 0.236328 0.0898438 4.70487 0.0898438 10.1968C0.0898438 15.6887 4.56409 20.1572 10.0633 20.1572C15.5626 20.1572 20.0368 15.6887 20.0368 10.1968C20.0368 8.93123 19.7971 7.72195 19.3641 6.60726L17.2807 9.31856Z" fill="url(#paint0_linear_3303_26191)"/>
<path d="M20.8362 1.88086L16.9768 6.94385L12.7577 12.6363L6.26367 13.8627L20.8362 1.88086Z" fill="#0758FB"/>
<path d="M20.8362 1.88086L6.26367 13.8627L8.51751 7.99901L20.8362 1.88086Z" fill="url(#paint1_linear_3303_26191)"/>
</g>
<defs>
<linearGradient id="paint0_linear_3303_26191" x1="1.43041" y1="15.1807" x2="18.5935" y2="5.27241" gradientUnits="userSpaceOnUse">
<stop stop-color="#0758FB"/>
<stop offset="1" stop-color="#58C8F8"/>
</linearGradient>
<linearGradient id="paint1_linear_3303_26191" x1="5.34632" y1="12.7693" x2="19.7973" y2="0.643041" gradientUnits="userSpaceOnUse">
<stop stop-color="#2F8DF8"/>
<stop offset="0.05" stop-color="#3393F8"/>
<stop offset="0.24" stop-color="#43AAF8"/>
<stop offset="0.46" stop-color="#4FBBF8"/>
<stop offset="0.69" stop-color="#55C4F8"/>
<stop offset="0.99" stop-color="#58C8F8"/>
</linearGradient>
<clipPath id="clip0_3303_26191">
<rect width="94" height="20.3857" fill="white"/>
</clipPath>
</defs>
</svg>
