<svg width="282" height="150" viewBox="0 0 282 150" fill="none" xmlns="http://www.w3.org/2000/svg">
<path d="M0 32.2941C0 32.2941 44.7941 -2.07796 144.252 0.0992293C144.252 0.0992293 245.353 0.643526 281.405 31.7498C281.405 31.7498 236.059 6.64331 143.162 5.01042C143.162 5.01042 53.5487 2.82697 0 32.3004L0 32.2941Z" fill="#0060A9"/>
<path d="M53.7868 49.541H37.1362V102.638H53.7868V49.541Z" fill="#0060A9"/>
<path d="M56.6504 67.7476H71.5275V49.5293H88.2783V67.7476H96.1993L98.4867 71.4513H56.6504V67.7476Z" fill="#0060A9"/>
<path d="M56.6382 73.3398H99.6589L102.109 77.0248L56.6382 77.0373V73.3398Z" fill="#0060A9"/>
<path d="M88.2156 83.5253H105.95L102.98 78.9082H56.6504V83.5253H71.5525L71.5463 102.638H88.2093L88.2156 83.5253Z" fill="#0060A9"/>
<path d="M88.291 49.5293H106.546L138.694 102.639H120.746L88.291 49.5293Z" fill="#0060A9"/>
<path d="M41.1909 119.971V129.155H50.898V119.971H55.0904V142.894H50.898V132.796H41.1909V142.894H36.9985V119.971H41.1909Z" fill="#8E979D"/>
<path d="M75.4948 134.453C75.4948 140.541 71.2021 143.262 66.9721 143.262C62.3097 143.262 58.6562 140.065 58.6562 134.729C58.6562 129.392 62.2345 125.951 67.2416 125.951C72.2487 125.951 75.4885 129.423 75.4885 134.453H75.4948ZM62.9928 134.629C62.9928 137.826 64.597 140.241 67.1162 140.241C69.4976 140.241 71.1708 137.926 71.1708 134.56C71.1708 131.976 70.0115 128.979 67.1476 128.979C64.2837 128.979 62.9928 131.87 62.9928 134.629Z" fill="#8E979D"/>
<path d="M78.7595 139.014C79.6807 139.59 81.4855 140.234 82.9895 140.234C84.8256 140.234 85.6466 139.452 85.6466 138.364C85.6466 137.275 84.9635 136.699 82.9206 135.949C79.6807 134.86 78.3522 133.096 78.3522 131.119C78.3522 128.191 80.7711 125.951 84.6188 125.951C86.4612 125.951 88.0592 126.395 89.0431 126.94L88.1908 129.861C87.514 129.455 86.1479 128.91 84.6815 128.91C83.2151 128.91 82.3691 129.655 82.3691 130.681C82.3691 131.707 83.1524 132.214 85.2643 132.996C88.2974 134.053 89.6572 135.58 89.6948 138.026C89.6948 141.054 87.3448 143.231 82.9456 143.231C80.9403 143.231 79.1355 142.756 77.9072 142.074L78.7532 139.014H78.7595Z" fill="#8E979D"/>
<path d="M93.1292 131.838C93.1292 129.661 93.0665 127.897 92.9976 126.327H96.6761L96.8829 128.879H96.9518C98.1801 127.002 100.116 125.951 102.642 125.951C106.458 125.951 109.623 129.217 109.623 134.385C109.623 140.372 105.844 143.262 102.059 143.262C99.9849 143.262 98.2428 142.38 97.3905 141.048H97.3216V149.619H93.1292V131.826V131.838ZM97.3216 135.949C97.3216 136.355 97.3592 136.731 97.4281 137.106C97.8668 138.808 99.3332 140.034 101.138 140.034C103.795 140.034 105.362 137.819 105.362 134.56C105.362 131.632 103.933 129.254 101.244 129.254C99.5024 129.254 97.9044 130.512 97.4594 132.351C97.3905 132.689 97.3216 133.065 97.3216 133.402V135.955V135.949Z" fill="#8E979D"/>
<path d="M117.519 121.703C117.519 122.93 116.598 123.949 115.138 123.949C113.677 123.949 112.819 122.93 112.819 121.703C112.819 120.415 113.778 119.42 115.169 119.42C116.56 119.42 117.488 120.408 117.519 121.703ZM113.057 142.887V126.321H117.249V142.887H113.057Z" fill="#8E979D"/>
<path d="M126.587 122.072V126.327H130.566V129.455H126.587V136.768C126.587 138.808 127.126 139.834 128.73 139.834C129.482 139.834 129.889 139.803 130.366 139.665L130.434 142.824C129.82 143.062 128.699 143.269 127.401 143.269C125.835 143.269 124.575 142.756 123.792 141.905C122.871 140.954 122.463 139.421 122.463 137.244V129.455H120.113V126.327H122.463V123.236L126.587 122.079V122.072Z" fill="#8E979D"/>
<path d="M146.609 138.914C146.609 140.409 146.678 141.873 146.878 142.893H143.099L142.792 141.054H142.686C141.702 142.349 139.96 143.269 137.779 143.269C134.439 143.269 132.571 140.854 132.571 138.339C132.571 134.184 136.281 132.045 142.41 132.082V131.807C142.41 130.718 141.971 128.917 139.038 128.917C137.403 128.917 135.698 129.423 134.577 130.137L133.762 127.415C134.984 126.664 137.133 125.951 139.759 125.951C145.073 125.951 146.602 129.317 146.602 132.958V138.908L146.609 138.914ZM142.523 134.798C139.559 134.766 136.732 135.373 136.732 137.894C136.732 139.527 137.785 140.278 139.114 140.278C140.818 140.278 142.009 139.189 142.416 137.995C142.523 137.688 142.523 137.381 142.523 137.075V134.798Z" fill="#8E979D"/>
<path d="M151.04 118.744H155.226V142.893H151.04V118.744Z" fill="#8E979D"/>
<path d="M171.607 136.394L169.633 142.888H165.309L172.666 119.965H178.017L185.481 142.888H180.95L178.87 136.394H171.607ZM178.187 133.228L176.382 127.585C175.943 126.19 175.567 124.626 175.222 123.299H175.16C174.821 124.626 174.439 126.227 174.063 127.585L172.296 133.228H178.187Z" fill="#8E979D"/>
<path d="M188.332 131.263C188.332 129.355 188.263 127.759 188.194 126.327H191.835L192.042 128.81H192.142C192.894 127.515 194.693 125.951 197.456 125.951C200.352 125.951 203.353 127.822 203.353 133.058V142.887H199.161V133.534C199.161 131.156 198.277 129.348 195.996 129.348C194.323 129.348 193.164 130.537 192.719 131.795C192.587 132.139 192.518 132.645 192.518 133.121V142.881H188.326V131.25L188.332 131.263Z" fill="#8E979D"/>
<path d="M222.837 140.478C222.837 143.95 222.122 146.428 220.386 147.998C218.688 149.524 216.263 150 213.982 150C211.87 150 209.62 149.524 208.191 148.674L209.106 145.514C210.165 146.127 211.939 146.772 213.944 146.772C216.67 146.772 218.713 145.339 218.713 141.767V140.34H218.644C217.692 141.804 216.018 142.793 213.806 142.793C209.683 142.793 206.756 139.389 206.756 134.697C206.756 129.254 210.297 125.957 214.289 125.957C216.846 125.957 218.306 127.183 219.089 128.541H219.152L219.321 126.326H222.968C222.899 127.452 222.83 128.81 222.83 131.087V140.472L222.837 140.478ZM218.65 132.958C218.65 132.551 218.619 132.176 218.519 131.832C218.08 130.299 216.883 129.148 215.11 129.148C212.76 129.148 211.024 131.187 211.024 134.553C211.024 137.375 212.453 139.652 215.078 139.652C216.645 139.652 218.005 138.632 218.488 137.099C218.619 136.693 218.657 136.111 218.657 135.636V132.945L218.65 132.958Z" fill="#8E979D"/>
<path d="M230.294 135.786C230.394 138.777 232.719 140.065 235.407 140.065C237.35 140.065 238.71 139.759 240.007 139.321L240.621 142.174C239.192 142.787 237.212 143.231 234.825 143.231C229.442 143.231 226.277 139.934 226.277 134.866C226.277 130.274 229.066 125.951 234.386 125.951C239.706 125.951 241.536 130.374 241.536 134.016C241.536 134.798 241.474 135.411 241.398 135.786H230.288H230.294ZM237.588 132.858C237.62 131.325 236.936 128.81 234.148 128.81C231.553 128.81 230.469 131.156 230.294 132.858H237.588Z" fill="#8E979D"/>
<path d="M244.908 118.744H249.1V142.893H244.908V118.744Z" fill="#8E979D"/>
<path d="M256.626 135.786C256.727 138.777 259.039 140.065 261.734 140.065C263.676 140.065 265.036 139.759 266.333 139.321L266.947 142.174C265.519 142.787 263.545 143.231 261.157 143.231C255.774 143.231 252.603 139.934 252.603 134.866C252.603 130.274 255.398 125.951 260.712 125.951C266.026 125.951 267.869 130.374 267.869 134.016C267.869 134.798 267.8 135.411 267.731 135.786H256.626ZM263.914 132.858C263.946 131.325 263.269 128.81 260.474 128.81C257.886 128.81 256.795 131.156 256.626 132.858H263.914Z" fill="#8E979D"/>
<path d="M271.071 139.014C271.986 139.59 273.797 140.241 275.295 140.241C277.137 140.241 277.952 139.459 277.952 138.364C277.952 137.269 277.275 136.699 275.226 135.949C271.992 134.86 270.664 133.096 270.664 131.119C270.664 128.191 273.083 125.951 276.93 125.951C278.766 125.951 280.371 126.395 281.355 126.94L280.509 129.868C279.825 129.461 278.466 128.917 276.999 128.917C275.533 128.917 274.681 129.661 274.681 130.687C274.681 131.713 275.464 132.22 277.576 133.002C280.609 134.059 281.969 135.586 282 138.032C282 141.06 279.65 143.237 275.257 143.237C273.245 143.237 271.441 142.762 270.212 142.08L271.065 139.021L271.071 139.014Z" fill="#8E979D"/>
</svg>
