<svg width="344" height="93" viewBox="0 0 344 93" fill="none" xmlns="http://www.w3.org/2000/svg">
<path fill-rule="evenodd" clip-rule="evenodd" d="M46.5625 0V92.6322L0 46.3161L46.5625 0" fill="#DA000A"/>
<path fill-rule="evenodd" clip-rule="evenodd" d="M46.5588 0H138.977L92.5922 46.532L46.3831 0.175751L46.5588 0" fill="#DA000A"/>
<path fill-rule="evenodd" clip-rule="evenodd" d="M138.837 92.6322V0L185.4 46.3161L138.837 92.6322" fill="#DA000A"/>
<path fill-rule="evenodd" clip-rule="evenodd" d="M138.841 92.6326H46.4211L92.8079 46.1006L139.017 92.4568L138.841 92.6326" fill="#DA000A"/>
<path fill-rule="evenodd" clip-rule="evenodd" d="M200.352 65.4515H208.908V49.1811H225.456V65.4515H234.012V26.6621H225.456V42.4759H208.908V26.6621H200.352V65.4515" fill="black"/>
<path fill-rule="evenodd" clip-rule="evenodd" d="M238.654 53.421C238.71 62.7663 245.831 66.3215 253.912 66.3215C264.14 66.3215 270.601 61.2686 270.601 54.1507C270.601 45.3517 261.999 43.8425 259.045 42.96C249.69 40.1651 248.357 39.6474 248.357 36.6578C248.357 33.3987 251.578 31.9335 254.214 31.9335C257.96 31.9335 260.283 33.6031 260.659 37.5251H269.21C269.327 29.1387 263.095 25.9561 254.583 25.9561C247.13 25.9561 239.474 29.5418 239.474 37.4735C239.474 44.7538 245.556 46.9449 251.085 48.6642C257.162 50.5574 261.414 50.5879 261.414 54.7697C261.414 58.5731 257.29 60.0193 254.392 60.0193C250.212 60.0193 247.534 58.1204 247.291 53.421H238.654" fill="black"/>
<path fill-rule="evenodd" clip-rule="evenodd" d="M283.389 48.5011H290.396C294.056 48.5011 297.038 50.0771 297.038 54.041C297.038 58.0623 293.687 59.474 290.237 59.474H283.389V48.5011ZM275.008 65.4515H291.242C298.679 65.4515 306.124 62.7885 306.124 54.5301C306.124 49.695 302.976 46.3806 297.332 45.4025C302.519 43.773 304.701 40.7298 304.701 36.9283C304.701 29.7034 298.521 26.6621 291.579 26.6621H275.008V65.4515ZM283.389 32.8019H289.611C292.581 32.8019 295.989 34.0493 295.989 37.7439C295.989 41.003 293.164 42.7968 290.247 42.7968H283.389V32.8019V32.8019Z" fill="black"/>
<path fill-rule="evenodd" clip-rule="evenodd" d="M343.86 38.3384C343.484 30.5041 337.161 25.8467 328.261 25.8467C316.254 25.8467 309.463 33.9427 309.463 46.2204C309.463 59.3635 315.712 66.321 328.261 66.321C337.109 66.321 343.392 61.5318 343.778 53.8541H334.968C334.133 57.9289 331.59 59.7456 327.88 59.7456C320.709 59.7456 318.317 52.7939 318.317 46.3274C318.317 39.5381 321.089 32.4755 328.369 32.4755C332.091 32.4755 334.526 35.2283 334.775 38.3384H343.86" fill="black"/>
</svg>
