<svg width="94" height="27" viewBox="0 0 94 27" fill="none" xmlns="http://www.w3.org/2000/svg">
<g clip-path="url(#clip0_3303_26676)">
<path d="M10.1806 15.0802H3.27775V22.3513H0V4.41016H3.27775V11.9267H10.1806V4.41016H13.4576V22.3513H10.1806V15.0802Z" fill="#FF4800"/>
<path d="M23.9455 16.5514C23.9455 18.0455 22.7284 19.2618 21.2344 19.2618C19.7404 19.2618 18.524 18.0462 18.524 16.5514V8.86719H15.4199V16.5514C15.4199 19.7573 18.0285 22.3652 21.2344 22.3652C24.4403 22.3652 27.0481 19.7573 27.0481 16.5514V8.86719H23.9455V16.5514Z" fill="#FF4800"/>
<path d="M46.9766 9.65874C46.9766 8.08312 48.0192 7.58386 49.1607 7.58386C50.0799 7.58386 51.2962 8.28372 52.0904 9.13403L54.1256 6.7343C53.1084 5.36002 51.0477 4.41016 49.3598 4.41016C45.9825 4.41016 43.5491 6.38474 43.5491 9.65949C43.5491 15.7329 50.9736 13.8078 50.9736 17.2075C50.9736 18.2562 49.9557 19.1814 48.7895 19.1814C46.9519 19.1814 46.3553 18.2816 45.5117 17.3318L43.252 19.6806C44.6928 21.4553 46.4803 22.3558 48.6158 22.3558C51.8187 22.3558 54.4011 20.3565 54.4011 17.2315C54.4011 10.4836 46.9773 12.5832 46.9773 9.65949L46.9766 9.65874Z" fill="#FF4800"/>
<path d="M92.9071 19.4878C91.0702 19.4878 90.5492 18.6936 90.5492 17.4766V12.0888H93.4041V9.35817H90.5492V5.75781L87.3965 7.17325V18.148C87.3965 20.9542 89.3322 22.3696 91.9879 22.3696C92.3853 22.3696 92.9318 22.3442 93.2304 22.2701L94.0006 19.4399C93.6533 19.4639 93.2559 19.4886 92.9071 19.4886V19.4878Z" fill="#FF4800"/>
<path d="M35.7756 8.95972C34.2359 8.95972 33.1618 9.40659 32.1236 10.4253V4.51953H29.0098V15.4651C29.0098 19.5617 31.9716 22.3679 35.3003 22.3679C39.0002 22.3679 42.2413 19.5123 42.2413 15.6642C42.2413 11.8161 39.2524 8.95972 35.7756 8.95972ZM35.7561 19.2346C33.8055 19.2346 32.2246 17.6537 32.2246 15.7031C32.2246 13.7525 33.8055 12.1716 35.7561 12.1716C37.7068 12.1716 39.2876 13.7525 39.2876 15.7031C39.2876 17.6537 37.7068 19.2346 35.7561 19.2346Z" fill="#FF4800"/>
<path d="M69.5811 15.5006C69.5811 11.6525 66.3393 8.79688 62.6401 8.79688C59.3122 8.79688 56.3496 11.6031 56.3496 15.6997V26.6452H59.4634V20.7387C60.5016 21.7574 61.5757 22.2043 63.1154 22.2043C66.5923 22.2043 69.5811 19.2993 69.5811 15.4998V15.5006ZM66.6275 15.4624C66.6275 17.413 65.0466 18.9939 63.096 18.9939C61.1453 18.9939 59.5645 17.413 59.5645 15.4624C59.5645 13.5118 61.1453 11.9309 63.096 11.9309C65.0466 11.9309 66.6275 13.5118 66.6275 15.4624Z" fill="#FF4800"/>
<path d="M79.6422 8.64685V5.5188C80.4589 5.13332 81.0307 4.30696 81.0307 3.34886V3.27625C81.0307 1.95363 79.9484 0.871275 78.6258 0.871275H78.5539C77.2313 0.871275 76.1489 1.95363 76.1489 3.27625V3.34886C76.1489 4.30771 76.7208 5.13332 77.5374 5.5188V8.64685C76.3218 8.83472 75.211 9.33623 74.2948 10.0735L65.7071 3.39302C65.7633 3.1752 65.8029 2.9514 65.8037 2.71636C65.8044 1.21784 64.5918 0.00224866 63.0933 3.11186e-06C61.5948 -0.00224243 60.3792 1.2111 60.377 2.70963C60.3755 4.20815 61.5881 5.42374 63.0866 5.42599C63.5746 5.42599 64.0267 5.28826 64.4227 5.06296L72.8704 11.6342C72.1518 12.7188 71.7312 14.0174 71.7312 15.4157C71.7312 16.8139 72.1938 18.2338 72.9752 19.3476L70.4063 21.9165C70.2035 21.8559 69.9924 21.8132 69.7693 21.8132C68.538 21.8132 67.5402 22.811 67.5402 24.0423C67.5402 25.2736 68.5388 26.2714 69.7693 26.2714C70.9999 26.2714 71.9984 25.2736 71.9984 24.0423C71.9984 23.8192 71.9557 23.6082 71.8951 23.4053L74.4363 20.8641C75.5898 21.7444 77.0262 22.2736 78.5898 22.2736C82.3773 22.2736 85.4477 19.2032 85.4477 15.4157C85.4477 11.9867 82.929 9.15434 79.6422 8.64685ZM78.5891 18.9314C76.6474 18.9314 75.0725 17.3573 75.0725 15.4157C75.0725 13.474 76.6467 11.8999 78.5891 11.8999C80.5315 11.8999 82.1048 13.474 82.1048 15.4157C82.1048 17.3573 80.5307 18.9314 78.5891 18.9314Z" fill="#FF4800"/>
</g>
<defs>
<clipPath id="clip0_3303_26676">
<rect width="94" height="26.6464" fill="white"/>
</clipPath>
</defs>
</svg>
