<svg width="42" height="42" viewBox="0 0 42 42" fill="none" xmlns="http://www.w3.org/2000/svg">
<mask id="mask0_3303_26747" style="mask-type:luminance" maskUnits="userSpaceOnUse" x="0" y="0" width="42" height="42">
<path d="M42 0H0V42.0007H42V0Z" fill="white"/>
</mask>
<g mask="url(#mask0_3303_26747)">
<path d="M4.09565 0.714844H37.903C38.7997 0.714844 39.6597 1.07106 40.2937 1.70513C40.9278 2.3392 41.284 3.19918 41.284 4.09589V37.9037C41.284 38.8003 40.9278 39.6603 40.2938 40.2943C39.6598 40.9283 38.7998 41.2845 37.9032 41.2845H4.09517C3.19865 41.2845 2.33885 40.9283 1.70492 40.2944C1.07098 39.6605 0.714844 38.8007 0.714844 37.9042V4.09565C0.714843 3.65168 0.80229 3.21205 0.972192 2.80187C1.14209 2.39169 1.39112 2.01899 1.70506 1.70506C2.019 1.39112 2.39169 1.14209 2.80187 0.972191C3.21205 0.80229 3.65168 0.714843 4.09565 0.714844Z" fill="#FDB913"/>
<path d="M37.9041 0.715541C38.8007 0.715813 39.6604 1.07214 40.2943 1.70617C40.9282 2.3402 41.2844 3.20003 41.2845 4.09659V37.9044C41.2844 38.8009 40.9283 39.6607 40.2944 40.2947C39.6605 40.9287 38.8007 41.285 37.9041 41.2852H4.09634C3.65234 41.2853 3.21267 41.1979 2.80244 41.028C2.39222 40.8582 2.01948 40.6092 1.70552 40.2952C1.39156 39.9812 1.14254 39.6085 0.972676 39.1983C0.802811 38.7881 0.715435 38.3484 0.715538 37.9044V4.09659C0.71545 3.65258 0.802836 3.2129 0.972703 2.80267C1.14257 2.39244 1.39159 2.01969 1.70554 1.70571C2.01949 1.39174 2.39222 1.14269 2.80244 0.972797C3.21266 0.802901 3.65233 0.715484 4.09634 0.715541H37.9041ZM37.9041 0H4.09634C3.01024 0.00117646 1.96897 0.433165 1.201 1.20118C0.433039 1.96919 0.00111192 3.01049 0 4.09659V37.9044C0.00120181 38.9904 0.433166 40.0317 1.20112 40.7996C1.96907 41.5676 3.0103 41.9995 4.09634 42.0007H37.9041C38.9901 41.9995 40.0313 41.5675 40.7991 40.7995C41.567 40.0316 41.9989 38.9904 42 37.9044V4.09659C41.999 3.01055 41.5671 1.96928 40.7992 1.20127C40.0314 0.433258 38.9902 0.00123526 37.9041 0Z" fill="white"/>
<path d="M23.3667 21.4389L23.3633 14.1753L25.2593 13.7253V14.6775C25.2593 14.6775 25.7504 13.4253 26.8901 13.1346C27.0603 13.0798 27.2414 13.0676 27.4174 13.0992V14.9525C27.0761 14.957 26.7388 15.0272 26.424 15.1593C25.7234 15.436 25.3708 16.0397 25.3708 16.9613L25.372 20.9721L23.3667 21.4389Z" fill="#231F20"/>
<path d="M13.3717 23.8023C13.3717 23.8023 13.0635 23.34 13.0635 21.7058V18.089L12.0879 18.3211V16.8312L13.0656 16.6003V14.9762L15.0816 14.5V16.1241L16.5062 15.7858V17.274L15.0816 17.6121C15.0816 17.6121 15.0795 20.5752 15.0816 21.2949C15.0816 22.9694 15.5261 23.2909 15.5261 23.2909L13.3717 23.8023Z" fill="#231F20"/>
<path d="M16.7188 19.4798C16.7188 18.1885 16.9026 17.2464 17.2974 16.5234C17.7671 15.6655 18.5374 15.1063 19.6595 14.8509C21.8712 14.3479 22.6694 15.657 22.6385 17.4125C22.6267 18.0403 22.6296 18.3461 22.6296 18.3461L18.7331 19.262V19.3249C18.7331 20.5513 18.9902 21.1334 19.7675 20.9685C20.4389 20.8268 20.6257 20.4062 20.6787 19.8862C20.6874 19.8023 20.6915 19.589 20.6915 19.589L22.5168 19.1516C22.5168 19.1516 22.5212 19.301 22.5185 19.4687C22.5026 20.1657 22.2999 21.8947 19.7629 22.4945C17.3596 23.065 16.7188 21.5973 16.7188 19.4798ZM19.7405 16.2039C19.0948 16.3504 18.7562 16.9838 18.7415 18.0331L20.7016 17.5663C20.705 17.5188 20.7054 17.4142 20.705 17.2503C20.7016 16.4581 20.4567 16.04 19.7405 16.2039Z" fill="#231F20"/>
<path d="M34.2427 15.2306C34.1672 13.0184 34.7411 11.2627 37.2092 10.7036C38.7822 10.3462 39.3797 10.7554 39.6821 11.1509C39.973 11.5283 40.0853 12.0373 40.0853 12.7502L40.087 12.8811L38.1561 13.3399C38.1561 13.3399 38.1547 13.0797 38.1547 13.0712C38.1561 12.2258 37.9211 11.9043 37.307 12.058C36.5768 12.2415 36.2818 12.9346 36.2818 14.3126C36.2818 14.8019 36.284 14.8896 36.284 14.9556C36.284 16.3561 36.4753 16.9972 37.3169 16.821C38.0469 16.6701 38.1469 16.0291 38.1588 15.467C38.1602 15.3788 38.1638 15.0964 38.1638 15.0964L40.0918 14.6409C40.0918 14.6409 40.0938 14.7833 40.0938 14.9417C40.0889 16.7781 39.1211 17.9354 37.3078 18.3574C34.8095 18.943 34.3203 17.4994 34.2427 15.2306Z" fill="#231F20"/>
<path d="M27.5664 18.3283C27.5664 16.6456 28.5521 16.1135 30.0357 15.4996C31.3699 14.9477 31.3989 14.6737 31.4044 14.1941C31.4119 13.7904 31.2246 13.4451 30.5604 13.6145C30.3389 13.6591 30.139 13.7772 29.9931 13.9497C29.8471 14.1222 29.7637 14.339 29.7564 14.5648C29.7455 14.6887 29.7414 14.8132 29.7439 14.9376L27.8732 15.3794C27.8606 15.0066 27.9042 14.634 28.0024 14.2741C28.3015 13.2679 29.1888 12.591 30.7207 12.2364C32.7109 11.7778 33.3744 12.6512 33.3768 14.0097V17.2269C33.3768 18.7828 33.6655 19.0108 33.6655 19.0108L31.829 19.4453C31.7277 19.2331 31.6454 19.0124 31.583 18.7857C31.583 18.7857 31.1807 19.7989 29.794 20.1247C28.3376 20.4682 27.5664 19.5656 27.5664 18.3283ZM31.3916 16.0306C31.0821 16.2476 30.7553 16.4389 30.4146 16.6027C29.8024 16.9018 29.5258 17.2708 29.5258 17.8391C29.5258 18.3312 29.8306 18.6544 30.3847 18.5175C30.979 18.3676 31.3916 17.813 31.3916 17.0425V16.0306Z" fill="#231F20"/>
<path d="M2.83226 28.8917C2.62266 28.8914 2.41701 28.8346 2.23696 28.7274C2.05691 28.6201 1.90911 28.4662 1.80914 28.282C1.70916 28.0978 1.6607 27.89 1.66885 27.6806C1.67701 27.4711 1.74147 27.2678 1.85547 27.0919L1.86849 27.075L1.89042 27.0692L4.63256 26.4219V28.5044L4.5899 28.5143C3.96787 28.6639 3.22437 28.8343 3.07134 28.8669C2.99273 28.8835 2.9126 28.8918 2.83226 28.8917Z" fill="#231F20"/>
<path d="M2.83226 31.558C2.5237 31.558 2.22774 31.4356 2.00941 31.2175C1.79109 30.9995 1.66828 30.7037 1.66797 30.3951C1.66734 30.1703 1.73252 29.9502 1.85547 29.762L1.86849 29.7425L1.89042 29.7369L4.63256 29.0898V31.1724L4.58991 31.1834C3.96787 31.3326 3.22438 31.5049 3.07134 31.5356C2.99257 31.5508 2.91249 31.5583 2.83226 31.558Z" fill="#231F20"/>
<path d="M2.83227 34.2271C2.52362 34.227 2.22766 34.1043 2.00936 33.8861C1.79107 33.6679 1.66829 33.372 1.66798 33.0633C1.66711 32.8385 1.73231 32.6183 1.85548 32.4302L1.86849 32.4092L4.63257 31.7578V33.8403L4.58991 33.8514C3.93293 34.0095 3.20341 34.1744 3.07134 34.2035C2.99263 34.2193 2.91254 34.2272 2.83227 34.2271Z" fill="#231F20"/>
<path d="M2.50854 26.3418L2.50781 14.6895L4.63226 14.1875V25.8396L2.50854 26.3418Z" fill="#231F20"/>
<path d="M7.79913 25.3498C7.79913 25.0021 7.66104 24.6688 7.41524 24.423C7.16944 24.1772 6.83605 24.0391 6.48843 24.0391C6.14082 24.0391 5.80743 24.1772 5.56163 24.423C5.31583 24.6688 5.17773 25.0021 5.17773 25.3498L5.1799 36.2405C5.18107 37.181 5.55503 38.0826 6.21983 38.7479C6.88462 39.4131 7.78603 39.7877 8.72652 39.7895C9.71873 39.7895 12.4368 39.7847 12.4368 39.7847L12.438 35.2413C12.4387 32.7589 12.4392 30.2323 12.4392 30.1747C12.4395 29.8922 12.3701 29.6141 12.2371 29.3649C12.1042 29.1157 11.9117 28.9032 11.6769 28.7462L8.37007 26.5003C8.37007 26.5003 8.36935 31.3763 8.36935 31.6004C8.36935 31.6752 8.33964 31.7469 8.28676 31.7998C8.23388 31.8527 8.16216 31.8824 8.08737 31.8824C8.01259 31.8824 7.94087 31.8527 7.88799 31.7998C7.83511 31.7469 7.8054 31.6752 7.8054 31.6004C7.8054 31.5457 7.79913 26.0234 7.79913 25.3498Z" fill="#231F20"/>
<path d="M9.56939 17.2236C9.16757 17.3168 8.79061 17.4957 8.46426 17.748C8.13792 18.0003 7.86989 18.3201 7.67847 18.6855V17.8666L5.76562 18.3192L5.76779 23.549C6.10334 23.4163 6.46903 23.379 6.82447 23.4411C7.17991 23.5032 7.51124 23.6624 7.78186 23.9011V20.5244C7.78186 19.7156 8.18434 19.0694 8.75938 18.9427C9.19198 18.8477 9.55324 19.0024 9.55324 19.7729L9.55469 24.6995L11.5695 24.2272V19.0155C11.5695 17.7519 11.0829 16.8686 9.56939 17.2236Z" fill="#231F20"/>
<path d="M38.8441 9.76422C38.5977 9.76443 38.3568 9.69156 38.1519 9.55482C37.9469 9.41808 37.7871 9.22361 37.6927 8.99603C37.5983 8.76845 37.5735 8.51798 37.6215 8.27631C37.6695 8.03464 37.7881 7.81263 37.9623 7.63838C38.1364 7.46412 38.3584 7.34545 38.6001 7.29737C38.8417 7.2493 39.0922 7.27399 39.3198 7.36831C39.5474 7.46263 39.7419 7.62235 39.8788 7.82725C40.0156 8.03216 40.0886 8.27305 40.0884 8.51943C40.0881 8.84939 39.9569 9.16575 39.7237 9.39911C39.4904 9.63247 39.1741 9.76377 38.8441 9.76422ZM38.8441 7.43009C38.6287 7.43005 38.4182 7.49388 38.239 7.61351C38.0599 7.73314 37.9203 7.9032 37.8378 8.10219C37.7553 8.30118 37.7337 8.52015 37.7757 8.73143C37.8177 8.9427 37.9213 9.13678 38.0736 9.28913C38.2259 9.44148 38.4199 9.54525 38.6312 9.58732C38.8424 9.62939 39.0614 9.60787 39.2604 9.52548C39.4595 9.44309 39.6296 9.30354 39.7493 9.12446C39.869 8.94539 39.9329 8.73484 39.933 8.51943C39.9328 8.23068 39.818 7.95381 39.6138 7.74958C39.4097 7.54536 39.1329 7.43046 38.8441 7.43009Z" fill="#231F20"/>
<path d="M38.3887 7.77934H38.9254C38.9779 7.77372 39.0309 7.78 39.0806 7.79772C39.1303 7.81544 39.1754 7.84414 39.2125 7.88168C39.2495 7.91922 39.2777 7.96464 39.2948 8.01456C39.3119 8.06448 39.3175 8.11761 39.3112 8.17001C39.3112 8.36715 39.2238 8.51874 39.0579 8.54453V8.54742C39.2088 8.56284 39.2881 8.64599 39.2958 8.85976C39.2987 8.95616 39.3002 9.0757 39.3047 9.16873C39.3048 9.1949 39.3114 9.22064 39.324 9.24359C39.3366 9.26653 39.3548 9.28596 39.3768 9.30007H39.1025C39.0764 9.25988 39.0622 9.21307 39.0616 9.16511C39.0531 9.07425 39.0553 8.98846 39.0512 8.87808C39.0471 8.71227 38.9962 8.63972 38.8297 8.63972H38.6311V9.30007H38.3887V7.77934ZM38.8254 8.45656C38.8583 8.45958 38.8916 8.45525 38.9226 8.44387C38.9537 8.43249 38.9819 8.41435 39.0051 8.39077C39.0283 8.36718 39.046 8.33873 39.0569 8.30747C39.0678 8.27621 39.0716 8.24292 39.0681 8.21001C39.0681 8.04782 38.9979 7.9625 38.8381 7.9625H38.6311V8.45656H38.8254Z" fill="#231F20"/>
</g>
</svg>
