<svg width="481" height="93" viewBox="0 0 481 93" fill="none" xmlns="http://www.w3.org/2000/svg">
<g clip-path="url(#clip0_316_1699)">
<path d="M51.1976 0C65.9547 0 81.0004 3.1746 95.1418 10.024C99.9518 21.5103 102.415 33.8432 102.415 46.2914C102.415 58.2587 100.163 70.4376 95.1803 82.4819C80.9812 89.3506 65.9932 92.5059 51.2169 92.5059C36.4406 92.5059 21.4526 89.3506 7.25348 82.4819C2.25108 70.4184 0 58.2587 0 46.2722C0 34.2664 2.27032 21.9528 7.27272 10.0048C21.3949 3.1746 36.4406 0 51.1976 0Z" fill="#2D7D2F"/>
<path d="M10.332 79.5964C6.21466 69.2645 3.94434 58.0091 3.94434 46.2727C3.94434 34.5171 6.21466 23.2617 10.3513 12.8913C22.6264 7.13857 36.6139 3.90625 51.1978 3.90625C65.7817 3.90625 79.7692 7.13857 92.0443 12.8913C96.1809 23.2617 98.4512 34.5171 98.4512 46.2727C98.4512 58.0091 96.2001 69.2453 92.0635 79.5964C79.7884 85.3684 65.7817 88.5815 51.1978 88.5815C36.6139 88.6007 22.6071 85.3684 10.332 79.5964Z" fill="#F5C451"/>
<path d="M89.7356 77.4409C87.1574 73.1888 83.6942 69.7641 83.6557 69.7256C83.4248 69.6487 83.1747 69.5717 82.9438 69.4948C75.5942 67.2244 70.7649 65.5313 68.6293 64.4346C65.7048 62.9147 62.6072 59.2206 62.2801 58.7973C58.8361 58.528 55.9886 58.5857 53.2565 58.932L51.5057 59.1629C48.1772 59.5862 44.7524 60.0479 41.3854 59.5092C39.1536 59.1436 36.9795 58.4318 34.6707 57.6814C31.1113 56.527 27.4749 55.3149 23.3191 55.3341H23.1459L23.2229 55.488C24.1656 57.3158 27.8982 62.8954 32.5735 64.4346C33.6125 64.6848 34.3436 64.9541 34.6707 65.2042C34.6707 65.2235 36.46 68.8598 36.941 69.8411C34.0358 68.5135 25.0314 63.9536 17.778 55.1225V55.1032C17.778 54.9878 17.5856 53.2754 17.5471 52.8906C21.8761 51.2745 31.5923 50.351 32.689 50.2355H32.7659L32.8044 50.1393C33.3816 45.0215 34.5937 40.9234 36.864 36.4404C36.9218 36.3058 36.9602 36.1711 36.9602 36.0749C36.9602 35.9979 36.941 35.921 36.9025 35.8632C36.7678 35.6131 36.46 35.5746 36.46 35.5746L29.8414 34.4202L29.1296 32.2269C33.9011 30.4568 39.7885 28.7829 43.1555 28.0518C43.7327 27.1475 43.8866 26.6473 43.8866 26.0508C43.8866 25.5506 43.6365 25.1081 43.1555 24.781C40.7698 23.1648 33.2469 24.1461 25.6471 27.0513C25.6279 27.0128 25.6279 27.0128 25.6086 26.9744C27.1863 25.8007 30.0146 24.0306 32.1118 23.0686L32.1887 23.0302L32.1695 22.9532C31.5923 21.0292 27.879 19.567 27.4749 19.413C27.4749 19.3553 27.4942 19.2976 27.4942 19.2591C31.2652 19.009 33.7856 20.7598 34.536 22.0297L34.5745 22.0874L34.6514 22.0682C35.1324 21.9142 36.8448 21.3755 38.6918 21.1446H38.8073L38.7688 21.0292C38.1531 17.7969 35.0747 15.642 34.0165 14.9878C34.055 14.9301 34.055 14.9109 34.0935 14.8724C37.7491 15.161 41.1161 18.2971 41.8664 20.9522L41.8857 21.0292H41.9626C42.9439 21.0677 44.1368 21.1639 44.9256 21.2986L45.0026 21.3178L45.041 21.2408C45.3296 20.5482 45.4836 19.7978 45.4836 19.0282C45.4836 16.6425 44.1368 14.0836 42.4629 12.4482C42.5014 12.4097 42.5206 12.352 42.5591 12.3135C47.3498 14.122 48.562 17.5852 48.562 20.7983C48.562 23.0494 47.9655 25.185 47.5807 26.5511L47.4268 27.109C47.4268 27.109 54.4879 26.2625 54.9496 26.2048C54.2378 27.109 52.6793 28.7252 49.6009 30.4376C49.6009 30.4183 46.4263 30.0335 46.4263 30.0335L46.3494 30.0143L46.3301 30.0912C46.1185 30.7454 44.2522 36.6328 44.2522 40.9618C44.2522 42.5588 44.714 43.8094 45.599 44.6752C47.1959 46.2144 49.8318 46.2913 51.6788 46.2144C59.5288 45.9258 65.6663 46.4068 69.9184 47.6766L70.1685 47.7536L70.207 47.6958C70.4763 47.2918 70.6687 46.5414 70.6687 45.541C70.6687 43.6362 69.9184 40.8272 67.3594 37.6141C67.3787 37.5948 67.3787 37.5756 67.4172 37.5564C67.8404 37.7872 74.7284 41.693 75.6519 47.5996C75.498 47.6574 72.3426 48.9464 72.3426 48.9464L72.4388 49.0426C75.344 52.0826 76.3445 55.7766 77.1526 58.7204C77.7875 61.0484 78.5571 62.5491 79.5768 63.4342C80.7505 64.4539 85.2142 66.5703 86.5417 67.2052C87.6576 68.7829 89.5624 71.7458 90.9477 74.0354C93.9684 65.0888 95.5076 55.7189 95.5076 46.2721C95.5076 35.5169 93.5451 25.0311 89.7163 15.0456C77.8452 9.6776 64.5504 6.83008 51.2171 6.83008C37.8645 6.83008 24.5889 9.6776 12.7178 15.0456C8.86984 25.0119 6.88813 35.5939 6.90737 46.2721C6.90737 56.9888 8.86985 67.4746 12.6794 77.4409C24.5504 82.8088 37.8453 85.6371 51.1978 85.6371C64.5504 85.6564 77.8452 82.8281 89.7356 77.4409ZM119.307 58.6819C119.307 58.6819 123.675 60.2403 128.581 60.2403C133.795 60.2403 137.047 59.5284 138.875 57.6814C140.375 56.1614 140.991 53.641 140.895 49.9277V25.1466H148.61V51.0051C148.495 62.4529 142.934 67.3399 129.966 67.3399C123.675 67.3399 119.288 66.3586 119.288 66.3586V58.6819H119.307ZM153.17 50.2163C153.17 58.1047 158.345 67.3399 172.949 67.3399C187.552 67.3399 192.727 58.1239 192.727 50.2163C192.727 39.1725 185.339 32.5732 172.949 32.5732C160.577 32.5732 153.17 39.1725 153.17 50.2163ZM172.949 60.5674C168.446 60.5674 160.866 59.1821 160.866 49.87C160.866 43.1937 165.272 39.3649 172.949 39.3649C180.625 39.3649 185.012 43.1937 185.012 49.87C185.012 59.1629 177.47 60.5674 172.949 60.5674ZM225.05 33.362V46.5607H205.002V33.362H197.306V66.5703H205.002V53.3716H225.05V66.5703H232.746V33.362H225.05ZM347.494 59.7593V53.3524H365.272V46.5607H347.494V40.1538H370.466V33.362H339.798V66.5703H370.466V59.7786H347.494V59.7593ZM383.319 59.7593V53.3524H401.097V46.5607H383.319V40.1538H406.291V33.362H375.603V66.5703H406.291V59.7786H383.319V59.7593ZM458.008 59.7593V53.3524H475.805V46.5607H458.008V40.1538H481V33.362H450.312V66.5703H481V59.7786H458.008V59.7593ZM301.376 31.9575V59.7208H312.265C318.172 59.7208 328.1 57.893 328.1 45.7141C328.1 36.9599 322.328 31.9575 312.265 31.9575H301.376ZM312.265 25.1081C327.022 25.1081 335.854 32.9772 335.854 46.1374C335.854 55.565 329.678 66.5703 312.265 66.5703H293.641V25.1081H302.549H312.265ZM446.772 66.5703H437.46L428.167 54.4298H419.124V66.5703H411.428V33.362H433.208C440.712 33.362 445.175 37.3447 445.175 44.021C445.175 48.0229 442.944 52.5058 437.095 53.9104L446.772 66.5703ZM433.631 47.6381C435.228 47.6381 437.903 47.1379 437.903 43.8478C437.903 41.5006 436.344 40.1538 433.631 40.1538H419.548V47.6189L433.631 47.6381ZM266.763 66.5703L246.734 43.944V66.5703H239.038V33.362H246.676L266.782 55.7574V33.362H274.497V66.5703H266.763Z" fill="#2D7D2F"/>
</g>
<defs>
<clipPath id="clip0_316_1699">
<rect width="481" height="92.5059" fill="white"/>
</clipPath>
</defs>
</svg>
