<svg width="409" height="129" viewBox="0 0 409 129" fill="none" xmlns="http://www.w3.org/2000/svg">
<g clip-path="url(#clip0_316_1808)">
<mask id="mask0_316_1808" style="mask-type:luminance" maskUnits="userSpaceOnUse" x="0" y="0" width="409" height="129">
<path d="M409 0H0V128.314H409V0Z" fill="white"/>
</mask>
<g mask="url(#mask0_316_1808)">
<path d="M402.035 93.3238C400.031 93.3238 398.397 92.6817 397.105 91.397C395.814 90.124 395.176 88.4714 395.176 86.4649C395.176 84.4579 395.814 82.8165 397.105 81.5323C398.39 80.2476 400.031 79.6055 402.035 79.6055C404.037 79.6055 405.657 80.2476 406.96 81.5323C408.251 82.8165 408.894 84.4691 408.894 86.4649C408.894 88.4602 408.251 90.124 406.96 91.397C405.668 92.6817 404.026 93.3238 402.035 93.3238ZM402.035 91.8097C403.556 91.8097 404.818 91.3098 405.8 90.3063C406.781 89.314 407.27 88.0191 407.27 86.4574C407.27 84.8957 406.781 83.6115 405.8 82.6085C404.807 81.6157 403.556 81.1126 402.035 81.1126C400.513 81.1126 399.251 81.605 398.28 82.6085C397.299 83.6008 396.795 84.892 396.795 86.4574C396.795 88.0223 397.288 89.3033 398.28 90.3063C399.262 91.2986 400.513 91.8097 402.035 91.8097ZM399.459 89.9962V82.8384H402.516C403.315 82.8384 403.946 83.0496 404.406 83.4805C404.869 83.9216 405.099 84.4948 405.099 85.224C405.099 86.319 404.446 87.1396 403.377 87.4203L405.186 89.9887H403.377L401.662 87.5117H401.093V89.9887H399.459V89.9999V89.9962ZM401.093 86.1762H402.443C403.195 86.1762 403.567 85.8554 403.567 85.224C403.567 84.5931 403.184 84.2718 402.425 84.2718H401.093V86.1762Z" fill="#333236"/>
<path d="M103.683 78.9972V11.4805H114.777V51.025L135.467 27.9054H148.966L126.346 52.9514L150.418 78.9897H136.919L114.77 54.8849V78.9897H103.675L103.686 79.0004L103.683 78.9972Z" fill="#333236"/>
<path d="M155.643 75.47C152.487 72.5038 150.896 68.6913 150.896 64.0795C150.896 59.4682 152.589 55.7471 156.022 52.6896C159.408 49.6724 164.114 48.1692 170.13 48.1692H183.158V45.7248C183.158 39.9276 179.303 36.5893 173.045 36.5893C168.16 36.5893 164.953 39.176 163.873 42.383H152.498C153.669 37.8225 156.022 34.1012 159.649 31.2226C163.275 28.355 167.74 26.9395 173.045 26.9395C179.725 26.9395 184.942 28.5849 188.657 31.9341C192.371 35.2723 194.202 39.8948 194.202 45.7285V79.0163H184.56L183.618 72.7481H183.148C182.068 74.6819 180.185 76.327 177.5 77.7829C174.815 79.2462 171.714 79.9465 168.189 79.9465C162.972 79.9465 158.787 78.4431 155.632 75.4737L155.643 75.4625V75.47ZM183.151 59.2276V56.8303H170.645C164.859 56.8303 161.995 59.0849 161.943 63.5689C161.943 67.5199 164.997 70.3476 170.645 70.3476C178.354 70.3476 183.151 66.0683 183.151 59.2383V59.2276Z" fill="#333236"/>
<path d="M206.238 98.3045V27.9131H215.409L216.821 34.1809H217.343C220.397 29.8978 225.855 26.9316 232.254 26.9316C238.653 26.9316 244.29 29.2374 248.336 33.849C252.382 38.5116 254.403 45.0093 254.403 53.4406C254.403 61.872 252.382 68.4101 248.336 73.0321C244.29 77.6439 238.934 79.9498 232.254 79.9498C229.011 79.9498 226.044 79.2489 223.462 77.8738C220.879 76.5094 218.996 74.9552 217.814 73.2112H217.343V98.3083H206.238V98.3045ZM230.309 69.8216C234.115 69.8216 237.219 68.4064 239.664 65.63C242.108 62.8536 243.327 58.7529 243.327 53.437C243.327 48.1213 242.104 44.0242 239.664 41.2442C237.219 38.4678 234.115 37.0522 230.309 37.0522C226.504 37.0522 223.4 38.4641 220.995 41.2442C218.551 44.0206 217.332 48.1213 217.332 53.437C217.332 58.7529 218.555 62.8536 220.995 65.63C223.388 68.4064 226.493 69.8216 230.309 69.8216Z" fill="#333236"/>
<path d="M265.08 20.1888C263.718 18.9155 263.054 17.2701 263.054 15.3364C263.054 13.4028 263.715 11.8084 265.028 10.5352C266.342 9.2619 267.991 8.60156 270.016 8.60156C274.153 8.60156 277.024 11.4692 277.024 15.3401C277.024 19.211 274.161 22.1187 270.016 22.1187C268.042 22.1187 266.39 21.4584 265.08 20.1851V20.196V20.1888ZM264.518 78.9929V27.9124H275.612V78.9967H264.518V78.9929Z" fill="#333236"/>
<path d="M306.356 78.9973C297.282 78.9973 291.916 73.722 291.916 65.0095V38.03H283.736V27.9022H291.916L293.379 14.3887H303.021V27.9022H315.528V38.03H303.021V63.5467C303.021 66.5129 305.094 68.8696 308.29 68.8696H315.528V78.9973H306.356Z" fill="#333236"/>
<path d="M327.476 75.47C324.324 72.5038 322.73 68.6913 322.73 64.0795C322.73 59.4682 324.422 55.7471 327.859 52.6896C331.241 49.6724 335.948 48.1692 341.967 48.1692H354.996V45.7248C354.996 39.9276 351.139 36.5893 344.883 36.5893C339.994 36.5893 336.79 39.176 335.707 42.383H324.335C325.506 37.8225 327.859 34.1012 331.482 31.2226C335.108 28.355 339.574 26.9395 344.883 26.9395C351.559 26.9395 356.776 28.5849 360.49 31.9341C364.208 35.2723 366.039 39.8948 366.039 45.7285V79.0163H356.397L355.455 72.7481H354.985C353.901 74.6819 352.018 76.327 349.337 77.7829C346.652 79.2462 343.551 79.9465 340.023 79.9465C334.806 79.9465 330.621 78.4431 327.469 75.4737L327.476 75.4625V75.47ZM354.985 59.2276V56.8303H342.478C336.688 56.8303 333.824 59.0849 333.777 63.5689C333.777 67.5199 336.83 70.3476 342.478 70.3476C350.187 70.3476 354.985 66.0683 354.985 59.2383V59.2276Z" fill="#333236"/>
<path d="M378.542 78.9972V11.4805H389.637V78.9972H378.542Z" fill="#333236"/>
<mask id="mask1_316_1808" style="mask-type:luminance" maskUnits="userSpaceOnUse" x="0" y="0" width="80" height="94">
<path d="M79.6908 0H0V93.0954H79.6908V0Z" fill="white"/>
</mask>
<g mask="url(#mask1_316_1808)">
<path d="M6.57431 44.3312L0 32.2734H30.2193C34.1997 32.2989 37.8882 30.1537 39.8875 26.6549L55.1011 0L61.8178 11.9375L46.5676 38.7055C44.5939 42.1714 40.9601 44.313 37.0199 44.3348H6.57431V44.3312Z" fill="#8491A2"/>
<path d="M61.8141 81.163L55.1011 93.0967L39.8875 66.4416C37.8882 62.9429 34.1997 60.798 30.2193 60.8236H0L6.74219 48.8459H36.9506C40.9309 48.8239 44.6158 50.9729 46.6114 54.4716L61.8141 81.163Z" fill="#8491A2"/>
<path d="M66.0788 14.2344H79.687L64.4738 40.8893C62.4743 44.388 62.4743 48.7077 64.4738 52.2065L79.687 78.8612H66.0751L50.8907 52.1992C48.8987 48.7041 48.8987 44.3954 50.8907 40.9002L66.0788 14.2344Z" fill="#465364"/>
</g>
<path d="M251.144 117.518C251.144 119.127 250.585 120.333 249.466 121.135C248.346 121.937 246.853 122.341 244.978 122.341H239.135V105.439H244.453C248.329 105.439 250.267 106.962 250.267 110.014C250.267 111.254 249.547 112.344 248.104 113.267C249.051 113.63 249.789 114.173 250.331 114.882C250.867 115.597 251.138 116.474 251.138 117.518H251.144ZM247.816 110.037C247.816 109.062 247.516 108.387 246.922 108.012C246.328 107.637 245.44 107.452 244.263 107.452H241.529V112.644H243.841C245.035 112.627 245.993 112.413 246.726 111.998C247.452 111.582 247.816 110.931 247.816 110.037ZM248.71 117.57C248.71 116.578 248.393 115.828 247.764 115.332C247.135 114.836 246.259 114.588 245.128 114.588H241.523V120.379H244.88C246.039 120.379 246.968 120.148 247.66 119.693C248.358 119.237 248.704 118.527 248.704 117.57H248.71Z" fill="#333236"/>
<path d="M257.553 112.101C256.457 112.101 255.298 112.372 254.075 112.92L253.406 111.034C253.839 110.734 254.491 110.486 255.356 110.278C256.227 110.071 256.942 109.967 257.507 109.967C258.419 109.967 259.249 110.151 259.994 110.526C260.738 110.901 261.32 111.409 261.747 112.055C262.168 112.701 262.381 113.405 262.381 114.166V122.345H260.714L260.414 121.203C259.965 121.601 259.423 121.942 258.776 122.224C258.13 122.507 257.502 122.645 256.89 122.645C255.512 122.645 254.473 122.299 253.758 121.613C253.043 120.926 252.691 120.009 252.691 118.867C252.691 117.725 253.095 116.773 253.897 116.122C254.698 115.469 255.771 115.141 257.115 115.141H259.971C259.971 114.16 259.791 113.41 259.434 112.891C259.076 112.372 258.453 112.106 257.559 112.106L257.553 112.101ZM257.057 116.721C256.36 116.721 255.817 116.929 255.419 117.344C255.021 117.76 254.825 118.261 254.825 118.861C254.825 119.375 254.998 119.819 255.344 120.194C255.69 120.569 256.186 120.753 256.838 120.753C257.421 120.753 257.98 120.609 258.528 120.321C259.076 120.032 259.561 119.646 259.994 119.167V116.733H257.063L257.057 116.721Z" fill="#333236"/>
<path d="M271.103 111.925C270.537 111.925 269.926 112.104 269.263 112.461C268.599 112.819 267.947 113.28 267.302 113.84V122.343H264.913V110.287H266.58L267.002 111.879C267.647 111.302 268.374 110.823 269.188 110.448C270.001 110.079 270.803 109.889 271.599 109.889C272.908 109.889 273.883 110.292 274.518 111.106C275.158 111.919 275.475 113.009 275.475 114.388V122.343H273.087V114.613C273.087 113.736 272.943 113.067 272.654 112.612C272.366 112.156 271.847 111.925 271.103 111.925Z" fill="#333236"/>
<path d="M283.314 120.623C283.994 120.623 284.582 120.559 285.078 120.421C285.575 120.288 286.117 120.08 286.694 119.798L287.415 121.511C286.919 121.84 286.25 122.117 285.413 122.33C284.577 122.544 283.879 122.653 283.314 122.653C282.102 122.653 281.047 122.388 280.147 121.857C279.241 121.326 278.549 120.582 278.059 119.619C277.568 118.662 277.326 117.548 277.326 116.291C277.326 115.033 277.574 113.949 278.07 112.985C278.566 112.028 279.276 111.278 280.193 110.747C281.116 110.217 282.183 109.951 283.411 109.951C283.959 109.951 284.646 110.067 285.477 110.286C286.307 110.511 286.965 110.788 287.467 111.117L286.769 112.807C286.088 112.524 285.512 112.316 285.044 112.184C284.571 112.051 284.023 111.982 283.388 111.982C282.292 111.982 281.422 112.385 280.764 113.199C280.106 114.012 279.772 115.028 279.755 116.256C279.755 117.548 280.072 118.598 280.7 119.4C281.329 120.202 282.2 120.605 283.308 120.605L283.314 120.623Z" fill="#333236"/>
<path d="M294.112 122.664C292.9 122.664 291.845 122.399 290.945 121.869C290.039 121.338 289.347 120.594 288.868 119.63C288.389 118.673 288.147 117.56 288.147 116.302C288.147 115.045 288.395 113.96 288.891 112.997C289.388 112.039 290.091 111.289 291.003 110.759C291.914 110.228 292.981 109.963 294.209 109.963C295.439 109.963 296.477 110.228 297.377 110.759C298.282 111.289 298.974 112.034 299.464 112.997C299.955 113.96 300.197 115.068 300.197 116.331C300.197 117.594 299.949 118.673 299.453 119.636C298.957 120.6 298.248 121.344 297.33 121.874C296.407 122.405 295.34 122.67 294.112 122.67V122.664ZM297.769 116.354C297.769 115.062 297.452 114.012 296.823 113.21C296.194 112.408 295.323 112.005 294.209 112.005C293.096 112.005 292.243 112.408 291.591 113.222C290.939 114.035 290.599 115.051 290.581 116.279C290.581 117.571 290.899 118.621 291.528 119.423C292.156 120.225 293.027 120.628 294.135 120.628C295.242 120.628 296.102 120.225 296.759 119.411C297.411 118.598 297.751 117.583 297.769 116.354Z" fill="#333236"/>
<path d="M300.647 122.341L306.987 105.439H311.509L317.82 122.138L313.372 122.589L312.155 119.012H306.312L305.146 122.341H300.647ZM307.558 115.459H310.863L309.173 110.862L307.558 115.459Z" fill="#333236"/>
<path d="M324.493 119.111C324.758 119.111 325.134 119.042 325.612 118.898C326.091 118.753 326.53 118.598 326.927 118.413V110.309H331.45V122.364H329.264L327.972 121.124C326.212 122.215 324.574 122.763 323.051 122.763C321.528 122.763 320.502 122.336 319.769 121.482C319.042 120.628 318.673 119.497 318.673 118.09V110.309H323.195V117.663C323.195 118.079 323.293 118.419 323.495 118.696C323.697 118.967 324.026 119.106 324.487 119.106L324.493 119.111Z" fill="#333236"/>
<path d="M339.134 110.78H342.289L342.71 114.334H339.134V117.316C339.134 117.812 339.261 118.204 339.52 118.499C339.78 118.787 340.12 118.931 340.553 118.931C341.147 118.931 341.729 118.775 342.295 118.458L343.587 121.538C343.275 121.804 342.779 122.046 342.11 122.271C341.441 122.496 340.824 122.606 340.258 122.606C339.266 122.606 338.338 122.421 337.472 122.058C336.613 121.694 335.921 121.152 335.396 120.431C334.876 119.71 334.611 118.839 334.611 117.812V114.334H332.748V110.78H334.611V107.527L339.134 106.904V110.78Z" fill="#333236"/>
<path d="M350.613 122.613C348.594 122.613 346.961 122.071 345.727 120.987C344.493 119.902 343.875 118.322 343.875 116.251C343.875 114.942 344.175 113.805 344.781 112.836C345.386 111.867 346.205 111.129 347.238 110.627C348.277 110.119 349.43 109.865 350.705 109.865C352.049 109.865 353.231 110.113 354.258 110.609C355.285 111.106 356.087 111.844 356.669 112.824C357.252 113.805 357.54 114.988 357.54 116.378C357.54 117.687 357.24 118.812 356.635 119.758C356.029 120.704 355.198 121.413 354.149 121.898C353.093 122.377 351.916 122.619 350.607 122.619L350.613 122.613ZM352.874 116.372C352.874 115.542 352.689 114.866 352.314 114.336C351.94 113.805 351.42 113.54 350.763 113.54C350.065 113.54 349.522 113.782 349.136 114.261C348.743 114.74 348.553 115.403 348.553 116.251C348.553 117.099 348.738 117.734 349.101 118.212C349.465 118.691 349.99 118.933 350.664 118.933C351.38 118.933 351.922 118.72 352.308 118.287C352.689 117.854 352.879 117.22 352.879 116.372H352.874Z" fill="#333236"/>
<path d="M360.112 114.334H358.123V110.781H360.112V109.662C360.112 108.636 360.372 107.759 360.897 107.038C361.416 106.317 362.108 105.774 362.974 105.411C363.833 105.048 364.762 104.863 365.754 104.863C366.319 104.863 366.937 104.973 367.605 105.197C368.275 105.423 368.771 105.665 369.082 105.93L367.79 109.01C367.225 108.693 366.648 108.537 366.048 108.537C365.616 108.537 365.275 108.682 365.016 108.97C364.762 109.259 364.629 109.651 364.629 110.152V110.776H367.957L368.379 114.329H364.623V128.052H360.101V114.329L360.112 114.334Z" fill="#333236"/>
<path d="M374.615 110.283V122.339H370.093V110.283H374.615Z" fill="#333236"/>
<path d="M383.821 113.542C383.556 113.542 383.181 113.611 382.702 113.756C382.223 113.894 381.785 114.055 381.386 114.24V122.345H376.865V110.288H379.547L380.342 111.529C382.096 110.433 383.74 109.891 385.263 109.891C386.786 109.891 387.812 110.317 388.545 111.171C389.272 112.025 389.641 113.156 389.641 114.563V122.345H385.119V114.99C385.119 114.575 385.02 114.234 384.819 113.957C384.623 113.686 384.288 113.548 383.827 113.548L383.821 113.542Z" fill="#333236"/>
<path d="M374.816 106.207C374.816 106.87 374.573 107.441 374.083 107.92C373.592 108.399 373.01 108.641 372.329 108.641C371.648 108.641 371.095 108.399 370.616 107.92C370.138 107.441 369.895 106.87 369.895 106.207C369.895 105.543 370.138 104.943 370.616 104.453C371.095 103.963 371.666 103.721 372.329 103.721C372.992 103.721 373.592 103.963 374.083 104.453C374.573 104.943 374.816 105.526 374.816 106.207Z" fill="#333236"/>
<path d="M211.349 122.567C209.809 122.567 208.557 122.025 207.599 120.935C206.642 119.845 206.157 118.317 206.157 116.344C206.157 114.371 206.636 112.842 207.599 111.752C208.563 110.662 209.809 110.119 211.349 110.119C212.993 110.119 214.262 110.696 215.156 111.844H215.271V106.191H217.007V122.348H215.623L215.386 120.739H215.271C214.406 121.962 213.102 122.573 211.349 122.573V122.567ZM208.892 119.758C209.56 120.56 210.454 120.958 211.579 120.958C212.704 120.958 213.599 120.56 214.267 119.758C214.937 118.956 215.271 117.82 215.271 116.344C215.271 114.867 214.937 113.73 214.267 112.929C213.599 112.127 212.704 111.729 211.579 111.729C210.454 111.729 209.56 112.127 208.892 112.929C208.222 113.73 207.888 114.867 207.888 116.344C207.888 117.82 208.222 118.956 208.892 119.758Z" fill="#333236"/>
<path d="M225.309 122.565C223.648 122.565 222.309 122.023 221.294 120.932C220.279 119.842 219.766 118.314 219.766 116.341C219.766 114.368 220.267 112.84 221.277 111.749C222.286 110.659 223.584 110.117 225.188 110.117C226.064 110.117 226.866 110.29 227.582 110.636C228.297 110.982 228.874 111.432 229.3 111.98C229.728 112.528 230.056 113.122 230.281 113.757C230.506 114.386 230.621 115.02 230.621 115.649L230.5 116.797H221.507C221.565 118.135 221.946 119.162 222.644 119.877C223.342 120.592 224.23 120.956 225.315 120.956C226.699 120.956 227.732 120.379 228.424 119.231H230.27C229.871 120.304 229.237 121.129 228.372 121.706C227.507 122.282 226.486 122.565 225.315 122.565H225.309ZM221.502 115.297H228.88C228.775 114.172 228.383 113.296 227.708 112.667C227.034 112.038 226.191 111.726 225.188 111.726C224.184 111.726 223.348 112.038 222.667 112.667C221.987 113.296 221.6 114.172 221.496 115.297H221.502Z" fill="#333236"/>
</g>
</g>
<defs>
<clipPath id="clip0_316_1808">
<rect width="409" height="128.314" fill="white"/>
</clipPath>
</defs>
</svg>
