<svg width="415" height="88" viewBox="0 0 415 88" fill="none" xmlns="http://www.w3.org/2000/svg">
<path d="M53.0508 0H41.7976V87.5847H53.0508V0Z" fill="#E62E83"/>
<path d="M79.0702 28.2227H92.4074L66.1499 56.0283H53.7058L79.0702 28.2227Z" fill="#49B449"/>
<path d="M53.7058 56.0273H66.1499L94.8486 87.584H80.142L53.7058 56.0273Z" fill="#863B93"/>
<path d="M15.7783 28.2227H2.44116L28.6987 56.0283H41.1428L15.7783 28.2227Z" fill="#00A5DF"/>
<path d="M28.6987 56.0273L0 87.584H14.7066L41.1428 56.0273H28.6987Z" fill="#EB8C24"/>
<path d="M158.736 87.584H150.103L141.231 71.3293L134.86 78.5338V83.0589H139.742V87.584H123.905V83.0589H129.204V46.6794H123.905V42.1543H134.86V72.0438L146.471 58.528H142.719V54.0029H157.367V58.528H152.663L144.922 67.221L153.615 83.0589H158.736V87.584Z" fill="#121617"/>
<path d="M189.042 87.5844H172.788V83.0593H178.206V58.5285H172.788V54.0033H183.862V83.0593H189.042V87.5844ZM177.908 42.9883H184.16V49.3591H177.908V42.9883Z" fill="#121617"/>
<path d="M240.426 87.5838H224.946V83.0587H229.768V62.2789C229.768 59.7782 228.756 58.8255 225.422 58.8255C220.42 58.8255 217.92 59.9568 214.585 62.1598V82.9991H219.468V87.5242H203.63V82.9991H208.929V58.4683H203.63V53.9432H214.585V58.5874C217.562 55.6699 220.004 53.5859 226.017 53.5859C232.745 53.5859 235.425 56.2653 235.425 61.9812V82.9396H240.426V87.5838Z" fill="#121617"/>
<path d="M287.88 87.5841H277.163V82.8803C274.245 85.7978 271.745 87.8818 265.374 87.8818C258.229 87.8818 255.55 85.2024 255.55 79.3674V62.3387C255.55 56.5037 258.229 53.8244 265.374 53.8244C271.804 53.8244 274.245 55.9083 277.163 58.8258V46.7985H271.09V42.2734H282.819V83.178H287.88V87.5841ZM277.163 62.2792C273.888 60.0166 271.328 58.9449 265.969 58.9449C262.099 58.9449 261.206 59.8975 261.206 62.2792V79.3079C261.206 81.7491 262.159 82.6422 265.969 82.6422C271.328 82.6422 273.888 81.5109 277.163 79.3079V62.2792Z" fill="#121617"/>
<path d="M325.391 59.3616H323.188C319.199 59.3616 316.4 60.7906 313.364 62.6363V82.9993H319.913V87.5244H302.408V82.9993H307.707V58.528L302.408 58.4685V53.9434H313.364V58.9448C316.103 56.2655 318.782 53.9434 323.664 53.9434H325.331V59.3616H325.391Z" fill="#121617"/>
<path d="M346.052 79.4279C346.052 81.8095 347.064 82.7622 349.386 82.7622H357.722C360.163 82.7622 361.056 81.75 361.056 79.4279V76.9272H366.712V79.2492C366.712 84.9056 364.033 87.585 358.377 87.585H348.671C343.015 87.585 340.336 84.9056 340.336 79.2492V62.3396C340.336 56.6832 343.015 54.0039 348.671 54.0039H358.436C364.093 54.0039 366.772 56.6832 366.772 62.3396V72.1639H346.052V79.4279ZM349.445 58.7672C347.064 58.7672 346.111 59.7794 346.111 62.1015V67.8769H361.175V62.1015C361.175 59.7198 360.222 58.7672 357.781 58.7672H349.445Z" fill="#121617"/>
<path d="M415 87.5841H404.283V82.8803C401.365 85.7978 398.864 87.8818 392.493 87.8818C385.349 87.8818 382.669 85.2024 382.669 79.3674V62.3387C382.669 56.5037 385.349 53.8244 392.493 53.8244C398.924 53.8244 401.365 55.9083 404.283 58.8258V46.7985H398.209V42.2734H409.939V83.178H415V87.5841ZM404.283 62.2792C401.008 60.0166 398.448 58.9449 393.089 58.9449C389.219 58.9449 388.326 59.8975 388.326 62.2792V79.3079C388.326 81.7491 389.278 82.6422 393.089 82.6422C398.448 82.6422 401.008 81.5109 404.283 79.3079V62.2792Z" fill="#121617"/>
</svg>
