<svg width="198" height="80" viewBox="0 0 198 80" fill="none" xmlns="http://www.w3.org/2000/svg">
<path d="M62.6503 78.0126H48.6585L23.608 47.4609L11.3472 62.4005V78.0126H0V0H11.3472V45.3953L48.5624 0H62.4099L30.6279 38.9583L62.6503 78.0126Z" fill="#1C1C1C"/>
<path d="M81.6423 0H71.4009V78.0126H81.6423V0Z" fill="#1C1C1C"/>
<path d="M121.694 70.6626C124.291 70.6626 126.839 70.1342 129.243 69.0774C131.551 68.0686 133.667 66.6755 135.446 64.8981C137.225 63.1208 138.619 61.0071 139.581 58.7013C141.6 53.8496 141.6 48.3733 139.581 43.5215C138.619 41.2158 137.225 39.1021 135.446 37.3247C133.667 35.5473 131.551 34.1062 129.243 33.0974C126.887 32.0887 124.291 31.5602 121.694 31.5602C119.098 31.5602 116.55 32.0887 114.146 33.0974C111.838 34.1062 109.722 35.4993 107.943 37.2767C106.164 39.0541 104.722 41.1677 103.712 43.4735C102.654 45.8754 102.125 48.4694 102.125 51.0634C102.125 53.6574 102.654 56.2514 103.712 58.6533C105.683 63.3129 109.434 67.0118 114.146 69.0294C116.502 70.1342 119.098 70.6626 121.694 70.6626ZM151.457 24.3546V77.9163H141.071V71.6714C138.523 74.2654 135.446 76.331 132.032 77.7721C126.743 79.9819 120.877 80.5583 115.251 79.4534C109.626 78.3486 104.433 75.6105 100.394 71.5753C97.7497 68.9333 95.6822 65.8108 94.1917 62.4002C92.6531 58.8454 91.8838 55.0505 91.8838 51.2075C91.8838 47.3645 92.6531 43.5215 94.1917 40.0148C97.1247 33.1455 102.654 27.6212 109.578 24.6429C113.136 23.1057 116.982 22.3371 120.829 22.3371C124.675 22.289 128.474 23.0576 132.032 24.4988C135.398 25.8918 138.475 27.9574 141.023 30.5995V24.3546H151.457Z" fill="#1C1C1C"/>
<path d="M191.028 22.3375C193.384 22.3375 195.692 22.5296 198 23.01L196.558 32.1852C194.731 31.6087 192.807 31.3205 190.884 31.3685C187.038 31.3685 183.96 31.8969 181.652 33.0018C179.585 33.9145 177.806 35.2595 176.363 36.9408C175.21 38.2859 174.392 39.8231 173.911 41.5044V41.5524C173.431 43.4259 173.19 45.3474 173.19 47.3169V78.0608H162.949V24.4511H173.19V29.2549C173.286 29.2068 173.671 28.8225 174.44 28.102C175.45 27.1893 176.556 26.4207 177.758 25.7482C179.489 24.7874 181.316 23.9708 183.239 23.3943C185.787 22.6257 188.384 22.2895 191.028 22.3375Z" fill="#1C1C1C"/>
</svg>
