<svg width="264" height="93" viewBox="0 0 264 93" fill="none" xmlns="http://www.w3.org/2000/svg">
<path d="M5.7949 13.6406H10.5881V36.1274L22.7022 17.5912C24.3217 15.1292 27.0646 13.6406 30.0136 13.6406H39.2536L24.0783 35.8091L39.9089 67.8636H27.5328L20.343 48.8219C18.0962 45.0117 16.8697 44.5062 14.6229 44.9086C12.4698 45.2926 10.5881 47.1555 10.5881 48.981V63.7257C10.5881 66.0194 9.17446 67.873 6.89022 67.873H0V19.4262C0 16.2432 2.60255 13.6406 5.7949 13.6406Z" fill="#0150B9"/>
<path d="M89.0297 68.687C76.3353 68.2938 69.988 60.9074 69.988 46.6307C69.988 32.3448 76.4195 25.2018 89.1888 25.127C102.52 25.127 108.792 33.2997 107.996 49.7295H80.857C81.2502 56.161 84.0306 59.4095 89.1888 59.4095C91.6509 59.4095 93.9539 58.3797 96.0135 56.3951C96.9684 55.3652 98.1574 54.8878 99.5803 54.8878H107.36C105.057 63.7721 99.3462 68.687 89.0297 68.687ZM81.0161 42.184H96.8093C96.1726 36.6324 93.5514 33.7678 89.0297 33.7678C84.508 33.7772 81.8025 36.6324 81.0161 42.184Z" fill="#0150B9"/>
<path d="M150.779 15.4365V49.7004C150.779 62.32 144.189 68.583 131.101 68.5081C118.088 68.274 111.582 61.206 111.582 47.2383C111.582 32.9524 117.133 25.6502 128.321 25.2571C133.554 25.2571 137.608 27.4008 140.304 31.7634V10.1191H145.537C148.402 10.1191 150.779 12.5813 150.779 15.4365ZM122.451 46.7608C122.376 55.2519 125.231 59.5396 131.26 59.5396C137.289 59.5396 140.304 55.2519 140.304 46.7608C140.07 38.6629 137.13 34.7029 131.419 34.7029C125.699 34.6936 122.769 38.6629 122.451 46.7608Z" fill="#0150B9"/>
<path d="M159.776 24.5566C163.184 24.5566 164.85 26.2231 164.85 29.6306V67.8545H154.3V24.5566H159.776Z" fill="#0150B9"/>
<path d="M65.0077 25.8851C60.5609 25.8851 56.8069 26.5684 53.7269 27.9259C53.0341 26.1471 51.4801 25.2578 48.9898 25.2578H43.429V46.2093V67.8723V67.9004H54.1482V45.788C54.2325 39.8527 57.1626 36.8383 62.9481 36.8383H66.5149V25.8851H65.0077Z" fill="#0150B9"/>
<path d="M164.822 15.3711C164.822 18.2731 162.472 20.623 159.57 20.623C156.669 20.623 154.318 18.2731 154.318 15.3711C154.318 12.4689 156.669 10.1191 159.57 10.1191C162.472 10.1191 164.822 12.4689 164.822 15.3711Z" fill="#0150B9"/>
<path d="M187.271 68.6868V43.0358L164.85 0H180.344L193.741 29.5923L204.225 4.13788C205.414 1.41362 207.324 0 210.058 0H220.45L200.125 43.0358V68.6962H187.271V68.6868Z" fill="#D20A11"/>
<path d="M0 91.0798C21.6349 86.4363 43.4571 83.2814 65.3354 80.7537L73.5362 79.7988L81.7557 78.9657C87.2323 78.404 92.7183 77.9452 98.2042 77.4866C103.69 77.0278 109.185 76.6627 114.681 76.2695C120.176 75.9419 125.671 75.6142 131.176 75.3521C136.681 75.1086 142.185 74.8934 147.69 74.7154L155.957 74.5282C158.709 74.4627 161.471 74.4065 164.223 74.4065L172.499 74.3691C175.261 74.3691 178.013 74.4159 180.774 74.444C186.298 74.5282 191.811 74.6687 197.336 74.9401C200.097 75.0713 202.849 75.1648 205.611 75.3333C208.373 75.4925 211.126 75.6236 213.886 75.8669L222.153 76.5879C224.906 76.8593 227.668 77.1402 230.42 77.4491C235.915 78.1793 241.41 78.9001 246.868 79.9206L248.908 80.2951L250.95 80.7256L255.023 81.5963C256.379 81.8771 257.719 82.2797 259.067 82.6262C260.415 82.9819 261.743 83.347 263.073 83.7307L262.951 84.4142C252.138 82.57 241.177 81.7367 230.223 81.1844C219.27 80.6133 208.289 80.4542 197.316 80.4448C186.335 80.4448 175.363 80.6227 164.392 80.9597C153.419 81.2873 142.448 81.718 131.476 82.2703C109.541 83.2721 87.6161 84.6576 65.7097 86.2584C54.7565 87.0636 43.8128 87.9435 32.869 88.8611C21.9439 89.7785 11 90.7239 0.0655325 91.7725L0 91.0798Z" fill="#D20A11"/>
<path d="M251.895 34.114C255.079 31.9141 257.362 30.4723 258.036 30.0697C260.836 28.3754 259.31 26.6903 259.31 26.6903C259.029 26.6903 258.73 26.6995 258.429 26.7276C258.401 26.7276 258.383 26.7276 258.355 26.737C258.233 26.7464 258.112 26.7557 258 26.7745C257.943 26.7838 257.887 26.7838 257.831 26.7932C257.737 26.8026 257.653 26.8119 257.559 26.8213C257.494 26.8307 257.438 26.84 257.372 26.8494C257.288 26.8588 257.203 26.8774 257.119 26.8869C257.053 26.8961 256.997 26.9055 256.932 26.9149C256.848 26.9242 256.772 26.943 256.688 26.9523C256.623 26.9617 256.567 26.9711 256.501 26.9804C256.427 26.9898 256.343 27.0085 256.267 27.0179C256.211 27.0273 256.154 27.0365 256.098 27.046C256.014 27.0646 255.93 27.074 255.845 27.0927C255.799 27.1021 255.761 27.1115 255.715 27.1208C255.593 27.1489 255.472 27.1677 255.36 27.1958C255.35 27.1958 255.35 27.1958 255.34 27.1958C255.228 27.2145 255.125 27.2426 255.023 27.2612C254.985 27.2706 254.957 27.28 254.928 27.28C254.862 27.2987 254.798 27.3081 254.732 27.3268C254.686 27.3362 254.648 27.3455 254.61 27.3549C254.563 27.3643 254.507 27.3736 254.469 27.3924C254.433 27.4017 254.405 27.4111 254.377 27.4111C254.329 27.4205 254.283 27.4297 254.245 27.4486C254.226 27.4578 254.198 27.4578 254.18 27.4672C254.142 27.4766 254.104 27.4859 254.076 27.4953C254.058 27.4953 254.04 27.5047 254.03 27.5047C254.002 27.514 253.974 27.5234 253.955 27.5234H253.946C253.927 27.5328 253.917 27.5328 253.917 27.5328C253.093 27.72 252.289 27.9166 251.484 28.1319C251.183 28.2069 250.884 28.2911 250.585 28.3754C246.268 29.5549 242.308 31.0527 238.685 32.7753C238.348 32.9344 238.011 33.1029 237.684 33.2622C237.309 33.4494 236.936 33.6365 236.561 33.8331C236.252 33.9924 235.933 34.1609 235.624 34.32C235.213 34.5447 234.801 34.7694 234.398 34.994C231.187 36.8009 228.276 38.7669 225.636 40.8263L226.974 36.2298L233.471 13.8553L238.218 30.0136C241.588 28.4035 245.249 26.9898 249.217 25.8383L240.858 0H230.645C227.546 0 225.542 1.5166 224.625 4.54979L203.936 68.6962H217.519C221.217 59.3344 232.085 49.2145 241.663 41.6596L245.558 54.6536H245.594L249.695 68.6962H263.091L251.895 34.114Z" fill="#D20A11"/>
</svg>
