<svg width="431" height="59" viewBox="0 0 431 59" fill="none" xmlns="http://www.w3.org/2000/svg">
<path fill-rule="evenodd" clip-rule="evenodd" d="M10.9785 10.1543H36.3575V42.7043H10.9785V10.1543Z" fill="white"/>
<path fill-rule="evenodd" clip-rule="evenodd" d="M78.8675 7.78598H69.7783V48.0824H96.1459V40.1294H78.8675V7.78598ZM124.255 7.49087C111.934 7.49087 102.609 16.1817 102.609 27.9268C102.609 39.672 111.934 48.4808 124.255 48.4808C136.575 48.4808 145.9 39.6277 145.9 27.9268C145.9 16.226 136.575 7.49087 124.255 7.49087ZM124.373 40.5278C121.053 40.5044 117.878 39.1641 115.546 36.8014C113.213 34.4386 111.914 31.2467 111.934 27.9268C111.92 26.2868 112.232 24.6603 112.852 23.1417C113.471 21.6231 114.386 20.2426 115.543 19.0801C116.7 17.9176 118.076 16.9963 119.592 16.3696C121.107 15.7429 122.732 15.4233 124.373 15.4292C127.703 15.4292 130.897 16.7521 133.251 19.1069C135.606 21.4618 136.929 24.6556 136.929 27.9858C136.929 31.3161 135.606 34.5099 133.251 36.8648C130.897 39.2196 127.703 40.5425 124.373 40.5425V40.5278ZM176.532 15.3849C180.632 15.4679 184.561 17.0415 187.584 19.8115L192.704 13.3044C188.149 9.5012 182.407 7.413 176.473 7.40234C163.916 7.40234 154.488 16.2555 154.488 27.8383C154.488 39.4211 163.857 48.4808 176.016 48.4808C181.853 48.3969 187.538 46.6012 192.365 43.3165V25.9201H177.447V32.9879H184.515V38.2997C182.086 39.6117 179.393 40.3582 176.635 40.4835C174.925 40.5919 173.211 40.3496 171.598 39.7714C169.985 39.1932 168.507 38.2914 167.255 37.1212C166.004 35.9511 165.004 34.5374 164.319 32.967C163.633 31.3965 163.276 29.7025 163.269 27.989C163.262 26.2755 163.605 24.5786 164.278 23.0025C164.95 21.4265 165.938 20.0047 167.18 18.8243C168.422 17.6439 169.893 16.7299 171.501 16.1384C173.109 15.547 174.821 15.2906 176.532 15.3849ZM205.482 7.78598H214.586V48.0824H205.482V7.78598ZM256.432 33.6814L236.851 7.78598H228.559V48.0824H237.265V22.2313L256.771 48.0824H265.063V7.78598H256.432V33.6814ZM282.209 37.9013C281.521 37.8842 280.836 38.0094 280.198 38.2691C279.56 38.5287 278.983 38.9173 278.503 39.4104C278.022 39.9035 277.648 40.4906 277.405 41.1348C277.162 41.779 277.054 42.4665 277.089 43.1542C277.089 44.5121 277.628 45.8144 278.588 46.7746C279.549 47.7348 280.851 48.2742 282.209 48.2742C283.567 48.2742 284.869 47.7348 285.829 46.7746C286.79 45.8144 287.329 44.5121 287.329 43.1542C287.37 42.4648 287.268 41.7744 287.027 41.1272C286.786 40.48 286.412 39.8902 285.93 39.3956C285.448 38.9011 284.868 38.5127 284.227 38.2554C283.587 37.9981 282.899 37.8775 282.209 37.9013ZM316.367 15.3849C320.467 15.4679 324.396 17.0415 327.419 19.8115L332.539 13.3044C327.984 9.5012 322.242 7.413 316.308 7.40234C303.751 7.40234 294.323 16.2555 294.323 27.8383C294.323 39.4211 303.648 48.4808 315.836 48.4808C321.679 48.3998 327.369 46.604 332.199 43.3165V25.9201H317.312V32.9879H324.35V38.2997C321.921 39.6117 319.228 40.3582 316.47 40.4835C314.76 40.5919 313.046 40.3496 311.433 39.7714C309.82 39.1932 308.342 38.2914 307.09 37.1212C305.839 35.9511 304.839 34.5374 304.154 32.967C303.468 31.3965 303.111 29.7025 303.104 27.989C303.097 26.2755 303.44 24.5786 304.113 23.0025C304.785 21.4265 305.773 20.0047 307.015 18.8243C308.257 17.6439 309.728 16.7299 311.336 16.1384C312.944 15.547 314.656 15.2906 316.367 15.3849ZM363.923 7.49087C351.603 7.49087 342.277 16.1817 342.277 27.9268C342.277 39.672 351.603 48.4808 363.923 48.4808C376.244 48.4808 385.569 39.6277 385.569 27.9268C385.569 16.226 376.244 7.49087 363.923 7.49087ZM364.041 40.5278C360.721 40.5044 357.547 39.1641 355.214 36.8014C352.882 34.4386 351.583 31.2467 351.603 27.9268C351.589 26.2868 351.901 24.6603 352.52 23.1417C353.14 21.6231 354.055 20.2426 355.212 19.0801C356.369 17.9176 357.745 16.9963 359.261 16.3696C360.776 15.7429 362.401 15.4233 364.041 15.4292C367.371 15.4292 370.565 16.7521 372.92 19.1069C375.275 21.4618 376.598 24.6556 376.598 27.9858C376.598 31.3161 375.275 34.5099 372.92 36.8648C370.565 39.2196 367.371 40.5425 364.041 40.5425V40.5278ZM421.616 7.78598L410.564 38.1817L399.572 7.78598H389.789L405.621 48.0824H415.006L431 7.78598H421.616Z" fill="#112E51"/>
<path fill-rule="evenodd" clip-rule="evenodd" d="M16.7916 37.4169L18.9311 25.1996C17.8612 24.3706 17.078 23.2273 16.6913 21.9302C16.3046 20.6332 16.3338 19.2476 16.775 17.9681C17.2162 16.6886 18.047 15.5794 19.1509 14.7963C20.2548 14.0132 21.5763 13.5956 22.9297 13.602V0.0419922H6.40389C4.70551 0.0419922 3.07669 0.716672 1.87575 1.91761C0.674815 3.11855 0.000135286 4.74737 0.000135286 6.44575V37.8448C-0.00482043 38.4372 0.126436 39.0228 0.383771 39.5564C1.77076 42.3599 7.24494 51.3606 22.915 58.2808V37.9186C20.8632 37.9269 18.8146 37.759 16.7916 37.4169Z" fill="#E21D3E"/>
<path fill-rule="evenodd" clip-rule="evenodd" d="M39.4114 1.71579e-05H22.915V13.56C24.2626 13.5531 25.5787 13.9665 26.6802 14.7428C27.7816 15.5191 28.6136 16.6196 29.0601 17.891C29.5066 19.1624 29.5455 20.5415 29.1714 21.836C28.7972 23.1306 28.0287 24.2762 26.9727 25.1134L29.1122 37.3897C27.0658 37.746 24.9923 37.9237 22.915 37.9209V58.2535C38.5703 51.3629 44.0592 42.3327 45.4462 39.5292C45.7036 38.9956 45.8348 38.41 45.8299 37.8176V6.43328C45.8338 5.58861 45.6705 4.75151 45.3495 3.97019C45.0285 3.18888 44.5561 2.47879 43.9595 1.88082C43.3629 1.28285 42.6539 0.80882 41.8733 0.486028C41.0928 0.163237 40.256 -0.0019381 39.4114 1.71579e-05Z" fill="#B51E23"/>
</svg>
