<svg width="451" height="80" viewBox="0 0 451 80" fill="none" xmlns="http://www.w3.org/2000/svg">
<g clip-path="url(#clip0_316_1745)">
<path d="M396.701 31.9415C396.701 25.7041 392.912 20.7363 384.01 20.7363H363.482V59.3748H369V43.165H381.122L391.882 59.2828H398.265L387.228 42.9074C389.908 42.6331 392.381 41.3448 394.142 39.3063C395.903 37.2677 396.819 34.6331 396.701 31.9415ZM369.11 38.0868V25.8881H383.826C388.534 25.8881 391.183 28.0408 391.183 31.9415C391.183 35.8421 388.571 38.0868 383.826 38.0868H369.11Z" fill="black"/>
<path d="M310.36 42.4291C310.36 50.3407 306.277 54.7014 298.846 54.7014C291.415 54.7014 287.331 50.3407 287.331 42.4291V20.7363H281.813V43.0178C281.813 53.3214 288.122 60.074 298.883 60.074C309.643 60.074 315.952 53.3214 315.952 43.0178V20.7363H310.434L310.36 42.4291Z" fill="black"/>
<path d="M425.948 54.1126V41.8955H448.076V36.7805H425.948V25.9065H450.651V20.7363H420.411V59.2828H451V54.1126H425.948Z" fill="black"/>
<path d="M410.956 20.7363H405.42V59.3012H410.956V20.7363Z" fill="black"/>
<path d="M171.689 20.7365L153.902 59.283H159.42L163.982 49.2186H183.626L188.17 59.283H193.688L175.975 20.6445L171.689 20.7365ZM166.391 44.2508L173.97 27.4891L181.493 44.2508H166.391Z" fill="black"/>
<path d="M336.332 20.7363L318.619 59.3748H324.248L328.791 49.3104H348.436L352.979 59.3748H358.589L340.876 20.7363H336.332ZM331.035 44.2506L338.613 27.4889L346.192 44.2506H331.035Z" fill="black"/>
<path d="M127.856 52.0519L115.017 20.7363H106.629V59.2828H111.89V26.4401L125.465 59.2828H130.247L143.822 26.4401V59.2828H149.083V20.7363H140.713L127.856 52.0519Z" fill="black"/>
<path d="M215.172 25.1159C217.565 25.128 219.914 25.7576 221.992 26.9438C224.071 28.1299 225.808 29.8325 227.036 31.8868L231.285 28.6485C229.548 25.9577 227.161 23.7482 224.345 22.2239C221.529 20.6996 218.374 19.9097 215.172 19.9273C212.513 19.8651 209.87 20.34 207.399 21.3236C204.928 22.3071 202.681 23.7791 200.792 25.6514C198.903 27.5237 197.411 29.7578 196.405 32.2203C195.4 34.6827 194.901 37.3227 194.939 39.9825C194.901 42.643 195.4 45.2839 196.405 47.7473C197.411 50.2107 198.902 52.4461 200.791 54.3198C202.68 56.1936 204.927 57.6673 207.397 58.6529C209.868 59.6384 212.512 60.1157 215.172 60.0561C218.374 60.0736 221.529 59.2838 224.345 57.7595C227.161 56.2352 229.548 54.0256 231.285 51.3348L227.036 48.0781C225.811 50.1371 224.076 51.8443 221.997 53.0339C219.918 54.2235 217.567 54.8552 215.172 54.8675C213.225 54.8963 211.293 54.5284 209.493 53.7863C207.692 53.0442 206.062 51.9434 204.701 50.5508C203.34 49.1583 202.276 47.5031 201.575 45.6862C200.874 43.8693 200.55 41.9287 200.622 39.9825C200.552 38.0378 200.878 36.0991 201.581 34.2844C202.283 32.4696 203.347 30.8168 204.708 29.4262C206.069 28.0356 207.698 26.9364 209.497 26.1955C211.296 25.4545 213.227 25.0872 215.172 25.1159Z" fill="black"/>
<path d="M274.639 39.9991C274.639 34.7582 272.558 29.732 268.853 26.0261C265.148 22.3202 260.124 20.2383 254.884 20.2383C249.645 20.2383 244.62 22.3202 240.915 26.0261C237.21 29.732 235.129 34.7582 235.129 39.9991C235.095 42.6183 235.581 45.2183 236.557 47.6487C237.534 50.0791 238.983 52.2916 240.82 54.1583C242.657 56.025 244.846 57.5089 247.26 58.5241C249.674 59.5393 252.265 60.0656 254.884 60.0727C259.606 60.1034 264.18 58.4238 267.76 55.3441L272.119 59.2815H279.734L271.181 51.517C273.474 48.1169 274.68 44.1002 274.639 39.9991ZM267.006 47.7636L261.947 43.1638L258.269 46.8436L263.658 51.7378C261.184 53.796 258.065 54.9165 254.847 54.9025C252.938 54.8743 251.053 54.4651 249.304 53.6988C247.554 52.9325 245.975 51.8245 244.66 50.4399C243.344 49.0552 242.318 47.4217 241.641 45.6352C240.965 43.8486 240.652 41.945 240.721 40.0359C240.623 38.1196 240.916 36.2034 241.582 34.4038C242.247 32.6043 243.272 30.959 244.594 29.568C245.915 28.1771 247.505 27.0695 249.268 26.3127C251.031 25.5558 252.929 25.1655 254.847 25.1655C256.766 25.1655 258.664 25.5558 260.427 26.3127C262.189 27.0695 263.78 28.1771 265.101 29.568C266.423 30.959 267.447 32.6043 268.113 34.4038C268.779 36.2034 269.072 38.1196 268.974 40.0359C268.993 42.7382 268.315 45.3998 267.006 47.7636Z" fill="black"/>
<path d="M42.7474 0C18.7618 0 0 17.5161 0 40C0 62.4839 18.7618 80 42.7474 80C66.7331 80 85.4948 62.4655 85.4948 40C85.4948 17.5345 66.7331 0 42.7474 0ZM16.8488 67.5989C16.884 67.63 16.9123 67.6682 16.9316 67.711C16.9509 67.7539 16.9609 67.8003 16.9609 67.8473C16.9609 67.8943 16.9509 67.9407 16.9316 67.9836C16.9123 68.0264 16.884 68.0646 16.8488 68.0957C16.7384 68.0957 16.5177 68.0957 16.297 68.0957C12.1072 64.7302 8.72607 60.4669 6.40282 55.6202C4.07957 50.7735 2.87348 45.467 2.87348 40.092C2.87348 34.717 4.07957 29.4105 6.40282 24.5638C8.72607 19.7171 12.1072 15.4538 16.297 12.0883C16.5177 11.9043 16.7384 11.8859 16.8488 12.0883C16.884 12.1194 16.9123 12.1576 16.9316 12.2004C16.9509 12.2433 16.9609 12.2897 16.9609 12.3367C16.9609 12.3837 16.9509 12.4301 16.9316 12.473C16.9123 12.5158 16.884 12.554 16.8488 12.5851C9.94766 20.0897 6.24556 29.9913 6.52983 40.184C6.29366 50.3136 9.99247 60.1404 16.8488 67.5989ZM30.074 57.1665C29.9821 57.3137 29.7613 57.3505 29.5038 57.1665C23.5442 53.5787 18.817 47.7829 18.817 39.9816C18.817 32.1803 23.5442 26.3845 29.5038 22.7783C29.7613 22.6311 29.9821 22.6679 30.074 22.7783C30.166 22.8887 30.074 23.0543 29.9821 23.2015C27.587 25.2788 25.6721 27.8522 24.3699 30.7433C23.0677 33.6343 22.4094 36.774 22.4406 39.9448C22.4119 43.1152 23.0713 46.2541 24.3733 49.1448C25.6753 52.0355 27.5889 54.6092 29.9821 56.6881C30.1292 56.8905 30.166 57.0377 30.074 57.1665ZM42.7474 58.6385C33.5505 58.6385 25.3652 50.598 25.3652 40C25.3652 29.402 33.4769 21.4351 42.7474 21.4351C52.0179 21.4351 60.0929 29.402 60.0929 40C60.0929 50.598 52.0179 58.6385 42.7474 58.6385ZM55.9726 57.1849C55.7335 57.3505 55.5128 57.3137 55.4208 57.1849C55.3288 57.0561 55.4208 56.9089 55.5128 56.7617C57.9059 54.6828 59.8195 52.1091 61.1215 49.2184C62.4235 46.3277 63.083 43.1888 63.0543 40.0184C63.0854 36.8476 62.4271 33.7079 61.1249 30.8169C59.8227 27.9258 57.9078 25.3524 55.5128 23.2751C55.3656 23.1279 55.3288 22.9807 55.4208 22.8519C55.5128 22.7231 55.7335 22.6679 55.9726 22.8519C61.9507 26.5317 66.6779 32.2539 66.6779 40.0552C66.6779 47.8565 61.9323 53.5971 55.9726 57.1849ZM69.1611 68.0037C68.9403 68.1877 68.7196 68.1877 68.6092 68.0037C68.574 67.9726 68.5458 67.9344 68.5265 67.8916C68.5071 67.8487 68.4971 67.8023 68.4971 67.7553C68.4971 67.7083 68.5071 67.6619 68.5265 67.619C68.5458 67.5762 68.574 67.538 68.6092 67.5069C75.5104 60.0023 79.2125 50.1007 78.9282 39.908C79.2125 29.7153 75.5104 19.8137 68.6092 12.3091C68.574 12.278 68.5458 12.2398 68.5265 12.197C68.5071 12.1542 68.4971 12.1077 68.4971 12.0607C68.4971 12.0137 68.5071 11.9673 68.5265 11.9245C68.5458 11.8816 68.574 11.8434 68.6092 11.8123C68.7196 11.7019 68.9403 11.7203 69.1611 11.8123C73.3478 15.1798 76.7262 19.4437 79.0474 24.2902C81.3686 29.1366 82.5736 34.4421 82.5736 39.816C82.5736 45.1899 81.3686 50.4954 79.0474 55.3419C76.7262 60.1883 73.3478 64.4522 69.1611 67.8197V68.0037Z" fill="black"/>
</g>
<defs>
<clipPath id="clip0_316_1745">
<rect width="451" height="80" fill="white"/>
</clipPath>
</defs>
</svg>
