<svg width="359" height="80" viewBox="0 0 359 80" fill="none" xmlns="http://www.w3.org/2000/svg">
<g clip-path="url(#clip0_316_1721)">
<path d="M325.784 16.7822L335.301 34.8876L344.629 16.7822H359L330.352 70.1397H316.362L328.346 47.5561L311.222 16.7822H325.784Z" fill="#F7DD4A"/>
<path d="M231.656 49.1777V70.1395H219.093V16.782H231.656V20.5933C233.742 18.0436 236.715 16.3876 239.987 15.8807C254.357 13.6587 264.004 28.5779 259.397 41.6009C255.322 53.1242 240.876 57.8178 231.654 49.1757L231.656 49.1777ZM247.327 34.6435C247.327 30.2243 243.749 26.6417 239.335 26.6417C234.92 26.6417 231.342 30.2243 231.342 34.6435C231.342 39.0626 234.92 42.6452 239.335 42.6452C243.749 42.6452 247.327 39.0626 247.327 34.6435Z" fill="#F7DD4A"/>
<path d="M293.71 20.0221V16.7825H306.463V52.4177H293.71V48.797C286.101 57.2522 272.657 53.8964 267.409 44.5417C259.586 30.5983 271.037 11.6011 287.43 16.3042C289.895 17.0112 291.747 18.4728 293.71 20.0221ZM294.115 34.6515C294.115 30.2152 290.523 26.6212 286.094 26.6212C281.664 26.6212 278.072 30.2171 278.072 34.6515C278.072 39.0859 281.664 42.6818 286.094 42.6818C290.523 42.6818 294.115 39.0859 294.115 34.6515Z" fill="#F7DD4A"/>
<path d="M238.649 60.8482C239.274 60.7434 240.435 60.7339 241.061 60.8196C242.864 61.0693 245.578 64.0306 247.396 65.1492C256.266 70.6088 269.69 70.5002 278.465 64.8843C281.421 62.992 282.512 60.2803 286.555 60.8196C290.552 61.3532 292.126 66.4469 289.79 69.5531C285.352 75.4586 273.677 79.2356 266.583 79.8587C256.755 80.722 243.202 77.6768 236.215 70.2467C233.336 67.1863 234.401 61.5647 238.647 60.8501L238.649 60.8482Z" fill="#F7DD4A"/>
<path d="M0 52.418L8.83985 0.192468L22.1834 0L29.4091 16.9753L36.5453 0.106715L49.9707 0.200091L58.8181 52.418H45.1129L40.8339 23.0676L31.9483 41.7141C31.027 41.6245 27.4485 42.0209 26.9326 41.5578C26.8032 41.4416 26.4282 40.5574 26.2949 40.2906C23.4549 34.4956 20.969 28.5043 18.1784 22.6884L13.7052 52.418H0Z" fill="#2646B3"/>
<path d="M90.2257 20.0228V16.7832H102.979V52.4184H90.2257V48.7977C85.1034 54.9662 75.6468 54.8595 69.3405 50.5547C61.5286 45.2228 59.3738 34.0253 63.413 25.6711C68.3469 15.4722 81.6999 12.0802 90.2257 20.0228ZM90.5931 34.6389C90.5931 30.2179 87.0126 26.6334 82.5965 26.6334C78.1804 26.6334 74.5999 30.2179 74.5999 34.6389C74.5999 39.06 78.1804 42.6445 82.5965 42.6445C87.0126 42.6445 90.5931 39.06 90.5931 34.6389Z" fill="#2646B3"/>
<path d="M191.262 15.5065C202.078 14.7404 213.624 20.9718 214.521 32.699C216.527 58.9223 174.829 61.2853 171.886 36.8876C170.434 24.8498 179.814 16.3183 191.26 15.5065H191.262ZM201.204 34.5627C201.204 30.1245 197.61 26.5248 193.175 26.5248C188.74 26.5248 185.146 30.1226 185.146 34.5627C185.146 39.0028 188.74 42.6007 193.175 42.6007C197.61 42.6007 201.204 39.0028 201.204 34.5627Z" fill="#2646B3"/>
<path d="M135.91 17.5451V28.4072C134.208 27.6049 132.582 26.5378 130.652 26.3339C115.7 24.7579 118.778 48.0523 133.184 42.3525L135.91 40.7937V51.6558C121.476 58.0663 105.183 47.8522 107.791 31.4143C109.847 18.4484 124.453 12.2456 135.91 17.5451Z" fill="#2646B3"/>
<path d="M168.27 16.2113V28.2168C163.971 26.5036 157.943 26.2292 155.432 30.8961C155.008 31.6869 154.184 34.1547 154.184 34.9817V52.4182H141.43V16.783H154.184V22.1188C157.391 17.5319 162.696 15.1899 168.27 16.2113Z" fill="#2646B3"/>
</g>
<defs>
<clipPath id="clip0_316_1721">
<rect width="359" height="80" fill="white"/>
</clipPath>
</defs>
</svg>
