<svg width="282" height="105" viewBox="0 0 282 105" fill="none" xmlns="http://www.w3.org/2000/svg">
<g clip-path="url(#clip0_316_6583)">
<path d="M0.0966797 67.125H2.1774L7.04284 74.165L11.7362 67.125H13.8013V82.2454H11.4546V71.7714L7.3088 77.7789H6.70649L2.46682 71.7479V82.2454H0.120147L0.0966797 67.125Z" fill="black"/>
<path d="M22.4742 67.125H24.2421L30.2105 82.2454H27.7621L26.4401 78.8975H20.2371L18.9308 82.2454H16.5059L22.4742 67.125ZM21.1132 76.6212H25.5875L23.3503 70.8719L21.1132 76.6212Z" fill="black"/>
<path d="M32.9326 82.248V67.1276H38.3222C39.2143 67.1043 40.1037 67.2367 40.9504 67.5187C41.5911 67.7217 42.1661 68.0916 42.6166 68.5904C42.9907 69.0216 43.2729 69.5247 43.4457 70.0688C43.619 70.6418 43.7034 71.238 43.696 71.8366C43.7267 72.8108 43.4533 73.7705 42.9138 74.5822C42.3778 75.3678 41.5834 75.9407 40.6688 76.2014L44.752 82.248H41.8813L38.1657 76.6942H35.2871V82.248H32.9326ZM35.2793 69.5916V74.2772H38.3222C39.0765 74.3224 39.8224 74.0978 40.4263 73.6436C40.6845 73.4312 40.8897 73.1615 41.0254 72.856C41.1612 72.5505 41.2239 72.2175 41.2086 71.8836C41.2269 71.5733 41.1761 71.2629 41.0598 70.9748C40.9434 70.6866 40.7645 70.4279 40.5358 70.2174C39.8464 69.7533 39.0159 69.5457 38.1892 69.6307L35.2793 69.5916Z" fill="black"/>
<path d="M53.1953 75.7041V82.2513H50.8486V75.7041L45.373 67.0996H48.2908L52.0454 73.1227L55.8783 67.0996H58.6709L53.1953 75.7041Z" fill="black"/>
<path d="M61.3096 67.125H63.6562V79.7501H71.3768V82.2141H61.3096V67.125Z" fill="black"/>
<path d="M79.4938 67.125H81.2851L87.2535 82.2454H84.7894L83.4675 78.8975H77.2644L75.9581 82.2454H73.5254L79.4938 67.125ZM78.1171 76.6212H82.5914L80.3542 70.8719L78.1171 76.6212Z" fill="black"/>
<path d="M99.7613 82.2454L92.2519 71.9279V82.2298H89.9521V67.125H91.7826L99.2919 77.4738V67.125H101.584V82.2454H99.7613Z" fill="black"/>
<path d="M105.792 67.1271H110.055C111.27 67.1021 112.479 67.301 113.622 67.7138C114.55 68.0426 115.377 68.6057 116.024 69.3486C116.604 70.0373 117.04 70.8352 117.306 71.6953C117.59 72.6119 117.727 73.5675 117.713 74.5269C117.8 76.5828 117.088 78.5925 115.726 80.1355C114.407 81.5644 112.43 82.2814 109.797 82.2866H105.792V67.1271ZM108.139 69.5911V79.76H109.969C111.779 79.76 113.111 79.2881 113.966 78.3442C114.882 77.2541 115.344 75.854 115.257 74.4331C115.257 71.1634 113.507 69.5285 110.008 69.5285L108.139 69.5911Z" fill="black"/>
<path d="M127.224 67.1271H131.487C132.702 67.1021 133.911 67.301 135.054 67.7138C135.982 68.0426 136.809 68.6057 137.455 69.3486C138.035 70.0373 138.471 70.8352 138.738 71.6953C139.022 72.6119 139.159 73.5675 139.145 74.5269C139.231 76.5828 138.519 78.5925 137.158 80.1355C135.839 81.5644 133.862 82.2814 131.229 82.2866H127.224V67.1271ZM129.57 69.5911V79.76H131.416C133.226 79.76 134.558 79.2881 135.414 78.3442C136.329 77.2541 136.791 75.854 136.704 74.4331C136.704 71.1634 134.955 69.5285 131.455 69.5285L129.57 69.5911Z" fill="black"/>
<path d="M142.589 67.125H152.703V69.5812H144.943V73.3828H152.195V75.7295H144.943V79.7501H152.899V82.2141H142.589V67.125Z" fill="black"/>
<path d="M156.565 82.2481V67.1277H162.041C162.995 67.1032 163.945 67.2462 164.849 67.5501C165.532 67.7722 166.139 68.1814 166.601 68.7312C166.977 69.1959 167.264 69.7264 167.446 70.2957C167.619 70.8822 167.703 71.4912 167.697 72.1026C167.697 72.7229 167.594 73.3389 167.391 73.9252C167.182 74.5004 166.866 75.0311 166.461 75.4897C165.976 76.0121 165.368 76.4048 164.693 76.6317C163.832 76.927 162.927 77.0699 162.018 77.0541H158.889V82.2403L156.565 82.2481ZM158.912 69.5682V74.6214H162.041C164.221 74.6214 165.311 73.7714 165.311 72.0713C165.311 70.3713 164.268 69.5369 162.182 69.5682H158.912Z" fill="black"/>
<path d="M174.432 67.125H176.224L182.192 82.2454H179.72L178.343 78.8975H172.14L170.834 82.2454H168.401L174.432 67.125ZM173.032 76.6212H177.506L175.269 70.8719L173.032 76.6212Z" fill="black"/>
<path d="M184.863 82.248V67.1276H190.214C191.106 67.1043 191.995 67.2367 192.842 67.5187C193.483 67.7217 194.058 68.0916 194.508 68.5904C194.882 69.0216 195.164 69.5247 195.337 70.0688C195.511 70.6418 195.595 71.238 195.588 71.8366C195.618 72.8108 195.345 73.7705 194.805 74.5822C194.289 75.3565 193.521 75.9286 192.631 76.2014L196.714 82.248H193.859L190.073 76.7021H187.194V82.2559L184.863 82.248ZM187.21 69.5916V74.2772H190.261C191.013 74.3254 191.757 74.1004 192.357 73.6436C192.615 73.4312 192.82 73.1615 192.956 72.856C193.092 72.5505 193.155 72.2175 193.139 71.8836C193.158 71.5733 193.107 71.2629 192.99 70.9748C192.874 70.6866 192.695 70.4279 192.467 70.2174C191.788 69.7621 190.973 69.5549 190.159 69.6307L187.21 69.5916Z" fill="black"/>
<path d="M198.044 67.125H209.535V69.5812H204.935V82.2376H202.589V69.5812H198.021L198.044 67.125Z" fill="black"/>
<path d="M212.265 67.125H214.33L219.195 74.165L223.889 67.125H225.954V82.2454H223.607V71.7714L219.469 77.7789H218.867L214.627 71.7479V82.2454H212.28L212.265 67.125Z" fill="black"/>
<path d="M230.175 67.125H240.289V69.5812H232.529V73.3828H239.781V75.7295H232.529V79.7501H240.485V82.2141H230.175V67.125Z" fill="black"/>
<path d="M253.927 82.2454L246.394 71.9279V82.2298H244.126V67.125H245.956L253.466 77.4738V67.125H255.812V82.2454H253.927Z" fill="black"/>
<path d="M258.465 67.125H269.956V69.5812H265.388V82.2376H263.041V69.5812H258.473L258.465 67.125Z" fill="black"/>
<path d="M22.2276 90.7993C22.8063 90.1443 23.5088 89.6103 24.2948 89.228C25.0807 88.8457 25.9345 88.6227 26.807 88.5718C27.6795 88.5209 28.5535 88.6431 29.3785 88.9315C30.2036 89.2198 30.9635 89.6685 31.6144 90.2517C31.8084 90.4223 31.9913 90.6052 32.1619 90.7993C33.4599 92.3483 34.1713 94.3048 34.1713 96.3257C34.1713 98.3467 33.4599 100.303 32.1619 101.852C31.5816 102.505 30.8778 103.038 30.0911 103.418C29.3043 103.798 28.4501 104.019 27.5776 104.068C26.7052 104.116 25.8317 103.992 25.0075 103.702C24.1833 103.411 23.4246 102.961 22.7752 102.376C22.589 102.213 22.4139 102.038 22.2511 101.852C20.9476 100.31 20.2324 98.3565 20.2324 96.3374C20.2324 94.3184 20.9476 92.3646 22.2511 90.8228L22.2276 90.7993ZM23.9877 100.092C24.3527 100.513 24.7971 100.858 25.2954 101.107C25.7938 101.356 26.3364 101.504 26.8921 101.544C27.4479 101.583 28.0059 101.512 28.5343 101.336C29.0627 101.159 29.5512 100.88 29.9717 100.515C30.1221 100.384 30.2632 100.243 30.3941 100.092C31.2826 99.0421 31.7434 97.6961 31.6848 96.3218C31.7384 94.9438 31.2626 93.5975 30.355 92.5593C29.9966 92.1411 29.5592 91.7976 29.068 91.5484C28.5768 91.2993 28.0413 91.1494 27.4922 91.1072C26.943 91.0651 26.3909 91.1316 25.8674 91.3029C25.344 91.4742 24.8594 91.747 24.4413 92.1056C24.2786 92.2449 24.1269 92.3966 23.9877 92.5593C23.1333 93.6273 22.6679 94.9542 22.6679 96.3218C22.6679 97.6894 23.1333 99.0164 23.9877 100.084V100.092Z" fill="black"/>
<path d="M37.5996 88.7246H47.6121V91.1886H39.9463V95.4674H47.1037V97.9314H39.9541V103.853H37.6074L37.5996 88.7246Z" fill="black"/>
<path d="M55.7363 88.7246H67.2272V91.1886H62.659V103.845H60.3123V91.1886H55.7363V88.7246Z" fill="black"/>
<path d="M69.9453 103.848V88.7272H75.2957C76.1879 88.7039 77.0773 88.8363 77.924 89.1183C78.5647 89.3213 79.1397 89.6912 79.5902 90.19C79.9643 90.6212 80.2465 91.1243 80.4193 91.6684C80.5926 92.2414 80.677 92.8376 80.6696 93.4362C80.7003 94.4105 80.4269 95.3701 79.8874 96.1818C79.3709 96.9562 78.6027 97.5282 77.7128 97.801L81.796 103.848H78.9409L75.2253 98.2939H72.3467V103.848H69.9453ZM72.292 91.1912V95.8377H75.3427C76.097 95.8829 76.8429 95.6583 77.4469 95.2041C77.705 94.9917 77.9102 94.722 78.046 94.4165C78.1817 94.111 78.2444 93.778 78.2291 93.444C78.2475 93.1338 78.1966 92.8234 78.0803 92.5353C77.9639 92.2471 77.785 91.9884 77.5564 91.7779C76.8669 91.3138 76.0365 91.1062 75.2097 91.1912H72.292Z" fill="black"/>
<path d="M89.8141 88.7246H91.6054L97.5737 103.845H95.1019L93.7799 100.497H87.6082L86.3019 103.845H83.8691L89.8141 88.7246ZM88.4295 98.2521H92.9038L90.6667 92.5028L88.4295 98.2521Z" fill="black"/>
<path d="M110.082 103.845L102.572 93.5431V103.845H100.28V88.7246H102.111L109.62 99.0735V88.7246H111.912V103.845H110.082Z" fill="black"/>
<path d="M123.47 98.5768C123.135 98.2262 122.722 97.9584 122.266 97.7946C121.726 97.599 121.186 97.4347 120.631 97.2939C120.075 97.1531 119.442 96.9654 118.84 96.7542C118.268 96.5526 117.72 96.2904 117.205 95.972C116.703 95.6574 116.289 95.2216 116 94.7048C115.555 93.8884 115.415 92.9399 115.605 92.0296C115.796 91.1193 116.305 90.3067 117.04 89.7377C118.126 88.8792 119.483 88.4379 120.865 88.4939C121.849 88.4412 122.833 88.6075 123.744 88.9809C124.656 89.3542 125.473 89.9253 126.138 90.6529L124.855 92.5067C123.76 91.481 122.311 90.9201 120.811 90.9423C120.109 90.9199 119.412 91.0731 118.785 91.3882C118.558 91.5007 118.365 91.67 118.223 91.8797C118.082 92.0893 117.997 92.3321 117.977 92.5843C117.957 92.8364 118.004 93.0894 118.111 93.3185C118.218 93.5476 118.383 93.7449 118.589 93.8913C119.057 94.2273 119.59 94.4618 120.154 94.5796C120.772 94.7283 121.452 94.9238 122.18 95.1663C122.868 95.391 123.545 95.6521 124.206 95.9485C124.843 96.2378 125.385 96.7015 125.77 97.2861C126.2 97.9425 126.419 98.7153 126.396 99.4998C126.409 100.117 126.279 100.728 126.016 101.286C125.752 101.844 125.363 102.333 124.878 102.715C123.828 103.56 122.511 104.004 121.163 103.966C119.971 103.967 118.795 103.7 117.721 103.184C116.723 102.741 115.848 102.062 115.171 101.205L116.571 99.3669C117.156 100.066 117.893 100.624 118.724 100.998C119.556 101.372 120.462 101.553 121.374 101.526C122.045 101.564 122.711 101.394 123.283 101.041C123.501 100.891 123.679 100.689 123.798 100.452C123.917 100.215 123.974 99.9523 123.963 99.6876C123.959 99.4789 123.914 99.2731 123.829 99.0824C123.744 98.8916 123.622 98.7197 123.47 98.5768Z" fill="black"/>
<path d="M129.794 103.848V88.7273H135.27C136.223 88.7028 137.174 88.8458 138.078 89.1497C138.761 89.3718 139.368 89.781 139.83 90.3309C140.203 90.7974 140.489 91.3273 140.675 91.8953C140.848 92.4818 140.932 93.0908 140.925 93.7022C140.926 94.3225 140.822 94.9385 140.62 95.5248C140.41 96.1 140.095 96.6307 139.689 97.0893C139.205 97.6117 138.597 98.0044 137.921 98.2313C137.061 98.5266 136.156 98.6696 135.246 98.6537H132.117V103.84L129.794 103.848ZM132.141 91.1678V96.221H135.27C137.455 96.221 138.544 95.371 138.539 93.671C138.534 91.9709 137.491 91.1366 135.41 91.1678H132.141Z" fill="black"/>
<path d="M145.594 90.7993C146.173 90.1443 146.875 89.6103 147.661 89.228C148.447 88.8457 149.301 88.6227 150.173 88.5718C151.046 88.5209 151.92 88.6431 152.745 88.9315C153.57 89.2198 154.33 89.6685 154.981 90.2517C155.175 90.4223 155.358 90.6052 155.528 90.7993C156.826 92.3483 157.537 94.3048 157.537 96.3257C157.537 98.3467 156.826 100.303 155.528 101.852C154.948 102.505 154.244 103.038 153.457 103.418C152.671 103.798 151.816 104.019 150.944 104.068C150.071 104.116 149.198 103.992 148.374 103.702C147.549 103.411 146.791 102.961 146.141 102.376C145.955 102.213 145.78 102.038 145.617 101.852C144.314 100.31 143.599 98.3565 143.599 96.3374C143.599 94.3184 144.314 92.3646 145.617 90.8228L145.594 90.7993ZM147.354 100.092C147.719 100.513 148.163 100.858 148.662 101.107C149.16 101.356 149.703 101.504 150.258 101.544C150.814 101.583 151.372 101.512 151.901 101.336C152.429 101.159 152.917 100.88 153.338 100.515C153.488 100.384 153.629 100.243 153.76 100.092C154.649 99.0421 155.11 97.6961 155.051 96.3218C155.105 94.9438 154.629 93.5975 153.721 92.5593C153.363 92.1411 152.925 91.7976 152.434 91.5484C151.943 91.2993 151.408 91.1494 150.858 91.1072C150.309 91.0651 149.757 91.1316 149.234 91.3029C148.71 91.4742 148.226 91.747 147.808 92.1056C147.645 92.2449 147.493 92.3966 147.354 92.5593C146.5 93.6273 146.034 94.9542 146.034 96.3218C146.034 97.6894 146.5 99.0164 147.354 100.084V100.092Z" fill="black"/>
<path d="M160.975 103.848V88.7272H166.325C167.217 88.7039 168.107 88.8363 168.953 89.1183C169.594 89.3213 170.169 89.6912 170.619 90.19C170.994 90.6212 171.276 91.1243 171.449 91.6684C171.622 92.2414 171.706 92.8376 171.699 93.4362C171.73 94.4105 171.456 95.3701 170.917 96.1818C170.4 96.9562 169.632 97.5282 168.742 97.801L172.825 103.848H169.97L166.255 98.2939H163.329V103.848H160.975ZM163.321 91.1912V95.8377H166.372C167.124 95.8859 167.869 95.6609 168.468 95.2041C168.727 94.9917 168.932 94.722 169.067 94.4165C169.203 94.111 169.266 93.778 169.251 93.444C169.269 93.1338 169.218 92.8234 169.102 92.5353C168.985 92.2471 168.806 91.9884 168.578 91.7779C167.899 91.3227 167.084 91.1154 166.27 91.1912H163.321Z" fill="black"/>
<path d="M174.156 88.7246H185.647V91.1886H181.079V103.845H178.732V91.1886H174.164L174.156 88.7246Z" fill="black"/>
<path d="M191.319 88.7246H193.11L199.079 103.845H196.607L195.285 100.497H189.082L187.775 103.845H185.39L191.319 88.7246ZM189.934 98.2521H194.409L192.172 92.5028L189.934 98.2521Z" fill="black"/>
<path d="M198.779 88.7246H210.27V91.1886H205.718V103.845H203.371V91.1886H198.803L198.779 88.7246Z" fill="black"/>
<path d="M212.998 88.7246H215.345V103.845H212.998V88.7246Z" fill="black"/>
<path d="M220.775 90.7993C221.353 90.1443 222.056 89.6103 222.842 89.228C223.628 88.8457 224.481 88.6227 225.354 88.5718C226.226 88.5209 227.1 88.6431 227.925 88.9315C228.75 89.2198 229.51 89.6685 230.161 90.2517C230.355 90.4223 230.538 90.6052 230.709 90.7993C232.007 92.3483 232.718 94.3048 232.718 96.3257C232.718 98.3467 232.007 100.303 230.709 101.852C230.129 102.505 229.425 103.038 228.638 103.418C227.851 103.798 226.997 104.019 226.124 104.068C225.252 104.116 224.379 103.992 223.554 103.702C222.73 103.411 221.971 102.961 221.322 102.376C221.136 102.213 220.961 102.038 220.798 101.852C219.494 100.31 218.779 98.3565 218.779 96.3374C218.779 94.3184 219.494 92.3646 220.798 90.8228L220.775 90.7993ZM222.535 100.092C222.9 100.513 223.344 100.858 223.842 101.107C224.341 101.356 224.883 101.504 225.439 101.544C225.995 101.583 226.553 101.512 227.081 101.336C227.61 101.159 228.098 100.88 228.519 100.515C228.669 100.384 228.81 100.243 228.941 100.092C229.829 99.0421 230.29 97.6961 230.232 96.3218C230.285 94.9438 229.809 93.5975 228.902 92.5593C228.543 92.1411 228.106 91.7976 227.615 91.5484C227.124 91.2993 226.588 91.1494 226.039 91.1072C225.49 91.0651 224.938 91.1316 224.414 91.3029C223.891 91.4742 223.406 91.747 222.988 92.1056C222.825 92.2449 222.674 92.3966 222.535 92.5593C221.68 93.6273 221.215 94.9542 221.215 96.3218C221.215 97.6894 221.68 99.0164 222.535 100.084V100.092Z" fill="black"/>
<path d="M245.964 103.845L238.455 93.5431V103.845H236.163V88.7246H237.993L245.503 99.0735V88.7246H247.795V103.845H245.964Z" fill="black"/>
<path d="M255.246 56.4697H258.273V57.0642H257.092V59.583H256.49V57.0642H255.238L255.246 56.4697ZM258.743 56.4697H259.267L260.581 57.9794L261.832 56.4697H262.357V59.5517H261.746V57.3302L260.573 58.7538L259.384 57.3302V59.5517H258.774L258.743 56.4697Z" fill="black"/>
<path d="M161.794 23.0933V22.4754C161.817 22.1655 161.859 21.8572 161.919 21.5523C161.676 19.8713 161.03 18.2739 160.038 16.8957C159.045 15.5175 157.734 14.3993 156.217 13.6362C154.915 12.9614 153.487 12.567 152.024 12.4785L151.922 12.6663C151.311 13.8446 150.806 15.0749 150.412 16.3427C150.279 16.7729 150.162 17.2032 150.053 17.6334C149.615 19.4124 149.395 21.2378 149.396 23.0698V29.5389H161.786L161.794 23.0933Z" fill="black"/>
<path d="M210.785 0.352539H172.151C168.534 0.353867 164.969 1.22015 161.755 2.87913L161.544 2.99646L161.661 3.05122C165.816 5.20174 169.21 8.57673 171.384 12.7195H210.676L210.785 12.5318V0.352539Z" fill="black"/>
<path d="M90.3549 44.8606L102.683 28.4808V0.829159V0H87.7109L78.3712 12.4139L57.4701 40.1907V0.633603V0H42.4905L0 56.4689H15.449L45.1344 17.0212V56.4689H57.4701H60.6694L90.3549 17.0212V44.8606Z" fill="black"/>
<path d="M161.962 53.9334L161.845 53.8786C157.678 51.7399 154.282 48.3547 152.13 44.1947H106.111L118.111 28.2842H102.677L90.3496 44.664V56.5851H151.363C151.833 56.5851 152.294 56.5851 152.756 56.5851C153.188 56.57 153.619 56.5308 154.046 56.4678L154.461 56.4052L155.321 56.2722L155.806 56.1783L156.588 56.0141L157.081 55.8889L157.864 55.6855L158.348 55.5369L159.084 55.2866L159.537 55.1223L160.32 54.8016L160.687 54.6452C161.063 54.4731 161.47 54.301 161.806 54.1054L161.962 53.9334Z" fill="#FDB913"/>
<path d="M151.927 12.6941C154.481 12.8337 156.895 13.9081 158.709 15.7127C160.522 17.5174 161.608 19.926 161.76 22.4798V34.4322C161.75 34.7394 161.716 35.0455 161.658 35.3474C162.006 37.7566 163.174 39.9722 164.965 41.6207C166.756 43.2693 169.061 44.25 171.49 44.3977L171.6 44.21C172.412 42.6317 173.039 40.965 173.469 39.2429C173.579 38.8126 173.673 38.3668 173.751 37.9209C174.001 36.5636 174.126 35.1864 174.127 33.8064V23.0899C174.126 21.7098 174.001 20.3327 173.751 18.9754C173.665 18.5295 173.571 18.0915 173.469 17.6534C172.682 14.4938 171.227 11.5392 169.203 8.98792C167.18 6.43669 164.634 4.34783 161.736 2.86155C158.522 1.20257 154.957 0.336289 151.34 0.334961H114.083L104.774 12.6628H151.372H151.927V12.6941Z" fill="#FDB913"/>
<path d="M233.173 23.0933C233.173 22.6553 233.173 22.225 233.173 21.7948V21.4115C233.164 21.1049 233.135 20.7993 233.087 20.4963V20.0896C233.05 19.7871 233.003 19.482 232.946 19.1744L232.883 18.8302C232.813 18.4782 232.743 18.1262 232.657 17.7742V17.6099C232.539 17.1328 232.391 16.6634 232.242 16.2019C231.996 15.4044 231.706 14.621 231.374 13.8552C231.194 13.4563 231.006 13.073 230.811 12.6741L230.701 12.4785H210.786L210.676 12.6663H210.973H211.38C212.574 12.7756 213.741 13.0877 214.83 13.5893C215.117 13.7224 215.396 13.8712 215.667 14.0351H215.706C215.964 14.1916 216.23 14.3559 216.488 14.5358L216.566 14.5905C216.801 14.7626 217.028 14.9425 217.239 15.1303L217.348 15.2319C217.552 15.4093 217.747 15.597 217.935 15.7952L217.99 15.8577L218.076 15.9516L218.498 16.4366L218.576 16.5226L218.741 16.7416C218.882 16.9294 219.022 17.1093 219.148 17.3048L219.32 17.5943L219.367 17.6803C219.46 17.8368 219.554 17.9854 219.64 18.1497C219.726 18.3139 219.758 18.3921 219.812 18.5095C219.867 18.6268 219.985 18.8537 220.055 19.0336C220.096 19.1334 220.133 19.2352 220.164 19.3386L220.211 19.4716C220.274 19.6359 220.336 19.7923 220.383 19.9644L220.524 20.4963C220.571 20.6762 220.602 20.7936 220.634 20.9422C220.665 21.0908 220.704 21.3802 220.735 21.5993C220.767 21.8183 220.775 21.8339 220.79 21.9513C220.79 22.2954 220.845 22.6474 220.845 22.9994V33.8255C220.854 34.1757 220.836 34.5262 220.79 34.8736C220.799 34.9936 220.781 35.1141 220.735 35.2256C220.691 35.4428 220.657 35.6621 220.634 35.8827C220.587 36.0939 220.563 36.1799 220.524 36.3286C220.485 36.4772 220.438 36.6884 220.383 36.8605C220.329 37.0326 220.266 37.189 220.211 37.3533L220.164 37.4863C220.147 37.5938 220.11 37.6972 220.055 37.7913C220.016 37.8852 219.891 38.1433 219.812 38.3154C219.734 38.4875 219.703 38.5579 219.64 38.6752C219.578 38.7926 219.46 38.9881 219.367 39.1446L219.32 39.2306L219.148 39.5201C219.022 39.7156 218.882 39.9033 218.741 40.0833L218.576 40.3023L218.498 40.3883C218.365 40.5526 218.225 40.7169 218.076 40.8733L217.99 40.9672L217.935 41.0297C217.747 41.2279 217.552 41.4156 217.348 41.593L217.239 41.6946C217.02 41.8824 216.793 42.0623 216.566 42.2344L216.488 42.2891C216.237 42.4714 215.976 42.6385 215.706 42.7898H215.667C215.396 42.9537 215.117 43.1025 214.83 43.2356C213.741 43.7372 212.574 44.0493 211.38 44.1587H210.973H171.596C169.041 44.0212 166.627 42.9486 164.812 41.1454C162.997 39.3423 161.909 36.9345 161.756 34.3808V33.7629V28.7879H149.404V33.8333C149.406 37.4504 150.272 41.0148 151.931 44.229C153.844 47.9467 156.743 51.0663 160.311 53.2462C163.879 55.4261 167.978 56.5823 172.159 56.5882H210.418C214.599 56.5841 218.699 55.4286 222.267 53.2485C225.835 51.0684 228.734 47.9478 230.646 44.229C230.842 43.8458 231.03 43.4468 231.209 43.0479C231.542 42.2821 231.831 41.4987 232.078 40.7012C232.226 40.2319 232.375 39.7704 232.492 39.2932V39.1289C232.578 38.7769 232.649 38.4249 232.719 38.0729L232.782 37.7288C232.839 37.4211 232.886 37.116 232.923 36.8136V36.4068C232.923 36.1017 232.985 35.7967 233.009 35.4916V35.1631C233.009 34.7328 233.048 34.3026 233.048 33.8646V23.0933H233.173Z" fill="black"/>
<path d="M210.582 0.334961V12.6941H239.884V56.4675H252.212V12.6941H269.319L281.592 0.421006V0.334961H210.582Z" fill="#A30C33"/>
</g>
<defs>
<clipPath id="clip0_316_6583">
<rect width="281.601" height="104.059" fill="white"/>
</clipPath>
</defs>
</svg>
