<svg width="319" height="78" viewBox="0 0 319 78" fill="none" xmlns="http://www.w3.org/2000/svg">
<path d="M64.907 4.18164C53.1925 4.18164 43.6944 13.6758 43.6944 25.3826C43.6944 13.6797 34.1925 4.18164 22.478 4.18164C10.7636 4.18164 1.26562 13.6797 1.26562 25.3826V76.2379H27.4585V33.4583C27.4585 31.4962 29.0505 29.9004 31.0087 29.9004C32.9746 29.9004 34.5666 31.4962 34.5666 33.4583V45.3115H52.8187V33.4583C52.8187 31.4962 54.4107 29.9004 56.3766 29.9004C58.3386 29.9004 59.9305 31.4962 59.9305 33.4583V76.2379H86.1194V25.3826C86.1194 13.6797 76.6215 4.18164 64.907 4.18164Z" fill="#E11737"/>
<path d="M93.2778 23.4237C93.2778 33.9201 101.781 40.4576 112.262 40.4576C101.781 40.4576 93.2778 46.9838 93.2778 57.4841C93.2778 67.9843 101.781 76.4723 112.262 76.4723H157.79V53.0241H123.422C121.664 53.0241 120.238 51.6017 120.238 49.8362C120.238 48.0977 121.664 46.6561 123.422 46.6561H135.911V32.2818H123.422C121.664 32.2818 120.238 30.8556 120.238 29.094C120.238 27.3401 121.664 25.9138 123.422 25.9138H157.79V4.42773H112.262C101.781 4.42773 93.2778 12.9312 93.2778 23.4237Z" fill="#E11737"/>
<path d="M317.734 39.51C317.734 27.3445 309.311 1.25195 280.582 1.25195C251.853 1.25195 245.639 29.5841 245.639 39.51C245.639 49.4397 245.674 48.0329 245.674 48.0329V76.4729H266.817V39.1977C266.817 31.6001 272.969 25.448 280.567 25.448C288.16 25.448 294.32 31.6001 294.32 39.1977C294.32 39.1977 294.323 44.7834 294.32 48.0329H273.235V76.4729H317.734C317.734 76.4729 317.734 42.6709 317.734 39.51Z" fill="#E11737"/>
<path d="M201.892 76.4736C214.054 76.4736 240.15 68.0471 240.15 39.318C240.15 10.5926 211.818 4.375 201.892 4.375C191.962 4.375 193.373 4.41358 193.373 4.41358H164.929V25.5528H202.204C209.802 25.5528 215.958 31.7088 215.958 39.3065C215.958 46.9003 209.802 53.0562 202.204 53.0562C202.204 53.0562 196.615 53.0655 193.373 53.0562V31.9748H164.929V76.4736C164.929 76.4736 198.731 76.4736 201.892 76.4736Z" fill="#E11737"/>
</svg>
