<svg width="94" height="21" viewBox="0 0 94 21" fill="none" xmlns="http://www.w3.org/2000/svg">
<g clip-path="url(#clip0_3303_26412)">
<path d="M37.7904 3.8916V15.559H35.7717V6.40333H35.7448L32.1381 15.559H30.7923L27.1048 6.40333H27.0779V15.559H25.2207V3.8916H28.1276L31.4652 12.5341H31.519L35.045 3.8916H37.7904ZM39.4591 4.78286C39.4591 4.45876 39.5668 4.18868 39.809 3.97262C40.0513 3.75656 40.3204 3.64853 40.6434 3.64853C40.9933 3.64853 41.2894 3.75656 41.5047 3.97262C41.7201 4.18868 41.8546 4.45876 41.8546 4.78286C41.8546 5.10695 41.747 5.37703 41.5047 5.59309C41.2625 5.80916 40.9933 5.91719 40.6434 5.91719C40.2935 5.91719 40.0244 5.80916 39.809 5.59309C39.5937 5.35002 39.4591 5.07994 39.4591 4.78286ZM41.6393 7.18656V15.559H39.6745V7.18656H41.6393ZM47.5877 14.1276C47.8838 14.1276 48.2068 14.0736 48.5567 13.9115C48.9066 13.7765 49.2296 13.5874 49.5256 13.3714V15.2079C49.2027 15.397 48.8527 15.532 48.449 15.613C48.0453 15.694 47.6146 15.7481 47.1301 15.7481C45.892 15.7481 44.8961 15.3699 44.1425 14.5867C43.3619 13.8035 42.9851 12.8042 42.9851 11.6159C42.9851 10.2655 43.3888 9.15813 44.1694 8.29388C44.95 7.42963 46.0535 6.9975 47.507 6.9975C47.8838 6.9975 48.2606 7.05152 48.6105 7.13254C48.9873 7.21357 49.2834 7.34861 49.4987 7.45664V9.34719C49.2026 9.13112 48.8797 8.94207 48.5836 8.83404C48.2606 8.72601 47.9376 8.64498 47.6146 8.64498C46.8341 8.64498 46.215 8.88805 45.7305 9.4012C45.246 9.91435 45.0307 10.5896 45.0307 11.4538C45.0307 12.291 45.2729 12.9662 45.7305 13.4254C46.1881 13.8845 46.8071 14.1276 47.5877 14.1276ZM55.0972 7.05152C55.2587 7.05152 55.3933 7.05152 55.5279 7.07853C55.6624 7.10553 55.7701 7.13254 55.8508 7.15955V9.15813C55.7432 9.07711 55.6086 8.99609 55.3933 8.94207C55.178 8.88805 54.9626 8.83404 54.6666 8.83404C54.1821 8.83404 53.7783 9.0501 53.4553 9.45522C53.1324 9.86034 52.9439 10.4815 52.9439 11.3458V15.559H50.9791V7.18656H52.9439V8.50994H52.9709C53.1593 8.05081 53.4284 7.69971 53.7783 7.42963C54.1552 7.18656 54.5858 7.05152 55.0972 7.05152ZM55.9585 11.5078C55.9585 10.1304 56.3622 9.02309 57.1159 8.21286C57.8964 7.40262 58.9731 6.9975 60.3458 6.9975C61.6377 6.9975 62.6605 7.37561 63.3873 8.15884C64.114 8.94207 64.4908 9.99538 64.4908 11.3188C64.4908 12.6692 64.0871 13.7495 63.3334 14.5597C62.5529 15.3699 61.5032 15.7751 60.1574 15.7751C58.8654 15.7751 57.8426 15.397 57.089 14.6407C56.3353 13.8575 55.9585 12.8042 55.9585 11.5078ZM58.0041 11.4268C58.0041 12.291 58.1925 12.9662 58.5963 13.4254C59 13.8845 59.5652 14.1276 60.2919 14.1276C60.9918 14.1276 61.557 13.9115 61.9338 13.4254C62.3106 12.9662 62.499 12.291 62.499 11.3728C62.499 10.4815 62.3106 9.80632 61.9338 9.32018C61.557 8.86105 60.9918 8.61798 60.3189 8.61798C59.5921 8.61798 59.0538 8.86105 58.6501 9.34719C58.1925 9.86034 58.0041 10.5355 58.0041 11.4268ZM67.4246 9.4012C67.4246 9.67128 67.5054 9.91435 67.6938 10.0764C67.8822 10.2384 68.259 10.4275 68.8781 10.6706C69.6586 10.9947 70.2239 11.3458 70.5199 11.7239C70.8429 12.129 71.0044 12.5881 71.0044 13.1553C71.0044 13.9385 70.7083 14.5597 70.0893 15.0459C69.4971 15.532 68.6627 15.7481 67.64 15.7481C67.29 15.7481 66.9132 15.694 66.4826 15.613C66.0519 15.532 65.702 15.424 65.4059 15.2889V13.3444C65.7558 13.5874 66.1596 13.8035 66.5633 13.9385C66.9671 14.0736 67.3439 14.1546 67.6938 14.1546C68.1244 14.1546 68.4743 14.1006 68.6627 13.9655C68.8781 13.8305 68.9857 13.6414 68.9857 13.3444C68.9857 13.0743 68.8781 12.8582 68.6627 12.6421C68.4474 12.4531 68.0168 12.237 67.4246 11.994C66.6979 11.6969 66.1865 11.3458 65.8904 10.9677C65.5944 10.5896 65.4329 10.1034 65.4329 9.50924C65.4329 8.75302 65.7289 8.13183 66.3211 7.64569C66.9132 7.15955 67.6938 6.91648 68.6358 6.91648C68.9319 6.91648 69.2549 6.94349 69.6048 7.02451C69.9547 7.10553 70.2777 7.18656 70.5199 7.26758V9.18514C70.2508 9.02309 69.9547 8.86105 69.6048 8.72601C69.2549 8.59097 68.905 8.53695 68.582 8.53695C68.2052 8.53695 67.9091 8.61798 67.7207 8.75302C67.5323 8.94207 67.4246 9.13113 67.4246 9.4012ZM71.8388 11.5078C71.8388 10.1304 72.2425 9.02309 72.9962 8.21286C73.7767 7.40262 74.8534 6.9975 76.2261 6.9975C77.518 6.9975 78.5408 7.37561 79.2676 8.15884C79.9943 8.94207 80.3711 9.99538 80.3711 11.3188C80.3711 12.6692 79.9674 13.7495 79.2137 14.5597C78.4332 15.3699 77.3835 15.7751 76.0377 15.7751C74.7457 15.7751 73.7229 15.397 72.9693 14.6407C72.2425 13.8575 71.8388 12.8042 71.8388 11.5078ZM73.8844 11.4268C73.8844 12.291 74.0728 12.9662 74.4766 13.4254C74.8803 13.8845 75.4455 14.1276 76.1722 14.1276C76.8721 14.1276 77.4373 13.9115 77.8141 13.4254C78.1909 12.9662 78.3793 12.291 78.3793 11.3728C78.3793 10.4815 78.1909 9.80632 77.8141 9.32018C77.4373 8.86105 76.8721 8.61798 76.1992 8.61798C75.4724 8.61798 74.9341 8.86105 74.5304 9.34719C74.0997 9.86034 73.8844 10.5355 73.8844 11.4268ZM86.9116 8.80703H83.9778V15.559H81.9861V8.80703H80.5864V7.18656H81.9861V6.02522C81.9861 5.16097 82.2821 4.43175 82.8474 3.86459C83.4126 3.29742 84.1393 3.02734 85.0275 3.02734C85.2698 3.02734 85.4851 3.05435 85.6735 3.05435C85.8619 3.05435 86.0234 3.10837 86.158 3.16238V4.86388C86.1042 4.83687 85.9696 4.78286 85.8081 4.72884C85.6466 4.67482 85.4582 4.64782 85.2429 4.64782C84.8391 4.64782 84.5161 4.78286 84.3008 5.02593C84.0855 5.269 83.9778 5.67412 83.9778 6.16026V7.15955H86.9116V5.269L88.8765 4.67482V7.15955H90.8683V8.78002H88.8765V12.6962C88.8765 13.2093 88.9842 13.5604 89.1456 13.7765C89.3341 13.9925 89.6301 14.1006 90.0339 14.1006C90.1415 14.1006 90.2761 14.0736 90.4376 14.0196C90.5991 13.9655 90.7337 13.9115 90.8413 13.8305V15.451C90.7068 15.532 90.5184 15.586 90.2223 15.64C89.9262 15.694 89.657 15.721 89.361 15.721C88.5266 15.721 87.9075 15.505 87.5038 15.0729C87.1 14.6407 86.8847 13.9655 86.8847 13.0743L86.9116 8.80703Z" fill="#737373"/>
<path d="M9.20519 0L0 0L0 9.2367H9.20519V0Z" fill="#F25022"/>
<path d="M19.379 0L10.1738 0V9.2367H19.379V0Z" fill="#7FBA00"/>
<path d="M9.20519 10.207H0L0 19.4437H9.20519V10.207Z" fill="#00A4EF"/>
<path d="M19.379 10.207H10.1738V19.4437H19.379V10.207Z" fill="#FFB900"/>
</g>
<defs>
<clipPath id="clip0_3303_26412">
<rect width="90.8676" height="19.3794" fill="white"/>
</clipPath>
</defs>
</svg>
