<svg width="368" height="81" viewBox="0 0 368 81" fill="none" xmlns="http://www.w3.org/2000/svg">
<g clip-path="url(#clip0_316_1698)">
<path d="M147.678 15.2055V60.7999H139.79V25.021H139.685L125.59 60.7999H120.331L105.921 25.021H105.816V60.7999H98.5581V15.2055H109.918L122.96 48.9791H123.171L136.95 15.2055H147.678ZM154.2 18.6884C154.2 17.4219 154.62 16.3665 155.567 15.5221C156.514 14.6778 157.566 14.2556 158.828 14.2556C160.195 14.2556 161.352 14.6778 162.194 15.5221C163.035 16.3665 163.561 17.4219 163.561 18.6884C163.561 19.9549 163.14 21.0103 162.194 21.8547C161.247 22.699 160.195 23.1212 158.828 23.1212C157.46 23.1212 156.409 22.699 155.567 21.8547C154.726 20.9048 154.2 19.8494 154.2 18.6884ZM162.72 28.0817V60.7999H155.041V28.0817H162.72ZM185.965 55.2061C187.122 55.2061 188.384 54.995 189.751 54.3618C191.119 53.8341 192.381 53.0953 193.538 52.2509V59.4278C192.276 60.1666 190.908 60.6943 189.331 61.011C187.753 61.3276 186.07 61.5387 184.177 61.5387C179.338 61.5387 175.447 60.0611 172.501 57.0004C169.451 53.9396 167.979 50.0345 167.979 45.3907C167.979 40.1135 169.556 35.7863 172.607 32.4089C175.657 29.0316 179.969 27.3429 185.649 27.3429C187.122 27.3429 188.594 27.554 189.962 27.8706C191.434 28.1872 192.591 28.7149 193.433 29.1371V36.5251C192.276 35.6808 191.014 34.942 189.857 34.5198C188.594 34.0976 187.332 33.781 186.07 33.781C183.02 33.781 180.601 34.7309 178.707 36.7362C176.814 38.7415 175.973 41.3801 175.973 44.7574C175.973 48.0292 176.919 50.6678 178.707 52.462C180.495 54.2563 182.915 55.2061 185.965 55.2061ZM215.311 27.554C215.942 27.554 216.468 27.554 216.994 27.6595C217.52 27.7651 217.94 27.8706 218.256 27.9761V35.7863C217.835 35.4697 217.309 35.153 216.468 34.942C215.626 34.7309 214.785 34.5198 213.628 34.5198C211.735 34.5198 210.157 35.3641 208.895 36.9473C207.632 38.5304 206.896 40.9579 206.896 44.3352V60.7999H199.218V28.0817H206.896V33.2533H207.001C207.738 31.459 208.79 30.087 210.157 29.0316C211.629 28.0817 213.312 27.554 215.311 27.554ZM218.677 44.9685C218.677 39.5858 220.254 35.2586 223.2 32.0923C226.25 28.926 230.457 27.3429 235.821 27.3429C240.87 27.3429 244.867 28.8205 247.707 31.8812C250.547 34.942 252.02 39.0581 252.02 44.2297C252.02 49.5068 250.442 53.7285 247.497 56.8948C244.446 60.0611 240.344 61.6442 235.085 61.6442C230.036 61.6442 226.039 60.1666 223.094 57.2114C220.149 54.1507 218.677 50.0345 218.677 44.9685ZM226.671 44.6519C226.671 48.0292 227.407 50.6678 228.985 52.462C230.562 54.2563 232.771 55.2061 235.611 55.2061C238.346 55.2061 240.555 54.3618 242.027 52.462C243.5 50.6678 244.236 48.0292 244.236 44.4408C244.236 40.9579 243.5 38.3193 242.027 36.4196C240.555 34.6253 238.346 33.6754 235.716 33.6754C232.876 33.6754 230.773 34.6253 229.195 36.5251C227.407 38.5304 226.671 41.169 226.671 44.6519ZM263.484 36.7362C263.484 37.7916 263.8 38.7415 264.536 39.3747C265.273 40.008 266.745 40.7468 269.164 41.6967C272.215 42.9632 274.423 44.3352 275.58 45.8128C276.843 47.396 277.474 49.1902 277.474 51.4066C277.474 54.4673 276.317 56.8948 273.898 58.7946C271.584 60.6943 268.323 61.5387 264.326 61.5387C262.959 61.5387 261.486 61.3276 259.803 61.011C258.12 60.6943 256.753 60.2722 255.596 59.7445V52.1454C256.963 53.0953 258.541 53.9396 260.119 54.4673C261.696 54.995 263.169 55.3117 264.536 55.3117C266.219 55.3117 267.587 55.1006 268.323 54.5729C269.164 54.0452 269.585 53.3064 269.585 52.1454C269.585 51.09 269.164 50.2456 268.323 49.4013C267.481 48.6625 265.798 47.8182 263.484 46.8683C260.645 45.7073 258.646 44.3352 257.489 42.8576C256.332 41.3801 255.701 39.4803 255.701 37.1583C255.701 34.2032 256.858 31.7757 259.172 29.8759C261.486 27.9761 264.536 27.0263 268.218 27.0263C269.375 27.0263 270.637 27.1318 272.004 27.4484C273.372 27.7651 274.634 28.0817 275.58 28.3983V35.8918C274.529 35.2586 273.372 34.6253 272.004 34.0976C270.637 33.5699 269.27 33.3588 268.007 33.3588C266.535 33.3588 265.378 33.6754 264.641 34.2032C263.905 34.942 263.484 35.6808 263.484 36.7362ZM280.734 44.9685C280.734 39.5858 282.312 35.2586 285.257 32.0923C288.308 28.926 292.515 27.3429 297.879 27.3429C302.928 27.3429 306.925 28.8205 309.765 31.8812C312.605 34.942 314.077 39.0581 314.077 44.2297C314.077 49.5068 312.5 53.7285 309.554 56.8948C306.504 60.0611 302.402 61.6442 297.143 61.6442C292.094 61.6442 288.097 60.1666 285.152 57.2114C282.312 54.1507 280.734 50.0345 280.734 44.9685ZM288.728 44.6519C288.728 48.0292 289.465 50.6678 291.042 52.462C292.62 54.2563 294.829 55.2061 297.669 55.2061C300.404 55.2061 302.612 54.3618 304.085 52.462C305.558 50.6678 306.294 48.0292 306.294 44.4408C306.294 40.9579 305.558 38.3193 304.085 36.4196C302.612 34.6253 300.404 33.6754 297.774 33.6754C294.934 33.6754 292.83 34.6253 291.253 36.5251C289.57 38.5304 288.728 41.169 288.728 44.6519ZM339.637 34.4142H328.172V60.7999H320.388V34.4142H314.919V28.0817H320.388V23.5434C320.388 20.166 321.545 17.3163 323.754 15.0999C325.963 12.8836 328.803 11.8281 332.274 11.8281C333.221 11.8281 334.062 11.9337 334.798 11.9337C335.535 11.9337 336.166 12.1448 336.692 12.3558V19.005C336.481 18.8995 335.955 18.6884 335.324 18.4773C334.693 18.2662 333.957 18.1607 333.115 18.1607C331.538 18.1607 330.275 18.6884 329.434 19.6383C328.593 20.5882 328.172 22.1713 328.172 24.0711V27.9761H339.637V20.5882L347.315 18.2662V27.9761H355.099V34.3087H347.315V49.6124C347.315 51.6177 347.736 52.9897 348.367 53.8341C349.103 54.6784 350.26 55.1006 351.838 55.1006C352.259 55.1006 352.785 54.995 353.416 54.784C354.047 54.5729 354.573 54.3618 354.993 54.0452V60.3777C354.467 60.6943 353.731 60.9054 352.574 61.1165C351.417 61.3276 350.365 61.4331 349.208 61.4331C345.948 61.4331 343.528 60.5888 341.951 58.9001C340.373 57.2114 339.531 54.5729 339.531 51.09L339.637 34.4142Z" fill="#737373"/>
<path d="M35.9695 0.00195312H-0.00292969V36.0975H35.9695V0.00195312Z" fill="#F25022"/>
<path d="M75.7293 0L39.7568 0V36.0956H75.7293V0Z" fill="#7FBA00"/>
<path d="M35.969 39.8887H-0.00341797V75.9842H35.969V39.8887Z" fill="#00A4EF"/>
<path d="M75.7293 39.8887H39.7568V75.9842H75.7293V39.8887Z" fill="#FFB900"/>
</g>
<defs>
<clipPath id="clip0_316_1698">
<rect width="355.097" height="75.7315" fill="white"/>
</clipPath>
</defs>
</svg>
