<svg width="443" height="133" viewBox="0 0 443 133" fill="none" xmlns="http://www.w3.org/2000/svg">
<path d="M275.719 58.0117C270.075 55.0303 262.105 55.8809 257.627 60.1071C252.475 64.9668 251.442 71.027 253.542 77.4948C255.651 83.9848 260.688 86.9928 267.32 87.4358C272.534 87.7857 277.314 86.4612 281.788 83.3956C280.743 81.5394 279.777 79.8206 278.82 78.115C269.136 82.7355 261.596 81.2958 260.737 74.7128H282.594C282.594 74.7128 282.891 73.9907 282.984 73.2376C283.781 66.8407 280.929 60.7627 275.719 58.0117ZM260.719 68.8253C261.18 65.1706 264.298 62.6455 268.259 62.6632C272.046 62.6809 274.952 65.1927 275.32 68.8253H260.714H260.719Z" fill="black"/>
<path d="M202.136 56.2559C192.931 56.2736 186.157 62.8699 186.14 71.8318C186.126 80.9221 192.913 87.6114 202.159 87.6159C211.302 87.6159 218.124 80.807 218.084 71.7166C218.049 62.9408 211.134 56.2382 202.136 56.2559ZM202.154 80.4614C197.48 80.519 193.826 76.6738 193.879 71.7476C193.928 67.074 197.56 63.4148 202.141 63.4236C206.664 63.4325 210.35 67.198 210.367 71.8229C210.381 76.5985 206.77 80.3994 202.159 80.457L202.154 80.4614Z" fill="black"/>
<path d="M372.917 56.256C363.707 56.2162 356.863 62.7947 356.814 71.7256C356.765 80.8514 363.49 87.5717 372.722 87.616C381.897 87.6603 388.697 80.9622 388.759 71.8231C388.821 63.0827 381.91 56.2959 372.917 56.256ZM372.665 80.4616C368.031 80.3907 364.509 76.6296 364.545 71.7876C364.584 67.1095 368.195 63.4371 372.771 63.4282C377.369 63.4193 381.091 67.2735 381.029 71.987C380.967 76.7537 377.237 80.5369 372.665 80.466V80.4616Z" fill="black"/>
<path d="M413.124 56.9394C408.49 55.225 403.591 56.4565 400.282 60.0404C400.104 60.2353 399.861 60.3726 399.56 60.603C399.498 59.3271 399.449 58.2551 399.396 57.1476H392.126V86.709H399.728C399.728 85.8052 399.728 85.0344 399.728 84.2636C399.75 79.3818 399.648 74.4955 399.843 69.6225C399.994 65.8082 402.953 63.2787 406.701 63.3629C410.227 63.4426 412.5 65.8127 412.725 69.68C412.774 70.4597 412.783 71.2394 412.783 72.0235C412.783 76.2542 412.783 80.4848 412.783 84.7155V86.7001H420.496C420.496 80.1171 420.677 73.6715 420.438 67.2435C420.252 62.3838 417.882 58.6937 413.124 56.9349V56.9394Z" fill="black"/>
<path d="M242.374 56.9394C237.74 55.225 232.841 56.4565 229.532 60.0404C229.354 60.2353 229.111 60.3726 228.81 60.603C228.747 59.3271 228.699 58.2551 228.646 57.1476H221.376V86.709H228.978C228.978 85.8052 228.978 85.0344 228.978 84.2636C229 79.3818 228.898 74.4955 229.093 69.6225C229.244 65.8082 232.203 63.2787 235.946 63.3629C239.473 63.4426 241.745 65.8127 241.975 69.68C242.02 70.4597 242.033 71.2394 242.033 72.0235C242.033 76.2542 242.033 80.4848 242.033 84.7155V86.7001H249.746C249.746 80.1171 249.927 73.6715 249.688 67.2435C249.502 62.3838 247.132 58.6937 242.374 56.9349V56.9394Z" fill="black"/>
<path d="M324.697 46.5469H316.793V86.727H342.953V78.9833H324.697V46.5469Z" fill="black"/>
<path d="M353.603 57.1777H346.081V86.7391H353.603V57.1777Z" fill="black"/>
<path d="M349.881 44.256C347.121 44.2737 345.03 46.3912 345.119 49.0847C345.203 51.7338 347.267 53.6919 349.943 53.652C352.641 53.6166 354.568 51.6408 354.564 48.9208C354.564 46.2362 352.557 44.2383 349.881 44.256Z" fill="black"/>
<path d="M161.779 67.8454L146.925 46.4219H140.701V86.54H148.405V62.866L161.779 82.1587L175.153 62.866V86.54H182.857V46.4219H176.628L161.779 67.8454Z" fill="black"/>
<path d="M298.937 76.3743C298.937 76.3743 294.095 64.2937 291.224 57.1836H282.346C285.531 64.3912 293.585 82.5276 294.325 84.2066C294.701 85.0616 295.082 85.9476 295.091 86.8779C295.096 87.8082 294.724 88.7075 294.196 89.4739C292.274 92.2825 288.136 93.2881 285.142 91.6756C284.707 93.7843 284.278 95.8885 283.844 97.9972C286.927 99.7072 290.808 100.097 294.024 98.6528C296.398 97.5852 298.276 95.6183 299.663 93.4121C301.05 91.206 301.993 88.7562 302.919 86.3241C305.878 78.5982 311.85 63.0799 314.123 57.1836H305.511L298.941 76.3743H298.937Z" fill="black"/>
<path d="M421.342 44.2949C418.657 44.2949 416.518 46.377 416.518 48.9774C416.518 51.5778 418.657 53.7175 421.342 53.7175C424.026 53.7175 426.14 51.6354 426.14 48.9774C426.14 46.3194 424.057 44.2949 421.342 44.2949ZM421.373 52.7164C419.26 52.7164 417.718 51.0595 417.718 48.9774C417.718 46.8953 419.26 45.2385 421.346 45.2385C423.433 45.2385 424.943 46.9219 424.943 49.0084C424.943 51.095 423.428 52.7208 421.373 52.7208V52.7164Z" fill="black"/>
<path d="M422.228 49.3947C422.463 49.3016 422.666 49.1732 422.817 48.9827C423.007 48.739 423.105 48.4422 423.105 48.0967C423.105 47.8929 423.069 47.7024 422.999 47.5252C422.928 47.348 422.826 47.1929 422.697 47.06C422.569 46.9271 422.409 46.8208 422.219 46.7455C422.033 46.6702 421.82 46.6348 421.594 46.6348H419.76V51.3704H420.677V49.5497H421.142C421.169 49.5497 421.187 49.5497 421.213 49.5497L422.183 51.3704H423.216L422.148 49.4257C422.175 49.4124 422.197 49.3991 422.223 49.3902L422.228 49.3947ZM421.457 48.739H420.682V47.4587H421.457C421.683 47.4587 421.86 47.5163 421.993 47.6359C422.121 47.7511 422.188 47.9062 422.188 48.1055C422.188 48.3049 422.126 48.4511 421.993 48.5662C421.865 48.6814 421.683 48.7434 421.457 48.7434V48.739Z" fill="black"/>
<path fill-rule="evenodd" clip-rule="evenodd" d="M49.6029 25.5268C48.3448 26.271 47.1531 26.9754 46.1741 27.3785C45.102 27.8215 43.7022 28.1848 42.2182 28.5746C38.4837 29.5492 33.8366 30.7586 30.2084 34.3735C26.5803 37.9839 25.362 42.6088 24.3874 46.3256C24.002 47.8052 23.6343 49.2007 23.1869 50.2683C22.7837 51.2385 22.0794 52.4213 21.3307 53.6705C19.3372 57.0152 16.8608 61.1617 16.8608 66.4511C16.8608 71.7405 19.3372 75.887 21.3263 79.2228C22.0749 80.4765 22.7837 81.6637 23.1869 82.6339C23.6343 83.7015 23.9976 85.097 24.3874 86.5766C25.3664 90.2933 26.5803 94.9183 30.2084 98.5332C33.8366 102.144 38.4837 103.353 42.2137 104.328C43.7066 104.717 45.1065 105.081 46.1741 105.524C47.1531 105.927 48.3404 106.631 49.6029 107.375C52.952 109.356 57.1251 111.823 62.4366 111.823C67.7482 111.823 71.9168 109.356 75.2703 107.375C76.5373 106.627 77.7246 105.922 78.6947 105.524C79.7668 105.081 81.1622 104.717 82.6463 104.332C86.3941 103.357 91.0367 102.148 94.6649 98.5376C98.2931 94.9271 99.5069 90.3022 100.486 86.5854C100.876 85.1058 101.243 83.7104 101.686 82.6427C102.094 81.6681 102.798 80.4853 103.547 79.2316C105.536 75.8958 108.012 71.7449 108.012 66.4555C108.012 61.1661 105.536 57.0196 103.551 53.6883C102.798 52.4301 102.094 51.2429 101.686 50.2727C101.243 49.2051 100.876 47.8097 100.486 46.33C99.5069 42.6088 98.2931 37.9839 94.6649 34.3735C91.0367 30.7586 86.3941 29.5492 82.6596 28.579C81.1755 28.1936 79.7712 27.8259 78.6992 27.3829C77.7201 26.9798 76.5329 26.2754 75.2703 25.5312C71.9213 23.551 67.7482 21.0879 62.4366 21.0879C57.1251 21.0879 52.9609 23.551 49.6029 25.5312V25.5268ZM45.071 50.6537C44.4597 50.5031 43.8307 50.3037 43.3611 49.8829C41.4075 48.1419 44.6015 46.9325 45.9393 46.6091C52.633 44.9966 59.5217 44.2524 66.4059 44.1593C70.1448 44.1106 73.9192 44.2568 77.5518 45.1472C79.1865 45.5459 80.8167 46.113 82.1236 47.1717C82.7615 47.69 83.3285 48.3634 83.4348 49.1741C83.5367 49.9848 83.0007 50.9018 82.1856 50.9771C81.9109 51.0037 81.6274 50.9372 81.3439 50.8752C80.9053 50.7733 80.4756 50.6759 80.1212 50.9151C79.6738 51.2163 79.6693 51.8675 79.7978 52.3903C80.5465 55.4381 83.9753 57.2057 84.9189 60.2004C85.0429 60.5946 85.1049 61.0642 84.8436 61.3832C84.6265 61.6445 84.2632 61.7198 83.9266 61.7774C82.3628 62.0432 80.7857 62.3046 79.1998 62.2426C77.6138 62.1806 76.0013 61.7597 74.752 60.7807C72.9357 59.3542 72.1605 56.9975 70.7074 55.2033C69.1392 53.2674 66.8312 52.0713 64.3947 51.4555C63.9118 51.3315 63.429 51.234 62.9417 51.1587C59.9913 50.6892 56.9789 50.9239 53.9931 51.0967C52.8102 51.1632 51.6186 51.2208 50.4269 51.2208C48.6195 51.2208 46.8209 51.0878 45.071 50.6537ZM50.5554 66.3758C49.7004 66.141 48.8011 65.8442 48.2208 65.1708C47.0867 63.8463 47.5828 61.392 48.6328 60.1649C49.8067 58.7916 51.8046 58.291 53.5013 57.9544C56.5182 57.3652 59.597 57.0994 62.6714 57.157C63.9384 57.1835 65.2807 57.2898 66.3173 58.0252C67.5178 58.8758 68.0317 60.3731 68.4747 61.773C68.5545 62.03 68.6386 62.2958 68.6519 62.5571C68.6608 62.6945 68.6519 62.8318 68.6165 62.9691C68.519 63.3457 68.2266 63.638 67.9387 63.8994C65.6661 65.9328 62.6537 67.0403 59.6147 67.3415C58.9768 67.408 58.3389 67.4346 57.701 67.4346C55.291 67.4346 52.8811 67.0137 50.5554 66.3714V66.3758ZM88.4363 77.1717C88.2547 77.1495 88.0952 77.0432 87.949 76.9413C87.1162 76.361 86.3188 75.6965 85.7783 74.8371C84.2234 72.3563 84.3651 68.0769 86.6953 66.1543C86.8238 66.048 86.9655 65.9461 87.1294 65.9239C87.3642 65.8929 87.5902 66.0302 87.7762 66.1764C89.5217 67.5276 90.1374 69.8578 90.4785 72.0329C90.5849 72.7328 90.6779 73.4461 90.638 74.1504C90.6247 74.3808 90.5981 74.6156 90.5494 74.8459C90.3633 75.7674 89.8185 76.6711 88.959 77.0654C88.8217 77.1318 88.6755 77.1806 88.5249 77.1806C88.4983 77.1806 88.4673 77.1806 88.4407 77.1761L88.4363 77.1717ZM71.8814 78.2305C71.2789 78.2305 70.6631 78.1729 70.0784 78.04C68.7361 77.7254 67.3938 77.3799 66.0737 76.9812C65.5022 76.8084 64.944 76.5382 64.4434 76.2148C63.9473 75.8958 63.7391 75.3642 63.7834 74.7573C63.8144 74.3055 63.8321 73.8536 63.8587 73.3796C63.8587 72.9543 63.8719 72.5025 63.8587 72.0506C63.8365 71.4215 64.0226 70.8501 64.4789 70.4381C64.9573 70.004 65.48 69.5875 66.0471 69.2819C67.4337 68.542 68.8557 67.8687 70.2689 67.182C71.5226 66.5751 72.825 66.4467 74.1628 66.8897C75.2039 67.2308 76.2405 67.5852 77.2727 67.9529C78.4998 68.3914 79.2441 69.2065 79.2751 70.5621C79.2928 71.3462 79.3105 72.1303 79.3459 72.9145C79.4035 74.2523 78.7523 75.1826 77.6271 75.8117C76.524 76.423 75.3988 76.9945 74.278 77.5837C73.5338 77.9735 72.7452 78.2349 71.9035 78.2349H71.8858L71.8814 78.2305ZM77.8973 90.063C76.936 89.589 76.0013 89.0574 75.0533 88.5612C74.1097 88.0695 73.7509 87.2987 74.0211 86.2842C74.3312 85.1147 74.6501 83.9452 74.9824 82.7801C75.2703 81.7656 75.9348 81.0214 76.8164 80.4942C78.2074 79.6702 79.625 78.8772 81.0559 78.1153C81.9375 77.6413 82.8323 77.6324 83.6696 78.288C84.1968 78.7 84.7328 79.0943 85.2777 79.4842C86.1903 80.1354 86.4339 81.0612 86.3055 82.0978C86.1549 83.3117 85.9644 84.5211 85.7606 85.726C85.5701 86.838 85.003 87.7195 84.0019 88.2821C82.9963 88.8492 81.9818 89.4073 80.9718 89.9611C80.4313 90.2579 79.851 90.4263 79.1953 90.506C78.7612 90.3642 78.3005 90.2712 77.8929 90.0674L77.8973 90.063Z" fill="url(#paint0_linear_316_1777)"/>
<defs>
<linearGradient id="paint0_linear_316_1777" x1="11.8563" y1="82.6205" x2="118.281" y2="48.0665" gradientUnits="userSpaceOnUse">
<stop stop-color="#01CD9C"/>
<stop offset="1" stop-color="#01CAC4"/>
</linearGradient>
</defs>
</svg>
