<svg width="316" height="219" viewBox="0 0 316 219" fill="none" xmlns="http://www.w3.org/2000/svg">
<path fill-rule="evenodd" clip-rule="evenodd" d="M80.0245 206.191C80.7583 205.486 81.1239 204.813 81.1239 204.191V194.333C81.1239 192.348 80.5914 190.947 79.5184 190.128C78.464 189.301 77.4254 188.893 76.4187 188.893C74.4846 188.893 72.9772 189.741 71.9095 191.469C70.8418 193.164 70.3039 195.263 70.3039 197.761C70.3039 200.219 70.8736 202.418 72.0101 204.353C73.1494 206.279 74.8556 207.248 77.1287 207.248C78.3183 207.248 79.2906 206.901 80.0245 206.191ZM79.3595 188.313C79.9715 188.634 80.5543 189.087 81.1239 189.649V182.336C81.1239 181.409 81.0153 180.76 80.8007 180.413C80.61 180.061 80.1145 179.878 79.333 179.878C79.1449 179.878 78.9806 179.888 78.8508 179.907C78.7104 179.915 78.411 179.949 77.9315 179.997V179.245L79.8231 178.757C80.504 178.572 81.1928 178.381 81.8843 178.179C82.5731 177.983 83.1851 177.787 83.6991 177.605C83.9402 177.528 84.3509 177.385 84.9231 177.162L85.0529 177.215L85.0106 179.629C84.9947 180.503 84.9761 181.409 84.9629 182.336C84.947 183.258 84.947 184.172 84.947 185.073L84.894 203.844C84.894 204.845 85.0185 205.539 85.2596 205.942C85.5113 206.342 86.1604 206.538 87.2175 206.538H87.7261C87.8957 206.525 88.0547 206.493 88.2295 206.464V207.23C88.1341 207.251 87.0267 207.646 84.894 208.374L81.2856 209.733L81.1239 209.519V206.7C80.2708 207.627 79.5211 208.292 78.8985 208.697C77.7725 209.389 76.4849 209.733 75.0092 209.733C72.4102 209.733 70.2986 208.727 68.6719 206.718C67.0585 204.697 66.2637 202.365 66.2637 199.706C66.2637 196.386 67.2227 193.535 69.1541 191.164C71.1041 188.774 73.4752 187.579 76.2783 187.579C77.3936 187.579 78.4242 187.823 79.3595 188.313Z" fill="#231F20"/>
<path fill-rule="evenodd" clip-rule="evenodd" d="M94.1085 191.739C93.621 192.565 93.2607 193.612 93.0567 194.868H102.745C102.581 193.334 102.287 192.192 101.874 191.447C101.119 190.088 99.8656 189.421 98.1038 189.421C96.3631 189.421 95.0305 190.189 94.1085 191.739ZM105.117 189.988C106.735 191.477 107.549 193.596 107.549 196.335H92.9561C93.1203 199.891 93.9178 202.479 95.3802 204.103C96.8294 205.722 98.5542 206.538 100.541 206.538C102.152 206.538 103.508 206.114 104.616 205.274C105.715 204.432 106.733 203.234 107.668 201.687L108.468 201.963C107.838 203.91 106.659 205.706 104.931 207.362C103.217 209.015 101.111 209.842 98.6177 209.842C95.7326 209.842 93.4992 208.758 91.9228 206.581C90.357 204.408 89.5781 201.907 89.5781 199.067C89.5781 195.991 90.5001 193.334 92.3123 191.095C94.1377 188.856 96.5168 187.738 99.439 187.738C101.598 187.738 103.49 188.488 105.117 189.988Z" fill="#231F20"/>
<path fill-rule="evenodd" clip-rule="evenodd" d="M122.07 208.446C123.871 208.272 124.981 207.922 125.429 207.387C125.872 206.836 126.094 205.593 126.094 203.64V183.259C126.094 181.63 125.84 180.541 125.334 180.021C124.844 179.497 123.76 179.176 122.07 179.028V178.156H134.479C138.467 178.156 141.508 178.93 143.628 180.482C145.745 182.027 146.794 184.064 146.794 186.589C146.794 189.792 145.623 192.11 143.289 193.549C140.936 194.996 138.006 195.714 134.479 195.714C133.979 195.714 133.327 195.714 132.527 195.69C131.753 195.661 131.16 195.65 130.781 195.65V204.192C130.781 205.975 131.051 207.087 131.589 207.548C132.137 208.007 133.351 208.306 135.24 208.446V209.294H122.07V208.446ZM137.953 180.782C136.617 180.199 134.938 179.907 132.898 179.907C131.933 179.907 131.337 180.003 131.101 180.204C130.89 180.39 130.781 180.808 130.781 181.471V193.737C131.623 193.814 132.172 193.862 132.437 193.872C132.699 193.891 132.951 193.896 133.194 193.896C135.356 193.896 137.057 193.597 138.297 192.987C140.552 191.861 141.68 189.766 141.68 186.703C141.68 183.831 140.427 181.849 137.953 180.782Z" fill="#231F20"/>
<path fill-rule="evenodd" clip-rule="evenodd" d="M148.407 208.65C150.045 208.498 151.086 208.226 151.504 207.828C151.941 207.412 152.156 206.305 152.156 204.514V193.548C152.156 192.557 152.09 191.868 151.944 191.482C151.714 190.862 151.234 190.541 150.5 190.541C150.328 190.541 150.166 190.557 149.994 190.586C149.838 190.623 149.377 190.742 148.617 190.962V190.242L149.602 189.926C152.283 189.047 154.156 188.395 155.216 187.95C155.64 187.759 155.918 187.667 156.037 187.667C156.064 187.783 156.085 187.894 156.085 188.011V204.514C156.085 206.262 156.292 207.359 156.702 207.802C157.132 208.252 158.091 208.522 159.569 208.65V209.293H148.407V208.65ZM152.04 177.928C152.498 177.451 153.062 177.215 153.74 177.215C154.392 177.215 154.959 177.451 155.415 177.928C155.889 178.386 156.127 178.958 156.127 179.628C156.127 180.291 155.889 180.855 155.415 181.335C154.959 181.788 154.392 182.018 153.74 182.018C153.062 182.018 152.498 181.788 152.04 181.335C151.579 180.855 151.351 180.291 151.351 179.628C151.351 178.966 151.579 178.407 152.04 177.928Z" fill="#231F20"/>
<path fill-rule="evenodd" clip-rule="evenodd" d="M166.01 191.739C165.522 192.565 165.17 193.612 164.952 194.868H174.641C174.482 193.334 174.183 192.192 173.775 191.447C173.022 190.088 171.761 189.421 170.007 189.421C168.262 189.421 166.934 190.189 166.01 191.739ZM177.018 189.988C178.644 191.477 179.45 193.596 179.45 196.335H164.857C165.013 199.891 165.821 202.479 167.276 204.103C168.725 205.722 170.455 206.538 172.434 206.538C174.05 206.538 175.407 206.114 176.514 205.274C177.614 204.432 178.634 203.234 179.566 201.687L180.369 201.963C179.744 203.91 178.568 205.706 176.83 207.362C175.113 209.015 173.004 209.842 170.516 209.842C167.634 209.842 165.403 208.758 163.826 206.581C162.266 204.408 161.49 201.907 161.49 199.067C161.49 195.991 162.385 193.334 164.221 191.095C166.033 188.856 168.415 187.738 171.337 187.738C173.497 187.738 175.388 188.488 177.018 189.988Z" fill="#231F20"/>
<path fill-rule="evenodd" clip-rule="evenodd" d="M196.342 206.191C197.073 205.486 197.447 204.813 197.447 204.191V194.333C197.447 192.348 196.909 190.947 195.836 190.128C194.779 189.301 193.74 188.893 192.731 188.893C190.802 188.893 189.297 189.741 188.227 191.469C187.157 193.164 186.619 195.263 186.619 197.761C186.619 200.219 187.186 202.418 188.317 204.353C189.47 206.279 191.181 207.248 193.452 207.248C194.639 207.248 195.6 206.901 196.342 206.191ZM195.68 188.313C196.292 188.634 196.88 189.087 197.447 189.649V182.336C197.447 181.409 197.336 180.76 197.121 180.413C196.928 180.061 196.435 179.878 195.656 179.878C195.465 179.878 195.298 179.888 195.158 179.907C195.028 179.915 194.723 179.949 194.254 179.997V179.245L196.13 178.757C196.819 178.572 197.513 178.381 198.202 178.179C198.891 177.983 199.495 177.787 200.017 177.605C200.263 177.528 200.671 177.385 201.233 177.162L201.371 177.215L201.32 179.629C201.307 180.503 201.299 181.409 201.283 182.336C201.265 183.258 201.259 184.172 201.259 185.073L201.212 203.844C201.212 204.845 201.339 205.539 201.572 205.942C201.826 206.342 202.475 206.538 203.538 206.538H204.044C204.203 206.525 204.37 206.493 204.552 206.464V207.23C204.452 207.251 203.342 207.646 201.212 208.374L197.603 209.733L197.447 209.519V206.7C196.586 207.627 195.836 208.292 195.208 208.697C194.095 209.389 192.805 209.733 191.332 209.733C188.728 209.733 186.611 208.727 184.992 206.718C183.381 204.697 182.579 202.365 182.579 199.706C182.579 196.386 183.538 193.535 185.469 191.164C187.414 188.774 189.788 187.579 192.593 187.579C193.714 187.579 194.737 187.823 195.68 188.313Z" fill="#231F20"/>
<path fill-rule="evenodd" clip-rule="evenodd" d="M210.037 199.163C211.446 198.244 214.257 196.998 218.469 195.417V193.461C218.469 191.896 218.313 190.812 218.011 190.205C217.487 189.177 216.406 188.658 214.771 188.658C213.995 188.658 213.245 188.857 212.543 189.257C211.835 189.676 211.48 190.237 211.48 190.963C211.48 191.138 211.528 191.456 211.6 191.896C211.666 192.328 211.708 192.6 211.708 192.728C211.708 193.581 211.43 194.185 210.863 194.519C210.537 194.72 210.153 194.821 209.713 194.821C209.022 194.821 208.497 194.598 208.129 194.15C207.758 193.692 207.573 193.189 207.573 192.632C207.573 191.565 208.238 190.447 209.554 189.273C210.879 188.097 212.829 187.514 215.391 187.514C218.358 187.514 220.374 188.473 221.429 190.409C221.998 191.469 222.287 193.003 222.287 195.025V204.236C222.287 205.127 222.34 205.741 222.467 206.078C222.669 206.671 223.082 206.973 223.702 206.973C224.057 206.973 224.348 206.92 224.582 206.809C224.812 206.706 225.209 206.446 225.774 206.027V207.23C225.284 207.829 224.759 208.316 224.189 208.698C223.336 209.281 222.465 209.57 221.572 209.57C220.528 209.57 219.768 209.236 219.291 208.558C218.835 207.887 218.583 207.082 218.541 206.149C217.378 207.156 216.379 207.911 215.55 208.396C214.156 209.223 212.829 209.633 211.581 209.633C210.259 209.633 209.12 209.177 208.148 208.258C207.183 207.328 206.704 206.149 206.704 204.721C206.704 202.506 207.819 200.649 210.037 199.163ZM218.469 196.567C216.708 197.144 215.25 197.791 214.103 198.501C211.899 199.86 210.794 201.407 210.794 203.132C210.794 204.533 211.253 205.561 212.172 206.21C212.773 206.65 213.436 206.859 214.167 206.859C215.184 206.859 216.146 206.578 217.068 206.012C218 205.437 218.469 204.727 218.469 203.844" fill="#231F20"/>
<path fill-rule="evenodd" clip-rule="evenodd" d="M240.759 206.191C241.498 205.486 241.861 204.813 241.861 204.191V194.333C241.861 192.348 241.323 190.947 240.253 190.128C239.195 189.301 238.16 188.893 237.153 188.893C235.219 188.893 233.719 189.741 232.644 191.469C231.576 193.164 231.038 195.263 231.038 197.761C231.038 200.219 231.602 202.418 232.744 204.353C233.889 206.279 235.598 207.248 237.857 207.248C239.063 207.248 240.022 206.901 240.759 206.191ZM240.086 188.313C240.708 188.634 241.296 189.087 241.861 189.649V182.336C241.861 181.409 241.757 180.76 241.54 180.413C241.333 180.061 240.857 179.878 240.064 179.878C239.884 179.878 239.725 179.888 239.585 179.907C239.444 179.915 239.142 179.949 238.666 179.997V179.245L240.552 178.757C241.238 178.572 241.93 178.381 242.621 178.179C243.313 177.983 243.909 177.787 244.439 177.605C244.682 177.528 245.082 177.385 245.652 177.162L245.795 177.215L245.75 179.629C245.731 180.503 245.713 181.409 245.697 182.336C245.689 183.258 245.678 184.172 245.678 185.073L245.625 203.844C245.625 204.845 245.75 205.539 246.004 205.942C246.245 206.342 246.889 206.538 247.954 206.538H248.452C248.619 206.525 248.794 206.493 248.958 206.464V207.23C248.871 207.251 247.758 207.646 245.625 208.374L242.022 209.733L241.861 209.519V206.7C241.002 207.627 240.26 208.292 239.627 208.697C238.512 209.389 237.224 209.733 235.749 209.733C233.139 209.733 231.035 208.727 229.406 206.718C227.801 204.697 226.995 202.365 226.995 199.706C226.995 196.386 227.965 193.535 229.883 191.164C231.841 188.774 234.204 187.579 237.012 187.579C238.138 187.579 239.156 187.823 240.086 188.313Z" fill="#231F20"/>
<path fill-rule="evenodd" clip-rule="evenodd" d="M6.16846 161.776C8.11044 161.574 9.36889 161.142 9.91465 160.462C10.4684 159.77 10.7386 158.194 10.7386 155.709V134.961L10.0948 134.204C9.40863 133.388 8.81782 132.892 8.32769 132.71C7.8561 132.508 7.13282 132.392 6.16846 132.368V131.496H14.2331L32.3627 154.145V138.408C32.3627 135.817 31.9812 134.14 31.2155 133.353C30.7095 132.845 29.5941 132.519 27.8641 132.368V131.496H38.9172V132.368C37.1156 132.551 35.9261 132.99 35.33 133.674C34.7312 134.363 34.4345 135.947 34.4345 138.408V163.18H33.6317L12.8078 137.372V155.709C12.8078 158.286 13.1893 159.961 13.9311 160.748C14.4265 161.256 15.5207 161.585 17.2242 161.776V162.629H6.16846" fill="#231F20"/>
<path fill-rule="evenodd" clip-rule="evenodd" d="M44.682 152.492C46.0941 151.573 48.8998 150.322 53.1176 148.746V146.799C53.1176 145.238 52.9586 144.147 52.6539 143.535C52.132 142.504 51.0511 141.996 49.4191 141.996C48.6428 141.996 47.8904 142.194 47.1883 142.592C46.4809 143.002 46.1259 143.575 46.1259 144.29C46.1259 144.475 46.171 144.793 46.2451 145.238C46.322 145.665 46.3617 145.935 46.3617 146.065C46.3617 146.918 46.0782 147.519 45.5113 147.853C45.1827 148.049 44.8012 148.158 44.3588 148.158C43.6726 148.158 43.1427 147.925 42.7692 147.482C42.4062 147.029 42.2234 146.526 42.2234 145.967C42.2234 144.897 42.8858 143.779 44.2025 142.613C45.5325 141.437 47.4797 140.846 50.0337 140.846C53.009 140.846 55.0251 141.81 56.0769 143.739C56.6439 144.796 56.93 146.335 56.93 148.359V157.571C56.93 158.464 56.9909 159.079 57.1155 159.41C57.3142 160.006 57.7222 160.305 58.3607 160.305C58.7024 160.305 58.9992 160.258 59.227 160.149C59.4549 160.038 59.8549 159.773 60.4219 159.365V160.56C59.9317 161.158 59.4019 161.648 58.8349 162.03C57.9818 162.608 57.0996 162.899 56.2173 162.899C55.1761 162.899 54.4158 162.563 53.9442 161.89C53.4779 161.219 53.2262 160.417 53.1838 159.476C52.0154 160.491 51.0272 161.243 50.198 161.728C48.8071 162.552 47.4797 162.968 46.2213 162.968C44.9046 162.968 43.76 162.515 42.7983 161.585C41.834 160.663 41.3491 159.476 41.3491 158.056C41.3491 155.83 42.4539 153.979 44.682 152.492ZM53.1176 149.893C51.3505 150.479 49.9013 151.125 48.7488 151.822C46.5419 153.192 45.4397 154.739 45.4397 156.466C45.4397 157.863 45.9007 158.888 46.8227 159.545C47.4135 159.974 48.0811 160.197 48.8177 160.197C49.8297 160.197 50.7914 159.908 51.7161 159.344C52.6513 158.777 53.1176 158.056 53.1176 157.182" fill="#231F20"/>
<path fill-rule="evenodd" clip-rule="evenodd" d="M77.1501 142.457C78.5437 143.434 79.2378 144.507 79.2378 145.694C79.2378 146.195 79.0656 146.674 78.7185 147.117C78.3609 147.546 77.8151 147.758 77.0839 147.758C76.5434 147.758 76.0692 147.583 75.6612 147.212C75.2558 146.841 74.9644 146.309 74.7842 145.604L74.506 144.494C74.31 143.683 73.9682 143.116 73.4781 142.777C72.9668 142.457 72.2991 142.287 71.4778 142.287C69.7292 142.287 68.2535 143.055 67.0375 144.589C65.84 146.105 65.2465 148.126 65.2465 150.654C65.2465 152.972 65.9036 155.044 67.2229 156.88C68.5556 158.724 70.3465 159.64 72.5985 159.64C74.1908 159.64 75.6082 159.118 76.8507 158.075C77.5502 157.481 78.3529 156.533 79.2378 155.229L79.8869 155.616C79.01 157.452 78.0933 158.909 77.1263 159.979C75.2744 162.041 73.1257 163.066 70.6936 163.066C68.2986 163.066 66.1923 162.125 64.3537 160.242C62.5177 158.355 61.5957 155.796 61.5957 152.564C61.5957 149.387 62.5998 146.672 64.6054 144.38C66.6056 142.104 69.1464 140.957 72.2037 140.957C74.1298 140.957 75.7671 141.458 77.1501 142.457Z" fill="#231F20"/>
<path fill-rule="evenodd" clip-rule="evenodd" d="M82.3218 161.985C83.9617 161.829 84.9923 161.551 85.4189 161.159C85.8534 160.748 86.06 159.641 86.06 157.85V146.889C86.06 145.891 85.9991 145.207 85.8587 144.826C85.6308 144.198 85.146 143.874 84.4121 143.874C84.2452 143.874 84.0704 143.896 83.9087 143.925C83.7498 143.957 83.2941 144.076 82.5231 144.29V143.58L83.5087 143.257C86.1978 142.38 88.0629 141.731 89.1253 141.281C89.5519 141.103 89.8221 141.008 89.9493 141.008C89.9784 141.108 89.9917 141.228 89.9917 141.347V157.85C89.9917 159.596 90.201 160.687 90.6196 161.138C91.0435 161.575 92.0052 161.861 93.4835 161.985V162.629H82.3218V161.985ZM85.9514 131.263C86.4124 130.789 86.9767 130.551 87.6443 130.551C88.304 130.551 88.871 130.789 89.3293 131.263C89.7983 131.722 90.0394 132.283 90.0394 132.964C90.0394 133.624 89.7983 134.191 89.3293 134.668C88.871 135.124 88.304 135.351 87.6443 135.351C86.9767 135.351 86.4124 135.124 85.9514 134.668C85.4931 134.191 85.2599 133.624 85.2599 132.964C85.2599 132.305 85.4931 131.74 85.9514 131.263Z" fill="#231F20"/>
<path fill-rule="evenodd" clip-rule="evenodd" d="M102.263 143.647C100.737 145.041 99.9718 147.444 99.9718 150.864C99.9718 153.593 100.584 156.131 101.808 158.484C103.045 160.847 104.767 162.029 106.95 162.029C108.675 162.029 109.989 161.242 110.906 159.663C111.838 158.086 112.307 156.017 112.307 153.458C112.307 150.814 111.719 148.313 110.535 145.966C109.356 143.624 107.655 142.455 105.419 142.455C104.205 142.455 103.148 142.847 102.263 143.647ZM98.5729 144.244C100.512 142.129 103.005 141.072 106.063 141.072C109.091 141.072 111.608 142.071 113.592 144.055C115.582 146.053 116.583 148.702 116.583 152.009C116.583 155.058 115.616 157.71 113.685 159.96C111.753 162.217 109.252 163.337 106.192 163.337C103.257 163.337 100.764 162.265 98.7239 160.097C96.6919 157.938 95.6719 155.228 95.6719 151.972C95.6719 148.909 96.6309 146.344 98.5729 144.244Z" fill="#231F20"/>
<path fill-rule="evenodd" clip-rule="evenodd" d="M118.856 161.985C119.94 161.84 120.697 161.575 121.135 161.18C121.569 160.769 121.794 159.855 121.794 158.443V146.797C121.794 145.814 121.702 145.125 121.519 144.727C121.225 144.147 120.629 143.858 119.733 143.858C119.59 143.858 119.45 143.861 119.296 143.874C119.158 143.895 118.978 143.919 118.766 143.943V143.146C119.391 142.958 120.88 142.486 123.222 141.72L125.382 141.008C125.488 141.008 125.548 141.045 125.567 141.122C125.596 141.196 125.612 141.307 125.612 141.445V144.825C127.016 143.501 128.121 142.595 128.918 142.11C130.113 141.357 131.351 140.989 132.641 140.979C133.677 140.979 134.636 141.281 135.494 141.879C137.139 143.04 137.974 145.119 137.974 148.108V158.835C137.974 159.943 138.197 160.737 138.636 161.225C139.084 161.723 139.829 161.969 140.872 161.985V162.629H131.051V161.985C132.172 161.829 132.956 161.524 133.399 161.066C133.841 160.586 134.066 159.582 134.066 158.009V148.198C134.066 146.881 133.822 145.792 133.338 144.934C132.845 144.057 131.936 143.625 130.617 143.625C129.716 143.625 128.797 143.933 127.864 144.542C127.342 144.897 126.667 145.482 125.845 146.29V159.156C125.845 160.261 126.089 161.002 126.574 161.387C127.067 161.76 127.838 161.959 128.895 161.985V162.629H118.856" fill="#231F20"/>
<path fill-rule="evenodd" clip-rule="evenodd" d="M146.587 152.492C147.999 151.573 150.805 150.322 155.025 148.746V146.799C155.025 145.238 154.866 144.147 154.564 143.535C154.045 142.504 152.964 141.996 151.324 141.996C150.543 141.996 149.798 142.194 149.091 142.592C148.391 143.002 148.036 143.575 148.036 144.29C148.036 144.475 148.076 144.793 148.158 145.238C148.23 145.665 148.269 145.935 148.269 146.065C148.269 146.918 147.989 147.519 147.422 147.853C147.098 148.049 146.714 148.158 146.266 148.158C145.578 148.158 145.053 147.925 144.677 147.482C144.311 147.029 144.134 146.526 144.134 145.967C144.134 144.897 144.793 143.779 146.105 142.613C147.435 141.437 149.382 140.846 151.944 140.846C154.917 140.846 156.93 141.81 157.99 143.739C158.559 144.796 158.843 146.335 158.843 148.359V157.571C158.843 158.464 158.901 159.079 159.02 159.41C159.222 160.006 159.638 160.305 160.26 160.305C160.618 160.305 160.902 160.258 161.135 160.149C161.36 160.038 161.765 159.773 162.33 159.365V160.56C161.842 161.158 161.315 161.648 160.748 162.03C159.892 162.608 159.01 162.899 158.122 162.899C157.086 162.899 156.326 162.563 155.847 161.89C155.393 161.219 155.139 160.417 155.097 159.476C153.934 160.491 152.935 161.243 152.111 161.728C150.712 162.552 149.382 162.968 148.129 162.968C146.818 162.968 145.673 162.515 144.706 161.585C143.744 160.663 143.251 159.476 143.251 158.056C143.251 155.83 144.369 153.979 146.587 152.492ZM155.025 149.893C153.261 150.479 151.804 151.125 150.659 151.822C148.45 153.192 147.35 154.739 147.35 156.466C147.35 157.863 147.803 158.888 148.725 159.545C149.321 159.974 149.989 160.197 150.725 160.197C151.737 160.197 152.702 159.908 153.616 159.344C154.556 158.777 155.025 158.056 155.025 157.182" fill="#231F20"/>
<path fill-rule="evenodd" clip-rule="evenodd" d="M163.389 161.985C164.807 161.839 165.774 161.561 166.288 161.137C166.791 160.687 167.037 159.836 167.037 158.564V136.111C167.037 135.096 166.955 134.405 166.791 134.021C166.486 133.377 165.859 133.051 164.929 133.051C164.717 133.051 164.478 133.078 164.221 133.125C163.97 133.17 163.652 133.242 163.275 133.329V132.574C165.337 132.018 167.83 131.284 170.739 130.359C170.847 130.359 170.913 130.415 170.921 130.505C170.953 130.598 170.972 130.794 170.972 131.101V158.655C170.972 159.979 171.2 160.848 171.658 161.256C172.122 161.627 173.067 161.874 174.514 161.985V162.629H163.389" fill="#231F20"/>
<path fill-rule="evenodd" clip-rule="evenodd" d="M187.792 161.776C189.732 161.574 190.99 161.142 191.536 160.462C192.09 159.77 192.368 158.194 192.368 155.709V136.593C192.368 134.895 192.098 133.788 191.557 133.284C191.022 132.765 189.811 132.458 187.912 132.368V131.496H197.211L208.108 155.229L218.512 131.496H227.888V132.368C226.139 132.492 225.016 132.805 224.513 133.329C223.996 133.835 223.75 134.924 223.75 136.593V157.523C223.75 159.24 223.996 160.348 224.513 160.838C225.016 161.307 226.139 161.625 227.888 161.776V162.629H214.699V161.776C216.596 161.625 217.775 161.286 218.236 160.769C218.713 160.236 218.957 158.962 218.957 156.98V135.833L206.91 162.629H206.264L194.437 136.938V155.709C194.437 158.286 194.805 159.961 195.56 160.748C196.04 161.256 197.15 161.585 198.848 161.776V162.629H187.792" fill="#231F20"/>
<path fill-rule="evenodd" clip-rule="evenodd" d="M236.893 143.647C235.367 145.041 234.596 147.444 234.596 150.864C234.596 153.593 235.214 156.131 236.438 158.484C237.672 160.847 239.397 162.029 241.588 162.029C243.3 162.029 244.616 161.242 245.536 159.663C246.468 158.086 246.942 156.017 246.942 153.458C246.942 150.814 246.349 148.313 245.167 145.966C243.988 143.624 242.28 142.455 240.043 142.455C238.835 142.455 237.786 142.847 236.893 143.647ZM233.192 144.244C235.145 142.129 237.635 141.072 240.687 141.072C243.723 141.072 246.232 142.071 248.227 144.055C250.222 146.053 251.211 148.702 251.211 152.009C251.211 155.058 250.251 157.71 248.315 159.96C246.391 162.217 243.888 163.337 240.83 163.337C237.89 163.337 235.396 162.265 233.359 160.097C231.319 157.938 230.302 155.228 230.302 151.972C230.302 148.909 231.266 146.344 233.192 144.244Z" fill="#231F20"/>
<path fill-rule="evenodd" clip-rule="evenodd" d="M253.483 161.985C254.575 161.84 255.335 161.575 255.757 161.18C256.202 160.769 256.424 159.855 256.424 158.443V146.797C256.424 145.814 256.337 145.125 256.154 144.727C255.865 144.147 255.264 143.858 254.366 143.858C254.223 143.858 254.074 143.861 253.923 143.874C253.788 143.895 253.611 143.919 253.391 143.943V143.146C254.021 142.958 255.513 142.486 257.855 141.72L260.009 141.008C260.12 141.008 260.184 141.045 260.205 141.122C260.229 141.196 260.242 141.307 260.242 141.445V144.825C261.651 143.501 262.759 142.595 263.554 142.11C264.74 141.357 265.986 140.989 267.273 140.979C268.317 140.979 269.263 141.281 270.121 141.879C271.775 143.04 272.606 145.119 272.606 148.108V158.835C272.606 159.943 272.826 160.737 273.271 161.225C273.717 161.723 274.458 161.969 275.494 161.985V162.629H265.692V161.985C266.799 161.829 267.586 161.524 268.031 161.066C268.473 160.586 268.699 159.582 268.699 158.009V148.198C268.699 146.881 268.458 145.792 267.967 144.934C267.472 144.057 266.571 143.625 265.252 143.625C264.354 143.625 263.429 143.933 262.494 144.542C261.972 144.897 261.299 145.482 260.475 146.29V159.156C260.475 160.261 260.716 161.002 261.212 161.387C261.694 161.76 262.47 161.959 263.527 161.985V162.629H253.483" fill="#231F20"/>
<path fill-rule="evenodd" clip-rule="evenodd" d="M288.134 141.445V143.103H283.453L283.405 156.332C283.405 157.5 283.503 158.382 283.702 158.973C284.068 160.025 284.791 160.56 285.861 160.56C286.418 160.56 286.889 160.428 287.287 160.171C287.705 159.908 288.169 159.5 288.688 158.925L289.282 159.431L288.786 160.126C287.986 161.196 287.138 161.959 286.259 162.396C285.371 162.841 284.507 163.066 283.684 163.066C281.874 163.066 280.645 162.266 280.011 160.653C279.651 159.773 279.482 158.568 279.482 157.023V143.103H276.975C276.896 143.05 276.832 143.003 276.785 142.958C276.761 142.913 276.742 142.849 276.742 142.778C276.742 142.624 276.771 142.505 276.832 142.431C276.904 142.34 277.126 142.142 277.503 141.834C278.554 140.957 279.312 140.258 279.776 139.72C280.253 139.161 281.352 137.725 283.079 135.396C283.283 135.396 283.397 135.415 283.429 135.442C283.477 135.476 283.503 135.593 283.503 135.794V141.445" fill="#231F20"/>
<path fill-rule="evenodd" clip-rule="evenodd" d="M294.692 145.073C294.202 145.897 293.849 146.938 293.635 148.196H303.324C303.159 146.67 302.868 145.521 302.455 144.779C301.705 143.422 300.446 142.749 298.685 142.744C296.936 142.744 295.603 143.523 294.692 145.073ZM305.7 143.322C307.324 144.808 308.132 146.925 308.132 149.664H293.534C293.693 153.225 294.493 155.811 295.945 157.435C297.413 159.061 299.13 159.867 301.117 159.867C302.73 159.867 304.087 159.446 305.194 158.608C306.288 157.769 307.306 156.566 308.243 155.021L309.049 155.294C308.418 157.239 307.247 159.043 305.509 160.696C303.8 162.352 301.692 163.179 299.188 163.179C296.311 163.179 294.077 162.09 292.504 159.915C290.943 157.739 290.156 155.236 290.156 152.398C290.156 149.32 291.076 146.67 292.896 144.426C294.716 142.193 297.095 141.072 300.017 141.072C302.176 141.072 304.073 141.822 305.7 143.322Z" fill="#231F20"/>
<path d="M98.4561 93.3102L100.093 93.3817V106.745L103.969 107.418V91.0423L98.4561 90.8887" fill="#98002E"/>
<path d="M98.4561 63.4492L100.093 63.0757V74.4997L103.969 74.0652V59.7852L98.4561 61.1204" fill="#98002E"/>
<path d="M98.4561 47.1644L100.093 46.5577V58.5938C101.399 58.2653 102.692 57.9367 103.969 57.6082V42.5625L98.4561 44.7138" fill="#98002E"/>
<path d="M101.508 36.4863L100.154 39.806L98.4561 40.524V42.5216L103.969 40.2935V38.1978L102.992 38.6085" fill="#98002E"/>
<path d="M98.4561 79.1124L100.093 78.972V88.9256L103.969 88.9839V76.2246L98.4561 76.7783" fill="#98002E"/>
<path d="M81.7046 92.5743L82.9895 92.6299V103.77L86.9795 104.462V90.5793L81.7046 90.4336" fill="#98002E"/>
<path d="M81.7046 53.3894L82.9895 52.9152V62.943C84.3275 62.6039 85.6548 62.2647 86.9795 61.9256V49.1875L81.7046 51.2461" fill="#98002E"/>
<path d="M84.4785 43.7227L83.1485 46.9734L81.7046 47.5828V49.289L86.9795 47.1562V45.36L85.933 45.8024" fill="#98002E"/>
<path d="M81.7046 67.2387L82.9895 66.9499V76.4347L86.9795 75.9869V63.8926L81.7046 65.1696" fill="#98002E"/>
<path d="M81.7046 80.5347L82.9895 80.4314V88.6629L86.9795 88.7212V77.9277L81.7046 78.455" fill="#98002E"/>
<path d="M90.5586 92.9636L91.5442 93.006V105.257L95.4758 105.943V90.8096L90.5586 90.6719" fill="#98002E"/>
<path d="M90.5586 50.1041L91.5442 49.7385V60.7651C92.8635 60.4286 94.1803 60.0975 95.4758 59.7663V45.873L90.5586 47.7938" fill="#98002E"/>
<path d="M92.9907 40.1055L91.6528 43.388L90.5586 43.8517V45.7089L95.4758 43.7245V41.7772L94.4611 42.2091" fill="#98002E"/>
<path d="M90.5586 79.7845L91.5442 79.6971V88.795L95.4758 88.8506V77.0742L90.5586 77.5644" fill="#98002E"/>
<path d="M90.5586 65.2356L91.5442 65.0184V75.4728L95.4758 75.025V61.8418L90.5586 63.0287" fill="#98002E"/>
<path d="M58.9249 54.5742L57.6399 57.7243L56.3921 58.2489V59.5073L61.4948 57.4514V56.1029L60.337 56.5904" fill="#98002E"/>
<path d="M56.3921 91.4549L57.2929 91.492V99.297L61.4948 100.028V89.8839L56.3921 89.7461" fill="#98002E"/>
<path d="M56.3921 82.6808L57.2929 82.604V88.2657L61.4948 88.3293V80.4766L56.3921 80.9879" fill="#98002E"/>
<path d="M56.3921 62.7944L57.2929 62.4632V69.529C58.6917 69.1661 60.0932 68.8058 61.4948 68.4455V59.125L56.3921 61.1173" fill="#98002E"/>
<path d="M56.3921 72.9836L57.2929 72.7796V79.3421L61.4948 78.8679V70.0508L56.3921 71.2827" fill="#98002E"/>
<path d="M64.9336 59.6182L65.8556 59.2791V67.3279C67.2359 66.9729 68.6136 66.6205 69.9859 66.2681V55.8164L64.9336 57.7849" fill="#98002E"/>
<path d="M64.9336 91.8311L65.8556 91.8682V100.789L69.9859 101.504V90.1143L64.9336 89.9766" fill="#98002E"/>
<path d="M67.4425 50.9531L66.1417 54.1403L64.9336 54.649V56.0611L69.9859 54.0211V52.5215L68.8679 52.9931" fill="#98002E"/>
<path d="M64.9336 81.9545L65.8556 81.8724V88.4004L69.9859 88.4613V79.623L64.9336 80.1317" fill="#98002E"/>
<path d="M64.9336 71.0434L65.8556 70.8315V78.3795L69.9859 77.9079V68.002L64.9336 69.218" fill="#98002E"/>
<path d="M73.1655 56.5694L74.4001 56.1084V65.1401C75.7646 64.7904 77.1343 64.4407 78.4801 64.0963V52.5L73.1655 54.5797" fill="#98002E"/>
<path d="M73.1655 69.1887L74.4001 68.9026V77.407L78.4801 76.9487V65.9512L73.1655 67.2335" fill="#98002E"/>
<path d="M75.9606 47.3398L74.6465 50.5615L73.1655 51.1841V52.7392L78.4801 50.588V48.9427L77.4019 49.3984" fill="#98002E"/>
<path d="M73.1655 92.1981L74.4001 92.2537V102.276L78.4801 102.984V90.3462L73.1655 90.2031" fill="#98002E"/>
<path d="M73.1655 81.2617L74.4001 81.1531V88.5316L78.4801 88.5925V78.7793L73.1655 79.3118" fill="#98002E"/>
<path d="M133.21 55.5707L134.479 55.2793V70.6138L137.955 70.219V51.5781L133.21 52.72" fill="#98002E"/>
<path d="M135.571 22.0156L134.156 25.4704L133.21 25.8731V28.4827L137.955 26.5619V23.8728L137.113 24.2278" fill="#98002E"/>
<path d="M133.21 76.1591L134.479 76.0557V89.4536L137.955 89.5066V72.8262L133.21 73.3004" fill="#98002E"/>
<path d="M133.21 34.2437L134.479 33.7694V49.9014C135.69 49.5941 136.853 49.3026 137.955 49.0271V29.3105L133.21 31.1625" fill="#98002E"/>
<path d="M133.21 94.8449L134.479 94.8979V112.731L137.955 113.337V91.9677L133.21 91.8379" fill="#98002E"/>
<path d="M124.523 76.8994L125.875 76.7828V89.3169L129.464 89.3752V73.6777L124.523 74.1705" fill="#98002E"/>
<path d="M124.523 57.5328L125.875 57.2281V71.5903L129.464 71.1823V53.625L124.523 54.8199" fill="#98002E"/>
<path d="M124.523 37.4774L125.875 36.9793V52.0674C127.104 51.7601 128.301 51.4581 129.464 51.164V32.6211L124.523 34.5472" fill="#98002E"/>
<path d="M127.056 25.6328L125.657 29.0558L124.523 29.538V31.9939L129.464 29.999V27.4529L128.58 27.8265" fill="#98002E"/>
<path d="M124.523 94.459L125.875 94.5173V111.229L129.464 111.855V91.7354L124.523 91.5977" fill="#98002E"/>
<path d="M141.9 53.5962L143.082 53.3313V69.6381L146.452 69.2566V49.5215L141.9 50.621" fill="#98002E"/>
<path d="M144.086 18.4004L142.666 21.8922L141.898 22.2155V24.9735L146.452 23.1348V20.2947L145.649 20.6338" fill="#98002E"/>
<path d="M141.9 95.225L143.082 95.2753V114.224L146.452 114.812V92.1968L141.9 92.0723" fill="#98002E"/>
<path d="M141.9 31.008L143.082 30.5655V47.7387C144.317 47.4287 145.443 47.1452 146.452 46.8909V25.998L141.9 27.7731" fill="#98002E"/>
<path d="M141.9 75.428L143.082 75.33V89.5862L146.452 89.6365V71.9785L141.9 72.4316" fill="#98002E"/>
<path d="M115.836 59.5073L117.272 59.1788V72.5607L120.968 72.1448V55.6816L115.836 56.9215" fill="#98002E"/>
<path d="M115.836 40.7063L117.272 40.1659V54.2419C118.522 53.9267 119.757 53.6114 120.968 53.3067V35.9375L115.836 37.9378" fill="#98002E"/>
<path d="M115.836 77.643L117.272 77.5185V89.1889L120.968 89.2472V74.5273L115.836 75.0413" fill="#98002E"/>
<path d="M118.538 29.252L117.161 32.6405L115.836 33.1995V35.5018L120.968 33.4273V31.0376L120.056 31.4244" fill="#98002E"/>
<path d="M115.836 94.0755L117.272 94.1418V109.736L120.968 110.377V91.503L115.836 91.3652" fill="#98002E"/>
<path d="M107.144 78.3774L108.667 78.2476V89.0543L112.471 89.1126V75.373L107.144 75.9109" fill="#98002E"/>
<path d="M110.023 32.8711L108.656 36.2199L107.144 36.8584V39.015L112.471 36.8584V34.617L111.523 35.0171" fill="#98002E"/>
<path d="M107.144 61.4726L108.667 61.1282V73.5325L112.471 73.1007V57.7344L107.144 59.0193" fill="#98002E"/>
<path d="M107.144 43.9367L108.667 43.3645V56.4179C109.947 56.0946 111.221 55.7714 112.471 55.4561V39.25L107.144 41.3244" fill="#98002E"/>
<path d="M107.144 93.6968L108.667 93.7604V108.234L112.471 108.899V91.27L107.144 91.127" fill="#98002E"/>
<path d="M241.649 83.1337V81.364L236.512 80.7891V90.0618L240.348 90.0777V83.0119" fill="#98002E"/>
<path d="M241.649 93.6761V91.7129L236.512 91.7473V103.714L240.348 103.158V93.7105" fill="#98002E"/>
<path d="M241.649 59.8171V57.8407L236.512 55.8828V66.9174L240.348 67.9003V59.3455" fill="#98002E"/>
<path d="M241.649 54.5771L240.592 54.1399L239.317 51.0137L237.9 53.0351L236.512 52.4576V54.0101L241.649 56.0342" fill="#98002E"/>
<path d="M241.649 71.7137V69.8618L236.512 68.6113V79.0101L240.348 79.487V71.4144" fill="#98002E"/>
<path d="M215.942 65.8336V63.6082L210.442 62.2676V107.466L214.196 106.923V65.4362" fill="#98002E"/>
<path d="M215.942 44.0007L214.752 43.5079L213.428 40.2598L211.963 42.3607L210.442 41.7355V43.7304L215.942 45.9003" fill="#98002E"/>
<path d="M214.196 49.7605L215.942 50.4123V48.0358L210.439 45.9375V60.2679L215.942 61.6747V59.2134L214.196 58.7445" fill="#98002E"/>
<path d="M171.711 55.7018V52.8432L166.998 51.6934V70.4164L170.447 70.8456V55.4078" fill="#98002E"/>
<path d="M171.711 76.4124V73.5617L166.998 73.0371V89.789L170.447 89.7996V76.2932" fill="#98002E"/>
<path d="M171.711 25.8001L171.054 25.5351L169.658 22.1016L168.108 24.3217L166.998 23.8607V26.5922L171.711 28.4574" fill="#98002E"/>
<path d="M171.711 34.2541V31.1517L166.998 29.3555V49.1833L170.447 50.0655V33.7958" fill="#98002E"/>
<path d="M171.711 95.2411V92.2129L166.998 92.2473V113.715L170.447 113.217V95.2703" fill="#98002E"/>
<path d="M233.251 69.7919V67.8181L227.817 66.4961V77.936L231.64 78.4076V69.4157" fill="#98002E"/>
<path d="M233.251 56.7511V54.6369L227.817 52.5625V64.7019L231.64 65.6768V56.1656" fill="#98002E"/>
<path d="M233.251 82.3286V80.429L227.817 79.8223V90.0276L231.64 90.0435V82.1696" fill="#98002E"/>
<path d="M233.251 93.8611V91.7734L227.817 91.8132V104.962L231.64 104.411V93.9035" fill="#98002E"/>
<path d="M233.251 51.116L232.059 50.6338L230.779 47.4863L229.364 49.521L227.817 48.8852V50.5834L233.251 52.7268" fill="#98002E"/>
<path d="M250.352 58.1588L249.234 57.6978L247.973 54.6113L246.579 56.6063L245.202 56.034V57.4382L250.352 59.4703" fill="#98002E"/>
<path d="M250.352 62.9891V61.169L245.202 59.2031V69.1356L249.059 70.1238V62.5069" fill="#98002E"/>
<path d="M250.352 83.9773V82.3347L245.202 81.7598V90.0947L249.059 90.1132V83.8554" fill="#98002E"/>
<path d="M250.352 73.7071V71.9797L245.202 70.7266V80.0868L249.059 80.5636V73.4104" fill="#98002E"/>
<path d="M250.352 93.4851V91.6465L245.202 91.6836V102.466L249.059 101.905V93.5169" fill="#98002E"/>
<path d="M258.827 75.6462V74.0434L253.886 72.8379V81.1595L257.733 81.6364V75.3919" fill="#98002E"/>
<path d="M258.827 66.1022V64.4013L253.886 62.5176V71.3532L257.733 72.3361V65.6995" fill="#98002E"/>
<path d="M258.827 61.6418L257.63 61.149L256.387 58.0996L255.007 60.0707L253.886 59.6124V60.8655L258.827 62.8102" fill="#98002E"/>
<path d="M258.827 84.7897V83.2769L253.886 82.7285V90.1282L257.733 90.1467V84.6784" fill="#98002E"/>
<path d="M258.827 93.2909V91.582L253.886 91.6191V101.212L257.733 100.659V93.3174" fill="#98002E"/>
<path d="M222.232 43.918L220.788 45.9898L219.132 45.3089V47.1528L224.788 49.3889V47.6403L223.54 47.1263" fill="#98002E"/>
<path d="M219.132 66.5579L221.336 67.0613V105.896L224.788 105.4V65.7631L219.132 64.3828" fill="#98002E"/>
<path d="M219.132 51.5901L221.336 52.3981V60.6615L219.132 60.068V62.4816L224.788 63.9282V51.4126L219.132 49.248" fill="#98002E"/>
<path d="M152.27 7.83398L151.372 15.0561L150.349 16.7146V21.5603L152.262 20.7841H152.27L154.188 21.5418V16.7146L153.171 15.0614" fill="#98002E"/>
<path d="M150.354 48.5815V68.8173L152.27 68.6027L154.183 68.8385V48.5815L152.27 48.1152" fill="#98002E"/>
<path d="M152.262 23.7305L150.354 24.4776V45.9162C151.523 45.6195 152.188 45.4526 152.27 45.4314V45.4287H152.281L154.183 45.9162V25.0181H154.188V24.4643L152.27 23.7358" fill="#98002E"/>
<path d="M152.27 89.7281L154.183 89.7361V71.6065L152.262 71.3945L150.354 71.5879V89.699L152.27 89.7255" fill="#98002E"/>
<path d="M152.262 92.3584L150.354 92.3027V115.49L152.304 115.832L154.183 115.559V92.3451L152.27 92.3584" fill="#98002E"/>
<path d="M180.557 37.4964V34.5317L175.682 32.6719V51.4029L179.203 52.301V36.9956" fill="#98002E"/>
<path d="M180.557 77.2612V74.5456L175.682 74.0078V89.8245L179.203 89.8377V77.1288" fill="#98002E"/>
<path d="M180.557 29.4421L179.722 29.095L178.331 25.7012L176.803 27.8975L175.682 27.4365V30.0223L180.557 31.9404" fill="#98002E"/>
<path d="M180.557 57.717V55.0014L175.682 53.8145V71.4963L179.203 71.9281V57.4123" fill="#98002E"/>
<path d="M180.557 95.0461V92.1504L175.682 92.1875V112.468L179.203 111.957V95.0753" fill="#98002E"/>
<path d="M162.865 22.1568L162.176 21.8786L160.767 18.4238L159.204 20.6546L158.308 20.2837V23.1688L162.865 24.9625" fill="#98002E"/>
<path d="M162.865 95.4506V92.2793L158.308 92.3137V114.963L161.683 114.478V95.4824" fill="#98002E"/>
<path d="M162.865 31.0213V27.7758L158.308 26.0352V46.9704L161.683 47.8262V30.5974" fill="#98002E"/>
<path d="M162.865 53.6713V50.6934L158.308 49.5859V69.3475L161.683 69.7635V53.401" fill="#98002E"/>
<path d="M162.865 75.5682V72.5744L158.308 72.0684V89.7528L161.683 89.7661V75.4569" fill="#98002E"/>
<path d="M198.247 78.9643V76.519L193.065 75.9414V89.8903L196.729 89.9035V78.8186" fill="#98002E"/>
<path d="M198.247 43.9497V41.2818L193.065 39.3027V55.8347L196.729 56.77V43.388" fill="#98002E"/>
<path d="M198.247 94.6543V92.0234L193.065 92.0632V109.962L196.729 109.44V94.6966" fill="#98002E"/>
<path d="M198.247 61.7713V59.3021L193.065 58.041V73.6378L196.729 74.0882V61.4163" fill="#98002E"/>
<path d="M198.247 36.7177L197.19 36.2832L195.836 32.9609L194.334 35.1069L193.065 34.5876V36.8767L198.247 38.922" fill="#98002E"/>
<path d="M207.101 63.8044V61.4544L201.75 60.1562V74.7145L205.461 75.1702V63.4309" fill="#98002E"/>
<path d="M207.101 47.1847V44.6572L201.75 42.6172V58.0524L205.461 58.9955V46.5939" fill="#98002E"/>
<path d="M207.101 79.8139V77.5036L201.75 76.9102V89.9238L205.461 89.9371V79.6575" fill="#98002E"/>
<path d="M207.101 94.4526V91.9648L201.75 91.9993V108.717L205.461 108.182V94.487" fill="#98002E"/>
<path d="M207.101 40.3635L206.116 39.9555L204.764 36.6465L203.27 38.7872L201.75 38.1593V40.3026L207.101 42.4115" fill="#98002E"/>
<path d="M189.406 33.0823L188.468 32.6955L187.112 29.3652L185.61 31.5165L184.375 31.0105V33.4479L189.406 35.4323" fill="#98002E"/>
<path d="M189.406 94.8505V92.0898L184.375 92.1269V111.218L187.96 110.702V94.8849" fill="#98002E"/>
<path d="M189.406 40.728V37.9038L184.375 35.9883V53.6171L187.96 54.5312V40.2008" fill="#98002E"/>
<path d="M189.406 59.7455V57.1517L184.375 55.9277V72.5684L187.96 73.0135V59.4169" fill="#98002E"/>
<path d="M189.406 78.1174V75.537L184.375 74.9727V89.8594L187.96 89.87V77.977" fill="#98002E"/>
<path d="M263.559 198.72C263.501 197.658 263.44 196.365 263.44 195.419H263.413C263.143 196.307 262.836 197.271 262.449 198.326L261.098 202.029H260.351L259.103 198.394C258.737 197.303 258.443 196.328 258.229 195.419H258.205C258.186 196.376 258.128 197.645 258.064 198.8L257.86 202.08H256.915L257.45 194.434H258.703L260.006 198.132C260.324 199.075 260.576 199.91 260.783 200.707H260.801C261.005 199.936 261.278 199.094 261.622 198.132L262.984 194.434H264.245L264.722 202.08H263.739" fill="#231F20"/>
<path d="M267.229 198.015H268.235C269.293 198.015 269.955 197.438 269.955 196.569C269.955 195.58 269.247 195.149 268.198 195.149C267.721 195.149 267.393 195.196 267.229 195.241V198.015ZM266.238 194.55C266.739 194.447 267.462 194.375 268.135 194.375C269.184 194.375 269.878 194.582 270.352 195.008C270.728 195.342 270.954 195.864 270.954 196.465C270.954 197.464 270.31 198.132 269.512 198.405V198.434C270.098 198.646 270.45 199.186 270.638 199.978C270.887 201.043 271.07 201.783 271.216 202.079H270.199C270.071 201.862 269.902 201.205 269.698 200.254C269.47 199.197 269.049 198.799 268.156 198.768H267.229V202.079H266.238" fill="#231F20"/>
<path d="M273.399 198.138C273.399 192.847 269.117 188.553 263.819 188.553C258.533 188.553 254.241 192.847 254.241 198.138C254.241 203.431 258.533 207.721 263.819 207.721C269.117 207.721 273.399 203.431 273.399 198.138Z" stroke="#231F20" stroke-width="0.870177"/>
</svg>
