<svg width="218" height="58" viewBox="0 0 218 58" fill="none" xmlns="http://www.w3.org/2000/svg">
<g clip-path="url(#clip0_316_1580)">
<rect width="217.056" height="57.2208" fill="white"/>
<path d="M15.12 -0.000365613C6.72004 -0.000365613 3.8147e-05 6.71964 3.8147e-05 15.1196V57.1196H13.44V15.1196C13.44 13.7756 15.12 13.1036 16.296 13.9436L51.5424 52.6172C61.2864 62.3612 77.4144 55.3052 77.4144 42.2012V-0.134766H63.9744V42.2012C63.9744 43.5452 62.2944 44.2172 61.1856 43.3772L26.0736 4.73723C22.7136 1.37723 20.0256 0.0332344 15.1536 0.0332344M84.0672 -0.000365613V41.9996C84.0672 46.0097 85.6602 49.8555 88.4958 52.6911C91.3313 55.5266 95.1772 57.1196 99.1872 57.1196H155.568C160.246 57.1196 164.733 55.2611 168.041 51.953C171.35 48.6449 173.208 44.1581 173.208 39.4796C173.208 34.8012 171.35 30.3144 168.041 27.0063C164.733 23.6981 160.246 21.8396 155.568 21.8396H120.221C119.107 21.8396 118.039 21.3971 117.251 20.6095C116.463 19.8218 116.021 18.7535 116.021 17.6396C116.021 16.5257 116.463 15.4574 117.251 14.6698C118.039 13.8821 119.107 13.4396 120.221 13.4396H179.861V57.1196H193.301V13.4396H216.821V-0.000365613H120.221C115.542 -0.000365613 111.056 1.85813 107.747 5.16627C104.439 8.47441 102.581 12.9612 102.581 17.6396C102.581 22.3181 104.439 26.8049 107.747 30.113C111.056 33.4211 115.542 35.2796 120.221 35.2796H155.501C156.615 35.2796 157.683 35.7221 158.471 36.5098C159.258 37.2974 159.701 38.3657 159.701 39.4796C159.701 40.5935 159.258 41.6618 158.471 42.4495C157.683 43.2371 156.615 43.6796 155.501 43.6796H99.2208C98.7753 43.6796 98.348 43.5026 98.0329 43.1876C97.7178 42.8725 97.5408 42.4452 97.5408 41.9996V-0.000365613H84.0672Z" fill="black"/>
</g>
<defs>
<clipPath id="clip0_316_1580">
<rect width="217.056" height="57.2208" fill="white"/>
</clipPath>
</defs>
</svg>
