<svg width="414" height="79" viewBox="0 0 414 79" fill="none" xmlns="http://www.w3.org/2000/svg">
<path d="M110.796 43.7914V52.3501C112.294 55.5389 115.413 57.6576 118.932 57.8784C122.448 58.0965 125.807 56.3834 127.689 53.4044C129.573 50.4264 129.684 46.6563 127.975 43.5724C126.271 40.4886 123.019 38.5805 119.495 38.5943C115.848 38.5437 112.48 40.5539 110.796 43.7914ZM110.796 63.783V78.6502H101.471V30.2499H110.796V32.5655C113.573 30.7596 116.808 29.7862 120.121 29.7559C130.712 29.7559 138.497 38.1748 138.497 48.2065C138.497 58.2363 130.782 66.6543 120.121 66.6543C116.795 66.6589 113.543 65.6579 110.796 63.783Z" fill="#083E9E"/>
<path d="M144.115 30.2495H153.582V66.0927H144.115V30.2495ZM143.548 20.4956C143.486 19.0678 144.018 17.6786 145.013 16.6555C146.009 15.6334 147.385 15.0658 148.812 15.0906C150.257 15.0658 151.656 15.6242 152.683 16.6417C153.714 17.6583 154.289 19.0457 154.283 20.4947C154.251 23.4921 151.809 25.9043 148.812 25.9016C147.392 25.896 146.035 25.3183 145.045 24.3017C144.056 23.286 143.516 21.9124 143.548 20.4956Z" fill="#083E9E"/>
<path d="M187.019 52.0638V44.069C185.419 40.6669 182.008 38.4837 178.246 38.4543C175.678 38.4303 173.203 39.4313 171.374 41.2354C169.544 43.0405 168.508 45.4987 168.498 48.0701C168.498 53.6067 172.704 57.4679 178.179 57.4679C181.936 57.5664 185.394 55.4503 187.019 52.0638ZM159.19 48.071C159.152 43.195 161.078 38.5141 164.54 35.0788C167.999 31.6463 172.697 29.7529 177.569 29.8283C180.867 29.8311 184.115 30.6481 187.019 32.2139V30.2497H196.281V64.0579C196.281 73.383 188.211 78.4402 178.114 78.4402C171.518 78.4402 165.204 76.476 161.064 73.2597L164.923 66.5971C168.857 69.117 173.441 70.4316 178.114 70.3829C184.636 70.3829 186.67 67.7921 186.951 63.5804C184.142 65.3771 180.882 66.3487 177.547 66.3836C166.814 66.3726 159.19 58.3787 159.19 48.071Z" fill="#083E9E"/>
<path d="M229.753 52.0638V44.069C228.153 40.6669 224.742 38.4837 220.983 38.4543C218.412 38.4303 215.937 39.4313 214.108 41.2354C212.278 43.0405 211.242 45.4987 211.232 48.0701C211.232 53.6067 215.438 57.4679 220.916 57.4679C224.667 57.5636 228.129 55.4476 229.753 52.0638ZM201.902 48.071C201.865 43.195 203.794 38.5141 207.253 35.0788C210.712 31.6463 215.41 29.7529 220.282 29.8283C223.588 29.8283 226.842 30.6453 229.753 32.2139V30.2497H239.011V64.0579C239.011 73.383 230.946 78.4402 220.849 78.4402C214.252 78.4402 207.938 76.476 203.799 73.2597L207.657 66.5971C211.591 69.117 216.175 70.4344 220.849 70.3829C227.37 70.3829 229.404 67.7921 229.685 63.5804C226.876 65.3771 223.616 66.3487 220.282 66.3836C209.549 66.3726 201.902 58.3787 201.902 48.071Z" fill="#083E9E"/>
<path d="M252.614 30.25L262.018 54.17L271.693 30.25H281.536L260.893 78.6512H252.13L257.31 65.7482L242.237 30.25H252.614Z" fill="#083E9E"/>
<path d="M279.751 30.25H289.781L298.919 54.4534L307.969 30.25H317.812L303.43 66.0941H293.997L279.751 30.25Z" fill="#083E9E"/>
<path d="M327.801 43.6465H345.901C344.991 40.2839 341.756 37.3353 336.851 37.3353C331.168 37.3353 328.785 40.2122 327.801 43.6465ZM318.476 47.9264C318.476 37.8294 325.697 29.4785 336.991 29.4785C347.446 29.4785 355.387 37.3353 355.578 47.6614C355.652 48.5492 355.652 49.4425 355.578 50.3294H327.315C327.594 55.3811 332.431 58.6747 337.623 58.6747C341.902 58.6747 344.425 57.4824 347.374 55.0481L352.497 60.4503C348.353 64.7973 344.208 66.8342 337.622 66.8342C325.492 66.7974 318.476 57.7474 318.476 47.9264Z" fill="#083E9E"/>
<path d="M357.538 62.2394L362.122 54.8012C366.237 57.5428 371.061 59.0295 376.008 59.0801C380.71 59.0801 383.092 57.8878 383.092 55.8555C383.092 54.5206 381.97 53.5408 379.584 53.0495L369.741 50.9446C362.521 49.3907 359.221 45.9665 359.221 40.3572C359.221 34.3938 364.272 29.4102 374.725 29.4102C381.036 29.4102 386.64 31.24 390.507 33.6219L386.227 40.7749C383.07 39.0913 378.863 37.267 374.442 37.267C370.446 37.267 368.13 38.2523 368.13 40.0711C368.13 41.269 368.975 42.0408 371.285 42.4594L379.574 44.0133C388.554 45.7641 392.008 49.7661 392.008 55.1674C392.008 62.9386 384.237 67.0207 375.732 67.0207C369.339 67.1449 363.042 65.4889 357.538 62.2394Z" fill="#083E9E"/>
<path d="M393.874 30.2508H399.204V20.3626L408.529 14.332V30.2508H414V38.3891H408.533V66.0995H399.208V38.3891H393.869V30.2508H393.874Z" fill="#083E9E"/>
<path d="M68.4342 29.5292H9.81088C9.33892 29.5264 9.0068 29.059 9.16044 28.6119C13.6418 15.9086 25.6496 7.41146 39.1212 7.41146C52.5927 7.41146 64.5996 15.9086 69.0819 28.6119C69.2328 29.06 68.9071 29.5237 68.4342 29.5292ZM46.1067 57.7419C46.058 57.9903 45.839 58.1679 45.5888 58.1623H32.6379C32.3868 58.1679 32.1678 57.9894 32.12 57.7419V57.1779C32.1172 56.5845 32.1825 55.9911 32.3168 55.4106C32.4006 55.2137 32.4512 54.9819 32.5358 54.7629C32.6168 54.5477 32.7005 54.3452 32.7842 54.1318C32.8652 53.9193 32.9995 53.727 33.1154 53.5467L33.3022 53.2652C33.4236 53.0849 33.5561 52.9119 33.7014 52.7472C33.8496 52.5614 34.0014 52.4022 34.1522 52.2293C34.9324 51.4629 35.8791 50.8888 36.9178 50.5512C35.075 49.5493 34.1476 47.4232 34.6601 45.3891C35.1753 43.3577 37.0015 41.9271 39.0991 41.9216C40.3181 41.9299 41.4846 42.4156 42.3476 43.2731C43.3614 44.2933 43.8398 45.7313 43.6347 47.1564C43.4323 48.5833 42.5721 49.8299 41.3117 50.5254C44.1821 51.4703 46.1168 54.1548 46.1086 57.177C46.1067 57.3647 46.1067 57.5671 46.1067 57.7419ZM78.1246 36.0161C77.9682 33.7419 77.5956 31.4851 77.0095 29.2817C74.3415 19.4386 68.7203 11.6922 60.1514 6.16577C54.7556 2.65505 48.5548 0.572167 42.1323 0.107567C39.434 -0.0893126 36.7255 -0.0157065 34.04 0.326534C31.2147 0.701894 28.4363 1.37533 25.7508 2.34225C11.1513 7.60925 1.06812 21.0403 0.0883206 36.5341C6.16908e-07 37.926 0 39.3318 0 40.7302V74.7352C0 76.5752 1.49224 78.0656 3.33224 78.0656H16.4698C18.17 78.0573 19.5942 76.773 19.7837 75.0839C19.8729 74.7628 19.9152 74.4344 19.918 74.1041V73.3166C19.9125 73.2568 19.9125 73.1951 19.918 73.1353V73.0461C20.01 73.07 20.0937 73.1114 20.1692 73.1648C25.082 75.8815 30.5247 77.509 36.1238 77.9322C38.3658 78.0969 40.6189 78.0748 42.8582 77.865C53.5136 76.8825 63.2859 71.5428 69.8694 63.1083C74.5136 57.269 77.3518 50.2034 78.0454 42.7744C78.28 40.5305 78.3049 38.2664 78.1246 36.0161Z" fill="#083E9E"/>
</svg>
