<svg width="95" height="17" viewBox="0 0 95 17" fill="none" xmlns="http://www.w3.org/2000/svg">
<g clip-path="url(#clip0_3303_26415)">
<path fill-rule="evenodd" clip-rule="evenodd" d="M0 15.2778H15.2778V0H0V15.2778Z" fill="#B8232F"/>
<path fill-rule="evenodd" clip-rule="evenodd" d="M77.9545 4.56923L79.234 4.35517V13.0762H77.9545V4.56923ZM82.9737 5.55428V11.0537C82.9737 11.9963 83.2111 12.3222 83.9853 12.3222C84.3335 12.3222 84.2416 12.3262 84.4635 12.2059L84.6379 13.0629C84.2416 13.2846 84.0958 13.3489 83.5424 13.3489C83.1314 13.3489 82.8157 13.2642 82.5147 13.1099C81.9621 12.8189 81.7566 12.2707 81.7566 11.4133V5.55428H80.7289V4.54375H81.7566V1.31055H83.0218V4.54375H84.998L84.6187 5.55428H82.9737ZM93.1099 12.8206C92.6184 12.8206 92.2213 12.399 92.2213 11.816C92.2213 11.2324 92.6184 10.8114 93.1099 10.8114C93.6017 10.8114 93.9991 11.2324 93.9991 11.816C93.9991 12.399 93.6017 12.8206 93.1099 12.8206ZM93.1099 10.569C92.4626 10.569 91.9344 11.1288 91.9344 11.816C91.9344 12.5026 92.4626 13.0618 93.1099 13.0618C93.7583 13.0618 94.2854 12.5026 94.2854 11.816C94.2854 11.1288 93.7583 10.569 93.1099 10.569ZM92.9053 11.7089V11.3046H93.126C93.2535 11.3046 93.3968 11.3318 93.3968 11.4977C93.3968 11.6877 93.2699 11.7089 93.1232 11.7089H92.9053ZM93.6444 11.5192C93.6444 11.2219 93.4714 11.1044 93.152 11.1044H92.6577V12.5176H92.9053V11.9091H93.0545L93.3996 12.5176H93.6537L93.2962 11.8992C93.5141 11.8774 93.6444 11.7605 93.6444 11.5192ZM92.5796 4.54375L89.8764 13.3834C89.3388 15.0979 88.706 16.2282 87.3312 16.5883L86.9675 15.6803C87.7371 15.4189 88.1407 15.039 88.4768 14.1105C88.3504 13.4372 88.2789 13.1445 88.2789 13.1445C88.1848 12.5963 87.7575 10.9334 87.4889 10.0775L85.7962 4.73232L87.015 4.2858L88.6277 9.81981C88.8643 10.6262 89.1011 11.9445 89.1011 11.9445H89.1334C89.1334 11.9445 89.433 10.8485 89.6235 10.1463L91.1721 4.54375H92.5796ZM54.5063 10.8997C54.5063 10.8997 54.3636 11.2596 54.0318 11.517C53.5253 11.9103 53.1615 12.0648 52.5148 12.0648C51.7873 12.0648 51.2966 11.7738 50.9334 11.071C50.6799 10.5747 50.6172 9.83737 50.6172 8.84354C50.6172 7.64443 50.7429 7.02803 51.1228 6.37681C51.4549 5.79438 51.9764 5.48604 52.594 5.48604C53.5253 5.48604 54.1115 5.77796 54.5063 6.37681V10.8997ZM55.7554 1.31055H54.5219V4.15046C54.5219 4.7663 54.5374 5.46905 54.5374 5.46905C54.064 4.78385 53.2882 4.39 52.404 4.39C51.8342 4.39 51.3919 4.54375 50.8857 4.92089C49.8105 5.7253 49.2579 7.06201 49.2579 8.8778C49.2579 11.6013 50.4278 13.1949 52.4659 13.1949C53.3834 13.1949 53.9849 12.9046 54.5533 12.2025C54.5688 12.6464 54.7274 13.0762 54.7274 13.0762H55.9925C55.8175 12.5785 55.7554 11.7905 55.7554 10.3184V1.31055ZM74.578 4.56102H76.6117L76.2329 5.57155H74.5306V11.071C74.5306 12.0139 74.7674 12.3401 75.5421 12.3401C75.8904 12.3401 75.7985 12.344 76.0204 12.2231L76.1948 13.0805C75.7985 13.3025 75.6527 13.3667 75.099 13.3667C74.6883 13.3667 74.3726 13.2818 74.0715 13.1278C73.519 12.8364 73.3129 12.288 73.3129 11.4309V5.57155H72.2858V4.56102H73.3129V1.32838H74.578V4.56102ZM70.989 5.60581C71.1154 5.91444 71.179 6.25647 71.179 6.59992V13.0768H69.9294V7.30211C69.9294 6.39351 69.8661 6.17181 69.6448 5.87989C69.4715 5.65763 69.1386 5.52002 68.7754 5.52002C68.142 5.52002 67.1632 6.0696 66.5939 6.71969V13.0768H65.3924V6.49743C65.3924 5.28048 65.0928 4.69806 65.0928 4.69806L66.2932 4.3379C66.2932 4.3379 66.5789 4.97072 66.5789 5.67462C67.3994 4.78385 68.2211 4.35517 69.06 4.35517C69.9138 4.35517 70.673 4.85265 70.989 5.60581ZM58.7802 8.02101C58.8424 6.25591 59.4752 5.36571 60.5973 5.36571C61.1988 5.36571 61.7514 5.65763 62.0199 6.11943C62.2573 6.53055 62.3681 7.09627 62.3836 8.02101H58.7802ZM60.6606 4.32035C59.7115 4.32035 58.9374 4.69806 58.3051 5.50275C57.6414 6.36095 57.3574 7.28484 57.3574 8.72434C57.3574 11.5518 58.6683 13.2642 60.8506 13.2642C61.8627 13.2642 62.8116 12.8877 63.506 12.2025L63.0315 11.3445C62.4789 11.8935 61.8627 12.1498 61.103 12.1498C60.3121 12.1498 59.5852 11.842 59.1428 11.1053C58.8738 10.661 58.7802 10.0432 58.7802 9.23852V9.03211H63.6954V8.84354C63.6649 6.80577 63.4738 6.00023 62.7957 5.24537C62.2573 4.64681 61.5142 4.32035 60.6606 4.32035ZM46.2695 13.0762H47.5346V1.32272H46.2695V13.0762Z" fill="#263746"/>
<path fill-rule="evenodd" clip-rule="evenodd" d="M44.9426 4.1605L45.834 5.59388C45.3716 6.04904 44.9267 6.23477 44.3378 6.23477C44.1307 6.23477 43.907 6.20179 43.7796 6.18496C44.0981 6.58825 44.2586 7.02703 44.2586 7.60036C44.2586 9.08367 42.9839 10.1638 41.2486 10.1638C41.1527 10.1638 41.089 10.1638 40.9303 10.1465C40.3894 10.417 40.087 10.6191 40.087 10.8546C40.087 10.9727 40.2137 11.0574 40.4369 11.0574L41.5838 11.0742C42.8249 11.0908 43.4774 11.2929 44.051 11.8501C44.5281 12.3219 44.7518 12.912 44.7518 13.6882C44.7518 14.4131 44.5445 14.9691 44.0981 15.4746C43.3824 16.2846 42.1554 16.5873 40.8821 16.5873C39.7209 16.5873 38.5263 16.3855 37.7944 15.6601C37.3484 15.2222 37.1258 14.7153 37.1258 14.1265C37.1258 13.6543 37.2366 13.4174 37.3166 13.2494H39.291C39.2109 13.4519 39.1945 13.5691 39.1945 13.8048C39.1945 14.4968 39.737 14.8669 40.724 14.8669C41.265 14.8669 41.7271 14.8007 42.0609 14.5807C42.3791 14.3786 42.5858 14.0587 42.5858 13.7043C42.5858 12.9293 41.9337 12.6927 41.089 12.6758L40.1818 12.6588C39.227 12.6412 38.6065 12.5581 38.2238 12.3888C37.8412 12.2375 37.6032 11.8501 37.6032 11.2597C37.6032 10.7037 37.7616 10.1799 39.0995 9.80986C37.9212 9.48902 37.3484 8.69653 37.3484 7.41555C37.3484 5.64507 38.702 4.49875 40.7869 4.49875C41.2486 4.49875 41.6624 4.56608 42.252 4.71723C42.6968 4.83483 42.9839 4.90319 43.2548 4.90319C43.8437 4.90319 44.4487 4.63341 44.9426 4.1605ZM31.4083 4.43108C31.6 4.78547 31.7113 5.15578 31.7113 5.50972C32.0294 5.27315 32.3003 5.07082 32.6508 4.86895C33.0804 4.63341 33.6382 4.49875 34.1151 4.49875C35.0228 4.49875 35.8189 5.00372 36.0734 5.7464C36.1847 6.06645 36.2328 6.4371 36.2328 6.97677V13.283H34.1306V7.66804C34.1306 6.6905 33.972 6.40412 33.4145 6.40412C32.9855 6.40412 32.4285 6.70779 31.935 7.17887V13.283H29.8007V7.02703C29.8007 6.28515 29.705 5.57705 29.5145 5.00372L31.4083 4.43108ZM28.0647 4.44677V13.283H25.9319V4.80093L28.0647 4.44677ZM20.3739 1.56455C22.2523 1.56455 22.8257 1.76642 23.4474 2.13765C24.481 2.74487 25.0376 3.82363 25.0376 5.1733C25.0376 6.72394 24.338 7.97182 23.1284 8.57858C22.6188 8.83153 22.1407 8.96664 20.9153 8.96664H19.6899V13.283H17.4609V1.56455H20.3739ZM40.7707 6.15038C39.9592 6.15038 39.4972 6.62329 39.4972 7.43215C39.4972 8.30915 40.0068 8.66263 40.7551 8.66263C41.5993 8.66263 42.0609 8.22465 42.0609 7.43215C42.0609 6.62329 41.5838 6.15038 40.7707 6.15038ZM21.1056 3.46923H19.6899V7.04421H20.8519C21.7592 7.04421 22.0301 6.92604 22.3317 6.4371C22.5238 6.11763 22.6024 5.77984 22.6024 5.22288C22.6024 4.12707 22.0456 3.46923 21.1056 3.46923ZM27.0298 0.873047C27.7463 0.873047 28.32 1.4971 28.32 2.2723C28.32 3.04774 27.7302 3.67225 26.9978 3.67225C26.282 3.67225 25.6927 3.04774 25.6927 2.2723C25.6927 1.4971 26.2978 0.873047 27.0298 0.873047Z" fill="#263746"/>
</g>
<defs>
<clipPath id="clip0_3303_26415">
<rect width="95" height="16.5873" fill="white"/>
</clipPath>
</defs>
</svg>
