<svg width="380" height="61" viewBox="0 0 380 61" fill="none" xmlns="http://www.w3.org/2000/svg">
<path fill-rule="evenodd" clip-rule="evenodd" d="M0 1.53564V60.0156H14.0392V39.5228L16.1595 39.6459H27.069C31.0657 39.6459 34.9571 39.3232 38.7409 38.6746C42.5765 38.0171 46.0404 36.9387 49.1074 35.4136L49.1231 35.4059L49.1388 35.3975C52.2507 33.7925 54.8138 31.6928 56.7666 29.0782C58.8376 26.3049 59.8123 22.9634 59.8123 19.1982C59.8123 15.3558 58.7473 11.9905 56.4645 9.29624C54.4095 6.78527 51.745 4.85407 48.5426 3.47487C45.4144 2.12713 41.9628 1.21691 38.2054 0.723545C34.6088 0.241593 31.0451 0 27.5154 0C24.3245 0 14.7676 0.0777551 11.4289 0.236966C8.07622 0.397102 4.93319 0.717989 2.00326 1.20364L0 1.53564ZM81.4274 0V60.0156H131.968L136.946 49.7003H95.4666V0H81.4274ZM182.976 0L154.431 60.0156H169.406L189.937 13.1284L210.588 60.0156H225.567L196.916 0H182.976ZM235.858 0V10.3151H260.193V60.0156H274.232V10.3151H298.567V0H235.858ZM337.407 0L308.862 60.0156H323.838L344.369 13.1284L365.018 60.0156H380L351.348 0H337.407ZM40.217 12.6261C38.5993 11.8563 36.7087 11.2904 34.5201 10.9553C32.2572 10.6088 29.9973 10.436 27.7387 10.436C25.7885 10.436 17.7057 10.4622 15.9636 10.5132C15.2475 10.5341 14.6096 10.5678 14.0465 10.6122L14.0392 28.9819C14.6969 28.9915 15.3802 29.0162 16.0744 29.0556H26.6229C29.0471 29.0556 31.4322 28.9063 33.7788 28.6086C36.1205 28.2698 38.1691 27.6977 39.9454 26.9149C41.6102 26.1812 42.8636 25.1818 43.7819 23.9365L43.8028 23.9081L43.8247 23.8804C44.6897 22.7761 45.2083 21.2784 45.2083 19.1991C45.2083 17.5419 44.759 16.3518 43.9938 15.4478L43.9556 15.4024L43.9195 15.3555C43.0884 14.2694 41.9135 13.3586 40.2983 12.6628L40.2573 12.6452L40.217 12.6261Z" fill="black"/>
</svg>
