<svg width="453" height="62" viewBox="0 0 453 62" fill="none" xmlns="http://www.w3.org/2000/svg">
<g clip-path="url(#clip0_316_1711)">
<path fill-rule="evenodd" clip-rule="evenodd" d="M171.267 0.861328C173.199 3.81059 175.148 6.76583 177.114 9.6999C179.09 12.6481 181.093 15.6009 183.037 18.5377C184.983 21.4777 186.987 24.4128 188.959 27.3635C190.926 30.3024 192.874 33.252 194.884 36.1906C194.806 40.4366 194.793 44.6821 194.754 48.9267C194.716 53.1662 194.627 57.4076 194.6 61.6403C200.883 61.6463 207.141 61.6533 213.425 61.6593C213.502 57.4263 213.54 53.1855 213.605 48.9398C213.669 44.6938 213.682 40.4483 213.759 36.2026C215.744 33.2647 217.744 30.3317 219.734 27.3765C221.709 24.4435 223.675 21.4883 225.658 18.5507C227.641 15.5998 229.624 12.6492 231.581 9.70614C233.539 6.76122 235.494 3.81059 237.479 0.8616H216.67C214.61 4.29178 212.576 7.72549 210.54 11.1416C208.505 14.5568 206.446 17.9846 204.412 21.4031C202.35 17.9846 200.291 14.5544 198.257 11.1348C196.197 7.72332 194.161 4.29178 192.128 0.861871H171.268L171.267 0.861328ZM131.273 61.5852C124.861 61.5795 118.45 61.5795 112.063 61.5795C113.968 56.5253 121.667 36.2808 123.6 31.2328C125.506 26.1658 127.51 21.1186 129.445 16.0492C131.372 11.0034 133.334 5.92803 135.239 0.861328H155.765C157.619 5.92803 159.498 11.001 161.379 16.062C163.258 21.123 165.189 26.19 167.045 31.2572C168.898 36.3114 170.776 41.3792 172.633 46.4451C174.485 51.5015 176.366 56.5731 178.272 61.6273C171.68 61.6227 165.138 61.617 158.597 61.6096C152.804 61.6039 147.033 61.598 141.264 61.598C142.528 56.8526 143.815 52.1029 145.052 47.3516C148.322 47.3575 151.567 47.3575 154.837 47.3646C154.272 45.5457 146.314 20.2586 145.232 16.6156C144.074 20.2586 132.047 58.8865 131.299 61.5852H131.273ZM61.8452 0.861328H80.6435C80.4375 16.1051 80.3602 31.3636 80.3602 46.6101C90.1212 46.6158 99.9319 46.6218 109.693 46.6286C109.72 51.609 109.693 56.5989 109.667 61.5733C93.6241 61.5616 77.5797 61.5499 61.5622 61.5372C61.5353 56.4887 61.5109 51.4336 61.5109 46.3783C61.5109 31.2056 61.6911 16.0329 61.8455 0.861328H61.8452ZM0.424922 0.861328H31.6621C38.4603 0.861328 43.5089 2.47912 46.8313 5.72123C50.2039 8.93266 51.8011 13.5434 51.7753 19.4867C51.698 25.6244 49.8954 30.3928 46.1607 33.8474C42.4534 37.2849 36.7874 39.0126 29.1911 39.0126H28.6236C28.5204 34.7425 28.4162 30.484 28.3402 26.2138C29.5501 25.9036 30.5198 25.4382 31.2241 24.8403C32.7089 23.5767 33.4647 21.9741 33.4647 20.0341C33.516 18.1235 32.8213 16.5185 31.5848 15.1859C30.3491 13.8721 27.979 13.1968 24.4517 13.1968H19.0956C18.9681 29.1829 18.6837 45.3139 19.0169 61.5C12.7336 61.4954 6.44965 61.4883 0.114445 61.481C0.0384536 56.4398 0.0115854 51.3848 0.0115854 46.3363C0.0115854 41.288 -0.0133831 36.2327 0.0115854 31.1834C0.0384536 26.1351 0.0628793 21.0801 0.140227 16.0316C0.217033 10.9833 0.294381 5.92233 0.42438 0.861328H0.424922Z" fill="#FE0008"/>
<path fill-rule="evenodd" clip-rule="evenodd" d="M398.425 1.14648C416.365 1.17091 434.328 1.19696 452.316 1.21542C452.339 6.1106 452.387 10.9995 452.412 15.8936C446.368 15.8936 440.324 15.8936 434.304 15.8877C434.328 23.3576 434.364 30.8289 434.424 38.2863C434.482 45.7502 434.541 53.2145 434.589 60.6784C428.665 60.6901 422.74 60.7028 416.839 60.7148C416.791 53.2516 416.744 45.7747 416.696 38.3047C416.65 30.8408 416.602 23.3576 416.579 15.882C410.535 15.876 404.493 15.876 398.497 15.876C398.472 10.9621 398.425 6.06039 398.425 1.14648Z" fill="#FE0008"/>
<path fill-rule="evenodd" clip-rule="evenodd" d="M371.977 1.11719C377.878 1.12316 383.802 1.12886 389.727 1.13619C389.773 11.0758 389.834 21.0282 389.868 30.96C389.904 40.8996 389.989 50.8452 390.036 60.7837C384.088 60.7967 378.162 60.8092 372.237 60.8282C372.19 50.8826 372.13 40.9183 372.096 30.973C372.06 21.0282 372.023 11.0688 371.977 1.11719Z" fill="#FE0008"/>
<path fill-rule="evenodd" clip-rule="evenodd" d="M322.782 31.1344C322.794 37.196 323.872 41.5351 326.027 44.1921C328.209 46.829 331.147 48.1512 334.845 48.1453C338.659 48.1393 341.599 46.835 343.684 44.2543C345.769 41.6545 346.813 37.0017 346.789 30.3061C346.767 24.6567 345.652 20.5467 343.471 17.9402C341.29 15.3405 338.353 14.0432 334.607 14.0432C331.029 14.0432 328.185 15.3465 326.005 18.0023C323.872 20.6406 322.77 25.0312 322.782 31.1347L322.782 31.1344ZM305.031 31.0538C305.031 26.1529 305.671 21.7935 306.974 17.9774C308.277 14.1678 310.226 10.892 312.828 8.16964C318.045 2.71186 325.294 -0.015135 334.583 6.31757e-05C344.158 0.0152614 351.505 2.70724 356.695 8.06895C359.277 10.7376 361.246 13.9501 362.525 17.6962C363.804 21.4436 364.487 25.723 364.516 30.536C364.535 34.034 364.254 37.227 363.709 40.0886C363.165 42.9559 362.298 45.5076 361.173 47.7517C358.933 52.2219 355.699 55.7199 351.434 58.2271C347.168 60.7332 341.883 61.9862 335.484 61.999C329.015 62.0153 323.635 60.959 319.37 58.8144C315.128 56.6563 311.691 53.2586 309.012 48.5942C307.686 46.2555 306.677 43.6205 306.027 40.7063C305.375 37.7852 305.031 34.5632 305.031 31.0535L305.031 31.0538Z" fill="#FE0008"/>
<path fill-rule="evenodd" clip-rule="evenodd" d="M262.871 14.5747C262.896 20.0615 262.896 25.5484 262.896 31.0297V47.4742C264.34 47.4742 265.787 47.4685 267.232 47.4672C270.952 47.4625 273.583 47.0367 275.147 46.1628C276.711 45.3098 277.943 43.7946 278.844 41.649C279.698 39.5106 280.148 36.018 280.148 31.1923C280.148 24.8256 279.153 20.4735 277.161 18.1159C275.171 15.7585 271.9 14.578 267.279 14.5747C265.811 14.5733 264.34 14.5804 262.871 14.5747ZM245.169 0.900391C253.936 0.912061 262.706 0.922645 271.475 0.937843C276.663 0.945714 280.859 1.69124 284.057 3.16872C287.234 4.6595 289.888 6.7745 291.973 9.53541C294.058 12.3104 295.6 15.5091 296.548 19.1817C297.471 22.8423 297.936 26.7216 297.945 30.8246C297.959 37.2464 297.281 42.2292 295.883 45.7763C294.51 49.3118 292.566 52.2869 290.078 54.6752C287.612 57.0746 284.934 58.6718 282.091 59.4835C278.204 60.5797 274.672 61.1331 271.522 61.1423C262.73 61.1635 253.936 61.1857 245.169 61.2033V31.0542V0.900391Z" fill="#FE0008"/>
</g>
<defs>
<clipPath id="clip0_316_1711">
<rect width="452.412" height="62" fill="white"/>
</clipPath>
</defs>
</svg>
