<svg width="445" height="86" viewBox="0 0 445 86" fill="none" xmlns="http://www.w3.org/2000/svg">
<path fill-rule="evenodd" clip-rule="evenodd" d="M39.7042 22.2919C40.3691 23.8841 42.0139 29.2558 42.7488 31.548C42.9237 32.1079 43.0987 32.6153 43.2737 33.1403C43.5536 34.0326 43.4837 34.3476 43.9561 34.4701H56.3618C56.2218 34.8375 47.0881 41.4166 46.1258 41.959L50.0627 54.2422L42.3113 48.6255C41.8214 48.2406 41.4889 48.0306 40.999 47.6806C40.5791 47.3832 40.2291 47.0682 39.7567 46.7883C38.9693 47.1382 32.8277 51.7401 31.8129 52.4749C31.1655 52.9474 29.9756 53.9097 29.2932 54.1897L33.1952 41.9065L27.9809 38.232C27.421 37.7946 23.2741 34.925 22.9767 34.4701L35.7148 34.4526L39.7042 22.2919ZM8.38379 51.3551C8.38379 59.2465 15.1203 66.0705 22.2943 66.0705C25.8637 66.0705 28.7508 65.5805 31.6029 63.4283C34.6474 61.1187 35.6798 58.4766 36.6771 58.4766C37.4295 58.4766 37.972 58.844 37.972 59.6139C37.972 61.3111 37.0096 64.6357 36.5372 65.9305C32.7402 76.4814 26.1612 77.4788 25.5138 78.3712H53.9821L52.6873 77.7237C52.2324 77.4963 51.8649 77.3038 51.4275 77.0413C47.1581 74.4517 44.3935 70.5673 42.8013 65.773C42.3113 64.3032 41.3665 61.1887 41.3665 59.2814C41.3665 59.0715 42.7488 57.4617 44.0611 59.5089C45.7408 62.151 48.208 64.0757 51.13 65.1956C60.0187 68.6251 70.9546 62.3785 70.9546 51.0402C70.9546 42.2389 64.2531 32.4054 58.549 25.9313L56.2918 23.5167C55.4694 22.6943 54.7695 21.9944 53.9471 21.172L42.1364 9.51873C41.4714 8.85382 40.4566 7.6815 39.7567 7.22656C39.1443 7.38404 38.8993 7.82147 38.4969 8.22392C38.0594 8.67885 37.727 8.9938 37.2896 9.44874C35.4698 11.2685 30.4656 16.4127 29.0483 17.5501C28.6108 17.9 28.2434 18.3199 27.8234 18.7399L18.6898 28.5209C17.9899 29.3958 17.255 30.2707 16.6251 31.1456C12.5657 36.9372 8.38379 43.8662 8.38379 51.3551Z" fill="#D70022"/>
<path fill-rule="evenodd" clip-rule="evenodd" d="M252.543 41.0138H243.811V32.7725H251.895C255.377 32.7725 257.389 33.8573 257.389 37.1293C257.389 39.7889 255.202 41.0138 252.543 41.0138ZM235.728 58.9661H243.811V47.3128C249.376 47.3128 248.781 46.8229 250.058 48.5202C250.46 49.0801 250.74 49.4475 251.16 50.0074C251.755 50.7948 257.582 58.4587 257.722 58.9661H267.415C267.083 58.4587 266.663 57.9863 266.296 57.5138L257.879 46.8404C262.569 45.7381 265.648 41.9236 265.648 37.3043C265.648 34.4172 265.193 31.2852 262.831 29.273C261.064 27.7857 258.544 26.6309 256.095 26.6309H235.728V58.9661Z" fill="#1D1D1B"/>
<path fill-rule="evenodd" clip-rule="evenodd" d="M385.786 41.0138H377.212V32.7725C380.24 32.7725 386.941 32.335 389.076 33.5248C391.473 34.8547 391.368 38.9666 389.216 40.2439C388.393 40.7338 387.064 41.0138 385.786 41.0138ZM369.286 58.9661H377.212V47.3128H382.707C382.847 47.8203 389.881 57.0589 390.581 58.0388C391.49 59.2986 391.385 58.9661 393.38 58.9661C395.865 58.9661 398.349 58.9661 400.817 58.9661L391.438 46.8404C393.888 46.263 395.847 44.9507 397.16 43.1659C399.977 39.299 399.924 32.6325 396.25 29.2555C394.797 27.8907 392.103 26.6309 389.338 26.6309H369.286V58.9661Z" fill="#1D1D1B"/>
<path fill-rule="evenodd" clip-rule="evenodd" d="M144.216 32.772C147.663 32.772 149.746 33.0345 152.248 35.7116C155.73 39.4036 156.605 52.8241 144.689 52.8241C143.289 52.8241 141.784 52.4392 140.804 52.0017C135.818 49.7796 134.645 43.8129 136.063 39.0186C136.465 37.6363 137.007 36.7965 137.742 35.8341C138.88 34.3293 141.574 32.772 144.216 32.772ZM127.069 42.7981C127.069 48.0823 128.679 51.5818 132.038 54.9588C137.305 60.2605 148.818 60.7855 155.292 56.9535C160.786 53.7165 162.956 48.7997 162.956 42.3082C162.956 39.806 162.274 36.9889 161.451 35.2392C160.996 34.2418 160.489 33.4195 159.894 32.5971C158.092 30.1124 155.275 28.2227 152.353 27.2079C151.198 26.8054 150.358 26.5955 148.993 26.368C144.251 25.5806 138.862 26.0705 134.698 28.5902C129.606 31.6872 127.069 36.5165 127.069 42.7981Z" fill="#1D1D1B"/>
<path fill-rule="evenodd" clip-rule="evenodd" d="M346.487 32.615C346.889 33.0699 347.537 34.9596 347.852 35.7645C348.341 36.9718 348.691 37.9517 349.146 39.1765C349.426 39.9289 351.613 45.2306 351.666 45.8605H341.482C341.85 44.2508 346.119 34.2247 346.487 32.615ZM327.729 58.9661H336.461C336.548 58.0213 338.665 53.332 338.893 52.3346H354.256C354.816 53.5069 356.338 58.0213 356.845 58.9661H365.401L358.735 42.676C357.633 39.8939 356.495 37.2343 355.41 34.5222L352.488 27.4182C352.296 26.9633 352.348 26.6309 351.823 26.6309H341.325C340.748 26.6309 340.73 27.2608 340.293 28.3631L327.729 58.9661Z" fill="#1D1D1B"/>
<path fill-rule="evenodd" clip-rule="evenodd" d="M204.355 58.9661H230.234V52.6496C230.234 52.2821 230.111 52.1771 229.744 52.1771H212.439V45.5456H228.291V39.229H212.439V33.2449H229.744C230.111 33.2449 230.234 33.1399 230.234 32.7725V26.6309H204.355V58.9661Z" fill="#1D1D1B"/>
<path fill-rule="evenodd" clip-rule="evenodd" d="M167.82 58.9661H175.747V51.8447C175.747 51.5297 180.366 46.228 180.908 45.8605C181.346 46.1755 182.903 48.4152 183.393 49.0451L190.619 58.9661H200.471L188.047 42.606C187.452 41.8186 186.77 40.9963 186.245 40.2089L190.987 35.2396C191.267 34.9421 191.512 34.7322 191.792 34.4172C192.142 34.0323 192.194 33.8573 192.597 33.4549C193.139 32.8949 193.699 32.405 194.206 31.8451L199.018 26.6309H189.5C188.905 26.7358 188.59 27.2258 188.222 27.6282L179.264 37.7417C179.054 37.9692 178.896 38.0742 178.686 38.3016C178.389 38.6341 178.389 38.7041 178.109 39.019L175.747 41.5037V26.6309H167.82V58.9661Z" fill="#1D1D1B"/>
<path fill-rule="evenodd" clip-rule="evenodd" d="M403.738 36.8152C403.738 39.5273 404.561 41.697 406.59 43.3242C408.095 44.5316 409.512 45.0915 411.577 45.4589C413.502 45.7914 415.287 45.8089 417.159 45.8614C417.981 45.8789 418.156 46.0188 419.101 46.0363C426.45 46.0538 425.855 52.4929 418.611 52.4929C413.397 52.4929 409.88 52.3704 404.858 51.1981V58.3195L410.527 59.1069C416.319 59.5444 422.548 60.0518 427.552 57.0772C430.334 55.4325 431.927 52.4929 432.189 49.4658V47.6286C431.857 43.9366 429.495 40.4896 424.84 39.4573C424.228 39.3348 423.86 39.2648 423.213 39.1598L419.241 38.9149C418.419 38.8974 418.261 38.7399 417.316 38.7399C414.989 38.7574 411.49 38.5299 411.49 36.3253C411.49 34.558 411.752 33.6132 414.727 32.9308C417.001 32.4233 422.775 32.8608 425.12 33.2107L430.089 34.0681C430.089 26.1592 430.632 27.2791 428.357 26.8941C425.593 26.4567 419.836 25.7393 417.264 26.0893C415.724 26.2992 415.514 26.0543 412.907 26.5792C411.752 26.8067 410.177 27.3316 409.285 27.804C405.751 29.7112 403.738 32.4933 403.738 36.8152Z" fill="#1D1D1B"/>
<path fill-rule="evenodd" clip-rule="evenodd" d="M270.338 36.3238C270.338 39.8932 271.125 42.1329 274.012 43.9527C276.217 45.3349 279.856 45.8424 282.446 45.8774C284.843 45.8949 289.708 45.8074 290.6 48.082C291.825 51.1791 288.01 52.4914 285.211 52.4914C281.974 52.4914 279.612 52.5264 276.427 52.054C275.395 51.914 274.625 51.8265 273.61 51.634C270.6 51.1091 271.3 49.7793 271.3 57.8281C271.3 58.388 271.843 58.3705 272.315 58.4405C278.964 59.5254 288.203 60.5052 293.889 57.1282C297.126 55.221 298.474 52.4214 298.474 48.1345C298.474 43.1478 295.447 40.3832 290.897 39.3508C285.981 38.2485 277.932 40.0157 277.932 35.8338C277.932 30.0247 295.219 34.0316 296.357 34.0666C296.357 26.2627 296.899 27.2601 294.764 26.9276C294.082 26.8227 293.47 26.7002 292.682 26.5952C286.733 25.7553 277.599 25.2479 273.207 29.6572C271.633 31.2145 270.338 33.2792 270.338 36.3238Z" fill="#1D1D1B"/>
<path fill-rule="evenodd" clip-rule="evenodd" d="M109.606 41.6612H102.17V32.7725H110.411C117.375 32.7725 115.975 39.3515 113.946 40.6638C112.878 41.3637 111.321 41.6612 109.606 41.6612ZM94.2437 58.9661H102.17V48.2927C106.054 48.2927 112.336 48.5726 115.783 47.6803C124.584 45.4056 125.897 35.1171 121.207 29.5704C119.877 28.0132 116.43 26.6309 114.138 26.6309H94.2437V58.9661Z" fill="#1D1D1B"/>
<path fill-rule="evenodd" clip-rule="evenodd" d="M300.731 32.9299C300.731 33.2974 300.836 33.4199 301.221 33.4199H311.562V58.9661H319.488V33.4199H330.162V26.6309H300.731V32.9299Z" fill="#1D1D1B"/>
</svg>
