<svg width="494" height="120" viewBox="0 0 494 120" fill="none" xmlns="http://www.w3.org/2000/svg">
<g clip-path="url(#clip0_316_1837)">
<path d="M57.1242 0.11846C81.4101 1.83218 102.865 22.0652 105.781 46.847C110.151 83.9408 77.7827 114.496 41.8025 106.472C37.7033 105.556 33.9676 103.763 29.9535 102.578C29.8684 103.005 29.7601 103.416 29.5436 103.803C25.0963 111.708 19.837 123.151 8.80782 119.194C1.63035 116.62 0.524337 110.902 0.276839 103.976C-0.272299 88.7029 0.106683 72.1895 0.54754 56.9003C0.679024 52.2093 0.485666 48.3238 1.35191 43.6249C5.6058 20.4225 25.9935 1.72162 49.2197 0.11846C51.5014 -0.0394867 54.8503 -0.0394867 57.132 0.11846H57.1242ZM82.9879 23.3682C61.587 1.72952 24.5936 9.69003 13.9357 38.3179C12.6286 41.8243 11.3447 46.6022 11.1436 50.3218C10.1304 68.8569 11.9402 88.3475 11.1436 106.985C11.4066 109.978 14.0362 109.346 15.0185 107.135L34.2847 74.8825C34.4704 74.1165 31.6937 71.4314 31.0672 70.5785C17.1454 51.7117 31.7015 24.537 54.773 25.7927C76.3595 26.9694 88.3168 52.3672 75.7176 70.2784C74.9983 71.2971 72.1211 74.0928 72.2449 74.9457L79.3837 87.2024C79.6466 87.2813 79.8632 87.1787 80.103 87.076C80.9228 86.7364 83.9315 83.5459 84.6894 82.6851C99.6322 65.5874 98.9515 39.4946 82.9956 23.3603L82.9879 23.3682ZM36.1332 93.2359C39.0104 94.4205 42.1583 95.613 45.2134 96.2053C50.9754 97.3267 58.8877 96.9161 64.5956 95.4551C65.4928 95.2261 69.9942 93.844 70.2107 93.1017C70.3577 92.5962 68.8959 90.2112 68.5401 89.5716C66.5215 85.9151 59.9859 76.9832 59.6302 73.4768C59.2434 69.6861 61.9041 69.1175 64.178 67.0957C78.9273 53.9467 64.41 30.7996 46.7525 38.0178C35.7697 42.5113 32.8539 57.0188 40.9363 65.8322C43.9372 69.1017 48.4154 69.5202 46.4431 75.2142C46.1879 75.9566 45.6774 76.8648 45.3062 77.5834C42.5682 82.8588 38.4999 87.7236 36.1332 93.2517V93.2359Z" fill="#EC6939"/>
<path d="M144.861 74.1235C144.513 74.0603 144.498 74.5736 144.444 74.8184C142.518 83.0317 142.015 92.1294 140.097 100.351C139.811 101.582 139.494 102.822 138.055 103.051C136.152 103.359 130.46 103.265 128.418 103.075C127.652 103.004 126.763 102.854 126.585 101.93L139.053 31.3199C139.378 31.1067 139.795 30.7829 140.159 30.6881C141.512 30.3327 148.318 30.3801 149.935 30.5618C153.609 30.9724 150.739 36.2873 150.917 38.617C159.533 28.4374 178.343 25.0573 186.085 38.0405C192.93 49.5233 187.679 67.5292 178.359 76.1294C168.722 85.0218 152.023 86.8856 144.861 74.1077V74.1235ZM162.851 41.4759C145.109 42.8895 140.917 73.5706 160.732 71.2883C177.361 69.3693 181.638 39.9833 162.851 41.4759Z" fill="#353535"/>
<path d="M358.64 38.8842C359.174 37.3047 359.475 31.8003 360.69 31.0027C361.038 30.7736 361.564 30.6236 361.973 30.5762C364.015 30.3472 369.344 30.3314 371.378 30.5762C372.198 30.671 372.979 31.1053 373.219 31.974L364.34 81.5693C363.892 81.9958 363.59 82.1221 362.979 82.1932C360.929 82.438 355.384 82.438 353.326 82.1932C350.001 81.7983 352.785 76.3492 352.468 74.13C345.445 82.5012 331.508 86.6473 322.095 80.0214C310.122 71.595 313.286 51.9464 320.734 41.4271C327.293 32.1715 339.822 26.4933 350.658 31.2949C354.162 32.8427 356.606 35.7174 358.64 38.8921V38.8842ZM343.519 41.4745C325.475 42.896 321.5 73.5851 341.4 71.287C358.106 69.36 362.26 39.9977 343.519 41.4745Z" fill="#353535"/>
<path d="M408.268 29.6458C419.792 28.8876 431.131 34.6921 432.964 47.1383C433.072 47.8965 433.397 50.7395 433.227 51.3002C433.041 51.9162 432.237 52.1689 431.672 52.2321C428.347 52.627 424.247 51.9715 420.844 52.1768C418.617 50.5105 419.089 47.8175 417.31 45.4562C410.333 36.1689 395.963 43.9083 392.916 53.5431C387.339 71.1857 405.979 77.2114 415.469 65.4365C416.536 64.1176 417.696 61.1877 419.22 60.706C420.342 60.3506 428.277 60.3585 429.623 60.5954C430.969 60.8323 431.231 61.5273 430.984 62.8698C430.164 67.245 424.116 74.1235 420.643 76.7533C404.13 89.2311 376.48 83.9241 378.158 59.1581C379.241 43.1739 392.838 30.6645 408.26 29.6536L408.268 29.6458Z" fill="#353535"/>
<path d="M461.459 63.0451L480.818 31.4162C481.421 30.9424 482.071 30.666 482.836 30.5791C484.499 30.3896 491.159 30.3343 492.613 30.6897C495.204 31.3215 493.518 33.4459 492.698 34.8358L449.834 102.192C449.316 102.769 449.022 102.99 448.233 103.085C446.036 103.345 440.823 103.298 438.581 103.085C436.786 102.919 436.392 102.05 437.281 100.471L452.827 77.2919L453.067 76.5258L439.818 33.359C439.493 31.6137 439.725 30.7766 441.558 30.5791C443.863 30.3343 448.89 30.3422 451.211 30.5633C453.91 30.8239 453.84 33.0668 454.467 35.3017C457.019 44.4784 459.123 53.8131 461.459 63.0451Z" fill="#353535"/>
<path d="M282.527 68.3363C283.23 67.5861 283.81 66.4094 284.298 65.4854C290.284 54.1843 295.961 42.7016 302.04 31.4558C302.597 30.8477 303.595 30.6424 304.384 30.5713C306.665 30.366 311.546 30.3265 313.789 30.5792C315.196 30.7371 316.07 31.2741 315.506 32.8299L289.194 80.7904C288.668 81.359 288.149 82.054 287.33 82.1646C283.138 81.8645 278.342 82.6068 274.228 82.1962C272.511 82.0224 272.402 80.8615 272.016 79.4163C268.001 64.4035 266.137 48.0718 262.278 32.9326C262.108 31.3847 262.928 30.745 264.359 30.5792C266.563 30.3265 271.528 30.3581 273.756 30.5713C274.63 30.6582 275.45 30.7924 275.96 31.5979L282.527 68.3363Z" fill="#353535"/>
<path d="M215.237 31.1467C216.25 32.2444 214.293 39.0045 214.092 40.8051C214.061 41.0815 213.868 41.7133 214.309 41.6501C217.364 36.3273 222.755 31.6284 228.703 30.0015C231.077 29.354 234.565 28.0825 234.325 31.7074C234.217 33.3263 232.987 39.6679 232.4 41.0736C232.183 41.5948 231.951 42.1161 231.379 42.2977C222.113 43.0874 213.798 46.9018 211.47 56.7577C209.738 64.0785 209.274 72.1496 207.565 79.4625C207.232 80.8841 206.93 81.9897 205.298 82.1871C202.181 82.5662 198.221 81.9897 195.027 82.0687C193.767 81.6185 193.991 80.4497 194.084 79.3204L202.328 32.0864C202.731 31.0598 203.535 30.6965 204.556 30.578C206.59 30.3411 211.671 30.3411 213.706 30.578C214.085 30.6175 215.005 30.8939 215.245 31.1546L215.237 31.1467Z" fill="#353535"/>
<path d="M241.81 31.1549C242.08 30.8784 242.931 30.6178 243.341 30.5705C245.251 30.3572 251.408 30.3019 253.218 30.5941C254.68 30.8311 254.718 32.1578 254.564 33.4372L246.365 80.7185C246.033 81.4767 245.677 82.0216 244.818 82.1637C243.209 82.4244 236.078 82.4244 234.47 82.1637C233.124 81.9505 232.954 80.7975 233.124 79.5655C236.457 64.4658 237.672 48.2921 241.075 33.295C241.199 32.7422 241.446 31.526 241.81 31.147V31.1549Z" fill="#353535"/>
<path d="M257.456 19.9092C252.823 26.7167 239.574 24.5528 243.101 14.4758C245.908 6.47583 260.433 6.32579 258.925 16.2448C258.747 17.3978 258.105 18.9536 257.456 19.9092Z" fill="#EC6939"/>
<path d="M473.997 84.0027C483.611 82.4548 485.861 96.6226 477.091 98.7312C467.129 101.124 464.321 85.5584 473.997 84.0027ZM470.934 87.051C465.296 92.8003 473.92 101.416 479.504 95.9039C485.088 90.3916 476.704 81.1754 470.934 87.051Z" fill="#353535"/>
<path d="M475.918 87.4618C478.548 87.8567 478.95 91.2762 476.289 91.7422C476.05 92.0186 478.633 94.6326 478.509 95.5171C476.336 96.1015 476.56 93.6139 475.315 92.603C474.657 92.0739 474.085 92.2397 473.319 92.2476V95.525H472.082V87.4697C473.281 87.5961 474.758 87.296 475.91 87.4697L475.918 87.4618ZM476.475 90.676C478.2 88.9228 473.977 87.912 473.428 88.7096C473.134 89.1361 473.404 90.4154 473.319 90.9919C474.093 90.9051 475.933 91.2289 476.475 90.676Z" fill="#353535"/>
</g>
<defs>
<clipPath id="clip0_316_1837">
<rect width="494" height="120" fill="white"/>
</clipPath>
</defs>
</svg>
