<svg width="212" height="87" viewBox="0 0 212 87" fill="none" xmlns="http://www.w3.org/2000/svg">
<path fill-rule="evenodd" clip-rule="evenodd" d="M165.1 33.357C164.806 34.9122 164.34 36.7079 163.716 38.6872C163.089 40.6661 162.285 42.7538 161.336 44.8706C160.305 47.0043 159.236 49.0005 158.164 50.799C157.104 52.5803 156.043 54.1126 155.027 55.3527C154.035 56.5615 153.113 57.4548 152.294 58.0104C151.676 58.4286 151.331 58.4743 151.213 58.4743C151.158 58.4743 151.113 58.4659 151.066 58.4452C150.962 58.3998 150.618 58.1761 150.468 57.1134C150.327 56.1398 150.403 54.8594 150.689 53.3102C150.983 51.7149 151.446 49.9019 152.073 47.9342C152.691 45.9669 153.496 43.8789 154.459 41.7339C155.413 39.6059 156.456 37.6209 157.563 35.8312C158.665 34.0439 159.737 32.5288 160.753 31.326C161.74 30.1517 162.661 29.2725 163.492 28.7082C164.114 28.2901 164.455 28.2443 164.573 28.2443C164.633 28.2443 164.677 28.2529 164.717 28.2735C164.821 28.3168 165.165 28.5427 165.318 29.6052C165.456 30.579 165.383 31.8391 165.1 33.357ZM123.754 33.357C123.459 34.9122 122.994 36.7079 122.369 38.6872C121.739 40.6774 120.935 42.7626 119.99 44.8706C118.956 47.0099 117.887 49.0061 116.818 50.799C115.754 52.5832 114.697 54.1155 113.681 55.3527C112.688 56.5615 111.769 57.4548 110.945 58.0104C110.326 58.4286 109.984 58.4743 109.866 58.4743C109.811 58.4743 109.766 58.4659 109.719 58.4464C109.616 58.4007 109.272 58.1771 109.121 57.1146C108.98 56.1436 109.054 54.8663 109.342 53.3111C109.634 51.7187 110.099 49.9116 110.727 47.9355C111.345 45.965 112.149 43.8798 113.112 41.7349C114.069 39.6012 115.115 37.6162 116.214 35.8321C117.321 34.042 118.393 32.5269 119.406 31.327C120.396 30.1527 121.321 29.2706 122.146 28.7093C122.764 28.2911 123.109 28.2453 123.226 28.2453C123.286 28.2453 123.33 28.2539 123.371 28.2735C123.474 28.3168 123.821 28.5427 123.972 29.6052C124.11 30.579 124.036 31.8391 123.754 33.357ZM78.9553 32.9561C78.7727 34.5372 78.4191 36.3414 77.9038 38.3232C77.3854 40.2993 76.6785 42.3789 75.7977 44.5097C74.92 46.629 73.9863 48.6224 73.0175 50.4322C72.069 52.2023 71.1118 53.7117 70.1662 54.9201C69.2475 56.0944 68.3846 56.9708 67.5981 57.5237C67.018 57.9334 66.6938 57.9791 66.5848 57.9791C66.5346 57.9791 66.4902 57.9707 66.4435 57.95C66.3376 57.9043 65.9721 57.6722 65.7835 56.5925C65.6069 55.6042 65.5921 54.3297 65.7334 52.8005C65.8809 51.2482 66.2136 49.4637 66.726 47.4992C67.2385 45.5315 67.9482 43.4495 68.8319 41.3129C69.7214 39.1648 70.658 37.1743 71.6152 35.3873C72.5577 33.6201 73.518 32.0934 74.4693 30.8477C75.3824 29.6449 76.2484 28.757 77.0318 28.2043C77.6119 27.7946 77.9361 27.7489 78.0479 27.7489C78.098 27.7489 78.1425 27.7574 78.1832 27.778C78.2954 27.8235 78.675 28.0645 78.908 29.1585C79.1141 30.1323 79.1314 31.4068 78.9553 32.9561ZM169.542 19.8218C171.707 19.8218 173.568 20.4662 175.076 21.7407C176.531 22.9694 177.571 24.725 178.163 26.9561C178.737 29.1184 178.855 31.7332 178.516 34.7317C178.177 37.6933 177.288 41.0727 175.865 44.776C174.525 48.2757 172.988 51.3547 171.303 53.9235C170.487 55.1723 169.648 56.3409 168.797 57.4206C168.688 57.5581 168.85 57.7386 169.006 57.6555C169.501 57.3949 169.992 57.1112 170.478 56.802C171.586 56.106 172.649 55.3555 173.659 54.5621C176.478 52.3426 178.525 49.3413 179.521 45.9675C180.116 43.9368 180.775 41.9234 181.494 39.9385C182.672 36.6709 183.93 33.6207 185.234 30.8712C186.531 28.1303 187.608 26.0797 188.439 24.7709C189.382 23.2816 190.701 22.3536 192.371 22.0099C193.932 21.6892 195.425 21.712 196.798 22.0727C198.203 22.445 199.352 23.121 200.209 24.089C201.142 25.1458 201.346 26.3487 200.792 27.5687C200.627 27.9897 200.194 28.9521 199.505 30.4327C198.812 31.9221 198.035 33.6605 197.131 35.7569C196.262 37.7704 195.369 39.9498 194.48 42.2298C193.611 44.4693 192.931 46.5601 192.459 48.4445C192 50.2775 191.82 51.801 191.923 52.9725C192.024 54.0923 192.462 54.0923 192.701 54.0923C193.037 54.0923 193.632 53.9375 194.557 53.2046C195.446 52.4886 196.386 51.6266 197.355 50.6299C198.324 49.6304 199.254 48.5535 200.114 47.4306C200.901 46.4082 201.575 45.5033 202.123 44.7384C202.6 44.0712 203.36 43.6903 204.205 43.6903C205.098 43.6903 205.964 44.1257 206.414 44.7985C206.853 45.4572 206.841 46.2422 206.376 46.9466C205.793 47.8315 204.774 49.3153 203.26 51.4891C201.761 53.6369 199.967 55.8507 197.929 58.0734C195.855 60.3274 193.59 62.3292 191.19 64.0219C188.666 65.806 186.115 66.7084 183.615 66.7084C181.353 66.7084 179.665 65.9463 178.596 64.44C177.624 63.0653 177.129 61.221 177.129 58.9583V58.5974C177.135 58.328 176.811 58.1764 176.596 58.3453C176.122 58.7149 175.633 59.0814 175.135 59.4422C172.195 61.5703 168.802 63.3748 165.044 64.8093C161.689 66.0926 157.993 66.7426 154.058 66.7426L153.257 66.7341L152.453 66.7081C149.772 66.7025 147.784 65.8862 146.539 64.2737C146.318 63.9902 146.114 63.698 145.935 63.3973C145.79 63.1568 145.416 63.1968 145.334 63.4656C144.931 64.7743 144.548 66.0375 144.194 67.2459C143.428 69.8435 142.774 72.0919 142.2 74.1197C141.623 76.1532 141.122 78.0062 140.71 79.6356C140.312 81.2052 140.035 82.4769 139.894 83.4191L139.885 83.4538C139.523 85.2383 138.283 85.8654 137.302 86.0802C136.866 86.1745 136.412 86.2234 135.953 86.2234C135.123 86.2234 134.245 86.0658 133.346 85.7595C131.98 85.2897 130.751 84.4793 129.691 83.348C128.593 82.1737 128.036 80.7047 128.036 78.9803C128.036 78.6311 128.127 77.8662 128.831 75.0509C129.359 72.9745 130.068 70.3913 130.949 67.3697C131.544 65.3221 132.221 63.0938 132.972 60.7108C133.06 60.4245 132.725 60.1867 132.472 60.3559C129.853 62.0883 126.917 63.5865 123.712 64.8093C120.354 66.0923 116.661 66.7426 112.726 66.7426C112.196 66.7426 111.654 66.7307 111.118 66.7078C108.441 66.7022 106.453 65.8859 105.204 64.2734C104.983 63.9899 104.783 63.7005 104.603 63.397C104.456 63.1564 104.085 63.1994 104.002 63.4653C103.596 64.7771 103.213 66.0428 102.859 67.2456C102.091 69.852 101.437 72.1031 100.868 74.1194C100.291 76.1528 99.7874 78.0059 99.3752 79.6353C98.9774 81.2077 98.7036 82.4794 98.5592 83.4188L98.5533 83.4538C98.1912 85.238 96.948 85.8651 95.9673 86.0799C95.5313 86.1742 95.0809 86.2231 94.6214 86.2231C93.7907 86.2231 92.913 86.0655 92.0119 85.7592C90.645 85.2897 89.4199 84.479 88.3597 83.3477C87.2609 82.1734 86.7043 80.7043 86.7043 78.98C86.7043 78.628 86.7923 77.8631 87.4995 75.0506C88.0298 72.9542 88.7396 70.371 89.6144 67.3693C90.1328 65.5852 90.707 63.6833 91.3519 61.6298C91.4465 61.3206 91.0575 61.0857 90.81 61.3062C89.7115 62.28 88.5805 63.1878 87.42 64.0184C84.9314 65.8029 82.3983 66.7078 79.8947 66.7078C77.6326 66.7078 75.9421 65.946 74.8759 64.4394C74.4461 63.8321 74.1103 63.1301 73.8657 62.3427C73.6508 61.641 72.7259 61.4262 72.2019 61.9562C71.4655 62.7007 70.6555 63.3795 69.7866 63.978C68.6555 64.757 67.3919 65.4101 66.0253 65.9197C64.6174 66.4409 63.0948 66.7075 61.4983 66.7075C59.3395 66.7075 57.4457 66.0688 55.8727 64.8056C54.3414 63.5856 53.2072 61.8559 52.4974 59.6589C51.8083 57.5312 51.5549 54.9164 51.7435 51.8834C51.932 48.8874 52.633 45.5252 53.8289 41.8849C56.3764 34.3355 59.6988 28.7306 63.7075 25.2165C67.7897 21.6365 71.9309 19.8207 76.016 19.8207C77.7447 19.8207 79.2087 20.1586 80.3605 20.823C81.4943 21.4817 82.3689 22.3524 82.9609 23.4121C83.3555 24.1252 83.6443 24.8899 83.821 25.7033C83.8529 25.8465 84.0537 25.8751 84.1273 25.7466C84.3338 25.3857 84.5311 25.0622 84.7165 24.7671C85.659 23.2836 86.9608 22.3556 88.5896 22.0091C90.1125 21.6883 91.6028 21.7084 93.0136 22.0697C94.4597 22.4421 95.629 23.1208 96.4891 24.0888C97.4226 25.1456 97.6258 26.3485 97.0692 27.5686C96.9073 27.9838 96.4891 28.9232 95.785 30.4327C95.0987 31.9105 94.2975 33.7003 93.4111 35.7566C92.5334 37.7932 91.641 39.9727 90.7602 42.2294C89.8885 44.469 89.2082 46.5626 88.7399 48.4442C88.2804 50.2803 88.1006 51.8038 88.204 52.9722C88.3039 54.0923 88.7427 54.0923 88.9786 54.0923C89.3175 54.0923 89.9123 53.9376 90.8341 53.2043C91.3438 52.7946 91.8737 52.3338 92.4156 51.8267C94.5158 49.8593 95.9235 47.7112 96.8631 45.0391C98.112 41.4934 99.4256 37.9937 100.775 34.6199C102.215 31.0313 103.62 27.8092 104.951 25.0425C105.646 23.6105 106.748 22.6454 108.214 22.1814C109.59 21.746 111.001 21.6544 112.388 21.9094C113.772 22.1671 114.986 22.7027 115.993 23.5046C116.441 23.8598 116.797 24.2435 117.062 24.6473C117.132 24.7561 117.215 24.7676 117.312 24.6788C118.502 23.6105 119.816 22.631 121.233 21.7575C123.306 20.4715 125.654 19.8214 128.21 19.8214C130.372 19.8214 132.236 20.4658 133.741 21.7403C135.2 22.9718 136.239 24.7246 136.831 26.9557C137.406 29.1153 137.523 31.7329 137.184 34.7314C136.846 37.6899 135.954 41.0724 134.534 44.7757C133.191 48.2782 131.653 51.3572 129.969 53.9231C129.153 55.172 128.313 56.3403 127.462 57.42C127.353 57.5575 127.518 57.7379 127.674 57.6549C128.166 57.3943 128.658 57.1108 129.147 56.8014C129.939 56.303 130.708 55.7762 131.45 55.2265C134.272 53.1413 136.378 50.2888 137.5 47.0409L137.942 45.7724C139.267 41.9632 140.669 38.2114 142.106 34.6199C143.55 31.0253 144.954 27.8034 146.286 25.0425C146.978 23.6105 148.076 22.6482 149.549 22.1813C150.924 21.746 152.335 21.6544 153.723 21.9093C155.107 22.1671 156.318 22.7027 157.325 23.5017C157.773 23.8597 158.129 24.2435 158.394 24.6473C158.465 24.7561 158.547 24.7676 158.644 24.6788C159.834 23.6105 161.148 22.631 162.565 21.7575C164.641 20.4714 166.988 19.8218 169.542 19.8218ZM34.0743 1.98189C37.1787 1.98189 40.2891 2.33132 43.3227 3.01575C46.3773 3.70886 49.1487 4.76281 51.5549 6.14899C53.9909 7.55234 55.9908 9.31371 57.4987 11.3844C59.036 13.4923 59.8137 15.9639 59.8137 18.7306C59.8137 21.7092 59.1303 24.5044 57.7815 27.0362C56.4444 29.5422 54.6035 31.8306 52.3148 33.8381C50.047 35.8315 47.358 37.5902 44.3212 39.0621C41.8176 40.2765 39.158 41.3133 36.3953 42.1468C36.2187 42.2009 36.157 42.2899 36.1658 42.4619C36.2246 43.7793 36.3217 45.0823 36.4602 46.3368C36.6162 47.7773 36.8223 49.1806 37.0757 50.5124C37.3231 51.8214 37.6235 53.0959 37.9624 54.3015C38.2274 55.2352 38.5218 56.143 38.8369 57.0053C39.0374 57.555 39.2495 58.0934 39.4643 58.5974C39.8975 59.6145 40.3746 60.588 40.8811 61.4901C41.3788 62.3781 41.9178 63.22 42.4835 63.9934C43.0342 64.7467 43.6262 65.454 44.2417 66.1014C44.8428 66.7313 45.4789 67.3098 46.1326 67.8254C46.7688 68.3266 47.4403 68.782 48.1266 69.1716C48.7954 69.5553 49.4964 69.8877 50.2121 70.1624C50.9159 70.4318 51.6435 70.6494 52.3768 70.807C53.1132 70.9642 53.87 71.0645 54.6358 71.1133C55.3988 71.1588 56.1941 71.1503 56.9862 71.082C57.7934 71.0137 58.6178 70.8872 59.4366 70.7011C60.2764 70.5119 61.1302 70.2629 61.9816 69.9563C62.8533 69.6415 63.7341 69.2575 64.603 68.8252C64.9356 68.6589 65.2714 68.4813 65.6044 68.2981C66.6881 67.6967 68.0726 67.9833 68.7999 68.9568C69.5303 69.9306 69.3684 71.2765 68.4259 72.0671C67.9636 72.4539 67.4981 72.8317 67.0386 73.1925C65.9223 74.0689 64.8031 74.8824 63.7106 75.6072C62.6738 76.2944 61.6192 76.9359 60.5768 77.506C60.0552 77.7923 59.5074 78.0729 58.9508 78.3423C57.8818 78.8635 56.8008 79.3218 55.7315 79.7055C54.6684 80.0863 53.599 80.4043 52.5566 80.6448C51.5167 80.8854 50.4683 81.0602 49.4462 81.1604C48.7158 81.2318 47.9854 81.2691 47.2725 81.2691C46.984 81.2691 46.6952 81.2634 46.4067 81.2494C45.4169 81.2089 44.4334 81.0974 43.479 80.917C43.0079 80.8284 42.5305 80.7194 42.0654 80.5935C41.6146 80.476 41.1523 80.3357 40.6897 80.1725C39.8033 79.8633 38.9225 79.4824 38.0802 79.0386C37.2555 78.6032 36.4426 78.1021 35.6709 77.5464C35.0466 77.0969 34.4339 76.6014 33.8535 76.0773C33.1556 75.4471 32.4753 74.7455 31.8301 74.001C31.1939 73.2649 30.5844 72.4687 30.0187 71.6352C29.4505 70.8045 28.9142 69.9168 28.4197 69.0003C27.9276 68.0838 27.4594 67.11 27.0352 66.1077C26.614 65.1138 26.2222 64.0598 25.8659 62.9688C25.5154 61.8976 25.1944 60.7634 24.9116 59.5947C24.6317 58.4292 24.3873 57.2205 24.1841 56.0005C24.0015 54.9208 23.8484 53.801 23.7276 52.664C23.692 52.3204 23.1827 52.2746 23.0796 52.6098C22.6378 54.0932 22.2372 55.5312 21.8838 56.9057C21.4391 58.63 21.0296 60.1996 20.6585 61.6085C20.2963 62.9889 20.04 64.1002 19.8927 64.9108C19.5982 66.3485 18.6174 67.2563 17.0446 67.5513C15.6927 67.8091 14.2407 67.7004 12.7444 67.2362C11.2659 66.7751 9.9228 65.9761 8.74764 64.8563C7.51647 63.682 6.89209 62.2071 6.89209 60.4686C6.89209 59.0538 7.26323 56.817 8.02308 53.6353C8.76524 50.5278 9.83447 46.8445 11.207 42.6833C12.5677 38.5562 14.2201 34.0054 16.1139 29.1651C17.7397 25.0065 19.5658 20.8194 21.5451 16.6894C22.1931 15.3376 23.5332 14.4068 25.0795 14.235C28.5756 13.8455 31.6092 13.9429 34.1805 14.5214C35.7297 14.8709 36.5604 16.4832 35.9123 17.8723C34.2541 21.4179 32.7256 24.955 31.359 28.3975C30.2545 31.1841 29.194 33.9424 28.1927 36.6258C28.0958 36.8924 28.3783 37.1386 28.6433 37.0211C29.9776 36.4338 31.2941 35.741 32.5812 34.9504C34.6901 33.653 36.6105 32.1035 38.2922 30.3478C39.9652 28.5923 41.3378 26.6133 42.3714 24.4624C43.3906 22.3315 43.909 20.0174 43.909 17.5773C43.909 14.4412 43.0019 12.1242 41.214 10.6951C39.4026 9.24874 36.852 8.51269 33.6299 8.51269C30.1985 8.51269 27.0617 9.29172 24.3078 10.8297C21.4803 12.4049 19.0357 14.341 17.0417 16.5863C15.0329 18.8489 13.4484 21.2661 12.338 23.7721C11.2365 26.2552 10.6768 28.4319 10.6768 30.2448C10.6768 31.5422 9.96114 32.4787 8.66219 32.8824C7.52236 33.2376 6.26472 33.1863 4.97467 32.7252C3.73467 32.2839 2.586 31.4106 1.55809 30.1333C0.524251 28.8501 0 27.1116 0 24.9665C0 23.0934 0.742163 20.8881 2.26789 18.2246C3.75233 15.6269 5.94956 13.098 8.79181 10.7065C11.6311 8.32081 15.2126 6.25013 19.448 4.55464C23.7069 2.84771 28.6286 1.98189 34.0743 1.98189ZM203.039 0C207.79 0 211.639 3.69458 211.639 8.24836C211.639 12.8021 207.79 16.4967 203.039 16.4967C198.288 16.4967 194.439 12.8021 194.439 8.24836C194.439 3.69458 198.288 0 203.039 0Z" fill="#FF441F"/>
</svg>
