<svg width="264" height="59" viewBox="0 0 264 59" fill="none" xmlns="http://www.w3.org/2000/svg">
<path d="M75.8912 29.1685C73.0066 28.3518 71.5264 26.9403 71.5264 24.9797C71.5264 22.5509 73.7475 20.8366 76.7958 20.8366C79.948 20.8366 81.9438 22.5122 82.0618 25.2014H89.753C89.628 18.4008 84.4835 13.8371 76.8874 13.8371C69.2912 13.8371 63.7754 18.605 63.7754 25.1856C63.7754 30.4005 67.0912 34.056 73.6138 36.087L78.327 37.4C81.8189 38.4014 83.2638 39.7654 83.1829 42.0587C83.1301 44.7005 80.8174 46.4235 77.2464 46.4235C73.3603 46.4235 71.4173 44.1162 71.2026 41.7507H63.4075C63.5483 48.5496 69.1874 53.2224 77.2306 53.2224C83.7355 53.2224 90.8283 49.7306 90.941 42.0992C91.1011 36.5464 87.5864 32.6726 80.4672 30.6328L75.8912 29.1685ZM106.096 26.2592C102.594 26.3489 99.2654 27.8031 96.82 30.3119C94.3746 32.8207 93.006 36.1855 93.006 39.6889C93.006 43.1923 94.3746 46.5571 96.82 49.0659C99.2654 51.5746 102.594 53.0289 106.096 53.1186C108.252 53.1186 112.01 52.0714 113.536 49.7429L114.022 49.0037V52.5941H121.278V26.8171H114.044V30.309L113.559 29.6226C111.264 26.3542 106.614 26.2574 106.096 26.2574V26.2592ZM106.871 46.2088C105.989 46.2523 105.108 46.1163 104.281 45.809C103.454 45.5016 102.698 45.0295 102.059 44.421C101.419 43.8126 100.911 43.0807 100.563 42.2697C100.215 41.4586 100.036 40.5854 100.036 39.703C100.036 38.8205 100.215 37.9473 100.563 37.1362C100.911 36.3252 101.419 35.5933 102.059 34.9849C102.698 34.3765 103.454 33.9043 104.281 33.597C105.108 33.2897 105.989 33.1536 106.871 33.1971C107.952 33.1786 109.021 33.4301 109.981 33.9289C110.94 34.4276 111.761 35.1578 112.367 36.0533C112.973 36.9489 113.347 37.9816 113.453 39.0578C113.56 40.1341 113.397 41.2199 112.978 42.2171C112.475 43.4166 111.625 44.438 110.536 45.1495C109.448 45.861 108.171 46.23 106.871 46.2088ZM132.834 26.8242H125.583V52.6205H132.834V26.8224V26.8242ZM144.494 14.344H137.208V52.6029H144.494V14.344ZM164.314 14.3053H148.634V52.6099H156.408V39.2058H164.329C173.559 39.2058 176.857 32.5178 176.857 26.7802C176.84 18.1667 170.549 14.3053 164.314 14.3053ZM163.916 32.509H156.392V21.0426H164.168C167.568 21.0426 169.106 24.3883 169.106 26.7626C169.147 27.4797 169.046 28.1979 168.808 28.8757C168.57 29.5535 168.2 30.1775 167.72 30.7117C167.24 31.2459 166.659 31.6797 166.01 31.9882C165.361 32.2967 164.658 32.4737 163.94 32.509H163.916ZM189.693 26.2592C187.04 26.2597 184.448 27.0467 182.243 28.5206C180.037 29.9946 178.319 32.0893 177.304 34.54C176.545 36.3725 176.202 38.3507 176.3 40.3319C176.397 42.313 176.934 44.2478 177.87 45.9967C178.806 47.7455 180.118 49.2649 181.712 50.4452C183.306 51.6255 185.143 52.4373 187.089 52.8222C189.034 53.207 191.041 53.1552 192.965 52.6705C194.888 52.1859 196.68 51.2804 198.211 50.0195C199.743 48.7585 200.975 47.1735 201.819 45.3787C202.664 43.5839 203.1 41.624 203.095 39.6405C203.19 36.9646 202.452 34.3252 200.982 32.0868C199.513 29.8484 197.385 28.1215 194.892 27.1445C193.238 26.496 191.468 26.1934 189.693 26.2592ZM189.693 45.929C188.767 45.934 187.852 45.7339 187.012 45.343C186.173 44.9522 185.431 44.3804 184.839 43.6686C184.247 42.9568 183.82 42.1228 183.589 41.2264C183.357 40.33 183.328 39.3935 183.501 38.4842C183.734 37.2676 184.322 36.1474 185.192 35.2654C186.062 34.3834 187.174 33.7794 188.387 33.5298C189.294 33.3421 190.231 33.3579 191.131 33.576C192.031 33.7942 192.872 34.2093 193.592 34.7914C194.312 35.3735 194.895 36.1082 195.297 36.9424C195.699 37.7767 195.911 38.6897 195.918 39.6158C195.987 41.2205 195.417 42.7871 194.332 43.9718C193.245 45.1534 191.735 45.8569 190.131 45.929H189.693ZM213.111 26.8242H205.855V52.6205H213.111V26.8224V26.8242ZM225.072 30.5131L224.587 31.4371V26.8171H217.253V52.6011H224.539V38.9435C224.539 35.2774 226.317 33.3291 229.645 33.3291C232.642 33.3291 234.465 35.4358 234.465 38.8168V52.5906H241.773V37.1342C241.806 30.1154 238.48 26.231 232.438 26.231C230.941 26.2285 229.471 26.622 228.175 27.3716C226.88 28.1212 225.805 29.2002 225.062 30.499L225.072 30.5131ZM129.212 23.1334C130.107 23.1355 130.983 22.8722 131.728 22.3767C132.474 21.8811 133.056 21.1757 133.4 20.3496C133.745 19.5234 133.837 18.6137 133.665 17.7353C133.492 16.8569 133.064 16.0493 132.432 15.4146C131.801 14.7799 130.996 14.3466 130.118 14.1695C129.241 13.9924 128.331 14.0794 127.503 14.4196C126.675 14.7597 125.966 15.3377 125.466 16.0805C124.967 16.8233 124.699 17.6975 124.696 18.5926V18.6102C124.694 19.2034 124.812 19.7912 125.044 20.3386C125.387 21.1646 125.966 21.8707 126.71 22.3678C127.453 22.8648 128.327 23.1307 129.221 23.1317H129.212V23.1334ZM209.463 23.1334C210.132 23.1357 210.794 22.9893 211.4 22.7047C212.007 22.4202 212.542 22.0046 212.968 21.488C213.394 20.9714 213.7 20.3667 213.864 19.7174C214.028 19.0682 214.045 18.3907 213.916 17.7338C213.787 17.0767 213.515 16.4563 213.117 15.9174C212.72 15.3785 212.208 14.9346 211.619 14.6175C211.029 14.3004 210.376 14.1182 209.708 14.084C209.039 14.0498 208.371 14.1645 207.752 14.4197C206.924 14.7595 206.215 15.3377 205.715 16.0809C205.216 16.8242 204.948 17.6989 204.947 18.5944V18.6102C204.947 19.8086 205.422 20.9581 206.269 21.8061C207.116 22.6542 208.264 23.1316 209.463 23.1334ZM260.698 26.7978H255.621V16.7394H248.333V26.7978H243.475V32.9366H248.333V52.6011H255.617V32.9384H260.695L260.698 26.7978ZM33.4822 0L40.4765 41.7402H0L33.4822 0Z" fill="#0033A1"/>
<path d="M33.3987 0L58.1901 41.7402H40.3912L33.3987 0Z" fill="#CC27B0"/>
<path d="M0 41.7715H40.4782L43.0074 56.8582L0 41.7715Z" fill="#0071CE"/>
<path d="M40.3837 41.7715H58.1808L42.9146 56.8582L40.3837 41.7715Z" fill="#E17FD2"/>
<path d="M262.633 47.6804C263.055 47.9268 263.4 48.2823 263.634 48.71C263.881 49.1605 264.005 49.6674 263.998 50.1813C264.005 50.6917 263.881 51.1969 263.634 51.6457C263.398 52.0698 263.053 52.4236 262.633 52.6665C262.193 52.9199 261.691 53.0484 261.184 53.0396C260.674 53.0476 260.171 52.9187 259.727 52.6665C259.304 52.4246 258.956 52.0715 258.72 51.6457C258.474 51.1974 258.348 50.6928 258.356 50.1813C258.349 49.6674 258.474 49.1605 258.72 48.71C258.954 48.2805 259.303 47.925 259.727 47.6821C260.17 47.4287 260.674 47.302 261.184 47.309C261.691 47.3002 262.193 47.4269 262.633 47.6804ZM262.847 51.8956C263.259 51.4194 263.486 50.8109 263.486 50.1813C263.486 49.5518 263.259 48.9433 262.847 48.4671C262.398 48.0353 261.799 47.7941 261.176 47.7941C260.553 47.7941 259.954 48.0353 259.505 48.4671C259.095 48.9441 258.87 49.5523 258.87 50.1813C258.87 50.8104 259.095 51.4186 259.505 51.8956C259.955 52.325 260.552 52.5647 261.174 52.5647C261.795 52.5647 262.393 52.325 262.842 51.8956H262.847ZM262.228 50.1497C262.083 50.3129 261.886 50.4211 261.67 50.4559L262.529 51.6791L261.8 51.6932L261.006 50.47H260.679V51.6932H260.065V48.6132H261.394C261.666 48.5991 261.933 48.6884 262.142 48.8631C262.235 48.9487 262.309 49.054 262.358 49.1715C262.406 49.2889 262.428 49.4156 262.422 49.5425C262.432 49.757 262.364 49.9679 262.23 50.1356L262.228 50.1497ZM260.686 49.9737H261.357C261.474 49.9787 261.589 49.944 261.684 49.8751C261.728 49.8391 261.762 49.7932 261.785 49.7411C261.808 49.6891 261.818 49.6325 261.814 49.5759C261.818 49.5197 261.809 49.4634 261.786 49.4119C261.763 49.3603 261.728 49.3151 261.684 49.2802C261.587 49.2156 261.473 49.1836 261.357 49.1887H260.686V49.9737Z" fill="#0033A1"/>
</svg>
