<svg width="278" height="129" viewBox="0 0 278 129" fill="none" xmlns="http://www.w3.org/2000/svg">
<g clip-path="url(#clip0_316_6254)">
<path d="M28.7267 6.48633C12.9733 6.48633 0 19.4597 0 35.213C0 50.9663 12.9733 63.9397 28.7267 63.9397C44.48 63.9397 57.4533 50.9663 57.4533 35.213C57.4533 19.4597 44.6653 6.48633 28.7267 6.48633ZM28.7267 51.5223C19.8307 51.5223 12.4173 44.2943 12.4173 35.213C12.4173 26.1317 19.6453 18.9037 28.7267 18.9037C37.808 18.9037 45.036 26.1317 45.036 35.213C45.036 44.2943 37.808 51.5223 28.7267 51.5223Z" fill="url(#paint0_linear_316_6254)"/>
<path d="M253.536 123.988H235.744V35.2129H253.536V123.988Z" fill="#253746"/>
<path d="M170.878 70.7969V35.2129H153.271V123.988H170.878V88.5889H188.484L206.091 70.7969H170.878Z" fill="#253746"/>
<path d="M70.6122 61.9009C70.6122 58.1942 71.3535 54.6729 72.6509 51.5222C74.1335 48.3716 75.9869 45.4062 78.3962 42.9969C80.8055 40.5876 83.5855 38.7342 86.9215 37.2516C90.0722 35.7689 93.5935 35.2129 97.3002 35.2129H150.12L132.514 53.0049H97.3002C96.0029 53.0049 94.8909 53.1902 93.7789 53.7462C92.6669 54.1169 91.7402 54.8582 90.9989 55.5996C90.0722 56.5262 89.5162 57.4529 89.1455 58.3796C88.7749 59.4916 88.4042 60.6036 88.4042 61.9009C88.4042 63.1982 88.5895 64.3102 89.1455 65.4222C89.5162 66.5342 90.2575 67.4609 90.9989 68.2022C91.9255 69.1289 92.8522 69.6849 93.7789 70.0556C94.8909 70.4262 96.0029 70.7969 97.3002 70.7969H115.092C118.799 70.7969 122.32 71.5382 125.471 72.8356C128.807 74.1329 131.587 76.1716 133.996 78.5809C136.406 80.9902 138.259 83.7702 139.742 87.1062C141.039 90.4422 141.78 93.7782 141.78 97.4849C141.78 101.192 141.039 104.713 139.742 107.864C138.444 111.014 136.406 113.98 133.996 116.389C131.587 118.798 128.807 120.652 125.471 122.134C122.135 123.617 118.614 124.173 115.092 124.173H57.6389L75.6162 106.381H115.092C116.39 106.381 117.502 106.196 118.614 105.64C119.726 105.269 120.652 104.528 121.394 103.786C122.32 102.86 122.876 101.933 123.247 101.006C123.618 100.08 123.988 98.7822 123.988 97.4849C123.988 96.1876 123.803 95.0756 123.247 93.9636C122.876 92.8516 122.135 91.9249 121.394 91.1836C120.467 90.2569 119.54 89.7009 118.614 89.3302C117.502 88.9596 116.39 88.5889 115.092 88.5889H97.3002C93.5935 88.5889 90.0722 87.8476 86.9215 86.5502C83.7709 85.0676 80.8055 83.2142 78.3962 80.8049C75.9869 78.3956 74.1335 75.6156 72.6509 72.2796C71.3535 69.1289 70.6122 65.6076 70.6122 61.9009Z" fill="#253746"/>
<path d="M224.253 123.988H206.461V35.2129H224.253V123.988Z" fill="#253746"/>
<path d="M265.027 117.131C265.027 115.833 265.212 114.721 265.953 113.609C266.509 112.497 267.251 111.756 268.363 111.015C269.289 110.459 270.401 110.088 271.699 110.088C272.996 110.088 273.923 110.459 275.035 111.015C276.147 111.571 276.888 112.497 277.444 113.609C278 114.721 278.371 115.833 278.371 117.131C278.371 118.428 278.185 119.54 277.444 120.652C276.888 121.764 276.147 122.505 275.035 123.247C274.108 123.988 272.996 124.173 271.699 124.173C270.401 124.173 269.289 123.803 268.363 123.247C267.436 122.505 266.509 121.764 265.953 120.652C265.397 119.54 265.027 118.243 265.027 117.131ZM266.139 117.131C266.139 118.243 266.324 119.169 266.88 120.096C267.436 121.023 267.992 121.764 268.919 122.135C269.845 122.691 270.772 122.876 271.699 122.876C272.625 122.876 273.552 122.691 274.479 122.135C275.405 121.579 275.961 120.837 276.517 120.096C277.073 119.169 277.259 118.243 277.259 117.131C277.259 116.019 277.073 115.092 276.517 114.165C275.961 113.239 275.405 112.497 274.479 112.127C273.552 111.756 272.625 111.385 271.699 111.385C270.772 111.385 269.845 111.571 268.919 112.127C267.992 112.683 267.436 113.239 266.88 114.165C266.324 115.092 266.139 116.019 266.139 117.131ZM270.216 117.872V121.023H268.919V113.053H271.513C272.44 113.053 273.181 113.239 273.737 113.609C274.293 113.98 274.479 114.536 274.479 115.463C274.479 116.204 274.108 116.76 273.367 117.316C274.108 117.687 274.479 118.243 274.479 119.169V119.725C274.479 120.281 274.479 120.652 274.664 120.837V121.023H273.367C273.367 120.837 273.181 120.467 273.181 119.911C273.181 119.355 273.181 118.984 273.181 118.984C273.181 118.428 272.625 118.057 272.069 118.057L270.216 117.872ZM270.216 116.575H271.699C272.069 116.575 272.625 116.575 272.811 116.204C272.996 116.019 273.181 115.648 273.181 115.277C273.181 114.907 273.181 114.536 272.811 114.351C272.625 114.165 272.069 114.165 271.513 114.165H270.216V116.575Z" fill="#253746"/>
</g>
<defs>
<linearGradient id="paint0_linear_316_6254" x1="45.8448" y1="59.6299" x2="7.97749" y2="5.54817" gradientUnits="userSpaceOnUse">
<stop stop-color="#B1E001"/>
<stop offset="0.5" stop-color="#FF6D15"/>
<stop offset="1" stop-color="#FF00C0"/>
</linearGradient>
<clipPath id="clip0_316_6254">
<rect width="278" height="128.807" fill="white"/>
</clipPath>
</defs>
</svg>
