<svg width="397" height="76" viewBox="0 0 397 76" fill="none" xmlns="http://www.w3.org/2000/svg">
<g clip-path="url(#clip0_316_1786)">
<path d="M100.881 56.3068C98.1395 56.3068 95.5401 55.8319 93.0352 54.9057C90.5303 53.9795 88.2381 52.5309 86.1113 50.6073L89.845 46.119C91.5701 47.6151 93.2951 48.755 95.0438 49.5624C96.7925 50.3698 98.7775 50.7498 101.022 50.7498C102.937 50.7498 104.473 50.3461 105.607 49.5387C106.741 48.7312 107.308 47.6388 107.308 46.2852V46.1902C107.308 45.549 107.19 44.9791 106.977 44.4803C106.765 43.9816 106.363 43.5304 105.772 43.0792C105.182 42.628 104.354 42.2243 103.338 41.8681C102.299 41.4881 100.952 41.1319 99.2974 40.7519C97.4069 40.3007 95.7291 39.802 94.2404 39.2558C92.7753 38.6859 91.5465 38.0209 90.5303 37.2135C89.5378 36.406 88.758 35.4324 88.2381 34.2925C87.7182 33.1288 87.4583 31.7515 87.4583 30.1128V30.0179C87.4583 28.498 87.7655 27.0969 88.3563 25.8145C88.9707 24.5558 89.7978 23.4634 90.8375 22.561C91.9009 21.6586 93.1534 20.9699 94.6421 20.4474C96.1072 19.9487 97.7378 19.6875 99.4864 19.6875C102.086 19.6875 104.425 20.0675 106.505 20.8274C108.584 21.5873 110.522 22.7035 112.342 24.1521L109.01 28.878C107.379 27.6906 105.796 26.7881 104.213 26.1469C102.629 25.5295 101.022 25.197 99.4156 25.197C97.596 25.197 96.1781 25.6007 95.162 26.4082C94.1459 27.2156 93.6496 28.213 93.6496 29.4004V29.4954C93.6496 30.1841 93.7678 30.7778 94.0041 31.3002C94.2404 31.8227 94.6657 32.2977 95.3038 32.7251C95.9418 33.1526 96.7925 33.5563 97.9032 33.9125C99.0138 34.2925 100.408 34.6724 102.086 35.0762C103.929 35.5511 105.583 36.0736 107.025 36.6435C108.466 37.2135 109.648 37.9259 110.593 38.7571C111.538 39.5883 112.271 40.5619 112.743 41.6543C113.24 42.7467 113.476 44.0291 113.476 45.5015V45.5965C113.476 47.2589 113.169 48.755 112.554 50.0849C111.94 51.4147 111.066 52.5309 109.955 53.4333C108.868 54.3595 107.521 55.0482 105.985 55.5231C104.425 55.9981 102.724 56.2356 100.881 56.2356M141.29 20.115H147.056L165.984 44.7416V20.115H172.152V55.7369H166.953L147.457 30.3978V55.7369H141.29V20.1387V20.115ZM223.194 41.5831L217.074 27.3343L211.001 41.5831H223.194ZM214.286 19.8537H220.052L235.624 55.7131H229.055L225.463 47.1164H208.709L205.07 55.7131H198.689L214.286 19.8537ZM275.632 38.6384C277.995 38.6384 279.862 38.0447 281.232 36.8573C282.603 35.6699 283.288 34.1262 283.288 32.2502V32.1552C283.288 30.0416 282.603 28.4505 281.208 27.3818C279.814 26.3132 277.971 25.767 275.632 25.767H268.377V38.6384H275.632ZM262.209 20.115H276.175C278.231 20.115 280.098 20.3999 281.776 20.9461C283.453 21.5161 284.871 22.2998 286.029 23.3684C287.187 24.4133 288.085 25.672 288.723 27.1444C289.338 28.593 289.668 30.2316 289.668 32.0364V32.1314C289.668 34.1262 289.29 35.8836 288.558 37.4035C287.801 38.9233 286.785 40.182 285.509 41.2031C284.233 42.2243 282.721 42.9842 280.996 43.5067C279.271 44.0291 277.428 44.2904 275.466 44.2904H268.424V55.7369H262.256V20.1387L262.209 20.115ZM329.935 38.6384C332.299 38.6384 334.165 38.0447 335.536 36.8573C336.907 35.6699 337.592 34.1262 337.592 32.2502V32.1552C337.592 30.0416 336.907 28.4505 335.512 27.3818C334.118 26.3132 332.275 25.767 329.935 25.767H322.681V38.6384H329.935ZM316.513 20.115H330.479C332.535 20.115 334.402 20.3999 336.08 20.9461C337.757 21.5161 339.175 22.2998 340.333 23.3684C341.491 24.4133 342.389 25.672 343.027 27.1444C343.641 28.593 343.972 30.2316 343.972 32.0364V32.1314C343.972 34.1262 343.594 35.8836 342.862 37.4035C342.105 38.9233 341.089 40.182 339.813 41.2031C338.514 42.2243 337.025 42.9842 335.3 43.5067C333.575 44.0291 331.731 44.2904 329.77 44.2904H322.728V55.7369H316.56V20.1387L316.513 20.115ZM379.49 25.9095H368.265V20.115H397V25.9095H385.775V55.7369H379.513V25.9095H379.49Z" fill="#012C57"/>
<path d="M29.6568 69.2252L5.81321 55.3802L0 58.7524L29.6568 75.9697L59.3137 58.7524L53.5005 55.3802L29.6568 69.2252ZM29.6568 55.3802L5.81321 41.5351L0 44.9073L29.6568 62.1246L59.3137 44.9073L53.5005 41.5351L29.6568 55.3802ZM29.6568 41.5351L5.81321 27.6901L0 31.0623L29.6568 48.2796L59.3137 31.0623L53.5005 27.6901L29.6568 41.5351ZM11.6264 17.2173L29.6568 6.74441L47.6873 17.2173L29.6568 27.6901L11.6264 17.2173ZM29.6568 0L0 17.2173L29.6568 34.4345L59.3137 17.2173L29.6568 0Z" fill="#009FFB"/>
</g>
<defs>
<clipPath id="clip0_316_1786">
<rect width="397" height="75.9934" fill="white"/>
</clipPath>
</defs>
</svg>
