<svg width="202" height="152" viewBox="0 0 202 152" fill="none" xmlns="http://www.w3.org/2000/svg">
<g clip-path="url(#clip0_316_1810)">
<path d="M54.7002 23.6H36.6002C36.9002 22.9 38.1002 21 40.7002 21H61.0002L69.9002 12.3L71.6002 21H95.4002C95.1002 21.7 93.9002 23.6 91.3002 23.6H74.4002L72.3002 24.5L74.4002 35.3L63.3002 29.6L48.0002 33.8L56.9002 25.1L54.7002 23.6ZM96.5002 21.1H100.5C102.8 21.1 105.6 19.3 106.7 17L115.3 0H114.1C114.1 0 113.1 2.9 109.9 2.8H50.2002C47.9002 2.8 45.1002 4.6 44.0002 6.9L35.5002 23.6H31.5002C29.2002 23.6 26.4002 25.4 25.3002 27.7L16.7002 44.6H17.9002C17.9002 44.6 18.9002 41.7 22.1002 41.8L81.8002 41.9C84.1002 41.9 86.9002 40.1 88.0002 37.8L96.5002 21.1Z" fill="#1A468D"/>
<path d="M21.3002 63.4992L21.6002 62.5992C22.4002 60.4992 22.2002 58.6992 20.5002 58.6992C18.6002 58.6992 17.2002 60.2992 16.6002 61.8992C14.0002 68.9992 29.7002 65.4992 24.8002 78.6992C21.9002 86.3992 16.4002 89.7992 8.70016 89.7992C1.40016 89.7992 -1.69984 87.0992 1.10016 79.5992L1.60016 78.2992H10.0002L9.70016 79.1992C8.50016 82.2992 9.30016 83.3992 11.0002 83.3992C12.8002 83.3992 14.4002 81.8992 15.1002 79.8992C17.8002 72.7992 2.60016 76.2992 7.40016 63.4992C10.1002 56.1992 15.3002 52.1992 22.7002 52.1992C30.4002 52.1992 32.4002 55.5992 29.5002 63.2992H21.3002V63.4992Z" fill="#1A468D"/>
<path d="M37.7002 53H57.8002L54.9002 60.7H43.7002L41.4002 66.9H51.9002L49.1002 74.3H38.6002L35.9002 81.5H47.6002L44.7002 89.2H24.2002L37.7002 53Z" fill="#1A468D"/>
<path d="M71.1002 63.9988C72.6002 59.8988 72.4002 58.6988 70.7002 58.6988C68.0002 58.6988 66.7002 61.2988 63.1002 71.0988C59.5002 80.8988 58.8002 83.4988 61.5002 83.4988C63.7002 83.4988 64.9002 81.4988 67.5002 74.5988H76.0002L75.0002 77.2988C71.1002 87.3988 64.7002 89.8988 59.0002 89.8988C49.1002 89.8988 48.9002 84.5988 53.9002 71.0988C59.1002 57.2988 63.8002 52.2988 73.0002 52.2988C81.0002 52.2988 82.3002 56.7988 79.7002 63.6988L78.9002 65.9988H70.4002L71.1002 63.9988Z" fill="#1A468D"/>
<path d="M95.8 53L86.1 79C84.8 82.5 85.5 83.4 87.1 83.4C88.8 83.4 90.1 82.5 91.4 79L101.1 53H109.9L101.1 76.7C97.3 86.8 92.1 89.8 84.7 89.8C77.3 89.8 74.4 86.8 78.1 76.7L87 53H95.8Z" fill="#1A468D"/>
<path d="M114 53H127.8C134.5 53 135.6 57 133.5 62.6C131.7 67.4 128.8 70.5 124.5 71.2V71.3C128.6 71.7 128.8 74.6 127 79.4L125.8 82.5C125.1 84.4 124.2 86.8 124.4 87.5C124.5 87.9 124.5 88.3 125 88.6L124.8 89.1H115.4C115.3 87.2 116.5 83.7 117.1 82.2L118 79.8C119.5 75.7 119.2 74.6 117 74.6H114.7L109.3 89.1H100.5L114 53ZM117.1 68.3H118.9C121.4 68.3 123.2 66.6 124.2 64C125.3 61.1 124.7 59.8 122 59.8H120.3L117.1 68.3Z" fill="#1A468D"/>
<path d="M141.1 53H149.9L136.4 89.1H127.6L141.1 53Z" fill="#1A468D"/>
<path d="M155.5 61H148.9L151.9 53H174L171 61H164.4L153.9 89.1H145L155.5 61Z" fill="#1A468D"/>
<path d="M175.5 74.9L175 53H184.7L183.3 65.6H183.4L191.4 53H201.1L184.3 74.9L179 89.2H170.2L175.5 74.9Z" fill="#1A468D"/>
<path d="M24.9002 108.1L25.2002 107.2C26.0002 105.1 25.8002 103.3 24.1002 103.3C22.2002 103.3 20.8002 104.9 20.2002 106.5C17.5002 113.6 33.3002 110.1 28.3002 123.3C25.4002 131 19.9002 134.4 12.2002 134.4C4.90016 134.4 1.80016 131.7 4.60016 124.2L5.10016 122.9H13.6002L13.3002 123.8C12.1002 126.9 12.9002 128 14.6002 128C16.4002 128 18.0002 126.5 18.7002 124.5C21.4002 117.4 6.20016 120.9 11.0002 108.1C13.7002 101 18.9002 97 26.3002 97C34.0002 97 36.0002 100.4 33.1002 108.1H24.9002Z" fill="#1A468D"/>
<path d="M41.0001 97.6992H61.1001L58.2001 105.399H47.0001L44.7001 111.599H55.2001L52.4001 118.999H41.9001L39.2001 126.199H50.9001L48.0001 133.899H27.6001L41.0001 97.6992Z" fill="#1A468D"/>
<path d="M64.3003 97.6992H78.1003C84.8003 97.6992 85.9003 101.699 83.8003 107.299C82.0003 112.099 79.1003 115.199 74.8003 115.899V115.999C78.9003 116.399 79.1003 119.299 77.3003 124.099L76.1003 127.199C75.4003 129.099 74.5003 131.499 74.7003 132.199C74.8003 132.599 74.8003 132.999 75.3003 133.299L75.1003 133.799H65.7003C65.6003 131.899 66.8003 128.399 67.4003 126.899L68.3003 124.499C69.8003 120.399 69.5003 119.299 67.3003 119.299H65.0003L59.6003 133.799H50.8003L64.3003 97.6992ZM67.4003 112.999H69.2003C71.7003 112.999 73.5003 111.299 74.5003 108.699C75.6003 105.799 75.0003 104.499 72.3003 104.499H70.6003L67.4003 112.999Z" fill="#1A468D"/>
<path d="M87.8001 97.6992H97.2001L90.6001 124.899H90.7001L104.4 97.6992H113.8L93.0001 133.799H81.6001L87.8001 97.6992Z" fill="#1A468D"/>
<path d="M115.8 97.7012H124.6L111.1 133.801H102.3L115.8 97.7012Z" fill="#1A468D"/>
<path d="M137.9 108.7C139.4 104.6 139.2 103.4 137.5 103.4C134.8 103.4 133.5 106 129.9 115.8C126.3 125.6 125.6 128.2 128.3 128.2C130.5 128.2 131.7 126.2 134.3 119.3H142.8L141.8 122C138 132.1 131.6 134.5 125.9 134.5C116 134.5 115.8 129.2 120.8 115.7C126 101.9 130.7 96.9004 139.9 96.9004C147.9 96.9004 149.2 101.4 146.6 108.3L145.8 110.6H137.3L137.9 108.7Z" fill="#1A468D"/>
<path d="M153.9 97.7012H174L171.1 105.401H159.9L157.6 111.601H168.1L165.3 119.001H154.8L152.1 126.201H163.8L160.9 133.901H140.4L153.9 97.7012Z" fill="#1A468D"/>
<path d="M24.5 143.6H29L28.5 144.9H25.6L24.9 146.7H27.6L27.1 148H24.4L23.1 151.4H21.5L24.5 143.6Z" fill="#1A468D"/>
<path d="M35.1 143.6L34.6 144.9H31.7L31 146.7H33.7L33.2 148H30.5L29.7 150.1H32.7L32.2 151.4H27.5L30.4 143.6H35.1Z" fill="#1A468D"/>
<path d="M36.7999 143.6H39.4999C41.7999 143.6 41.5999 145.1 40.7999 147.4C39.7999 150.2 38.6999 151.4 36.4999 151.4H33.8999L36.7999 143.6ZM35.9999 150.2H36.6999C37.7999 150.2 38.2999 149.5 39.0999 147.4C39.7999 145.6 39.9999 144.7 38.6999 144.7H37.9999L35.9999 150.2Z" fill="#1A468D"/>
<path d="M48.6 143.6L48.1 144.9H45.2L44.5 146.7H47.2L46.7 148H44L43.2 150.1H46.2L45.7 151.4H41L43.9 143.6H48.6Z" fill="#1A468D"/>
<path d="M50.2998 143.6H53.2998C54.5998 143.6 55.1998 144.3 54.6998 145.6C54.2998 146.6 53.5998 147.3 52.5998 147.5C53.6998 147.6 53.5998 148.2 52.9998 149.9C52.6998 150.7 52.5998 151.1 52.7998 151.3V151.4H50.9998C50.8998 151.2 50.9998 150.9 51.0998 150.6L51.5998 149.1C51.7998 148.5 51.6998 148.1 50.9998 148.1H50.0998L48.8998 151.4H47.2998L50.2998 143.6ZM50.6998 146.9H51.3998C52.1998 146.9 52.7998 146.6 53.0998 145.7C53.3998 145 53.0998 144.6 52.3998 144.6H51.5998L50.6998 146.9Z" fill="#1A468D"/>
<path d="M58.9998 143.6H60.9998L60.1998 151.4H58.4998L58.6998 149.8H56.4998L55.4998 151.4H53.7998L58.9998 143.6ZM57.3998 148.4H58.9998L59.4998 144.9L57.3998 148.4Z" fill="#1A468D"/>
<path d="M61.6001 151.3L64.5001 143.5H66.1001L63.7001 150H66.6001L66.1001 151.3H61.6001Z" fill="#1A468D"/>
<path d="M74.6003 146.2C75.0003 145.1 75.0003 144.6 74.2003 144.6C73.4003 144.6 72.9003 145.4 72.0003 147.6C71.1003 149.9 71.3003 150.4 72.0003 150.4C72.6003 150.4 73.1003 150.1 73.8003 148.4H75.4003C74.8003 150.1 73.8003 151.5 71.6003 151.5C69.1003 151.5 69.5003 149.8 70.3003 147.5C71.2003 145.1 72.1003 143.5 74.6003 143.5C77.0003 143.5 76.5003 145.1 76.1003 146.3H74.6003V146.2Z" fill="#1A468D"/>
<path d="M79.0005 143.6H82.0005C83.3005 143.6 83.9005 144.3 83.4005 145.6C83.0005 146.6 82.3005 147.3 81.3005 147.5C82.4005 147.6 82.3005 148.2 81.7005 149.9C81.4005 150.7 81.3005 151.1 81.5005 151.3V151.4H79.7005C79.6005 151.2 79.7005 150.9 79.8005 150.6L80.3005 149.1C80.5005 148.5 80.4005 148.1 79.7005 148.1H78.8005L77.6005 151.4H76.0005L79.0005 143.6ZM79.4005 146.9H80.0005C80.8005 146.9 81.4005 146.6 81.7005 145.7C82.0005 145 81.7005 144.6 81.0005 144.6H80.2005L79.4005 146.9Z" fill="#1A468D"/>
<path d="M90.6005 143.6L90.1005 144.9H87.2005L86.5005 146.7H89.2005L88.7005 148H86.0005L85.2005 150.1H88.2005L87.7005 151.4H83.0005L85.9005 143.6H90.6005Z" fill="#1A468D"/>
<path d="M92.4005 143.6H95.1005C97.4005 143.6 97.2005 145.1 96.4005 147.4C95.4005 150.2 94.3005 151.4 92.1005 151.4H89.5005L92.4005 143.6ZM91.6005 150.2H92.3005C93.4005 150.2 93.9005 149.5 94.7005 147.4C95.4005 145.6 95.6005 144.7 94.3005 144.7H93.6005L91.6005 150.2Z" fill="#1A468D"/>
<path d="M96.8003 151.3L99.7003 143.5H101.3L98.4003 151.3H96.8003Z" fill="#1A468D"/>
<path d="M108.1 143.6L107.6 144.9H105.8L103.4 151.4H101.8L104.2 144.9H102.4L102.9 143.6H108.1Z" fill="#1A468D"/>
<path d="M114.2 143.6L112.2 149C111.9 149.8 111.9 150.3 112.7 150.3C113.5 150.3 113.9 149.7 114.2 149L116.2 143.6H117.8L115.8 149C115.1 151 113.6 151.5 112.3 151.5C111 151.5 109.9 151.1 110.6 149L112.6 143.6H114.2Z" fill="#1A468D"/>
<path d="M121.4 143.6V148.9L123.4 143.6H124.9L122 151.4H120.1V146L118.1 151.4H116.6L119.5 143.6H121.4Z" fill="#1A468D"/>
<path d="M124 151.3L126.9 143.5H128.5L125.6 151.3H124Z" fill="#1A468D"/>
<path d="M133.2 143.4C135.7 143.4 135.3 145.1 134.5 147.4C133.6 149.8 132.7 151.4 130.2 151.4C127.7 151.4 128.1 149.7 128.9 147.4C129.8 145.1 130.7 143.4 133.2 143.4ZM130.6 150.3C131.6 150.3 132 149.5 132.8 147.4C133.6 145.3 133.7 144.5 132.8 144.5C131.8 144.5 131.4 145.3 130.6 147.4C129.8 149.5 129.6 150.3 130.6 150.3Z" fill="#1A468D"/>
<path d="M139.6 143.6V148.9L141.6 143.6H143.1L140.2 151.4H138.3V146L136.3 151.4H134.8L137.7 143.6H139.6Z" fill="#1A468D"/>
</g>
<defs>
<clipPath id="clip0_316_1810">
<rect width="201.1" height="151.5" fill="white"/>
</clipPath>
</defs>
</svg>
