<svg width="341" height="66" viewBox="0 0 341 66" fill="none" xmlns="http://www.w3.org/2000/svg">
<path d="M240.337 5.37769C240.338 6.06672 240.206 6.74907 239.95 7.38575C239.694 8.02242 239.319 8.60095 238.845 9.08829C238.372 9.57563 237.81 9.96222 237.192 10.226C236.573 10.4897 235.91 10.6255 235.241 10.6255C234.571 10.6255 233.909 10.4897 233.29 10.226C232.672 9.96222 232.11 9.57563 231.636 9.08829C231.163 8.60095 230.788 8.02242 230.532 7.38575C230.276 6.74907 230.144 6.06672 230.145 5.37769C230.144 4.68866 230.276 4.00632 230.532 3.36964C230.788 2.73296 231.163 2.15442 231.636 1.66709C232.11 1.17975 232.672 0.793158 233.29 0.529399C233.909 0.265641 234.571 0.129883 235.241 0.129883C235.91 0.129883 236.573 0.265641 237.192 0.529399C237.81 0.793158 238.372 1.17975 238.845 1.66709C239.319 2.15442 239.694 2.73296 239.95 3.36964C240.206 4.00632 240.338 4.68866 240.337 5.37769Z" fill="#E20074"/>
<path d="M330.965 28.417H317.993V41.6963H330.965V28.417Z" fill="#E20074"/>
<path d="M108.768 63.7394L125.157 6.37426V51.3908C125.157 56.3036 124.878 58.03 123.767 59.2249C122.933 60.154 120.999 60.5531 118.855 60.5531H118.022V63.7394H141.188V60.5531H139.982C137.851 60.5531 135.906 60.1548 135.072 59.2249C133.959 58.03 133.681 56.3036 133.681 51.3908V13.0143C133.681 8.10072 133.959 6.24176 135.072 5.04689C135.998 4.25031 137.851 3.71871 139.982 3.71871H141.188V0.664062H123.211L109.682 47.008L96.444 0.664062H78.5599V3.71871H80.227C85.139 3.71871 86.0651 4.7811 86.0651 11.1554V47.672C86.0651 53.5147 85.7873 55.9053 84.9529 57.6317C84.0268 59.3582 82.0673 60.5531 80.0418 60.5531H78.5591V63.7394H97.6472V60.5531H96.4432C94.0343 60.5531 92.0877 59.6232 90.9626 57.7642C89.8641 55.9053 89.5862 54.1788 89.5862 47.672V6.37505L105.881 63.7402H108.768" fill="#E20074"/>
<path d="M161.11 18.8564C149.62 18.8564 142.114 27.8863 142.114 42.0955C142.114 55.7731 149.62 65.0687 160.82 65.0687C172.123 65.0687 179.629 55.7731 179.629 41.963C179.629 28.2846 172.123 18.8564 161.11 18.8564M160.739 21.9103C164.062 21.9103 166.934 24.035 168.51 27.6205C169.992 30.9401 170.641 35.4554 170.641 41.9621C170.641 55.3731 167.397 62.0124 160.819 62.0124C154.253 62.0124 151.089 55.3723 151.089 41.8288C151.089 35.4546 151.75 30.9401 153.232 27.6205C154.703 24.1684 157.681 21.9103 160.739 21.9103" fill="#E20074"/>
<path d="M195.025 0L181.866 0.66408V3.58544H182.502C186.394 3.58544 187.241 4.9136 187.241 11.1546V54.3113C187.241 59.8882 187.056 61.3497 186.315 63.7394H189.373C191.676 59.8882 192.245 59.2249 193.172 59.2249C193.622 59.2249 194.072 59.3574 194.734 60.0215C199.287 63.7394 201.233 64.536 205.403 64.536C215.397 64.536 222.625 54.8421 222.625 41.032C222.625 28.0185 215.94 19.2545 205.946 19.2545C200.757 19.2545 196.971 21.7775 195.025 26.292V0M204.636 22.5741C210.58 22.5741 213.637 28.9484 213.637 41.4303C213.637 54.5763 210.487 61.3489 204.463 61.3489C197.792 61.3489 194.283 54.443 194.283 41.8286C194.283 35.4543 195.118 31.0731 197.064 27.7527C198.81 24.5664 201.79 22.5741 204.636 22.5741" fill="#E20074"/>
<path d="M239.768 19.5205L226.252 20.3171V23.2384H227.272C231.15 23.2384 231.985 24.5666 231.985 30.675V53.1167C231.985 59.2259 231.151 60.6866 227.272 60.6866H225.802V63.7396H245.978V60.6866H244.521C240.615 60.6866 239.769 59.3576 239.769 53.1167V19.5205" fill="#E20074"/>
<path d="M263.211 0L249.695 0.66408V3.58544H250.703C254.594 3.58544 255.428 4.9136 255.428 11.1546V53.1156C255.428 59.3574 254.594 60.6856 250.703 60.6856H249.233V63.7386H269.42V60.6856H267.937C264.032 60.6856 263.211 59.3566 263.211 53.1156V0" fill="#E20074"/>
<path d="M306.288 41.6963C305.837 27.6204 299.165 18.8564 289.079 18.8564C279.335 18.8564 272.306 28.417 272.306 41.6963C272.306 55.9047 279.243 65.0678 289.992 65.0678C296.942 65.0678 301.76 61.3491 305.745 53.1159L302.966 51.6552C299.723 58.5603 296.479 61.3491 291.475 61.3491C284.155 61.3491 281.018 55.5072 280.924 41.6963H306.288M281.017 38.3759C281.097 28.417 284.326 22.1761 289.528 22.1761C294.717 22.1761 297.774 28.2845 297.683 38.3759H281.017Z" fill="#E20074"/>
<path d="M335.831 17.7734C336.614 17.7734 337.378 17.9746 338.124 18.3778C338.869 18.7809 339.45 19.3577 339.866 20.1074C340.283 20.8572 340.491 21.6392 340.491 22.4536C340.491 23.2598 340.285 24.0346 339.874 24.7779C339.465 25.5219 338.89 26.0996 338.151 26.5108C337.411 26.922 336.638 27.128 335.83 27.128C335.022 27.128 334.249 26.9228 333.509 26.5108C332.769 26.0996 332.193 25.5227 331.782 24.7779C331.37 24.0346 331.164 23.2598 331.164 22.4536C331.164 21.6392 331.372 20.8572 331.791 20.1074C332.209 19.3577 332.791 18.7801 333.535 18.3778C334.284 17.9746 335.049 17.7734 335.831 17.7734V17.7734ZM335.831 18.5523C335.177 18.5523 334.539 18.7203 333.92 19.0572C333.301 19.3941 332.816 19.8739 332.466 20.4993C332.116 21.1246 331.942 21.7765 331.942 22.4527C331.942 23.1257 332.114 23.7704 332.458 24.3877C332.801 25.0049 333.282 25.4856 333.899 25.8305C334.516 26.1755 335.161 26.3476 335.831 26.3476C336.502 26.3476 337.145 26.1755 337.763 25.8305C338.38 25.4864 338.859 25.0057 339.2 24.3877C339.542 23.7704 339.713 23.1257 339.713 22.4527C339.713 21.7765 339.539 21.1246 339.192 20.4993C338.844 19.8748 338.36 19.3941 337.738 19.0572C337.117 18.7203 336.481 18.5523 335.831 18.5523V18.5523ZM333.785 25.034V20.0008H335.513C336.101 20.0008 336.53 20.0476 336.793 20.1406C337.058 20.2335 337.268 20.3959 337.425 20.6277C337.582 20.8588 337.661 21.1052 337.661 21.3653C337.661 21.7329 337.528 22.0537 337.266 22.3259C337.005 22.5982 336.656 22.7517 336.222 22.7848C336.4 22.8591 336.542 22.948 336.649 23.0514C336.852 23.2493 337.099 23.5822 337.392 24.0491L338.004 25.0348H337.011L336.564 24.2406C336.214 23.6193 335.933 23.2299 335.721 23.0716C335.573 22.9545 335.356 22.8963 335.072 22.8963H334.595V25.0348H333.785V25.034ZM334.596 22.2047H335.583C336.054 22.2047 336.375 22.1344 336.547 21.993C336.72 21.8517 336.804 21.665 336.804 21.4324C336.804 21.2829 336.763 21.1488 336.68 21.0309C336.597 20.9129 336.484 20.824 336.336 20.7659C336.189 20.7077 335.917 20.6794 335.52 20.6794H334.596V22.2047V22.2047Z" fill="#E20074"/>
<path d="M0 0.811523V22.239H3.86654V21.6167C3.86654 11.5253 9.66637 5.23485 20.6291 5.23485H21.266V50.6016C21.266 56.892 18.6959 59.426 12.2365 59.426H10.3032V63.8271H43.8284V59.426H41.8951C35.4585 59.426 32.8656 56.9143 32.8656 50.6016V5.2126H33.5025C44.4653 5.2126 50.2651 11.503 50.2651 21.5944V22.2168H54.1316V0.811523H0Z" fill="#E20074"/>
<rect x="0.00292969" y="29.7373" width="12.9163" height="12.706" fill="#E20074"/>
<rect x="41.2524" y="29.7373" width="12.9163" height="12.706" fill="#E20074"/>
</svg>
