<svg width="103" height="38" viewBox="0 0 103 38" fill="none" xmlns="http://www.w3.org/2000/svg">
<path d="M44.9463 17.0002C44.7847 17.6441 44.4769 18.2085 43.9741 18.6523C43.5354 19.0422 43.0198 19.2859 42.4554 19.4322C41.9577 19.5579 41.4524 19.5681 40.9444 19.5527C40.5058 19.5399 40.0825 19.4578 39.6746 19.309C38.9845 19.0551 38.4099 18.642 38.0046 18.0212C37.689 17.5441 37.4889 17.0182 37.3684 16.4615C37.2452 15.8869 37.217 15.3046 37.2529 14.7222C37.3042 13.9398 37.4941 13.1984 37.8891 12.5161C38.3688 11.69 39.0717 11.159 39.9978 10.9487C40.2826 10.882 40.5699 10.8384 40.8623 10.805C41.5165 10.7409 42.1655 10.8101 42.7863 11.0154C43.9253 11.3873 44.6564 12.1621 44.954 13.337C44.9771 13.4139 45.0028 13.496 45.0258 13.5755C45.1362 13.6166 45.2413 13.6038 45.3414 13.6038C46.1443 13.6038 46.9447 13.6038 47.7399 13.6038C48.0427 13.6038 48.3479 13.6038 48.6429 13.6038C48.7173 13.6012 48.7969 13.6217 48.8712 13.5448C48.8712 13.5217 48.8789 13.4858 48.8712 13.4498C48.8199 13.1907 48.784 12.9265 48.7225 12.6751C48.3402 11.1488 47.4655 10.0021 46.0828 9.24786C45.6338 9.00159 45.1567 8.83484 44.6693 8.68605C43.7073 8.39874 42.7145 8.291 41.7166 8.25508C40.7084 8.2166 39.7054 8.27817 38.71 8.46287C38.0379 8.59114 37.3889 8.77841 36.7732 9.06572C35.3161 9.76092 34.3105 10.8691 33.8128 12.4135C33.6281 12.9676 33.5153 13.5396 33.4614 14.1245C33.3716 15.1173 33.3921 16.0973 33.5845 17.0772C33.7077 17.698 33.9052 18.2983 34.2002 18.855C34.7877 19.9657 35.6804 20.7636 36.8168 21.292C37.707 21.6999 38.651 21.9103 39.6182 22.0231C40.3108 22.0975 41.0086 22.095 41.7038 22.0873C42.4118 22.0744 43.1147 21.9923 43.8073 21.8513C44.5513 21.6999 45.2644 21.4793 45.9365 21.1201C46.5342 20.8097 47.0807 20.4301 47.5322 19.9221C48.1966 19.1859 48.6147 18.3239 48.8174 17.3543C48.861 17.1465 48.9303 16.9387 48.8943 16.7078C48.8353 16.695 48.784 16.677 48.7302 16.677C47.8374 16.636 45.2542 16.6616 45.0181 16.7104C44.9899 16.8027 44.9694 16.9002 44.9438 17.0002H44.9463Z" fill="#111111"/>
<path d="M8.45237 11.089C9.34767 11.0916 10.2404 11.0916 11.1357 11.0916C11.6821 11.0916 12.2285 11.089 12.7724 11.0916C12.8647 11.0916 12.9622 11.0633 13.0494 11.1377C13.0879 11.2429 13.0699 11.3532 13.0699 11.4661C13.0725 14.665 13.0725 17.8691 13.0725 21.0681C13.0725 21.163 13.0699 21.2605 13.0725 21.3528C13.0725 21.4041 13.0905 21.4554 13.1059 21.517C13.1931 21.5221 13.2675 21.5324 13.3393 21.5324C13.9268 21.535 14.5065 21.535 15.0888 21.5324C15.2017 21.5324 15.3172 21.5247 15.4275 21.517C15.6609 21.4939 15.8918 21.4349 16.1047 21.3323C16.4741 21.1476 16.705 20.8526 16.7666 20.4396C16.782 20.2985 16.7896 20.1599 16.7922 20.0163V14.0006C16.7922 13.1464 16.7922 12.2896 16.7922 11.4327C16.7922 11.3276 16.7691 11.2249 16.823 11.1198C16.9256 11.0736 17.041 11.0916 17.1539 11.0916C18.4725 11.089 19.7885 11.0916 21.1045 11.089C21.2174 11.089 21.3328 11.1146 21.4483 11.0479C21.456 11.012 21.4739 10.9684 21.4739 10.9197C21.4739 10.2424 21.4739 9.56519 21.4739 8.88538C21.4739 8.83407 21.4483 8.78277 21.4277 8.71607C21.3072 8.71094 21.1969 8.71094 21.0865 8.71094H8.48572C8.41133 8.71094 8.33693 8.71094 8.25741 8.71094C8.21636 8.71607 8.17275 8.73403 8.13427 8.74172C8.09066 8.96234 8.08553 10.7452 8.12144 11.0479C8.23432 11.1146 8.3395 11.089 8.44211 11.089H8.45237Z" fill="#111111"/>
<path d="M22.8308 21.5363H32.3532C32.4045 21.5363 32.4635 21.5388 32.52 21.5337C32.5738 21.5286 32.6277 21.5183 32.6842 21.5106C32.6944 21.4593 32.7072 21.4234 32.7072 21.3875C32.7072 20.6897 32.7098 19.9945 32.7072 19.2993C32.7072 19.2557 32.6842 19.2146 32.6739 19.1762C32.3635 19.13 24.6393 19.112 22.7205 19.1479C22.6563 19.1505 22.5922 19.1633 22.5229 19.171C22.5101 19.2146 22.4922 19.2506 22.4922 19.2839C22.4896 19.9919 22.4896 20.6974 22.4922 21.4029C22.4922 21.4362 22.5101 21.4747 22.5204 21.5055C22.623 21.5542 22.7282 21.5388 22.8308 21.5388V21.5363Z" fill="#111111"/>
<path d="M22.8512 11.0874C24.924 11.0899 26.9917 11.0899 29.0619 11.0899C29.6468 11.0899 30.2291 11.0874 30.8166 11.0899C31.0731 11.0899 31.3194 11.0515 31.5708 10.9925C31.9504 10.8975 32.2147 10.6641 32.4019 10.328C32.443 10.2434 32.484 10.1562 32.5148 10.0664C32.6508 9.68158 32.7123 9.28396 32.7072 8.87351C32.7072 8.8299 32.6944 8.78629 32.6815 8.74268C32.5635 8.68624 32.4532 8.70676 32.3404 8.70676C29.1773 8.70676 26.0143 8.70676 22.8538 8.70676C22.7769 8.70676 22.7025 8.70676 22.6306 8.70676C22.5947 8.71189 22.5588 8.72729 22.5255 8.73755C22.5152 8.77346 22.4972 8.79655 22.4972 8.82477C22.4972 9.53023 22.4947 10.2383 22.4972 10.9412C22.4972 10.9771 22.5126 11.013 22.5178 11.0438C22.6281 11.1105 22.7486 11.0848 22.8564 11.0848L22.8512 11.0874Z" fill="#111111"/>
<path d="M22.8596 16.3195C25.8431 16.3221 28.824 16.3221 31.81 16.3221C31.8741 16.3221 31.9408 16.3221 32.005 16.3195C32.0614 16.3169 32.1127 16.299 32.1794 16.2836C32.182 16.0219 32.182 15.768 32.182 15.514C32.182 15.2523 32.1871 14.9907 32.182 14.7239C32.1794 14.475 32.2102 14.2185 32.1563 13.9594C32.0717 13.9594 31.9973 13.9491 31.9254 13.9491C29.119 13.9158 22.798 13.9338 22.5159 13.9722C22.5082 14.0056 22.4902 14.0415 22.4902 14.0748C22.4876 14.7803 22.4876 15.4858 22.4902 16.1912C22.4902 16.2272 22.5082 16.2631 22.5184 16.3041C22.6313 16.3426 22.7442 16.3246 22.857 16.3246L22.8596 16.3195Z" fill="#111111"/>
<path d="M33.4336 24.9902H36.0169C37.0045 24.9902 37.4483 25.4263 37.4483 26.1549C37.4483 26.7193 37.1482 26.9989 36.7711 27.1374V27.1502C37.3047 27.2734 37.6484 27.6248 37.6484 28.2944C37.6484 28.9639 37.1866 29.636 36.1785 29.636H33.4336V24.9902ZM36.004 26.9117C36.512 26.9117 36.7582 26.632 36.7582 26.2601C36.7582 25.8368 36.5299 25.5905 35.9656 25.5905H34.1237V26.9117H36.004ZM35.9912 29.0383C36.7582 29.0383 36.9609 28.6484 36.9609 28.2508C36.9609 27.8865 36.7531 27.5094 36.0502 27.5094H34.1262V29.0383H35.9938H35.9912Z" fill="#111111"/>
<path d="M38.6491 28.1277C38.7004 28.8306 39.3263 29.2077 39.9061 29.2077C40.278 29.2077 40.7834 29.0845 41.004 28.6022H41.6941C41.3683 29.4232 40.6064 29.7541 39.9368 29.7541C38.6106 29.7541 37.959 28.9152 37.959 27.9327C37.959 26.9502 38.6106 26.1113 39.9368 26.1113C40.8347 26.1113 41.7864 26.6321 41.7864 28.043V28.1277H38.6491ZM41.0964 27.6197C40.9989 27.0015 40.5166 26.6577 39.9061 26.6577C39.2955 26.6577 38.7671 27.0092 38.6696 27.6197H41.0964Z" fill="#111111"/>
<path d="M44.4602 28.1079C44.473 28.9416 45.2529 29.1546 45.9558 29.1546C46.6587 29.1546 47.2102 28.8749 47.2102 28.367C47.2102 27.9437 46.8793 27.7667 46.3432 27.6769L45.2888 27.4999C44.7373 27.4076 43.9112 27.1895 43.9112 26.284C43.9112 25.4374 44.5808 24.873 45.7711 24.873C46.7023 24.873 47.6823 25.2117 47.7489 26.3301H47.0589C46.9999 25.9659 46.7921 25.4708 45.6787 25.4708C45.1708 25.4708 44.5987 25.6863 44.5987 26.2352C44.5987 26.52 44.7886 26.7483 45.3606 26.8458L46.4996 27.0407C46.8639 27.1049 47.8977 27.2819 47.8977 28.231C47.8977 29.4162 46.8383 29.7523 45.9019 29.7523C44.8553 29.7523 43.7676 29.388 43.7676 28.1079H44.4576H44.4602Z" fill="#111111"/>
<path d="M53.2999 27.4697C53.2999 26.8463 52.9022 26.6565 52.4815 26.6565C51.8889 26.6565 51.363 26.9361 51.363 27.5749V29.6374H50.7114V27.4723C50.7114 26.8489 50.3138 26.6591 49.8931 26.6591C49.3005 26.6591 48.7721 27.0028 48.7721 27.6749V29.64H48.123V26.2332H48.7721V26.7463H48.7849C49.0902 26.2717 49.6315 26.1152 50.1189 26.1152C50.5601 26.1152 51.0039 26.2974 51.2784 26.7463C51.5888 26.3564 52.0069 26.1152 52.656 26.1152C52.9997 26.1152 53.9514 26.2794 53.9514 27.3184V29.64H53.2999V27.4749V27.4697Z" fill="#111111"/>
<path d="M54.456 27.2939C54.5407 26.4423 55.1256 26.1113 56.1466 26.1113C56.8443 26.1113 57.714 26.2858 57.714 27.081V28.9152C57.714 29.1179 57.8063 29.2077 58.0064 29.2077C58.0783 29.2077 58.1681 29.1948 58.2322 29.182V29.6361C58.0783 29.6617 57.8807 29.6746 57.7268 29.6746C57.401 29.6746 57.1855 29.5848 57.1394 29.2C56.8803 29.5514 56.2415 29.7515 55.69 29.7515C54.5587 29.7515 54.3047 29.1666 54.3047 28.7254C54.3047 28.0994 54.6767 27.7813 55.7695 27.6633L56.5109 27.5864C56.8751 27.5479 57.1009 27.4812 57.1009 27.1759C57.1009 26.7065 56.6468 26.6167 56.1184 26.6167C55.5591 26.6167 55.0845 26.7655 55.064 27.2939H54.4535H54.456ZM57.1034 27.8532C57.006 27.9635 56.8315 28.0097 56.4672 28.0533L55.7336 28.1456C55.2256 28.2123 54.9588 28.3483 54.9588 28.7049C54.9588 29.023 55.2769 29.2461 55.7541 29.2461C56.4878 29.2461 57.106 28.8562 57.106 28.2893V27.8532H57.1034Z" fill="#111111"/>
<path d="M58.3965 26.2274H59.0481V26.8508H59.0609C59.3662 26.3095 59.8023 26.1094 60.2307 26.1094C60.3923 26.1094 60.477 26.1145 60.6027 26.1479V26.8508C60.441 26.8123 60.3153 26.7866 60.1409 26.7866C59.497 26.7866 59.0481 27.1637 59.0481 27.9051V29.6341H58.3965V26.2274Z" fill="#111111"/>
<path d="M61.0512 25.1797H61.7002V26.2289H62.6776V26.7368H61.7002V28.8378C61.7002 29.1098 61.8952 29.2098 62.2261 29.2098C62.3749 29.2098 62.5262 29.1893 62.675 29.1636V29.71C62.4544 29.7485 62.2133 29.7562 61.9465 29.7562C61.3077 29.7562 61.0486 29.4458 61.0486 28.9507V26.7394H60.3457V26.2315H61.0486V25.1823L61.0512 25.1797Z" fill="#111111"/>
<path d="M68.371 29.1082C68.0196 29.5392 67.368 29.7521 66.719 29.7521C65.3209 29.7521 64.8848 28.985 64.8848 28.3668C64.8848 27.787 65.2311 27.2791 66.0956 26.9815C65.6851 26.6173 65.5877 26.2992 65.5877 26.0375C65.5877 25.4141 66.0238 24.9883 66.7908 24.9883C67.5578 24.9883 67.9683 25.4449 67.9683 25.9964C67.9683 26.3607 67.7528 26.802 67.0704 27.0764L68.2992 28.2154C68.43 28 68.4865 27.8101 68.5147 27.492H69.1252C69.1124 27.8512 69.0201 28.2334 68.7404 28.6233L69.8333 29.6315H68.9277L68.3685 29.1056L68.371 29.1082ZM66.465 27.3458C65.7416 27.6511 65.5748 27.9769 65.5748 28.3463C65.5748 28.7157 65.8416 29.2057 66.7523 29.2057C67.2089 29.2057 67.6707 29.0954 67.9426 28.7311L66.4676 27.3458H66.465ZM66.6856 26.7353C67.1756 26.5326 67.3552 26.2735 67.3552 26.0401C67.3552 25.7733 67.1217 25.5398 66.7959 25.5398C66.3778 25.5398 66.1956 25.7733 66.1956 26.0093C66.1956 26.2453 66.3598 26.4377 66.6831 26.7378L66.6856 26.7353Z" fill="#111111"/>
<path d="M72.0977 28.1079C72.1105 28.9416 72.8903 29.1546 73.5932 29.1546C74.2961 29.1546 74.8502 28.8749 74.8502 28.367C74.8502 27.9437 74.5168 27.7667 73.9857 27.6769L72.9314 27.4999C72.3773 27.4076 71.5513 27.1895 71.5513 26.284C71.5513 25.4374 72.2208 24.873 73.4111 24.873C74.3398 24.873 75.3248 25.2117 75.389 26.3301H74.6989C74.6399 25.9659 74.4321 25.4708 73.3213 25.4708C72.8134 25.4708 72.2413 25.6863 72.2413 26.2352C72.2413 26.52 72.4311 26.7483 73.0032 26.8458L74.1422 27.0407C74.5065 27.1049 75.5403 27.2819 75.5403 28.231C75.5403 29.4162 74.4808 29.7523 73.5445 29.7523C72.4979 29.7523 71.4102 29.388 71.4102 28.1079H72.1002H72.0977Z" fill="#111111"/>
<path d="M76.2994 28.1277C76.3508 28.8306 76.9741 29.2077 77.5539 29.2077C77.9259 29.2077 78.4338 29.0845 78.6544 28.6022H79.3445C79.0187 29.4232 78.2568 29.7541 77.5872 29.7541C76.261 29.7541 75.6094 28.9152 75.6094 27.9327C75.6094 26.9502 76.261 26.1113 77.5872 26.1113C78.4851 26.1113 79.4368 26.6321 79.4368 28.043V28.1277H76.302H76.2994ZM78.7442 27.6197C78.6441 27.0015 78.1644 26.6577 77.5513 26.6577C76.9382 26.6577 76.4123 27.0092 76.3148 27.6197H78.7416H78.7442Z" fill="#111111"/>
<path d="M83.2979 28.3874C83.0234 29.4058 82.4052 29.7521 81.5227 29.7521C80.1682 29.7521 79.668 28.8363 79.668 27.9513C79.668 26.9431 80.2862 26.1094 81.5176 26.1094C82.4282 26.1094 83.1491 26.5198 83.2876 27.3638H82.5976C82.518 26.9226 82.1666 26.6558 81.5637 26.6558C80.73 26.6558 80.3606 27.2022 80.3606 27.9307C80.3606 28.6593 80.73 29.2057 81.5637 29.2057C82.1486 29.2057 82.4667 28.9517 82.6104 28.3874H83.3005H83.2979Z" fill="#111111"/>
<path d="M87.0646 29.6359H86.413V29.1228H86.4002C86.0949 29.5974 85.5536 29.7539 85.0662 29.7539C84.2453 29.7539 83.6348 29.4024 83.6348 28.5507V26.2291H84.2838V28.4199C84.2838 28.9201 84.5968 29.2075 85.292 29.2075C85.8846 29.2075 86.4104 28.8611 86.4104 28.1916V26.2266H87.062V29.6333L87.0646 29.6359Z" fill="#111111"/>
<path d="M87.5781 26.2274H88.2297V26.8508H88.24C88.5478 26.3095 88.9814 26.1094 89.4123 26.1094C89.5765 26.1094 89.6586 26.1145 89.7843 26.1479V26.8508C89.6201 26.8123 89.497 26.7866 89.3225 26.7866C88.6786 26.7866 88.2297 27.1637 88.2297 27.9051V29.6341H87.5781V26.2274Z" fill="#111111"/>
<path d="M90.4869 28.1277C90.5383 28.8306 91.1616 29.2077 91.7414 29.2077C92.1134 29.2077 92.6213 29.0845 92.8419 28.6022H93.532C93.2062 29.4232 92.4443 29.7541 91.7747 29.7541C90.4485 29.7541 89.7969 28.9152 89.7969 27.9327C89.7969 26.9502 90.4485 26.1113 91.7747 26.1113C92.6726 26.1113 93.6218 26.6321 93.6218 28.043V28.1277H90.4869ZM92.9317 27.6197C92.8342 27.0015 92.3519 26.6577 91.7414 26.6577C91.1308 26.6577 90.6024 27.0092 90.5049 27.6197H92.9317Z" fill="#111111"/>
<path d="M77.4283 14.0396C77.3 13.9729 77.1666 13.9139 77.0332 13.8574C77.4642 16.1149 77.6489 18.5135 77.4898 21.0403C77.6155 20.9633 77.7412 20.889 77.8618 20.7992C77.9926 18.4288 77.8233 16.1713 77.4283 14.0396Z" fill="#111111"/>
<path d="M78.3362 14.6462C78.208 14.5282 78.0694 14.4256 77.9258 14.3281C78.2593 16.2598 78.4106 18.2915 78.3234 20.4131C78.4594 20.2797 78.5825 20.1386 78.6928 19.9872C78.7441 18.1351 78.6133 16.3547 78.3362 14.6462Z" fill="#111111"/>
<path d="M75.5117 18.6992C75.4091 18.83 75.2885 18.9455 75.1551 19.0481C75.1628 19.9844 75.1269 20.9413 75.0371 21.9161C75.1295 21.9007 75.2218 21.8879 75.3142 21.8699C75.3424 21.8648 75.3706 21.8546 75.4014 21.8494C75.4989 20.7746 75.5373 19.7253 75.5143 18.6992H75.5117Z" fill="#111111"/>
<path d="M76.5567 13.6831C76.4412 13.6446 76.3284 13.601 76.2078 13.5702C76.195 13.5676 76.1847 13.5651 76.1719 13.5625C76.6747 16.0278 76.8825 18.67 76.6644 21.4739C76.7927 21.4226 76.9132 21.3559 77.0364 21.2944C77.2313 18.6059 77.0313 16.0662 76.5541 13.6856L76.5567 13.6831Z" fill="#111111"/>
<path d="M75.7046 13.4495C75.5815 13.4239 75.4558 13.4033 75.3301 13.3828C75.8842 15.9712 76.1048 18.7648 75.8483 21.738C75.9714 21.7047 76.0945 21.6662 76.2151 21.6277C76.4588 18.7238 76.2433 15.9892 75.7046 13.4495Z" fill="#111111"/>
<path d="M79.3283 16.2533C79.2334 15.8941 79.0769 15.5658 78.8691 15.2656C79.0436 16.5355 79.1385 17.8438 79.1385 19.188C79.1667 19.1213 79.2026 19.0597 79.2283 18.9905C79.3591 18.6313 79.4361 18.267 79.472 17.9028C79.4489 17.4051 79.4156 16.91 79.3668 16.4226C79.354 16.3661 79.3437 16.3097 79.3283 16.2533Z" fill="#111111"/>
<path d="M72.7676 19.6328C72.7599 20.4281 72.7162 21.2387 72.6367 22.0647C72.7547 22.0699 72.8727 22.0724 72.9933 22.075C73.0754 21.2464 73.119 20.4358 73.1267 19.6379C73.0061 19.6379 72.8881 19.6379 72.7676 19.6328Z" fill="#111111"/>
<path d="M70.7327 19.0608C70.5917 18.9607 70.4711 18.8504 70.371 18.7324C70.3967 19.7021 70.3659 20.7026 70.2812 21.7261C70.3967 21.7569 70.5147 21.7877 70.6301 21.8134C70.7122 20.8745 70.7456 19.9561 70.7353 19.0608H70.7327Z" fill="#111111"/>
<path d="M71.5332 19.4375C71.41 19.4016 71.2895 19.3579 71.1715 19.3066C71.174 20.1506 71.1381 21.0151 71.0586 21.9002C71.1766 21.9207 71.292 21.9412 71.41 21.9592C71.4896 21.1024 71.5306 20.2609 71.5332 19.44V19.4375Z" fill="#111111"/>
<path d="M67.6037 10.6504C67.519 10.7504 67.4344 10.8505 67.3574 10.9557C68.3835 13.934 68.9582 17.3074 68.735 21.063C68.8479 21.1323 68.9633 21.2015 69.0813 21.2631C69.3481 17.3023 68.7196 13.757 67.6037 10.6504Z" fill="#111111"/>
<path d="M74.7185 19.3203C74.6031 19.3767 74.4825 19.4229 74.3593 19.4614C74.3542 20.2977 74.3106 21.1545 74.2285 22.0242C74.3491 22.0139 74.4697 22.0062 74.5877 21.9908C74.6749 21.0827 74.7159 20.1925 74.7159 19.3203H74.7185Z" fill="#111111"/>
<path d="M71.9765 19.543C71.9765 19.543 71.974 19.543 71.9714 19.543C71.9663 20.351 71.9252 21.1745 71.8457 22.0159C71.9637 22.0288 72.0817 22.0365 72.1997 22.0442C72.2818 21.213 72.3228 20.3947 72.3305 19.5968C72.2125 19.5814 72.0945 19.5661 71.9765 19.5455V19.543Z" fill="#111111"/>
<path d="M68.2056 10.0566C68.1133 10.1336 68.0261 10.2157 67.9414 10.2978C69.1394 13.548 69.8141 17.278 69.5063 21.4595C69.6191 21.5056 69.7346 21.5493 69.8526 21.5903C70.1989 17.2575 69.478 13.4018 68.2082 10.0592L68.2056 10.0566Z" fill="#111111"/>
<path d="M74.9701 16.0749C74.9957 16.0903 75.0214 16.1005 75.0445 16.1159C75.1676 16.1954 75.2676 16.2852 75.36 16.3802C75.2497 15.3309 75.0804 14.3099 74.8649 13.3197C74.7417 13.3043 74.6212 13.2941 74.498 13.2812C74.6981 14.1868 74.8572 15.118 74.9701 16.0749Z" fill="#111111"/>
<path d="M70.5459 16.2337C70.4561 15.5 70.3381 14.7843 70.1944 14.084C70.0867 14.1507 69.9815 14.2225 69.8789 14.302C70.0277 15.0562 70.1457 15.8284 70.2304 16.6236C70.315 16.48 70.4228 16.3517 70.5485 16.2363L70.5459 16.2337Z" fill="#111111"/>
<path d="M73.6836 13.2363C73.8657 14.047 74.0145 14.8781 74.1274 15.7324C74.1941 15.7503 74.2634 15.7632 74.3301 15.7837C74.3891 15.8016 74.4429 15.8273 74.5019 15.8478C74.3891 14.9602 74.2351 14.0931 74.0453 13.2492C73.9247 13.244 73.8042 13.2389 73.6836 13.2363Z" fill="#111111"/>
<path d="M78.6876 12.3678C78.4926 11.5572 78.2695 10.7645 78.0181 9.99234C77.8641 9.85381 77.7025 9.72811 77.5332 9.61523C77.8359 10.508 78.1027 11.4263 78.3285 12.3704C78.449 12.3704 78.5696 12.3704 78.6876 12.3704V12.3678Z" fill="#111111"/>
<path d="M77.8762 12.3693C77.6197 11.3098 77.3093 10.2811 76.9578 9.28833C76.8193 9.22164 76.6782 9.1652 76.5371 9.11133C76.9168 10.158 77.2477 11.2457 77.5196 12.3693C77.6402 12.3693 77.7582 12.3693 77.8788 12.3693H77.8762Z" fill="#111111"/>
<path d="M72.8828 13.2627C73.0547 14.0246 73.1983 14.8045 73.3087 15.6048C73.4318 15.6151 73.5549 15.6305 73.6729 15.6459C73.5601 14.825 73.4138 14.022 73.2368 13.2422C73.1188 13.2473 73.0008 13.255 72.8828 13.2627Z" fill="#111111"/>
<path d="M77.0698 12.3703C76.7773 11.1826 76.4207 10.0385 76.0103 8.93794C75.9385 8.91742 75.8692 8.89176 75.7974 8.8738C75.7384 8.85841 75.6768 8.85072 75.6152 8.83789C76.0411 9.96919 76.4105 11.1467 76.7106 12.3703C76.8312 12.3703 76.9492 12.3703 77.0698 12.3703Z" fill="#111111"/>
<path d="M79.1497 12.3496C79.16 12.2855 79.1677 12.2573 79.1651 12.2291C79.1035 11.7622 78.9701 11.3287 78.7598 10.9336C78.8932 11.4005 79.0189 11.8725 79.1317 12.3522C79.1394 12.3522 79.142 12.3522 79.1497 12.3522V12.3496Z" fill="#111111"/>
<path d="M70.5938 13.8558C70.7374 14.5356 70.8554 15.2334 70.9478 15.9466C70.9862 15.926 71.0222 15.9029 71.0632 15.885C71.1376 15.8491 71.212 15.8183 71.2889 15.7901C71.1915 15.0795 71.0683 14.3843 70.9195 13.707C70.8092 13.7532 70.7015 13.8019 70.5938 13.8558Z" fill="#111111"/>
<path d="M67.0513 11.4238C66.9718 11.5598 66.8948 11.6932 66.8281 11.8343C67.6336 14.4278 68.0877 17.3164 67.9697 20.4897C68.0313 20.5461 68.0928 20.6051 68.1595 20.659C68.2083 20.7 68.2621 20.7334 68.3134 20.7718C68.4827 17.3215 67.9697 14.1995 67.0539 11.4238H67.0513Z" fill="#111111"/>
<path d="M71.334 13.5559C71.4853 14.2459 71.6136 14.9514 71.7136 15.6748C71.7957 15.6568 71.8804 15.644 71.965 15.6312C71.9984 15.6261 72.0317 15.6235 72.0677 15.6184C71.9625 14.8821 71.8317 14.1638 71.6726 13.4609C71.5597 13.4892 71.4469 13.5225 71.334 13.5584V13.5559Z" fill="#111111"/>
<path d="M72.2695 13.3317C72.2105 13.3419 72.1541 13.3522 72.0977 13.365C72.2593 14.0859 72.3978 14.8247 72.503 15.5789C72.562 15.5738 72.6184 15.5712 72.6646 15.5661C72.7313 15.5661 72.7954 15.5712 72.8621 15.5738C72.7544 14.8016 72.6133 14.0448 72.444 13.3086C72.3875 13.3163 72.3285 13.3214 72.2721 13.3317H72.2695Z" fill="#111111"/>
<path d="M71.1227 11.3969C70.8661 10.5606 70.5737 9.75251 70.253 8.97266C70.1479 9.00344 70.0427 9.03935 69.9375 9.07527C70.2633 9.88334 70.5634 10.7196 70.8225 11.5841C70.9174 11.5149 71.0149 11.4533 71.1227 11.3969Z" fill="#111111"/>
<path d="M70.4619 11.9082C70.1926 10.9846 69.8822 10.097 69.5359 9.24023C69.4358 9.28384 69.3358 9.33259 69.2383 9.38389C69.6051 10.3048 69.9309 11.2617 70.2054 12.2596C70.2849 12.1339 70.3696 12.0159 70.4645 11.9107L70.4619 11.9082Z" fill="#111111"/>
<path d="M66.5695 12.4987C66.4976 12.7065 66.4361 12.9194 66.3848 13.1297C66.8978 15.1178 67.198 17.2676 67.1903 19.5815C67.298 19.7457 67.416 19.8996 67.5417 20.0484C67.5982 17.3086 67.2262 14.7895 66.5695 12.4961V12.4987Z" fill="#111111"/>
<path d="M71.8341 11.1338C71.8341 11.1338 71.8443 11.1338 71.852 11.1312C71.5981 10.3257 71.3133 9.54327 71.0029 8.78906C70.8952 8.81215 70.7874 8.84037 70.6797 8.86602C70.9901 9.62536 71.2723 10.4129 71.5262 11.2235C71.6263 11.1902 71.7289 11.1594 71.8366 11.1338H71.8341Z" fill="#111111"/>
<path d="M69.9126 12.871C69.6201 11.732 69.2636 10.6392 68.8531 9.59766C68.7582 9.65666 68.6607 9.71566 68.5684 9.77979C69.0352 10.9881 69.4303 12.2656 69.733 13.6072C69.7741 13.3405 69.8382 13.0762 69.9126 12.871Z" fill="#111111"/>
<path d="M75.3071 11.8132C75.0044 10.7076 74.6452 9.64296 74.2399 8.61684C74.1168 8.60658 73.9962 8.60145 73.873 8.59375C74.2296 9.49674 74.5529 10.4305 74.8325 11.4002C75.012 11.5105 75.1762 11.6439 75.3071 11.8132Z" fill="#111111"/>
<path d="M74.3057 11.1637C74.0389 10.2735 73.7311 9.41413 73.3976 8.58041C73.2796 8.58041 73.159 8.57527 73.041 8.58041C73.3668 9.38848 73.6618 10.2222 73.9235 11.0842C74.0518 11.1072 74.18 11.1329 74.3057 11.1662V11.1637Z" fill="#111111"/>
<path d="M76.26 12.3706C75.947 11.1084 75.5571 9.89503 75.1082 8.73551C74.9825 8.71242 74.8542 8.6996 74.7285 8.68164C75.1851 9.85912 75.5802 11.0905 75.8983 12.3731C76.0189 12.3731 76.1394 12.3731 76.2574 12.3731L76.26 12.3706Z" fill="#111111"/>
<path d="M73.449 11.0309C73.1899 10.1946 72.8975 9.38398 72.5768 8.60156C72.4613 8.60669 72.3459 8.61439 72.2305 8.62465C72.5434 9.39681 72.8307 10.1946 73.0847 11.0155C73.2053 11.0155 73.3259 11.0232 73.4464 11.0335L73.449 11.0309Z" fill="#111111"/>
<path d="M72.6331 11.021C72.3791 10.2129 72.0918 9.42535 71.7814 8.66602C71.7557 8.66858 71.7275 8.67115 71.7018 8.67371C71.6146 8.68397 71.5325 8.70193 71.4453 8.71476C71.7532 9.46896 72.0353 10.2463 72.2867 11.0492C72.4022 11.0338 72.5176 11.0261 72.6331 11.021Z" fill="#111111"/>
<path d="M73.7273 19.6017C73.6734 19.6094 73.6195 19.6094 73.5631 19.6145C73.5554 20.4175 73.5118 21.2358 73.4297 22.0695C73.5477 22.067 73.6683 22.0644 73.7863 22.0593C73.8684 21.2127 73.9145 20.3816 73.9197 19.5684C73.8555 19.5812 73.7888 19.594 73.7221 19.6017H73.7273Z" fill="#111111"/>
<path d="M66.7394 18.7115C66.6906 17.1389 66.5008 15.6459 66.1955 14.2324C66.175 14.4402 66.1596 14.6506 66.1493 14.8609C66.1288 15.2996 66.1391 15.7383 66.1699 16.1769C66.2135 16.5027 66.252 16.8285 66.2827 17.162C66.3751 17.693 66.5239 18.2087 66.7368 18.7089L66.7394 18.7115Z" fill="#111111"/>
<path d="M93.4351 15.7537C93.4633 15.1406 93.4248 14.5249 93.3401 13.9118C93.2555 13.309 93.1067 12.7215 92.8758 12.1623C92.8399 12.0751 92.7963 11.9981 92.7578 11.916C93.0554 13.3526 93.2709 14.8379 93.3838 16.3617C93.4043 16.1616 93.4197 15.959 93.4299 15.7537H93.4351Z" fill="#111111"/>
<path d="M80.8583 11.3496C80.7685 11.4984 80.6941 11.6549 80.6172 11.8139C81.2688 14.4254 81.6177 17.2191 81.515 20.1743C81.6254 20.2923 81.7382 20.4026 81.8588 20.5104C82.0127 17.2601 81.6177 14.192 80.8583 11.3496Z" fill="#111111"/>
<path d="M84.9368 11.4804C84.7188 10.6005 84.4674 9.73852 84.1877 8.89453C84.1005 8.91762 84.0107 8.94071 83.9235 8.96893C83.903 8.97662 83.8825 8.98432 83.8594 8.99201C84.1493 9.87705 84.4084 10.7852 84.6315 11.7138C84.7265 11.6266 84.8291 11.5496 84.9342 11.4804H84.9368Z" fill="#111111"/>
<path d="M85.6651 11.1507C85.4547 10.3246 85.2136 9.514 84.9493 8.71875C84.8365 8.73927 84.7236 8.76236 84.6133 8.78801C84.8801 9.59609 85.1212 10.4221 85.3341 11.2635C85.4393 11.2174 85.5522 11.184 85.6676 11.1507H85.6651Z" fill="#111111"/>
<path d="M91.5573 10.2227C92.2576 12.9316 92.686 15.8304 92.6834 18.8652C92.7989 18.6343 92.904 18.3983 92.9913 18.1495C93.0067 18.1059 93.0169 18.0597 93.0323 18.0135C92.9682 15.4995 92.6065 13.0676 92.0318 10.7434C91.8831 10.5587 91.724 10.3843 91.5547 10.2227H91.5573Z" fill="#111111"/>
<path d="M82.0868 9.96875C81.9893 10.0457 81.8892 10.1201 81.7969 10.2048C82.8127 13.6038 83.3412 17.3312 83.0436 21.3151C83.0975 21.3434 83.1488 21.3716 83.2027 21.3972C83.2642 21.4255 83.3258 21.446 83.3874 21.4716C83.7234 17.3415 83.1642 13.4781 82.0868 9.96875Z" fill="#111111"/>
<path d="M81.4497 10.5664C81.3573 10.669 81.2624 10.7742 81.1777 10.8845C82.0345 13.9578 82.4809 17.2952 82.2731 20.8482C82.3834 20.9277 82.4989 21.0047 82.6194 21.0791C82.8734 17.3209 82.386 13.7961 81.4497 10.5664Z" fill="#111111"/>
<path d="M80.3328 12.4928C80.2533 12.7211 80.1814 12.952 80.125 13.1854C80.5098 15.0632 80.7304 17.036 80.7355 19.0882C80.8459 19.2883 80.9613 19.4782 81.0896 19.6577C81.1332 17.1463 80.851 14.7503 80.3328 12.4902V12.4928Z" fill="#111111"/>
<path d="M83.6563 13.3696C83.6716 13.3157 83.6922 13.2644 83.7076 13.2106C83.4562 11.9305 83.1329 10.6888 82.7507 9.48828C82.6481 9.54728 82.5506 9.61398 82.4531 9.68068C82.8944 11.089 83.2509 12.5538 83.5023 14.0699C83.5408 13.8314 83.587 13.5979 83.6537 13.3696H83.6563Z" fill="#111111"/>
<path d="M87.9027 19.4186C87.8899 20.2754 87.8411 21.1425 87.7539 22.0172C87.8745 22.0044 87.995 21.989 88.1156 21.9685C88.208 21.0501 88.2567 20.142 88.267 19.2441C88.1515 19.3108 88.031 19.3673 87.9027 19.416V19.4186Z" fill="#111111"/>
<path d="M79.9167 14.5374C79.8602 15.3531 79.8782 16.1663 80.0167 16.9719C80.0783 17.3284 80.1629 17.6799 80.2733 18.0211C80.2245 16.8205 80.1039 15.6507 79.9192 14.5117C79.9192 14.5194 79.9192 14.5297 79.9167 14.5374Z" fill="#111111"/>
<path d="M89.9942 9.19566C89.871 9.14179 89.7402 9.09562 89.6094 9.04688C90.6842 12.6434 91.2973 16.6197 91.0331 20.8396C91.1614 20.7447 91.2845 20.6421 91.4077 20.5369C91.6232 16.535 91.046 12.723 89.9942 9.19566Z" fill="#111111"/>
<path d="M89.0849 8.8813C88.9617 8.84795 88.8386 8.80947 88.7129 8.78125C89.8904 12.5805 90.5522 16.8209 90.1982 21.3436C90.3265 21.282 90.4547 21.2179 90.5753 21.1461C90.8934 16.7953 90.2598 12.6651 89.0849 8.8813Z" fill="#111111"/>
<path d="M90.9637 9.73688C90.8277 9.64197 90.6892 9.55475 90.543 9.47266C91.469 12.746 92.0078 16.3144 91.8615 20.0828C91.9949 19.9314 92.1206 19.775 92.2361 19.6108C92.3207 16.1553 91.8282 12.8409 90.9611 9.73688H90.9637Z" fill="#111111"/>
<path d="M84.2796 12.101C84.0462 11.0877 83.7666 10.1026 83.4536 9.14062C83.3484 9.18424 83.2432 9.23041 83.1406 9.28172C83.4792 10.3309 83.7717 11.4109 84.0103 12.5191C84.0898 12.3755 84.1796 12.237 84.2796 12.101Z" fill="#111111"/>
<path d="M89.7861 16.8047C89.7732 16.8663 89.7655 16.9304 89.7501 16.992C89.686 17.2767 89.5937 17.5486 89.4757 17.8129C89.5218 19.0776 89.4911 20.3653 89.373 21.6762C89.409 21.666 89.4423 21.6557 89.4782 21.6454C89.568 21.6147 89.6552 21.5762 89.7424 21.5403C89.881 19.9292 89.8887 18.349 89.7835 16.8047H89.7861Z" fill="#111111"/>
<path d="M88.1383 11.3404C87.9125 10.404 87.6509 9.4882 87.3584 8.5929C87.2378 8.58521 87.1173 8.58264 86.9941 8.58008C87.2712 9.4292 87.52 10.2963 87.7381 11.1813C87.8766 11.2249 88.0126 11.2762 88.1383 11.3404Z" fill="#111111"/>
<path d="M89.1474 12.2205C88.8935 11.0122 88.5754 9.83472 88.2111 8.68803C88.0854 8.6675 87.9597 8.65211 87.834 8.63672C88.1546 9.63463 88.4394 10.6582 88.6754 11.7048C88.8473 11.8562 89.0089 12.0229 89.1474 12.2205Z" fill="#111111"/>
<path d="M86.3044 19.623C86.289 20.426 86.2429 21.2366 86.1582 22.0601C86.2762 22.0652 86.3942 22.0781 86.5148 22.0781C86.5994 21.2546 86.6456 20.4414 86.6636 19.6384C86.543 19.6384 86.4224 19.6333 86.3044 19.623Z" fill="#111111"/>
<path d="M87.3867 19.5707C87.2917 19.5886 87.1968 19.5989 87.0993 19.6092C87.084 20.4198 87.0352 21.2381 86.9531 22.0667C87.0737 22.0642 87.1917 22.0642 87.3123 22.0565C87.3995 21.2125 87.4457 20.3762 87.4611 19.5527C87.4354 19.5579 87.4123 19.5656 87.3867 19.5707Z" fill="#111111"/>
<path d="M84.2774 18.5467C84.2646 18.5287 84.2492 18.5159 84.2364 18.498C84.103 18.3184 83.9927 18.1311 83.8978 17.9336C83.9439 19.1444 83.9183 20.3809 83.8105 21.643C83.926 21.6841 84.0414 21.7123 84.1594 21.7457C84.2569 20.6605 84.2954 19.5934 84.2774 18.5467Z" fill="#111111"/>
<path d="M85.0804 19.2573C84.9522 19.1829 84.8316 19.1008 84.7187 19.0059C84.7187 19.9422 84.6777 20.8939 84.5879 21.8585C84.7033 21.8841 84.8213 21.9098 84.9393 21.9303C85.0266 21.0273 85.0753 20.1346 85.083 19.2573H85.0804Z" fill="#111111"/>
<path d="M87.2636 11.0645C87.0507 10.218 86.807 9.38938 86.5376 8.57617C86.4196 8.5813 86.3016 8.589 86.1836 8.59413C86.4453 9.38681 86.6838 10.1975 86.8916 11.0209C87.0148 11.0286 87.1379 11.044 87.261 11.062L87.2636 11.0645Z" fill="#111111"/>
<path d="M86.4456 11.0203C86.2352 10.2045 85.9967 9.40413 85.7376 8.61914C85.6196 8.62684 85.5041 8.64223 85.3887 8.65506C85.6478 9.44004 85.8863 10.2404 86.0941 11.0562C86.2121 11.0382 86.3301 11.028 86.4456 11.0203Z" fill="#111111"/>
<path d="M89.0602 18.5449C88.9524 18.686 88.8319 18.8143 88.7036 18.9297C88.7036 19.9045 88.66 20.8922 88.5625 21.8927C88.6856 21.867 88.8062 21.8414 88.9268 21.8106C89.0319 20.7075 89.073 19.6172 89.0602 18.5449Z" fill="#111111"/>
<path d="M85.5339 19.4692C85.5339 19.4692 85.5185 19.4615 85.5108 19.459C85.5006 20.2927 85.4518 21.1393 85.3672 21.9961C85.4749 22.0089 85.5827 22.0269 85.6904 22.0371C85.7007 22.0371 85.7109 22.0371 85.7186 22.0371C85.8033 21.1983 85.8495 20.3722 85.8649 19.5539C85.7546 19.5282 85.6417 19.5052 85.5314 19.4692H85.5339Z" fill="#111111"/>
<path d="M59.5796 19.5859C59.5385 19.5911 59.4975 19.5988 59.4564 19.6039C59.3795 19.6116 59.2999 19.6116 59.223 19.6167C59.2255 20.4094 59.1922 21.2252 59.1152 22.064C59.2332 22.0615 59.3538 22.0615 59.4718 22.0563C59.5513 21.2072 59.5847 20.3863 59.5821 19.5859H59.5796Z" fill="#111111"/>
<path d="M60.3739 19.3984C60.2559 19.4395 60.1379 19.4728 60.0173 19.5036C60.0224 20.3194 59.9891 21.1582 59.9121 22.0253C60.0327 22.0151 60.1507 22.0048 60.2713 21.9945C60.3533 21.1018 60.3841 20.2373 60.3764 19.401L60.3739 19.3984Z" fill="#111111"/>
<path d="M63.9732 15.2046C63.8449 15.1277 63.7141 15.0584 63.5781 15.002C63.9193 16.8028 64.0707 18.7371 63.9757 20.8098C64.0168 20.779 64.063 20.756 64.104 20.7252C64.1887 20.661 64.2708 20.5918 64.3477 20.5199C64.417 18.6344 64.2759 16.8644 63.9732 15.2046Z" fill="#111111"/>
<path d="M61.0632 13.1211C60.9965 13.2596 60.9093 13.3802 60.8066 13.4802C61.1299 14.6782 61.3684 15.9481 61.4993 17.2923C61.6173 17.5873 61.6378 17.9105 61.5711 18.2055C61.6378 19.3548 61.625 20.5579 61.5198 21.8073C61.607 21.7893 61.6942 21.7739 61.7789 21.7559C61.8148 21.7483 61.8482 21.7354 61.8815 21.7277C62.1432 18.5262 61.7917 15.6608 61.0606 13.1237L61.0632 13.1211Z" fill="#111111"/>
<path d="M52.394 12.4933C52.3889 12.5394 52.3991 12.5856 52.4017 12.6472C52.4863 12.6549 52.5582 12.6703 52.6351 12.6703C52.6762 12.6703 52.7172 12.6703 52.7583 12.6703C52.6736 12.4445 52.5864 12.2239 52.4966 12.0059C52.4556 12.1649 52.4171 12.3265 52.394 12.4958V12.4933Z" fill="#111111"/>
<path d="M61.1644 18.9141C61.0592 19.0192 60.9412 19.1116 60.8104 19.1886C60.8283 20.0762 60.7975 20.9971 60.7129 21.9437C60.8335 21.9283 60.954 21.9078 61.0746 21.8898C61.1644 20.8637 61.1926 19.8709 61.1618 18.9141H61.1644Z" fill="#111111"/>
<path d="M54.3975 12.6709C54.1025 11.8423 53.7613 11.0624 53.3867 10.3262C53.3098 10.4108 53.2405 10.5006 53.1738 10.5904C53.4945 11.2497 53.7895 11.9423 54.0486 12.6709H54.3975Z" fill="#111111"/>
<path d="M55.213 12.6703C54.8564 11.6493 54.4331 10.6975 53.9611 9.8125C53.8765 9.8715 53.7944 9.93307 53.7148 9.99977C54.1458 10.8309 54.5332 11.7211 54.8641 12.6703C54.9821 12.6703 55.0976 12.6703 55.2156 12.6703H55.213Z" fill="#111111"/>
<path d="M55.7872 12.6688C55.8513 12.6688 55.9154 12.6509 55.9821 12.6381C55.9898 12.6201 55.995 12.6047 56.0001 12.5867C55.6025 11.4477 55.1228 10.3934 54.5892 9.41602C54.502 9.46219 54.4147 9.51606 54.3301 9.56737C54.8406 10.5242 55.2972 11.5555 55.6769 12.6663C55.7128 12.6663 55.7487 12.6663 55.7846 12.6663L55.7872 12.6688Z" fill="#111111"/>
<path d="M58.4241 19.625C58.4267 20.4177 58.3934 21.2335 58.3164 22.0749C58.437 22.0749 58.555 22.0749 58.673 22.0749C58.7499 21.2386 58.7859 20.4254 58.7833 19.6404C58.6627 19.6404 58.5422 19.6301 58.4241 19.625Z" fill="#111111"/>
<path d="M56.9998 11.2854C57.046 11.2598 57.0973 11.2392 57.1461 11.2136C56.8074 10.3875 56.4329 9.61539 56.0327 8.89453C55.9198 8.92018 55.8095 8.95097 55.6992 8.98175C56.1174 9.73852 56.5022 10.5415 56.8433 11.3906C56.8947 11.3547 56.9434 11.3162 56.9973 11.2828L56.9998 11.2854Z" fill="#111111"/>
<path d="M56.5083 11.6779C56.1491 10.7569 55.7438 9.9001 55.3077 9.10742C55.2025 9.1459 55.0948 9.18438 54.9922 9.22799C55.4642 10.0899 55.8926 11.0135 56.262 12.0011C56.3339 11.8831 56.4159 11.7754 56.5109 11.6779H56.5083Z" fill="#111111"/>
<path d="M53.6221 20.9043C53.6452 20.9197 53.6632 20.9402 53.6837 20.9556C53.7761 21.0197 53.871 21.071 53.9659 21.1275C54.0352 19.8525 53.9992 18.6468 53.8787 17.5078C53.7581 17.5078 53.6401 17.5078 53.5195 17.5078C53.6324 18.5801 53.6709 19.7114 53.6196 20.9043H53.6221Z" fill="#111111"/>
<path d="M53.5761 12.6704C53.3683 12.0983 53.1374 11.5493 52.8911 11.0234C52.8244 11.1414 52.7603 11.2569 52.709 11.38C52.8937 11.7982 53.0681 12.2266 53.2297 12.6704C53.3452 12.6704 53.4632 12.6704 53.5786 12.6704H53.5761Z" fill="#111111"/>
<path d="M52.8477 20.1552C52.9555 20.2963 53.0709 20.4271 53.1992 20.5503C53.23 19.4831 53.1889 18.4698 53.0863 17.5078C52.9658 17.5078 52.8452 17.5078 52.7246 17.5078C52.8144 18.3518 52.8606 19.2343 52.8477 20.1552Z" fill="#111111"/>
<path d="M64.4805 15.5742C64.7088 16.98 64.8217 18.4628 64.796 20.0225C64.8807 19.907 64.9602 19.7865 65.0294 19.6582C65.0782 19.5658 65.1167 19.4684 65.1577 19.3709C65.15 18.2216 65.0628 17.1134 64.9114 16.0488C64.7909 15.8795 64.6472 15.7204 64.4805 15.5742Z" fill="#111111"/>
<path d="M57.6819 11.0075C57.7383 10.9947 57.7948 10.987 57.8512 10.9767C57.5229 10.1943 57.1586 9.4529 56.7661 8.75C56.6609 8.76796 56.5583 8.79104 56.4531 8.809C56.8431 9.51703 57.2073 10.2661 57.5331 11.0562C57.5819 11.0408 57.6306 11.0203 57.6819 11.0075Z" fill="#111111"/>
<path d="M63.8185 14.4248C63.385 12.411 62.7129 10.5717 61.9023 8.90424C61.7714 8.87089 61.6406 8.84267 61.5098 8.81445C62.3589 10.5486 63.0567 12.4726 63.4953 14.5915C63.6082 14.5402 63.7159 14.4838 63.8185 14.4222V14.4248Z" fill="#111111"/>
<path d="M64.489 13.8348C64.0965 12.193 63.5527 10.6692 62.9062 9.26087C62.7651 9.19418 62.6214 9.13004 62.4727 9.07617C63.1961 10.6231 63.7964 12.3136 64.2068 14.1478C64.312 14.0529 64.4043 13.9451 64.489 13.8348Z" fill="#111111"/>
<path d="M63.1527 21.2855C63.2758 21.2291 63.4015 21.1701 63.5196 21.1034C63.6504 18.8485 63.4811 16.7578 63.0937 14.8261C63.0629 14.8158 63.0347 14.8055 62.9988 14.7927C63.0321 14.7799 63.0552 14.7722 63.0809 14.7619C62.6268 12.5352 61.8854 10.5215 60.9748 8.72318C60.8491 8.70266 60.7234 8.68727 60.5977 8.67188C62.3318 12.0914 63.4708 16.2909 63.1501 21.2855H63.1527Z" fill="#111111"/>
<path d="M58.6504 10.9085C58.3195 10.1158 57.9527 9.3616 57.5576 8.64844C57.5448 8.64844 57.532 8.64844 57.5191 8.64844C57.4242 8.65613 57.3293 8.67409 57.2344 8.68692C57.6217 9.39238 57.9809 10.1363 58.3041 10.9187C58.4196 10.911 58.535 10.9059 58.6504 10.9059V10.9085Z" fill="#111111"/>
<path d="M59.2371 10.9327C59.3269 10.9404 59.4166 10.9609 59.5039 10.9738C59.1652 10.14 58.7881 9.34734 58.3802 8.5957C58.2674 8.60083 58.1545 8.60853 58.0391 8.61623C58.4341 9.34478 58.801 10.1144 59.1293 10.925C59.1652 10.9276 59.1986 10.9276 59.2345 10.9327H59.2371Z" fill="#111111"/>
<path d="M62.334 21.6031C62.4597 21.5646 62.5803 21.5184 62.7009 21.4722C63.0703 16.3493 61.8774 12.0729 60.0766 8.61745C59.956 8.60719 59.8354 8.59693 59.7148 8.5918C61.5311 12.0755 62.7265 16.4006 62.3315 21.6005L62.334 21.6031Z" fill="#111111"/>
<path d="M60.123 11.1313C60.2384 11.1749 60.3487 11.2236 60.4513 11.2826C60.0896 10.3334 59.674 9.43559 59.2225 8.58903C59.1045 8.58903 58.9891 8.58647 58.8711 8.58903C59.2944 9.38171 59.6817 10.2206 60.028 11.1056C60.0588 11.1159 60.0922 11.121 60.123 11.1338V11.1313Z" fill="#111111"/>
<path d="M64.9194 12.7927C64.9348 12.6978 64.94 12.6054 64.9477 12.513C64.7039 11.6845 64.4218 10.8841 64.1088 10.117C64.0626 10.0683 64.0216 10.0196 63.9728 9.97339C63.8394 9.84769 63.7009 9.73738 63.5547 9.63477C64.0447 10.7712 64.4679 11.9795 64.7989 13.2596C64.8502 13.1133 64.8938 12.962 64.9194 12.7952V12.7927Z" fill="#111111"/>
<path d="M55.4796 17.5078H55.123C55.2539 18.8059 55.2795 20.1834 55.1692 21.6508C55.2847 21.6867 55.4001 21.7201 55.5155 21.7483C55.6335 20.245 55.613 18.8341 55.4771 17.5078H55.4796Z" fill="#111111"/>
<path d="M57.1878 19.4198C57.0673 19.3813 56.9467 19.3351 56.8287 19.2812C56.8466 20.1483 56.8159 21.0488 56.7363 21.98C56.8543 21.9954 56.9723 22.003 57.0903 22.0159C57.1699 21.1206 57.2032 20.2561 57.1904 19.4198H57.1878Z" fill="#111111"/>
<path d="M57.9878 19.5948C57.8672 19.5794 57.7466 19.5589 57.626 19.5332C57.6337 20.3438 57.6004 21.1827 57.5234 22.0472C57.6414 22.0549 57.762 22.0549 57.88 22.06C57.9595 21.2109 57.9929 20.3875 57.9878 19.5948Z" fill="#111111"/>
<path d="M57.7249 16.2369C57.6017 15.4263 57.4375 14.649 57.24 13.9102H56.886C56.886 13.9255 56.8834 13.9358 56.8809 13.9512C57.0758 14.6849 57.24 15.4442 57.3631 16.2395C57.4837 16.2395 57.6017 16.2395 57.7223 16.2395L57.7249 16.2369Z" fill="#111111"/>
<path d="M60.989 16.6691C60.8608 15.6455 60.6658 14.6682 60.4221 13.7344C60.3862 13.7523 60.3528 13.7729 60.3118 13.7857C60.24 13.8113 60.1681 13.8267 60.0938 13.8447C60.3092 14.6861 60.4811 15.5609 60.6017 16.4716C60.7351 16.5254 60.8633 16.587 60.9865 16.6665L60.989 16.6691Z" fill="#111111"/>
<path d="M59.9948 16.2985C60.0435 16.3087 60.0922 16.319 60.141 16.3318C60.0204 15.493 59.8562 14.6849 59.6561 13.9102C59.6331 13.9102 59.6125 13.9153 59.5894 13.9153C59.4945 13.9153 59.3996 13.9153 59.3047 13.9153C59.4997 14.6721 59.6561 15.457 59.7767 16.2728C59.8511 16.2805 59.9229 16.2856 59.9973 16.301L59.9948 16.2985Z" fill="#111111"/>
<path d="M58.5276 16.2369C58.4044 15.4288 58.2454 14.6515 58.0504 13.9102C57.9273 13.9102 57.8067 13.9102 57.6836 13.9102C57.8811 14.6567 58.0453 15.4314 58.1684 16.2369C58.289 16.2369 58.407 16.2369 58.5276 16.2369Z" fill="#111111"/>
<path d="M59.2008 16.2369C59.2419 16.2369 59.2829 16.2395 59.324 16.2395C59.2034 15.434 59.0392 14.6567 58.8442 13.9102C58.7262 13.9102 58.6082 13.9102 58.4902 13.9102C58.6852 14.6567 58.8442 15.4314 58.9648 16.2369C59.0418 16.2369 59.1213 16.2369 59.1983 16.2369H59.2008Z" fill="#111111"/>
<path d="M54.6788 17.5078H54.3223C54.448 18.7135 54.4787 19.9962 54.3941 21.3532C54.4813 21.3943 54.5685 21.4404 54.6609 21.4764C54.6891 21.4866 54.7148 21.4943 54.743 21.5046C54.8405 20.0911 54.8097 18.7597 54.6788 17.5078Z" fill="#111111"/>
<path d="M56.3802 19.0221C56.2391 18.9195 56.1134 18.804 56.0082 18.6758C56.057 19.6891 56.039 20.746 55.9492 21.8542C56.0647 21.8773 56.1827 21.8953 56.3007 21.9132C56.3879 20.9127 56.411 19.9482 56.3828 19.0221H56.3802Z" fill="#111111"/>
<path d="M52.0035 17.5625C52.0035 17.6009 51.9881 17.6471 51.9932 17.6933C52.0317 18.2243 52.1241 18.7451 52.3267 19.2427C52.3498 19.2966 52.378 19.3479 52.4037 19.4018C52.3909 18.7502 52.3498 18.1166 52.2831 17.5086C52.1882 17.5086 52.0933 17.4804 52.0009 17.5625H52.0035Z" fill="#111111"/>
<path d="M56.8637 15.9905C56.8637 16.0598 56.856 16.1316 56.9098 16.1983C56.8944 16.106 56.8791 16.0162 56.8637 15.9238C56.8637 15.9444 56.8637 15.9674 56.8637 15.988V15.9905Z" fill="#111111"/>
</svg>
