<svg width="293" height="60" viewBox="0 0 293 60" fill="none" xmlns="http://www.w3.org/2000/svg">
<path d="M173.371 18.1904V12.3047H152.398V42.5872H173.371V36.4452H160.889V29.7323H171.271V23.8539H160.889V18.1904H173.371Z" fill="#49266C"/>
<path d="M210.353 36.6116H197.251V12.3047H188.655V42.5872H210.353V36.6116Z" fill="#49266C"/>
<path d="M279.581 23.846C273.781 22.538 271.75 22.3861 271.75 20.0761C271.75 17.9324 274.624 17.2656 276.278 17.2656C278.952 17.2656 282.11 17.8899 285.328 19.5416L287.668 13.9693C284.37 12.1693 280.138 11.4199 276.068 11.4199C268.07 11.4199 262.703 14.6689 262.477 21.0028C262.249 26.7792 266.94 28.9399 271.252 29.8314C275.408 30.6913 279.625 31.4273 279.71 33.8989C279.786 36.1786 277.739 37.1551 273.875 37.1551C270.296 37.1551 266.968 36.0037 263.569 34.5778L261.582 40.6348C265.49 42.2988 269.457 43.2157 273.547 43.2157C279.23 43.2157 283.376 42.3279 286.429 39.4591C288.544 37.4891 289.237 35.111 289.237 32.841C289.242 28.0545 286.261 25.3582 279.581 23.846Z" fill="#49266C"/>
<path d="M140.205 18.2827V12.3047H113.826V18.2827H122.738V42.5872H131.282V18.2827H140.205Z" fill="#49266C"/>
<path d="M239.678 12.3047V31.5444C239.678 33.0517 239.678 33.4683 239.588 34.0549C239.312 35.8889 237.538 36.9529 234.706 36.9905C232.61 36.9565 231.074 36.3359 230.36 35.2391C229.999 34.6756 229.825 33.6626 229.825 32.0448V12.3047H220.91V33.1744C220.91 36.0662 221.296 37.3719 222.6 39.0225C224.752 41.7151 228.947 43.1313 234.723 43.1313C234.789 43.1313 234.846 43.1313 234.914 43.1313C234.944 43.1313 234.996 43.1313 235.04 43.1313C242.774 43.1313 246.769 40.1119 247.923 37.2869C248.499 35.9168 248.541 35.2683 248.541 32.5039V12.3047H239.678Z" fill="#49266C"/>
<path d="M117.852 4.01191L67.8608 13.9761V17.4667L68.0198 17.4255C101.045 9.38874 117.851 4.55482 117.987 4.52081C118.174 4.47223 118.239 4.32648 118.214 4.20381C118.186 4.07507 118.051 3.96819 117.852 4.01191Z" fill="#49266C"/>
<path d="M77.207 3.0606C74.7771 3.19906 70.2774 6.80264 67.8074 8.94268C57.9722 17.4616 50.6591 25.2918 45.3418 33.4925C34.257 39.4365 20.1223 45.5494 6.09076 50.3201L5.75228 50.4343L3.05176 57.7143L4.5937 57.118C13.5202 53.7124 28.4192 47.3165 41.9255 40.2065C41.1648 42.2373 40.7815 44.104 40.7815 45.8056C40.7815 47.0748 40.9938 48.2554 41.4172 49.3278C42.2664 51.4703 43.9406 53.093 46.2614 54.0148C49.7177 55.3958 54.4333 55.4213 59.8138 53.7901C73.559 49.6193 89.8629 36.8131 93.4126 34.2661L93.5485 34.1702C93.688 34.0694 93.6977 33.9176 93.6395 33.8143C93.5618 33.6965 93.3981 33.6649 93.2634 33.7475L93.0887 33.8532C89.2793 36.1426 70.7687 47.1453 58.7365 50.376C52.6075 52.0217 47.9368 51.123 46.1753 48.6562C45.5638 47.8133 45.269 46.7469 45.269 45.5032C45.269 43.0753 46.4106 39.9843 48.6089 36.5483C50.6325 35.3957 52.5226 34.2686 54.2259 33.1973C65.9646 26.5926 79.489 13.7511 80.0665 5.91237C80.0689 5.85893 80.0689 5.79699 80.0689 5.73869C80.0689 5.06218 79.7765 4.36624 79.2634 3.85249C78.7126 3.29015 77.9871 3.00958 77.207 3.0606ZM75.898 6.79657C76.6684 6.29738 76.8904 6.60952 76.6635 7.17308C76.2972 8.07306 74.6024 13.4875 62.0181 23.8307C58.734 26.5234 56.3987 28.0355 51.6697 30.8387C59.4134 19.9745 70.719 10.1633 75.898 6.79657Z" fill="#6EBE44"/>
<path d="M67.6972 14.0098L15.1012 25.3282L13.0728 30.8046L67.8609 17.4664L69.5557 16.5081L69.5084 14.0158L67.6972 14.0098Z" fill="#49266C"/>
</svg>
