<svg width="328" height="122" viewBox="0 0 328 122" fill="none" xmlns="http://www.w3.org/2000/svg">
<g clip-path="url(#clip0_316_1835)">
<path d="M297.44 41.5691C288.28 27.4091 270.34 18.9091 254.85 13.3691C211.7 -2.07094 160.49 -1.33094 115.31 1.87906C88.9298 3.74906 64.3098 8.63906 38.8098 15.5191C36.3098 16.1891 32.6098 17.1491 30.2998 18.0291C29.6898 18.2591 28.8898 18.3091 28.7598 19.1191C37.8698 17.7491 46.7798 15.2091 55.9098 13.9091C103.66 7.09906 159.75 9.72906 206.75 20.6991C206.75 20.6991 231.68 28.9491 245.18 39.5891H254.15L251.52 46.0791C252.36 47.3291 252.97 48.5891 253.3 49.8591C254.09 48.0491 254.83 46.5991 255.45 45.7691C257.38 43.1991 261.17 39.9491 265.51 39.2691C271.33 38.3491 274.6 40.1691 276.33 41.8591C278.02 43.5191 279.89 46.6791 279.13 52.3091C278.59 56.3391 274.03 70.4091 272.07 74.1191C269.31 79.3391 263.27 83.4391 257.06 83.4391C255.21 83.4391 253.34 83.0791 251.53 82.2691C249.36 81.2991 245.81 78.7091 246.38 72.2691C246.54 70.4591 247.52 66.5791 248.83 62.2991C246.43 65.7491 243.87 68.6391 241.41 71.0191L236.2 83.8891H217.85V83.8391C205.12 88.1091 192.26 92.2191 179.3 95.5891C132.75 107.709 82.5398 109.099 34.7298 106.359L3.7998 101.099C3.9198 101.729 4.6098 102.079 5.0798 102.449C27.3998 120.119 98.2198 121.779 126.81 121.249C173.12 120.389 243.21 111.909 281.86 84.9991C282.76 84.3791 283.65 83.7191 284.53 83.0391H272.45L285.62 41.5691H297.42H297.44Z" fill="url(#paint0_linear_316_1835)"/>
<path d="M299.52 59.7084L297.29 59.4784C297.29 59.4784 294.86 60.1484 291.32 69.5484C289.6 74.0984 288.4 78.6584 288.01 80.1884C295.75 73.3484 301.95 64.4184 301.76 54.3184L299.52 59.7084Z" fill="url(#paint1_linear_316_1835)"/>
<path d="M90.3697 45.4999L90.6097 43.0999H81.4997L70.6597 78.5399L71.1897 79.5299H78.8597L88.9897 49.3099L90.6097 49.3299L81.9797 79.5299H91.0897C93.5497 68.4199 98.2497 57.8899 100.24 46.6899C100.24 41.0099 92.5797 41.7499 90.3697 45.4999Z" fill="#808AB8"/>
<path d="M63.99 42.62C54.29 41.7 49.28 48.75 47.93 57.47H55.84C57.71 54.88 56.7999 50.15 60.3899 48.84C61.1599 58.41 54.3699 57.5 48.9399 61.12C45.4699 63.44 43.0799 70.01 42.7099 74.07C42.0399 81.54 48.5599 81.3 52.7099 77.13L52.24 79.53H60.8699C62.9199 70.46 67.0899 61.39 68.8799 52.31C69.8399 47.45 70.0599 43.21 63.9799 42.63L63.99 42.62ZM53.9599 71.88C53.3799 72.91 53.2199 73.54 51.7799 73.29C51.8499 70.45 52.89 67.81 54.07 65.28L57.0499 62.75C55.7299 65.33 55.3199 69.47 53.9599 71.88Z" fill="#808AB8"/>
<path d="M126.09 55.0817C129.72 46.4117 126.92 40.8217 116.95 42.8317C110.36 44.1617 106.59 52.9517 107.44 59.1117C107.91 62.5117 113.98 65.6217 114.15 68.2617C114.24 69.7117 112.93 73.8517 111 73.3017C108.85 72.6917 112.79 67.9817 111.49 66.5717H104.36C99.41 75.8617 104.1 82.7217 114.5 79.2117C120.12 77.3117 124.38 67.6917 123.12 62.1417C122.44 59.1817 116.59 56.9717 116.1 54.2617C115.86 52.9017 116.97 49.4017 118.42 49.0817L119.37 49.6117L118.43 55.0917H126.1L126.09 55.0817Z" fill="#808AB8"/>
<path d="M19.2198 49.5308L20.6098 44.7808L18.2198 43.8208L20.1298 38.3008H11.0198C10.7298 39.1308 9.74985 43.7708 9.49985 43.9708C9.15985 44.2508 8.03985 43.8108 7.40985 44.5108C7.24985 44.6908 5.89985 48.6108 5.78985 49.1308C5.49985 50.5108 7.80985 49.3608 7.64985 50.0208C6.15985 54.8608 4.39985 59.6908 2.99985 64.5508C2.33985 66.8508 -0.120152 74.1308 -0.000151697 75.9108C0.289848 80.2408 7.22985 79.5408 10.2398 79.5608L11.9798 73.5508L10.0498 73.3108C10.8898 65.2808 14.9798 57.8408 16.2998 49.8408L19.2198 49.5508V49.5308Z" fill="#808AB8"/>
<path d="M38.0997 45.4903L38.3397 43.1003H29.9497L18.6797 79.5303H27.7897C27.7397 78.7503 27.8597 77.9703 28.1197 77.2303C29.4497 73.3503 33.1797 58.6503 35.4797 56.7803C36.9697 55.5803 39.4897 55.8303 40.2197 54.8103L44.0797 42.8503C42.0197 42.2303 39.5097 44.0703 38.0897 45.4903H38.0997Z" fill="#808AB8"/>
<path d="M276.34 41.8707C274.62 40.1807 271.34 38.3607 265.52 39.2807C261.18 39.9607 257.39 43.2107 255.46 45.7807C254.84 46.6107 254.1 48.0607 253.31 49.8707C253.68 51.2407 253.64 53.3607 253.31 54.7407C254.36 51.9107 255.4 49.4207 256.26 47.8707C256.49 47.4607 256.7 47.1107 256.9 46.8407C258.63 44.5407 261.99 41.6407 265.8 41.0407C266.75 40.8907 267.66 40.8207 268.51 40.8207C271.5 40.8207 273.9 41.7707 275.46 43.5507C277.2 45.5407 277.84 48.4107 277.35 52.0707C276.84 55.8907 272.34 69.7607 270.48 73.2807C267.87 78.2107 262.38 81.6507 257.12 81.6507C255.42 81.6507 253.79 81.3007 252.28 80.6207C251.06 80.0707 249.75 79.1107 248.93 77.4307C248.33 76.1907 248 74.5707 248.19 72.4207C248.4 70.0507 250.34 63.2107 252.46 57.1107C252.24 57.5507 251.35 58.8907 251.08 59.3007C250.14 60.6707 249.84 61.0407 248.85 62.2907C247.54 66.5707 246.55 70.4507 246.4 72.2607C245.83 78.7007 249.38 81.2907 251.55 82.2607C253.35 83.0707 255.22 83.4307 257.08 83.4307C263.29 83.4307 269.33 79.3307 272.09 74.1107C274.05 70.4007 278.61 56.3307 279.15 52.3007C279.91 46.6707 278.05 43.5107 276.35 41.8507L276.34 41.8707Z" fill="#EEEEF6"/>
<path d="M254.15 39.5898H245.18C245.6 39.9198 246.01 40.2498 246.4 40.5898H252.01L250.37 44.5398L250.29 44.7398L238.21 73.9098L235.6 80.2198L234.83 82.0798H232.81L223.9 82.0098H223.27C221.48 82.6198 219.68 83.2198 217.88 83.8298V83.8798H236.23L241.44 71.0098L251.53 46.0798L254.16 39.5898H254.15Z" fill="#EEEEF6"/>
<path d="M286.22 44.0505L286.6 42.8605H298.25C297.99 42.4205 297.72 41.9905 297.45 41.5605H285.65L272.48 83.0305H284.56C285.11 82.6105 285.66 82.1705 286.2 81.7305H274.25L274.95 79.5205L286.22 44.0505Z" fill="#EEEEF6"/>
<path d="M301.54 51.4707L299.18 57.1407L298.69 58.3107L297.43 58.1807C297.43 58.1807 297.35 58.1807 297.3 58.1807C294.7 58.1807 289.88 66.6907 286.61 80.4307L286.33 81.6207C286.9 81.1507 287.46 80.6707 288.01 80.1907C288.4 78.6607 289.6 74.1007 291.32 69.5507C294.86 60.1507 297.29 59.4807 297.29 59.4807L299.52 59.7107L301.76 54.3207C301.74 53.3807 301.67 52.4307 301.53 51.4807L301.54 51.4707Z" fill="#EEEEF6"/>
<path d="M154.38 35.4297L149.35 52.6897L149.59 35.4297H142.16L128.97 79.5197H136.64L141.68 61.7797L140.96 79.5197H149.11L162.54 35.4297H154.38Z" fill="#E83F42"/>
<path d="M320.53 43.0899L315.49 50.9899L320.29 35.4199H311.18L297.94 78.5299L298.47 79.5199H306.62L310.46 67.5299C311.33 67.5299 309.27 78.5799 309.26 79.5199H317.89L319.94 57.8399L327.96 43.0899H320.53Z" fill="#E83F42"/>
<path d="M177.76 42.7403C168.09 44.1603 164.73 58.3303 162.67 66.4803C161.53 70.9903 159.77 77.1803 165.42 79.2703C175.65 83.0403 182.57 72.5103 183.62 63.7103C183.44 63.4703 183.04 64.1703 182.91 64.1903C180.5 64.5203 177.49 63.9503 175 64.1903C174.45 64.1903 173.6 74.6703 170.2 73.0503C170.07 71.7203 172.74 62.5503 173.54 62.0103L184.29 61.8203C187.52 54.0003 191.24 40.7603 177.76 42.7403ZM177.38 56.0103L175.01 56.0303C175.16 55.1503 177.14 47.6103 178.84 49.3203L177.38 56.0103Z" fill="#E83F42"/>
<path d="M210.48 38.3008H201.37C200.99 40.5408 200.85 44.5308 198 44.2708L196.56 49.5708L198.02 50.0608C196.34 57.2708 193.01 64.6008 191.44 71.7608C189.61 80.1308 192.84 79.5308 200.19 79.5608L200.95 79.2508L202.34 73.3008H200.41L207.1 50.0208C210.71 50.3408 210.46 46.7708 210.97 44.0608H209.05L210.49 38.3108L210.48 38.3008Z" fill="#E83F42"/>
<path d="M275.73 48.5193C275.71 48.3893 275.7 48.2593 275.68 48.1293C275.65 47.9293 275.61 47.7393 275.57 47.5593C275.54 47.4393 275.51 47.3193 275.48 47.1993C275.43 47.0193 275.37 46.8393 275.31 46.6693C275.27 46.5693 275.24 46.4593 275.2 46.3593C275.12 46.1793 275.04 45.9993 274.95 45.8293C274.91 45.7493 274.88 45.6693 274.83 45.5993C274.69 45.3593 274.54 45.1293 274.38 44.9193C274.38 44.9193 274.37 44.9093 274.36 44.8993C274.2 44.6993 274.02 44.5093 273.84 44.3293C273.78 44.2693 273.71 44.2193 273.64 44.1593C273.5 44.0393 273.36 43.9293 273.21 43.8193C273.13 43.7593 273.04 43.7093 272.95 43.6493C272.81 43.5593 272.66 43.4693 272.5 43.3893C272.4 43.3393 272.3 43.2893 272.2 43.2493C272.04 43.1793 271.88 43.1093 271.71 43.0493C271.6 43.0093 271.49 42.9693 271.38 42.9393C271.2 42.8893 271.02 42.8393 270.83 42.7993C270.72 42.7693 270.61 42.7493 270.49 42.7193C270.28 42.6793 270.05 42.6493 269.83 42.6193C269.73 42.6093 269.63 42.5893 269.53 42.5793C269.2 42.5493 268.85 42.5293 268.5 42.5293C268.25 42.5293 267.99 42.5493 267.74 42.5593C267.66 42.5593 267.58 42.5593 267.49 42.5693C267.43 42.5693 267.38 42.5693 267.32 42.5693C266.91 42.5993 266.49 42.6493 266.06 42.7193C263.09 43.1893 260.03 45.4993 258.26 47.8593C257.66 48.6593 256.86 50.3493 255.99 52.4893C255.45 53.8293 254.88 55.3493 254.31 56.9393C254.2 57.2593 254.08 57.5793 253.97 57.8993C253.63 58.8693 253.3 59.8593 252.98 60.8493C251.37 65.7793 250.05 70.6193 249.88 72.5593C249.64 75.2993 250.29 77.8593 252.97 79.0593C253.33 79.2193 253.69 79.3493 254.05 79.4693C254.17 79.5093 254.29 79.5293 254.41 79.5693C254.66 79.6393 254.9 79.6993 255.15 79.7493C255.29 79.7793 255.44 79.7893 255.58 79.8193C255.76 79.8493 255.93 79.8693 256.11 79.8893C256.16 79.8893 256.21 79.8993 256.26 79.9093C256.41 79.9193 256.57 79.9293 256.72 79.9293C256.95 79.9293 257.18 79.9393 257.41 79.9293C257.53 79.9293 257.64 79.9293 257.76 79.9193C258.02 79.8993 258.29 79.8793 258.55 79.8393C258.64 79.8293 258.73 79.8193 258.83 79.8093C259.18 79.7593 259.53 79.6893 259.87 79.5993C259.94 79.5793 260.01 79.5593 260.08 79.5393C260.36 79.4693 260.63 79.3893 260.9 79.2893C261.01 79.2493 261.12 79.2093 261.23 79.1693C261.47 79.0793 261.7 78.9893 261.94 78.8893C262.04 78.8393 262.15 78.7993 262.25 78.7493C262.55 78.6093 262.84 78.4693 263.13 78.3093C263.16 78.2893 263.19 78.2793 263.21 78.2693C263.52 78.0893 263.83 77.9093 264.13 77.7093C264.22 77.6493 264.31 77.5893 264.4 77.5193C264.61 77.3693 264.82 77.2193 265.03 77.0693C265.13 76.9993 265.22 76.9193 265.32 76.8493C265.53 76.6793 265.74 76.4993 265.94 76.3193C266.01 76.2593 266.08 76.1993 266.14 76.1393C266.4 75.8993 266.65 75.6393 266.9 75.3793C266.96 75.3193 267.01 75.2593 267.06 75.1993C267.25 74.9893 267.43 74.7793 267.6 74.5593C267.67 74.4693 267.74 74.3793 267.81 74.2793C267.96 74.0793 268.11 73.8693 268.25 73.6593C268.31 73.5693 268.37 73.4793 268.43 73.3893C268.62 73.0893 268.8 72.7893 268.96 72.4893C270.69 69.2193 275.16 55.4693 275.64 51.8493C275.7 51.4393 275.73 51.0493 275.75 50.6593C275.75 50.5393 275.75 50.4193 275.76 50.2993C275.76 50.0493 275.78 49.7893 275.77 49.5493C275.77 49.4093 275.76 49.2793 275.75 49.1493C275.74 48.9293 275.72 48.7193 275.7 48.5193H275.73ZM267.54 50.3993C265.86 53.7893 262.29 71.3093 260.23 72.8393C259.457 73.4122 258.76 72.4368 259.024 71.5116L265.24 49.6893C266.05 48.4493 267.92 48.6493 267.54 50.3993Z" fill="#E83F42"/>
<path d="M302.98 43.5905C302.98 43.5905 302.95 43.5905 302.92 43.5905C302.91 43.5905 302.89 43.5905 302.88 43.5905C302.84 43.5905 302.8 43.5905 302.74 43.5905C302.71 43.5905 302.68 43.5905 302.64 43.5905C302.61 43.5905 302.58 43.5905 302.56 43.5905C302.51 43.5905 302.45 43.5905 302.39 43.5905C302.36 43.5905 302.32 43.5905 302.29 43.5905C302.22 43.5905 302.14 43.6005 302.06 43.6105C302.03 43.6105 302 43.6105 301.96 43.6205C301.84 43.6305 301.72 43.6505 301.58 43.6805C301.56 43.6805 301.54 43.6805 301.53 43.6905C301.41 43.7105 301.29 43.7405 301.16 43.7705C301.11 43.7805 301.06 43.8005 301.01 43.8105C300.91 43.8405 300.8 43.8605 300.69 43.9005C300.63 43.9205 300.57 43.9405 300.51 43.9605C300.4 43.9905 300.29 44.0305 300.18 44.0705C300.12 44.0905 300.05 44.1205 299.99 44.1405C299.87 44.1905 299.74 44.2405 299.61 44.3005C299.55 44.3305 299.5 44.3505 299.44 44.3805C299.43 44.3805 299.42 44.3905 299.41 44.4005C299.23 44.4805 299.05 44.5705 298.87 44.6705C298.85 44.6705 298.83 44.6905 298.82 44.7005C298.64 44.8005 298.46 44.9005 298.28 45.0205C298.21 45.0605 298.15 45.1105 298.08 45.1505C297.94 45.2405 297.8 45.3405 297.66 45.4405C297.58 45.5005 297.51 45.5605 297.43 45.6205C297.3 45.7205 297.16 45.8305 297.03 45.9505C296.95 46.0205 296.87 46.0805 296.79 46.1505C296.65 46.2805 296.5 46.4205 296.36 46.5605C296.29 46.6305 296.22 46.6905 296.15 46.7605C295.94 46.9805 295.73 47.2005 295.52 47.4505L296.24 44.5805H287.85L276.58 80.0505H284.97C284.97 80.0505 284.97 80.0305 284.99 79.9805V79.9605C285.01 79.8705 285.05 79.7005 285.11 79.4605C285.12 79.4005 285.14 79.3305 285.16 79.2705C285.18 79.1905 285.2 79.1205 285.22 79.0205C285.24 78.9505 285.26 78.8705 285.28 78.7905C285.31 78.6905 285.33 78.5905 285.36 78.4705C285.38 78.3905 285.41 78.3005 285.43 78.2105C285.46 78.0905 285.49 77.9705 285.53 77.8305C285.56 77.7305 285.59 77.6205 285.62 77.5205C285.66 77.3805 285.69 77.2505 285.73 77.1105C285.76 77.0005 285.8 76.8805 285.83 76.7605C285.87 76.6105 285.91 76.4605 285.96 76.3105C286 76.1805 286.04 76.0505 286.07 75.9105C286.12 75.7505 286.16 75.6005 286.21 75.4405C286.25 75.3005 286.3 75.1405 286.34 75.0005C286.39 74.8405 286.44 74.6805 286.49 74.5105C286.54 74.3605 286.59 74.2005 286.64 74.0405C286.69 73.8705 286.74 73.7005 286.8 73.5305C286.85 73.3705 286.91 73.2005 286.96 73.0305C287.02 72.8505 287.07 72.6805 287.13 72.5005C287.19 72.3305 287.24 72.1605 287.3 71.9805C287.36 71.8005 287.42 71.6205 287.48 71.4305C287.54 71.2505 287.6 71.0705 287.66 70.8905C287.72 70.7105 287.78 70.5305 287.85 70.3405C287.91 70.1605 287.98 69.9805 288.04 69.8005C288.11 69.6105 288.17 69.4205 288.24 69.2305C288.31 69.0505 288.38 68.8705 288.44 68.6805C288.51 68.4905 288.58 68.3105 288.65 68.1205C288.72 67.9305 288.79 67.7505 288.87 67.5605C288.94 67.3705 289.01 67.1905 289.09 67.0005C289.16 66.8205 289.24 66.6305 289.31 66.4505C289.39 66.2605 289.46 66.0805 289.54 65.9005C289.62 65.7205 289.7 65.5405 289.77 65.3605C289.85 65.1805 289.93 65.0005 290.01 64.8205C290.09 64.6405 290.17 64.4705 290.25 64.2905C290.33 64.1105 290.41 63.9405 290.5 63.7605C290.58 63.5905 290.67 63.4205 290.75 63.2505C290.84 63.0805 290.92 62.9105 291.01 62.7405C291.1 62.5705 291.18 62.4105 291.27 62.2505C291.36 62.0905 291.45 61.9205 291.54 61.7605C291.63 61.6005 291.72 61.4505 291.8 61.3005C291.89 61.1405 291.98 60.9905 292.07 60.8405C292.16 60.6905 292.25 60.5505 292.34 60.4105C292.43 60.2705 292.53 60.1205 292.62 59.9805C292.71 59.8405 292.8 59.7205 292.9 59.5905C293 59.4605 293.09 59.3305 293.19 59.2005C293.28 59.0805 293.38 58.9605 293.47 58.8505C293.57 58.7305 293.67 58.6105 293.76 58.5005C293.86 58.3905 293.95 58.2905 294.05 58.1905C294.15 58.0905 294.25 57.9805 294.35 57.8905C294.45 57.8005 294.55 57.7105 294.64 57.6305C294.74 57.5405 294.84 57.4605 294.95 57.3805C295.05 57.3005 295.15 57.2405 295.25 57.1705C295.35 57.1005 295.46 57.0305 295.56 56.9705C295.66 56.9105 295.76 56.8605 295.86 56.8105C295.97 56.7605 296.07 56.7105 296.18 56.6705C296.28 56.6305 296.38 56.6005 296.49 56.5705C296.6 56.5405 296.7 56.5205 296.81 56.5005C296.91 56.4805 297.02 56.4705 297.12 56.4705C297.18 56.4705 297.24 56.4505 297.29 56.4505C297.39 56.4505 297.49 56.4505 297.59 56.4705L300.92 48.4705L302.96 43.5605L302.98 43.5905Z" fill="#E83F42"/>
<path d="M240.37 44.0195L233.9 58.8395L236.78 43.0195H229.34L222.87 59.3195L225.75 43.0195H218.32L211.21 79.0195H217.87H220.56L221.79 75.8895L225.84 65.5995L225.69 66.7895L225.99 66.0295L224.58 75.8895L224.13 79.0195L230.92 79.0595L232.82 79.0695L233.49 77.4495L247.34 44.0195H243.73H240.37Z" fill="#E83F42"/>
</g>
<defs>
<linearGradient id="paint0_linear_316_1835" x1="-6063.16" y1="60.659" x2="297.66" y2="60.659" gradientUnits="userSpaceOnUse">
<stop stop-color="#CFD6ED"/>
<stop offset="1" stop-color="#CFD3EB"/>
</linearGradient>
<linearGradient id="paint1_linear_316_1835" x1="3.81978" y1="67.2484" x2="301.78" y2="67.2484" gradientUnits="userSpaceOnUse">
<stop stop-color="#CFD6ED"/>
<stop offset="1" stop-color="#CFD3EB"/>
</linearGradient>
<clipPath id="clip0_316_1835">
<rect width="327.96" height="121.32" fill="white"/>
</clipPath>
</defs>
</svg>
