<svg width="329" height="80" viewBox="0 0 329 80" fill="none" xmlns="http://www.w3.org/2000/svg">
<g clip-path="url(#clip0_316_1742)">
<path d="M159.601 11.7536H143.855V17.5237H152.224V24.4862C152.224 25.6567 150.877 25.9739 149.256 25.9739H133.276C131.656 25.9739 130.264 25.6128 130.264 24.3931V7.936C130.264 6.58507 130.985 5.7264 133.276 5.7264H159.11V0H133.32C126.8 0 122.932 2.29712 122.932 7.936V24.437C122.932 29.4414 126.8 31.744 133.32 31.744H149.256C156.316 31.744 159.601 30.1195 159.601 24.4862V11.7536Z" fill="#002854"/>
<path d="M16.3294 31.8105V5.79279H0V0.0664062H39.6696V5.79279H23.7003V31.8105H16.324H16.3294Z" fill="#002854"/>
<path d="M72.8139 0.0664062H80.1465V24.1425C80.1465 28.6984 77.3587 31.8104 69.9822 31.8104H53.3474C45.9709 31.8104 43.1831 28.6984 43.1831 24.1425V0.0664062H50.5157V24.1916C50.5157 25.4988 51.5032 26.0403 53.3474 26.0403H69.9822C71.8264 26.0403 72.8139 25.4988 72.8139 24.1916V0.0664062Z" fill="#002854"/>
<path d="M163.682 31.8104V26.0403H190.246C192.314 26.0403 193.127 25.6794 193.127 24.148V19.5919C193.127 18.148 192.271 17.6558 190.246 17.6558H172.902C165.482 17.6558 162.645 14.5437 162.645 9.94404V7.77816C162.645 3.17846 165.477 0.0664062 172.902 0.0664062H198.703V5.79281H172.902C170.971 5.79281 169.978 6.2905 169.978 7.72895V9.98232C169.978 11.3332 170.834 11.9239 172.902 11.9239H190.246C197.666 11.9239 200.503 15.036 200.503 19.6357V24.0549C200.503 28.6547 197.672 31.8104 190.246 31.8104H163.682Z" fill="#002854"/>
<path d="M218.557 31.8104V5.79281H202.228V0.0664062H241.897V5.79281H225.928V31.8104H218.551H218.557Z" fill="#002854"/>
<path d="M245.455 31.8104V0.0664062H280.018V5.79281H252.786V12.1482H278.62V17.9183H252.786V26.0348H280.018V31.8049H245.455V31.8104Z" fill="#002854"/>
<path d="M289.778 0.0664062H283.525V31.8104H289.915V8.68061L315.666 31.8104H319.267V26.4122L289.778 0.0664062Z" fill="#002854"/>
<path d="M319.267 21.7961V0.0664062H312.833V16.0314L319.267 21.7961Z" fill="#002854"/>
<path d="M89.9072 0.0664062H83.6548V31.8104H90.0436V8.68061L115.795 31.8104H119.396V26.4122L89.9072 0.0664062Z" fill="#002854"/>
<path d="M119.396 21.7961V0.0664062H112.964V16.0314L119.396 21.7961Z" fill="#002854"/>
<path d="M85.7662 41.1406H328.772V80.0003H67.8218L85.7662 41.1406ZM269.161 65.5447C269.161 66.2887 269.268 66.9779 269.483 67.5905C269.705 68.2247 270.061 68.7827 270.552 69.2421C271.032 69.6961 271.658 70.057 272.412 70.3031C273.143 70.5438 274.036 70.6695 275.069 70.6695H286.481C287.514 70.6695 288.403 70.5438 289.138 70.3031C289.892 70.0515 290.514 69.6961 291.001 69.2421C291.485 68.7827 291.846 68.2247 292.07 67.5905C292.282 66.9779 292.392 66.2887 292.392 65.5447V55.5907C292.392 54.8467 292.282 54.1575 292.07 53.5452C291.846 52.9107 291.492 52.3527 291.001 51.8933C290.521 51.4394 289.892 51.0785 289.138 50.8323C288.407 50.5916 287.514 50.4659 286.481 50.4659H275.069C274.036 50.4659 273.148 50.5916 272.412 50.8323C271.658 51.0839 271.037 51.4394 270.552 51.8933C270.066 52.3527 269.705 52.9107 269.483 53.5452C269.268 54.1575 269.161 54.8467 269.161 55.5907V65.5447ZM261.701 70.675H265.919V50.4659H261.701V70.675ZM295.431 70.675H299.232V56.2142L317.024 70.675H319.267V67.459L315.977 64.6533L298.906 50.4659H295.435V70.675H295.431ZM245.553 54.267V70.675H249.77V54.267H258.587V50.4659H236.489V54.267H245.553ZM319.267 64.7573V50.4659H315.463V61.5139L319.267 64.7573ZM273.383 65.5777C273.383 66.2177 273.584 66.8794 275.062 66.8794H286.477C287.962 66.8794 288.158 66.2229 288.158 65.5777V55.5687C288.158 54.9287 287.955 54.267 286.477 54.267H275.062C273.58 54.267 273.383 54.9233 273.383 55.5687V65.5777ZM110.078 65.5502C110.078 66.294 110.187 66.9831 110.399 67.5957C110.623 68.2302 110.978 68.7882 111.469 69.2476C111.954 69.7015 112.576 70.0625 113.329 70.3086C114.06 70.5493 114.955 70.675 115.986 70.675H127.406C128.442 70.675 129.304 70.5493 129.964 70.3031C130.652 70.046 131.203 69.6796 131.612 69.2092C132.016 68.7388 132.288 68.1756 132.43 67.5356C132.561 66.9395 132.627 66.2723 132.627 65.5447V50.4659H128.404V65.5722C128.404 66.2122 128.202 66.8739 126.724 66.8739H115.992C114.508 66.8739 114.311 66.2177 114.311 65.5722V50.4659H110.088V65.5447L110.078 65.5502ZM135.66 54.2725H144.722V70.6805H148.94V54.2725H157.756V50.4714H135.66V54.2725ZM160.495 65.5502C160.495 66.294 160.605 66.9831 160.817 67.5957C161.041 68.2302 161.396 68.7882 161.887 69.2476C162.372 69.7015 162.994 70.0625 163.747 70.3086C164.478 70.5493 165.373 70.675 166.404 70.675H177.823C178.854 70.675 179.744 70.5493 180.48 70.3086C181.233 70.0625 181.855 69.7015 182.341 69.2476C182.826 68.7882 183.186 68.2302 183.41 67.5957C183.623 66.9831 183.732 66.294 183.732 65.5502V55.5962C183.732 54.8522 183.623 54.1685 183.41 53.5505C183.186 52.9162 182.832 52.3582 182.341 51.8988C181.86 51.4449 181.233 51.0839 180.48 50.8378C179.749 50.5971 178.854 50.4714 177.823 50.4714H166.404C165.373 50.4714 164.484 50.5971 163.747 50.8378C162.994 51.0894 162.372 51.4449 161.887 51.8988C161.396 52.3582 161.041 52.9162 160.817 53.5505C160.605 54.163 160.495 54.8522 160.495 55.5962V65.5502ZM164.718 65.5777C164.718 66.2177 164.92 66.8794 166.399 66.8794H177.818C179.302 66.8794 179.498 66.2229 179.498 65.5777V55.5687C179.498 54.9287 179.296 54.267 177.818 54.267H166.399C164.915 54.267 164.718 54.9233 164.718 55.5687V65.5777ZM187.24 70.675H191.217V58.3418L199.297 70.675H202.489L210.542 58.3198V70.675H214.519V50.4659H210.984L201.027 65.7909L191.163 50.6791L191.021 50.4604H187.24V70.6695V70.675ZM215.9 70.6423H220.646L228.006 55.1585L232.066 62.099H227.575L225.949 65.7909H234.182L236.971 70.6423H241.989L230.003 50.433H225.218L215.883 70.6423H215.9ZM92.1824 50.4003L82.8472 70.6094H87.594L94.954 55.1258L99.013 62.0663H94.5229L92.8971 65.7582H101.13L103.918 70.6094H108.937L96.9508 50.4003H92.1659H92.1824Z" fill="#002854"/>
</g>
<defs>
<clipPath id="clip0_316_1742">
<rect width="329" height="80" fill="white"/>
</clipPath>
</defs>
</svg>
