<svg width="260" height="130" viewBox="0 0 260 130" fill="none" xmlns="http://www.w3.org/2000/svg">
<g clip-path="url(#clip0_316_1731)">
<path fill-rule="evenodd" clip-rule="evenodd" d="M168.916 5.98546e-07C173.268 -0.00171493 176.775 3.68452 176.777 8.11041L176.8 121.884C176.8 126.31 173.292 129.998 168.943 130C164.732 130 161.223 126.314 161.223 121.888L161.2 8.11385C161.198 3.68796 164.707 5.98546e-07 168.916 5.98546e-07Z" fill="#3E6BFD"/>
<path fill-rule="evenodd" clip-rule="evenodd" d="M30.9874 130C14.0117 130.004 0.0108849 116.322 0.00741979 99.7236L0.000488911 64.9277C-0.00124302 60.8522 3.5713 57.2104 7.89058 57.2104C12.3589 57.2087 15.7841 60.8488 15.7859 64.926L15.7928 99.7202C15.7945 108.019 22.4978 114.569 30.9839 114.567C39.6207 114.565 46.4696 108.014 46.6168 99.7151L46.6099 64.9193C46.6099 60.8421 49.8844 57.2019 54.351 57.2002C58.5213 57.2002 62.3918 60.8404 62.3936 64.9159L62.4005 99.7118C62.4039 116.308 48.112 129.997 30.9874 130Z" fill="#3E6BFD"/>
<path fill-rule="evenodd" clip-rule="evenodd" d="M244.363 93.7433C244.361 87.6299 242.148 82.3889 238.608 78.7487C235.069 74.8188 230.054 72.781 224.893 72.7827C219.585 72.7843 214.571 74.8238 211.179 78.7538C207.641 82.3957 205.579 87.6384 205.581 93.7518C205.581 99.7212 207.647 104.962 211.186 108.746C214.578 112.387 219.593 114.423 224.902 114.423C230.062 114.421 235.076 112.382 238.615 108.741C242.153 104.955 244.363 99.7127 244.363 93.7433ZM259.993 93.74L260 122.278C260 126.499 256.462 129.993 252.185 129.995C248.352 129.995 245.401 127.231 244.517 123.736C238.914 127.668 232.277 129.999 224.905 130C214.877 130.002 206.176 125.928 199.833 119.378C193.492 112.681 189.803 103.656 189.8 93.7552C189.798 83.7102 193.483 74.6815 199.823 68.1294C206.163 61.4316 214.863 57.207 224.889 57.2053C232.262 57.2036 238.898 59.6784 244.505 63.6066C245.387 59.9681 248.336 57.2002 252.169 57.2002C256.447 57.1985 259.986 60.6914 259.988 65.06L259.993 93.74Z" fill="#3E6BFD"/>
<path fill-rule="evenodd" clip-rule="evenodd" d="M129.963 93.7433C129.961 87.6299 127.748 82.3889 124.208 78.7487C120.669 74.8188 115.654 72.781 110.493 72.7827C105.185 72.7843 100.171 74.8238 96.7794 78.7538C93.2416 82.3957 91.1793 87.6384 91.181 93.7518C91.181 99.7212 93.2467 104.962 96.7862 108.746C100.178 112.387 105.193 114.423 110.502 114.423C115.662 114.421 120.676 112.382 124.215 108.741C127.753 104.955 129.963 99.7127 129.963 93.7433ZM145.593 93.74L145.6 122.278C145.6 126.499 142.062 129.993 137.785 129.995C133.952 129.995 131.001 127.231 130.117 123.736C124.514 127.668 117.877 129.999 110.505 130C100.477 130.002 91.7763 125.928 85.4334 119.378C79.0921 112.681 75.4033 103.656 75.3999 93.7552C75.3982 83.7102 79.0835 74.6815 85.4231 68.1294C91.7626 61.4316 100.463 57.207 110.49 57.2053C117.862 57.2036 124.498 59.6784 130.105 63.6066C130.987 59.9681 133.936 57.2002 137.769 57.2002C142.047 57.1985 145.586 60.6914 145.588 65.06L145.593 93.74Z" fill="#3E6BFD"/>
<path fill-rule="evenodd" clip-rule="evenodd" d="M250.426 15.8724L250.381 15.828C246.138 11.4223 238.194 8.97882 231.784 13.1432C226.865 16.6048 223.435 21.1862 221.788 23.3899C221.594 23.6477 221.424 23.8776 221.269 24.0763L221.192 24.1765C220.777 24.7332 220.36 25.303 219.939 25.8794C216.108 31.1095 211.767 37.0391 206.469 37.627C206.078 37.6697 205.696 37.6845 205.34 37.6648C204.506 37.6237 203.719 38.0704 203.362 38.8044C203.014 39.5154 203.144 40.32 203.723 40.926C206.435 43.7488 210.665 45.7669 215.04 45.7669C217.507 45.7669 220.021 45.1232 222.335 43.619C227.249 40.1624 230.677 35.5809 232.324 33.3805C232.52 33.1194 232.692 32.8879 232.852 32.681L232.925 32.589C233.339 32.0323 233.758 31.4609 234.18 30.8845C238.01 25.6544 242.35 19.7264 247.648 19.1369C248.043 19.0942 248.423 19.0794 248.777 19.0991C249.617 19.1451 250.398 18.6952 250.754 17.9595C251.102 17.2485 250.974 16.4471 250.426 15.8724Z" fill="#FF6766"/>
</g>
<defs>
<clipPath id="clip0_316_1731">
<rect width="260" height="130" fill="white"/>
</clipPath>
</defs>
</svg>
