<svg width="482" height="93" viewBox="0 0 482 93" fill="none" xmlns="http://www.w3.org/2000/svg">
<g clip-path="url(#clip0_316_1781)">
<path d="M35.9221 60.5387L29.7831 79.3507C27.9293 85.0946 21.7295 88.3768 15.8945 86.7357L25.6803 56.6183H14.8004C8.75259 56.6183 3.70769 51.7253 3.49496 45.7079H25.1941C26.3489 45.7079 27.5342 45.8599 28.689 46.255C30.9076 47.0148 32.9438 48.4735 34.3417 50.3881C36.4691 53.3057 37.0769 57.1045 35.9221 60.5387ZM74.7921 84.1221C75.2175 86.9484 74.6097 89.8356 72.999 92.2364L47.7745 73.9715L47.3491 73.6372L43.9757 83.9701C43.0032 86.8572 41.0277 89.167 38.323 90.5346C35.7701 91.8414 32.8222 92.1757 30.0566 91.3551L36.7426 70.7501C37.1073 69.6256 37.6544 68.5923 38.3837 67.6198C39.7817 65.6444 41.7875 64.1856 44.0364 63.4866C47.4706 62.3926 51.2695 63.0004 54.2174 65.0974L70.203 76.7371C72.6647 78.5301 74.3058 81.1438 74.7921 84.1221ZM92.4796 37.2897L67.2855 55.5546L66.8296 55.8585L75.643 62.271C78.1047 64.0641 79.685 66.6777 80.1712 69.6864C80.5967 72.5127 80.0193 75.3695 78.3782 77.7704L60.8426 65.067C59.8701 64.3376 59.0496 63.517 58.3506 62.5445C56.9222 60.6603 56.1624 58.2594 56.1624 55.9193C56.1624 52.2724 57.9251 48.8686 60.8426 46.7412L76.8586 35.1015C78.8037 33.7035 81.1134 32.9438 83.4839 32.9438C84.0917 32.9438 84.6894 32.9944 85.2769 33.0957C88.1641 33.582 90.6865 35.0407 92.4796 37.2897ZM41.8483 14.1318C40.9366 11.2446 41.2101 8.20555 42.5777 5.50076C43.8845 2.94792 46.0422 0.972509 48.7774 0L58.5633 30.1478L67.3767 23.7353C69.8383 22.003 72.8166 21.2433 75.8253 21.7295C78.6517 22.1854 81.1438 23.6441 82.9368 25.9235L65.4317 38.6269C64.4895 39.2955 63.3955 39.8425 62.271 40.2072C59.9917 40.9366 57.4692 40.9366 55.2507 40.2072C51.8165 39.0827 49.0813 36.3475 47.9569 32.9438L41.8483 14.1318ZM0 30.8468H31.6673L28.2939 20.5443C26.4401 14.77 29.54 8.47907 35.1927 6.41248L41.9395 27.0479C42.3346 28.142 42.4865 29.3272 42.4865 30.5429C42.4865 32.883 41.7267 35.2535 40.3288 37.1681C38.1406 40.0856 34.7064 41.8483 31.1203 41.8483H11.3054C5.25763 41.8483 0.212736 36.9554 0 30.8468Z" fill="#0033A1"/>
<path d="M138.917 70.6582L138.947 70.5974V37.5017H149.615V86.2488H140.224L139.889 80.1098L139.616 80.3833C136.668 83.5744 130.347 87.3732 122.293 87.3732C111.687 87.3732 104.818 79.6236 104.818 67.5584V37.5017H115.607V66.3123C115.607 73.4846 119.649 78.104 125.94 78.104C130.408 78.104 135.635 75.0953 138.917 70.6582ZM178.212 58.2587C189.427 60.7508 194.137 64.7928 194.137 73.0287C194.137 81.2951 186.843 87.434 173.684 87.434C163.838 87.434 156.27 83.3616 156.27 83.3616C156.27 83.3616 156.27 73.9101 156.27 73.0287C157.243 73.5758 164.202 78.1952 174.839 78.5295C179.337 78.651 183.531 77.2227 183.531 73.0287C183.531 67.6495 176.845 67.2241 166.816 63.5164C157.911 60.2038 155.45 55.3716 155.45 50.4179C155.45 42.1819 163.139 36.043 175.872 36.043C181.403 36.043 187.603 37.3802 191.159 39.234V48.3817C186.813 45.6465 180.644 44.674 176.024 44.674C167.849 44.674 166.178 47.7131 166.178 50.4179C166.178 53.1531 167.089 55.7059 178.212 58.2587Z" fill="#F32735"/>
<path fill-rule="evenodd" clip-rule="evenodd" d="M481.757 37.5031V48.4135C479.69 47.6537 475.284 46.8331 470.816 48.687C466.561 50.3889 463.34 54.0358 461.121 59.4454V86.2501H450.333V37.5031H460.301L461.061 48.2007L461.334 47.836C466.409 39.6609 473.643 36.0444 481.757 37.5031ZM294.731 14.4668H305.52V86.2501H294.731V14.4668ZM312.844 14.4668H323.633V86.2501H312.844V14.4668ZM380.19 14.4668H390.949V86.2501H380.19V14.4668ZM436.626 42.3049C440.942 46.59 443.1 53.0025 443.1 61.3296V86.3109H433.861L433.192 77.4064L432.919 77.8015C429.241 83.8797 422.1 87.4658 413.833 87.4658C403.044 87.4658 395.477 80.7798 395.477 71.2067C395.477 66.3137 397.483 62.1502 401.373 59.1415C405.02 56.3151 410.217 54.7652 415.991 54.7652C422.312 54.7652 427.965 56.3759 432.007 59.3846L432.28 59.5365V59.2022C432.22 49.5987 426.901 44.7362 416.447 44.7362C411.159 44.7362 404.777 46.1645 399.671 48.4438V39.6913C404.29 37.1992 412.891 36.0444 419.364 36.0444C426.719 36.0444 432.493 38.1717 436.626 42.3049ZM432.098 66.8304L432.007 66.7696C428.36 63.8824 423.011 62.2109 417.754 62.2109C410.612 62.2109 406.144 65.402 406.144 70.5077C406.144 75.4006 410.399 78.6524 416.72 78.6524C423.194 78.6524 429.758 73.6075 432.068 66.9215L432.098 66.8304ZM363.567 70.69V37.5335H374.234V86.2805H364.813L364.539 80.1416L364.266 80.4151C361.318 83.6365 355.027 87.4354 346.973 87.4354C336.336 87.4354 329.498 79.6553 329.498 67.5901V37.5335H340.257V66.3441C340.257 73.5164 344.299 78.1358 350.62 78.1358C355.118 78.1358 360.284 75.1575 363.567 70.69ZM282.94 43.095C286.83 47.7449 288.835 54.6132 288.835 62.9099C288.835 64.0648 288.775 65.25 288.653 65.949H252.852L252.913 66.1314C254.372 73.7291 259.751 78.075 267.714 78.075C271.513 78.075 278.229 76.6162 280.994 74.7016L285.188 82.3297C281.116 85.308 273.913 87.4354 267.714 87.4354C260.541 87.4354 254.038 85.0345 249.479 80.7494C244.586 76.13 241.973 69.444 241.973 61.5119C241.973 54.0662 244.191 47.7449 248.507 43.1862C252.852 38.506 259.113 36.0747 266.528 36.0747C273.427 36.0747 279.08 38.506 282.94 43.095ZM278.715 58.5032V58.3513C278.047 49.8114 273.761 45.1616 266.528 45.1616C258.444 45.1616 253.278 49.933 252.427 58.3513V58.5032H278.715ZM237.171 74.7016L241.699 82.3297C236.836 85.7031 231.184 87.4354 225.197 87.4354C206.202 87.4354 197.541 74.1242 197.541 61.7247C197.541 44.0676 211.855 36.014 225.197 36.014C231.123 36.014 236.806 37.7462 241.577 41.0589L237.171 48.4742C234.223 46.4988 229.391 45.1008 225.197 45.1008C220.638 45.1008 216.383 46.7116 213.284 49.6595C210.062 52.6378 208.33 56.9533 208.33 61.6031C208.33 71.0851 215.563 78.1358 225.197 78.1358C229.056 78.1358 234.192 76.677 237.171 74.7016ZM469.479 81.5092V80.5367H474.433V81.5092H472.518V86.2805H471.394V81.5092H469.479ZM477.046 80.5367L478.505 84.6698L479.964 80.5367H481.605V86.2805H480.572V81.6003L478.991 86.2805H478.08L476.438 81.6003V86.2805H475.405V80.5367H477.046Z" fill="#0033A1"/>
</g>
<defs>
<clipPath id="clip0_316_1781">
<rect width="482" height="92.3884" fill="white"/>
</clipPath>
</defs>
</svg>
