<svg width="231" height="64" viewBox="0 0 231 64" fill="none" xmlns="http://www.w3.org/2000/svg">
<g clip-path="url(#clip0_316_1827)">
<path d="M19.6759 53.6554C18.8445 49.4525 16.974 43.6822 10.6693 25.7308H0L14.6183 62.987H24.5946L38.451 25.7305H27.9893C22.0312 43.3257 20.3688 48.9539 19.6759 53.6554Z" fill="#03282C"/>
<path d="M57.2815 24.9473C46.3353 24.9473 38.5752 33.2819 38.5752 44.4662C38.5752 56.0061 46.6119 63.6997 57.8353 63.6997C64.9659 63.6997 71.0607 59.8972 73.9576 54.4739L66.634 50.3789C65.1789 53.2992 62.2001 55.3651 57.9048 55.3651C52.8476 55.3651 48.8983 52.0881 48.4135 47.5293H75.9176C76.4027 32.5695 68.2968 24.9473 57.2815 24.9473ZM48.3442 40.4765C48.6906 36.1314 52.3625 33.0683 57.2815 33.0683C62.2005 33.0683 65.7335 36.1314 65.9414 40.4765H48.3442Z" fill="#03282C"/>
<path d="M115.408 25.7305H105.57V62.987H115.408V25.7305Z" fill="#03282C"/>
<path d="M163.218 17.4678C164.534 17.4678 166.058 17.6814 167.582 18.1086V9.98785C165.92 9.4182 163.633 8.99023 161.347 8.99023C154.835 8.99023 148.322 12.5522 148.322 23.0951V25.731H133.975V24.5198C133.42 19.1769 135.499 17.4678 139.032 17.4678C140.349 17.4678 141.873 17.6814 143.397 18.1086V9.98785C141.734 9.4182 139.448 8.99023 137.162 8.99023C130.65 8.99023 124.137 12.5522 124.137 23.0951V25.731H119.842V33.6351H124.137V62.9873H133.975V33.6351H148.322V62.9873H158.16V33.6351H167.582V25.731H158.16V24.5198C157.606 19.1769 159.684 17.4678 163.218 17.4678Z" fill="#03282C"/>
<path d="M90.6401 37.1482V35.6935L89.57 25.7321H81.0103V62.9885H90.6401V47.891C90.6401 40.0156 95.9283 35.1316 101.731 35.1316V25.3047C94.918 26.0018 90.6403 30.0347 90.6401 37.1482Z" fill="#03282C"/>
<path d="M115.487 12.2734H105.49V20.3819H115.487V12.2734Z" fill="#03282C"/>
<path d="M211.016 25.405V50.5528L211.098 50.5519C212.742 37.8486 220.049 29.5459 231 25.5936V-0.00195312C218.408 2.25642 211.016 10.443 211.016 25.405Z" fill="#14E5C5"/>
<path d="M187.533 46.9162L207.517 63.8539V30.26L187.533 13.3223V46.9162Z" fill="#14E5C5"/>
</g>
<defs>
<clipPath id="clip0_316_1827">
<rect width="231" height="63.8537" fill="white"/>
</clipPath>
</defs>
</svg>
