<svg width="281" height="80" viewBox="0 0 281 80" fill="none" xmlns="http://www.w3.org/2000/svg">
<g clip-path="url(#clip0_316_1775)">
<path d="M195.121 56.7192V27.689H213.897V15.5751H195.121V0H181.709V57.9522C181.709 61.5864 182.25 64.7663 183.288 67.4919C185.213 72.5538 188.848 75.9933 193.888 77.8753C196.96 79.0434 200.55 79.6059 204.617 79.6059C207.776 79.6059 211.453 79.0867 215.65 78.1998V66.843C211.972 67.2323 209.311 67.4919 207.408 67.4919C199.296 67.4919 195.121 64.7014 195.121 56.7192Z" fill="url(#paint0_linear_316_1775)"/>
<path d="M151.835 22.8658C148.742 19.5777 144.891 17.0684 140.63 15.5758C133.989 13.2612 126.785 13.2612 120.144 15.5758C114.607 17.5443 109.783 21.1785 106.365 25.9592C102.255 31.6268 99.9617 38.8302 99.9617 46.7259C99.9617 54.6216 102.255 61.8251 106.365 67.4927C109.783 72.2734 114.585 75.9075 120.144 77.876C126.785 80.1907 133.989 80.1907 140.63 77.876C144.891 76.3618 148.72 73.8741 151.835 70.5644V77.876H165.29V15.5758H151.835V22.8658ZM132.626 67.4927C121.161 67.4927 113.417 58.1909 113.417 46.7259C113.417 35.261 121.161 25.9592 132.626 25.9592C144.091 25.9592 151.835 35.261 151.835 46.7259C151.835 58.1909 144.091 67.4927 132.626 67.4927Z" fill="url(#paint1_linear_316_1775)"/>
<path d="M267.545 15.5742V54.6417C267.545 62.2994 261.336 67.4911 253.657 67.4911C245.978 67.4911 239.769 62.321 239.769 54.6417V15.5742H226.314V54.3172C226.314 64.3328 231.722 72.2069 239.769 76.3602C243.836 78.4585 248.574 79.605 253.657 79.605C258.741 79.605 263.478 78.4585 267.545 76.3602C275.592 72.2069 281 64.3328 281 54.3172V15.5742H267.545Z" fill="url(#paint2_linear_316_1775)"/>
<path d="M68.6817 61.8235L56.5245 31.3872C54.7507 26.9527 49.7104 24.8111 45.2758 26.5849C43.091 27.4718 41.3388 29.2024 40.4735 31.3872L28.2947 61.8235L13.8012 15.5742H0L19.4905 73.5048C20.0962 75.2786 21.2426 76.8361 22.7569 77.9393C24.2928 79.0209 26.1315 79.605 27.9918 79.6266C31.7342 79.6266 35.0655 77.312 36.3851 73.8076L48.5206 41.5759L60.6346 73.8076C62.3868 78.4369 67.5568 80.7948 72.2077 79.0426C74.7386 78.0908 76.6855 76.0574 77.5508 73.5048L97.0196 15.5742H83.1968L68.6817 61.8235Z" fill="url(#paint3_linear_316_1775)"/>
</g>
<defs>
<linearGradient id="paint0_linear_316_1775" x1="198.679" y1="79.6059" x2="198.679" y2="0" gradientUnits="userSpaceOnUse">
<stop stop-color="#0DA9A8"/>
<stop offset="1" stop-color="#0D93A8"/>
</linearGradient>
<linearGradient id="paint1_linear_316_1775" x1="132.626" y1="79.612" x2="132.626" y2="13.8399" gradientUnits="userSpaceOnUse">
<stop stop-color="#0DA9A8"/>
<stop offset="1" stop-color="#0D93A8"/>
</linearGradient>
<linearGradient id="paint2_linear_316_1775" x1="253.657" y1="79.605" x2="253.657" y2="15.5742" gradientUnits="userSpaceOnUse">
<stop stop-color="#0DA9A8"/>
<stop offset="1" stop-color="#0D93A8"/>
</linearGradient>
<linearGradient id="paint3_linear_316_1775" x1="48.5098" y1="79.6267" x2="48.5098" y2="15.5742" gradientUnits="userSpaceOnUse">
<stop stop-color="#0DA9A8"/>
<stop offset="1" stop-color="#0D93A8"/>
</linearGradient>
<clipPath id="clip0_316_1775">
<rect width="281" height="79.6275" fill="white"/>
</clipPath>
</defs>
</svg>
