<svg width="290" height="116" viewBox="0 0 290 116" fill="none" xmlns="http://www.w3.org/2000/svg">
<g clip-path="url(#clip0_316_6264)">
<path d="M148.258 0.0638295C158.621 -0.292893 169.052 1.26585 178.826 4.73426C193.531 9.89616 206.673 19.3558 216.289 31.6093C220.519 36.985 224.062 42.894 226.839 49.1458C227.331 50.1861 227.711 51.3554 227.447 52.5145C227.124 54.4604 225.418 56.069 223.457 56.2634C221.419 56.5613 219.313 55.29 218.587 53.3702C213.065 40.3764 203.641 29.0896 191.886 21.2768C184.619 16.4206 176.469 12.8844 167.954 10.9046C156.974 8.33626 145.413 8.33625 134.431 10.8968C118.75 14.5078 104.392 23.5023 94.2656 36.0004C89.9719 41.2663 86.4267 47.1364 83.754 53.3815C83.1756 54.8327 81.8467 55.9704 80.296 56.2252C78.8008 56.5138 77.1731 55.9974 76.1304 54.8837C74.9012 53.6522 74.4992 51.6837 75.133 50.0673C82.4885 32.6768 96.1083 18.0677 112.853 9.37194C123.76 3.66351 135.96 0.479378 148.258 0.0638295Z" fill="#F49813"/>
<path d="M134.563 53.6096C134.501 52.7064 135.356 52.0306 136.202 52.0092C137.303 51.9796 138.406 51.9889 139.509 52.0045C140.275 52.0306 141.169 52.5412 141.166 53.4016C141.205 63.5066 141.142 73.6148 141.2 83.7256C145.294 79.1728 149.424 74.645 153.533 70.1058C154.342 69.3077 154.981 68.0988 156.24 67.9947C157.936 67.9246 159.636 67.9663 161.334 67.9686C161.988 67.9098 162.719 68.5097 162.489 69.208C162.22 69.747 161.728 70.1171 161.326 70.5451C156.883 74.9846 152.423 79.4084 148.003 83.867C152.273 88.7413 156.484 93.6654 160.734 98.5577C161.281 99.2539 161.966 99.8448 162.424 100.612C162.76 101.212 162.203 101.942 161.56 101.971C160.149 102.05 158.734 101.971 157.319 102.005C156.583 101.988 155.788 102.095 155.12 101.716C154.415 101.312 153.988 100.59 153.484 99.9817C149.384 94.8188 145.311 89.6356 141.196 84.4816C141.154 89.5643 141.184 94.6445 141.181 99.7236C141.165 100.31 141.285 101.016 140.774 101.444C139.961 102.229 138.752 101.954 137.737 102.005C136.837 101.974 135.784 102.171 135.053 101.506C134.646 101.19 134.539 100.648 134.555 100.167C134.567 84.6459 134.551 69.1266 134.563 53.6096Z" fill="#3069B5"/>
<path d="M115.887 67.8837C117.943 67.2227 120.26 67.0969 122.273 67.9686C122.98 68.3004 123.801 69.0077 123.481 69.8794C123.159 70.9739 122.884 72.0809 122.499 73.1563C122.215 73.9282 121.319 74.2148 120.566 74.0642C118.87 73.7732 117.205 73.2131 115.466 73.2696C114.253 73.2412 113.133 73.892 112.303 74.7356C110.964 76.0451 110.271 77.8765 109.96 79.6935C109.713 81.0065 109.784 82.3479 109.772 83.6745C109.772 89.2495 109.774 94.8278 109.771 100.403C109.85 101.32 108.902 101.942 108.074 101.974C106.938 101.99 105.803 102.004 104.668 101.965C103.847 101.922 102.924 101.323 103.03 100.399C103.026 90.0759 103.019 79.7558 103.033 69.4323C102.962 68.4056 104.1 67.8474 104.992 67.9437C106.111 68.0173 107.639 67.5962 108.367 68.7226C108.92 70.0286 109.182 71.4393 109.701 72.7569C111.262 70.6152 113.331 68.7269 115.887 67.8837Z" fill="#3069B5"/>
<path d="M0 68.6706C0.315817 68.3083 0.684837 67.9165 1.2112 67.9539C2.75293 67.9391 4.29919 67.9052 5.83979 67.9765C6.622 67.9991 7.16079 68.6865 7.27514 69.4141C8.79082 75.5778 10.2794 81.7505 11.7883 87.9162C12.2309 89.8201 12.7697 91.7049 13.0583 93.6416C13.356 95.3815 13.4149 97.1473 13.6979 98.8905C14.0873 96.4025 14.4359 93.8986 15.1072 91.4683C17.0802 84.1093 19.0521 76.7517 21.0274 69.395C21.1813 68.5561 21.9703 67.9597 22.8091 67.9597C24.5251 67.9165 26.2446 67.9461 27.9606 67.9461C28.8809 67.9029 29.8659 68.4408 30.0876 69.3837C31.5614 74.7482 33.0173 80.1225 34.4853 85.4916C35.3761 88.9689 36.543 92.3874 37.047 95.9554C37.1861 96.9379 37.322 97.9227 37.5245 98.8985C38.078 93.293 39.5203 87.8392 40.7066 82.3503C41.6858 77.9833 42.6433 73.6116 43.6337 69.2443C43.7798 68.3672 44.708 67.9258 45.5254 67.9504C46.9132 67.9426 48.3033 67.9029 49.6887 67.9733C50.5117 67.9971 50.9846 68.907 50.6949 69.6408C47.9103 79.9156 45.136 90.1971 42.3503 100.472C42.2008 101.296 41.483 101.939 40.642 101.953C38.4912 102.023 36.3361 101.969 34.1854 101.981C33.4145 102.028 32.5994 101.615 32.4635 100.804C30.5382 93.7379 28.6511 86.6597 26.7438 79.5884C26.0533 77.1284 25.7737 74.5784 25.4839 72.0483C25.1296 74.301 24.9541 76.5909 24.3542 78.804C22.4016 86.0848 20.4376 93.3688 18.4804 100.651C18.2597 101.83 16.9115 102.066 15.9086 101.989C13.9084 101.953 11.9083 102.035 9.91033 101.953C9.19834 101.955 8.64934 101.4 8.52143 100.728C5.71417 90.4937 2.91594 80.2549 0.106405 70.0233C0.00905571 69.5761 0.0215073 69.12 0 68.6706Z" fill="#3069B5"/>
<path d="M252.242 67.9738C253.702 67.9489 255.168 67.9431 256.628 67.9738C257.517 67.9863 258.352 68.5939 258.632 69.443C261.154 76.0332 263.658 82.6359 266.176 89.2297C266.702 90.5677 267.07 91.9634 267.306 93.3806C268.347 89.4697 269.734 85.6639 270.951 81.804C272.306 77.6305 273.662 73.4559 275.022 69.281C275.224 68.5545 275.917 68.0587 276.652 67.9976C277.845 67.9092 279.044 67.9863 280.238 67.9544C280.937 67.9625 281.769 67.8808 282.301 68.4412C282.646 68.7333 282.573 69.2187 282.429 69.598C278.399 81.0931 274.381 92.5939 270.357 104.092C269.657 106.008 269.119 108.012 267.993 109.735C266.378 112.359 263.759 114.248 260.882 115.271C259.877 115.582 258.839 116.272 257.758 115.885C256.99 115.689 256.696 114.891 256.286 114.305C255.992 113.773 255.449 113.281 255.562 112.618C255.615 111.962 256.141 111.427 256.762 111.252C257.975 110.833 259.209 110.371 260.192 109.514C262.58 107.494 264.057 104.506 264.62 101.464C264.238 100.114 263.533 98.8718 263.021 97.5644C259.179 88.6332 255.335 79.6987 251.483 70.7708C251.251 70.1866 250.909 69.6296 250.844 68.9959C250.853 68.2998 251.651 67.9941 252.242 67.9738Z" fill="#3069B5"/>
<path d="M73.059 72.2937C70.9627 72.6832 69.0507 73.9884 67.9866 75.847C66.2085 78.8614 66.0036 82.4984 66.0839 85.917C66.2105 89.0117 66.7075 92.3125 68.6818 94.8141C70.1545 96.6954 72.5744 97.6406 74.9269 97.6044C77.1895 97.6768 79.56 96.9105 81.0938 95.1899C83.053 93.0471 83.6824 90.0734 83.9519 87.2696C84.0707 84.5156 84.1263 81.7117 83.412 79.0222C82.8438 76.7503 81.6438 74.4784 79.5678 73.2547C77.6355 72.0694 75.2483 71.9587 73.059 72.2937ZM73.9443 67.3923C77.7375 67.1591 81.7119 67.947 84.8427 70.194C87.6432 72.1862 89.545 75.2562 90.4335 78.5478C91.4897 82.4779 91.4851 86.6719 90.5274 90.6225C89.6253 94.264 87.5154 97.6972 84.3324 99.7665C80.9306 102.024 76.6575 102.61 72.6652 102.129C69.2637 101.71 65.9492 100.218 63.581 97.7119C60.7977 94.796 59.4154 90.7786 59.128 86.8078C58.7782 82.4042 59.4528 77.7431 61.9023 73.9826C63.7146 71.1526 66.5957 69.0734 69.8091 68.1246C71.1493 67.7059 72.5475 67.5112 73.9443 67.3923Z" fill="#3069B5"/>
<path d="M185.836 72.1153C183.756 72.2489 181.749 73.4454 180.821 75.3435C179.008 78.8539 178.971 82.939 179.061 86.7991C179.206 89.321 179.48 91.9246 180.655 94.2021C181.449 95.7359 182.893 96.9471 184.6 97.3183C187.211 97.9466 190.285 97.4146 192.141 95.351C193.929 93.3146 194.518 90.5458 194.793 87.9253C194.982 84.9382 194.993 81.8897 194.252 78.9657C193.742 77.0109 192.88 75.0583 191.331 73.6998C189.846 72.3926 187.777 71.8887 185.836 72.1153ZM194.784 53.1774C194.736 52.3851 195.546 51.8792 196.25 51.818C197.376 51.7569 198.506 51.7862 199.634 51.7986C200.495 51.7908 201.457 52.4303 201.332 53.3858C201.332 68.9775 201.336 84.5667 201.33 100.156C201.389 100.961 200.596 101.586 199.853 101.635C198.955 101.682 198.055 101.682 197.161 101.62C196.53 101.58 195.919 101.176 195.704 100.573C195.367 99.5596 195.191 98.5069 194.934 97.4768C193.689 99.1657 192.084 100.66 190.09 101.401C187.245 102.448 184.079 102.465 181.155 101.752C178.218 101.046 175.659 99.0276 174.242 96.3709C172.018 92.3151 171.754 87.5439 171.893 83.0195C171.973 79.1538 172.711 75.0754 175.229 72.0078C177.129 69.4076 180.242 67.9155 183.385 67.5251C186.311 67.0971 189.484 67.5895 191.906 69.3623C193.052 70.1682 193.969 71.2491 194.787 72.379C194.765 65.98 194.77 59.5787 194.784 53.1774Z" fill="#3069B5"/>
<path d="M226.27 72.3099C225.226 72.5226 224.215 72.9414 223.372 73.5945C221.685 74.9076 220.847 76.994 220.4 79.0201C219.749 82.235 219.758 85.555 220.095 88.8059C220.41 91.1943 221.009 93.7435 222.761 95.5094C224.187 97.007 226.338 97.556 228.35 97.4575C230.515 97.5356 232.767 96.7297 234.163 95.0294C235.908 92.9183 236.401 90.1099 236.655 87.4645C236.817 84.3539 236.819 81.1686 235.946 78.1485C235.393 76.2672 234.384 74.3961 232.68 73.3242C230.803 72.0926 228.429 71.9793 226.27 72.3099ZM223.372 68.04C226.375 67.208 229.59 67.1593 232.623 67.8534C235.442 68.5065 238.082 70.0888 239.814 72.4319C241.645 74.8339 242.57 77.8123 242.955 80.7803C243.289 83.069 243.193 85.3872 243.196 87.6932C243.196 91.8543 243.196 96.0165 243.184 100.176C243.23 100.684 242.909 101.133 242.496 101.397C241.798 101.827 240.932 101.637 240.153 101.685C239.279 101.679 238.13 101.756 237.655 100.847C237.191 99.778 237.095 98.5861 236.797 97.462C235.625 98.886 234.412 100.355 232.716 101.178C230.133 102.455 227.113 102.38 224.349 101.84C220.966 101.173 217.851 99.1724 215.938 96.2905C213.66 92.9342 212.833 88.7912 212.865 84.7874C212.837 80.8843 213.601 76.8491 215.771 73.547C217.506 70.8474 220.291 68.8925 223.372 68.04Z" fill="#3069B5"/>
<path d="M283.863 93.6045C282.146 94.235 281.065 96.2159 281.503 98.0044C281.95 100.104 284.393 101.537 286.431 100.761C288.31 100.187 289.495 98.044 288.912 96.1548C288.4 94.029 285.878 92.7725 283.863 93.6045ZM284.101 92.7068C285.12 92.5461 286.227 92.5347 287.172 93.0068C288.782 93.738 289.939 95.4665 289.764 97.2641C289.898 99.408 288.095 101.324 286.037 101.67C283.72 102.162 281.226 100.483 280.754 98.1719C280.145 95.8457 281.761 93.2275 284.101 92.7068Z" fill="#3069B5"/>
<path d="M284.58 95.3193C284.577 95.8061 284.574 96.2928 284.58 96.7829C285.007 96.7569 285.446 96.7829 285.867 96.6663C286.263 96.5022 286.224 95.9985 286.116 95.6612C285.707 95.2605 285.097 95.3646 284.58 95.3193ZM283.292 94.5269C284.524 94.5971 285.904 94.2496 287.014 94.9367C287.908 95.608 287.474 97.0682 286.465 97.3795C286.756 98.1492 287.161 98.8646 287.531 99.5981C287.065 99.6072 286.606 99.6151 286.148 99.623C285.816 98.9439 285.491 98.2568 285.174 97.5719C284.973 97.5663 284.775 97.564 284.58 97.5606C284.577 98.2454 284.577 98.9303 284.577 99.6151C284.141 99.6095 283.714 99.6038 283.286 99.6004C283.29 97.9081 283.284 96.2158 283.292 94.5269Z" fill="#3069B5"/>
</g>
<defs>
<clipPath id="clip0_316_6264">
<rect width="289.783" height="116" fill="white"/>
</clipPath>
</defs>
</svg>
