<svg width="55" height="40" viewBox="0 0 55 40" fill="none" xmlns="http://www.w3.org/2000/svg">
<g clip-path="url(#clip0_3303_26622)">
<path d="M26.3074 6.17347V23.2908H12.2066L26.3074 6.17347ZM26.3074 0C26.3074 3.92857 23.1505 7.08546 19.2219 7.08546C15.2934 7.08546 12.2066 3.92857 12.2066 0H26.3074ZM28.6224 23.2207C28.6224 19.2921 31.7793 16.1352 35.7079 16.1352C39.6365 16.1352 42.7934 19.2921 42.7934 23.2207H28.6224ZM28.6224 17.1173V0H42.7934L28.6224 17.1173ZM38.3036 34.9362C38.1633 33.9541 37.5319 33.2525 36.4094 33.2525C35.3571 33.2525 34.5855 33.8839 34.375 34.9362H38.3036ZM36.5497 37.8125C37.4617 37.8125 38.0931 37.4617 38.514 37.0408L39.4962 38.0931C38.8648 38.7245 37.9528 39.2156 36.5497 39.2156C34.1645 39.2156 32.6212 37.6722 32.6212 35.4974C32.6212 33.3929 34.2347 31.7793 36.2691 31.7793C38.6543 31.7793 39.9171 33.6033 39.8469 36.0587H34.375C34.5855 37.1811 35.287 37.8125 36.5497 37.8125ZM0 37.7423L4.27934 33.3929H0.0701531V31.9898H6.24362V33.3929L1.96429 37.7423H6.31378V39.1454H0V37.7423ZM12.838 34.9362C12.6977 33.9541 12.0663 33.2525 10.9439 33.2525C9.89158 33.2525 9.1199 33.8839 8.90944 34.9362H12.838ZM11.1543 37.8125C12.0663 37.8125 12.6977 37.4617 13.1186 37.0408L14.1008 38.0931C13.4694 38.7245 12.5574 39.2156 11.1543 39.2156C8.76913 39.2156 7.22577 37.6722 7.22577 35.4974C7.22577 33.3929 8.83929 31.7793 10.8737 31.7793C13.2589 31.7793 14.5217 33.6033 14.4515 36.0587H8.90944C9.19005 37.1811 9.89158 37.8125 11.1543 37.8125ZM29.815 35.5676C29.815 34.3048 28.8329 33.2525 27.5702 33.2525C26.3074 33.2525 25.3253 34.2347 25.3253 35.5676C25.3253 36.9005 26.3074 37.8826 27.5702 37.8826C28.8329 37.8826 29.815 36.8304 29.815 35.5676ZM23.7819 35.5676C23.7819 33.2525 25.4656 31.8495 27.3597 31.8495C28.2717 31.8495 29.1837 32.2704 29.7449 32.9018V28.6926H31.2883V39.0753H29.7449V38.0931C29.1837 38.7946 28.2717 39.2156 27.3597 39.2156C25.5357 39.2857 23.7819 37.8125 23.7819 35.5676ZM40.8992 37.6722L42.3023 36.9707C42.7232 37.602 43.2844 38.023 44.1263 38.023C44.9681 38.023 45.4592 37.602 45.4592 37.111C45.4592 36.5497 44.6173 36.4094 43.7054 36.199C42.5128 35.9184 41.25 35.5676 41.25 34.0944C41.25 32.9719 42.3023 31.9196 43.986 31.9196C45.3189 31.9196 46.301 32.4107 46.8622 33.3227L45.5995 34.0242C45.2487 33.5332 44.6875 33.1824 43.986 33.1824C43.1441 33.1824 42.7232 33.6033 42.7232 34.0242C42.7232 34.5153 43.3546 34.6556 44.4069 34.9362C45.5995 35.1467 46.9324 35.5676 46.9324 37.0408C46.9324 38.023 46.0906 39.3559 44.0561 39.3559C42.5829 39.2857 41.5306 38.7245 40.8992 37.6722ZM51.0714 35.9885L49.8788 37.3214V39.1454H48.3355V28.7628H49.8788V35.5676L53.1059 32.0599H54.9298L52.1237 35.0765L55 39.1454H53.2462L51.0714 35.9885ZM19.2219 31.8495C17.398 31.8495 15.9247 33.0421 15.9247 34.9362V39.0753H17.4681V35.1467C17.4681 33.9541 18.0995 33.2525 19.2921 33.2525C20.4847 33.2525 20.9758 33.9541 20.9758 35.1467V39.0753H22.5191V34.9362C22.5191 33.0421 20.9758 31.8495 19.2219 31.8495Z" fill="black"/>
</g>
<defs>
<clipPath id="clip0_3303_26622">
<rect width="55" height="39.2857" fill="white"/>
</clipPath>
</defs>
</svg>
