<svg width="248" height="106" viewBox="0 0 248 106" fill="none" xmlns="http://www.w3.org/2000/svg">
<path d="M53.3345 102.476L42.7095 87.0571V46.8273V6.59766H72.3981L77.4444 15.5687H53.3345V22.0167H80.2479L86.1351 32.1092H53.3345V102.476Z" fill="black"/>
<path d="M57.9497 104.014V36.7305H100.002L95.7965 46.823H69.1636V52.4299H93.8341L90.1896 62.5225H69.1636V96.7247L57.9497 104.014Z" fill="black"/>
<path fill-rule="evenodd" clip-rule="evenodd" d="M0.674316 28.3978L28.4286 0.923828L38.8014 6.53076V56.7128L28.4286 49.1435V38.7706L14.1309 30.6406L8.24366 36.8082L0.674316 28.3978ZM28.1482 17.6044V28.8183L19.7378 24.6131L28.1482 17.6044Z" fill="black"/>
<path d="M136.912 21.0415H133.048L132.04 18.3295H125.176L124.168 21.0415H120.304L126.472 5.03353H130.744L136.912 21.0415ZM131.104 15.3295L128.608 8.44153L126.112 15.3295H131.104ZM141.799 21.0415H138.391V5.03353H149.719V8.03353H141.799V11.3935H149.551V14.3935H141.799V21.0415ZM165.085 21.0415H161.149L158.005 15.3535H155.509V21.0415H152.101V5.03353H159.589C161.237 5.03353 162.549 5.51353 163.525 6.47353C164.501 7.43353 164.989 8.67353 164.989 10.1935C164.989 11.5055 164.637 12.5695 163.933 13.3855C163.245 14.2015 162.421 14.7215 161.461 14.9455L165.085 21.0415ZM159.109 12.3535C159.797 12.3535 160.365 12.1615 160.813 11.7775C161.261 11.3775 161.485 10.8415 161.485 10.1695C161.485 9.52953 161.261 9.01753 160.813 8.63353C160.365 8.23353 159.797 8.03353 159.109 8.03353H155.509V12.3535H159.109ZM170.931 21.0415H167.523V5.03353H170.931V21.0415ZM181.885 21.3295C179.437 21.3295 177.397 20.5615 175.765 19.0255C174.149 17.4735 173.341 15.4815 173.341 13.0495C173.341 10.6015 174.149 8.60953 175.765 7.07353C177.397 5.53753 179.437 4.76953 181.885 4.76953C184.877 4.76953 187.101 6.07353 188.557 8.68153L185.629 10.1215C185.277 9.44953 184.757 8.89753 184.069 8.46553C183.397 8.01753 182.669 7.79353 181.885 7.79353C180.429 7.79353 179.221 8.28953 178.261 9.28153C177.317 10.2735 176.845 11.5295 176.845 13.0495C176.845 14.5695 177.317 15.8255 178.261 16.8175C179.221 17.8095 180.429 18.3055 181.885 18.3055C182.669 18.3055 183.397 18.0895 184.069 17.6575C184.757 17.2095 185.277 16.6495 185.629 15.9775L188.557 17.3935C187.069 20.0175 184.845 21.3295 181.885 21.3295ZM205.349 21.0415H201.485L200.477 18.3295H193.613L192.605 21.0415H188.741L194.909 5.03353H199.181L205.349 21.0415ZM199.541 15.3295L197.045 8.44153L194.549 15.3295H199.541Z" fill="black"/>
<path d="M125.392 57.9224H121.984V41.9144H133.312V44.9144H125.392V48.2744H133.144V51.2744H125.392V57.9224ZM139.103 57.9224H135.695V41.9144H139.103V57.9224ZM156.609 57.9224H153.321L145.689 47.4824V57.9224H142.281V41.9144H145.785L153.201 51.9704V41.9144H156.609V57.9224ZM166.893 57.9224H163.461V44.9144H158.781V41.9144H171.549V44.9144H166.893V57.9224ZM185.063 57.9224H173.735V41.9144H185.063V44.9144H177.143V48.2744H184.895V51.2744H177.143V54.9224H185.063V57.9224ZM195.503 58.2104C193.055 58.2104 191.015 57.4424 189.383 55.9064C187.767 54.3544 186.959 52.3624 186.959 49.9304C186.959 47.4824 187.767 45.4904 189.383 43.9544C191.015 42.4184 193.055 41.6504 195.503 41.6504C198.495 41.6504 200.719 42.9544 202.175 45.5624L199.247 47.0024C198.895 46.3304 198.375 45.7784 197.687 45.3464C197.015 44.8984 196.287 44.6744 195.503 44.6744C194.047 44.6744 192.839 45.1704 191.879 46.1624C190.935 47.1544 190.463 48.4104 190.463 49.9304C190.463 51.4504 190.935 52.7064 191.879 53.6984C192.839 54.6904 194.047 55.1864 195.503 55.1864C196.287 55.1864 197.015 54.9704 197.687 54.5384C198.375 54.0904 198.895 53.5304 199.247 52.8584L202.175 54.2744C200.687 56.8984 198.463 58.2104 195.503 58.2104ZM218.603 57.9224H215.171V51.1784H207.611V57.9224H204.203V41.9144H207.611V48.2024H215.171V41.9144H218.603V57.9224Z" fill="black"/>
<path d="M125.392 94.8013H121.984V78.7933H133.312V81.7933H125.392V85.1533H133.144V88.1533H125.392V94.8013ZM143.303 95.0893C140.871 95.0893 138.863 94.3133 137.279 92.7613C135.711 91.2093 134.927 89.2253 134.927 86.8093C134.927 84.3933 135.711 82.4093 137.279 80.8573C138.863 79.3053 140.871 78.5293 143.303 78.5293C145.719 78.5293 147.711 79.3133 149.279 80.8813C150.863 82.4333 151.655 84.4093 151.655 86.8093C151.655 89.2093 150.863 91.1933 149.279 92.7613C147.711 94.3133 145.719 95.0893 143.303 95.0893ZM139.775 90.5773C140.671 91.5693 141.847 92.0653 143.303 92.0653C144.759 92.0653 145.927 91.5693 146.807 90.5773C147.703 89.5853 148.151 88.3293 148.151 86.8093C148.151 85.2893 147.703 84.0333 146.807 83.0413C145.927 82.0493 144.759 81.5533 143.303 81.5533C141.831 81.5533 140.647 82.0493 139.751 83.0413C138.871 84.0333 138.431 85.2893 138.431 86.8093C138.431 88.3293 138.879 89.5853 139.775 90.5773ZM166.647 93.2893C165.431 94.4893 163.639 95.0893 161.271 95.0893C158.903 95.0893 157.103 94.4893 155.871 93.2893C154.655 92.0733 154.047 90.4413 154.047 88.3933V78.7933H157.503V88.2973C157.503 89.4493 157.831 90.3693 158.487 91.0573C159.143 91.7293 160.071 92.0653 161.271 92.0653C162.471 92.0653 163.391 91.7293 164.031 91.0573C164.687 90.3693 165.015 89.4493 165.015 88.2973V78.7933H168.495V88.3933C168.495 90.4413 167.879 92.0733 166.647 93.2893ZM186 94.8013H182.712L175.08 84.3613V94.8013H171.672V78.7933H175.176L182.592 88.8493V78.7933H186V94.8013ZM195.492 94.8013H189.156V78.7933H195.468C197.98 78.7933 200.02 79.5293 201.588 81.0013C203.172 82.4733 203.964 84.4013 203.964 86.7853C203.964 89.2013 203.18 91.1453 201.612 92.6173C200.044 94.0733 198.004 94.8013 195.492 94.8013ZM195.468 91.8013C197.004 91.8013 198.22 91.3213 199.116 90.3613C200.028 89.4013 200.484 88.2093 200.484 86.7853C200.484 85.3293 200.044 84.1373 199.164 83.2093C198.3 82.2653 197.076 81.7933 195.492 81.7933H192.564V91.8013H195.468ZM219.367 94.8013H215.431L212.287 89.1133H209.791V94.8013H206.383V78.7933H213.871C215.519 78.7933 216.831 79.2733 217.807 80.2333C218.783 81.1933 219.271 82.4333 219.271 83.9533C219.271 85.2653 218.919 86.3293 218.215 87.1453C217.527 87.9613 216.703 88.4813 215.743 88.7053L219.367 94.8013ZM213.391 86.1133C214.079 86.1133 214.647 85.9213 215.095 85.5373C215.543 85.1373 215.767 84.6013 215.767 83.9293C215.767 83.2893 215.543 82.7773 215.095 82.3933C214.647 81.9933 214.079 81.7933 213.391 81.7933H209.791V86.1133H213.391ZM229.255 94.8013H225.847V88.2493L219.703 78.7933H223.591L227.551 85.2013L231.511 78.7933H235.375L229.255 88.2493V94.8013Z" fill="black"/>
</svg>
