<svg width="217" height="66" viewBox="0 0 217 66" fill="none" xmlns="http://www.w3.org/2000/svg">
<g clip-path="url(#clip0_316_1581)">
<rect width="217" height="65.8262" fill="white"/>
<path d="M73.9845 54.7854H65.4693C64.5541 54.7854 63.3846 53.5625 62.9639 52.7767C60.8177 48.7776 58.893 42.1274 57.151 37.6564C57.034 37.3589 56.9458 37.0511 56.954 36.7269H41.5649L44.2324 29.135H54.0814L49.3887 15.2848C50.7491 11.7022 51.9125 8.0294 53.3119 4.46119C53.4884 4.01388 53.6341 3.31009 54.0773 3.07617L73.9825 54.7834L73.9845 54.7854Z" fill="black"/>
<path d="M52.4397 0L38.3638 38.5485L29.8752 35.3989L44.2322 0H52.4397Z" fill="black"/>
<path d="M36.4353 13.1338L35.1529 15.8628L2.7866 24.6243L18.7933 62.7871L55.1073 39.6009L55.8993 41.7595L18.4342 65.8259L17.4698 65.4422C12.2457 52.895 6.58872 40.4894 1.46109 27.8991C1.0302 26.8424 -0.720051 23.6681 0.336664 22.8884L36.4394 13.1338H36.4353Z" fill="black"/>
<path d="M25.9726 40.6252H28.4349C28.6709 42.0287 28.4657 46.7049 30.0189 47.1584C31.4676 47.581 33.8498 44.5833 35.1055 43.9225L36.0145 45.5333L18.4813 55.5998C17.0655 52.7518 17.3404 48.8163 18.6905 45.9642C19.2199 44.8479 20.1699 43.9267 20.6357 42.8864C15.9698 41.8399 12.0938 30.5792 16.9403 28.4165C22.3901 25.983 28.954 35.8361 25.9706 40.6252H25.9726Z" fill="black"/>
<path d="M111.534 29.0335C111.4 30.3529 110.766 32.1113 109.857 33.1024C106.892 36.3341 98.9351 35.9812 95.7506 33.1106L97.903 29.7373C98.8509 30.0882 99.6142 30.8063 100.601 31.1428C103.386 32.0949 107.842 31.625 107.017 27.6998C103.646 31.4547 97.3243 29.647 95.8819 24.9872C94.0126 18.9465 98.6683 12.1261 105.173 15.0808C106.084 15.4952 106.55 16.2832 107.43 16.6176V14.773H111.536V29.0335H111.534ZM107.36 22.0715C107.36 20.0135 105.692 18.3453 103.634 18.3453C101.576 18.3453 99.9077 20.0135 99.9077 22.0715C99.9077 24.1295 101.576 25.7977 103.634 25.7977C105.692 25.7977 107.36 24.1295 107.36 22.0715Z" fill="black"/>
<path d="M73.3689 29.5467L82.6249 8.33233C83.1707 7.63059 85.4873 8.18049 86.4065 7.98967L95.9395 29.5487H90.9124C89.9788 28.5125 89.7018 26.1282 88.9426 25.1577C88.6943 24.8417 88.6348 24.8622 88.2573 24.8171C87.4673 24.7248 80.8931 24.7555 80.5484 24.9279L78.398 29.5487H73.3709L73.3689 29.5467ZM87.1164 20.9288L84.5516 14.3669L81.9868 20.9288H87.1164Z" fill="black"/>
<path d="M153.158 10.8483L149.801 13.5383C143.748 8.13164 136.688 15.8015 140.092 22.4312C141.984 26.1143 147.203 27.2161 149.725 23.6233L150.002 23.5864L153.712 26.262C151.523 30.335 145.209 30.692 141.288 29.2372C131.977 25.7819 132.126 11.388 141.585 8.20141C144.286 7.29243 147.981 7.21035 150.595 8.43943C151.172 8.71027 153.56 10.1507 153.156 10.8504L153.158 10.8483Z" fill="black"/>
<path d="M206.125 6.56641V20.5191L207.668 19.0849L211.357 14.7739H216.795L211.044 21.4425L217 29.5474H211.357L206.125 21.9555V29.5474H201.611V6.56641H206.125Z" fill="black"/>
<path d="M159.342 6.56641V16.8258C159.894 16.3826 160.192 15.7178 160.793 15.3012C162.808 13.8998 166.746 14.1563 168.133 16.3477C168.561 17.0248 169.191 19.249 169.191 20.0082V29.5494H164.677V20.6238C164.677 20.5479 164.322 19.563 164.24 19.4193C163.192 17.5768 160.319 18.1287 159.646 20.1067C159.597 20.2504 159.342 21.3768 159.342 21.4445V29.5494H155.033V6.56641H159.342Z" fill="black"/>
<path d="M128.154 23.5968H117.484C118.087 26.8326 122.4 27.5856 124.075 24.8546L124.352 24.8176C124.817 25.1726 127.395 26.7361 127.317 27.1609C125.351 29.5472 122.054 30.2551 119.111 29.6621C111.019 28.0309 110.902 16.4214 119.111 14.6609C125.318 13.3292 128.679 17.7346 128.15 23.5968H128.154ZM123.64 20.519C123.683 16.4829 117.769 16.7989 117.484 20.519H123.64Z" fill="black"/>
<path d="M185.812 23.597H175.142C175.462 26.1659 178.601 27.3334 180.668 25.9423C181.031 25.6981 181.597 24.8219 181.981 24.8568L184.985 27.1734C182.982 29.4017 180.029 30.2225 177.118 29.728C168.674 28.2999 168.371 16.4626 176.775 14.6611C183.003 13.3253 186.257 17.7594 185.814 23.597H185.812ZM181.298 20.5192C181.259 16.4749 175.353 16.7868 175.142 20.5192H181.298Z" fill="black"/>
<path d="M194.6 14.4184C196.446 14.3363 198.855 14.9478 200.166 16.3349L197.376 19.267C195.525 17.6481 192.107 18.2123 191.448 20.7177C190.389 24.7475 193.931 27.4416 197.376 25.0635L200.162 27.8295C198.453 30.0947 194.553 30.1829 192.014 29.3991C184.039 26.9389 185.366 14.8308 194.6 14.4184Z" fill="black"/>
<path d="M38.0765 39.3981L33.3511 43.6086C32.754 43.8815 30.9011 42.677 30.0989 42.6565L29.8711 36.5234L38.0765 39.3981Z" fill="black"/>
<path d="M173.706 41.0377H174.526L174.528 42.0637C175.595 40.8326 177.711 40.4078 178.53 42.0657C178.899 42.0657 179.207 41.2327 179.808 41.0932C180.577 40.9167 181.774 40.9249 182.33 41.5446C182.463 41.6943 182.939 42.671 182.939 42.7818V47.1934H181.913V42.7818C181.913 41.9549 180.261 41.6143 179.539 42.0493C179.4 42.1334 178.835 42.8947 178.835 42.987V47.1934H177.809V42.7818C177.809 41.7272 175.649 41.4317 174.961 42.6013C174.887 42.7285 174.526 43.7442 174.526 43.8078V47.1934H173.706V41.0377Z" fill="black"/>
<path d="M146.239 46.5531C146.005 46.1468 146.582 45.5764 146.935 45.6051C147.023 45.6133 147.819 46.3664 148.461 46.4895C149.883 46.7644 151.631 45.6626 150.983 44.1667C150.341 42.6832 146.352 43.2516 146.227 40.5062C146.102 37.7608 150.228 36.8908 151.954 38.6739L151.063 39.3756C149.764 37.7362 146.571 38.8688 147.55 41.0294C148.137 42.3262 152.202 41.842 152.179 44.8316C152.165 47.0332 149.629 47.6939 147.84 47.302C147.604 47.2507 146.284 46.629 146.237 46.5469L146.239 46.5531Z" fill="black"/>
<path d="M78.0348 37.804C79.6065 37.5373 81.3424 37.8328 82.393 39.0885L81.4717 39.7697C79.1941 37.1085 75.4063 39.4373 75.4063 42.5767C75.4063 45.24 78.1579 47.4663 80.6981 46.2106C81.4594 45.8351 81.7138 44.7004 82.6002 45.8597C79.2721 49.4361 73.7874 46.584 74.4153 41.7724C74.641 40.0365 76.2804 38.1016 78.0368 37.804H78.0348Z" fill="black"/>
<path d="M160.574 37.3438V41.8579C161.573 40.5939 164.882 40.7765 164.882 42.576V47.1927H164.062V43.1916C164.062 42.0549 162.476 41.4844 161.485 42.0528C161.31 42.1533 160.574 43.0603 160.574 43.1916V47.1927H159.548V37.3438H160.574Z" fill="black"/>
<path d="M89.3736 44.3207H84.4491C84.4594 46.5532 87.1309 47.376 88.4503 45.556L88.873 46.3726C87.1555 48.2275 83.7905 47.4334 83.4416 44.8173C82.7994 40.0098 89.6568 39.5563 89.3736 44.3207ZM88.3477 43.7052C88.4626 41.087 84.5558 41.2676 84.4491 43.7052H88.3477Z" fill="black"/>
<path d="M172.269 44.3205H167.345C167.355 46.5529 170.027 47.3757 171.346 45.5557L171.769 46.3724C170.417 47.9851 167.363 47.5809 166.577 45.6009C164.599 40.6148 172.507 38.9343 172.269 44.3205ZM171.243 43.7049C171.358 41.0867 167.452 41.2673 167.345 43.7049H171.243Z" fill="black"/>
<path d="M190.326 44.32H185.504L185.276 44.7448C185.797 46.8459 188.065 47.1003 189.402 45.5553L189.825 46.3719C188.42 48.0668 185.042 47.5374 184.472 45.3542C183.128 40.2081 190.394 39.2273 190.326 44.3221V44.32ZM189.3 43.7045C189.318 41.1232 185.264 41.152 185.401 43.7045H189.3Z" fill="black"/>
<path d="M130.561 41.0851C135.457 40.0756 136.279 46.6847 132.106 47.3516C127.694 48.0574 127.118 41.7951 130.561 41.0851ZM130.762 41.9038C128.427 42.4373 129.022 47.1813 132.065 46.4959C134.818 45.8742 134.344 41.0851 130.762 41.9038Z" fill="black"/>
<path d="M119.947 47.1909H118.921V46.3722C117.657 47.9399 114.312 47.6198 114.618 45.2622C114.854 43.4442 117.556 43.4052 118.923 43.4996C119.134 41.5483 116.682 41.3944 115.535 42.4388C114.38 41.7206 115.629 41.2159 116.407 41.0866C121.124 40.2987 119.269 44.2773 119.949 47.1909H119.947ZM115.894 46.323C117.101 47.4023 119.69 45.5269 118.834 44.308C118.424 43.7253 114.365 44.4619 115.894 46.323Z" fill="black"/>
<path d="M136.156 41.0368H136.977L136.979 42.0628C137.808 40.965 140.092 40.4746 140.974 41.6565C141.066 41.7796 141.491 42.7194 141.491 42.7809V47.1925H140.67V43.6017C140.67 42.1469 139.386 41.3857 138.05 42.0094C137.785 42.1325 137.182 43.0272 137.182 43.1913V47.1925H136.156V41.0368Z" fill="black"/>
<path d="M102.711 41.8581H101.479V41.0373H102.713C102.559 38.9198 102.981 36.7859 105.585 37.1367V38.1627C103.441 37.3214 103.677 39.5682 103.737 41.0373H105.175V41.856H103.739V47.1909H102.713V41.856L102.711 41.8581Z" fill="black"/>
<path d="M154.079 46.5075C151.841 44.2689 153.739 40.3457 157.348 41.0844C158.142 41.2465 159.076 41.8744 157.982 42.4509C153.008 39.4306 153.176 48.2639 157.481 46.251C157.678 46.1587 157.945 45.7606 158.011 45.7586C158.577 45.7442 158.704 46.6716 157.703 47.0882C156.531 47.5745 155 47.4267 154.079 46.5054V46.5075Z" fill="black"/>
<path d="M121.998 41.8588H120.767V41.0381H122L121.998 39.3945H122.907L123.024 41.0381H124.668V41.8568H123.026V46.0631C123.58 46.6889 124.147 46.611 124.871 46.3709L124.846 47.167C124.077 47.6759 121.998 47.2696 121.998 46.2683V41.8568V41.8588Z" fill="black"/>
<path d="M95.5292 41.8588H94.2981V41.0381H95.5313L95.5292 39.3945H96.4382L96.5552 41.0381H98.4039V41.8568H96.5572V45.8579C96.5572 46.6089 97.8848 46.6623 98.4018 46.3709L98.4142 47.0726C97.8376 47.5446 96.1571 47.4481 95.8349 46.7833C95.8021 46.7156 95.5292 45.5153 95.5292 45.4476V41.8568V41.8588Z" fill="black"/>
<path d="M110.863 41.0867C111.987 40.8795 113.288 40.9903 113.992 41.9608L113.276 42.406C111.538 40.9759 109.193 42.3424 109.519 44.5749C109.788 46.4072 112.063 47.2834 113.276 45.765L113.99 46.477C109.363 50.3201 106.246 41.9382 110.861 41.0867H110.863Z" fill="black"/>
<path d="M90.8098 41.0375H91.6306L91.6326 42.0634C92.4123 41.3863 92.9458 40.8343 94.0928 41.0395V41.8582C92.8596 41.5361 91.6306 42.6072 91.6306 43.8096V47.1951H90.8098V41.0395V41.0375Z" fill="black"/>
<path d="M126.923 47.1927H125.897V41.0371L126.588 41.0638L126.923 41.3449V47.1927Z" fill="black"/>
<path d="M100.454 41.0371V47.1927H99.4277V41.3449L99.7642 41.0638L100.454 41.0371Z" fill="black"/>
<path d="M107.02 41.0371H106.199V47.1927H107.02V41.0371Z" fill="black"/>
<path d="M30.3001 45.5333L30.0764 43.5019C30.1585 43.4096 32.3273 44.1647 32.3273 44.4253C31.7713 45.0141 31.2132 45.7118 30.298 45.5353L30.3001 45.5333Z" fill="black"/>
<path d="M126.381 39.3693C126.78 39.3693 127.103 39.046 127.103 38.6471C127.103 38.2482 126.78 37.9248 126.381 37.9248C125.982 37.9248 125.659 38.2482 125.659 38.6471C125.659 39.046 125.982 39.3693 126.381 39.3693Z" fill="black"/>
<path d="M99.9405 39.38C100.328 39.38 100.642 39.0659 100.642 38.6783C100.642 38.2907 100.328 37.9766 99.9405 37.9766C99.553 37.9766 99.2388 38.2907 99.2388 38.6783C99.2388 39.0659 99.553 39.38 99.9405 39.38Z" fill="black"/>
<path d="M106.615 39.3631C107.006 39.3631 107.323 39.0461 107.323 38.6552C107.323 38.2642 107.006 37.9473 106.615 37.9473C106.224 37.9473 105.907 38.2642 105.907 38.6552C105.907 39.0461 106.224 39.3631 106.615 39.3631Z" fill="black"/>
</g>
<defs>
<clipPath id="clip0_316_1581">
<rect width="217" height="65.8262" fill="white"/>
</clipPath>
</defs>
</svg>
