<svg width="106" height="17" viewBox="0 0 106 17" fill="none" xmlns="http://www.w3.org/2000/svg">
<g clip-path="url(#clip0_3303_26263)">
<path fill-rule="evenodd" clip-rule="evenodd" d="M8.27045 5.47862C10.2361 6.28904 11.5279 8.20918 11.5279 10.3464V10.3516H9.74425V9.57621H8.42973V10.8907H9.24365V12.7864H10.9292C10.4917 13.6195 9.83877 14.3214 9.04236 14.8168V13.2607H7.49154V12.256H5.88821V13.8593H6.8334V15.4697H7.47753C7.11346 15.5554 6.73538 15.6045 6.34505 15.6097V14.3022H5.03053V15.4644C4.83449 15.4172 4.6437 15.3594 4.45641 15.2911H4.62445V13.2747H2.60803V14.1341C1.61558 13.1767 0.997705 11.8324 0.997705 10.3446C0.997705 8.20743 2.28947 6.28729 4.25512 5.47687V0H3.24692V4.8555L3.1734 4.8975C1.213 6.01248 0 8.08491 0 10.3464C0 13.8051 2.80408 16.6092 6.26278 16.6092C9.72149 16.6092 12.5256 13.8051 12.5256 10.3464C12.5256 8.08491 11.3126 6.01248 9.35217 4.8975L9.27865 4.8555V0H8.27045V5.47862ZM6.40456 0.068264H7.25699V0.920689H6.40456V0.068264ZM5.92147 3.08413H6.77389V3.93656H6.08775V4.61745H5.23532V3.76502H5.92147V3.08413ZM5.91621 6.50784H6.76864V7.36026H5.91621V6.50784ZM4.75748 8.547H5.98798V9.77751H4.75748V8.547ZM7.91687 11.5156H8.69053V12.2893H7.91687V11.5156ZM6.98743 9.86152H7.76109V10.6352H6.98743V9.86152ZM2.85134 9.36792H3.77727V10.2939H2.85134V9.36792ZM2.24046 11.4158H3.31168V12.4871H2.24046V11.4158ZM5.1023 10.7472H6.17352V11.8184H5.27558V12.9159H3.93831V11.5786H5.10055V10.7472H5.1023Z" fill="#007BD9"/>
<path d="M20.5393 11.0618L19.3333 13.1184H18.1133L23.5026 3.97282H25.0517L30.4411 13.1184H29.2351L28.0291 11.0618H20.5428H20.5393ZM24.2833 4.73947L21.0609 10.1971H27.5057L24.2833 4.73947ZM31.3705 3.97282H32.468V12.1995H39.7215V13.1184H31.3705V3.97282ZM51.925 10.0466V10.4299C51.925 11.5274 51.8147 12.007 51.4594 12.4183C51.1163 12.8296 50.6647 13.0222 49.828 13.1167C49.3064 13.157 47.7434 13.213 46.5094 13.213C43.2047 13.213 42.396 13.0764 41.7239 12.3763C41.134 11.7724 40.9975 11.046 40.9975 8.55001C40.9975 5.69867 41.19 4.97052 42.1212 4.38065C42.8213 3.94131 43.574 3.87305 47.346 3.87305C49.6355 3.87305 50.4319 3.98332 50.9938 4.39465C51.6116 4.81999 51.8024 5.39586 51.8444 6.84866H50.775V6.61586C50.775 4.99853 50.3917 4.83399 46.5514 4.83399C42.1632 4.83399 42.1352 4.848 42.1352 8.55001C42.1352 10.6347 42.2315 11.2928 42.6148 11.6902C43.0541 12.1435 43.7525 12.252 46.3168 12.252C50.4302 12.252 50.8555 12.1015 50.8555 10.5647V10.0431H51.925V10.0466ZM53.9536 3.97282H55.0511V7.97589H63.6209V3.97282H64.7183V13.1184H63.6209V8.84057H55.0511V13.1184H53.9536V3.97282ZM67.2108 3.97282H76.3162V4.89176H68.3083V7.94963H76.0274V8.81431H68.3083V12.2013H76.3845V13.1202H67.2108V3.97282ZM78.3711 3.97282H80.1408L85.6526 11.8442L91.1785 3.97282H92.8921V13.1184H91.7946V4.87775L86.036 13.1184H85.2273L79.4686 4.87775V13.1184H78.3711V3.97282ZM104.492 3.97282H106.001L100.693 9.27991V13.1202H99.596V9.27991L94.2889 3.97282H95.7837L100.144 8.37497L104.49 3.97282H104.492Z" fill="#111111"/>
</g>
<defs>
<clipPath id="clip0_3303_26263">
<rect width="106" height="16.6092" fill="white"/>
</clipPath>
</defs>
</svg>
