<svg width="342" height="138" viewBox="0 0 342 138" fill="none" xmlns="http://www.w3.org/2000/svg">
<path d="M316.222 96.1685C315.308 96.1685 314.678 95.549 314.678 94.6577V50.3923H299.294C298.379 50.3923 297.749 49.7751 297.749 48.8833V42.777C297.749 41.883 298.379 41.2645 299.294 41.2645H340.244C341.157 41.2645 341.786 41.8835 341.786 42.777V48.8829C341.786 49.7742 341.157 50.3923 340.244 50.3923H324.861V94.6573C324.861 95.549 324.228 96.1685 323.316 96.1685H316.222ZM198.378 74.0685L190.302 51.4229L182.154 74.0685H198.378ZM216.289 94.3801C216.642 95.2745 216.079 96.1685 215.095 96.1685H207.792C206.738 96.1685 206.105 95.6896 205.753 94.7245L201.61 83.0614H178.926L174.777 94.7245C174.428 95.6901 173.793 96.1685 172.742 96.1685H165.861C164.947 96.1685 164.313 95.274 164.665 94.3801L183.699 42.6399C184.051 41.6761 184.683 41.2667 185.734 41.2667H195.147C196.201 41.2667 196.903 41.6761 197.254 42.6399L216.289 94.3801ZM270.847 88.7552C275.341 88.7552 278.362 86.6312 280.821 82.9925L269.445 71.0496C265.088 73.4535 262.277 75.8521 262.277 80.6576C262.278 85.3937 266.209 88.7552 270.847 88.7552ZM274.007 48.5389C270.356 48.5389 268.249 50.8057 268.249 53.8246C268.249 56.1577 269.511 58.2172 272.392 61.2374C277.378 58.4219 279.486 56.7068 279.486 53.6884C279.486 50.872 277.661 48.5389 274.007 48.5389ZM305.125 94.2465C306.037 95.2081 305.476 96.1685 304.35 96.1685H295.429C294.236 96.1685 293.604 95.8926 292.831 94.9995L287.494 89.2371C283.912 93.9043 278.921 97.4033 270.635 97.4033C260.381 97.4033 252.301 91.3647 252.301 81.0037C252.301 73.0401 256.658 68.7841 263.262 65.2166C260.028 61.5796 258.556 57.7361 258.556 54.375C258.556 45.8627 264.666 40.0303 273.866 40.0303C283.278 40.0303 289.038 45.4537 289.038 53.4819C289.038 60.3447 283.982 64.1842 278.642 67.0687L286.51 75.3754L290.935 67.8238C291.496 66.9329 292.128 66.5885 293.251 66.5885H300.062C301.188 66.5885 301.82 67.3454 301.12 68.5113L293.251 81.686L305.125 94.2465ZM235.03 96.1685C235.943 96.1685 236.578 95.549 236.578 94.6577V50.3923H251.958C252.871 50.3923 253.503 49.7751 253.503 48.8833V42.777C253.503 41.883 252.871 41.2645 251.958 41.2645H211.008C210.094 41.2645 209.463 41.8835 209.463 42.777V48.8829C209.463 49.7742 210.094 50.3923 211.008 50.3923H226.388V94.6573C226.388 95.549 227.022 96.1685 227.934 96.1685H235.03Z" fill="black"/>
<path d="M27.1751 122.868C39.0866 131.881 54.0378 137.296 70.2591 137.296C88.0104 137.296 104.193 130.854 116.544 120.279C116.694 120.15 116.62 120.065 116.472 120.15C110.93 123.768 95.1345 131.666 70.2595 131.666C48.6423 131.666 34.9814 126.951 27.2666 122.742C27.119 122.671 27.0643 122.779 27.1751 122.868ZM75.0281 126.377C92.3182 126.377 111.317 121.77 122.681 112.651C125.79 110.166 128.752 106.859 131.405 102.415C132.932 99.8575 134.425 96.8193 135.642 93.8329C135.696 93.6875 135.604 93.6168 135.492 93.7802C124.925 108.98 94.3254 118.461 62.7294 118.461C40.3964 118.461 16.3665 111.481 6.95856 98.1513C6.86596 98.0278 6.77335 98.0805 6.82971 98.2224C15.5939 116.43 42.1822 126.377 75.0281 126.377ZM56.1377 96.1709C20.1782 96.1709 3.22265 79.8003 0.146938 68.6289C0.109004 68.4672 0 68.5028 0 68.6477C0 72.4086 0.385105 77.2625 1.04768 80.4839C1.36376 82.0517 2.66943 84.5127 4.58369 86.4746C13.2911 95.3463 34.9998 107.777 72.5957 107.777C123.819 107.777 135.531 91.0987 137.923 85.614C139.633 81.6915 140.519 74.6029 140.519 68.6482C140.519 67.2073 140.482 66.0563 140.427 64.9264C140.427 64.7432 140.318 64.7279 140.28 64.9067C137.72 78.3273 93.9563 96.1709 56.1377 96.1709ZM6.77335 39.1978C4.71285 43.195 2.42887 49.9383 1.74989 53.4281C1.45226 54.9235 1.57904 55.6418 2.11552 56.7576C6.42547 65.6961 28.2261 79.9976 79.0785 79.9976C110.102 79.9976 134.202 72.5474 138.107 58.9524C138.825 56.4497 138.864 53.8072 137.941 50.2467C136.909 46.2679 134.976 41.6285 133.34 38.3704C133.286 38.2642 133.191 38.2799 133.21 38.4055C133.818 56.237 82.9452 67.7292 57.2773 67.7292C29.4741 67.7292 6.27857 56.9013 6.27857 43.2289C6.27857 41.9153 6.55669 40.6014 6.90387 39.2338C6.93875 39.109 6.82936 39.0882 6.77335 39.1978ZM116.658 17.3046C116.953 17.7569 117.101 18.2395 117.101 18.8891C117.101 26.5165 93.2179 40.0097 55.2007 40.0097C27.2666 40.0097 22.0368 29.8806 22.0368 23.439C22.0368 21.1363 22.9402 18.7803 24.93 16.3874C25.0387 16.2451 24.9464 16.1904 24.821 16.2962C21.1921 19.3023 17.8577 22.6848 14.9326 26.3362C13.5351 28.063 12.6675 29.5927 12.6675 30.5093C12.6675 43.8584 46.9119 53.5375 78.9318 53.5375C113.049 53.5375 128.276 42.6507 128.276 33.0834C128.276 29.6642 126.914 27.6682 123.431 23.7984C121.17 21.2809 119.031 19.2312 116.767 17.2134C116.658 17.1252 116.582 17.1971 116.658 17.3046ZM106.198 9.67889C95.6692 3.50977 83.4417 0 70.2595 0C56.9856 0 44.3899 3.63234 33.8226 9.96479C30.6529 11.8716 28.8689 13.3997 28.8689 15.364C28.8689 21.1544 42.7131 27.3803 67.2749 27.3803C91.5815 27.3803 110.434 20.5608 110.434 13.9966C110.434 12.4298 109.033 11.3336 106.198 9.67889Z" fill="#00A8E0"/>
</svg>
