<svg width="450" height="58" viewBox="0 0 450 58" fill="none" xmlns="http://www.w3.org/2000/svg">
<path d="M409.392 0C406.558 0 404.197 2.38001 404.197 5.23801C404.197 8.16501 406.557 10.481 409.392 10.481C412.293 10.481 414.652 8.02901 414.652 5.23801C414.652 2.31201 412.293 0 409.392 0ZM41.2846 2.46901C30.5616 3.79201 20.2026 5.74701 9.82059 8.75601C8.46859 9.18101 7.6356 10.694 7.9766 12.037C8.7356 15.029 9.11759 16.529 9.89059 19.53C10.2176 20.799 11.4936 21.45 12.7876 21.02C23.3956 17.754 34.0306 15.52 45.0036 13.894C46.2616 13.726 46.9466 12.425 46.4846 11.12C45.5106 8.37001 45.0206 6.999 44.0246 4.265C43.6006 3.103 42.4546 2.34201 41.2846 2.46901ZM260.029 2.787C257.331 2.787 252.207 4.28501 249.845 6.05501V49.748H260.029V2.787ZM374.851 2.787C372.22 2.787 367.025 4.28501 364.663 6.05501V47.778C368.036 49.343 373.636 50.43 379.438 50.43C391.311 50.43 398.595 43.284 398.595 30.897C398.595 22.049 394.479 15.038 384.427 15.038C381.257 15.038 377.752 16.4 374.85 18.918V2.787H374.851ZM84.9646 4.42101C80.0406 4.42101 75.8606 4.96701 70.3286 5.78401V49.748H86.9216C95.9616 49.748 103.921 44.443 103.921 36.48C103.921 30.423 101.292 26.677 95.1526 24.907C99.1326 23.342 101.361 20.483 101.361 16.196C101.361 8.70801 94.0716 4.42101 84.9646 4.42101ZM84.9646 12.998C89.2146 12.998 91.1726 14.97 91.1726 17.76C91.1726 20.686 89.2826 22.391 85.2356 22.391H80.6486V13.339C82.0656 13.134 83.5476 12.998 84.9646 12.998ZM198.035 14.972C187.376 14.972 179.144 21.235 179.144 33.146C179.144 44.171 185.961 50.434 196.349 50.434C199.384 50.434 203.228 49.751 206.939 48.254L205.117 40.089C202.623 40.974 200.597 41.312 198.843 41.312C192.434 41.312 189.869 37.975 189.869 32.531C189.869 27.154 192.636 23.619 199.45 23.619C200.53 23.619 202.418 23.89 203.565 24.231C205.115 22.529 206.533 19.534 206.938 16.131C203.7 15.381 201.003 14.972 198.035 14.972ZM226.503 14.972C216.182 14.972 208.896 21.78 208.896 32.67C208.896 43.424 215.777 50.434 226.503 50.434C237.162 50.434 244.109 43.628 244.109 32.67C244.109 22.052 237.228 14.972 226.503 14.972ZM283.372 14.972C273.051 14.972 265.765 21.78 265.765 32.67C265.765 43.424 272.646 50.434 283.372 50.434C294.031 50.434 300.978 43.628 300.978 32.67C300.978 22.052 294.098 14.972 283.372 14.972ZM160.454 15.038C154.855 15.038 147.976 16.605 143.726 19.464L143.661 49.753H153.845V24.23C155.127 23.89 156.61 23.684 158.161 23.684C162.276 23.684 164.64 25.521 164.64 29.128V49.753H174.758V25.523C174.758 18.921 168.213 15.038 160.454 15.038ZM321.827 15.038C316.497 15.038 310.157 16.605 306.108 19.464L306.043 49.753H316.227V24.23C317.509 23.89 318.991 23.684 320.543 23.684C324.589 23.684 326.887 25.521 326.887 29.128V49.753H336.94V29.604C336.94 27.834 336.669 26.204 336.127 24.707C337.612 24.094 339.431 23.685 341.322 23.685C345.368 23.685 347.661 25.522 347.661 29.129V49.754H357.714V25.524C357.714 18.99 351.984 15.039 344.629 15.039C340.583 15.039 335.791 16.536 332.348 18.783C329.716 16.468 326.076 15.038 321.827 15.038ZM409.457 15.038C407.5 15.038 405.748 15.382 404.332 15.995V49.753H414.52V15.994C413.102 15.382 411.412 15.038 409.457 15.038ZM122.227 15.108C117.775 15.108 113.661 16.199 109.479 17.764L110.287 20.211C111.367 23.205 112.648 24.23 114.267 24.23C114.941 24.23 120.136 23.343 122.092 23.343C125.802 23.343 127.49 24.431 127.693 28.651C116.562 28.991 107.186 31.374 107.186 41.107C107.186 47.573 113.056 50.5 120.14 50.5C128.1 50.5 133.969 49 137.611 46.21V28.311C137.609 18.782 131.941 15.108 122.227 15.108ZM434.622 15.108C430.168 15.108 426.057 16.199 421.874 17.764L422.682 20.211C423.76 23.205 425.043 24.23 426.662 24.23C427.338 24.23 432.529 23.343 434.487 23.343C438.196 23.343 439.884 24.431 440.088 28.651C428.957 28.991 419.576 31.374 419.576 41.107C419.576 47.573 425.446 50.5 432.53 50.5C440.491 50.5 446.359 49 450.001 46.21V28.311C450 18.782 444.336 15.108 434.622 15.108ZM50.2536 19.123C33.4666 21.264 17.1166 25.416 1.6156 32.278C0.484595 32.813 -0.190404 34.235 0.0475962 35.489C0.655596 38.696 0.960595 40.302 1.5806 43.515C1.8456 44.889 3.1286 45.521 4.3946 44.904C20.1396 37.689 36.7766 33.099 53.8456 30.36C54.9306 30.182 55.4836 28.937 55.0686 27.656C54.2086 24.999 53.7746 23.673 52.8886 21.028C52.4766 19.799 51.3586 18.978 50.2536 19.123ZM380.111 23.684C385.307 23.684 388.543 25.928 388.543 32.19C388.543 37.635 385.982 42.265 380.046 42.265C378.429 42.265 376.672 42.126 374.851 41.854V24.772C376.337 24.091 378.022 23.684 380.111 23.684ZM226.503 23.819C231.225 23.819 233.921 27.089 233.921 32.67C233.921 38.523 231.225 41.582 226.503 41.582C221.848 41.582 219.085 38.522 219.085 32.67C219.084 27.089 221.915 23.819 226.503 23.819ZM283.372 23.819C288.094 23.819 290.79 27.089 290.79 32.67C290.79 38.523 288.094 41.582 283.372 41.582C278.717 41.582 275.949 38.522 275.949 32.67C275.949 27.089 278.784 23.819 283.372 23.819ZM80.6476 30.897H86.0436C90.5636 30.897 92.8586 32.397 92.8586 36.004C92.8586 39.339 90.3626 41.107 85.9776 41.107H80.6476V30.897ZM125.735 35.187H127.692V41.041C126.68 41.925 124.521 42.74 121.89 42.74C118.584 42.74 116.966 41.857 116.966 39.407C116.967 36.209 121.148 35.187 125.735 35.187ZM438.13 35.187H440.087V41.041C439.076 41.925 436.916 42.74 434.285 42.74C430.979 42.74 429.361 41.857 429.361 39.407C429.362 36.209 433.542 35.187 438.13 35.187ZM50.0526 37.009C39.5706 39.284 29.3226 42.026 19.1736 45.515C17.8866 45.988 17.1626 47.345 17.5006 48.595C18.3076 51.572 18.7106 53.066 19.5276 56.053C19.9116 57.456 21.4896 58.174 22.9396 57.621C33.0856 53.986 43.3296 50.812 53.8016 48.267C54.8056 48.023 55.3016 46.844 54.9286 45.628C54.1036 42.947 53.6876 41.609 52.8406 38.939C52.4236 37.628 51.2086 36.771 50.0526 37.009Z" fill="black"/>
</svg>
