<svg width="303" height="120" viewBox="0 0 303 120" fill="none" xmlns="http://www.w3.org/2000/svg">
<g clip-path="url(#clip0_316_1715)">
<path d="M179.381 0.0336027L161.711 4.58604C174.871 8.38998 188.06 14.7913 198.781 23.3711C210.039 32.381 223.997 48.8592 214.939 63.9297C207.561 76.1961 188.785 76.6095 176.172 75.6432C176.255 75.1628 176.713 75.1795 177.07 75.0678C185.163 72.5207 191.286 71.0013 194.774 62.2316C203.961 39.1566 174.068 17.7127 156.185 9.72499C155.326 9.33957 152.044 7.82581 151.397 7.83698C150.688 7.85374 145.542 10.2892 144.481 10.7975C126.962 19.1818 99.212 39.8437 108.304 62.4997C111.669 70.8896 118.166 72.7385 125.98 75.0958C126.337 75.2019 126.811 75.1181 126.906 75.6432C113.533 76.7436 92.6875 76.0509 86.6989 61.3491C80.7102 46.6472 94.7079 30.4316 106.049 21.9076C116.408 14.1266 128.687 8.23358 141.099 4.58604L123.697 0.0336027C125.968 0.0894608 128.262 -0.0501845 130.534 0.0224311C133.671 0.11739 137.008 0.307307 140.162 0.569841C143.572 0.854717 148.333 2.08918 151.408 2.11711C153.629 2.13945 157.491 1.08374 159.981 0.832374C166.41 0.190005 172.929 0.0559459 179.387 0.0280169L179.381 0.0336027Z" fill="#396443"/>
<path d="M151.48 70.1242C163.462 70.1242 173.175 60.3984 173.175 48.401C173.175 36.4036 163.462 26.6777 151.48 26.6777C139.499 26.6777 129.786 36.4036 129.786 48.401C129.786 60.3984 139.499 70.1242 151.48 70.1242Z" fill="#923137"/>
<path d="M122.837 94.4894C133.403 93.4114 140.614 98.8631 137.806 110.018C135.864 117.743 128.212 120.48 120.889 119.883C104.481 118.542 107.405 96.0646 122.837 94.495V94.4894ZM124.434 100.377C118.026 101.237 116.38 113.738 123.049 113.956C130.579 114.196 132.526 99.2876 124.434 100.377Z" fill="#62656B"/>
<path d="M82.9984 119.347H74.1633L77.1269 104.466C76.9595 100.713 72.634 100.791 70.3178 102.763C66.8574 105.718 66.7793 115.074 65.3226 119.347H56.7554L61.572 94.9481H69.3355L69.0732 98.4337C75.006 91.9206 86.2132 92.7697 85.9397 103.388C85.8113 108.343 83.4281 114.297 82.9928 119.347H82.9984Z" fill="#62656B"/>
<path d="M111.089 95.7688C111.569 96.3218 109.498 100.88 109.498 101.913C104.302 99.4442 97.5433 100.265 96.7284 106.952C95.9136 113.638 102.544 114.481 107.629 112.644L106.496 119.017C97.8726 121.67 87.5082 118.844 87.804 108.208C88.1333 96.3553 101.272 91.7638 111.089 95.7744V95.7688Z" fill="#62656B"/>
<path d="M23.0224 102.187C22.5313 102.6 23.1731 102.645 23.4019 102.745C26.8232 104.27 28.7264 105.55 28.3469 109.795C27.8111 115.794 22.3973 118.481 17.0002 119.073L0.00537109 119.341L6.70286 86.636C12.5911 87.3677 23.9824 84.7368 28.5255 89.0379C32.5161 92.8194 30.451 99.3884 25.707 101.511C25.0596 101.801 23.134 102.097 23.028 102.181L23.0224 102.187ZM12.8478 99.5057H18.0663C18.1779 99.5057 19.9416 98.7963 20.1704 98.6622C21.6048 97.8132 22.1406 96.0201 21.482 94.4784C20.6504 92.5402 16.1296 92.8195 14.3492 92.7859L12.8478 99.5057ZM10.1744 112.912H15.3929C15.5324 112.912 17.1119 112.347 17.3742 112.213C19.2886 111.253 20.1202 109.203 19.2495 107.169C18.2616 104.868 13.7631 105.522 11.6757 105.382C11.352 106.265 9.90091 112.632 10.1744 112.906V112.912Z" fill="#62656B"/>
<path d="M53.0104 119.346H46.0506C45.9166 119.346 46.151 116.978 46.0506 116.665C41.9763 121.223 30.8752 121.525 30.0157 114.09C28.8994 104.404 40.8824 102.952 47.9259 104.064C47.9705 97.7684 39.2024 100.221 35.6137 101.919L36.5457 95.7519C41.3121 94.0482 49.8793 93.2271 53.8252 96.9584C59.0995 101.941 52.7816 113.135 53.016 119.352L53.0104 119.346ZM46.8543 108.353H42.4339C42.0767 108.353 39.9503 109.203 39.5317 109.471C37.7848 110.599 37.2266 112.861 39.3531 113.85C42.6293 115.38 47.0999 111.906 46.8543 108.353ZM46.1845 116.129V116.397C46.3575 116.308 46.3575 116.218 46.1845 116.129Z" fill="#62656B"/>
<path d="M146.183 119.347C145.983 119.168 148.26 115.369 148.544 114.878C154.036 105.443 159.885 96.2045 165.232 86.6807L176.434 86.6416L181.524 119.352H172.689L171.857 112.409C167.682 112.454 163.374 112.169 159.277 112.554L155.42 119.352H146.183V119.347ZM171.081 106.209L169.608 93.6071L163.05 106.209H171.081Z" fill="#62656B"/>
<path d="M208.297 94.9473L206.974 101.466L194.104 112.911H204.814C204.329 115.012 204.2 117.436 203.341 119.346H182.322L183.65 112.766L196.515 101.114H186.34C186.926 99.1143 186.937 96.7682 187.814 94.9473H208.297Z" fill="#62656B"/>
<path d="M214.191 94.9474C214.459 94.7742 214.866 90.3558 215.531 89.719C215.849 89.4174 223.166 87.4791 223.964 87.4344C224.137 87.4233 224.405 87.3562 224.371 87.5741L222.758 94.9418H228.379L227.575 100.84H221.553L221.207 101.298C220.877 104.203 219.65 107.309 219.348 110.163C219.114 112.425 219.326 114.704 222.222 114.408C222.792 114.347 224.723 113.274 224.617 114.096C224.388 115.827 223.83 117.536 223.785 119.302C220.476 119.961 216.697 120.469 213.639 118.681C207.918 115.324 212.176 105.912 212.846 100.84H208.56L209.363 94.9418H214.18L214.191 94.9474Z" fill="#62656B"/>
<path d="M278.425 95.7686C278.861 96.2769 276.913 100.935 276.835 101.913C272.431 99.8965 266.515 99.7513 264.584 105.058C261.799 112.694 268.904 115.062 274.965 112.638C275.216 112.923 274.111 118.777 273.832 119.011C263.602 122.385 252.551 116.967 255.648 104.952C258.193 95.0759 269.825 92.3668 278.425 95.763V95.7686Z" fill="#62656B"/>
<path d="M292.903 119.347L293.166 116.397C289.627 121.302 278.007 121.464 277.136 114.358C275.908 104.365 287.746 102.991 295.047 104.064C295.08 97.8579 286.29 100.126 282.734 101.919C282.528 101.684 283.398 96.0817 283.678 95.7577C284.012 95.3667 285.134 95.2159 285.676 95.0762C289.002 94.2216 294.483 93.9535 297.72 95.0874C307.934 98.6567 300.215 111.571 300.092 118.9L299.735 119.347H292.909H292.903ZM293.975 108.354H289.555C289.326 108.354 287.127 109.141 286.77 109.326C284.838 110.32 284.319 112.85 286.474 113.856C289.716 115.369 294.187 111.895 293.975 108.359V108.354Z" fill="#62656B"/>
<path d="M252.74 109.694H235.606C236.192 116.313 245.267 113.978 249.525 112.643C249.732 112.861 248.688 118.274 248.342 118.564C247.293 119.458 240.021 120.005 238.419 119.877C221.993 118.558 225.202 95.4667 240.277 94.3998C250.664 93.6625 254.945 99.779 252.74 109.694ZM246.048 104.6C246.461 97.7401 237.241 99.2371 236.142 104.6H246.048Z" fill="#62656B"/>
</g>
<defs>
<clipPath id="clip0_316_1715">
<rect width="303" height="120" fill="white"/>
</clipPath>
</defs>
</svg>
