<svg width="384" height="93" viewBox="0 0 384 93" fill="none" xmlns="http://www.w3.org/2000/svg">
<path fill-rule="evenodd" clip-rule="evenodd" d="M13.8066 0H0V71.754H13.6121V65.9518C18.8625 73.5914 29.7522 74.5584 37.8222 71.4639C46.2812 68.2727 51.6288 59.6661 52.6983 50.9628C53.6706 42.743 52.6011 33.7495 47.4479 26.9803C39.864 16.7297 22.2655 15.3759 13.7093 25.0462C13.8205 20.237 13.8046 15.4593 13.7887 10.6952C13.7768 7.12506 13.7649 3.56253 13.8066 0ZM15.8485 54.5408C11.5704 47.1913 13.1261 35.5869 21.6823 32.2023C27.3216 29.8814 34.6138 32.299 37.2389 38.0045C40.1558 44.2902 39.5725 52.9935 34.0304 57.8287C28.5855 62.3738 19.2515 60.8265 15.8485 54.5408Z" fill="#E86726"/>
<path fill-rule="evenodd" clip-rule="evenodd" d="M89.84 19.6306C82.2561 17.3097 73.5055 17.4064 66.505 21.5646C61.449 24.4657 58.2405 29.6877 57.3654 35.1998C61.5462 36.1668 65.727 37.0372 69.9078 37.9075L69.908 37.9075C70.6858 34.813 72.2415 31.5251 75.5473 30.3646C79.3392 29.0108 84.6869 29.1075 87.312 32.7822C88.6733 34.7163 88.9649 38.1976 86.437 39.1647C83.5145 40.0752 80.388 40.4531 77.2607 40.831C71.7523 41.4968 66.2413 42.1629 61.838 45.7405C55.0319 50.9625 54.7402 62.0834 60.7684 67.9823C68.4496 75.6219 82.645 74.8483 89.3539 66.2417C89.3585 66.3289 89.3631 66.4165 89.3677 66.5042C89.4606 68.2626 89.5576 70.1004 89.7428 71.8505H102.772C101.896 64.3656 101.966 56.8808 102.036 49.3959C102.083 44.406 102.13 39.4161 101.896 34.4262C101.216 27.6569 96.3544 21.6613 89.84 19.6306ZM70.6857 56.8614C70.2968 53.6702 73.0192 51.0592 75.9361 50.479C78.9988 49.8987 82.0615 49.4817 85.1243 49.0647C86.1452 48.9257 87.1661 48.7867 88.187 48.6416C88.187 49.0351 88.1923 49.4322 88.1977 49.8313C88.2321 52.3751 88.2677 55.0045 86.923 57.3449C85.0756 61.4065 80.1169 63.0504 75.9361 62.4702C73.1164 62.1801 70.4912 59.7625 70.6857 56.8614Z" fill="#E86726"/>
<path d="M123.384 25.5299C129.023 17.5035 141.274 16.1496 149.15 21.565C154.498 25.3365 156.637 32.2024 156.734 38.4881C156.734 49.7058 156.734 60.9234 156.734 72.141C152.067 72.141 147.303 72.141 142.636 72.141C142.636 61.8904 142.636 51.7365 142.636 41.486C142.636 38.2947 141.469 34.8134 138.746 32.8793C134.954 30.365 129.218 30.9453 126.301 34.5233C124.259 36.9409 123.676 40.2288 123.773 43.3233C123.773 52.897 123.773 62.4706 123.773 72.141C119.106 72.141 114.342 72.141 109.675 72.141C109.675 54.4442 109.675 36.6508 109.675 18.954C114.342 18.954 118.912 18.954 123.481 18.954C123.481 21.0815 123.481 23.3057 123.384 25.5299Z" fill="#E86726"/>
<path fill-rule="evenodd" clip-rule="evenodd" d="M237.92 24.1762C228.392 15.8597 212.349 16.0531 203.112 24.8531C191.347 35.974 192.028 57.6356 205.154 67.306C212.835 73.1082 223.725 74.0752 232.573 70.4005C238.698 67.8862 243.171 62.3741 245.115 56.185C243.17 55.6048 241.202 55.0246 239.233 54.4444C237.264 53.8641 235.295 53.2839 233.35 52.7037C231.503 57.5389 226.739 60.9235 221.586 60.5367C215.071 60.7301 209.237 55.6048 208.557 49.1257C213.641 49.0461 218.726 49.0812 223.81 49.1163C231.074 49.1665 238.338 49.2167 245.601 48.9323C246.185 40.1323 244.726 30.3652 237.92 24.1762ZM209.01 38.9479C209.628 36.9924 210.236 35.0696 211.668 33.5564C215.752 28.6245 223.919 28.3344 228.586 32.4926C230.725 34.2333 231.406 36.941 231.892 39.4553C224.211 39.552 216.53 39.552 208.849 39.4553C208.903 39.2861 208.956 39.1169 209.01 38.9479Z" fill="#E86726"/>
<path fill-rule="evenodd" clip-rule="evenodd" d="M373.944 24.3692C367.333 18.7604 357.901 17.0197 349.54 18.8571C345.262 19.8241 341.178 21.7582 338.067 24.5626C326.302 34.6198 326.01 55.0242 337.483 65.4682C347.303 74.9451 364.61 74.9451 374.625 65.7583C386.292 55.3143 386.098 34.4264 373.944 24.3692ZM349.053 57.6352C339.719 51.3495 341.567 33.6527 353.332 31.2351C358.971 29.8813 365.291 32.9758 367.527 38.2945C369.958 43.9033 369.472 50.9626 365.388 55.7011C361.402 60.2462 354.012 61.0198 349.053 57.6352Z" fill="#E86726"/>
<path d="M162.373 18.9537C166.943 18.9537 171.415 18.9537 175.985 18.9537C175.985 21.468 175.985 23.9823 175.985 26.4966C179.388 20.1142 187.361 18.1801 194.07 19.1471C194.07 24.079 194.07 29.0109 194.07 33.9428C190.181 33.556 186 33.1692 182.5 35.2966C178.319 37.6175 176.666 42.6461 176.569 47.1912C176.569 55.5077 176.569 63.8242 176.569 72.1407C171.902 72.1407 167.137 72.1407 162.47 72.1407C162.373 54.3472 162.373 36.6505 162.373 18.9537Z" fill="#E86726"/>
<path fill-rule="evenodd" clip-rule="evenodd" d="M287.118 24.8532C280.41 16.8268 267.478 17.2136 259.311 22.7257C245.796 31.6224 244.921 53.7675 257.658 63.8247C265.825 70.3038 279.632 71.3676 286.924 62.9544C286.924 63.0911 286.924 63.2284 286.924 63.3663C286.927 67.5187 286.931 72.1595 284.202 75.6225C280.896 79.8775 274.673 80.7478 269.714 79.5874C265.242 78.6203 262.228 74.6555 261.255 70.4005C259.829 70.7873 258.403 71.1527 256.977 71.518C254.125 72.2486 251.273 72.9793 248.421 73.8819C250.074 82.1984 256.783 88.9676 264.95 91.1918C273.992 93.7061 284.785 92.6423 292.272 86.55C298.008 81.6181 300.633 73.8819 300.633 66.5324V18.9543H287.021C287.021 20.8883 287.021 22.8224 287.118 24.8532ZM264.95 51.4466C260.38 44.3873 263.589 32.6862 272.631 31.3323C276.131 30.5587 280.021 31.429 282.743 33.8466C289.063 39.1653 288.48 50.7697 281.187 55.1214C275.937 58.1192 268.159 56.7653 264.95 51.4466Z" fill="#E86726"/>
<path d="M308.412 18.9541C313.079 18.9541 317.843 18.9541 322.51 18.9541C322.51 36.6508 322.51 54.4443 322.51 72.141C317.843 72.141 313.079 72.141 308.412 72.141C308.412 54.3476 308.412 36.6508 308.412 18.9541Z" fill="#E86726"/>
</svg>
