<svg width="227" height="75" viewBox="0 0 227 75" fill="none" xmlns="http://www.w3.org/2000/svg">
<path d="M155.699 38.1157C155.335 17.7836 171.659 2.52425 190.059 2.15944C208.273 1.79148 224.536 15.7708 224.897 36.0023C225.264 56.9445 210.172 71.7635 190.912 72.1598C172.322 72.5246 156.051 58.6491 155.699 38.1157ZM167.61 37.8704C167.894 53.9096 174.083 69.7319 191.432 69.3859C208.399 69.0369 213.244 51.878 212.983 36.6533C212.722 21.3248 206.506 4.59049 189.727 4.92385C173.232 5.25722 167.343 22.7526 167.61 37.8704Z" fill="#003399"/>
<path d="M10.7906 23.0924C10.7906 19.872 10.7906 12.4216 9.94251 9.69804C8.90664 6.17255 4.96268 6.28577 1.96069 6.28577V3.96165C6.46514 4.05914 10.8815 4.26356 15.3919 4.3642C19.1451 4.26356 22.8044 4.05914 26.5693 3.96165C36.4351 3.65659 49.6843 6.37383 49.6843 19.765C49.6843 28.9326 42.7296 32.8575 35.59 35.1753V35.3766C40.8456 35.8829 45.6377 36.7824 49.3087 39.5028C53.7251 42.7232 56.5422 47.557 56.5422 53.4003C56.5422 60.0456 52.6863 64.9737 47.4277 68.0023C42.3598 70.8139 35.59 70.6126 30.1377 70.6126C26.0118 70.5214 21.9651 70.3139 17.8304 70.2132C12.5777 70.3139 7.2193 70.5214 1.96069 70.6126V68.3042C4.96268 68.3042 8.90664 68.3986 9.94251 64.8825C10.7906 62.1558 10.7906 54.7117 10.7906 51.4787V23.0924ZM20.4656 34.2696H23.4735C27.6052 34.2696 30.9828 34.4645 34.6509 32.1561C38.5949 29.4326 39.443 25.1052 39.443 20.2714C39.443 11.3114 34.9326 6.88331 26.5693 6.88331C25.3486 6.88331 21.7861 6.67889 21.029 7.38965C20.3688 7.99033 20.4656 10.8082 20.4656 11.6102V34.2696ZM20.4656 50.985C20.4656 54.4098 20.4656 60.6463 21.5895 63.6686C23.1917 68.0023 27.8869 67.8985 31.4553 67.8985C40.6666 67.8985 44.7955 62.0584 44.7955 52.4914C44.7955 46.7582 42.9233 41.9212 38.0344 39.1033C33.7148 36.6849 28.1716 36.9899 23.3766 36.9899H20.4656V50.985Z" fill="#003399"/>
<path d="M63.13 23.4974C63.13 20.2707 63.13 12.8234 62.191 10.1093C60.9673 6.67818 57.1172 6.67818 54.1152 6.67818V3.96094H100.806V19.1668H98.6461C96.859 7.38893 91.9731 6.67818 82.0164 6.67818H75.2524C72.3414 6.67818 72.8109 6.37312 72.8109 10.8075V34.6651C85.6816 35.2752 87.5596 29.5357 88.1201 22.2897H90.2887C90.1889 26.8153 90.095 31.451 89.9072 35.9797C90.095 40.109 90.1889 44.3358 90.2887 48.4683H88.1201C86.8025 37.8918 81.8315 37.3918 72.8109 37.3918V53.9091C72.8109 56.9219 72.8109 61.6519 74.5041 64.0736C76.9426 67.5959 82.7647 67.7909 86.5238 67.6997C96.2986 67.4953 102.684 66.1838 103.902 54.2047H106.065L105.225 70.4106H54.1152V68.0959C57.1172 68.0959 60.9673 68.0959 62.191 64.6711C63.13 61.9539 63.13 54.5066 63.13 51.283V23.4974Z" fill="#003399"/>
<path d="M116.476 23.0917C116.476 19.8713 116.476 12.4209 115.543 9.69733C114.322 6.28506 110.466 6.28506 107.464 6.28506V3.96094C111.969 4.05843 116.388 4.26285 120.889 4.36349C125.681 4.26285 130.38 4.05843 135.169 3.96094V6.28506C132.17 6.28506 128.311 6.28506 127.093 9.69733C126.16 12.4209 126.16 19.8713 126.16 23.0917V52.8933C126.16 65.7781 128.038 67.8978 139.967 67.8978C144.38 67.8978 149.454 68.096 153.304 65.3787C158.005 62.2589 158.568 58.4284 159.416 52.7958H161.764L160.916 70.6119C159.317 70.5207 157.623 70.4106 156.039 70.2125C139.87 70.5207 123.621 70.5207 107.464 70.6119V68.3035C110.466 68.3035 114.322 68.3035 115.543 64.8818C116.476 62.1551 116.476 54.711 116.476 51.478V23.0917Z" fill="#003399"/>
</svg>
