<svg width="341" height="94" viewBox="0 0 341 94" fill="none" xmlns="http://www.w3.org/2000/svg">
<path d="M0.0649414 4.5459C6.2166 5.86142 9.95433 9.80808 9.2535 14.4512C9.01992 15.999 7.69614 18.011 6.29448 18.5527C4.73712 19.1718 2.63463 18.5527 0.76577 18.2431C0.454314 18.2431 0.142817 17.1597 0.142817 16.5406C0.142817 12.594 0.142817 8.64731 0.142817 4.5459H0.0649414Z" fill="#BFA970"/>
<path d="M93.6297 93.4553H47.064C61.9369 81.0733 69.9575 65.8287 69.9575 47.0239C69.9575 28.2191 62.326 12.7421 47.1416 0.360352H93.6297V93.3777V93.4553Z" fill="#BFA970"/>
<path d="M203.049 27.9094C205.696 27.9094 208.188 27.7547 210.68 27.9866C211.536 28.0642 212.549 29.1474 213.094 29.9988C216.987 36.2669 220.881 42.6126 224.93 49.2678C227.577 44.9339 229.992 40.9099 232.405 36.8859C233.34 35.3384 234.274 33.7133 235.209 32.1653C237.623 28.0642 241.127 26.5938 245.721 27.9094C246.344 28.0642 246.967 29.3022 246.967 29.9988C247.045 41.7613 246.967 53.4466 246.967 65.4414H236.844V47.5651C236.61 47.488 236.455 47.4104 236.221 47.3332C235.209 48.9583 234.196 50.583 233.262 52.2081C231.705 54.7622 230.147 57.3158 228.59 59.8695C226.565 63.2744 223.061 63.352 220.959 59.947C218.545 56.0774 216.209 52.2081 213.327 47.5651V65.5186H202.971V27.7547L203.049 27.9094Z" fill="black"/>
<path d="M340.058 65.7493H329.857V47.9506C329.623 47.9506 329.39 47.8731 329.156 47.7959C326.664 51.9746 324.173 56.231 321.603 60.3321C319.812 63.2729 316.074 63.2729 314.205 60.3321C311.636 56.231 309.144 52.2066 306.185 47.4088V65.6717H295.906C295.906 64.898 295.672 64.1242 295.672 63.4276C295.672 52.6712 295.672 41.8373 295.672 31.0805C295.672 28.7588 296.296 28.0626 298.787 27.8303C303.303 27.366 306.029 28.8364 308.131 32.9379C311.013 38.5095 314.595 43.6167 318.099 49.3434C321.136 44.3133 323.939 39.5927 326.82 34.8726C327.132 34.3307 327.599 33.7117 327.832 33.0927C329.467 27.7531 333.595 27.2884 338.189 27.985C338.89 28.0626 339.98 28.9911 339.98 29.5329C340.058 41.5274 340.058 53.5222 340.058 65.6717V65.7493Z" fill="black"/>
<path d="M30.4995 93.4571C33.5103 85.3058 34.3928 78.7277 33.1469 73.7238C33.848 73.6462 34.6264 73.4914 35.3275 73.4914C39.688 73.3367 43.1921 71.6344 45.9955 68.3842C46.5407 67.7647 46.5407 66.6043 46.8519 65.6753C45.9175 65.5206 44.9052 65.1339 44.0489 65.3658C40.8559 66.0624 37.7413 67.378 34.4708 67.5328C28.7084 67.9199 22.4789 61.4194 22.8685 55.7703C23.024 52.6748 23.024 49.5794 25.5159 47.1029C26.7618 47.5672 28.0077 48.0314 29.2536 48.4185C32.2126 49.5018 34.938 49.7341 37.5078 47.1805C39.2208 45.5554 41.4791 44.4717 43.5817 43.2337C45.0612 42.3823 49.1101 43.3884 50.356 44.9364C53.315 48.5733 54.9505 52.8296 55.1061 57.4726C55.2621 62.0384 55.1061 66.759 54.4053 71.2473C52.8478 80.3014 46.9299 86.26 39.1428 90.5935C36.4954 92.0639 34.0036 94.0761 30.5775 93.3023L30.4995 93.4571ZM45.2168 59.7167C41.9462 61.4194 39.2208 64.3602 34.6264 62.8122C35.016 64.2054 35.7947 66.3719 36.3399 66.3719C38.7537 66.14 41.2455 65.3658 43.5037 64.4373C45.606 63.586 45.9955 61.8061 45.2168 59.7167ZM37.5858 54.2224C38.9873 48.0314 43.6593 45.942 46.0731 48.8056C46.2291 47.5672 46.4627 45.7873 45.8395 45.323C45.0612 44.7816 43.3477 45.0135 42.2578 45.4778C40.7783 46.0968 39.4544 47.1805 38.2085 48.1862C36.3399 49.6565 36.4954 51.514 37.6633 54.1452L37.5858 54.2224Z" fill="#BFA970"/>
<path d="M290.188 34.4136C287.774 36.6577 285.594 38.6695 283.257 40.7589C279.442 36.8897 275.159 35.4969 270.175 37.122C265.581 38.6695 262.778 43.5449 263.479 48.3431C264.335 53.7598 267.917 57.1648 273.134 57.3971C273.524 57.3971 273.913 57.3971 274.302 57.3971C279.13 57.3196 279.52 56.8553 279.52 52.1347C279.52 45.8666 279.52 46.0213 285.827 45.8666C288.631 45.789 289.565 46.6404 289.409 49.4263C289.176 52.9861 289.409 56.5458 289.331 60.1055C289.331 60.9569 289.02 62.1173 288.397 62.582C279.598 68.3083 264.491 69.082 256.626 59.3318C249.073 49.9682 251.253 32.1695 266.36 28.5322C273.991 26.6747 282.479 26.2105 289.02 32.7885C289.409 33.1752 289.72 33.6394 290.344 34.4136H290.188Z" fill="black"/>
<path d="M55.3434 76.3528C56.1217 70.2391 57.29 64.5128 57.6016 58.7089C57.9128 52.518 55.8881 46.8688 51.9168 41.8387C50.9045 40.5231 50.8269 38.4338 50.2038 36.8086C49.7366 35.5706 48.9578 34.4098 48.0235 32.6299C47.0892 34.1003 46.622 34.7193 46.2324 35.4159C45.3761 36.9634 44.3638 37.2729 42.6507 36.4216C40.6261 35.4159 38.4454 34.7964 35.876 33.8679C38.4454 33.8679 40.6261 34.1774 42.6507 33.7908C43.8966 33.5584 45.6873 32.3976 45.9209 31.3919C46.3104 29.9215 44.9085 28.8378 43.1179 28.9154C42.7283 28.9154 42.2611 28.6059 41.872 28.3736C40.4701 27.2903 39.1466 26.207 37.5111 24.8914C37.3555 19.4743 31.2036 18.7778 28.167 15.2181C31.5931 9.49157 39.2242 7.40216 45.9989 10.4976C53.7079 14.0573 58.0688 20.5577 61.1833 28.0641C64.7655 36.8086 64.4539 45.9403 63.7531 55.0716C63.286 60.953 61.8065 66.6793 58.6915 71.787C57.7572 73.4121 56.5113 74.8825 55.3434 76.43V76.3528Z" fill="#BFA970"/>
<path d="M100.224 65.8308C100.224 61.1102 100.224 56.6991 100.224 52.288C100.224 45.0914 100.224 37.8172 100.224 30.6201C100.224 29.3821 100.068 27.9117 101.937 27.9889C107.855 27.9889 113.773 27.757 119.692 28.1437C124.052 28.4536 128.335 30.0011 129.737 34.7217C130.982 39.1328 130.204 43.3887 126.31 45.7104C128.18 47.9545 130.671 49.812 131.684 52.2109C134.409 59.0208 129.815 65.3661 121.716 65.7532C114.786 66.1403 107.777 65.7532 100.302 65.7532L100.224 65.8308ZM105.052 48.4188V62.7353C110.892 62.4258 116.577 62.4258 122.184 61.884C125.843 61.4969 127.712 59.098 127.79 55.693C127.79 52.1333 126.31 49.7344 122.495 49.3473C116.81 48.7283 110.97 48.7283 104.974 48.4964L105.052 48.4188ZM104.974 44.6271C110.114 44.6271 115.097 44.8591 120.003 44.6271C123.507 44.4724 126.077 41.3769 125.999 38.3586C125.999 35.3407 123.507 32.4 120.159 32.1681C115.175 31.8586 110.114 32.1681 104.974 32.1681V44.7819V44.6271Z" fill="black"/>
<path d="M138.041 65.754C138.041 64.8251 137.885 63.9741 137.885 63.1228C137.885 52.4436 137.885 41.7644 137.885 31.0852C137.885 28.7635 138.508 27.9121 141 27.9121C148.631 28.0669 156.263 27.9121 164.127 27.9121V31.7818H142.558V44.5503C145.984 44.5503 149.566 44.5503 153.07 44.5503C155.328 44.5503 157.509 44.5503 159.767 44.5503C161.324 44.5503 162.414 45.0918 161.947 46.7169C161.713 47.4907 160.545 48.4968 159.767 48.4968C154.394 48.6515 149.098 48.5743 143.726 48.5743C143.336 48.5743 143.025 48.6515 142.48 48.7291V61.9619C149.176 61.9619 155.796 61.9619 162.336 61.9619C165.529 61.9619 165.685 62.1943 164.906 65.6764H138.041V65.754Z" fill="black"/>
<path d="M23.5108 45.0913C16.7362 55.6157 16.8919 59.7169 24.4451 69.9318C26.3918 72.563 28.3384 75.1943 29.8959 78.0574C32.6213 83.1647 31.609 88.5818 27.4041 92.5283C26.7814 93.1477 25.769 93.5344 24.9123 93.5344C20.9411 93.6119 16.9697 93.5344 12.2197 93.5344C18.0599 84.9445 16.3468 76.1999 16.4247 67.6101C16.4247 63.7409 16.6583 59.9492 17.1255 56.1571C17.6706 51.5913 20.5517 48.1867 23.5888 45.0137L23.5108 45.0913Z" fill="#BFA970"/>
<path d="M0.707187 56.1602C4.21129 61.1903 8.02689 66.0656 11.1417 71.328C14.7236 77.2091 14.6458 83.3224 11.1417 89.4362C9.42854 92.3769 7.48181 94.3116 3.74408 93.615C2.65392 93.3826 1.48589 93.615 0.162109 93.615V56.4697C0.317858 56.3925 0.473565 56.2377 0.629314 56.1602H0.707187Z" fill="#BFA970"/>
<path d="M185.965 31.9312V65.6711H181.527V31.9312C177.711 31.9312 174.285 31.9312 170.781 31.9312C169.379 31.9312 168.289 31.9312 168.289 30.0737C168.289 28.062 169.379 27.9844 170.936 27.9844C179.58 27.9844 188.224 27.9844 196.867 27.9844C198.346 27.9844 199.281 28.2167 199.281 29.9966C199.281 31.7764 198.424 32.086 196.945 32.0084C193.441 32.0084 189.937 32.0084 185.965 32.0084V31.9312Z" fill="black"/>
<path d="M0.389373 0.207301C7.08612 0.207301 13.7829 0.207301 20.4796 0.207301C21.4141 0.207301 22.6599 0.981151 23.127 1.83238C25.3853 5.39211 25.3077 9.33877 23.9838 13.2081C23.7502 13.8271 22.8935 14.6784 22.2707 14.7558C19.6231 15.2201 16.8976 15.3748 13.9386 15.6844C13.7829 11.5829 12.4591 8.02325 9.18856 5.77904C6.38529 3.84441 3.11477 2.45147 0 0.826355C0.155749 0.594225 0.233624 0.362054 0.389373 0.129883V0.207301Z" fill="#BFA970"/>
<path d="M9.66018 59.4887C5.53308 53.1434 4.36505 46.3334 4.59867 39.5234C9.5823 40.2196 14.4881 40.9162 18.9266 41.4581C12.8528 45.1725 8.57002 50.8217 9.66018 59.4115V59.4887Z" fill="#BFA970"/>
<path d="M27.2593 0.438612C33.0217 -1.10913 37.3821 1.67676 41.2758 5.08174C37.3045 6.24252 33.2552 7.40329 29.1279 8.64148C28.5832 6.16514 27.882 3.30188 27.2593 0.438612Z" fill="#BFA970"/>
<path d="M4.57031 32.7065C10.2548 27.9083 15.9392 24.0391 21.9352 29.4563C19.054 30.3848 15.5499 31.778 11.8901 32.5518C9.55394 33.0932 7.06213 32.6289 4.57031 32.6289V32.7065Z" fill="#BFA970"/>
</svg>
