<svg width="258" height="80" viewBox="0 0 258 80" fill="none" xmlns="http://www.w3.org/2000/svg">
<g clip-path="url(#clip0_316_1718)">
<path d="M17.6581 4.97461L17.2781 30.6905C19.1897 29.965 20.8788 28.6598 22.8288 27.9919C45.9456 20.061 63.8762 45.6848 53.1854 66.4103C46.3717 79.6234 27.5197 84.061 15.9345 74.4641L14.0151 79.4468H0.191936L0 4.97461H17.6581ZM27.5696 39.6272C13.1476 40.4756 13.4892 65.2817 26.7213 66.7404C37.366 67.9151 40.8324 59.2702 39.9188 50.0879C39.2739 43.5735 34.107 39.2433 27.5696 39.631V39.6272Z" fill="black"/>
<path d="M140.497 79.4472H123.606V49.3128C123.606 48.8829 123.119 46.3301 122.962 45.7351C121.207 39.117 111.046 38.5911 107.925 43.9961C107.691 44.403 106.716 47.1286 106.716 47.3934V79.4472H89.4419V27.2399H103.837L105.756 31.8387C113.227 24.0038 129.38 25.6353 135.883 33.9654C138.048 36.7408 140.497 43.5508 140.497 47.0096V79.4472Z" fill="black"/>
<path d="M162.377 58.7183C164.581 68.3729 177.068 67.4861 184.723 66.2846C186.554 65.9967 192.104 64.2922 193.271 64.4573C193.601 64.5034 194.239 64.7951 194.239 65.0523V77.1444C175.133 82.7913 148.474 81.893 146.642 56.6032C145.249 37.3479 157.994 24.3613 177.437 27.3441C190.25 29.3095 197.01 38.2423 198.028 50.8988C198.212 53.1867 198.592 56.9487 197.118 58.7183H162.377ZM181.571 48.3537C182.112 34.7567 162.37 35.5245 161.994 48.3537H181.571Z" fill="black"/>
<path d="M226.02 27.3509C243.129 25.6081 257.094 33.7271 257.954 52.0035C258.871 71.5121 244.714 81.4738 226.296 79.8269C196.132 77.1283 195.606 30.4526 226.02 27.3547V27.3509ZM229.095 40.0227C213.187 41.3356 215.828 72.3452 234.469 66.5102C245.467 63.0668 245.167 38.6945 229.095 40.0227Z" fill="black"/>
<path d="M79.4614 27.2402H62.168V79.4475H79.4614V27.2402Z" fill="black"/>
<path d="M69.3925 0.0801984C82.6361 -1.47834 86.9355 20.18 69.3042 21.4967C67.669 21.6195 61.0971 21.7155 59.98 21.1973C57.3198 19.965 61.5961 17.6195 61.7228 16.2414C61.788 15.5159 60.7401 14.2491 60.4714 13.4123C58.4522 7.16273 62.9819 0.836437 69.3925 0.0840372V0.0801984ZM63.7228 18.4065C69.0125 19.0169 76.7897 18.8671 78.1371 12.2913C80.0143 3.12818 67.0394 -0.898689 63.3811 7.51206C61.7996 11.1512 63.0663 12.6982 65.1776 15.5888L63.7228 18.4065Z" fill="#EF8933"/>
</g>
<defs>
<clipPath id="clip0_316_1718">
<rect width="258" height="80" fill="white"/>
</clipPath>
</defs>
</svg>
