<svg width="346" height="83" viewBox="0 0 346 83" fill="none" xmlns="http://www.w3.org/2000/svg">
<g clip-path="url(#clip0_316_1811)">
<path d="M0 13.5801C0.848796 7.58318 6.83342 5.43043 12.2829 5.92864L11.6679 27.3454C13.4147 25.6785 14.571 24.9589 16.5392 23.944C19.4608 22.4433 23.4588 22.148 26.7002 22.4617C46.1487 24.3192 46.733 59.858 29.2896 66.0271C22.979 68.2598 16.2255 67.2449 11.6679 62.226V65.8979H0V13.5801ZM18.8765 31.7739C11.1635 32.9917 10.979 43.0296 11.6617 49.0696C12.9042 60.0855 26.3127 60.9651 29.1974 50.023C31.1963 42.4515 29.3388 30.1193 18.8765 31.7739Z" fill="#2364E6"/>
<path d="M170.7 39.8938L184.816 23.0655H172.226L156.572 41.3085L157.181 5.92969H144.904V65.899H157.181L157.107 52.1337L162.698 46.9302L173.456 65.899H186.655L170.7 39.8938Z" fill="#2364E6"/>
<path d="M226.259 29.7499C226.099 29.3993 225.958 29.1287 225.866 28.9626C219.635 18.2174 191.317 20.1364 191.569 35.9068H202.315C203.914 30.8447 207.586 30.0206 212.623 31.14C216.529 32.0134 216.332 36.3681 216.129 39.5787H204.154C197.296 39.8432 192.83 43.6259 191.053 47.3286C183.211 63.671 205.648 73.955 216.437 62.2195L216.738 65.8853H227.791V36.854C227.791 34.3999 227.286 31.9642 226.253 29.7376L226.259 29.7499ZM206.596 58.5659C202.216 58.0493 200.076 53.7253 202.136 49.8074C204.092 46.0862 212.389 46.2953 216.129 46.3076C216.658 53.3379 214.917 59.5439 206.596 58.5598V58.5659Z" fill="#2364E6"/>
<path d="M85.9623 65.8967H74.2944L73.993 62.2309C63.2355 73.991 40.6747 63.6025 48.6091 47.3401C50.5527 43.3606 55.3072 40.2237 61.7101 39.5902H73.6855C73.8823 36.3857 74.0853 32.0248 70.1796 31.1514C65.1422 30.0259 61.4764 30.8562 59.871 35.9182H49.1258C50.2267 24.3242 60.7629 21.5502 70.9115 22.4666C93.829 24.5333 82.1673 50.9505 85.9623 65.9029V65.8967ZM73.6855 46.3129C69.9274 46.2206 61.6793 46.0361 59.6927 49.8126C57.6322 53.7306 59.7665 58.0484 64.1519 58.5712C72.4738 59.5554 74.2206 53.3493 73.6855 46.319V46.3129Z" fill="#2364E6"/>
<path d="M240.689 22.4492L249.294 54.2668L258.495 22.4492H270.163C264.086 37.7399 260.759 55.6322 254.313 70.5969C253.322 72.8911 251.01 77.3872 249.318 79.0848C246.538 81.865 243.414 82.4185 242.227 82.4185H232.711V72.6266C237.614 74.0351 242.546 72.0976 243.697 66.8265L228.412 22.4492H240.695H240.689Z" fill="#2364E6"/>
<path d="M134.466 65.8979H122.798V37.4447C122.798 34.2956 118.887 31.6016 115.793 31.6877C112.699 31.7738 108.061 34.7323 108.061 38.0537V65.8979H96.3936L96.7011 23.0644H107.446L108.068 28.5693L109.162 27.4129C112.447 23.9378 117.115 21.9819 121.876 22.4124C125.394 22.7323 128.746 24.1654 130.936 26.8901C131.053 27.0378 131.182 27.2038 131.323 27.3945C133.396 30.1869 134.46 33.6005 134.46 37.0818V65.904L134.466 65.8979Z" fill="#2364E6"/>
<path d="M320.341 29.6527C319.486 30.932 318.569 33.0848 318.366 36.5415C318.342 36.7875 318.317 37.0274 318.311 37.2796C318.311 37.3841 318.311 37.4887 318.311 37.5933V37.8454C318.292 38.0669 317.837 43.2703 322.641 46.4933C324.56 47.7788 326.879 48.3508 329.136 48.4C332.66 48.48 336.025 47.3114 337.446 45.6753C339.832 42.9259 338.897 38.1161 334.881 32.482L334.782 32.3467C334.635 32.1376 334.481 31.9285 334.327 31.7439C332.525 29.4251 330.784 28.1827 329.604 27.5369L311.465 2.54043C311.256 2.25135 309.368 -0.301193 307.467 0.0247942C306.871 0.129356 306.317 0.584508 305.862 1.34104C304.804 3.10629 304.146 6.93203 305.794 11.9079C307.947 18.4215 313.882 25.6363 320.334 29.6466L320.341 29.6527Z" fill="#FE411A"/>
<path d="M341.247 62.306C341.099 62.1522 340.915 62.0107 340.693 61.8754C341.142 61.8139 341.48 61.654 341.702 61.4018C341.929 61.1496 342.04 60.8359 342.04 60.4546C342.04 60.1532 341.966 59.8826 341.819 59.6489C341.671 59.4151 341.474 59.2491 341.222 59.163C340.976 59.0707 340.576 59.0215 340.035 59.0215H337.864V64.1266H338.897V61.9923H339.106C339.34 61.9923 339.518 62.0107 339.623 62.0476C339.734 62.0845 339.832 62.1583 339.937 62.2629C340.035 62.3675 340.213 62.6135 340.484 63.0133L341.228 64.1266H342.464L341.837 63.1302C341.591 62.7304 341.394 62.4536 341.253 62.2998L341.247 62.306ZM339.66 61.1804H338.897V59.8826H339.703C340.121 59.8826 340.373 59.8826 340.453 59.901C340.619 59.9318 340.748 59.9933 340.841 60.104C340.933 60.2086 340.982 60.35 340.982 60.5223C340.982 60.676 340.945 60.8052 340.878 60.9036C340.81 61.0082 340.712 61.0758 340.589 61.1189C340.466 61.1619 340.158 61.1804 339.66 61.1804Z" fill="#FE411A"/>
<path d="M324.88 54.6675L318.213 44.9678L308.827 31.9776C304.693 26.079 297.928 22.5547 290.731 22.5547C278.553 22.5547 268.644 32.4635 268.644 44.6418C268.644 56.8202 278.553 66.729 290.731 66.729H297.14C297.946 66.729 298.629 66.0524 298.666 65.2159V56.9186C298.598 56.1436 297.94 55.5224 297.153 55.5163H290.737C284.74 55.5163 279.863 50.6388 279.863 44.6418C279.863 38.6449 284.74 33.7674 290.737 33.7674C294.286 33.7674 297.626 35.5204 299.68 38.4542L312.431 56.9371L314.848 60.4614C317.702 64.3917 322.309 66.7351 327.156 66.7351H330.305C330.865 66.7351 331.369 66.483 331.707 66.0893C331.726 66.0709 331.738 66.0524 331.756 66.0278C331.763 66.0217 331.769 66.0094 331.781 65.9971C332.353 65.2221 331.381 64.0227 330.348 62.4112C329.308 60.7874 324.88 54.6613 324.88 54.6613V54.6675Z" fill="#FE411A"/>
<path d="M339.857 56.0703C336.941 56.0703 334.573 58.4383 334.573 61.3538C334.573 64.2692 336.941 66.6372 339.857 66.6372C342.772 66.6372 345.14 64.2692 345.14 61.3538C345.14 58.4383 342.772 56.0703 339.857 56.0703ZM339.857 65.5116C337.562 65.5116 335.699 63.648 335.699 61.3538C335.699 59.0595 337.562 57.1959 339.857 57.1959C342.151 57.1959 344.015 59.0595 344.015 61.3538C344.015 63.648 342.151 65.5116 339.857 65.5116Z" fill="#FE411A"/>
</g>
<defs>
<clipPath id="clip0_316_1811">
<rect width="345.14" height="82.4193" fill="white"/>
</clipPath>
</defs>
</svg>
