<svg width="174" height="174" viewBox="0 0 174 174" fill="none" xmlns="http://www.w3.org/2000/svg">
<g clip-path="url(#clip0_316_6585)">
<path d="M86.7166 173.299C134.525 173.299 173.281 134.543 173.281 86.7352C173.281 38.927 134.525 0.170898 86.7166 0.170898C38.9085 0.170898 0.152344 38.927 0.152344 86.7352C0.152344 134.543 38.9085 173.299 86.7166 173.299Z" fill="#0054A4"/>
<path d="M131.977 130.845C156.942 105.879 156.942 65.4022 131.977 40.4367C107.011 15.4713 66.5345 15.4713 41.5691 40.4367C16.6037 65.4022 16.6037 105.879 41.5691 130.845C66.5345 155.81 107.012 155.81 131.977 130.845Z" fill="white"/>
<path d="M49.9242 40.4834H79.6926V68.6975L122.43 106.654L125.025 112.781L125.962 112.469L127.211 112.052L127.523 112.573L127.308 113.086L127.725 114.856L124.095 117.965L125.858 121.385L123.575 126.673C123.575 126.673 124.304 127.707 125.858 127.089C125.858 126.985 125.962 131.343 125.962 131.343L106.567 134.764C106.567 134.764 105.429 135.694 104.909 135.492L104.389 132.273L99.6215 127.402L99.5174 126.576L98.8998 125.951L96.5059 127.506C96.5059 127.506 95.9924 129.06 95.3679 127.402C95.4719 127.297 94.5421 122.426 94.5421 122.426C94.5421 122.426 94.7503 121.184 93.3972 121.802C93.2931 121.802 91.1142 122.628 91.1142 122.628L88.4219 121.899C88.4219 121.899 86.243 122.732 86.5553 119.616L82.0935 117.645L78.4644 119.304C78.4644 119.304 77.2223 119.928 77.2223 118.79C77.3264 118.686 76.9101 115.987 76.9101 115.987C76.9101 115.987 76.1815 115.05 76.5978 114.12C76.5978 114.224 75.661 112.878 75.661 112.878L73.6904 111.012L74.3079 109.658C74.3079 109.658 74.5161 108.93 73.3781 108.52C73.4822 108.52 70.9911 108.52 70.6858 107.487L66.4321 98.1536C66.4321 98.1536 65.3982 96.4882 68.8192 97.7373C68.7151 97.7373 69.3396 97.8413 68.2987 96.176C68.2987 96.0719 69.0273 94.2053 66.9526 94.4135C67.0567 94.5175 65.1901 94.3163 65.1901 94.3163C65.1901 94.3163 64.4684 93.6918 63.6357 93.7959C62.803 93.9 62.3867 93.3796 62.4908 92.3456C62.5949 91.3117 63.1084 89.1259 61.2418 87.1622C61.2418 87.0581 61.8663 86.5377 61.8663 86.5377L65.7035 88.6124L67.2648 91.2007C67.2648 91.2007 68.611 92.5469 67.7853 90.4721C67.8893 90.4721 66.335 87.981 66.335 87.981L65.3011 85.6009C65.3011 85.6009 63.6427 83.9425 68.2016 83.2139C68.3057 83.318 71.4144 82.4853 68.9302 82.2841C69.0343 82.3812 66.2378 81.7636 66.2378 81.7636C66.2378 81.7636 64.059 83.318 64.2602 81.6595C64.2602 81.5555 65.0929 79.6889 65.0929 79.6889L60.527 80.6256L61.7691 85.2887L58.9727 83.7343V80.3134L52.6443 74.5054C52.6443 74.5054 51.4994 73.6727 53.1647 72.3266C53.1647 72.4306 54.4068 71.5008 52.7484 70.8763C52.8525 70.8763 51.2981 71.0845 51.6035 69.4261C51.6035 69.322 51.8116 65.5888 51.8116 65.5888L47.7662 61.7515L47.4539 60.5025C47.4539 60.5025 46.8294 58.6359 47.7662 57.4909C48.7029 56.3529 48.1825 56.0407 48.1825 56.0407L50.0491 55.7284C50.0491 55.7284 50.7777 54.6945 50.8818 53.5496C50.9859 52.4046 51.5063 52.4046 51.5063 52.4046C51.5063 52.4046 50.4655 51.3707 50.8818 50.1217C51.2981 48.8796 51.9157 47.1102 51.9157 47.1102L50.0491 45.1395C50.0491 45.1395 48.9111 44.4109 50.4655 43.5851C52.0267 42.7594 50.3614 43.2729 50.3614 42.232C50.3406 41.212 49.9242 40.4834 49.9242 40.4834Z" fill="white"/>
<path d="M49.9242 40.4834H79.6926V68.6975L122.43 106.654L125.025 112.781L125.962 112.469L127.211 112.052L127.523 112.573L127.308 113.086L127.725 114.856L124.095 117.965L125.858 121.385L123.575 126.673C123.575 126.673 124.304 127.707 125.858 127.089C125.858 126.985 125.962 131.343 125.962 131.343L106.567 134.764C106.567 134.764 105.429 135.694 104.909 135.492L104.389 132.273L99.6215 127.402L99.5174 126.576L98.8998 125.951L96.5059 127.506C96.5059 127.506 95.9924 129.06 95.3679 127.402C95.4719 127.297 94.5421 122.426 94.5421 122.426C94.5421 122.426 94.7503 121.184 93.3972 121.802C93.2931 121.802 91.1142 122.628 91.1142 122.628L88.4219 121.899C88.4219 121.899 86.243 122.732 86.5553 119.616L82.0935 117.645L78.4644 119.304C78.4644 119.304 77.2223 119.928 77.2223 118.79C77.3264 118.686 76.9101 115.987 76.9101 115.987C76.9101 115.987 76.1815 115.05 76.5978 114.12C76.5978 114.224 75.661 112.878 75.661 112.878L73.6904 111.012L74.3079 109.658C74.3079 109.658 74.5161 108.93 73.3781 108.52C73.4822 108.52 70.9911 108.52 70.6858 107.487L66.4321 98.1536C66.4321 98.1536 65.3982 96.4882 68.8192 97.7373C68.7151 97.7373 69.3396 97.8413 68.2987 96.176C68.2987 96.0719 69.0273 94.2053 66.9526 94.4135C67.0567 94.5175 65.1901 94.3163 65.1901 94.3163C65.1901 94.3163 64.4684 93.6918 63.6357 93.7959C62.803 93.9 62.3867 93.3796 62.4908 92.3456C62.5949 91.3117 63.1084 89.1259 61.2418 87.1622C61.2418 87.0581 61.8663 86.5377 61.8663 86.5377L65.7035 88.6124L67.2648 91.2007C67.2648 91.2007 68.611 92.5469 67.7853 90.4721C67.8893 90.4721 66.335 87.981 66.335 87.981L65.3011 85.6009C65.3011 85.6009 63.6427 83.9425 68.2016 83.2139C68.3057 83.318 71.4144 82.4853 68.9302 82.2841C69.0343 82.3812 66.2378 81.7636 66.2378 81.7636C66.2378 81.7636 64.059 83.318 64.2602 81.6595C64.2602 81.5555 65.0929 79.6889 65.0929 79.6889L60.527 80.6256L61.7691 85.2887L58.9727 83.7343V80.3134L52.6443 74.5054C52.6443 74.5054 51.4994 73.6727 53.1647 72.3266C53.1647 72.4306 54.4068 71.5008 52.7484 70.8763C52.8525 70.8763 51.2981 71.0845 51.6035 69.4261C51.6035 69.322 51.8116 65.5888 51.8116 65.5888L47.7662 61.7515L47.4539 60.5025C47.4539 60.5025 46.8294 58.6359 47.7662 57.4909C48.7029 56.3529 48.1825 56.0407 48.1825 56.0407L50.0491 55.7284C50.0491 55.7284 50.7777 54.6945 50.8818 53.5496C50.9859 52.4046 51.5063 52.4046 51.5063 52.4046C51.5063 52.4046 50.4655 51.3707 50.8818 50.1217C51.2981 48.8796 51.9157 47.1102 51.9157 47.1102L50.0491 45.1395C50.0491 45.1395 48.9111 44.4109 50.4655 43.5851C52.0267 42.7594 50.3614 43.2729 50.3614 42.232C50.3406 41.212 49.9242 40.4834 49.9242 40.4834Z" fill="#FFD456" stroke="#ADB8DD" stroke-width="0.448538"/>
<path d="M44.4677 101.383C44.3219 101.071 44.1485 100.793 43.9403 100.557C43.7321 100.328 43.4962 100.141 43.2395 100.016C42.9827 99.8842 42.6913 99.8009 42.379 99.7593C42.1639 99.7316 41.6851 99.7246 41.3243 99.7246H39.2148L37.6535 109.439H40.4292C41.0884 109.439 41.5672 109.391 41.9002 109.294C42.4623 109.12 42.9341 108.836 43.3088 108.454C43.7738 107.975 44.1623 107.33 44.4677 106.532C44.766 105.741 44.9187 104.825 44.9187 103.798C44.9187 103.333 44.884 102.889 44.8077 102.472C44.7244 102.056 44.6134 101.702 44.4677 101.383ZM42.9966 103.735C42.9966 104.485 42.8994 105.13 42.719 105.671C42.5317 106.213 42.3027 106.65 42.0321 106.969C41.8586 107.17 41.6643 107.316 41.47 107.385C41.3173 107.441 40.9982 107.503 40.3736 107.503H39.8949L40.8247 101.695H41.4839C42.0113 101.695 42.2264 101.765 42.2888 101.792C42.4831 101.876 42.6496 102.07 42.7884 102.354C42.9203 102.646 42.9966 103.111 42.9966 103.735ZM55.0011 102.375C55.0011 101.792 54.897 101.286 54.7027 100.87C54.5015 100.439 54.217 100.134 53.8631 99.9605C53.53 99.8009 53.079 99.7177 52.4961 99.7177H49.1446L47.5902 109.439H49.5054L50.123 105.595H50.5254C50.8863 105.595 51.0459 105.664 51.1083 105.72C51.2401 105.845 51.4553 106.143 51.6912 106.83C52.0798 107.989 52.3088 108.759 52.4267 109.266L52.4684 109.439H54.5154L54.4321 109.148C54.0227 107.795 53.6619 106.775 53.3288 106.046C53.2178 105.81 53.1067 105.595 52.9818 105.415C53.5994 105.248 54.0851 104.922 54.4182 104.45C54.8068 103.902 55.0011 103.208 55.0011 102.375ZM53.1137 102.403C53.1137 102.653 53.0512 102.889 52.9194 103.118C52.7945 103.333 52.6349 103.493 52.4128 103.597C52.2532 103.673 51.8716 103.763 50.9348 103.763H50.4144L50.7475 101.723H52.1769C52.7112 101.723 52.8569 101.799 52.8778 101.82C53.0374 101.938 53.1137 102.132 53.1137 102.403ZM59.3657 109.439H57.4436L58.998 99.7246H60.9131L59.3657 109.439ZM67.0056 109.439H65.0835L63.7581 99.7246H65.6594L65.6872 99.9189L66.4852 106.102L69.1567 99.7177H71.0927L67.0056 109.439ZM73.903 99.7177H75.8182L74.2638 109.432H72.3486L73.903 99.7177ZM83.798 99.7177H85.616L84.0617 109.432H82.3408L80.6616 103.971L79.7873 109.432H77.9692L79.5236 99.7177H81.2375L82.9237 105.158L83.798 99.7177ZM90.5428 103.361C90.3276 104.006 90.2166 104.721 90.2166 105.484C90.2166 106.22 90.3415 106.754 90.5844 107.087C90.8134 107.399 91.1464 107.552 91.5975 107.552C91.9028 107.552 92.1942 107.496 92.4926 107.392C92.7841 107.288 93.02 107.177 93.2143 107.052L93.3808 106.025H91.5558L91.882 104.034H95.5111L94.8102 108.357L94.7478 108.412C94.3523 108.745 93.8665 109.023 93.3114 109.252C92.7355 109.481 92.1457 109.592 91.5558 109.592C90.6121 109.592 89.8766 109.307 89.3701 108.745C88.69 107.996 88.35 106.9 88.35 105.505C88.35 104.575 88.4957 103.68 88.7733 102.833C89.1133 101.799 89.606 100.988 90.2444 100.419C90.8966 99.8356 91.6669 99.5373 92.5412 99.5373C93.4224 99.5373 94.1372 99.8148 94.6715 100.356C95.1988 100.89 95.5527 101.661 95.7193 102.653L95.754 102.882L93.9637 103.152L93.9151 102.951C93.8041 102.466 93.6306 102.112 93.3947 101.876C93.1726 101.654 92.8951 101.543 92.5481 101.543C92.1179 101.543 91.7432 101.681 91.3893 101.973C91.0424 102.271 90.7509 102.736 90.5428 103.361ZM59.7266 118.994C59.5253 119.653 59.4212 120.32 59.4212 120.972C59.4212 121.673 59.5462 122.207 59.789 122.568C60.247 123.248 60.9409 123.234 61.503 122.665C61.7875 122.374 62.0026 121.929 62.1483 121.347L62.1969 121.138L64.119 121.513L64.0565 121.742C63.7581 122.825 63.3071 123.664 62.7034 124.233C62.0858 124.823 61.3503 125.121 60.5246 125.121C59.5808 125.121 58.8384 124.747 58.3041 124.004C57.7836 123.269 57.5269 122.249 57.5269 120.896C57.5269 119.82 57.7004 118.821 58.0334 117.919C58.3735 117.017 58.8522 116.309 59.4698 115.816C60.0874 115.324 60.7744 115.074 61.5099 115.074C62.3426 115.074 63.0226 115.372 63.543 115.948C64.0496 116.524 64.348 117.301 64.4382 118.273L64.459 118.488L62.6271 118.724L62.5924 118.502C62.523 118.009 62.3911 117.655 62.1969 117.44C62.0164 117.246 61.7875 117.155 61.4821 117.155C61.1282 117.155 60.8091 117.294 60.5037 117.579C60.1845 117.884 59.9278 118.356 59.7266 118.994ZM72.6817 115.247H74.5969L73.0356 124.962H71.1204L71.7866 120.812H69.4828L68.8167 124.962H66.9015L68.4559 115.247H70.371L69.802 118.828H72.1058L72.6817 115.247ZM80.051 115.24L75.839 124.955H77.8513L78.7048 122.908H81.1751L81.411 124.955H83.2498L82.0355 115.24H80.051ZM80.9461 120.923H79.5444L80.6477 118.3L80.9461 120.923ZM91.882 115.24H93.7L92.1457 124.955H90.4317L88.7455 119.487L87.8712 124.955H86.0601L87.6145 115.24H89.3284L91.0215 120.68L91.882 115.24ZM98.6267 118.883C98.4116 119.536 98.3075 120.25 98.3075 121.014C98.3075 121.742 98.4324 122.283 98.6753 122.609C98.9043 122.929 99.2373 123.081 99.6884 123.081C99.9798 123.081 100.278 123.026 100.577 122.922C100.854 122.825 101.097 122.714 101.305 122.582L101.465 121.548H99.6398L99.9659 119.563H103.595L102.908 123.886L102.846 123.942C102.457 124.268 101.971 124.552 101.402 124.781C100.819 125.017 100.243 125.128 99.6467 125.128C98.71 125.128 97.9744 124.844 97.461 124.275C96.7809 123.525 96.4409 122.436 96.4409 121.041C96.4409 120.118 96.5866 119.223 96.8711 118.377C97.2042 117.35 97.7038 116.538 98.3353 115.962C98.9806 115.379 99.7578 115.081 100.632 115.081C101.513 115.081 102.228 115.358 102.769 115.899C103.304 116.427 103.657 117.197 103.817 118.196L103.852 118.425L102.062 118.689L102.013 118.488C101.895 117.995 101.722 117.641 101.493 117.412C101.27 117.19 100.993 117.079 100.646 117.079C100.216 117.079 99.841 117.218 99.4871 117.509C99.1263 117.794 98.8418 118.259 98.6267 118.883ZM107.994 115.24H113.705L113.379 117.239H109.59L109.313 118.904H112.997L112.671 120.896H108.98L108.64 122.97H112.755L112.428 124.962H106.44L107.994 115.24ZM116.182 122.755H118.007L117.674 124.955H115.849L116.182 122.755ZM121.706 122.755H123.531L123.198 124.955H121.366L121.706 122.755ZM129.047 122.755L128.707 124.955H126.882L127.222 122.755H129.047ZM141.274 57.126L121.012 87.1511H97.6969L110.416 57.126H121.338L116.439 73.1274L128.749 57.126H141.274ZM67.9007 68.1313C67.7203 68.4158 62.3634 77.9083 59.56 82.8906C59.5045 83.0293 57.6934 86.9082 51.0181 87.0331C48.4576 87.0748 44.8701 87.0956 41.241 87.0956C34.0244 87.0956 26.5928 87.0331 26.4817 87.0331L25.8711 87.0262L43.0243 57.2439H63.883C65.5276 57.2439 67.6995 58.1738 68.8514 60.2555C70.0588 62.4274 69.7188 65.2238 67.9007 68.1313ZM56.0142 64.5924C55.9726 64.516 55.8477 64.294 55.2648 64.294H51.8577L42.6427 81.0656C43.4615 81.1003 45.002 81.1558 46.2094 81.1558C47.0767 81.1558 47.7429 80.3717 48.5409 79.1018C50.3381 76.243 52.2741 72.6555 52.2879 72.6208C52.3018 72.6 53.759 69.8383 55.2717 67.3055C55.9795 66.112 56.2709 65.0503 56.0142 64.5924ZM95.7262 57.126L88.6623 65.0365L88.919 57.126H77.4003L60.2401 87.1511H72.8483L77.0255 79.2337L76.8174 87.3107L84.7834 79.9207L81.0363 87.1511H94.2968L107.37 57.126H95.7262Z" fill="#0054A4"/>
<path d="M17.359 97.8003L17.9072 100.382C18.0251 100.964 18.0807 101.416 18.0529 101.742C18.0182 102.179 17.8794 102.574 17.6296 102.928C17.3798 103.289 17.0537 103.587 16.6373 103.837C16.221 104.087 15.6867 104.281 15.0344 104.42C14.4585 104.545 13.945 104.573 13.5009 104.524C12.9527 104.455 12.4878 104.295 12.1062 104.038C11.8147 103.844 11.558 103.553 11.3359 103.164C11.1694 102.873 11.0306 102.463 10.9196 101.943L10.3506 99.2783L17.359 97.8003ZM16.4777 99.4587L11.8286 100.444L12.0576 101.506C12.1409 101.901 12.2241 102.186 12.3074 102.352C12.4115 102.567 12.5503 102.741 12.7168 102.866C12.8833 102.984 13.1401 103.06 13.4731 103.095C13.8062 103.123 14.2434 103.081 14.7916 102.963C15.3328 102.845 15.7422 102.713 16.0128 102.554C16.2834 102.394 16.4777 102.214 16.6096 102.005C16.7345 101.804 16.7969 101.554 16.7969 101.277C16.7969 101.069 16.7345 100.68 16.6165 100.097L16.4777 99.4587ZM14.0491 112.948L15.194 112.567L13.9381 108.778L15.8047 108.16L16.9288 111.567L18.0737 111.186L16.9427 107.779L18.4484 107.279L19.6558 110.943L20.8008 110.561L19.1354 105.53L12.3351 107.779L14.0491 112.948ZM15.0552 115.488L21.5779 112.532L22.5355 114.641C22.8963 115.439 23.1045 115.981 23.1461 116.251C23.2155 116.667 23.1461 117.077 22.931 117.479C22.7159 117.882 22.3482 118.201 21.8277 118.43C21.4322 118.617 21.0644 118.694 20.7244 118.673C20.3844 118.652 20.086 118.562 19.8293 118.409C19.5656 118.257 19.3644 118.076 19.2117 117.868C19.0035 117.583 18.7676 117.139 18.497 116.543L18.1084 115.689L15.6451 116.806L15.0552 115.488ZM21.0783 114.343L19.2117 115.189L19.5378 115.911C19.7738 116.432 19.9681 116.765 20.1138 116.91C20.2595 117.056 20.433 117.146 20.6273 117.174C20.8146 117.209 21.0089 117.181 21.2032 117.091C21.4391 116.987 21.6057 116.827 21.7028 116.612C21.793 116.404 21.8069 116.182 21.7514 115.946C21.7098 115.772 21.5779 115.453 21.3698 114.981L21.0783 114.343ZM21.4253 127.763L20.6481 126.417L21.7445 125.064L20.3081 122.58L18.608 122.892L17.8308 121.553L25.4013 120.338L26.1785 121.684L21.4253 127.763ZM22.5494 124.051L24.3535 121.851L21.571 122.357L22.5494 124.051ZM22.7229 129.664L28.4822 125.404L30.2933 127.846C30.7444 128.464 31.0289 128.95 31.133 129.31C31.237 129.664 31.2162 130.025 31.0774 130.386C30.9387 130.747 30.6958 131.059 30.3558 131.309C29.9256 131.628 29.4745 131.767 29.0027 131.718C28.5308 131.67 28.0728 131.42 27.6287 130.969C27.6704 131.33 27.6565 131.656 27.6079 131.947C27.5594 132.239 27.4067 132.69 27.1708 133.3L26.5671 134.834L25.5332 133.446L26.1716 131.677C26.3936 131.045 26.5254 130.636 26.5601 130.441C26.5948 130.24 26.5879 130.074 26.5393 129.914C26.4907 129.761 26.3728 129.553 26.1716 129.283L25.9981 129.047L23.5972 130.823L22.7229 129.664ZM26.9071 128.367L27.5524 129.234C27.9618 129.789 28.2463 130.122 28.399 130.226C28.5516 130.33 28.7112 130.379 28.8847 130.372C29.0582 130.365 29.2317 130.303 29.4051 130.171C29.5994 130.025 29.7174 129.859 29.759 129.671C29.8007 129.484 29.766 129.276 29.6619 129.061C29.6064 128.963 29.3982 128.672 29.0512 128.2L28.3782 127.291L26.9071 128.367ZM30.1199 138.81L34.5123 134.785L35.9417 136.34L36.8299 135.528L32.9926 131.344L32.1044 132.155L33.5408 133.717L29.1484 137.741L30.1199 138.81ZM34.2902 142.98L37.9956 138.734L35.3658 143.917L36.4066 144.826L41.1807 141.502L37.4822 145.756L38.4952 146.644L43.1999 141.239L41.5554 139.809L37.385 142.654L39.6194 138.116L37.9748 136.687L33.2771 142.092L34.2902 142.98ZM45.3718 151.494L46.0518 150.502L42.7558 148.24L43.8591 146.623L46.8221 148.649L47.5021 147.657L44.5391 145.631L45.4343 144.326L48.6123 146.498L49.2924 145.506L44.9208 142.515L40.8753 148.427L45.3718 151.494ZM48.9107 153.555L51.1243 149.42L51.4712 154.929L52.7549 155.616L56.1342 149.302L54.9477 148.663L52.6855 152.896L52.3455 147.282L51.0965 146.616L47.7241 152.938L48.9107 153.555ZM58.327 158.01L60.5613 152.494L62.5251 153.285L62.9761 152.168L57.7163 150.037L57.2653 151.154L59.229 151.945L56.9947 157.469L58.327 158.01ZM66.9661 157.261C67.1257 156.546 67.3685 155.97 67.6946 155.533C67.9375 155.207 68.222 154.936 68.562 154.714C68.902 154.492 69.249 154.353 69.6098 154.291C70.0886 154.208 70.609 154.221 71.178 154.353C72.205 154.582 72.9544 155.089 73.4263 155.873C73.9051 156.657 74.0092 157.615 73.7455 158.767C73.4887 159.898 72.9822 160.716 72.2258 161.216C71.4625 161.716 70.5743 161.847 69.5474 161.618C68.5135 161.383 67.7571 160.876 67.2852 160.099C66.8203 159.322 66.7162 158.378 66.9661 157.261ZM68.4302 157.538C68.2498 158.336 68.2983 158.982 68.569 159.474C68.8396 159.967 69.2629 160.279 69.8249 160.404C70.387 160.529 70.8935 160.432 71.3515 160.099C71.8026 159.78 72.1217 159.204 72.3091 158.385C72.4965 157.573 72.4548 156.935 72.1911 156.463C71.9275 155.984 71.5042 155.679 70.9282 155.547C70.3454 155.415 69.8319 155.512 69.3808 155.831C68.9229 156.164 68.6106 156.726 68.4302 157.538ZM77.0138 162.777L77.3538 159.759L80.3306 160.092L80.4694 158.898L77.4925 158.558L77.6799 156.858L81.1355 157.254L81.2743 156.053L76.3823 155.498L75.5774 162.618L77.0138 162.777ZM88.5395 163.388L88.2619 157.746L89.962 163.312L91.3498 163.242L92.4808 157.538L92.7723 163.166L94.1184 163.103L93.7646 155.949L91.5718 156.06L90.5448 161.001L89.0113 156.185L86.8325 156.296L87.2002 163.45L88.5395 163.388ZM96.1932 159.322C96.0683 158.593 96.0683 157.975 96.1932 157.441C96.2904 157.053 96.4569 156.692 96.6789 156.359C96.9079 156.019 97.1716 155.755 97.4769 155.561C97.8863 155.297 98.3721 155.11 98.948 155.013C99.9889 154.832 100.877 155.006 101.613 155.547C102.348 156.088 102.813 156.928 103.021 158.086C103.222 159.224 103.07 160.175 102.57 160.931C102.064 161.688 101.293 162.153 100.259 162.333C99.2117 162.521 98.3235 162.347 97.5879 161.813C96.8594 161.278 96.3875 160.446 96.1932 159.322ZM97.6504 159.009C97.7961 159.821 98.0806 160.397 98.5247 160.744C98.9619 161.091 99.4754 161.216 100.037 161.119C100.606 161.022 101.037 160.73 101.335 160.251C101.626 159.78 101.696 159.127 101.557 158.302C101.411 157.483 101.127 156.907 100.704 156.567C100.273 156.227 99.7737 156.109 99.1839 156.213C98.5941 156.317 98.157 156.602 97.8655 157.073C97.581 157.552 97.5116 158.198 97.6504 159.009ZM109.141 160.085L107.469 154.367L109.502 153.777L109.169 152.619L103.715 154.208L104.055 155.366L106.088 154.777L107.754 160.494L109.141 160.085ZM111.688 155.602C111.41 154.922 111.279 154.312 111.286 153.77C111.299 153.368 111.376 152.979 111.522 152.598C111.674 152.223 111.875 151.911 112.125 151.654C112.465 151.307 112.902 151.023 113.444 150.801C114.422 150.398 115.324 150.384 116.164 150.752C116.996 151.12 117.642 151.848 118.086 152.924C118.53 153.999 118.585 154.957 118.252 155.804C117.919 156.65 117.267 157.275 116.302 157.677C115.317 158.08 114.408 158.1 113.582 157.74C112.757 157.379 112.125 156.664 111.688 155.602ZM113.041 154.992C113.36 155.748 113.763 156.255 114.269 156.497C114.783 156.747 115.303 156.761 115.831 156.532C116.365 156.317 116.726 155.942 116.906 155.415C117.087 154.888 117.024 154.235 116.698 153.465C116.386 152.702 115.983 152.195 115.491 151.959C115.005 151.716 114.484 151.71 113.929 151.939C113.374 152.168 113.006 152.542 112.833 153.063C112.66 153.576 112.729 154.228 113.041 154.992ZM121.854 155.026L118.363 148.767L121.021 147.289C121.687 146.922 122.208 146.707 122.575 146.644C122.936 146.589 123.29 146.651 123.637 146.838C123.984 147.026 124.255 147.303 124.463 147.671C124.726 148.143 124.803 148.608 124.692 149.066C124.588 149.524 124.282 149.954 123.776 150.336C124.137 150.343 124.463 150.391 124.747 150.481C125.032 150.572 125.462 150.78 126.031 151.099L127.474 151.897L125.962 152.737L124.289 151.883C123.693 151.585 123.304 151.397 123.11 151.342C122.922 151.279 122.749 151.265 122.582 151.293C122.423 151.321 122.201 151.418 121.909 151.578L121.652 151.716L123.11 154.326L121.854 155.026ZM121.097 150.71L122.034 150.19C122.638 149.857 123.006 149.614 123.13 149.482C123.255 149.343 123.318 149.191 123.339 149.017C123.353 148.844 123.311 148.663 123.207 148.476C123.089 148.261 122.936 148.122 122.756 148.06C122.568 147.997 122.367 147.997 122.138 148.08C122.034 148.129 121.715 148.289 121.201 148.58L120.216 149.128L121.097 150.71ZM135.35 146.207L132.908 139.011L131.707 139.962L133.622 145.201L128.911 142.168L127.676 143.14L134.129 147.171L135.35 146.207ZM142.886 139.33L142.046 138.47L139.187 141.259L137.82 139.858L140.388 137.346L139.541 136.485L136.974 138.99L135.871 137.859L138.625 135.167L137.786 134.306L133.99 138.012L139 143.14L142.886 139.33ZM145.661 136.194L143.233 134.202L145.044 132.003L147.466 134.001L148.382 132.884L142.851 128.332L141.935 129.449L144.114 131.232L142.31 133.432L140.131 131.649L139.215 132.766L144.752 137.318L145.661 136.194ZM150.845 129.38L144.954 125.3L144.135 126.486L150.026 130.566L150.845 129.38ZM152.413 121.795C152.809 122.163 153.045 122.531 153.114 122.892C153.19 123.26 153.128 123.607 152.934 123.94C152.67 124.391 152.288 124.661 151.796 124.751C151.296 124.842 150.651 124.661 149.86 124.203C149.117 123.773 148.666 123.322 148.5 122.843C148.34 122.357 148.389 121.893 148.652 121.428C148.846 121.095 149.103 120.859 149.429 120.734C149.749 120.609 150.096 120.602 150.456 120.713L150.887 119.304C150.304 119.166 149.797 119.152 149.367 119.283C148.645 119.499 148.062 119.984 147.618 120.748C147.119 121.615 147.001 122.489 147.264 123.35C147.528 124.217 148.18 124.946 149.214 125.549C150.193 126.111 151.116 126.299 151.99 126.091C152.864 125.889 153.537 125.369 154.009 124.543C154.398 123.87 154.55 123.225 154.467 122.6C154.391 121.976 154.058 121.372 153.489 120.789L152.413 121.795ZM158.658 114.815L157.562 114.329L156.105 117.611L150.706 115.217L150.123 116.536L156.618 119.422L158.658 114.815ZM161.247 107.293L160.102 106.918L158.859 110.714L156.993 110.103L158.11 106.696L156.958 106.321L155.848 109.735L154.342 109.25L155.536 105.586L154.391 105.211L152.746 110.249L159.56 112.469L161.247 107.293ZM159.588 104.538C160.393 104.614 161.052 104.455 161.559 104.073C162.072 103.685 162.426 103.046 162.614 102.165C162.745 101.561 162.759 101.034 162.676 100.59C162.593 100.146 162.398 99.7779 162.093 99.4795C161.788 99.1812 161.434 98.9938 161.024 98.9036C160.587 98.8064 160.185 98.8273 159.845 98.9452C159.505 99.0632 159.213 99.2714 158.964 99.5628C158.721 99.8542 158.443 100.326 158.131 100.971C157.819 101.624 157.569 102.019 157.381 102.165C157.236 102.276 157.076 102.318 156.91 102.283C156.729 102.248 156.597 102.137 156.521 101.971C156.396 101.707 156.382 101.367 156.472 100.958C156.556 100.562 156.695 100.278 156.896 100.118C157.097 99.9514 157.381 99.882 157.756 99.8959L157.999 98.4734C157.347 98.3554 156.785 98.4803 156.299 98.8411C155.82 99.202 155.487 99.8195 155.3 100.694C155.182 101.228 155.168 101.714 155.251 102.123C155.334 102.54 155.508 102.88 155.772 103.143C156.042 103.414 156.355 103.58 156.708 103.657C157.264 103.775 157.777 103.657 158.263 103.31C158.603 103.067 158.95 102.581 159.297 101.873C159.567 101.311 159.755 100.958 159.852 100.805C159.991 100.576 160.122 100.437 160.261 100.361C160.4 100.291 160.553 100.271 160.719 100.305C160.983 100.361 161.177 100.52 161.323 100.791C161.469 101.062 161.489 101.429 161.392 101.887C161.302 102.318 161.122 102.637 160.851 102.838C160.58 103.046 160.206 103.15 159.727 103.129L159.588 104.538ZM21.1408 53.1546C22.1747 53.5987 23.1045 53.6751 23.9511 53.3767C24.7907 53.0852 25.5262 52.3913 26.1577 51.3019C26.5879 50.5525 26.8446 49.8655 26.9279 49.241C27.0112 48.6165 26.914 48.0406 26.6365 47.5201C26.3658 46.9997 25.9842 46.5903 25.4846 46.3058C24.9364 45.9936 24.416 45.8409 23.9164 45.8548C23.4098 45.8687 22.938 46.0213 22.4869 46.3058C22.0359 46.5903 21.4738 47.0969 20.7799 47.8255C20.093 48.5541 19.5934 48.9773 19.2811 49.0953C19.0382 49.1855 18.8093 49.1716 18.608 49.0537C18.386 48.9218 18.2611 48.7275 18.2333 48.4708C18.1917 48.0683 18.3166 47.6104 18.608 47.1038C18.8925 46.6111 19.2048 46.2989 19.5378 46.167C19.8709 46.0352 20.2873 46.056 20.773 46.2364L21.7028 44.4531C20.891 44.0229 20.0999 43.9466 19.3089 44.2172C18.5178 44.4878 17.81 45.1678 17.1855 46.2503C16.8039 46.9095 16.5749 47.534 16.5055 48.1169C16.4361 48.6998 16.5194 49.2271 16.7553 49.699C16.9912 50.1709 17.3312 50.5317 17.7684 50.7815C18.4484 51.177 19.184 51.2464 19.9611 50.9897C20.5163 50.8092 21.1755 50.3166 21.9457 49.5186C22.5424 48.8941 22.938 48.5055 23.1253 48.339C23.4029 48.103 23.6457 47.9642 23.8609 47.9295C24.076 47.8949 24.2841 47.9365 24.4854 48.0475C24.8046 48.2349 24.9989 48.5332 25.0682 48.9565C25.1446 49.3798 25.0197 49.8725 24.6935 50.4276C24.3882 50.9619 24.0135 51.3019 23.5694 51.4615C23.1184 51.6211 22.5841 51.5864 21.9596 51.3574L21.1408 53.1546ZM31.5424 42.989L24.9642 37.979L26.7475 35.6336L25.4083 34.6136L20.6203 40.9073L21.9596 41.9273L23.7498 39.575L30.328 44.5849L31.5424 42.989ZM39.7373 33.9752L38.2177 35.5434L35.9903 34.5997L33.2285 37.4655L34.2902 39.6235L32.8122 41.1571L28.3365 31.4494L29.8145 29.9228L39.7373 33.9752ZM34.3318 33.9058L30.7235 32.3306L32.4514 35.8626L34.3318 33.9058ZM43.1166 31.3314L37.8777 24.9336L40.1606 23.067L39.092 21.7625L32.9718 26.7725L34.0404 28.077L36.3233 26.2035L41.5623 32.6013L43.1166 31.3314ZM52.8798 24.7046L51.9916 23.2821L47.28 26.2312L45.8437 23.9344L50.0765 21.2837L49.1883 19.8612L44.9555 22.5119L43.7828 20.6453L48.3348 17.7934L47.4396 16.3639L41.1876 20.2845L46.4682 28.7223L52.8798 24.7046ZM55.7734 17.724C55.4195 16.7733 55.2599 15.9268 55.3016 15.1704C55.3363 14.6153 55.4681 14.081 55.6901 13.5675C55.9122 13.054 56.2106 12.6238 56.5783 12.2769C57.0641 11.8119 57.6886 11.4372 58.4449 11.1527C59.8189 10.6393 61.0748 10.6531 62.2198 11.1944C63.3647 11.7356 64.2182 12.7626 64.7872 14.2822C65.3562 15.788 65.384 17.1203 64.8843 18.2791C64.3847 19.4379 63.4549 20.2706 62.081 20.7841C60.7001 21.3045 59.4372 21.2976 58.2992 20.7633C57.1751 20.2151 56.3285 19.202 55.7734 17.724ZM57.6886 16.926C58.0841 17.9807 58.6253 18.6885 59.3193 19.0493C60.0062 19.4102 60.7348 19.4518 61.4842 19.1673C62.2336 18.8828 62.7471 18.3832 63.0247 17.6615C63.3023 16.9399 63.2398 16.0378 62.8304 14.9623C62.4279 13.8937 61.9006 13.1859 61.2344 12.8389C60.5683 12.492 59.8466 12.4573 59.0695 12.7487C58.2923 13.0402 57.7719 13.5398 57.4943 14.2545C57.2237 14.9623 57.2861 15.8505 57.6886 16.926ZM70.0331 18.1473L69.1102 14.0186L73.1626 13.1095L72.7948 11.465L68.7355 12.374L68.222 10.0772L72.9197 9.02246L72.552 7.37791L65.8974 8.87674L68.0763 18.5914L70.0331 18.1473ZM86.5063 12.492C86.3606 13.2275 86.1039 13.7688 85.7292 14.1226C85.3545 14.4696 84.9034 14.6569 84.3691 14.6778C83.6475 14.6986 83.0507 14.4488 82.5788 13.9353C82.107 13.4149 81.8503 12.5267 81.8156 11.2707C81.7739 10.0841 81.9821 9.22369 82.4192 8.67551C82.8633 8.12733 83.4532 7.84283 84.1887 7.82201C84.723 7.80813 85.181 7.93997 85.5626 8.22447C85.9443 8.50897 86.208 8.91144 86.3398 9.42492L88.3105 8.88368C88.0607 8.09263 87.6998 7.48894 87.2349 7.08648C86.4508 6.39257 85.4516 6.06644 84.2373 6.10113C82.8425 6.14971 81.7323 6.64238 80.9065 7.58608C80.0808 8.52979 79.6922 9.82739 79.7477 11.4858C79.7963 13.054 80.2612 14.2684 81.1425 15.1496C82.0237 16.0239 83.1201 16.4403 84.4454 16.3986C85.5141 16.3639 86.3814 16.0725 87.0615 15.5243C87.7415 14.9761 88.2133 14.1504 88.477 13.054L86.5063 12.492ZM99.2047 17.1481L97.0259 16.9121L96.4083 14.5667L92.4461 14.1296L91.3845 16.2876L89.2681 16.0517L94.2017 6.57993L96.3181 6.81585L99.2047 17.1481ZM95.9573 12.832L94.9928 9.00858L93.258 12.5336L95.9573 12.832ZM107.122 19.1465L107.525 17.5228L102.674 16.3223L104.645 8.36325L102.695 7.88446L100.329 17.4672L107.122 19.1465ZM110.314 20.3192L113.562 10.9099L111.66 10.2576L108.42 19.6669L110.314 20.3192ZM113.978 21.7556L115.706 17.8905L119.501 19.5906L120.188 18.0571L116.393 16.357L117.357 14.2059L121.75 16.1697L122.437 14.6361L116.205 11.8466L112.139 20.9368L113.978 21.7556ZM122.145 20.0833C122.679 19.2228 123.262 18.5844 123.887 18.1612C124.345 17.8489 124.851 17.6338 125.4 17.495C125.948 17.3632 126.468 17.3354 126.968 17.4187C127.634 17.5228 128.307 17.7934 128.994 18.2236C130.236 19.0008 130.992 20.0139 131.256 21.249C131.52 22.4842 131.221 23.7956 130.361 25.1626C129.507 26.5227 128.467 27.3623 127.245 27.6607C126.024 27.9729 124.796 27.7301 123.554 26.9598C122.298 26.1757 121.541 25.1626 121.278 23.9414C121.014 22.7131 121.306 21.4294 122.145 20.0833ZM123.935 21.1241C123.339 22.0817 123.103 22.9421 123.235 23.7124C123.366 24.4826 123.776 25.0794 124.449 25.5026C125.129 25.9329 125.844 26.0369 126.579 25.8149C127.322 25.5998 127.995 25.003 128.612 24.0246C129.216 23.0601 129.459 22.2066 129.334 21.4641C129.209 20.7216 128.793 20.1318 128.092 19.6947C127.391 19.2575 126.676 19.1396 125.941 19.3547C125.212 19.5628 124.546 20.1526 123.935 21.1241ZM128.938 30.3461L135.413 22.7825L138.625 25.5304C139.437 26.2243 139.958 26.7933 140.214 27.2443C140.464 27.6954 140.547 28.1811 140.471 28.7223C140.395 29.2566 140.166 29.7493 139.784 30.1934C139.298 30.7624 138.729 31.0885 138.077 31.1718C137.425 31.2551 136.731 31.0608 135.982 30.5889C136.148 31.0677 136.238 31.5118 136.252 31.9212C136.273 32.3376 136.211 32.9898 136.072 33.8919L135.732 36.161L133.907 34.5997L134.212 32.0114C134.323 31.0816 134.372 30.4848 134.358 30.2073C134.344 29.9297 134.281 29.6938 134.17 29.4995C134.059 29.3052 133.824 29.0624 133.47 28.757L133.157 28.4934L130.458 31.6506L128.938 30.3461ZM134.198 27.2929L135.329 28.2574C136.058 28.8819 136.544 29.2428 136.78 29.3399C137.015 29.4371 137.251 29.444 137.48 29.3885C137.716 29.326 137.924 29.1803 138.126 28.9513C138.341 28.6946 138.445 28.4309 138.445 28.1603C138.445 27.8897 138.334 27.626 138.126 27.3762C138.015 27.2513 137.647 26.9251 137.029 26.3978L135.836 25.3777L134.198 27.2929ZM137.73 38.4231L142.615 34.1417L140.381 41.4346L141.713 42.9543L149.2 36.39L147.965 34.9883L142.969 39.3668L145.28 31.9212L143.989 30.4502L136.502 37.0145L137.73 38.4231ZM144.031 46.2781L152.129 40.484L150.956 38.8464L142.865 44.6405L144.031 46.2781ZM149.658 55.5833L148.569 53.6889L150.096 51.8085L148.111 48.3598L145.745 48.7761L144.683 46.9303L155.244 45.3344L156.306 47.1732L149.658 55.5833ZM151.234 50.4137L153.752 47.3814L149.88 48.0544L151.234 50.4137ZM162.94 95.0247C163.64 95.2329 164.029 95.9545 163.821 96.6623C163.613 97.377 162.891 97.7795 162.19 97.5782C161.496 97.3701 161.122 96.6484 161.33 95.9268C161.538 95.2259 162.246 94.8234 162.94 95.0247ZM162.287 97.266C162.842 97.4256 163.405 97.1411 163.564 96.586C163.731 96.0517 163.405 95.5104 162.856 95.3508C162.301 95.1912 161.739 95.4688 161.573 96.017C161.413 96.5582 161.739 97.0994 162.287 97.266ZM163.155 96.6831L163.071 96.9676L161.836 96.6068C161.85 96.4888 161.878 96.3223 161.933 96.121C162.003 95.8851 162.079 95.788 162.162 95.7255C162.239 95.6631 162.343 95.6423 162.468 95.677C162.62 95.7186 162.683 95.8643 162.69 96.0239L162.704 96.0308C162.78 95.9198 162.891 95.8851 163.071 95.899C163.273 95.9129 163.349 95.9059 163.398 95.899L163.307 96.2043C163.252 96.2321 163.141 96.2182 162.981 96.2182C162.842 96.2043 162.759 96.2598 162.718 96.4194L162.676 96.5513L163.155 96.6831ZM162.461 96.4749L162.502 96.3362C162.544 96.1766 162.53 96.0378 162.398 95.9961C162.287 95.9614 162.183 96.0239 162.135 96.2043C162.114 96.2806 162.107 96.3362 162.1 96.3709L162.461 96.4749Z" fill="#FFD456"/>
<path d="M110.636 58.4979L110.775 58.1787H120.302L120.205 58.4979H110.636ZM118.005 65.6937H107.59L107.367 66.2141H117.845L118.005 65.6937ZM119.858 59.6359H110.157L110.018 59.962H119.761L119.858 59.6359ZM118.99 62.474H108.956L108.79 62.8695H118.872L118.99 62.474ZM119.421 61.0515H109.553L109.401 61.4123H119.31L119.421 61.0515ZM118.567 63.8548H108.367L108.165 64.3336H118.421L118.567 63.8548ZM65.9554 58.4979C65.6917 58.373 65.428 58.255 65.1643 58.1787H43.3272L43.1399 58.4979H65.9554ZM102.191 78.4337L101.684 79.6342H125.256L126.068 78.4337H102.191ZM51.8969 74.8254H63.3116C63.5406 74.423 63.7627 74.0205 63.9917 73.625H52.5631C52.3965 73.9372 52.1606 74.3605 51.8969 74.8254ZM43.2926 78.4337H31.6558L30.9619 79.6342H42.6264L43.2926 78.4337ZM45.9363 73.625H34.4245L33.7306 74.8254H45.2702L45.9363 73.625ZM53.4305 72.0221H64.8937C65.0464 71.7514 65.199 71.4739 65.3448 71.2241H53.8676C53.7011 71.5224 53.5554 71.7861 53.4305 72.0221ZM54.5268 70.0375H66.0178C66.1636 69.7808 66.3023 69.5379 66.4272 69.3158H54.9362C54.7905 69.5656 54.6587 69.8016 54.5268 70.0375ZM139.516 58.4979L139.731 58.1787H128.878L128.636 58.4979H139.516ZM55.8938 67.6782C55.8175 67.8031 55.7412 67.935 55.6718 68.0599H67.142C67.2322 67.9003 67.3016 67.7893 67.3154 67.7615C67.3918 67.6435 67.4403 67.5395 67.5028 67.4215H56.0326C55.984 67.5048 55.9354 67.6019 55.8938 67.6782ZM124.139 64.3336H135.575L135.901 63.8548H124.507L124.139 64.3336ZM122.689 66.221H134.305L134.659 65.7006H123.091L122.689 66.221ZM125.263 62.8695H136.56L136.831 62.474H125.569L125.263 62.8695ZM117.436 67.5395H106.805L106.535 68.1848H117.242L117.436 67.5395ZM121.183 68.1778H132.986L133.417 67.5325H121.676L121.183 68.1778ZM126.387 61.4123H137.552L137.795 61.0515H126.665L126.387 61.4123ZM127.504 59.962H138.531L138.753 59.6359H127.761L127.504 59.962ZM116.312 71.2241H105.251L104.911 72.0221H116.069L116.312 71.2241ZM115.215 74.7977L115.576 73.625H104.231L103.724 74.8254H115.271L115.215 74.7977ZM47.2547 71.2241H35.8123L35.3543 72.0221H46.8176L47.2547 71.2241ZM116.874 69.3852H106.028L105.723 70.0999H116.652L116.874 69.3852ZM116.062 74.8254H128.497L129.309 73.625H116.985L116.062 74.8254ZM118.22 72.029H130.391L130.932 71.231H118.838L118.22 72.029ZM119.698 70.0999H131.682L132.168 69.3852H120.246L119.698 70.0999ZM77.7795 78.4337L77.7448 79.6342H84.0593L85.3569 78.4337H77.7795ZM68.1273 74.8254H98.9088L99.4292 73.625H68.8143L68.1273 74.8254ZM48.3025 69.3228H36.9087L36.4923 70.0444H47.907L48.3025 69.3228ZM87.9451 65.6937H73.3385L73.0401 66.2141H87.9243L87.9451 65.6937ZM71.923 68.1778H101.802L102.08 67.5325H72.2907L71.923 68.1778ZM70.8266 70.0999H100.963L101.275 69.3852H71.236L70.8266 70.0999ZM69.7233 72.029H100.123L100.47 71.231H70.1743L69.7233 72.029ZM86.37 78.4337L85.7524 79.6342H96.8132L97.3406 78.4337H86.37ZM88.0492 62.474H75.1843L74.9553 62.8695H88.0354L88.0492 62.474ZM88.5835 66.221H102.656L102.885 65.7006H89.0484L88.5835 66.221ZM88.1811 58.4979L88.1949 58.1787H77.6407L77.4603 58.4979H88.1811ZM66.0664 78.4337L65.3795 79.6342H76.0308L76.6623 78.4337H66.0664ZM88.1464 59.6359H76.808L76.6207 59.962H88.1325L88.1464 59.6359ZM88.0978 61.0515H75.9962L75.788 61.4123H88.0839L88.0978 61.0515ZM88.0076 63.8548H74.4002L74.1226 64.3336H87.9937L88.0076 63.8548ZM56.7473 65.5618C56.7126 65.7353 56.6987 65.9018 56.6363 66.0823H68.1828C68.2591 65.9088 68.3355 65.7284 68.3979 65.5618H56.7473ZM90.2697 64.3336H103.482L103.69 63.8548H90.6999L90.2697 64.3336ZM68.8351 62.474H40.85L40.621 62.8764H68.8559C68.8559 62.7376 68.849 62.5989 68.8351 62.474ZM68.4604 61.0515H41.6758L41.4676 61.4123H68.5992C68.5506 61.2874 68.509 61.1694 68.4604 61.0515ZM49.3434 67.4215H38.005L37.6373 68.0599H48.9964L49.3434 67.4215ZM50.3704 65.5618H39.0736L38.7752 66.0823H50.0789L50.3704 65.5618ZM51.3071 63.8548H40.059L39.7814 64.3336H51.0434L51.3071 63.8548ZM68.8143 63.8548H56.2685C56.4489 63.9728 56.5738 64.1185 56.6502 64.2504C56.664 64.2781 56.6571 64.3128 56.671 64.3336H68.7588C68.7865 64.1671 68.7935 64.0144 68.8143 63.8548ZM42.3003 59.9551H67.7457C67.6624 59.851 67.5861 59.7261 67.4959 59.6359H42.4876L42.3003 59.9551ZM94.1764 59.962H105.383L105.522 59.6359H94.4609L94.1764 59.962ZM91.5742 62.8695H104.113L104.287 62.474H91.9281L91.5742 62.8695ZM92.8719 61.4123H104.745L104.904 61.0515H93.198L92.8719 61.4123ZM49.8014 78.4337C49.5862 78.7876 49.3711 79.1415 49.156 79.4815C49.1213 79.537 49.0866 79.5786 49.0519 79.6411H60.5985C60.8136 79.2595 61.0356 78.857 61.2785 78.4407H49.8014V78.4337ZM106.021 58.4979L106.16 58.1787H95.7654L95.4809 58.4979H106.021Z" fill="#FFD456"/>
</g>
<defs>
<clipPath id="clip0_316_6585">
<rect width="173.475" height="173.475" fill="white"/>
</clipPath>
</defs>
</svg>
