<svg width="299" height="108" viewBox="0 0 299 108" fill="none" xmlns="http://www.w3.org/2000/svg">
<path d="M202.686 77.5402H202.615C189.896 86.5432 174.891 95.975 158.672 105.907L158.029 106.264C157.959 106.293 157.896 106.337 157.845 106.394C157.795 106.45 157.758 106.518 157.737 106.59C157.717 106.663 157.713 106.74 157.726 106.815C157.739 106.889 157.77 106.96 157.814 107.021C157.859 107.082 157.917 107.133 157.983 107.168C158.05 107.204 158.124 107.224 158.2 107.227C158.276 107.229 158.351 107.215 158.42 107.184C158.49 107.154 158.551 107.108 158.6 107.05L159.1 106.764C172.891 99.6191 188.682 91.1162 204.544 82.3275L204.83 82.1846C203.894 80.7488 203.172 79.1842 202.686 77.5402ZM286.143 9.94609C266.136 -12.1328 137.093 7.73106 82.2889 19.7351L81.0027 20.0209C80.877 20.0533 80.766 20.1276 80.6881 20.2315C80.6101 20.3354 80.5699 20.4627 80.574 20.5925C80.581 20.6571 80.6025 20.7192 80.637 20.7742C80.6715 20.8292 80.718 20.8756 80.773 20.91C80.8281 20.9444 80.8902 20.9659 80.9548 20.9728C81.0193 20.9797 81.0846 20.9718 81.1456 20.9498L82.4318 20.7354C127.876 12.6613 222.407 1.44323 242.7 21.5929C248.916 27.7378 247.487 35.669 240.27 45.0293C244.254 47.632 247.072 51.6794 248.13 56.3188C276.211 37.6697 295.075 19.8065 286.143 9.94609Z" fill="#CC2427"/>
<path d="M95.0071 60.2492C93.4399 60.254 91.9143 60.7542 90.6485 61.6782C89.3514 62.76 88.5096 64.2907 88.2906 65.9654C87.8618 68.1804 88.0762 69.6809 88.9336 70.6812C89.433 71.1666 90.0269 71.5439 90.6784 71.7898C91.3299 72.0357 92.0251 72.1447 92.7206 72.1103C93.8033 72.1322 94.8773 71.9125 95.8645 71.4672C96.8174 71.0265 97.6325 70.3349 98.2225 69.4665C98.8907 68.473 99.3524 67.3552 99.5801 66.1797C99.9373 64.179 99.6515 62.75 98.7226 61.7497C98.2485 61.246 97.6708 60.851 97.0294 60.592C96.388 60.3329 95.698 60.216 95.0071 60.2492ZM72.7854 87.9727L78.7159 54.533H89.4338L88.5764 58.8201C89.7501 57.3521 91.3085 56.2389 93.0779 55.6047C95.2803 54.7051 97.6301 54.2206 100.009 54.1757C102.795 54.1757 104.51 54.3186 106.582 55.3904C108.547 56.3762 110.075 58.0569 110.87 60.1063C111.712 62.2662 111.91 64.6239 111.441 66.8942C111.144 68.8436 110.46 70.7139 109.429 72.395C108.398 74.0761 107.042 75.5341 105.439 76.6832C102.152 79.0412 99.2228 79.6843 95.0071 79.6843C93.7314 79.7077 92.4582 79.5636 91.2201 79.2555C90.3681 79.0702 89.5491 78.757 88.7907 78.3267C88.0498 77.7923 87.3778 77.1683 86.7901 76.4689L84.7894 87.9727H72.7854ZM196.47 79.327H184.037L190.325 44.601L202.4 44.8869L196.47 79.327ZM134.449 54.2471L135.306 49.174L148.025 46.4588L146.667 54.2471H152.955L151.74 59.3203H145.667L142.023 79.327H129.662L133.377 59.3203H128.733L129.662 54.3186H134.449V54.2471ZM35.4157 70.3954C32.0858 71.1404 28.6814 71.5 25.2694 71.4672C19.4817 71.4672 14.8373 68.6091 15.1231 63.2502C15.266 59.749 19.4817 52.3179 30.0567 52.3179C33.4063 52.2405 36.7067 53.1339 39.5599 54.8902L41.0604 46.2445C37.2473 44.73 33.1546 44.0479 29.0564 44.2438C15.1231 44.3867 1.7615 50.6745 0.118093 63.536C-1.52532 76.3974 14.4086 79.8986 21.4824 79.8986C25.5552 79.8986 29.8424 79.6843 33.7723 79.327L35.4157 70.3954ZM170.961 67.8946L168.889 68.4662L164.102 69.3236C162.969 69.4163 161.871 69.7579 160.886 70.324C160.599 70.4858 160.352 70.7119 160.167 70.9845C159.981 71.2572 159.86 71.5691 159.815 71.8959C159.729 72.2131 159.745 72.5491 159.861 72.8567C159.976 73.1643 160.185 73.428 160.458 73.6108C161.101 74.0395 162.101 74.1824 163.53 74.1824C164.593 74.1854 165.651 74.0411 166.674 73.7537C167.614 73.4786 168.489 73.0169 169.246 72.3961C169.747 71.9566 170.118 71.3882 170.318 70.7527C170.619 69.8216 170.835 68.8649 170.961 67.8946ZM184.108 59.6775C184.037 60.8922 183.823 62.0355 183.537 63.8218L181.322 76.326C181.204 76.8289 181.26 77.3569 181.48 77.824C181.701 78.2911 182.073 78.6698 182.536 78.8983V79.327H169.746V76.1116C167.822 77.2566 165.756 78.1454 163.602 78.7554C161.595 79.2691 159.528 79.5094 157.457 79.4699C153.384 79.4699 151.026 79.0412 149.383 77.6121C147.739 76.1831 146.953 75.1827 147.025 73.1821C147.16 71.8129 147.708 70.5171 148.597 69.4665C149.531 68.4454 150.677 67.6406 151.955 67.1086C153.567 66.3879 155.276 65.9065 157.028 65.6796C159.314 65.3223 162.458 64.965 166.674 64.6078C168.089 64.4711 169.481 64.159 170.818 63.6789C171.676 63.3216 172.033 62.9644 172.176 62.2498C172.319 61.5353 172.033 60.2492 170.318 59.8919C165.745 58.963 157.171 60.4635 152.741 61.5353L155.099 55.1046C160.748 54.2061 166.456 53.7285 172.176 53.6755C181.25 53.747 184.18 56.3907 184.108 59.6775ZM111.084 79.327L115.514 54.39H127.732L123.302 79.327H111.084ZM116.229 48.6738C116.586 46.6017 119.801 44.9583 123.445 44.9583C127.089 44.9583 129.662 46.6017 129.304 48.6738C128.947 50.746 125.732 52.3894 122.088 52.3894C118.444 52.3894 115.871 50.6745 116.229 48.6738ZM61.0671 67.8231C60.4009 68.0932 59.7055 68.285 58.995 68.3947L54.2791 69.2522C53.1223 69.3344 51.9988 69.6763 50.9923 70.2525C50.7029 70.4297 50.4566 70.6692 50.2712 70.9534C50.0858 71.2377 49.966 71.5596 49.9205 71.8959C49.847 72.2103 49.8768 72.5399 50.0055 72.836C50.1342 73.1321 50.355 73.3787 50.6351 73.5393C51.5483 74.0498 52.5939 74.2739 53.6361 74.1824C54.7021 74.1613 55.76 73.993 56.78 73.6822C57.7199 73.4071 58.5948 72.9454 59.3523 72.3246C59.8531 71.8851 60.2238 71.3167 60.4241 70.6812C60.7709 69.7632 60.9873 68.8012 61.0671 67.8231ZM74.2144 59.6775C74.143 60.8922 73.9286 61.964 73.6428 63.8218L71.4278 76.2545C71.3099 76.7575 71.3658 77.2855 71.5864 77.7526C71.8069 78.2197 72.1792 78.5983 72.6424 78.8268V79.327H59.8524V76.1831C57.9108 77.2759 55.8487 78.1392 53.7075 78.7554C51.7278 79.2902 49.6847 79.5546 47.634 79.5413C43.4898 79.5413 41.1319 79.1126 39.5599 77.6836C37.988 76.2545 37.0591 75.2542 37.1305 73.1821C37.284 71.839 37.8309 70.5713 38.7025 69.538C39.6326 68.4944 40.7785 67.6655 42.0607 67.1086C43.7065 66.4116 45.4359 65.9313 47.2053 65.6796C49.4204 65.3223 52.5643 64.965 56.78 64.6078C58.2079 64.5648 59.6146 64.2496 60.9242 63.6789C61.8531 63.3216 62.1389 62.9644 62.2818 62.2498C62.4247 61.5353 62.1389 60.2492 60.4241 59.8919C55.8511 59.0345 47.2768 60.4635 42.8467 61.6068L45.2047 55.1046C50.8542 54.209 56.562 53.7314 62.2818 53.6755C71.3563 53.6755 74.2859 56.3193 74.2144 59.6775Z" fill="#013D5B"/>
<path d="M246.201 63.0357L248.987 62.7499C249.916 62.7499 250.702 62.9642 250.774 63.8217C250.845 64.6791 249.845 68.1088 249.63 69.0377L247.701 77.3976C246.987 80.8274 246.129 84.4 245.415 87.2581H250.273L252.989 73.9679C261.42 65.2507 264.635 62.3926 266.565 62.3926C266.777 62.3701 266.991 62.3953 267.192 62.4663C267.393 62.5374 267.575 62.6525 267.726 62.8032C267.877 62.9539 267.992 63.1364 268.063 63.3374C268.134 63.5383 268.159 63.7526 268.137 63.9646C268.208 65.4651 267.208 68.9662 266.922 69.9666L264.064 79.6127C263.492 81.8277 262.992 83.7569 263.063 85.186C263.135 86.615 264.421 88.2584 266.279 88.2584C269.851 88.2584 272.495 84.5429 274.71 80.8988L274.067 79.6841C273.138 81.1132 271.066 84.3285 269.351 84.3285C268.851 84.3285 268.351 83.9713 268.351 83.1138C268.409 81.7774 268.649 80.4551 269.065 79.184L272.209 67.823C272.995 64.6791 273.424 62.6784 273.424 61.6066C273.424 60.5348 272.066 58.5342 270.209 58.5342C266.993 58.5342 262.706 60.8921 253.703 71.2527H253.56L254.703 66.1796C255.347 63.3929 255.918 60.5348 256.49 58.5342C253.104 59.7371 249.643 60.7158 246.129 61.4637L246.201 63.0357ZM294.002 63.3215C293.931 61.3208 292.931 59.9632 290.858 59.9632C285.857 59.9632 280.569 69.7522 279.64 73.6821C287.786 73.6821 294.217 68.8233 294.002 63.3215ZM295.074 78.6838L296.003 79.3269C293.574 84.2571 288.643 88.2584 282.784 88.2584C277.997 88.2584 274.139 85.1145 273.924 79.184C273.495 68.4661 283.57 58.5342 291.716 58.5342C295.217 58.5342 298.504 60.1061 298.647 63.8931C298.933 72.396 287 74.9682 279.14 75.1112C278.883 76.138 278.786 77.1986 278.854 78.2551C278.997 81.8277 281.141 84.7572 285.5 84.7572C289.858 84.7572 293.145 81.6848 295.074 78.6838ZM210.832 71.7529C211.046 79.5412 215.976 85.9005 222.407 85.9005C234.84 85.9005 240.127 70.6096 239.77 60.3919C239.484 52.6036 234.482 46.2443 228.052 46.2443C217.334 46.2443 210.403 61.4637 210.832 71.7529ZM204.258 71.3242C203.758 58.034 214.19 44.458 229.266 44.458C239.413 44.458 245.986 51.246 246.344 61.5352C246.844 75.5399 237.126 88.4013 221.335 88.4013C211.189 88.4013 204.615 81.6848 204.258 71.3242Z" fill="#013D5B"/>
</svg>
