<svg width="333" height="100" viewBox="0 0 333 100" fill="none" xmlns="http://www.w3.org/2000/svg">
<path d="M62.8325 6.09163C57.57 6.06272 52.4329 8.22648 48.4324 11.6846C43.0876 16.2681 38.1221 20.9252 35.9227 27.6369C30.1817 26.247 26.5294 24.9877 22.7086 20.253C19.8511 16.766 17.7319 12.4788 17.5825 7.94425C15.1407 9.14071 12.7682 10.5083 10.6057 12.1851C9.02538 13.435 6.78295 14.6463 5.80665 16.4588C5.04465 17.8487 5.4642 19.7641 5.91447 21.3163C6.4535 23.2623 7.88446 24.7812 9.41495 25.9755C11.7637 27.7702 14.4782 28.9845 17.2274 29.9742C23.3386 32.1158 28.8786 33.3103 35.2971 33.8485C34.4767 37.6802 34.877 41.4517 34.9181 45.3791C35.0047 51.566 36.2882 57.9351 39.6977 63.1301C42.3128 67.1576 46.3912 70.1531 50.9784 71.2984C54.8663 72.2614 59.0768 72.4351 62.8759 70.9917C67.3591 69.3149 71.0347 65.7654 73.3748 61.54C74.6975 59.1115 75.6631 56.405 75.741 53.6007C75.7951 51.6614 76.1174 49.3057 74.7688 47.8824C73.2037 46.2322 69.6061 44.5572 67.4283 44.6283C66.727 48.7893 63.4649 51.6698 60.3693 54.3696C58.3388 56.0753 57.3057 58.0803 54.589 57.8445C52.4458 57.7445 50.9196 58.0608 49.5342 56.3218C47.7179 54.0778 47.2612 51.3206 47.2872 48.4896C47.3932 43.4036 48.0211 38.6695 50.0993 34.0883C50.2075 33.7303 50.6558 33.848 50.9264 33.779C56.2409 33.292 61.5531 32.0668 66.3567 29.6249C69.6212 27.9325 72.693 25.6419 74.7928 22.5218C76.3558 20.2022 77.3211 17.3022 76.8211 14.4712C76.4487 12.1961 75.0634 10.1947 73.2515 8.87589C70.2446 6.69202 66.4433 6.06494 62.8325 6.09163ZM214.955 6.50569C213.726 6.55851 212.512 6.84772 211.406 7.41926C208.93 8.6691 207.07 10.8819 205.605 13.2325C203.492 16.6729 202.089 20.518 200.979 24.4053C199.409 24.1007 197.721 24.2164 196.318 25.0525C194.017 26.3802 192.543 28.7643 191.389 31.126C189.782 34.582 188.865 35.8639 188.17 39.6178C188.088 37.236 188.289 37.2505 187.806 34.8932C187.391 32.6693 186.273 30.5144 184.442 29.1934C181.082 26.7649 176.22 27.2677 173.101 29.8897C171.451 31.2463 170.094 33.6865 169.982 35.8615C172.12 35.4523 174.365 35.1656 176.24 36.5599C178.173 38.0655 177.981 40.4555 178.076 42.7862C178.191 48.9063 177.872 54.8417 177.679 60.9463C177.634 62.9901 177.582 65.1783 178.545 67.0353C179.27 68.4608 180.814 69.188 182.31 69.3703C185.087 69.7239 188.91 68.7532 191.666 68.3885C191.296 67.5256 190.823 66.5399 190.445 65.6815C189.252 63.2396 188.096 61.2287 188.178 58.5C188.28 52.9136 188.473 47.1981 190.832 42.1031C192.48 38.5293 194.495 36.2165 198.143 34.7598C196.664 43.7711 195.829 51.9639 195.786 61.0953C195.788 63.139 196.736 65.374 197.597 67.271C198.152 68.5031 199.405 69.2191 200.673 69.4103C202.559 69.7105 204.484 69.524 206.373 69.3216C207.125 69.2705 207.912 68.9412 208.635 69.3126C211.638 70.2622 214.937 69.0793 217.182 66.9421C219.91 64.3935 221.648 60.9263 222.823 57.3814C224.165 53.1715 224.798 48.6572 224.23 44.2427C223.854 41.5718 222.942 38.7141 220.734 37.0573C218.697 35.5518 215.978 35.8008 213.69 36.4724C210.714 37.3686 209.038 37.9494 207.232 40.4557C207.339 37.618 207.416 37.141 207.663 34.3144C210.917 33.9408 214.593 33.1025 217.426 31.3834C220.818 29.3597 222.999 25.716 224.306 21.8931C225.397 18.7285 225.15 14.8005 223.752 11.7137C222.765 9.5009 220.86 7.74171 218.596 7.01005C217.429 6.63643 216.184 6.45288 214.955 6.50569ZM94.901 6.50591C94.6068 6.51358 94.3134 6.5327 94.0223 6.563C91.8597 6.82542 89.8898 7.99531 88.3442 9.53202C86.0994 11.7359 84.5319 14.5489 83.2612 17.4311C81.3865 21.741 79.6768 25.8074 78.7416 30.4175C77.1635 30.1796 75.1611 30.1403 73.5981 29.8179C73.3708 30.4539 74.2538 31.473 74.795 31.9689C75.8514 33.023 76.2889 33.3881 77.6765 33.6594C76.1784 42.4905 76.7345 51.3189 76.6587 60.2745C76.6869 62.5718 76.4468 65.0494 77.5898 67.131C78.3605 68.5543 79.9492 69.228 81.4602 69.3947C84.1987 69.7039 88.1232 69.0361 90.8378 68.6781C89.3701 66.5276 88.2099 63.9391 87.7488 61.4128C86.9175 56.1377 86.2878 50.9299 86.316 45.5948C86.3506 45.1878 86.2011 44.7006 86.5258 44.3803C87.1752 43.5797 88.0043 42.8502 89.0239 42.639C90.3076 42.4166 91.7473 42.9126 92.4768 44.0601C93.3622 45.4278 91.6935 47.1225 91.7931 48.7215C91.9966 54.6371 92.6024 60.5372 93.2475 66.4483C93.5072 68.6611 94.0744 70.9783 95.5832 72.6617C97.5553 74.8034 100.835 75.3437 103.497 74.4586C105.693 73.6513 108.294 70.9482 110.061 69.396C108.26 69.1714 106.998 68.8541 105.725 67.4642C104.036 65.685 102.624 64.2153 102.462 61.8224C102.213 57.2901 102.705 52.7934 103.038 48.2878C103.229 45.5346 103.411 42.7058 102.703 40.0105C102.272 38.3292 101.811 36.3758 100.227 35.6575C98.3453 34.8169 95.1761 34.2841 93.2495 35.0268C90.405 36.0988 88.7707 36.9433 86.896 39.3629C86.9696 36.7898 87.2466 36.7269 87.4977 34.1672C90.0716 33.8669 92.1088 32.7317 94.4705 31.6242C97.5921 30.1786 100.367 27.8657 102.207 24.8812C104.147 21.7611 105.084 17.8916 104.378 14.2244C103.946 11.8515 102.692 9.59872 100.752 8.19988C99.061 6.96423 96.9602 6.45222 94.901 6.50591ZM321.77 11.9848C317.774 17.331 311.76 20.6959 305.523 22.4817C300.192 24.0339 294.646 24.6522 289.123 24.8635C281.458 25.2037 274.331 24.1758 266.687 23.7599C266.796 21.198 267.014 18.6812 266.133 16.1837C265.618 14.6359 264.14 13.6237 262.592 13.4591C259.934 13.1367 256.572 14.0778 254.059 14.8784C255.526 17.5338 255.773 20.4444 256.042 23.4178C252.225 23.4267 249.028 23.4579 245.274 24.2585C243.852 24.6032 242.352 25.0302 241.278 26.1066C240.501 26.8561 239.706 28.0703 240.05 29.0866C240.577 30.7278 242.693 32.8426 243.789 34.108C247.482 30.7943 251.284 30.821 256.016 30.3852C256.04 42.0673 255.762 51.9374 255.193 63.595C255.154 65.3608 254.591 65.5213 254.847 67.2781C253.851 66.4041 254.4 65.8561 253.809 64.6418C252.541 62.1133 251.739 60.1799 251.609 57.3867C251.431 52.0493 251.739 46.7122 251.678 41.3748C251.698 40.5675 250.638 40.0282 249.881 39.8147C248.326 39.3433 247 39.2578 245.458 39.5913C244.863 37.681 243.661 36.1477 241.932 35.0624C240.475 34.1284 238.646 34.2751 237.046 34.6754C234.318 35.3871 232.065 37.3372 230.389 39.5945C228.099 42.6968 226.193 46.436 225.308 50.1988C224.427 54.084 224.57 58.1017 225.229 62.0513C225.672 64.4998 226.544 67.0508 228.462 68.6921C230.22 70.2199 232.788 70.371 234.892 69.5882C236.862 68.8277 238.375 67.2197 239.615 65.5273C240.715 64.0017 241.65 62.3563 242.464 60.6528C242.581 60.3703 242.672 60.8629 242.91 60.6761C243.211 64.112 243.486 66.8908 244.601 70.1777C245.185 71.8746 246.179 73.5978 247.854 74.3451C249.708 75.1879 251.829 74.7254 253.617 73.9204C255.425 73.1509 257.024 71.9791 258.624 70.8449C261.653 70.5136 265.159 69.0561 267.839 67.6262C266.311 63.7099 266.088 59.3754 265.811 55.2012C265.352 46.1944 265.385 38.0547 266.051 29.0724C275.985 29.4438 285.43 31.5729 295.286 32.7872C301.525 33.5789 308.087 33.8561 314.377 33.9495C317.967 34.0585 322.14 33.6271 325.071 31.2943C327.303 29.5596 328.007 26.1067 328.015 23.2601V22.166C327.546 18.0473 325.322 14.0686 321.77 11.9848ZM140.263 13.3853C138.039 13.4014 134.311 14.0567 132.2 14.7358C133.201 16.377 134.361 18.3876 134.623 20.2757C134.993 23.1489 134.651 25.5363 134.679 28.434C131.865 28.8254 129.848 29.5827 127.008 29.6761C125.683 31.9044 128.072 35.1534 130.581 34.8999C132.317 34.9199 133.391 35.553 135.129 35.5374C134.83 44.5642 134.199 52.9757 133.712 61.9936C133.621 64.1953 133.757 64.4888 133.88 66.6927C132.475 65.5518 132.6 65.3974 132.061 63.6561C131.325 61.2787 131.039 59.205 130.964 56.7276C130.871 51.6793 130.364 46.6311 130.314 41.5829C130.351 40.7734 130.308 39.4375 129.557 39.224C128 38.7503 125.851 39.2198 124.307 39.5423C123.723 37.6386 122.829 36.1765 121.123 35.0779C119.462 34.0193 115.971 34.0766 114.194 34.6415C110.724 35.8335 109.009 38.6283 107.273 41.8174C104.307 45.6083 104.426 51.1143 104.104 55.8379C103.92 59.0826 104.121 62.4473 105.372 65.4718C106.128 67.291 107.44 69.0012 109.308 69.6795C111.715 70.5446 114.499 69.8641 116.404 68.1606C118.917 65.9612 120.532 62.9187 121.993 59.932C122.149 60.0855 122.229 60.2746 122.236 60.4948C122.381 62.6253 122.569 64.7579 122.933 66.8617C123.359 69.1301 123.933 71.5365 125.52 73.2667C126.79 74.6678 128.814 75.0479 130.581 74.6498C133.276 74.0516 135.61 72.4393 137.811 70.8114C140.76 70.4556 144.411 68.5747 147.024 67.1825C145.331 62.8104 144.803 58.7067 144.558 54.0565C144.303 47.6873 143.898 41.3092 144.262 34.9489C146.128 34.9467 147.992 34.9621 149.858 34.9399C151.152 34.882 152.629 34.6399 153.493 33.539C154.278 32.4849 154.107 31.0392 153.733 29.856C153.151 28.1192 152.22 26.4737 150.925 25.1927C148.972 26.02 146.933 26.6116 144.87 27.0586C145.011 25.255 145.182 23.4556 145.347 21.6542C145.531 19.6438 145.801 17.4667 144.84 15.612C144.156 14.2376 142.662 13.5214 141.218 13.4191C140.899 13.3936 140.581 13.383 140.263 13.3853ZM284.506 35.3359C280.718 35.3603 277.169 37.3285 274.524 40.015C271 43.5732 268.777 48.5191 268.625 53.6096C268.549 57.3835 269.186 61.3288 271.275 64.5134C273.015 67.2177 275.827 69.0878 278.871 69.8639C282.651 70.8247 286.738 70.4666 290.316 68.901C291.916 68.1671 293.511 67.1575 294.433 65.5786C295.195 64.2887 295.524 62.2152 294.522 61.1144C293.496 59.9402 291.42 58.6996 289.948 58.5084C289.481 59.7249 288.288 61.2045 287.374 62.1296C286.214 63.3683 285.625 63.9682 283.93 63.7103C282.417 63.5079 281.438 62.9377 280.685 61.619C279.648 59.8287 278.551 58.2263 278.477 56.1781C281.666 57.0365 285.118 57.4927 288.309 56.3874C290.758 55.569 292.825 53.7275 294.067 51.4235C295.812 48.1966 296.306 44.3071 295.607 40.7022C295.269 39.1966 294.739 37.5506 293.446 36.63C292.472 35.9561 291.117 35.556 290.191 36.0697C288.426 35.0178 286.552 35.2892 284.506 35.3359ZM169.35 36.0606C168.703 36.0765 168.101 36.1164 167.466 36.2398C166.747 36.4111 165.585 36.4238 165.148 37.0866C164.78 38.1073 164.64 39.8546 164.439 40.9221C163.571 46.2083 162.873 50.4134 163.015 55.7641C162.641 56.7582 162.899 57.0722 161.933 57.537C161.056 57.9462 160.85 59.0471 160.443 58.2932C159.471 56.5519 159.231 54.5036 159.067 52.5377C158.751 47.5584 158.917 42.2113 160.006 37.3721C157.311 36.9184 154.085 36.3901 151.425 37.2307C150.396 37.5999 148.834 38.4931 148.674 39.7207C148.085 43.6303 148.375 47.8719 148.319 51.8282C148.31 55.9269 148.542 60.1144 149.89 64.0084C150.75 66.4747 152.302 68.9144 154.765 69.9107C156.38 70.529 158.404 70.8471 159.859 69.664C162.128 67.8804 163.306 65.0961 164.41 62.4764C164.914 65.9456 165.561 69.5106 167.334 72.5618C168.232 74.094 169.685 75.475 171.501 75.604C174.846 75.7775 178.66 73.5983 180.727 70.8229C179.071 70.3603 177.991 69.529 176.945 68.1213C175.11 65.6994 174.102 63.1772 173.706 60.1905C173.08 54.9576 173.313 49.8483 174.21 44.6733C174.632 42.5384 174.716 40.2528 175.671 38.2868C174.878 37.4618 174.235 36.754 173.153 36.5205C172.099 36.2953 170.427 36.034 169.35 36.0606Z" fill="url(#paint0_linear_316_1713)"/>
<path d="M44.5532 95.0937C38.5728 93.3979 36.0192 92.173 33.9516 90.0082C29.4692 85.3151 37.3611 79.9498 52.4517 77.4309C72.6277 74.0632 91.7111 74.3748 171.38 79.3725C191.429 80.6302 203.116 81.0034 222.452 81.0034C252.623 81.0034 261.136 80.1067 272.832 75.6965L276.373 74.3613L281.155 75.662C288.173 77.5706 292.271 79.5057 294.584 82.003C297.001 84.6138 296.959 85.989 294.4 87.9638C290.576 90.9143 286.996 91.1865 252.368 91.16C220.947 91.136 219.037 91.0611 189.84 88.7111C146.014 85.1834 139.213 84.7984 119.855 84.7502C102.018 84.7057 96.3993 85.1564 83.7155 87.6493C75.8531 89.1946 62.5142 93.038 57.4735 95.2106C53.044 97.1197 51.6541 97.1071 44.5532 95.0937Z" fill="#FFD37E"/>
<path d="M53.3652 99.7267C43.1915 97.9666 38.4437 96.6397 34.6242 94.4893C28.8358 91.2302 27.6674 85.6266 31.8366 81.12C34.332 78.4227 39.8715 75.9569 47.0206 74.3612C48.0304 74.1358 48.0083 74.1116 45.8203 73.0549C38.4574 69.4988 33.9901 63.7474 31.5053 54.6252C30.6774 51.5856 30.6044 50.771 30.5826 44.3229L30.559 37.3213L28.6728 37.0909C25.5652 36.7113 19.5542 35.3094 16.2084 34.184C9.23002 31.8367 4.41537 28.4537 2.21768 24.3534C1.55542 23.1179 1.4191 22.3481 1.41421 19.8162C1.40914 17.175 1.53346 16.5153 2.34333 14.8862C3.43605 12.6882 6.38128 9.63342 9.29617 7.6748C10.4279 6.91434 13.7074 5.10736 16.5838 3.65928L21.8138 1.02637L21.8164 4.4923C21.8198 9.01151 22.3067 11.8906 23.4913 14.3954C25.159 17.9217 28.8387 21.2897 32.9047 23.0116L34.4454 23.664L35.8278 20.9725C39.828 13.184 45.0733 7.73049 51.4789 4.69998C54.9168 3.07345 57.525 2.3915 61.2851 2.13604C69.9893 1.54465 77.6601 5.05623 80.0131 10.7095C80.3521 11.5241 80.7067 12.1901 80.801 12.1893C80.8953 12.1872 81.3233 11.5812 81.752 10.8395C83.1493 8.42224 86.5421 5.16418 88.8102 4.06157C95.7179 0.703582 104.031 3.2399 107.311 9.70635C108.603 12.2533 109.033 14.6119 108.837 18.0799C108.576 22.7219 106.538 27.3508 103.31 30.6338L102.108 31.8571L103.789 33.4105C104.714 34.2649 105.566 35.2638 105.684 35.6303C105.872 36.2161 106.161 36.047 108.075 34.2316C110.925 31.5278 113.956 30.0983 117.287 29.8871C118.629 29.8021 120.314 29.8928 121.032 30.0884C122.007 30.3543 122.365 30.3428 122.451 30.0429C122.839 28.6811 123.748 26.4461 124.118 25.9471C124.457 25.4884 125.277 25.318 127.883 25.1644L131.215 24.9681L131.201 23.9167C131.193 23.3385 130.995 21.7982 130.759 20.4938C130.386 18.426 130.08 17.8031 128.372 15.6309C127.295 14.2607 126.413 13.0353 126.413 12.9079C126.413 12.7805 128.535 12.0112 131.129 11.1984C135.126 9.94595 136.393 9.69835 139.445 9.57429C142.871 9.435 143.138 9.47456 144.93 10.3871C148.105 12.0036 149.702 14.7546 149.891 18.9351C149.968 20.6201 150.043 20.7716 150.847 20.8563C154.331 21.2233 158.27 26.7143 158.364 31.3358L158.393 32.7583L160.59 33.1583C162.483 33.503 163.014 33.4784 164.433 32.9807C165.915 32.4607 166.191 32.1891 167.208 30.2506C170.791 23.4231 180.243 21.2419 186.929 25.6996C187.839 26.3062 188.685 26.679 188.809 26.528C188.934 26.377 189.617 25.5299 190.327 24.6457C191.919 22.6624 194.097 21.1483 196.132 20.6106C197.659 20.2072 197.687 20.1724 198.731 17.4684C203.447 5.25018 212.524 0.0128575 221.617 4.26272C230.947 8.62279 231.744 22.4342 223.177 31.2716C221.978 32.5085 221.954 32.5788 222.611 32.9374C223.496 33.4207 225.646 35.5452 226.127 36.4113C226.475 37.0382 226.598 36.9723 227.982 35.4193C229.659 33.5368 232.889 31.3485 234.845 30.7696L236.157 30.3812V28.424C236.157 26.0131 236.568 24.8874 237.979 23.4294C240.019 21.3214 243.513 20.0932 248.418 19.7601C250.481 19.6199 251.59 19.4065 251.59 19.1495C251.59 18.9321 250.644 17.5013 249.487 15.9699C248.331 14.4385 247.443 13.132 247.515 13.0667C247.587 13.0014 249.652 12.3029 252.104 11.5145C255.751 10.3423 257.187 10.0505 259.992 9.91305C264.217 9.70596 265.77 10.0904 267.784 11.842C269.553 13.3799 270.609 15.5441 270.944 18.3183L271.173 20.2084L276.557 20.6057C290.804 21.6569 301.663 20.3828 309.891 16.6949C313.058 15.2754 316.576 12.2993 319.328 8.71037L320.57 7.09091L322.669 8.20216C325.852 9.88787 329.175 13.2661 330.626 16.2915C334.498 24.3681 331.936 32.7597 324.501 36.3562C320.394 38.343 314.766 38.67 303.24 37.5911C301.189 37.3991 299.462 37.2907 299.402 37.3503C299.341 37.4098 299.535 38.2766 299.832 39.2766C300.236 40.639 300.33 42.037 300.206 44.8544C300.014 49.2196 299.129 52.0416 297.059 54.8885C295.787 56.6378 295.784 56.6493 296.498 57.1436C296.893 57.4168 297.674 58.43 298.235 59.3951C299.073 60.8392 299.254 61.5356 299.257 63.3297C299.264 67.9438 296.846 70.4876 289.657 73.4302L288.8 73.7811L289.829 74.1789C294.485 75.9793 298.491 78.9558 299.65 81.4762C300.401 83.1102 300.483 86.2924 299.813 87.8745C298.297 91.46 293.294 93.6463 284.685 94.4856C276.681 95.2658 262.57 95.6224 247.475 95.4259C230.643 95.2068 220.105 94.6676 186.772 92.3197C149.545 89.6974 132.259 88.9488 114.65 89.1963C105.165 89.3297 100.9 89.5325 96.5767 90.0558C83.2347 91.6706 72.6477 93.9814 61.9388 97.6159C55.6479 99.751 54.7639 99.9687 53.3652 99.7267ZM57.8436 94.1529C69.718 89.8614 84.8268 86.6245 99.6633 85.1933C114.61 83.7516 140.062 84.4444 181.114 87.4102C197.871 88.6208 216.256 89.8009 228.955 90.4808C237.845 90.9567 278.073 90.7185 282.97 90.161C288.108 89.5759 291.631 88.8155 293.471 87.8944C295.25 87.0035 295.83 86.2605 295.83 84.8712C295.83 81.3285 290.098 78.2235 279.51 76.0308C275.37 75.1736 275.185 75.1634 273.785 75.7176C267.911 78.0428 261.304 79.4031 250.39 80.5344C245.408 81.0506 241.414 81.1347 222.954 81.1114C210.956 81.0963 198.069 80.9043 193.974 80.6797C189.919 80.4573 182.357 80.0518 177.17 79.7788C171.983 79.5058 160.948 78.8997 152.649 78.4319C144.35 77.9642 134.087 77.4276 129.843 77.2396C125.599 77.0515 119.117 76.7442 115.439 76.5565C103.794 75.9624 77.5238 75.7513 70.3412 76.1942C55.885 77.0855 46.4647 78.5903 40.4525 80.9686C34.2441 83.4244 32.3961 86.1898 35.035 89.0754C36.8941 91.1083 41.4519 92.8297 49.0783 94.3793C54.0453 95.3885 54.4538 95.378 57.8436 94.1529ZM237.964 76.6823L243.653 76.4607L242.485 74.9503C241.843 74.1196 241.129 72.9235 240.898 72.2922C240.411 70.9631 240.177 70.9029 239.012 71.8081C237.583 72.919 234.566 73.8548 232.415 73.8548C228.708 73.8548 225.728 72.2989 223.606 69.2543L222.335 67.4312L220.543 69.1515C219.557 70.0977 218.133 71.2362 217.377 71.6815C215.363 72.8679 211.701 73.6242 209.407 73.3276C208.37 73.1935 205.89 73.1158 203.897 73.1548C201.016 73.2113 199.846 73.084 198.192 72.5337L196.112 71.8415L191.528 72.5078C189.007 72.8742 186.327 73.1857 185.572 73.2C184.457 73.2212 184.026 73.4338 183.267 74.3385L182.333 75.4509L184.912 75.6662C186.33 75.7846 192.383 76.0406 198.363 76.235C204.343 76.4294 209.93 76.632 210.779 76.6852C214.111 76.8938 232.585 76.8916 237.964 76.6823ZM163.221 73.6007C162.896 73.0882 162.6 72.6218 162.564 72.5641C162.527 72.5065 161.904 72.7733 161.179 73.157C160.454 73.5408 159.55 73.8764 159.17 73.9028C158.25 73.9669 160.877 74.4234 162.517 74.4843L163.811 74.5323L163.221 73.6007ZM175.871 73.8616C177.578 73.2303 180.256 71.3902 180.256 70.849C180.256 70.7136 179.723 70.4122 179.07 70.1791C176.492 69.2582 174.258 65.6303 173.386 60.9483C172.453 55.9444 173.173 45.6671 174.828 40.3759C175.317 38.8116 175.398 38.1125 175.127 37.7903C174.178 36.661 168.223 36.0351 166.598 36.894C166.197 37.1062 165.707 37.5771 165.51 37.9403C164.868 39.1256 164.144 45.1034 163.91 51.1529C163.682 57.0382 163.674 57.0862 162.735 58.0136C162.215 58.5273 161.617 58.9476 161.405 58.9476C160.677 58.9476 159.383 57.3291 158.932 55.8526C158.232 53.5676 158.416 44.2843 159.233 40.5783L159.885 37.6243L158.386 37.4022C157.561 37.2801 155.656 37.2505 154.153 37.3366C151.108 37.5107 149.778 38.1748 149.356 39.7316C148.44 43.1158 148.057 54.4645 148.719 58.6088C149.83 65.5634 152.943 69.4504 157.402 69.4504C158.657 69.4504 159.141 69.2404 160.332 68.1799C161.116 67.4811 162.339 65.8088 163.048 64.4637L164.338 62.018L164.955 65.0328C165.733 68.8349 167.629 72.691 169.247 73.7614C170.738 74.748 173.367 74.7877 175.871 73.8616ZM254.993 72.4593C256.045 71.8789 257.149 71.1938 257.445 70.9368C257.742 70.6798 259.131 70.1767 260.532 69.8188C263.145 69.1512 267.026 67.5478 267.019 67.1386C267.016 67.0125 266.777 66.1471 266.485 65.2154C265.454 61.9171 264.978 56.602 264.972 48.2845C264.966 41.6173 265.497 29.2138 265.803 28.8786C266.115 28.5363 276.684 29.7174 293.944 32.0231C304.211 33.3947 314.963 34.0621 318.319 33.5364C324.208 32.6139 327.585 29.4562 327.988 24.4944C328.296 20.6998 326.192 16.0284 323.137 13.7266L321.937 12.8223L319.772 15.0018C311.375 23.4571 296.825 26.6538 274.739 24.8959C271.344 24.6256 268.044 24.4013 267.407 24.3973L266.248 24.3901L266.488 21.3593C266.695 18.7447 266.635 18.1206 266.05 16.8145C265.34 15.2286 264.556 14.6317 262.614 14.199C261.429 13.9349 258.268 14.3 255.998 14.9633L254.748 15.3286L255.272 16.5561C255.797 17.7851 256.78 23.3621 256.539 23.7482C256.469 23.8611 254.054 24.0393 251.171 24.1444C244.272 24.396 241.419 25.3062 240.644 27.504C240.215 28.7208 240.917 30.6128 242.475 32.4331L243.414 33.5307L244.501 32.7259C245.099 32.2833 246.205 31.6174 246.96 31.2462C248.734 30.3731 253.734 29.1333 255.481 29.1333H256.842L256.622 36.841C256.501 41.0802 256.177 47.6741 255.902 51.4941C255.626 55.3141 255.291 60.6397 255.158 63.3288L254.917 68.2181L254.092 67.225C251.45 64.0449 251.107 62.1207 251.09 50.4107C251.079 42.8703 250.975 40.5889 250.627 40.2467C250.333 39.957 249.324 39.8192 247.691 39.8453L245.204 39.8852L244.196 37.9867C242.774 35.3102 241.384 34.4561 238.729 34.6279C235.993 34.8049 234.352 35.6319 231.83 38.1049C224.18 45.6041 222.394 63.7321 228.862 68.2231C230.081 69.069 230.615 69.2183 232.365 69.202C235.941 69.1687 238.566 67.0795 241.416 61.9969L242.841 59.4559L243.105 61.6581C243.873 68.0515 245.052 71.6087 246.841 72.9279C248.83 74.3953 251.792 74.225 254.993 72.4593ZM235.534 61.2461C234.478 60.2027 235.416 52.8798 237.169 48.4873C237.983 46.4483 240.115 43.024 240.571 43.024C241.758 43.024 242.032 51.5378 240.955 54.9824C239.76 58.8049 236.674 62.3714 235.534 61.2461ZM266.559 73.3437C268.284 72.8765 270.273 72.2557 270.98 71.9641C272.18 71.4686 272.227 71.397 271.69 70.8673C271.154 70.3377 270.97 70.3762 268.861 71.4559C267.621 72.0913 265.658 72.9593 264.499 73.3847C261.696 74.4139 262.678 74.3944 266.559 73.3437ZM132.918 72.7443C133.773 72.3765 135.174 71.5839 136.031 70.9832C136.888 70.3824 138.2 69.7795 138.946 69.6434C140.363 69.385 145.256 67.5605 145.708 67.1221C145.851 66.9829 145.736 66.1158 145.455 65.1952C144.273 61.3397 143.842 56.5979 143.848 47.5117C143.852 42.6195 143.959 37.792 144.087 36.7838L144.318 34.9509L148.031 34.8371C151.155 34.7414 151.897 34.6105 152.711 34.0117C154.123 32.9725 154.22 30.7138 152.959 28.2507C151.493 25.3892 151.229 25.2471 148.831 26.0253C147.724 26.3842 146.38 26.7796 145.843 26.9038L144.866 27.1297L145.157 23.8118C145.581 18.9609 145.457 17.1377 144.612 15.7864C143.392 13.8371 140.596 13.3894 136.038 14.4136L133.695 14.94L134.322 16.5703C135.146 18.711 135.737 23.2468 135.606 26.4228L135.501 28.9638L131.729 29.3555C129.654 29.571 127.78 29.7615 127.565 29.779C126.879 29.8348 126.708 31.4707 127.266 32.6338C128.108 34.3865 129.332 34.8928 132.725 34.8928H135.673L135.682 35.9939C135.687 36.5995 135.269 43.9388 134.753 52.3035L133.814 67.5119L132.729 66.2718C130.691 63.9424 130.386 62.0468 130.19 50.487L130.014 40.1631L129.157 39.7184C128.577 39.4175 127.631 39.3384 126.232 39.4738L124.164 39.6739L123.715 38.4467C122.662 35.5703 120.135 33.9516 117.297 34.3359C112.08 35.0423 107.293 40.7068 105.088 48.7836C104.037 52.6305 103.94 60.8265 104.912 63.5791C106.964 69.3889 112.685 70.7442 117.029 66.4496C118.57 64.926 121.612 60.3934 121.612 59.6207C121.612 59.4368 121.766 59.2864 121.955 59.2864C122.144 59.2864 122.299 59.9343 122.301 60.7263C122.308 65.0075 123.682 70.0139 125.361 71.8754C127.235 73.9536 129.501 74.2141 132.918 72.7443ZM114.368 60.3874C113.529 58.2654 114.948 50.8612 117.023 46.5279C117.999 44.4887 119.474 42.5961 119.889 42.8495C120.473 43.2059 121.017 47.5942 120.83 50.4394C120.541 54.8348 118.565 59.3113 116.252 60.8084C115.139 61.5291 114.788 61.4508 114.368 60.3874ZM153.829 73.5335C152.571 73.1563 151.44 72.5269 150.158 71.4908L149.038 70.586L146.148 71.9663L143.257 73.3466L146.067 73.5376C150.479 73.8374 154.836 73.8352 153.829 73.5335ZM105.075 72.5267C106.154 71.9826 107.525 71.1754 108.123 70.7328L109.209 69.9281L107.437 69.3099C105.333 68.5758 103.431 66.7474 102.808 64.859C102.021 62.4718 101.946 58.2359 102.574 51.6607C103.314 43.9189 103.183 40.6961 102.038 38.4128C99.7749 33.9025 93.4904 34.1558 88.3037 38.9663C87.3127 39.8855 86.4617 40.5978 86.4125 40.5493C86.2261 40.3651 86.7406 34.2497 86.9739 33.8769C87.1084 33.6618 88.4367 33.2165 89.9257 32.8872C98.5889 30.9711 104.465 24.5343 104.465 16.9598C104.465 12.9353 103.091 10.2733 99.9559 8.22388C98.8194 7.48088 98.0895 7.3003 95.7276 7.17782C93.2335 7.0485 92.6657 7.13121 91.2316 7.83282C86.54 10.1281 82.7908 16.5618 80.1024 26.931C79.2941 30.0487 79.034 30.6453 78.5111 30.5813C78.1673 30.5392 77.0758 30.4038 76.0856 30.2805C74.4426 30.0759 74.2851 30.1151 74.2851 30.7281C74.2851 31.6824 75.2381 32.4132 77.1369 32.9149C78.5232 33.2811 78.753 33.4562 78.6089 34.0361C77.6954 37.7125 76.6866 50.4844 76.6946 58.27C76.704 67.3326 77.385 68.2772 83.8877 68.2488C85.8682 68.24 87.904 68.1252 88.4118 67.9932L89.3349 67.7533L88.6961 66.315C87.2947 63.1598 86.2883 55.6689 86.2883 48.3927C86.2883 44.0756 86.3024 43.9951 87.2047 43.169C88.4582 42.0214 89.5655 41.8103 90.9388 42.4573C93.249 43.5456 93.3313 44.0114 93.2144 55.3326C93.0998 66.4339 93.2816 68.1197 94.8586 70.5762C96.2088 72.6795 97.8355 73.482 100.788 73.501C102.699 73.5133 103.462 73.3398 105.075 72.5267ZM87.4688 28.3253C87.884 25.0427 89.322 19.3136 90.2137 17.3895C90.93 15.8437 91.2046 15.5505 91.8504 15.6414C93.5431 15.8796 94.3627 20.3843 93.3436 23.8476C92.6827 26.0933 90.6963 28.4603 88.5755 29.5292L87.2309 30.2069L87.4688 28.3253ZM119.837 71.5959C119.675 70.7701 119.153 70.7347 118.183 71.4837L117.325 72.1458L118.636 72.1531C119.678 72.1592 119.925 72.0448 119.837 71.5959ZM73.6849 71.4878L76.3428 71.483L74.971 70.1278C74.2165 69.3825 73.5992 68.6152 73.5992 68.4228C73.5992 68.0143 69.5428 71.1713 69.5075 71.6072C69.4944 71.7687 69.831 71.8089 70.2554 71.6966C70.6798 71.5842 72.2231 71.4903 73.6849 71.4878ZM61.6456 70.1403C67.9144 68.2267 73.4459 62.448 75.1327 56.0501C76.6768 50.1937 74.5315 46.3561 69.295 45.6077L67.9059 45.4092L67.306 47.3339C66.0178 51.4669 62.0522 56.1047 58.3504 57.8076C55.134 59.2872 51.4041 58.7165 49.0383 56.3828C45.4212 52.8148 45.3753 45.3476 48.9148 36.2805L49.9607 33.6013L52.0916 33.3628C60.7541 32.3936 67.9675 29.4187 72.587 24.9103C78.6585 18.9846 78.1787 11.6197 71.5033 8.27791C66.6471 5.84688 59.5421 5.90536 53.9224 8.42261C47.3685 11.3583 41.1399 18.6433 38.0979 26.931C37.7559 27.8627 37.3665 28.7509 37.2325 28.9047C36.4995 29.7464 28.2398 26.0154 25.0378 23.3963C22.9469 21.686 20.8119 18.9993 19.4844 16.4079C18.662 14.8024 17.7007 11.3325 17.6932 9.94212C17.6831 8.08014 17.3444 8.08897 13.9991 10.0382C10.4577 12.1017 7.18507 15.0667 6.24012 17.0679C5.31589 19.0251 5.61513 21.5299 6.99456 23.3829C10.1383 27.606 18.5965 30.9975 30.2161 32.6941C32.1023 32.9695 34.1214 33.1957 34.703 33.1968C35.2846 33.199 35.8392 33.2766 35.9355 33.3717C36.0318 33.4668 35.8781 34.6484 35.594 35.9974C35.2487 37.6372 35.0769 40.4155 35.0759 44.3792C35.0742 49.7199 35.1641 50.64 35.9797 53.6525C37.3714 58.7927 38.9717 61.6807 42.2117 64.8987C44.0659 66.7402 45.6338 67.9499 47.0206 68.6086C51.5735 70.7712 57.5336 71.3954 61.6456 70.1403ZM52.3363 29.8565C52.3363 29.6953 52.6701 29.1236 53.0781 28.586C56.6279 23.9089 60.937 21.6337 63.2344 23.2234C64.8154 24.3174 64.0084 26.4694 61.4648 27.9419C59.0059 29.3655 52.3363 30.7644 52.3363 29.8565ZM287.085 69.3237C291.599 68.3548 294.801 65.8532 294.801 63.2955C294.801 62.1427 294.594 61.7139 293.577 60.7663C292.903 60.1387 292.067 59.6251 291.719 59.6251C291.37 59.6251 290.861 59.5402 290.587 59.4362C290.255 59.3107 289.784 59.7606 289.179 60.78C287.279 63.9836 284.116 65.1971 281.769 63.6229C280.214 62.5795 279.141 60.6228 278.735 58.0921C278.556 56.9787 278.456 56.0196 278.512 55.9608C278.568 55.9019 279.285 56.0387 280.106 56.2645C280.926 56.4904 282.755 56.6735 284.17 56.6714C289.055 56.6643 292.522 54.5031 294.564 50.191C296.493 46.1198 296.152 39.3138 293.916 37.2387C293.245 36.6154 292.86 36.5254 291.595 36.6966C290.526 36.8414 289.515 36.7059 288.162 36.2361C283.302 34.5485 278.117 36.2696 273.772 41.0132C270.28 44.8254 268.748 48.8453 268.741 54.2179C268.735 59.2511 269.784 62.4215 272.438 65.3962C275.68 69.0284 281.362 70.552 287.085 69.3237ZM278.861 52.4774C279.58 49.2397 282.156 45.7566 284.723 44.5535C286.2 43.861 286.553 44.1078 286.811 46.0107C287.355 50.0108 284.83 52.9019 280.335 53.4278L278.605 53.6302L278.861 52.4774ZM189.448 68.2271L190.516 68.0162L189.721 66.4464C188.065 63.1786 187.67 61.3765 187.719 57.3033C187.797 50.7872 189.021 45.191 191.299 40.9316C192.503 38.6823 195.336 35.7425 197.411 34.5908L198.87 33.7805L198.655 34.9296C197.65 40.303 196.531 56.5747 196.795 61.9968C196.967 65.5449 197.519 67.0323 199.025 68.0073C199.81 68.516 200.878 68.6118 206.305 68.6613C212.33 68.7161 212.76 68.6769 214.472 67.9146C217.106 66.7424 219.427 64.2058 221.234 60.5273C223.784 55.3355 224.991 48.5314 224.16 44.0404C223.033 37.9464 220.074 35.3531 215.215 36.1987C212.509 36.6697 210.617 37.6987 208.477 39.8641L206.664 41.6991L206.697 39.5665C206.716 38.3935 206.832 36.5969 206.955 35.5739C207.136 34.0598 207.305 33.6969 207.864 33.6218C216.142 32.5081 222.663 27.367 224.332 20.6381C225.673 15.2308 223.776 10.2617 219.58 8.19138C217.303 7.06803 213.523 7.09161 211.246 8.24333C207.471 10.1529 204.279 14.7575 201.872 21.7677L200.933 24.5015L199.254 24.5611C198.331 24.5939 197.104 24.862 196.529 25.157C193.646 26.6341 190.643 31.6094 189.021 37.5984C188.553 39.3263 188.126 40.7837 188.072 40.8372C188.017 40.8907 187.962 39.537 187.949 37.829C187.931 35.3886 187.761 34.3528 187.157 32.9931C184.703 27.4711 177.774 26.0688 172.978 30.1236C171.583 31.304 170.334 33.4636 170.318 34.7234C170.311 35.3431 170.499 35.3914 172.515 35.2886C176.475 35.0864 178.254 36.6131 178.96 40.8202C179.344 43.1119 179.255 44.5493 177.999 56.2243C176.891 66.534 178.427 69.0342 185.605 68.6044C187.132 68.5129 188.861 68.3432 189.448 68.2271ZM207.207 63.2673C207.081 62.6617 206.828 59.6198 206.645 56.5075C206.285 50.3803 206.408 49.6296 208.237 46.7227C209.018 45.4801 210.93 43.7016 211.483 43.7016C211.653 43.7016 212.066 44.1145 212.4 44.619C212.912 45.3911 213.008 46.3172 213.008 50.4634C213.008 55.7368 212.639 57.8955 211.232 60.88C210.408 62.6287 208.736 64.3683 207.88 64.3683C207.635 64.3683 207.332 63.8729 207.207 63.2673ZM207.693 29.5536C207.695 26.8599 209.471 19.3368 210.559 17.422C211.573 15.635 212.758 15.5733 213.38 17.2752C213.906 18.7161 213.986 22.4247 213.525 24.0629C212.94 26.1423 211.31 28.2833 209.45 29.4137L207.692 30.4821L207.693 29.5536ZM56.648 53.5149C59.8429 51.987 62.9991 47.5357 63.4862 43.871C63.9107 40.6767 63.5787 40.8875 67.8911 41.0738C69.9931 41.1647 71.9691 41.3467 72.2821 41.4784C72.9575 41.7625 73.1174 41.3368 73.4198 38.4502C73.6291 36.4519 73.6151 36.4077 72.5942 35.8443C71.7218 35.3628 70.4281 33.7761 70.0805 32.7611C70.03 32.6136 69.142 32.9565 68.1072 33.5231C65.6062 34.8924 60.4702 36.5251 56.4517 37.2282L53.1937 37.7983L52.1993 40.6652C50.8898 44.4409 50.556 50.2916 51.5431 52.1669C52.6229 54.2182 54.2686 54.6528 56.648 53.5149ZM274.156 34.1906C274.279 33.8963 270.383 33.578 270.059 33.8558C269.937 33.9603 269.777 35.0627 269.702 36.3057L269.566 38.5657L271.809 36.5029C273.043 35.3683 274.1 34.3278 274.156 34.1906ZM252.276 35.0622C252.276 34.0987 252.136 34.0625 250.539 34.6125L249.385 35.0098L250.573 35.4337C252.227 36.0239 252.276 36.0134 252.276 35.0622Z" fill="#0C5874"/>
<defs>
<linearGradient id="paint0_linear_316_1713" x1="159.638" y1="7.09285" x2="158.438" y2="69.252" gradientUnits="userSpaceOnUse">
<stop stop-color="#F57F22"/>
<stop offset="1" stop-color="#FECC68"/>
</linearGradient>
</defs>
</svg>
