<svg width="346" height="110" viewBox="0 0 346 110" fill="none" xmlns="http://www.w3.org/2000/svg">
<mask id="mask0_316_1753" style="mask-type:luminance" maskUnits="userSpaceOnUse" x="234" y="27" width="40" height="76">
<path d="M234.999 27.543H273.88V102.812H234.999V27.543Z" fill="white"/>
</mask>
<g mask="url(#mask0_316_1753)">
<path d="M260.027 29.0917L259.565 29.0538C256.148 28.7437 252.11 28.5981 249.629 28.5918C249.003 28.5918 248.37 28.6045 247.731 28.6298C247.079 28.6551 246.68 29.3575 246.997 29.9334L259.116 51.6838C259.938 53.1583 259.983 54.9366 259.236 56.4491L236.58 102.323C236.315 102.867 236.669 103.519 237.27 103.582C238.656 103.734 239.859 103.81 240.947 103.817H241.036C242.896 103.817 245.845 103.722 248.535 103.462L249.009 103.412L272.911 57.0692C273.702 55.5504 273.671 53.7342 272.842 52.2344L260.027 29.0917Z" fill="#00AAFF"/>
</g>
<mask id="mask1_316_1753" style="mask-type:luminance" maskUnits="userSpaceOnUse" x="275" y="6" width="42" height="77">
<path d="M275.507 6.32227H316.008V82.6228H275.507V6.32227Z" fill="white"/>
</mask>
<g mask="url(#mask1_316_1753)">
<path d="M315.268 6.3338C315.559 5.78323 315.204 5.11876 314.59 5.04915C313.268 4.90992 312.097 4.84031 311.002 4.83398C309.116 4.83398 306.136 4.93524 303.44 5.20103L302.978 5.24532L276.988 52.4293C276.14 53.9607 276.133 55.8276 276.981 57.3654L290.163 81.4509L290.631 81.4952C294.036 81.8053 298.029 81.9446 300.472 81.9509H300.561C301.193 81.9509 301.833 81.9382 302.478 81.9129C303.13 81.8876 303.529 81.1852 303.212 80.6093L290.65 57.7957C289.815 56.2832 289.802 54.4543 290.606 52.9229L315.268 6.3338Z" fill="#00AAFF"/>
</g>
<mask id="mask2_316_1753" style="mask-type:luminance" maskUnits="userSpaceOnUse" x="1" y="29" width="42" height="54">
<path d="M1.26904 29.1602H42.2196V82.6218H1.26904V29.1602Z" fill="white"/>
</mask>
<g mask="url(#mask2_316_1753)">
<path d="M15.7328 81.1661C11.5815 81.1661 7.82877 79.5334 5.1772 76.5844C2.51298 73.6164 1.29161 69.6739 1.74725 65.4845L3.96216 45.0188C4.8861 36.5072 12.5623 29.584 21.0739 29.584H40.9132L40.0083 37.9437C39.888 39.0828 38.8882 39.9371 37.6984 39.9371H20.2006C17.5364 39.9371 15.1316 42.1457 14.8405 44.8669L12.537 66.1237C12.3978 67.3894 12.7459 68.5474 13.5116 69.4018C14.271 70.2434 15.3721 70.7117 16.6188 70.7117H34.1229C34.7241 70.7117 35.2937 70.9649 35.6924 71.4078C36.0847 71.8445 36.2746 72.4457 36.205 73.0469L35.3316 81.1661H15.7328Z" fill="#333333"/>
</g>
<path d="M67.6408 39.241C64.9829 39.241 62.5781 41.4116 62.2934 44.0759L59.8317 66.8135C59.6924 68.1108 60.0468 69.3132 60.8442 70.1928C61.6036 71.0408 62.6857 71.5028 63.9071 71.5028H76.9561C79.6266 71.5028 82.1263 69.2436 82.4174 66.573L84.8791 43.8354C85.012 42.6267 84.6513 41.4813 83.8729 40.6143C83.0819 39.7283 81.9491 39.241 80.6961 39.241H67.6408ZM63.0275 81.8559C58.8444 81.8559 55.0917 80.2359 52.4528 77.2932C49.7949 74.3379 48.5862 70.389 49.0419 66.1807L51.415 44.2277C52.3389 35.7162 60.0152 28.793 68.5331 28.793H81.5821C85.7714 28.793 89.5494 30.432 92.2263 33.4126C94.8969 36.387 96.1182 40.3168 95.6689 44.4682L93.2958 66.4212C92.3719 74.9327 84.6513 81.8559 76.0764 81.8559H63.0275Z" fill="#333333"/>
<path d="M114.165 22.9475C113.571 22.9475 113.001 22.6943 112.602 22.2513C112.21 21.8147 112.02 21.2135 112.083 20.6186L113.071 11.5059H121.589C122.19 11.5059 122.759 11.759 123.152 12.1956C123.55 12.6386 123.74 13.2335 123.677 13.8347L122.69 22.9475H114.165ZM108.242 81.168C107.647 81.168 107.078 80.9149 106.679 80.4782C106.287 80.0352 106.097 79.434 106.16 78.8328L111.501 29.4846H120.026C120.658 29.4846 121.247 29.7377 121.639 30.1744C122.013 30.5921 122.183 31.1363 122.12 31.7185L116.766 81.168H108.242Z" fill="#333333"/>
<path d="M167.717 81.1678C167.115 81.1678 166.546 80.9146 166.154 80.4716C165.755 80.035 165.565 79.4338 165.635 78.8326L169.356 44.4319C169.489 43.1852 169.134 42.0271 168.356 41.1601C167.59 40.3058 166.495 39.8375 165.268 39.8375H147.371L143.043 79.0794C142.916 80.2502 141.897 81.1678 140.726 81.1678H131.962L136.752 36.9138C137.195 32.8194 140.891 29.4844 144.992 29.4844H166.147C170.33 29.4844 174.083 31.1044 176.722 34.0408C179.38 37.0024 180.588 40.9513 180.133 45.166L176.241 81.1678H167.717Z" fill="#333333"/>
<path d="M226.52 49.8552L227.191 44.4319C227.368 42.7738 227.134 41.5778 226.501 40.869C225.887 40.1856 224.774 39.8375 223.198 39.8375H209.655C206.63 39.8375 204.631 41.6474 204.302 44.6723L203.745 49.8552H226.52ZM205.181 81.1678C200.998 81.1678 197.239 79.5477 194.607 76.6114C191.949 73.6497 190.734 69.6945 191.189 65.4862L193.461 44.5268C194.448 35.3887 201.15 29.4844 210.535 29.4844H223.78C228.393 29.4844 232.311 31.0285 234.823 33.8193C237.259 36.5405 238.291 40.3248 237.816 44.7673L236.582 56.1393C236.437 57.4619 236.139 60.202 232.564 60.202H205.472C204.453 60.202 203.504 59.9679 202.694 59.5186L201.979 66.1253C201.846 67.391 202.188 68.5491 202.954 69.4034C203.713 70.2514 204.82 70.7134 206.067 70.7134H230.589C231.191 70.7134 231.76 70.9665 232.152 71.4032C232.551 71.8461 232.735 72.441 232.671 73.0422L231.798 81.1678H205.181Z" fill="#333333"/>
<path d="M328.652 81.9961C324.495 81.9961 320.748 80.3697 318.097 77.4144C315.432 74.4464 314.211 70.5039 314.667 66.3209L319.66 18.0801H328.19C328.791 18.0801 329.361 18.3332 329.753 18.7699C330.152 19.2128 330.336 19.8077 330.272 20.4089L329.342 29.5027C329.867 29.3002 330.437 29.1863 331.025 29.1863H342.752L341.847 37.546C341.727 38.6851 340.733 39.5394 339.537 39.5394H328.285L325.456 66.96C325.324 68.2194 325.665 69.3901 326.431 70.2381C327.19 71.0861 328.292 71.5481 329.545 71.5481H338.442C339.043 71.5481 339.613 71.8012 340.005 72.2378C340.404 72.6745 340.594 73.2757 340.524 73.8769L339.651 81.9961H328.652Z" fill="#333333"/>
</svg>
