<svg width="390" height="87" viewBox="0 0 390 87" fill="none" xmlns="http://www.w3.org/2000/svg">
<path d="M305.233 76.7741C294.857 76.7741 286.78 71.9216 282.495 63.1142C279.45 56.8568 279.313 50.7914 279.309 50.1206V26.8418H289.304V50.0309C289.313 50.3429 289.479 54.7766 291.611 58.988C294.259 64.229 298.718 66.7748 305.236 66.7748C311.755 66.7748 316.339 64.148 318.952 58.7489C321.022 54.4646 321.106 50.0951 321.106 50.048V26.8418H331.099V50.078C331.099 50.7785 330.976 56.8397 327.946 63.1013C323.683 71.9174 315.619 76.7696 305.236 76.7696L305.233 76.7741Z" fill="#A3A3A3"/>
<path d="M274.87 76.9739C269.044 76.9739 262.526 71.7842 262.526 64.8434V1.09766H272.521V64.8434C272.521 65.8259 274.076 66.9791 274.87 66.9791V76.9739Z" fill="#A3A3A3"/>
<path d="M206.954 77.0761H196.96V38.869C196.96 37.8865 195.405 36.7333 194.61 36.7333V26.7383C200.436 26.7383 206.954 31.9279 206.954 38.869V77.0761Z" fill="black"/>
<path d="M60.8498 77.078H50.855V46.7345C50.855 34.2323 59.876 26.4668 74.3942 26.4668V36.4619C71.1908 36.4619 68.1965 37.0385 65.9585 38.0849C62.426 39.7421 60.8498 42.4076 60.8498 46.7345V77.078Z" fill="black"/>
<path d="M27.6923 77.2234C21.7295 77.2234 15.3182 74.7334 10.5471 70.5643C4.94733 65.6779 1.86768 58.8736 1.86768 51.3988C1.86768 37.1581 13.4516 25.5742 27.6923 25.5742C41.9329 25.5742 48.451 36.0604 48.7288 36.5047L40.2415 41.7841L40.2673 41.8267C40.1005 41.5705 36.0856 35.5648 27.688 35.5648C19.2905 35.5648 11.8584 42.664 11.8584 51.3946C11.8584 61.7227 21.0503 67.2241 27.688 67.2241C34.3258 67.2241 40.186 61.3384 40.2415 61.2784L47.5414 68.1085C47.1955 68.4799 38.926 77.2234 27.688 77.2234H27.6923Z" fill="black"/>
<path d="M238.63 77.2234C232.667 77.2234 226.256 74.7334 221.485 70.5643C215.889 65.6779 212.81 58.8694 212.81 51.3988C212.81 37.1581 224.393 25.5742 238.634 25.5742C252.875 25.5742 259.393 36.0604 259.671 36.5047L251.183 41.7841L251.209 41.8267C251.042 41.5705 247.028 35.5648 238.63 35.5648C230.232 35.5648 222.8 42.664 222.8 51.3946C222.8 61.7227 231.992 67.2241 238.63 67.2241C245.268 67.2241 251.128 61.3384 251.183 61.2784L258.483 68.1085C258.137 68.4799 249.868 77.2234 238.63 77.2234Z" fill="#A3A3A3"/>
<path d="M160.636 77.1362C153.939 77.1362 147.72 74.7359 143.12 70.3832C138.003 65.5397 135.303 58.7396 135.303 50.7137C135.303 40.0694 140.788 33.9656 145.388 30.7196C150.723 26.9522 156.937 25.6195 160.636 25.6195C169.248 25.6195 174.715 29.7627 176.188 31.0313L169.658 38.5958C169.081 38.096 165.933 35.6144 160.636 35.6144C158.958 35.6144 154.819 36.2978 151.15 38.8862C147.267 41.6285 145.298 45.6053 145.298 50.7137C145.298 58.889 150.039 67.1414 160.636 67.1414C170.533 67.1414 176.449 58.8977 176.449 50.9273V1.09766H186.444V50.9273C186.444 67.3337 173.323 77.1362 160.636 77.1362Z" fill="black"/>
<path d="M363.624 77.1362C350.937 77.1362 337.815 67.3337 337.815 50.9273V1.09766H347.811V50.9273C347.811 58.8977 353.727 67.1414 363.624 67.1414C374.22 67.1414 378.963 58.889 378.963 50.7137C378.963 45.6053 376.992 41.6285 373.11 38.8862C369.441 36.2978 365.301 35.6144 363.624 35.6144C358.326 35.6144 355.179 38.1005 354.603 38.5958L348.072 31.0313C349.542 29.7627 355.008 25.6195 363.624 25.6195C367.323 25.6195 373.536 26.9565 378.873 30.7196C383.472 33.9656 388.956 40.0694 388.956 50.7137C388.956 58.7354 386.253 65.5397 381.141 70.3832C376.539 74.7401 370.32 77.1362 363.624 77.1362Z" fill="#A3A3A3"/>
<path d="M103.934 77.2234C97.9716 77.2234 91.5603 74.7334 86.7894 70.5643C81.1938 65.6779 78.1143 58.8694 78.1143 51.3988C78.1143 37.1581 89.6982 25.5742 103.939 25.5742C111.452 25.5742 118.243 28.577 123.066 34.0231C127.141 38.6233 129.571 44.7997 129.571 50.5402V55.5379H101.508C97.1643 55.5379 94.8408 53.6029 90.9924 50.4037L97.3824 42.7195C100.778 45.5428 100.992 45.5428 101.508 45.5428H118.59C116.663 40.5196 111.879 35.5693 103.934 35.5693C95.2083 35.5693 88.1049 42.6682 88.1049 51.3988C88.1049 61.7269 97.2969 67.2286 103.934 67.2286C110.572 67.2286 116.415 61.3555 116.471 61.2997L123.784 68.1127C123.438 68.4844 115.168 77.2276 103.93 77.2276L103.934 77.2234Z" fill="black"/>
</svg>
