<svg width="317" height="150" viewBox="0 0 317 150" fill="none" xmlns="http://www.w3.org/2000/svg">
<g clip-path="url(#clip0_316_1712)">
<path fill-rule="evenodd" clip-rule="evenodd" d="M114.469 47.7139C114.732 49.9979 114.527 59.5188 105.72 72.5941C96.5928 87.0167 111.019 111.101 140.114 104.987C146.483 107.278 153.378 107.611 157.849 107.566C162.314 107.611 169.286 107.323 175.662 105.032C204.75 111.146 219.106 87.0167 209.972 72.5941C201.171 59.5188 200.966 49.9979 201.229 47.7139H114.469Z" fill="#ED1C27"/>
<path fill-rule="evenodd" clip-rule="evenodd" d="M157.849 107.438C129.427 106.713 124.264 93.6375 132.121 90.8851C136.682 89.294 142.686 86.6251 142.686 86.6251C139.658 71.8496 144.661 53.013 157.932 53.0322C171.204 53.013 176.04 72.4591 173.032 86.9394C173.032 86.9394 179.087 89.1208 183.583 90.8851C190.972 93.7914 186.277 106.713 157.855 107.438H157.849Z" fill="#0081C3"/>
<path fill-rule="evenodd" clip-rule="evenodd" d="M147.143 97.1275C139.594 76.0197 146.213 56.2272 157.849 56.2657C168.939 56.3427 176.45 75.5129 168.625 97.0954C168.625 97.0954 164.937 96.255 157.464 96.255C151.916 96.255 147.143 97.1275 147.143 97.1275Z" fill="#FFE01B"/>
<path fill-rule="evenodd" clip-rule="evenodd" d="M157.849 107.656C169.299 107.656 178.304 105.199 178.304 101.78C178.304 98.36 169.299 95.9092 157.849 95.9092C146.4 95.9092 137.394 98.36 137.394 101.78C137.394 105.199 146.4 107.656 157.849 107.656Z" fill="#F8991D"/>
<path fill-rule="evenodd" clip-rule="evenodd" d="M120.018 58.1328H133.763C135.938 58.1328 137.708 59.8971 137.708 62.0785V71.3492C137.708 73.5306 135.944 75.2949 133.763 75.2949H120.018C117.843 75.2949 116.073 73.5306 116.073 71.3492V62.0785C116.073 59.8971 117.837 58.1328 120.018 58.1328Z" fill="#0081C3" stroke="#231F20" stroke-width="1.07" stroke-miterlimit="3.86"/>
<path d="M121.595 60.359H132.487C134.129 60.359 135.457 61.6934 135.457 63.3294V70.0916C135.457 71.7341 134.122 73.0621 132.487 73.0621H121.595C119.953 73.0621 118.625 71.7276 118.625 70.0916V63.3294C118.625 61.687 119.96 60.3525 121.602 60.3525L121.595 60.359Z" fill="#231F20"/>
<path fill-rule="evenodd" clip-rule="evenodd" d="M135.45 68.4047C130.53 67.9107 128.818 62.1558 128.407 60.3594H132.48C134.122 60.3594 135.45 61.6938 135.45 63.3363V68.4047Z" fill="#FFE01B"/>
<path fill-rule="evenodd" clip-rule="evenodd" d="M125.726 60.359C125.405 61.995 123.86 68.1669 118.619 68.4235V63.3294C118.619 61.687 119.953 60.3525 121.589 60.3525H125.726V60.359Z" fill="#FFE01B"/>
<path d="M181.935 58.1328H195.68C197.855 58.1328 199.625 59.9036 199.625 62.0785V71.3492C199.625 73.5242 197.861 75.2949 195.68 75.2949H181.935C179.76 75.2949 177.99 73.5242 177.99 71.3492V62.0849C177.99 59.91 179.76 58.1392 181.935 58.1392V58.1328Z" fill="#0081C3" stroke="#231F20" stroke-width="1.07" stroke-miterlimit="3.86"/>
<path fill-rule="evenodd" clip-rule="evenodd" d="M180.536 63.3294C180.536 61.687 181.864 60.3525 183.506 60.3525H194.397C196.039 60.3525 197.367 61.687 197.367 63.3294V70.0981C197.367 71.7405 196.039 73.0685 194.397 73.0685H183.506C181.864 73.0685 180.536 71.7405 180.536 70.0981V63.3294Z" fill="#231F20"/>
<path fill-rule="evenodd" clip-rule="evenodd" d="M197.367 68.4047C192.447 67.9107 190.741 62.1558 190.324 60.3594H194.397C196.039 60.3594 197.367 61.6938 197.367 63.3363V68.4047Z" fill="#FFE01B"/>
<path fill-rule="evenodd" clip-rule="evenodd" d="M187.643 60.359C187.322 61.995 185.777 68.1669 180.536 68.4235V63.3294C180.536 61.687 181.864 60.3525 183.512 60.3525H187.643V60.359Z" fill="#FFE01B"/>
<path fill-rule="evenodd" clip-rule="evenodd" d="M186.296 12.0235C184.834 7.0898 184.584 4.61333 189.093 4.6005H199.074C205.09 4.49143 202.608 9.18775 202.018 13.8007C201.248 19.8828 201.248 21.7113 201.248 21.7113C201.248 21.7113 186.322 12.0941 186.296 12.0235Z" fill="#ED1C27"/>
<path fill-rule="evenodd" clip-rule="evenodd" d="M157.804 47.2588C143 47.278 122.602 48.5483 109.524 49.5556C99.479 50.3255 91.7113 42.6715 98.3949 35.4346C112.615 20.0304 147.374 0.558594 157.907 0.558594C169.1 0.558594 203.198 20.0304 217.418 35.4346C224.102 42.6715 217.361 49.5556 207.284 49.5556C196.04 49.5556 172.608 47.278 157.804 47.2588Z" fill="#F8991D"/>
<path fill-rule="evenodd" clip-rule="evenodd" d="M165.822 81.8135C165.822 80.7164 166.688 79.8311 167.752 79.8311C168.817 79.8311 169.683 80.7164 169.683 81.8135C169.683 82.9106 168.817 83.796 167.752 83.796C166.688 83.796 165.822 82.9106 165.822 81.8135Z" fill="#231F20"/>
<path fill-rule="evenodd" clip-rule="evenodd" d="M157.862 95.6009C151.967 95.6009 147.182 96.4863 147.182 96.4863C140.146 75.9624 146.598 56.6189 157.862 56.6189C169.125 56.6189 175.585 75.988 168.535 96.4863C168.535 96.4863 163.981 95.6009 157.862 95.6009ZM168.285 97.2113C174.109 98.1416 178.003 99.8417 178.003 101.786C178.003 104.75 168.984 107.162 157.875 107.162C146.765 107.162 137.715 104.756 137.715 101.786C137.715 99.8417 141.595 98.1416 147.439 97.2049C147.439 97.2049 153.789 96.4414 157.862 96.4414C161.935 96.4414 168.292 97.2113 168.292 97.2113H168.285ZM169.145 96.5954C176.534 75.3015 169.369 55.7335 157.862 55.7784C146.355 55.7399 139.184 75.3015 146.579 96.5954C140.877 97.6989 137.099 99.6108 137.099 101.792C137.099 102.491 137.477 103.152 138.202 103.775C128.619 99.5594 127.728 92.6946 132.968 90.834C137.516 89.2237 143.058 87.068 143.058 87.068C140.12 72.7288 144.642 53.488 157.855 53.5009C171.069 53.4944 175.591 72.7352 172.653 87.068C172.653 87.068 178.169 89.3071 182.743 90.834C187.887 92.547 187.124 99.4632 177.586 103.723C178.259 103.12 178.618 102.466 178.618 101.792C178.618 99.6172 174.84 97.6989 169.138 96.5954H169.145ZM187.015 11.7601C185.867 7.2562 185.854 5.38922 189.741 5.38281H198.272C203.942 5.28657 201.62 9.66852 201.107 14.0312C200.793 16.6873 200.594 18.7917 200.51 20.4277C195.956 17.2391 191.402 14.3263 187.021 11.7601H187.015ZM177.085 104.833C204.365 109.459 217.714 86.5612 208.964 72.7288C202.236 62.7331 200.632 54.3028 200.369 50.0107C182.48 49.0676 170.184 48.2015 157.862 48.0218C145.54 48.2015 133.237 49.0612 115.348 50.0107C115.091 54.2964 113.488 62.7331 106.759 72.7288C98.0039 86.5676 111.352 109.465 138.645 104.833C127.054 100.458 125.637 92.9705 131.826 90.5838C136.336 88.8452 142.391 86.6317 142.391 86.6317C139.363 71.8627 144.597 52.3909 157.862 52.4102C171.127 52.3909 176.354 71.8627 173.333 86.6317C173.333 86.6317 179.388 88.8452 183.897 90.5838C190.087 92.9705 188.657 100.458 177.092 104.833H177.085ZM157.881 46.1869C142.525 46.405 127.933 47.4829 110.775 48.5928C100.133 49.2793 94.1553 42.1642 100.865 34.8246C110.743 24.0141 144.488 1.73867 157.862 1.73867C171.236 1.73867 204.975 24.0141 214.853 34.8246C221.562 42.1642 215.59 49.2793 204.943 48.5928C187.785 47.4893 173.237 46.405 157.881 46.1869ZM185.026 10.6052C184.917 10.1625 184.789 9.72626 184.667 9.28999C183.93 6.64029 184.59 3.68263 189.17 3.68263H199.106C204.962 3.68263 204.314 7.71813 203.313 11.6382C202.601 14.4354 202.018 17.9769 201.774 21.3195C201.774 21.3195 209.92 27.3118 214.423 31.1099C228.669 43.1202 219.388 50.9731 205.815 50.293C204.442 50.2288 203.108 50.1583 201.8 50.0941C201.896 54.0975 203.076 61.4564 209.33 69.8417C225.103 88.6912 204.224 112.372 174.731 105.706C169.869 107.335 162.127 108.08 157.862 108.08C153.596 108.08 145.848 107.335 140.992 105.706C111.499 112.372 90.6274 88.6912 106.4 69.8417C112.654 61.4564 113.834 54.0911 113.93 50.0877L109.915 50.293C96.3426 50.9731 87.0547 43.1202 101.301 31.1099C122.429 13.287 148.003 0.0513259 157.862 0C163.276 0.025663 173.468 4.04192 185.026 10.6052Z" fill="#231F20"/>
<path d="M7.6074 145.694C13.5919 146.958 28.3704 146.573 28.7168 136.886C28.7168 132.991 23.7137 129.373 18.9414 128.333C13.1044 127.057 9.3585 127.031 3.43171 128.333C-0.211602 129.732 -1.35334 126.152 1.96925 124.94C8.27449 122.643 32.8155 122.149 33.9765 136.886C32.9566 151.43 11.5265 150.397 6.69657 149.428C4.78512 149.05 3.33549 148.171 3.33549 145.733V133.607C3.33549 130.733 7.6074 130.759 7.6074 133.633V145.688V145.694Z" fill="#ED1C27"/>
<path d="M53.7066 128.597C48.9344 128.597 40.878 143.174 38.5176 148.403C37.1064 151.533 32.6293 149.307 34.0468 146.17C36.5869 140.543 46.1634 123.574 53.6617 123.728C61.16 123.58 70.7365 140.543 73.283 146.17C74.7005 149.301 70.2234 151.533 68.8058 148.403C66.4453 143.174 58.4788 128.597 53.7066 128.597Z" fill="#ED1C27"/>
<path d="M87.1316 145.046C91.9038 145.046 99.9537 130.47 102.314 125.241C103.732 122.104 108.202 124.336 106.791 127.467C104.251 133.094 94.6683 150.064 87.17 149.91C79.6717 150.057 70.0888 133.094 67.5488 127.467C66.1312 124.336 70.6084 122.104 72.0259 125.241C74.3864 130.47 82.3529 145.046 87.1251 145.046H87.1316Z" fill="#ED1C27"/>
<path d="M114.841 126.236V147.485C114.841 150.661 110.043 150.539 110.043 147.363V126.178C110.043 122.9 114.841 122.874 114.841 126.236Z" fill="#ED1C27"/>
<path d="M137.785 145.046C142.558 145.046 150.614 130.47 152.968 125.241C154.385 122.104 158.856 124.336 157.445 127.467C154.905 133.094 145.329 150.064 137.824 149.91C130.326 150.057 120.749 133.094 118.209 127.467C116.798 124.336 121.269 122.104 122.68 125.241C125.04 130.47 133.007 145.046 137.785 145.046Z" fill="#ED1C27"/>
<path d="M174.661 139.01C176.066 141.974 180.075 144.399 183.955 145.246C189.799 146.523 193.545 146.542 199.465 145.246C202.999 144.091 204.25 147.524 200.895 148.646C194.327 150.853 170.222 151.649 168.805 136.886C169.587 122.817 188.849 123.182 196.2 124.138C199.792 124.613 199.061 128.411 195.308 127.628C190.376 126.968 177.009 126.198 174.411 135.051L188.124 135.064C190.26 135.064 190.26 139.01 188.124 139.01H174.674H174.661Z" fill="#ED1C27"/>
<path d="M251.036 145.694C257.02 146.958 271.799 146.573 272.145 136.886C272.145 132.991 267.142 129.373 262.37 128.333C256.526 127.057 252.787 127.031 246.86 128.333C243.217 129.732 242.075 126.152 245.397 124.94C251.703 122.643 276.244 122.149 277.405 136.886C276.385 151.43 254.955 150.397 250.125 149.428C248.22 149.05 246.764 148.171 246.764 145.733V133.607C246.764 130.733 251.036 130.759 251.036 133.633V145.688V145.694Z" fill="#ED1C27"/>
<path d="M297.148 128.597C292.376 128.597 284.326 143.174 281.965 148.403C280.548 151.533 276.077 149.307 277.494 146.17C280.034 140.543 289.617 123.574 297.109 123.728C304.608 123.58 314.184 140.543 316.724 146.17C318.142 149.301 313.664 151.533 312.247 148.403C309.886 143.174 301.92 128.597 297.148 128.597Z" fill="#ED1C27"/>
<path d="M165.482 126.236V147.485C165.482 150.661 160.69 150.539 160.69 147.363V126.178C160.69 122.9 165.482 122.874 165.482 126.236Z" fill="#ED1C27"/>
<path d="M223.178 141.159C220.215 135.725 216.944 128.526 214.686 128.366C209.163 128.34 211.665 139.273 211.562 147.787C211.53 150.789 206.764 150.783 206.764 147.459C206.764 136.597 204.436 123.638 214.801 123.638C217.848 123.638 220.722 128.18 223.3 132.466C226.27 137.893 229.798 145.118 232.056 145.272C237.578 145.297 234.949 134.577 235.045 126.063C235.083 123.06 239.836 123.067 239.843 126.396C239.843 137.258 242.299 150 231.934 150C228.894 150 225.757 145.445 223.172 141.159H223.178Z" fill="#ED1C27"/>
</g>
<defs>
<clipPath id="clip0_316_1712">
<rect width="317" height="150" fill="white"/>
</clipPath>
</defs>
</svg>
