<svg width="90" height="19" viewBox="0 0 90 19" fill="none" xmlns="http://www.w3.org/2000/svg">
<g clip-path="url(#clip0_3303_26655)">
<path d="M52.0531 16.7796C52.1897 16.9309 52.4037 16.9715 52.5956 16.9899C55.3371 17.2482 58.4883 16.7796 61.2742 16.9899C62.2594 17.1412 62.2741 18.4843 61.1967 18.584C57.9939 18.8792 54.3446 18.3515 51.0938 18.584C50.6399 18.5913 50.3078 18.2703 50.2562 17.8275C50.02 15.8387 50.437 13.3997 50.2562 11.3592C50.2931 10.9275 50.5919 10.7245 51.0052 10.6913C54.304 10.4293 57.9459 10.8979 61.2852 10.6913C62.2446 10.8057 62.3295 12.1377 61.1856 12.278C58.5363 12.599 55.3002 12.0381 52.6029 12.2853C51.6952 12.3665 51.5882 13.3111 52.2708 13.776L61.1081 13.7945C62.0564 13.872 62.3885 14.9642 61.4587 15.3848L52.6288 15.4107C51.9203 15.4291 51.5919 16.2667 52.0568 16.7759L52.0531 16.7796Z" fill="#B0B8BF"/>
<path d="M42.3527 0.0951521C44.7401 -0.15945 47.5555 0.183709 49.9723 0.128361C50.7804 0.375583 50.7066 1.49362 49.9244 1.73346C47.585 1.92903 44.9836 1.5379 42.6774 1.74822C39.9986 1.99175 39.7809 6.17608 42.9431 6.44913C44.1755 6.55614 46.8802 6.58197 48.0831 6.44913C49.286 6.3163 49.3266 4.98056 47.8211 4.85141C46.3157 4.72227 44.7807 4.9658 43.3195 4.83665C42.6147 4.67799 42.5225 3.38284 43.563 3.26107C44.6036 3.13931 47.157 3.16514 48.2602 3.26107C51.345 3.52675 51.1642 7.80332 48.4374 8.05055C46.8728 8.19076 43.8029 8.18707 42.2347 8.04686C37.7256 7.64466 37.4968 0.626496 42.349 0.102532L42.3527 0.0951521Z" fill="#07307A"/>
<path d="M83.6387 13.9719L83.8417 14.2561L89.6828 17.16C90.3617 17.8685 89.8008 18.7983 88.8599 18.5363C86.5538 17.6102 84.1295 15.8538 81.8381 15.0199C81.1776 14.78 80.0928 14.7099 79.8714 15.5623C79.6832 16.2929 80.1924 18.3371 79.2367 18.5585C78.6722 18.6876 78.281 18.374 78.2331 17.8279C78.0559 15.7652 78.3733 13.448 78.2331 11.3558C78.2736 10.7654 78.864 10.544 79.3658 10.7617C80.3031 11.1639 79.388 13.3078 80.2256 13.3484L89.0186 10.8023C89.9669 10.6326 90.3285 11.8761 89.5462 12.3078L83.6387 13.9719Z" fill="#B0B8BF"/>
<path d="M33.8392 11.9991C33.699 12.1504 33.3263 12.2685 33.1123 12.2906C30.8319 12.5489 28.1272 12.0655 25.8026 12.3312C23.4854 13.036 23.5001 16.1982 25.8026 16.9436L33.3558 17.0063C34.1823 17.2166 34.2672 18.1649 33.5145 18.5413L25.8469 18.5856C21.1644 18.1834 21.098 11.1025 25.7583 10.6966C28.2158 10.4826 30.9758 10.8589 33.4628 10.7003C33.9905 10.8885 34.2377 11.5637 33.8355 11.9991H33.8392Z" fill="#B0B8BF"/>
<path d="M65.522 17.5679C63.0239 15.306 64.3818 10.9851 67.7396 10.6936C70.1417 10.487 72.839 10.856 75.2706 10.6936C76.2522 10.8744 76.2005 12.033 75.2633 12.2839C72.9497 12.45 70.3705 12.081 68.0901 12.2839C65.4002 12.5238 65.308 16.7229 68.1787 16.9849C70.4553 17.1915 73.0272 16.8041 75.3334 17.0033C76.2891 17.1952 76.1673 18.5826 75.1821 18.5826C72.4737 18.2099 67.6215 19.4718 65.5183 17.5679H65.522Z" fill="#B0B8BF"/>
<path d="M60.138 1.95953C60.0199 1.84146 59.8539 1.76766 59.6841 1.74552C58.5993 1.61268 57.2451 1.85622 56.1345 1.7529C55.0238 1.64958 54.9537 0.361813 55.9684 0.0703125H66.2374C67.2373 0.0703125 67.4181 1.48354 66.4661 1.70862C65.4514 1.94846 63.7947 1.61637 62.6951 1.74552C62.2892 1.79349 62.0789 1.99643 62.0309 2.4097C61.8575 3.9041 62.2301 5.8007 62.0235 7.27297C61.8907 8.22865 60.6804 8.33935 60.3668 7.43901C60.1859 5.85236 60.5402 3.95207 60.352 2.40601C60.3298 2.23997 60.2561 2.07023 60.138 1.95215V1.95953Z" fill="#07307A"/>
<path d="M78.9224 0.0895149C79.332 0.0489261 79.7305 0.358876 79.8117 0.757384C80.0848 2.11526 79.6567 4.24433 79.8302 5.69814C79.8892 6.18521 80.1991 6.41029 80.6678 6.45457C83.4204 6.70548 86.5531 6.25162 89.3464 6.45457C90.2061 6.59109 90.291 7.94528 89.1766 8.0486C85.9443 8.34748 82.2618 7.81244 78.9815 8.0486C78.5645 8.02646 78.2841 7.80138 78.2324 7.38073C77.9889 5.33653 78.4243 2.82741 78.2324 0.731555C78.2398 0.428984 78.6346 0.119034 78.9224 0.0895149Z" fill="#07307A"/>
<path d="M35.8432 0.273784C36.3893 -0.194832 37.1531 0.199986 37.2379 0.908444C37.4704 2.86039 37.0682 5.27727 37.2269 7.27719C37.0719 8.37308 35.607 8.27346 35.5517 7.19601C35.714 5.23299 35.334 2.91574 35.5517 0.997001C35.5738 0.801437 35.6993 0.39186 35.8432 0.270094V0.273784Z" fill="#07307A"/>
<path d="M53.4992 7.83418C52.9937 8.29541 52.1893 7.98177 52.1081 7.28807C51.8719 5.2734 52.2852 2.80117 52.1155 0.738526C52.2409 -0.062179 53.5877 -0.165496 53.7058 0.819704C53.9457 2.83807 53.5213 5.31029 53.7058 7.38032C53.6911 7.52792 53.6025 7.73824 53.4955 7.83418H53.4992Z" fill="#07307A"/>
<path d="M89.634 1.04161C89.634 1.53236 89.2355 1.93087 88.7447 1.93087C88.254 1.93087 87.8555 1.53236 87.8555 1.04161C87.8555 0.550851 88.254 0.152344 88.7447 0.152344C89.2355 0.152344 89.634 0.550851 89.634 1.04161ZM89.2982 1.39215C89.5823 1.21503 89.2392 0.406946 88.8222 0.373737C87.8296 0.296249 87.9256 2.15226 89.1285 1.57295L88.5012 1.16337C88.2577 0.536092 88.516 0.694757 89.0399 0.687377C89.11 0.753795 88.8665 1.65782 89.2982 1.38846V1.39215Z" fill="#07307A"/>
<path d="M32.8623 6.94317C30.7775 8.96892 25.8367 7.65901 23.1025 8.04276C22.6708 8.06121 22.2944 7.71436 22.2649 7.28633C22.4088 5.26058 22.0804 2.98761 22.2649 0.991385C22.3166 0.430522 22.645 0.127952 23.1985 0.0652236C25.4604 0.17961 27.8662 -0.0860618 30.1096 0.0615337C33.6667 0.293996 35.4341 4.44512 32.8623 6.94317ZM24.191 1.76995C23.9807 1.86958 23.8885 2.00241 23.859 2.23488C23.7667 2.94702 23.7778 5.1462 23.859 5.8731C23.918 6.37124 24.1505 6.41183 24.608 6.45242C25.9364 6.56311 28.7923 6.58894 30.0912 6.44135C32.8697 6.12033 32.8733 2.10204 30.1059 1.75519L24.1874 1.77733L24.191 1.76995Z" fill="#07307A"/>
<path d="M71.3074 2.56517C71.6874 2.50983 72.3073 3.32898 72.5177 3.62048C72.7538 3.95257 73.2778 4.49129 72.5324 4.59092C72.1191 4.64627 70.7465 4.67579 70.3259 4.64627C70.038 4.62782 69.7613 4.43595 69.8425 4.12231C69.9089 3.85294 71.0159 2.60945 71.3074 2.56517Z" fill="#FCFCFC"/>
<path d="M46.1541 15.5917C46.0028 15.4663 45.6338 15.4035 45.4309 15.3851C43.2206 15.2006 40.7078 15.4995 38.4681 15.4257C37.35 15.6914 38.1397 17.4145 37.7559 18.1673C37.3943 18.8647 36.2615 18.6322 36.2578 17.8278L36.3095 11.1454C36.5751 10.5587 37.3758 10.5034 37.719 11.0569C38.147 11.7469 37.4091 13.566 38.361 13.78L45.7851 13.8021C46.7555 13.6767 46.3644 12.0273 46.4419 11.3594C46.5563 10.3595 47.9548 10.5329 48.0396 11.448L47.999 17.9643C47.8773 18.4256 47.4972 18.6433 47.0249 18.5732C45.9106 18.4108 46.8662 16.1895 46.1504 15.5917H46.1541Z" fill="#B0B8BF"/>
<path d="M89.2996 1.39231C88.8678 1.66167 89.1114 0.757646 89.0413 0.691228C88.5173 0.698608 88.259 0.539943 88.5026 1.16722L89.1298 1.5768C87.9269 2.15611 87.831 0.296411 88.8236 0.377588C89.2405 0.410797 89.5837 1.21888 89.2996 1.396V1.39231Z" fill="#FCFCFC"/>
<path d="M77.0587 7.83816C76.9665 7.9304 76.6455 8.03741 76.5053 8.04479C75.6344 8.10752 75.2581 6.73119 74.5791 6.33637C72.5017 6.19247 70.38 6.28841 68.2879 6.28841C67.5794 6.52087 67.1219 7.97468 66.4097 8.04479C65.5315 8.13335 65.2068 7.29574 65.705 6.62787C67.3691 4.80507 68.7786 2.5321 70.4391 0.735129C71.1291 -0.0139179 71.38 -0.224241 72.166 0.598603C73.8744 2.39189 75.3171 4.79769 77.0292 6.62787C77.2986 6.93414 77.3466 7.54297 77.055 7.83816H77.0587ZM71.3062 2.56531C71.011 2.60959 69.9077 3.85308 69.8413 4.12244C69.7601 4.43608 70.0369 4.62796 70.3247 4.64641C70.7453 4.67593 72.118 4.64641 72.5313 4.59106C73.2766 4.49143 72.7563 3.95271 72.5165 3.62062C72.3062 3.32912 71.69 2.50627 71.3062 2.56531Z" fill="#07307A"/>
<path d="M0.0400698 3.39232C0.0880383 3.24473 1.12121 3.11927 1.33522 3.09344C5.70773 2.56579 14.7037 2.6322 18.364 5.2594C21.3196 7.38109 20.0688 10.167 17.3124 11.6281C14.5561 13.0893 11.5193 13.4952 8.52312 12.6207C8.44194 12.5986 7.71872 12.4473 7.92167 12.2923C7.96963 12.2554 8.89949 12.1226 9.13933 12.0488C10.7038 11.5691 13.2351 10.4105 13.807 8.74634C14.5155 6.67632 11.7776 5.60994 10.2242 5.25202C6.96598 4.4956 3.32407 4.90148 0.0400698 5.2963C0.132317 4.824 -0.0853863 3.77976 0.0400698 3.39232Z" fill="#07307A"/>
<path d="M20.0537 14.6386C19.9984 14.8157 18.408 15.2105 18.1239 15.2769C13.7219 16.299 5.48975 16.561 1.72976 13.7456C-0.871609 11.7974 -0.244328 8.45065 2.40501 6.90828C4.60418 5.62789 7.46384 5.74597 9.87334 6.31421C10.1206 6.37325 10.5412 6.40277 10.6704 6.62416C9.07263 6.84555 5.50082 8.83809 5.35692 10.565C5.30526 11.1885 5.5451 11.7383 5.93254 12.2033C7.93246 14.6128 14.434 14.1257 17.2457 13.6829C18.194 13.5316 19.1128 13.2291 20.0611 13.0888V14.6386H20.0537Z" fill="#B0B8BF"/>
<path d="M20.0531 5.29525C18.6583 3.32854 16.1492 2.55366 13.8726 2.13302C9.42993 1.31017 4.65891 1.48729 0.179389 1.919C0.00596412 1.84152 0.0465529 1.68285 0.0354832 1.53526C-0.0383145 0.612784 0.389712 0.107269 1.31956 0.0666807H18.7727C19.2044 0.0150223 20.0531 0.450429 20.0531 0.911665V5.29525Z" fill="#B0B8BF"/>
<path d="M0.0410156 13.707C1.6535 16.146 4.77883 16.9099 7.53517 17.2383C11.7121 17.7364 16.0072 17.2383 20.055 16.1866V17.8249C20.055 18.0759 19.5273 18.622 19.2174 18.5814L0.657227 18.5408C0.465352 18.5113 0.0410156 17.9541 0.0410156 17.8286V13.7107V13.707Z" fill="#07307A"/>
</g>
<defs>
<clipPath id="clip0_3303_26655">
<rect width="90" height="18.6745" fill="white"/>
</clipPath>
</defs>
</svg>
