<svg width="309" height="105" viewBox="0 0 309 105" fill="none" xmlns="http://www.w3.org/2000/svg">
<mask id="mask0_316_1655" style="mask-type:luminance" maskUnits="userSpaceOnUse" x="0" y="0" width="309" height="105">
<path d="M308.892 0H0V104.414H308.892V0Z" fill="white"/>
</mask>
<g mask="url(#mask0_316_1655)">
<path d="M50.7404 25.7182H39.4008C36.0259 25.7182 33.2971 22.9847 33.2971 19.6149V8.27445C33.2974 4.90731 36.0262 2.17383 39.4011 2.17383H50.7407C54.1109 2.17383 56.8416 4.90731 56.8416 8.27445V19.6149C56.8416 22.9847 54.1106 25.7182 50.7404 25.7182Z" fill="#406EB3"/>
<path d="M21.4106 51.1356H8.65362C4.8636 51.1356 1.78882 48.0695 1.78882 44.273V31.5125C1.78882 27.7245 4.8636 24.6484 8.65362 24.6484H21.4106C25.2026 24.6484 28.2763 27.7245 28.2763 31.5125V44.273C28.2763 48.0695 25.2026 51.1356 21.4106 51.1356Z" fill="#632678"/>
<path d="M20.1946 77.6144H12.4034C10.0871 77.6144 8.20483 75.7389 8.20483 73.4183V65.6299C8.20483 63.3063 10.0871 61.4277 12.4034 61.4277H20.1946C22.512 61.4277 24.3912 63.3063 24.3912 65.6299V73.4183C24.3912 75.7389 22.512 77.6144 20.1946 77.6144Z" fill="#982881"/>
<path d="M41.1239 102.237H31.9114C29.1728 102.237 26.9526 100.022 26.9526 97.279V88.0649C26.9526 85.322 29.1725 83.1064 31.9114 83.1064H41.1239C43.8625 83.1064 46.0824 85.3217 46.0824 88.0649V97.279C46.0824 100.022 43.8625 102.237 41.1239 102.237Z" fill="#BA2F7D"/>
<path d="M74.8834 30.3579H68.5004C66.6039 30.3579 65.0679 28.8173 65.0679 26.9268V20.5514C65.0679 18.6548 66.6039 17.1143 68.5004 17.1143H74.8834C76.7784 17.1143 78.3117 18.6548 78.3117 20.5514V26.9268C78.3117 28.817 76.7787 30.3579 74.8834 30.3579Z" fill="#BA2F7D"/>
<path d="M214.561 34.6176C216.59 34.6176 218.233 32.9751 218.233 30.9411C218.233 28.9102 216.59 27.2598 214.561 27.2598C212.532 27.2598 210.875 28.9102 210.875 30.9411C210.875 32.9754 212.531 34.6176 214.561 34.6176Z" fill="#26478D"/>
<path d="M80.2918 73.8559C79.7227 74.7095 78.7982 75.1354 77.8023 75.1354C77.2348 75.1354 76.5939 74.9935 76.0963 74.7095C75.3147 74.2107 74.7447 73.1452 74.7447 72.0784C74.7447 71.5796 74.8876 71.0816 75.1718 70.656L83.7057 57.2177L75.1718 43.7788C74.8879 43.3523 74.7447 42.7832 74.7447 42.2847C74.7447 41.29 75.2436 40.2233 76.168 39.7244C76.6651 39.4405 77.1639 39.2985 77.7315 39.2985C78.7271 39.2985 79.7227 39.7244 80.2918 40.5792L87.2603 51.5998L94.2988 40.5792C94.8685 39.7244 95.8644 39.2985 96.86 39.2985C97.4288 39.2985 97.9268 39.4405 98.4235 39.7244C99.348 40.2233 99.845 41.29 99.845 42.2847C99.845 42.7832 99.703 43.3523 99.4191 43.7788L90.8861 57.2177L99.4191 70.656C99.703 71.0816 99.845 71.5796 99.845 72.0784C99.845 73.1452 99.2771 74.2107 98.4943 74.7095C97.9976 74.9935 97.3568 75.1354 96.788 75.1354C95.7936 75.1354 94.8685 74.7095 94.2988 73.8559L87.2603 62.9055L80.2918 73.8559ZM110.713 43.494C113.913 40.5792 118.25 38.8018 122.943 38.8018C133.184 38.8018 141.361 46.9793 141.361 57.2177C141.361 67.3163 133.184 75.4923 122.943 75.4923C118.25 75.4923 113.913 73.7139 110.713 70.7989V86.5135C110.713 88.0779 109.291 89.4283 107.657 89.4283C106.162 89.4283 104.67 88.0779 104.67 86.5135V42.0007C104.67 40.4373 106.162 39.0857 107.657 39.0857C109.291 39.0857 110.713 40.437 110.713 42.0007V43.494ZM122.943 44.9179C116.117 44.9179 110.713 50.32 110.713 57.2177C110.713 64.0443 116.117 69.4473 122.943 69.4473C129.842 69.4473 135.244 64.0443 135.244 57.2177C135.244 50.32 129.842 44.9179 122.943 44.9179ZM193.42 53.8759V72.2915C193.42 73.8559 191.925 75.2066 190.433 75.2066C188.796 75.2066 187.375 73.8559 187.375 72.2915V42.0007C187.375 40.4361 188.796 39.0857 190.433 39.0857C191.856 39.0857 193.347 40.3652 193.42 41.8588C195.908 39.9393 199.108 38.8717 202.592 38.8018C204.512 38.8018 205.932 40.2941 205.932 41.7876C205.932 43.4219 204.441 44.9161 202.592 44.9161C197.828 45.0581 193.42 46.7653 193.42 53.8759ZM214.606 39.0857C212.972 39.0857 211.55 40.4361 211.55 42.0007V72.2915C211.55 73.8559 212.972 75.2066 214.606 75.2066C216.101 75.2066 217.593 73.8559 217.593 72.2915V42.0007C217.593 40.4361 216.101 39.0857 214.606 39.0857ZM253.22 42.0007C253.22 40.4361 254.639 39.0857 256.276 39.0857C257.769 39.0857 259.262 40.4361 259.262 42.0007V72.2915C259.262 73.8559 257.769 75.2066 256.276 75.2066C254.639 75.2066 253.22 73.8559 253.22 72.2915V70.798C249.949 73.713 245.68 75.4905 240.986 75.4905C230.747 75.4905 222.57 67.3154 222.57 57.0758C222.57 46.9793 230.747 38.8018 240.986 38.8018C245.68 38.8018 249.949 40.5792 253.22 43.4952V42.0007ZM240.986 69.3762C247.813 69.3762 253.22 63.9723 253.22 57.0758C253.22 50.2492 247.813 44.8459 240.986 44.8459C234.09 44.8459 228.687 50.2488 228.687 57.0758C228.687 63.9726 234.09 69.3762 240.986 69.3762ZM290.051 54.2306C290.051 49.1836 285.642 44.7738 280.593 44.7738C275.687 44.7738 271.135 46.7653 271.135 53.8759V72.2915C271.135 73.8559 269.643 75.2066 268.148 75.2066C266.512 75.2066 265.092 73.8559 265.092 72.2915V42.0007C265.092 40.4361 266.512 39.0857 268.148 39.0857C269.571 39.0857 271.064 40.3652 271.135 41.8588C273.696 39.8664 276.967 38.8018 280.52 38.8018C288.769 38.8018 296.094 45.273 296.094 53.377V72.2912C296.094 73.8556 294.603 75.2063 293.109 75.2063C291.472 75.2063 290.051 73.8556 290.051 72.2912V54.2306ZM73.0637 56.0811C72.9217 46.7653 64.6037 38.8018 54.7906 38.8018C44.5501 38.8018 36.374 46.9793 36.374 57.0758C36.374 67.3151 44.5501 75.4902 54.7906 75.4902C59.6962 75.4902 64.2486 73.5711 67.5184 70.3009C68.1584 69.7322 68.5852 68.8785 68.5852 68.0249C68.5852 66.3906 67.1628 64.9679 65.5272 64.9679C64.6037 64.9679 63.7498 65.5367 63.1102 66.1775C61.0469 68.3806 57.9902 69.3762 54.7906 69.3762C48.6766 69.3762 43.7022 65.1859 42.6318 59.3573H70.0787C70.0989 59.3573 70.1172 59.3503 70.1373 59.3503H70.2204C70.2711 59.3454 70.3217 59.328 70.3736 59.3201C70.479 59.3048 70.5834 59.2895 70.6848 59.259C71.9808 58.9106 73.0637 57.6708 73.0637 56.0811ZM54.7906 44.8462C60.3047 44.8462 64.8855 48.3847 66.4487 53.3153H43.0596C44.623 48.3847 49.2099 44.8462 54.7906 44.8462ZM182.259 56.0811C182.115 46.7653 173.796 38.8018 163.984 38.8018C153.744 38.8018 145.564 46.9793 145.564 57.0758C145.564 67.3151 153.744 75.4902 163.984 75.4902C168.89 75.4902 173.441 73.5711 176.711 70.3009C177.352 69.7322 177.777 68.8785 177.777 68.0249C177.777 66.3906 176.356 64.9679 174.722 64.9679C173.796 64.9679 172.941 65.5367 172.303 66.1775C170.24 68.3806 167.182 69.3762 163.984 69.3762C157.871 69.3762 152.894 65.1859 151.825 59.3573H179.225C179.243 59.3573 179.264 59.3503 179.282 59.3503H179.413C179.495 59.3436 179.575 59.3179 179.656 59.3017C179.698 59.2926 179.74 59.2895 179.781 59.2773C181.119 58.968 182.259 57.7093 182.259 56.0811ZM163.984 44.8462C169.497 44.8462 174.079 48.3847 175.644 53.3153H152.251C153.815 48.3847 158.402 44.8462 163.984 44.8462ZM303.721 68.6758C301.874 68.6758 300.313 70.1889 300.313 71.9792C300.313 73.7692 301.874 75.2823 303.721 75.2823C305.604 75.2823 307.137 73.8003 307.137 71.9792C307.137 70.1578 305.604 68.6758 303.721 68.6758ZM306.539 71.9792C306.539 73.4508 305.275 74.6476 303.721 74.6476C302.2 74.6476 300.963 73.4505 300.963 71.9792C300.963 70.5079 302.2 69.3111 303.721 69.3111C305.275 69.3111 306.539 70.5082 306.539 71.9792ZM304.276 72.2891C304.646 72.0644 304.866 71.6672 304.866 71.212C304.866 70.522 304.34 70.002 303.641 70.002H303.15C302.882 70.002 302.687 70.2127 302.687 70.5027V73.6056C302.687 73.7851 302.84 73.9316 303.029 73.9316C303.219 73.9316 303.362 73.7915 303.362 73.6056V72.4549H303.617L304.224 73.7503C304.276 73.8608 304.389 73.9319 304.514 73.9319C304.566 73.9319 304.624 73.9185 304.667 73.899C304.786 73.8522 304.866 73.7402 304.866 73.6141C304.866 73.5747 304.866 73.5301 304.838 73.4755L304.276 72.2891ZM304.188 71.212C304.188 71.212 304.185 71.7951 303.65 71.7951H303.362V70.6536H303.65C304.185 70.6536 304.188 71.1891 304.188 71.212Z" fill="#26478D"/>
</g>
</svg>
