<svg width="373" height="146" viewBox="0 0 373 146" fill="none" xmlns="http://www.w3.org/2000/svg">
<path d="M37.3 37.3563C39.0484 29.5591 40.6803 22.6929 46.625 16.8741C50.7047 12.9174 56.0665 10.5898 61.7781 10.5898C61.7781 10.5898 63.9928 10.5898 65.3915 10.8226L64.9253 13.732C64.9253 13.732 61.8947 13.2665 60.0297 13.732C57.5818 14.3139 56.1831 15.3613 54.4347 16.9905C51.2875 20.1327 50.2384 23.7403 48.2568 32.2358L41.9625 60.3988H57.6984L56.7659 64.1228H41.03L31.1222 107.88C29.3737 115.677 27.7418 122.544 21.7972 128.362C17.7175 132.319 12.3556 134.647 6.52746 134.647H4.5459L5.59496 131.388C6.17777 131.388 6.87715 131.388 7.3434 131.272C10.4906 130.806 12.5887 129.759 14.3371 127.431C17.2512 123.707 17.9506 121.38 20.0487 113.001L31.0056 64.2392H15.6193L16.5518 60.5152H31.9381L37.3 37.3563Z" fill="#AAD63E"/>
<path d="M251.076 78.3215H228.696C230.211 72.6191 234.873 63.5418 243.149 63.5418C252.125 63.4254 252.358 72.5027 251.076 78.3215ZM243.965 58.8867C232.192 58.8867 221.702 66.8003 219.254 79.2525C215.058 100.433 230.794 104.39 237.438 104.39C243.149 104.39 247.579 102.411 250.959 99.8511L247.928 96.3598C245.481 97.8727 242.8 98.9201 239.652 98.9201C228.696 98.9201 227.18 89.61 227.763 83.0929H259.235C262.499 72.6191 259.002 58.8867 243.965 58.8867Z" fill="#AAD63E"/>
<path d="M115.047 27.1144C115.047 27.1144 101.876 83.6732 100.71 90.423C98.9615 100.897 104.44 102.41 107.354 102.875C112.716 103.69 116.213 102.759 116.213 102.759L116.796 99.2675C116.796 99.2675 114.814 99.9658 112.366 99.5003C108.986 98.9184 108.52 96.94 109.336 91.2376C110.385 84.6042 124.256 26.998 124.256 26.998H115.047V27.1144Z" fill="#AAD63E"/>
<path d="M278.235 27.1144C278.235 27.1144 265.063 83.6732 263.897 90.423C262.149 100.897 267.627 102.41 270.542 102.875C275.903 103.69 279.4 102.759 279.4 102.759L279.983 99.2675C279.983 99.2675 278.002 99.9658 275.554 99.5003C272.173 98.9184 271.707 96.94 272.523 91.2376C273.572 84.6042 287.443 26.998 287.443 26.998H278.235V27.1144Z" fill="#AAD63E"/>
<path d="M298.4 27.1144C298.4 27.1144 285.228 83.6732 284.063 90.423C282.314 100.897 287.676 102.41 290.707 102.875C296.069 103.69 299.566 102.759 299.566 102.759L300.148 99.2675C300.148 99.2675 298.167 99.9658 295.719 99.5003C292.339 98.9184 291.873 96.94 292.688 91.2376C293.738 84.6042 307.608 26.998 307.608 26.998H298.4V27.1144Z" fill="#AAD63E"/>
<path d="M83.5754 84.4886C82.5263 87.9799 78.3301 100.316 68.4222 100.316C56.6494 100.316 62.361 82.5102 63.2935 79.019C64.226 75.6441 68.5388 63.0754 78.0969 63.0754C89.6366 63.0754 84.6244 80.9973 83.5754 84.4886ZM88.8207 60.0497L87.7716 64.472H87.4219C85.0907 60.0497 80.7779 58.7695 76.3485 58.7695C62.9438 58.7695 55.2507 69.8252 53.036 80.4155C49.7722 95.5443 54.4347 104.273 67.0235 104.273C72.5019 104.273 76.6982 102.876 82.0601 97.9882L84.3913 102.876H88.8207L98.1457 60.0497H88.8207Z" fill="#AAD63E"/>
<path d="M154.212 84.4886C153.163 87.9799 148.967 100.316 139.059 100.316C127.286 100.316 132.998 82.5102 133.93 79.019C134.863 75.6441 139.175 62.9591 148.617 62.9591C160.273 63.0754 155.261 80.9973 154.212 84.4886ZM159.457 60.0497L158.408 64.472H158.175C155.844 60.0497 151.531 58.7695 147.102 58.7695C133.697 58.7695 126.004 69.8252 123.789 80.4155C120.525 95.5443 125.188 104.273 137.777 104.273C143.255 104.273 147.451 102.876 152.813 97.9882L155.144 102.876H159.574L168.899 60.0497H159.457Z" fill="#AAD63E"/>
<path d="M336.632 84.4886C335.583 87.9799 331.387 100.316 321.479 100.316C309.706 100.316 315.418 82.5102 316.35 79.019C317.283 75.6441 321.479 62.9591 331.037 62.9591C342.694 63.0754 337.681 80.9973 336.632 84.4886ZM341.878 60.0497L340.829 64.472H340.596C338.148 60.0497 333.951 58.7695 329.522 58.7695C316.117 58.7695 308.541 69.8252 306.21 80.4155C302.946 95.5443 307.608 104.273 320.197 104.273C325.676 104.273 329.872 102.876 335.234 97.9882L337.565 102.876H341.994L351.319 60.0497H341.878Z" fill="#AAD63E"/>
<path d="M203.052 84.9549C202.119 88.4462 197.923 100.782 189.064 100.782C178.457 100.782 181.954 82.9765 182.887 79.4853C184.285 73.8992 187.433 63.7745 196.175 63.7745C208.064 63.7745 203.984 81.3473 203.052 84.9549ZM199.672 59.1195C194.426 59.1195 188.948 61.447 186.15 65.4038H185.801L194.543 27.2324H184.752C184.752 27.2324 171.114 86.1187 167.384 103.342H172.862L177.292 98.4545C180.555 103.342 184.052 104.739 189.647 104.739C202.236 104.739 210.512 96.0106 213.776 80.8818C216.107 70.1752 213.076 59.1195 199.672 59.1195Z" fill="#AAD63E"/>
<path d="M356.448 96.4762C356.448 93.2177 359.129 90.541 362.393 90.541C365.656 90.541 368.337 93.2177 368.337 96.4762C368.337 99.7347 365.656 102.411 362.393 102.411C359.012 102.411 356.448 99.8511 356.448 96.4762Z" fill="#AAD63E"/>
</svg>
