<svg width="250" height="80" viewBox="0 0 250 80" fill="none" xmlns="http://www.w3.org/2000/svg">
<path fill-rule="evenodd" clip-rule="evenodd" d="M238.804 31.4934C241.341 33.9576 243.32 36.8655 244.64 40.2662C246.01 43.6176 246.669 47.2647 246.619 51.1582C246.619 55.1011 245.908 58.7482 244.538 62.1489C243.168 65.5003 241.189 68.4574 238.652 70.971C236.115 73.4845 233.07 75.4559 229.467 76.8852C225.915 78.3145 221.906 79.0538 217.491 79.0538C213.026 79.0538 209.017 78.3638 205.465 76.9345C201.913 75.5545 198.868 73.5831 196.331 71.1188C193.794 68.6545 191.865 65.7467 190.495 62.346C189.125 58.9453 188.465 55.3475 188.465 51.4539C188.465 47.5604 189.176 43.9133 190.597 40.5126C190.901 39.6748 191.307 38.8864 191.713 38.0979L191.713 38.0976H184.101V51.1089C184.101 55.0518 183.391 58.6989 182.021 62.0996C180.651 65.451 178.672 68.4081 176.135 70.9217C173.597 73.4352 170.553 75.4066 166.95 76.8359C163.398 78.2652 159.389 79.0045 154.974 79.0045C150.509 79.0045 146.5 78.3145 142.948 76.8852C139.395 75.5052 136.351 73.5338 133.814 71.0695C131.276 68.6053 129.348 65.6974 127.978 62.2967C126.608 58.896 125.948 55.2982 125.948 51.4047C125.948 47.5111 126.659 43.864 128.079 40.4633C129.5 37.0626 131.479 34.1055 134.067 31.5919C136.655 29.0784 139.7 27.107 143.201 25.6777C146.703 24.2484 150.661 23.5091 154.923 23.5091H165.732C166.696 23.5091 167.508 22.7206 167.508 21.7841V2.56284C167.508 1.13356 168.675 0 170.147 0H181.564C183.036 0 184.203 1.13356 184.203 2.56284V23.5584H217.288H217.441C221.957 23.5584 226.016 24.2484 229.619 25.6777C233.171 27.0577 236.267 29.0291 238.804 31.4934ZM167.508 51.355C167.508 53.2279 167.254 54.9529 166.696 56.5793C166.138 58.2057 165.326 59.5857 164.209 60.7686C163.144 61.9514 161.824 62.8385 160.251 63.5285C158.729 64.2185 157.004 64.5142 155.075 64.5142C153.249 64.5142 151.523 64.1692 150.001 63.5285C148.479 62.8385 147.159 61.9514 146.043 60.7686C144.926 59.5857 144.115 58.2057 143.455 56.5793C142.846 54.9529 142.542 53.2279 142.542 51.355C142.542 49.4822 142.795 47.7572 143.353 46.1308C143.912 44.5044 144.724 43.1244 145.84 41.8923C146.956 40.7094 148.225 39.773 149.747 39.083C151.27 38.393 152.944 38.0973 154.923 38.0973H165.681C166.645 38.0973 167.457 38.8858 167.457 39.8223V51.355H167.508ZM229.213 56.5793C228.655 58.2057 227.843 59.5857 226.727 60.7686C225.661 61.9514 224.342 62.8385 222.769 63.5285C221.246 64.2185 219.521 64.5142 217.593 64.5142C215.766 64.5142 214.041 64.1692 212.518 63.5285C210.996 62.8385 209.676 61.9514 208.56 60.7686C207.444 59.5857 206.632 58.2057 205.972 56.5793C205.363 54.9529 205.059 53.2279 205.059 51.355C205.059 49.4822 205.312 47.7572 205.871 46.1308C206.429 44.5044 207.241 43.1244 208.357 41.8923C209.474 40.7094 210.742 39.773 212.264 39.083C213.787 38.393 215.512 38.0973 217.491 38.0973C219.318 38.0973 221.043 38.4423 222.566 39.083C224.088 39.773 225.407 40.7094 226.524 41.8923C227.64 43.0751 228.452 44.5044 229.061 46.1308C229.67 47.7572 229.974 49.4822 229.974 51.355C230.025 53.2279 229.721 54.9529 229.213 56.5793ZM114.175 31.444C111.638 28.9798 108.543 27.0084 104.991 25.6284C101.388 24.1991 97.3282 23.5091 92.812 23.5091C88.5494 23.5091 84.6421 24.2484 81.1407 25.6776C77.6393 27.1069 74.5947 29.0783 72.0067 31.5919C69.4187 34.1054 67.4397 37.0626 66.0188 40.4633C64.598 43.864 63.8876 47.5111 63.8876 51.4046V57.0232V75.7516C63.8876 77.2302 65.1054 78.413 66.6278 78.413H77.8423C79.3646 78.413 80.5825 77.2302 80.5825 75.7516V57.0232V51.4046C80.5825 49.5318 80.8362 47.7082 81.3944 46.0818C81.9526 44.4554 82.7645 43.0754 83.8809 41.8433C84.9973 40.6604 86.2659 39.724 87.7882 39.034C89.3106 38.344 91.0359 38.0483 93.0149 38.0483C94.8417 38.0483 96.5671 38.3933 98.0894 39.034C99.6117 39.724 100.931 40.6604 102.047 41.8433C103.164 43.0261 103.976 44.4554 104.585 46.0818C105.194 47.7082 105.498 49.4332 105.498 51.306V55.101V75.7516C105.498 77.2302 106.716 78.413 108.238 78.413H119.453C120.975 78.413 122.193 77.2302 122.193 75.7516V55.1503V51.3553C122.193 47.4618 121.533 43.6175 120.163 40.2661C118.641 36.8654 116.713 33.9576 114.175 31.444ZM48.9177 1.28138H52.3684C56.022 1.28138 58.9652 4.13993 58.9652 7.68848V9.6599C58.9652 13.2084 56.022 16.067 52.3684 16.067H48.9177C45.2641 16.067 42.3209 13.2084 42.3209 9.6599V7.68848C42.3209 4.13993 45.2641 1.28138 48.9177 1.28138ZM0 26.3186V30.36V35.3379C0 36.8657 1.26861 38.0978 2.8417 38.0978H7.91615V23.5587H2.8417C1.31936 23.5587 0 24.7908 0 26.3186ZM28.5186 23.6074H56.2758C57.7474 23.6074 58.9653 24.7902 59.016 26.2688V75.8006C59.016 77.2791 57.7982 78.462 56.2758 78.462H45.0613C43.5389 78.462 42.3211 77.2791 42.3211 75.8006V38.1958H28.2141C27.6559 38.1958 27.1992 38.6394 27.1992 39.1815V75.9484C27.1992 77.3284 26.0321 78.462 24.6112 78.462H13.0415C11.6206 78.462 10.4535 77.3284 10.4535 75.9484V29.4723C10.4535 10.9903 18.7756 1.77394 35.2168 1.28109C37.8556 1.18251 38.16 2.71036 38.16 3.44964V13.9474C38.16 14.6867 37.8556 16.0667 35.8765 16.1653C30.1424 16.5103 28.1633 19.7631 27.5037 22.3752C27.3514 23.0159 27.8589 23.6074 28.5186 23.6074ZM246.365 28.29V28.8328H246.619C246.822 28.8328 246.924 28.7341 246.924 28.5367C246.924 28.3887 246.822 28.29 246.619 28.29H246.365ZM246.365 30.8529V29.67H246.517L247.025 30.9021H248.09L247.532 29.4729C247.634 29.3743 247.735 29.2757 247.837 29.1279C247.938 28.98 247.989 28.7829 247.989 28.5857C247.989 28.2407 247.887 27.9943 247.684 27.7972C247.481 27.6 247.228 27.5014 246.822 27.5014H245.35V30.8529H246.365ZM244.183 29.1772C244.183 29.5221 244.234 29.8179 244.335 30.1136C244.437 30.4093 244.589 30.6557 244.792 30.8529C244.995 31.05 245.249 31.2471 245.553 31.3457C245.858 31.4443 246.162 31.5428 246.517 31.5428C247.278 31.5428 247.837 31.3457 248.243 30.9021C248.649 30.4586 248.852 29.9164 248.852 29.2264C248.852 28.5364 248.649 27.9943 248.192 27.5507C247.786 27.1072 247.177 26.91 246.416 26.91C246.061 26.91 245.756 26.9593 245.452 27.1072C245.204 27.1875 245.023 27.3333 244.827 27.4913C244.783 27.5271 244.737 27.5636 244.691 27.6C244.488 27.7972 244.335 28.0436 244.234 28.3393C244.234 28.4279 244.224 28.5464 244.212 28.6769C244.198 28.8366 244.183 29.0144 244.183 29.1772ZM243.574 27.9447C243.422 28.339 243.32 28.7333 243.32 29.1768C243.32 29.6204 243.422 30.064 243.625 30.4583C243.777 30.8525 243.98 31.1482 244.284 31.444C244.538 31.6904 244.893 31.9368 245.299 32.0847C245.705 32.2325 246.111 32.3311 246.618 32.3311C247.075 32.3311 247.532 32.2325 247.938 32.0847C248.344 31.8875 248.648 31.6904 248.953 31.3947C249.257 31.099 249.46 30.8033 249.612 30.409C249.765 30.0147 249.866 29.6204 249.866 29.1768C249.866 28.7333 249.765 28.339 249.612 27.9447C249.46 27.5504 249.257 27.2547 248.953 26.959C248.699 26.7126 248.344 26.4661 247.938 26.3183C247.532 26.1704 247.075 26.0719 246.568 26.0719C246.06 26.0719 245.654 26.1704 245.248 26.3183C244.842 26.4661 244.538 26.6633 244.234 26.959C243.929 27.2547 243.726 27.5504 243.574 27.9447Z" fill="#00A09B"/>
</svg>
