<svg width="919" height="82" viewBox="0 0 919 82" fill="none" xmlns="http://www.w3.org/2000/svg">
<path d="M106.381 80.0303V3.5791H156.155V14.9654H120.37V37.0875H151.601V48.1485H120.37V80.0303H106.381Z" fill="#333232"/>
<path d="M171.446 0C176.326 0 180.555 3.57857 180.555 8.45843C180.555 13.3383 176.651 16.9169 171.446 16.9169C166.241 16.9169 162.662 13.3383 162.662 8.45843C162.662 3.57857 166.566 0 171.446 0ZM164.939 80.0298V24.7246H178.278V80.0298H164.939Z" fill="#333232"/>
<path d="M190.965 24.724H204.303V34.1584C207.882 27.0013 214.388 23.748 222.196 23.748C235.86 23.748 242.691 33.8331 242.691 49.774V80.0291H229.353V49.4487C229.353 39.6889 225.449 34.8091 218.617 34.8091C211.786 34.8091 204.303 40.6649 204.303 52.3766V80.0291H190.965V24.724Z" fill="#333232"/>
<path d="M281.08 23.4238C297.346 23.4238 311.01 36.4368 311.01 52.3777C311.01 68.3186 297.021 81.3315 281.08 81.3315C265.139 81.3315 251.15 68.6439 251.15 52.3777C251.15 36.1115 264.814 23.4238 281.08 23.4238ZM281.08 69.9452C290.515 69.9452 297.672 62.1374 297.672 52.703C297.672 43.2686 290.515 35.4608 281.08 35.4608C271.646 35.4608 264.814 43.2686 264.814 52.703C264.814 62.1374 271.646 69.9452 281.08 69.9452Z" fill="#333232"/>
<path d="M347.771 80.0297H333.782L311.335 24.7246H325.975L340.614 65.0648L355.579 24.7246H370.219L347.771 80.0297Z" fill="#333232"/>
<path d="M430.078 24.7251V80.0302H416.74V71.5718C412.836 77.4276 406.004 81.0062 397.871 81.0062C381.605 81.0062 370.869 67.9932 370.869 52.0524C370.869 36.1115 381.28 23.4238 398.196 23.4238C415.113 23.4238 412.511 26.3517 417.065 32.8582V24.7251H430.078ZM400.474 69.9452C409.583 69.9452 417.065 63.764 417.065 52.703C417.065 41.642 410.233 34.8102 400.148 34.8102C390.063 34.8102 384.207 42.9433 384.207 52.3777C384.207 61.8121 390.389 69.9452 400.474 69.9452Z" fill="#333232"/>
<path d="M459.357 24.7245H475.949V35.1349H459.357V64.0888C459.357 67.342 460.659 69.9446 464.563 69.9446C468.466 69.9446 470.093 67.6673 470.093 64.4141C470.093 61.1609 469.768 61.1609 469.442 59.8596H480.503C481.479 61.8115 481.805 65.0647 481.805 66.0407C481.805 74.1738 476.274 81.331 464.237 81.331C452.2 81.331 446.019 77.4271 446.019 62.1368V35.1349H437.235V24.7245H446.67L448.947 10.085H459.357V24.7245Z" fill="#333232"/>
<path d="M541.665 70.5947C534.183 79.0532 525.074 81.3304 516.615 81.3304C496.77 81.3304 484.733 68.3175 484.733 52.7019C484.733 37.0863 497.421 23.748 514.989 23.748C532.556 23.748 543.942 33.1824 543.942 54.3285H498.072C498.072 63.1123 505.229 69.9441 516.94 69.9441C528.652 69.9441 528.977 67.3415 533.532 63.1123L541.665 70.5947ZM499.048 45.2194H530.604C528.652 36.761 520.844 34.1584 515.314 34.1584C509.783 34.1584 501.65 36.761 499.048 45.2194Z" fill="#333232"/>
<path d="M95.6453 3.90443C86.8616 3.90443 78.0778 4.55507 69.2941 5.85637C60.5103 7.48299 52.0519 9.43493 43.5934 12.6882C29.9298 17.568 17.2422 24.3999 5.53051 33.1836C3.57857 34.4849 1.95195 36.1115 0 37.4128C0.325324 37.4128 0.325324 37.7381 0.325324 37.7381C3.25324 39.6901 6.83181 41.9674 9.75973 44.2446C10.7357 44.8953 10.7357 44.2446 11.7117 43.9193C11.7117 43.9193 15.9409 40.9914 17.5675 39.6901C27.9779 32.533 39.0389 27.0024 50.7506 23.0986C62.4622 19.1947 74.8246 16.9174 87.1869 16.2667C90.4401 15.9414 93.368 15.9414 96.6213 15.9414V3.5791H95.6453V3.90443Z" fill="#89C3D9"/>
<path d="M72.547 38.3886C62.1366 40.3405 52.3769 43.5938 42.9425 48.4736C42.6172 48.4736 42.2919 49.1243 42.6172 49.4496C44.8944 52.3775 47.1717 55.3055 49.1237 58.2334C49.449 58.5587 49.7743 58.884 50.0996 58.5587C54.9795 56.2814 60.1847 54.3295 65.3899 52.7029C70.5951 51.0762 76.1256 49.7749 81.6561 49.1243C85.2346 48.799 88.8132 48.4737 92.3918 48.1483H96.621V36.1113C88.4879 36.1113 80.3548 37.0873 72.547 38.3886Z" fill="#89C3D9"/>
<path d="M96.6213 20.1709C88.1629 20.1709 79.7045 20.8215 71.5713 22.4482C66.6915 23.4241 61.4863 24.4001 56.9318 26.0267C56.6064 26.0267 56.2811 26.6774 56.6064 27.0027C58.8837 30.2559 60.8356 33.1839 63.1129 36.4371C63.4382 37.0878 63.7636 37.0878 64.4142 37.0878C69.9447 35.4611 75.8006 34.4852 81.6564 33.8345C85.5603 33.5092 89.4642 33.1839 93.6934 32.8585H97.272L96.6213 20.1709Z" fill="#89C3D9"/>
<path d="M78.4033 53.6784C76.7767 54.0037 75.15 54.329 73.8487 54.6544C73.5234 54.6544 73.1981 54.6544 73.5234 55.305C74.8247 58.5582 76.4513 62.1368 77.7526 65.3901C78.078 65.3901 78.078 66.0407 78.7286 66.0407C84.5844 64.7394 90.7656 64.0887 96.9468 64.0887V52.0518C90.4403 52.0518 84.5844 52.7024 78.4033 53.6784Z" fill="#89C3D9"/>
<path d="M79.7044 69.6196C79.379 69.6196 79.0537 69.6196 79.0537 70.5956C80.0297 73.8489 81.0057 77.1021 81.9816 80.6807C81.9816 80.6807 82.6323 81.3313 82.9576 81.3313C86.8615 80.6807 90.4401 80.3553 94.3439 80.03H96.2959V68.3184C91.0907 68.3184 85.5602 68.3184 79.7044 69.6196Z" fill="#89C3D9"/>
<path d="M546.545 79.0527L576.149 2.60156H590.789L620.394 79.0527H606.079L600.223 64.0878H566.715L561.185 79.0527H546.545ZM583.307 16.5905L570.294 52.7015H595.994L583.307 16.5905Z" fill="#89C3D9"/>
<path d="M654.228 25.3747H664.313L675.699 60.835L687.736 23.748H702.376L682.531 79.0532H670.494L659.433 44.2435L648.372 79.0532H636.335L616.49 23.748H630.804L642.841 60.835L654.228 25.3747Z" fill="#89C3D9"/>
<path d="M762.235 23.7486V79.0537H748.897V70.5952C744.993 76.4511 738.161 80.0297 730.028 80.0297C713.762 80.0297 703.026 67.0167 703.026 51.0758C703.026 35.1349 713.437 22.4473 730.354 22.4473C747.27 22.4473 744.668 25.3752 749.222 31.8817V23.7486H762.235ZM732.631 68.9686C741.74 68.9686 749.222 62.7875 749.222 51.7264C749.222 40.6654 742.391 33.8336 732.306 33.8336C722.22 33.8336 716.365 41.9667 716.365 51.4011C716.365 60.8355 722.546 68.9686 732.631 68.9686Z" fill="#89C3D9"/>
<path d="M786.959 36.1108C788.911 26.6764 796.068 22.7725 801.924 22.7725C807.78 22.7725 804.852 23.0978 806.479 23.4231V36.7614C804.527 36.1108 801.924 35.7854 800.298 35.7854C795.418 35.7854 787.285 38.388 787.285 53.6783V79.3789H773.946V24.0738H787.285V36.1108H786.959Z" fill="#89C3D9"/>
<path d="M867.966 0V79.0538H854.628V70.5953C850.724 76.4512 843.567 80.0298 835.759 80.0298C819.493 80.0298 808.757 67.0168 808.757 51.0759C808.757 35.135 818.842 22.4474 835.759 22.4474C852.676 22.4474 850.073 25.3753 854.628 31.8818V0H867.966ZM838.361 68.9687C847.47 68.9687 854.628 62.7876 854.628 51.7265C854.628 40.6655 847.796 33.8337 837.711 33.8337C827.626 33.8337 821.77 41.9668 821.77 51.4012C822.095 61.161 828.276 68.9687 838.361 68.9687Z" fill="#89C3D9"/>
<path d="M885.533 61.4859C886.834 67.0164 892.365 69.619 897.244 69.619C902.124 69.619 905.703 68.3177 905.703 63.7632C905.703 59.2086 903.1 59.2086 899.847 57.9073L891.714 54.9794C880.653 50.7502 877.725 44.5691 877.725 39.6892C877.725 29.2788 886.509 23.0977 897.895 23.0977C909.281 23.0977 913.511 25.3749 917.089 35.46L906.354 39.3639C905.052 34.8093 900.823 33.8334 897.895 33.8334C894.967 33.8334 890.738 35.7853 890.738 39.6892C890.738 43.5931 893.341 44.2437 896.594 45.2197L904.727 48.1476C916.439 52.0515 918.716 59.2086 918.716 64.0885C918.716 75.1495 908.631 81.0054 896.919 81.0054C885.207 81.0054 877.725 77.4268 874.472 66.6911L885.533 61.4859Z" fill="#89C3D9"/>
</svg>
