<svg width="328" height="93" viewBox="0 0 328 93" fill="none" xmlns="http://www.w3.org/2000/svg">
<path d="M4.24023 68.5004H16.8302V42.5504H42.1602V31.4204H16.8302V16.0304H45.0202V4.90039H4.24023V68.5004Z" fill="#2A2931"/>
<path d="M64.2098 24.9395H51.5298V68.4995H64.2098V24.9395Z" fill="#2A2931"/>
<path d="M64.3898 4.90039H51.5298V16.5404H64.3898V4.90039Z" fill="#2A2931"/>
<path d="M271.53 24.9395H258.85V68.4995H271.53V24.9395Z" fill="#2A2931"/>
<path d="M271.71 4.90039H258.85V16.5404H271.71V4.90039Z" fill="#2A2931"/>
<path d="M97.0799 24.0492C90.6099 23.3192 85.7299 26.7292 82.7899 29.6992V24.9492H70.1099V68.5092H82.7899V44.0692C82.7899 44.0692 82.7899 34.5992 91.5399 34.5992C96.2799 34.5992 98.8199 37.6892 100.15 40.5292C101.11 42.5792 101.54 44.8492 101.54 47.1092V68.5092H112.79C112.79 68.5092 112.97 42.6392 112.79 38.3492C112.61 34.0592 108.15 25.3092 97.0699 24.0592L97.0799 24.0492Z" fill="#2A2931"/>
<path d="M138.16 10.7305H125.72V24.9505H118.69V36.7105H125.72V51.3505C125.72 55.3905 127.28 59.2605 130.08 62.1705L140.84 73.3605L148.88 65.5005L141.65 56.5805C139.4 53.8005 138.16 50.3305 138.16 46.7505V36.7205H148.88V24.9605H138.16V10.7405V10.7305Z" fill="#2A2931"/>
<path d="M177.63 23.9492C165.05 23.9492 154.86 34.1392 154.86 46.7192C154.86 59.2992 165.05 69.4892 177.63 69.4892C190.21 69.4892 200.4 59.2992 200.4 46.7192C200.4 34.1392 190.21 23.9492 177.63 23.9492ZM177.63 59.5692C170.53 59.5692 164.78 53.8192 164.78 46.7192C164.78 39.6192 170.53 33.8692 177.63 33.8692C184.73 33.8692 190.48 39.6192 190.48 46.7192C190.48 53.8192 184.73 59.5692 177.63 59.5692Z" fill="#2A2931"/>
<path d="M230.68 23.9492C225.91 23.9492 221.49 25.4192 217.83 27.9292V24.9492H205.99V87.8392H217.83V65.5292C221.49 68.0392 225.91 69.5092 230.68 69.5092C243.26 69.5092 253.45 59.3192 253.45 46.7392C253.45 34.1592 243.26 23.9692 230.68 23.9692V23.9492ZM230.68 59.5692C223.58 59.5692 217.83 53.8192 217.83 46.7192C217.83 39.6192 223.58 33.8692 230.68 33.8692C237.78 33.8692 243.53 39.6192 243.53 46.7192C243.53 53.8192 237.78 59.5692 230.68 59.5692Z" fill="#2A2931"/>
<path d="M317 55.6909C317 55.6909 317.69 42.5609 316.92 38.3409C316.15 34.1209 312.08 26.4509 301.2 24.0509C287.74 21.0809 278.48 30.0709 278.48 30.0709L285.16 37.9709C285.16 37.9709 287.74 32.9409 296.33 33.8609C301.77 34.4509 304.08 38.2609 305.02 41.5509C305.11 41.8509 305.18 42.1309 305.24 42.4109C286.92 35.7809 278.17 46.7009 278.17 46.7009C278.17 46.7009 272.06 52.6809 277.51 61.4309C282.96 70.1909 297.89 70.3009 303.95 68.1009C305.59 67.5009 307.77 65.8309 309.73 63.5809L314.69 70.5709L323.72 61.2609L316.99 55.6609L317 55.6909ZM294.66 61.0009C283.75 60.9309 285.76 51.9709 290.62 50.0909C295.3 48.2809 298.62 49.4709 302.14 50.1709C304.3 50.6009 305.8 50.6809 305.8 50.6809C305.8 50.6809 305.58 61.0709 294.66 61.0009Z" fill="#2A2931"/>
</svg>
