<svg width="95" height="16" viewBox="0 0 95 16" fill="none" xmlns="http://www.w3.org/2000/svg">
<g clip-path="url(#clip0_3303_26746)">
<path d="M10.3865 9.83482L9.34765 11.2125C4.01289 15.1995 -2.01821 9.1778 0.654791 3.3732C2.79993 -1.28583 10.6037 -1.20347 11.7137 4.15002C11.3505 4.08263 10.4464 4.87255 10.1919 4.67975C10.117 4.62359 10.0103 4.07889 9.9298 3.89732C8.0149 -0.490292 1.45594 1.39653 1.76105 6.66578C2.06429 11.9088 8.64758 12.5584 9.81936 7.5624H5.4617V6.0462H11.8091V12.3H10.3884V9.83669L10.3865 9.83482Z" fill="#0040EC"/>
<path d="M43.2623 4.14376L41.7499 4.81388C40.8383 0.160471 34.5826 0.641536 33.7215 5.17141C33.0121 8.902 36.4525 12.5577 40.0147 10.4219C41.0404 9.8061 41.3942 8.82525 41.7948 7.7583L43.2249 8.41345C41.9951 13.7557 34.5245 13.7407 32.4468 8.95254C30.9998 5.62065 32.4356 1.3753 36.0632 0.313963C39.2266 -0.612601 42.5323 0.7969 43.2623 4.14563V4.14376Z" fill="#0040EC"/>
<path d="M62.9723 12.2962V6.46915C62.9723 6.39428 62.6728 5.82523 62.5942 5.73539C62.1132 5.18881 60.9638 5.24683 60.4697 5.76721C60.3312 5.91508 60.0335 6.486 60.0335 6.65821V12.2962H58.5173V6.84726C58.5173 6.7986 58.3826 6.25014 58.3507 6.16217C57.952 5.07275 56.2187 5.10083 55.7208 6.13596C55.6834 6.21645 55.4849 6.80983 55.4849 6.84726V12.2962H53.9688V4.05447H55.4849C55.5317 4.05447 55.4494 4.89118 55.4849 5.00162C56.5257 3.52473 58.9516 3.50976 59.7003 5.28427C60.8178 3.40119 63.9214 3.37311 64.4605 5.73726C64.7038 6.80608 64.7188 10.8193 64.584 11.9705C64.5728 12.066 64.5409 12.2981 64.4361 12.2981H62.9667L62.9723 12.2962Z" fill="#0040EC"/>
<path d="M79.7913 4.05469L82.0188 9.26591C82.5841 8.78297 84.2389 4.05469 84.529 4.05469H86.092L80.9762 15.6133H79.271L81.1653 11.31L78.1348 4.05469H79.7932H79.7913Z" fill="#0040EC"/>
<path d="M75.5762 0.171875H77.0456L77.1878 12.0637C77.1841 12.4737 75.5762 12.3295 75.5762 12.1592V0.171875Z" fill="#0141EC"/>
<path d="M47.6991 3.98762C42.9222 4.56602 43.2722 12.7554 48.7137 12.4858C54.1589 12.2181 54.0204 3.22204 47.6991 3.98762ZM48.0941 11.0239C45.1946 10.5765 45.2863 5.84262 47.8845 5.40461C52.1335 4.68769 51.9071 11.6135 48.0941 11.0239Z" fill="#0040EC"/>
<path d="M73.8568 6.01214C72.7618 3.55441 69.5815 3.25117 67.8519 5.19227C67.7078 4.95268 67.9286 4.24512 67.7171 4.09724C67.5767 4.00178 66.1953 4.00365 66.1953 4.19832V15.6166H67.8051V11.2571C69.4748 13.0896 72.5222 12.7789 73.722 10.5888C74.4258 9.30098 74.4502 7.3449 73.8568 6.01214ZM69.3213 10.8303C66.9272 9.8513 67.3727 5.83619 69.6751 5.40566C74.0758 4.58392 73.5124 12.543 69.3213 10.8303Z" fill="#0040EC"/>
<path d="M25.8099 3.98352C21.2969 4.59375 21.353 12.2328 26.4501 12.4836C32.2565 12.7718 32.3763 3.0944 25.8099 3.98352ZM25.9072 10.9431C23.3671 10.1681 23.5674 5.83291 26.0926 5.40238C30.4933 4.6499 29.9261 12.171 25.9072 10.9431Z" fill="#0040EC"/>
<path d="M13.1486 8.6381C13.4837 12.5989 18.4834 13.8269 20.7371 10.6616C20.8419 10.5137 21.2537 9.87913 21.1489 9.735C21.0197 9.55343 19.9733 9.41491 19.7169 9.28576C18.5788 12.0617 14.9063 11.3673 14.7471 8.41348H21.2836C21.7348 2.315 12.6263 2.48346 13.1486 8.6381ZM14.9362 7.27539C15.2675 4.7484 19.3219 4.67352 19.5784 7.27539H14.9362Z" fill="#0040EC"/>
<path d="M88.8418 1.87891H93.3885V2.637H89.6935V4.76904C89.6935 5.25759 90.5826 6.68394 91.1404 6.60345C91.7244 6.51922 92.5911 5.05169 92.5368 4.43772H90.6406V3.58416H93.2949C93.4166 4.79337 93.0853 5.95392 92.2074 6.80935C92.0539 6.95723 91.3014 7.52814 91.1404 7.55248C90.811 7.60114 89.774 6.62217 89.5587 6.32642C89.2686 5.92958 88.8418 4.85889 88.8418 4.38905V1.87891Z" fill="#0040EC"/>
<path d="M87.1348 0.171875V4.48274C87.1348 6.27597 88.505 8.06171 89.9856 8.92838C91.0189 9.53298 91.1181 9.52362 92.1588 8.93774C93.3624 8.262 95.0003 6.40138 95.0003 4.95632V0.171875H87.1348ZM94.3358 4.29368C94.3358 5.93155 93.0273 7.77532 91.5579 8.43047C90.8635 8.74119 90.3656 8.31628 89.7965 7.88576C88.8644 7.1782 87.8929 5.69008 87.8929 4.48274V1.07223C87.8929 1.04603 88.0052 0.978641 88.0351 0.929973H94.1935C94.2047 0.929973 94.3358 1.061 94.3358 1.07223V4.29368Z" fill="#0040EC"/>
<path d="M89.6935 2.637V4.76904C89.6935 5.25759 90.5826 6.68394 91.1404 6.60345C91.7244 6.51922 92.5911 5.05169 92.5368 4.43772H90.6406V3.58416H93.2949C93.4166 4.79337 93.0853 5.95392 92.2074 6.80935C92.0539 6.95723 91.3014 7.52814 91.1404 7.55248C90.811 7.60114 89.774 6.62217 89.5587 6.32642C89.2686 5.92958 88.8418 4.85889 88.8418 4.38905V1.87891H93.3885V2.637H89.6935Z" fill="#FEFEFE"/>
<path d="M89.6935 2.637V4.76904C89.6935 5.25759 90.5826 6.68394 91.1404 6.60345C91.7244 6.51922 92.5911 5.05169 92.5368 4.43772H90.6406V3.58416H93.2949C93.4166 4.79337 93.0853 5.95392 92.2074 6.80935C92.0539 6.95723 91.3014 7.52814 91.1404 7.55248C90.811 7.60114 89.774 6.62217 89.5587 6.32642C89.2686 5.92958 88.8418 4.85889 88.8418 4.38905V1.87891H93.3885V2.637H89.6935Z" fill="#0141EC"/>
</g>
<defs>
<clipPath id="clip0_3303_26746">
<rect width="95" height="15.615" fill="white"/>
</clipPath>
</defs>
</svg>
