<svg width="347" height="124" viewBox="0 0 347 124" fill="none" xmlns="http://www.w3.org/2000/svg">
<g clip-path="url(#clip0_316_6582)">
<path d="M85.0076 -0.00390625C84.9898 1.35243 85.2026 3.51549 84.3516 4.64134C83.5005 5.76719 78.3677 7.00828 78.6425 8.25824C78.8021 8.98517 87.7912 15.0843 89.0234 16.5647C91.4435 19.4724 94.0321 28.7009 96.1774 30.8373C97.259 31.9188 102.374 33.5855 104.014 34.472L109.236 43.6738C109.067 43.8422 105.131 42.2643 104.759 41.9895C103.42 41.032 101.629 37.4329 100.282 36.7059C98.7305 35.8638 93.713 35.5623 92.7644 34.667L85.6193 19.5345L73.554 8.6483C73.3324 7.62883 78.2436 4.69453 77.3571 3.40024L35.284 5.5101C35.7183 17.2119 36.2857 28.825 36.5428 40.5179C36.5782 42.1224 37.5179 43.1508 36.5782 44.7642C36.4187 45.039 32.1103 49.4183 31.8887 49.1878L30.1777 1.26378C45.1684 1.20173 60.0881 0.270908 75.0699 0.448207L76.5061 -0.00390625L85.0076 -0.00390625Z" fill="#004A8F"/>
<path d="M134.724 74.6187L131.541 69.5302C125.779 62.6156 113.714 60.0536 105.132 58.9898C82.4381 56.1619 58.8395 59.8142 36.1275 61.0553L41.2248 59.1494C53.9726 55.6211 67.2169 54.5484 80.3548 53.2453C81.853 49.7614 80.8956 45.7633 79.0605 42.6073C70.1246 42.0134 59.859 42.1995 51.6943 46.2686C46.074 49.0787 43.051 54.7435 37.4129 57.8817C28.3263 62.9524 16.2699 62.2344 9.36411 70.1862L4.24902 77.8013C4.49724 68.1473 9.67438 62.8017 18.4773 59.7699C23.4328 58.059 28.8936 57.7576 33.6009 55.3463C38.3082 52.935 41.606 48.4848 45.9498 45.6125C59.5842 36.5791 77.8194 36.1802 92.9874 41.4283C101.427 44.3449 101.923 46.6054 107.526 52.3677C115.797 60.878 135.814 58.1831 134.733 74.6187H134.724ZM102.429 53.8392C96.8791 47.3235 88.4574 43.3165 79.9027 42.8201C82.837 45.8076 85.0887 48.9724 84.5834 53.4137C90.3456 52.2169 96.5422 53.724 102.429 53.8304V53.8392Z" fill="#004A8F"/>
<path d="M143.646 81.002L117.3 80.5676C118.098 90.2481 111.608 93.6079 102.752 92.3314C96.6887 91.4538 93.5062 85.8777 94.7739 80.1509L44.8995 80.5587C44.0574 86.5248 42.4794 91.8349 35.5027 92.4644C27.6926 93.1647 20.707 90.4077 21.6733 81.4275L2.11719 82.0657C48.3214 71.5342 97.4067 69.4864 143.646 81.0108V81.002ZM116.449 80.5764L96.671 80.1509C96.0327 80.2396 95.9972 79.9027 96.0415 80.7892C96.5202 90.585 115.615 91.6665 116.449 80.5764ZM43.3482 80.5764L23.3754 81.002C22.9765 84.6809 26.5845 87.1542 29.7316 88.0141C36.3448 89.8315 41.912 87.5798 43.3482 80.5764Z" fill="#004A8F"/>
<path d="M39.1557 99.5913L47.1608 99.2367L46.7352 105.176L97.0528 107.694C98.1432 109.529 97.2124 112.809 100.058 113.226L103.241 102.8C104.198 102.091 110.155 105.593 111.76 105.593C113.364 101.914 113.081 96.4354 117.717 95.4159C117.974 95.7084 117.38 102.437 117.194 103.155C116.813 104.635 114.02 107.242 113.382 108.882L104.978 108.137L103.622 118.66C101.45 118.988 97.5581 122.33 95.8206 122.543C94.8986 122.658 95.3241 122.419 95.1468 121.949C94.5529 120.38 92.9749 112.596 92.1239 112.224L44.5899 110.061C41.7975 109.866 43.0297 105.079 41.3985 103.917L33.3225 102.641L32.7197 96.2581L37.3827 94.9727L39.1557 99.5647V99.5913Z" fill="#004A8F"/>
<path d="M187.434 121.707C187.762 120.811 188.808 121.255 189.481 120.138C190.058 119.18 192.212 112.088 192.433 110.785C192.584 109.899 192.566 109.012 192.54 108.126L190.838 107.7H198.701C198.861 107.7 201.325 108.817 201.618 109.03C205.589 112 202.841 118.374 199.056 120.351C198.063 120.865 195.004 121.689 194.029 121.689H187.442L187.434 121.707ZM196.627 108.587C196.095 108.764 196.104 109.198 195.909 109.588C195.465 110.448 192.903 119.136 192.956 119.801C193.107 121.76 195.758 120.563 196.813 119.819C201.112 116.734 200.483 107.31 196.635 108.596L196.627 108.587Z" fill="#004A8F"/>
<path d="M168.586 119.44C166.059 121.816 160.687 123.146 158.347 119.99C154.065 114.21 163.684 104.689 169.552 107.969C174.091 110.505 171.511 116.701 168.586 119.449V119.44ZM165.66 108.226C162.292 109.068 157.469 122.082 163.834 120.85C167.327 120.167 171.556 106.755 165.66 108.226Z" fill="#004A8F"/>
<path d="M268.169 107.281L266.68 111.944C266.45 109.861 265.111 107.547 262.655 108.336C258.374 112.184 266.334 113.93 266.024 118.035C265.607 123.54 258.312 120.88 254.996 121.696L256.485 116.607C256.051 120.339 261.911 122.866 262.895 119.16C263.71 116.084 256.078 113.726 258.799 109.152C260.874 105.668 265.661 108.93 268.169 107.272V107.281Z" fill="#004A8F"/>
<path d="M246.942 116.619C247.669 117.683 247.58 119.323 248.112 120.324C248.582 121.22 249.389 120.971 249.495 121.698L246.507 121.512C245.568 120.883 245.745 117.204 244.406 116.619L243.201 120.67L244.398 121.698H239.726C239.69 121.034 240.55 121.229 240.958 120.608C241.924 119.154 243.458 113.649 242.695 111.956C247.358 110.99 253.848 113.383 246.942 116.628V116.619ZM247.305 112.86L245.674 112.372L244.398 116.184C246.428 117.08 248.183 114.225 247.314 112.86H247.305Z" fill="#004A8F"/>
<path d="M286.186 121.162C286.328 121.375 287.055 121.064 286.869 121.712L283.952 121.658C283.607 121.437 283.048 118.316 282.72 117.589C282.463 117.013 282.667 116.925 281.772 117.057C281.576 118.272 280.814 119.398 280.867 120.674C280.912 121.703 281.86 120.949 281.763 121.712H277.091C277.703 120.852 278.19 121.073 278.811 119.832C279.697 118.059 280.92 113.804 280.486 111.969C282.693 112.208 287.596 110.887 287.277 114.256C287.073 116.464 285.016 116.082 284.759 116.889C284.591 117.421 285.77 120.533 286.169 121.162H286.186ZM282.197 116.206C285.122 116.659 286.567 112.403 283.048 112.395L282.197 116.206Z" fill="#004A8F"/>
<path d="M212.913 121.701L209.978 121.665L208.658 116.621C208.17 116.24 206.034 120.93 207.815 121.701H203.144C203.206 120.868 204.154 121.586 204.784 120.584C205.085 120.105 206.805 114.467 206.902 113.74C207 113.013 206.84 112.605 206.548 111.949C208.117 112.198 212.372 111.24 213.134 112.792C214.668 115.912 211.025 116.151 210.838 116.852C211.237 118.696 211.574 120.309 212.913 121.692V121.701ZM208.241 116.196C210.767 117.011 212.337 112.862 210.147 112.384C209.048 112.144 208.445 115.46 208.241 116.196Z" fill="#004A8F"/>
<path d="M240.131 111.933L239.697 114.051C238.881 113.918 239.2 112.757 238.136 112.438C237.675 112.296 235.707 112.216 235.495 112.403L234.599 116.17C235.894 116.33 236.94 115.851 237.791 114.902L237.144 118.289L236.328 116.773L234.209 116.631L233.323 120.824C235.654 121.241 237.002 120.266 238.846 119.131L238.003 121.675H229.502C229.901 120.895 230.442 121.081 231 119.991C231.993 118.058 233.048 114.043 232.897 111.924H240.122L240.131 111.933Z" fill="#004A8F"/>
<path d="M323.861 111.949L323.426 114.068C322.611 113.935 322.93 112.783 321.866 112.455C321.378 112.304 319.57 112.215 319.233 112.428L318.329 116.187C319.623 116.346 320.669 115.868 321.52 114.919L320.873 118.305L320.058 116.789L317.948 116.665L317.043 120.85C319.375 121.266 320.722 120.291 322.566 119.156L321.724 121.701H313.223C313.622 120.921 314.162 121.107 314.721 120.016C315.793 117.933 316.565 114.298 316.618 111.949H323.843H323.861Z" fill="#004A8F"/>
<path d="M277.942 111.933L277.516 113.626C276.417 113.706 276.275 112.544 275.167 112.349C272.419 111.871 272.649 114.176 271.993 116.161C273.598 116.463 274.271 115.816 275.388 114.894L274.963 117.863C271.807 114.761 271.178 117.899 270.717 120.833C272.933 121.152 274.537 120.452 276.239 119.14L275.185 121.684H266.896C266.772 120.913 267.64 121.445 268.066 121.17C268.492 120.895 271.195 112.988 270.3 111.924H277.95L277.942 111.933Z" fill="#004A8F"/>
<path d="M332.356 111.939L331.921 114.9C331.23 114.944 331.496 113.987 331.097 113.401C330.166 112.027 328.508 111.921 327.737 113.481C328.278 115.999 331.239 116.416 331.061 119.314C330.84 122.887 325.494 120.981 323.429 121.681L324.493 118.295C324.537 121.956 329.874 122.045 328.748 118.747C328.225 117.213 323.907 115.015 326.39 112.55C328.154 110.795 330.255 112.081 332.356 111.93V111.939Z" fill="#004A8F"/>
<path d="M183.178 111.933L182.753 114.051C181.928 113.918 182.256 112.766 181.193 112.438C178.01 111.445 177.833 113.75 177.239 116.17L180.43 114.902L179.783 118.289L178.693 116.622L177.026 117.012L175.971 120.23L177.035 121.684H172.15C172.017 120.913 172.895 121.445 173.32 121.17C173.746 120.895 176.45 112.988 175.554 111.924H183.205L183.178 111.933Z" fill="#004A8F"/>
<path d="M314.501 111.531L314.075 114.076C312.648 114.412 313.605 112.799 312.542 112.427C307.435 110.671 304.625 120.547 308.809 120.84L311.318 120.857C304.829 124.483 301.469 116.23 307.4 112.71C310.263 111.008 311.708 112.063 314.501 111.522V111.531Z" fill="#004A8F"/>
<path d="M303.88 111.949L300.901 120.247L302.177 121.692H297.08C297.692 120.832 298.179 121.054 298.8 119.812C299.686 118.039 300.91 113.784 300.475 111.949H303.871H303.88Z" fill="#004A8F"/>
<path d="M220.149 111.958L217.17 120.256L218.447 121.701H213.35C214.059 120.779 214.662 120.938 215.256 119.582C216.053 117.774 217.232 113.784 216.745 111.949H220.14L220.149 111.958Z" fill="#004A8F"/>
<path d="M222.284 112.579C222.267 112.455 221.646 112.1 221.859 111.949H225.68C225.706 112.658 225.095 112.02 224.793 112.978C224.261 114.626 224.43 116.594 224.412 118.305L228.233 115.132L222.275 121.701C221.992 118.846 222.657 115.353 222.275 112.587L222.284 112.579Z" fill="#004A8F"/>
<path d="M293.254 111.949L292.394 112.641L291.968 118.084L293.245 118.509L289.85 121.692C289.247 119.015 290.541 115.362 290.319 112.978C290.222 111.958 289.344 112.712 289.424 111.949H293.245H293.254Z" fill="#004A8F"/>
<path d="M299.205 111.949L293.682 117.454C293.939 115.203 298.043 114.431 296.651 111.949H299.196H299.205Z" fill="#004A8F"/>
<path d="M231.187 100.94C231.134 100.142 232.233 100.691 232.889 100.31C233.546 99.929 236.418 90.5232 236.613 89.1758C236.71 88.5197 236.932 87.4471 236.533 86.9152C236.134 86.3833 234.928 86.9063 235.017 86.0996H242.455C243.43 86.0996 246.081 87.7042 246.683 88.6616C249.21 92.6686 246.675 98.0319 242.685 99.9024C242.215 100.124 240.185 100.94 239.902 100.94H231.187ZM237.136 100.089C242.535 100.745 244.946 93.7944 243.829 89.3796C243.545 88.2715 241.666 86.3212 240.513 87.1191C240.052 87.4382 237.437 96.6578 237.233 97.8546C237.109 98.5992 237.091 99.335 237.127 100.089H237.136Z" fill="#004A8F"/>
<path d="M166.6 93.7067C166.662 94.4957 165.633 93.9549 165.101 94.54C163.133 96.7385 165.926 100.914 159.579 101.331C149.933 101.96 149.419 90.4089 157.38 86.8363C161.201 85.1165 163.346 86.3044 167.016 85.6484L166.165 90.3114C165.19 89.9657 165.412 88.1395 164.782 87.448C162.415 84.8772 158.32 87.9179 156.884 90.1696C154.721 93.556 154.162 101.552 160.164 100.435C160.376 98.9902 162.087 95.7102 161.289 94.54C161.006 94.1234 160.084 94.3804 160.217 93.7067H166.591H166.6Z" fill="#004A8F"/>
<path d="M183.487 90.4198C191.43 89.0812 187.839 102.113 180.942 101.279C175.074 100.561 178.07 91.3329 183.487 90.4198ZM180.26 100.021C184.08 102.955 186.926 92.4942 185.322 91.3595C181.935 88.966 179.435 97.8221 180.26 100.021Z" fill="#004A8F"/>
<path d="M284.799 95.4407C284.542 95.7244 285.384 99.2881 285.676 99.7934C286.084 100.503 286.918 100.228 286.882 100.91L283.886 100.724L282.423 95.8219C281.572 95.6446 281.811 96.141 281.599 96.6729C281.288 97.4885 280.739 99.4477 280.916 100.219L281.785 100.91H277.538C277.37 100.254 278.186 100.591 278.398 100.21C279.196 98.7474 280.411 93.8362 280.756 92.0188C280.854 91.5135 280.668 91.1855 280.517 90.7511C282.618 91.0969 287.192 89.5278 287.361 92.6571C287.511 95.4141 285.242 94.9709 284.808 95.4496L284.799 95.4407ZM284.231 94.8734C284.754 94.3326 284.923 92.5862 284.701 91.8681L283.061 91.1678L282.21 95.4053C282.813 95.4318 283.806 95.3077 284.231 94.8822V94.8734Z" fill="#004A8F"/>
<path d="M195.53 95.4496C195.185 95.8308 196.319 99.3502 196.63 99.9796C196.975 100.671 197.693 100.246 197.614 100.919L194.697 100.866C194.174 99.6604 193.952 98.3573 193.553 97.1073C193.385 96.5843 193.598 95.5471 192.729 95.8308C192.498 95.9106 191.585 99.2615 191.612 99.8821C191.656 100.91 192.605 100.157 192.507 100.919H188.261C188.181 100.246 188.899 100.671 189.245 99.9796C189.786 98.9069 191.284 93.7209 191.497 92.4444C191.621 91.7086 191.55 91.4072 191.231 90.7511C193.332 91.0969 197.906 89.5278 198.075 92.6571C198.225 95.4141 195.956 94.9709 195.521 95.4496H195.53ZM192.933 95.4141C195.947 95.9017 197.232 90.6359 193.775 91.4426L192.933 95.4141Z" fill="#004A8F"/>
<path d="M210.373 90.3321L209.309 93.293C207.935 88.435 203.095 92.0342 202.394 95.2965C201.836 97.9383 202.119 101.404 205.657 100.456L206.579 96.511L205.692 95.8373H209.938C209.965 96.5199 209.141 96.245 208.733 96.9542C207.421 99.2237 209.07 101.449 204.247 101.298C197.767 101.094 198.352 91.9101 205.24 90.5094C207.235 90.1016 208.52 90.9261 210.364 90.3232L210.373 90.3321Z" fill="#004A8F"/>
<path d="M268.078 91.2565C269.31 93.3398 268.362 95.4319 266.066 96.0436C262.892 96.8946 262.759 95.4851 261.881 99.8733L263.078 100.902H258.406C259.089 100.033 259.47 100.175 260.011 98.907C260.977 96.6641 261.695 93.1625 261.802 90.7246L268.078 91.2476V91.2565ZM264.364 91.159C264.213 91.2565 263.424 94.1908 263.371 94.6429C263.309 95.1837 262.874 95.2546 263.725 95.822C266.863 95.9106 266.5 89.7317 264.364 91.159Z" fill="#004A8F"/>
<path d="M321.723 90.75L321.297 93.2942C320.446 93.179 321.04 91.8759 320.038 91.3794C319.258 90.9894 317.982 91.1223 317.113 91.2287L316.209 94.9875C317.813 95.2889 318.487 94.6417 319.604 93.7198L318.753 97.5317L317.946 96.0158L316.058 95.8119C315.429 95.9626 314.409 100.395 315.163 100.51C317.264 100.741 318.868 99.4909 320.455 98.3827L319.4 100.927H311.111C311.794 100.058 312.175 100.2 312.725 98.9324C313.691 96.6895 314.409 93.1879 314.515 90.75H321.74H321.723Z" fill="#004A8F"/>
<path d="M176.801 90.75L176.163 92.8687C175.427 90.9362 174.062 90.9805 172.174 91.2198L171.287 94.9875C171.997 94.9254 172.927 95.1648 173.575 94.9431C174.319 94.686 173.965 93.6488 174.683 93.7286L173.832 97.5406L173.025 96.0247L171.11 95.8208C168.309 101.565 171.713 101.556 175.534 98.3916L174.479 100.936H166.616C166.527 100.244 167.28 100.688 167.608 99.9962C168.149 98.826 169.656 93.3652 169.834 92.0354C169.905 91.5212 169.772 91.211 169.594 90.7589H176.819L176.801 90.75Z" fill="#004A8F"/>
<path d="M258.818 90.75L258.392 92.8687C256.885 91.4592 255.972 90.7677 253.738 91.1932L252.869 94.9875C254.252 95.1382 255.201 95.0406 256.265 94.1453L255.839 96.6895L252.471 95.874L251.77 100.094C252.736 101.441 256.247 99.2692 257.107 98.3827L256.69 100.927H248.189C248.109 100.244 248.827 100.679 249.173 99.9784C249.545 99.2338 249.811 97.9749 250.095 97.1062C250.706 95.2445 251.77 92.523 251.159 90.75H258.809H258.818Z" fill="#004A8F"/>
<path d="M275.501 100.429C275.643 100.66 276.423 100.234 276.237 100.926H271.99C271.911 100.208 272.957 100.562 273.214 99.8176C273.435 99.1705 273.214 98.2397 273.267 97.5305C270.076 97.0606 269.686 97.7787 268.17 100.287L269.012 100.917L266.033 100.713C270.031 98.0624 272.141 93.3196 275.811 90.3232C276.29 92.3976 274.579 98.9577 275.501 100.42V100.429Z" fill="#004A8F"/>
<path d="M330.644 97.1037C330.857 94.9584 332.621 92.8397 331.495 90.7475H333.623C331.566 93.5134 331.088 97.5558 330.219 100.925L325.76 92.4496L323.419 99.4795L324.696 100.925H321.301C321.904 100.056 322.4 100.295 323.021 99.0452C323.925 97.2367 325.13 92.6712 324.696 90.7564C328.942 89.7547 328.269 95.1623 330.644 97.1126V97.1037Z" fill="#004A8F"/>
<path d="M298.358 90.75L297.923 93.2942C297.152 93.2676 297.586 92.1595 296.913 91.5567C296.443 91.1489 295.982 91.1135 295.388 91.1755L293.234 100.236L294.103 100.927H289.643C289.457 100.271 290.432 100.271 290.929 99.2515C291.993 97.0707 292.17 93.702 293.26 91.3971C292.374 90.3333 289.98 93.0283 289.856 92.8776L290.273 90.7589H298.349L298.358 90.75Z" fill="#004A8F"/>
<path d="M343.824 90.75L343.399 92.8687C342.397 91.9822 342.113 90.945 340.429 91.1666L338.266 99.8898L339.153 100.918H335.119C334.445 100.413 335.607 100.608 335.89 99.9784C336.99 97.5051 337.397 94.0123 338.31 91.3883C337.947 90.812 336.865 91.3883 336.44 91.6454C335.536 92.195 335.669 93.0638 334.906 93.2942L335.323 90.75H343.824Z" fill="#004A8F"/>
<path d="M303.457 90.7379L303.882 97.5284C305.265 96.8724 308.005 91.1989 308.634 90.8354C309.264 90.4719 310.726 90.8797 311.524 90.7556L308.625 100.445L309.396 100.924H305.15C305.124 100.241 305.948 100.516 306.356 99.8067C307.136 98.4593 307.455 94.9487 308.12 93.2998L302.18 100.933L301.117 92.8743L299.166 99.9042L300.053 100.933H297.083C297.615 100.055 298.235 100.347 298.812 99.0621C299.255 98.0692 300.691 93.1757 300.833 92.1385C300.904 91.5712 300.629 91.252 300.487 90.7645H303.466L303.457 90.7379Z" fill="#004A8F"/>
<path d="M225.266 100.926H221.019C220.939 100.208 221.985 100.562 222.243 99.8176C222.464 99.1705 222.243 98.2397 222.296 97.5305H218.892L224.627 90.3232C225.753 93.7894 223.049 97.7876 225.266 100.917V100.926ZM222.287 97.1227L222.704 93.7274C221.161 94.9153 218.244 97.8319 222.287 97.1227Z" fill="#004A8F"/>
<path d="M216.325 90.75C215.412 92.3457 213.036 98.7639 213.32 100.236C213.418 100.723 214.384 100.218 214.198 100.918H209.951C209.872 100.244 210.59 100.67 210.935 99.9784C211.308 99.2338 211.574 97.9749 211.857 97.1062C212.469 95.2445 213.533 92.523 212.921 90.75H216.316H216.325Z" fill="#004A8F"/>
<path d="M339.93 41.047L332.359 41.5523C332.882 33.4142 330.772 22.6078 320.037 26.074C317.041 27.0403 315.108 28.9197 315.986 32.2352C316.863 35.5507 324.709 38.0861 327.812 39.9388C346.002 50.7807 341.375 72.3048 323.122 79.6184C313.495 83.4747 304.027 81.9145 294.736 78.0316L292.29 80.0794L285.614 78.0139L292.423 52.5803L299.435 55.9667C299.399 62.7395 301.323 72.5974 309.629 73.3598C313.938 73.7587 322.138 70.5052 320.693 65.2838C319.15 59.69 308.956 56.995 304.541 53.4136C296.013 46.49 293.619 37.173 299.302 27.4304C304.541 18.4413 314.221 16.163 324.07 16.9608C327.874 17.2711 333.317 19.9838 336.739 18.9909C337.988 18.6274 338.121 16.7303 339.389 16.5176L345.559 17.147L345.878 18.7604L339.93 41.0558V41.047ZM343.839 18.654L339.886 18.2019C336.437 23.6539 329.177 19.0707 324.07 18.654C313.938 17.8296 303.991 20.3029 299.701 30.3735C296.465 37.9708 297.644 44.4334 303.451 50.2577C308.415 55.2398 316.739 56.7202 320.693 61.8885C326.03 68.883 318.113 74.8757 311.34 75.0707C301.243 75.3544 297.688 65.3636 297.883 56.8798L293.947 55.1334L287.928 76.7639C288.114 77.0299 290.986 78.0227 291.385 78.005C292.245 77.9607 292.786 76.7994 293.681 76.5068C295.437 75.9395 298.956 77.9784 301.03 78.5546C317.998 83.2974 339.531 75.1948 337.474 54.9118C336.393 44.2472 325.32 41.5168 318.06 36.9691C312.466 33.4674 312.599 27.0403 319.088 24.6822C330.205 20.6309 334.567 30.4267 334.079 39.859L338.068 39.8059L343.866 18.6629L343.839 18.654Z" fill="#004A8F"/>
<path d="M153.854 80.1464L156.018 71.2903L160.698 71.0067L173.393 26.5045L168.304 26.3006L170.414 17.9941C181.903 19.0491 194.084 17.4534 205.511 18.2335C230.271 19.9267 234.038 48.2769 221.778 65.4572C206.902 86.3076 175.786 78.7369 153.854 80.1642V80.1464ZM155.982 78.4444C176.549 77.0703 203.968 84.0027 219.101 66.1575C231.724 51.2732 229.765 22.2759 206.716 19.9888L171.301 19.9533L170.432 24.5985C170.592 24.7492 174.093 24.501 174.9 24.5985C175.476 24.6695 175.671 24.3769 175.485 25.1836L161.886 72.8949L157.294 72.9836L155.982 78.4532V78.4444Z" fill="#004A8F"/>
<path d="M218.034 80.1412L219.94 71.6486L224.142 71.1787L224.772 70.5316L237.165 26.2865H232.493L234.195 17.8027C234.975 17.9357 235.693 18.2194 236.509 18.2548C247.475 18.636 259.744 17.3063 270.47 18.2903C295.088 20.542 298.032 51.0375 284.557 67.0033C268.458 86.0807 239.984 78.6608 218.043 80.1412H218.034ZM220.153 78.4391C239.612 77.0739 264.398 83.2883 280.275 69.1043C296.152 54.9204 295.47 22.2707 270.453 19.9835H235.498L234.594 24.5933H239.266L226.022 72.2336L225.392 72.8808L221.385 73.129L220.135 78.448L220.153 78.4391Z" fill="#004A8F"/>
<path d="M341.696 20.3398L336.812 37.7241L335.748 37.5113C336.36 27.9903 329.294 19.3026 319.259 22.3345C313.896 23.9479 310.252 28.8502 313.054 34.2933C318.027 43.9384 337.202 41.6601 335.739 58.7163C334.268 75.9321 315.323 80.9053 300.988 76.4374C297.939 75.4888 296.742 73.574 293.143 74.7353C292.141 75.0544 291.574 75.9409 290.492 75.8966L290.014 74.6112L294.526 57.6614C295.377 57.5018 295.554 58.0514 295.829 58.6897C296.45 60.117 296.299 62.9715 296.769 64.9572C298.639 72.9091 304.375 77.2973 312.602 76.7565C320.163 76.2601 326.112 71.5351 323.825 63.4147C321.227 54.2129 301.795 53.7253 300.084 40.88C298.045 25.5524 313.009 18.9392 326.067 20.8895C329.791 21.448 334.179 23.744 337.752 22.565C339.383 22.0331 339.977 20.2157 341.688 20.3487L341.696 20.3398Z" fill="#004A8F"/>
<path d="M158.954 76.746V75.4784L163.679 75.2301L177.65 23.3169H172.979L173.466 21.6857C185.124 22.6077 210.575 18.3968 219.289 27.3504C227.879 36.1711 225.832 53.7858 219.041 63.1383C205.628 81.6306 178.634 75.7886 158.937 76.746H158.954ZM180.629 75.4695C185.469 75.5227 191.701 75.1503 196.063 72.8543C202.162 69.6452 206.586 54.557 208.217 48.0856C209.609 42.5804 212.898 30.9851 208.696 26.4728C205.797 23.3612 197.765 21.7389 194.033 23.7512L180.629 75.4695Z" fill="#004A8F"/>
<path d="M222.69 76.7464C222.513 74.4061 227.229 75.9752 227.77 75.4521L241.803 23.5211L237.131 23.3172V21.624C249.011 22.3421 262.379 20.1524 273.957 22.8385C292.538 27.138 292.342 51.7915 282.174 64.2291C268.017 81.5512 242.3 75.7358 222.69 76.7464ZM244.365 75.4699C250.934 75.4167 259.063 75.3191 263.416 69.6722C269.187 62.1901 275.579 39.9834 274.542 30.7284C273.726 23.5123 263.655 21.8013 257.955 23.6009L244.374 75.461L244.365 75.4699Z" fill="#004A8F"/>
<path d="M196.196 25.0687C204.99 24.0847 210.149 27.2938 208.554 36.5577C206.506 48.4811 201.674 70.8474 187.934 73.6488C186.799 73.8792 182.739 74.9431 182.819 73.2321L196.187 25.0687H196.196ZM184.884 72.5052C194.441 71.9733 198.979 64.1898 201.781 56.0784C203.651 50.6708 205.752 42.5327 206.789 36.9035C208.314 28.6413 205.078 25.9996 196.799 26.7265L184.884 72.5052Z" fill="#004A8F"/>
<path d="M246.929 74.2011L259.632 25.2576C265.013 24.3002 271.937 25.1157 272.814 31.6226C273.364 35.6828 269.738 48.4927 268.391 53.0049C265.084 64.0418 260.35 74.4227 246.929 74.2099V74.2011ZM249.056 72.5079C259.916 71.5948 264.047 61.799 266.786 52.6681C268.143 48.1292 270.82 38.9806 271.148 34.5481C271.662 27.7398 266.999 25.7718 260.909 26.9597L249.056 72.5079Z" fill="#004A8F"/>
</g>
<defs>
<clipPath id="clip0_316_6582">
<rect width="346.372" height="123.4" fill="white"/>
</clipPath>
</defs>
</svg>
