<svg width="280" height="136" viewBox="0 0 280 136" fill="none" xmlns="http://www.w3.org/2000/svg">
<path d="M0 0V79.721H14.6489V43.7109C14.6489 35.9967 19.8182 33.4319 24.1287 33.4319C28.4392 33.4319 33.6252 35.9967 33.6252 43.7109V78.8505H48.2741V42.0033C48.2741 30.0033 41.3706 20.5748 28.4392 20.5748C23.2666 20.5748 18.0973 22.2824 14.6489 26.5681V0H0ZM125.863 0V26.5681C122.415 22.2824 117.249 20.5748 111.214 20.5748C105.179 20.5748 99.9966 22.2857 96.5482 25.7143C90.5136 31.7143 90.5203 41.1495 90.5203 49.721C90.5203 58.2924 90.5136 68.5647 96.5482 74.5647C99.9966 77.9933 105.179 79.721 111.214 79.721C117.249 79.721 121.552 77.9967 125.863 73.7109V78.8505H140.512V0H125.863ZM174.996 20.5748C165.513 20.5748 159.492 22.2924 154.319 28.2924L163.799 37.7176C167.247 34.2891 169.823 32.5781 174.996 32.5781C182.755 32.5781 186.21 35.1462 186.21 42.0033V44.5647H172.42C158.626 44.5647 152.585 52.279 152.585 61.7076C152.585 66.8505 154.305 71.1362 157.754 74.5647C161.202 77.9933 166.385 79.721 172.42 79.721C179.316 79.721 182.758 77.9933 187.069 74.5647V79.721H200V41.1495C200 27.4353 191.376 20.5748 174.996 20.5748ZM115.525 34.2857C124.145 34.2857 125.863 41.1462 125.863 50.5748C125.863 60.0033 125.008 66.8638 115.525 66.8638C106.041 66.8638 106.028 60.0033 106.028 50.5748C106.028 41.1462 106.904 34.2857 115.525 34.2857ZM173.278 54.8605H184.492V58.2924H185.351C185.351 61.721 184.479 64.279 183.617 65.9933C181.03 68.5647 178.448 68.5714 174.137 68.5714C168.102 68.5714 165.516 65.9933 165.516 61.7076C165.516 57.4219 168.106 54.8605 173.278 54.8605ZM56.0364 86.5681V90H90.5203V86.5681H56.0364Z" fill="black"/>
<path d="M15.757 104C14.4617 104 13.5973 104.435 12.7338 105.305C11.6544 106.394 11.6544 107.481 11.6544 110.093C11.6544 112.488 11.6544 113.796 12.7338 114.885C13.5973 115.756 14.4617 116.19 15.757 116.19C17.0523 116.19 17.9167 115.756 18.7802 114.885C19.8597 113.579 19.8597 112.488 19.8597 110.093C19.8597 107.698 19.8597 106.394 18.7802 105.305C17.9167 104.435 17.0523 104 15.757 104ZM49.219 104C46.8443 104 45.5507 105.306 45.5507 107.265C45.5507 108.136 45.7674 109.007 46.4151 109.442C46.8469 109.878 47.7104 110.092 48.5739 110.31L49.8684 110.531C50.7319 110.749 50.9461 110.746 51.3779 111.182C51.8097 111.399 52.0272 112.055 52.0272 112.708C52.0272 114.014 50.9461 114.885 49.219 114.885C47.9237 114.885 47.0602 114.664 45.9808 113.575L45.1164 114.447C46.1958 115.535 47.2769 115.973 49.004 115.973C51.3787 115.973 53.1066 114.667 53.1066 112.708C53.1066 111.837 52.674 110.963 52.2423 110.31C51.8105 109.874 51.1628 109.66 50.0834 109.442L48.789 109.221C48.1413 109.221 47.4911 109.006 47.2752 108.571C46.8435 108.353 46.8452 107.701 46.8452 107.265C46.8452 105.959 47.7079 105.088 49.219 105.088C50.5144 105.088 51.1645 105.524 51.8122 106.177L52.6724 105.305C51.5929 104.435 50.7302 104 49.219 104ZM168.17 104C165.796 104 164.502 105.306 164.502 107.265C164.502 108.136 164.719 109.007 165.366 109.442C165.798 109.878 166.662 110.092 167.525 110.31L168.82 110.531C169.683 110.749 169.897 110.746 170.329 111.182C170.761 111.399 170.979 112.055 170.979 112.708C170.979 114.014 169.897 114.885 168.17 114.885C166.875 114.885 166.012 114.664 164.932 113.575L164.072 114.447C165.151 115.535 166.228 115.973 167.955 115.973C170.33 115.973 172.058 114.667 172.058 112.708C172.058 111.837 171.625 110.963 171.194 110.31C170.762 109.874 170.114 109.66 169.035 109.442L167.74 109.221C167.093 109.221 166.447 109.006 166.231 108.571C165.799 108.353 165.796 107.701 165.796 107.265C165.796 105.959 166.659 105.088 168.17 105.088C169.466 105.088 170.116 105.524 170.763 106.177L171.628 105.305C170.548 104.435 169.682 104 168.17 104ZM26.9855 104.217C25.9061 104.217 24.8258 104.651 23.9623 105.522C22.8829 106.611 22.8829 107.697 22.8829 110.31C22.8829 112.705 22.8829 114.013 23.9623 115.102C24.8258 115.973 25.6902 116.407 26.9855 116.407C28.9285 115.972 30.653 114.664 30.8689 112.487H29.5744C29.3586 114.011 28.2775 114.885 26.7663 114.885C25.9027 114.885 25.2584 114.666 24.8267 114.013C24.179 113.36 24.1773 112.488 24.1773 110.093C24.1773 107.698 24.1782 106.83 25.0417 106.177C25.4735 105.742 26.3379 105.305 26.9855 105.305C28.4967 105.305 29.3577 106.175 29.7895 107.699H31.0839C30.6522 105.522 29.1444 104.217 26.9855 104.217ZM59.5832 104.217C58.5038 104.217 57.4235 104.651 56.56 105.522C55.4805 106.611 55.4805 107.697 55.4805 110.31C55.4805 112.705 55.4805 114.013 56.56 115.102C57.4235 115.973 58.2879 116.407 59.5832 116.407C61.742 115.972 63.254 114.664 63.6858 112.487H62.3871C62.1713 114.011 61.0944 114.885 59.5832 114.885C58.7196 114.885 58.0711 114.666 57.6394 114.013C56.9917 113.36 56.775 112.488 56.775 110.093C56.775 107.698 56.7758 106.83 57.6394 106.177C58.0711 105.742 58.9355 105.305 59.5832 105.305C61.0944 105.305 61.9554 106.175 62.3871 107.699H63.6858C63.254 105.522 61.742 104.217 59.5832 104.217ZM78.5784 104.217V112.053C78.5784 114.448 80.3064 115.973 82.6811 115.973C85.0558 115.973 86.7837 114.448 86.7837 112.053V104.217H85.4893V111.836C85.4893 113.578 84.4082 114.664 82.6811 114.664C80.954 114.664 79.8771 113.578 79.8771 111.836V104.217H78.5784ZM117.223 104.217V115.752H121.11C122.405 115.752 123.27 115.317 124.133 114.664C125.213 113.575 125.213 111.618 125.213 109.876C125.213 108.352 125.213 106.394 124.133 105.305C123.486 104.652 122.405 104.217 121.11 104.217H117.223ZM173.567 104.217V105.305H176.806V115.752H178.104V105.305H181.558V104.217H173.567ZM194.726 104.217V115.752H198.613C199.909 115.752 200.769 115.317 201.632 114.664C202.928 113.575 202.931 111.618 202.931 109.876C202.931 108.352 202.931 106.394 201.852 105.305C201.204 104.652 200.124 104.217 198.828 104.217H194.726ZM204.871 104.217V105.305H208.109V115.752H209.408V105.305H212.861V104.217H204.871ZM0.215041 104.434V115.973H1.5095V110.748H6.90661V115.973H8.20107V104.434H6.90661V109.659H1.5095V104.434H0.215041ZM34.1072 104.434V115.973H35.4016V110.748H40.7987V115.973H42.0974V104.434H40.7987V109.659H35.4016V104.434H34.1072ZM66.7048 104.434V115.973H68.0035V110.748H73.4006V115.973H74.6951V104.434H73.4006V109.659H68.0035V104.434H66.7048ZM90.4521 104.434V115.973H97.5779V114.885H91.7507V104.434H90.4521ZM100.601 104.434V115.973H107.723V114.885H101.896V110.748H106.863V109.659H101.896V105.522H107.723V104.434H100.601ZM131.255 104.434L126.937 115.973H128.232L129.096 113.358H134.063L134.928 115.973H136.652L132.334 104.434H131.255ZM139.46 104.434V115.973H140.755V110.748H143.563L146.152 115.973H147.446L144.642 110.748C146.154 110.53 147.231 109.223 147.231 107.699C147.231 105.74 145.721 104.434 143.778 104.434H139.46ZM151.119 104.434V115.973H152.413V107.044L155.652 114.013H156.731L159.969 107.044V115.973H161.049V104.434H159.754L156.082 112.708L152.413 104.434H151.119ZM186.74 104.434L182.422 115.973H183.717L184.581 113.358H189.544L190.408 115.973H192.137L187.819 104.434H186.74ZM15.757 105.305C16.6205 105.305 17.269 105.524 17.7008 106.177C18.5643 106.83 18.5652 107.698 18.5652 110.093C18.5652 112.488 18.5643 113.36 17.7008 114.013C17.269 114.449 16.4047 114.885 15.757 114.885C14.8935 114.885 14.245 114.666 13.8132 114.013C13.1656 113.36 12.953 112.488 12.953 110.093C12.953 107.698 12.9487 106.83 13.8132 106.177C14.245 105.742 15.1094 105.305 15.757 105.305ZM118.087 105.305H120.676C121.539 105.305 122.406 105.524 123.054 106.177C123.917 107.048 123.914 108.57 123.914 109.876C123.914 111.4 123.918 112.926 123.054 113.796C122.406 114.45 121.755 114.664 120.676 114.664H118.087V105.305ZM140.755 105.305H143.778C145.073 105.305 145.937 106.176 145.937 107.482C145.937 109.006 145.074 109.659 143.563 109.659H140.755V105.305ZM195.805 105.305H198.394C199.258 105.305 200.125 105.524 200.772 106.177C201.636 107.048 201.632 108.57 201.632 109.876C201.632 111.4 201.637 112.926 200.772 113.796C200.125 114.45 199.474 114.664 198.394 114.664H195.805V105.305ZM131.904 106.177L134.063 112.27H129.746L131.904 106.177ZM187.385 106.177L189.544 112.27H185.226L187.385 106.177ZM65.1953 123.593C62.8206 123.593 61.527 124.899 61.527 126.858C61.527 127.729 61.7394 128.6 62.3871 129.035C62.8189 129.471 63.6824 129.685 64.546 129.903L65.8447 130.124C66.7082 130.342 66.9224 130.339 67.3542 130.774C67.7859 130.992 68.0035 131.648 68.0035 132.301C68.0035 133.607 66.9224 134.478 65.1953 134.478C63.9 134.478 63.0365 134.257 61.9571 133.168L61.0927 134.04C62.1721 135.128 63.2532 135.566 64.9803 135.566C67.355 135.566 69.0829 134.26 69.0829 132.301C69.0829 131.43 68.6503 130.556 68.2185 129.903C67.7868 129.467 67.1391 129.253 66.0597 129.035L64.7652 128.814C64.1176 128.814 63.4674 128.599 63.2515 128.164C62.8197 127.946 62.8214 127.294 62.8214 126.858C62.8214 125.552 63.6841 124.681 65.1953 124.681C66.4906 124.681 67.1366 125.117 67.7842 125.77L68.6486 124.898C67.5692 124.027 66.7065 123.593 65.1953 123.593ZM106.213 123.593C105.134 123.593 104.054 124.027 103.19 124.898C102.111 125.987 102.111 127.074 102.111 129.686C102.111 132.081 102.111 133.389 103.19 134.478C104.054 135.349 104.918 135.783 106.213 135.783C107.293 135.783 108.373 135.349 109.237 134.478C110.316 133.172 110.316 132.081 110.316 129.686C110.316 127.291 110.316 125.987 109.237 124.898C108.373 124.027 107.509 123.593 106.213 123.593ZM206.384 123.593C204.01 123.593 202.712 124.899 202.712 126.858C202.712 127.729 202.929 128.6 203.576 129.035C204.008 129.471 204.871 129.685 205.735 129.903L207.029 130.124C207.893 130.342 208.111 130.339 208.543 130.774C208.975 130.992 209.188 131.648 209.188 132.301C209.188 133.607 208.111 134.478 206.384 134.478C205.089 134.478 204.226 134.257 203.146 133.168L202.282 134.04C203.361 135.128 204.442 135.566 206.169 135.566C208.544 135.566 210.268 134.26 210.268 132.301C210.268 131.43 209.839 130.556 209.408 129.903C208.976 129.467 208.328 129.253 207.249 129.035L205.95 128.814C205.302 128.814 204.656 128.599 204.441 128.164C204.009 127.946 204.01 127.294 204.01 126.858C204.01 125.552 204.873 124.681 206.384 124.681C207.68 124.681 208.326 125.117 208.973 125.77L209.838 124.898C208.758 124.027 207.896 123.593 206.384 123.593ZM275.897 123.593C273.523 123.593 272.229 124.899 272.229 126.858C272.229 127.729 272.446 128.6 273.093 129.035C273.525 129.471 274.389 129.685 275.252 129.903L276.547 130.124C277.41 130.342 277.624 130.339 278.056 130.774C278.488 130.992 278.706 131.648 278.706 132.301C278.706 133.607 277.624 134.478 275.897 134.478C274.602 134.478 273.739 134.257 272.659 133.168L271.795 134.04C272.874 135.128 273.955 135.566 275.682 135.566C278.489 135.566 280 134.26 280 132.301C280 131.43 279.568 130.556 278.921 129.903C278.489 129.467 277.841 129.253 276.762 129.035L275.467 128.814C274.82 128.814 274.169 128.599 273.954 128.164C273.522 127.946 273.523 127.294 273.523 126.858C273.523 125.552 274.386 124.681 275.897 124.681C277.193 124.681 277.843 125.117 278.491 125.77L279.351 124.898C278.271 124.027 277.409 123.593 275.897 123.593ZM0 123.81V131.646C0 134.041 1.72371 135.566 4.09843 135.566C6.47316 135.566 8.20107 134.041 8.20107 131.646V123.81H6.90661V131.429C6.90661 133.171 5.82551 134.257 4.09843 134.257C2.37136 134.257 1.29446 133.171 1.29446 131.429V123.81H0ZM28.9251 123.81L32.8127 135.345H33.8921L37.5605 123.81H36.266L33.2428 133.168L30.2238 123.81H28.9251ZM76.6389 123.81V124.898H79.8771V135.345H81.1716V124.898H84.6249V123.81H76.6389ZM86.7837 123.81L90.237 130.558V135.345H91.5315V130.558L94.7698 123.81H93.4753L90.8864 129.469L88.0782 123.81H86.7837ZM113.769 123.81V135.345H115.064V130.124H120.031V129.035H115.064V124.681H120.895V123.81H113.769ZM139.026 123.81V135.345H140.325V130.558H143.344C145.718 130.775 147.016 129.251 147.016 127.292C147.016 125.115 145.503 123.81 143.344 123.81H139.026ZM149.82 123.81V135.345H151.119V130.558H154.138C156.297 130.775 157.81 129.251 157.81 127.292C157.81 125.115 156.297 123.81 154.138 123.81H149.82ZM185.875 123.81V135.345H189.759C191.054 135.345 191.918 134.91 192.782 134.257C194.077 133.168 193.861 131.211 193.861 129.469C193.861 127.945 193.861 125.987 192.782 124.898C192.134 124.245 191.054 123.81 189.759 123.81H185.875ZM216.529 123.81C215.45 123.81 214.37 124.244 213.506 125.115C212.427 126.204 212.427 127.29 212.427 129.903C212.427 132.297 212.427 133.606 213.506 134.695C214.37 135.565 215.234 136 216.529 136C218.688 135.565 220.416 134.257 220.632 132.08H219.337C219.122 133.604 218.04 134.478 216.529 134.478C215.666 134.478 215.017 134.259 214.585 133.606C213.938 132.953 213.725 132.081 213.725 129.686C213.725 127.291 213.721 126.423 214.585 125.77C215.017 125.334 215.882 124.898 216.529 124.898C218.04 124.898 218.906 125.768 219.337 127.292H220.632C220.2 125.115 218.688 123.81 216.529 123.81ZM255.388 123.81C254.309 123.81 253.229 124.244 252.365 125.115C251.286 126.204 251.286 127.29 251.286 129.903C251.286 132.297 251.286 133.606 252.365 134.695C253.229 135.565 254.093 136 255.388 136C257.547 135.565 259.059 134.257 259.491 132.08H258.197C257.981 133.604 256.9 134.478 255.388 134.478C254.525 134.478 253.876 134.259 253.445 133.606C252.797 132.953 252.584 132.081 252.584 129.686C252.584 127.291 252.58 126.423 253.445 125.77C253.876 125.334 254.741 124.898 255.388 124.898C256.9 124.898 257.765 125.768 258.197 127.292H259.491C259.059 125.115 257.547 123.81 255.388 123.81ZM12.0887 124.027V135.566H13.3831V126.204L19.4296 135.566H20.509V124.027H19.2103V133.389L13.1681 124.027H12.0887ZM24.6074 124.027V135.566H25.9061V124.027H24.6074ZM40.5837 124.027V135.566H47.7095V134.478H41.8781V130.341H46.8452V129.252H41.8781V125.115H47.7095V124.027H40.5837ZM50.9478 124.027V135.566H52.2423V130.341H55.0504L57.6394 135.566H58.9338L56.1299 130.341C57.6411 130.123 58.7188 128.816 58.7188 127.292C58.7188 125.333 57.2084 124.027 55.2655 124.027H50.9478ZM72.5362 124.027V135.566H73.8307V124.027H72.5362ZM131.04 124.027L126.722 135.566H128.017L128.881 132.951H133.848L134.708 135.566H136.437L132.119 124.027H131.04ZM160.399 124.027V135.566H167.525V134.478H161.694V124.027H160.399ZM170.329 124.027V135.566H171.628V124.027H170.329ZM175.726 124.027V135.566H182.852V134.478H177.025V130.341H181.988V129.252H177.025V125.115H182.852V124.027H175.726ZM224.085 124.027V135.566H225.38V124.027H224.085ZM229.482 124.027V135.566H236.608V134.478H230.777V130.341H235.744V129.252H230.777V125.115H236.608V124.027H229.482ZM239.846 124.027V135.566H241.141V126.204L247.187 135.566H248.267V124.027H246.968V133.389L240.926 124.027H239.846ZM262.514 124.027V135.566H269.855V134.478H263.809V130.341H268.776V129.252H263.809V125.115H269.636V124.027H262.514ZM52.0272 124.898H55.0504C56.3458 124.898 57.4243 125.769 57.4243 127.075C57.4243 128.599 56.5616 129.252 55.0504 129.252H52.0272V124.898ZM106.213 124.898C107.077 124.898 107.725 125.117 108.157 125.77C109.021 126.423 109.021 127.291 109.021 129.686C109.021 132.081 109.021 132.953 108.157 133.606C107.725 134.042 106.861 134.478 106.213 134.478C105.35 134.478 104.701 134.259 104.269 133.606C103.622 132.953 103.405 132.081 103.405 129.686C103.405 127.291 103.406 126.423 104.269 125.77C104.701 125.334 105.566 124.898 106.213 124.898ZM186.955 124.898H189.544C190.407 124.898 191.27 125.117 191.918 125.77C192.781 126.641 192.782 128.163 192.782 129.469C192.782 130.993 192.781 132.519 191.918 133.389C191.27 134.042 190.623 134.257 189.544 134.257H186.955V124.898ZM140.54 125.115H143.563C144.858 124.897 145.937 125.768 145.937 127.292C145.937 128.816 144.858 129.686 143.563 129.686H140.54V125.115ZM151.119 125.115H154.138C155.433 124.897 156.516 125.768 156.516 127.292C156.516 128.816 155.433 129.686 154.138 129.686H151.119V125.115ZM131.689 125.77L133.848 131.863H129.53L131.689 125.77Z" fill="black"/>
</svg>
