<svg width="309" height="65" viewBox="0 0 309 65" fill="none" xmlns="http://www.w3.org/2000/svg">
<g clip-path="url(#clip0_316_1838)">
<path d="M105.468 23.711C105.32 23.7676 105.18 23.845 105.054 23.941L115.597 0.0280151L71.003 0V14.738H75.754V25.516L75.76 25.51L93.147 25.521L93.142 25.516L93.162 14.739H98.803V41.02H93.156L93.144 31.112H75.752V31.243H75.695V41.012L71.003 41.02V41.062H70.987L70.947 55.743L89.547 55.755C89.898 56.225 90.294 56.727 90.735 57.241C92.9277 60.0433 95.8884 62.1471 99.256 63.296C100.954 63.8745 102.736 64.1675 104.53 64.163C104.665 64.163 104.799 64.163 104.93 64.158C105.118 64.158 105.306 64.164 105.495 64.164C118.147 64.164 126.362 55.336 126.362 43.881C126.359 28.485 113.204 23.687 105.468 23.711Z" fill="#EFB433"/>
<path d="M117.765 7.19067L114.589 15.0397L114.22 15.9517C114.193 15.9917 114.179 16.0177 114.19 16.0187V16.0287L114.203 16.0197C118.626 16.3897 133.813 19.7697 134.584 37.5567C134.884 44.4347 133.175 51.3187 129.336 55.6907H170.136L170.123 40.8907L152.811 40.8157C151.046 40.7858 149.297 40.469 147.634 39.8777C146.094 39.1938 144.686 38.2462 143.472 37.0777C142.315 35.8386 141.38 34.4089 140.71 32.8517C140.127 31.1611 139.815 29.3888 139.786 27.6007C139.812 25.8479 140.12 24.1107 140.698 22.4557C141.396 20.9889 142.356 19.6618 143.531 18.5397C144.745 17.4651 146.102 16.5645 147.563 15.8637C149.193 15.2639 150.907 14.9237 152.643 14.8557L170.034 14.8737L169.866 14.6737L170.036 14.8737V0.0316772H169.999V0.0136719L140.974 0.0316772L137.242 7.16666L117.765 7.19067Z" fill="#EFB433"/>
<path d="M145.558 27.8956C145.558 33.2456 150.978 35.2716 154.321 35.2716L166.298 35.2836L166.244 35.2386V35.2306L166.298 35.2696V31.1696H153.742L152.532 31.1646V25.6646H170.132V20.4746L154.227 20.5166C150.209 20.5126 145.558 21.9636 145.558 27.8956Z" fill="#EFB433"/>
<path d="M302.709 16.6619H303.609V19.2889H303.994V16.6619H304.894V16.3379H302.709V16.6619Z" fill="#EFB433"/>
<path d="M307.972 16.3379H307.487L306.961 17.7649C306.83 18.1369 306.725 18.4649 306.65 18.7589H306.637C306.563 18.4519 306.462 18.1279 306.337 17.7649L305.837 16.3379H305.351L305.146 19.2889H305.509L305.588 18.0229C305.614 17.5809 305.636 17.0859 305.644 16.7229H305.653C305.736 17.0729 305.853 17.4539 305.995 17.8699L306.472 19.2699H306.761L307.282 17.8379C307.431 17.4309 307.553 17.0639 307.654 16.7179H307.667C307.667 17.0849 307.689 17.5799 307.711 17.9919L307.785 19.2919H308.157L307.972 16.3379Z" fill="#EFB433"/>
<path d="M35.9011 15.9668H31.5381V40.7798V40.7918H35.9001V40.7798L35.9011 15.9668Z" fill="#EFB433"/>
<path d="M68.7869 40.8043L68.7799 30.8923V27.1043H52.5359V31.0593V31.0723H64.4139V36.4723H52.8659C51.7816 36.5111 50.7004 36.3353 49.6843 35.955C48.6682 35.5747 47.7373 34.9974 46.9449 34.2563C46.4715 33.8084 46.0595 33.2996 45.7199 32.7433C44.9684 31.455 44.5897 29.9833 44.6259 28.4923C44.587 27.4038 44.7737 26.319 45.1742 25.3061C45.5746 24.2932 46.1802 23.374 46.9529 22.6063C47.7348 21.8458 48.6624 21.251 49.6798 20.8576C50.6973 20.4643 51.7837 20.2805 52.8739 20.3173L66.7989 20.3043H67.0239L67.0299 20.3103V20.3043V15.9863H67.0169H66.7249L52.8869 15.9993C44.7649 15.9993 42.0539 21.0713 41.2669 22.8993C41.1045 23.2721 40.9623 23.6533 40.8409 24.0413C39.9645 27.031 40.0718 30.2232 41.1469 33.1473C41.7584 34.668 42.6689 36.0504 43.8244 37.2128C44.9799 38.3751 46.3569 39.2938 47.8739 39.9143C49.4649 40.5299 51.159 40.8354 52.8649 40.8143L68.2649 40.7993H68.7769L68.7869 40.8043Z" fill="#EFB433"/>
<path d="M0 15.9971V40.8241L3.579 40.8141V40.8241H4.371V30.5061H22.28V40.8241H26.643V15.9961H22.278V26.1711H4.378V15.9961H0V15.9971Z" fill="#EFB433"/>
<path d="M238.349 15.8262C238.297 15.8262 238.243 15.8262 238.189 15.8262C237.002 15.8862 236.044 17.6662 235.81 18.1372C235.792 18.1712 235.773 18.2032 235.755 18.2372L234.194 21.2712L227.436 34.3522L220.502 20.8802L219.152 18.2442C219.138 18.2182 219.124 18.1932 219.11 18.1662C218.768 17.4497 218.28 16.8127 217.677 16.2962L217.661 16.2832L217.545 16.2002C217.513 16.1782 217.48 16.1572 217.445 16.1372L217.419 16.1212C217.299 16.0478 217.173 15.9865 217.041 15.9382C217.002 15.9242 216.963 15.9122 216.924 15.9012L216.878 15.8892C216.845 15.8802 216.812 15.8722 216.778 15.8662L216.699 15.8532C216.674 15.8532 216.649 15.8452 216.624 15.8432C216.571 15.8432 216.517 15.8342 216.463 15.8342C216.383 15.8342 216.306 15.8342 216.231 15.8452H216.213C215.671 15.8892 215.164 16.1263 214.782 16.5132C214.767 16.5262 214.752 16.5382 214.738 16.5522C214.664 16.6261 214.597 16.7064 214.538 16.7922C213.992 17.5967 213.627 18.5105 213.469 19.4702C213.403 19.7812 208.218 40.8202 208.218 40.8202H208.234L208.218 40.8322H213.118L216.679 23.6222L224.997 39.4652C225.206 39.9178 225.531 40.3078 225.937 40.5962C226.344 40.8846 226.82 41.0615 227.316 41.1092H227.363H227.43C227.978 41.0614 228.502 40.8671 228.949 40.5467C229.395 40.2263 229.747 39.7916 229.968 39.2882L238.185 23.6052V23.6182L241.785 40.8282L246.653 40.8162L241.13 18.2402C241.02 17.5772 240.681 16.9735 240.174 16.5329C239.666 16.0923 239.021 15.8424 238.349 15.8262Z" fill="#EFB433"/>
<path d="M256.126 30.5168H270.295V26.2168H256.121L256.126 30.5168Z" fill="#EFB433"/>
<path d="M249.987 40.8521H271.421V36.5522H254.313V20.5432H271.418V16.2592L249.982 16.2441L249.987 40.8521Z" fill="#EFB433"/>
<path d="M192.523 18.5615C192.356 18.2787 192.165 18.011 191.952 17.7615C191.639 17.3121 191.233 16.9353 190.762 16.6567C190.29 16.378 189.764 16.204 189.22 16.1465H189.211C187.358 16.1465 186.164 17.9075 185.85 18.4325C185.821 18.4765 185.792 18.5215 185.766 18.5665L182.474 24.0665L172.441 40.7945H177.841L189.031 22.5765L193.353 29.6685L186.741 29.6865L184.817 32.8135L184.125 33.9235H184.134L184.126 33.9365L195.933 33.9175L200.11 40.7945L205.669 40.8305L205.661 40.8175H205.669L192.523 18.5615Z" fill="#EFB433"/>
<path d="M302.345 33.0791C302.345 32.9971 302.345 32.9151 302.34 32.8351C302.34 32.7851 302.335 32.7351 302.332 32.6851C302.319 31.0498 301.735 29.4704 300.681 28.2195C299.628 26.9686 298.171 26.1246 296.562 25.8331C295.673 25.6004 294.757 25.4857 293.838 25.4921H282.128C281.373 25.5136 280.631 25.2858 280.018 24.8441C279.734 24.6341 279.506 24.3576 279.354 24.0389C279.202 23.7201 279.13 23.3689 279.146 23.0161C279.134 22.6625 279.207 22.3113 279.359 21.9917C279.511 21.6722 279.737 21.3935 280.018 21.1791C280.623 20.7162 281.368 20.4748 282.129 20.4951H300.857V16.2061H282.025C280.099 16.1389 278.213 16.7656 276.71 17.9721C276.018 18.5202 275.452 19.2118 275.052 19.9993C274.653 20.7868 274.428 21.6516 274.395 22.5341V22.5921C274.395 22.6751 274.39 22.7601 274.389 22.8441V22.9691V22.9821C274.358 23.9464 274.552 24.9047 274.956 25.7807C275.361 26.6567 275.964 27.4262 276.718 28.0281C278.261 29.2354 280.179 29.8607 282.137 29.7941L294.085 29.7881C294.234 29.7881 294.38 29.8011 294.524 29.8141C295.543 29.9201 298.424 30.4731 298.424 33.3211C298.345 33.9525 298.09 34.549 297.688 35.0428C297.287 35.5365 296.755 35.9077 296.153 36.1141C294.653 36.7001 292.475 36.5241 288.974 36.5241H274.896V40.8131V40.8251L274.908 40.8131H287.716H293.739C293.906 40.8131 294.068 40.8131 294.227 40.8051C294.296 40.8051 294.363 40.7991 294.427 40.7961L294.675 40.7831L294.767 40.7761C296.116 40.7117 297.436 40.3559 298.635 39.7331C299.996 38.9761 301.076 37.7992 301.714 36.3781L301.725 36.3521C301.772 36.2521 301.816 36.1391 301.859 36.0281C301.88 35.9731 301.899 35.9161 301.919 35.8601C301.939 35.8041 301.956 35.7551 301.974 35.7011C301.992 35.6471 302.013 35.5771 302.031 35.5141C302.049 35.4511 302.064 35.4021 302.079 35.3451C302.094 35.2881 302.109 35.2341 302.122 35.1781C302.141 35.1021 302.158 35.0251 302.175 34.9461L302.199 34.8321C302.222 34.7141 302.242 34.5951 302.26 34.4721C302.319 34.0694 302.348 33.663 302.348 33.2561V33.2101C302.348 33.1631 302.346 33.1211 302.345 33.0791Z" fill="#EFB433"/>
</g>
<defs>
<clipPath id="clip0_316_1838">
<rect width="308.155" height="64.165" fill="white"/>
</clipPath>
</defs>
</svg>
