<svg width="439" height="74" viewBox="0 0 439 74" fill="none" xmlns="http://www.w3.org/2000/svg">
<g clip-path="url(#clip0_316_1768)">
<path d="M0 0.164062V48.8891C0 49.9834 0.538415 51.0363 1.44002 51.7054L29.299 72.3149C30.6164 73.2866 32.4562 73.2898 33.7768 72.3149L61.6358 51.7038C62.5374 51.0363 63.0758 49.9834 63.0758 48.8891V0.164062H0ZM31.3984 4.05861C38.9051 4.14762 44.8781 9.80148 44.7999 16.7441C44.7239 23.4823 38.3848 29.2499 31.0618 29.2437C24.4091 29.238 18.3076 23.185 18.3337 16.6168C18.3613 9.65164 24.2678 3.97399 31.3984 4.05861ZM52.8423 46.1416C52.6423 51.8679 49.2395 54.9655 43.3359 55.0372C39.3829 55.0852 35.4288 55.0464 31.4753 55.0464C31.4753 55.0511 31.4753 55.0557 31.4754 55.0604C27.3884 55.0604 23.3005 55.1129 19.2147 55.0473C13.9423 54.9627 10.4854 51.8911 10.294 46.8471C10.1065 41.9035 10.0644 36.9375 10.3582 32.0033C10.4628 30.2483 11.3867 28.2799 12.5577 26.8959C15.0187 23.9873 17.6971 24.1142 20.4085 26.8209C26.7442 33.1458 36.2183 33.2557 42.4792 27.0769C44.9398 24.6486 47.9158 24.42 50.0709 26.1949C44.1008 31.9352 38.1302 37.676 32.1154 43.4593C28.9338 40.4026 25.7331 37.328 22.5578 34.2774C20.4505 36.3026 18.3547 38.3166 16.2232 40.3649C21.5416 44.9744 26.8552 49.5798 32.0972 54.1232C39.0389 47.4541 45.9509 40.8136 52.8444 34.191C52.9302 38.1747 52.9812 42.1622 52.8423 46.1416Z" fill="#1758A8"/>
<path d="M82.3306 15.7597V6.94727H89.6084V15.7597H82.3306ZM82.3306 25.2964H89.6084V66.2819H82.3306V25.2964Z" fill="#18325B"/>
<path d="M136.835 6.94727V54.7219C136.835 58.5204 136.835 62.3213 136.919 66.2819H129.97C129.722 65.231 129.558 62.0782 129.558 60.4601C127.49 64.7448 123.272 67.2518 116.407 67.2518C105.571 67.2518 98.9536 58.6824 98.9536 46.2336C98.9536 33.6227 106.148 24.3265 117.73 24.3265C125.175 24.3265 128.482 27.2362 129.558 29.5811V6.94727H136.835ZM117.895 61.2704C127.655 61.2704 129.889 54.1547 129.889 45.1827C129.889 36.0486 127.903 30.3103 118.474 30.3103C111.029 30.3103 106.479 36.0486 106.479 45.9905C106.479 55.8538 111.277 61.2704 117.895 61.2704Z" fill="#18325B"/>
<path d="M181.248 5.57227V56.6617C181.248 59.4903 181.332 63.937 181.332 66.2819H179.76C179.677 64.9069 179.593 60.4602 179.593 56.1779C177.693 62.0783 173.639 67.2518 164.043 67.2518C155.111 67.2518 147.086 60.3791 147.086 46.6387C147.086 32.0881 155.69 25.1368 165.119 25.1368C175.294 25.1368 178.601 32.007 179.593 34.6736V5.57227H181.248ZM164.127 65.7147C174.3 65.7147 179.76 58.9255 179.76 45.3447C179.76 33.4606 174.963 26.6715 164.954 26.6715C154.944 26.6715 148.825 35.1598 148.825 46.4767C148.825 58.6014 155.359 65.7147 164.127 65.7147Z" fill="#18325B"/>
<path d="M222.848 57.2263C222.848 62.3212 223.096 65.2309 223.26 66.2818H221.608C221.441 64.9878 221.193 62.3998 221.193 57.3073C218.961 64.0989 213.748 67.2516 206.222 67.2516C196.295 67.2516 192.408 61.5109 192.408 55.7727C192.408 47.1223 199.273 43.5669 210.772 43.5669C215.486 43.5669 218.214 43.5669 221.193 43.6479V37.9883C221.193 32.169 218.713 26.5903 208.95 26.5903C199.853 26.5903 196.708 31.037 196.131 37.1804H194.476C194.807 31.3587 198.115 25.1367 209.034 25.1367C218.877 25.1367 222.848 30.4698 222.848 37.5045V57.2263ZM221.193 45.1015C218.381 45.0205 214.99 45.0205 210.689 45.0205C199.521 45.0205 194.144 48.4973 194.144 55.6916C194.144 61.9161 199.19 65.7146 206.303 65.7146C215.899 65.7146 221.193 59.9763 221.193 48.9811V45.1015Z" fill="#18325B"/>
<path d="M230.452 26.1077H238.145V12.7676H239.8V26.1077H250.056V27.5613H239.8V57.9567C239.8 62.3224 240.708 65.5536 245.838 65.5536C246.913 65.5536 248.401 65.4751 249.145 65.151V66.6046C248.07 67.0097 246.83 67.0907 245.754 67.0907C240.296 67.0907 238.145 64.7458 238.145 57.5515V27.5613H230.452V26.1077Z" fill="#18325B"/>
<path d="M285.617 57.2263C285.617 62.3212 285.868 65.2309 286.032 66.2818H284.377C284.213 64.9878 283.965 62.3998 283.965 57.3073C281.73 64.0989 276.52 67.2516 268.992 67.2516C259.067 67.2516 255.178 61.5109 255.178 55.7727C255.178 47.1223 262.045 43.5669 273.542 43.5669C278.256 43.5669 280.986 43.5669 283.965 43.6479V37.9883C283.965 32.169 281.482 26.5903 271.722 26.5903C262.622 26.5903 259.48 31.037 258.9 37.1804H257.248C257.577 31.3587 260.887 25.1367 271.806 25.1367C281.647 25.1367 285.617 30.4698 285.617 37.5045V57.2263ZM283.965 45.1015C281.151 45.0205 277.76 45.0205 273.458 45.0205C262.293 45.0205 256.916 48.4973 256.916 55.6916C256.916 61.9161 261.962 65.7146 269.075 65.7146C278.671 65.7146 283.965 59.9763 283.965 48.9811V45.1015Z" fill="#18325B"/>
<path d="M296.694 26.1074C303.81 48.4982 308.276 61.1901 308.937 64.6645H309.02C310.096 60.785 312.742 53.6717 322.667 26.1074H324.902C333.255 50.8431 337.061 61.6738 337.805 64.3428H337.888C338.88 60.785 341.94 52.3777 350.956 26.1074H352.694L338.797 66.2826H336.813C331.519 50.8431 324.737 31.1999 323.743 27.7231H323.662C322.586 31.2809 316.381 48.5792 309.929 66.2826H307.945L294.875 26.1074H296.694Z" fill="#18325B"/>
<path d="M360.709 45.7498C360.709 58.2772 367.078 65.6335 376.011 65.6335C384.118 65.6335 388.005 61.3513 390.404 56.0968H392.059C389.577 62.3998 384.862 67.0896 376.094 67.0896C363.439 67.0896 359.054 56.0158 359.054 46.0714C359.054 33.2199 366.169 25.1367 376.259 25.1367C388.997 25.1367 392.968 36.0485 392.968 43.729C392.968 44.6178 392.968 44.8584 392.887 45.7498H360.709ZM391.396 44.2937C391.396 34.5924 386.434 26.5903 376.178 26.5903C367.078 26.5903 361.288 33.9467 360.792 44.2937H391.396Z" fill="#18325B"/>
<path d="M404.456 5.57227H406.111V36.2107C408.262 29.9052 412.728 25.1368 421.58 25.1368C431.34 25.1368 438.618 32.4908 438.618 45.2637C438.618 60.9463 430.1 67.2518 421.084 67.2518C412.976 67.2518 408.262 63.2102 406.111 56.6617C406.194 59.5713 406.194 63.856 406.03 66.2819H404.375C404.456 64.6638 404.456 61.1084 404.456 55.127V5.57227ZM421.496 26.6715C412.976 26.6715 405.946 31.926 405.946 46.4767C405.946 57.4695 410.248 65.7147 421.084 65.7147C430.181 65.7147 436.882 58.6014 436.882 45.3447C436.882 33.3821 430.017 26.6715 421.496 26.6715Z" fill="#18325B"/>
</g>
<defs>
<clipPath id="clip0_316_1768">
<rect width="439" height="73.045" fill="white"/>
</clipPath>
</defs>
</svg>
