<svg width="93" height="20" viewBox="0 0 93 20" fill="none" xmlns="http://www.w3.org/2000/svg">
<g clip-path="url(#clip0_3303_26692)">
<path d="M34.8493 19.721C33.6643 19.611 33.4788 18.3453 32.9735 17.5629C32.9045 17.4562 32.7116 17.2257 32.5799 17.2257H32.1382V19.0059C32.1382 19.1064 32.2961 19.2662 32.3904 19.3017C32.62 19.388 32.9028 19.182 32.8388 19.5688H30.6456C30.6072 19.2618 30.7105 19.365 30.8982 19.2887C31.0183 19.2398 31.1237 19.1466 31.2085 19.051L31.2224 15.4778C31.2085 15.3881 31.1191 15.2443 31.0337 15.2099C30.8233 15.1251 30.5883 15.3217 30.6454 14.9432C31.2394 14.938 31.8345 14.9499 32.4288 14.9446C33.0108 14.9392 33.4625 14.8558 34.0172 15.1507C34.8612 15.5994 35.0677 16.726 34.0736 17.1051L33.3264 17.2557C33.7009 17.4283 33.965 17.789 34.1645 18.1379C34.4533 18.6433 34.7137 19.7026 35.4888 19.3864C35.4786 19.4374 35.5062 19.6023 35.4858 19.6266C35.4718 19.643 35.1067 19.716 35.0625 19.721C35.0042 19.7277 34.9087 19.7265 34.8493 19.721ZM32.1382 15.5063V16.9669C32.1382 16.9701 32.1807 17.0126 32.1839 17.0126H33.0977C33.9917 17.0126 34.1161 15.227 32.8857 15.1554C32.6303 15.1404 32.1926 15.1997 32.1382 15.5063Z" fill="#040404"/>
<path d="M79.2613 14.9414L79.3529 16.25C79.1307 16.304 79.1436 16.1329 79.0301 15.9788C78.6168 15.4174 77.7785 15.0767 77.085 15.1866C77.0242 15.1962 76.7635 15.4029 76.7635 15.4436V16.9347C76.7635 16.9379 76.806 16.9804 76.8092 16.9804H77.4793C77.7006 16.9804 78.1076 16.6549 78.2074 16.4599C78.3006 16.2779 78.225 16.0156 78.4693 16.0674V18.2585H78.2864C78.3144 17.9098 78.2326 17.5847 77.9312 17.3811C77.8944 17.3561 77.6225 17.2239 77.6012 17.2239H76.7635V19.0041C76.7635 19.0899 77.0457 19.306 77.1462 19.3217C77.7696 19.419 79.0603 18.705 79.4737 18.2424C79.5146 18.1966 79.5964 18.0484 79.6275 18.0287C79.6586 18.0091 79.8231 18.0234 79.8066 18.0875C79.6094 18.5575 79.4816 19.0615 79.4136 19.567H75.2404C75.1996 19.2534 75.3191 19.3597 75.5234 19.2868C75.6678 19.2352 75.8924 19.0538 75.8814 18.8838L75.8782 15.5062C75.8647 15.4203 75.7224 15.2574 75.6477 15.2192C75.4611 15.1239 75.2814 15.2984 75.3316 14.9414H79.2612H79.2613Z" fill="#040404"/>
<path d="M52.5164 14.9414C52.4956 15.1982 52.4672 15.4594 52.4847 15.7186C52.4949 15.8693 52.5786 16.1203 52.5761 16.2377C52.5742 16.3158 52.3733 16.3501 52.3644 16.3414C52.3602 16.3375 52.3595 16.2662 52.3401 16.229C52.1475 15.8612 51.2996 15.0911 50.8627 15.1913C50.7785 15.2107 50.6232 15.3648 50.6038 15.45L50.6002 18.9404C50.6274 19.1419 50.8294 19.2734 51.0157 19.3165C51.2135 19.3623 51.2983 19.2434 51.2676 19.567H49.0134C48.9837 19.2475 49.063 19.3599 49.2652 19.3165C49.479 19.2705 49.659 19.1675 49.712 18.9414L49.7076 15.4501C49.3107 14.7347 48.4596 15.7051 48.1448 16.0671C48.0203 16.2103 48.0235 16.3567 47.7949 16.2804C47.8703 15.8379 47.8581 15.3897 47.8558 14.9416H52.5165L52.5164 14.9414Z" fill="#040404"/>
<path d="M66.4061 14.9417C66.4231 15.2338 66.3828 15.5497 66.4065 15.839C66.4136 15.9243 66.511 16.2619 66.4975 16.2799C66.4914 16.2881 66.3336 16.3219 66.3016 16.3428C66.1092 15.9431 65.7251 15.5694 65.3404 15.3519C65.0604 15.1936 64.6973 15.0343 64.5239 15.4197L64.5194 18.9718C64.5667 19.1928 64.7566 19.2844 64.9625 19.3203C65.0087 19.3284 65.1504 19.3166 65.1573 19.3235C65.1678 19.3339 65.1495 19.5223 65.1572 19.567H62.9334C62.8987 19.2419 63.0011 19.3596 63.2094 19.3102C63.4114 19.2624 63.6004 19.1279 63.6313 18.9101L63.6275 15.4804C63.2772 14.7401 62.4416 15.6172 62.1257 15.9757C62.0765 16.0316 61.9107 16.298 61.893 16.3078C61.8702 16.3203 61.7629 16.2676 61.7168 16.2787L61.7759 14.9414H66.4061V14.9417Z" fill="#040404"/>
<path d="M70.8235 14.9414V15.1849C70.4991 15.167 70.178 15.1827 70.1254 15.5679C70.1824 16.6145 70.0405 17.7567 70.1216 18.7919C70.1623 19.3109 70.4203 19.3701 70.8958 19.3197C71.3911 19.2671 72.3053 18.8166 72.6678 18.4728C72.742 18.4025 73.0146 18.0213 73.0795 18.0278C73.1013 18.0301 73.2312 18.0778 73.2309 18.0933C73.0591 18.5697 72.8765 19.0591 72.834 19.5669H68.6607C68.6188 19.2609 68.7384 19.3584 68.9348 19.2778C69.0413 19.2341 69.1795 19.1235 69.2162 19.011C69.269 17.8587 69.227 16.6936 69.2376 15.5368C69.2245 15.4518 69.1432 15.3236 69.0724 15.2757C68.88 15.1458 68.6165 15.2667 68.6913 14.9414H70.8236H70.8235Z" fill="#040404"/>
<path d="M45.264 14.8828L45.3997 16.255C45.3607 16.2518 45.2422 16.3179 45.2353 16.3125C45.2186 16.2994 45.0957 15.9931 45.0573 15.9267C44.8728 15.6089 44.5685 15.164 44.1766 15.1024C43.2215 14.9526 42.7873 15.9863 43.7122 16.4489C44.592 16.8889 45.7087 16.8531 45.6015 18.2153C45.4836 19.7141 43.6011 19.8287 42.4927 19.4321L42.3105 17.8646C42.366 17.8859 42.4747 17.8291 42.5064 17.8375C42.5482 17.8483 42.6292 18.1578 42.6613 18.2292C42.9623 18.9 43.5254 19.6534 44.3599 19.3487C44.8115 19.1837 45.0453 18.6598 44.9472 18.1975C44.8372 17.6789 43.6885 17.4424 43.2543 17.2109C42.1033 16.5967 42.4169 15.1996 43.6253 14.9326C44.1916 14.8076 44.7021 15.0217 45.264 14.8828Z" fill="#040404"/>
<path d="M39.7228 14.9414C39.7408 15.2856 39.7324 15.1493 39.4962 15.1868C39.3381 15.2119 39.2086 15.3523 39.1765 15.5063C39.2415 16.5676 39.0833 17.7445 39.1734 18.7921C39.191 18.9947 39.2878 19.2522 39.5085 19.3093C39.7135 19.3625 39.8191 19.2388 39.7837 19.567H37.7123C37.72 19.522 37.7014 19.3343 37.7123 19.3235C37.7233 19.3127 37.919 19.3335 38.0086 19.2999C38.0981 19.2662 38.2468 19.1394 38.2591 19.0327L38.2623 15.5942C38.2692 15.4593 38.0921 15.2191 37.965 15.1912C37.7551 15.1452 37.6103 15.2897 37.6516 14.9414H39.723H39.7228Z" fill="#040404"/>
<path d="M80.3574 14.2411C80.7256 14.1625 80.5752 14.419 80.7531 14.6062C80.7655 14.5541 80.8337 14.2565 80.8479 14.2442C80.8709 14.2242 81.0375 14.2513 81.0885 14.2411V14.8802H80.936L80.921 14.5147C80.845 14.6085 80.8581 14.8523 80.7379 14.8805C80.5563 14.923 80.6276 14.6309 80.525 14.5147L80.5099 14.8804H80.3574V14.2411Z" fill="#043F56"/>
<path d="M80.3274 14.2422L80.3275 14.3945L80.1751 14.3943V14.8813H80.0228V14.3943L79.8398 14.3945L79.84 14.2422H80.3274Z" fill="#043F56"/>
<path d="M59.5232 17.2525C59.5232 18.5698 58.4542 19.6378 57.1356 19.6378C55.8171 19.6378 54.748 18.5698 54.748 17.2525C54.748 15.9352 55.8171 14.8672 57.1356 14.8672C58.4542 14.8672 59.5232 15.9352 59.5232 17.2525ZM56.9573 15.1622C55.7665 15.2793 55.6552 16.468 55.684 17.4208C55.7085 18.2323 55.8732 19.1288 56.8044 19.314C57.9939 19.5505 58.5419 18.702 58.6098 17.6346C58.6848 16.4562 58.4798 15.0123 56.9573 15.1622Z" fill="#040404"/>
<path d="M21.8106 19.5668C21.8189 19.5225 21.7969 19.3711 21.8122 19.3553C21.8229 19.3443 22.0607 19.3265 22.1158 19.3088C22.4149 19.213 22.9253 18.5732 23.084 18.2981L25.2054 13.6921C25.2355 13.5936 25.3394 13.5597 25.4022 13.651C25.9913 14.9648 26.5373 16.3002 27.1359 17.6095C27.3277 18.029 27.7854 19.1772 28.2315 19.3148C28.3151 19.3405 28.5609 19.3417 28.5733 19.3537C28.5832 19.3633 28.5661 19.5255 28.5731 19.567H25.4965V19.3537C25.8088 19.3522 26.0266 19.3568 26.2224 19.0899C26.633 18.5299 26.0789 18.0175 25.918 17.4723L23.7438 17.465L23.6963 17.4861C23.5065 18.0261 22.9917 18.626 23.4398 19.172C23.6069 19.3757 23.8526 19.3498 24.0955 19.3537V19.567H21.8107L21.8106 19.5668ZM25.6488 16.8888L24.8266 15.063L24.0038 16.8888H25.6488Z" fill="#040404"/>
<path d="M93.0004 2.22112L92.6568 2.28342C92.1689 2.52589 91.8428 3.01953 91.5304 3.47661C91.3155 3.79112 91.1335 4.12895 90.9078 4.43631C90.8824 4.47103 90.8778 4.54216 90.8591 4.55754C90.8415 4.57201 90.792 4.55693 90.7817 4.56821C90.7649 4.58679 90.787 4.64421 90.7683 4.67787C90.6626 4.86719 90.4649 5.11058 90.3511 5.2868C90.0174 5.80359 89.6788 6.33926 89.3521 6.86914C89.4127 7.68643 89.2167 8.75625 89.4138 9.53196C89.4324 9.60492 89.5926 9.83795 89.659 9.88014C89.6817 9.89461 89.7256 9.88608 89.7614 9.90025C89.7719 9.90436 89.772 9.94518 89.7927 9.9499C90.0178 10.0014 90.1996 9.99544 90.4276 10.0104C90.5049 10.0154 90.5771 10.0443 90.655 10.042V10.7116H86.1314C86.1282 10.7116 86.0857 10.6691 86.0857 10.6659V10.0877C86.0857 9.96147 86.6699 10.0338 86.7654 10.011C86.7883 10.0055 86.7848 9.95599 86.8069 9.95127C86.8612 9.93954 86.9248 9.96224 86.979 9.95036C87.0012 9.94548 86.997 9.89568 87.0203 9.89035C87.0638 9.8806 87.1154 9.89857 87.1602 9.88898C87.1694 9.887 87.2894 9.76667 87.2943 9.75875C87.2987 9.7519 87.3625 9.63325 87.3643 9.62533C87.3745 9.58055 87.3558 9.52953 87.3654 9.48459C87.3707 9.45977 87.4208 9.47698 87.4283 9.42032C87.5267 8.67172 87.3506 7.70151 87.4249 6.929C87.193 6.51853 86.9142 6.09739 86.6611 5.68539C86.1963 4.92887 85.734 4.1588 85.2673 3.41233C85.127 3.18798 85.0023 2.91078 84.8348 2.70166C84.732 2.57326 84.5312 2.38851 84.3897 2.33261C84.3794 2.3285 84.3784 2.28753 84.3585 2.28296C84.296 2.26849 84.2197 2.29545 84.1567 2.28159C84.1326 2.27626 84.1486 2.22599 84.0924 2.21884C84.0286 2.21076 83.8732 2.24062 83.8358 2.21701C83.778 2.18076 83.7914 1.67555 83.8314 1.58218H88.096C88.144 1.7843 88.1441 2.0187 88.096 2.22127H87.5325C87.4624 2.3087 87.3282 2.26758 87.2536 2.35363C87.1832 2.43481 87.1589 2.67713 87.1829 2.77827C87.1849 2.7868 87.2295 2.86402 87.2525 2.9257C87.3646 3.22545 87.5899 3.49107 87.7286 3.76721C87.7399 3.7896 87.7184 3.84337 87.735 3.86134C87.7468 3.87398 87.8053 3.85509 87.8171 3.86789C87.8313 3.88297 87.8133 3.93856 87.8321 3.97618C88.0008 4.31568 88.3056 4.69066 88.4826 5.03031C88.5015 5.06656 88.4817 5.12353 88.4967 5.13937C88.5086 5.15216 88.5673 5.13312 88.579 5.14576C88.5956 5.16373 88.5741 5.2175 88.5854 5.23989C88.6661 5.40042 88.8204 5.56172 88.8921 5.75576C88.962 5.77967 88.9863 5.98727 89.0554 5.96442C89.0812 5.95589 89.2242 5.58822 89.2571 5.53324C89.3564 5.36752 89.532 5.14256 89.6529 4.95477C89.9152 4.54764 90.6981 3.49625 90.7693 3.08106C90.7875 2.9752 90.7922 2.70577 90.7788 2.59976C90.7719 2.54539 90.7304 2.55833 90.7177 2.53214C90.6664 2.42552 90.6431 2.34739 90.5013 2.29819C90.4685 2.28692 90.2282 2.22112 90.2131 2.22112H89.7714V1.58203H93.0004V2.22112Z" fill="#043F56"/>
<path d="M59.3099 1.56888C59.3222 1.52928 59.3792 1.52593 59.415 1.52167C59.8504 1.47064 60.4202 1.5404 60.8783 1.52289C61.9081 1.48374 62.9237 1.405 63.9544 1.5241C64.3051 1.56462 64.6495 1.53675 64.9931 1.58168C65.0495 1.58899 65.033 1.63849 65.0577 1.64428C65.2786 1.69606 65.415 1.69408 65.6386 1.7643C66.0345 1.88873 66.2482 1.969 66.5765 2.23524C67.2898 2.8134 67.587 3.69405 67.3818 4.60654C67.3768 4.62877 67.3289 4.6236 67.3225 4.64873C67.1718 5.2374 66.7407 5.63554 66.2194 5.90893C66.0747 5.98478 65.8919 6.0946 65.7139 6.1406C65.6532 6.15628 65.5587 6.13587 65.5288 6.15324C65.5184 6.15933 65.4849 6.26046 65.4938 6.27006C65.5026 6.27965 65.6753 6.33814 65.7254 6.37393C66.1906 6.70627 66.6006 7.33759 66.8962 7.77548C67.3509 8.44884 67.7575 9.2477 68.3747 9.78216C68.5668 9.94848 68.5267 9.90324 68.7631 9.95305C68.787 9.95807 68.771 10.0089 68.8272 10.016C68.9018 10.0251 68.992 9.99935 69.0665 10.0146C69.0715 10.0156 69.1493 10.0693 69.1493 10.0743V10.6525C69.1493 10.655 69.1154 10.6473 69.0992 10.6633C69.0831 10.6793 69.091 10.7132 69.0884 10.7132H66.6819C66.6361 10.6538 66.5845 10.5271 66.5479 10.4819C65.8334 9.59969 65.2583 8.49088 64.6421 7.52585C64.3958 7.14005 64.2657 6.89635 63.8286 6.71632C63.8179 6.71191 63.8176 6.6717 63.7972 6.66667C63.7672 6.65921 63.4219 6.6353 63.377 6.6353H62.585C62.5818 6.6353 62.5393 6.67779 62.5393 6.68099V9.29812C62.5393 9.31213 62.6 9.55186 62.6058 9.5674C62.6116 9.58294 62.7808 9.81216 62.7924 9.82328C62.804 9.8344 62.8451 9.82785 62.862 9.84156C63.0229 9.97254 62.9682 9.9168 63.1572 9.95899C63.1913 9.9666 63.2204 10.0132 63.2248 10.0132H63.8036C63.8136 10.0132 63.8499 10.0536 63.8797 10.0437V10.7132H59.3562C59.353 10.7132 59.3105 10.6707 59.3105 10.6675V10.0894C59.3105 9.95488 59.8835 10.0383 59.9902 10.0126C60.0135 10.007 60.0085 9.95792 60.0318 9.95274C60.132 9.93081 60.2047 9.93355 60.3047 9.88055C60.5174 9.76784 60.5174 9.54044 60.5909 9.32949V2.93723C60.5337 2.76268 60.5271 2.59712 60.4069 2.45045C60.3381 2.36637 60.284 2.36637 60.2041 2.33454C60.1942 2.33058 60.1942 2.29113 60.1721 2.28535C60.1331 2.27514 59.9477 2.2232 59.9351 2.2232H59.3106C59.3425 2.05764 59.2675 1.70794 59.3106 1.56888H59.3099ZM62.5388 2.22305V5.87482C63.2294 5.87786 63.9655 5.87421 64.6023 5.57873C64.6288 5.56639 64.9078 5.40098 64.9331 5.37768C65.1686 5.15957 65.2096 4.87491 65.2816 4.5878C65.2883 4.5613 65.3364 4.57866 65.3437 4.52277C65.3597 4.40107 65.364 3.64912 65.3407 3.55256C65.3352 3.52971 65.2862 3.53398 65.281 3.51082C65.2259 3.26469 65.1716 2.97698 64.9777 2.78416C64.8306 2.63779 64.3278 2.39242 64.1367 2.34612C64.0816 2.33271 64.015 2.35617 63.9606 2.34444C63.9381 2.33957 63.9423 2.29022 63.919 2.28474C63.8482 2.26768 63.5419 2.23432 63.4384 2.22229C63.1602 2.19 62.8238 2.24803 62.5388 2.2232V2.22305Z" fill="#043F56"/>
<path d="M59.0651 7.07352C59.0128 7.15105 58.9141 7.10505 58.8382 7.12074C58.7299 7.14313 58.4955 7.21456 58.4084 7.26894C58.2264 7.38256 58.2964 7.37845 58.2407 7.52253C58.23 7.54995 58.1877 7.54477 58.1825 7.5664C58.1668 7.63143 58.1543 7.94702 58.1499 8.04617C58.1204 8.71252 58.2293 9.54459 58.1527 10.1791C58.1487 10.2117 58.1539 10.2492 58.1227 10.2708C58.0706 10.307 57.7212 10.2761 57.6187 10.2845C56.5668 10.3713 55.6738 10.6322 54.6649 10.7725C54.3446 10.817 53.4743 10.9024 53.1764 10.8311C53.0584 10.8028 53.0236 10.7938 52.8645 10.7725C52.481 10.7213 52.0668 10.5689 51.7188 10.4019C50.721 9.92308 49.8357 8.92256 49.4718 7.86157C49.2966 7.35088 49.1282 6.5045 49.1654 5.9178C49.2575 4.46508 49.9379 3.14425 51.1384 2.29102C51.5967 1.96538 52.2607 1.63045 52.8063 1.5214C53.2949 1.42361 54.3323 1.40656 54.8405 1.52048C54.8631 1.52551 54.859 1.57516 54.882 1.58034C55.5115 1.72016 55.8048 1.91192 56.3353 2.26786C56.4349 2.33473 56.5484 2.38773 56.6428 2.46312C56.7418 2.42413 56.8612 1.83104 56.9022 1.70264H57.5419L57.6028 4.68486H57.0393C56.9569 4.68486 56.9723 4.50407 56.9621 4.46279C56.9561 4.43873 56.9097 4.44467 56.9033 4.41999C56.674 3.52609 56.0921 2.83247 55.2675 2.45292C53.9812 1.86089 52.4865 2.43997 51.8268 3.6918C51.223 4.87083 51.2576 7.17907 51.7181 8.3878C51.7595 8.49655 51.8746 8.78259 51.9363 8.86346C51.9616 8.89651 52.0321 8.94205 52.0856 9.03131C52.3364 9.45077 52.7212 9.74457 53.193 9.89094C53.2204 9.89947 53.2159 9.94349 53.2373 9.94866C53.322 9.96907 53.4454 9.93008 53.5302 9.95019C53.5549 9.95598 53.5385 10.0055 53.5948 10.0128C53.8059 10.0404 54.5454 10.0404 54.7565 10.0128C54.8128 10.0055 54.7964 9.95598 54.8211 9.95019C54.9059 9.93024 55.0276 9.96862 55.1135 9.94836C55.2157 9.9243 55.4304 9.77701 55.5255 9.70847C55.9084 9.43173 56.0211 9.28673 56.139 8.80696C56.1522 8.75304 56.1291 8.68556 56.141 8.63134C56.1463 8.60697 56.1964 8.62358 56.2037 8.56707C56.2231 8.41963 56.2229 7.9193 56.2037 7.77171C56.1964 7.7152 56.1463 7.7315 56.141 7.70744C56.1271 7.64453 56.1539 7.56838 56.1396 7.50578C56.1352 7.48674 56.0969 7.49039 56.0817 7.45993C56.0718 7.44044 56.0875 7.39703 56.0723 7.37083C56.0682 7.36367 55.96 7.2927 55.9363 7.27762C55.877 7.23969 55.5846 7.11937 55.5463 7.11937H55.0285C55.0253 7.11937 54.9828 7.07688 54.9828 7.07368V6.48028H59.0647V7.07368L59.0651 7.07352Z" fill="#043F56"/>
<path d="M47.5518 1.58234C47.6059 1.61676 47.5757 2.34799 47.5827 2.47959C47.5885 2.58773 47.6388 2.69983 47.6443 2.81376C47.6615 3.1761 47.5897 3.56144 47.7043 3.90734C47.6507 3.91815 47.6481 3.98638 47.6432 3.98638H47.1101C47.104 3.98638 47.0131 3.92439 47.0102 3.91922C46.9901 3.88403 47.0114 3.81458 46.9965 3.76569C46.8759 3.37197 46.6444 2.80614 46.2936 2.56564C46.2672 2.54752 46.2168 2.56564 46.1891 2.54859C46.1701 2.53671 46.1719 2.4837 46.1305 2.46984C46.0959 2.45827 46.0464 2.47411 46.0205 2.46314C45.9929 2.45156 45.9987 2.40998 45.9771 2.40465C45.8924 2.38409 45.7692 2.42141 45.679 2.40313C45.6245 2.39216 45.5924 2.34297 45.5869 2.34297H43.2565V5.5078H44.8101C44.8128 5.5078 44.8016 5.46531 44.8159 5.45434C44.8413 5.43454 44.907 5.4551 44.9549 5.43804C44.9644 5.43469 45.0597 5.30949 45.0852 5.28558C45.1106 5.26167 45.1586 5.26959 45.1679 5.25817C45.2686 5.13571 45.2739 4.67452 45.299 4.52008C45.3008 4.50911 45.351 4.38178 45.3584 4.38178H45.9372C45.9398 4.38178 45.932 4.41574 45.948 4.43174C45.964 4.44773 45.9981 4.43996 45.9981 4.44255V7.42476H45.3584L45.2958 6.89381C45.1778 6.4413 44.9699 6.40049 44.5591 6.32128C44.5207 6.31382 44.4665 6.26828 44.4598 6.26828H43.3022C43.299 6.26828 43.2565 6.31078 43.2565 6.31397V9.17449C43.2565 9.25567 43.3633 9.54384 43.4229 9.61695C43.443 9.64163 43.6376 9.80688 43.6624 9.81785C43.7968 9.87725 44.2633 9.94091 44.4283 9.95157C44.9807 9.98722 45.9436 9.95569 46.4014 9.69752C46.9475 9.38971 47.2827 8.835 47.4467 8.248C47.495 8.07497 47.5014 7.84544 47.5517 7.66815H48.1914C48.2753 7.94414 48.1769 8.22972 48.1612 8.50525C48.1496 8.70843 48.1821 8.91237 48.1292 9.11235C48.0854 9.57628 48.1915 10.1572 48.1327 10.6062C48.132 10.6123 48.0758 10.7113 48.0697 10.7113H40.0277C40.0252 10.7113 40.0329 10.6773 40.0169 10.6613C40.0009 10.6453 39.9668 10.6531 39.9668 10.6505V10.118C39.9668 10.112 40.0217 10.0116 40.0277 10.0116H40.6674C40.6706 10.0116 40.655 9.95858 40.6872 9.9502C40.791 9.9234 40.7971 9.94929 40.9212 9.90025C40.957 9.88608 41.0007 9.89461 41.0235 9.88014C41.1142 9.82272 41.259 9.52876 41.2782 9.41971C41.2583 7.37724 41.4028 5.24613 41.3084 3.209C41.3039 3.11365 41.291 2.82625 41.2755 2.76014C41.2707 2.73973 41.2299 2.7408 41.2191 2.71399C41.1984 2.66221 41.2043 2.62322 41.1644 2.56321C41.1527 2.54569 40.9649 2.34708 40.95 2.34388C40.9052 2.33429 40.8536 2.35226 40.81 2.34251C40.7867 2.33733 40.791 2.28814 40.7683 2.28265C40.6981 2.26605 40.5994 2.29971 40.5348 2.2825C40.5023 2.27382 40.518 2.22112 40.5148 2.22112H39.997C39.9488 2.0187 39.949 1.78415 39.997 1.58203H47.5515L47.5518 1.58234Z" fill="#043F56"/>
<path d="M83.3139 1.58203V4.19916H82.7199C82.6286 4.06223 82.6469 3.82433 82.6114 3.66851C82.5293 3.30846 82.3032 2.85351 82.0112 2.61789C81.9653 2.58088 81.8706 2.56184 81.8583 2.54721C81.8429 2.52879 81.8583 2.47791 81.8491 2.46908C81.833 2.4537 81.4746 2.40846 81.416 2.3978C81.3765 2.39064 81.3267 2.34297 81.3186 2.34297H79.8108V9.47911C79.8108 9.49373 79.9186 9.71123 79.9366 9.7423C79.9413 9.75053 80.0532 9.87801 80.0621 9.88121C80.1073 9.89766 80.149 9.88121 80.1847 9.89095C80.2113 9.89827 80.2048 9.94518 80.2276 9.95036C80.2918 9.96482 80.4491 10.0035 80.4977 10.0102C80.662 10.0331 80.8858 10.0082 81.0576 10.0137C81.0541 10.0416 81.0902 10.0772 81.0902 10.0879V10.7117H76.5818C76.5792 10.7117 76.587 10.6778 76.571 10.6618C76.555 10.6458 76.5209 10.6536 76.5209 10.651V10.0728C76.5209 10.0678 76.5881 10.0635 76.6013 10.0139C76.7766 10.0093 77.0069 10.0337 77.1745 10.0104C77.2602 9.99849 77.4218 9.9269 77.4896 9.89202C77.5097 9.88166 77.5569 9.89903 77.5807 9.88471C77.5976 9.87451 77.7532 9.56593 77.7612 9.53166C77.7785 9.45809 77.7558 9.38559 77.7691 9.33168C77.777 9.29954 77.8306 9.31523 77.8306 9.31203V2.34282H76.3227C76.3173 2.34282 76.2851 2.39201 76.2306 2.40298C76.148 2.41943 76.0404 2.38592 75.963 2.4045C75.9542 2.40663 75.8766 2.4473 75.8096 2.46969C75.7683 2.4834 75.7703 2.53625 75.751 2.54828C75.6075 2.63784 75.5114 2.64484 75.3752 2.81025C75.1725 3.05669 75.0385 3.40441 74.9992 3.72913C74.9855 3.84215 75.0345 4.10884 74.9547 4.17159C74.8752 4.23419 74.4186 4.19992 74.2969 4.1687V1.58203H83.3136H83.3139Z" fill="#043F56"/>
<path d="M39.4473 1.58203V4.19916H38.8533C38.7758 4.14692 38.8218 4.04807 38.806 3.97252C38.7348 3.63272 38.6809 3.31287 38.5114 3.02044C38.4558 2.92448 38.1943 2.61195 38.0985 2.56412C38.0627 2.5463 38.004 2.56656 37.9879 2.55148C37.9753 2.5396 37.994 2.4802 37.9823 2.46893C37.9683 2.45552 37.8965 2.46893 37.8569 2.45613C37.8006 2.43786 37.4734 2.34266 37.4518 2.34266H35.9439V9.38742C35.9439 9.47942 36.1375 9.82257 36.2275 9.87984C36.2502 9.89431 36.2942 9.88578 36.3299 9.89994C36.3402 9.90405 36.3411 9.94503 36.3611 9.94959C36.4243 9.96437 36.5061 9.93497 36.5638 9.9499C36.5961 9.95828 36.5804 10.0113 36.5836 10.0113H37.2233C37.2717 10.232 37.2719 10.49 37.2233 10.7111H32.715C32.7124 10.7111 32.7201 10.6772 32.7041 10.6612C32.6882 10.6452 32.654 10.653 32.654 10.6504V10.0722C32.654 10.0696 32.688 10.0774 32.7041 10.0614C32.7203 10.0454 32.7124 10.0114 32.715 10.0114H33.3394C33.3438 10.0114 33.3738 9.96437 33.4067 9.95691C33.4671 9.94335 33.5269 9.96117 33.5772 9.94975C33.5977 9.94502 33.598 9.90421 33.6084 9.89994C33.6439 9.88608 33.6888 9.89431 33.7106 9.87953C33.7606 9.84557 33.8778 9.6727 33.8753 9.61055C33.9113 9.5938 33.9945 9.37173 33.9945 9.35711V2.34282H32.5476C32.5386 2.34282 32.4897 2.39171 32.4499 2.39749C32.129 2.4438 32.0061 2.4243 31.7208 2.62885C31.3472 2.89646 31.1902 3.43975 31.1314 3.87992C31.1192 3.97131 31.1791 4.19916 31.0549 4.19916H30.4914C30.5013 4.16931 30.4609 4.13321 30.4609 4.12316V1.65803C30.4609 1.64798 30.5013 1.61188 30.4914 1.58203H39.4472H39.4473Z" fill="#043F56"/>
<path d="M73.8404 1.58218V2.22127H73.3682C73.3527 2.22127 73.109 2.28022 73.0721 2.29057C72.7271 2.38759 72.5925 2.61286 72.4993 2.9356L72.5016 9.35589C72.5718 9.49221 72.6182 9.66478 72.7137 9.78419C72.725 9.7982 72.9052 9.9467 72.918 9.94944C72.9827 9.96361 73.063 9.93558 73.1199 9.9502C73.1521 9.95843 73.1365 10.0116 73.1397 10.0116H73.7642C73.7743 10.0116 73.8105 10.0519 73.8404 10.042V10.7116H69.2406C69.2094 10.5421 69.1856 10.2873 69.208 10.1167C69.2088 10.1106 69.265 10.0116 69.2711 10.0116H69.9108C69.914 10.0116 69.8983 9.95858 69.9306 9.9502C70.0485 9.91974 70.1263 9.95325 70.2654 9.87892C70.4781 9.765 70.4777 9.54019 70.5515 9.32787V2.99622C70.5042 2.88793 70.5022 2.7641 70.4658 2.65459C70.4541 2.61941 70.3245 2.4371 70.2943 2.41714C70.1281 2.30794 69.9866 2.30946 69.8103 2.27595C69.771 2.26849 69.7208 2.22112 69.7129 2.22112H69.2103V1.58203H73.8405L73.8404 1.58218Z" fill="#043F56"/>
<path d="M22.8166 1.58218C22.8283 1.58706 22.9233 1.78277 22.9393 1.80288C23.1786 2.1046 23.4895 2.4144 23.7496 2.721C25.0039 4.1987 26.302 5.76414 27.5738 7.25357C27.6303 7.31982 27.7456 7.39552 27.7914 7.46284C27.8504 7.5492 27.8201 7.66252 27.9649 7.592C27.9486 7.54235 27.9338 7.49498 27.9323 7.44182C27.8953 6.03647 28.0235 4.53561 27.9352 3.14823C27.9299 3.06446 27.9166 2.88945 27.9017 2.81665C27.8501 2.56275 27.5866 2.34282 27.3382 2.28387C27.2812 2.27032 27.2117 2.29514 27.1615 2.28281C27.1293 2.27489 27.145 2.22127 27.1417 2.22127H26.6543C26.6063 2.01916 26.6062 1.78475 26.6543 1.58218H30.066V2.22127H29.4872C29.484 2.22127 29.4997 2.27489 29.4674 2.28281C29.3039 2.32286 29.143 2.31083 28.9794 2.41425C28.9671 2.42202 28.8113 2.63068 28.8035 2.64835C28.7828 2.69572 28.7967 2.76974 28.7784 2.79289C28.7665 2.80782 28.7257 2.7967 28.7257 2.79944V10.6964C28.7257 10.7064 28.6853 10.7425 28.6952 10.7724H28.086C28.0836 10.7724 28.0887 10.7372 28.0732 10.7245C28.0079 10.6714 27.9113 10.5795 27.8549 10.5171C27.2979 9.90025 26.8055 9.1585 26.236 8.55261C26.1156 8.42452 26.1198 8.47037 26.0358 8.31623C26.0029 8.25592 25.7484 8.02913 25.6809 7.94917C25.004 7.14665 24.3649 6.32601 23.6865 5.51953C23.5324 5.3363 23.2282 5.09702 23.1181 4.88729C23.0954 4.84404 23.0922 4.75616 23.0863 4.75067C23.0715 4.73666 23.0028 4.75631 22.9673 4.73255C22.9405 4.71457 22.9449 4.65898 22.9253 4.6369C22.8432 4.54445 22.7597 4.45534 22.6824 4.36457C22.5096 4.1623 22.3232 3.96491 22.1756 3.74299C22.0859 3.77909 22.1469 3.92211 22.1473 3.99994C22.1558 5.62965 22.0698 7.34633 22.1444 8.96294C22.1586 9.27121 22.1715 9.69585 22.4597 9.88014C22.4822 9.89461 22.5264 9.88608 22.562 9.90025C22.5724 9.90436 22.5733 9.94533 22.5933 9.9499C22.6565 9.96467 22.7383 9.93528 22.796 9.9502C22.8281 9.95858 22.8126 10.0116 22.8158 10.0116H23.4555C23.4616 10.0116 23.5178 10.1106 23.5185 10.1167C23.5307 10.2097 23.5408 10.7116 23.4403 10.7116H20.1351C20.1039 10.5418 20.0802 10.2873 20.1026 10.1167C20.1033 10.1106 20.1595 10.0116 20.1656 10.0116H20.7292C20.7337 10.0116 20.7637 9.96422 20.7965 9.95706C20.8562 9.94396 20.9145 9.96056 20.966 9.94929C20.9815 9.94594 21.1791 9.77855 21.2214 9.75799C21.2519 9.63173 21.3401 9.52252 21.3547 9.38864C21.3702 9.24608 21.3446 9.07747 21.3524 8.92988C21.4392 7.28068 21.4199 5.4717 21.3524 3.81991C21.3399 3.51484 21.388 3.17199 21.2913 2.88199C21.2837 2.85914 21.2464 2.85991 21.2423 2.84985C21.1323 2.57448 20.879 2.34601 20.5755 2.28326C20.4762 2.2627 20.391 2.23666 20.3275 2.22173C20.285 2.21168 20.1047 2.23224 20.1047 2.22112V1.62772C20.1047 1.62453 20.1472 1.58203 20.1504 1.58203H22.8158L22.8166 1.58218Z" fill="#043F56"/>
<path d="M19.7093 1.58203V2.22112H19.2067C19.1924 2.22112 18.9873 2.27808 18.9412 2.29057C18.9164 2.29728 18.6666 2.40496 18.6533 2.4141C18.6401 2.42323 18.4581 2.64073 18.4518 2.6552C18.4125 2.74583 18.4051 2.87316 18.3722 2.96987L18.3681 9.32772C18.3815 9.44119 18.4928 9.68153 18.5673 9.76774C18.6137 9.8215 18.6608 9.81434 18.6922 9.84161C18.7173 9.86339 18.7714 9.9467 18.7868 9.94959C18.843 9.96026 18.9054 9.94015 18.9616 9.95188C19.0135 9.96269 19.0452 10.0035 19.1136 10.0131C19.2987 10.039 19.5185 9.97731 19.7091 10.0419V10.7114H15.1551C15.0549 10.7114 15.0566 10.1301 15.0856 10.0789C15.1527 9.96132 15.6006 10.0317 15.7359 10.014C15.7924 10.0067 15.7762 9.9566 15.8003 9.95127C15.8632 9.93741 15.9396 9.96437 16.0021 9.9499C16.01 9.94807 16.1076 9.89309 16.1341 9.87892C16.3125 9.78327 16.3573 9.60187 16.4206 9.41956V2.90423C16.3827 2.82823 16.3707 2.71811 16.3401 2.64896C16.3344 2.63632 16.2345 2.48157 16.2274 2.47365C16.2138 2.45842 16.1725 2.46512 16.1582 2.45233C16.0396 2.34799 16.0347 2.32896 15.8539 2.28372C15.8085 2.2723 15.6251 2.22112 15.612 2.22112H15.0789V1.58203H19.7091H19.7093Z" fill="#043F56"/>
<path d="M12.1543 0V11.5942H0V0H12.1543ZM10.7527 6.0878C10.7527 3.52276 8.67127 1.44343 6.10364 1.44343C3.53601 1.44343 1.45455 3.52291 1.45455 6.0878C1.45455 8.65269 3.53601 10.7322 6.10364 10.7322C8.67127 10.7322 10.7527 8.65284 10.7527 6.0878Z" fill="#043F56"/>
<path d="M6.69959 3.74509C6.7002 3.76062 6.70218 3.78088 6.71345 3.79169C7.07763 4.13926 7.475 4.66412 7.70225 5.10947C7.742 5.18745 7.83552 5.33535 7.86004 5.40069C7.94198 5.61834 7.78586 5.60752 7.65549 5.73333C7.10976 6.25971 6.60501 6.47127 5.84057 6.66851C5.70913 6.70247 5.61759 6.69988 5.5029 6.72745C5.47975 6.73309 5.48417 6.78137 5.46102 6.78701C5.39659 6.80239 4.58067 6.80818 4.54198 6.78335C4.49979 6.64856 4.45425 6.50752 4.42288 6.36983C4.31443 5.89341 4.23447 5.16583 4.29341 4.64158C4.29829 4.59832 4.30758 4.53496 4.3388 4.50435C4.36454 4.47906 4.61555 4.44876 4.67495 4.44464C4.92093 4.42758 5.05831 4.43764 5.28205 4.38204C5.83052 4.24573 6.17017 4.02777 6.61552 3.80388C6.65497 3.78408 6.62786 3.71691 6.69975 3.74509H6.69959Z" fill="#043F56"/>
<path d="M8.04088 5.84432C8.06647 5.86717 8.14552 6.18123 8.16608 6.24627C8.27041 6.57465 8.37749 7.0037 8.40658 7.38128C8.41389 7.47632 8.42333 7.83957 8.39774 7.90583C8.39439 7.91451 8.27361 8.02554 8.26188 8.03392C7.57771 8.53258 6.83825 8.89492 5.98654 9.01053C5.93475 9.01753 5.86697 9.08105 5.82341 9.06384C5.80392 9.05622 5.60988 8.76668 5.57561 8.72464C5.2352 8.30594 4.98648 7.91984 4.75268 7.40382C4.70607 7.3007 4.63921 7.21389 4.66023 7.09204C4.86402 7.15235 5.07679 7.1158 5.28196 7.08945C5.97679 7.00005 6.66127 6.81194 7.24126 6.42325C7.43728 6.29181 7.65036 6.17164 7.85689 6.00486C7.89025 5.9779 8.0025 5.81005 8.04073 5.84448L8.04088 5.84432Z" fill="#043F56"/>
<path d="M4.59927 9.07004C4.59653 9.06821 4.61146 9.01734 4.57932 9.00865C4.50164 8.98779 4.37112 9.02815 4.28567 9.00805C4.26404 9.00287 4.26496 8.95824 4.24059 8.95078C4.0272 8.88559 3.7963 8.87203 3.59205 8.77501L3.20732 8.04119C3.0902 7.70626 2.95434 7.33082 2.89509 6.98386C2.87696 6.87739 2.94535 6.74336 2.83203 6.71153C2.89006 6.54323 3.0046 6.70955 3.04054 6.72325C3.40289 6.86277 3.74299 6.95263 4.09803 7.0297C4.16047 7.04326 4.22825 7.01813 4.29024 7.03595C4.31004 7.05316 4.45397 7.46135 4.48154 7.52288C4.70132 8.01408 4.96329 8.4972 5.33051 8.90371L5.42174 9.07004C5.30005 9.04521 4.64984 9.10309 4.59927 9.07004Z" fill="#043F56"/>
<path d="M8.68204 7.04533C8.63955 6.71116 8.49318 6.27129 8.39844 5.92875C8.36494 5.80751 8.25649 5.69313 8.2836 5.55346L8.67884 5.05739L9.01728 4.38281C9.17918 4.49994 9.21711 4.72383 9.30072 4.89061C9.30864 4.90645 9.35784 4.91605 9.3749 4.95169C9.55767 5.33307 9.75811 5.83508 9.62301 6.2451C9.48608 6.66044 9.06739 7.17434 8.79079 7.53561C8.76825 7.56516 8.73109 7.62197 8.68174 7.60826C8.66559 7.42991 8.70382 7.21881 8.68174 7.04533H8.68204Z" fill="#043F56"/>
<path d="M4.00595 4.44485C4.10876 4.47683 3.9959 4.93269 3.99102 5.03855C3.97975 5.28544 4.02164 5.72729 4.05484 5.97845C4.08652 6.21697 4.17014 6.47041 4.20441 6.71167C4.20578 6.73573 4.06245 6.7336 4.03428 6.72979C3.97777 6.72187 3.99513 6.67344 3.96955 6.66734C3.6925 6.60185 3.45444 6.58616 3.17708 6.4599C3.05204 6.40293 2.95243 6.31201 2.83119 6.25352C2.82053 6.2124 2.82266 5.57772 2.83378 5.53096C2.83941 5.50781 2.88846 5.51223 2.89348 5.48938C2.96842 5.154 2.98471 4.85821 3.13398 4.54141C3.15256 4.50212 3.21546 4.32635 3.24395 4.32422C3.31172 4.40479 3.41118 4.36549 3.48261 4.38408C3.51673 4.39291 3.49982 4.445 3.50302 4.445C3.61071 4.445 3.93421 4.42276 4.00564 4.445L4.00595 4.44485Z" fill="#043F56"/>
<path d="M9.7386 8.45096C9.68757 8.57616 9.51059 8.78437 9.41266 8.90134C9.15403 9.21038 8.89481 9.42483 8.5416 9.65893C8.48936 9.6935 8.45981 9.819 8.37695 9.75229C8.43696 9.53297 8.48555 9.31212 8.53718 9.09081C8.58364 8.89144 8.65994 8.68598 8.68218 8.47487C8.69513 8.35181 8.65583 8.16066 8.68797 8.05481C8.72528 7.93189 8.98573 7.74562 9.06585 7.65713C9.16256 7.55036 9.24877 7.33667 9.3729 7.29539L9.79373 6.54298C9.83318 6.54085 9.86562 6.7585 9.86943 6.80161C9.9034 7.18786 9.86837 7.72902 9.80653 8.1072C9.79724 8.16371 9.74865 8.42644 9.73845 8.45127L9.7386 8.45096Z" fill="#043F56"/>
<path d="M8.40724 8.3087C8.42917 8.3975 8.3588 8.46375 8.34799 8.53839C8.29681 8.89327 8.26925 9.06873 8.16598 9.3968C8.13933 9.48148 8.00179 9.99065 7.97422 10.007C7.9497 10.0216 7.90355 10.0044 7.88329 10.0146C7.8408 10.0362 7.71819 10.1186 7.68423 10.1334C7.47008 10.2266 7.41205 10.2916 7.20735 10.1597C6.94339 9.98959 6.74509 9.84794 6.49393 9.64963C6.43636 9.60409 6.14011 9.41691 6.1293 9.39756C6.10828 9.36009 6.12717 9.29628 6.12245 9.2518C6.1357 9.23779 6.37924 9.26505 6.43681 9.25119C6.99198 9.11808 7.65559 8.81346 8.15242 8.48005C8.18715 8.45675 8.37678 8.27565 8.40708 8.3087H8.40724Z" fill="#043F56"/>
<path d="M7.69432 3.05451C8.023 3.24124 8.33828 3.55789 8.6068 3.8156C8.66635 3.87272 8.79109 3.98771 8.80237 4.06432C8.8144 4.14596 8.71905 4.39529 8.67701 4.47723C8.60573 4.61599 8.42662 4.86638 8.3366 4.99722C8.2769 5.08388 8.21811 5.1745 8.16251 5.26299C8.07494 5.32011 8.00228 5.00483 7.97624 4.95518C7.7723 4.5674 7.36837 4.02777 7.06772 3.70183C7.04517 3.67746 6.87154 3.63557 6.94983 3.50398C6.95851 3.48935 7.16778 3.35639 7.22033 3.30247C7.28582 3.23545 7.436 2.96252 7.5347 2.9814C7.57506 2.98917 7.65411 3.03167 7.69416 3.05436L7.69432 3.05451Z" fill="#043F56"/>
<path d="M5.10443 2.62887C5.34766 2.73016 5.84221 3.02701 6.04874 3.17688C6.1118 3.22272 6.11896 3.29873 6.1418 3.31731C6.18978 3.3563 6.33432 3.38722 6.38657 3.44631C6.52349 3.60136 6.19191 3.69199 6.10342 3.73722C5.70681 3.94025 5.27105 4.10886 4.76249 4.16399C4.63623 4.1777 4.47569 4.18836 4.35522 4.16735C4.34212 4.11693 4.40868 4.1544 4.41675 4.11784C4.42741 4.0688 4.40792 4.00681 4.42269 3.94634C4.53083 3.5045 4.61094 3.28745 4.80224 2.91079C4.82875 2.85855 4.89866 2.61181 4.93871 2.58912C4.99933 2.57587 5.05173 2.60694 5.10427 2.62887H5.10443Z" fill="#043F56"/>
<path d="M4.1047 9.20033C4.25976 9.27039 4.26463 9.22059 4.39653 9.25212C4.41968 9.2576 4.41526 9.30604 4.43841 9.31167C4.58859 9.34762 5.37542 9.3962 5.53108 9.37503C5.59566 9.3662 5.66054 9.30268 5.6942 9.31533C5.70487 9.31929 5.79564 9.46383 5.83204 9.49642C6.16575 9.7951 6.50022 10.005 6.84642 10.2773C6.86455 10.2916 6.92852 10.2985 6.8848 10.3465C6.82419 10.413 5.89023 10.418 5.74127 10.4091C5.59124 10.4001 5.15579 10.3504 5.03531 10.2927C4.90585 10.2306 4.55265 9.89182 4.43476 9.78017C4.29875 9.65147 4.14644 9.41676 4.04363 9.3205C4.01926 9.29781 3.91021 9.3138 3.93016 9.19074C3.98743 9.19515 4.04972 9.17551 4.1047 9.20033Z" fill="#043F56"/>
<path d="M1.87559 5.91893C2.01237 6.03073 2.12599 6.14968 2.26627 6.25751C2.44538 6.3952 2.56068 6.39505 2.5884 6.65154C2.65511 7.26687 2.72243 7.55488 2.9515 8.0901C3.01578 8.24027 3.05903 8.4066 3.13702 8.55281C3.01578 8.5883 3.0272 8.51078 2.97846 8.48184C2.71207 8.32374 2.24144 8.06938 2.08136 7.78167C1.93758 7.5232 1.80187 6.84421 1.76547 6.53015C1.7408 6.31783 1.78527 6.06225 1.76669 5.84445C1.77294 5.83607 1.85914 5.90522 1.87559 5.91863V5.91893Z" fill="#043F56"/>
<path d="M2.42817 3.99746C2.43609 4.00082 2.43898 4.03844 2.4597 4.04651C2.5357 4.07636 2.94663 4.22212 2.94754 4.27634C2.93353 4.34123 2.85037 4.43535 2.8356 4.47039C2.74177 4.69474 2.62876 5.09638 2.59038 5.37419C2.57515 5.48461 2.57835 6.03932 2.52732 6.0876L2.04008 5.70759C1.87864 5.54493 1.79167 5.50167 1.82883 5.25234C1.90042 4.77074 2.06948 4.50085 2.24433 4.08352C2.27616 4.00752 2.25256 3.92344 2.42817 3.99731V3.99746Z" fill="#043F56"/>
<path d="M7.7013 2.04399C7.71593 2.06882 7.7141 2.16782 7.70557 2.20011C7.70267 2.21092 7.60063 2.34267 7.58585 2.36598C7.50361 2.49559 7.48777 2.6779 7.26951 2.55027C6.78821 2.26895 6.14409 2.19417 5.52846 2.1893C5.40616 2.18838 5.29954 2.23088 5.1783 2.22143C5.14951 2.19585 5.37569 1.84675 5.43357 1.82391C5.52587 1.78735 5.90573 1.73877 6.01615 1.73511C6.28879 1.72628 6.90031 1.79878 7.17157 1.85833C7.23341 1.87188 7.68668 2.02008 7.701 2.04415L7.7013 2.04399Z" fill="#043F56"/>
<path d="M4.28726 2.29356C4.29534 2.29721 4.29442 2.3391 4.31605 2.34428C4.36555 2.35616 4.42602 2.3394 4.47811 2.34504C4.50964 2.50664 4.43379 2.44968 4.37804 2.49659C4.11515 2.71759 3.77231 2.95839 3.55572 3.22904C3.49647 3.30291 3.31096 3.65246 3.28172 3.67592C3.26116 3.69221 3.2144 3.67698 3.20404 3.6881C3.18683 3.70638 3.20922 3.7641 3.19033 3.79746C3.17434 3.82579 3.05965 3.89509 3.07641 3.9883C3.02188 3.93911 2.96552 3.93911 2.9046 3.9158C2.77834 3.86752 2.72884 3.83554 2.60592 3.75725C2.53677 3.71323 2.48651 3.76532 2.54576 3.59367C2.56693 3.53229 2.62298 3.51523 2.64689 3.47624C2.99096 2.91407 3.47454 2.61706 4.02773 2.28183C4.062 2.26097 4.04936 2.22548 4.05195 2.2238C4.06718 2.21405 4.10145 2.26949 4.13435 2.27787C4.18537 2.29082 4.23898 2.27269 4.28711 2.29402L4.28726 2.29356Z" fill="#043F56"/>
<path d="M8.1547 2.23054C8.17252 2.23648 8.41393 2.38575 8.45581 2.41621C8.51613 2.46023 8.52496 2.53516 8.55131 2.55451C8.59761 2.58847 8.72784 2.61132 8.78115 2.64681C8.80765 2.66447 9.05012 2.87984 9.05667 2.89735C9.07586 2.94838 9.05622 3.2862 9.0454 3.36007C9.03901 3.40393 8.99682 3.43805 8.98722 3.48451C8.97565 3.54071 8.99575 3.60331 8.98494 3.65936C8.98402 3.66438 8.92752 3.73704 8.92325 3.73978C8.85365 3.78425 8.77292 3.56264 8.75206 3.53629C8.62625 3.37759 8.08083 2.94914 7.89562 2.83902C7.85069 2.81221 7.7159 2.77307 7.71026 2.76485C7.68559 2.72829 7.75595 2.58177 7.77606 2.56365C7.79616 2.54552 7.84064 2.56684 7.85952 2.53486C7.88206 2.49678 7.96553 2.24212 7.98503 2.22537C8.00863 2.20526 8.11677 2.2179 8.15455 2.2307L8.1547 2.23054Z" fill="#043F56"/>
<path d="M9.40649 3.23466C9.42294 3.24426 9.59916 3.48978 9.63556 3.53913C9.73152 3.66935 9.96471 4.01175 9.98923 4.15796C10.0584 4.57103 9.89769 4.9783 9.92998 5.38847C9.78528 5.41604 9.79579 5.19869 9.74401 5.07882C9.62353 4.79964 9.44655 4.51147 9.29531 4.27448C9.25159 4.20594 9.19768 4.14075 9.16996 4.06338C9.16737 3.781 9.31282 3.51476 9.32105 3.22781C9.34877 3.23055 9.38075 3.21974 9.40649 3.23466Z" fill="#043F56"/>
<path d="M10.3255 4.90098C10.2867 5.02952 10.3625 5.13203 10.3798 5.22722C10.5181 5.9909 10.448 6.75397 10.2555 7.49328L10.1431 7.66996C10.1173 7.35468 10.1772 6.9899 10.1431 6.68086C10.123 6.49916 9.97218 6.11671 9.98741 5.94932C9.99243 5.89388 10.0444 5.90987 10.0506 5.88367C10.1129 5.62018 10.1673 5.39857 10.2174 5.11208C10.2259 5.06288 10.2476 4.87523 10.3257 4.90082L10.3255 4.90098Z" fill="#043F56"/>
<path d="M6.123 2.4667C6.12574 2.46838 6.1099 2.50813 6.14539 2.52626C6.22322 2.56601 6.60293 2.59068 6.73924 2.62709C6.79667 2.64247 7.2012 2.78427 7.21445 2.8059C7.23212 2.83453 7.22328 2.88388 7.21018 2.91556C7.20105 2.9378 6.90252 3.16687 6.8451 3.22871C6.79788 3.27958 6.84434 3.3539 6.68868 3.3472C6.55769 3.34157 6.59836 3.27272 6.56805 3.23998C6.45747 3.12087 6.06177 2.83712 5.91479 2.74375C5.80924 2.67659 5.62693 2.62404 5.53372 2.55306C5.49914 2.52671 5.47158 2.52154 5.48315 2.4667C5.58794 2.48955 6.07289 2.43624 6.12285 2.4667H6.123Z" fill="#043F56"/>
<path d="M4.53735 2.80138C4.54786 2.84981 4.49836 2.81356 4.47871 2.85484C4.41109 2.99679 4.28254 3.31877 4.24218 3.46468C4.18065 3.68721 4.1479 3.9376 4.10693 4.16607C4.07738 4.21435 3.66919 4.14261 3.59151 4.12662C3.34142 4.07514 3.34904 4.03554 3.4721 3.82794C3.65853 3.51342 4.0291 3.1197 4.34087 2.90997C4.41109 2.86276 4.41048 2.7633 4.53751 2.80153L4.53735 2.80138Z" fill="#043F56"/>
<path d="M2.64111 8.56074C2.65421 8.56653 2.76098 8.71289 2.79327 8.733C3.06012 8.89871 3.31249 8.88257 3.53106 9.15246C3.68717 9.34513 3.84192 9.65127 4.04906 9.79018L4.17182 9.95102L3.9394 9.87928C3.55847 9.6001 3.1451 9.34681 2.83318 8.98401C2.79342 8.93786 2.53602 8.61953 2.52749 8.59638C2.50129 8.52647 2.60943 8.54688 2.64111 8.56074Z" fill="#043F56"/>
<path d="M4.99606 1.85707C5.06856 1.9413 4.90239 2.07 4.87619 2.12514C4.85 2.18027 4.92387 2.2677 4.74323 2.22124C4.71947 2.21515 4.72449 2.16687 4.70119 2.16169C4.5894 2.13671 4.55315 2.20769 4.47852 2.05446C4.54005 2.02827 4.97794 1.83605 4.99606 1.85707Z" fill="#043F56"/>
</g>
<defs>
<clipPath id="clip0_3303_26692">
<rect width="93" height="19.724" fill="white"/>
</clipPath>
</defs>
</svg>
