<svg width="299" height="92" viewBox="0 0 299 92" fill="none" xmlns="http://www.w3.org/2000/svg">
<g clip-path="url(#clip0_316_1776)">
<path d="M0 18.4957H20.5763V0H0V18.4957ZM0 91.2028H20.5763V29.9757H0V91.2028ZM188.724 53.4142C189.045 49.2686 190.974 41.6153 199.976 41.6153C209.622 41.6153 211.39 48.6309 211.551 53.4142H188.724ZM279.067 59.9515C279.067 59.9515 297.071 31.8891 298.196 29.9757H276.012C275.691 30.6135 265.563 49.4281 265.563 49.4281C265.563 49.4281 256.401 30.773 255.918 29.9757H231.645C232.77 31.7296 250.935 59.9515 250.935 59.9515L239.522 77.1716C221.356 77.8094 215.409 77.8094 209.782 77.8094H208.014C196.279 77.8094 189.206 74.9393 187.92 66.4887L187.759 65.851H231.323V62.5026C231.323 52.1387 228.269 28.0624 200.137 28.0624C180.204 28.0624 167.022 40.4991 167.022 59.9515C167.022 78.9255 181.49 92 203.031 92L223.285 91.6811L242.576 91.2028H254.311C254.632 90.565 265.081 70.9532 265.081 70.9532C265.081 70.9532 274.083 90.565 274.405 91.2028H299C298.518 89.4489 279.067 59.9515 279.067 59.9515ZM149.822 29.9757L136.64 73.9827L135.836 76.0555C135.836 76.0555 122.654 30.9324 122.333 29.9757H100.47C101.113 31.5702 122.976 90.4055 123.297 91.2028H147.249C147.571 90.4055 169.273 31.5702 169.916 29.9757H149.822ZM78.2866 30.1352L53.0484 29.9757H33.7581V91.2028H54.4952V44.3258H68.9629C78.9296 44.3258 78.9296 53.2548 79.0903 61.5459V91.2028H99.5059V61.5459C99.5059 35.3969 91.1468 30.1352 78.2866 30.1352Z" fill="#A30931"/>
</g>
<defs>
<clipPath id="clip0_316_1776">
<rect width="299" height="92" fill="white"/>
</clipPath>
</defs>
</svg>
