<svg width="163" height="15" viewBox="0 0 163 15" fill="none" xmlns="http://www.w3.org/2000/svg">
<g clip-path="url(#clip0_3303_26443)">
<path d="M161.131 9.03347C161.131 9.62577 161.481 10.0296 162.194 10.0296C162.463 10.0296 162.719 9.97577 162.921 9.93538V11.0527C162.719 11.1065 162.49 11.1604 162.14 11.1604C160.7 11.1604 160 10.3123 160 9.06039V5.4662H158.91V4.38928H160V2.96238H161.131V4.38928H162.921V5.4662H161.131V9.03347ZM157.914 7.17579V11.12H156.757V7.05464C156.757 5.84312 156.272 5.30466 155.168 5.30466C154.091 5.30466 153.351 6.01811 153.351 7.37772V11.12H152.193V4.38928H153.351V5.49312C153.782 4.6989 154.576 4.25467 155.478 4.25467C157.026 4.25467 157.914 5.31812 157.914 7.17579ZM147.853 5.30466C146.628 5.30466 146.009 6.09888 145.888 7.27002H149.643C149.576 6.01811 149.011 5.30466 147.853 5.30466ZM150.438 10.8508C149.886 11.1469 149.038 11.2546 148.351 11.2546C145.834 11.2546 144.73 9.80077 144.73 7.74117C144.73 5.7085 145.861 4.25467 147.907 4.25467C149.98 4.25467 150.815 5.69504 150.815 7.74117V8.26617H145.901C146.063 9.41039 146.803 10.1508 148.392 10.1508C149.172 10.1508 149.832 10.0027 150.438 9.78731V10.8508ZM138.958 7.37772V11.12H137.8V7.05464C137.8 5.84312 137.316 5.30466 136.212 5.30466C135.135 5.30466 134.395 6.01811 134.395 7.37772V11.12H133.237V4.38928H134.395V5.49312C134.825 4.6989 135.62 4.25467 136.522 4.25467C137.666 4.25467 138.446 4.83351 138.783 5.89696C139.16 4.86043 140.062 4.25467 141.179 4.25467C142.687 4.25467 143.521 5.27774 143.521 7.17579V11.12H142.364V7.37772C142.364 5.99119 141.879 5.30466 140.775 5.30466C139.698 5.30466 138.958 6.01811 138.958 7.37772ZM128.897 5.30466C127.672 5.30466 127.053 6.09888 126.931 7.27002H130.687C130.62 6.01811 130.054 5.30466 128.897 5.30466ZM131.481 10.8508C130.929 11.1469 130.081 11.2546 129.395 11.2546C126.878 11.2546 125.774 9.80077 125.774 7.74117C125.774 5.7085 126.905 4.25467 128.951 4.25467C131.024 4.25467 131.858 5.69504 131.858 7.74117V8.26617H126.945C127.106 9.41039 127.847 10.1508 129.435 10.1508C130.216 10.1508 130.876 10.0027 131.481 9.78731V10.8508ZM123.3 10.5815V9.90846C122.869 10.7969 122.061 11.2546 121.025 11.2546C119.248 11.2546 118.359 9.73346 118.359 7.75464C118.359 5.85658 119.288 4.25467 121.159 4.25467C122.142 4.25467 122.896 4.6989 123.3 5.57389V4.38928H124.431V10.5142C124.431 12.493 123.502 13.8257 121.092 13.8257C119.961 13.8257 119.342 13.6777 118.696 13.4623V12.3315C119.436 12.5738 120.204 12.7354 121.038 12.7354C122.721 12.7354 123.3 11.8334 123.3 10.5815ZM119.49 7.75464C119.49 9.37 120.136 10.1777 121.334 10.1777C122.371 10.1777 123.3 9.51808 123.3 8.02386V7.48541C123.3 5.99119 122.452 5.33158 121.469 5.33158C120.163 5.33158 119.49 6.19311 119.49 7.75464ZM112.05 7.75464C112.05 9.37 112.696 10.1777 113.894 10.1777C114.931 10.1777 115.86 9.51808 115.86 8.02386V7.48541C115.86 5.99119 115.012 5.33158 114.029 5.33158C112.723 5.33158 112.05 6.19311 112.05 7.75464ZM115.86 11.12V9.90846C115.429 10.7969 114.621 11.2546 113.585 11.2546C111.794 11.2546 110.892 9.73346 110.892 7.75464C110.892 5.85658 111.835 4.25467 113.719 4.25467C114.702 4.25467 115.456 4.6989 115.86 5.57389V4.38928H117.017V11.12H115.86ZM109.682 7.17579V11.12H108.524V7.05464C108.524 5.84312 108.04 5.30466 106.936 5.30466C105.859 5.30466 105.119 6.01811 105.119 7.37772V11.12H103.961V4.38928H105.119V5.49312C105.549 4.6989 106.344 4.25467 107.246 4.25467C108.794 4.25467 109.682 5.31812 109.682 7.17579ZM97.2479 7.75464C97.2479 9.37 97.894 10.1777 99.0921 10.1777C100.129 10.1777 101.057 9.51808 101.057 8.02386V7.48541C101.057 5.99119 100.209 5.33158 99.2267 5.33158C97.921 5.33158 97.2479 6.19311 97.2479 7.75464ZM101.057 11.12V9.90846C100.627 10.7969 99.819 11.2546 98.7825 11.2546C96.9921 11.2546 96.0902 9.73346 96.0902 7.75464C96.0902 5.85658 97.0325 4.25467 98.9171 4.25467C99.8998 4.25467 100.654 4.6989 101.057 5.57389V4.38928H102.215V11.12H101.057ZM87.2543 6.28728L86.0427 3.0027V11.1199H84.8312V2.2758H86.9312L88.9369 7.35073L89.7581 9.78725L90.5792 7.35073L92.5984 2.2758H94.5503V11.1199H93.3388V3.09693L92.3023 6.28728L90.3504 11.1199H89.1792L87.2543 6.28728ZM77.8117 5.30466C76.5867 5.30466 75.9675 6.09888 75.8463 7.27002H79.602C79.5347 6.01811 78.9694 5.30466 77.8117 5.30466ZM80.3963 10.8508C79.8443 11.1469 78.9963 11.2546 78.3097 11.2546C75.7925 11.2546 74.6886 9.80077 74.6886 7.74117C74.6886 5.7085 75.8194 4.25467 77.8655 4.25467C79.9386 4.25467 80.7732 5.69504 80.7732 7.74117V8.26617H75.8598C76.0213 9.41039 76.7617 10.1508 78.3501 10.1508C79.1309 10.1508 79.7905 10.0027 80.3963 9.78731V10.8508ZM73.7709 9.90846V10.945C73.3671 11.1604 72.7479 11.2546 72.1286 11.2546C69.7325 11.2546 68.6152 9.80077 68.6152 7.74117C68.6152 5.7085 69.7325 4.25467 72.1286 4.25467C72.7344 4.25467 73.2055 4.33544 73.7305 4.57774V5.65466C73.2998 5.45274 72.8421 5.33158 72.2094 5.33158C70.4594 5.33158 69.746 6.43542 69.746 7.74117C69.746 9.04693 70.4729 10.1508 72.2363 10.1508C72.9228 10.1508 73.3536 10.0565 73.7709 9.90846ZM65.8986 2.61237C65.8986 2.10084 66.2352 1.80469 66.7063 1.80469C67.1775 1.80469 67.514 2.10084 67.514 2.61237C67.514 3.12391 67.1775 3.42006 66.7063 3.42006C66.2352 3.42006 65.8986 3.12391 65.8986 2.61237ZM66.114 11.12V4.38928H67.2717V11.12H66.114ZM62.4996 11.12H60.9516L58.3401 4.38928H59.5516L61.7323 10.1373L63.8996 4.38928H65.1111L62.4996 11.12ZM55.7157 7.1489V11.12H54.5849V4.38931H55.7157V5.57392C56.1061 4.77969 56.7791 4.21432 58.0983 4.29508V5.42584C56.6176 5.27777 55.7157 5.72199 55.7157 7.1489ZM50.2448 5.30466C49.0198 5.30466 48.4006 6.09888 48.2794 7.27002H52.0351C51.9678 6.01811 51.4025 5.30466 50.2448 5.30466ZM52.8294 10.8508C52.2774 11.1469 51.4294 11.2546 50.7428 11.2546C48.2256 11.2546 47.1217 9.80077 47.1217 7.74117C47.1217 5.7085 48.2525 4.25467 50.2986 4.25467C52.3717 4.25467 53.2063 5.69504 53.2063 7.74117V8.26617H48.2929C48.4544 9.41039 49.1948 10.1508 50.7832 10.1508C51.564 10.1508 52.2236 10.0027 52.8294 9.78731V10.8508ZM46.1016 8.68344C46.1016 10.218 45.1862 11.2546 42.992 11.2546C41.2824 11.2546 40.4882 10.918 39.8017 10.568V9.32959C40.6228 9.76035 41.8882 10.07 43.0593 10.07C44.392 10.07 44.8901 9.54497 44.8901 8.76421C44.8901 7.98345 44.4055 7.56615 42.7228 7.1623C40.7305 6.67769 39.842 5.99116 39.842 4.53733C39.842 3.16427 40.892 2.14119 42.9516 2.14119C44.2305 2.14119 45.0516 2.45081 45.6574 2.78734V3.99888C44.7689 3.48734 43.8132 3.32581 42.8978 3.32581C41.7401 3.32581 41.0536 3.72965 41.0536 4.53733C41.0536 5.26425 41.6189 5.6277 43.1805 6.01809C45.0516 6.48923 46.1016 7.095 46.1016 8.68344ZM31.1767 7.75464C31.1767 9.37 31.8229 10.1777 33.0209 10.1777C34.0574 10.1777 34.9863 9.51808 34.9863 8.02386V7.48541C34.9863 5.99119 34.1382 5.33158 33.1555 5.33158C31.8498 5.33158 31.1767 6.19311 31.1767 7.75464ZM34.9863 11.12V9.90846C34.5555 10.7969 33.7478 11.2546 32.7113 11.2546C30.9209 11.2546 30.019 9.73346 30.019 7.75464C30.019 5.85658 30.9613 4.25467 32.8459 4.25467C33.8286 4.25467 34.5824 4.6989 34.9863 5.57389V4.38928H36.144V11.12H34.9863ZM27.176 7.1489V11.12H26.0452V4.38931H27.176V5.57392C27.5664 4.77969 28.2394 4.21432 29.5587 4.29508V5.42584C28.0779 5.27777 27.176 5.72199 27.176 7.1489ZM22.9245 2.61237C22.9245 2.10084 23.2611 1.80469 23.7322 1.80469C24.2034 1.80469 24.5399 2.10084 24.5399 2.61237C24.5399 3.12391 24.2034 3.42006 23.7322 3.42006C23.2611 3.42006 22.9245 3.12391 22.9245 2.61237ZM23.1399 11.12V4.38928H24.2976V11.12H23.1399ZM20.3183 8.50841V2.2758H21.5299V8.42765C21.5299 10.0565 20.8164 11.1738 19.1472 11.1738C18.5145 11.1738 18.0299 11.0661 17.6934 10.9449V9.77379C18.0568 9.92186 18.501 10.0026 18.9453 10.0026C19.9683 10.0026 20.3183 9.38341 20.3183 8.50841Z" fill="#101214"/>
<path d="M0 3.51167C0 1.57223 1.57223 0 3.51167 0H10.535C12.4744 0 14.0467 1.57223 14.0467 3.51167V10.535C14.0467 12.4744 12.4744 14.0467 10.535 14.0467H3.51167C1.57223 14.0467 0 12.4744 0 10.535V3.51167Z" fill="#FFC716"/>
<path d="M8.01793 5.9707H10.6302C11.0225 5.9707 11.1565 6.34387 10.9173 6.64049L6.8314 11.6832C5.51089 10.6307 5.63529 8.96571 6.60173 7.75047L8.01793 5.9707ZM5.9989 7.98013H3.38662C2.99431 7.98013 2.86035 7.60696 3.09957 7.31031L7.18543 2.26758C8.50594 3.32015 8.3624 4.96598 7.40552 6.19076L5.9989 7.98013Z" fill="#101214"/>
</g>
<defs>
<clipPath id="clip0_3303_26443">
<rect width="163" height="14.0467" fill="white"/>
</clipPath>
</defs>
</svg>
