<svg width="500" height="125" viewBox="0 0 500 125" fill="none" xmlns="http://www.w3.org/2000/svg">
<g clip-path="url(#clip0_316_1681)">
<path d="M48.0068 23.1979V25.4127H56.2676V68.4609C56.2676 81.3975 52.6795 85.0403 44.68 85.0403C39.6487 85.0403 38.8193 81.2183 38.8193 79.2404C38.8193 74.5342 38.558 71.654 34.2711 71.654C29.9599 71.654 29.4556 76.0078 29.4556 77.3385C29.4556 83.266 32.0927 87.802 43.8718 87.802C57.9113 87.802 65.4156 83.0625 65.4156 67.3216V25.4006L73.9469 25.4127V23.1979H48.0068ZM73.822 79.2635C72.8224 80.26 72.3272 81.4419 72.3272 82.8759C72.3272 84.3008 72.8224 85.4735 73.8342 86.4184C74.8398 87.4058 76.0369 87.8828 77.4344 87.8828C78.8563 87.8828 80.0564 87.4058 81.0833 86.4184C82.0707 85.4735 82.572 84.3008 82.572 82.8759C82.572 81.4267 82.0707 80.2418 81.0833 79.2635C80.0928 78.27 78.8988 77.8112 77.4344 77.8112C75.9882 77.8112 74.7942 78.27 73.822 79.2635ZM131.43 79.2635C130.442 80.26 129.965 81.4419 129.965 82.8759C129.965 84.3008 130.442 85.4735 131.43 86.4184C132.481 87.4058 133.645 87.8828 135.042 87.8828C136.488 87.8828 137.695 87.4058 138.712 86.4184C139.715 85.4735 140.21 84.3008 140.21 82.8759C140.21 81.4267 139.715 80.2418 138.718 79.2635C137.71 78.27 136.501 77.8112 135.042 77.8112C133.614 77.8112 132.414 78.27 131.43 79.2635ZM91.5654 23.2033V25.4121H99.0272V74.5184C99.0272 78.38 98.7902 79.3826 98.3588 80.5007C97.897 81.7494 96.8549 82.7337 95.3115 83.3748C94.163 83.8579 92.4221 84.1131 90.101 84.1769V86.2064H117.445V84.1981C115.127 84.1404 113.358 83.8761 112.201 83.4629C110.569 82.8188 109.512 81.8709 108.995 80.5857C108.543 79.4798 108.309 78.5076 108.309 76.5662V59.7498L115.075 59.7224C134.726 59.7224 140.249 51.969 140.249 41.3869C140.249 30.6925 136.859 23.1973 116.962 23.1973L91.5654 23.2033ZM108.309 25.6947L113.009 25.6309C128.163 25.6309 131.472 31.8652 131.472 41.9672C131.472 52.133 125.514 57.3192 113.495 57.3192H108.309V25.6947ZM211.186 23.3455C210.958 23.9289 191.93 71.346 191.93 71.346L191.496 71.6285L191.04 71.346C191.04 71.346 170.763 23.9289 170.526 23.3455H152.634V25.375H160.4V74.1411L160.233 78.5829C160.108 79.7557 159.743 80.8008 159.169 81.6333C158.565 82.5417 157.58 83.2283 156.301 83.681C155.456 83.9575 154.199 84.1428 152.634 84.1793V86.2088H170.392V84.2066C168.882 84.1428 168.226 83.994 167.342 83.6993C166.039 83.2709 165.06 82.6237 164.413 81.6971C163.836 80.8342 163.462 79.8043 163.331 78.5829L163.134 74.1411V32.0196H164.176C164.176 32.0196 187.139 85.6194 187.379 86.2088H189.296L211.028 32.6151H211.575V76.0461C211.575 77.9054 211.387 79.3395 211.028 80.4514C210.6 81.7518 209.673 82.7331 208.33 83.3954C207.334 83.839 205.815 84.1003 203.812 84.1793V86.2088H228.589V84.1793C226.611 84.0821 225.08 83.8147 224.041 83.3499C222.601 82.648 221.668 81.6333 221.258 80.336C220.899 79.2027 220.726 77.8173 220.726 76.0461V25.4145L227.313 25.3507V23.3455H211.186ZM233.072 64.1369C233.072 86.574 250.529 88.0566 254.297 88.0566C261.759 88.0566 275.904 83.4021 275.904 63.7146C275.904 48.3961 266.857 40.0592 254.595 40.0592C241.369 40.0592 233.072 48.8244 233.072 64.1369ZM242.946 64.3861C242.946 52.0814 243.712 42.8483 254.418 42.8483C265.988 42.8483 266.042 52.4034 266.042 63.6113C266.042 79.7168 263.29 85.2737 254.418 85.2737C244.477 85.2737 242.946 80.3062 242.946 64.3861ZM297.942 50.178L297.323 50.1567C297.256 50.178 296.183 43.2357 295.779 41.191C292.692 41.191 280.47 41.1606 280.47 41.1606V43.5091H288.755C288.755 43.5091 288.706 50.5426 288.706 53.0764V74.6172C288.706 77.701 288.366 79.852 287.701 81.1554C286.853 82.6927 284.954 83.4644 281.809 83.4644H280.47V86.2079H306.124V83.4644H304.742C301.375 83.4644 299.923 82.7322 299.021 81.2739C298.204 79.9887 297.839 77.8104 297.839 74.6172V58.4631C297.839 53.0157 301.941 46.8147 306.856 46.8147C311.994 46.8147 311.872 54.7292 317.697 51.5452C320.862 49.8134 320.328 40.7444 310.502 40.7444C302.591 40.7444 300.124 45.4171 297.942 50.178ZM378.04 43.5307C375.112 45.7607 373.972 47.8206 373.972 50.7707C373.972 52.1409 374.34 53.107 375.112 53.7572C375.883 54.4439 376.792 54.7598 377.904 54.7598C380.453 54.7598 381.887 53.4625 382.415 50.1084C382.807 47.6201 383.351 46.2012 384.576 44.9039C385.885 43.5307 387.933 42.844 390.697 42.844C393.915 42.844 396.191 43.7099 397.47 45.4417C398.639 47.0702 399.259 49.285 399.259 52.0194V59.5754C391.038 60.3167 371.63 61.8753 372.493 76.6591C372.818 82.4439 377.919 87.5207 384.509 87.5207C391.794 87.5207 396.406 83.3705 399.536 80.0498C400.037 83.1973 402.96 86.9556 408.27 86.9556C414.243 86.9556 417.81 84.0268 418.227 76.7047H416.692C416.288 79.8887 414.319 81.6053 412.7 81.6053C409.954 81.6053 409.082 80.0771 408.878 77.5341L408.717 71.7676V52.8974C408.717 48.8232 408.061 46.0858 405.658 43.6856C403.294 41.2854 398.718 40.058 392.104 40.058C385.754 40.058 381.039 41.2307 378.04 43.5307ZM381.474 74.9274C381.474 66.5389 392.964 62.3432 399.259 62.3432V76.8353L399.104 77.1939L398.913 77.3761C394.517 81.3623 391.159 82.7841 388.704 82.7841C382.415 82.7841 381.474 77.5463 381.474 74.9274ZM436.283 49.3248L435.459 49.2914L433.852 41.1065L419.907 41.0822V43.4307C422.526 43.5401 426.892 43.5887 426.892 43.5887V74.5661C426.892 76.9724 426.703 78.7042 426.348 79.8526C425.977 81.2228 425.087 82.1799 423.771 82.7328C422.927 83.0974 421.599 83.2979 419.907 83.3739V86.2085H442.079V83.3526C439.849 83.1734 438.346 82.5688 437.543 81.4294C436.678 80.2111 436.283 78.1178 436.283 75.0583V63.1608C436.283 58.1842 436.255 53.3778 437.954 50.4034C439.786 47.1616 443.14 45.3752 446.895 45.3752C450.27 45.3752 452.048 46.4568 453.163 48.5987C454.071 50.3426 454.661 55.5319 454.661 59.1017L454.551 73.8461C454.551 76.301 454.861 78.1178 454.661 79.2814C454.411 80.6395 453.795 81.6968 452.728 82.3986C451.954 82.9333 450.735 83.2098 449.174 83.3283V86.2085H470.544V83.3739C467.84 83.1977 466.072 82.5414 465.297 81.2775C464.419 79.9893 463.693 77.8201 463.693 74.5874L463.815 54.1768C463.815 51.2267 463.42 48.702 462.311 46.63C461.19 44.6156 459.616 43.0874 457.659 42.0818C455.669 41.0822 453.391 40.59 450.887 40.59C441.873 40.59 438.254 46.0922 436.283 49.3248ZM364.896 38.2396C363.575 38.6619 362.697 39.8377 362.232 41.8247C361.885 43.6567 361.19 44.7171 360.263 45.0148C359.333 45.2883 358.297 45.2093 357.064 44.79C354.767 42.6541 350.358 40.0595 342.599 40.0595C330.109 40.0595 324.604 48.9584 324.604 57.0764C324.604 66.5799 328.256 71.1797 336.292 72.872C336.778 72.9753 336.778 73.5131 336.355 73.6103C329.501 74.9988 323.428 77.004 323.428 83.5179C323.428 87.4432 325.682 89.5942 328.565 90.77C331.75 92.0643 336.225 92.7357 341.842 92.836C346.755 92.8907 350.237 93.0639 352.503 93.3343C354.955 93.6138 356.897 94.3126 358.331 95.3577C359.807 96.5001 360.588 98.1832 360.588 100.386C360.588 103.4 358.978 105.824 355.763 107.62C352.774 109.291 348.687 110.163 343.605 110.163C339.245 110.163 335.678 109.686 332.457 107.681C330.072 106.204 329.608 103.3 330.109 101.209C330.552 99.0947 329.796 96.8646 327.344 96.4515C325.995 96.2236 324.297 96.9588 323.513 98.1832C322.778 99.3225 322.519 100.678 322.519 102.294C322.519 107.653 326.657 110.163 329.82 111.086C334.645 112.557 337.844 112.912 342.28 112.912C348.162 112.912 352.938 112.013 356.353 110.284C359.768 108.559 362.15 106.45 363.42 104.026C364.76 101.583 365.401 99.0916 365.401 96.6915C365.401 93.4527 364.69 90.8126 363.307 88.8681C358.844 82.731 352.503 83.5179 338.254 82.8373C331.4 82.8373 330.078 81.6008 330.078 79.4922C330.078 76.4024 332.618 75.1841 342.544 73.662C352.309 72.1429 361.411 68.5578 361.411 56.6298C361.411 53.1997 360.609 50.2527 359.64 48.1928C361.661 48.6424 363.544 48.6424 365.264 48.0743C367.236 47.4666 368.515 46.4792 369.256 45.0938C369.997 43.7053 370.164 42.3989 369.754 41.1229C369.101 39.0356 367.983 37.9935 366.37 37.9935C365.917 37.9935 365.428 38.0756 364.896 38.2396ZM333.664 57.0764C333.664 48.7001 336.586 42.4688 342.839 42.4688C350.115 42.4688 352.242 48.1472 352.242 56.9033C352.242 69.4267 348.299 71.0673 342.839 71.0673C337.003 71.0673 333.664 68.9467 333.664 57.0764Z" fill="black"/>
</g>
<defs>
<clipPath id="clip0_316_1681">
<rect width="500" height="125" fill="white"/>
</clipPath>
</defs>
</svg>
