<svg width="38" height="32" viewBox="0 0 38 32" fill="none" xmlns="http://www.w3.org/2000/svg">
<g clip-path="url(#clip0_3303_26526)">
<path fill-rule="evenodd" clip-rule="evenodd" d="M7.41287 5.90822C7.59463 4.89222 7.85885 3.84329 8.26845 2.89385C8.4383 2.49936 8.70879 2.05232 8.95553 1.70268C9.24632 1.29067 9.73557 0.684573 10.2878 0.682475C10.48 0.681769 10.661 0.73853 10.8106 0.86185C11.295 1.26124 11.2048 2.16654 11.1035 2.72078C10.8847 3.92176 10.7295 5.14166 10.6596 6.36085C10.5995 7.4196 10.6002 8.50498 10.7218 9.55949C10.8462 10.6386 11.216 12.604 12.3686 13.0791C12.7572 13.2389 13.234 13.1695 13.6268 13.0616C13.949 12.9733 14.2768 12.845 14.5851 12.7161C14.9884 12.548 15.3875 12.3616 15.7761 12.1612C16.5939 11.7393 17.7542 10.8992 18.6992 11.3953C19.2661 11.6931 19.222 12.323 19.0165 12.8423C18.86 13.2395 18.5706 13.6179 18.2973 13.9423C17.9786 14.32 17.6326 14.6774 17.2949 15.0382C17.1153 15.2309 16.9364 15.425 16.7645 15.6247C16.4059 16.0402 15.9739 16.6575 16.1738 17.2383C16.4694 18.099 17.5882 18.53 18.2693 19.0048C18.8558 19.4126 19.8435 20.1364 19.791 20.945C19.7819 21.0852 19.7428 21.2183 19.6764 21.3416C19.4205 21.8209 18.8928 21.9743 18.3854 22.0031C17.7884 22.0367 17.1607 21.9183 16.5736 21.8174C15.9984 21.7186 15.2561 21.5805 14.6808 21.7032C14.576 21.7256 14.4648 21.7634 14.3837 21.8363C14.1482 22.0493 14.1839 22.6071 14.2097 22.8859C14.2608 23.4283 14.295 24.0792 14.1818 24.6152C14.1027 24.9901 13.9273 25.3769 13.5415 25.5149C13.0382 25.695 12.4993 25.3313 12.1331 25.0202C11.6193 24.5837 11.1489 24.0106 10.7442 23.4724C9.00376 21.1587 8.00704 18.192 7.49958 15.364C6.95566 12.333 6.86957 8.95464 7.41287 5.90822ZM24.5279 21.7662H21.0533V7.78814C22.1843 8.21277 23.346 8.54143 24.5279 8.78387V21.7662ZM29.3956 9.74027V17.9054C30.0023 17.8123 30.5915 17.6749 31.1388 17.4801C34.3457 16.3394 34.8035 12.3566 31.8119 10.6421C31.0906 10.2287 30.2609 9.93859 29.3956 9.74027ZM25.7078 5.80312C29.0503 5.80872 31.6861 6.45755 33.6013 7.55551C39.2623 10.8004 38.4844 18.7862 32.3425 20.971C30.5817 21.5974 28.3667 21.8629 25.7078 21.7417V5.80312ZM13.4911 31.2942C9.4336 29.176 6.07575 26.7376 4.03615 23.663C1.76938 20.2478 0.68248 14.1714 0.613281 5.80451C2.37609 5.39812 4.66593 4.62525 6.88939 3.68423C6.60595 4.6018 6.41591 5.54766 6.28196 6.49818C5.15311 6.93195 4.04244 7.31172 3.01635 7.61933C3.14566 12.2873 3.70904 18.8801 6.01005 22.3485C7.76656 24.9964 10.6799 27.034 13.4919 28.598C16.1215 27.135 18.7062 25.3825 20.5424 22.9539C23.9814 22.9539 28.5582 23.2517 31.7623 22.3878C30.0694 24.0848 27.119 24.4092 24.8509 24.4324C24.0345 24.4289 23.2174 24.4296 22.401 24.4296C20.3341 27.1475 17.2055 29.3554 13.4905 31.2949L13.4911 31.2942ZM12.0883 1.02231C12.5732 0.706173 13.0487 0.374319 13.4911 0C15.8089 1.96333 20.7472 4.15509 24.5279 5.30632V7.74193C24.1561 7.65155 23.7954 7.55693 23.4453 7.45954C20.1859 6.43442 16.2283 4.74367 13.4905 2.9443C13.0124 3.25821 12.4973 3.56931 11.9548 3.87412C12.085 3.01328 12.3258 2.13658 12.1491 1.26474C12.1347 1.19102 12.0883 1.09548 12.0883 1.02231ZM13.278 6.72872C14.4544 6.0946 15.9208 6.53604 16.5541 7.71463C17.1873 8.89383 16.747 10.3639 15.5706 10.9988C14.3942 11.6336 12.9278 11.1921 12.2945 10.0128C11.6612 8.83357 12.1023 7.36357 13.278 6.72872Z" fill="#7B1EFF"/>
</g>
<defs>
<clipPath id="clip0_3303_26526">
<rect width="37.4312" height="31.2949" fill="white"/>
</clipPath>
</defs>
</svg>
