<svg width="355" height="87" viewBox="0 0 355 87" fill="none" xmlns="http://www.w3.org/2000/svg">
<path d="M67.9683 55.1866C67.9683 37.4952 81.8619 23.8516 99.3033 23.8516C116.745 23.8516 130.763 37.4952 130.763 55.1866C130.763 72.878 116.76 86.5216 99.3033 86.5216C81.8463 86.5216 67.9683 72.878 67.9683 55.1866ZM115.447 55.1866C115.447 45.5751 108.446 38.808 99.3033 38.808C90.2857 38.808 83.2841 45.5751 83.2841 55.1866C83.2841 64.7981 90.2857 71.5652 99.3033 71.5652C108.446 71.5652 115.447 64.7981 115.447 55.1866Z" fill="#222222"/>
<path d="M195.872 48.4195V84.865H180.556V50.3261C180.556 42.2462 175.695 38.1047 168.803 38.1047C161.317 38.1047 155.738 42.4963 155.738 52.8267V84.8806H140.422V25.5082H155.738V32.1503C159.301 26.8053 165.474 23.8359 173.429 23.8359C186.01 23.8516 195.872 32.6348 195.872 48.4195Z" fill="#222222"/>
<path d="M228.269 24.9142V25.5081H240.85V40.23H228.269V84.8649H212.953V40.23H204.404V25.5081H212.953V24.9142C212.953 8.53557 221.971 -1.07592 240.85 0.0962091V14.8182C232.911 14.2243 228.269 16.8343 228.269 24.9142Z" fill="#222222"/>
<path d="M266.605 25.5078H251.29V84.8646H266.605V25.5078Z" fill="#222222"/>
<path d="M266.121 18.9764L273.951 1.76953H256.385L251.399 18.9764H266.121Z" fill="#222222"/>
<path d="M277.514 55.1866C277.514 37.4952 291.408 23.8516 308.849 23.8516C326.291 23.8516 340.309 37.5108 340.309 55.1866C340.309 72.878 326.306 86.5216 308.849 86.5216C291.392 86.5216 277.514 72.878 277.514 55.1866ZM325.009 55.1866C325.009 45.5751 318.007 38.808 308.865 38.808C299.847 38.808 292.846 45.5751 292.846 55.1866C292.846 64.7981 299.847 71.5652 308.865 71.5652C317.992 71.5652 325.009 64.7981 325.009 55.1866Z" fill="#222222"/>
<path d="M16.0817 0.0957031H0V84.8487H16.0817V0.0957031Z" fill="#222222"/>
<path d="M63.1074 0.0957031C62.2165 10.0979 60.0911 17.834 56.6216 24.1322C53.152 30.4149 48.1197 35.5879 41.4932 39.62C40.1961 40.4327 39.5553 41.1985 39.5553 41.9174C39.5553 42.48 40.1961 43.1677 41.4932 43.9804C47.8696 47.7781 52.9801 52.7948 56.856 59.0462C60.7318 65.2976 63.3418 73.9088 64.7171 84.88H47.2601C46.9319 76.1749 45.3222 69.4235 42.4153 64.6255C39.5084 59.8276 34.9605 55.8111 28.7404 52.5916C23.7393 50.0129 21.2388 46.8247 21.2388 43.0427C21.2388 39.1668 23.6612 35.3847 28.4904 31.6652C35.0231 26.664 39.4928 22.0068 41.9152 17.6933C44.3376 13.3799 45.5879 7.80052 45.666 0.12696H63.1074V0.0957031Z" fill="#222222"/>
<path d="M334.902 10.5979C334.902 5.04982 339.387 0.548828 344.951 0.548828C350.515 0.548828 355 5.03419 355 10.5979C355 16.1616 350.499 20.647 344.935 20.647C339.372 20.647 334.902 16.1616 334.902 10.5979Z" fill="#6E43B7"/>
</svg>
