<svg width="389" height="39" viewBox="0 0 389 39" fill="none" xmlns="http://www.w3.org/2000/svg">
<g clip-path="url(#clip0_316_1801)">
<path d="M331.658 38.8803C316.281 37.8697 316.697 10.7204 332.074 10.4704C340.419 10.3349 343.628 18.711 343.149 25.8786H324.907C324.771 31.9419 329.491 36.6821 335.648 34.2547C337.846 33.39 338.877 31.671 340.273 29.9104L343.044 32.1294C341.659 34.8589 339.252 37.203 336.294 38.1406C335.429 38.4115 333.752 38.8386 332.908 38.8803H331.658ZM338.658 22.1281C338.481 11.5538 325.823 12.1998 324.917 22.1281H338.658Z" fill="#414047"/>
<path d="M376.882 38.8796H375.882C358.817 37.6607 361.047 7.49012 378.695 10.6885C392.467 13.1784 391.54 38.1712 376.882 38.8796ZM375.84 14.4389C365.766 15.2307 366.308 35.077 376.497 34.8895C386.685 34.702 386.508 13.6055 375.84 14.4389Z" fill="#414047"/>
<path d="M295.923 38.8802C285.818 37.9218 282.807 26.1703 286.057 17.8775C290.006 7.80334 304.341 7.97003 307.144 18.5964L303.414 20.1174C300.736 11.6476 290.985 12.9498 289.443 21.5239C288.652 25.9723 289.589 32.9941 294.652 34.5047C299.299 35.8903 301.882 32.9107 303.799 29.1394L307.394 30.6292C305.748 34.4526 303.206 37.6301 298.965 38.5677C298.653 38.6406 297.392 38.8594 297.153 38.8802H295.903H295.923Z" fill="#414047"/>
<path d="M36.5571 0.625H0.323242V38.1298H36.5571V0.625Z" fill="#328D36"/>
<path d="M116.265 0.125V15.1269L118.89 12.3766C137.882 2.86494 141.039 41.0365 121.953 38.0674C120.109 37.7757 118.172 36.4213 117.015 35.0045C116.692 34.6086 116.682 33.9835 116.265 33.8793V37.6298H107.524V0.125H116.265ZM119.703 17.6898C115.578 18.4607 115.328 25.6283 116.651 28.6287C118.297 32.3896 123.766 32.3375 125.318 28.5557C127.089 24.2427 125.871 16.5438 119.703 17.6898Z" fill="#414047"/>
<path d="M59.7995 0.125V21.6278L66.2899 11.6265H75.291L67.3838 23.253L76.0411 37.6298H66.6649L59.7995 26.3784V37.6298H51.0483V0.125H59.7995Z" fill="#414047"/>
<path d="M148.696 10.9496C159.531 9.7203 166.594 17.8255 164.167 28.431C162.354 36.3487 154.165 39.5054 146.748 37.7552C132.746 34.4631 134.09 12.5957 148.696 10.9392V10.9496ZM149.436 17.6797C144.612 18.6798 144.383 30.4209 149.738 31.5148C153.197 32.2232 155.426 29.7645 155.749 26.5037C156.187 22.0552 155.239 16.492 149.436 17.6901V17.6797Z" fill="#414047"/>
<path d="M87.0319 11.627V29.0042C87.0319 29.1396 87.657 30.2856 87.8132 30.4731C89.1363 32.015 92.3555 31.6608 93.6577 30.1398C94.0224 29.7126 94.7725 28.2228 94.7725 27.754V11.627H103.263V37.6303H94.7725V33.8798L92.7722 36.2551C87.532 40.5578 78.2808 37.599 78.2808 30.2543V11.627H87.0215H87.0319Z" fill="#414047"/>
<path d="M254.449 38.13H250.074L249.073 35.1296C243.427 40.3803 230.894 40.672 231.957 30.254C232.686 23.1176 243.541 21.2216 249.157 20.086C249.886 10.9911 238.822 14.4499 235.04 18.6066L232.467 15.9605C232.332 15.2 237.134 12.21 238.03 11.8245C243.948 9.26169 252.761 9.75134 253.449 17.7315C254.022 24.3574 252.449 31.6396 254.439 38.1196L254.449 38.13ZM249.198 23.6281C245.271 24.5032 236.061 25.9409 236.186 31.2541C236.332 37.5674 246.75 34.192 249.198 31.0041V23.6281Z" fill="#414047"/>
<path d="M280.932 38.1299H276.431V18.0023C276.431 16.7521 275.129 15.1686 273.931 14.7519C270.212 13.4496 265.94 16.1375 263.44 18.7524V38.1299H258.939V11.2514L259.315 10.8764H263.44V14.3768C267.909 9.78248 278.494 8.1781 280.505 15.9291C280.598 16.2833 280.932 17.7835 280.932 18.0023V38.1299Z" fill="#414047"/>
<path d="M227.956 38.1308H223.456V17.7531C223.456 16.5238 222.08 15.1486 220.955 14.7528C217.194 13.4297 213.027 16.18 210.464 18.7533V38.1308H206.214V10.8773H210.464V14.3777C214.746 10.1376 224.716 8.08523 227.321 15.1278C227.487 15.5862 227.946 17.1385 227.946 17.5031V38.1308H227.956Z" fill="#414047"/>
<path d="M192.483 0.375V4.37551H188.608C188.181 4.37551 186.733 5.75069 186.733 6.25076V10.8764H192.233V14.8769H186.733V38.1299H182.232V14.8769H177.731V10.8764H182.232V6.00072C182.232 5.71944 182.972 3.81294 183.18 3.44831C184.013 2.02104 186.743 0.375 188.358 0.375H192.483Z" fill="#414047"/>
<path d="M351.899 14.8775C354.754 11.6271 358.358 10.3978 362.64 10.377L362.39 14.6275C358.879 14.3358 355.816 15.4505 353.514 18.1279C353.274 18.3988 351.889 20.3574 351.889 20.5033V38.1305H347.388V10.877H351.889V14.8775H351.899Z" fill="#414047"/>
<path d="M200.224 10.877H195.723V38.1305H200.224V10.877Z" fill="#414047"/>
<path d="M315.916 10.877H311.415V38.1305H315.916V10.877Z" fill="#414047"/>
<path d="M200.224 1.375H195.723V5.87558H200.224V1.375Z" fill="#414047"/>
<path d="M315.916 1.375H311.415V5.87558H315.916V1.375Z" fill="#414047"/>
<path d="M175.179 31.3066H168.146V38.3388H175.179V31.3066Z" fill="#D8DA00"/>
</g>
<defs>
<clipPath id="clip0_316_1801">
<rect width="388.8" height="39.005" fill="white"/>
</clipPath>
</defs>
</svg>
