<svg width="413" height="95" viewBox="0 0 413 95" fill="none" xmlns="http://www.w3.org/2000/svg">
<g clip-path="url(#clip0_316_1684)">
<path fill-rule="evenodd" clip-rule="evenodd" d="M382.223 66.1615L381.937 63.7653C381.875 63.3651 380.521 53.9216 386.944 47.2792C388.813 45.341 391.069 44.231 393.131 44.231C394.889 44.231 396.334 44.9967 397.067 46.457C400.615 53.5246 382.223 66.1615 382.223 66.1615ZM354.263 51.2796L354.018 47.2923L353.982 46.7915C353.974 46.6666 353.084 34.0528 353.877 25.0746C354.748 15.3104 357.607 9.00249 361.157 9.00249C361.883 9.00249 362.58 9.37512 363.124 10.0553C364.895 12.2623 365.413 18.1489 364.305 23.4526C362.52 31.9221 359.692 38.6381 357.62 43.556C357.034 44.9467 356.515 46.177 356.107 47.2463L354.263 51.2796ZM334.867 77.873C330.335 77.873 328.194 73.5302 328.194 69.4476C328.194 48.3833 339.819 44.231 344.903 45.8491C344.903 45.8491 345.07 49.8502 345.479 54.9994C345.836 59.4711 346.157 64.7643 346.232 65.221C346.232 65.221 342.009 77.873 334.867 77.873ZM297.919 46.6679C297.919 46.6679 296.627 77.873 284.858 77.873C279.219 77.873 278.782 71.5842 278.782 69.6546C278.782 47.3994 295.654 43.4371 297.919 46.6679ZM189.032 78.619C182.281 78.619 179.877 71.9134 179.877 65.6377C179.877 54.2048 186.533 45.3358 192.256 45.3358C197.831 45.3358 199.856 53.0022 199.856 58.1534C199.856 69.6296 195.101 78.619 189.032 78.619ZM81.5926 52.0781C77.7221 58.1034 68.9063 64.0643 66.3448 65.014C66.3448 65.014 64.5054 53.2125 74.1307 46.3209C81.1831 41.2716 84.3903 47.7234 81.5926 52.0781ZM375.979 79.7526C378.728 84.0902 383.625 86.2032 390.547 86.2032C398.157 86.2032 406.032 80.4736 410.539 75.137C413.216 71.9719 413.506 70.1534 412.379 69.1597C411.355 68.2567 409.091 69.4384 407.018 71.3173C404.222 73.8502 398.3 77.4918 393.118 77.4918C386.835 77.4918 383.972 73.4007 383.972 73.4007C396.767 65.5818 406.192 56.7062 406.192 49.0885C406.192 40.5513 399.872 36.7335 393.608 36.7335C382.403 36.7335 370.307 46.9906 370.307 63.5635C370.307 69.0407 372.147 73.6945 372.147 73.6945C372.147 73.6945 369.924 77.1573 362.859 76.5724C355.349 75.9513 355.825 62.351 355.825 62.351C355.825 62.351 358.122 58.0614 358.99 56.4637C364.073 47.1102 371.03 34.3032 372.154 18.9461C372.78 10.3412 370.348 5.72037 368.196 3.35769C366.282 1.25396 363.725 0 361.355 0C352.668 0 346.641 8.92888 345.18 17.7487C343.752 26.3976 344.327 39.2631 344.327 39.2631C344.327 39.2631 336.523 37.3296 328.69 42.6537C321.524 47.5243 318.345 57.2721 317.344 62.1919C316.888 64.3936 316.734 66.7044 316.882 69.0559C316.951 70.1527 317.286 72.265 317.286 72.265C317.286 72.265 314.71 77.7048 310.131 77.7048C302.754 77.7048 307.624 43.4437 307.907 41.5167C308.134 39.965 309.08 36.6534 303.877 36.4214C300.732 36.2814 299.421 37.4578 299.179 38.993L298.968 40.5217C298.968 40.5217 288.302 33.2497 276.226 46.3466C269.793 53.3124 267.457 63.3927 267.351 71.4803L267.346 71.9897C267.346 71.9897 264.7 79.6547 258.543 78.5072C254.443 77.7435 253.927 70.4354 253.927 67.6107C253.927 62.1919 255.173 56.1535 256.175 51.3013C256.808 48.2262 257.357 45.575 257.357 44.1245C257.357 38.9431 255.908 36.7335 252.514 36.7335C247.896 36.7335 243.751 40.4001 239.159 46.0607C233.299 53.2848 228.939 64.5717 228.939 64.5717C228.939 64.5717 229.131 62.5541 229.433 60.6087C229.629 59.3508 230.162 53.5246 231.146 48.2341C231.692 45.3055 231.89 42.908 231.925 42.6498C232.097 41.2157 231.774 39.9775 230.992 39.0686C230.223 38.1755 229.046 37.6615 227.766 37.6615C225.714 37.6615 223.074 39.0357 221.82 42.8923C221.247 44.6339 220.919 45.9181 220.51 47.9863L220.126 49.9054L218.7 48.6015C213.048 43.4226 205.219 37.2508 193.992 37.2508C178.182 37.2508 169.65 51.9164 169.65 65.7192C169.65 67.4201 169.755 69.0421 169.96 70.5444L170.039 71.1372C170.039 71.1372 166.739 79.1447 160.946 77.6857C158.41 77.0469 156.848 74.3366 156.848 67.8827C156.848 62.5133 157.925 55.217 158.568 50.8386C158.786 49.3527 158.961 48.1795 159.009 47.6327L159.152 46.0134C159.594 41.1395 159.719 38.9378 158.108 37.8764C156.923 37.1062 155.674 36.7335 154.295 36.7335C152.97 36.7335 151.926 37.3487 150.995 38.0125C149.564 39.0384 144.882 45.2839 136.039 59.7458C135.896 59.9798 135.814 60.1046 135.806 60.1158L134.841 61.977L132.521 67.0961L133.786 59.6584L133.866 59.1714C134.072 57.9201 134.438 55.7151 134.589 55.0132L134.96 53.3991C135.557 50.8084 136.8 45.4199 136.965 44.4676C137.497 41.311 137.287 39.202 136.323 38.0236C135.609 37.1555 134.417 36.7335 132.675 36.7335C129.467 36.7335 126.885 39.177 122.434 46.4189C121.74 47.5512 119.14 51.8724 117.085 55.2932C114.424 59.7267 112.009 63.0062 112.009 63.0062L112.571 57.0788C113 54.4171 114.609 42.1923 114.631 41.6186C114.625 39.041 113.353 37.8409 110.625 37.8409C109.515 37.8409 106.808 38.0861 105.673 40.3554C104.634 42.4296 101.75 51.8244 100.347 66.1917C100.347 66.1917 89.1842 77.0186 77.2499 77.0186C72.8522 77.0186 69.3716 75.2941 68.1101 71.9252C68.1101 71.9252 74.4947 68.5827 77.5265 66.4678C85.2903 61.0523 90.9382 55.5337 90.9382 48.447C90.9382 39.7764 83.0085 35.8719 76.4575 36.7335C65.2074 38.2129 55.6985 50.0868 55.6985 63.879C55.6985 76.853 62.8743 86.2032 75.3625 86.2032C89.8267 86.2032 99.8109 74.1867 99.8109 74.1867L99.5102 79.6718C99.3241 82.5307 100.494 86.2032 105.257 86.2032C106.521 86.2032 108.83 85.7977 110.058 83.0821C117.467 66.7753 125.226 53.8427 125.303 53.7152L125.568 53.2742L126.915 50.6723L128.919 47.3035L127.313 54.5341C127.021 56.1837 124.466 70.8547 124.1 77.3236C123.911 80.5893 123.909 83.803 125.176 85.1799C125.818 85.8798 126.849 86.2032 128.418 86.2032C131.925 86.2032 134.101 84.9814 134.886 82.5701C140.596 65.1941 146.749 53.4701 147.008 52.9778L147.249 52.523L150.478 46.1796C150.478 46.1796 147.931 60.6508 147.931 70.5195C147.931 75.2363 148.853 83.8234 155.526 85.4546C165.798 87.9665 172.109 77.2605 172.109 77.2605L172.778 79.1362C175.709 84.0916 180.582 86.7125 186.87 86.7125C199.898 86.7125 208.318 76.5205 208.318 60.7448C208.318 50.9569 203.838 45.3496 203.838 45.3496C203.838 45.3496 208.81 47.107 212.462 49.7398C216.418 52.5914 219.227 55.6119 219.227 55.6119L219.129 56.2567C219.012 57.0079 218.907 57.7643 218.8 58.5293C218.389 61.5558 218.027 64.7288 217.719 67.9642C217.436 70.9795 217.289 73.7063 217.289 76.0663C217.289 77.5004 217.367 78.8227 217.53 80.1128C217.674 81.3155 217.968 82.4124 218.4 83.3647C218.538 83.6558 219.834 86.2032 223.111 86.2032C225.297 86.2032 226.701 85.4073 227.737 82.9841C237.862 59.2818 245.972 51.6858 246.685 50.9306C248.564 48.9399 247.716 52.6453 247.716 52.6453L247.642 53.1329C247.629 53.2118 246.377 61.2396 246.096 63.6812C245.813 66.0892 245.67 68.3888 245.67 70.5195C245.67 77.1218 247.137 84.6462 254.816 85.8351C265.313 87.4611 268.95 79.2091 268.95 79.2091C268.95 79.2091 272.747 86.2032 281.714 86.2032C294.863 86.2032 298.934 76.1045 298.934 76.1045C300.319 82.1804 302.783 85.4546 308.712 85.4546C315.13 85.4546 319.588 78.2115 319.588 78.2115C319.588 78.2115 323.3 86.2032 332.371 86.2032C342.871 86.2032 348.24 78.1477 348.46 77.8106L349.678 75.8974C349.678 75.8974 353.097 84.5877 361.913 85.0872C370.251 85.5591 375.979 79.7526 375.979 79.7526ZM15.7181 82.8573C6.44726 82.5129 5.93583 75.2921 14.4503 73.4276C22.2306 71.7241 28.7196 74.4509 28.7196 74.4509C28.7196 74.4509 26.7562 83.2681 15.7181 82.8573ZM56.8872 9.86343C62.2439 10.3044 61.8413 17.7697 60.3836 22.4504C56.1119 36.1716 45.8941 36.5811 45.8941 36.5811C45.8941 36.5811 49.1266 9.22462 56.8872 9.86343ZM44.989 43.1381C44.989 43.1381 62.1641 43.2524 68.0139 22.9571C71.4179 11.1457 66.5973 1.07914 56.5461 0.866205C46.3967 0.651297 38.5341 9.65378 34.8497 36.56C34.8497 36.56 25.0396 35.2634 20.7058 27.5129C18.6556 23.8456 15.5624 25.5524 16.527 29.0376C19.788 40.8227 34.2313 42.7201 34.2313 42.7201C34.2313 42.7201 33.6332 47.937 32.7401 54.3231C31.8736 60.5187 30.3861 68.3139 30.3861 68.3139C30.3861 68.3139 21.2735 65.4274 11.578 67.4562C-3.32173 70.5747 -4.96107 89.0818 13.2705 90.9095C34.6503 93.052 38.6873 78.2424 38.6873 78.2424C38.6873 78.2424 42.8876 80.2863 48.8481 85.6255C55.4536 91.5424 58.4721 95.2122 59.8418 93.8971C61.3432 92.4552 58.036 87.4203 51.9135 81C44.9852 73.7345 40.1899 71.8595 40.1899 71.8595C40.1899 71.8595 41.3362 67.0533 42.5857 59.2549C43.9085 51.0003 44.989 43.1381 44.989 43.1381Z" fill="#4A4A4A"/>
</g>
<defs>
<clipPath id="clip0_316_1684">
<rect width="413" height="94.3401" fill="white"/>
</clipPath>
</defs>
</svg>
