<svg width="434" height="80" viewBox="0 0 434 80" fill="none" xmlns="http://www.w3.org/2000/svg">
<mask id="mask0_316_1730" style="mask-type:luminance" maskUnits="userSpaceOnUse" x="0" y="0" width="434" height="80">
<path d="M0 0H434V80H0V0Z" fill="white"/>
</mask>
<g mask="url(#mask0_316_1730)">
<path d="M153.832 52.0404V68.7447L102.428 68.7991L102.327 11.3408H118.928V52.0948L153.832 52.0404ZM218.58 51.9938V68.698L161.378 68.7991L161.277 11.2864L218.432 11.1854V27.8896L177.878 27.944V31.6673L218.479 31.6129V48.3016L177.878 48.356V52.0793L218.58 51.9938ZM299.68 11.1621L299.726 68.6669H283.125V44.3684L270.131 68.869H255.527L242.432 44.4151V68.768H225.877V11.2631H243.582L262.825 47.2989L281.975 11.2243L299.68 11.1621ZM366.891 39.9223C366.891 41.8111 366.713 43.6844 366.347 45.5344C365.982 47.3922 365.446 49.1877 364.731 50.9367C364.016 52.6778 363.137 54.3412 362.096 55.9114C361.055 57.4815 359.873 58.9351 358.544 60.2721C357.215 61.609 355.777 62.8061 354.215 63.8554C352.653 64.9048 351.005 65.7909 349.272 66.5138C347.539 67.2367 345.752 67.7808 343.917 68.1539C342.076 68.5192 340.218 68.7058 338.337 68.7058H333.192C331.311 68.7058 329.454 68.527 327.612 68.1617C325.77 67.8041 323.982 67.26 322.249 66.5449C320.516 65.822 318.869 64.9436 317.306 63.8943C315.744 62.8527 314.299 61.6634 312.97 60.3342C311.641 58.9973 310.452 57.5515 309.402 55.9813C308.361 54.419 307.475 52.7633 306.752 51.0222C306.029 49.281 305.485 47.4854 305.112 45.6354C304.739 43.7855 304.553 41.9122 304.545 40.0233C304.545 38.1345 304.724 36.2689 305.081 34.419C305.446 32.5612 305.983 30.7656 306.698 29.0167C307.405 27.2756 308.283 25.6121 309.317 24.042C310.358 22.4718 311.54 21.0105 312.861 19.6735C314.182 18.3366 315.62 17.1395 317.182 16.0902C318.736 15.033 320.384 14.1469 322.109 13.4162C323.843 12.6856 325.63 12.1415 327.464 11.7684C329.306 11.3953 331.164 11.2009 333.037 11.1932H338.236C340.117 11.1932 341.975 11.3719 343.824 11.7295C345.666 12.0948 347.454 12.6389 349.195 13.3541C350.928 14.077 352.583 14.9553 354.145 16.0047C355.708 17.054 357.161 18.2433 358.49 19.5803C359.819 20.9094 361.008 22.363 362.049 23.9332C363.099 25.5033 363.985 27.1667 364.7 28.9079C365.422 30.6568 365.966 32.4524 366.332 34.3101C366.705 36.1601 366.891 38.0334 366.891 39.9223ZM350.337 39.9223C350.337 39.1294 350.259 38.3521 350.104 37.5748C349.949 36.7975 349.715 36.0435 349.412 35.3129C349.117 34.5744 348.744 33.8826 348.309 33.2219C347.866 32.569 347.368 31.9549 346.816 31.3953C346.257 30.8356 345.651 30.3381 344.998 29.8951C344.345 29.452 343.653 29.0867 342.923 28.7757C342.2 28.4726 341.446 28.2472 340.677 28.0917C339.907 27.9285 339.122 27.8508 338.337 27.8508H333.192C332.399 27.8508 331.622 27.9285 330.845 28.0839C330.076 28.2394 329.322 28.4648 328.599 28.768C327.868 29.0711 327.177 29.4442 326.524 29.8873C325.863 30.3226 325.257 30.8278 324.705 31.3875C324.146 31.9471 323.648 32.5612 323.213 33.2141C322.77 33.8749 322.405 34.5744 322.102 35.3051C321.799 36.0358 321.573 36.7897 321.418 37.567C321.262 38.3443 321.185 39.1294 321.192 39.9223C321.185 40.7151 321.262 41.5002 321.418 42.2775C321.573 43.0548 321.799 43.8166 322.102 44.5472C322.405 45.2779 322.77 45.9775 323.213 46.6304C323.648 47.2911 324.146 47.9052 324.705 48.4648C325.257 49.0245 325.863 49.522 326.524 49.965C327.177 50.4081 327.868 50.7812 328.599 51.0843C329.322 51.3875 330.076 51.6129 330.845 51.7684C331.622 51.9238 332.399 52.0016 333.192 52.0016H338.291C339.076 52.0016 339.861 51.9238 340.63 51.7684C341.407 51.6129 342.161 51.3875 342.892 51.0843C343.622 50.7812 344.314 50.4081 344.967 49.9728C345.627 49.5297 346.234 49.0323 346.793 48.4648C347.353 47.9052 347.85 47.2989 348.293 46.6382C348.728 45.9775 349.101 45.2857 349.404 44.5472C349.715 43.8166 349.941 43.0626 350.096 42.2853C350.259 41.508 350.337 40.7229 350.337 39.9223ZM433.878 68.7369H415.031L388.031 35.0719L388.078 68.7835H371.477L371.376 11.2787H390.23L417.23 45.0369L417.129 11.2787H433.73L433.878 68.7369ZM39.833 0C38.5273 0 37.2294 0.0621847 35.9315 0.194326C34.6414 0.318694 33.3512 0.51302 32.0766 0.76953C30.802 1.02604 29.5352 1.34473 28.2917 1.72561C27.0482 2.10649 25.8202 2.54178 24.6156 3.04703C23.4187 3.5445 22.2374 4.10416 21.0949 4.726C19.9446 5.34007 18.8255 6.01632 17.7452 6.73922C16.6649 7.46988 15.6157 8.24718 14.6131 9.0789C13.6027 9.91061 12.6468 10.789 11.7219 11.714C10.8049 12.6467 9.92662 13.6106 9.1028 14.6288C8.27897 15.6393 7.50178 16.6887 6.77899 17.7769C6.0562 18.8651 5.38782 19.9922 4.77383 21.1426C4.15985 22.3008 3.60028 23.4823 3.10287 24.6949C2.60547 25.9075 2.17024 27.1356 1.78941 28.3871C1.41636 29.6463 1.09771 30.9133 0.841239 32.1959C0.592537 33.4784 0.398237 34.7765 0.273886 36.0824C0.141764 37.3805 0.0795898 38.6941 0.0795898 40C0.0795898 41.3136 0.141764 42.6195 0.273886 43.9176C0.398237 45.2235 0.592537 46.5216 0.841239 47.8041C1.09771 49.0867 1.41636 50.3614 1.78941 51.6129C2.17024 52.8644 2.60547 54.1003 3.10287 55.3051C3.60028 56.5177 4.15985 57.6992 4.77383 58.8574C5.38782 60.0078 6.0562 61.1349 6.77899 62.2231C7.50178 63.3113 8.27897 64.3607 9.1028 65.3789C9.92662 66.3894 10.8049 67.3611 11.7219 68.286C12.6468 69.211 13.6027 70.0894 14.6131 70.9211C15.6157 71.7528 16.6649 72.5301 17.7452 73.2608C18.8255 73.9837 19.9446 74.6599 21.0949 75.274C22.2374 75.8958 23.4187 76.4555 24.6156 76.953C25.8202 77.4582 27.0482 77.8935 28.2917 78.2744C29.5352 78.6553 30.802 78.974 32.0766 79.2305C33.3512 79.487 34.6414 79.6813 35.9315 79.8057C37.2294 79.9378 38.5273 80 39.833 80C41.1309 80 42.4288 79.9378 43.7267 79.8057C45.0247 79.6813 46.307 79.487 47.5816 79.2305C48.864 78.974 50.123 78.6553 51.3665 78.2744C52.6178 77.8935 53.838 77.4582 55.0427 76.953C56.2473 76.4555 57.4209 75.8958 58.5711 75.274C59.7136 74.6599 60.8328 73.9837 61.9131 73.2608C62.9934 72.5301 64.0426 71.7528 65.0451 70.9211C66.0555 70.0894 67.0192 69.211 67.9363 68.286C68.8612 67.3611 69.7316 66.3894 70.5554 65.3789C71.3793 64.3607 72.1565 63.3113 72.8792 62.2231C73.602 61.1349 74.2704 60.0078 74.8844 58.8574C75.4984 57.6992 76.058 56.5177 76.5554 55.3051C77.0528 54.1003 77.488 52.8644 77.8688 51.6129C78.2497 50.3614 78.5605 49.0867 78.817 47.8041C79.0735 46.5216 79.26 45.2235 79.3921 43.9176C79.5165 42.6195 79.5786 41.3136 79.5786 40C79.5786 38.6941 79.5165 37.3883 79.3844 36.0824C79.26 34.7765 79.0657 33.4862 78.8092 32.1959C78.5528 30.9133 78.2419 29.6463 77.8611 28.3949C77.4802 27.1434 77.045 25.9075 76.5476 24.7027C76.0424 23.4901 75.4906 22.3086 74.8766 21.1504C74.2626 20 73.5943 18.8729 72.8715 17.7847C72.1487 16.6965 71.3715 15.6471 70.5477 14.6366C69.7238 13.6261 68.8456 12.6545 67.9285 11.7295C67.0037 10.8045 66.0399 9.92616 65.0374 9.09444C64.0348 8.26273 62.9856 7.47765 61.9053 6.75476C60.825 6.0241 59.7058 5.35562 58.5634 4.73377C57.4131 4.1197 56.2395 3.56005 55.0349 3.0548C53.8302 2.55733 52.6101 2.11427 51.3665 1.73339C50.123 1.35251 48.8562 1.03381 47.5816 0.777303C46.307 0.520793 45.0169 0.326467 43.7267 0.194326C42.4288 0.0699572 41.1309 0 39.833 0ZM60.6773 41.8655C60.4286 42.0754 60.1411 42.2464 59.8302 42.363C59.4727 42.5107 59.1074 42.6117 58.7266 42.6661C57.8639 42.8061 56.9934 42.7827 56.1307 42.6195C54.1644 42.2075 52.3303 41.4691 50.6282 40.4042C48.864 39.3004 47.2086 38.0412 45.6775 36.6265C44.9469 35.9269 44.1931 35.173 43.4314 34.3646C42.7319 33.6106 41.9781 32.7555 41.333 31.9005C41.1931 31.7217 41.0143 31.6051 40.7967 31.5663C40.5713 31.5274 40.3693 31.574 40.1827 31.6984C39.9729 31.8305 39.8485 32.0093 39.7864 32.2425C39.732 32.4757 39.7631 32.7011 39.8796 32.9032C40.4781 33.8593 41.1309 34.7688 41.7838 35.6704C42.4288 36.5799 43.1827 37.4349 43.9288 38.2899C45.4366 40.0078 47.1075 41.5468 48.9262 42.9227C50.8381 44.3684 52.9443 45.4411 55.2292 46.1407C56.0064 46.3428 56.7836 46.4905 57.5763 46.5915C57.7473 46.5993 57.8872 46.6693 57.996 46.8014C58.1048 46.9258 58.1514 47.0735 58.1281 47.2445C58.1281 47.3455 58.097 47.4232 58.0271 47.501C56.7136 49.7241 55.1515 51.7528 53.3328 53.5873C47.7837 59.1683 40.6801 62.2386 34.2294 62.2386C31.4937 62.2853 28.8979 61.7178 26.4264 60.5286L25.8824 60.2798C25.6803 60.171 25.4783 60.171 25.2762 60.2798L24.7788 60.6296C23.9472 61.1893 23.0301 61.4691 22.0275 61.4846C21.1648 61.5313 20.4343 61.2515 19.8281 60.6296C18.7789 59.5725 18.7322 57.5593 19.7814 55.8026L20.0768 55.2429C20.1856 55.0408 20.1856 54.8465 20.0768 54.6444L19.7814 54.0847C17.0302 48.8535 17.2322 41.9666 20.0301 35.5694C20.1001 35.4217 20.2089 35.3129 20.3643 35.2507C20.5275 35.1963 20.6752 35.204 20.8306 35.274C20.9861 35.3206 21.0871 35.4217 21.1337 35.5694C21.7011 36.9685 22.4006 38.2899 23.2322 39.5492C24.4834 41.4691 25.9368 43.2336 27.5767 44.8271C28.3694 45.6354 29.201 46.3894 30.0792 47.0968C30.9264 47.7963 31.8279 48.5037 32.7295 49.1566C32.916 49.3043 33.1258 49.3587 33.359 49.3354C33.5921 49.3043 33.7864 49.1955 33.9263 49.0089C34.074 48.8224 34.1362 48.6047 34.1051 48.3716C34.074 48.1384 33.9652 47.944 33.7787 47.7963C32.9782 47.0968 32.1777 46.3428 31.4316 45.5888C30.6777 44.8271 29.9782 44.0264 29.2787 43.218C27.9497 41.609 26.7839 39.8834 25.7814 38.0412C24.8176 36.2767 24.1959 34.3956 23.9316 32.4058C23.7762 31.5352 23.7762 30.6568 23.9316 29.7862C24.0249 29.4442 24.1415 29.11 24.2814 28.7835L24.4834 28.4804C25.0586 27.773 25.6726 27.1045 26.3332 26.4672C34.4781 18.2122 45.8329 15.4994 53.8302 19.8212L54.4287 20.1244C54.6308 20.2332 54.8328 20.2332 55.0271 20.1244L55.5789 19.7746C57.4287 18.5698 59.5271 18.5154 60.6773 19.6735C61.8276 20.8317 61.7809 23.047 60.483 24.9592L60.0789 25.4567C59.9545 25.651 59.939 25.8531 60.0322 26.063L60.3276 26.6693C62.3794 31.0455 62.4804 36.4788 60.6773 41.8655Z" fill="#87FD2F"/>
</g>
</svg>
