<svg width="361" height="86" viewBox="0 0 361 86" fill="none" xmlns="http://www.w3.org/2000/svg">
<g clip-path="url(#clip0_316_6277)">
<path d="M83.2088 48.652H110.301V32.8189H83.075V15.8451H115.496L118.347 0.00976562H63.5932V85.1234H119.354V68.5261H83.2088V48.6497V48.652Z" fill="#047766"/>
<path d="M348.591 66.6886C346.627 63.7859 344.645 60.9921 342.702 58.3797C340.729 55.7288 339.085 53.5427 337.77 51.8215C337.18 50.8646 336.513 50.0028 335.758 49.2205C340.652 48.293 345.14 45.8053 348.564 42.0545C352.664 37.4307 354.802 31.4734 354.551 25.3416C354.716 17.9239 351.387 10.7262 345.614 6.0661C342.663 3.7349 339.162 2.09989 335.486 1.33568C331.173 0.455808 326.753 0 322.342 0H292.524V85.1046H311.628V50.6423C312.7 50.7489 313.737 51.0959 314.646 51.6492C315.816 52.4429 316.88 53.3613 317.75 54.3477C319.152 56.0893 320.546 57.9942 321.88 60.0147C323.533 62.482 325.941 66.1557 329.229 71.2353L337.761 85.0864H361.002L348.593 66.6704V66.6908L348.591 66.6886ZM311.623 15.3796H318.741C320.646 15.3796 322.551 15.4771 324.574 15.6789C326.304 15.824 328.028 16.2889 329.681 17.0327C331.123 17.7108 332.332 18.763 333.153 20.0397C334.148 21.7223 334.622 23.6385 334.527 25.5729L334.488 26.7249H334.556C334.488 28.4166 334.014 30.0425 333.202 31.4553C332.323 32.8 331.094 33.8636 329.654 34.5031C327.941 35.2582 326.161 35.6823 324.304 35.7798C322.283 35.934 320.154 36.0111 317.988 36.0111H311.625V15.3614V15.3818L311.623 15.3796Z" fill="#047766"/>
<path d="M19.6338 0.00976562H0V85.1234H50.0618L53.8148 68.8254H19.6428V0.00976562H19.6338Z" fill="#047766"/>
<path d="M243.011 48.652H270.557V32.8189H242.857V15.8451H275.868L278.778 0.00976562H223.067V85.1234H279.814V68.517H243.032V48.6406L243.011 48.6497V48.652Z" fill="#047766"/>
<path d="M175.15 43.7658C174.348 45.7681 173.651 47.7501 173.032 49.85C172.422 51.8819 171.842 53.9704 171.252 56.254C171.01 57.2223 170.778 58.1112 170.585 58.9322C170.381 58.109 170.159 57.1724 169.88 56.1179C169.386 54.1836 168.808 52.095 168.1 49.7139C167.374 47.2762 166.746 45.3033 166.157 43.6796L150.641 0.0195312H129.15L161.871 85.1332H178.96L212.311 0.0195312H191.893L175.15 43.7658Z" fill="#047766"/>
</g>
<defs>
<clipPath id="clip0_316_6277">
<rect width="361" height="85.1341" fill="white"/>
</clipPath>
</defs>
</svg>
