<svg width="95" height="32" viewBox="0 0 95 32" fill="none" xmlns="http://www.w3.org/2000/svg">
<g clip-path="url(#clip0_3303_26689)">
<g clip-path="url(#clip1_3303_26689)">
<path d="M17.8667 3.88281L29.1752 15.0941C29.3743 15.3709 29.377 15.7686 29.1752 16.0508L17.7913 27.2674L17.3311 27.1949L9.59658 19.4636C9.43241 19.211 9.2521 18.7595 9.2521 18.4612C9.2521 18.0393 9.84955 16.5936 10.3313 16.8408L17.6648 24.0427L26.083 15.6342L25.9484 15.2312L18.0766 7.37089L17.4253 7.26608L0.145018 24.427L-0.433594 24.1717V6.97317C-0.159089 6.80387 0.19346 6.7555 0.449126 6.96511C1.67632 8.49148 3.72972 9.89155 4.88425 11.4045C5.68085 12.4498 5.68355 13.5274 4.5936 14.3524L2.32221 12.2133L1.9885 12.4149V18.9315L2.46485 18.8025L17.463 3.88281H17.8667Z" fill="#2D29D7"/>
<path d="M69.0004 20.6779H67.1165C67.0708 20.3608 67.313 19.3342 66.7828 19.3316C66.7155 19.3316 66.2123 20.1109 65.8974 20.3312C64.1912 21.5324 61.5188 21.0192 60.2781 19.3772C58.6688 17.2462 58.9379 13.2126 61.3735 11.783C62.7621 10.9688 64.7106 10.8989 66.0319 11.8851C66.4141 12.1727 66.5514 12.6725 66.9819 12.7504V7.51026C67.6198 7.59894 68.4944 7.29259 69.0004 7.7118V20.6779ZM63.5856 12.9197C61.3815 13.2315 60.7868 15.8005 61.4919 17.6251C62.4553 20.1189 66.5944 19.7158 66.9685 16.9694C67.2968 14.5697 66.2876 12.5355 63.5829 12.9197H63.5856Z" fill="black"/>
<path d="M49.2198 15.1681C49.4217 13.5853 48.4636 12.6125 46.8812 12.763C45.6647 12.8785 45.4279 13.5504 44.852 14.464L43.1646 13.9561C43.8428 11.457 46.5851 10.718 48.8754 11.4113C52.051 12.3733 50.8723 16.3639 51.1225 18.8416L51.3244 19.0431L52.4493 19.062V20.6743H50.3636C49.8308 20.6743 49.3759 19.3307 49.2871 19.3334C48.1299 21.8245 43.2184 21.4106 42.8955 18.5917C42.7582 17.3851 42.9843 16.4016 44.0608 15.7244C44.3353 15.5524 45.3849 15.1654 45.654 15.1654H49.2198V15.1681ZM49.2198 16.6461H46.0577C44.6771 16.6461 44.1738 18.7395 45.6486 19.2044C47.5997 19.8198 49.314 18.7019 49.2198 16.6461Z" fill="black"/>
<path d="M94.5671 16.6471H87.4354C87.6238 19.5413 91.5018 20.3501 92.7586 17.7139L94.298 18.3965C92.9093 22.0539 87.1555 21.726 85.8503 18.1627C84.362 14.0969 87.4139 9.96652 91.779 11.4365C92.8986 11.8154 94.5671 13.4895 94.5671 14.6988V16.6471ZM92.6833 15.1691C92.4976 12.0841 87.6507 12.1029 87.5699 15.1691H92.6833Z" fill="black"/>
<path d="M41.6836 13.8234L39.8078 14.2211C39.8239 12.4072 36.0105 12.2111 36.0482 13.8933C36.0751 15.1214 38.368 15.1268 39.2642 15.3686C41.035 15.8443 42.2326 16.5107 41.9419 18.5826C41.4414 22.1351 33.7552 21.638 33.8844 17.7253L35.5664 17.3222C35.596 19.2141 38.7636 20.16 39.8051 18.8674C41.3552 16.9433 37.2081 16.774 36.2123 16.4032C34.7537 15.8604 33.8252 14.7263 34.3231 13.1247C35.2462 10.1714 41.0754 10.6524 41.6836 13.8234Z" fill="black"/>
<path d="M83.9352 20.6799H82.0513V15.1039C82.0513 15.034 81.8602 14.2574 81.8145 14.1311C81.2655 12.6343 78.9214 12.6235 77.8772 13.6205C77.5839 13.9 77.0753 14.8728 77.0753 15.2382V20.6799H75.1914V11.4089H77.0753V12.8869C77.2017 13.032 78.1194 11.8442 78.3724 11.6991C79.8122 10.8607 82.202 11.2584 83.187 12.6289C83.3835 12.9003 83.9352 14.166 83.9352 14.4347V20.6826V20.6799Z" fill="black"/>
<path d="M55.41 11.4066V12.4063C55.8056 12.7153 55.9052 12.1268 56.212 11.8715C56.9736 11.2427 57.8563 11.4227 58.774 11.4066V13.0754C58.739 13.3119 56.2927 12.7126 55.6899 14.1745C55.6199 14.3411 55.4073 15.1177 55.4073 15.236V20.6777H53.5234V11.4066H55.4073H55.41Z" fill="black"/>
<path d="M73.036 11.3984H71.0176V20.6776H73.036V11.3984Z" fill="black"/>
<path d="M72.036 10.1931C72.7732 10.1931 73.3709 9.59636 73.3709 8.86023C73.3709 8.1241 72.7732 7.52734 72.036 7.52734C71.2988 7.52734 70.7012 8.1241 70.7012 8.86023C70.7012 9.59636 71.2988 10.1931 72.036 10.1931Z" fill="black"/>
</g>
</g>
<defs>
<clipPath id="clip0_3303_26689">
<rect width="94.8476" height="31.6159" fill="white"/>
</clipPath>
<clipPath id="clip1_3303_26689">
<rect width="95" height="23.419" fill="white" transform="translate(-0.433594 3.88281)"/>
</clipPath>
</defs>
</svg>
