<svg width="187" height="187" viewBox="0 0 187 187" fill="none" xmlns="http://www.w3.org/2000/svg">
<g clip-path="url(#clip0_316_1707)">
<path d="M61.8853 53.7041C61.8853 49.7888 64.5734 46.6331 68.6641 46.6331C72.7547 46.6331 75.4428 49.7303 75.4428 53.7041C75.4428 57.6194 72.7547 60.775 68.6641 60.775C64.515 60.775 61.8853 57.6194 61.8853 53.7041ZM127.043 118.161V95.4284L113.369 118.161H127.043ZM187 93.5C187 145.159 145.159 187 93.5 187C41.8413 187 0 145.159 0 93.5C0 41.8413 41.8413 0 93.5 0C145.159 0 187 41.8413 187 93.5ZM53.2366 53.7041C53.2366 62.3528 59.9569 68.255 68.6641 68.255C77.3713 68.255 84.0916 62.3528 84.0916 53.7041C84.0916 45.0553 77.3128 39.1531 68.6056 39.1531C59.8984 39.1531 53.2366 45.0553 53.2366 53.7041ZM34.6534 67.7291H53.5872V60.3075H43.1269V39.6206H34.6534V67.7291ZM89.7016 129.03H64.7488L65.6253 128.504C82.7475 118.453 89.0588 110.973 89.0588 100.98C89.0588 87.0719 77.4297 77.7219 60.1322 77.7219C54.8144 77.7219 41.3738 78.8322 31.6731 89.0003L42.6009 102.324C48.2694 97.5906 53.8794 95.37 60.1322 95.37C65.2747 95.37 68.6641 97.6491 68.6641 100.98C68.6641 106.239 65.8006 108.752 34.5366 130.842V146.503H89.6431V129.03H89.7016ZM99.4022 67.7291V47.0422H109.278V67.7875H117.81V47.0422H124.823V39.6206H83.8578V47.0422H90.9288V67.7875H99.4022V67.7291ZM154.976 118.161H147.087V78.9491H118.92L94.2013 120.148V135.575H126.985V146.503H147.087V135.575H154.976V118.161ZM155.444 53.7041C155.444 45.0553 148.723 39.1531 140.016 39.1531C131.309 39.1531 124.589 45.0553 124.589 53.7041C124.589 62.3528 131.309 68.255 140.016 68.255C148.723 68.255 155.444 62.3528 155.444 53.7041ZM140.016 46.6331C135.926 46.6331 133.238 49.7303 133.238 53.7041C133.238 57.6194 135.926 60.775 140.016 60.775C144.107 60.775 146.795 57.6778 146.795 53.7041C146.795 49.7888 144.165 46.6331 140.016 46.6331Z" fill="#9B0000"/>
</g>
<defs>
<clipPath id="clip0_316_1707">
<rect width="187" height="187" fill="white"/>
</clipPath>
</defs>
</svg>
