<svg width="387" height="60" viewBox="0 0 387 60" fill="none" xmlns="http://www.w3.org/2000/svg">
<g clip-path="url(#clip0_316_1740)">
<mask id="mask0_316_1740" style="mask-type:luminance" maskUnits="userSpaceOnUse" x="0" y="0" width="387" height="60">
<path d="M387 0H0V60H387V0Z" fill="white"/>
</mask>
<g mask="url(#mask0_316_1740)">
<path d="M63.0812 10.6445C49.5362 10.6445 38.7002 21.6768 38.7002 35.0316C38.7002 48.3865 49.7297 59.4187 63.0812 59.4187C76.4327 59.4187 87.4622 48.3865 87.4622 35.0316C87.4622 21.6768 76.4327 10.6445 63.0812 10.6445ZM63.0812 50.9026C54.3737 50.9026 47.2142 43.7413 47.2142 35.0316C47.2142 26.322 54.3737 19.1607 63.0812 19.1607C71.7887 19.1607 78.9482 26.322 78.9482 35.0316C78.9482 43.7413 71.7887 50.9026 63.0812 50.9026Z" fill="black"/>
<path d="M188.469 10.6445V50.1284H210.915V59.4187H178.407V10.6445H188.469Z" fill="black"/>
<path d="M89.2026 16.8381L104.683 46.2575V59.4188H113.197V46.2575L145.124 0.580078L109.327 31.5478L89.2026 16.8381Z" fill="#D90A16"/>
<path d="M109.328 24.5809C112.32 24.5809 114.746 22.1546 114.746 19.1615C114.746 16.1685 112.32 13.7422 109.328 13.7422C106.335 13.7422 103.91 16.1685 103.91 19.1615C103.91 22.1546 106.335 24.5809 109.328 24.5809Z" fill="#D90A16"/>
<path d="M252.13 10.6445V19.9349H231.232V30.7736H249.034V40.0639H231.232V59.4187H221.944V10.6445H252.13Z" fill="#D90A16"/>
<path d="M344.43 10.6445V59.4187L312.696 30.7736V59.4187H303.408V10.6445L335.142 39.2897V10.6445H344.43Z" fill="#D90A16"/>
<path d="M371.52 29.9994C368.618 28.6445 366.102 26.9026 366.102 24.58C366.102 23.0316 366.489 21.6768 367.65 20.709C368.424 19.9349 369.972 19.1607 372.294 19.1607C375.39 19.1607 379.26 19.9349 383.13 22.2574L386.226 15.2897C383.711 13.7413 379.26 10.6445 370.746 10.6445C366.102 10.6445 362.232 12.1929 359.91 14.5155C357.588 16.8381 356.04 20.709 356.04 24.58C356.04 27.6768 356.814 29.9994 358.362 32.322C360.104 35.0316 364.361 37.5478 367.457 38.9026C370.746 40.2574 375.777 41.4187 375.971 45.4832C375.971 47.0316 375.584 48.3865 374.423 49.3542C373.649 50.1284 372.101 50.9026 369.779 50.9026C366.683 50.9026 362.813 50.1284 358.943 47.8058L355.847 54.7736C357.975 57.8703 375.197 63.0961 382.163 55.5478C385.065 52.451 386.033 49.3542 386.033 45.4832C386.033 42.3865 384.678 39.2897 383.711 37.7413C381.776 35.2252 378.293 32.9026 371.52 29.9994Z" fill="#D90A16"/>
<path d="M261.418 59.4187L264.514 51.6768H280.768L283.864 59.4187H294.7L273.802 10.6445H273.028L252.13 59.4187H261.418ZM273.028 31.5478L277.672 43.1607H268.384L273.028 31.5478Z" fill="#D90A16"/>
<path d="M137.191 59.4187L140.287 51.6768H156.734L159.83 59.4187H170.666L149.768 10.6445H148.994L127.903 59.4187H137.191ZM148.994 31.5478L153.638 43.1607H144.35L148.994 31.5478Z" fill="black"/>
<path d="M9.288 10.6445V50.1284H31.734V59.4187H0V10.6445H9.288Z" fill="black"/>
</g>
</g>
<defs>
<clipPath id="clip0_316_1740">
<rect width="387" height="60" fill="white"/>
</clipPath>
</defs>
</svg>
