<svg width="382" height="90" viewBox="0 0 382 90" fill="none" xmlns="http://www.w3.org/2000/svg">
<g clip-path="url(#clip0_316_1761)">
<path d="M62.7114 44.9549C62.4895 45.2296 62.2916 45.3958 62.2002 45.5945C60.2906 49.6982 58.4005 53.8063 56.4958 57.9051C54.9718 61.1793 53.4288 64.4393 51.9004 67.7135C50.0729 71.6368 48.26 75.5742 46.4419 79.5027C46.0997 80.237 45.7526 80.962 45.4247 81.7012C45.2654 82.0471 45.0532 82.2129 44.6339 82.2035C43.2306 82.1751 41.8274 82.1844 40.4194 82.2035C39.995 82.2035 39.7829 82.0662 39.5948 81.663C37.8927 78.0145 36.1568 74.3802 34.4354 70.746C32.521 66.7041 30.6067 62.6671 28.7021 58.6252C27.3375 55.7301 25.9825 52.835 24.6275 49.9351C23.9428 48.4567 23.2726 46.9689 22.583 45.4905C22.4721 45.2536 22.2937 45.0544 22.0526 44.6944C21.8983 45.3576 21.7777 45.8363 21.6813 46.3195C21.3245 48.1486 20.9773 49.9822 20.6205 51.8162C20.1576 54.2041 19.685 56.5973 19.2173 58.9852C18.7447 61.3971 18.2818 63.8139 17.7997 66.2254C17.3223 68.6372 16.8208 71.0446 16.3434 73.461C15.8612 75.9107 15.3839 78.3701 14.921 80.8247C14.6702 82.1417 14.6799 82.1418 13.3394 82.1418C9.0816 82.1418 4.81897 82.1324 0.566039 82.156C-0.0415266 82.156 -0.0511705 81.9191 0.0452683 81.4643C0.556395 78.9955 1.04823 76.5268 1.54971 74.058C1.94511 72.1057 2.35498 70.1539 2.74073 68.2016C3.09756 66.396 3.42545 64.5811 3.78227 62.776C4.25963 60.3877 4.75631 58.0046 5.23368 55.6114C6.09197 51.3326 6.95029 47.0542 7.79894 42.7754C8.35828 39.9512 8.89353 37.1224 9.45771 34.2983C9.93509 31.8865 10.4462 29.4794 10.9284 27.0676C11.6951 23.2058 12.4521 19.3392 13.214 15.4727C13.7348 12.8334 14.2459 10.1989 14.7908 7.55963C14.8245 7.40797 15.0994 7.19949 15.2633 7.19478C17.1198 7.17109 18.981 7.15686 20.8375 7.20425C21.0641 7.21372 21.3775 7.51696 21.4933 7.75388C22.2503 9.29387 22.964 10.8528 23.6873 12.407C25.1386 15.5153 26.5949 18.619 28.0414 21.7321C29.57 25.0158 31.0889 28.309 32.6175 31.588C33.9049 34.3504 35.2069 37.1129 36.4991 39.8754C38.3025 43.7325 40.1059 47.5894 41.9143 51.4464C41.9672 51.5602 41.9623 51.7073 42.0346 51.802C42.1505 51.9629 42.3098 52.0909 42.4495 52.2377C42.565 52.1052 42.7145 51.9865 42.7868 51.8349C44.4359 48.362 46.0802 44.8886 47.7102 41.4059C49.6246 37.3072 51.5196 33.199 53.4337 29.105C55.8447 23.9497 58.2656 18.7943 60.6762 13.639C61.6117 11.6393 62.557 9.64925 63.473 7.63542C63.6371 7.28004 63.8346 7.17109 64.2061 7.1758C65.9129 7.18527 67.6246 7.18527 69.3269 7.1758C69.7898 7.16633 69.9491 7.34165 70.0356 7.7918C70.4071 9.76771 70.8411 11.7341 71.2365 13.7053C71.5884 15.4869 71.9115 17.278 72.2634 19.0549C72.7312 21.4004 73.218 23.7412 73.6858 26.0867C74.067 27.9773 74.4335 29.8727 74.8143 31.7633C75.1809 33.5402 75.5714 35.3218 75.9282 37.1034C76.1887 38.3876 76.4057 39.6811 76.6564 40.9654C77.0035 42.7279 77.3794 44.4859 77.7362 46.2484C78.1125 48.1153 78.4693 49.9871 78.8501 51.8589C79.241 53.7636 79.6555 55.6683 80.0412 57.5779C80.2968 58.8621 80.5138 60.1556 80.7694 61.4447C81.2323 63.7663 81.7098 66.088 82.1727 68.4101C82.5392 70.2343 82.8863 72.0728 83.2573 73.8922C83.6385 75.7591 84.0437 77.6216 84.4244 79.4836C84.5789 80.2273 84.7187 80.9807 84.8199 81.7297C84.8345 81.8622 84.6415 82.0755 84.4919 82.156C84.3619 82.232 84.1542 82.1751 83.9855 82.1751C79.5543 82.1653 75.1227 82.156 70.6964 82.1608C70.325 82.1608 70.1612 82.0849 70.0889 81.7012C69.6837 79.5405 69.2594 77.3798 68.8206 75.219C68.2565 72.4377 67.6632 69.6658 67.104 66.8841C66.7086 64.9083 66.3469 62.9276 65.9515 60.9566C65.3874 58.1513 64.7941 55.3603 64.2349 52.5599C63.7574 50.1907 63.3189 47.817 62.8561 45.4478C62.8366 45.334 62.7837 45.2154 62.7016 44.9549M132.885 81.7581C132.885 72.6747 132.875 63.5912 132.885 54.5028C132.885 54.3131 132.982 54.1188 133.039 53.9245C133.203 54.0383 133.396 54.1188 133.526 54.261C136.844 57.8006 140.152 61.3496 143.464 64.8989C145.624 67.2112 147.79 69.5187 149.95 71.8359C153.041 75.1479 156.122 78.4741 159.227 81.7723C159.41 81.9617 159.733 82.1275 159.994 82.1275C166.156 82.156 172.309 82.1609 178.472 82.1653C178.645 82.1653 178.819 82.1324 179.098 82.104C177.348 80.2322 175.685 78.4554 174.031 76.6739C171.19 73.6223 168.36 70.5659 165.515 67.5144C162.964 64.7803 160.404 62.0559 157.848 59.3168C154.671 55.9101 151.502 52.4986 148.325 49.0821C146.97 47.6272 145.62 46.1728 144.25 44.7277C143.98 44.4384 143.985 44.249 144.26 43.9836C144.598 43.6565 144.906 43.3013 145.219 42.9555C148.672 39.2215 152.125 35.4829 155.577 31.749C159.381 27.6314 163.181 23.5232 166.986 19.415C170.515 15.6006 174.05 11.791 177.58 7.98133C177.787 7.75388 177.994 7.52643 178.274 7.21847C178.052 7.19002 177.951 7.17109 177.849 7.17109C171.711 7.15686 165.577 7.14739 159.439 7.15686C159.179 7.15686 158.856 7.32271 158.673 7.51225C156.353 9.96672 154.048 12.4402 151.743 14.9089C148.455 18.4247 145.176 21.9453 141.892 25.4565C139.134 28.4085 136.371 31.3605 133.603 34.3078C133.454 34.4689 133.256 34.5779 133.078 34.7153C133.015 34.4926 132.885 34.2652 132.885 34.0377C132.875 25.2717 132.875 16.5057 132.895 7.73966C132.895 7.28955 132.765 7.14739 132.316 7.14739C127.798 7.16158 123.284 7.16158 118.766 7.14739C118.298 7.14739 118.192 7.30848 118.192 7.74441C118.207 26.5937 118.207 45.4385 118.207 64.2877C118.207 70.0161 118.207 75.7498 118.197 81.4785C118.197 81.9568 118.303 82.1511 118.843 82.1466C123.313 82.1275 127.788 82.1369 132.263 82.1324C132.451 82.1324 132.639 82.1084 132.871 82.0942C132.88 81.9142 132.89 81.8337 132.89 81.7532M381.485 81.379C380.834 79.9339 380.178 78.4839 379.513 77.0384C377.994 73.7264 376.465 70.4237 374.951 67.1068C373.292 63.4676 371.643 59.8147 369.989 56.1755C368.649 53.2235 367.308 50.276 365.963 47.329C364.579 44.3059 363.2 41.2779 361.811 38.2596C360.548 35.5066 359.27 32.7583 358.007 30.0101C356.941 27.6788 355.895 25.338 354.839 23.0067C353.793 20.7134 352.727 18.4295 351.685 16.1361C350.393 13.2836 349.106 10.4311 347.813 7.57381C347.664 7.24688 347.457 7.04312 347.028 7.05734C345.817 7.0905 344.607 7.04312 343.401 7.0905C343.151 7.10001 342.789 7.32742 342.683 7.55012C341.868 9.2512 341.101 10.9807 340.31 12.7008C338.941 15.6717 337.557 18.6332 336.197 21.6042C334.206 25.9493 332.234 30.3039 330.237 34.6395C328.41 38.615 326.549 42.5763 324.726 46.5471C322.677 51.0059 320.661 55.4696 318.616 59.9329C317.16 63.1218 315.694 66.2965 314.228 69.4809C312.618 72.9685 310.998 76.4556 309.387 79.9432C309.093 80.5877 308.823 81.2416 308.481 82.0235H309.334C313.698 82.0235 318.062 81.9666 322.431 82.0613C323.805 82.0897 324.779 81.8857 325.063 80.4122C325.063 80.3935 325.087 80.3744 325.097 80.3553C325.98 78.4457 326.857 76.5361 327.735 74.6265C328.95 71.9875 330.165 69.3435 331.365 66.6947C331.559 66.2636 331.848 66.1262 332.321 66.1262C340.812 66.1355 349.308 66.1355 357.804 66.1262C358.238 66.1262 358.523 66.2351 358.716 66.6663C359.343 68.102 360.003 69.5236 360.659 70.9402C362.269 74.4229 363.899 77.8914 365.476 81.3838C365.708 81.8955 365.968 82.0328 366.484 82.028C371.282 82.0137 376.084 82.0186 380.877 82.0186H381.688C381.596 81.7248 381.562 81.5354 381.485 81.3696M346.294 40.0128C347.437 42.4532 348.566 44.8935 349.699 47.3334C350.296 48.6176 350.87 49.916 351.488 51.1953C351.714 51.6691 351.632 51.8492 351.087 51.8492C347.047 51.8398 343.001 51.8492 338.965 51.8398C338.382 51.8398 338.285 51.6407 338.55 51.0628C339.722 48.4945 340.898 45.9261 342.075 43.3582C342.919 41.5055 343.763 39.6527 344.616 37.8047C344.684 37.6626 344.78 37.5299 344.968 37.2124C345.465 38.2691 345.884 39.1362 346.29 40.0176M273.575 82.1369C278.001 82.1369 282.433 82.1275 286.859 82.1466C287.39 82.1466 287.457 81.9568 287.457 81.5163C287.447 71.8785 287.447 62.2408 287.447 52.6075C287.447 51.6549 287.447 51.6598 288.417 51.6504C291.98 51.6171 295.553 51.8256 299.088 51.2335C300.524 50.9917 301.971 50.6788 303.336 50.1907C304.604 49.7408 305.8 49.0727 306.967 48.4047C310.028 46.6466 312.637 44.3912 314.561 41.4437C317.04 37.6389 317.898 33.4123 317.831 28.9582C317.792 25.9967 317.189 23.1394 315.926 20.4575C314.402 17.2212 312.203 14.4776 309.416 12.1843C307.627 10.7106 305.592 9.65872 303.447 8.82478C300.351 7.62595 297.077 7.24688 293.793 7.19949C287.052 7.10948 280.306 7.15211 273.565 7.11419C272.972 7.11419 272.803 7.25635 272.803 7.8534C272.818 32.3698 272.818 56.8863 272.818 81.3977V82.0849C273.102 82.0991 273.334 82.1275 273.565 82.1275M287.433 22.2486C287.433 21.6468 287.631 21.481 288.219 21.4999C290.442 21.5663 292.665 21.5663 294.893 21.6326C297.767 21.7179 300.216 22.6893 301.88 25.1011C303.35 27.2286 303.697 29.5268 302.8 31.986C302.077 33.9666 300.882 35.6061 298.846 36.35C297.414 36.876 295.857 37.1887 294.328 37.3214C292.245 37.5015 290.138 37.4067 288.045 37.4493C287.472 37.4636 287.442 37.1319 287.442 36.7054C287.452 34.2652 287.442 31.8249 287.442 29.3846C287.442 26.9443 287.457 24.632 287.428 22.2533M87.2358 51.622C94.213 51.622 101.185 51.622 108.163 51.6362C108.688 51.6362 108.746 51.4277 108.751 50.9917C108.78 46.6418 108.819 42.2918 108.877 37.9469C108.886 37.5157 108.732 37.3877 108.317 37.3877C101.321 37.3972 94.3239 37.3972 87.3224 37.3877C86.8932 37.3877 86.7774 37.5346 86.7823 37.9516C86.816 41.2637 86.8258 44.5664 86.8449 47.8784C86.8449 49.1012 86.8449 50.3285 86.8449 51.5935C87.0619 51.6171 87.1488 51.6313 87.2358 51.6313" fill="black"/>
<path d="M265.232 46.7129C265.878 34.1988 261.616 23.1584 252.811 14.0086C244.001 4.79243 232.983 0.120377 220.152 0.00191771C196.848 -0.21131 175.886 17.3776 174.512 42.3772C173.157 66.9646 192.315 88.5196 218.826 89.3961C242.844 89.8371 263.964 71.9684 265.271 46.6796M251.036 44.5948C251.022 61.9941 236.788 75.3422 219.911 75.3231C202.152 75.2995 188.698 61.1509 188.727 44.7415C188.756 27.3045 203.135 14.0275 219.858 14.0749C237.492 14.0749 251.056 28.2237 251.036 44.5997M231.02 69.0782C231.006 68.7986 230.987 68.5995 230.987 68.3959C230.987 55.9573 230.987 43.5147 230.977 31.0762C230.977 30.6403 231.04 30.4365 231.565 30.4413C235.78 30.4697 239.994 30.4603 244.214 30.4697C245.207 30.4697 245.212 30.4792 245.212 31.4364C245.212 38.9941 245.221 46.552 245.202 54.1095C245.202 54.5549 245.048 55.0336 244.855 55.4457C242.95 59.592 240.279 63.1787 236.503 65.8653C234.936 66.9837 233.214 67.8794 231.561 68.8697C231.421 68.9502 231.257 68.988 231.025 69.0782M226.956 55.9671C226.956 60.5868 226.946 65.2163 226.97 69.841C226.97 70.3953 226.855 70.6229 226.237 70.7651C222.857 71.5612 219.448 71.6559 216.02 71.2434C215.041 71.1251 214.081 70.874 213.117 70.6513C212.982 70.618 212.851 70.4189 212.794 70.2673C212.736 70.1206 212.774 69.9312 212.774 69.765C212.774 60.4304 212.774 51.0958 212.755 41.7567C212.755 41.2259 213.021 41.2402 213.392 41.2402C217.283 41.2544 221.169 41.2637 225.061 41.2731C225.147 41.2731 225.229 41.2731 225.316 41.2731C225.847 41.2922 226.541 41.1264 226.859 41.3917C227.124 41.6096 226.956 42.3394 226.956 42.8466C226.956 47.2152 226.956 51.5887 226.956 55.9573M208.666 69.1209C206.733 68.2252 204.968 67.1828 203.323 65.9507C200.792 64.0553 198.637 61.795 196.978 59.1369C196.057 57.6633 195.271 56.0951 194.581 54.5029C194.311 53.8868 194.451 53.0813 194.465 52.3657C194.465 52.2474 194.779 52.0532 194.962 52.039C195.435 51.9914 195.912 52.0247 196.384 52.0247C200.276 52.0247 204.163 52.0341 208.059 52.0105C208.57 52.0105 208.729 52.1528 208.724 52.6595C208.71 57.9665 208.714 63.2734 208.714 68.5804C208.714 68.7417 208.681 68.9026 208.661 69.1209" fill="#4FB848"/>
</g>
<defs>
<clipPath id="clip0_316_1761">
<rect width="382" height="89.4043" fill="white"/>
</clipPath>
</defs>
</svg>
