<svg width="296" height="149" viewBox="0 0 296 149" fill="none" xmlns="http://www.w3.org/2000/svg">
<g clip-path="url(#clip0_316_1807)">
<path d="M144.251 59.8729L150.13 23.2266L159.848 23.2903L166.286 38.8628L178.765 23.2266H187.821L181.947 59.8778H172.646L176.068 39.8434C173.411 41.1967 169.218 50.1499 167.007 50.5863C165.762 50.8315 162.207 50.9148 161.427 49.8214C160.604 48.6692 157.77 39.8385 157.225 39.8385L153.308 59.8778H144.251V59.8729Z" fill="#06412F"/>
<path d="M138.132 103.364L143.295 66.7374L152.994 66.7815L159.432 82.3491L171.42 66.7129H180.962L175.088 103.364H165.791L168.488 83.3249L160.177 94.1168L154.759 93.6068L150.371 83.3298L146.698 103.364H138.132Z" fill="#06412F"/>
<path d="M215.72 59.8731L219.849 34.4305L227.468 33.4793C226.733 38.1912 229.655 34.2442 232.332 33.6999C236.064 32.9399 239.344 33.3518 241.898 36.3035C245.139 33.9843 247.517 32.9596 251.651 33.5283C262.653 35.0434 255.308 52.2928 255.274 59.0494L254.632 59.8731H246.556C246.556 55.318 249.209 48.7331 249.037 44.4869C248.91 41.4077 246.066 40.2751 243.629 42.0451C240.741 44.1437 240.442 56.1026 239.702 59.8731H231.381C231.459 55.3867 234.034 48.6742 233.862 44.4869C233.735 41.4077 230.891 40.2751 228.454 42.0451C225.566 44.1437 225.267 56.1026 224.526 59.8731H215.715H215.72Z" fill="#06412F"/>
<path d="M296 77.4669C293.833 85.4591 293.774 94.4466 291.857 102.409C288.817 115.055 275.583 118.237 265.164 111.887L268.655 105.876C270.714 105.964 272.19 107.342 274.338 107.636C279.035 108.283 283.801 106.273 283.026 100.929C279.775 103.885 274.093 104.268 270.572 101.63C264.575 97.1433 270.248 84.5765 270.136 78.2808C270.278 77.6287 270.709 77.5649 271.273 77.462C273.372 77.0893 276.618 77.3002 278.868 76.9766C279.437 77.5404 276.397 90.1367 276.922 92.8481C277.515 95.9175 281.423 96.0499 283.526 94.0887C286.262 91.5341 286.252 81.3306 287.189 77.462H296V77.4669Z" fill="#06412F"/>
<path d="M211.734 59.8048L204.786 59.893L203.727 57.9219C198.294 62.8349 187.816 61.7317 186.463 53.6513C183.467 35.7596 201.359 29.4737 215.51 35.4409L211.734 59.8097V59.8048ZM205.865 41.3639C197.461 35.9361 190.528 51.9891 198.559 53.3081C204.546 54.2887 206.434 45.8503 205.865 41.3639Z" fill="#06412F"/>
<path d="M284.674 59.8055L277.696 59.9035L276.662 57.9276C271.229 62.8258 260.751 61.7324 259.398 53.6471C256.412 35.8044 274.318 29.445 288.444 35.4367L284.669 59.8104L284.674 59.8055ZM274.828 40.4477C267.709 40.8792 265.468 52.3232 271.494 53.3137C277.015 54.2208 278.618 48.1261 278.863 43.978C279.05 40.8743 278.074 40.2516 274.828 40.4477Z" fill="#06412F"/>
<path d="M194.558 76.6282C214.141 74.5541 211.714 103.973 192.381 104.16C174.97 104.326 177.103 78.4816 194.558 76.6282ZM197.931 94.4022C202.227 90.1609 198.422 80.9086 191.768 85.5618C184.477 90.6611 191.356 100.899 197.931 94.4022Z" fill="#06412F"/>
<path d="M208.866 103.365L212.852 77.53L219.844 76.5396L220.859 79.4129C224.929 75.912 232.18 74.9559 235.514 79.9375C237.692 83.1932 236.652 86.6941 236.201 90.3273C235.853 93.1369 235.044 100.251 234.22 102.522C234.093 102.879 233.916 103.154 233.592 103.36H225.517C225.698 98.7608 228.165 92.3621 227.998 87.9738C227.87 84.6593 224.458 83.5217 221.844 85.2771C218.064 87.8169 218.706 99.0697 217.196 103.36H208.876L208.866 103.365Z" fill="#06412F"/>
<path d="M264.183 93.1012H246.071C248.111 100.083 255.774 97.6072 260.751 95.543L262.021 100.927C251.332 106.963 236.289 104.884 238.368 89.5611C240.805 71.5616 271.327 71.6939 264.183 93.1012ZM257.329 87.7273C257.294 81.2846 248.572 82.8144 247.047 87.7273H257.329Z" fill="#06412F"/>
<path d="M119.893 65.0995C118.853 82.2214 112.082 97.2791 101.192 107.865C101.094 107.973 101.025 108.1 100.996 108.243L100.986 108.267C98.6325 118.216 93.6263 127.336 86.502 134.661C86.4628 134.7 86.4333 134.739 86.3892 134.774C82.6236 138.686 78.3039 142.025 73.5723 144.678C65.5752 149.204 55.7934 149.204 47.7914 144.678C43.256 142.138 39.1079 138.971 35.4599 135.269C35.3913 135.2 35.3226 135.132 35.2589 135.068C28.3748 128.14 23.4128 119.539 20.8484 110.116C20.8141 109.939 20.716 109.782 20.5738 109.669C7.3892 98.647 -0.161698 82.29 0.00010688 65.0995C0.00010688 34.2389 23.197 7.16354 54.4058 4.17751L56.7544 1.55921C57.6272 0.588381 58.8677 0.0196127 60.1768 0H60.3877C76.2642 0.558962 91.3365 7.12432 102.555 18.3673C112.523 28.5806 118.603 41.9614 119.746 56.1855C120.03 59.147 120.079 62.1282 119.898 65.0995" fill="#05412E"/>
<path d="M114.568 60.3485C114.568 60.0886 114.558 59.8287 114.548 59.564V59.5296C114.136 45.0653 108.193 31.3118 97.9409 21.1034C88.0071 11.0813 74.6263 5.21713 60.5198 4.717C60.3188 4.7121 60.1276 4.79545 59.9952 4.94255L55.1411 10.3311C54.9596 10.5273 54.9743 10.8313 55.1656 11.0176L60.6964 16.3277C60.8336 16.4601 61.0151 16.5288 61.2014 16.5288C74.8616 16.3522 88.0757 21.3927 98.1468 30.6303C106.61 38.5048 112.131 49.0319 113.793 60.4661C113.817 60.677 114.009 60.829 114.219 60.8045C114.42 60.7799 114.568 60.6083 114.563 60.4073V60.3485" fill="#8DC73F"/>
<path d="M97.843 105.517V105.541C94.8912 120.481 85.5997 133.401 72.3856 140.962C71.5619 141.427 70.7137 141.839 69.836 142.197C66.9627 143.487 63.8345 144.114 60.6867 144.046C57.5388 144.114 54.4155 143.487 51.5422 142.197C50.6646 141.839 49.8114 141.427 48.9877 140.962C35.7687 133.406 26.4772 120.481 23.5255 105.541C23.5255 105.531 23.5255 105.526 23.5255 105.517C17.0533 75.3228 28.5659 59.1865 28.5659 59.1865C34.6214 47.8699 47.4873 41.7557 60.6818 41.7557C73.8762 41.7557 86.7471 47.865 92.7976 59.1865C92.7976 59.1865 104.305 75.3228 97.838 105.517M46.8793 34.749C51.6942 33.2389 56.72 32.5034 61.7654 32.5671C66.9823 32.6358 72.1552 33.5478 77.078 35.2688C77.328 35.357 77.5977 35.3619 77.8527 35.2835L82.6431 33.7831C82.9324 33.69 83.1089 33.3958 83.055 33.0967L81.9763 27.1001C81.9272 26.8255 81.7409 26.5951 81.4859 26.4921C75.6659 24.1435 69.4535 22.903 63.1726 22.849C58.0684 22.7608 52.9789 23.4815 48.1002 24.9868C35.6755 29.0221 25.5014 38.0685 20.054 49.944C17.9064 54.4157 16.3864 59.1718 15.5529 64.0602C15.5382 64.1681 15.6117 64.2711 15.7196 64.2907C15.8128 64.3054 15.901 64.2515 15.9353 64.1681C21.1719 50.1205 32.5865 39.2747 46.8793 34.7588" fill="#8DC73F"/>
<path d="M89.7919 85.6188C88.1248 84.089 86.09 83.025 83.8836 82.5347C85.6585 84.5646 85.4477 87.6487 83.4178 89.4236C81.3878 91.1986 78.3037 90.9877 76.5288 88.9578C75.5874 87.884 75.1657 86.4523 75.3765 85.0402C75.4648 84.4224 75.6707 83.8291 75.9845 83.2897C73.5133 84.3586 71.5766 86.3787 70.6156 88.8941C70.4832 89.1589 70.1645 89.2716 69.8997 89.1392C69.7379 89.0608 69.6251 88.9039 69.6055 88.7225C69.2868 85.2363 71.9296 80.946 77.1319 79.6467C82.3047 78.3915 87.7031 80.544 90.6009 85.0108C90.9834 85.6384 90.3165 86.0846 89.8066 85.6139M44.2463 79.6565C39.0734 78.4013 33.675 80.5538 30.7821 85.0206C30.3997 85.6482 31.0665 86.0944 31.5715 85.6237C33.2386 84.0988 35.2734 83.0348 37.4799 82.5396C35.7098 84.5744 35.9207 87.6585 37.9555 89.4334C39.9903 91.2035 43.0744 90.9926 44.8494 88.9578C45.7859 87.884 46.2075 86.4572 46.0016 85.0451C45.9133 84.4273 45.7025 83.8291 45.3887 83.2947C47.8599 84.3635 49.7967 86.3886 50.7626 88.9039C50.895 89.1687 51.2137 89.2814 51.4784 89.149C51.6403 89.0706 51.753 88.9137 51.7726 88.7323C52.0913 85.2461 49.4485 80.9558 44.2512 79.6565M51.1597 104.991C50.9685 104.932 50.7626 105.035 50.7037 105.227C50.6645 105.349 50.6939 105.482 50.7773 105.58C55.8031 111.052 64.3101 111.409 69.782 106.389C70.0615 106.129 70.3312 105.864 70.591 105.58C70.7234 105.428 70.7087 105.197 70.5616 105.065C70.4636 104.981 70.3312 104.952 70.2086 104.991C63.9963 106.864 57.3721 106.864 51.1646 104.991M83.8639 70.9534C79.8139 69.7913 75.4795 70.1492 71.6746 71.9487C71.4001 72.1203 71.3167 72.4782 71.4834 72.7528C71.6011 72.9391 71.8119 73.047 72.0326 73.0274C75.8325 72.7626 79.6521 73.15 83.3246 74.1747C87.0902 75.1848 90.6745 76.793 93.9351 78.9357C94.1753 79.1073 94.5088 79.0534 94.6804 78.8082C94.8275 78.6023 94.8078 78.3228 94.6362 78.1365C91.9101 74.6503 88.1346 72.1301 83.8689 70.9484M26.7321 78.1414C26.5311 78.3571 26.5458 78.6955 26.7615 78.8965C26.9478 79.0681 27.2273 79.0877 27.4333 78.9406C30.6939 76.7979 34.2781 75.1897 38.0437 74.1796C41.7162 73.1549 45.5309 72.7675 49.3358 73.0323C49.6594 73.0617 49.9389 72.8215 49.9683 72.4979C49.9879 72.2772 49.88 72.0664 49.6937 71.9487C45.8839 70.1443 41.5495 69.7913 37.4995 70.9534C33.2337 72.135 29.4583 74.6503 26.7321 78.1414Z" fill="#05412E"/>
<path d="M61.2309 116.083C67.4873 116.024 73.7144 115.283 79.809 113.862C80.824 113.626 82.0743 113.759 82.0939 115.131C81.9076 116.848 81.3535 118.5 80.4611 119.981C78.495 123.648 75.5334 126.678 71.9149 128.728C68.4974 130.699 64.619 131.739 60.6768 131.748C56.7347 131.739 52.8611 130.699 49.4436 128.728C45.8251 126.678 42.8636 123.643 40.9023 119.981C40.0099 118.505 39.4559 116.848 39.2695 115.131C39.2891 113.759 40.5444 113.631 41.5593 113.862C47.6491 115.279 53.881 116.024 60.1326 116.083H61.2407H61.2309Z" fill="#05412E"/>
<path d="M60.6818 127.547C68.1445 127.586 74.6265 123.615 77.2203 119.251C77.6713 118.496 77.0634 117.902 76.0925 118.138C65.9675 120.609 55.3962 120.609 45.2711 118.138C44.3003 117.898 43.6874 118.496 44.1434 119.251C46.7372 123.615 53.2192 127.586 60.6818 127.547Z" fill="white"/>
<path d="M133.548 125.782L135.23 116.23L137.657 116.25L139.829 119.82L143.423 116.23H146.061L144.379 125.782H141.766L142.697 120.33L139.736 123.267L139.196 123.291L137.215 120.187L136.21 125.782H133.548Z" fill="#8FC838"/>
<path d="M172.018 125.782L173.7 116.23L176.127 116.25L178.299 119.82L181.893 116.23H184.531L182.849 125.782H180.236L181.167 120.33L178.206 123.267L177.667 123.291L175.686 120.187L174.681 125.782H172.018Z" fill="#8FC838"/>
<path d="M225.478 116.23L224.87 119.771H228.37L228.978 116.23H231.641L229.959 125.782H227.297L227.949 122.1H224.404L223.796 125.782H221.133L222.815 116.23H225.478Z" fill="#8FC838"/>
<path d="M243.168 119.024L243.124 119.726C244.115 118.794 246.203 118.372 246.86 119.863H246.929C247.508 119.26 248.302 118.97 249.126 118.887C253.259 118.735 251.028 123.452 250.92 125.781H248.351L249.052 121.8C249.199 120.794 248.032 120.667 247.517 121.339C247.316 121.603 247.267 121.868 247.199 122.182C246.934 123.349 246.816 124.599 246.576 125.776H244.1L244.806 121.653C244.762 120.755 243.752 120.716 243.261 121.329C242.967 121.697 242.943 122.197 242.854 122.648C242.648 123.682 242.492 124.737 242.325 125.776H239.756L240.972 119.02H243.168V119.024Z" fill="#8FC838"/>
<path d="M212.872 119.024L212.215 122.913C212.268 124.217 213.803 123.888 214.186 122.967C214.578 121.692 214.681 120.329 214.97 119.02H217.49L216.093 126.639C215.617 128.135 214.509 128.875 212.979 129.076C211.616 129.257 210.131 129.056 208.998 128.262L210.072 126.521C210.959 127.051 212.68 127.527 213.455 126.615C213.798 126.212 213.891 125.59 213.945 125.075C213.136 125.707 211.989 125.933 210.994 125.668C209.881 125.369 209.547 124.389 209.601 123.329L210.346 119.02H212.867L212.872 119.024Z" fill="#8FC838"/>
<path d="M199.844 125.782H197.275L197.981 121.752C197.946 120.57 196.549 120.786 196.068 121.575C195.902 121.855 195.862 122.11 195.794 122.419C195.554 123.517 195.421 124.674 195.22 125.782H192.651L193.867 119.026H196.063V119.727C196.299 119.644 196.485 119.443 196.701 119.315C197.544 118.839 198.829 118.692 199.687 119.202C200.545 119.712 200.628 120.747 200.535 121.654C200.393 123.012 199.962 124.41 199.839 125.782H199.844Z" fill="#8FC838"/>
<path d="M150.018 118.898C152.68 118.672 154.367 120.315 153.607 122.992C153.116 124.718 151.528 125.801 149.767 125.919C144.423 126.272 145.207 119.305 150.018 118.898ZM148.88 123.575C149.596 124.345 150.866 123.6 151.175 122.751C151.949 120.633 149.292 120.334 148.723 122.026C148.571 122.482 148.532 123.198 148.88 123.57V123.575Z" fill="#8FC838"/>
<path d="M188.488 118.898C191.15 118.672 192.837 120.315 192.077 122.992C191.587 124.718 189.998 125.801 188.238 125.919C182.893 126.272 183.678 119.305 188.488 118.898ZM187.35 123.575C188.066 124.345 189.336 123.6 189.645 122.751C190.42 120.633 187.762 120.334 187.194 122.026C187.042 122.482 187.002 123.198 187.35 123.57V123.575Z" fill="#8FC838"/>
<path d="M235.598 118.898C238.26 118.672 239.947 120.315 239.187 122.992C238.696 124.718 237.108 125.801 235.348 125.919C230.003 126.272 230.788 119.305 235.598 118.898ZM234.455 123.575C235.171 124.345 236.441 123.6 236.75 122.751C237.525 120.633 234.867 120.334 234.298 122.026C234.146 122.482 234.107 123.198 234.455 123.57V123.575Z" fill="#8FC838"/>
<path d="M163.291 123.081C163.3 123.517 163.707 123.782 164.095 123.885C164.938 124.115 165.649 123.836 166.389 123.458L167.395 124.939C164.918 126.773 160.074 126.204 160.839 122.193C161.266 119.952 163.153 118.761 165.37 118.884C167.757 119.016 168.915 120.899 167.934 123.081H163.291ZM165.904 121.821C166.081 121.32 165.718 120.879 165.213 120.806C164.345 120.683 163.712 120.977 163.428 121.821H165.904Z" fill="#8FC838"/>
<path d="M203.909 123.081C203.918 123.517 204.325 123.782 204.713 123.885C205.556 124.115 206.267 123.836 207.007 123.458L208.012 124.939C205.536 126.773 200.692 126.204 201.457 122.193C201.884 119.952 203.771 118.761 205.987 118.884C208.375 119.016 209.532 120.899 208.552 123.081H203.909ZM206.522 121.821C206.698 121.32 206.336 120.879 205.831 120.806C204.963 120.683 204.33 120.977 204.046 121.821H206.522Z" fill="#8FC838"/>
<path d="M254.985 123.081C254.995 123.517 255.402 123.782 255.789 123.885C256.632 124.115 257.343 123.836 258.084 123.458L259.089 124.939C256.613 126.773 251.768 126.204 252.533 122.193C252.96 119.952 254.848 118.761 257.064 118.884C259.452 119.016 260.609 120.899 259.628 123.081H254.985ZM257.598 121.821C257.775 121.32 257.412 120.879 256.907 120.806C256.039 120.683 255.407 120.977 255.122 121.821H257.598Z" fill="#8FC838"/>
<path d="M157.686 119.024L157.593 119.912C157.779 119.75 157.912 119.529 158.108 119.377C159 118.662 160.388 118.725 161.133 119.613L159.834 121.407H159.765C158.677 120.559 157.647 121.157 157.333 122.388C157.059 123.472 156.965 124.688 156.75 125.791H154.18L155.396 119.034H157.686V119.024Z" fill="#8FC838"/>
</g>
<defs>
<clipPath id="clip0_316_1807">
<rect width="296" height="148.076" fill="white"/>
</clipPath>
</defs>
</svg>
