<svg width="299" height="92" viewBox="0 0 299 92" fill="none" xmlns="http://www.w3.org/2000/svg">
<g clip-path="url(#clip0_316_1797)">
<path d="M228.888 72.405C203.248 68.2818 177.26 66.2 151.097 66.2C102.114 66.2 53.7097 73.4929 7.19883 87.8639C6.88993 87.9713 6.55416 88.0116 6.24525 88.0116C4.86187 88.0116 3.57251 87.1118 3.14273 85.7284C2.6055 84.0092 3.57252 82.1961 5.27823 81.6723C52.4069 67.0998 101.47 59.7129 151.097 59.7129C175.796 59.7129 200.374 61.5395 224.63 65.1792L228.888 72.405Z" fill="url(#paint0_linear_316_1797)"/>
<path d="M270.161 74.6477L261.417 77.5622L260.679 77.804L255.749 79.4425L254.742 82.8002L252.781 89.3813L252.204 91.3019C251.546 90.3752 250.901 89.4619 250.243 88.5486C248.873 86.6146 247.49 84.6671 246.12 82.7331L239.538 85.0029L226.202 89.6096L235.469 81.8198L240.156 77.8711L241.969 76.3534L238.424 70.2961L237.631 68.9396L236.597 67.1667L249.356 69.7186L260.45 59.6992L257.804 71.4915L270.147 74.6746L270.161 74.6477Z" fill="#EC1B34"/>
<path d="M41.2997 -0.000241063H55.2006C55.0663 19.7699 54.932 39.5535 54.7977 59.3237C49.412 60.425 46.7124 61.0159 41.34 62.265C41.4072 50.1101 41.4878 37.9552 41.5549 25.7869C37.1765 34.8259 32.9324 43.8917 28.7822 53.0515C24.4306 44.9661 20.3342 36.7465 16.2647 28.5134C16.2244 41.9576 16.1841 55.4019 16.1573 68.8327C10.8118 70.3772 8.13907 71.1831 2.82047 72.8888C2.82047 51.198 2.84733 29.4938 2.86076 7.80306C1.71914 4.72741 1.14162 3.16943 0 -0.000241063H16.7617C20.7103 8.70293 24.6858 17.3927 28.9165 25.9615C32.9458 17.2449 37.0556 8.60891 41.2997 -0.000241063ZM96.675 52.6888C95.7886 48.4313 95.3319 46.2823 94.4455 41.9845C89.0597 42.4948 86.3736 42.7769 81.0012 43.4081C80.0476 48.0552 79.5776 50.3922 78.624 55.0929C73.0502 55.9391 70.27 56.4092 64.6962 57.4299C68.8329 40.2385 73.0771 23.0605 77.4958 5.93618C76.3676 3.58579 75.8035 2.40387 74.6753 0.0131897H96.9973C101.443 17.1375 105.969 34.2483 110.643 51.3055C105.056 51.7755 102.249 52.0576 96.675 52.6888ZM83.3651 31.8711C86.9108 31.5756 88.6702 31.4413 92.216 31.1727C90.5908 23.2351 89.785 19.2327 88.1733 11.1339C87.9718 11.1339 87.8778 11.1339 87.6763 11.1473C85.9572 19.3401 85.0842 23.4902 83.3651 31.8711ZM161.922 -0.000241063C157.758 8.27314 153.581 16.5465 149.391 24.8065C153.595 33.0933 157.799 41.3801 161.976 49.6669C156.214 49.5595 153.326 49.5595 147.564 49.6266C144.61 43.0858 143.132 39.8221 140.191 33.2813C137.223 39.943 135.732 43.2873 132.75 50.0564C126.988 50.3116 124.101 50.4728 118.352 50.9025C122.57 42.2665 126.814 33.6574 131.098 25.0617C126.867 16.748 122.717 8.38059 118.581 -0.000241063C124.302 -0.000241063 127.163 -0.000241063 132.898 -0.000241063C135.826 6.60772 137.29 9.88484 140.231 16.4256C143.199 9.83111 144.677 6.54056 147.618 -0.000241063H161.935H161.922ZM210.582 10.234C210.609 14.6259 210.622 16.8286 210.649 21.2204C208.594 23.0336 207.573 23.92 205.518 25.7063C207.6 27.7075 208.634 28.7148 210.716 30.7698C210.743 35.5914 210.756 37.9955 210.797 42.8172C210.823 46.1077 209.87 48.5253 207.976 50.0698C206.069 51.6144 203.343 52.1785 199.77 51.8293C190.449 51.0234 181.155 50.2713 171.794 49.9355C171.753 35.0676 171.726 20.1997 171.686 5.33179C170.531 3.18286 169.954 2.12183 168.812 -0.0136719C179.033 -0.0136719 189.254 -0.0136719 199.488 -0.0136719C203.034 -0.0136719 205.76 0.859331 207.681 2.61877C209.601 4.39163 210.568 6.93006 210.595 10.2206L210.582 10.234ZM197.111 18.0642C197.111 15.8481 197.097 14.7468 197.084 12.5307C197.084 11.3085 196.385 10.6773 195.029 10.6504C191.094 10.5832 189.133 10.5429 185.197 10.4892C185.211 14.1021 185.224 15.9153 185.238 19.5416C189.173 19.649 191.134 19.7028 195.069 19.8371C196.439 19.8774 197.111 19.2998 197.111 18.0642ZM197.231 39.07C197.218 36.4107 197.205 35.0945 197.191 32.4352C197.191 31.213 196.493 30.5549 195.136 30.4877C191.201 30.2862 189.227 30.1922 185.291 30.0311C185.305 34.0872 185.318 36.1152 185.332 40.1579C189.28 40.3728 191.255 40.4937 195.19 40.7623C196.56 40.8563 197.245 40.2922 197.231 39.07ZM259.98 13.0411V-0.000241063C272.928 -0.000241063 285.109 -0.000241063 298.057 -0.000241063C298.057 6.11078 298.057 9.173 298.057 15.284C293.007 14.9483 290.468 14.7871 285.418 14.4782C285.458 32.959 285.499 51.4263 285.539 69.9071C280.194 68.3223 277.521 67.5702 272.162 66.1331C272.122 55.7376 272.068 45.3556 272.028 34.9602C272.001 27.8687 271.974 20.7772 271.934 13.6858C267.945 13.4709 263.956 13.2425 259.967 13.0276L259.98 13.0411ZM233.629 33.7514C233.656 38.3044 233.683 40.5877 233.71 45.1407C241.338 46.3629 248.967 47.5717 256.582 48.7939C252.781 52.2456 248.994 55.6839 245.193 59.1356C235.241 57.1344 230.298 56.3286 220.265 54.7437C220.158 38.4522 220.037 22.1606 219.93 5.86902C218.761 3.5052 218.184 2.33672 217.028 -0.000241063C230.11 -0.000241063 239.216 -0.000241063 252.311 -0.000241063V12.571C246.858 12.3561 238.921 12.0069 233.468 11.792C233.495 15.8615 233.508 17.8896 233.535 21.9591C239.807 22.4292 239.606 22.4158 245.878 22.8993C245.878 26.9823 245.878 31.0518 245.878 35.1348C241.795 34.6781 237.699 34.208 233.616 33.7514H233.629Z" fill="black"/>
</g>
<defs>
<linearGradient id="paint0_linear_316_1797" x1="2.99499" y1="73.869" x2="228.888" y2="73.869" gradientUnits="userSpaceOnUse">
<stop stop-color="#80132C"/>
<stop offset="1" stop-color="#EC1B34"/>
</linearGradient>
<clipPath id="clip0_316_1797">
<rect width="298.07" height="91.2892" fill="white"/>
</clipPath>
</defs>
</svg>
