<svg width="344" height="80" viewBox="0 0 344 80" fill="none" xmlns="http://www.w3.org/2000/svg">
<path d="M48.7991 0.000215871H38.9518C38.802 -0.000948139 38.6535 0.0276631 38.5149 0.084371C38.3763 0.141079 38.2504 0.224757 38.1445 0.330534C38.0386 0.436311 37.9549 0.56207 37.8981 0.700496C37.8413 0.838922 37.8127 0.987254 37.8138 1.13684L38.0327 37.9454C38.0288 37.9946 38.0101 38.0415 37.9791 38.0799C37.948 38.1183 37.9061 38.1464 37.8588 38.1606C37.8115 38.1748 37.761 38.1744 37.7139 38.1594C37.6668 38.1444 37.6254 38.1155 37.595 38.0766L13.6113 0.918246C13.4369 0.634936 13.1921 0.401505 12.9006 0.240643C12.6092 0.0797814 12.2811 -0.00304838 11.9481 0.000215871H1.13795C0.988191 -0.000948271 0.839697 0.0276631 0.701112 0.084371C0.562527 0.141079 0.436621 0.224757 0.330723 0.330534C0.224825 0.436311 0.141051 0.56207 0.0842784 0.700496C0.0275059 0.838922 -0.00113199 0.987254 3.42379e-05 1.13684V58.4043C-0.00113199 58.5539 0.0275059 58.7022 0.0842784 58.8407C0.141051 58.9791 0.224825 59.1048 0.330723 59.2106C0.436621 59.3164 0.562527 59.4001 0.701112 59.4568C0.839697 59.5135 0.988191 59.5421 1.13795 59.5409H10.9853C11.1351 59.5421 11.2835 59.5135 11.4221 59.4568C11.5607 59.4001 11.6866 59.3164 11.7925 59.2106C11.8984 59.1048 11.9822 58.9791 12.039 58.8407C12.0957 58.7022 12.1244 58.5539 12.1232 58.4043V21.9892C12.1271 21.94 12.1458 21.8931 12.1768 21.8547C12.2078 21.8163 12.2498 21.7882 12.2971 21.774C12.3444 21.7598 12.3949 21.7602 12.442 21.7752C12.4891 21.7902 12.5305 21.8191 12.5609 21.858L36.282 58.6665C36.4564 58.9499 36.7012 59.1833 36.9927 59.3442C37.2841 59.505 37.6122 59.5879 37.9451 59.5846H48.7553C48.9051 59.5858 49.0536 59.5571 49.1922 59.5004C49.3308 59.4437 49.4567 59.36 49.5626 59.2543C49.6685 59.1485 49.7522 59.0227 49.809 58.8843C49.8658 58.7459 49.8944 58.5976 49.8933 58.448V1.19799C49.9101 1.04549 49.8942 0.891148 49.8466 0.745271C49.799 0.599395 49.7208 0.465326 49.6173 0.351988C49.5138 0.238651 49.3873 0.148653 49.2462 0.0879888C49.1051 0.0273248 48.9527 -0.00256995 48.7991 0.000215871Z" fill="#F75000"/>
<path d="M214.366 22.9514C211.346 19.1481 206.444 17.2246 201.148 17.2246C199.919 17.2334 198.697 17.4099 197.516 17.7492C196.07 18.2414 194.743 19.0307 193.621 20.0661C193.587 20.0964 193.545 20.1163 193.5 20.1234C193.455 20.1304 193.409 20.1244 193.367 20.1059C193.326 20.0874 193.29 20.0574 193.265 20.0193C193.24 19.9812 193.227 19.9367 193.227 19.8913V19.1481C193.228 18.9985 193.199 18.8502 193.143 18.7118C193.086 18.5733 193.002 18.4476 192.896 18.3418C192.79 18.236 192.664 18.1524 192.526 18.0956C192.387 18.0389 192.239 18.0103 192.089 18.0115H182.373C182.223 18.0103 182.075 18.0389 181.936 18.0956C181.797 18.1523 181.671 18.236 181.566 18.3418C181.46 18.4476 181.376 18.5733 181.319 18.7118C181.262 18.8502 181.234 18.9985 181.235 19.1481V58.466C181.234 58.6155 181.262 58.7639 181.319 58.9023C181.376 59.0407 181.46 59.1665 181.566 59.2723C181.671 59.378 181.797 59.4617 181.936 59.5184C182.075 59.5751 182.223 59.6037 182.373 59.6026H192.045C192.195 59.6037 192.343 59.5751 192.482 59.5184C192.621 59.4617 192.746 59.378 192.852 59.2723C192.958 59.1665 193.042 59.0407 193.099 58.9023C193.156 58.7639 193.184 58.6155 193.183 58.466C193.183 58.466 193.227 34.5098 193.227 34.2912C193.227 30.5754 196.29 28.3459 199.792 28.3459C204.037 28.3459 206.182 31.3623 206.4 34.6847V58.466C206.399 58.6155 206.428 58.7639 206.485 58.9023C206.541 59.0407 206.625 59.1665 206.731 59.2723C206.837 59.378 206.963 59.4617 207.102 59.5184C207.24 59.5751 207.389 59.6037 207.538 59.6026H217.254C217.404 59.6037 217.553 59.5751 217.691 59.5184C217.83 59.4617 217.956 59.378 218.062 59.2723C218.168 59.1665 218.251 59.0407 218.308 58.9023C218.365 58.7639 218.393 58.6155 218.392 58.466V38.0944C218.475 31.1262 217.211 26.5535 214.366 22.9514Z" fill="#F75000"/>
<path d="M173.445 17.9678H163.729C163.574 17.9673 163.42 17.9974 163.276 18.0565C163.132 18.1156 163.002 18.2025 162.892 18.3123C162.782 18.422 162.695 18.5523 162.636 18.6958C162.577 18.8393 162.547 18.993 162.547 19.1482V19.8476C162.549 19.894 162.537 19.9398 162.512 19.9792C162.488 20.0185 162.452 20.0497 162.41 20.0685C162.367 20.0873 162.32 20.093 162.274 20.0848C162.229 20.0766 162.187 20.0549 162.153 20.0225C159.535 18.1489 156.402 17.1263 153.181 17.0935C147.905 17.0485 142.807 19.0009 138.914 22.558C134.187 26.7984 131.78 32.2191 131.78 38.7328C131.78 44.3721 133.618 49.2682 137.294 53.3338C141.54 58.0551 146.879 60.4594 153.181 60.4594C156.289 60.4594 159.309 59.454 162.153 57.7491C162.19 57.7254 162.232 57.7126 162.275 57.7122C162.319 57.7118 162.361 57.7238 162.398 57.7467C162.435 57.7697 162.465 57.8027 162.483 57.8419C162.502 57.881 162.509 57.9246 162.503 57.9677V58.466C162.503 58.6212 162.533 58.7749 162.592 58.9184C162.651 59.0618 162.738 59.1922 162.848 59.3019C162.958 59.4116 163.089 59.4985 163.232 59.5577C163.376 59.6168 163.53 59.6469 163.685 59.6463H173.397C173.552 59.6469 173.706 59.6168 173.85 59.5577C173.993 59.4985 174.124 59.4116 174.234 59.3019C174.344 59.1922 174.431 59.0618 174.49 58.9184C174.549 58.7749 174.579 58.6212 174.579 58.466V19.1656C174.59 19.0109 174.569 18.8555 174.517 18.7093C174.465 18.5631 174.383 18.4294 174.277 18.3166C174.17 18.2039 174.041 18.1146 173.898 18.0546C173.754 17.9945 173.6 17.965 173.445 17.9678ZM153.4 49.312C152.171 49.3416 150.949 49.116 149.811 48.6495C148.674 48.1829 147.645 47.4856 146.792 46.6016C144.91 44.7218 143.99 42.0989 143.99 38.7328C143.99 35.8475 144.691 33.5306 146.047 31.7383C146.869 30.6271 147.946 29.7294 149.187 29.1207C150.429 28.5121 151.799 28.2104 153.181 28.241C155.982 28.241 158.171 29.1153 159.878 30.9077C161.716 32.8312 162.635 35.4541 162.635 38.689C162.635 41.5743 161.935 43.9349 160.578 45.771C158.871 48.1753 156.508 49.312 153.4 49.312Z" fill="#F75000"/>
<path d="M97.467 17.9678H87.7509C87.5956 17.9673 87.4417 17.9974 87.298 18.0565C87.1544 18.1156 87.0239 18.2025 86.914 18.3123C86.8042 18.422 86.7172 18.5523 86.658 18.6958C86.5988 18.8393 86.5687 18.993 86.5692 19.1482V19.8476C86.5711 19.894 86.5589 19.9398 86.5344 19.9792C86.5099 20.0185 86.4741 20.0497 86.4317 20.0685C86.3892 20.0873 86.3421 20.093 86.2964 20.0848C86.2507 20.0766 86.2085 20.0549 86.1753 20.0225C83.5568 18.1489 80.4242 17.1263 77.2033 17.0935C71.9269 17.0485 66.8292 19.0009 62.9356 22.558C58.2089 26.7984 55.8018 32.2191 55.8018 38.7328C55.8018 44.3721 57.6399 49.2682 61.3163 53.3338C65.5616 58.0551 70.901 60.4594 77.2033 60.4594C80.3107 60.4594 83.3306 59.454 86.1753 57.7491C86.2117 57.7254 86.2541 57.7126 86.2975 57.7122C86.3408 57.7118 86.3835 57.7238 86.4203 57.7467C86.4571 57.7697 86.4865 57.8027 86.5052 57.8419C86.5238 57.881 86.5308 57.9246 86.5255 57.9677V58.466C86.5249 58.6212 86.5551 58.7749 86.6142 58.9184C86.6734 59.0618 86.7604 59.1922 86.8703 59.3019C86.9801 59.4116 87.1106 59.4985 87.2543 59.5577C87.3979 59.6168 87.5518 59.6469 87.7071 59.6463H97.4232C97.5785 59.6469 97.7325 59.6168 97.8761 59.5577C98.0197 59.4985 98.1502 59.4116 98.2601 59.3019C98.3699 59.1922 98.4569 59.0618 98.5161 58.9184C98.5753 58.7749 98.6055 58.6212 98.6049 58.466V19.1656C98.6165 19.0106 98.5955 18.8548 98.5433 18.7083C98.4911 18.5618 98.4087 18.4278 98.3015 18.315C98.1944 18.2022 98.0647 18.113 97.921 18.0532C97.7773 17.9934 97.6226 17.9644 97.467 17.9678ZM77.4221 49.312C76.1928 49.3416 74.9706 49.116 73.8331 48.6495C72.6955 48.1829 71.6673 47.4856 70.8135 46.6016C68.9316 44.7218 68.0125 42.0989 68.0125 38.7328C68.0125 35.8475 68.7127 33.5306 70.0695 31.7383C70.891 30.6271 71.9679 29.7294 73.2094 29.1207C74.4509 28.5121 75.8207 28.2104 77.2033 28.241C80.0043 28.241 82.1926 29.1153 83.8995 30.9077C85.7377 32.8312 86.6568 35.4541 86.6568 38.689C86.6568 41.5743 85.9565 43.9349 84.5998 45.771C82.8929 48.1753 80.5295 49.312 77.4221 49.312Z" fill="#F75000"/>
<path d="M283.779 17.9678H274.059C273.903 17.9673 273.749 17.9974 273.606 18.0565C273.462 18.1156 273.332 18.2025 273.222 18.3123C273.112 18.422 273.025 18.5523 272.966 18.6958C272.906 18.8393 272.876 18.993 272.877 19.1482V19.8476C272.879 19.894 272.867 19.9398 272.842 19.9792C272.817 20.0185 272.782 20.0497 272.739 20.0685C272.697 20.0873 272.65 20.093 272.604 20.0848C272.558 20.0766 272.516 20.0549 272.483 20.0225C269.864 18.1489 266.732 17.1263 263.511 17.0935C258.235 17.0485 253.137 19.0009 249.243 22.558C244.516 26.7984 242.109 32.2191 242.109 38.7328C242.109 44.3721 243.948 49.2682 247.624 53.3338C251.869 58.0551 257.209 60.4594 263.511 60.4594C266.618 60.4594 269.638 59.454 272.483 57.7491C272.519 57.7254 272.562 57.7126 272.605 57.7122C272.648 57.7118 272.691 57.7238 272.728 57.7467C272.765 57.7697 272.794 57.8027 272.813 57.8419C272.831 57.881 272.838 57.9246 272.833 57.9677V58.466C272.833 58.6212 272.863 58.7749 272.922 58.9184C272.981 59.0618 273.068 59.1922 273.178 59.3019C273.288 59.4116 273.418 59.4985 273.562 59.5577C273.706 59.6168 273.859 59.6469 274.015 59.6463H283.731C283.886 59.6469 284.04 59.6168 284.184 59.5577C284.327 59.4985 284.458 59.4116 284.568 59.3019C284.678 59.1922 284.765 59.0618 284.824 58.9184C284.883 58.7749 284.913 58.6212 284.913 58.466V19.1656C284.921 18.8568 284.806 18.5573 284.594 18.3327C284.381 18.1082 284.088 17.977 283.779 17.9678ZM263.734 49.312C262.505 49.3416 261.283 49.116 260.145 48.6495C259.008 48.1829 257.979 47.4856 257.125 46.6016C255.244 44.7218 254.324 42.0989 254.324 38.7328C254.324 35.8475 255.025 33.5306 256.381 31.7383C257.203 30.6271 258.28 29.7294 259.521 29.1207C260.763 28.5121 262.133 28.2104 263.515 28.241C266.316 28.241 268.505 29.1153 270.212 30.9077C272.05 32.8312 272.969 35.4541 272.969 38.689C272.969 41.5743 272.269 43.9349 270.912 45.771C269.161 48.1753 266.798 49.312 263.734 49.312Z" fill="#F75000"/>
<path d="M125.433 18.1419C123.21 18.2312 121.062 18.9766 119.262 20.284C119.228 20.3125 119.186 20.3308 119.142 20.3369C119.097 20.343 119.052 20.3366 119.011 20.3184C118.97 20.3003 118.935 20.271 118.91 20.2341C118.885 20.1971 118.87 20.1538 118.868 20.1091V19.1474C118.87 18.9978 118.841 18.8495 118.784 18.7111C118.727 18.5726 118.644 18.4469 118.538 18.3411C118.432 18.2353 118.306 18.1516 118.167 18.0949C118.029 18.0382 117.88 18.0096 117.73 18.0108H108.014C107.865 18.0096 107.716 18.0382 107.578 18.0949C107.439 18.1516 107.313 18.2353 107.207 18.3411C107.101 18.4469 107.018 18.5726 106.961 18.7111C106.904 18.8495 106.875 18.9978 106.876 19.1474V58.4652C106.875 58.6148 106.904 58.7631 106.961 58.9016C107.018 59.04 107.101 59.1658 107.207 59.2715C107.313 59.3773 107.439 59.461 107.578 59.5177C107.716 59.5744 107.865 59.603 108.014 59.6018H117.73C117.88 59.603 118.029 59.5744 118.167 59.5177C118.306 59.461 118.432 59.3773 118.538 59.2715C118.644 59.1658 118.727 59.04 118.784 58.9016C118.841 58.7631 118.87 58.6148 118.868 58.4652V39.5364C118.868 35.4708 119.35 32.673 120.356 31.2304C121.232 29.9189 122.982 29.2632 125.521 29.2632C126.676 29.2565 127.83 29.3149 128.978 29.4381C129.134 29.4386 129.288 29.4085 129.431 29.3494C129.575 29.2903 129.705 29.2033 129.815 29.0936C129.925 28.9839 130.012 28.8536 130.071 28.7101C130.13 28.5666 130.161 28.4129 130.16 28.2577V19.5583C130.162 19.2783 130.06 19.0074 129.874 18.7976C129.689 18.5879 129.432 18.454 129.153 18.4217C127.92 18.2548 126.678 18.1614 125.433 18.1419Z" fill="#F75000"/>
<path d="M236.774 2.14192C236.11 1.47216 235.319 0.941557 234.447 0.581228C233.575 0.220899 232.64 0.0381058 231.697 0.0435727C229.758 0.0188033 227.887 0.756814 226.489 2.0982C225.794 2.74516 225.244 3.53124 224.875 4.40508C224.505 5.27892 224.324 6.22083 224.344 7.16922C224.351 9.08768 225.12 10.9249 226.483 12.2774C227.845 13.6299 229.689 14.3869 231.609 14.3823C232.567 14.3926 233.516 14.2123 234.403 13.852C235.29 13.4918 236.096 12.9587 236.774 12.2839C237.451 11.626 237.987 10.8368 238.348 9.96488C238.709 9.09292 238.888 8.15649 238.875 7.21292C238.9 6.26774 238.727 5.32774 238.365 4.45405C238.003 3.58037 237.461 2.79258 236.774 2.14192Z" fill="#F75000"/>
<path d="M236.468 17.9678H226.752C226.602 17.9666 226.454 17.9952 226.315 18.052C226.176 18.1087 226.051 18.1923 225.945 18.2981C225.839 18.4039 225.755 18.5296 225.698 18.6681C225.641 18.8065 225.613 18.9548 225.614 19.1044V60.372C225.57 62.0769 224.826 67.7162 216.948 68.2845C216.656 68.3111 216.384 68.4479 216.189 68.6671C215.994 68.8864 215.89 69.1716 215.898 69.4648V78.7763V78.8201V78.8638C215.903 79.1635 216.025 79.4494 216.237 79.6614C216.45 79.8733 216.736 79.9948 217.036 80.0004H217.123C219.093 79.913 236.687 78.5578 237.606 61.5962C237.645 61.4992 237.66 61.3942 237.65 61.2902V19.1483C237.644 18.837 237.518 18.54 237.297 18.3199C237.077 18.0997 236.78 17.9734 236.468 17.9678Z" fill="#F75000"/>
<path d="M307.193 1.00547C306.99 0.7025 306.717 0.452893 306.397 0.277848C306.077 0.102803 305.72 0.0074859 305.355 6.96188e-06H294.107C293.903 -0.000707661 293.702 0.053606 293.526 0.157224C293.35 0.260843 293.205 0.409949 293.106 0.588866C293.008 0.767783 292.959 0.969899 292.966 1.17398C292.973 1.37806 293.034 1.57657 293.144 1.74863L311.132 29.5081C311.175 29.5887 311.198 29.6788 311.198 29.7704C311.198 29.8619 311.175 29.952 311.132 30.0327L293.144 57.7921C293.034 57.9642 292.973 58.1627 292.966 58.3668C292.959 58.5708 293.008 58.7729 293.106 58.9519C293.205 59.1308 293.35 59.2799 293.526 59.3835C293.702 59.4871 293.903 59.5414 294.107 59.5407H305.399C305.754 59.5411 306.104 59.4535 306.417 59.2856C306.731 59.1178 306.997 58.875 307.193 58.579L324.743 31.3441C325.043 30.8739 325.203 30.3279 325.203 29.7704C325.203 29.2128 325.043 28.6668 324.743 28.1966L307.193 1.00547Z" fill="#F75000"/>
<path d="M328.328 33.7925C328.292 33.7186 328.236 33.6562 328.166 33.6126C328.097 33.569 328.016 33.5459 327.934 33.5459C327.852 33.5459 327.771 33.569 327.702 33.6126C327.632 33.6562 327.576 33.7186 327.54 33.7925L321.676 42.8854C321.376 43.3556 321.216 43.9016 321.216 44.4591C321.216 45.0167 321.376 45.5626 321.676 46.0329L329.641 58.4044C329.869 58.7661 330.186 59.0641 330.561 59.2705C330.936 59.4769 331.357 59.585 331.785 59.5847H342.858C343.063 59.5855 343.264 59.5311 343.44 59.4275C343.616 59.3239 343.761 59.1748 343.859 58.9959C343.958 58.817 344.006 58.6148 344 58.4108C343.993 58.2067 343.931 58.0082 343.821 57.8361L328.328 33.7925Z" fill="#50007F"/>
<path d="M329.641 1.19596L321.676 13.5675C321.376 14.0377 321.216 14.5837 321.216 15.1413C321.216 15.6988 321.376 16.2448 321.676 16.715L327.54 25.8079C327.586 25.8686 327.646 25.9178 327.714 25.9516C327.783 25.9855 327.858 26.0031 327.934 26.0031C328.01 26.0031 328.086 25.9855 328.154 25.9516C328.222 25.9178 328.282 25.8686 328.328 25.8079L343.821 1.76427C343.931 1.59221 343.993 1.3937 344 1.18962C344.006 0.985535 343.958 0.783411 343.859 0.604491C343.761 0.425572 343.616 0.276456 343.44 0.172837C343.264 0.0692176 343.063 0.0149155 342.858 0.015632H331.742C331.321 0.0207004 330.907 0.131453 330.54 0.337706C330.173 0.543959 329.864 0.839089 329.641 1.19596Z" fill="#50007F"/>
</svg>
