<svg width="263" height="82" viewBox="0 0 263 82" fill="none" xmlns="http://www.w3.org/2000/svg">
<mask id="mask0_316_1863" style="mask-type:luminance" maskUnits="userSpaceOnUse" x="0" y="0" width="263" height="82">
<path d="M262.866 0H0V81.502H262.866V0Z" fill="white"/>
</mask>
<g mask="url(#mask0_316_1863)">
<path d="M13.3937 0H2.32049C1.03892 0 0 1.03996 0 2.32282V11.7363C0 13.0192 1.03892 14.0591 2.32049 14.0591H13.3937C14.6753 14.0591 15.7142 13.0192 15.7142 11.7363V2.32282C15.7142 1.03996 14.6753 0 13.3937 0Z" fill="black"/>
<path d="M80.8527 0H71.3265C70.0238 0 69.006 1.05953 69.006 2.32282V40.425C69.006 41.1992 67.9881 41.4846 67.6219 40.7918L45.4754 1.01878C45.1091 0.366759 44.4578 0 43.6841 0H27.8479C26.5452 0 25.5273 1.05953 25.5273 2.32282V63.2049C25.5273 64.5089 26.5859 65.5277 27.8479 65.5277H37.374C38.6767 65.5277 39.6946 64.4682 39.6946 63.2049V23.9616C39.6946 23.1873 40.7124 22.9021 41.0787 23.5948L63.8358 64.5496C64.2021 65.2017 64.8534 65.5684 65.6271 65.5684H80.7713C82.074 65.5684 83.0918 64.5089 83.0918 63.2456V2.32282C83.0918 1.01878 82.0333 0 80.7713 0H80.8527Z" fill="black"/>
<path d="M138.128 41.7688C138.128 24.6128 126.974 16.0957 114.72 16.0957C98.8021 16.0957 89.7236 27.1393 89.7236 42.0542C89.7236 59.0066 101.123 67.0753 114.353 67.0753C127.584 67.0753 135.319 60.2291 137.395 51.3453C137.681 50.2043 137.029 49.1855 135.319 49.1855H127.829C126.974 49.1855 126.241 49.6339 125.875 50.4897C124.002 54.6053 120.989 56.7651 115.208 56.7651C108.654 56.7651 104.257 52.6495 103.606 44.2954H135.808C137.192 44.2954 138.128 43.2765 138.128 41.7688ZM104.135 35.2894C105.519 29.1361 109.102 26.4058 114.516 26.4058C119.361 26.4058 123.513 29.2175 124.083 35.2894H104.135Z" fill="black"/>
<path d="M260.546 17.3203H250.979C249.698 17.3203 248.659 18.3603 248.659 19.6431V63.2466C248.659 64.5296 249.698 65.5695 250.979 65.5695H260.546C261.828 65.5695 262.866 64.5296 262.866 63.2466V19.6431C262.866 18.3603 261.828 17.3203 260.546 17.3203Z" fill="black"/>
<path d="M189.508 17.3198H179.982C178.679 17.3198 177.661 18.3793 177.661 19.6426V22.0062C174.812 18.6646 170.13 16.3418 163.983 16.3418C150.223 16.3418 142.936 28.8117 142.936 42.0149C142.936 53.5474 148.92 66.4655 163.698 66.4655C168.99 66.4655 174.608 63.939 177.661 60.3529V79.0983C177.661 80.4025 178.72 81.4211 179.982 81.4211H189.508C190.811 81.4211 191.828 80.3616 191.828 79.0983V19.6834C191.828 18.3793 190.77 17.3606 189.508 17.3606V17.3198ZM167.81 56.1963C161.54 56.1963 157.143 51.5913 157.143 41.6888C157.143 31.7864 161.54 26.6109 167.81 26.6109C174.079 26.6109 178.476 31.3789 178.476 41.6888C178.476 51.999 174.079 56.1963 167.81 56.1963Z" fill="black"/>
<path d="M240.233 17.3203H230.706C229.404 17.3203 228.386 18.3798 228.386 19.6431V44.2975C228.386 52.2439 224.844 54.5667 220.326 54.5667C215.807 54.5667 212.265 52.2439 212.265 44.2975V19.6431C212.265 18.3391 211.206 17.3203 209.944 17.3203H200.418C199.116 17.3203 198.098 18.3798 198.098 19.6431V45.3163C198.098 60.598 206.525 66.7513 220.366 66.7513C234.208 66.7513 242.635 60.557 242.635 45.3163V19.6431C242.635 18.3391 241.576 17.3203 240.314 17.3203H240.233Z" fill="black"/>
</g>
</svg>
