<svg width="93" height="19" viewBox="0 0 93 19" fill="none" xmlns="http://www.w3.org/2000/svg">
<g clip-path="url(#clip0_3303_26266)">
<path fill-rule="evenodd" clip-rule="evenodd" d="M12.478 0C11.5703 0 10.6763 0.196849 10.0447 0.456579C9.41319 0.196849 8.51917 0 7.61148 0C3.61162 0 0 3.78387 0 8.97301C0 14.6324 4.62321 19.0068 10.0447 19.0068C15.4663 19.0068 20.0895 14.6324 20.0895 8.97301C20.0895 3.78387 16.4779 0 12.478 0ZM10.0447 3.08123C10.8157 3.54054 11.8328 4.86927 11.8328 6.3675C11.8328 7.46658 11.1083 8.33326 10.0447 8.33326C8.98122 8.33326 8.2567 7.46931 8.2567 6.3675C8.2567 4.86927 9.27375 3.54054 10.0447 3.08123ZM10.0447 16.5353C5.89725 16.5353 2.46881 13.1998 2.46881 8.9238C2.46881 5.01964 5.28757 2.35125 7.50212 2.44967C6.45226 3.49406 5.81797 5.0169 5.81797 6.49327C5.81797 9.02769 7.8302 10.8048 10.0475 10.8048C12.2648 10.8048 14.277 9.02769 14.277 6.49327C14.277 5.01964 13.64 3.4968 12.5928 2.44967C14.8074 2.35125 17.6261 5.0169 17.6261 8.9238C17.6261 13.1998 14.195 16.5353 10.0502 16.5353H10.0447Z" fill="#070E29"/>
<path d="M34.5547 4.33008V6.39699H37.707V14.1561H39.9379V6.39699H43.0903V4.33008H34.5547Z" fill="#070E29"/>
<path d="M71.2914 4.33008H65.6702V6.41339H71.141C71.9421 6.41339 72.2565 6.77975 72.2565 7.72025V8.06747H67.7235C65.9983 8.06747 65.1426 8.92868 65.1426 10.878V11.3428C65.1426 13.3468 66.0311 14.1534 67.8192 14.1534H74.4683V7.69564C74.4683 5.22136 73.6508 4.33008 71.2914 4.33008ZM68.0516 12.0536C67.7125 12.0536 67.3352 11.8814 67.3352 11.0393C67.3352 10.1973 67.7098 10.0496 68.0516 10.0496H72.2592V12.0564H68.0516V12.0536Z" fill="#070E29"/>
<path d="M89.8226 4.33008H84.2042V6.41339H89.675C90.4788 6.41339 90.7904 6.77975 90.7904 7.72025C90.7904 7.72572 90.7904 7.98818 90.7904 8.06747H86.2547C84.5296 8.06747 83.6738 8.92868 83.6738 10.878V11.3428C83.6738 13.3468 84.5624 14.1534 86.3504 14.1534H92.9995V7.69564C92.9995 5.22136 92.1821 4.33008 89.8226 4.33008ZM86.5828 12.0536C86.2438 12.0536 85.8665 11.8814 85.8665 11.0393C85.8665 10.1973 86.2411 10.0496 86.5828 10.0496H90.7904V12.0564H86.5828V12.0536Z" fill="#070E29"/>
<path d="M43.7988 4.33008V6.39699H46.9511V14.1561H49.1848V6.39699H52.3371V4.33008H43.7988Z" fill="#070E29"/>
<path d="M74.918 4.33008V6.39699H78.0703V14.1561H80.304V6.39699H83.4563V4.33008H74.9207H74.918Z" fill="#070E29"/>
<path d="M64.2761 10.7113V7.77219C64.2761 5.19676 63.2782 4.33008 61.0254 4.33008H55.0488V14.1534H61.1293C63.5188 14.1534 64.2761 12.9668 64.2761 10.7113ZM61.9959 10.755C61.9959 11.6955 61.6788 12.0619 60.875 12.0619H57.2798V6.42159H60.875C61.6761 6.42159 61.9959 6.78795 61.9959 7.72845V10.755Z" fill="#070E29"/>
<path d="M31.4053 11.8138C31.3588 11.7236 28.376 5.9111 28.0096 5.33969C27.5886 4.67806 27.0773 4.21875 26.0958 4.21875C25.1854 4.21875 24.1055 4.62338 24.1055 6.81059V14.1569H26.3063V8.02996C26.3063 7.58978 26.279 6.93909 26.2735 6.80785C26.2681 6.70123 26.2735 6.59734 26.3282 6.56726C26.3911 6.53172 26.454 6.58913 26.4977 6.67115C26.5415 6.75317 29.3056 12.2212 29.8934 13.1453C30.3144 13.8069 30.8257 14.2662 31.8072 14.2662C32.7176 14.2662 33.7975 13.8616 33.7975 11.6744V4.32811H31.5967V10.455C31.5967 10.8952 31.624 11.5459 31.6295 11.6771C31.6349 11.7837 31.6295 11.8876 31.5748 11.9177C31.5119 11.9533 31.449 11.8958 31.4053 11.8138Z" fill="#070E29"/>
</g>
<defs>
<clipPath id="clip0_3303_26266">
<rect width="93" height="19.0069" fill="white"/>
</clipPath>
</defs>
</svg>
