<svg width="377" height="77" viewBox="0 0 377 77" fill="none" xmlns="http://www.w3.org/2000/svg">
<g clip-path="url(#clip0_316_6256)">
<path fill-rule="evenodd" clip-rule="evenodd" d="M50.5505 0C46.8733 0 43.2515 0.797466 40.6929 1.84968C38.1344 0.797466 34.5126 0 30.8354 0C14.6313 0 0 15.3291 0 36.3512C0 59.2783 18.7294 76.9998 40.6929 76.9998C62.6565 76.9998 81.3858 59.2783 81.3858 36.3512C81.3858 15.3291 66.7546 0 50.5505 0ZM40.6929 12.4826C43.8163 14.3433 47.9366 19.7262 47.9366 25.7958C47.9366 30.2483 45.0015 33.7594 40.6929 33.7594C36.3844 33.7594 33.4493 30.2594 33.4493 25.7958C33.4493 19.7262 37.5695 14.3433 40.6929 12.4826ZM40.6929 66.9871C23.8908 66.9871 10.0016 53.4745 10.0016 36.1518C10.0016 20.3354 21.4208 9.52529 30.3923 9.92402C26.1392 14.155 23.5696 20.3243 23.5696 26.3053C23.5696 36.5727 31.7214 43.772 40.704 43.772C49.6866 43.772 57.8384 36.5727 57.8384 26.3053C57.8384 20.3354 55.2578 14.1661 51.0157 9.92402C59.9872 9.52529 71.4064 20.3243 71.4064 36.1518C71.4064 53.4745 57.5062 66.9871 40.7151 66.9871H40.6929Z" fill="black"/>
<path d="M139.989 17.543V25.9164H152.759V57.3498H161.797V25.9164H174.568V17.543H139.989Z" fill="black"/>
<path d="M288.815 17.543H266.043V25.9828H288.206C291.451 25.9828 292.725 27.467 292.725 31.2771V32.6837H274.361C267.372 32.6837 263.906 36.1727 263.906 44.0698V45.9527C263.906 54.0713 267.505 57.3387 274.749 57.3387H301.686V31.1774C301.686 21.1537 298.374 17.543 288.815 17.543ZM275.69 48.8324C274.317 48.8324 272.788 48.1347 272.788 44.7233C272.788 41.3119 274.306 40.7138 275.69 40.7138H292.736V48.8435H275.69V48.8324Z" fill="black"/>
<path d="M363.888 17.543H341.127V25.9828H363.29C366.546 25.9828 367.808 27.467 367.808 31.2771C367.808 31.2993 367.808 32.3625 367.808 32.6837H349.434C342.445 32.6837 338.978 36.1727 338.978 44.0698V45.9527C338.978 54.0713 342.578 57.3387 349.821 57.3387H376.758V31.1774C376.758 21.1537 373.446 17.543 363.888 17.543ZM350.763 48.8324C349.389 48.8324 347.861 48.1347 347.861 44.7233C347.861 41.3119 349.378 40.7138 350.763 40.7138H367.808V48.8435H350.763V48.8324Z" fill="black"/>
<path d="M177.436 17.543V25.9164H190.206V57.3498H199.255V25.9164H212.026V17.543H177.436Z" fill="black"/>
<path d="M303.502 17.543V25.9164H316.272V57.3498H325.321V25.9164H338.092V17.543H303.513H303.502Z" fill="black"/>
<path d="M260.395 43.3942V31.4875C260.395 21.054 256.352 17.543 247.226 17.543H223.014V57.3387H247.647C257.327 57.3387 260.395 52.5318 260.395 43.3942ZM251.158 43.5714C251.158 47.3815 249.873 48.8657 246.617 48.8657H232.052V26.016H246.617C249.862 26.016 251.158 27.5002 251.158 31.3103V43.5714Z" fill="black"/>
<path d="M127.229 47.8587C127.041 47.4932 114.957 23.9458 113.473 21.631C111.767 18.9506 109.696 17.0898 105.719 17.0898C102.031 17.0898 97.6562 18.7291 97.6562 27.5898V57.3508H106.572V32.5297C106.572 30.7465 106.462 28.1104 106.439 27.5787C106.417 27.1468 106.439 26.7259 106.661 26.6041C106.916 26.4601 107.17 26.6927 107.348 27.0249C107.525 27.3572 118.723 49.5091 121.104 53.2527C122.81 55.9331 124.881 57.7938 128.857 57.7938C132.545 57.7938 136.92 56.1546 136.92 47.2939V17.5329H128.004V42.354C128.004 44.1372 128.115 46.7733 128.137 47.3049C128.159 47.7369 128.137 48.1578 127.916 48.2796C127.661 48.4236 127.406 48.191 127.229 47.8587Z" fill="black"/>
</g>
<defs>
<clipPath id="clip0_316_6256">
<rect width="376.758" height="77" fill="white"/>
</clipPath>
</defs>
</svg>
