<svg width="264" height="146" viewBox="0 0 264 146" fill="none" xmlns="http://www.w3.org/2000/svg">
<g clip-path="url(#clip0_316_1685)">
<path d="M47.6276 13.8856C55.9709 5.12022 67.0382 0 80.0402 0C105.369 0 122.163 18.4936 125.376 46.1983C126.418 55.1953 126.408 67.8798 126.398 82.5717C126.396 84.0783 126.396 85.6063 126.396 87.1534V142.192H91.5631V101.484C91.5631 101.484 91.4921 66.6433 91.2792 60.1319C90.3444 31.7725 73.5554 13.9528 47.6242 13.9337C39.8006 22.1994 35.6086 32.3057 34.9904 47.7586C34.9054 49.9139 34.9268 57.5535 34.955 67.6223C34.9696 72.8391 34.986 78.7082 34.9904 84.8043C35.0162 111.338 34.9904 142.198 34.9904 142.198H0.157701V79.5484C0.157701 77.4017 0.118551 75.2369 0.0793115 73.0634C0.000311464 68.6913 -0.0793146 64.2856 0.157701 59.9231C0.551252 52.6506 1.80932 45.5014 5.20287 38.86C12.9707 23.6448 28.8869 13.8483 45.8548 13.8483C46.4476 13.8483 47.0408 13.8629 47.6276 13.8856Z" fill="#820AD1"/>
<path d="M263.684 85.6451C263.921 81.2826 263.842 76.8765 263.763 72.5049C263.724 70.3314 263.684 68.1665 263.684 66.0198V3.37036H228.852C228.852 3.37036 228.826 34.2299 228.852 60.7635C228.856 66.8596 228.873 72.7282 228.887 77.945C228.915 88.0142 228.937 95.6538 228.852 97.8092C228.234 113.263 224.042 123.369 216.218 131.635C190.288 131.616 173.499 113.795 172.564 85.4363C172.351 78.9249 172.261 62.7664 172.261 44.0518V3.34375L137.454 3.37555V58.4141C137.454 59.9612 137.452 61.4888 137.452 62.9958C137.441 77.6877 137.432 90.3717 138.474 99.3692C141.68 127.074 158.474 145.568 183.803 145.568C196.805 145.568 207.873 140.447 216.216 131.682C216.802 131.704 217.395 131.718 217.988 131.718C234.955 131.718 250.872 121.922 258.64 106.707C262.033 100.065 263.291 92.916 263.685 85.6435L263.684 85.6451Z" fill="#820AD1"/>
</g>
<defs>
<clipPath id="clip0_316_1685">
<rect width="263.842" height="145.567" fill="white"/>
</clipPath>
</defs>
</svg>
