<svg width="441" height="77" viewBox="0 0 441 77" fill="none" xmlns="http://www.w3.org/2000/svg">
<g clip-path="url(#clip0_316_1697)">
<path fill-rule="evenodd" clip-rule="evenodd" d="M0 70.7798H70.7798V0H0V70.7798Z" fill="#B8232F"/>
<path fill-rule="evenodd" clip-rule="evenodd" d="M361.156 21.1634L367.084 20.1717V60.5751H361.156V21.1634ZM384.409 25.727V51.2053C384.409 55.5721 385.509 57.0819 389.095 57.0819C390.709 57.0819 390.283 57.1003 391.311 56.5428L392.119 60.5135C390.283 61.5406 389.607 61.8384 387.044 61.8384C385.14 61.8384 383.677 61.4461 382.282 60.7312C379.722 59.3827 378.77 56.8432 378.77 52.8712V25.727H374.009V21.0454H378.77V6.06641H384.632V21.0454H393.787L392.03 25.727H384.409ZM431.368 59.3906C429.091 59.3906 427.252 57.4374 427.252 54.7365C427.252 52.033 429.091 50.0824 431.368 50.0824C433.647 50.0824 435.488 52.033 435.488 54.7365C435.488 57.4374 433.647 59.3906 431.368 59.3906ZM431.368 48.9595C428.37 48.9595 425.922 51.5529 425.922 54.7365C425.922 57.9175 428.37 60.5082 431.368 60.5082C434.372 60.5082 436.814 57.9175 436.814 54.7365C436.814 51.5529 434.372 48.9595 431.368 48.9595ZM430.42 54.2407V52.3675H431.443C432.034 52.3675 432.698 52.4934 432.698 53.2621C432.698 54.1423 432.11 54.2407 431.43 54.2407H430.42ZM433.845 53.3618C433.845 51.9844 433.043 51.4401 431.564 51.4401H429.273V57.987H430.42V55.1681H431.112L432.711 57.987H433.888L432.231 55.1222C433.241 55.0212 433.845 54.4794 433.845 53.3618ZM428.912 21.0454L416.388 61.9984C413.898 69.9411 410.966 75.1776 404.597 76.8462L402.911 72.6394C406.477 71.4286 408.347 69.6682 409.904 65.367C409.319 62.2476 408.987 60.8913 408.987 60.8913C408.551 58.3517 406.571 50.6478 405.327 46.6823L397.485 21.919L403.131 19.8503L410.603 45.4886C411.699 49.2245 412.796 55.332 412.796 55.332H412.946C412.946 55.332 414.334 50.2542 415.216 47.0011L422.391 21.0454H428.912ZM252.524 50.4917C252.524 50.4917 251.863 52.1589 250.325 53.3513C247.979 55.1733 246.293 55.8895 243.297 55.8895C239.927 55.8895 237.654 54.5411 235.971 51.2853C234.796 48.9858 234.506 45.57 234.506 40.9657C234.506 35.4104 235.088 32.5547 236.848 29.5377C238.387 26.8394 240.803 25.4109 243.664 25.4109C247.979 25.4109 250.694 26.7633 252.524 29.5377V50.4917ZM258.31 6.06641H252.596V19.2233C252.596 22.0764 252.668 25.3322 252.668 25.3322C250.474 22.1577 246.88 20.3331 242.784 20.3331C240.144 20.3331 238.095 21.0454 235.75 22.7926C230.769 26.5193 228.209 32.7121 228.209 41.1244C228.209 53.7422 233.628 61.1248 243.071 61.1248C247.321 61.1248 250.108 59.7802 252.741 56.5271C252.813 58.5839 253.548 60.5751 253.548 60.5751H259.409C258.598 58.2691 258.31 54.6184 258.31 47.7986V6.06641ZM345.513 21.1254H354.935L353.18 25.807H345.293V51.2853C345.293 55.6534 346.39 57.1646 349.98 57.1646C351.593 57.1646 351.167 57.1829 352.195 56.6228L353.003 60.5948C351.167 61.6232 350.492 61.921 347.926 61.921C346.024 61.921 344.561 61.5275 343.167 60.8139C340.607 59.4641 339.652 56.9232 339.652 52.9525V25.807H334.893V21.1254H339.652V6.14905H345.513V21.1254ZM328.886 25.9658C329.471 27.3956 329.766 28.9802 329.766 30.5713V60.5778H323.977V33.8245C323.977 29.6151 323.683 28.588 322.658 27.2355C321.855 26.2058 320.313 25.5683 318.63 25.5683C315.696 25.5683 311.161 28.1144 308.524 31.1262V60.5778H302.957V30.0965C302.957 24.4585 301.569 21.7603 301.569 21.7603L307.13 20.0917C307.13 20.0917 308.454 23.0235 308.454 26.2845C312.256 22.1577 316.062 20.1717 319.949 20.1717C323.904 20.1717 327.422 22.4765 328.886 25.9658ZM272.324 37.155C272.612 28.9775 275.544 24.8534 280.742 24.8534C283.529 24.8534 286.089 26.2058 287.333 28.3453C288.433 30.2499 288.946 32.8708 289.018 37.155H272.324ZM281.036 20.0104C276.639 20.0104 273.052 21.7603 270.123 25.4883C267.048 29.4642 265.732 33.7445 265.732 40.4134C265.732 53.5126 271.805 61.4461 281.916 61.4461C286.605 61.4461 291.001 59.7015 294.218 56.5271L292.019 52.5524C289.459 55.0959 286.605 56.2831 283.085 56.2831C279.421 56.2831 276.053 54.8572 274.004 51.444C272.757 49.3858 272.324 46.5236 272.324 42.7956V41.8393H295.095V40.9657C294.954 31.525 294.069 27.793 290.927 24.2959C288.433 21.5228 284.99 20.0104 281.036 20.0104ZM214.364 60.5751H220.225V6.12281H214.364V60.5751Z" fill="#263746"/>
<path fill-rule="evenodd" clip-rule="evenodd" d="M208.211 19.2752L212.34 25.9159C210.198 28.0246 208.137 28.885 205.409 28.885C204.449 28.885 203.413 28.7322 202.823 28.6543C204.298 30.5226 205.042 32.5555 205.042 35.2116C205.042 42.0836 199.136 47.0876 191.097 47.0876C190.653 47.0876 190.357 47.0876 189.622 47.0075C187.117 48.2606 185.715 49.1969 185.715 50.2881C185.715 50.835 186.302 51.2276 187.337 51.2276L192.65 51.3056C198.4 51.3825 201.423 52.3188 204.08 54.9001C206.29 57.0858 207.327 59.8199 207.327 63.4155C207.327 66.7741 206.366 69.3501 204.298 71.6917C200.982 75.4444 195.298 76.847 189.399 76.847C184.019 76.847 178.485 75.9117 175.094 72.5511C173.028 70.5225 171.997 68.174 171.997 65.4462C171.997 63.2585 172.51 62.1609 172.881 61.3827H182.027C181.656 62.3211 181.581 62.8638 181.581 63.9561C181.581 67.1618 184.094 68.8764 188.667 68.8764C191.173 68.8764 193.314 68.5698 194.86 67.5507C196.335 66.6144 197.292 65.1322 197.292 63.4903C197.292 59.9 194.271 58.8035 190.357 58.7255L186.155 58.6465C181.731 58.5653 178.857 58.1801 177.084 57.3956C175.311 56.6948 174.208 54.9001 174.208 52.1649C174.208 49.5889 174.942 47.1624 181.141 45.4479C175.681 43.9615 173.028 40.29 173.028 34.3554C173.028 26.153 179.299 20.8423 188.958 20.8423C191.097 20.8423 193.014 21.1542 195.746 21.8545C197.806 22.3993 199.136 22.716 200.391 22.716C203.12 22.716 205.923 21.4661 208.211 19.2752ZM145.508 20.5288C146.396 22.1706 146.912 23.8862 146.912 25.526C148.386 24.43 149.641 23.4926 151.265 22.5574C153.255 21.4661 155.839 20.8423 158.049 20.8423C162.254 20.8423 165.942 23.1817 167.121 26.6225C167.637 28.1052 167.859 29.8224 167.859 32.3226V61.5387H158.12V35.5251C158.12 30.9964 157.385 29.6696 154.802 29.6696C152.815 29.6696 150.235 31.0765 147.948 33.2589V61.5387H138.06V32.5555C138.06 29.1184 137.617 25.8379 136.734 23.1817L145.508 20.5288ZM130.018 20.6014V61.5387H120.137V22.2422L130.018 20.6014ZM94.3874 7.24854C103.09 7.24854 105.746 8.18379 108.627 9.90363C113.415 12.7168 115.994 17.7145 115.994 23.9674C115.994 31.1513 112.752 36.9325 107.149 39.7436C104.788 40.9154 102.573 41.5414 96.8957 41.5414H91.2187V61.5387H80.8921V7.24854H94.3874ZM188.883 28.494C185.123 28.494 182.983 30.685 182.983 34.4323C182.983 38.4953 185.344 40.133 188.81 40.133C192.721 40.133 194.86 38.1038 194.86 34.4323C194.86 30.685 192.65 28.494 188.883 28.494ZM97.7773 16.0727H91.2187V32.635H96.6019C100.805 32.635 102.061 32.0876 103.458 29.8224C104.348 28.3423 104.712 26.7774 104.712 24.1971C104.712 19.1203 102.132 16.0727 97.7773 16.0727ZM125.223 4.04492C128.543 4.04492 131.201 6.93608 131.201 10.5275C131.201 14.1199 128.468 17.0132 125.075 17.0132C121.759 17.0132 119.028 14.1199 119.028 10.5275C119.028 6.93608 121.832 4.04492 125.223 4.04492Z" fill="#263746"/>
</g>
<defs>
<clipPath id="clip0_316_1697">
<rect width="440.121" height="76.8466" fill="white"/>
</clipPath>
</defs>
</svg>
