<svg width="241" height="80" viewBox="0 0 241 80" fill="none" xmlns="http://www.w3.org/2000/svg">
<g clip-path="url(#clip0_316_1734)">
<path d="M16.6319 55.2308V78.5132C16.6319 78.5312 16.4053 78.7583 16.3873 78.7583H0V0.00653541L36.7761 0C40.8281 0.383956 44.8573 1.22376 48.5864 2.87068C69.5345 12.1297 70.1509 42.5014 49.1914 52.1542C38.9367 56.8777 27.5829 54.7717 16.6319 55.2291V55.2308ZM16.6319 40.5261L34.9825 40.5326C45.6172 40.2369 51.1562 28.1366 44.9079 19.6258C43.0995 17.1636 38.7051 14.7096 35.6282 14.7096H16.6319V40.5245V40.5261Z" fill="#0A0812"/>
<path d="M209.367 35.2992C213.838 29.2163 218.457 23.2135 222.737 17H241C240.922 17.4215 240.561 17.8414 240.318 18.196C233.465 28.138 225.814 37.9444 218.661 47.7164C216.404 51.4972 213.807 55.3907 211.061 58.8495C210.55 59.4933 209.983 60.0814 209.367 60.6239C208.796 61.4016 208.09 62.1368 207.509 62.9293L195.914 78.7597H177.57C184.975 68.5481 192.443 58.3741 199.909 48.2066C202.699 43.6465 205.853 39.3266 209.367 35.2992Z" fill="#5C19AD"/>
<path d="M209.367 35.2992C206.21 39.5946 203.064 43.9096 199.909 48.2066L177.57 17H196.73L209.367 35.2992Z" fill="#0A0812"/>
<path d="M218.661 47.7168L241 78.76H221.759L221.542 78.2486L209.367 60.6242C212.471 56.3893 215.535 51.9877 218.661 47.7168Z" fill="#0A0812"/>
<path d="M176.592 53.4354H128.816C129.887 57.8812 132.561 61.7844 136.534 64.0833C142.232 67.382 150.318 67.1565 155.871 63.634C158.343 62.0655 160.068 59.9382 161.693 57.543L174.453 63.317C169.843 71.7526 161.599 77.5887 152.163 79.3631C129.065 83.7059 108.682 65.3446 113.047 41.639C116.802 21.2404 138.609 10.6677 157.511 18.2292C171.428 23.7957 179.173 38.6981 176.59 53.4371L176.592 53.4354ZM160.612 41.3449C156.479 25.2874 133.21 25.307 129.142 41.3449H160.612Z" fill="#0A0812"/>
<path d="M86.5838 78.7592H70.9302V43.5513C71.4357 22.0302 87.9991 13.16 107.84 16.0421C108.626 16.1565 110.48 16.4032 111.126 16.6712C111.282 16.7365 111.462 16.7234 111.514 16.9391L109.71 31.2664L109.5 31.5131C104.233 29.8792 98.0451 29.4773 93.1045 32.2712C88.8552 34.673 86.7974 38.8818 86.5789 43.7049L86.5854 78.7576L86.5838 78.7592Z" fill="#0A0812"/>
</g>
<defs>
<clipPath id="clip0_316_1734">
<rect width="241" height="80" fill="white"/>
</clipPath>
</defs>
</svg>
