<svg width="526" height="84" viewBox="0 0 526 84" fill="none" xmlns="http://www.w3.org/2000/svg">
<path d="M515.428 70.0503C516.912 70.0503 517.591 70.4634 517.591 71.4986C517.591 72.4899 516.912 72.8388 515.472 72.8388H514.132V70.0503H515.428ZM515.713 69.0269H512.543V77.4413H514.132V73.838H515.701L517.406 77.4413H519.187L517.302 73.5931C518.525 73.3485 519.224 72.5258 519.224 71.3343C519.224 69.8053 518.072 69.0269 515.713 69.0269ZM515.508 65.9453C513.514 65.9453 511.708 66.6676 510.34 68.052C508.891 69.5206 508.085 71.4145 508.085 73.3684C508.085 75.3307 508.847 77.1524 510.256 78.5808C511.692 80.0333 513.534 80.8156 515.508 80.8156C517.446 80.8156 519.332 80.0333 520.788 78.6007C522.193 77.2365 522.959 75.4148 522.959 73.3684C522.959 71.3943 522.173 69.5405 520.813 68.1564C519.396 66.7119 517.53 65.9453 515.508 65.9453ZM521.964 73.4288C521.964 75.1419 521.302 76.7389 520.094 77.9186C518.814 79.1586 517.225 79.8247 515.472 79.8247C513.823 79.8247 512.19 79.1384 510.966 77.8987C509.738 76.6548 509.048 75.0578 509.048 73.3684C509.048 71.6832 509.758 70.03 511.026 68.7582C512.218 67.5583 513.799 66.9125 515.528 66.9125C517.302 66.9125 518.899 67.5786 520.134 68.8385C521.33 70.03 521.964 71.6431 521.964 73.4288Z" fill="#006AD6"/>
<path d="M325.224 68.9627C318.948 68.2324 319.346 63.7506 319.346 58.7591C319.346 57.2542 319.346 40.8633 319.346 36.5337H332.611V25.9247H319.346V14.8223H304.347V25.9128H293.73V36.5337H304.347V64.0716C304.347 78.8215 314.651 80.7835 321.356 80.7835C327.323 80.7835 332.735 79.608 332.735 79.608C332.735 79.608 332.695 68.7662 332.695 67.9114C329.778 68.8786 327.804 69.2596 325.224 68.9627Z" fill="#006AD6"/>
<path d="M478.272 24.8418C470.889 24.8418 464.06 26.5071 457.399 29.9097C452.853 26.5553 446.894 24.9182 439.194 24.9182C431.739 24.9182 419.786 26.6554 411.97 28.8784L411.348 29.0549V80.0376H426.563V37.2365C429.56 35.8883 434.018 34.9613 437.646 34.9613C447.215 34.9613 449.177 40.1255 449.177 45.1331V80.0376H464.609V38.6448C467.414 36.6266 472.47 34.9613 475.917 34.9613C484.945 34.9613 487.144 39.941 487.144 45.1331V80.0376H502.247V43.6485C502.247 37.9829 500.132 24.8418 478.272 24.8418Z" fill="#006AD6"/>
<path d="M135.613 25.9238V69.1464C131.023 70.4384 126.678 71.1366 122.705 70.8679C114.435 70.3062 112.116 68.0351 112.116 58.6417V25.9238H96.4555C96.4555 25.9238 96.315 60.2107 96.4555 64.0066C96.5999 67.8062 96.0743 80.7948 122.757 80.7948C135.822 80.7948 151.27 77.8374 151.27 77.8374V25.9238H135.613Z" fill="#006AD6"/>
<path d="M202.634 69.1309C198.714 70.142 193.361 71.2735 186.993 70.5715C181.576 69.9735 176.509 68.7017 176.509 63.377C176.509 59.5131 178.964 56.2951 188.779 56.2951C188.779 56.2951 199.54 56.3031 202.634 56.3031V69.1309ZM191.403 24.9453C186.323 24.9453 175.301 25.6717 167.497 27.5213C167.497 28.9219 167.497 39.3181 167.497 39.3181C167.497 39.3181 176.384 34.6716 192.201 34.6716C197.081 34.6716 202.654 36.4692 202.654 43.7799C202.654 45.7984 202.634 46.1515 202.634 46.1515C202.634 46.1515 184.301 46.3842 182.275 46.3842C170.783 46.3842 162.003 52.8684 162.208 63.3208C162.477 76.8429 175.405 80.5867 187.647 80.5867C207.818 80.5867 217.745 77.8101 217.745 77.8101L217.741 40.7106C217.741 31.3775 209.909 24.9453 191.403 24.9453Z" fill="#006AD6"/>
<path d="M42.2065 68.9349C25.0611 68.9349 20.848 56.0869 20.848 41.2246C20.848 26.2821 25.0611 13.9837 42.2065 13.9837C58.4691 13.9837 63.1798 26.2821 63.1798 41.2246C63.1798 55.9344 59.1954 68.9349 42.2065 68.9349ZM68.404 69.1715C68.404 68.8585 68.408 68.7221 68.412 68.5898C75.3898 64.8101 80.8668 60.7895 80.8668 41.2246C80.8668 16.2387 72.2961 2.35547 42.2065 2.35547C11.8158 2.35547 3.04053 16.7083 3.04053 41.2246C3.04053 67.5745 13.0718 80.3946 42.2065 80.3946C42.8565 80.3946 88.4986 80.3946 88.4986 80.3946V69.1715H68.404Z" fill="#006AD6"/>
<path d="M382.755 25.9883V69.2108C378.169 70.499 373.819 71.1972 369.847 70.9282C361.581 70.3664 359.258 68.0995 359.258 58.7061V25.9883H343.601C343.601 25.9883 343.461 60.271 343.601 64.0668C343.741 67.8668 343.22 80.8593 369.899 80.8593C382.964 80.8593 398.412 77.898 398.412 77.898V25.9883H382.755Z" fill="#006AD6"/>
<path d="M246.771 79.9898V36.7714C251.362 35.4752 255.711 34.777 259.684 35.0499C267.953 35.6116 270.269 37.8789 270.269 47.2719V79.9898H285.925C285.925 79.9898 286.07 45.7032 285.925 41.9074C285.789 38.1116 286.311 25.1191 259.628 25.1191C246.567 25.1191 231.115 28.0762 231.115 28.0762V79.9898H246.771Z" fill="#006AD6"/>
</svg>
