<svg width="462" height="80" viewBox="0 0 462 80" fill="none" xmlns="http://www.w3.org/2000/svg">
<g clip-path="url(#clip0_316_1716)">
<path d="M152.959 48.7429C152.959 52.2849 150.82 54.4037 147.804 54.4037C144.787 54.4037 142.915 52.3812 142.915 48.8285V35.8483H137.685V50.3801C137.685 55.7306 140.669 59.1656 145.814 59.1656C147.252 59.1776 148.669 58.8124 149.923 58.1065C151.176 57.4006 152.223 56.3785 152.959 55.142V58.6947H158.19V35.8483H152.959V48.7429ZM221.031 40.3427L216.539 35.8483H213.576V29.5668H208.345V52.4347C208.345 57.4534 211.062 59.1335 214.913 59.1335C216.561 59.1736 218.19 58.7708 219.63 57.9671V53.6867C218.633 54.1861 217.536 54.4497 216.421 54.4572C214.645 54.4572 213.608 53.6439 213.608 51.6V40.3427H221.031ZM132.978 43.5529C133.02 40.4184 132.132 37.3419 130.426 34.7123C128.72 32.0828 126.273 30.0185 123.395 28.7805C120.516 27.5425 117.335 27.1863 114.254 27.7572C111.173 28.328 108.33 29.8001 106.085 31.9874C103.841 34.1746 102.295 36.9787 101.643 40.045C100.992 43.1112 101.264 46.302 102.425 49.2135C103.586 52.1251 105.584 54.6267 108.167 56.402C110.75 58.1773 113.8 59.1465 116.934 59.187H117.105C120.392 59.1967 123.605 58.2038 126.314 56.3405L128.967 58.7054H136.915L129.962 52.8306C131.961 50.1266 133.041 46.8522 133.042 43.4887L132.978 43.5529ZM125.833 49.3528H118.207L122.378 52.9055C120.821 53.872 119.023 54.3801 117.19 54.3716C111.243 54.3716 106.965 49.4812 106.965 43.5529C106.965 37.6246 111.158 32.852 117.18 32.852C123.202 32.852 127.47 37.7423 127.47 43.6599C127.493 45.6498 126.952 47.6054 125.908 49.2993L125.833 49.3528ZM197.574 45.2437C194.889 44.3769 192.429 43.6813 192.429 42.0334V41.9478C192.429 40.5995 193.595 39.6471 195.638 39.6471C197.519 39.747 199.35 40.2857 200.986 41.2201L204.12 38.0955C201.63 36.4543 198.726 35.5527 195.745 35.4952C191.199 35.4952 187.616 38.1383 187.616 42.4614V42.5471C187.616 46.9237 191.381 48.3041 194.75 49.2565C197.435 50.0805 199.852 50.6797 199.852 52.4668V52.5631C199.852 54.0719 198.558 55.0243 196.312 55.0243C193.875 54.9302 191.518 54.1269 189.53 52.7129L186.492 55.752C189.265 57.9147 192.668 59.1133 196.183 59.1656C200.943 59.1656 204.655 56.79 204.655 51.9853V51.8996C204.655 47.7477 200.922 46.2282 197.595 45.1902L197.574 45.2437ZM173.282 35.4202C166.758 35.4202 162.126 40.7707 162.126 47.3625C162.126 49.7903 162.868 52.1601 164.252 54.1544C165.636 56.1487 167.596 57.6723 169.87 58.5209C172.143 59.3696 174.622 59.5028 176.974 58.9027C179.325 58.3026 181.437 56.9979 183.027 55.1634L180.128 52.2635C179.339 53.1149 178.38 53.7911 177.313 54.2482C176.246 54.7054 175.095 54.9333 173.935 54.9173C172.308 54.9656 170.723 54.3933 169.501 53.3165C168.28 52.2396 167.513 50.7386 167.357 49.1174H184.15C184.15 48.6038 184.225 48.165 184.225 47.6942C184.225 41.081 180.556 35.3667 173.282 35.3667V35.4202ZM167.367 45.4363C167.923 42.0441 170.127 39.7113 173.24 39.7113C176.609 39.7113 178.588 42.2046 179.005 45.4363H167.367ZM239.376 29.6311H229.749V58.5984H239.376C248.489 58.5984 254.789 52.2528 254.789 44.088V44.0024C254.789 35.8269 248.532 29.5776 239.376 29.5776V29.6311ZM252.554 44.2164C252.554 51.1399 247.451 56.6616 239.376 56.6616H231.888V31.5679H239.376C247.451 31.5679 252.554 37.2073 252.554 44.088V44.2164ZM278.631 37.1752C276.029 37.1959 273.466 37.8185 271.144 38.9944L271.893 40.7814C273.929 39.6761 276.208 39.0916 278.525 39.08C282.878 39.08 285.488 41.2201 285.488 45.5005V46.4208C283.209 45.7783 280.849 45.4684 278.482 45.5005C273.005 45.5005 269.24 47.9938 269.24 52.3812V52.4347C269.24 56.8328 273.519 59.0693 277.401 59.0693C278.975 59.1113 280.536 58.7665 281.946 58.065C283.355 57.3636 284.572 56.3268 285.488 55.0457V58.577H287.477V45.4149C287.477 39.936 284.065 37.1217 278.631 37.1217V37.1752ZM285.509 50.6369C285.509 54.4893 281.819 57.1431 277.519 57.1431C274.31 57.1431 271.379 55.356 271.379 52.2956V52.21C271.379 49.2672 273.861 47.2769 278.343 47.2769C280.763 47.2778 283.173 47.598 285.509 48.2292V50.6369ZM331.504 36.9077C329.943 36.8492 328.397 37.2356 327.047 38.0218C325.697 38.808 324.598 39.9617 323.877 41.3486V37.4534H321.845V58.5984H323.877V46.3566C323.845 45.4042 324 44.4547 324.334 43.5625C324.669 42.6702 325.176 41.8528 325.827 41.157C326.478 40.4612 327.259 39.9006 328.127 39.5075C328.995 39.1144 329.931 38.8963 330.884 38.8659H331.215C335.494 38.8659 337.922 41.7338 337.922 46.0891V58.5984H339.954V45.661C339.954 40.5995 336.895 36.9505 331.547 36.9505L331.504 36.9077ZM355.582 36.9077C352.687 36.9133 349.913 38.0684 347.869 40.1191C345.825 42.1697 344.679 44.9482 344.682 47.844V48.058C344.652 49.4769 344.902 50.8877 345.418 52.2098C345.934 53.5319 346.705 54.7393 347.687 55.763C348.67 56.7867 349.844 57.6066 351.144 58.1757C352.443 58.7449 353.842 59.0521 355.261 59.08H355.496C358.379 59.0602 361.138 57.9004 363.17 55.8536C365.202 53.8067 366.342 51.0391 366.342 48.1543V47.9403C366.366 46.5209 366.111 45.1107 365.59 43.7902C365.069 42.4697 364.293 41.2648 363.307 40.2442C362.321 39.2237 361.143 38.4075 359.841 37.8424C358.54 37.2772 357.139 36.9742 355.721 36.9505H355.571L355.582 36.9077ZM364.203 48.058C364.203 53.0339 360.598 57.1431 355.582 57.1431C353.233 57.0842 351.004 56.0956 349.384 54.3943C347.764 52.693 346.884 50.418 346.939 48.0687V47.9403C346.939 42.9644 350.522 38.8659 355.496 38.8659C356.66 38.8854 357.809 39.1343 358.877 39.5984C359.944 40.0625 360.91 40.7326 361.719 41.5704C362.528 42.4083 363.163 43.3974 363.589 44.4812C364.016 45.5651 364.224 46.7223 364.203 47.8868V48.058ZM400.442 39.2726L398.528 37.4534H393.008V30.6904H390.976V53.1624C390.976 57.1859 393.639 58.973 396.913 58.973C398.099 58.9838 399.272 58.7278 400.346 58.2239V56.3084C399.379 56.7908 398.314 57.0469 397.233 57.0575C394.795 57.0575 393.008 55.9874 393.008 52.959V39.3154L400.442 39.2726ZM312.443 41.7338C311.481 40.2715 310.168 39.0729 308.625 38.2469C307.082 37.4209 305.358 36.9937 303.608 37.004C302.287 36.9913 300.977 37.2389 299.753 37.7327C298.528 38.2265 297.412 38.9568 296.47 39.8819C295.527 40.807 294.776 41.9088 294.259 43.1244C293.742 44.34 293.469 45.6456 293.457 46.9665V47.0842C293.477 49.7398 294.549 52.279 296.438 54.1448C298.327 56.0105 300.878 57.0503 303.533 57.0361H303.608C305.372 57.0252 307.105 56.5718 308.648 55.7175C310.192 54.8631 311.497 53.6351 312.443 52.1458V55.2169C312.443 60.6423 308.999 63.4245 304.153 63.4245C301.168 63.4122 298.267 62.4323 295.885 60.6316L294.473 62.0655C297.268 64.1626 300.67 65.2897 304.164 65.2758C310.197 65.2758 314.475 61.7231 314.475 55.2918V37.4534H312.443V41.7338ZM312.571 47.0842C312.571 51.8889 308.218 55.1206 303.822 55.1206C302.768 55.139 301.721 54.9497 300.741 54.5633C299.76 54.1769 298.866 53.601 298.108 52.8687C297.35 52.1363 296.744 51.2618 296.324 50.295C295.904 49.3282 295.678 48.288 295.66 47.2341V46.9558C295.63 45.9285 295.803 44.9053 296.169 43.9448C296.534 42.9842 297.085 42.1052 297.791 41.3578C298.496 40.6105 299.341 40.0096 300.279 39.5893C301.217 39.1691 302.228 38.9378 303.255 38.9087H303.779C308.175 38.9087 312.528 42.119 312.528 46.9558L312.571 47.0842ZM446.491 46.8702C443.474 46.0034 440.607 45.126 440.607 42.7718V42.6862C440.607 40.546 442.511 38.9944 445.41 38.9944C447.583 39.0451 449.699 39.6929 451.529 40.867L452.994 39.4117C450.766 37.9483 448.171 37.1434 445.506 37.0896C441.41 37.0896 438.543 39.5294 438.543 42.9323V43.0179C438.543 46.7953 442.362 47.8226 445.806 48.8178C448.737 49.6525 451.4 50.562 451.4 53.0981V53.1731C451.4 55.6236 449.154 57.1966 446.298 57.1966C443.633 57.1389 441.059 56.2191 438.96 54.5749L437.484 55.9874C439.963 57.9143 442.999 58.9878 446.138 59.0479C450.202 59.0479 453.432 56.6509 453.432 52.8734V52.7771C453.454 49.0211 449.892 47.7691 446.491 46.8167V46.8702ZM378.654 46.8702C375.616 46.0034 372.76 45.126 372.76 42.7718V42.6862C372.76 40.546 374.675 38.9944 377.573 38.9944C379.743 39.0432 381.857 39.6913 383.681 40.867L385.147 39.4117C382.92 37.9467 380.324 37.1417 377.659 37.0896C373.552 37.0896 370.696 39.5294 370.696 42.9323V43.0179C370.696 46.7953 374.504 47.8226 377.937 48.8178C380.889 49.6525 383.542 50.562 383.542 53.0981V53.1731C383.542 55.6236 381.306 57.1966 378.44 57.1966C375.775 57.1389 373.201 56.2191 371.102 54.5749L369.658 56.0195C372.137 57.9464 375.173 59.02 378.311 59.08C382.376 59.08 385.606 56.683 385.606 52.9055V52.8092C385.606 49.0211 382.045 47.7691 378.654 46.8167V46.8702ZM425.247 57.2394C424.079 57.2158 422.927 56.9619 421.857 56.4924C420.787 56.0228 419.82 55.3468 419.011 54.503C418.202 53.6592 417.568 52.6641 417.144 51.5747C416.72 50.4854 416.515 49.3231 416.541 48.1543V47.9403C416.495 46.7789 416.681 45.62 417.088 44.5314C417.496 43.4428 418.116 42.4464 418.913 41.6005C419.709 40.7545 420.667 40.076 421.729 39.6047C422.791 39.1333 423.936 38.8785 425.098 38.8552C428.232 38.8552 430.307 40.4604 432.125 42.3223L433.526 40.8456C432.482 39.6246 431.187 38.6442 429.728 37.9718C428.269 37.2994 426.682 36.951 425.076 36.9505C422.183 37.0012 419.428 38.1938 417.41 40.2684C415.392 42.3431 414.276 45.1315 414.305 48.0259V48.1543C414.27 50.4164 414.945 52.6324 416.234 54.4914C417.523 56.3503 419.361 57.7587 421.491 58.519C423.621 59.2792 425.935 59.353 428.109 58.7301C430.283 58.1071 432.207 56.8187 433.612 55.0457L432.286 53.7188C431.429 54.767 430.357 55.6189 429.143 56.2171C427.929 56.8152 426.6 57.1456 425.247 57.1859V57.2394ZM261.314 58.5984H263.346V37.4534H261.314V58.5984ZM261.068 32.103H263.592V29.5776H261.068V32.103ZM406.379 32.103H408.925V29.5776H406.4L406.379 32.103ZM406.625 58.5984H408.657V37.4534H406.625V58.5984Z" fill="#4B7637"/>
<path d="M66.2218 57.7855L72.1476 63.7138C76.4294 57.8847 79.0533 51.0043 79.7407 43.8033C80.4281 36.6023 79.1534 29.3494 76.0518 22.8149C76.0376 22.7902 76.0174 22.7694 75.9932 22.7544C75.9689 22.7395 75.9412 22.7309 75.9128 22.7293C75.8923 22.7247 75.8711 22.7244 75.8505 22.7284C75.8299 22.7325 75.8104 22.7409 75.7933 22.753C75.7761 22.7651 75.7617 22.7807 75.751 22.7987C75.7402 22.8168 75.7334 22.8369 75.7309 22.8577C75.7253 22.8694 75.7223 22.8822 75.7223 22.8952C75.7223 22.9081 75.7253 22.9209 75.7309 22.9326C78.405 33.6763 74.9929 46.8384 66.2218 57.7855ZM39.9728 80.0006C48.5158 80.0018 56.8344 77.264 63.7081 72.1889L57.7609 66.2606C49.2038 73.0985 39.3524 76.6619 30.3139 76.6619C27.792 76.6703 25.2781 76.3757 22.8264 75.7844H22.7836C22.7411 75.7844 22.7003 75.8013 22.6702 75.8314C22.6401 75.8615 22.6232 75.9024 22.6232 75.9449C22.6219 75.9781 22.6303 76.011 22.6474 76.0395C22.6645 76.068 22.6895 76.0909 22.7194 76.1054C28.1072 78.6778 34.0029 80.0088 39.9728 80.0006Z" fill="url(#paint0_radial_316_1716)"/>
<path d="M60.5742 19.1977C65.0132 23.6279 64.9169 30.0913 64.4997 33.5155C63.6063 39.2345 61.2889 44.6366 57.761 49.2245H40.8286L49.2787 57.6782C43.3422 62.1084 36.5607 64.6445 30.3354 64.6445C27.1264 64.6445 22.5484 63.9382 19.1683 60.546C14.7293 56.1373 14.8255 49.6846 15.2962 46.2282C16.2161 39.187 20.1096 31.7927 25.9926 25.8965C32.8062 19.08 41.6201 15.0137 49.4499 15.0137C50.7441 15.0993 56.4667 15.0779 60.5742 19.1977Z" fill="url(#paint1_radial_316_1716)"/>
<path d="M3.59424 56.5867C3.61057 56.6215 3.63968 56.6488 3.67553 56.6627C3.71137 56.6766 3.7512 56.6763 3.78677 56.6616C3.82329 56.6434 3.85263 56.6135 3.87009 56.5766C3.88755 56.5398 3.89211 56.4981 3.88304 56.4583C1.12336 44.2165 5.94745 29.1068 17.5103 17.5391C26.9338 8.10089 38.7534 3.21058 49.407 3.21058C51.7677 3.1987 54.122 3.45721 56.4239 3.98104C56.469 3.98758 56.515 3.97691 56.5526 3.95114C56.5903 3.92537 56.6168 3.88639 56.6271 3.84193C56.6289 3.80448 56.6198 3.76733 56.6008 3.73501C56.5818 3.7027 56.5537 3.67663 56.5201 3.66001C49.1154 0.304199 40.8641 -0.713908 32.8663 0.741419C24.8684 2.19675 17.5039 6.05636 11.7546 11.8057C6.00535 17.5551 2.14438 24.9211 0.686427 32.9217C-0.771523 40.9224 0.24282 49.1775 3.59424 56.5867Z" fill="url(#paint2_radial_316_1716)"/>
<path d="M458.588 37.6464C457.901 37.659 457.225 37.4674 456.647 37.0958C456.068 36.7242 455.613 36.1894 455.338 35.5589C455.063 34.9284 454.982 34.2306 455.103 33.5536C455.225 32.8767 455.545 32.2511 456.022 31.7558C456.499 31.2606 457.112 30.918 457.784 30.7714C458.455 30.6247 459.155 30.6806 459.795 30.932C460.435 31.1834 460.986 31.619 461.379 32.1836C461.771 32.7483 461.988 33.4167 462 34.1044V34.1686C462.023 35.0637 461.691 35.9314 461.075 36.5814C460.459 37.2313 459.611 37.6105 458.717 37.6357L458.588 37.6464ZM458.588 31.3008C458.021 31.284 457.462 31.436 456.981 31.7374C456.501 32.0389 456.12 32.4762 455.888 32.9941C455.656 33.512 455.583 34.0872 455.677 34.6468C455.772 35.2063 456.031 35.7252 456.421 36.1376C456.81 36.55 457.314 36.8375 457.867 36.9636C458.42 37.0896 458.998 37.0487 459.528 36.8459C460.058 36.6431 460.516 36.2875 460.843 35.8243C461.171 35.361 461.354 34.8109 461.369 34.2435V34.1686C461.414 33.4589 461.177 32.7603 460.711 32.2237C460.244 31.6871 459.586 31.3556 458.877 31.3008C458.781 31.2846 458.684 31.2846 458.588 31.3008ZM459.358 35.9236L458.749 34.586H458.043V35.9236H457.412V32.296H458.738C458.893 32.2782 459.049 32.2922 459.198 32.3371C459.347 32.382 459.486 32.4568 459.605 32.5569C459.724 32.6571 459.821 32.7805 459.891 32.9196C459.961 33.0587 460.002 33.2106 460.011 33.3661C460.017 33.4015 460.017 33.4376 460.011 33.4731C460.028 33.6974 459.975 33.9216 459.858 34.1137C459.741 34.3058 459.566 34.4561 459.358 34.5432L460.032 35.9771L459.358 35.9236ZM458.738 32.8845H458.032V33.9546H458.738C459.112 33.9546 459.358 33.7834 459.358 33.3875C459.345 33.2388 459.273 33.1015 459.159 33.0053C459.045 32.9092 458.897 32.8619 458.749 32.8738L458.738 32.8845Z" fill="#4B7637"/>
</g>
<defs>
<radialGradient id="paint0_radial_316_1716" cx="0" cy="0" r="1" gradientUnits="userSpaceOnUse" gradientTransform="translate(51.4714 53.6442) scale(28.6771 28.6891)">
<stop stop-color="#C6D52F"/>
<stop offset="0.28" stop-color="#A2B931"/>
<stop offset="1" stop-color="#4B7637"/>
</radialGradient>
<radialGradient id="paint1_radial_316_1716" cx="0" cy="0" r="1" gradientUnits="userSpaceOnUse" gradientTransform="translate(46.1019 50.8617) scale(35.4052 35.42)">
<stop stop-color="#C6D52F"/>
<stop offset="0.28" stop-color="#A2B931"/>
<stop offset="1" stop-color="#4B7637"/>
</radialGradient>
<radialGradient id="paint2_radial_316_1716" cx="0" cy="0" r="1" gradientUnits="userSpaceOnUse" gradientTransform="translate(28.3137 28.3363) scale(28.3241 28.336)">
<stop stop-color="#C6D52F"/>
<stop offset="0.28" stop-color="#A2B931"/>
<stop offset="1" stop-color="#4B7637"/>
</radialGradient>
<clipPath id="clip0_316_1716">
<rect width="462" height="80" fill="white"/>
</clipPath>
</defs>
</svg>
