<svg width="404" height="81" viewBox="0 0 404 81" fill="none" xmlns="http://www.w3.org/2000/svg">
<path fill-rule="evenodd" clip-rule="evenodd" d="M91.7387 23.3813C86.359 28.7301 77.6368 28.7301 72.257 23.3813C66.8776 18.0325 66.8776 9.36038 72.257 4.01159C77.6368 -1.3372 86.359 -1.3372 91.7387 4.01159C97.1182 9.36038 97.1182 18.0325 91.7387 23.3813ZM68.7783 46.21C63.3985 51.5589 54.6763 51.5589 49.2969 46.21C43.9171 40.8614 43.9171 32.1892 49.2969 26.8404C54.6763 21.4916 63.3985 21.4916 68.7783 26.8404C74.158 32.1892 74.158 40.8614 68.7783 46.21ZM46.4767 69.038C51.8562 63.6894 51.8562 55.0173 46.4767 49.6684C41.097 44.3198 32.3748 44.3198 26.9952 49.6684C21.6155 55.0173 21.6155 63.6894 26.9952 69.038C32.3748 74.3869 41.097 74.3869 46.4767 69.038ZM23.5161 26.8404C28.8958 32.1892 28.8958 40.8614 23.5161 46.21C18.1365 51.5589 9.41437 51.5589 4.03473 46.21C-1.34491 40.8614 -1.34491 32.1892 4.03473 26.8404C9.41437 21.4916 18.1365 21.4916 23.5161 26.8404ZM318.139 29.2095C316.397 29.2095 314.965 28.7093 313.843 27.7088C312.759 26.6698 312.217 25.4 312.217 23.8992C312.217 22.36 312.759 21.0902 313.843 20.0897C314.965 19.0507 316.397 18.5312 318.139 18.5312C319.842 18.5312 321.235 19.0507 322.319 20.0897C323.441 21.0902 324.002 22.36 324.002 23.8992C324.002 25.4 323.441 26.6698 322.319 27.7088C321.235 28.7093 319.842 29.2095 318.139 29.2095ZM323.073 32.5572V64.7654H313.147V32.5572H323.073ZM143.32 56.8576C144.635 55.8186 145.235 55.3376 145.119 55.4144C148.912 52.2977 151.892 49.7388 154.059 47.7378C156.265 45.7368 158.123 43.6396 159.633 41.4462C161.142 39.2528 161.896 37.1171 161.896 35.039C161.896 33.4615 161.529 32.23 160.793 31.345C160.058 30.4599 158.955 30.0174 157.485 30.0174C156.014 30.0174 154.853 30.5754 154.001 31.6913C153.188 32.7688 152.782 34.308 152.782 36.309H143.203C143.281 33.0382 143.977 30.306 145.293 28.1127C146.648 25.9193 148.409 24.3031 150.576 23.2641C152.782 22.2251 155.22 21.7056 157.891 21.7056C162.496 21.7056 165.96 22.8793 168.282 25.2266C170.643 27.5739 171.824 30.6331 171.824 34.4043C171.824 38.5215 170.411 42.3505 167.586 45.8905C164.761 49.3924 161.161 52.8171 156.788 56.1651H172.462V64.1881H143.32V56.8576ZM127.567 64.7654L119.091 49.4692H116.711V64.7654H106.784V24.2454H123.445C126.657 24.2454 129.386 24.8033 131.631 25.9193C133.914 27.0352 135.617 28.5744 136.739 30.5369C137.862 32.461 138.423 34.6157 138.423 37.0016C138.423 39.6954 137.649 42.1003 136.101 44.2168C134.591 46.3331 132.347 47.834 129.367 48.7189L138.771 64.7654H127.567ZM116.711 42.4852H122.865C124.684 42.4852 126.038 42.0426 126.928 41.1577C127.857 40.2727 128.322 39.022 128.322 37.4059C128.322 35.8665 127.857 34.6546 126.928 33.7693C126.038 32.8843 124.684 32.4418 122.865 32.4418H116.711V42.4852ZM191.051 33.7698C189.31 36.8869 188.439 40.4462 188.439 44.4482C188.439 48.4502 189.31 52.0096 191.051 55.1264C192.793 58.2434 195.212 60.6871 198.308 62.4569C201.443 64.1887 204.984 65.0545 208.932 65.0545C213.77 65.0545 217.911 63.8038 221.355 61.3027C224.8 58.7629 227.102 55.2997 228.264 50.9129H217.35C216.537 52.6059 215.376 53.895 213.866 54.7803C212.396 55.6652 210.712 56.1078 208.816 56.1078C205.758 56.1078 203.281 55.0495 201.385 52.9329C199.488 50.8167 198.54 47.9882 198.54 44.4482C198.54 40.9079 199.488 38.0798 201.385 35.9632C203.281 33.8469 205.758 32.7886 208.816 32.7886C210.712 32.7886 212.396 33.2311 213.866 34.1162C215.376 35.0011 216.537 36.2902 217.35 37.9836H228.264C227.102 33.5967 224.8 30.1334 221.355 27.5937C217.911 25.054 213.77 23.7841 208.932 23.7841C204.984 23.7841 201.443 24.6692 198.308 26.4393C195.212 28.1709 192.793 30.6144 191.051 33.7698ZM232.369 48.6034C232.369 45.2942 232.988 42.3889 234.227 39.8878C235.504 37.3864 237.226 35.4626 239.394 34.1157C241.561 32.7688 243.98 32.0954 246.65 32.0954C248.934 32.0954 250.927 32.5572 252.63 33.4806C254.372 34.4043 255.707 35.6163 256.636 37.1172V32.5572H266.563V64.7654H256.636V60.2055C255.668 61.7061 254.314 62.9184 252.572 63.8417C250.869 64.7654 248.876 65.2271 246.592 65.2271C243.961 65.2271 241.561 64.5536 239.394 63.207C237.226 61.8217 235.504 59.8781 234.227 57.3771C232.988 54.8372 232.369 51.9129 232.369 48.6034ZM256.635 48.6616C256.635 46.1989 255.939 44.2557 254.546 42.832C253.191 41.4082 251.527 40.6963 249.553 40.6963C247.579 40.6963 245.896 41.4082 244.502 42.832C243.148 44.2173 242.47 46.1411 242.47 48.6038C242.47 51.0668 243.148 53.029 244.502 54.4915C245.896 55.9153 247.579 56.6272 249.553 56.6272C251.527 56.6272 253.191 55.9153 254.546 54.4915C255.939 53.0678 256.635 51.1243 256.635 48.6616ZM287.678 33.4806C285.975 34.4043 284.64 35.6163 283.672 37.1172V32.5572H273.745V80.119H283.672V60.263C284.64 61.7255 285.975 62.9184 287.678 63.8417C289.419 64.7654 291.412 65.2271 293.657 65.2271C296.328 65.2271 298.747 64.5536 300.914 63.207C303.081 61.8217 304.784 59.8781 306.023 57.3771C307.3 54.8372 307.938 51.9129 307.938 48.6034C307.938 45.2942 307.3 42.3889 306.023 39.8878C304.784 37.3864 303.081 35.4626 300.914 34.1157C298.747 32.7688 296.328 32.0954 293.657 32.0954C291.374 32.0954 289.381 32.5572 287.678 33.4806ZM295.747 42.832C297.141 44.2173 297.837 46.1411 297.837 48.6038C297.837 51.0668 297.141 53.029 295.747 54.4915C294.354 55.9153 292.67 56.6272 290.696 56.6272C288.722 56.6272 287.039 55.9153 285.646 54.4915C284.291 53.0678 283.614 51.1243 283.614 48.6616C283.614 46.1989 284.291 44.2557 285.646 42.832C287.039 41.4082 288.722 40.6963 290.696 40.6963C292.709 40.6963 294.392 41.4082 295.747 42.832ZM348.321 64.7655V56.396H344.78C343.698 56.396 342.922 56.1842 342.458 55.761C341.995 55.3377 341.763 54.6449 341.763 53.6831V40.7535H348.264V32.5573H341.763V24.7072H331.835V32.5573H327.887V40.7535H331.835V53.5676C331.835 57.5311 332.841 60.398 334.854 62.1679C336.868 63.8996 339.673 64.7655 343.271 64.7655H348.321ZM351.879 48.6034C351.879 45.2942 352.497 42.3889 353.737 39.8878C355.014 37.3864 356.734 35.4626 358.901 34.1157C361.068 32.7688 363.487 32.0954 366.158 32.0954C368.443 32.0954 370.435 32.5572 372.139 33.4806C373.879 34.4043 375.217 35.6163 376.144 37.1172V32.5572H386.072V64.7654H376.144V60.2055C375.176 61.7061 373.822 62.9184 372.082 63.8417C370.378 64.7654 368.386 65.2271 366.101 65.2271C363.471 65.2271 361.068 64.5536 358.901 63.207C356.734 61.8217 355.014 59.8781 353.737 57.3771C352.497 54.8372 351.879 51.9129 351.879 48.6034ZM376.144 48.6616C376.144 46.1989 375.448 44.2557 374.054 42.832C372.7 41.4082 371.037 40.6963 369.061 40.6963C367.089 40.6963 365.406 41.4082 364.011 42.832C362.657 44.2173 361.979 46.1411 361.979 48.6038C361.979 51.0668 362.657 53.029 364.011 54.4915C365.406 55.9153 367.089 56.6272 369.061 56.6272C371.037 56.6272 372.7 55.9153 374.054 54.4915C375.448 53.0678 376.144 51.1243 376.144 48.6616ZM403.18 64.7654V22.052H393.252V64.7654H403.18Z" fill="#0C101B"/>
</svg>
