<svg width="94" height="21" viewBox="0 0 94 21" fill="none" xmlns="http://www.w3.org/2000/svg">
<g clip-path="url(#clip0_3303_26562)">
<path d="M27.0219 10.3857C25.9948 10.095 25.4677 9.59239 25.4677 8.89428C25.4677 8.02948 26.2586 7.41911 27.344 7.41911C28.4663 7.41911 29.177 8.01569 29.219 8.97324H31.9575C31.913 6.5518 30.0813 4.92685 27.3766 4.92685C24.6719 4.92685 22.7079 6.62449 22.7079 8.9676C22.7079 10.8244 23.8885 12.126 26.211 12.8492L27.8892 13.3167C29.1325 13.6732 29.647 14.1589 29.6181 14.9755C29.5993 15.9161 28.7759 16.5296 27.5044 16.5296C26.1207 16.5296 25.4289 15.708 25.3524 14.8658H22.5769C22.6271 17.2866 24.6349 18.9504 27.4988 18.9504C29.8149 18.9504 32.3404 17.7071 32.3805 14.9899C32.4375 13.0127 31.1861 11.6334 28.6512 10.9071L27.0219 10.3857ZM37.7767 9.34987C36.5297 9.38179 35.3445 9.89959 34.4738 10.7929C33.6031 11.6861 33.1158 12.8842 33.1158 14.1316C33.1158 15.3791 33.6031 16.5771 34.4738 17.4704C35.3445 18.3637 36.5297 18.8815 37.7767 18.9134C38.5444 18.9134 39.8823 18.5406 40.4256 17.7115L40.5986 17.4483V18.7267H43.1823V9.54852H40.6067V10.7918L40.4338 10.5474C39.6166 9.38371 37.961 9.34924 37.7767 9.34924V9.34987ZM38.0525 16.4531C37.7386 16.4686 37.4249 16.4202 37.1304 16.3108C36.8359 16.2013 36.5666 16.0332 36.3391 15.8166C36.1115 15.6 35.9303 15.3393 35.8065 15.0506C35.6827 14.7618 35.6188 14.4509 35.6188 14.1367C35.6188 13.8225 35.6827 13.5115 35.8065 13.2228C35.9303 12.934 36.1115 12.6734 36.3391 12.4567C36.5666 12.2401 36.8359 12.072 37.1304 11.9626C37.4249 11.8531 37.7386 11.8047 38.0525 11.8202C38.4375 11.8136 38.8181 11.9032 39.1598 12.0807C39.5015 12.2583 39.7935 12.5183 40.0094 12.8372C40.2253 13.156 40.3583 13.5237 40.3963 13.9069C40.4343 14.2902 40.3761 14.6768 40.227 15.0319C40.0481 15.4589 39.7453 15.8226 39.3577 16.0759C38.9701 16.3293 38.5154 16.4607 38.0525 16.4531ZM47.297 9.55103H44.7152V18.7361H47.297V9.5504V9.55103ZM51.4487 5.10733H48.8543V18.7298H51.4487V5.10733ZM58.5056 5.09355H52.9226V18.7323H55.6906V13.9596H58.5112C61.7975 13.9596 62.9719 11.5783 62.9719 9.53536C62.9656 6.46845 60.7259 5.09355 58.5056 5.09355ZM58.364 11.5752H55.685V7.49243H58.4536C59.6643 7.49243 60.212 8.68372 60.212 9.52909C60.2266 9.78444 60.1906 10.0402 60.1059 10.2815C60.0212 10.5228 59.8895 10.745 59.7185 10.9352C59.5476 11.1254 59.3406 11.2799 59.1096 11.3897C58.8786 11.4996 58.6282 11.5626 58.3727 11.5752H58.364ZM67.5421 9.34987C66.5977 9.35004 65.6746 9.63025 64.8894 10.1551C64.1042 10.6799 63.4923 11.4258 63.131 12.2983C62.8607 12.9508 62.7386 13.6552 62.7734 14.3606C62.8082 15.066 62.9991 15.7549 63.3324 16.3776C63.6656 17.0003 64.1329 17.5413 64.7006 17.9615C65.2682 18.3818 65.922 18.6709 66.6148 18.8079C67.3077 18.9449 68.0223 18.9265 68.7072 18.7539C69.3921 18.5813 70.0301 18.2589 70.5753 17.81C71.1205 17.361 71.5593 16.7966 71.86 16.1576C72.1607 15.5185 72.3158 14.8207 72.3142 14.1144C72.348 13.1616 72.0851 12.2218 71.5619 11.4248C71.0387 10.6278 70.281 10.013 69.3933 9.66508C68.8044 9.43417 68.1742 9.32645 67.5421 9.34987ZM67.5421 16.3535C67.2125 16.3553 66.8866 16.284 66.5878 16.1449C66.2889 16.0057 66.0247 15.8021 65.8139 15.5487C65.6031 15.2952 65.4511 14.9983 65.3687 14.6791C65.2864 14.3599 65.2757 14.0265 65.3375 13.7027C65.4204 13.2695 65.6299 12.8706 65.9396 12.5566C66.2493 12.2426 66.6452 12.0275 67.0771 11.9386C67.4001 11.8718 67.7338 11.8774 68.0543 11.9551C68.3747 12.0328 68.674 12.1806 68.9305 12.3878C69.187 12.5951 69.3943 12.8567 69.5375 13.1537C69.6807 13.4508 69.7562 13.7759 69.7587 14.1056C69.7832 14.677 69.5802 15.2348 69.194 15.6566C68.807 16.0773 68.2692 16.3279 67.6982 16.3535H67.5421ZM75.8806 9.55103H73.2968V18.7361H75.8806V9.5504V9.55103ZM80.1394 10.8645L79.9664 11.1935V9.54852H77.3551V18.7292H79.9495V13.8663C79.9495 12.5609 80.5824 11.8672 81.7675 11.8672C82.8347 11.8672 83.4839 12.6173 83.4839 13.8211V18.7254H86.0858V13.222C86.0977 10.7229 84.9133 9.33984 82.762 9.33984C82.2291 9.33894 81.7054 9.47905 81.2441 9.74595C80.7829 10.0128 80.4004 10.397 80.1356 10.8595L80.1394 10.8645ZM46.0074 8.23691C46.3261 8.23765 46.6379 8.14388 46.9033 7.96744C47.1688 7.79101 47.3759 7.53984 47.4986 7.24569C47.6214 6.95153 47.6541 6.62759 47.5927 6.31483C47.5314 6.00206 47.3787 5.71451 47.1539 5.48852C46.9292 5.26254 46.6424 5.10826 46.33 5.0452C46.0176 4.98214 45.6935 5.01312 45.3987 5.13424C45.1038 5.25535 44.8515 5.46115 44.6737 5.72563C44.4958 5.9901 44.4003 6.30138 44.3993 6.62011V6.62637C44.3987 6.83756 44.4407 7.04687 44.5234 7.24176C44.6453 7.53587 44.8517 7.78728 45.1163 7.96428C45.381 8.14127 45.6921 8.23592 46.0105 8.23628H46.0074V8.23691ZM74.5815 8.23691C74.8199 8.23772 75.0555 8.18558 75.2713 8.08426C75.4872 7.98295 75.6778 7.83498 75.8295 7.65103C75.9812 7.46709 76.0901 7.25177 76.1485 7.0206C76.2068 6.78943 76.2131 6.54819 76.1669 6.31429C76.1212 6.08034 76.0241 5.85945 75.8827 5.66757C75.7413 5.47569 75.559 5.31761 75.349 5.20471C75.1391 5.09182 74.9067 5.02695 74.6686 5.01477C74.4305 5.00259 74.1927 5.04341 73.9724 5.13428C73.6774 5.25529 73.425 5.46115 73.2471 5.72579C73.0693 5.99042 72.974 6.3019 72.9735 6.62073V6.62637C72.9735 7.05308 73.1428 7.46235 73.4443 7.76431C73.7458 8.06627 74.1548 8.23624 74.5815 8.23691ZM92.8244 9.54163H91.0164V5.96023H88.4214V9.54163H86.6918V11.7274H88.4214V18.7292H91.0152V11.7281H92.8231L92.8244 9.54163ZM11.9217 0L14.4121 14.862H0L11.9217 0Z" fill="#0033A1"/>
<path d="M11.8926 0L20.7198 14.862H14.3823L11.8926 0Z" fill="#CC27B0"/>
<path d="M0 14.873H14.4127L15.3132 20.2448L0 14.873Z" fill="#0071CE"/>
<path d="M14.3789 14.873H20.7158L15.2801 20.2448L14.3789 14.873Z" fill="#E17FD2"/>
<path d="M93.5132 16.9761C93.6636 17.0639 93.7864 17.1904 93.8697 17.3427C93.9575 17.5032 94.0019 17.6836 93.9994 17.8666C94.0019 18.0484 93.9575 18.2282 93.8697 18.388C93.7858 18.539 93.6629 18.665 93.5132 18.7515C93.3565 18.8417 93.1779 18.8875 92.9974 18.8843C92.8157 18.8872 92.6365 18.8413 92.4785 18.7515C92.3281 18.6653 92.2041 18.5396 92.1201 18.388C92.0324 18.2284 91.9877 18.0487 91.9903 17.8666C91.9878 17.6836 92.0323 17.5032 92.1201 17.3427C92.2034 17.1898 92.3275 17.0632 92.4785 16.9768C92.6364 16.8865 92.8157 16.8414 92.9974 16.8439C93.1779 16.8408 93.3565 16.8859 93.5132 16.9761ZM93.5896 18.477C93.7362 18.3074 93.8169 18.0908 93.8169 17.8666C93.8169 17.6425 93.7362 17.4258 93.5896 17.2562C93.4297 17.1025 93.2164 17.0166 92.9946 17.0166C92.7727 17.0166 92.5595 17.1025 92.3996 17.2562C92.2535 17.4261 92.1732 17.6426 92.1732 17.8666C92.1732 18.0906 92.2535 18.3072 92.3996 18.477C92.5595 18.6299 92.7723 18.7152 92.9936 18.7152C93.2149 18.7152 93.4277 18.6299 93.5877 18.477H93.5896ZM93.369 17.8553C93.3173 17.9135 93.2472 17.952 93.1704 17.9644L93.4762 18.3999L93.2167 18.4049L92.9341 17.9694H92.8176V18.4049H92.5988V17.3083H93.072C93.1688 17.3033 93.2639 17.335 93.3383 17.3972C93.3717 17.4277 93.398 17.4652 93.4152 17.5071C93.4324 17.5489 93.4402 17.594 93.4379 17.6391C93.4417 17.7155 93.4174 17.7906 93.3696 17.8503L93.369 17.8553ZM92.8201 17.7927H93.0588C93.1005 17.7945 93.1416 17.7821 93.1754 17.7576C93.191 17.7447 93.2033 17.7284 93.2114 17.7099C93.2194 17.6914 93.223 17.6712 93.2217 17.651C93.2232 17.631 93.2197 17.611 93.2116 17.5926C93.2036 17.5743 93.1911 17.5582 93.1754 17.5458C93.141 17.5228 93.1001 17.5114 93.0588 17.5132H92.8201V17.7927Z" fill="#0033A1"/>
</g>
<defs>
<clipPath id="clip0_3303_26562">
<rect width="94" height="20.68" fill="white"/>
</clipPath>
</defs>
</svg>
