<svg width="54" height="38" viewBox="0 0 54 38" fill="none" xmlns="http://www.w3.org/2000/svg">
<g clip-path="url(#clip0_3303_26513)">
<mask id="mask0_3303_26513" style="mask-type:luminance" maskUnits="userSpaceOnUse" x="0" y="0" width="54" height="38">
<path d="M0.0117188 0.0996094H53.8139V37.682H0.0117188V0.0996094Z" fill="white"/>
</mask>
<g mask="url(#mask0_3303_26513)">
<path fill-rule="evenodd" clip-rule="evenodd" d="M22.3522 4.21337C24.0889 2.40546 26.5061 1.2859 29.1764 1.2859C32.7369 1.2859 35.8226 3.26392 37.4841 6.21118C38.959 5.55185 40.5565 5.21146 42.172 5.21228C48.5808 5.21228 53.783 10.454 53.783 16.9222C53.783 23.3903 48.5808 28.6321 42.172 28.6321C41.3887 28.6321 40.6252 28.5533 39.8775 28.4046C38.4237 30.9958 35.6446 32.7562 32.4797 32.7562C31.1912 32.7588 29.9192 32.4665 28.761 31.9017C27.2874 35.3633 23.8555 37.7962 19.8599 37.7962C15.6863 37.7962 12.1457 35.1655 10.7808 31.4666C10.1734 31.5948 9.55418 31.6592 8.93334 31.6588C3.96851 31.6588 -0.046875 27.5841 -0.046875 22.5797C-0.046875 19.2171 1.76104 16.2896 4.44323 14.7072C3.87421 13.3963 3.58131 11.9823 3.5828 10.5533C3.5828 4.77751 8.27071 0.109375 14.0465 0.109375C17.4289 0.109375 20.4553 1.72146 22.3542 4.22366" fill="#00A1E0"/>
</g>
<path fill-rule="evenodd" clip-rule="evenodd" d="M7.79348 19.6421C7.75966 19.7303 7.80555 19.7487 7.81643 19.7643C7.9175 19.8375 8.02016 19.8905 8.12302 19.9501C8.67291 20.2408 9.19115 20.3259 9.73313 20.3259C10.8369 20.3259 11.5232 19.7384 11.5232 18.7929V18.7743C11.5232 17.9 10.7479 17.5816 10.0239 17.3541L9.92915 17.3234C9.38124 17.1458 8.90849 16.9911 8.90849 16.6311V16.6127C8.90849 16.3042 9.18542 16.0767 9.61267 16.0767C10.0874 16.0767 10.6531 16.2347 11.0151 16.4347C11.0151 16.4347 11.1223 16.5039 11.1613 16.4005C11.1824 16.3445 11.367 15.8506 11.3868 15.7952C11.4077 15.7373 11.3709 15.6935 11.3332 15.671C10.9178 15.4178 10.3441 15.2457 9.75074 15.2457L9.64056 15.2461C8.62979 15.2461 7.92364 15.8573 7.92364 16.7316V16.7504C7.92364 17.6722 8.70298 17.9728 9.43089 18.1805L9.54799 18.2169C10.0781 18.3799 10.537 18.5215 10.537 18.8934V18.912C10.537 19.2542 10.2383 19.5093 9.75964 19.5093C9.57351 19.5093 8.9803 19.5062 8.33744 19.0999C8.2597 19.0546 8.2154 19.022 8.15546 18.9854C8.12381 18.9662 8.04469 18.9316 8.01027 19.0352L7.79269 19.6405M23.9531 19.6405C23.9193 19.7287 23.9652 19.7471 23.9765 19.7627C24.0772 19.8359 24.1802 19.8889 24.2831 19.9485C24.833 20.2392 25.3512 20.3243 25.8932 20.3243C26.9969 20.3243 27.6833 19.7368 27.6833 18.7913V18.7727C27.6833 17.8984 26.9099 17.58 26.1839 17.3525L26.0892 17.3219C25.5413 17.1442 25.0685 16.9895 25.0685 16.6295V16.6112C25.0685 16.3026 25.3455 16.0751 25.7727 16.0751C26.2474 16.0751 26.8112 16.2332 27.1751 16.4331C27.1751 16.4331 27.2823 16.5024 27.3215 16.3989C27.3425 16.3429 27.5272 15.849 27.545 15.7936C27.5662 15.7357 27.5292 15.692 27.4916 15.6694C27.0762 15.4162 26.5026 15.2441 25.9092 15.2441L25.7988 15.2445C24.7881 15.2445 24.0819 15.8557 24.0819 16.73V16.7488C24.0819 17.6706 24.8612 17.9712 25.5892 18.1789L25.7061 18.2153C26.2381 18.3783 26.6951 18.5199 26.6951 18.8918V18.9104C26.6951 19.2526 26.3964 19.5078 25.9177 19.5078C25.7312 19.5078 25.1364 19.5046 24.4955 19.0983C24.4178 19.053 24.3723 19.0218 24.3133 18.9838C24.2933 18.9711 24.2002 18.9347 24.1683 19.0336L23.9508 19.6389M34.9881 17.7875C34.9881 18.3215 34.8884 18.7429 34.6934 19.0415C34.4988 19.3363 34.2048 19.4807 33.7954 19.4807C33.3859 19.4807 33.0932 19.3375 32.9013 19.0435C32.7081 18.7468 32.6105 18.3235 32.6105 17.7895C32.6105 17.2554 32.7086 16.8361 32.9013 16.5413C33.0928 16.2486 33.3839 16.1081 33.7954 16.1081C34.2068 16.1081 34.4995 16.25 34.6934 16.5413C34.8896 16.8361 34.9881 17.2554 34.9881 17.7895M35.9099 16.7985C35.8191 16.4919 35.6784 16.2229 35.4905 15.9974C35.3024 15.7719 35.0653 15.5899 34.7824 15.4593C34.5015 15.3278 34.1692 15.2615 33.7934 15.2615C33.4176 15.2615 33.0872 15.3282 32.8044 15.4593C32.5235 15.5907 32.2842 15.7719 32.0963 15.9974C31.9087 16.2229 31.7679 16.4919 31.6769 16.7985C31.5869 17.1031 31.5412 17.4354 31.5412 17.7895C31.5412 18.1435 31.5869 18.4758 31.6769 18.7804C31.7673 19.087 31.9083 19.3561 32.0963 19.5815C32.2844 19.807 32.5235 19.987 32.8044 20.1156C33.0872 20.2438 33.4195 20.3091 33.7934 20.3091C34.1672 20.3091 34.4995 20.2438 34.7804 20.1156C35.0613 19.9874 35.3006 19.807 35.4886 19.5815C35.6763 19.3561 35.8169 19.087 35.9079 18.7804C35.9977 18.4758 36.0434 18.1435 36.0434 17.7895C36.0434 17.4374 35.9977 17.1031 35.9079 16.7985M43.4837 19.3303C43.4535 19.2407 43.366 19.2746 43.366 19.2746C43.2321 19.3258 43.0891 19.3733 42.9368 19.397C42.7833 19.4211 42.6124 19.4332 42.4324 19.4332C41.9873 19.4332 41.6313 19.3005 41.3781 19.0376C41.123 18.7745 40.9805 18.3512 40.9825 17.7776C40.9839 17.2554 41.1101 16.8637 41.3366 16.5631C41.5601 16.2664 41.9043 16.1121 42.3592 16.1121C42.739 16.1121 43.0298 16.1562 43.3344 16.2515C43.3344 16.2515 43.4066 16.283 43.4412 16.1879C43.5221 15.9643 43.5818 15.8041 43.6687 15.5588C43.6932 15.4886 43.6331 15.459 43.6111 15.4504C43.4916 15.4038 43.2096 15.3272 42.9959 15.295C42.7962 15.2645 42.5647 15.2487 42.3036 15.2487C41.9159 15.2487 41.5718 15.315 41.277 15.4463C40.9823 15.5774 40.7331 15.7588 40.5353 15.9843C40.3375 16.2098 40.1872 16.4788 40.0863 16.7854C39.9864 17.09 39.9359 17.4243 39.9359 17.7784C39.9359 18.5419 40.1417 19.161 40.5491 19.614C40.9566 20.0689 41.5698 20.2984 42.3689 20.2984C42.8417 20.2984 43.3263 20.2028 43.6744 20.065C43.6744 20.065 43.7409 20.0329 43.712 19.9554L43.4845 19.3303M45.0966 17.2732C45.1407 16.9765 45.222 16.7292 45.3498 16.5374C45.5411 16.2446 45.8324 16.0844 46.2419 16.0844C46.6513 16.0844 46.9223 16.2454 47.1162 16.5374C47.2447 16.7302 47.3009 16.9864 47.3219 17.2732L45.0867 17.2728L45.0966 17.2732ZM48.2021 16.6204C48.1236 16.3257 47.9291 16.027 47.8025 15.8906C47.6008 15.675 47.405 15.5226 47.2091 15.4396C46.9264 15.3194 46.6223 15.2577 46.3151 15.2582C45.9254 15.2582 45.5713 15.3241 45.2845 15.458C44.9977 15.5929 44.7564 15.7764 44.5665 16.0059C44.3768 16.2353 44.2342 16.5063 44.1432 16.8169C44.0522 17.1235 44.0063 17.4597 44.0063 17.8118C44.0063 18.1718 44.054 18.5061 44.1477 18.8087C44.2425 19.1133 44.395 19.3804 44.6007 19.6019C44.8064 19.8254 45.0695 19.9995 45.386 20.1221C45.7005 20.2438 46.0823 20.3069 46.5194 20.3055C47.4214 20.3025 47.8961 20.1018 48.0899 19.993C48.1246 19.9736 48.1572 19.9402 48.1164 19.8438L47.9127 19.2722C47.8815 19.1869 47.7952 19.2178 47.7952 19.2178C47.5717 19.3013 47.2552 19.4512 46.5135 19.4492C46.0288 19.4484 45.6708 19.3054 45.4453 19.0813C45.2159 18.8519 45.1012 18.5176 45.0834 18.0428L48.2086 18.0452C48.2086 18.0452 48.2909 18.0444 48.2994 17.9641C48.3028 17.9309 48.4064 17.3232 48.2063 16.621L48.2021 16.6204ZM20.1142 17.2732C20.1583 16.9765 20.2398 16.7292 20.3674 16.5374C20.5588 16.2446 20.85 16.0844 21.2595 16.0844C21.6689 16.0844 21.9399 16.2454 22.1337 16.5374C22.2621 16.7302 22.3183 16.9864 22.3395 17.2732L20.1043 17.2728L20.1142 17.2732ZM23.2197 16.6204C23.1413 16.3257 22.9467 16.027 22.8201 15.8906C22.6184 15.675 22.4225 15.5226 22.2267 15.4396C21.944 15.3194 21.6399 15.2577 21.3326 15.2582C20.943 15.2582 20.5889 15.3241 20.3021 15.458C20.0153 15.5929 19.774 15.7764 19.5841 16.0059C19.3948 16.2353 19.2518 16.5063 19.1608 16.8169C19.07 17.1235 19.0243 17.4597 19.0243 17.8118C19.0243 18.1718 19.0716 18.5061 19.1659 18.8087C19.2605 19.1133 19.4132 19.3804 19.6169 19.6019C19.8226 19.8254 20.0857 19.9995 20.4022 20.1221C20.7167 20.2438 21.0965 20.3069 21.5356 20.3055C22.4376 20.3025 22.9123 20.1018 23.1061 19.993C23.1406 19.9736 23.1734 19.9402 23.1324 19.8438L22.9287 19.2722C22.8973 19.1869 22.811 19.2178 22.811 19.2178C22.5875 19.3013 22.271 19.4512 21.5293 19.4492C21.0466 19.4484 20.6866 19.3054 20.4611 19.0813C20.2317 18.8519 20.117 18.5176 20.0992 18.0428L23.2244 18.0452C23.2244 18.0452 23.3067 18.0444 23.3152 17.9641C23.3186 17.9309 23.4222 17.3232 23.2219 16.621L23.2197 16.6204ZM13.3691 19.3106C13.2467 19.2128 13.2297 19.1889 13.1891 19.1254C13.1272 19.0299 13.0956 18.894 13.0956 18.7199C13.0956 18.447 13.1866 18.2492 13.3745 18.1166C13.3725 18.117 13.6435 17.8832 14.2804 17.8911C14.5639 17.8962 14.8467 17.9203 15.127 17.9633V19.3816H15.1274C15.1274 19.3816 14.7318 19.4668 14.2848 19.4937C13.6498 19.5319 13.3689 19.311 13.3709 19.3115L13.3691 19.3106ZM14.6113 17.115C14.4847 17.1057 14.3206 17.1011 14.1247 17.1011C13.8577 17.1011 13.5986 17.1343 13.3573 17.1996C13.114 17.2653 12.8944 17.367 12.7065 17.5023C12.5181 17.6367 12.3631 17.8126 12.2535 18.0165C12.143 18.2223 12.0866 18.4636 12.0866 18.7365C12.0866 19.0135 12.1346 19.2528 12.2296 19.4486C12.3226 19.6429 12.4627 19.8108 12.6371 19.9372C12.8105 20.0634 13.0248 20.1568 13.272 20.2121C13.5173 20.2681 13.7942 20.2964 14.0988 20.2964C14.4193 20.2964 14.7377 20.2695 15.0463 20.2175C15.3091 20.1722 15.5709 20.1212 15.8316 20.0648C15.9356 20.0408 16.0511 20.0094 16.0511 20.0094C16.1283 19.9898 16.1223 19.9073 16.1223 19.9073L16.1206 17.059C16.1206 16.4339 15.9536 15.9691 15.6241 15.6823C15.2957 15.3955 14.8151 15.2511 14.192 15.2511C13.9586 15.2511 13.5808 15.2827 13.3553 15.328C13.3553 15.328 12.6748 15.4601 12.394 15.6801C12.394 15.6801 12.3323 15.7181 12.3659 15.8041L12.5874 16.3975C12.6149 16.4745 12.6899 16.4482 12.6899 16.4482C12.6899 16.4482 12.7134 16.4389 12.7411 16.4224C13.3405 16.0961 14.1 16.106 14.1 16.106C14.4363 16.106 14.6974 16.1742 14.8714 16.3077C15.0417 16.4385 15.1286 16.6361 15.1286 17.0515V17.1834C14.8615 17.1446 14.6143 17.1223 14.6143 17.1223L14.6113 17.115ZM39.7322 15.5068C39.7367 15.4964 39.7391 15.4852 39.7391 15.4738C39.7392 15.4624 39.737 15.4512 39.7326 15.4407C39.7282 15.4302 39.7218 15.4207 39.7137 15.4128C39.7055 15.4048 39.6959 15.3986 39.6853 15.3945C39.6321 15.3743 39.3669 15.3183 39.1631 15.3057C38.7715 15.2811 38.5539 15.3472 38.3581 15.435C38.1646 15.5222 37.9506 15.6625 37.8319 15.8247L37.8315 15.4449C37.8315 15.3927 37.7945 15.3506 37.7419 15.3506H36.9428C36.891 15.3506 36.8534 15.3927 36.8534 15.4449V20.0933C36.8534 20.1184 36.8634 20.1424 36.8812 20.1602C36.899 20.178 36.923 20.188 36.9481 20.188H37.767C37.7921 20.188 37.8162 20.178 37.8339 20.1602C37.8516 20.1424 37.8616 20.1184 37.8616 20.0933V17.7592C37.8616 17.4467 37.896 17.1361 37.9646 16.9403C38.0323 16.7466 38.1243 16.5922 38.2376 16.4814C38.3457 16.3744 38.478 16.295 38.6233 16.25C38.7597 16.2108 38.9008 16.191 39.0427 16.191C39.2059 16.191 39.3849 16.233 39.3849 16.233C39.445 16.2397 39.4784 16.2029 39.4988 16.1487C39.5524 16.0061 39.7045 15.579 39.7342 15.494" fill="#FFFFFE"/>
<path fill-rule="evenodd" clip-rule="evenodd" d="M32.083 13.362C31.9818 13.3314 31.8788 13.307 31.7747 13.2888C31.6346 13.2654 31.4926 13.2545 31.3506 13.256C30.7863 13.256 30.3414 13.4154 30.0291 13.7303C29.7189 14.0429 29.5079 14.519 29.402 15.1454L29.3639 15.3569H28.6555C28.6555 15.3569 28.5691 15.3533 28.5509 15.4477L28.4346 16.0964C28.4265 16.1586 28.4532 16.1973 28.5363 16.1969H29.2258L28.5262 20.1021C28.4714 20.4166 28.4087 20.6754 28.3392 20.8714C28.2708 21.0648 28.2039 21.2098 28.1217 21.3151C28.0419 21.4169 27.9664 21.4919 27.836 21.5356C27.7284 21.5718 27.6046 21.5884 27.4689 21.5884C27.3934 21.5884 27.2929 21.5758 27.2187 21.5609C27.1445 21.5463 27.1059 21.5297 27.0504 21.5063C27.0504 21.5063 26.9695 21.4755 26.9376 21.5566C26.9117 21.6228 26.728 22.1282 26.7062 22.1907C26.684 22.2524 26.7151 22.3011 26.7543 22.3151C26.846 22.348 26.9143 22.3689 27.0393 22.3984C27.213 22.4394 27.3593 22.4419 27.4964 22.4419C27.7836 22.4419 28.0453 22.4016 28.2623 22.3233C28.4807 22.2443 28.6708 22.1069 28.8389 21.9207C29.0207 21.72 29.135 21.5097 29.2444 21.2229C29.3526 20.9386 29.4448 20.5858 29.5185 20.1745L30.2215 16.1969H31.2493C31.2493 16.1969 31.3359 16.2001 31.3539 16.1061L31.4703 15.4573C31.4784 15.3952 31.4519 15.3565 31.3684 15.3569H30.3709C30.3758 15.3343 30.4211 14.9834 30.5356 14.6531C30.5845 14.512 30.6765 14.3983 30.7544 14.3202C30.8272 14.2458 30.9168 14.19 31.0157 14.1576C31.1241 14.1241 31.2371 14.1078 31.3506 14.1093C31.4445 14.1093 31.5367 14.1206 31.6069 14.1352C31.7037 14.1558 31.7412 14.1667 31.7666 14.1742C31.8682 14.2053 31.8819 14.1752 31.9019 14.1259L32.1404 13.4708C32.1649 13.4004 32.1052 13.3707 32.083 13.362ZM18.1431 20.1104C18.1431 20.1627 18.1059 20.2052 18.0537 20.2052H17.2263C17.1739 20.2052 17.1367 20.1627 17.1367 20.1104V13.4508C17.1367 13.3988 17.1739 13.3567 17.2263 13.3567H18.0537C18.1059 13.3567 18.1431 13.3988 18.1431 13.4508V20.1104Z" fill="#FFFFFE"/>
</g>
<defs>
<clipPath id="clip0_3303_26513">
<rect width="54" height="37.7802" fill="white"/>
</clipPath>
</defs>
</svg>
