<svg width="325" height="80" viewBox="0 0 325 80" fill="none" xmlns="http://www.w3.org/2000/svg">
<g clip-path="url(#clip0_316_1732)">
<path d="M62.6062 0L101.293 38.3544C101.974 39.3013 101.984 40.6619 101.293 41.6272L62.3484 80L60.7741 79.7518L34.3137 53.3027C33.7521 52.4385 33.1353 50.894 33.1353 49.8736C33.1353 48.4302 35.1792 43.4843 36.8272 44.33L61.9157 68.9681L90.7146 40.2023L90.2542 38.8233L63.3244 11.9329L61.0963 11.5744L1.97946 70.2827L0 69.4093V10.5723C0.939093 9.99311 2.14518 9.82763 3.01983 10.5447C7.21813 15.7665 14.2429 20.5562 18.1926 25.732C20.9178 29.3082 20.9271 32.9947 17.1983 35.8171L9.42776 28.4992L8.28612 29.1887V51.4824L9.91572 51.0411L61.2252 0H62.6062Z" fill="#2D29D7"/>
<path d="M237.535 57.4579H231.091C230.934 56.3731 231.763 52.8613 229.949 52.8521C229.719 52.8521 227.997 55.5181 226.92 56.272C221.083 60.3814 211.941 58.6255 207.696 53.0084C202.191 45.7181 203.111 31.919 211.443 27.0281C216.194 24.2426 222.86 24.0036 227.38 27.3775C228.688 28.3612 229.157 30.0711 230.63 30.3377V12.4108C232.812 12.7142 235.805 11.6662 237.535 13.1003V57.4579ZM219.011 30.9169C211.471 31.9833 209.436 40.7721 211.849 47.0144C215.145 55.5457 229.305 54.1667 230.584 44.7712C231.708 36.5616 228.255 29.6023 219.002 30.9169H219.011Z" fill="black"/>
<path d="M169.865 38.6121C170.556 33.1972 167.278 29.8693 161.865 30.3841C157.703 30.7794 156.893 33.0777 154.923 36.2034L149.15 34.4659C151.47 25.9162 160.852 23.388 168.687 25.7599C179.551 29.0511 175.518 42.7031 176.375 51.1793L177.065 51.8688L180.914 51.9332V57.4491H173.778C171.955 57.4491 170.399 52.8525 170.096 52.8617C166.137 61.3839 149.334 59.9681 148.229 50.3243C147.76 46.1966 148.533 42.8318 152.216 40.5151C153.155 39.9267 156.746 38.6029 157.666 38.6029H169.865V38.6121ZM169.865 43.6684H159.047C154.324 43.6684 152.603 50.83 157.648 52.4204C164.323 54.5257 170.188 50.7013 169.865 43.6684Z" fill="black"/>
<path d="M325 43.6673H300.602C301.246 53.5685 314.513 56.3357 318.813 47.3171L324.079 49.6521C319.329 62.1642 299.644 61.0426 295.179 48.8523C290.088 34.9429 300.528 20.8128 315.462 25.8415C319.292 27.1378 325 32.8652 325 37.0022V43.6673ZM318.555 38.611C317.92 28.0571 301.339 28.1215 301.062 38.611H318.555Z" fill="black"/>
<path d="M144.086 34.0054L137.669 35.366C137.724 29.1605 124.678 28.4894 124.807 34.2444C124.899 38.4458 132.743 38.4641 135.809 39.2915C141.867 40.9188 145.964 43.1987 144.97 50.2867C143.258 62.4402 116.963 60.7395 117.405 47.3541L123.159 45.9751C123.26 52.4471 134.097 55.6832 137.66 51.2612C142.963 44.6788 128.775 44.0996 125.369 42.831C120.379 40.9739 117.202 37.0943 118.906 31.6151C122.064 21.5117 142.005 23.1573 144.086 34.0054Z" fill="black"/>
<path d="M288.633 57.4585H282.188V38.3825C282.188 38.1434 281.535 35.4866 281.378 35.0545C279.5 29.9338 271.481 29.8971 267.909 33.3078C266.905 34.2639 265.165 37.5918 265.165 38.8421V57.4585H258.72V25.7417H265.165V30.798C265.598 31.2944 268.737 27.231 269.603 26.7346C274.528 23.8663 282.704 25.2269 286.074 29.9154C286.746 30.844 288.633 35.174 288.633 36.0933V57.4677V57.4585Z" fill="black"/>
<path d="M191.041 25.7406V29.1605C192.394 30.2177 192.735 28.2044 193.784 27.331C196.39 25.1798 199.41 25.7957 202.549 25.7406V31.4496C202.43 32.2586 194.061 30.2085 191.998 35.2097C191.759 35.7797 191.032 38.4365 191.032 38.841V57.4574H184.587V25.7406H191.032H191.041Z" fill="black"/>
<path d="M251.346 25.7129H244.44V57.4573H251.346V25.7129Z" fill="black"/>
<path d="M247.921 21.5865C250.443 21.5865 252.487 19.545 252.487 17.0267C252.487 14.5083 250.443 12.4668 247.921 12.4668C245.399 12.4668 243.354 14.5083 243.354 17.0267C243.354 19.545 245.399 21.5865 247.921 21.5865Z" fill="black"/>
</g>
<defs>
<clipPath id="clip0_316_1732">
<rect width="325" height="80" fill="white"/>
</clipPath>
</defs>
</svg>
