<svg width="444" height="66" viewBox="0 0 444 66" fill="none" xmlns="http://www.w3.org/2000/svg">
<g clip-path="url(#clip0_316_6251)">
<path fill-rule="evenodd" clip-rule="evenodd" d="M108.018 20.1035C103.247 20.1035 99.158 21.8073 95.7505 24.5333V20.785H84.165V64.742H96.0913V36.8004C97.795 34.4151 101.884 31.3483 106.995 31.3483C108.699 31.3483 110.403 31.6891 111.766 32.0298V20.785C110.403 20.4443 109.04 20.1035 108.018 20.1035Z" fill="#293E40"/>
<path fill-rule="evenodd" clip-rule="evenodd" d="M5.45203 51.1031C8.5188 53.8291 13.2893 55.5329 17.3784 55.5329C20.4451 55.5329 23.1711 53.8291 23.1711 51.7846C23.1711 44.9696 1.70376 47.3548 1.70376 33.384C1.70376 24.8652 9.88181 19.7539 18.4006 19.7539C24.1934 19.7539 30.3269 21.7984 33.3937 24.1837L27.9417 32.7025C25.5564 31.3395 22.8304 29.6357 19.4229 29.6357C16.0153 29.6357 13.6301 30.9987 13.6301 33.384C13.6301 39.1768 35.0975 36.7915 35.0975 52.1254C35.0975 60.6442 26.9194 65.7554 17.7191 65.7554C11.5856 65.7554 5.11128 63.7109 0 59.9627L5.45203 51.1031Z" fill="#293E40"/>
<path fill-rule="evenodd" clip-rule="evenodd" d="M79.0553 42.2435C79.0553 29.9765 70.5365 19.7539 58.2694 19.7539C45.3208 19.7539 36.802 30.658 36.802 42.5843C36.802 56.5551 46.6838 65.4147 59.6324 65.4147C66.4475 65.4147 73.2625 62.6887 77.6923 57.5774L70.8772 50.7623C68.8327 53.1476 64.7437 55.8736 59.9732 55.8736C53.8396 55.8736 48.7283 51.4439 48.0468 45.3103H78.3738C79.0553 44.6288 79.0553 43.6066 79.0553 42.2435ZM49.0691 37.1323C49.7506 33.0432 53.8396 29.295 58.6102 29.295C63.3807 29.295 66.7882 33.0432 67.4697 37.1323H49.0691Z" fill="#293E40"/>
<path fill-rule="evenodd" clip-rule="evenodd" d="M163.561 20.7832L143.457 64.7402H135.279L115.175 20.7832H127.101L139.368 47.7026L151.294 20.7832H163.561Z" fill="#293E40"/>
<path fill-rule="evenodd" clip-rule="evenodd" d="M173.443 -0.00195312C177.873 -0.00195312 181.28 3.40557 181.28 7.49459C181.28 11.9244 177.873 14.9911 173.443 14.9911C169.013 14.9911 165.946 11.5836 165.946 7.49459C165.946 3.06482 169.013 -0.00195312 173.443 -0.00195312Z" fill="#293E40"/>
<path d="M179.576 20.7832H167.65V64.7402H179.576V20.7832Z" fill="#293E40"/>
<path fill-rule="evenodd" clip-rule="evenodd" d="M227.964 55.5329C222.852 62.3479 216.378 65.4147 208.2 65.4147C194.57 65.4147 184.688 55.1921 184.688 42.5843C184.688 29.6357 194.911 19.7539 208.2 19.7539C216.037 19.7539 222.512 23.5022 226.601 28.6135L218.763 35.7693C216.378 32.7025 212.971 30.658 208.882 30.658C202.067 30.658 196.955 36.11 196.955 42.5843C196.955 49.3993 201.726 54.5106 208.882 54.5106C213.652 54.5106 217.4 51.7846 219.445 48.7178L227.964 55.5329Z" fill="#293E40"/>
<path fill-rule="evenodd" clip-rule="evenodd" d="M270.558 57.5774C266.128 62.6887 259.313 65.4147 252.498 65.4147C239.55 65.4147 229.668 56.5551 229.668 42.5843C229.668 30.3172 237.846 19.7539 251.135 19.7539C263.061 19.7539 271.921 29.9765 271.921 42.2435C271.921 43.6066 271.921 44.6288 271.58 45.6511H240.913C241.594 51.7846 246.705 56.2144 252.839 56.2144C257.609 56.2144 261.698 53.4884 263.743 51.1031L270.558 57.5774ZM259.654 37.1323C259.313 33.384 255.906 29.295 250.794 29.295C246.024 29.295 241.935 33.0432 241.253 37.1323H259.654Z" fill="#293E40"/>
<path fill-rule="evenodd" clip-rule="evenodd" d="M276.349 64.7342V20.7772H287.594V24.5255C291.002 21.7995 295.091 20.0957 299.861 20.0957C305.995 20.0957 311.447 22.8217 315.195 27.2515C317.921 30.659 319.965 35.0888 319.965 42.5853V65.075H308.039V41.5631C308.039 37.1333 307.017 34.748 305.313 33.385C303.609 31.6813 301.565 30.659 298.498 30.659C293.728 30.659 289.639 33.7258 287.594 36.1111V64.7342H276.349Z" fill="#293E40"/>
<path fill-rule="evenodd" clip-rule="evenodd" d="M350.292 19.7617C335.981 19.7617 324.736 31.0065 324.736 45.3181C324.736 52.8147 327.803 59.6297 332.573 64.4002C334.277 66.104 337.344 66.104 339.388 64.741C342.114 62.3557 346.203 60.9927 350.292 60.9927C354.722 60.9927 358.13 62.3557 361.196 64.741C363.241 66.4448 365.967 66.104 368.011 64.0595C372.782 59.289 375.849 52.8147 375.849 45.3181C375.508 31.3473 364.263 19.7617 350.292 19.7617ZM349.952 58.6075C342.114 58.6075 337.003 52.8147 337.003 45.6589C337.003 38.5031 342.114 32.7103 349.952 32.7103C357.789 32.7103 362.9 38.5031 362.9 45.6589C362.9 52.8147 357.789 58.6075 349.952 58.6075Z" fill="#81B5A1"/>
<path fill-rule="evenodd" clip-rule="evenodd" d="M372.782 20.7832H384.368L393.909 45.9989L403.45 20.7832H413.332L422.532 45.9989L432.073 20.7832H443.999L426.621 64.7402H417.761L408.22 39.8653L399.02 64.7402H390.16L372.782 20.7832Z" fill="#293E40"/>
</g>
<defs>
<clipPath id="clip0_316_6251">
<rect width="444" height="65.8475" fill="white"/>
</clipPath>
</defs>
</svg>
