<svg width="316" height="84" viewBox="0 0 316 84" fill="none" xmlns="http://www.w3.org/2000/svg">
<g clip-path="url(#clip0_316_1710)">
<mask id="mask0_316_1710" style="mask-type:luminance" maskUnits="userSpaceOnUse" x="119" y="0" width="68" height="53">
<path d="M186.077 31.4317C186.077 31.4317 162.434 34.7482 166.253 49.4213L159.696 52.4866H152.535C152.535 52.4866 141.606 32.0598 124.495 32.9643C107.385 33.8688 140.651 2.08539 140.651 2.08539L170.047 0L184.62 10.7033L186.077 31.4317Z" fill="white"/>
</mask>
<g mask="url(#mask0_316_1710)">
<path d="M181.957 25.5281C183.288 32.2868 181.806 39.146 177.836 44.8243C173.866 50.5026 167.861 54.3467 160.927 55.6281C153.992 56.9095 146.957 55.5025 141.103 51.6332C135.249 47.7639 131.329 41.9097 129.998 35.151C128.666 28.3924 130.148 21.5332 134.118 15.8549C138.088 10.1766 144.093 6.3324 151.027 5.05102C157.962 3.76963 164.997 5.17664 170.851 9.04593C176.705 12.9152 180.625 18.7694 181.957 25.5281ZM177.132 44.3469C177.434 43.8946 177.735 43.4424 178.012 42.9901C177.71 43.1157 177.384 43.2162 177.032 43.3167C176.957 43.3167 176.881 43.367 176.781 43.3921C176.203 43.5429 175.449 43.7187 174.821 43.6182C173.891 44.7991 172.937 45.779 171.881 46.6835C170.901 47.4875 169.896 48.1659 169.017 48.7438C168.314 49.196 167.535 49.5729 166.731 49.8744C166.128 51.0804 165.173 52.3367 163.917 53.6181C163.69 53.8442 163.439 54.0703 163.188 54.2713C168.69 52.7136 173.69 49.3468 177.132 44.3971V44.3469ZM171.504 46.2564C172.66 45.3016 173.665 44.2212 174.645 42.9147C175.374 41.0806 175.474 38.8696 175.298 37.3369C175.198 36.3822 174.921 35.1259 174.62 34.146C172.886 33.4677 171.128 32.7893 169.344 32.2114C168.891 32.0606 168.414 31.935 167.962 31.8094C167.535 31.7089 167.107 31.5833 166.68 31.4576C163.489 34.8747 161.957 35.6787 159.419 37.0103C159.042 37.2113 158.64 37.4123 158.213 37.6384C158.289 38.1661 158.314 38.7188 158.339 39.2465C158.339 39.5228 158.339 39.7992 158.389 40.0253C158.565 42.3117 158.439 44.6986 158.037 46.985C158.439 47.2112 158.791 47.3117 159.218 47.4373C159.469 47.5127 159.771 47.6132 160.098 47.7388C162.007 48.4674 164.168 49.2965 166.329 49.4473C167.183 49.1709 168.037 48.7689 168.791 48.2664C169.645 47.7137 170.65 47.0353 171.605 46.2564H171.504ZM181.077 26.7843C181.153 26.9351 181.253 27.0858 181.328 27.2366C180.725 22.6136 178.791 18.1664 175.675 14.473C175.901 15.1011 176.027 15.7795 176.052 16.4579C176.052 16.4579 176.278 16.6337 176.404 16.7342C176.605 16.8599 176.781 17.0106 176.957 17.1865C177.484 17.7141 177.911 18.3674 178.313 19.1965L178.414 19.3975C179.042 20.704 179.695 22.0608 179.972 23.4678C180.097 24.1964 180.147 24.8999 180.072 25.6286C180.474 25.9552 180.776 26.307 181.052 26.7843H181.077ZM174.846 33.6435C176.102 32.7893 177.032 31.8345 177.66 30.8044C178.012 30.2265 178.263 29.5732 178.514 28.9451C178.64 28.6185 178.791 28.2667 178.941 27.9401C179.544 26.5833 179.72 25.0758 179.444 23.5934C179.193 22.2367 178.539 20.9302 177.936 19.6488L177.836 19.4478C177.459 18.6689 177.057 18.0659 176.58 17.5885C176.454 17.4378 176.278 17.3373 176.102 17.1865C175.977 17.086 175.851 17.0106 175.725 16.9101C174.896 16.3825 173.992 16.1061 173.037 15.8046L172.886 15.7544C172.635 15.679 172.409 15.6036 172.183 15.5282C170.298 14.9252 169.721 14.7494 167.308 14.674C167.007 15.1011 166.731 15.5534 166.454 16.0056C166.128 16.5332 165.776 17.086 165.399 17.6136V17.6639C164.645 18.694 163.891 19.7744 163.213 20.8548C165.374 24.3723 166.027 26.5833 166.731 30.93C167.183 31.0808 167.635 31.1813 168.062 31.3069C168.54 31.4325 169.017 31.5581 169.494 31.7089C171.303 32.3119 173.087 32.9903 174.846 33.6687V33.6435ZM156.228 47.588C156.756 47.2865 157.032 47.1107 157.485 46.4825C157.836 44.372 157.937 42.1861 157.761 40.0756C157.761 39.8243 157.736 39.5731 157.711 39.2716C157.711 38.7691 157.66 38.2414 157.61 37.7641C155.248 36.8596 153.54 36.0556 151.932 35.0003C150.676 34.1712 149.47 33.1661 148.037 31.8596C147.686 31.9853 147.359 32.136 147.058 32.2616C146.706 32.4124 146.254 32.6134 145.726 32.8646C143.892 33.6938 141.178 34.9249 139.847 35.4274C138.917 37.9148 139.093 41.96 139.796 44.3469C140.827 45.4524 142.133 46.5076 143.741 47.588H143.766C145.223 48.5679 146.831 49.4473 148.666 50.2764C149.62 50.2262 150.223 50.0252 150.977 49.7739C151.304 49.6734 151.605 49.5729 152.007 49.4724C153.364 49.0955 154.495 48.6935 155.55 48.0152C155.801 47.8393 156.027 47.7137 156.228 47.6132V47.588ZM150.274 54.6231C149.093 53.191 148.54 51.5829 148.389 50.7287C146.555 49.8996 144.947 49.0202 143.49 48.0403H143.465C141.781 46.9097 140.45 45.8041 139.394 44.6735C137.711 44.8996 137.309 44.9499 135.399 44.3971C135.148 44.3218 134.947 44.2464 134.746 44.171C136.53 46.7589 138.816 49.0704 141.631 50.9297C144.445 52.789 147.259 53.9447 150.274 54.598V54.6231ZM162.736 20.5533C163.414 19.4478 164.168 18.3674 164.922 17.3121V17.2619C165.298 16.7594 165.65 16.2066 165.977 15.679C166.278 15.2016 166.58 14.7242 166.906 14.2469C166.756 13.7946 166.53 13.3675 166.329 12.9906C165.751 11.8851 165.022 10.9052 163.967 9.84994C163.012 8.89518 162.032 8.04092 160.977 7.23691C160.198 7.03591 159.469 6.88516 158.615 6.86003C156.379 6.78466 154.645 6.88516 153.012 7.23691C152.108 7.41279 151.178 7.71429 150.299 8.1163C149.294 8.87005 149.017 9.34743 148.414 10.3776C148.364 10.4781 148.289 10.5786 148.238 10.6791C147.409 12.1112 146.831 13.4428 146.555 14.6489C146.982 14.9755 147.384 15.3775 147.761 15.8046C149.218 17.4126 150.525 19.1463 151.706 20.9302C152.912 20.704 153.263 20.6789 154.017 20.6789C154.319 20.6789 154.721 20.6789 155.274 20.6287C156.429 20.5784 157.208 20.5282 157.836 20.4779C159.419 20.3774 159.846 20.3272 162.761 20.5533H162.736ZM146.831 31.7591C147.183 31.6084 147.535 31.4576 147.887 31.332C148.037 28.9451 148.716 26.8597 149.369 25.1009C149.746 24.0708 150.424 22.5382 151.203 21.2317C150.047 19.4478 148.766 17.7644 147.334 16.1815C146.957 15.7544 146.53 15.3775 146.128 15.0509C145.123 15.0006 143.791 15.3272 143.389 15.4277C142.033 15.7795 140.5 16.2317 139.269 16.9101C138.666 17.2451 138.205 17.5801 137.887 17.9151C137.887 17.9151 137.661 18.1664 137.485 18.3423C137.485 18.3423 137.309 18.5433 137.208 18.6689C136.907 19.0709 136.58 19.498 136.354 19.8749C134.796 22.5131 133.917 25.7793 133.892 28.719C134.369 29.6235 134.972 30.2767 135.676 31.0305C135.827 31.1813 135.977 31.3571 136.103 31.5079C137.208 32.739 138.389 33.8194 139.696 34.8747C141.028 34.3722 143.716 33.1661 145.525 32.337C146.053 32.1109 146.505 31.8848 146.857 31.734L146.831 31.7591ZM138.716 43.4926C138.716 43.4926 138.842 43.2665 138.816 43.1911L138.364 43.4926C138.364 43.4926 138.59 43.5931 138.716 43.4926ZM160.902 6.65903C161.354 6.40778 161.831 6.28215 162.283 6.20678C157.334 5.00077 152.158 5.25202 147.434 6.88516C148.339 6.93541 149.319 7.11129 150.123 7.56354C151.002 7.18666 151.957 6.86003 152.887 6.68416C154.545 6.3324 156.379 6.2319 158.615 6.30728C159.419 6.3324 160.148 6.45803 160.876 6.63391L160.902 6.65903ZM131.254 30.6788C131.857 29.8496 132.46 29.121 133.314 28.6687C133.339 25.3271 134.47 21.9352 135.852 19.5985C136.103 19.1965 136.43 18.7694 136.756 18.3423C136.806 18.2669 136.857 18.1915 136.932 18.1161C136.58 17.7393 136.48 17.3875 136.354 17.0609V16.9855C136.128 16.282 136.103 15.4277 136.254 14.5484C135.776 15.1262 135.299 15.7292 134.872 16.3574C131.53 21.1563 130.123 26.709 130.525 32.0858C130.701 31.6084 130.927 31.1561 131.279 30.6788H131.254Z" fill="#231F20"/>
<path d="M138.816 43.166C138.816 43.166 138.816 43.3921 138.716 43.4675C138.59 43.5429 138.439 43.5429 138.364 43.4675L138.816 43.166Z" fill="#231F20"/>
<path d="M156.002 58.6674C171.641 58.6674 184.318 46.361 184.318 31.1804C184.318 15.9997 171.641 3.69336 156.002 3.69336C140.364 3.69336 127.686 15.9997 127.686 31.1804C127.686 46.361 140.364 58.6674 156.002 58.6674Z" stroke="#231F20" stroke-width="0.502505" stroke-miterlimit="10"/>
</g>
<path d="M37.8885 48.7925L47.4361 48.4659L46.9085 44.7725C45.4512 34.3707 38.8433 29.5215 26.1299 29.5215C7.26084 29.5215 3.29106 38.4158 3.29106 45.9031C3.29106 52.3101 7.18547 57.3351 14.1954 60.1994H1.02979L1.53229 63.9682C3.11518 76.1037 11.0296 82.2593 25.0998 82.2593C25.4264 82.2593 25.753 82.2593 26.0796 82.2593C39.999 81.983 48.6421 75.2243 48.6421 64.6466C48.6421 55.501 43.416 51.1543 37.8885 48.8177V48.7925ZM24.2455 43.3152C26.6073 43.3152 27.8384 44.6469 28.2655 46.0036C25.5771 45.3253 22.8385 44.5715 22.0345 43.9182C22.4616 43.6419 23.4164 43.3152 24.2455 43.3404V43.3152ZM29.371 65.7018C29.3962 67.2847 26.4565 67.536 25.1751 67.5611C22.7631 67.6867 21.1048 64.7219 20.6275 62.7622L20.4516 62.0084C28.4414 63.8174 29.371 65.1993 29.371 65.7018Z" stroke="#231F20" stroke-width="1.80902" stroke-miterlimit="10"/>
<path d="M76.7317 29.6484C62.2596 29.6484 50.501 41.4322 50.501 55.8792C50.501 70.3262 62.2847 82.1099 76.7317 82.1099C91.1787 82.1099 102.962 70.3262 102.962 55.8792C102.962 41.4322 91.1787 29.6484 76.7317 29.6484ZM81.4804 55.9294C81.4804 58.6932 79.2442 60.9293 76.4805 60.9293C73.7167 60.9293 71.4805 58.6932 71.4805 55.9294C71.4805 53.1657 73.7167 50.9295 76.4805 50.9295C79.2442 50.9295 81.4804 53.1657 81.4804 55.9294Z" stroke="#231F20" stroke-width="1.80902" stroke-miterlimit="10"/>
<path d="M136.028 60.1753C134.746 61.708 132.912 62.5873 130.952 62.5873C127.259 62.5873 124.269 59.4969 124.269 55.703C124.269 51.9091 127.259 48.8187 130.952 48.8187C132.937 48.8187 134.771 49.6981 136.053 51.2559L137.058 52.487H156.982L155.676 48.1655C152.334 37.0601 142.435 29.623 131.028 29.623C116.807 29.623 105.224 41.3817 105.224 55.8538C105.224 70.3259 116.807 82.1096 131.028 82.1096C142.409 82.1096 152.61 74.346 155.801 63.2155L157.032 58.9442H137.083L136.078 60.1502L136.028 60.1753Z" stroke="#231F20" stroke-width="1.80902" stroke-miterlimit="10"/>
<path d="M184.167 29.6484C172.736 29.6484 162.836 37.1106 159.495 48.1909L158.188 52.5124H178.389L179.394 51.2813C180.65 49.7235 182.509 48.8441 184.494 48.8441C188.162 48.8441 191.152 51.9345 191.152 55.7284C191.152 59.5223 188.162 62.6127 184.494 62.6127C182.534 62.6127 180.7 61.7334 179.444 60.2007L178.439 58.9696H158.188L159.419 63.2409C162.61 74.3713 172.786 82.135 184.193 82.135C198.413 82.135 209.996 70.3513 209.996 55.8792C209.996 41.407 198.413 29.6484 184.193 29.6484H184.167Z" stroke="#231F20" stroke-width="1.80902" stroke-miterlimit="10"/>
<path d="M233.011 63.818H255.172V47.763H233.011V45.8786H257.207V29.3965H212.333V82.2851H257.357V65.2502H233.011V63.818Z" stroke="#231F20" stroke-width="1.80902" stroke-miterlimit="10"/>
<path d="M310.522 74.8731C309.014 71.9586 307.859 69.7225 306.025 66.3306C304.693 63.8683 303.211 61.406 300.849 59.3709C306.879 55.9287 308.964 50.2504 308.688 45.2254C308.185 36.3813 302.281 30.8789 291.98 29.7482C288.99 29.4467 286.779 29.3965 283.738 29.3965H260.322V82.5866H281.125V65.1999C282.156 66.9336 283.638 69.5969 284.316 70.828L284.995 72.0591C286.578 74.9234 287.809 77.3354 289.367 80.4258L290.447 82.5866H314.492L310.497 74.8983L310.522 74.8731ZM287.683 47.2605C287.583 47.4866 286.703 48.1902 284.919 48.3158C284.09 48.366 282.96 48.366 281.628 48.366H281.201V45.5018H281.98C283.286 45.5018 284.417 45.5018 285.221 45.552C286.402 45.6525 287.658 46.155 287.658 47.2354L287.683 47.2605Z" stroke="#231F20" stroke-width="1.80902" stroke-miterlimit="10"/>
<path d="M37.8885 48.7925L47.4361 48.4659L46.9085 44.7725C45.4512 34.3707 38.8433 29.5215 26.1299 29.5215C7.26084 29.5215 3.29106 38.4158 3.29106 45.9031C3.29106 52.3101 7.18547 57.3351 14.1954 60.1994H1.02979L1.53229 63.9682C3.11518 76.1037 11.0296 82.2593 25.0998 82.2593C25.4264 82.2593 25.753 82.2593 26.0796 82.2593C39.999 81.983 48.6421 75.2243 48.6421 64.6466C48.6421 55.501 43.416 51.1543 37.8885 48.8177V48.7925ZM24.2455 43.3152C26.6073 43.3152 27.8384 44.6469 28.2655 46.0036C25.5771 45.3253 22.8385 44.5715 22.0345 43.9182C22.4616 43.6419 23.4164 43.3152 24.2455 43.3404V43.3152ZM29.371 65.7018C29.3962 67.2847 26.4565 67.536 25.1751 67.5611C22.7631 67.6867 21.1048 64.7219 20.6275 62.7622L20.4516 62.0084C28.4414 63.8174 29.371 65.1993 29.371 65.7018Z" fill="white"/>
<path d="M76.7317 29.6484C62.2596 29.6484 50.501 41.4322 50.501 55.8792C50.501 70.3262 62.2847 82.1099 76.7317 82.1099C91.1787 82.1099 102.962 70.3262 102.962 55.8792C102.962 41.4322 91.1787 29.6484 76.7317 29.6484ZM81.4804 55.9294C81.4804 58.6932 79.2442 60.9293 76.4805 60.9293C73.7167 60.9293 71.4805 58.6932 71.4805 55.9294C71.4805 53.1657 73.7167 50.9295 76.4805 50.9295C79.2442 50.9295 81.4804 53.1657 81.4804 55.9294Z" fill="white"/>
<path d="M136.028 60.1753C134.746 61.708 132.912 62.5873 130.952 62.5873C127.259 62.5873 124.269 59.4969 124.269 55.703C124.269 51.9091 127.259 48.8187 130.952 48.8187C132.937 48.8187 134.771 49.6981 136.053 51.2559L137.058 52.487H156.982L155.676 48.1655C152.334 37.0601 142.435 29.623 131.028 29.623C116.807 29.623 105.224 41.3817 105.224 55.8538C105.224 70.3259 116.807 82.1096 131.028 82.1096C142.409 82.1096 152.61 74.346 155.801 63.2155L157.032 58.9442H137.083L136.078 60.1502L136.028 60.1753Z" fill="white"/>
<path d="M184.167 29.6484C172.736 29.6484 162.836 37.1106 159.495 48.1909L158.188 52.5124H178.389L179.394 51.2813C180.65 49.7235 182.509 48.8441 184.494 48.8441C188.162 48.8441 191.152 51.9345 191.152 55.7284C191.152 59.5223 188.162 62.6127 184.494 62.6127C182.534 62.6127 180.7 61.7334 179.444 60.2007L178.439 58.9696H158.188L159.419 63.2409C162.61 74.3713 172.786 82.135 184.193 82.135C198.413 82.135 209.996 70.3513 209.996 55.8792C209.996 41.407 198.413 29.6484 184.193 29.6484H184.167Z" fill="white"/>
<path d="M233.011 63.818H255.172V47.763H233.011V45.8786H257.207V29.3965H212.333V82.2851H257.357V65.2502H233.011V63.818Z" fill="white"/>
<path d="M310.522 74.8731C309.014 71.9586 307.859 69.7225 306.025 66.3306C304.693 63.8683 303.211 61.406 300.849 59.3709C306.879 55.9287 308.964 50.2504 308.688 45.2254C308.185 36.3813 302.281 30.8789 291.98 29.7482C288.99 29.4467 286.779 29.3965 283.738 29.3965H260.322V82.5866H281.125V65.1999C282.156 66.9336 283.638 69.5969 284.316 70.828L284.995 72.0591C286.578 74.9234 287.809 77.3354 289.367 80.4258L290.447 82.5866H314.492L310.497 74.8983L310.522 74.8731ZM287.683 47.2605C287.583 47.4866 286.703 48.1902 284.919 48.3158C284.09 48.366 282.96 48.366 281.628 48.366H281.201V45.5018H281.98C283.286 45.5018 284.417 45.5018 285.221 45.552C286.402 45.6525 287.658 46.155 287.658 47.2354L287.683 47.2605Z" fill="white"/>
<path d="M32.3359 48.19L31.0797 47.8885L46.1046 47.3609L45.7779 44.9489C44.4212 35.2254 38.165 30.6777 26.13 30.6777C8.21573 30.6777 4.44694 38.9439 4.44694 45.9036C4.44694 55.9035 14.0699 59.4712 19.7985 60.7024C30.4767 62.9888 30.5018 64.8229 30.5269 65.7023C30.5772 68.0892 27.6627 68.6671 25.2004 68.7425C22.3612 68.7927 20.2005 65.9536 19.5221 63.039L19.1201 61.3556H2.33643L2.66305 63.843C4.14544 75.3253 11.683 81.1292 25.0496 81.1292C25.3763 81.1292 25.7029 81.1292 26.0295 81.1292C39.2454 80.8779 47.4613 74.5464 47.4613 64.6722C47.4613 53.3909 38.8183 49.8734 32.3108 48.2403L32.3359 48.19ZM20.7281 43.8685C20.7281 43.7429 20.7281 43.5921 20.9291 43.3408C21.4819 42.7127 22.9642 42.2102 24.2456 42.16C27.2858 42.1851 29.0697 44.17 29.4717 46.1046L29.7732 47.5619C24.0949 46.1549 20.8788 45.3006 20.703 43.8685H20.7281Z" fill="#231F20"/>
<path d="M76.7319 30.8027C62.8879 30.8027 51.6318 42.0588 51.6318 55.9028C51.6318 69.7468 62.8879 81.0029 76.7319 81.0029C90.5759 81.0029 101.832 69.7468 101.832 55.9028C101.832 42.0588 90.5759 30.8027 76.7319 30.8027ZM76.5058 49.7974C79.8977 49.7974 82.6615 52.5612 82.6615 55.9531C82.6615 59.345 79.8977 62.1088 76.5058 62.1088C73.1139 62.1088 70.3501 59.345 70.3501 55.9531C70.3501 52.5612 73.1139 49.7974 76.5058 49.7974Z" fill="#231F20"/>
<path d="M136.907 60.9042C135.424 62.7132 133.238 63.7433 130.927 63.7433C126.605 63.7433 123.088 60.1504 123.088 55.7033C123.088 51.2561 126.605 47.6632 130.927 47.6632C133.238 47.6632 135.424 48.7184 136.907 50.5275L137.56 51.3315H155.374L154.52 48.4923C151.329 37.8895 141.856 30.7539 130.952 30.7539C117.359 30.7539 106.304 42.01 106.304 55.8289C106.304 69.6478 117.359 80.929 130.952 80.929C141.831 80.929 151.555 73.4919 154.595 62.864L155.399 60.075H137.51L136.856 60.8791L136.907 60.9042Z" fill="#231F20"/>
<path d="M184.167 30.8027C173.263 30.8027 163.791 37.9383 160.6 48.5411L159.746 51.3803H177.836L178.489 50.5763C179.971 48.7673 182.157 47.712 184.469 47.712C188.79 47.712 192.283 51.3049 192.283 55.7521C192.283 60.1993 188.79 63.7922 184.469 63.7922C182.157 63.7922 179.997 62.762 178.514 60.953L177.861 60.149H159.695L160.499 62.9379C163.539 73.5659 173.288 81.0029 184.167 81.0029C197.76 81.0029 208.815 69.7468 208.815 55.9028C208.815 42.0588 197.76 30.8279 184.167 30.8279V30.8027Z" fill="#231F20"/>
<path d="M231.855 62.6628H254.015V48.8941H231.855V44.7234H256.051V30.5527H213.463V81.1549H256.201V66.4064H231.855V62.6628Z" fill="#231F20"/>
<path d="M309.492 75.401C307.984 72.4865 306.829 70.2503 304.994 66.8584C303.437 63.969 301.753 61.2053 298.713 59.145C304.693 56.4566 307.884 51.532 307.532 45.2759C307.08 37.0599 301.502 31.9595 291.854 30.8791C288.914 30.5776 286.728 30.5273 283.738 30.5273H261.478V81.4059H279.97V62.3108C280.422 62.361 280.723 62.5871 281.075 62.9891C281.703 63.6926 284.417 68.6172 285.321 70.2503L286 71.4815C287.608 74.3709 288.839 76.808 290.397 79.8984L291.176 81.4311H312.607L309.492 75.401ZM280.045 44.3713H281.98C283.336 44.3713 284.442 44.3713 285.321 44.4216C287.432 44.5975 288.814 45.7281 288.814 47.311C288.814 48.2406 287.382 49.2959 284.97 49.4969C284.09 49.5471 282.934 49.5471 281.603 49.5471H280.02V44.3713H280.045Z" fill="#231F20"/>
<path d="M43.5917 45.2505L31.6573 45.6777C31.004 42.5622 28.2905 40.0245 24.2956 39.9743C21.6574 39.9743 18.2404 41.4818 18.567 44.145C18.969 47.5118 23.4413 48.2405 31.808 50.3258C39.7476 52.3359 45.3002 55.979 45.3002 64.6472C45.3002 74.2199 36.5818 78.7174 26.0041 78.9184C12.2103 79.1947 6.15514 73.5164 4.84863 63.5668H17.3861C18.2153 67.009 20.9037 71.0542 25.2754 70.9537C28.6673 70.8532 32.8381 69.7728 32.7376 65.6774C32.6623 62.8131 30.4512 60.7528 20.2755 58.592C13.6927 57.185 6.65765 53.5921 6.65765 45.9541C6.65765 37.0597 13.4666 32.9141 26.1548 32.9141C37.7627 32.9141 42.4862 37.1351 43.6169 45.2757L43.5917 45.2505Z" fill="#231F20" stroke="#00A75D" stroke-width="1.80902" stroke-miterlimit="10"/>
<path d="M76.7319 32.9902C64.0939 32.9902 53.8428 43.2413 53.8428 55.8793C53.8428 68.5173 64.0939 78.7684 76.7319 78.7684C89.3698 78.7684 99.6209 68.5173 99.6209 55.8793C99.6209 43.2413 89.3698 32.9902 76.7319 32.9902ZM76.5057 64.2711C71.9078 64.2711 68.1642 60.5275 68.1642 55.9296C68.1642 51.3317 71.9078 47.588 76.5057 47.588C81.1036 47.588 84.8473 51.3317 84.8473 55.9296C84.8473 60.5275 81.1036 64.2711 76.5057 64.2711Z" fill="#231F20" stroke="#00A75D" stroke-width="1.80902" stroke-miterlimit="10"/>
<path d="M138.615 62.3097C136.781 64.5207 134.018 65.9528 130.952 65.9528C125.4 65.9528 120.927 61.3801 120.927 55.7269C120.927 50.0737 125.425 45.5009 130.952 45.5009C134.043 45.5009 136.806 46.9079 138.641 49.1692H152.459C149.645 39.8226 141.103 33.0137 131.002 33.0137C118.591 33.0137 108.541 43.2648 108.541 55.9028C108.541 68.5407 118.591 78.817 131.002 78.817C141.203 78.817 149.821 71.8573 152.56 62.3348H138.615V62.3097Z" fill="#231F20" stroke="#00A75D" stroke-width="1.80902" stroke-miterlimit="10"/>
<path d="M206.63 55.8776C206.63 68.5156 196.555 78.7918 184.168 78.7918C173.967 78.7918 165.324 71.8321 162.61 62.3097H176.831C178.64 64.5207 181.404 65.9528 184.469 65.9528C189.997 65.9528 194.469 61.3801 194.469 55.7269C194.469 50.0737 189.972 45.5009 184.469 45.5009C181.379 45.5009 178.615 46.9079 176.781 49.1692H162.686C165.5 39.8226 174.042 33.0137 184.168 33.0137C196.555 33.0137 206.63 43.2648 206.63 55.9028V55.8776Z" fill="#231F20" stroke="#00A75D" stroke-width="1.80902" stroke-miterlimit="10"/>
<path d="M254.015 78.9438H215.674V32.7637H253.865V42.5374H229.669V51.1051H251.83V60.4768H229.669V68.5922H254.015V78.9438Z" fill="#231F20" stroke="#00A75D" stroke-width="1.80902" stroke-miterlimit="10"/>
<path d="M309.015 79.22H292.533C290.874 75.9286 289.618 73.416 287.935 70.401C286.854 68.4915 283.688 62.6122 282.759 61.5318C282.156 60.8534 281.276 60.0997 279.819 60.0997H277.809V79.22H263.714V32.7383H283.764C286.904 32.7383 288.965 32.8137 291.678 33.0649C298.99 33.8689 304.919 37.1854 305.372 45.4014C305.723 51.6073 301.753 57.2605 292.231 58.768C298.688 60.3258 300.975 63.9689 303.085 67.9136C305.447 72.2854 306.678 74.7477 309.015 79.2451V79.22ZM281.628 51.733C283.01 51.733 284.191 51.733 285.146 51.6576C288.512 51.3812 291.025 49.6476 291.025 47.2858C291.025 44.5974 288.889 42.4869 285.523 42.2105C284.568 42.1351 283.387 42.1351 282.005 42.1351H277.859V51.7078H281.628V51.733Z" fill="#231F20" stroke="#00A75D" stroke-width="1.80902" stroke-miterlimit="10"/>
</g>
<defs>
<clipPath id="clip0_316_1710">
<rect width="316" height="83.4911" fill="white"/>
</clipPath>
</defs>
</svg>
