<svg width="296" height="217" viewBox="0 0 296 217" fill="none" xmlns="http://www.w3.org/2000/svg">
<g clip-path="url(#clip0_316_1760)">
<path d="M191.079 174.129C194.779 174.129 197.686 177.04 197.686 180.48V210.384C197.686 213.824 194.779 216.735 191.079 216.735H121.571C117.871 216.735 114.964 213.824 114.964 210.384V180.48C114.964 177.04 117.871 174.129 121.571 174.129H191.079Z" fill="white"/>
<path d="M57.0857 65.8933C51.2714 60.6006 44.9286 58.7482 37 58.7482C27.4857 58.7482 22.2 61.6591 22.2 66.6872C22.2 71.7152 26.9571 74.6262 37.2643 75.4201C52.5929 76.4786 71.8857 79.6542 71.8857 100.825C71.8857 114.851 60.2571 127.024 37.2643 127.024C24.5786 127.024 11.6286 124.907 0 112.734L9.77857 98.7079C15.5929 105.059 28.5429 109.558 37.5286 109.823C44.9286 110.087 52.0643 106.118 52.0643 100.296C52.0643 94.7384 47.5714 92.6213 35.9429 91.8274C20.8786 91.0335 2.64286 85.4762 2.64286 67.4811C2.64286 49.486 21.9357 42.6055 36.7357 42.6055C49.4214 42.6055 58.9357 44.9872 68.1857 53.1908L57.0857 65.8933Z" fill="#521BC7"/>
<path d="M128.179 42.6055C118.929 42.6055 107.829 46.575 101.486 55.5725L100.164 44.4579H81.1357V141.843C87.2143 147.93 93.8215 152.958 101.486 156.927V115.644C107.3 124.377 119.986 127.024 128.707 127.024C154.871 127.024 170.2 108.235 170.2 84.6823C170.2 61.3945 153.286 42.6055 128.179 42.6055ZM126.593 107.97C112.85 107.97 103.336 97.6494 103.336 84.9469C103.336 72.2445 112.057 61.9238 126.593 61.9238C141.129 61.9238 149.85 72.2445 149.85 84.9469C149.85 97.6494 140.336 107.97 126.593 107.97Z" fill="#521BC7"/>
<path d="M202.179 42.6055H181.829V127.288H202.179V42.6055Z" fill="#521BC7"/>
<path d="M275.65 127.288V82.5652C275.65 70.3921 268.779 60.8652 255.829 60.8652C242.879 60.8652 234.95 71.186 234.95 83.6238V127.024H214.864V42.6055H233.1L234.421 54.7786C242.614 46.8396 251.071 42.6055 261.379 42.6055C280.671 42.6055 296 56.8957 296 82.3006V127.024L275.65 127.288Z" fill="#521BC7"/>
<path d="M177.864 8.46829C178.657 7.67439 179.714 6.88049 180.771 6.35122C177.071 4.76341 173.371 3.44024 169.143 2.38171C163.857 1.05854 158.307 0.264634 152.757 0H151.7H148.528C147.736 0 147.207 0 146.414 0H144.3C141.657 0.264634 138.75 0.529268 136.107 0.793902C130.821 1.5878 125.536 2.91098 120.514 4.76341C115.493 6.61585 110.736 8.99756 106.243 11.9085C97.257 17.4659 89.5927 24.611 83.5142 33.3439C90.3856 25.9341 98.8427 19.8476 108.093 15.3488C112.586 13.2317 117.343 11.6439 122.364 10.5854C127.121 9.52683 132.143 8.99756 137.164 8.73293C139.543 8.73293 142.186 8.73293 144.564 8.99756L146.414 9.26219C146.943 9.26219 147.736 9.26219 148.264 9.52683L150.114 9.79146C150.378 9.79146 150.643 9.79146 150.907 9.79146L151.7 10.0561C159.1 11.3793 166.236 13.761 172.843 17.2012C173.636 13.761 175.486 10.5854 177.864 8.46829Z" fill="#FF6600"/>
<path d="M190.286 10.0566C189.757 10.0566 189.229 10.0566 188.7 10.0566C183.679 10.5859 178.922 14.0262 178.393 20.1127C178.393 20.642 178.393 21.1713 178.393 21.7005C178.393 29.3749 184.472 33.3444 190.286 33.3444C196.1 33.3444 202.179 29.3749 202.179 21.7005C202.179 14.0262 196.1 10.0566 190.286 10.0566Z" fill="#FF6600"/>
<path d="M176.278 153.753C167.293 157.193 157.514 158.781 148 158.516C138.486 158.252 129.236 156.135 120.778 152.43C116.286 150.313 112.057 147.931 108.093 145.02V160.369C111 161.427 113.907 162.486 116.814 163.545C127.121 166.72 137.957 167.514 148.528 166.456C158.836 165.397 169.143 162.486 178.393 157.458C187.378 152.695 195.307 146.343 201.65 138.404C193.986 145.02 185.528 150.313 176.278 153.753Z" fill="#FF6600"/>
<path d="M90.3856 176.776C88.2713 176.776 86.6856 177.835 85.6285 179.158V171.748H81.3999V191.86H85.6285V190.008C86.6856 191.331 88.007 192.125 90.3856 192.125C93.8213 192.125 97.257 189.479 97.257 184.45C96.9928 179.422 93.8213 176.776 90.3856 176.776ZM92.7642 184.45C92.7642 186.832 91.1785 188.685 89.0642 188.685C86.9499 188.685 85.3642 187.097 85.3642 184.45C85.3642 182.069 86.9499 180.216 89.0642 180.216C91.1785 180.216 92.7642 182.069 92.7642 184.45Z" fill="#521BC7"/>
<path d="M98.5786 195.301L99.9 192.39C100.429 192.654 101.221 192.919 101.75 192.919C102.543 192.919 102.807 192.654 103.336 191.861L97.5215 177.041H102.014L105.45 187.097L108.621 177.041H113.114L107.3 192.125C106.243 195.036 104.921 196.359 102.279 196.359C101.221 196.359 99.9 196.095 98.5786 195.301Z" fill="#521BC7"/>
<path d="M136.9 195.565C136.9 192.124 133.993 189.214 130.293 189.214C126.593 189.214 123.686 192.124 123.686 195.565C123.686 199.005 126.593 201.916 130.293 201.916C133.993 201.916 136.9 199.005 136.9 195.565ZM188.964 195.565C188.964 192.124 186.057 189.214 182.357 189.214C178.657 189.214 175.75 192.124 175.75 195.565C175.75 199.005 178.657 201.916 182.357 201.916C186.057 201.916 188.964 199.005 188.964 195.565ZM193.193 195.565C193.193 201.387 188.436 206.15 182.357 206.15C176.278 206.15 171.521 201.387 171.521 195.565C171.521 189.743 176.278 184.979 182.357 184.979C188.436 184.979 193.193 189.743 193.193 195.565ZM141.128 195.565C141.128 201.387 136.371 206.15 130.293 206.15C124.214 206.15 119.457 201.387 119.457 195.565C119.457 189.743 124.214 184.979 130.293 184.979C136.371 184.979 141.128 189.743 141.128 195.565ZM195.571 208.532V182.598H180.771C179.186 182.598 175.75 182.862 172.578 186.832L165.443 195.829L170.993 202.974C171.786 203.768 171.521 205.092 170.728 205.885C169.671 206.679 168.35 206.415 167.557 205.621L162.536 199.27L158.836 204.033L157.778 205.621C157.514 205.885 156.986 206.15 156.721 206.415C156.193 206.679 155.4 206.415 154.871 206.15C153.814 205.356 153.814 204.033 154.607 203.239L156.721 200.593L160.157 196.094L157.778 193.183L160.421 189.743L162.8 192.918L168.614 185.509C168.878 185.244 169.936 183.656 171.257 183.392H117.343V209.061H132.671C134.521 209.061 137.428 208.267 140.336 204.827L147.207 195.829L141.657 188.684C140.864 187.89 141.128 186.567 141.921 185.773C142.978 184.979 144.3 185.244 145.093 186.038L150.114 192.389L153.814 187.626L154.871 186.038C155.136 185.773 155.664 185.509 155.928 185.244C156.986 184.979 158.307 185.509 158.571 186.832C158.571 187.096 158.571 187.361 158.571 187.626C158.571 188.155 158.307 188.42 158.043 188.684L155.928 191.331L152.493 195.829L154.871 198.74L152.228 202.181L149.85 199.005L144.036 206.415C143.771 206.679 142.714 208.267 141.393 208.532H195.571Z" fill="#E1251B"/>
<path d="M197.95 212.502C197.95 211.443 198.743 210.385 200.064 210.385C201.122 210.385 202.179 211.179 202.179 212.502C202.179 213.56 201.386 214.619 200.064 214.619C198.743 214.619 197.95 213.825 197.95 212.502ZM201.386 212.502C201.386 211.443 200.593 210.914 199.8 210.914C199.007 210.914 198.214 211.708 198.214 212.502C198.214 213.296 199.007 214.09 199.8 214.09C200.593 214.09 201.386 213.56 201.386 212.502ZM199.007 211.443H199.8C200.329 211.443 200.593 211.708 200.593 211.973C200.593 212.237 200.329 212.502 200.064 212.502L200.593 213.56H200.064L199.536 212.502H199.272V213.56H198.743L199.007 211.443ZM199.536 212.502H199.8C200.064 212.502 200.329 212.502 200.329 212.237C200.329 211.973 200.064 211.973 199.8 211.973H199.536V212.502Z" fill="#E1251B"/>
<path d="M191.078 176.246H121.571C119.193 176.246 117.343 178.099 117.343 180.48H195.571C195.571 178.099 193.457 176.246 191.078 176.246Z" fill="#FFC741"/>
<path d="M121.571 214.883H191.078C193.457 214.883 195.307 213.03 195.307 210.648H117.343C117.343 213.03 119.193 214.883 121.571 214.883Z" fill="#FFC741"/>
</g>
<defs>
<clipPath id="clip0_316_1760">
<rect width="296" height="217" fill="white"/>
</clipPath>
</defs>
</svg>
