<svg width="243" height="207" viewBox="0 0 243 207" fill="none" xmlns="http://www.w3.org/2000/svg">
<path d="M45.9398 68.2305L85.0298 157.56C85.6298 158.03 86.9099 155.36 87.1599 154.86C92.8899 143.55 97.1698 130.75 102.6 119.22L80.5499 68.2305H117.77L156.49 157.56L197.05 68.2305H233.9L175.87 200.39L137.96 200.65L120.76 162.03L103.29 200.79L66.7798 200L9.08984 68.2305H45.9398Z" fill="#1C61AB"/>
<path d="M98.8099 20.1903C99.6099 12.9803 94.4599 8.94031 87.7299 8.57031H75.3599V48.3503H79.9899V30.2503H85.0899L96.7199 48.3503H102.51L89.8899 29.3603C94.3099 28.2303 98.2899 24.9403 98.8199 20.1903H98.8099ZM79.9899 26.2503V12.5703C81.8999 12.6303 83.8199 12.4903 85.7299 12.5703C89.0999 12.7003 92.8299 13.3103 93.8299 17.1003C94.6899 20.3503 93.4699 23.5303 90.5199 25.1503C87.3699 26.8803 83.4499 26.0603 79.9999 26.2503H79.9899Z" fill="black"/>
<path d="M49.3702 8.63031L36.4302 48.3503H41.1602L45.7302 34.4503H58.7202L63.0402 48.3503H67.8802L54.8702 8.57031L49.3502 8.62031L49.3702 8.63031ZM46.9602 30.4603L52.1702 14.0503L57.2702 30.4603H46.9602Z" fill="black"/>
<path d="M228.49 8.57055L222.97 8.62055L210.03 48.3405H214.76L219.33 34.4405H232.32L236.64 48.3405H241.48L228.47 8.56055L228.49 8.57055ZM220.56 30.4605L225.77 14.0505L230.87 30.4605H220.56Z" fill="black"/>
<path d="M150.8 28.8801H166.17V24.8901H150.8V12.5801H166.8V8.58008H146.17V48.3501H166.9V44.3501H150.8V28.8801Z" fill="black"/>
<path d="M2.77002 12.2101L2.92002 12.3601H15.08V48.3501H19.71V12.3601H31.86L32.02 12.2101V8.58008H2.77002V12.2101Z" fill="black"/>
<path d="M176.37 12.2101L176.53 12.3601H188.68V48.3501H193.31V12.3601H205.46L205.62 12.2101V8.58008H176.37V12.2101Z" fill="black"/>
<path d="M123.97 8.58008V39.1501C123.97 39.5301 123.65 40.8001 123.52 41.2201C122.37 44.8601 118.96 45.2801 115.61 44.9801C113.68 44.8101 111.79 44.2101 110.04 43.4101L108.63 46.9501C108.6 47.0801 108.69 47.1201 108.78 47.1801C109.14 47.4201 110.4 47.8701 110.87 48.0301C118.65 50.6901 128.16 48.8201 128.6 39.1401V8.58008H123.97Z" fill="black"/>
</svg>
