<svg width="92" height="16" viewBox="0 0 92 16" fill="none" xmlns="http://www.w3.org/2000/svg">
<g clip-path="url(#clip0_3303_26686)">
<path d="M74.3893 2.88962C70.6904 2.88962 68.4801 5.10259 68.4801 8.84416C68.4801 12.5854 70.6904 14.7984 74.3893 14.7984C78.0872 14.7984 80.275 12.5854 80.275 8.84416C80.275 5.10259 78.0872 2.88962 74.3893 2.88962ZM74.3893 12.403C72.5842 12.403 71.525 11.08 71.525 8.84416C71.525 6.60804 72.5842 5.26229 74.3893 5.26229C76.193 5.26229 77.2526 6.60804 77.2526 8.84416C77.2526 11.08 76.193 12.403 74.3893 12.403ZM91.9344 11.0341C91.9344 13.3839 90.018 14.7983 86.7928 14.7983C83.5459 14.7983 81.6512 13.3384 81.6512 10.8516H84.4249C84.4249 12.1292 85.3048 12.882 86.7928 12.882C88.236 12.882 89.0702 12.3345 89.0702 11.3764C89.0702 10.1671 87.7402 9.93905 86.2516 9.6882C84.2895 9.3688 81.9442 8.98103 81.9442 6.35752C81.9442 4.19034 83.7483 2.88973 86.7928 2.88973C89.8151 2.88973 91.6188 4.2812 91.6188 6.65395H88.8451C88.8451 5.44492 88.1006 4.76044 86.7928 4.76044C85.5525 4.76044 84.8084 5.26248 84.8084 6.10629C84.8084 7.13287 86.0488 7.33847 87.492 7.58914C89.499 7.93152 91.9344 8.34212 91.9344 11.0341ZM40.6272 7.47525V14.5703H37.6505V7.61211C37.6505 6.12926 36.8611 5.26239 35.5303 5.26239C34.0421 5.26239 33.1626 6.38012 33.1626 8.25083V14.5703H30.1856V7.61211C30.1856 6.12926 29.4188 5.26239 28.0883 5.26239C26.5774 5.26239 25.6977 6.38012 25.6977 8.25083V14.5703H22.7213V3.11787H25.6977V6.01632L25.6883 7.03945C25.9688 4.97285 27.3867 2.88973 29.3965 2.88973C31.4795 2.88973 32.8109 3.99584 33.1014 6.01622L33.1392 7.03945C33.4063 4.97285 34.7787 2.88973 36.7484 2.88973C39.1838 2.88973 40.6272 4.57798 40.6272 7.47525ZM66.4952 7.58914V14.5703H63.5182V7.7261C63.5182 6.17493 62.7063 5.26239 61.3079 5.26239C59.7297 5.26239 58.805 6.4256 58.805 8.36505V14.5703H55.8284V3.11798H58.805V6.01622L58.8007 7.03945C59.0914 4.97714 60.5082 2.88973 62.526 2.88973C65.0294 2.88973 66.4952 4.62367 66.4952 7.58914ZM20.6047 7.95233H20.6035C20.2956 4.73681 18.2867 2.88983 15.0981 2.88983C11.58 2.88983 9.50539 5.07994 9.50539 8.84388C9.50539 12.5854 11.58 14.7985 15.0981 14.7985C18.097 14.7985 20.1464 13.2712 20.6154 10.6653H17.7105C17.3692 11.8141 16.4284 12.5172 15.098 12.5172C13.6219 12.5172 12.664 11.1785 12.4348 9.32468H20.6462V8.84388C20.6462 8.54773 20.6319 8.26225 20.6063 7.98587L20.6047 7.95233ZM12.4283 7.95233C12.6555 6.10459 13.615 5.14807 15.0981 5.14807C16.5592 5.14807 17.5186 6.10459 17.7244 7.95233H12.4283ZM53.712 7.95233H53.7105C53.4029 4.73681 51.394 2.88983 48.2052 2.88983C44.6872 2.88983 42.6126 5.07994 42.6126 8.84388C42.6126 12.5854 44.6872 14.7985 48.2052 14.7985C51.2044 14.7985 53.2538 13.2712 53.7228 10.6653H50.8175C50.4764 11.8141 49.5356 12.5172 48.2052 12.5172C46.7292 12.5172 45.7711 11.1785 45.5419 9.32468H53.7535V8.84388C53.7535 8.54773 53.7389 8.26248 53.7134 7.9862L53.712 7.95233ZM45.5355 7.95233C45.7626 6.10459 46.7222 5.14807 48.2052 5.14807C49.6663 5.14807 50.6259 6.10459 50.8317 7.95233H45.5355ZM4.85048 3.11787H8.36856V5.19398H4.85048V10.7146C4.85048 11.7868 5.52679 12.4032 6.65471 12.4032C7.1961 12.4032 7.7598 12.266 8.1655 12.038V14.2739C7.48899 14.5929 6.56432 14.7986 5.70744 14.7986C3.29449 14.7986 1.87362 13.4299 1.87362 11.1028V5.19398H0V3.11787H1.87362V0.234375H4.85048V3.11787Z" fill="#293276"/>
</g>
<defs>
<clipPath id="clip0_3303_26686">
<rect width="92" height="15.0974" fill="white"/>
</clipPath>
</defs>
</svg>
