<svg width="292" height="68" viewBox="0 0 292 68" fill="none" xmlns="http://www.w3.org/2000/svg">
<path d="M51.51 13.5276C49.1906 12.0627 47.2839 10.0583 45.9629 7.69608C44.6423 5.33385 43.9489 2.68851 43.9462 0H32.0087L31.9886 46.5001C31.913 48.411 31.2611 50.2578 30.1136 51.8112C28.9663 53.3645 27.3741 54.5553 25.5355 55.2357C23.6968 55.916 21.6929 56.0559 19.7731 55.6376C17.8534 55.2194 16.1026 54.2613 14.7388 52.8831C13.375 51.5049 12.4583 49.7675 12.103 47.8868C11.7477 46.0062 11.9694 44.0654 12.7405 42.3063C13.5117 40.5472 14.7981 39.0472 16.4398 37.9934C18.0814 36.9395 20.0057 36.3783 21.9731 36.3795C22.9779 36.3825 23.9763 36.5346 24.9339 36.8301V24.9855C23.953 24.8508 22.9638 24.7807 21.9731 24.7757C9.85689 24.7757 0 34.3572 0 46.1331C0 48.9374 0.568351 51.7145 1.6726 54.3054C2.77686 56.8966 4.39537 59.2507 6.43579 61.2339C8.47618 63.2168 10.8985 64.79 13.5644 65.8631C16.2303 66.9366 19.0876 67.4888 21.9731 67.4888C24.8587 67.4888 27.716 66.9366 30.3819 65.8631C33.0478 64.79 35.47 63.2168 37.5104 61.2339C39.5508 59.2507 41.1694 56.8966 42.2737 54.3054C43.3779 51.7145 43.9462 48.9374 43.9462 46.1331V22.5536C48.7851 25.9354 54.5959 27.7516 60.5559 27.7451V16.1413C57.3434 16.1438 54.1996 15.2355 51.51 13.5276Z" fill="black"/>
<path d="M71.9336 16.1973H109.579L106.129 26.6588H96.3501V65.3619H84.1865V26.6588L71.9422 26.6818L71.9336 16.1973Z" fill="black"/>
<path d="M171.265 16.1973H209.78L206.324 26.6588H195.702V65.3619H183.514V26.6588L171.27 26.6818L171.265 16.1973Z" fill="black"/>
<path d="M111.884 31.8359H123.955L123.942 65.3625H111.957L111.884 31.8359Z" fill="black"/>
<path d="M128.744 16.0586H140.801V38.9482L152.749 27.5525H167.14L152.027 41.8095L168.954 65.3559H155.671L144.374 49.0264L140.801 52.4038V65.3494H128.744V16.0586Z" fill="black"/>
<path d="M251.328 16.0586H263.385V38.9482L275.333 27.5525H289.724L274.611 41.8095L291.538 65.3559H278.255L266.958 49.0264L263.385 52.4038V65.3494H251.328V16.0586Z" fill="black"/>
<path d="M117.913 28.0029C121.268 28.0029 123.988 25.3595 123.988 22.0986C123.988 18.8378 121.268 16.1943 117.913 16.1943C114.558 16.1943 111.838 18.8378 111.838 22.0986C111.838 25.3595 114.558 28.0029 117.913 28.0029Z" fill="black"/>
<path d="M225.781 25.2236C221.697 25.2223 217.703 26.3983 214.307 28.6027C210.91 30.8072 208.262 33.9412 206.698 37.6082C205.134 41.2752 204.725 45.3107 205.52 49.2042C206.316 53.0976 208.283 56.6745 211.17 59.4818C214.058 62.2891 217.737 64.2012 221.743 64.9761C225.749 65.751 229.901 65.3541 233.675 63.8351C237.448 62.3164 240.674 59.7442 242.943 56.4436C245.212 53.143 246.424 49.2626 246.424 45.2929C246.424 39.9714 244.249 34.8676 240.378 31.1042C236.507 27.3406 231.256 25.2254 225.781 25.2236ZM225.781 55.0482C223.795 55.0485 221.854 54.4767 220.203 53.4045C218.552 52.3325 217.265 50.8088 216.505 49.026C215.745 47.2429 215.546 45.281 215.933 43.3882C216.32 41.4954 217.277 39.7568 218.68 38.3923C220.084 37.0275 221.873 36.0981 223.821 35.7219C225.768 35.3454 227.787 35.5387 229.622 36.2775C231.456 37.0162 233.024 38.2669 234.127 39.8718C235.23 41.4765 235.818 43.363 235.818 45.2929C235.818 47.8799 234.76 50.3612 232.878 52.1905C230.996 54.0199 228.443 55.0479 225.781 55.0482Z" fill="black"/>
</svg>
