<svg width="340" height="104" viewBox="0 0 340 104" fill="none" xmlns="http://www.w3.org/2000/svg">
<path d="M144.747 34.0878H134.959V44.1007H144.747V65.9736C144.747 76.8615 151.865 83.0831 162.742 83.0831H170.75V72.2925H164.125C159.577 72.2925 156.908 69.765 156.908 64.8071V44.1007H170.75V34.0878H156.908V19.3115H144.747V34.0878Z" fill="#32313B"/>
<path d="M176.417 26.4086H189.864V12.7988H176.417V26.4086ZM189.172 83.0837V34.0884H177.01V83.0837H189.172Z" fill="#32313B"/>
<path d="M208.787 83.0845V56.351C208.787 49.1572 213.533 43.9077 220.355 43.9077C226.584 43.9077 230.736 48.574 230.736 55.2817V83.0845H242.897V52.7541C242.897 41.283 235.581 33.3115 224.31 33.3115C217.191 33.3115 211.555 36.3252 208.787 41.6719V34.0892H196.626V83.0845H208.787Z" fill="#32313B"/>
<path d="M284.633 66.7528C283.348 71.419 279.294 73.9465 273.065 73.9465C265.353 73.9465 260.212 68.8914 259.322 61.0172H296.102C296.201 60.0451 296.3 58.5869 296.3 56.9343C296.3 45.2688 288.785 33.3115 272.077 33.3115C255.763 33.3115 247.655 45.4632 247.655 58.3925C247.655 71.2245 256.751 83.8622 273.065 83.8622C285.325 83.8622 294.619 77.1546 296.497 66.7528H284.633ZM272.077 42.2551C279.294 42.2551 283.644 46.9214 284.139 53.143H259.619C260.904 45.7548 265.254 42.2551 272.077 42.2551Z" fill="#32313B"/>
<path d="M320.713 83.8622C332.379 83.8622 339.992 77.835 339.992 68.5998C339.992 46.4353 312.309 58.1008 312.309 47.5046C312.309 44.1994 315.176 42.2551 319.526 42.2551C323.382 42.2551 327.634 44.5882 328.325 49.1572H339.399C338.904 39.6304 330.896 33.3115 319.23 33.3115C308.947 33.3115 301.334 39.3387 301.334 47.8935C301.334 68.5998 328.623 58.1981 328.623 69.0858C328.623 72.0022 325.459 74.3354 320.713 74.3354C315.275 74.3354 311.617 71.419 311.122 66.7528H300.049C300.642 77.2517 308.651 83.8622 320.713 83.8622Z" fill="#32313B"/>
<path fill-rule="evenodd" clip-rule="evenodd" d="M37.5391 0C25.0531 0 14.0132 7.96617 10.2765 19.6722L0 51.8654L10.2765 84.0587C14.0132 95.7645 25.0531 103.731 37.5391 103.731H65.2206C77.7065 103.731 88.7466 95.7645 92.4831 84.0587L102.76 51.8654L92.4831 19.6722C88.7466 7.96617 77.7065 0 65.2206 0H37.5391ZM65.221 8.09212C74.108 8.09212 81.9657 13.7621 84.6253 22.0939L87.1448 29.9867C82.0763 25.8728 75.658 23.5574 68.9496 23.5569L33.735 23.5559C27.0718 23.5564 20.6948 25.8409 15.6424 29.9031L18.1352 22.0939C20.7949 13.7621 28.6525 8.09212 37.5395 8.09212H65.221ZM17.5433 39.5429L11.1446 47.8196H91.5398L85.1414 39.5438C81.2963 34.5703 75.3056 31.6495 68.949 31.6489H33.5433C27.2584 31.7077 21.3496 34.6196 17.5433 39.5429ZM91.5266 55.9117L85.1408 64.1798C81.2954 69.1589 75.3004 72.0832 68.9392 72.0827L33.7445 72.0818C27.3833 72.0822 21.3883 69.1581 17.5429 64.179L11.158 55.9117H91.5266ZM18.1347 81.6369C20.7943 89.9685 28.6521 95.6391 37.539 95.6391H65.2205C74.1075 95.6391 81.9652 89.9685 84.6248 81.6369L87.1461 73.7384C82.0753 77.8572 75.6521 80.1753 68.9386 80.1748L33.7452 80.1739C27.0764 80.1744 20.6942 77.8871 15.6393 73.8197L18.1347 81.6369Z" fill="#32313B"/>
</svg>
