<svg width="377" height="100" viewBox="0 0 377 100" fill="none" xmlns="http://www.w3.org/2000/svg">
<g clip-path="url(#clip0_316_1744)">
<path d="M57.3041 68.3013C56.3616 67.5466 55.2306 66.9805 53.9111 66.6031C52.5916 66.2258 51.2721 66.0371 50.1411 66.0371C49.1986 66.0371 48.2561 66.2258 47.3136 66.4145C46.3711 66.6032 45.4286 66.9805 44.6746 67.3579C43.9206 67.7352 43.1666 68.3013 42.4126 69.056C41.6586 69.8107 41.2816 70.5654 40.9046 71.3201C40.9046 69.9994 40.5276 69.056 39.7736 68.3013C39.2081 67.5466 38.2656 66.9805 37.3231 66.6031C36.3806 66.2258 35.2496 66.0371 34.1186 66.0371C32.9876 66.0371 31.8566 66.2258 30.5371 66.4145V71.3201C31.2911 71.3201 32.0451 71.3201 32.4221 71.5088C32.9876 71.6975 33.1761 71.8861 33.3646 72.2635C33.5531 72.6409 33.7416 73.0182 33.7416 73.5843C33.7416 74.1503 33.7416 74.7164 33.7416 75.4711V98.3013H40.9046V79.9994C40.9046 78.6786 41.0931 77.5466 41.6586 76.6032C42.0356 75.6598 42.6011 74.905 43.3551 74.339C44.1091 73.7729 45.0516 73.2069 45.9941 73.0183C46.9366 72.8296 48.0676 72.4522 49.0101 72.4522C50.8951 72.4522 52.5916 72.8296 54.0996 73.5843L57.3041 68.3013Z" fill="#00A6CA"/>
<path d="M88.7834 93.3964C88.2179 93.2077 88.0294 92.8303 87.8409 92.453C87.6524 92.0756 87.4638 91.5096 87.4638 90.9436C87.4638 90.3775 87.4638 89.8115 87.4638 89.0568V69.0568C85.3903 68.1134 83.3168 67.3586 81.0548 66.9813C78.9813 66.4152 76.7193 66.2266 74.4573 66.2266C71.8183 66.2266 69.5563 66.6039 67.2943 67.3586C65.2208 68.1134 63.3358 69.2454 61.6393 70.7549C59.9428 72.2643 58.8118 73.9624 57.8693 76.2265C56.9268 78.302 56.3613 80.7549 56.3613 83.3964C56.3613 85.6605 56.5498 87.736 57.3038 89.6228C57.8693 91.5096 58.8118 93.2077 59.9428 94.7171C61.0738 96.2266 62.5818 97.3586 64.4668 98.1133C66.3518 98.8681 68.4253 99.2454 70.6873 99.2454C72.9493 99.2454 75.2113 98.6794 77.2848 97.3586C79.3583 96.2266 80.8663 94.5284 81.6203 92.2643C81.6203 93.9624 81.8088 95.2832 82.3743 96.2266C82.9398 97.1699 83.5053 97.9247 84.4478 98.302C85.3903 98.8681 86.3328 99.0567 87.4638 99.0567C88.5948 99.0567 89.7258 99.0567 90.8568 98.6794V93.3964C89.9143 93.585 89.1604 93.585 88.7834 93.3964ZM80.4893 82.453C80.4893 85.4719 79.7353 87.736 78.2273 89.6228C76.9078 91.5096 74.8343 92.453 72.1953 92.453C69.1793 92.453 67.1058 91.5096 65.5978 89.8115C64.0898 88.1134 63.5243 85.8492 63.5243 82.8303C63.5243 81.1322 63.9013 79.6228 64.4668 78.1133C65.0323 76.7926 65.5978 75.4718 66.5403 74.5284C67.4828 73.585 68.4253 72.8303 69.7448 72.2643C70.8758 71.6982 72.3838 71.5096 73.8918 71.5096C74.8343 71.5096 75.9653 71.5096 77.0963 71.6982C78.2273 71.8869 79.3583 72.2643 80.4893 72.6416V82.453Z" fill="#00A6CA"/>
<path d="M122.902 69.9994C121.96 68.8673 120.64 67.9239 118.944 67.1692C117.436 66.4145 115.551 66.0371 113.289 66.0371C112.158 66.0371 111.215 66.0371 110.084 66.2258C108.953 66.4145 108.011 66.7918 107.068 67.1692C106.126 67.5466 105.183 68.1126 104.429 68.8673C103.675 69.622 102.921 70.3767 102.544 71.5088C102.544 69.9994 102.167 68.8673 101.602 68.1126C101.036 67.3579 100.282 66.7918 99.3397 66.4145C98.3972 66.2258 97.2662 66.0371 96.1352 66.0371C95.0042 66.0371 93.6847 66.2258 92.5537 66.4145V71.3201C93.3077 71.3201 94.0617 71.3201 94.4387 71.5088C95.0042 71.6975 95.1927 71.8861 95.3812 72.2635C95.5697 72.6409 95.7582 73.0182 95.7582 73.5843C95.7582 74.1503 95.7582 74.9051 95.7582 75.8485V98.3013H102.921V80.3767C102.921 79.056 103.11 77.9239 103.487 76.9805C103.864 75.8484 104.429 75.0937 105.183 74.339C105.937 73.5843 106.691 73.0182 107.634 72.6409C108.576 72.2635 109.707 72.0749 110.838 72.0749C112.912 72.0749 114.797 72.8295 116.116 74.1503C117.624 75.471 118.19 77.5465 118.19 79.9994V98.49H125.353V79.9994C125.353 78.1126 125.164 76.2258 124.599 74.5277C124.787 72.6409 124.033 71.3201 122.902 69.9994Z" fill="#00A6CA"/>
<path d="M154.947 81.8854C153.816 81.1307 152.308 80.7533 150.8 80.376C149.292 79.9986 147.595 79.81 145.899 79.6213C143.448 79.2439 141.563 78.8665 140.244 78.4892C138.924 77.9232 138.359 77.1684 138.359 75.8477C138.359 75.093 138.547 74.5269 138.924 73.9609C139.301 73.3949 139.678 73.0175 140.432 72.6401C140.998 72.2628 141.752 71.8854 142.506 71.6967C143.26 71.508 144.202 71.3193 144.956 71.3193C145.71 71.3193 146.653 71.3194 147.407 71.508C148.349 71.6967 149.103 71.8854 149.669 72.2627C150.423 72.6401 150.8 73.0175 151.365 73.5835C151.742 74.1496 152.119 74.7156 152.119 75.4703H158.34C158.34 73.9609 158.151 72.4514 157.397 71.3193C156.643 70.1873 155.701 69.2439 154.57 68.3005C153.25 67.5458 151.931 66.7911 150.234 66.4137C148.538 66.0364 146.841 65.8477 144.956 65.8477C143.26 65.8477 141.563 66.0364 139.867 66.4137C138.17 66.7911 136.851 67.3571 135.531 68.3005C134.212 69.0552 133.269 70.1873 132.515 71.3193C131.761 72.4514 131.384 73.9609 131.384 75.659C131.384 77.5458 131.95 78.8665 132.704 79.9986C133.646 81.1307 134.589 81.8854 135.908 82.4515C137.228 83.0175 138.736 83.3948 140.432 83.7722C142.129 83.9609 143.637 84.3382 145.333 84.5269C147.407 84.7156 149.103 85.2816 150.423 85.8477C151.742 86.4137 152.308 87.3571 152.308 88.8665C152.308 89.8099 152.119 90.5646 151.554 91.3194C150.988 91.8854 150.423 92.4515 149.857 92.8288C149.103 93.2062 148.349 93.3948 147.407 93.5835C146.464 93.7722 145.71 93.7722 144.768 93.7722C143.825 93.7722 143.071 93.5835 142.129 93.5835C141.375 93.3948 140.621 93.0175 139.867 92.6401C139.113 92.2628 138.736 91.6967 138.17 91.1307C137.793 90.5646 137.416 89.81 137.416 89.0552H130.442C130.63 90.942 131.007 92.6401 131.95 93.9609C132.892 95.2816 133.835 96.225 135.343 96.9797C136.662 97.7344 138.17 98.3005 139.867 98.6778C141.563 99.0552 143.26 99.2439 144.956 99.2439C146.653 99.2439 148.349 99.0552 150.046 98.6778C151.742 98.3005 153.25 97.7344 154.381 96.791C155.512 95.8476 156.643 94.9043 157.397 93.7722C158.151 92.4515 158.528 90.942 158.528 89.2439C158.528 87.3571 158.151 85.8477 157.397 84.7156C157.02 83.3948 156.078 82.6401 154.947 81.8854Z" fill="#00A6CA"/>
<path d="M234.871 69.9994C233.928 68.8673 232.609 67.9239 230.912 67.1692C229.404 66.4145 227.519 66.0371 225.257 66.0371C224.126 66.0371 223.184 66.0371 222.053 66.2258C220.922 66.4145 219.979 66.7918 219.037 67.1692C218.094 67.5466 217.152 68.1126 216.398 68.8673C215.644 69.622 214.89 70.3767 214.513 71.5088C214.513 69.9994 214.136 68.8673 213.57 68.1126C213.005 67.3579 212.251 66.7918 211.308 66.4145C210.366 66.2258 209.235 66.0371 208.104 66.0371C206.973 66.0371 205.653 66.2258 204.711 66.4145V71.3201C205.465 71.3201 206.219 71.3201 206.596 71.5088C207.161 71.6975 207.35 71.8861 207.538 72.2635C207.727 72.6409 207.915 73.0182 207.915 73.5843C207.915 74.1503 207.915 74.9051 207.915 75.8485V98.3013H215.078V80.3767C215.078 79.056 215.267 77.9239 215.644 76.9805C216.021 75.8484 216.586 75.0937 217.34 74.339C218.094 73.5843 218.848 73.0182 219.791 72.6409C220.733 72.2635 221.864 72.0749 222.995 72.0749C225.069 72.0749 226.954 72.8295 228.273 74.1503C229.781 75.471 230.347 77.5465 230.347 79.9994V98.49H237.51V79.9994C237.51 78.1126 237.321 76.2258 236.756 74.5277C236.756 72.6409 236.002 71.3201 234.871 69.9994Z" fill="#00A6CA"/>
<path d="M247.501 52.8301C246.37 52.8301 245.427 53.2074 244.485 53.9622C243.542 54.7169 243.165 55.6602 243.165 57.1697C243.165 58.6791 243.731 59.6225 244.485 60.3772C245.427 61.132 246.37 61.5093 247.501 61.3206C248.632 61.3206 249.574 60.9433 250.328 60.1886C251.271 59.4338 251.648 58.4905 251.648 56.981C251.648 55.4716 251.271 54.5282 250.328 53.7735C249.574 53.0188 248.632 52.8301 247.501 52.8301Z" fill="#00A6CA"/>
<path d="M251.082 66.791H243.919V98.4892H251.082V66.791Z" fill="#00A6CA"/>
<path d="M284.446 70.1888C282.938 68.8681 281.053 67.9247 278.98 67.17C276.906 66.4152 274.833 66.2266 272.571 66.2266C270.497 66.2266 268.424 66.6039 266.539 67.17C264.654 67.9247 262.769 68.8681 261.261 70.1888C259.753 71.5096 258.433 73.2077 257.491 75.2831C256.548 77.3586 255.983 79.6228 255.983 82.453C255.983 85.2832 256.548 87.736 257.491 89.6228C258.433 91.6983 259.753 93.3963 261.261 94.9058C262.769 96.2265 264.654 97.3586 266.539 97.9247C268.612 98.6794 270.497 98.8681 272.759 98.8681C274.833 98.8681 276.906 98.4907 278.98 97.9247C281.053 97.3586 282.75 96.2265 284.258 94.9058C285.766 93.585 287.085 91.8869 288.028 89.6228C288.97 87.5473 289.536 85.0945 289.536 82.453C289.536 79.6228 288.97 77.3586 288.028 75.2831C287.274 73.2077 285.954 71.5096 284.446 70.1888ZM281.619 86.9813C281.053 88.302 280.299 89.2454 279.545 90.1888C278.791 91.1322 277.66 91.6982 276.529 92.0756C275.398 92.4529 274.267 92.8303 273.136 92.8303C272.005 92.8303 270.686 92.6416 269.555 92.2643C268.424 91.8869 267.293 91.1322 266.539 90.3775C265.596 89.4341 264.842 88.4907 264.277 87.17C263.711 85.8492 263.523 84.3397 263.523 82.6416C263.523 80.9435 263.711 79.6228 264.277 78.302C264.842 76.9813 265.408 76.0379 266.35 75.2831C267.293 74.5284 268.235 73.7737 269.366 73.3964C270.497 73.019 271.628 72.8303 272.759 72.6416C273.89 72.6416 275.21 72.8303 276.341 73.2077C277.472 73.585 278.603 74.1511 279.545 75.0945C280.488 75.8492 281.242 76.9813 281.807 78.302C282.373 79.6228 282.75 81.1322 282.75 82.8303C282.561 84.1511 282.184 85.6605 281.619 86.9813Z" fill="#00A6CA"/>
<path d="M0 59.2436V52.4512H34.1185V59.2436H20.735V98.489H13.195V59.2436H0Z" fill="#00A6CA"/>
<path d="M164.372 83.0172V52.4512H171.912V82.8285C171.912 88.8663 176.436 92.2625 182.28 92.2625C188.123 92.2625 192.459 88.8663 192.459 82.8285V52.4512H199.999V83.0172C199.999 93.2059 191.893 99.055 182.28 99.055C172.478 99.055 164.372 93.2059 164.372 83.0172Z" fill="#00A6CA"/>
<path d="M325.162 90.942V85.8477V79.6213C325.162 77.7345 324.974 75.8476 324.408 74.1495C323.843 72.4514 323.089 71.1307 322.146 69.8099C321.204 68.6779 319.884 67.7345 318.188 66.9797C316.68 66.225 314.795 65.8477 312.533 65.8477C311.402 65.8477 310.459 65.8477 309.328 66.0363C308.197 66.225 307.255 66.6024 306.312 66.9797C305.37 67.3571 304.427 67.9231 303.673 68.6778C302.919 69.4326 302.165 70.1873 301.788 71.3193C301.788 69.8099 301.411 68.6779 300.846 67.9231C300.28 67.1684 299.526 66.6024 298.584 66.225C297.641 66.0364 296.51 65.8477 295.379 65.8477C294.248 65.8477 292.929 66.0364 291.986 66.225V71.1307C292.74 71.1307 293.494 71.1307 293.871 71.3193C294.437 71.508 294.625 71.6967 294.814 72.0741C295.002 72.4515 295.191 72.8288 295.191 73.3948C295.191 73.9609 295.191 74.7156 295.191 75.659V98.1118H302.354V80.1873C302.354 78.8665 302.542 77.7345 302.919 76.7911C303.296 75.659 303.862 74.9042 304.616 74.1495C305.37 73.3948 306.124 72.8288 307.066 72.4514C308.009 72.0741 309.14 71.8854 310.271 71.8854C312.344 71.8854 314.229 72.6401 315.549 73.9609C317.057 75.2817 317.622 77.3571 317.622 79.8099V90.5646V91.3194C317.622 99.0552 322.335 99.8099 328.555 98.6778V94.1495C325.728 94.3382 325.162 93.3949 325.162 90.942Z" fill="#00A6CA"/>
<path d="M343.824 0.753906C331.571 0.753906 320.827 7.35771 315.172 17.3577C313.098 21.32 312.721 24.7162 314.418 27.5464C316.303 30.9426 320.638 31.32 322.9 31.32H327.047L325.539 36.0369C324.597 38.8671 324.974 42.0747 326.482 44.1501C327.99 46.2256 330.252 47.3577 333.079 47.3577C334.964 47.3577 337.038 46.9803 338.923 46.2256C338.357 45.4709 337.98 44.7162 337.603 43.7728C337.415 43.0181 337.038 42.2633 337.038 41.3199C335.907 41.886 334.587 42.0746 333.268 42.0746C332.514 42.0746 331.383 41.886 330.817 40.9426C330.252 40.1879 330.063 39.0558 330.44 37.735L332.514 31.32H339.111L340.808 25.8483H334.399L337.226 16.9803H331.571L328.744 25.8483H322.712C320.827 25.8483 319.696 25.2822 319.13 24.3388C318.565 23.2067 319.13 20.9426 320.638 18.3011V18.1124C325.728 10.7539 334.022 5.84827 343.635 5.84827C358.904 5.84827 371.345 18.3011 371.345 33.5841C371.345 48.8671 358.904 61.32 343.635 61.32C330.063 61.32 318.753 51.5086 316.303 38.6784L311.025 39.8105C314.041 55.0936 327.424 66.7916 343.635 66.7916C361.92 66.7916 376.811 51.886 376.811 33.5841C377 15.6596 362.108 0.753906 343.824 0.753906Z" fill="#00A6CA"/>
<path d="M364.936 43.0182C363.616 43.0182 361.92 42.8296 360.789 42.0748C360.412 41.6975 359.846 41.3201 359.658 40.3767C359.658 39.9994 359.658 39.4334 359.846 38.8673L363.993 26.2258H358.338L354.757 37.1692C353.814 39.9994 350.798 42.2635 348.159 42.2635C347.405 42.2635 346.463 42.0749 346.086 41.3201C345.709 40.7541 345.332 39.9994 345.897 38.6786L350.044 26.0371H344.389L340.808 36.9805C339.865 39.622 340.242 42.4522 341.75 44.5277C343.258 46.4145 345.332 47.5466 348.159 47.5466C350.798 47.5466 353.626 46.4145 355.888 44.5277C356.642 45.6598 357.584 46.4145 358.904 46.9805C360.789 47.5466 361.92 47.5466 363.239 47.5466C363.805 47.5466 364.559 47.3579 364.747 47.3579C364.936 47.1692 364.936 46.9805 365.124 46.7918C365.313 46.4145 365.501 46.0372 365.69 45.6598C365.878 45.2824 366.067 44.9051 366.255 44.5277C366.444 44.1504 366.632 43.773 366.821 43.3956C367.009 43.2069 367.009 42.8296 367.198 42.6409C366.632 43.0183 365.878 43.0182 364.936 43.0182Z" fill="#00A6CA"/>
<path d="M332.514 94.716C332.514 89.0556 340.997 89.0556 340.997 94.716C340.997 100.376 332.514 100.376 332.514 94.716ZM340.243 94.716C340.243 89.8103 333.268 89.8103 333.268 94.716C333.268 99.6216 340.243 99.6216 340.243 94.716ZM338.546 96.6028L337.792 96.7914L336.661 95.282H335.719V96.7914H335.153V92.6405H336.85C337.604 92.6405 338.358 93.2065 338.358 93.9612C338.358 94.5273 337.981 95.0933 337.415 95.0933L338.546 96.6028ZM335.907 94.716H336.85C337.415 94.716 337.792 94.3386 337.792 93.9612C337.792 93.3952 337.415 93.2065 336.85 93.2065H335.907V94.716Z" fill="#00A6CA"/>
</g>
<defs>
<clipPath id="clip0_316_1744">
<rect width="377" height="100" fill="white"/>
</clipPath>
</defs>
</svg>
