<svg width="401" height="100" viewBox="0 0 401 100" fill="none" xmlns="http://www.w3.org/2000/svg">
<g clip-path="url(#clip0_316_1855)">
<path d="M0 0V77.7L65.9 100L131.6 77.7V0H0Z" fill="#D62A43"/>
<path d="M65.7 75.2H45.6V68.2H45.4C41.5 73.8 35.9 76.5 27.6 76.5C17.8 76.5 9 70.6 9 58V20.5H29.8V49.2C29.8 55.5 30.5 60 36.6 60C40.2 60 44.9 58.2 44.9 49.4V20.5H65.7V75.2ZM104.7 36.4C104.5 34.6 103.6 33.2 102.2 32.3C100.9 31.2 99.3 30.7 97.5 30.7C94.6 30.7 91.2 31.4 91.2 34.8C91.2 36.4 92.5 37.1 93.7 37.7C97.1 39.1 105 39.7 112 41.8C119 44 125.1 48.1 125.1 57.1C125.1 72.4 110.6 76.3 97.3 76.3C84.4 76.3 70.4 71.1 70 57.1H89.9C90.1 59.1 90.8 60.5 92.4 61.9C93.5 62.8 95.5 63.5 98 63.5C100.7 63.5 105 62.4 105 59.4C105 56.2 103.2 55.3 93.5 53.7C77.6 51 71.3 46 71.3 36.4C71.3 22.6 86.2 19 97.1 19C108.9 19 123.1 22.2 123.7 36.2H104.7V36.4Z" fill="white"/>
<path d="M139.1 0H160V26.6H160.2C163.4 21.9 169 19.2 175.1 19.2C193.4 19.2 198.4 34.8 198.4 47.6C198.4 61.2 190.9 76.5 175.4 76.5C165.2 76.5 161.9 72.6 159.4 69.1H159.2V75H139.1V0ZM168.4 34.3C160.9 34.3 159.2 41.3 159.2 47.8C159.2 54.3 160.8 61.4 168.4 61.4C176 61.4 177.6 54.4 177.6 47.8C177.6 41.5 175.8 34.3 168.4 34.3ZM256.6 63C256.6 67.1 256.8 71.8 259.1 75.2H237.7C237.2 73.8 236.8 71.4 237 70H236.8C232.3 75 226 76.5 219.2 76.5C208.6 76.5 200 71.5 200 60C200 42.8 220.3 43.3 230.9 41.3C233.8 40.8 236.6 39.9 236.6 36.5C236.6 32.7 233.2 31.5 229.8 31.5C223.3 31.5 222.1 34.7 222.1 37.1H202.7C203.4 21.7 218 19.1 230.9 19.1C257.1 19.1 256.8 29.9 256.8 40.5V63H256.6ZM236.6 50.6C234.1 51.9 231.2 52.6 228.3 53.3C223.6 54.4 221.3 55.5 221.3 59.2C221.3 61.7 224 64.2 227.8 64.2C232.5 64.2 236.2 61.3 236.6 55.6V50.6ZM264.1 20.5H284.2V27.5H284.4C288.3 21.9 293.9 19.2 302.2 19.2C312.1 19.2 321.1 25.1 321.1 37.7V75.2H300.1V46.5C300.1 40.2 299.4 35.7 293.3 35.7C289.7 35.7 285 37.5 285 46.3V75.2H264.2V20.5H264.1ZM328.4 0H349.2V36.3L362.5 20.5H386L366.4 41.1L389 75.2H363.9L352.8 55.5L349 59.4V75.2H328.2V0H328.4ZM398.4 67.7C399.1 68.4 399.7 69.5 399.7 70.6C399.7 71.7 399.3 72.8 398.4 73.5C397.7 74.2 396.6 74.8 395.5 74.8C394.4 74.8 393.3 74.4 392.6 73.5C391.9 72.8 391.3 71.7 391.3 70.6C391.3 69.5 391.7 68.4 392.6 67.7C393.3 67 394.4 66.4 395.5 66.4C396.6 66.6 397.7 67 398.4 67.7ZM398.9 67.3C398 66.4 396.9 65.9 395.5 65.9C394.2 65.9 393.2 66.4 392.1 67.3C391.2 68.2 390.7 69.3 390.7 70.7C390.7 72 391.2 73.2 392.1 74.1C393 75 394.1 75.5 395.5 75.5C396.8 75.5 397.8 75 398.9 74.1C399.8 73.2 400.3 72.1 400.3 70.7C400.2 69.3 399.8 68.2 398.9 67.3ZM396.2 70.4C396 70.4 395.7 70.6 395.3 70.6H394.4V68.8H395.1C395.6 68.8 396 68.8 396.2 69C396.4 69.2 396.6 69.4 396.6 69.7C396.8 70 396.6 70.2 396.2 70.4ZM393.5 73.2H394.4V71.2H395.1C395.6 71.2 396 71.2 396.2 71.4C396.6 71.6 396.7 71.9 396.7 72.7V73.2H397.6V72.1C397.6 71.9 397.4 71.6 397.2 71.4C397 71 396.7 71 396.3 70.9C396.7 70.9 396.8 70.7 397 70.7C397.4 70.5 397.5 70.2 397.5 69.6C397.5 68.9 397.3 68.5 396.8 68.3C396.4 68.1 396.1 68.1 395.4 68.1H393.6V73.1H393.5V73.2Z" fill="#1B3281"/>
</g>
<defs>
<clipPath id="clip0_316_1855">
<rect width="400.4" height="100" fill="white"/>
</clipPath>
</defs>
</svg>
