<svg width="429" height="130" viewBox="0 0 429 130" fill="none" xmlns="http://www.w3.org/2000/svg">
<g clip-path="url(#clip0_316_1702)">
<mask id="mask0_316_1702" style="mask-type:luminance" maskUnits="userSpaceOnUse" x="0" y="0" width="428" height="130">
<path d="M427.765 0H0V130H427.765V0Z" fill="white"/>
</mask>
<g mask="url(#mask0_316_1702)">
<path d="M27.1387 0L31.3139 6.07298L25.0511 42.8906L18.9781 6.07298L22.9635 0H0L4.36498 6.64235L24.6715 130L46.1169 6.07298L50.1023 0H27.1387Z" fill="#395062"/>
<path d="M54.8467 102.101V14.6124L51.4307 9.48828H70.5985L67.3722 14.6124V95.2692H77.8103L81.7957 91.6633L78.9491 107.226H51.4307L54.8467 102.101Z" fill="#395062"/>
<path d="M102.671 45.1684H112.73V21.256H102.671V45.1684ZM112.73 57.6939H102.671V102.482L105.898 107.417H86.9197L90.3358 102.482V57.6939H85.9707L90.3358 44.9786V17.0808C90.3358 15.9421 90.9052 14.8035 91.8542 13.8546C92.8029 12.9056 93.7519 12.1465 95.0805 11.5772C96.4087 11.0078 97.7373 10.4385 99.0656 10.2487C100.394 9.86914 101.723 9.86914 103.051 9.86914H113.109C114.438 9.86914 115.577 10.0589 116.905 10.2487C118.234 10.6283 119.562 11.0078 120.891 11.5772C121.46 12.1465 122.599 12.9056 123.358 13.8546C124.117 14.8035 124.686 15.9421 124.876 17.0808V102.482L128.292 107.417H109.314L112.73 102.482V57.6939Z" fill="#395062"/>
<path d="M151.066 23.3423V92.2327L153.912 92.0429C156.569 90.5248 158.657 88.2475 160.175 85.5903C161.883 82.7437 163.022 79.897 163.971 76.6707C164.92 73.4444 165.489 70.0284 165.869 66.8021C166.248 63.386 166.248 60.3495 166.248 57.3131C166.248 54.2766 166.058 51.2401 165.679 48.2036C165.299 44.7876 164.73 41.5613 163.781 38.335C162.832 35.2985 161.693 32.262 159.985 29.4153C158.657 26.9481 156.38 24.8606 153.912 23.3423H151.066ZM138.54 102.291V14.4226L135.314 9.48828H152.584C157.518 10.0576 162.073 12.335 165.679 15.9408C169.095 19.5467 171.752 23.7219 173.649 28.2766C175.547 33.2107 176.876 38.335 177.445 43.459C178.014 48.2036 178.394 53.1378 178.394 58.0723C178.394 63.1962 178.014 68.1307 177.445 73.2546C176.876 78.3789 175.547 83.3131 173.649 87.868C171.752 92.4225 168.905 96.5978 165.489 100.014C161.504 103.62 156.569 106.087 151.255 107.036H135.504L138.54 102.291Z" fill="#395062"/>
<path d="M223.752 107.606H218.628C215.591 107.606 212.745 106.657 210.277 104.949C207.81 103.051 205.533 100.774 203.825 98.1165C201.927 95.0801 200.219 92.0436 199.08 88.6275C197.752 85.2114 196.613 81.6059 195.854 78C195.095 74.5839 194.336 71.3577 193.956 67.9416C193.577 65.2847 193.387 62.6275 193.387 59.7808V55.7954C193.577 51.4306 194.146 46.6859 194.905 41.562C195.664 36.6275 196.993 31.6933 199.08 27.1386C200.978 22.7736 203.635 18.7882 206.861 15.3722C210.467 11.9561 215.022 9.86851 219.767 9.10938H223.942V27.8977L220.146 23.5327H217.679C215.971 23.5327 214.452 24.2918 213.314 25.6203C211.985 27.1386 210.847 29.0364 210.087 30.9342C209.139 33.2114 208.38 35.6788 207.81 38.1459C207.241 40.8028 206.672 43.4597 206.292 45.9267C205.912 48.3941 205.533 50.6714 205.533 52.9487C205.343 55.0365 205.343 56.7444 205.343 57.6934C205.343 60.7298 205.533 63.9561 205.912 67.3722C206.292 70.7883 206.861 74.2043 207.81 77.4306C208.569 80.6569 209.898 83.5036 211.606 86.3502C213.124 89.0071 215.401 91.2847 218.058 92.8028H219.956L223.942 88.2479L223.752 107.606Z" fill="#395062"/>
<path d="M247.474 45.1684H257.533V21.4458H247.474V45.1684ZM257.723 57.8837H247.664V102.672L250.89 107.606H231.912L235.328 102.672V57.8837H230.963L235.328 45.1684V17.0808C235.328 15.9421 235.898 14.8035 236.847 13.8546C237.796 12.9056 238.744 12.1465 240.073 11.5772C241.401 11.0078 242.54 10.4385 244.058 10.2487C245.387 9.86914 246.715 9.86914 248.043 9.86914H258.102C259.43 9.86914 260.569 10.0589 261.898 10.2487C263.226 10.6283 264.554 11.0078 265.883 11.5772C267.022 12.1465 268.16 12.9056 269.109 14.0443C269.868 14.9932 270.438 16.1319 270.817 17.2706V102.672L274.233 107.606H255.255L258.671 102.672L257.723 57.8837Z" fill="#395062"/>
<path d="M292.453 95.6503H306.117L310.672 92.0444V107.606H280.307V93.9421L298.715 21.8253H283.533L280.117 25.4312V9.86914H310.102V24.2925L292.453 95.6503Z" fill="#395062"/>
<path d="M321.299 102.672V14.8035L317.883 9.86914H337.239L333.635 14.8035V102.672L337.431 107.606H317.883L321.299 102.672Z" fill="#395062"/>
<path d="M365.518 1.13867L369.125 6.64231V42.3212L353.941 1.13867H341.604L345.212 6.64231V107.416H362.29L358.686 102.102V44.2189L383.357 130V6.83211L386.773 1.13867H365.518Z" fill="#395062"/>
<path d="M405.373 95.6488V21.0649H415.431L415.62 89.1962V95.8386H405.373V95.6488ZM427.765 89.386V16.8897C427.577 15.751 427.008 14.4226 426.059 13.6635C425.11 12.7146 424.161 11.9554 422.832 11.1963C421.502 10.627 420.365 10.0576 418.847 9.86785C417.518 9.48828 416.38 9.48828 415.051 9.48828H404.992C403.663 9.48828 402.337 9.67805 401.008 9.86785C399.679 10.2474 398.349 10.627 397.023 11.1963C395.883 11.7657 394.745 12.5248 393.796 13.4737C393.036 14.4226 392.467 15.5613 392.278 16.7V92.9919V100.014C392.278 101.153 392.847 102.291 393.796 103.24C394.745 104.189 395.694 104.948 396.832 105.517C398.161 106.087 399.298 106.656 400.816 106.846C402.145 107.226 403.475 107.226 404.804 107.415H414.863C416.189 107.415 417.329 107.226 418.659 107.036C419.985 106.656 421.314 106.277 422.643 105.707C423.781 105.138 424.921 104.379 425.87 103.24C426.628 102.291 427.196 101.153 427.577 100.014L427.765 89.386Z" fill="#395062"/>
</g>
</g>
<defs>
<clipPath id="clip0_316_1702">
<rect width="429" height="130" fill="white"/>
</clipPath>
</defs>
</svg>
