<svg width="200" height="83" viewBox="0 0 200 83" fill="none" xmlns="http://www.w3.org/2000/svg">
<g clip-path="url(#clip0_316_1800)">
<path d="M64.0809 26.9815L40.4722 82.968H23.6088L0 26.9815H16.8634L32.3777 65.0927L48.2293 26.9815H64.0809ZM100.169 82.968C94.4351 82.968 89.0388 81.6189 84.317 79.258C79.9325 76.8971 75.8853 73.1872 73.5245 68.8027C70.8263 64.4182 69.4772 59.3592 69.4772 53.6256C69.4772 47.8921 70.8263 42.8331 73.5245 38.4486C76.2226 34.0641 79.9325 30.3541 84.317 27.9933C89.0388 25.6324 94.0978 24.2833 100.169 24.2833C105.902 24.2833 111.298 25.6324 116.02 27.9933C120.405 30.3541 124.452 34.0641 126.813 38.4486C129.511 42.8331 130.86 47.8921 130.86 53.6256C130.86 59.3592 129.511 64.4182 126.813 68.8027C124.115 73.1872 120.405 76.8971 116.02 79.258C111.298 81.6189 105.902 82.968 100.169 82.968ZM100.169 69.4772C104.553 69.4772 107.926 68.1282 110.624 65.0927C113.322 62.0573 114.671 58.3474 114.671 53.2884C114.671 48.5666 113.322 44.5194 110.624 41.484C107.926 38.4486 104.216 37.0995 100.169 37.0995C95.7842 37.0995 92.4115 38.4486 89.7133 41.484C87.0152 44.5194 85.6661 48.2293 85.6661 53.2884C85.6661 58.0101 87.0152 62.0573 89.7133 65.0927C92.4115 68.1282 95.7842 69.4772 100.169 69.4772ZM146.712 26.9815H162.563V82.968H146.712V26.9815ZM154.806 18.887C151.771 18.887 149.073 17.8752 147.049 16.1889C145.025 14.5025 144.013 12.1417 144.013 9.44351C144.013 6.74536 145.025 4.38449 147.049 2.69815C149.073 1.01181 151.433 0 154.806 0C158.179 0 160.54 1.01181 162.563 2.69815C164.25 4.38449 165.261 6.74536 165.261 9.10624C165.261 11.8044 164.25 14.1653 162.226 16.1889C160.54 17.8752 157.841 18.887 154.806 18.887ZM189.207 82.968C186.509 82.968 183.474 81.9562 181.788 79.9326C179.764 77.5717 178.752 74.8735 178.752 72.1754C178.752 69.14 179.764 66.4418 181.788 64.4182C186.172 60.371 192.58 60.371 196.965 64.4182C198.988 66.4418 200 68.8027 200 72.1754C200 75.2108 198.988 77.9089 196.965 79.9326C194.941 81.6189 192.243 82.968 189.207 82.968Z" fill="#F46C63"/>
</g>
<defs>
<clipPath id="clip0_316_1800">
<rect width="200" height="82.968" fill="white"/>
</clipPath>
</defs>
</svg>
