<svg width="261" height="124" viewBox="0 0 261 124" fill="none" xmlns="http://www.w3.org/2000/svg">
<g clip-path="url(#clip0_316_1758)">
<path d="M89.6867 6.67906V21.537H93.0848C97.3734 21.537 99.3186 19.4513 99.3186 13.6159V12.7019H104.31V35.7623H99.3186V34.778C99.3186 28.9895 97.3734 26.7865 93.0848 26.7865H89.6867V43.4022H103.935C110.427 43.4022 112.77 39.1135 113.544 30.9112H118.723V48.6985H71.9227V43.4022H75.8833C78.344 43.4022 79.6564 42.7225 79.6564 38.4339V10.7099C79.6564 7.61647 78.2502 6.67906 74.9459 6.67906H73.4929C70.0948 6.67906 68.4777 7.47586 67.2825 11.0146L54.3697 48.6985H44.5503L37.0744 24.1384H36.934L28.6379 48.6985H18.7013L5.29636 9.21008C4.71022 7.26495 3.70273 6.67906 0.98427 6.67906H0V1.40612H20.6699V6.67906H17.6702C16.1 6.67906 15.4673 7.61648 15.4673 8.55389C15.4673 9.25695 15.7252 10.1475 16.1 11.1318L25.0523 37.5199H25.1927L33.7232 12.7019L32.528 9.32724C31.8015 7.21807 30.372 6.67906 28.2862 6.67906H26.5989V1.40612H47.9484V6.67906H44.1753C42.7223 6.67906 42.1599 7.31181 42.1599 8.24922C42.1599 8.97571 42.5115 9.98344 42.746 10.6631L50.5734 37.0512H50.7138L59.8067 11.2724C60.0881 10.4287 60.3455 9.72565 60.3455 8.83511C60.3455 7.71022 59.8067 6.67906 57.2989 6.67906H53.8539V1.40612H118.723V17.5765H113.403C112.325 10.7334 111.716 6.67906 102.224 6.67906H89.6867ZM167.422 48.6985V30.9112H161.961C161.235 39.0432 159.758 43.4022 152.353 43.4022H141.596V9.96001C141.596 7.33526 142.674 6.67906 145.814 6.67906H149.822V1.40612H123.691V6.67906H127.816C130.675 6.67906 131.636 7.61647 131.636 9.77252V40.2384C131.636 42.7226 130.277 43.4022 128.261 43.4022H123.691V48.6985H167.422ZM215.956 48.6985V30.9112H210.472C209.746 39.0432 208.222 43.4022 200.911 43.4022H190.13V9.96001C190.13 7.33526 191.208 6.67906 194.349 6.67906H198.333V1.40612H172.179V6.67906H176.327C179.21 6.67906 180.17 7.61647 180.17 9.77252V40.2384C180.17 42.7226 178.788 43.4022 176.796 43.4022H172.179V48.6985H215.956ZM251.953 4.96828C251.508 4.523 247.148 0 238.641 0C229.713 0 220.69 4.52302 220.69 14.2252C220.69 23.0135 227.697 27.0209 235.759 28.7551C238.43 29.3176 240.024 29.6222 242.461 30.1378C248.508 31.4267 252.539 33.2547 252.539 37.4496C252.539 40.6368 249.164 44.0584 242.485 44.0584C233.158 44.0584 227.627 38.8557 226.479 30.9112H220.995V48.6985H225.846L227.416 44.4567C228.564 45.4645 233.111 50.1047 241.758 50.1047C252.773 50.1047 261.092 45.2067 261.092 35.5279C261.092 26.1538 253.335 22.1229 243.867 20.2247C242.18 19.8028 240.633 19.545 238.899 19.1466C233.017 17.8811 229.244 16.4281 229.244 12.2098C229.244 8.55389 233.111 6.0463 238.923 6.0463C247.664 6.0463 251.039 11.6005 252.843 17.5765H258.163V1.40612H254.32L251.953 4.96828ZM34.8949 122.426V117.106H31.3328C28.0284 117.106 26.8098 116.122 26.8098 113.45V100.561H29.7392C34.1685 100.561 36.0901 102.483 36.0901 107.498V109.068H41.0585V87.2965H36.0901V88.2339C36.0901 91.9132 34.7543 95.2879 30.161 95.2879H26.8098V80.3831H36.1136C46.5892 80.3831 47.6906 85.656 48.3937 91.257H53.5026V75.1101H8.74118V80.3831H13.4751C15.6077 80.3831 16.8029 81.3439 16.8029 83.0547V113.614C16.8029 115.606 15.7249 117.106 13.1938 117.106H8.74118V122.426H34.8949ZM232.947 73.6806C217.432 73.6806 207.168 84.5311 207.168 98.7563C207.168 112.958 217.432 123.902 232.947 123.902C248.414 123.902 258.702 112.958 258.702 98.7563C258.702 84.5311 248.414 73.6806 232.947 73.6806ZM232.947 79.2582C244.149 79.2582 247.5 88.562 247.5 98.7563C247.5 108.951 244.149 118.278 232.947 118.278C221.674 118.278 218.346 108.951 218.346 98.7563C218.346 88.562 221.674 79.2582 232.947 79.2582ZM189.31 78.977C188.279 78.063 183.85 73.6806 175.108 73.6806C161.117 73.6806 152.329 84.3437 152.329 98.7564C152.329 113.286 161.258 123.902 175.108 123.902C184.014 123.902 188.841 119.825 189.943 118.817L192.591 122.426H197.442V106.021C197.442 103.233 198.473 102.483 201.239 102.483H202.551V97.1862H180.709V102.483H183.943C186.287 102.483 187.717 103.537 187.717 105.834V108.599C187.717 114.013 184.389 117.786 177.147 117.786C168.078 117.786 163.531 109.63 163.531 98.7564C163.531 88.0464 168.078 79.8441 176.866 79.8441C186.029 79.8441 189.146 88.3745 190.201 91.2571H196.059V75.1102H191.068L189.31 78.977ZM149.962 111.318V112.607C149.962 120.762 146.072 123.902 140.166 123.902C133.253 123.902 130.933 120.575 130.933 114.13V111.669C130.933 103.537 127.464 100.256 119.543 100.256H115.794V114.552C115.794 116.45 116.661 117.106 118.723 117.106H123.926V122.426H76.6801V117.106H81.9296C83.3826 117.106 83.9216 116.755 83.9216 115.911C83.9216 115.466 83.7812 114.739 83.4999 113.966C83.2419 113.333 81.0157 107.24 81.0157 107.24H64.1423C64.1423 107.24 62.0566 112.864 61.705 113.802C61.4705 114.505 61.2833 115.091 61.2833 115.77C61.2833 116.778 62.1269 117.106 63.5331 117.106H68.5482V122.426H46.2847V117.106C50.0578 117.106 52.4481 116.567 53.784 113.263L68.8763 75.1102H77.9458L93.4131 113.263C94.702 116.614 97.1393 117.106 100.912 117.106H102.834C104.873 117.106 105.787 116.45 105.787 114.552V82.961C105.787 81.0627 105.06 80.3831 102.834 80.3831H97.8658V75.1102H128.941C139.252 75.1102 144.104 79.9847 144.104 87.3668C144.104 96.53 134.987 98.3345 130.722 98.5689V98.6861C135.714 99.061 139.932 101.123 139.932 108.412V111.177C139.932 116.028 140.963 117.106 142.674 117.106C144.361 117.106 145.252 115.77 145.252 112.607V111.318H149.962ZM79.0705 101.99L72.6961 84.7655H72.4855L66.1111 101.99H79.0705ZM134.167 87.6715C134.167 83.5234 131.191 80.3831 124.582 80.3831H115.794V94.9833H124.582C130.675 94.9833 134.167 92.2414 134.167 87.6715Z" fill="#FFCC02"/>
</g>
<defs>
<clipPath id="clip0_316_1758">
<rect width="261" height="124" fill="white"/>
</clipPath>
</defs>
</svg>
