<svg width="278" height="184" viewBox="0 0 278 184" fill="none" xmlns="http://www.w3.org/2000/svg">
<g clip-path="url(#clip0_316_1818)">
<path d="M143.142 120.934C142.915 120.874 142.253 120.183 141.678 119.322L141.59 119.192L141.437 119.155C116.246 113.28 102.211 74.6054 105.371 43.5713C105.707 40.1696 106.305 36.7988 107.16 33.4892C107.953 30.4312 109.039 27.4568 110.403 24.6071C111.754 21.7512 113.511 19.106 115.62 16.7536C119.79 12.1666 124.98 9.70167 130.581 9.6229C130.697 9.6412 130.815 9.61505 130.912 9.54973C131.009 9.48441 131.078 9.38475 131.105 9.27077C132.087 7.2738 134.608 5.87917 136.493 5.61507L136.757 5.578L136.822 5.31854C136.864 5.11467 138.073 0.388672 143.17 0.388672C148.267 0.388672 149.476 5.25831 149.485 5.30464L149.55 5.5641L149.814 5.60117C151.7 5.86527 154.211 7.27844 155.193 9.27077C155.219 9.38377 155.286 9.48309 155.381 9.54913C155.476 9.61517 155.593 9.64315 155.708 9.62754C161.314 9.7063 166.49 12.1712 170.673 16.7582C173.145 19.5179 175.14 22.67 176.576 26.0851L176.901 26.8543C179.046 32.203 180.397 37.8364 180.913 43.576C184.073 74.6193 170.039 113.284 144.847 119.16L144.694 119.197L144.606 119.326C144.036 120.165 143.369 120.874 143.142 120.934Z" fill="url(#paint0_radial_316_1818)"/>
<path d="M181.27 43.5388C181.014 40.9715 180.613 38.4207 180.07 35.8984C179.572 33.5765 178.925 31.2891 178.133 29.0503C177.301 26.6826 176.265 24.3914 175.038 22.2023C173.886 20.1535 172.507 18.2403 170.928 16.4986C166.703 11.8653 161.481 9.31235 155.689 9.23358H155.564C154.638 7.17638 152.034 5.49912 149.782 5.18868C149.782 5.18868 148.573 0.02715 143.138 0.00398331C137.703 -0.0191834 136.493 5.18868 136.493 5.18868C134.242 5.50375 131.652 7.17638 130.711 9.23358H130.586C124.794 9.31698 119.577 11.8699 115.347 16.4986C113.768 18.2403 112.39 20.1535 111.237 22.2023C110.01 24.3914 108.974 26.6826 108.142 29.0503C107.35 31.2891 106.703 33.5765 106.205 35.8984C105.662 38.4207 105.262 40.9715 105.005 43.5388C101.804 74.9759 115.945 113.618 141.372 119.525C141.762 120.105 142.647 121.305 143.133 121.305C143.62 121.305 144.523 120.105 144.894 119.525C170.335 113.613 184.476 74.9759 181.27 43.5388ZM143.142 1.21328C147.609 1.21328 148.591 5.00798 148.6 5.04968C147.492 5.13925 146.422 5.50119 145.487 6.10336C144.552 6.70553 143.78 7.52929 143.24 8.50152C143.223 8.5547 143.189 8.60055 143.142 8.63125C143.094 8.60252 143.059 8.55589 143.045 8.50152C142.502 7.53275 141.729 6.71266 140.794 6.11382C139.859 5.51498 138.791 5.15585 137.684 5.06822C137.693 5.00798 138.676 1.21328 143.142 1.21328ZM140.557 7.17175C141.648 7.82261 142.442 8.87301 142.772 10.1C142.86 10.4614 142.999 10.6792 143.142 10.6792C143.286 10.6792 143.425 10.4614 143.513 10.1C143.842 8.87301 144.637 7.82261 145.728 7.17175C146.411 6.71918 147.181 6.41591 147.99 6.2818C148.798 6.14769 149.625 6.18576 150.418 6.39351C151.21 6.60127 151.95 6.97402 152.589 7.48739C153.227 8.00076 153.75 8.64317 154.123 9.37258C153.339 9.51732 152.566 9.71232 151.807 9.95638C150.589 10.3377 149.463 10.969 148.503 11.8097C146.085 14.007 144.577 17.0304 144.277 20.2841C143.351 30.4496 155.008 28.8511 155.597 28.8048C157.103 28.8048 158.242 26.4325 158.242 23.2865C158.242 20.1404 157.07 17.7682 155.592 17.7682C154.689 17.7682 153.127 18.491 152.979 21.308C152.877 23.2865 153.845 25.9414 155.096 26.085C155.745 26.1684 156.338 25.024 156.523 23.861C156.686 22.851 156.602 21.2617 155.699 21.0347C155.562 21.0011 155.417 21.0232 155.296 21.0962C155.175 21.1691 155.089 21.287 155.055 21.4239C154.99 21.6833 155.615 22.1235 155.592 23.2772C155.555 25.0147 153.808 24.1483 154.04 21.3868C154.253 18.9358 155.504 19.0702 155.555 19.0702C156.255 19.0702 157.311 20.5297 157.311 23.2402C157.311 25.668 156.139 28.2858 153.896 26.919C152.01 25.529 151.265 22.3644 151.788 19.9041C152.024 18.7736 152.997 15.7063 156.139 15.7063C160.67 15.7063 164.891 18.0879 168.26 22.5127C167.889 23.6989 165.554 28.2163 158.136 32.5346C157.978 32.6134 157.742 32.7524 157.728 32.7431C155.462 31.8164 153.34 31.2465 150.871 31.3855C148.697 31.5396 146.54 31.8822 144.426 32.4095C144.009 32.5275 143.58 32.5975 143.147 32.618C142.714 32.5975 142.285 32.5275 141.868 32.4095C139.753 31.8822 137.597 31.5396 135.423 31.3855C132.954 31.2465 130.827 31.8211 128.566 32.7431C128.566 32.7431 128.32 32.6134 128.158 32.5346C120.745 28.2117 118.4 23.6989 118.034 22.5127C121.403 18.0833 125.624 15.7063 130.155 15.7063C133.296 15.7063 134.269 18.7783 134.506 19.9041C135.029 22.3598 134.283 25.5383 132.398 26.919C130.16 28.2858 128.983 25.668 128.983 23.2402C128.983 20.5111 130.035 19.0702 130.739 19.0702C130.79 19.0702 132.041 18.9173 132.254 21.3868C132.49 24.1668 130.739 25.0193 130.702 23.2772C130.702 22.1142 131.304 21.6694 131.239 21.4239C131.205 21.287 131.118 21.1691 130.998 21.0962C130.877 21.0232 130.732 21.0011 130.595 21.0347C129.692 21.2617 129.608 22.8463 129.77 23.861C129.956 25.024 130.549 26.1777 131.198 26.085C132.449 25.9182 133.417 23.305 133.315 21.308C133.162 18.4724 131.587 17.7682 130.697 17.7682C129.219 17.7682 128.052 20.1404 128.052 23.2865C128.052 26.4325 129.187 28.8048 130.697 28.8048C131.286 28.8557 142.943 30.4496 142.016 20.2841C141.717 17.0304 140.209 14.007 137.791 11.8097C136.83 10.969 135.705 10.3377 134.487 9.95638C133.728 9.71232 132.954 9.51732 132.171 9.37258C132.544 8.64451 133.066 8.00332 133.704 7.49085C134.342 6.97839 135.081 6.60617 135.872 6.39849C136.663 6.19081 137.49 6.15234 138.297 6.28558C139.104 6.41882 139.874 6.72077 140.557 7.17175ZM118.507 49.7984C118.274 51.3216 118.119 52.8557 118.044 54.3947C117.766 61.57 118.743 68.7387 120.93 75.5783C122.393 80.0892 124.318 84.4368 126.675 88.5516C124.294 90.7154 120.726 91.5679 119.526 91.7949C113.086 78.9884 109.796 62.4613 110.533 47.5605C113.029 48.7919 115.734 49.5476 118.507 49.7891V49.7984ZM110.561 46.745C111.168 36.5795 113.748 28.6055 117.511 23.2911C118.173 25.0193 121.083 29.3144 127.787 33.2713C122.088 36.7 119.512 43.7843 118.646 49.0663C115.826 48.8176 113.08 48.0263 110.561 46.7358V46.745ZM127.037 89.2049C131.313 96.5765 135.548 100.969 138.782 103.29C137.61 106.265 134.83 108.582 133.866 109.337C128.306 105.588 123.576 99.6484 119.864 92.476C121.291 92.1841 124.637 91.3084 127.037 89.1956V89.2049ZM139.426 103.744C140.572 104.578 141.817 105.264 143.133 105.788C144.449 105.264 145.694 104.578 146.84 103.744C148.058 106.636 150.597 108.869 151.751 109.768C150.186 110.77 148.517 111.601 146.775 112.246C146.775 112.186 146.775 112.126 146.747 112.061C146.39 110.208 143.995 109.851 143.119 109.851C142.243 109.851 139.848 110.231 139.491 112.061C139.491 112.121 139.491 112.182 139.463 112.246C137.721 111.601 136.053 110.77 134.487 109.768C135.673 108.86 138.212 106.622 139.426 103.735V103.744ZM147.502 103.281C150.746 100.964 154.971 96.5626 159.248 89.1956C161.648 91.3084 164.998 92.1841 166.425 92.476C162.718 99.6484 157.997 105.588 152.423 109.337C151.45 108.582 148.679 106.265 147.507 103.281H147.502ZM159.628 88.5331C161.985 84.4183 163.91 80.0707 165.373 75.5597C167.548 68.7164 168.512 61.5462 168.223 54.3715C168.147 52.8325 167.992 51.2984 167.759 49.7752C170.539 49.5331 173.25 48.7741 175.752 47.5373C176.479 62.4381 173.199 78.9652 166.758 91.7718C165.577 91.554 162.009 90.7015 159.632 88.5331H159.628ZM167.662 49.0524C166.795 43.7751 164.182 36.8251 158.52 33.2574C165.225 29.3237 168.134 25.0054 168.797 23.2772C172.536 28.5916 175.122 36.5656 175.747 46.7311C173.227 48.0184 170.481 48.8066 167.662 49.0524ZM139 117.311C136.102 116.345 133.355 114.974 130.841 113.238C129.246 112.14 127.738 110.923 126.328 109.596C125.176 108.512 124.084 107.366 123.057 106.163C122.356 105.344 121.681 104.504 121.032 103.642C117.929 99.4777 115.329 94.9614 113.285 90.1872C111.303 85.6048 109.712 80.8636 108.527 76.0138C107.306 71.0607 106.474 66.0197 106.039 60.9369C105.586 55.9274 105.555 50.8887 105.946 45.874C106.168 43.1866 106.493 40.5086 106.974 37.8583C107.443 35.2154 108.106 32.6106 108.958 30.065C109.738 27.7325 110.716 25.4709 111.881 23.305C113.065 21.0679 114.535 18.9947 116.255 17.138C117.855 15.4218 119.714 13.9663 121.764 12.8244C122.626 12.3538 123.523 11.9496 124.447 11.6151C124.916 11.4452 125.392 11.2908 125.874 11.1518C126.345 11.004 126.825 10.8849 127.31 10.795C128.485 10.589 129.676 10.4913 130.869 10.5031C132.766 10.4934 134.631 10.996 136.266 11.958C138.551 13.5796 140.548 16.2716 140.9 20.3628C141.446 26.641 135.052 27.6325 133.797 27.6186C133.607 27.6186 133.505 27.4333 134.126 26.7939C135.595 24.9081 136.076 22.0169 135.585 19.7003C134.978 16.8183 132.944 14.5665 129.998 14.5712C125.587 14.5712 121.658 16.7905 118.715 19.9829C115.861 23.0919 113.901 26.9653 112.507 30.9176C110.773 36.0253 109.744 41.3455 109.449 46.7311C109.134 51.6627 109.241 56.6121 109.768 61.5254C110.285 66.497 111.191 71.4204 112.479 76.2501C113.716 80.9479 115.356 85.5302 117.381 89.9462C119.4 94.4217 121.958 98.6338 124.998 102.489C128.089 106.325 131.902 109.782 136.303 112.043C137.295 112.553 138.32 112.997 139.371 113.372C139.33 114.864 139.648 116.343 140.297 117.686C139.856 117.593 139.423 117.467 139 117.311ZM143.578 119.461C143.544 119.548 143.485 119.624 143.408 119.678C143.33 119.731 143.239 119.76 143.145 119.76C143.051 119.76 142.959 119.731 142.881 119.678C142.804 119.624 142.745 119.548 142.711 119.461C141.623 118.071 140.001 115.439 140.612 112.274C140.784 111.385 142.285 110.982 143.147 110.972C144.009 110.963 145.487 111.362 145.681 112.288C146.293 115.443 144.667 118.094 143.578 119.461ZM180.237 60.9323C179.801 66.0151 178.969 71.056 177.749 76.0092C176.564 80.859 174.972 85.6002 172.99 90.1825C170.945 94.9602 168.343 99.4796 165.239 103.647C164.59 104.506 163.915 105.346 163.214 106.168C162.187 107.371 161.095 108.517 159.943 109.601C158.533 110.927 157.024 112.145 155.43 113.243C152.916 114.978 150.169 116.35 147.271 117.315C146.848 117.475 146.415 117.604 145.973 117.7C146.622 116.357 146.94 114.878 146.9 113.386C147.951 113.011 148.975 112.567 149.967 112.057C154.369 109.795 158.187 106.339 161.273 102.503C164.313 98.6477 166.871 94.4356 168.89 89.9601C170.914 85.5441 172.554 80.9618 173.792 76.264C175.089 71.4335 176.004 66.5086 176.53 61.5346C177.058 56.6213 177.165 51.6719 176.85 46.7404C176.554 41.3547 175.525 36.0345 173.792 30.9268C172.402 26.9746 170.433 23.1011 167.583 19.9922C164.65 16.7952 160.712 14.5851 156.301 14.5804C153.354 14.5804 151.32 16.8276 150.713 19.7095C150.222 22.0262 150.713 24.9174 152.173 26.8032C152.793 27.4472 152.696 27.6279 152.502 27.6279C151.246 27.6279 144.847 26.6456 145.399 20.3721C145.755 16.2809 147.752 13.5889 150.032 11.9672C151.668 11.0053 153.532 10.5027 155.43 10.5124C156.622 10.5006 157.814 10.5983 158.988 10.8043C159.474 10.894 159.953 11.0131 160.425 11.161C160.906 11.2908 161.382 11.4452 161.852 11.6244C162.775 11.9588 163.672 12.3631 164.534 12.8337C166.583 13.9714 168.442 15.4221 170.043 17.1334C171.763 18.9901 173.234 21.0633 174.417 23.3004C175.583 25.4663 176.561 27.7278 177.341 30.0604C178.188 32.6063 178.846 35.2111 179.31 37.8537C179.773 40.5039 180.116 43.1866 180.339 45.8693C180.727 50.8843 180.693 55.9231 180.237 60.9323Z" fill="#282728"/>
<path d="M166.837 54.5907C166.68 50.8563 165.586 39.4444 157.825 34.496C156.148 33.4303 153.942 32.9577 151.728 32.8141C147.915 32.5639 145.093 34.0234 143.189 34.0743H143.096C141.192 34.0187 138.347 32.5639 134.533 32.8141C132.323 32.9577 130.136 33.4303 128.459 34.496C120.698 39.4444 119.605 50.8563 119.447 54.5907C119.087 63.6516 120.769 72.6774 124.368 81.0007C129.733 92.8296 136.22 101.17 142.633 104.01L143.142 104.237L143.656 104.01C150.06 101.165 156.546 92.8065 161.916 80.9776C165.512 72.6613 167.193 63.6438 166.837 54.5907Z" fill="#C5050C"/>
<path d="M154.679 45.6161V48.1969L155.203 48.1181C155.285 48.1127 155.367 48.1127 155.448 48.1181C155.864 48.0964 156.271 48.2339 156.588 48.5027C156.754 48.7193 156.867 48.9715 156.918 49.2392C156.97 49.507 156.958 49.783 156.885 50.0456C156.885 50.0734 151.691 72.5497 150.704 76.8355C149.569 71.4191 143.393 41.8399 143.393 41.8399L143.365 41.7148H142.142V41.8492C142.142 41.8492 137.67 70.6407 136.776 76.4046L130.605 50.0641C130.598 49.9345 130.598 49.8046 130.605 49.6749C130.583 49.4374 130.609 49.198 130.682 48.971C130.756 48.7441 130.874 48.5343 131.031 48.3544C131.169 48.2398 131.329 48.1537 131.501 48.1012C131.672 48.0487 131.853 48.0308 132.032 48.0486L132.546 48.1181V45.6161H123.858V48.0579L124.243 48.1181C124.433 48.1552 125.401 48.3915 125.559 49.2718C125.559 49.2718 135.71 92.8252 136.141 94.6785L136.169 94.7989H137.694V94.6646C137.74 94.3634 141.864 67.3279 142.642 62.2729C143.633 67.3464 148.906 94.3866 148.962 94.6831L148.99 94.8082H150.352L160.425 49.2486C160.497 48.9389 160.676 48.6644 160.93 48.4731C161.184 48.2817 161.497 48.1856 161.815 48.2015H161.917L162.412 48.2432V45.6161H154.679Z" fill="white"/>
<path d="M42.5989 129.298C46.8106 130.808 45.0267 135.344 44.0584 138.537L37.9563 159.03L30.4503 134.784C29.695 132.323 29.3197 130.53 29.6394 129.131H22.0269V129.298C25.02 130.869 23.9219 134.529 22.8933 137.925L16.5734 159.201L8.52997 133.167C8.20563 132.101 7.66817 130.387 7.8813 129.136H0V129.303C2.70123 131.207 3.51207 134.863 4.48507 137.925L10.8559 158.585C12.6351 164.354 13.1216 163.964 18.0329 167.657L26.461 139.394L32.3916 158.622C34.1801 164.391 34.5554 164.108 39.5223 167.639L50.9111 129.117H42.5989V129.284V129.298Z" fill="#C5050C"/>
<path d="M52.7505 129.297C55.5027 130.363 55.1228 134.449 55.1228 137.025V158.13C55.1228 160.646 55.4471 164.798 52.7505 165.803V165.97H63.0133V165.803C60.3167 164.737 60.6364 160.646 60.6364 158.13V137.03C60.6364 134.509 60.3167 130.367 63.0133 129.302V129.135H52.7505V129.302V129.297Z" fill="#C5050C"/>
<path d="M72.4515 137.364C72.4515 133.5 76.3435 132.267 79.4015 132.267C82.582 132.28 85.6291 133.547 87.8805 135.793V129.469C85.2782 128.642 82.5628 128.227 79.8324 128.237C73.2484 128.237 66.2799 130.928 66.2799 137.967C66.2799 149.837 84.8503 148.271 84.8503 157.005C84.8503 160.925 80.217 162.824 77.1358 162.824C72.7678 162.74 68.574 161.097 65.3115 158.191L66.8776 165.187C69.9682 166.333 73.2423 166.903 76.5381 166.869C84.9661 166.869 91.008 161.268 91.008 155.286C91.0312 144.921 72.4515 145.032 72.4515 137.364Z" fill="#C5050C"/>
<path d="M112.914 162.227C104.598 162.227 99.1997 154.888 99.1997 146.659C99.1997 138.537 104.384 132.884 111.835 132.884C115.405 132.95 118.878 134.06 121.824 136.076V129.636C118.616 128.783 115.316 128.317 111.997 128.246C100.928 128.246 93.042 135.919 93.042 147.511C93.042 159.498 100.919 166.883 113.67 166.883C116.479 166.949 119.266 166.374 121.82 165.202L124.572 158.715H124.405C121.009 160.712 116.964 162.227 112.914 162.227Z" fill="#C5050C"/>
<path d="M144.046 128.186C132.713 127.904 123.798 136.804 123.798 147.442C123.798 158.924 132.815 166.875 143.508 166.875C154.202 166.875 163.371 158.586 163.371 147.16C163.375 144.637 162.875 142.14 161.901 139.813C160.926 137.486 159.497 135.377 157.697 133.61C155.897 131.843 153.763 130.453 151.418 129.522C149.074 128.59 146.568 128.136 144.046 128.186ZM143.777 162.839C135.303 162.839 129.951 154.777 129.951 146.937C129.951 138.482 135.298 132.213 143.67 132.213C152.196 132.213 157.218 140.089 157.218 148.286C157.218 156.626 151.973 162.839 143.782 162.839H143.777Z" fill="#C5050C"/>
<path d="M191.111 129.297C193.975 130.979 193.919 133.221 193.919 136.354V157.579L174.158 131.711L173.398 130.59C173.022 130.197 172.744 129.72 172.587 129.2V129.149H164.71V129.315C167.514 130.997 167.514 133.24 167.514 136.372V158.714C167.514 161.846 167.514 164.084 164.655 165.822V165.988H174.213V165.822C171.35 164.084 171.406 161.846 171.406 158.714V137.03L189.939 161.383C192.311 164.575 193.988 166.428 197.816 167.772V136.358C197.816 133.226 197.816 130.983 200.623 129.302V129.135H191.111V129.302V129.297Z" fill="#C5050C"/>
<path d="M208.5 137.364C208.5 133.5 212.387 132.267 215.45 132.267C218.629 132.278 221.675 133.546 223.924 135.793V129.469C221.334 128.645 218.631 128.229 215.913 128.236C209.334 128.236 202.365 130.928 202.365 137.966C202.365 149.837 220.936 148.271 220.936 157.005C220.936 160.925 216.302 162.824 213.212 162.824C208.844 162.739 204.651 161.096 201.388 158.191L202.954 165.187C206.047 166.333 209.325 166.903 212.624 166.869C221.042 166.869 227.089 161.267 227.089 155.286C227.084 144.921 208.5 145.032 208.5 137.364Z" fill="#C5050C"/>
<path d="M229.123 129.297C231.875 130.363 231.5 134.449 231.5 137.025V158.13C231.5 160.646 231.829 164.798 229.123 165.803V165.97H239.377V165.803C236.675 164.737 237.004 160.646 237.004 158.13V137.03C237.004 134.509 236.675 130.367 239.377 129.302V129.135H229.123V129.302V129.297Z" fill="#C5050C"/>
<path d="M268.497 129.135V129.302C271.365 130.983 271.31 133.226 271.31 136.358V157.583L251.544 131.711L250.784 130.59C250.413 130.193 250.135 129.718 249.973 129.2V129.149H242.096V129.315C244.904 130.997 244.904 133.24 244.904 136.372V158.714C244.904 161.846 244.904 164.084 242.045 165.822V165.988H251.59V165.822C248.727 164.084 248.782 161.846 248.782 158.714V137.03L267.316 161.383C269.688 164.575 271.37 166.428 275.192 167.772V136.358C275.192 133.226 275.192 130.983 278 129.302V129.135H268.497Z" fill="#C5050C"/>
<path d="M16.2955 173.746V180.168C16.3124 180.838 16.1526 181.502 15.8321 182.091C15.5163 182.641 15.0415 183.084 14.4699 183.36C13.8039 183.679 13.0724 183.838 12.334 183.824C11.2851 183.888 10.253 183.537 9.4613 182.846C9.11209 182.495 8.84051 182.074 8.66412 181.611C8.48774 181.148 8.41048 180.653 8.43734 180.159V173.765H10.0683V180.043C10.0138 180.698 10.2184 181.348 10.6382 181.854C10.8755 182.065 11.1531 182.225 11.4541 182.326C11.7551 182.426 12.0733 182.464 12.3896 182.438C13.9186 182.438 14.6908 181.635 14.7062 180.029V173.746H16.3279H16.2955Z" fill="#282728"/>
<path d="M27.4341 183.671H25.4464L20.5675 175.766H20.5119L20.5489 176.23C20.6107 177.07 20.6432 177.842 20.6462 178.546V183.703H19.1682V173.746H21.1374L26.007 181.623H26.0487C26.0487 181.516 26.0209 181.159 25.9931 180.488C25.9653 179.816 25.9514 179.325 25.9514 178.959V173.746H27.4387V183.671H27.4341Z" fill="#282728"/>
<path d="M30.5291 183.671V173.746H32.1507V183.671H30.5291Z" fill="#282728"/>
<path d="M40.8938 173.746H42.5757L39.1007 183.671H37.391L33.9299 173.746H35.5979L37.6737 179.936C37.7802 180.233 37.8961 180.608 38.0165 181.071C38.137 181.535 38.2158 181.882 38.2575 182.109C38.3131 181.766 38.4057 181.368 38.5308 180.914C38.6559 180.46 38.7486 180.126 38.8274 179.908L40.8938 173.746Z" fill="#282728"/>
<path d="M49.9752 183.671H44.3596V173.746H49.9706V175.136H45.9813V177.837H49.7204V179.195H45.9813V182.308H49.9706V183.698L49.9752 183.671Z" fill="#282728"/>
<path d="M54.21 179.705V183.666H52.5884V173.746H55.3684C56.6472 173.746 57.5955 173.985 58.2132 174.464C58.5292 174.727 58.7781 175.061 58.9393 175.439C59.1004 175.817 59.1692 176.228 59.1399 176.637C59.1399 177.873 58.4974 178.753 57.2124 179.278L59.9924 183.671H58.1391L55.7622 179.709H54.21V179.705ZM54.21 178.361H55.3359C55.9146 178.41 56.4927 178.261 56.9761 177.939C57.1512 177.784 57.2883 177.59 57.3766 177.373C57.465 177.156 57.5023 176.922 57.4858 176.688C57.5067 176.456 57.4668 176.223 57.3701 176.011C57.2735 175.799 57.1233 175.615 56.9344 175.479C56.4294 175.201 55.8554 175.074 55.2803 175.113H54.21V178.356V178.361Z" fill="#282728"/>
<path d="M67.6699 180.973C67.6869 181.37 67.6087 181.766 67.4419 182.127C67.2751 182.488 67.0244 182.804 66.7108 183.048C65.941 183.591 65.0102 183.857 64.0698 183.804C63.1232 183.839 62.1808 183.66 61.313 183.28V181.747C61.7748 181.962 62.2577 182.13 62.754 182.247C63.2192 182.364 63.6966 182.427 64.1764 182.432C64.6781 182.472 65.1788 182.343 65.5988 182.066C65.7484 181.951 65.8684 181.802 65.949 181.631C66.0296 181.46 66.0683 181.273 66.0622 181.084C66.0616 180.908 66.0238 180.735 65.9511 180.575C65.8784 180.415 65.7725 180.273 65.6405 180.157C65.113 179.76 64.5268 179.447 63.903 179.231C63.1695 178.98 62.5112 178.548 61.9895 177.975C61.6136 177.491 61.4172 176.892 61.4335 176.279C61.4164 175.907 61.4871 175.536 61.6401 175.196C61.793 174.857 62.0238 174.558 62.3138 174.324C62.9963 173.819 63.8333 173.566 64.6814 173.61C65.6601 173.617 66.6264 173.83 67.517 174.236L67.0027 175.561C66.2593 175.222 65.4563 175.033 64.6397 175.005C64.2133 174.975 63.79 175.096 63.4443 175.348C63.3087 175.46 63.2012 175.602 63.1304 175.763C63.0596 175.924 63.0275 176.099 63.0366 176.275C63.0299 176.506 63.0859 176.735 63.1988 176.937C63.3364 177.149 63.5201 177.326 63.7362 177.456C64.1657 177.707 64.6151 177.923 65.0799 178.1C65.6471 178.316 66.1856 178.6 66.683 178.948C66.998 179.182 67.2535 179.487 67.429 179.838C67.591 180.194 67.6732 180.581 67.6699 180.973Z" fill="#282728"/>
<path d="M70.0652 183.671V173.746H71.6869V183.671H70.0652Z" fill="#282728"/>
<path d="M78.206 183.671H76.5843V175.136H73.6699V173.746H81.1296V175.136H78.2106V183.666L78.206 183.671Z" fill="#282728"/>
<path d="M85.9206 178.273L88.2697 173.746H90.035L86.7268 179.82V183.671H85.0958V179.876L81.8062 173.746H83.5715L85.9206 178.273Z" fill="#282728"/>
<path d="M104.713 178.694C104.713 180.309 104.309 181.565 103.499 182.461C103.06 182.92 102.525 183.279 101.933 183.511C101.341 183.743 100.706 183.843 100.071 183.805C98.5727 183.805 97.4221 183.36 96.619 182.47C95.8159 181.581 95.4143 180.317 95.4143 178.68C95.4143 177.043 95.819 175.786 96.6282 174.909C97.4375 174.031 98.5881 173.591 100.08 173.588C100.713 173.55 101.347 173.65 101.937 173.881C102.528 174.112 103.061 174.469 103.499 174.927C104.309 175.82 104.713 177.075 104.713 178.694ZM97.1379 178.694C97.0695 179.677 97.3303 180.655 97.8792 181.474C98.1603 181.772 98.4993 182.009 98.8754 182.171C99.2514 182.334 99.6566 182.417 100.066 182.417C100.476 182.417 100.881 182.334 101.257 182.171C101.633 182.009 101.972 181.772 102.253 181.474C102.744 180.856 102.99 179.93 102.99 178.694C103.06 177.713 102.804 176.735 102.262 175.914C101.999 175.597 101.665 175.348 101.286 175.187C100.907 175.026 100.495 174.957 100.085 174.987C99.6708 174.958 99.2558 175.026 98.8734 175.187C98.4909 175.348 98.1519 175.597 97.8839 175.914C97.3301 176.731 97.0658 177.709 97.1333 178.694H97.1379Z" fill="#282728"/>
<path d="M108.92 183.671H107.312V173.746H112.91V175.136H108.92V178.236H112.659V179.626H108.92V183.698V183.671Z" fill="#282728"/>
<path d="M128.422 183.671H126.657L124.975 177.754C124.901 177.494 124.813 177.124 124.702 176.637C124.59 176.151 124.53 175.813 124.502 175.623C124.459 175.913 124.386 176.288 124.285 176.748C124.183 177.212 124.099 177.555 124.03 177.782L122.39 183.671H120.624L119.341 178.704L118.039 173.751H119.693L121.111 179.533C121.333 180.46 121.488 181.278 121.574 181.989C121.625 181.604 121.699 181.173 121.796 180.701C121.894 180.228 121.986 179.844 122.07 179.547L123.71 173.746H125.318L126.953 179.57C127.166 180.365 127.334 181.171 127.454 181.984C127.557 181.15 127.72 180.325 127.94 179.515L129.33 173.746H130.97L128.422 183.671Z" fill="#282728"/>
<path d="M132.884 183.671V173.746H134.506V183.671H132.884Z" fill="#282728"/>
<path d="M143.318 180.973C143.336 181.37 143.258 181.765 143.092 182.126C142.926 182.487 142.677 182.804 142.364 183.049C141.594 183.591 140.663 183.858 139.723 183.804C138.776 183.839 137.834 183.66 136.966 183.28V181.747C137.428 181.962 137.911 182.13 138.407 182.247C138.872 182.364 139.35 182.426 139.829 182.432C140.331 182.472 140.832 182.343 141.252 182.066C141.401 181.951 141.521 181.801 141.601 181.631C141.682 181.46 141.721 181.273 141.715 181.084C141.715 180.909 141.677 180.735 141.604 180.575C141.531 180.416 141.426 180.273 141.294 180.157C140.766 179.761 140.18 179.448 139.556 179.231C138.822 178.981 138.164 178.549 137.643 177.975C137.267 177.491 137.07 176.892 137.087 176.279C137.069 175.907 137.14 175.536 137.293 175.197C137.446 174.857 137.677 174.558 137.967 174.324C138.649 173.818 139.486 173.566 140.335 173.611C141.313 173.617 142.279 173.83 143.17 174.236L142.656 175.561C141.912 175.222 141.109 175.033 140.293 175.005C139.866 174.975 139.443 175.097 139.097 175.348C138.962 175.46 138.854 175.602 138.784 175.763C138.713 175.924 138.681 176.099 138.69 176.275C138.683 176.506 138.739 176.735 138.852 176.937C138.99 177.149 139.173 177.326 139.389 177.456C139.818 177.708 140.268 177.923 140.733 178.1C141.3 178.316 141.839 178.601 142.336 178.948C142.651 179.182 142.906 179.487 143.082 179.838C143.243 180.194 143.323 180.582 143.318 180.973Z" fill="#282728"/>
<path d="M149.935 174.996C149.516 174.977 149.098 175.057 148.716 175.229C148.333 175.401 147.997 175.661 147.734 175.988C147.159 176.779 146.875 177.745 146.932 178.722C146.932 179.939 147.189 180.865 147.701 181.502C147.977 181.818 148.322 182.066 148.709 182.226C149.097 182.387 149.516 182.456 149.935 182.428C150.346 182.429 150.755 182.387 151.158 182.303C151.552 182.22 151.959 182.113 152.386 181.979V183.369C151.539 183.683 150.643 183.84 149.74 183.832C148.288 183.832 147.173 183.392 146.395 182.512C145.616 181.631 145.227 180.373 145.227 178.736C145.206 177.802 145.4 176.877 145.792 176.03C146.146 175.284 146.718 174.663 147.433 174.251C148.203 173.826 149.073 173.613 149.953 173.634C150.926 173.626 151.887 173.845 152.761 174.274L152.177 175.627C151.831 175.465 151.475 175.325 151.111 175.21C150.733 175.077 150.336 175.005 149.935 174.996Z" fill="#282728"/>
<path d="M163.807 178.693C163.807 180.309 163.402 181.564 162.593 182.46C162.154 182.92 161.619 183.278 161.027 183.51C160.435 183.742 159.799 183.843 159.164 183.804C157.666 183.804 156.516 183.359 155.712 182.469C154.909 181.58 154.508 180.316 154.508 178.679C154.508 177.042 154.911 175.785 155.717 174.908C156.523 174.03 157.675 173.592 159.174 173.592C159.807 173.554 160.44 173.654 161.031 173.885C161.621 174.116 162.154 174.473 162.593 174.931C163.399 175.82 163.804 177.075 163.807 178.693ZM156.231 178.693C156.163 179.676 156.422 180.653 156.968 181.473C157.249 181.771 157.588 182.008 157.964 182.17C158.34 182.333 158.746 182.416 159.155 182.416C159.565 182.416 159.97 182.333 160.346 182.17C160.722 182.008 161.061 181.771 161.342 181.473C161.833 180.855 162.079 179.929 162.079 178.693C162.148 177.711 161.89 176.734 161.347 175.913C161.084 175.597 160.75 175.348 160.372 175.187C159.994 175.025 159.583 174.957 159.174 174.986C158.759 174.956 158.343 175.024 157.96 175.185C157.576 175.346 157.237 175.596 156.968 175.913C156.419 176.732 156.16 177.71 156.231 178.693Z" fill="#282728"/>
<path d="M174.677 183.671H172.689L167.81 175.766H167.755L167.792 176.23C167.853 177.07 167.886 177.842 167.889 178.546V183.703H166.416V173.746H168.385L173.254 181.623H173.287C173.287 181.516 173.259 181.159 173.231 180.488C173.203 179.816 173.189 179.325 173.189 178.959V173.746H174.677V183.671Z" fill="#282728"/>
<path d="M183.48 180.973C183.497 181.37 183.419 181.766 183.252 182.127C183.085 182.488 182.834 182.804 182.521 183.049C181.751 183.591 180.82 183.858 179.88 183.804C178.933 183.839 177.991 183.66 177.123 183.28V181.747C177.585 181.963 178.068 182.13 178.564 182.247C179.029 182.365 179.507 182.427 179.986 182.432C180.487 182.471 180.985 182.343 181.404 182.066C181.554 181.951 181.674 181.802 181.754 181.631C181.835 181.46 181.874 181.273 181.868 181.084C181.868 180.908 181.83 180.735 181.757 180.575C181.685 180.415 181.578 180.273 181.446 180.157C180.919 179.759 180.333 179.447 179.708 179.231C178.975 178.98 178.317 178.548 177.795 177.975C177.42 177.49 177.224 176.892 177.239 176.279C177.223 175.907 177.294 175.537 177.447 175.197C177.599 174.857 177.83 174.558 178.119 174.324C178.803 173.818 179.642 173.566 180.491 173.611C181.47 173.617 182.436 173.83 183.327 174.236L182.813 175.561C182.069 175.222 181.266 175.033 180.45 175.005C180.023 174.975 179.6 175.096 179.254 175.348C179.119 175.46 179.011 175.602 178.94 175.763C178.87 175.924 178.838 176.099 178.847 176.275C178.84 176.506 178.896 176.735 179.009 176.937C179.146 177.148 179.328 177.325 179.542 177.456C179.971 177.707 180.421 177.922 180.885 178.1C181.453 178.315 181.991 178.6 182.488 178.948C182.804 179.182 183.059 179.487 183.234 179.838C183.399 180.193 183.483 180.581 183.48 180.973Z" fill="#282728"/>
<path d="M185.885 183.671V173.746H187.506V183.671H185.885Z" fill="#282728"/>
<path d="M198.867 183.671H196.88L191.996 175.766H191.941L191.973 176.23C192.038 177.073 192.07 177.842 192.07 178.546V183.703H190.597V173.746H192.566L197.431 181.623H197.473C197.473 181.516 197.445 181.159 197.417 180.488C197.389 179.816 197.375 179.325 197.375 178.959V173.746H198.863V183.671H198.867Z" fill="#282728"/>
<path d="M201.203 180.579V179.291H207.041V180.579H201.203Z" fill="#282728"/>
<path d="M213.671 183.671L210.794 175.382H210.738C210.815 176.617 210.854 177.771 210.854 178.843V183.671H209.38V173.746H211.665L214.421 181.623H214.463L217.299 173.746H219.615V183.671H218.054V178.764C218.054 178.27 218.066 177.627 218.091 176.837C218.114 176.044 218.137 175.562 218.156 175.396H218.1L215.121 183.671H213.689H213.671Z" fill="#282728"/>
<path d="M228.836 183.671L227.844 180.914H224.049L223.076 183.671H221.367L225.073 173.709H226.839L230.545 183.671H228.822H228.836ZM227.418 179.501L226.491 176.799C226.422 176.619 226.329 176.336 226.209 175.942C226.088 175.548 226.009 175.266 225.963 175.085C225.823 175.704 225.645 176.314 225.43 176.911L224.536 179.496H227.427L227.418 179.501Z" fill="#282728"/>
<path d="M240.414 178.611C240.414 180.248 239.959 181.501 239.047 182.369C238.136 183.237 236.827 183.671 235.118 183.671H232.338V173.746H235.406C236.987 173.746 238.223 174.171 239.112 175.02C240.002 175.87 240.436 177.067 240.414 178.611ZM238.705 178.667C238.705 176.291 237.593 175.104 235.369 175.104H233.979V182.304H235.132C237.514 182.304 238.705 181.091 238.705 178.667Z" fill="#282728"/>
<path d="M243.018 183.671V173.746H244.64V183.671H243.018Z" fill="#282728"/>
<path d="M253.443 180.973C253.46 181.37 253.382 181.766 253.215 182.127C253.049 182.488 252.798 182.804 252.484 183.049C251.714 183.591 250.784 183.858 249.843 183.804C248.897 183.839 247.954 183.66 247.086 183.28V181.747C247.548 181.963 248.031 182.13 248.527 182.247C248.993 182.365 249.47 182.427 249.95 182.432C250.45 182.471 250.949 182.343 251.368 182.066C251.517 181.951 251.637 181.802 251.718 181.631C251.798 181.46 251.837 181.273 251.831 181.084C251.831 180.908 251.793 180.735 251.721 180.575C251.648 180.415 251.542 180.273 251.409 180.157C250.882 179.759 250.296 179.447 249.672 179.231C248.938 178.98 248.28 178.548 247.758 177.975C247.384 177.49 247.188 176.892 247.202 176.279C247.186 175.907 247.257 175.537 247.41 175.197C247.563 174.857 247.793 174.558 248.083 174.324C248.767 173.818 249.605 173.566 250.455 173.611C251.434 173.617 252.4 173.83 253.29 174.236L252.776 175.561C252.033 175.222 251.23 175.033 250.413 175.005C249.987 174.975 249.563 175.096 249.218 175.348C249.082 175.46 248.975 175.602 248.904 175.763C248.833 175.924 248.801 176.099 248.81 176.275C248.803 176.506 248.859 176.735 248.972 176.937C249.109 177.148 249.291 177.325 249.505 177.456C249.935 177.707 250.384 177.922 250.849 178.1C251.416 178.315 251.955 178.6 252.452 178.948C252.767 179.182 253.023 179.487 253.198 179.838C253.363 180.193 253.447 180.581 253.443 180.973Z" fill="#282728"/>
<path d="M264.656 178.693C264.656 180.309 264.253 181.564 263.447 182.46C263.006 182.92 262.471 183.279 261.878 183.511C261.285 183.743 260.649 183.843 260.013 183.804C258.518 183.804 257.368 183.359 256.562 182.469C255.755 181.58 255.354 180.316 255.357 178.679C255.357 177.042 255.76 175.785 256.566 174.908C257.372 174.031 258.525 173.592 260.023 173.592C260.656 173.554 261.289 173.654 261.88 173.885C262.47 174.116 263.003 174.473 263.442 174.931C264.251 175.821 264.656 177.075 264.656 178.693ZM257.081 178.693C257.012 179.677 257.273 180.655 257.822 181.473C258.103 181.771 258.442 182.008 258.818 182.171C259.194 182.333 259.599 182.416 260.009 182.416C260.418 182.416 260.824 182.333 261.2 182.171C261.576 182.008 261.915 181.771 262.196 181.473C262.687 180.855 262.932 179.929 262.932 178.693C263.003 177.711 262.745 176.733 262.2 175.913C261.938 175.597 261.604 175.348 261.226 175.187C260.848 175.026 260.437 174.957 260.027 174.987C259.613 174.957 259.198 175.025 258.816 175.186C258.433 175.347 258.094 175.596 257.827 175.913C257.273 176.73 257.01 177.709 257.081 178.693Z" fill="#282728"/>
<path d="M275.526 183.671H273.538L268.655 175.766H268.599L268.636 176.23C268.698 177.07 268.73 177.842 268.733 178.546V183.703H267.26V173.746H269.229L274.099 181.623H274.14C274.14 181.516 274.113 181.159 274.085 180.488C274.057 179.816 274.043 179.325 274.043 178.959V173.746H275.53V183.671H275.526Z" fill="#282728"/>
</g>
<defs>
<radialGradient id="paint0_radial_316_1818" cx="0" cy="0" r="1" gradientUnits="userSpaceOnUse" gradientTransform="translate(143.726 60.916) scale(50.6599 50.6599)">
<stop offset="0.17" stop-color="white"/>
<stop offset="0.3" stop-color="#F6EDE4"/>
<stop offset="0.69" stop-color="#DEBE9B"/>
<stop offset="0.87" stop-color="#D4AC7F"/>
</radialGradient>
<clipPath id="clip0_316_1818">
<rect width="278" height="183.804" fill="white"/>
</clipPath>
</defs>
</svg>
