<svg width="185" height="185" viewBox="0 0 185 185" fill="none" xmlns="http://www.w3.org/2000/svg">
<g clip-path="url(#clip0_316_6586)">
<path d="M75.1191 34.7656L55.439 39.6856C55.1623 39.7688 54.9352 40.0113 54.9066 40.1755L44.8535 84.8178C51.2241 91.429 59.4429 98.326 65.7902 104.796C70.4733 97.4448 73.511 88.8123 75.4173 79.344C77.449 67.7881 77.5702 54.5209 80.7633 42.8805L74.3737 40.1755C74.5127 38.4471 75.6146 36.3325 75.1191 34.7656ZM89.1763 46.2244C90.0985 52.5779 92.5298 58.7926 95.5873 63.8811C103.883 78.9668 120.531 89.4064 133.648 99.6844C133.763 99.7941 133.872 99.9141 133.989 100.025C135.914 92.6309 138.623 85.055 139.718 77.8318C135.469 82.3615 131.85 87.6267 127.685 91.9955L124.426 89.0989C126.608 80.3885 129.629 71.6616 131.284 63.0078L89.1763 46.2244ZM114.437 107.48C110.012 107.431 105.588 107.884 101.444 108.715C98.9145 109.258 96.4655 109.797 93.8408 110.589C86.2966 112.775 79.125 116.494 71.9243 119.876C72.9909 126.765 73.5629 134.63 74.757 141.238H122.019C124.256 141.045 126.686 141.539 128.643 140.961C129.108 131.106 126.734 120.105 130.986 110.355C125.832 108.428 120.126 107.543 114.437 107.48Z" fill="white"/>
<path d="M79.0182 31.1855C73.1963 32.0913 67.2086 34.0307 61.2763 35.4879L52.8207 37.6178C52.1848 39.7361 51.746 42.1002 51.1381 44.3269C48.2128 58.2846 44.2292 72.532 42.2139 86.243C49.3873 92.8112 56.574 99.6922 63.6405 106.093L64.4285 106.818C64.8927 106.156 65.3561 105.478 65.7916 104.794C59.4443 98.3248 51.2255 91.4271 44.8549 84.8159L54.908 40.1736C54.9366 40.0101 55.1637 39.7669 55.4404 39.6838L75.1205 34.7637C75.616 36.3313 74.5141 38.4452 74.3751 40.1736L80.7647 42.8786C80.9958 42.0348 81.245 41.1907 81.5102 40.3653C80.3283 39.7771 78.1301 39.16 77.5699 38.2781L79.0182 31.1855ZM88.8796 43.3685C88.947 44.3213 89.0401 45.2724 89.1777 46.2225L131.285 63.006C129.63 71.6598 126.609 80.3866 124.427 89.097L127.686 91.9936C131.852 87.6248 135.45 82.3603 139.699 77.8299C138.604 85.0531 135.916 92.629 133.99 100.023C134.611 100.616 135.253 101.216 135.886 101.834L146.195 65.4553L128.069 87.3505C127.988 87.3505 127.912 87.3485 127.856 87.2653L134.693 61.4725L89.8806 43.6666L88.8796 43.3685ZM130.987 110.353C126.736 120.102 129.109 131.104 128.644 140.96C126.688 141.538 124.258 141.043 122.021 141.236H74.7584C73.5644 134.628 72.993 126.763 71.9257 119.874C71.129 120.248 70.3177 120.617 69.5189 120.981L72.0535 143.75L72.1813 143.792H131.371C131.703 135.63 130.907 127.11 131.456 118.894C131.838 116.54 132.343 114.266 133.543 111.418C132.708 111.032 131.857 110.678 130.987 110.353Z" fill="#103584"/>
<path d="M135.868 101.829C135.235 101.21 134.605 100.605 133.985 100.012C133.868 99.9011 133.749 99.7873 133.634 99.6776C120.517 89.3996 103.881 78.9629 95.5854 63.8779C92.5279 58.7893 90.0968 52.5755 89.1746 46.222C89.0369 45.2719 88.9347 44.3191 88.8679 43.3656C88.4787 37.8627 89.3109 32.3652 91.9431 27.5077C93.4698 24.2573 96.2424 20.932 99.1281 18.6924C96.8701 19.2806 95.1205 21.0526 93.1904 22.4287C92.9027 22.6816 92.731 22.7081 92.5627 22.886C87.0052 27.5984 83.6628 33.6554 81.5043 40.3626C81.2385 41.1873 80.9897 42.0216 80.7587 42.8653C77.5656 54.5057 77.4381 67.7832 75.4064 79.3391C73.5 88.8067 70.4582 97.4462 65.7752 104.798C65.3397 105.482 64.8865 106.151 64.4223 106.813C61.0472 111.617 56.9061 115.816 51.8284 119.258C44.6795 123.632 34.7219 125.337 26.809 121.625C26.7633 121.625 26.6406 121.63 26.6406 121.775C28.8502 123.592 31.4381 124.681 34.559 125.765C47.3315 129.779 58.5091 125.989 69.5177 120.97C70.3158 120.606 71.1139 120.238 71.9106 119.863C79.1113 116.481 86.2834 112.774 93.8276 110.589C96.4523 109.796 98.908 109.25 101.438 108.707C110.91 106.807 121.808 106.924 130.971 110.349C131.84 110.675 132.694 111.03 133.529 111.415C136.988 113.012 140.135 115.135 142.773 117.872C146.662 122.033 149.738 127.134 150.273 133.543L150.395 133.564L150.542 133.535C151.092 125.023 147.678 115.102 142.708 109.296C140.772 106.756 138.309 104.212 135.868 101.829Z" fill="#D20102"/>
<path d="M96.29 0.00499526C91.8475 -0.151764 88.9405 2.78832 88.7715 7.56607C88.6024 12.3438 91.313 15.4609 95.7575 15.617C100.204 15.7704 103.132 12.855 103.297 8.07724C103.466 3.29745 100.734 0.160391 96.29 0.00499526ZM79.1657 1.06994C78.7328 1.08503 78.274 1.13614 77.8026 1.21903C73.1973 2.02872 71.1521 5.19049 72.0306 10.1645C72.903 15.0547 75.9336 17.3973 80.252 16.6394C84.0421 15.9769 86.1647 13.4267 85.8109 10.1006L82.8504 10.6118C82.8129 12.4186 81.7872 13.5715 79.9538 13.8918C77.4483 14.3321 75.686 12.8395 75.1189 9.63206C74.5382 6.36533 75.6226 4.36682 78.2712 3.90268C80.1489 3.57212 81.4387 4.26254 81.9772 5.86217L84.9377 5.351C84.2477 2.50633 82.1965 0.964295 79.1657 1.06994ZM108.792 1.45331L105.427 15.8939L108.388 16.5755L110.688 6.65022L114.309 17.9386L117.397 18.6415L120.741 4.20086L117.802 3.5193L115.501 13.4445L111.902 2.17747L108.792 1.45331ZM95.7362 2.66735C95.8899 2.65855 96.0434 2.66142 96.2048 2.66735C98.8111 2.75322 100.325 4.67199 100.209 7.97075C100.092 11.2641 98.4476 13.046 95.8427 12.9547C93.2562 12.8688 91.768 10.9713 91.8811 7.67257C91.9923 4.58765 93.4305 2.79931 95.7362 2.66735ZM63.149 5.351C62.2935 5.33229 61.3358 5.51414 60.3163 5.90477C56.813 7.24335 55.555 9.45161 56.589 12.124C57.1451 13.5676 58.0726 14.4434 59.2939 14.6799C60.428 14.9109 61.5456 14.7107 62.7656 14.5308C65.5355 14.1327 66.7923 13.9405 67.281 15.2123C67.7267 16.3655 67.1293 17.2725 65.4493 17.9173C63.5361 18.6459 62.2308 18.3501 61.4238 16.8949L58.5911 17.9812C59.8854 20.8635 62.5729 21.7993 66.1095 20.4519C69.7027 19.0778 71.0406 16.6136 69.9433 13.764C69.3967 12.3416 68.4344 11.535 67.0467 11.336C65.9964 11.1881 64.8021 11.3312 63.362 11.5064C60.8402 11.8069 59.7811 12.198 59.2726 10.8887C58.8637 9.83158 59.4703 8.90875 60.9765 8.33283C62.6934 7.67444 63.9153 8.02459 64.5334 9.33387L67.2597 8.29023C66.4612 6.40844 65.0311 5.39213 63.149 5.351ZM128.089 7.0975C126.427 7.15215 125.179 8.01974 124.447 9.65336C123.817 11.0642 123.86 12.3508 124.553 13.3806C125.193 14.3376 126.12 14.9736 127.109 15.7022C129.35 17.3768 130.392 18.1184 129.836 19.3656C129.332 20.4977 128.243 20.7352 126.598 20.0046C124.725 19.1731 124.025 18.0233 124.49 16.4264L121.721 15.2123C120.586 18.1587 121.816 20.7267 125.278 22.2622C128.792 23.821 131.489 23.0244 132.732 20.2389C133.357 18.841 133.25 17.5867 132.413 16.469C131.769 15.6197 130.832 14.8884 129.686 13.9983C127.687 12.4362 126.665 11.9763 127.237 10.697C127.699 9.6617 128.768 9.40169 130.24 10.058C131.925 10.805 132.545 11.9117 132.051 13.2742L134.734 14.4669C135.852 11.7168 134.714 9.30797 131.518 7.88555C130.236 7.3179 129.086 7.06471 128.089 7.0975ZM51.3495 10.1219L48.6232 11.5064L55.3749 24.6903L58.1012 23.3059L51.3495 10.1219ZM140.293 12.8056L132.839 25.6275L135.501 27.161L142.934 14.3178L140.293 12.8056ZM44.2357 13.3593L41.765 15.2975L46.2165 25.095L38.059 18.1729L35.4819 20.175L40.2528 29.7381L31.7759 23.0503L29.2839 24.9885L41.8076 34.0618L44.1079 32.2727L38.911 21.9002L47.75 29.4399L50.0502 27.6508L44.2357 13.3593ZM147.535 16.9801L138.376 28.6519L140.762 30.5049L147.045 22.4752L145.554 34.2322L148.046 36.1704L157.205 24.4986L154.819 22.6456L148.515 30.654L150.069 18.9396L147.535 16.9801ZM157.737 36.3834L156.48 39.493C155.544 40.0123 154.221 39.5903 153.115 39.7273L155.799 41.921L154.798 45.1159H154.926L157.652 43.3268L160.378 45.0307L159.633 42.0701L162.252 39.7912L159.228 39.7273C158.234 39.1193 158.318 37.5093 157.737 36.3834ZM24.1296 37.1288L22.9795 39.9829L19.2309 40.0894L22.0849 42.5387L21.233 45.7548L21.2969 45.6696L24.0231 43.774L26.8984 45.5631L25.9826 42.4322L28.7514 40.1532L25.5992 40.0894C24.7152 39.538 24.7076 38.0346 24.1296 37.1288ZM175.458 51.399L161.571 56.7237L162.657 59.5139L172.199 55.8718L164.808 65.1367L165.958 68.1186L179.866 62.8152L178.78 60.0037L169.238 63.6458L176.586 54.3595L175.458 51.399ZM9.49731 52.038L7.53782 56.6385C6.70496 58.5953 6.22752 60.1225 6.72847 61.8993C7.26759 63.8077 8.8604 65.4162 11.4142 66.4999C16.0441 68.4512 19.1326 67.3525 20.9135 63.1773L23.1924 57.8313L9.49731 52.038ZM10.7965 55.8292L19.6142 59.5565L18.5067 62.1549C17.5198 64.4695 15.6775 64.934 12.6282 63.6458C9.5394 62.342 8.72579 60.687 9.8381 58.0868L10.7965 55.8292ZM4.10872 65.7331L1.59546 76.5742L4.27911 77.1919L6.1108 69.2687L9.8381 70.142L8.24069 77.0428L10.7113 77.5965L12.3088 70.6957L15.3971 71.3986L13.6506 78.9597L16.1638 79.5347L18.5919 69.0557L4.10872 65.7331ZM175.543 66.3082C174.752 66.2945 173.907 66.3834 173.03 66.5851C168.353 67.6606 166.022 71.0851 167.023 75.4028C168.023 79.7184 171.611 81.779 176.288 80.7062C180.965 79.6279 183.292 76.2096 182.295 71.8885C181.479 68.3848 178.971 66.3676 175.543 66.3082ZM175.415 69.3752C177.697 69.3235 179.219 70.4292 179.696 72.4848C180.278 74.9957 178.83 76.9182 175.607 77.6604C172.381 78.3999 170.206 77.3146 169.622 74.8064C169.036 72.2792 170.502 70.3517 173.732 69.6095C174.337 69.4703 174.888 69.3871 175.415 69.3752ZM0.849999 79.3643L0.594413 82.4101L5.87652 82.8574L5.53574 86.5846C5.27947 89.5045 6.87398 91.2629 9.92329 91.526C13.036 91.8 14.8215 90.3452 15.0989 87.2236L15.674 80.6423L0.849999 79.3643ZM183.019 81.0257L168.259 82.8361L168.621 85.8605L183.402 84.0501L183.019 81.0257ZM8.53887 83.0916L12.8412 83.475L12.5643 86.5846C12.4396 88.0016 11.6228 88.6442 10.2215 88.5228C8.6975 88.3886 8.14902 87.6116 8.28328 86.0522L8.53887 83.0916ZM171.496 86.6698L168.834 86.755L169.26 98.5546L171.901 98.4694L171.752 94.0818L183.977 93.6558L183.849 90.6101L171.645 91.0361L171.496 86.6698ZM-0.00195312 89.9925L0.168437 93.2086L3.27806 94.0179L3.57625 99.7686L0.573115 100.919L0.743505 104.114L15.3119 98.0221L15.1415 94.4865L-0.00195312 89.9925ZM5.81262 94.6995L12.2449 96.4247L6.02561 98.8102L5.81262 94.6995ZM184.02 97.4044L168.599 100.897L168.173 104.39L182.295 111.44L182.678 108.246L179.76 106.904L180.463 101.196L183.636 100.578L184.02 97.4044ZM177.886 101.728L177.375 105.817L171.347 103.006L177.886 101.728ZM14.9711 102.985L0.466621 106.329L1.14818 109.289L6.79237 108.011L7.53782 111.142C7.92154 112.796 7.4286 113.371 5.72743 113.826L4.21521 114.23C3.43482 114.429 2.84084 114.656 2.46871 114.976L3.23547 118.235L3.68274 118.128C3.83677 117.52 4.32988 117.406 5.17366 117.191L6.87756 116.744C8.61623 116.284 9.45949 115.709 9.62511 114.23C10.3912 115.515 11.7713 115.984 13.5441 115.572C16.3501 114.93 17.3157 113.127 16.5898 109.992L14.9711 102.985ZM13.1607 106.542L13.9914 110.184C14.3117 111.569 13.8143 112.385 12.5643 112.676C11.2319 112.98 10.4873 112.411 10.1363 110.908L9.32692 107.415L13.1607 106.542ZM167.577 106.712L164.51 118.128L167.066 118.81L168.216 114.571L180.037 117.723L180.825 114.763L169.004 111.611L170.133 107.394L167.577 106.712ZM17.2714 114.358L14.8007 115.295L16.3768 119.406L4.96067 123.772L6.06821 126.605L17.4844 122.239L19.0392 126.328L21.5098 125.37L17.2714 114.358ZM166.065 119.662C164.573 119.736 163.411 120.774 162.508 122.793L159.569 129.374L173.157 135.402L174.414 132.611L169.111 130.268L170.431 127.308C171.122 125.764 171.865 125.587 173.498 126.243L174.946 126.839C175.696 127.151 176.306 127.317 176.799 127.287L178.163 124.22L177.737 124.049C177.244 124.442 176.77 124.237 175.969 123.9L174.35 123.24C172.681 122.568 171.646 122.524 170.623 123.602C170.786 122.118 169.963 120.888 168.301 120.152C167.48 119.788 166.743 119.628 166.065 119.662ZM166.15 122.857C166.512 122.8 166.903 122.876 167.343 123.07C168.59 123.624 168.846 124.533 168.216 125.945L166.746 129.204L163.168 127.627L164.68 124.22C165.043 123.408 165.547 122.951 166.15 122.857ZM21.595 125.966L8.70926 133.378L10.1576 135.849L20.5514 129.864L11.6911 138.49L13.2459 141.195L25.1519 137.808L14.7581 143.793L16.1851 146.264L29.0709 138.852L26.7919 134.933L15.5462 138.064L23.8527 129.864L21.595 125.966ZM160.463 131.717C158.351 131.853 156.44 132.992 155.075 135.082C152.652 138.794 153.69 142.804 157.716 145.412C161.744 148.014 165.813 147.32 168.237 143.602C170.66 139.889 169.664 135.855 165.639 133.25C163.877 132.11 162.106 131.611 160.463 131.717ZM160.548 134.677C161.573 134.679 162.718 135.063 163.935 135.849C166.711 137.643 167.422 139.976 166.001 142.153C164.592 144.313 162.198 144.588 159.42 142.792C156.643 140.996 155.923 138.69 157.332 136.53C158.13 135.306 159.231 134.676 160.548 134.677ZM30.0933 138.319L18.6984 147.84L25.8761 156.381L27.9847 154.613L22.7452 148.394L25.6844 145.944L30.2637 151.376L32.2018 149.736L27.6226 144.304L30.0507 142.281L35.0559 148.223L37.0367 146.562L30.0933 138.319ZM152.093 142.238C150.961 142.253 149.842 142.818 148.749 143.942L144.148 148.692L154.862 158.979L156.992 156.786L153.158 153.122L155.799 150.417C157.838 148.309 157.703 145.957 155.501 143.836C154.375 142.755 153.225 142.224 152.093 142.238ZM151.837 145.263C152.344 145.26 152.845 145.502 153.349 145.987C154.456 147.044 154.399 147.994 153.307 149.118L151.241 151.269L148.131 148.287L150.325 146.03C150.823 145.517 151.33 145.266 151.837 145.263ZM37.1645 147.009L27.4096 158.191L29.6886 160.172L36.3977 152.483L34.2891 164.134L36.6746 166.2L46.4294 155.018L44.1505 153.058L37.4413 160.747L39.5925 149.097L37.1645 147.009ZM142.338 150.822C141.221 150.902 140.03 151.417 138.824 152.355C135.877 154.652 135.307 157.126 137.077 159.384C138.033 160.596 139.179 161.171 140.421 161.045C141.572 160.936 142.587 160.419 143.701 159.895C146.236 158.71 147.375 158.165 148.216 159.235C148.98 160.208 148.676 161.242 147.258 162.345C145.647 163.601 144.3 163.7 143.105 162.536L140.719 164.41C142.801 166.793 145.659 166.904 148.642 164.581C151.675 162.22 152.232 159.487 150.346 157.084C149.404 155.882 148.233 155.356 146.853 155.571C145.799 155.736 144.706 156.218 143.382 156.807C141.057 157.826 140.161 158.527 139.292 157.424C138.593 156.532 138.896 155.475 140.165 154.485C141.618 153.354 142.877 153.327 143.85 154.4L146.172 152.611C145.093 151.332 143.775 150.718 142.338 150.822ZM47.3879 154.975L45.9396 157.19L49.6456 159.576L42.979 169.799L45.5562 171.46L52.2014 161.237L55.8861 163.622L57.3344 161.407L47.3879 154.975ZM134.266 156.317L131.625 157.787L136.587 166.689L126.343 160.704L123.531 162.259L130.751 175.209L133.392 173.739L128.43 164.836L138.717 170.8L141.486 169.288L134.266 156.317ZM119.761 164.027L116.417 165.156L116.247 180.896L119.293 179.852L119.229 176.636L124.681 174.783L126.641 177.318L129.665 176.295L119.761 164.027ZM64.7677 164.389C61.5608 164.284 58.9436 166.321 57.7391 170.012C56.254 174.558 57.98 178.316 62.2119 179.682C66.4423 181.053 70.0817 179.034 71.562 174.485C73.0465 169.939 71.2991 166.186 67.068 164.815C66.2747 164.559 65.5078 164.413 64.7677 164.389ZM64.8955 167.115C65.3239 167.12 65.7759 167.201 66.2373 167.35C68.7169 168.154 69.6486 170.392 68.6228 173.526C67.6039 176.658 65.5207 177.951 63.0425 177.147C60.5862 176.351 59.6793 174.102 60.6996 170.971C61.5331 168.421 63.0393 167.097 64.8955 167.115ZM74.3948 167.392L71.8176 181.982L74.7782 182.514L75.8857 176.295L82.2327 177.403L82.68 174.868L76.333 173.761L76.9293 170.438L84.1709 171.716L84.6182 169.181L74.3948 167.392ZM109.069 167.392C108.572 167.391 108.024 167.448 107.429 167.563L100.337 168.947L103.191 183.473L106.194 182.898L105.086 177.232L108.26 176.615C109.928 176.292 110.504 176.803 110.901 178.51L111.242 180.044C111.416 180.828 111.638 181.409 111.945 181.79L115.225 181.151L115.139 180.704C114.533 180.524 114.43 180.017 114.245 179.171L113.861 177.467C113.46 175.717 112.91 174.873 111.433 174.655C112.753 173.942 113.273 172.565 112.924 170.779C112.479 168.498 111.226 167.398 109.069 167.392ZM119.058 167.392L123.084 172.674L119.165 174.016L119.058 167.392ZM99.8895 168.968L88.026 169.373L88.1325 172.014L92.5414 171.865L92.9673 184.027L96.0131 183.92L95.5871 171.759L99.9746 171.588L99.8895 168.968ZM108.004 170.097C109.105 170.033 109.77 170.577 109.985 171.673C110.242 173.01 109.655 173.723 108.132 174.016L104.596 174.698L103.83 170.864L107.514 170.161C107.69 170.127 107.847 170.106 108.004 170.097Z" fill="#103584"/>
</g>
<defs>
<clipPath id="clip0_316_6586">
<rect width="184.022" height="184.028" fill="white"/>
</clipPath>
</defs>
</svg>
