<svg width="281" height="63" viewBox="0 0 281 63" fill="none" xmlns="http://www.w3.org/2000/svg">
<g clip-path="url(#clip0_316_1691)">
<mask id="mask0_316_1691" style="mask-type:alpha" maskUnits="userSpaceOnUse" x="0" y="-1" width="280" height="64">
<path d="M58.5203 61.907H8.89361C5.62066 61.907 2.4795 60.2046 0.991802 57.2909C-0.760493 53.9515 -0.0991739 49.9571 2.54575 47.3381L37.0959 13.1264H12.332C5.52115 13.1264 0 7.65922 0 0.915076H45.725C48.9983 0.915076 52.139 2.61717 53.6269 5.53091C55.3791 8.87014 54.7179 12.8644 52.073 15.4834L17.523 49.6955H46.1551C52.9659 49.6955 58.4872 55.1629 58.4872 61.907H58.5203ZM255.007 -0.00169417C247.902 -0.00169417 241.521 3.04308 237.123 7.88835C232.726 3.04308 226.31 -0.034452 219.235 -0.00169417C206.044 -0.00169417 195.267 11.1622 195.267 24.225V61.907C202.077 61.907 207.598 56.4396 207.598 49.6955V24.0609C207.598 17.7752 212.525 12.4389 218.838 12.2096C225.483 11.9479 231.008 17.2515 231.008 23.7992V49.7281C231.008 56.4722 236.529 61.9396 243.339 61.9396V24.1265C243.339 17.8408 248.266 12.5045 254.577 12.2751C261.224 12.0135 266.747 17.3171 266.747 23.8648V49.7933C266.747 56.5374 272.268 62.0049 279.079 62.0049V24.3233C279.079 11.2604 268.298 0.129336 255.108 0.0966105L255.007 -0.00169417ZM120.71 31.3944C120.71 48.713 106.493 62.791 89.0037 62.791C71.5136 62.791 57.297 48.713 57.297 31.3944C57.297 14.0759 71.5136 -0.00169417 89.0037 -0.00169417C106.493 -0.00169417 120.71 14.0759 120.71 31.3944ZM108.378 31.3944C108.378 20.787 99.6826 12.1769 88.9704 12.1769C78.2582 12.1769 69.5631 20.787 69.5631 31.3944C69.5631 42.0018 78.2582 50.6121 88.9704 50.6121C99.6826 50.6121 108.378 42.0018 108.378 31.3944ZM189.051 31.3944C189.051 48.713 174.833 62.791 157.343 62.791C139.853 62.791 125.636 48.713 125.636 31.3944C125.636 14.0759 139.853 -0.00169417 157.343 -0.00169417C174.833 -0.00169417 189.051 14.0759 189.051 31.3944ZM176.718 31.3944C176.718 20.787 168.022 12.1769 157.31 12.1769C146.598 12.1769 137.903 20.787 137.903 31.3944C137.903 42.0018 146.598 50.6121 157.31 50.6121C168.022 50.6121 176.718 42.0018 176.718 31.3944Z" fill="#0B5CFF"/>
</mask>
<g mask="url(#mask0_316_1691)">
<path d="M279.079 -0.00195312H0V62.791H279.079V-0.00195312Z" fill="#0B5CFF"/>
</g>
</g>
<defs>
<clipPath id="clip0_316_1691">
<rect width="280.159" height="62.7941" fill="white"/>
</clipPath>
</defs>
</svg>
