<svg width="24" height="24" viewBox="0 0 24 24" fill="none" xmlns="http://www.w3.org/2000/svg">
<path d="M18.625 14.4727C21.0594 14.9722 21.9495 16.5914 21.9495 17.9437" stroke="black" stroke-width="1.2" stroke-linecap="round" stroke-linejoin="round"/>
<path d="M18.084 6.20703C19.1922 6.56469 19.9915 7.60588 19.987 8.83327C19.9824 10.0084 19.241 11.0099 18.2009 11.3993" stroke="black" stroke-width="1.2" stroke-linecap="round" stroke-linejoin="round"/>
<path d="M5.54102 19.9992C5.54102 17.8907 7.20555 15.2656 11.9993 15.2656C16.7931 15.2656 18.4576 17.8714 18.4576 19.9811" stroke="black" stroke-width="1.2" stroke-linecap="round" stroke-linejoin="round"/>
<path fill-rule="evenodd" clip-rule="evenodd" d="M16.1262 8.12501C16.1262 10.4038 14.2788 12.25 12.0011 12.25C9.72234 12.25 7.875 10.4038 7.875 8.12501C7.875 5.8462 9.72234 4 12.0011 4C14.2788 4 16.1262 5.8462 16.1262 8.12501Z" stroke="black" stroke-width="1.2" stroke-linecap="round" stroke-linejoin="round"/>
<path d="M5.37501 14.4727C2.94065 14.9722 2.05048 16.5914 2.05048 17.9437" stroke="black" stroke-width="1.2" stroke-linecap="round" stroke-linejoin="round"/>
<path d="M5.91601 6.20703C4.80783 6.56469 4.00849 7.60588 4.01304 8.83327C4.01758 10.0084 4.759 11.0099 5.79906 11.3993" stroke="black" stroke-width="1.2" stroke-linecap="round" stroke-linejoin="round"/>
</svg>
