<svg width="24" height="24" viewBox="0 0 24 24" fill="none" xmlns="http://www.w3.org/2000/svg">
<g clip-path="url(#clip0_316_1080)">
<path d="M22.0058 11.5095C22.0343 11.8258 22.0491 12.1467 22.0491 12.4698C22.0491 18.2829 17.3375 22.9945 11.5244 22.9945C5.71137 22.9945 0.999725 18.2829 0.999725 12.4698C0.999725 6.65795 5.71137 1.94517 11.5244 1.94517C11.9682 1.94517 12.4062 1.97361 12.8363 2.02709M6.3518 21.638C6.55775 20.0371 7.98227 18.2598 11.5175 18.2598C15.0913 18.2598 16.5055 20.0474 16.7024 21.6676M17.8568 3.69117L18.7685 5.60494L20.0897 5.10369M14.5201 12.4267C14.5201 14.0811 13.1787 15.4226 11.5243 15.4226C9.8699 15.4226 8.52849 14.0811 8.52849 12.4267C8.52849 10.7724 9.8699 9.43203 11.5243 9.43203C13.1787 9.43203 14.5201 10.7724 14.5201 12.4267ZM23 5.13205C23 7.41483 21.1491 9.26589 18.8663 9.26589C16.5835 9.26589 14.7326 7.41483 14.7326 5.13205C14.7326 2.84943 16.5835 1 18.8663 1C21.1491 1 23 2.84943 23 5.13205Z" stroke="black" stroke-width="1.2" stroke-linecap="round" stroke-linejoin="round"/>
</g>
<defs>
<clipPath id="clip0_316_1080">
<rect width="24" height="24" fill="white"/>
</clipPath>
</defs>
</svg>
