<svg width="24" height="24" viewBox="0 0 24 24" fill="none" xmlns="http://www.w3.org/2000/svg">
<path d="M5.83985 7.3389L4.42485 8.7539L3.00885 7.3389" stroke="black" stroke-width="1.2" stroke-linecap="round" stroke-linejoin="round"/>
<path d="M4.4249 8.67382V6.53782C4.4249 4.58382 6.0089 2.99982 7.9629 2.99982" stroke="black" stroke-width="1.2" stroke-linecap="round" stroke-linejoin="round"/>
<path fill-rule="evenodd" clip-rule="evenodd" d="M20.6465 6.95801C20.6465 4.77201 18.8745 3.00001 16.6885 3C14.5025 3 12.7295 4.772 12.7295 6.958C12.7295 9.144 14.5025 10.916 16.6885 10.916C18.8745 10.916 20.6465 9.14401 20.6465 6.95801Z" stroke="black" stroke-width="1.2" stroke-linecap="round" stroke-linejoin="round"/>
<path fill-rule="evenodd" clip-rule="evenodd" d="M3.35449 17.042C3.35449 19.228 5.12649 21 7.31249 21C9.49849 21 11.2715 19.228 11.2715 17.042C11.2715 14.856 9.4985 13.084 7.3125 13.084C5.1265 13.084 3.3545 14.856 3.35449 17.042Z" stroke="black" stroke-width="1.2" stroke-linecap="round" stroke-linejoin="round"/>
<path d="M18.1602 16.6591L19.5752 15.2441L20.9912 16.6591" stroke="black" stroke-width="1.2" stroke-linecap="round" stroke-linejoin="round"/>
<path d="M19.5751 15.3242V17.4602C19.5751 19.4142 17.9911 20.9982 16.0371 20.9982" stroke="black" stroke-width="1.2" stroke-linecap="round" stroke-linejoin="round"/>
</svg>
