<svg width="24" height="24" viewBox="0 0 24 24" fill="none" xmlns="http://www.w3.org/2000/svg">
<path d="M12.0003 14.142V16.309" stroke="black" stroke-width="1.3" stroke-linecap="round" stroke-linejoin="round"/>
<path d="M16.4481 9.46727V7.37127C16.4179 4.91427 14.4007 2.94727 11.9445 2.97827C9.5381 3.00827 7.592 4.94627 7.5511 7.35127V9.46727" stroke="black" stroke-width="1.3" stroke-linecap="round" stroke-linejoin="round"/>
<path d="M9.30407 21.0221H14.6959C16.2912 21.0221 17.0889 21.0221 17.7046 20.7261C18.3193 20.4311 18.8151 19.9351 19.1103 19.3211C19.4059 18.7051 19.4059 17.9071 19.4059 16.3121V14.1801C19.4059 12.5851 19.4059 11.7871 19.1103 11.1721C18.8151 10.5571 18.3193 10.0611 17.7046 9.76609C17.0889 9.47009 16.2912 9.47009 14.6959 9.47009H9.30407C7.70877 9.47009 6.91107 9.47009 6.29547 9.76609C5.68067 10.0611 5.18487 10.5571 4.88967 11.1721C4.59407 11.7871 4.59407 12.5851 4.59407 14.1801V16.3121C4.59407 17.9071 4.59407 18.7051 4.88967 19.3211C5.18487 19.9351 5.68067 20.4311 6.29547 20.7261C6.91107 21.0221 7.70877 21.0221 9.30407 21.0221Z" stroke="black" stroke-width="1.3" stroke-linecap="round" stroke-linejoin="round"/>
</svg>
