<svg width="24" height="24" viewBox="0 0 24 24" fill="none" xmlns="http://www.w3.org/2000/svg">
<path d="M10.4074 3.63148H13.4273M11.9163 20.1678V20.1155M10.6734 11.7975L11.6715 12.7975L13.7288 10.7392M18.8329 5.4214L18.834 18.5774C18.834 21.02 17.0765 23 14.9084 23H8.9256C6.75857 23 5.00109 21.02 5.00109 18.5786L5.00003 5.4226C5.00003 2.98 6.75751 1 8.92455 1H14.9084C17.0754 1 18.8329 2.98 18.8329 5.4214ZM11.9163 19.8409C11.7664 19.8409 11.6449 19.9624 11.6449 20.1119C11.6449 20.2618 11.7664 20.3833 11.9163 20.3833C12.0663 20.3833 12.1878 20.2618 12.1878 20.1119C12.1878 19.9624 12.0663 19.8409 11.9163 19.8409ZM8.64733 9.30657C8.64733 8.69351 9.14398 8.19589 9.7579 8.19502H10.2633C10.5563 8.19502 10.8376 8.07959 11.0461 7.87292L11.3992 7.51893C11.8309 7.08336 12.535 7.08238 12.9696 7.51405L12.9706 7.51502L12.9744 7.51893L13.3285 7.87194C13.536 8.07861 13.8174 8.19502 14.1112 8.19502H14.6177C15.2307 8.19502 15.7282 8.69254 15.7282 9.30657V9.81103C15.7282 10.1039 15.8446 10.3862 16.0513 10.5938L16.4043 10.9479C16.8399 11.3804 16.8428 12.0837 16.4102 12.5192L16.4053 12.5231L16.0513 12.8772C15.8446 13.0857 15.7292 13.366 15.7292 13.6589V14.1662C15.7282 14.7793 15.2307 15.2759 14.6177 15.2749H14.1104C13.8164 15.2749 13.5351 15.3913 13.3275 15.598L12.9734 15.952C12.5419 16.3876 11.8395 16.3905 11.4031 15.9588L11.4021 15.9569L11.3982 15.953L11.0441 15.5999C10.8366 15.3933 10.5553 15.2769 10.2624 15.2769H9.7579C9.14495 15.2769 8.64733 14.7793 8.64733 14.1662V13.658C8.64733 13.365 8.53092 13.0847 8.32425 12.8762L7.97124 12.5221C7.53567 12.0914 7.53176 11.3882 7.96343 10.9526L7.96538 10.9507L7.97026 10.9469L8.32328 10.5928C8.52994 10.3852 8.64635 10.1039 8.64635 9.81005L8.64733 9.30657Z" stroke="black" stroke-width="1.2" stroke-linecap="round" stroke-linejoin="round"/>
</svg>
