<svg width="24" height="24" viewBox="0 0 24 24" fill="none" xmlns="http://www.w3.org/2000/svg">
<path d="M8.66992 5.22985C8.66992 4.51685 8.66992 4.16035 8.78865 3.87995C8.9406 3.52113 9.22621 3.23552 9.58503 3.08358C9.86542 2.96484 10.2219 2.96484 10.9349 2.96484H13.0661C13.7791 2.96484 14.1356 2.96484 14.416 3.08358C14.7748 3.23552 15.0604 3.52113 15.2124 3.87995C15.3311 4.16035 15.3311 4.51685 15.3311 5.22984V5.50452C15.3311 6.21752 15.3311 6.57402 15.2124 6.85441C15.0604 7.21323 14.7748 7.49885 14.416 7.65079C14.1356 7.76952 13.7791 7.76952 13.0661 7.76952H10.9349C10.2219 7.76952 9.86542 7.76952 9.58503 7.65079C9.22621 7.49885 8.9406 7.21323 8.78865 6.85441C8.66992 6.57402 8.66992 6.21752 8.66992 5.50452V5.22985Z" stroke="black" stroke-width="1.2"/>
<path d="M3.50977 18.4955C3.50977 17.7825 3.50977 17.426 3.6285 17.1456C3.78044 16.7868 4.06605 16.5011 4.42487 16.3492C4.70527 16.2305 5.06177 16.2305 5.77477 16.2305H7.90596C8.61896 16.2305 8.97546 16.2305 9.25586 16.3492C9.61468 16.5011 9.90029 16.7868 10.0522 17.1456C10.171 17.426 10.171 17.7825 10.171 18.4955V18.7701C10.171 19.4831 10.171 19.8396 10.0522 20.12C9.90029 20.4789 9.61468 20.7645 9.25586 20.9164C8.97546 21.0351 8.61896 21.0351 7.90597 21.0351H5.77477C5.06177 21.0351 4.70527 21.0351 4.42487 20.9164C4.06605 20.7645 3.78044 20.4789 3.6285 20.12C3.50977 19.8396 3.50977 19.4831 3.50977 18.7701V18.4955Z" stroke="black" stroke-width="1.2"/>
<path d="M13.8301 18.4955C13.8301 17.7825 13.8301 17.426 13.9488 17.1456C14.1008 16.7868 14.3864 16.5011 14.7452 16.3492C15.0256 16.2305 15.3821 16.2305 16.0951 16.2305H18.2263C18.9393 16.2305 19.2958 16.2305 19.5762 16.3492C19.935 16.5011 20.2206 16.7868 20.3725 17.1456C20.4913 17.426 20.4913 17.7825 20.4913 18.4955V18.7701C20.4913 19.4831 20.4913 19.8396 20.3725 20.12C20.2206 20.4789 19.935 20.7645 19.5762 20.9164C19.2958 21.0351 18.9393 21.0351 18.2263 21.0351H16.0951C15.3821 21.0351 15.0256 21.0351 14.7452 20.9164C14.3864 20.7645 14.1008 20.4789 13.9488 20.12C13.8301 19.8396 13.8301 19.4831 13.8301 18.7701V18.4955Z" stroke="black" stroke-width="1.2"/>
<path d="M17.1597 16.2379L17.16 14.4485C17.16 13.5929 17.16 13.1651 17.0175 12.8286C16.8351 12.398 16.4924 12.0553 16.0618 11.8729C15.7254 11.7305 15.2976 11.7305 14.442 11.7305H9.55813C8.70253 11.7305 8.27473 11.7305 7.93826 11.8729C7.50767 12.0553 7.16494 12.398 6.98261 12.8286C6.84013 13.1651 6.84013 13.5929 6.84013 14.4485L6.83984 16.2379" stroke="black" stroke-width="1.2"/>
<path d="M12 7.80865V11.6934" stroke="black" stroke-width="1.2" stroke-linecap="round" stroke-linejoin="round"/>
</svg>
